<?xml version="1.0" encoding="utf-8"?>
<!-- Generator: Adobe Illustrator 15.1.0, SVG Export Plug-In . SVG Version: 6.00 Build 0)  -->
<!DOCTYPE svg PUBLIC "-//W3C//DTD SVG 1.1//EN" "http://www.w3.org/Graphics/SVG/1.1/DTD/svg11.dtd">
<svg version="1.1" id="Layer_1" xmlns="http://www.w3.org/2000/svg" xmlns:xlink="http://www.w3.org/1999/xlink" x="0px" y="0px"
	 width="788.524px" height="283.465px" viewBox="-285.391 0 788.524 283.465" enable-background="new -285.391 0 788.524 283.465"
	 xml:space="preserve">
<g id="Layer_2">
	<path fill="#29338A" d="M-128.339,132.611c-1.507,0-4.111-0.081-7.802-0.269c-3.694-0.173-5.789-0.979-6.29-2.397
		c-0.507-1.252-0.424-3.021,0.253-5.337c0.667-2.31,1.087-3.911,1.257-4.799L-109.961,0h-42.541c-0.167,0-4.49,3.972-12.959,11.9
		c-8.476,7.936-18.083,17.155-28.819,27.669c-13.258,13.018-23.327,23.444-30.207,31.284c-7.887,9.086-16.947,20.413-27.182,33.954
		c-8.051,10.521-15.941,21.212-23.656,32.08c-3.356,4.813-6.71,9.541-10.066,14.174h87.406l-12.146,47.322h50.59
		c1.17-8.074,2.347-14.16,3.524-18.291c3.524-12.731,8.387-20.972,14.597-24.734c3.188-1.789,6.838-2.96,10.951-3.498
		c4.108-0.537,8.431-0.803,12.961-0.803c0.67,0,1.593,0,2.771,0l5.28-18.449h-18.881V132.611z M-173.762,56.686
		c-0.757,2.851-1.309,4.986-1.641,6.412l-17.847,69.517h-9.115c-36.882,0-37.89,0-39.23,0c-2.517,0-4.366-0.807-5.537-2.405
		c-0.843-1.244,1.006-5.17,5.537-11.766c5.368-7.84,14.095-18.889,26.175-33.151c7.888-9.269,15.942-17.997,24.163-26.198
		c9.227-9.089,14.601-13.279,16.107-12.565c1.673,0.711,2.518,2.137,2.518,4.276C-172.632,51.87-173.012,53.833-173.762,56.686z"/>
	<g>
		<path fill="#29338A" d="M54.378,10.262L41.072,67.9H22.401c0.43-1.793,0.822-3.812,1.176-6.054c0.359-2.242,0.54-5.082,0.54-8.52
			c0-7.922-1.286-14.132-3.86-18.616c-3.577-6.274-9.585-9.421-18.027-9.421c-10.875,0-22.393,7.462-34.555,22.382
			c-12.735,15.663-19.099,31.557-19.099,47.669c0,12.232,2.965,21.858,8.905,28.864c5.933,7.021,13.628,10.521,23.072,10.521
			c7.724,0,17.173-3.996,28.329-11.996c3.72-2.666,8.586-6.744,14.595-12.222l18.671,12.487c-2.72,2.677-5.367,5.28-7.945,7.812
			c-7.156,6.249-14.876,11.158-23.176,14.727c-12.164,5.351-24.752,8.024-37.772,8.024c-18.885,0-34.631-4.923-47.216-14.775
			c-14.021-11.045-21.031-26.27-21.031-45.678c0-26.124,10.871-47.396,32.621-63.816C-41.771,13.764-16.442,5.998,13.6,5.998
			c6.866,0,15.594,0.672,26.183,2.016C43.362,8.469,48.224,9.219,54.378,10.262z"/>
		<path fill="#29338A" d="M189.587,132.711c-4.584,4.484-8.438,7.773-11.586,9.866c-9.874,6.73-19.465,10.09-28.763,10.09
			c-11.733,0-17.951-9.379-18.662-28.144c-0.729-18.761-3.438-28.144-8.165-28.144c-5.581,0-11.874,4.711-18.878,14.132
			c-4.866,6.574-10.021,15.398-15.456,26.457c-2.146,4.788-4.295,9.569-6.442,14.351H52.661L85.071,8.469h34.765l-17.813,75.353
			c-0.716,3.289-1.068,5.379-1.068,6.273c0,1.202,0.287,1.797,0.858,1.797c8.155-8.969,16.029-16.742,23.607-23.32
			c8.297-7.323,15.519-10.991,21.679-10.991c10.585,0,16.169,11.211,16.735,33.643c0.572,22.422,2.935,34.386,7.087,35.882
			c1.139,0.301,2.002,0.449,2.574,0.449c2.717,0,5.793-1.047,9.23-3.141c0.566-0.297,1.358-0.82,2.362-1.57L189.587,132.711z"/>
		<path fill="#29338A" d="M264.271,138.316c-5.723,3.14-10.369,5.456-13.955,6.949c-11.013,4.788-19.96,7.175-26.824,7.175
			c-7.444,0-14.055-3.027-19.851-9.081c-5.789-6.055-8.689-12.969-8.689-20.745c0-10.316,2.43-23.918,7.296-40.815
			c1.577-5.527,3.996-12.929,7.3-22.198h34.127l-12.448,51.127c-0.425,2.098-0.647,4.343-0.647,6.733
			c0,4.032,0.753,7.547,2.256,10.535c1.5,2.992,3.756,4.488,6.759,4.488c3.147,0,7.158-1.27,12.017-3.813
			c1.577-0.75,3.721-2.02,6.437-3.813L264.271,138.316z M256.112,21.035c0,6.875-2.352,12.555-7.076,17.042
			c-4.729,4.481-10.666,6.723-17.82,6.723c-4.866,0-9.266-1.758-13.191-5.27c-3.943-3.512-5.909-7.812-5.909-12.894
			c0-5.683,2.476-10.723,7.398-15.14c4.943-4.41,10.56-6.613,16.848-6.613c5.156,0,9.732,1.493,13.735,4.481
			C254.111,12.364,256.112,16.246,256.112,21.035z"/>
		<path fill="#29338A" d="M349.677,133.609c-5.142,4.335-9.432,7.55-12.869,9.644c-10.589,6.426-20.742,9.637-30.471,9.637
			c-9.885,0-17.891-2.468-24.052-7.395c-7.15-5.676-10.723-13.979-10.723-24.894c0-5.23,0.502-10.238,1.507-15.022
			c0.283-1.192,1.566-6.129,3.861-14.801L300.095,6.68h34.559l-24.246,96.656c-0.572,2.542-1.146,5.566-1.719,9.081
			c-0.572,3.52-0.862,6.617-0.862,9.305c0,4.039,0.721,7.289,2.149,9.757c1.43,2.469,3.862,3.699,7.3,3.699
			c4.148,0,9.082-2.609,14.811-7.847c1.854-1.648,4.29-4.262,7.296-7.852L349.677,133.609z"/>
		<path fill="#29338A" d="M503.133,137.418c-5.012,3.338-9.011,5.85-12.024,7.519c-9.432,5.156-17.162,7.73-23.175,7.73
			c-9.148,0-15.953-3.459-20.381-10.387c-2.86-7.525-5.726-15.118-8.59-22.803c-9.298,8.526-18.669,16.002-28.119,22.428
			c-10.588,7.172-19.67,10.759-27.248,10.759c-7.731,0-14.489-3.551-20.282-10.648c-5.793-7.099-8.692-14.984-8.692-23.659
			c0-12.711,3.936-24.37,11.805-34.987c5.58-7.473,12.88-14.047,21.897-19.733c6.567-4.184,10.508-6.277,11.798-6.277l50.643,11.438
			l16.103-60.549h35.198l-22.754,93.965c-0.714,2.685-1.394,5.492-2.037,8.406c-0.644,2.918-0.969,5.422-0.969,7.512
			c0,4.636,1.648,8.151,4.934,10.542c1.581,1.047,3.66,1.57,6.228,1.57c3.006,0,6.295-0.598,9.87-1.797
			c1.143-0.293,2.717-0.969,4.729-2.012L503.133,137.418z M445.616,78.439c-0.432-0.445-1.577-0.668-3.438-0.668
			c-9.152,0-19.03,2.914-29.615,8.745c-13.735,7.477-20.597,16.969-20.597,28.477c0,4.636,1.182,8.042,3.54,10.206
			c2.353,2.168,5.394,3.25,9.121,3.25c4.007,0,8.269-1.082,12.773-3.25c4.506-2.164,8.113-4.824,10.833-7.961
			c5.152-5.824,9.445-12.335,12.883-19.507c3.427-7.183,5.143-12.64,5.143-16.378C446.259,80.158,446.05,79.189,445.616,78.439z"/>
	</g>
</g>
<g id="Layer_3">
	<g>
		<path fill="#B20933" d="M-119.979,215.627c0-0.962-0.412-1.237-1.756-1.438v-0.492h16.319c0,1.694,0.067,3.409,0.205,5.1h-0.688
			c-0.412-2.758-1.583-3.169-3.096-3.169h-7.609v8.061h4.99c1.551-0.106,1.963-0.351,2.134-1.932h0.688
			c-0.103,1.136-0.207,2.002-0.207,2.791c0,0.997,0.104,1.856,0.207,2.991h-0.688c-0.175-1.584-0.587-1.824-2.134-1.924h-4.99v8.194
			c0,0.962,0.414,1.237,1.756,1.439v0.48c-0.723,0-2.136-0.205-3.443-0.205s-2.72,0.205-3.444,0.205v-0.48
			c1.344-0.205,1.756-0.481,1.756-1.439V215.627z"/>
		<path fill="#B20933" d="M-95.649,219.139c5.197,0,8.124,4.197,8.124,8.473c0,5.439-3.614,8.467-8.366,8.467
			c-4.82,0-8.091-3.579-8.091-8.572C-103.983,222.721-100.47,219.139-95.649,219.139z M-95.411,234.151
			c3.338,0,4.921-2.928,4.921-5.892c0-3.027-1.375-7.193-5.301-7.193c-2.27,0-5.232,1.514-5.232,5.821
			C-101.02,230.395-99.23,234.151-95.411,234.151z"/>
		<path fill="#B20933" d="M-83.337,222.51c0-1.167-0.412-1.479-1.583-1.549v-0.276c1.514-0.445,3.407-1.1,4.647-1.553
			c-0.069,0.768-0.106,1.932-0.106,3.105v9.464c0,1.067,0.621,2.234,2.446,2.234c2.994,0,4.576-2.681,4.576-7.023v-4.406
			c0-1.167-0.412-1.479-1.583-1.549v-0.276c1.515-0.445,3.409-1.1,4.647-1.552c-0.069,0.768-0.104,1.931-0.104,3.104v11.395
			c0,1.029,0.274,1.475,1.586,1.609v0.481c-0.656-0.064-1.586-0.206-2.376-0.206c-0.587,0-1.756,0.142-2.375,0.206
			c0.069-0.683,0.205-1.476,0.205-2.232v-0.965h-0.067c-0.826,2.235-2.55,3.547-5.061,3.547c-2.237,0-4.852-1.276-4.852-4.993
			V222.51z"/>
		<path fill="#B20933" d="M-64.452,222.51c0-1.167-0.412-1.479-1.581-1.549v-0.276c1.513-0.445,3.407-1.1,4.645-1.553
			c-0.069,0.768-0.101,1.932-0.101,3.105h0.069c0.898-1.69,2.582-2.759,4.269-2.759c0.688,0,1.064,0.142,1.344,0.276
			c0.069,0.757,0.138,1.69,0.138,2.893c-0.829-0.481-1.239-0.831-2.238-0.831c-2.17,0-3.577,1.994-3.577,4.236v7.891
			c0,0.827,0.895,1.209,1.856,1.305v0.48c-1.169-0.095-2.099-0.205-3.338-0.205c-1.238,0-2.169,0.106-3.338,0.205v-0.48
			c0.964-0.096,1.858-0.481,1.858-1.305V222.51H-64.452z"/>
		<path fill="#B20933" d="M-28.281,233.423c-1.825,1.79-4.682,2.652-7.609,2.652c-4.476,0-10.64-3.303-10.64-11.362
			c0-8.367,7.298-11.561,12.118-11.561c1.756,0,3.646,0.304,5.232,1.061c0.032,1.726,0.17,3.444,0.345,5.17h-0.482
			c-0.688-3.133-3.614-4.102-6.026-4.102c-4.576,0-8.021,3.274-8.021,8.296c0,5.305,3.752,10.157,8.604,10.157
			c2.376,0,4.683-0.962,6.61-2.235L-28.281,233.423z"/>
		<path fill="#B20933" d="M-17.518,219.139c5.201,0,8.122,4.197,8.122,8.473c0,5.439-3.614,8.467-8.365,8.467
			c-4.82,0-8.09-3.579-8.09-8.572C-25.851,222.721-22.338,219.139-17.518,219.139z M-17.279,234.151
			c3.338,0,4.921-2.928,4.921-5.892c0-3.027-1.375-7.193-5.301-7.193c-2.271,0-5.234,1.514-5.234,5.821
			C-22.889,230.395-21.1,234.151-17.279,234.151z"/>
		<path fill="#B20933" d="M-5.205,222.51c0-1.167-0.414-1.479-1.583-1.549v-0.276c1.514-0.445,3.407-1.1,4.645-1.553
			c-0.069,0.768-0.101,1.932-0.101,3.105v9.464c0,1.067,0.619,2.234,2.443,2.234c2.996,0,4.578-2.681,4.578-7.023v-4.406
			c0-1.167-0.412-1.479-1.583-1.549v-0.276c1.514-0.445,3.407-1.1,4.647-1.552c-0.069,0.768-0.106,1.931-0.106,3.104v11.395
			c0,1.029,0.276,1.475,1.586,1.609v0.481c-0.654-0.064-1.586-0.206-2.375-0.206c-0.587,0-1.756,0.142-2.377,0.206
			c0.069-0.683,0.207-1.476,0.207-2.232v-0.965H4.709c-0.826,2.235-2.546,3.547-5.059,3.547c-2.238,0-4.852-1.276-4.852-4.993
			v-8.565H-5.205z"/>
		<path fill="#B20933" d="M13.68,222.51c0-1.167-0.412-1.479-1.583-1.549v-0.276c1.514-0.445,3.407-1.1,4.647-1.553
			c-0.069,0.768-0.106,1.932-0.106,2.763h0.069c0.898-1.69,2.55-2.763,4.408-2.763c3.305,0,5.508,1.932,5.508,6.065v8.438
			c0,1.028,0.274,1.475,1.586,1.608v0.481c-0.656-0.063-1.586-0.205-2.376-0.205c-0.587,0-1.756,0.142-2.375,0.205
			c0.069-0.683,0.205-1.475,0.205-2.231v-8.849c0-2.546-1.307-3.374-2.924-3.374c-2.271,0-4.097,2.002-4.097,4.92v7.752
			c0,0.827,0.898,1.209,1.862,1.305v0.48c-1.168-0.095-2.101-0.205-3.338-0.205c-1.239,0-2.169,0.106-3.338,0.205v-0.48
			c0.962-0.096,1.856-0.481,1.856-1.305V222.51H13.68z"/>
		<path fill="#B20933" d="M30.332,219.482h2.237v-2.716c1.309-0.453,2.272-1.345,2.96-2.278v4.994h4.682v1.726h-4.682v10.256
			c0,1.588,0.274,2.893,1.86,2.893c1.064,0,2.065-0.378,2.96-1.029l-0.31,1.96c-1.031,0.48-2.132,0.792-3.27,0.792
			c-3.131,0-4.201-1.344-4.201-4.304v-10.567h-2.237V219.482z"/>
		<path fill="#B20933" d="M43.991,222.375c0-0.863-0.377-1.068-1.514-1.309c-0.17-0.035-0.345-0.07-0.552-0.103v-0.275
			c1.79-0.446,3.545-0.998,5.201-1.549c-0.069,1.103-0.173,2.372-0.173,3.479v11.324c0,0.827,0.895,1.209,1.862,1.305v0.48
			c-1.17-0.095-2.101-0.205-3.338-0.205c-1.24,0-2.17,0.106-3.34,0.205v-0.48c0.964-0.096,1.858-0.481,1.858-1.305v-11.568H43.991z
			 M45.54,212.769c1.102,0,1.997,0.898,1.997,1.998c0,1.104-0.895,2.002-1.997,2.002c-1.1,0-1.995-0.898-1.995-2.002
			C43.545,213.668,44.44,212.769,45.54,212.769z"/>
		<path fill="#B20933" d="M54.518,226.99c-0.032,3.926,2.65,6.744,6.645,6.744c1.758,0,2.789-0.312,5.577-2.271l-0.239,2.235
			c-1.655,1.485-4.095,2.376-7.057,2.376c-4.82,0-8.091-3.579-8.091-8.572c0-4.781,3.513-8.371,8.333-8.371
			c5.232,0,7.848,3.105,7.848,7.854H54.518V226.99z M64.158,225.267c0-2.648-1.724-4.406-4.444-4.406
			c-2.582,0-4.714,1.893-4.99,4.406H64.158z"/>
		<path fill="#B20933" d="M70.38,231.294h0.412c1.206,2.582,3.27,3.063,5.473,3.063c2.617,0,3.995-1.104,3.995-2.617
			c0-1.789-0.859-2.101-4.923-2.928c-3.238-0.654-5.059-2.033-5.059-4.478c0-3.063,2.651-5.202,7.091-5.202
			c1.514,0,3.027,0.418,4.513,0.661v3.852H81.4c-0.625-1.86-2.274-2.786-4.237-2.786c-2.478,0-4.132,1.032-4.132,2.857
			c0,1.619,1.48,2.029,4.475,2.581c3.618,0.683,5.301,1.62,5.301,4.647c0,3.232-2.65,5.128-7.163,5.128
			c-1.722,0-3.477-0.41-4.99-1.203L70.38,231.294z"/>
		<path fill="#B20933" d="M102.313,213.696c8.742,0,13.389,4.275,13.389,10.783c0,6.574-5.61,11.048-12.429,11.048h-9.123v-0.481
			c1.339-0.205,1.752-0.48,1.752-1.442v-17.973c0-0.962-0.414-1.237-1.752-1.439v-0.495H102.313z M99.283,233.599h4.82
			c3.512,0,8.226-3.168,8.226-8.473c0-3.919-1.892-9.5-11.326-9.5h-1.724v17.973H99.283z"/>
		<path fill="#B20933" d="M120.159,220.104c1.651-0.693,3.44-0.973,5.198-0.973c3.756,0,6.508,1.588,6.508,5.991v8.127
			c0,1.139,0.134,1.931,1.414,1.994v0.481c-0.722-0.063-1.414-0.205-2.136-0.205c-0.658,0-1.344,0.142-2.03,0.205v-3.265h-0.074
			c-1.171,2.508-2.995,3.614-5.747,3.614c-2.995,0-5.057-1.552-5.057-4.646c0-2.79,1.824-4.442,5.333-4.923l4.855-0.65
			c0.654-0.106,0.689-0.729,0.689-1.21c0-2.44-1.344-3.579-3.756-3.579c-2.306,0-3.961,0.796-5.028,2.79h-0.375L120.159,220.104z
			 M124.6,228.199c-2.412,0.407-3.405,1.408-3.405,3.063c0,1.885,1.305,2.681,3.095,2.681c3.274,0,4.646-3.474,4.646-5.814v-0.689
			L124.6,228.199z"/>
		<path fill="#B20933" d="M134.708,219.482h2.235v-2.716c1.309-0.453,2.277-1.345,2.96-2.278v4.994h4.683v1.726h-4.683v10.256
			c0,1.588,0.275,2.893,1.863,2.893c1.068,0,2.063-0.378,2.957-1.029l-0.312,1.96c-1.032,0.48-2.133,0.792-3.268,0.792
			c-3.134,0-4.201-1.344-4.201-4.304v-10.567h-2.235V219.482z"/>
		<path fill="#B20933" d="M148.333,220.104c1.651-0.693,3.441-0.973,5.202-0.973c3.749,0,6.5,1.588,6.5,5.991v8.127
			c0,1.139,0.142,1.931,1.419,1.994v0.481c-0.726-0.063-1.419-0.205-2.14-0.205c-0.651,0-1.341,0.142-2.03,0.205v-3.265h-0.07
			c-1.171,2.508-2.996,3.614-5.751,3.614c-2.991,0-5.057-1.552-5.057-4.646c0-2.79,1.824-4.442,5.333-4.923l4.858-0.65
			c0.654-0.106,0.687-0.729,0.687-1.21c0-2.44-1.344-3.579-3.749-3.579c-2.313,0-3.964,0.796-5.032,2.79h-0.378L148.333,220.104z
			 M152.772,228.199c-2.412,0.407-3.405,1.408-3.405,3.063c0,1.885,1.305,2.681,3.094,2.681c3.271,0,4.647-3.474,4.647-5.814v-0.689
			L152.772,228.199z"/>
		<path fill="#B20933" d="M165.118,213.633c0-0.792-0.311-0.969-1.237-1.237c-0.237-0.074-0.484-0.106-0.796-0.178v-0.275
			c1.62-0.445,3.926-1.068,5.167-1.549c-0.074,1.616-0.174,3.239-0.174,4.852v6.613h0.1c1.344-1.828,3.479-2.727,5.651-2.727
			c4.024,0,7.639,2.964,7.639,8.233c0,4.371-3.13,8.707-8.155,8.707c-2.582,0-4.788-0.687-6.337-2.342l-1.655,1.995h-0.446
			c0.071-0.962,0.241-1.959,0.241-2.921v-19.172H165.118z M173.347,221.275c-3.405,0-5.266,2.546-5.266,6.433
			c0,4.445,1.786,6.443,4.82,6.443c3.614,0,5.403-3.204,5.403-6.443C178.305,223.132,175.96,221.275,173.347,221.275z"/>
		<path fill="#B20933" d="M186.072,220.104c1.651-0.693,3.441-0.973,5.198-0.973c3.756,0,6.508,1.588,6.508,5.991v8.127
			c0,1.139,0.134,1.931,1.414,1.994v0.481c-0.725-0.063-1.414-0.205-2.136-0.205c-0.658,0-1.344,0.142-2.03,0.205v-3.265h-0.074
			c-1.17,2.508-2.995,3.614-5.747,3.614c-2.995,0-5.057-1.552-5.057-4.646c0-2.79,1.825-4.442,5.333-4.923l4.855-0.65
			c0.654-0.106,0.689-0.729,0.689-1.21c0-2.44-1.344-3.579-3.756-3.579c-2.309,0-3.961,0.796-5.028,2.79h-0.375L186.072,220.104z
			 M190.513,228.199c-2.411,0.407-3.405,1.408-3.405,3.063c0,1.885,1.305,2.681,3.095,2.681c3.271,0,4.646-3.474,4.646-5.814v-0.689
			L190.513,228.199z"/>
		<path fill="#B20933" d="M201.244,231.294h0.41c1.209,2.582,3.271,3.063,5.475,3.063c2.62,0,3.996-1.104,3.996-2.617
			c0-1.789-0.856-2.101-4.923-2.928c-3.236-0.654-5.058-2.033-5.058-4.478c0-3.063,2.652-5.202,7.095-5.202
			c1.514,0,3.027,0.418,4.509,0.661v3.852h-0.484c-0.622-1.86-2.271-2.786-4.237-2.786c-2.479,0-4.13,1.032-4.13,2.857
			c0,1.619,1.481,2.029,4.477,2.581c3.614,0.683,5.302,1.62,5.302,4.647c0,3.232-2.649,5.128-7.161,5.128
			c-1.727,0-3.48-0.41-4.994-1.203L201.244,231.294z"/>
		<path fill="#B20933" d="M219.308,226.99c-0.039,3.926,2.648,6.744,6.642,6.744c1.754,0,2.79-0.312,5.58-2.271l-0.24,2.235
			c-1.655,1.485-4.103,2.376-7.059,2.376c-4.82,0-8.085-3.579-8.085-8.572c0-4.781,3.509-8.371,8.325-8.371
			c5.233,0,7.851,3.105,7.851,7.854h-13.014V226.99z M228.945,225.267c0-2.648-1.723-4.406-4.445-4.406
			c-2.582,0-4.718,1.893-4.986,4.406H228.945z"/>
		<path fill="#B20933" d="M251.716,219.139c5.198,0,8.127,4.197,8.127,8.473c0,5.439-3.614,8.467-8.367,8.467
			c-4.824,0-8.088-3.579-8.088-8.572C243.391,222.721,246.9,219.139,251.716,219.139z M251.963,234.151
			c3.339,0,4.923-2.928,4.923-5.892c0-3.027-1.383-7.193-5.308-7.193c-2.271,0-5.23,1.514-5.23,5.821
			C246.348,230.395,248.137,234.151,251.963,234.151z"/>
		<path fill="#B20933" d="M264.031,221.208h-1.96v-0.898c1.755-0.205,2.034-0.48,2.034-2.818c0-5.715,3.992-6.472,5.092-6.472
			c0.69,0,1.345,0.07,2.034,0.17l0.142,2.482h-0.351c-0.138-0.622-0.895-0.934-1.479-0.934c-1.86,0-2.55,1.45-2.55,2.617v4.134
			h3.791v1.726h-3.791v12.729c0,0.827,0.898,1.209,1.86,1.305v0.48c-1.167-0.095-2.101-0.205-3.338-0.205
			c-1.238,0-2.172,0.106-3.339,0.205v-0.48c0.966-0.096,1.86-0.481,1.86-1.305v-12.735H264.031z"/>
		<path fill="#B20933" d="M298.31,233.423c-1.825,1.79-4.683,2.652-7.607,2.652c-4.478,0-10.642-3.303-10.642-11.362
			c0-8.367,7.303-11.561,12.12-11.561c1.754,0,3.649,0.304,5.23,1.061c0.035,1.726,0.173,3.444,0.343,5.17h-0.481
			c-0.686-3.133-3.614-4.102-6.022-4.102c-4.579,0-8.024,3.274-8.024,8.296c0,5.305,3.753,10.157,8.608,10.157
			c2.376,0,4.683-0.962,6.606-2.235L298.31,233.423z"/>
		<path fill="#B20933" d="M303.905,226.99c-0.039,3.926,2.648,6.744,6.645,6.744c1.754,0,2.787-0.312,5.577-2.271l-0.237,2.235
			c-1.654,1.485-4.102,2.376-7.059,2.376c-4.823,0-8.088-3.579-8.088-8.572c0-4.781,3.512-8.371,8.328-8.371
			c5.234,0,7.852,3.105,7.852,7.854h-13.018V226.99z M313.544,225.267c0-2.648-1.722-4.406-4.445-4.406
			c-2.581,0-4.718,1.893-4.986,4.406H313.544z"/>
		<path fill="#B20933" d="M321.378,222.51c0-1.167-0.41-1.479-1.585-1.549v-0.276c1.521-0.445,3.409-1.1,4.647-1.553
			c-0.071,0.768-0.1,1.932-0.1,3.105h0.071c0.895-1.69,2.582-2.759,4.269-2.759c0.683,0,1.071,0.142,1.34,0.276
			c0.071,0.757,0.139,1.69,0.139,2.893c-0.824-0.481-1.241-0.831-2.235-0.831c-2.175,0-3.583,1.994-3.583,4.236v7.891
			c0,0.827,0.898,1.209,1.86,1.305v0.48c-1.167-0.095-2.097-0.205-3.338-0.205c-1.238,0-2.172,0.106-3.339,0.205v-0.48
			c0.966-0.096,1.86-0.481,1.86-1.305V222.51H321.378z"/>
		<path fill="#B20933" d="M334.003,226.99c-0.035,3.926,2.652,6.744,6.648,6.744c1.751,0,2.787-0.312,5.574-2.271l-0.237,2.235
			c-1.651,1.485-4.099,2.376-7.059,2.376c-4.82,0-8.088-3.579-8.088-8.572c0-4.781,3.515-8.371,8.332-8.371
			c5.233,0,7.851,3.105,7.851,7.854h-13.021V226.99z M343.644,225.267c0-2.648-1.723-4.406-4.441-4.406
			c-2.582,0-4.718,1.893-4.99,4.406H343.644z"/>
		<path fill="#B20933" d="M351.481,213.633c0-0.792-0.312-0.969-1.238-1.237c-0.24-0.074-0.484-0.106-0.792-0.178v-0.275
			c1.613-0.445,3.922-1.068,5.163-1.549c-0.07,1.616-0.173,3.239-0.173,4.852v6.613h0.103c1.344-1.828,3.479-2.727,5.647-2.727
			c4.028,0,7.643,2.964,7.643,8.233c0,4.371-3.133,8.707-8.162,8.707c-2.582,0-4.781-0.687-6.33-2.342l-1.655,1.995h-0.445
			c0.067-0.962,0.24-1.959,0.24-2.921V213.633L351.481,213.633z M359.714,221.275c-3.41,0-5.27,2.546-5.27,6.433
			c0,4.445,1.789,6.443,4.82,6.443c3.614,0,5.399-3.204,5.399-6.443C364.665,223.132,362.324,221.275,359.714,221.275z"/>
		<path fill="#B20933" d="M372.265,222.51c0-1.167-0.414-1.479-1.588-1.549v-0.276c1.521-0.445,3.409-1.1,4.646-1.553
			c-0.067,0.768-0.099,1.932-0.099,3.105h0.07c0.896-1.69,2.582-2.759,4.272-2.759c0.683,0,1.068,0.142,1.337,0.276
			c0.07,0.757,0.138,1.69,0.138,2.893c-0.824-0.481-1.237-0.831-2.231-0.831c-2.175,0-3.586,1.994-3.586,4.236v7.891
			c0,0.827,0.898,1.209,1.863,1.305v0.48c-1.17-0.095-2.101-0.205-3.338-0.205c-1.241,0-2.175,0.106-3.342,0.205v-0.48
			c0.965-0.096,1.859-0.481,1.859-1.305V222.51H372.265z"/>
		<path fill="#B20933" d="M383.649,220.104c1.655-0.693,3.444-0.973,5.202-0.973c3.752,0,6.504,1.588,6.504,5.991v8.127
			c0,1.139,0.138,1.931,1.414,1.994v0.481c-0.721-0.063-1.414-0.205-2.136-0.205c-0.654,0-1.344,0.142-2.03,0.205v-3.265h-0.07
			c-1.174,2.508-2.999,3.614-5.75,3.614c-2.992,0-5.058-1.552-5.058-4.646c0-2.79,1.825-4.442,5.333-4.923l4.859-0.65
			c0.65-0.106,0.686-0.729,0.686-1.21c0-2.44-1.344-3.579-3.752-3.579c-2.31,0-3.965,0.796-5.032,2.79h-0.375L383.649,220.104z
			 M388.09,228.199c-2.408,0.407-3.401,1.408-3.401,3.063c0,1.885,1.305,2.681,3.094,2.681c3.271,0,4.644-3.474,4.644-5.814v-0.689
			L388.09,228.199z"/>
		<path fill="#B20933" d="M400.642,213.633c0-0.792-0.308-0.969-1.238-1.237c-0.236-0.074-0.484-0.106-0.796-0.178v-0.275
			c1.62-0.445,3.926-1.068,5.167-1.549c-0.067,1.616-0.173,3.239-0.173,4.852v18.698c0,0.827,0.898,1.209,1.86,1.305v0.48
			c-1.167-0.095-2.098-0.205-3.339-0.205c-1.237,0-2.171,0.106-3.339,0.205v-0.48c0.962-0.096,1.857-0.481,1.857-1.305V213.633z"/>
		<path fill="#B20933" d="M418.639,215.627c0-0.962-0.417-1.237-1.754-1.438v-0.492h10.121c4.541,0,6.776,2.621,6.776,6.443
			c0,4.194-3.269,6.883-7.919,6.883c-0.823,0-2.684-0.312-3.299-0.892c-0.106-0.106-0.213-0.177-0.213-0.347
			c0-0.173,0.174-0.275,0.484-0.275h2.065c3.236,0,5.712-1.79,5.712-5.033c0-4.406-3.063-5.054-7.71-5.054h-0.898v18.383
			c0,0.962,0.418,1.238,1.762,1.439v0.481c-0.729,0-2.14-0.205-3.444-0.205c-1.309,0-2.724,0.205-3.445,0.205v-0.481
			c1.345-0.205,1.755-0.48,1.755-1.439v-18.178H418.639z"/>
		<path fill="#B20933" d="M437.181,220.104c1.651-0.693,3.44-0.973,5.202-0.973c3.748,0,6.503,1.588,6.503,5.991v8.127
			c0,1.139,0.139,1.931,1.415,1.994v0.481c-0.725-0.063-1.415-0.205-2.136-0.205c-0.654,0-1.344,0.142-2.034,0.205v-3.265h-0.07
			c-1.167,2.508-2.992,3.614-5.747,3.614c-2.995,0-5.061-1.552-5.061-4.646c0-2.79,1.825-4.442,5.337-4.923l4.855-0.65
			c0.657-0.106,0.686-0.729,0.686-1.21c0-2.44-1.344-3.579-3.748-3.579c-2.313,0-3.961,0.796-5.029,2.79h-0.378L437.181,220.104z
			 M441.626,228.199c-2.412,0.407-3.409,1.408-3.409,3.063c0,1.885,1.309,2.681,3.098,2.681c3.268,0,4.647-3.474,4.647-5.814v-0.689
			L441.626,228.199z"/>
		<path fill="#B20933" d="M454.173,213.633c0-0.792-0.308-0.969-1.237-1.237c-0.24-0.074-0.481-0.106-0.792-0.178v-0.275
			c1.616-0.445,3.926-1.068,5.163-1.549c-0.07,1.616-0.17,3.239-0.17,4.852v18.698c0,0.827,0.892,1.209,1.856,1.305v0.48
			c-1.17-0.095-2.097-0.205-3.342-0.205c-1.237,0-2.164,0.106-3.338,0.205v-0.48c0.965-0.096,1.859-0.481,1.859-1.305V213.633
			L454.173,213.633z"/>
		<path fill="#B20933" d="M461.671,231.294h0.41c1.209,2.582,3.271,3.063,5.475,3.063c2.62,0,3.996-1.104,3.996-2.617
			c0-1.789-0.855-2.101-4.923-2.928c-3.236-0.654-5.058-2.033-5.058-4.478c0-3.063,2.652-5.202,7.095-5.202
			c1.514,0,3.027,0.418,4.505,0.661v3.852h-0.48c-0.622-1.86-2.271-2.786-4.236-2.786c-2.479,0-4.131,1.032-4.131,2.857
			c0,1.619,1.481,2.029,4.477,2.581c3.615,0.683,5.302,1.62,5.302,4.647c0,3.232-2.649,5.128-7.161,5.128
			c-1.727,0-3.48-0.41-4.994-1.203L461.671,231.294z"/>
		<path fill="#B20933" d="M477.048,220.755c-0.237-0.587-1.033-0.756-1.585-0.792v-0.48c1.309,0.103,2.306,0.205,3.477,0.205
			c1.241,0,2.31-0.096,3.271-0.205v0.48c-0.623,0.106-1.588,0.177-1.588,0.998c0,0.346,0.138,0.792,1.588,4.509l2.581,6.681h0.071
			l1.272-3.714c2.102-6.062,2.342-6.818,2.342-7.2c0-0.927-0.654-1.163-1.443-1.273v-0.48c0.994,0.103,1.995,0.205,3.027,0.205
			c0.722,0,1.415-0.1,2.136-0.205v0.48c-1.131,0.071-1.379,0.722-1.754,1.727L485.21,235.7c-0.687,1.889-1.306,3.027-1.96,4.269
			c-0.622,1.171-2.242,2.204-3.479,2.204c-0.615,0-1.132-0.071-1.62-0.237l-0.205-3.862h0.379c0.208,0.793,0.48,1.55,1.446,1.55
			c0.962,0.074,1.684-0.375,2.271-1.273c0.686-1.068,1.135-1.825,1.135-2.479c0-0.205-0.622-1.549-1.927-4.816L477.048,220.755z"/>
		<path fill="#B20933" d="M496.287,231.673v0.993c0,0.934-0.449,3.311-0.997,4.478c-0.998,2.136-1.755,2.723-1.999,2.723
			c-0.208,0-0.378-0.105-0.378-0.311c0-0.209,0.622-1.588,0.622-3.204c0-1.588-0.311-3.134-0.622-4.683h3.374V231.673z"/>
		<path fill="#B20933" d="M-117.263,254.78c1.377,0,2.789,0.205,4.166,0.205c0.999,0,1.963-0.205,2.994-0.205v0.48
			c-1.307,0.035-1.756,0.347-1.756,1.005c0,0.375,0.239,1.096,0.376,1.475l5.508,15.288h0.069l4.921-14.804
			c0.276-0.863,0.449-1.514,0.449-1.931c0-0.687-0.926-0.892-1.618-1.033v-0.48c1.031,0,2.101,0.205,3.131,0.205
			c0.863,0,1.721-0.205,2.582-0.205v0.48c-1.1,0.142-1.719,0.828-2.063,1.86l-6.746,19.896h-2.308l-7.575-20.208
			c-0.308-0.757-0.587-1.407-2.134-1.549v-0.48H-117.263z"/>
		<path fill="#B20933" d="M-93.248,263.664c0-0.863-0.376-1.068-1.514-1.309c-0.171-0.035-0.345-0.074-0.552-0.106v-0.279
			c1.79-0.445,3.545-0.994,5.201-1.549c-0.069,1.104-0.173,2.376-0.173,3.479v11.324c0,0.831,0.898,1.209,1.862,1.309v0.48
			c-1.17-0.099-2.101-0.205-3.34-0.205c-1.238,0-2.167,0.103-3.338,0.205v-0.48c0.964-0.1,1.858-0.481,1.858-1.309v-11.561H-93.248z
			 M-91.699,254.054c1.102,0,1.997,0.898,1.997,1.995c0,1.104-0.895,2.001-1.997,2.001c-1.1,0-1.995-0.897-1.995-2.001
			C-93.694,254.953-92.799,254.054-91.699,254.054z"/>
		<path fill="#B20933" d="M-85.712,272.583h0.412c1.206,2.581,3.271,3.063,5.473,3.063c2.617,0,3.995-1.104,3.995-2.617
			c0-1.789-0.863-2.101-4.923-2.932c-3.238-0.65-5.059-2.03-5.059-4.474c0-3.066,2.651-5.202,7.091-5.202
			c1.514,0,3.033,0.417,4.513,0.657v3.855h-0.481c-0.619-1.86-2.271-2.787-4.233-2.787c-2.481,0-4.132,1.029-4.132,2.854
			c0,1.619,1.482,2.033,4.476,2.585c3.614,0.683,5.301,1.616,5.301,4.644c0,3.235-2.651,5.128-7.158,5.128
			c-1.724,0-3.478-0.407-4.992-1.203L-85.712,272.583z"/>
		<path fill="#B20933" d="M-68.821,263.664c0-0.863-0.377-1.068-1.516-1.309c-0.169-0.035-0.343-0.074-0.55-0.106v-0.279
			c1.79-0.445,3.545-0.994,5.2-1.549c-0.069,1.104-0.173,2.376-0.173,3.479v11.324c0,0.831,0.898,1.209,1.86,1.309v0.48
			c-1.169-0.099-2.099-0.205-3.338-0.205c-1.238,0-2.169,0.103-3.338,0.205v-0.48c0.964-0.1,1.858-0.481,1.858-1.309v-11.561
			H-68.821z M-67.272,254.054c1.102,0,1.997,0.898,1.997,1.995c0,1.104-0.895,2.001-1.997,2.001s-1.995-0.897-1.995-2.001
			C-69.267,254.953-68.374,254.054-67.272,254.054z"/>
		<path fill="#B20933" d="M-53.095,260.421c5.197,0,8.124,4.201,8.124,8.474c0,5.438-3.614,8.466-8.366,8.466
			c-4.82,0-8.09-3.575-8.09-8.568C-61.427,264.007-57.915,260.421-53.095,260.421z M-52.856,275.44c3.338,0,4.921-2.932,4.921-5.892
			c0-3.027-1.375-7.193-5.301-7.193c-2.27,0-5.232,1.514-5.232,5.817C-58.465,271.68-56.675,275.44-52.856,275.44z"/>
		<path fill="#B20933" d="M-40.749,263.795c0-1.164-0.414-1.475-1.583-1.55v-0.275c1.513-0.445,3.407-1.097,4.645-1.549
			c-0.069,0.764-0.101,1.931-0.101,2.759h0.069c0.898-1.691,2.55-2.759,4.406-2.759c3.307,0,5.508,1.931,5.508,6.062v8.438
			c0,1.033,0.276,1.479,1.586,1.613v0.48c-0.654-0.063-1.586-0.205-2.375-0.205c-0.587,0-1.758,0.142-2.377,0.205
			c0.069-0.683,0.207-1.478,0.207-2.234v-8.845c0-2.547-1.307-3.378-2.926-3.378c-2.271,0-4.095,2.005-4.095,4.923v7.745
			c0,0.831,0.895,1.209,1.858,1.309v0.48c-1.171-0.099-2.101-0.205-3.34-0.205c-1.238,0-2.168,0.103-3.338,0.205v-0.48
			c0.963-0.1,1.858-0.481,1.858-1.309v-11.43H-40.749z"/>
		<path fill="#B20933" d="M-12.915,256.711c0-0.966-0.414-1.241-1.758-1.45v-0.48c0.725,0,2.134,0.205,3.445,0.205
			c1.31,0,2.719-0.205,3.888-0.205v0.48c-1.756,0.142-2.202,0.658-2.202,1.45v18.178H-3c3.168,0,4.095-0.898,4.406-4.103h0.621
			c-0.175,2.002-0.244,4.028-0.276,6.026h-16.423v-0.481c1.344-0.208,1.758-0.484,1.758-1.442V256.711z"/>
		<path fill="#B20933" d="M12.069,260.421c5.201,0,8.122,4.201,8.122,8.474c0,5.438-3.614,8.466-8.364,8.466
			c-4.82,0-8.091-3.575-8.091-8.568C3.735,264.007,7.249,260.421,12.069,260.421z M12.308,275.44c3.338,0,4.921-2.932,4.921-5.892
			c0-3.027-1.375-7.193-5.301-7.193c-2.27,0-5.232,1.514-5.232,5.817C6.699,271.68,8.486,275.44,12.308,275.44z"/>
		<path fill="#B20933" d="M22.795,272.583h0.412c1.206,2.581,3.271,3.063,5.473,3.063c2.619,0,3.995-1.104,3.995-2.617
			c0-1.789-0.863-2.101-4.921-2.932c-3.238-0.65-5.059-2.03-5.059-4.474c0-3.066,2.65-5.202,7.091-5.202
			c1.514,0,3.031,0.417,4.511,0.657v3.855h-0.481c-0.619-1.86-2.271-2.787-4.233-2.787c-2.477,0-4.132,1.029-4.132,2.854
			c0,1.619,1.482,2.033,4.476,2.585c3.614,0.683,5.303,1.616,5.303,4.644c0,3.235-2.652,5.128-7.16,5.128
			c-1.724,0-3.476-0.407-4.99-1.203L22.795,272.583z"/>
		<path fill="#B20933" d="M37.864,272.583h0.412c1.206,2.581,3.269,3.063,5.473,3.063c2.617,0,3.994-1.104,3.994-2.617
			c0-1.789-0.863-2.101-4.923-2.932c-3.237-0.65-5.059-2.03-5.059-4.474c0-3.066,2.65-5.202,7.09-5.202
			c1.514,0,3.031,0.417,4.513,0.657v3.855h-0.481c-0.621-1.86-2.271-2.787-4.233-2.787c-2.478,0-4.133,1.029-4.133,2.854
			c0,1.619,1.48,2.033,4.476,2.585c3.614,0.683,5.301,1.616,5.301,4.644c0,3.235-2.65,5.128-7.16,5.128
			c-1.722,0-3.477-0.407-4.99-1.203L37.864,272.583z"/>
		<path fill="#B20933" d="M63.115,261.393c1.651-0.693,3.441-0.973,5.197-0.973c3.752,0,6.507,1.588,6.507,5.99v8.127
			c0,1.136,0.138,1.928,1.413,1.995v0.48c-0.723-0.063-1.413-0.205-2.132-0.205c-0.656,0-1.344,0.142-2.032,0.205v-3.268h-0.069
			c-1.169,2.511-2.996,3.614-5.747,3.614c-2.995,0-5.059-1.549-5.059-4.644c0-2.79,1.825-4.445,5.338-4.923l4.853-0.65
			c0.656-0.106,0.688-0.729,0.688-1.209c0-2.444-1.344-3.579-3.752-3.579c-2.306,0-3.958,0.792-5.025,2.786h-0.377L63.115,261.393z
			 M67.555,269.481c-2.412,0.41-3.407,1.407-3.407,3.063c0,1.889,1.307,2.681,3.096,2.681c3.27,0,4.647-3.473,4.647-5.811v-0.693
			L67.555,269.481z"/>
		<path fill="#B20933" d="M79.936,263.795c0-1.164-0.412-1.475-1.583-1.55v-0.275c1.514-0.445,3.407-1.097,4.647-1.549
			c-0.069,0.764-0.101,1.931-0.101,2.759h0.07c0.895-1.691,2.546-2.759,4.408-2.759c3.303,0,5.508,1.931,5.508,6.062v8.438
			c0,1.033,0.276,1.479,1.586,1.613v0.48c-0.656-0.063-1.586-0.205-2.375-0.205c-0.583,0-1.754,0.142-2.373,0.205
			c0.069-0.683,0.207-1.478,0.207-2.234v-8.845c0-2.547-1.309-3.378-2.927-3.378c-2.274,0-4.099,2.005-4.099,4.923v7.745
			c0,0.831,0.895,1.209,1.86,1.309v0.48c-1.169-0.099-2.101-0.205-3.338-0.205c-1.242,0-2.173,0.103-3.339,0.205v-0.48
			c0.964-0.1,1.857-0.481,1.857-1.309v-11.43H79.936z"/>
		<path fill="#B20933" d="M115.452,277.013c-0.757-0.063-1.553-0.205-2.31-0.205s-1.549,0.142-2.235,0.205v-2.716h-0.07
			c-1.549,2.377-3.479,3.063-6.125,3.063c-2.583,0-7.366-2.062-7.366-8.123c0-6.058,4.852-8.816,8.397-8.816
			c2.101,0,3.753,0.898,5.095,2.723h0.07v-8.222c0-0.796-0.308-0.973-1.239-1.242c-0.238-0.07-0.484-0.103-0.792-0.177v-0.275
			c1.614-0.445,3.927-1.068,5.165-1.549c-0.074,1.619-0.177,3.243-0.177,4.852v18.91c0,0.615,0.177,0.962,1.588,1.096V277.013
			L115.452,277.013z M100.513,269.028c0,3.444,2.274,6.412,5.476,6.412c2.792,0,4.921-2.005,4.921-6.412
			c0-4.852-2.619-6.472-5.201-6.472C103.472,262.556,100.513,263.865,100.513,269.028z"/>
		<path fill="#B20933" d="M126.829,276.533c1.344-0.205,1.754-0.481,1.754-1.443v-18.383c0-0.962-0.41-1.237-1.754-1.446v-0.48
			c0.721,0,2.136,0.205,3.44,0.205c1.309,0,2.72-0.205,3.445-0.205v0.48c-1.345,0.213-1.758,0.488-1.758,1.446v7.579h10.878v-7.579
			c0-0.962-0.41-1.237-1.751-1.446v-0.48c0.719,0,2.133,0.205,3.441,0.205s2.716-0.205,3.444-0.205v0.48
			c-1.344,0.213-1.758,0.488-1.758,1.446v18.383c0,0.966,0.414,1.241,1.758,1.443v0.48c-0.729,0-2.136-0.205-3.444-0.205
			s-2.723,0.205-3.441,0.205v-0.48c1.341-0.205,1.751-0.481,1.751-1.443v-8.675h-10.878v8.675c0,0.966,0.413,1.241,1.758,1.443v0.48
			c-0.726,0-2.137-0.205-3.445-0.205c-1.305,0-2.72,0.205-3.44,0.205V276.533z"/>
		<path fill="#B20933" d="M154.109,268.271c-0.035,3.926,2.652,6.748,6.648,6.748c1.751,0,2.787-0.312,5.573-2.271l-0.24,2.235
			c-1.647,1.481-4.095,2.373-7.055,2.373c-4.82,0-8.089-3.576-8.089-8.569c0-4.781,3.516-8.371,8.332-8.371
			c5.23,0,7.852,3.105,7.852,7.852h-13.021V268.271z M163.75,266.552c0-2.652-1.726-4.406-4.442-4.406
			c-2.581,0-4.718,1.893-4.993,4.406H163.75z"/>
		<path fill="#B20933" d="M171.792,261.393c1.655-0.693,3.44-0.973,5.202-0.973c3.752,0,6.504,1.588,6.504,5.99v8.127
			c0,1.136,0.138,1.928,1.414,1.995v0.48c-0.722-0.063-1.414-0.205-2.136-0.205c-0.654,0-1.344,0.142-2.03,0.205v-3.268h-0.07
			c-1.175,2.511-2.999,3.614-5.751,3.614c-2.991,0-5.057-1.549-5.057-4.644c0-2.79,1.824-4.445,5.333-4.923l4.855-0.65
			c0.654-0.106,0.689-0.729,0.689-1.209c0-2.444-1.344-3.579-3.752-3.579c-2.31,0-3.965,0.792-5.032,2.786h-0.375L171.792,261.393z
			 M176.233,269.481c-2.408,0.41-3.401,1.407-3.401,3.063c0,1.889,1.305,2.681,3.094,2.681c3.271,0,4.644-3.473,4.644-5.811v-0.693
			L176.233,269.481z"/>
		<path fill="#B20933" d="M188.618,263.795c0-1.164-0.413-1.475-1.584-1.55v-0.275c1.514-0.445,3.405-1.097,4.644-1.549
			c-0.067,0.764-0.103,1.931-0.103,3.104h0.074c0.895-1.693,2.581-2.762,4.269-2.762c0.686,0,1.068,0.142,1.34,0.276
			c0.074,0.757,0.139,1.69,0.139,2.893c-0.828-0.481-1.238-0.828-2.235-0.828c-2.172,0-3.579,1.995-3.579,4.237v7.883
			c0,0.831,0.892,1.209,1.86,1.309v0.48c-1.171-0.099-2.101-0.205-3.339-0.205c-1.244,0-2.171,0.103-3.345,0.205v-0.48
			c0.969-0.1,1.863-0.481,1.863-1.309v-11.43H188.618z"/>
		<path fill="#B20933" d="M200.077,263.664c0-0.863-0.382-1.068-1.518-1.309c-0.173-0.035-0.343-0.074-0.552-0.106v-0.279
			c1.793-0.445,3.547-0.994,5.202-1.549c-0.07,1.104-0.17,2.376-0.17,3.479v11.324c0,0.831,0.892,1.209,1.857,1.309v0.48
			c-1.171-0.099-2.098-0.205-3.343-0.205c-1.237,0-2.164,0.103-3.338,0.205v-0.48c0.965-0.1,1.863-0.481,1.863-1.309v-11.561
			H200.077z M201.622,254.054c1.1,0,1.998,0.898,1.998,1.995c0,1.104-0.898,2.001-1.998,2.001c-1.104,0-1.998-0.897-1.998-2.001
			C199.627,254.953,200.522,254.054,201.622,254.054z"/>
		<path fill="#B20933" d="M209.221,263.795c0-1.164-0.417-1.475-1.587-1.55v-0.275c1.517-0.445,3.405-1.097,4.643-1.549
			c-0.063,0.764-0.099,1.931-0.099,2.759h0.07c0.898-1.691,2.547-2.759,4.407-2.759c3.303,0,5.51,1.931,5.51,6.062v8.438
			c0,1.033,0.275,1.479,1.584,1.613v0.48c-0.65-0.063-1.584-0.205-2.373-0.205c-0.583,0-1.75,0.142-2.373,0.205
			c0.071-0.683,0.205-1.478,0.205-2.234v-8.845c0-2.547-1.305-3.378-2.921-3.378c-2.277,0-4.103,2.005-4.103,4.923v7.745
			c0,0.831,0.895,1.209,1.86,1.309v0.48c-1.167-0.099-2.101-0.205-3.339-0.205c-1.241,0-2.171,0.103-3.342,0.205v-0.48
			c0.966-0.1,1.864-0.481,1.864-1.309v-11.43H209.221z"/>
		<path fill="#B20933" d="M229.004,270.061c-0.965-1.097-1.584-2.476-1.584-3.954c0-2.554,1.889-5.687,6.401-5.687
			c1.032,0,2.065,0.105,3.069,0.216c1.033,0.131,2.065,0.272,3.098,0.272c0.616,0,1.238-0.071,1.854-0.213l-0.406,1.727
			c-0.449,0.134-0.931,0.208-1.38,0.208c-0.618,0-1.206-0.074-1.722-0.24l-0.071,0.074c1.033,0.927,1.62,2.271,1.62,3.71
			c0,2.762-1.896,5.51-6.685,5.51c-1.131,0-2.199-0.312-3.2-0.863c-1.379,0.97-1.687,1.344-1.687,2.002
			c0,0.552,0.657,1.309,2.029,1.309h5.68c4.406,0,5.577,2.03,5.577,3.989c0,2.999-3.271,5.344-7.643,5.344
			c-2.404,0-6.054-0.521-6.054-3.586c0-0.58,0.099-0.927,0.41-1.578l2.234-1.004c-0.169,0.453-0.311,0.934-0.311,1.45
			c0,2.029,1.863,3.197,3.822,3.197c1.893,0,4.785-0.856,4.785-3.236c0-1.616-0.962-1.825-2.546-1.825h-5.305
			c-2.922,0-5.093-0.757-5.23-3.444c0-0.517,0.038-1.068,0.244-1.514L229.004,270.061z M233.857,269.962
			c2.065,0,2.857-1.69,2.857-3.44c0-1.998-0.962-4.371-3.473-4.371c-1.79,0-2.857,1.439-2.857,3.094
			C230.384,267.345,231.381,269.962,233.857,269.962z"/>
		<path fill="#B20933" d="M254.05,256.711c0-0.966-0.414-1.241-1.754-1.45v-0.48c0.722,0,2.133,0.205,3.438,0.205
			c1.309,0,2.723-0.205,3.89-0.205v0.48c-1.75,0.142-2.199,0.658-2.199,1.45v18.178h6.542c3.169,0,4.096-0.898,4.407-4.103h0.622
			c-0.177,2.002-0.24,4.028-0.275,6.026h-16.421v-0.481c1.341-0.208,1.751-0.484,1.751-1.442V256.711L254.05,256.711z"/>
		<path fill="#B20933" d="M279.029,260.421c5.202,0,8.127,4.201,8.127,8.474c0,5.438-3.614,8.466-8.371,8.466
			c-4.816,0-8.085-3.575-8.085-8.568C270.704,264.007,274.212,260.421,279.029,260.421z M279.273,275.44
			c3.342,0,4.923-2.932,4.923-5.892c0-3.027-1.38-7.193-5.305-7.193c-2.271,0-5.228,1.514-5.228,5.817
			C273.664,271.68,275.454,275.44,279.273,275.44z"/>
		<path fill="#B20933" d="M289.758,272.583h0.41c1.206,2.581,3.271,3.063,5.475,3.063c2.62,0,3.993-1.104,3.993-2.617
			c0-1.789-0.856-2.101-4.92-2.932c-3.235-0.65-5.061-2.03-5.061-4.474c0-3.066,2.652-5.202,7.095-5.202
			c1.513,0,3.026,0.417,4.512,0.657v3.855h-0.48c-0.626-1.86-2.277-2.787-4.24-2.787c-2.479,0-4.135,1.029-4.135,2.854
			c0,1.619,1.485,2.033,4.478,2.585c3.614,0.683,5.305,1.616,5.305,4.644c0,3.235-2.652,5.128-7.165,5.128
			c-1.726,0-3.476-0.407-4.993-1.203L289.758,272.583z"/>
		<path fill="#B20933" d="M304.828,272.583h0.41c1.202,2.581,3.268,3.063,5.475,3.063c2.617,0,3.996-1.104,3.996-2.617
			c0-1.789-0.859-2.101-4.923-2.932c-3.239-0.65-5.058-2.03-5.058-4.474c0-3.066,2.649-5.202,7.095-5.202
			c1.514,0,3.027,0.417,4.505,0.657v3.855h-0.48c-0.622-1.86-2.274-2.787-4.236-2.787c-2.483,0-4.131,1.029-4.131,2.854
			c0,1.619,1.479,2.033,4.477,2.585c3.615,0.683,5.298,1.616,5.298,4.644c0,3.235-2.648,5.128-7.161,5.128
			c-1.723,0-3.477-0.407-4.993-1.203L304.828,272.583z"/>
		<path fill="#B20933" d="M330.114,263.664c0-0.863-0.379-1.068-1.514-1.309c-0.17-0.035-0.347-0.074-0.552-0.106v-0.279
			c1.793-0.445,3.543-0.994,5.198-1.549c-0.067,1.104-0.17,2.376-0.17,3.479v11.324c0,0.831,0.898,1.209,1.86,1.309v0.48
			c-1.171-0.099-2.101-0.205-3.338-0.205c-1.238,0-2.172,0.103-3.339,0.205v-0.48c0.962-0.1,1.854-0.481,1.854-1.309V263.664
			L330.114,263.664z M331.666,254.054c1.101,0,1.995,0.898,1.995,1.995c0,1.104-0.895,2.001-1.995,2.001
			c-1.106,0-1.998-0.897-1.998-2.001C329.667,254.953,330.559,254.054,331.666,254.054z"/>
		<path fill="#B20933" d="M339.266,263.795c0-1.164-0.418-1.475-1.592-1.55v-0.275c1.521-0.445,3.409-1.097,4.647-1.549
			c-0.067,0.764-0.1,1.931-0.1,2.759h0.071c0.897-1.691,2.546-2.759,4.406-2.759c3.303,0,5.51,1.931,5.51,6.062v8.438
			c0,1.033,0.275,1.479,1.584,1.613v0.48c-0.65-0.063-1.584-0.205-2.373-0.205c-0.583,0-1.75,0.142-2.373,0.205
			c0.071-0.683,0.205-1.478,0.205-2.234v-8.845c0-2.547-1.305-3.378-2.924-3.378c-2.274,0-4.1,2.005-4.1,4.923v7.745
			c0,0.831,0.896,1.209,1.86,1.309v0.48c-1.167-0.099-2.101-0.205-3.338-0.205c-1.241,0-2.172,0.103-3.343,0.205v-0.48
			c0.966-0.1,1.864-0.481,1.864-1.309v-11.43H339.266z"/>
		<path fill="#B20933" d="M383.175,274.708c-1.829,1.79-4.683,2.649-7.611,2.649c-4.477,0-10.638-3.304-10.638-11.359
			c0-8.367,7.3-11.564,12.116-11.564c1.754,0,3.65,0.304,5.234,1.061c0.035,1.729,0.17,3.444,0.34,5.174h-0.481
			c-0.687-3.133-3.614-4.102-6.02-4.102c-4.583,0-8.027,3.271-8.027,8.296c0,5.305,3.752,10.157,8.607,10.157
			c2.377,0,4.683-0.966,6.61-2.235L383.175,274.708z"/>
		<path fill="#B20933" d="M387.398,254.922c0-0.796-0.315-0.973-1.241-1.242c-0.237-0.07-0.485-0.103-0.793-0.177v-0.275
			c1.616-0.445,3.922-1.068,5.164-1.549c-0.075,1.619-0.174,3.243-0.174,4.852v6.649h0.071c0.897-1.691,2.546-2.759,4.406-2.759
			c3.303,0,5.51,1.931,5.51,6.062v8.438c0,1.033,0.275,1.479,1.584,1.613v0.48c-0.65-0.063-1.584-0.205-2.373-0.205
			c-0.583,0-1.754,0.142-2.373,0.205c0.071-0.683,0.205-1.478,0.205-2.234v-8.845c0-2.547-1.305-3.378-2.924-3.378
			c-2.274,0-4.1,2.005-4.1,4.923v7.745c0,0.831,0.896,1.209,1.86,1.309v0.48c-1.167-0.099-2.101-0.205-3.338-0.205
			c-1.241,0-2.172,0.103-3.343,0.205v-0.48c0.966-0.1,1.864-0.481,1.864-1.309v-20.303H387.398z"/>
		<path fill="#B20933" d="M406.519,263.664c0-0.863-0.378-1.068-1.514-1.309c-0.169-0.035-0.343-0.074-0.548-0.106v-0.279
			c1.79-0.445,3.544-0.994,5.199-1.549c-0.071,1.104-0.17,2.376-0.17,3.479v11.324c0,0.831,0.891,1.209,1.856,1.309v0.48
			c-1.171-0.099-2.098-0.205-3.339-0.205s-2.168,0.103-3.342,0.205v-0.48c0.966-0.1,1.86-0.481,1.86-1.309v-11.561H406.519z
			 M408.072,254.054c1.104,0,1.995,0.898,1.995,1.995c0,1.104-0.892,2.001-1.995,2.001s-1.998-0.897-1.998-2.001
			C406.074,254.953,406.972,254.054,408.072,254.054z"/>
		<path fill="#B20933" d="M415.877,254.922c0-0.796-0.308-0.973-1.238-1.242c-0.237-0.07-0.484-0.103-0.796-0.177v-0.275
			c1.62-0.445,3.926-1.068,5.167-1.549c-0.067,1.619-0.173,3.243-0.173,4.852v18.694c0,0.831,0.897,1.209,1.859,1.309v0.48
			c-1.167-0.099-2.097-0.205-3.338-0.205c-1.238,0-2.172,0.103-3.339,0.205v-0.48c0.962-0.1,1.857-0.481,1.857-1.309V254.922
			L415.877,254.922z"/>
		<path fill="#B20933" d="M441.626,277.013c-0.757-0.063-1.549-0.205-2.306-0.205s-1.553,0.142-2.242,0.205v-2.716h-0.067
			c-1.549,2.377-3.48,3.063-6.129,3.063c-2.582,0-7.363-2.062-7.363-8.123c0-6.058,4.853-8.816,8.396-8.816
			c2.101,0,3.752,0.898,5.096,2.723h0.067v-8.222c0-0.796-0.305-0.973-1.238-1.242c-0.236-0.07-0.484-0.103-0.792-0.177v-0.275
			c1.616-0.445,3.926-1.068,5.163-1.549c-0.07,1.619-0.173,3.243-0.173,4.852v18.91c0,0.615,0.173,0.962,1.588,1.096V277.013z
			 M426.681,269.028c0,3.444,2.277,6.412,5.478,6.412c2.791,0,4.92-2.005,4.92-6.412c0-4.852-2.617-6.472-5.199-6.472
			C429.645,262.556,426.681,263.865,426.681,269.028z"/>
		<path fill="#B20933" d="M445.841,263.795c0-1.164-0.41-1.475-1.584-1.55v-0.275c1.518-0.445,3.409-1.097,4.647-1.549
			c-0.071,0.764-0.1,1.931-0.1,3.104h0.071c0.891-1.693,2.581-2.762,4.269-2.762c0.683,0,1.067,0.142,1.34,0.276
			c0.071,0.757,0.138,1.69,0.138,2.893c-0.823-0.481-1.241-0.828-2.234-0.828c-2.176,0-3.583,1.995-3.583,4.237v7.883
			c0,0.831,0.895,1.209,1.86,1.309v0.48c-1.167-0.099-2.101-0.205-3.339-0.205c-1.237,0-2.171,0.103-3.338,0.205v-0.48
			c0.962-0.1,1.86-0.481,1.86-1.309v-11.43H445.841z"/>
		<path fill="#B20933" d="M458.502,268.271c-0.035,3.926,2.652,6.748,6.648,6.748c1.751,0,2.787-0.312,5.573-2.271l-0.236,2.235
			c-1.651,1.481-4.099,2.373-7.059,2.373c-4.82,0-8.088-3.576-8.088-8.569c0-4.781,3.515-8.371,8.331-8.371
			c5.234,0,7.852,3.105,7.852,7.852h-13.021V268.271z M468.143,266.552c0-2.652-1.723-4.406-4.442-4.406
			c-2.581,0-4.717,1.893-4.989,4.406H468.143z"/>
		<path fill="#B20933" d="M476.015,263.795c0-1.164-0.41-1.475-1.584-1.55v-0.275c1.517-0.445,3.409-1.097,4.646-1.549
			c-0.07,0.764-0.103,1.931-0.103,2.759h0.074c0.892-1.691,2.547-2.759,4.406-2.759c3.304,0,5.511,1.931,5.511,6.062v8.438
			c0,1.033,0.271,1.479,1.584,1.613v0.48c-0.658-0.063-1.584-0.205-2.377-0.205c-0.58,0-1.754,0.142-2.369,0.205
			c0.067-0.683,0.205-1.478,0.205-2.234v-8.845c0-2.547-1.309-3.378-2.928-3.378c-2.271,0-4.096,2.005-4.096,4.923v7.745
			c0,0.831,0.892,1.209,1.86,1.309v0.48c-1.171-0.099-2.101-0.205-3.339-0.205c-1.244,0-2.175,0.103-3.346,0.205v-0.48
			c0.97-0.1,1.86-0.481,1.86-1.309v-11.43H476.015z"/>
	</g>
</g>
</svg>
