<?xml version="1.0" encoding="utf-8"?>
<!-- Generator: Adobe Illustrator 15.1.0, SVG Export Plug-In . SVG Version: 6.00 Build 0)  -->
<!DOCTYPE svg PUBLIC "-//W3C//DTD SVG 1.1//EN" "http://www.w3.org/Graphics/SVG/1.1/DTD/svg11.dtd">
<svg version="1.1" id="Layer_1" xmlns="http://www.w3.org/2000/svg" xmlns:xlink="http://www.w3.org/1999/xlink" x="0px" y="0px"
	 width="653.761px" height="212.598px" viewBox="0 0 653.761 212.598" enable-background="new 0 0 653.761 212.598"
	 xml:space="preserve">
<g>
	<path fill="#91CFCC" d="M106.3,212.598c58.706,0,106.298-47.595,106.298-106.3C212.598,47.592,165.008,0,106.3,0
		C47.59,0,0,47.592,0,106.298C0,165.003,47.593,212.598,106.3,212.598L106.3,212.598z"/>
	<path fill="#FFFFFF" d="M27.587,171.55c0,0,33.409-162.959,78.412-162.959c45.003,0,98.308,162.959,69.935,162.959
		c-28.369,0-102.49-33.072-102.49-71.938c0-38.86,113.695-43.666,113.695-43.666L85.346,99.613l88.154,64.094L106.002,17.598
		L27.587,171.55L27.587,171.55z"/>
	<g>
		<path fill="#91CFCC" d="M229.743,169.094V43.49h63.701c27.202,0,40.805,16.351,40.805,49.064v29.026
			c0,31.674-13.465,47.513-40.395,47.513H229.743L229.743,169.094z M243.968,156.498h47.512c10.14,0,17.418-2.642,21.833-7.931
			c4.471-5.287,6.706-14.559,6.706-27.801V85.931c0-8.395-2.29-15.457-6.869-21.178c-4.526-5.782-11.041-8.669-19.545-8.669h-49.637
			V156.498L243.968,156.498z"/>
		<path fill="#91CFCC" d="M348.802,169.094V43.49h80.957v12.594h-66.73v41.54h63.865v12.596h-63.863v46.285h66.736v12.593h-80.966
			L348.802,169.094L348.802,169.094z"/>
		<path fill="#91CFCC" d="M445.537,43.49h63.539c10.795,0,18.564,3.079,23.309,9.241c4.795,6.108,7.197,15.895,7.197,29.358
			c0,13.467-2.561,23.168-7.686,29.107c-5.07,5.892-13.113,8.833-24.127,8.833h-48v49.063h-14.225V43.49H445.537z M459.769,56.081
			v51.354h38.188c11.662,0,19.139-1.553,22.404-4.659c3.322-3.108,4.992-9.841,4.992-20.197c0-10.852-1.336-17.962-4.008-21.343
			c-2.615-3.438-8.018-5.152-16.191-5.152L459.769,56.081L459.769,56.081z"/>
		<path fill="#91CFCC" d="M547.759,43.49h95.344v12.594h-40.561v113.01h-14.219V56.081h-40.561L547.759,43.49L547.759,43.49z"/>
	</g>
	<g>
		<path fill="#91CFCC" d="M186.345,207.288l6.151-16.877h2.692l6.15,16.877h-1.965l-1.307-3.6h-8.392l-1.329,3.6H186.345z
			 M190.214,201.996h7.294l-3.624-9.995L190.214,201.996z"/>
		<path fill="#91CFCC" d="M203.132,207.288V190.41h1.78v6.562c0.505-1.056,1.803-1.581,3.889-1.581c1.516,0,2.651,0.389,3.406,1.144
			c0.761,0.753,1.142,2.389,1.142,4.914c0,2.26-0.334,3.813-1,4.682c-0.666,0.85-1.851,1.281-3.548,1.281
			c-1.083,0-1.913-0.118-2.494-0.351c-0.578-0.233-1.043-0.646-1.395-1.229v1.464h-1.78V207.288L203.132,207.288z M204.965,201.829
			c0,1.552,0.212,2.623,0.638,3.234c0.432,0.607,1.329,0.914,2.692,0.914c1.427,0,2.322-0.324,2.679-0.977
			c0.359-0.664,0.538-1.838,0.538-3.531c0-1.938-0.177-3.191-0.527-3.764c-0.353-0.577-1.259-0.866-2.723-0.866
			c-1.243,0-2.105,0.242-2.58,0.735c-0.477,0.486-0.714,1.607-0.714,3.371v0.539v0.341h-0.002L204.965,201.829L204.965,201.829z"/>
		<path fill="#91CFCC" d="M216.083,207.288v-11.772h1.78v1.463c0.293-0.599,0.716-1.015,1.275-1.242
			c0.557-0.221,1.363-0.342,2.415-0.342c1.618,0,2.754,0.308,3.406,0.916c0.659,0.598,0.988,1.629,0.988,3.087v7.896h-1.78v-7.96
			c0-0.88-0.179-1.515-0.538-1.901c-0.357-0.398-1.116-0.59-2.272-0.59c-1.327,0-2.24,0.233-2.747,0.715
			c-0.498,0.478-0.748,1.424-0.748,2.844v6.896L216.083,207.288L216.083,207.288z"/>
		<path fill="#91CFCC" d="M228.735,201.404c0-2.469,0.321-4.092,0.967-4.856c0.653-0.764,2.084-1.156,4.294-1.156
			c2.277,0,3.709,0.423,4.297,1.267c0.593,0.838,0.889,2.437,0.889,4.79c0,2.505-0.341,4.123-1.021,4.865
			c-0.674,0.735-2.063,1.103-4.164,1.103c-2.401,0-3.88-0.444-4.437-1.329C229.01,205.189,228.735,203.628,228.735,201.404z
			 M230.572,201.434c0,2.012,0.157,3.272,0.472,3.777c0.321,0.504,1.304,0.755,2.944,0.755c1.559,0,2.508-0.267,2.844-0.804
			c0.344-0.531,0.517-1.787,0.517-3.767c0-1.985-0.162-3.234-0.484-3.764c-0.321-0.532-1.08-0.802-2.272-0.802h-0.604h-0.274
			c-1.618,0-2.549,0.343-2.79,1.027C230.688,198.549,230.572,199.737,230.572,201.434z"/>
		<path fill="#91CFCC" d="M241.7,195.516h1.779v1.404c0.221-0.521,0.593-0.907,1.121-1.154c0.527-0.25,1.237-0.378,2.129-0.378
			c2.168,0,3.253,1.096,3.253,3.271v0.913h-1.692v-0.775c0-0.72-0.143-1.221-0.43-1.521c-0.284-0.3-0.795-0.444-1.526-0.444
			c-0.988,0-1.714,0.229-2.175,0.699c-0.453,0.465-0.68,1.279-0.68,2.438v7.309H241.7V195.516L241.7,195.516z"/>
		<path fill="#91CFCC" d="M251.805,195.516h1.78v1.988c0.572-1.405,1.895-2.11,3.965-2.11c2.094,0,3.299,0.649,3.614,1.937
			c0.629-1.286,2.045-1.937,4.252-1.937c1.406,0,2.42,0.323,3.043,0.967c0.629,0.645,0.944,1.678,0.944,3.125v7.81h-1.779v-7.888
			c0-1.038-0.202-1.729-0.604-2.068c-0.399-0.336-1.046-0.502-1.933-0.502c-1.333,0-2.266,0.232-2.799,0.713
			c-0.527,0.479-0.791,1.299-0.791,2.469v7.271h-1.78v-8.012c0-0.954-0.176-1.606-0.527-1.94c-0.353-0.335-1.048-0.502-2.088-0.502
			c-2.342,0-3.515,1.109-3.515,3.348v7.106h-1.78L251.805,195.516L251.805,195.516z"/>
		<path fill="#91CFCC" d="M280.605,201.588v-2.311c0-1.032-0.229-1.706-0.693-1.993c-0.453-0.303-1.322-0.445-2.604-0.445
			c-1.187,0-1.984,0.133-2.394,0.397c-0.402,0.271-0.604,0.751-0.604,1.43v0.242h-1.835c0-1.144,0.279-2.013,0.835-2.612
			c0.564-0.6,1.922-0.9,4.076-0.9c1.881,0,3.186,0.285,3.912,0.843c0.726,0.557,1.086,1.573,1.086,3.058v7.996h-1.779v-1.282
			c-0.411,0.648-0.908,1.04-1.495,1.191c-0.587,0.143-1.393,0.222-2.417,0.222c-1.699,0-2.889-0.269-3.569-0.808
			c-0.674-0.528-1.011-1.44-1.011-2.722c0-1.476,0.397-2.488,1.186-3.033c0.644-0.442,1.786-0.665,3.428-0.665
			C278.967,200.181,280.259,200.651,280.605,201.588z M273.948,203.643c0,0.927,0.179,1.541,0.539,1.855
			c0.359,0.312,1.111,0.471,2.262,0.471h0.396c1.157,0,2.013-0.143,2.57-0.436c0.557-0.302,0.836-0.889,0.836-1.762
			c0-0.778-0.194-1.332-0.583-1.656c-0.381-0.322-1.304-0.49-2.769-0.49c-1.349,0-2.226,0.127-2.636,0.366
			C274.155,202.215,273.948,202.772,273.948,203.643z"/>
		<path fill="#91CFCC" d="M285.35,207.288V190.41h1.779v16.877L285.35,207.288L285.35,207.288z"/>
		<path fill="#91CFCC" d="M297.838,207.288V190.41h8.557c3.655,0,5.483,2.196,5.483,6.598v3.901c0,4.253-1.809,6.379-5.428,6.379
			H297.838L297.838,207.288z M299.75,205.6h6.38c1.362,0,2.34-0.356,2.933-1.069c0.6-0.708,0.899-1.955,0.899-3.734v-4.677
			c0-1.127-0.309-2.082-0.922-2.852c-0.609-0.774-1.485-1.165-2.626-1.165h-6.666L299.75,205.6L299.75,205.6z"/>
		<path fill="#91CFCC" d="M314.074,201.404c0-2.469,0.321-4.092,0.966-4.856c0.654-0.764,2.083-1.156,4.295-1.156
			c2.277,0,3.709,0.423,4.296,1.267c0.593,0.838,0.889,2.437,0.889,4.79c0,2.505-0.341,4.123-1.021,4.865
			c-0.673,0.735-2.062,1.103-4.163,1.103c-2.401,0-3.879-0.444-4.437-1.329C314.347,205.189,314.074,203.628,314.074,201.404z
			 M315.908,201.434c0,2.012,0.157,3.272,0.472,3.777c0.321,0.504,1.304,0.755,2.945,0.755c1.558,0,2.508-0.267,2.844-0.804
			c0.344-0.531,0.516-1.787,0.516-3.767c0-1.985-0.161-3.234-0.484-3.764c-0.321-0.532-1.08-0.802-2.272-0.802h-0.604h-0.274
			c-1.618,0-2.549,0.343-2.792,1.027C316.026,198.549,315.908,199.737,315.908,201.434z"/>
		<path fill="#91CFCC" d="M328.978,197.15c0.624-1.171,1.918-1.76,3.891-1.76c1.749,0,2.943,0.428,3.583,1.278
			c0.647,0.847,0.967,2.36,0.967,4.551c0,2.453-0.334,4.104-1.002,4.939c-0.664,0.842-1.862,1.258-3.61,1.258
			c-2.068,0-3.338-0.525-3.821-1.582v6.556h-1.779v-16.87h1.779L328.978,197.15L328.978,197.15z M328.978,201.788
			c0,1.615,0.247,2.715,0.735,3.307c0.488,0.581,1.372,0.875,2.648,0.875c1.403,0,2.289-0.294,2.658-0.875
			c0.373-0.592,0.563-1.848,0.563-3.766c0-1.869-0.196-3.082-0.577-3.647c-0.386-0.568-1.25-0.843-2.595-0.843
			c-1.247,0-2.126,0.211-2.635,0.637c-0.506,0.416-0.769,1.384-0.791,2.9v0.743v0.673h-0.007V201.788L328.978,201.788z"/>
		<path fill="#91CFCC" d="M341.875,197.15c0.625-1.171,1.918-1.76,3.888-1.76c1.749,0,2.949,0.428,3.585,1.278
			c0.646,0.847,0.97,2.36,0.97,4.551c0,2.453-0.333,4.104-1.002,4.939c-0.663,0.842-1.864,1.258-3.61,1.258
			c-2.068,0-3.34-0.525-3.826-1.582v6.556H340.1v-16.87h1.779L341.875,197.15L341.875,197.15z M341.875,201.788
			c0,1.615,0.245,2.715,0.736,3.307c0.489,0.581,1.375,0.875,2.649,0.875c1.405,0,2.293-0.294,2.656-0.875
			c0.375-0.592,0.563-1.848,0.563-3.766c0-1.869-0.194-3.082-0.574-3.647c-0.389-0.568-1.244-0.843-2.596-0.843
			c-1.246,0-2.121,0.211-2.631,0.637c-0.507,0.416-0.772,1.384-0.797,2.9v0.743L341.875,201.788L341.875,201.788z"/>
		<path fill="#91CFCC" d="M353.044,207.288V190.41h1.781v16.877L353.044,207.288L353.044,207.288z"/>
		<path fill="#91CFCC" d="M359.335,201.773v1.092c0,1.156,0.188,1.964,0.561,2.429c0.375,0.454,1.195,0.677,2.471,0.677h0.453
			c1.359,0,2.219-0.123,2.578-0.369c0.357-0.249,0.539-0.877,0.539-1.883h1.83v0.342c0,1.285-0.359,2.171-1.102,2.644
			c-0.723,0.475-1.959,0.707-3.705,0.707c-2.191,0-3.654-0.375-4.379-1.122c-0.727-0.745-1.09-2.315-1.09-4.702
			c0-2.48,0.344-4.131,1.021-4.953c0.678-0.828,2.086-1.242,4.23-1.242c1.969,0,3.299,0.354,3.986,1.056
			c0.688,0.694,1.031,2.033,1.031,4.017v1.313h-8.426V201.773z M359.335,200.335h6.598c-0.051-1.375-0.223-2.305-0.527-2.779
			c-0.293-0.485-1.137-0.727-2.535-0.727c-1.445,0-2.379,0.188-2.813,0.561C359.619,197.759,359.382,198.737,359.335,200.335z"/>
		<path fill="#91CFCC" d="M370.343,195.516h1.779v1.404c0.223-0.521,0.59-0.907,1.121-1.154c0.525-0.25,1.234-0.378,2.131-0.378
			c2.172,0,3.246,1.096,3.246,3.271v0.913h-1.688v-0.775c0-0.72-0.141-1.221-0.43-1.521c-0.285-0.3-0.793-0.444-1.529-0.444
			c-0.988,0-1.715,0.229-2.172,0.699c-0.457,0.465-0.68,1.279-0.68,2.438v7.309h-1.783L370.343,195.516L370.343,195.516z"/>
		<path fill="#91CFCC" d="M387.671,207.288V190.41h10.869v1.694h-8.961v5.579h8.578v1.695h-8.578v6.22h8.961v1.688L387.671,207.288
			L387.671,207.288z"/>
		<path fill="#91CFCC" d="M400.9,207.288v-11.772h1.783v1.463c0.295-0.599,0.719-1.015,1.275-1.242
			c0.561-0.221,1.365-0.342,2.42-0.342c1.621,0,2.758,0.308,3.406,0.916c0.664,0.598,0.992,1.629,0.992,3.087v7.896h-1.781v-7.96
			c0-0.88-0.18-1.515-0.539-1.901c-0.357-0.398-1.113-0.59-2.271-0.59c-1.32,0-2.24,0.233-2.748,0.715
			c-0.49,0.478-0.748,1.424-0.748,2.844v6.896L400.9,207.288L400.9,207.288z"/>
		<path fill="#91CFCC" d="M412.253,195.516h1.578v-2.813h1.779v2.813h4.572v1.44h-4.572v7.438c0,0.619,0.115,1.038,0.332,1.26
			c0.223,0.215,0.646,0.315,1.258,0.315c0.689,0,1.166-0.121,1.42-0.362c0.264-0.25,0.396-0.72,0.396-1.429v-1.168h1.693v0.943
			c0,2.3-1.146,3.451-3.434,3.451c-1.449,0-2.379-0.251-2.801-0.753c-0.428-0.504-0.643-1.395-0.643-2.682v-7.03h-1.578
			L412.253,195.516L412.253,195.516z"/>
		<path fill="#91CFCC" d="M423.634,201.773v1.092c0,1.156,0.188,1.964,0.563,2.429c0.375,0.454,1.197,0.677,2.471,0.677h0.453
			c1.361,0,2.223-0.123,2.582-0.369c0.355-0.249,0.537-0.877,0.537-1.883h1.83v0.342c0,1.285-0.361,2.171-1.102,2.644
			c-0.723,0.475-1.961,0.707-3.713,0.707c-2.188,0-3.645-0.375-4.373-1.122c-0.727-0.744-1.086-2.315-1.086-4.702
			c0-2.48,0.342-4.131,1.021-4.953c0.68-0.828,2.084-1.242,4.225-1.242c1.971,0,3.303,0.354,3.988,1.056
			c0.689,0.694,1.029,2.033,1.029,4.017v1.313h-8.426V201.773z M423.634,200.335h6.602c-0.051-1.375-0.225-2.305-0.525-2.779
			c-0.299-0.485-1.139-0.727-2.539-0.727c-1.441,0-2.379,0.188-2.811,0.561C423.919,197.759,423.685,198.737,423.634,200.335z"/>
		<path fill="#91CFCC" d="M434.646,195.516h1.781v1.404c0.221-0.521,0.594-0.907,1.121-1.154c0.521-0.25,1.236-0.378,2.131-0.378
			c2.17,0,3.244,1.096,3.244,3.271v0.913h-1.689v-0.775c0-0.72-0.141-1.221-0.428-1.521c-0.287-0.3-0.799-0.444-1.529-0.444
			c-0.992,0-1.717,0.229-2.172,0.699c-0.457,0.465-0.682,1.279-0.682,2.438v7.309h-1.779L434.646,195.516L434.646,195.516z"/>
		<path fill="#91CFCC" d="M452.884,201.588v-2.311c0-1.032-0.232-1.706-0.693-1.993c-0.453-0.303-1.32-0.445-2.605-0.445
			c-1.188,0-1.988,0.133-2.395,0.397c-0.4,0.271-0.605,0.751-0.605,1.43v0.242h-1.836c0-1.144,0.283-2.013,0.844-2.612
			c0.566-0.6,1.922-0.9,4.074-0.9c1.885,0,3.188,0.285,3.914,0.843c0.723,0.557,1.088,1.573,1.088,3.058v7.996h-1.783v-1.282
			c-0.404,0.648-0.908,1.04-1.492,1.191c-0.578,0.143-1.393,0.222-2.41,0.222c-1.705,0-2.891-0.269-3.582-0.808
			c-0.668-0.528-1.006-1.44-1.006-2.722c0-1.476,0.395-2.488,1.184-3.033c0.65-0.442,1.789-0.665,3.426-0.665
			C451.246,200.181,452.539,200.651,452.884,201.588z M446.228,203.643c0,0.927,0.182,1.541,0.539,1.855
			c0.357,0.312,1.111,0.471,2.262,0.471h0.398c1.154,0,2.01-0.143,2.57-0.436c0.559-0.302,0.836-0.889,0.836-1.762
			c0-0.778-0.193-1.332-0.576-1.656c-0.387-0.322-1.303-0.49-2.771-0.49c-1.35,0-2.227,0.127-2.631,0.366
			C446.429,202.215,446.228,202.772,446.228,203.643z"/>
		<path fill="#91CFCC" d="M457.626,207.288V190.41h1.781v16.877L457.626,207.288L457.626,207.288z"/>
		<path fill="#91CFCC" d="M469.994,190.412h8.537c1.453,0,2.494,0.415,3.133,1.245c0.65,0.824,0.967,2.137,0.967,3.943
			s-0.338,3.112-1.025,3.912c-0.686,0.789-1.764,1.187-3.24,1.187h-6.447v6.595h-1.908v-16.877L469.994,190.412L469.994,190.412z
			 M471.91,192.109v6.896h5.129c1.568,0,2.57-0.207,3.01-0.623c0.445-0.414,0.664-1.321,0.664-2.712
			c0-1.461-0.178-2.414-0.537-2.869c-0.348-0.465-1.074-0.69-2.174-0.69L471.91,192.109L471.91,192.109z"/>
		<path fill="#91CFCC" d="M484.859,195.516h1.779v1.404c0.219-0.521,0.592-0.907,1.117-1.154c0.529-0.25,1.238-0.378,2.133-0.378
			c2.17,0,3.246,1.096,3.246,3.271v0.913h-1.689v-0.775c0-0.72-0.143-1.221-0.432-1.521c-0.285-0.3-0.791-0.444-1.523-0.444
			c-0.992,0-1.719,0.229-2.174,0.699c-0.457,0.465-0.678,1.279-0.678,2.438v7.309h-1.779V195.516L484.859,195.516z"/>
		<path fill="#91CFCC" d="M496.492,201.773v1.092c0,1.156,0.188,1.964,0.561,2.429c0.383,0.454,1.199,0.677,2.471,0.677h0.453
			c1.361,0,2.223-0.123,2.578-0.369c0.361-0.249,0.545-0.877,0.545-1.883h1.83v0.342c0,1.285-0.365,2.171-1.102,2.644
			c-0.727,0.475-1.965,0.707-3.711,0.707c-2.191,0-3.65-0.375-4.371-1.122c-0.729-0.748-1.094-2.315-1.094-4.702
			c0-2.48,0.34-4.131,1.02-4.953c0.678-0.828,2.09-1.242,4.227-1.242c1.975,0,3.307,0.354,3.994,1.056
			c0.686,0.694,1.023,2.033,1.023,4.017v1.313h-8.424V201.773z M496.492,200.335h6.598c-0.049-1.375-0.223-2.305-0.521-2.779
			c-0.299-0.485-1.143-0.727-2.539-0.727c-1.441,0-2.377,0.188-2.813,0.561C496.785,197.759,496.544,198.737,496.492,200.335z"/>
		<path fill="#91CFCC" d="M509.087,203.543v0.894c0,0.66,0.252,1.078,0.756,1.26c0.504,0.186,1.547,0.274,3.123,0.274
			c0.973,0,1.656-0.121,2.051-0.368c0.4-0.257,0.596-0.763,0.596-1.521v-0.361c0-1.004-0.533-1.521-1.594-1.551l-0.477-0.031
			l-2.793-0.155c-2.268-0.119-3.41-1.168-3.41-3.144c0-1.39,0.342-2.316,1.021-2.771c0.676-0.452,2.037-0.68,4.061-0.68
			c1.678,0,2.875,0.188,3.584,0.563c0.721,0.375,1.096,1.106,1.119,2.185v0.418h-1.834v-0.39c0-0.537-0.146-0.895-0.461-1.068
			c-0.305-0.175-0.922-0.26-1.854-0.26h-1.08c-1.123,0-1.859,0.112-2.209,0.339c-0.34,0.223-0.512,0.662-0.512,1.291v0.526
			c0,0.89,0.457,1.366,1.373,1.43l3.02,0.21l0.781,0.045c2.061,0.126,3.086,1.163,3.086,3.113v0.263c0,1.11-0.311,1.951-0.926,2.518
			c-0.607,0.567-1.93,0.846-3.965,0.846c-1.961,0-3.33-0.214-4.115-0.63c-0.785-0.413-1.182-1.137-1.182-2.163v-1.081h1.838v0.006
			h0.004L509.087,203.543L509.087,203.543z"/>
		<path fill="#91CFCC" d="M527.906,203.015h1.781v0.668c0,1.497-0.414,2.495-1.256,2.986c-0.826,0.483-2.041,0.739-3.656,0.739
			c-2.314,0-3.789-0.423-4.428-1.268c-0.637-0.848-0.955-2.42-0.955-4.699c0-2.438,0.361-4.057,1.082-4.854
			c0.713-0.799,2.086-1.197,4.125-1.197c1.795,0,3.059,0.29,3.787,0.855c0.734,0.568,1.102,1.504,1.102,2.822v0.362h-1.783v-0.398
			c0-0.863-0.189-1.452-0.572-1.75c-0.387-0.303-1.244-0.445-2.586-0.445c-1.531,0-2.467,0.287-2.811,0.861
			c-0.338,0.571-0.502,1.895-0.502,3.953c0,2.026,0.23,3.252,0.711,3.677c0.48,0.423,1.459,0.64,2.947,0.64
			c1.275,0,2.086-0.154,2.457-0.461C527.72,205.198,527.906,204.362,527.906,203.015z"/>
		<path fill="#91CFCC" d="M531.873,195.516h1.781v1.404c0.223-0.521,0.588-0.907,1.117-1.154c0.525-0.25,1.238-0.378,2.133-0.378
			c2.17,0,3.248,1.096,3.248,3.271v0.913h-1.689v-0.775c0-0.72-0.143-1.221-0.43-1.521c-0.285-0.3-0.793-0.444-1.529-0.444
			c-0.986,0-1.717,0.229-2.172,0.699c-0.455,0.465-0.68,1.279-0.68,2.438v7.309h-1.781L531.873,195.516L531.873,195.516z"/>
		<path fill="#91CFCC" d="M542.033,190.398h1.775v1.954h-1.775V190.398z M542.033,195.516h1.775v11.772h-1.775V195.516z"/>
		<path fill="#91CFCC" d="M548.587,197.15c0.625-1.171,1.918-1.76,3.893-1.76c1.75,0,2.947,0.428,3.586,1.278
			c0.645,0.847,0.963,2.36,0.963,4.551c0,2.453-0.33,4.104-1.002,4.939c-0.66,0.842-1.863,1.258-3.611,1.258
			c-2.066,0-3.338-0.525-3.82-1.582v6.556h-1.777v-16.87h1.777v1.63H548.587L548.587,197.15z M548.587,201.788
			c0,1.615,0.248,2.715,0.738,3.307c0.492,0.581,1.375,0.875,2.646,0.875c1.406,0,2.295-0.294,2.66-0.875
			c0.381-0.592,0.566-1.848,0.566-3.766c0-1.869-0.195-3.082-0.582-3.647c-0.383-0.568-1.246-0.843-2.59-0.843
			c-1.252,0-2.127,0.211-2.635,0.637c-0.502,0.416-0.77,1.384-0.795,2.9v0.743L548.587,201.788L548.587,201.788z"/>
		<path fill="#91CFCC" d="M558.091,195.516h1.58v-2.813h1.783v2.813h4.564v1.44h-4.564v7.438c0,0.619,0.111,1.038,0.324,1.26
			c0.229,0.215,0.65,0.315,1.266,0.315c0.686,0,1.162-0.121,1.416-0.362c0.264-0.25,0.4-0.72,0.4-1.429v-1.168h1.689v0.943
			c0,2.3-1.146,3.451-3.438,3.451c-1.441,0-2.375-0.251-2.799-0.753c-0.426-0.504-0.639-1.395-0.639-2.682v-7.03h-1.58
			L558.091,195.516L558.091,195.516z"/>
		<path fill="#91CFCC" d="M568.001,190.398h1.777v1.954h-1.777V190.398z M568.001,195.516h1.777v11.772h-1.777V195.516z"/>
		<path fill="#91CFCC" d="M572.472,201.404c0-2.469,0.313-4.092,0.971-4.856c0.65-0.764,2.08-1.156,4.291-1.156
			c2.273,0,3.707,0.423,4.297,1.267c0.588,0.838,0.891,2.437,0.891,4.79c0,2.505-0.342,4.123-1.023,4.865
			c-0.664,0.735-2.059,1.103-4.158,1.103c-2.402,0-3.881-0.444-4.441-1.329C572.744,205.189,572.472,203.628,572.472,201.404z
			 M574.304,201.434c0,2.012,0.154,3.272,0.477,3.777c0.32,0.504,1.307,0.755,2.949,0.755c1.555,0,2.508-0.267,2.844-0.804
			c0.344-0.531,0.518-1.787,0.518-3.767c0-1.985-0.16-3.234-0.486-3.764c-0.32-0.532-1.08-0.802-2.271-0.802h-0.6h-0.275
			c-1.619,0-2.547,0.343-2.793,1.027C574.421,198.549,574.304,199.737,574.304,201.434z"/>
		<path fill="#91CFCC" d="M585.685,207.288v-11.772h1.775v1.463c0.297-0.599,0.721-1.015,1.277-1.242
			c0.563-0.221,1.365-0.342,2.42-0.342c1.621,0,2.754,0.308,3.406,0.916c0.664,0.598,0.988,1.629,0.988,3.087v7.896h-1.777v-7.96
			c0-0.88-0.178-1.515-0.539-1.901c-0.357-0.398-1.111-0.59-2.268-0.59c-1.326,0-2.246,0.233-2.746,0.715
			c-0.498,0.478-0.756,1.424-0.756,2.844v6.896L585.685,207.288L585.685,207.288z"/>
	</g>
	<g>
		<path fill="#91CFCC" d="M605.144,188.523h14.229v1.882h-6.055v16.872h-2.127v-16.872h-6.055L605.144,188.523L605.144,188.523z"/>
		<path fill="#91CFCC" d="M620.876,194.186h1.982v1.562c0.242-0.576,0.662-1.008,1.242-1.284c0.582-0.274,1.375-0.411,2.363-0.411
			c2.41,0,3.609,1.209,3.609,3.638v1.017h-1.879v-0.863c0-0.801-0.158-1.36-0.48-1.683c-0.313-0.337-0.885-0.499-1.697-0.499
			c-1.102,0-1.902,0.26-2.416,0.775c-0.502,0.516-0.756,1.418-0.756,2.712v8.125h-1.979L620.876,194.186L620.876,194.186z"/>
		<path fill="#91CFCC" d="M632.171,188.501h1.979v2.169h-1.979V188.501z M632.171,194.186h1.979v13.084h-1.979V194.186z"/>
		<path fill="#91CFCC" d="M646.509,200.937v-2.565c0-1.15-0.256-1.895-0.766-2.219c-0.502-0.337-1.465-0.5-2.896-0.5
			c-1.313,0-2.201,0.149-2.662,0.451c-0.443,0.304-0.664,0.834-0.664,1.585v0.271h-2.035c0-1.271,0.307-2.24,0.932-2.905
			c0.621-0.664,2.133-1.003,4.523-1.003c2.088,0,3.541,0.311,4.35,0.937c0.805,0.62,1.205,1.751,1.205,3.398v8.889h-1.979v-1.431
			c-0.457,0.714-1.016,1.156-1.66,1.315c-0.648,0.161-1.547,0.245-2.689,0.245c-1.889,0-3.213-0.3-3.955-0.893
			c-0.756-0.594-1.127-1.604-1.127-3.026c0-1.644,0.436-2.77,1.32-3.368c0.715-0.495,1.988-0.75,3.809-0.75
			C644.685,199.371,646.125,199.896,646.509,200.937z M639.109,203.218c0,1.022,0.201,1.716,0.598,2.063
			c0.398,0.353,1.232,0.528,2.52,0.528h0.434c1.287,0,2.244-0.166,2.861-0.487c0.617-0.332,0.926-0.983,0.926-1.952
			c0-0.865-0.215-1.485-0.646-1.843c-0.418-0.366-1.449-0.551-3.07-0.551c-1.5,0-2.477,0.133-2.934,0.401
			C639.339,201.637,639.109,202.251,639.109,203.218z"/>
		<path fill="#91CFCC" d="M651.777,207.27v-18.747h1.984v18.747H651.777z"/>
	</g>
</g>
</svg>
