<?xml version="1.0" encoding="utf-8"?>
<!-- Generator: Adobe Illustrator 22.0.1, SVG Export Plug-In . SVG Version: 6.00 Build 0)  -->
<svg version="1.1" id="Layer_1" xmlns="http://www.w3.org/2000/svg" xmlns:xlink="http://www.w3.org/1999/xlink" x="0px" y="0px"
	 width="933.894px" height="283.717px" viewBox="0 0 933.894 283.717" enable-background="new 0 0 933.894 283.717"
	 xml:space="preserve">
<g>
	<path fill="#005DAA" stroke="#005DAA" stroke-width="0.504" stroke-miterlimit="10" d="M18.307,267.205H4.87l-2.612,6.95
		c-0.169,0.422-0.548,0.675-0.969,0.675c-0.084,0-0.253-0.042-0.379-0.042c-0.505-0.21-0.8-0.843-0.59-1.348l10.235-27.336
		c0.169-0.38,0.59-0.632,1.011-0.632c0.463,0,0.884,0.253,1.011,0.632l10.235,27.336c0.211,0.505-0.042,1.138-0.548,1.348
		c-0.168,0-0.253,0.042-0.379,0.042c-0.379,0-0.8-0.253-0.969-0.675L18.307,267.205z M5.628,265.142h11.92l-5.938-15.837
		L5.628,265.142z"/>
	<path fill="#005DAA" stroke="#005DAA" stroke-width="0.504" stroke-miterlimit="10" d="M27.398,270.533
		c0.337-0.421,0.968-0.505,1.432-0.127c1.432,1.053,3.706,2.402,6.318,2.402c1.601,0,2.991-0.507,3.917-1.265
		c1.011-0.673,1.558-1.601,1.558-2.526c-0.042-0.97-0.42-1.643-1.474-2.528c-0.884-0.675-2.358-1.18-4.38-1.516l-0.084-0.042
		c-1.854-0.337-3.497-0.758-4.676-1.601c-1.306-0.759-2.232-2.107-2.232-3.708c0-1.643,0.926-3.074,2.232-4.044
		c1.222-0.841,2.948-1.389,5.055-1.389c2.653,0,4.549,1.221,6.149,2.231c0.464,0.337,0.59,0.97,0.295,1.433
		c-0.295,0.463-0.927,0.59-1.39,0.295c-1.516-1.01-3.032-2.063-5.054-2.063c-1.685,0-3.033,0.463-3.917,1.178
		c-0.843,0.675-1.306,1.517-1.306,2.358c0,0.843,0.38,1.433,1.18,2.065c0.927,0.631,2.317,1.138,4.212,1.431h0.085
		c1.979,0.295,3.58,0.885,5.013,1.685c1.348,0.885,2.316,2.486,2.316,4.213c0,1.726-0.968,3.116-2.358,4.169
		c-1.432,1.053-3.117,1.643-5.139,1.643c-3.327-0.042-5.939-1.601-7.624-2.948C27.103,271.502,27.061,270.954,27.398,270.533z"/>
	<path fill="#005DAA" stroke="#005DAA" stroke-width="0.504" stroke-miterlimit="10" d="M47.611,270.533
		c0.337-0.421,0.968-0.505,1.432-0.127c1.432,1.053,3.706,2.402,6.318,2.402c1.601,0,2.991-0.507,3.917-1.265
		c1.011-0.673,1.558-1.601,1.558-2.526c-0.042-0.97-0.42-1.643-1.474-2.528c-0.884-0.675-2.358-1.18-4.38-1.516l-0.085-0.042
		c-1.853-0.337-3.496-0.758-4.675-1.601c-1.306-0.759-2.232-2.107-2.232-3.708c0-1.643,0.926-3.074,2.232-4.044
		c1.222-0.841,2.948-1.389,5.055-1.389c2.653,0,4.549,1.221,6.149,2.231c0.464,0.337,0.59,0.97,0.295,1.433
		c-0.295,0.463-0.927,0.59-1.39,0.295c-1.516-1.01-3.032-2.063-5.054-2.063c-1.685,0-3.033,0.463-3.917,1.178
		c-0.843,0.675-1.306,1.517-1.306,2.358c0,0.843,0.38,1.433,1.18,2.065c0.927,0.631,2.316,1.138,4.212,1.431h0.085
		c1.98,0.295,3.58,0.885,5.013,1.685c1.348,0.885,2.316,2.486,2.316,4.213c0,1.726-0.968,3.116-2.358,4.169
		c-1.432,1.053-3.117,1.643-5.139,1.643c-3.327-0.042-5.939-1.601-7.624-2.948C47.316,271.502,47.274,270.954,47.611,270.533z"/>
	<path fill="#005DAA" stroke="#005DAA" stroke-width="0.504" stroke-miterlimit="10" d="M68.203,264.552
		c0-5.729,4.465-10.361,10.024-10.361c5.308,0,9.52,4.212,9.941,9.603v0.042v0.125c0,0.548-0.464,0.927-1.011,0.927H70.224
		c0.21,4.507,3.749,7.919,8.002,7.919c2.738,0,5.265-1.433,6.655-3.75c0.295-0.505,0.927-0.588,1.348-0.336
		c0.464,0.336,0.631,0.926,0.337,1.431c-1.769,2.823-4.844,4.676-8.341,4.676C72.668,274.83,68.203,270.196,68.203,264.552z
		 M70.351,262.909h15.627c-0.674-3.874-3.96-6.697-7.751-6.697C74.352,256.212,71.109,258.993,70.351,262.909z"/>
	<path fill="#005DAA" stroke="#005DAA" stroke-width="0.504" stroke-miterlimit="10" d="M93.805,270.533
		c0.337-0.421,0.968-0.505,1.432-0.127c1.432,1.053,3.706,2.402,6.318,2.402c1.601,0,2.991-0.507,3.917-1.265
		c1.011-0.673,1.558-1.601,1.558-2.526c-0.042-0.97-0.42-1.643-1.474-2.528c-0.884-0.675-2.358-1.18-4.38-1.516l-0.084-0.042
		c-1.854-0.337-3.497-0.758-4.676-1.601c-1.306-0.759-2.232-2.107-2.232-3.708c0-1.643,0.926-3.074,2.232-4.044
		c1.222-0.841,2.948-1.389,5.055-1.389c2.653,0,4.549,1.221,6.149,2.231c0.464,0.337,0.59,0.97,0.295,1.433
		c-0.295,0.463-0.927,0.59-1.39,0.295c-1.516-1.01-3.032-2.063-5.054-2.063c-1.685,0-3.033,0.463-3.917,1.178
		c-0.843,0.675-1.306,1.517-1.306,2.358c0,0.843,0.38,1.433,1.18,2.065c0.927,0.631,2.317,1.138,4.212,1.431h0.085
		c1.979,0.295,3.58,0.885,5.013,1.685c1.348,0.885,2.316,2.486,2.316,4.213c0,1.726-0.968,3.116-2.358,4.169
		c-1.432,1.053-3.117,1.643-5.139,1.643c-3.327-0.042-5.939-1.601-7.624-2.948C93.51,271.502,93.468,270.954,93.805,270.533z"/>
	<path fill="#005DAA" stroke="#005DAA" stroke-width="0.504" stroke-miterlimit="10" d="M114.019,270.533
		c0.337-0.421,0.968-0.505,1.432-0.127c1.432,1.053,3.706,2.402,6.318,2.402c1.6,0,2.991-0.507,3.917-1.265
		c1.011-0.673,1.558-1.601,1.558-2.526c-0.042-0.97-0.421-1.643-1.474-2.528c-0.884-0.675-2.358-1.18-4.38-1.516l-0.084-0.042
		c-1.854-0.337-3.497-0.758-4.676-1.601c-1.306-0.759-2.232-2.107-2.232-3.708c0-1.643,0.926-3.074,2.232-4.044
		c1.222-0.841,2.948-1.389,5.055-1.389c2.653,0,4.549,1.221,6.149,2.231c0.464,0.337,0.59,0.97,0.295,1.433
		c-0.295,0.463-0.926,0.59-1.39,0.295c-1.516-1.01-3.032-2.063-5.054-2.063c-1.685,0-3.033,0.463-3.917,1.178
		c-0.843,0.675-1.306,1.517-1.306,2.358c0,0.843,0.38,1.433,1.18,2.065c0.927,0.631,2.317,1.138,4.212,1.431h0.085
		c1.98,0.295,3.58,0.885,5.013,1.685c1.348,0.885,2.316,2.486,2.316,4.213c0,1.726-0.968,3.116-2.358,4.169
		c-1.432,1.053-3.117,1.643-5.139,1.643c-3.327-0.042-5.939-1.601-7.624-2.948C113.724,271.502,113.681,270.954,114.019,270.533z"/>
	<path fill="#005DAA" stroke="#005DAA" stroke-width="0.504" stroke-miterlimit="10" d="M136.126,248.462
		c0-0.548,0.463-1.011,1.011-1.011c0.59,0,1.053,0.463,1.053,1.011v0.968c0,0.59-0.463,1.095-1.053,1.095
		c-0.548,0-1.011-0.505-1.011-1.095V248.462z M136.126,255.202c0-0.59,0.463-1.011,1.011-1.011c0.59,0,1.053,0.421,1.053,1.011
		v18.618c0,0.548-0.463,1.011-1.053,1.011c-0.548,0-1.011-0.463-1.011-1.011V255.202z"/>
	<path fill="#005DAA" stroke="#005DAA" stroke-width="0.504" stroke-miterlimit="10" d="M162.575,262.614
		c0-3.496-2.823-6.36-6.36-6.36c-3.496,0-6.318,2.864-6.403,6.36v11.205v0.168c-0.042,0.168-0.084,0.337-0.21,0.463
		c-0.169,0.253-0.464,0.38-0.759,0.38h-0.253c-0.294-0.085-0.548-0.295-0.674-0.548c-0.042-0.042-0.042-0.085-0.042-0.127
		c0-0.041-0.042-0.083-0.042-0.083v-0.253v-11.205v-0.336v-7.035c0-0.548,0.421-1.012,1.011-1.012c0.548,0,0.969,0.464,0.969,1.012
		v1.979c1.516-1.811,3.833-2.991,6.403-2.991c4.633,0,8.382,3.791,8.382,8.382v11.205c0,0.59-0.464,1.011-1.011,1.011
		c-0.548,0-1.01-0.421-1.01-1.011V262.614z"/>
	<path fill="#005DAA" stroke="#005DAA" stroke-width="0.504" stroke-miterlimit="10" d="M191.589,273.187
		c0,5.349-4.339,9.688-9.73,9.688c-1.516,0-2.948-0.378-4.296-0.968c-0.421-0.295-0.674-0.885-0.421-1.348
		c0.253-0.548,0.843-0.758,1.348-0.464c1.054,0.507,2.107,0.759,3.37,0.759c4.297,0,7.708-3.413,7.708-7.667v-2.528
		c-1.727,2.486-4.549,4.044-7.708,4.044c-5.392,0-9.688-4.59-9.688-10.276c0-5.561,4.296-10.235,9.688-10.235
		c3.159,0,5.982,1.601,7.708,4.044v-3.033c0-0.548,0.464-1.011,1.053-1.011c0.506,0,0.969,0.463,0.969,1.011V273.187z
		 M189.568,264.426c0-4.591-3.454-8.214-7.708-8.214c-4.212,0-7.666,3.623-7.666,8.214c0,4.632,3.454,8.298,7.666,8.298
		C186.114,272.724,189.568,269.058,189.568,264.426z"/>
	<path fill="#005DAA" stroke="#005DAA" stroke-width="0.504" stroke-miterlimit="10" d="M221.021,255.202
		c0,0.505-0.505,1.011-1.011,1.011h-2.653v15.037c0,1.012,1.011,1.517,1.516,1.517c0.506,0,1.054,0.548,1.054,1.053
		c0,0.505-0.548,1.011-1.054,1.011c-2.063,0-3.622-1.516-3.622-3.581v-15.037h-2.57c-1.011,0-1.011-0.505-1.011-1.011
		c0-0.505,0-1.011,1.011-1.011h2.57v-7.667c0-0.505,0.506-1.01,1.011-1.01c0.548,0,1.095,0.505,1.095,1.01v7.667h2.653
		C220.515,254.191,221.021,254.696,221.021,255.202z"/>
	<path fill="#005DAA" stroke="#005DAA" stroke-width="0.504" stroke-miterlimit="10" d="M244.9,262.319
		c0-3.622-2.948-6.065-6.571-6.065c-3.58,0-6.528,2.443-6.528,6.065v11.5v0.125c0,0.085-0.042,0.127-0.042,0.17
		c-0.042,0.083-0.042,0.125-0.084,0.168c-0.126,0.253-0.337,0.421-0.632,0.505c0,0-0.042,0.042-0.084,0.042h-0.085h-0.126
		c-0.294,0-0.589-0.127-0.8-0.337c-0.084-0.125-0.126-0.21-0.168-0.337c-0.042-0.125-0.042-0.21-0.042-0.336v-11.5v-0.336v-15.627
		c0-0.548,0.464-1.012,1.011-1.012c0.59,0,1.054,0.465,1.054,1.012v10.866c1.558-1.853,3.917-3.032,6.528-3.032
		c4.76,0,8.635,3.369,8.635,8.128v11.5c0,0.548-0.463,1.011-1.053,1.011c-0.548,0-1.011-0.463-1.011-1.011V262.319z"/>
	<path fill="#005DAA" stroke="#005DAA" stroke-width="0.504" stroke-miterlimit="10" d="M253.991,264.552
		c0-5.729,4.465-10.361,10.025-10.361c5.307,0,9.519,4.212,9.94,9.603v0.042v0.125c0,0.548-0.464,0.927-1.011,0.927h-16.932
		c0.21,4.507,3.749,7.919,8.003,7.919c2.737,0,5.264-1.433,6.655-3.75c0.295-0.505,0.926-0.588,1.348-0.336
		c0.464,0.336,0.632,0.926,0.337,1.431c-1.769,2.823-4.844,4.676-8.34,4.676C258.456,274.83,253.991,270.196,253.991,264.552z
		 M256.139,262.909h15.627c-0.674-3.874-3.96-6.697-7.75-6.697C260.14,256.212,256.897,258.993,256.139,262.909z"/>
	<path fill="#005DAA" stroke="#005DAA" stroke-width="0.504" stroke-miterlimit="10" d="M294.333,246.356
		c0-0.548,0.464-1.012,1.011-1.012c0.589,0,1.053,0.465,1.053,1.012v27.463c0,0.548-0.464,1.011-1.053,1.011
		c-0.548,0-1.011-0.463-1.011-1.011V246.356z"/>
	<path fill="#005DAA" stroke="#005DAA" stroke-width="0.504" stroke-miterlimit="10" d="M335.861,262.614
		c-0.084-3.496-2.864-6.402-6.403-6.402c-3.496,0-6.36,2.906-6.36,6.402v11.247v0.125c0,0.042-0.042,0.085-0.042,0.085v0.083
		c-0.085,0.254-0.295,0.422-0.505,0.548c-0.169,0.085-0.337,0.127-0.506,0.127h-0.126h-0.084c-0.042,0-0.084-0.042-0.084-0.042
		c-0.085,0-0.169-0.085-0.253-0.125c-0.042,0-0.084-0.042-0.126-0.085l-0.126-0.127c-0.041-0.041-0.041-0.083-0.084-0.083
		c0-0.042,0-0.042-0.042-0.085c0,0,0-0.042-0.041-0.085c0-0.042,0-0.083-0.042-0.125v-0.127v-0.083v-11.247
		c0-3.496-2.822-6.402-6.36-6.402c-3.538,0-6.36,2.906-6.36,6.402v11.247c0,0.336-0.169,0.631-0.463,0.8
		c-0.042,0.041-0.169,0.125-0.253,0.125c-0.042,0.042-0.085,0.042-0.169,0.042h-0.126h-0.126c-0.38-0.042-0.716-0.38-0.843-0.758
		v-0.21v-11.247v-0.336v-7.077c0-0.548,0.463-0.97,0.969-0.97c0.589,0,1.011,0.422,1.011,0.97v1.979
		c1.516-1.811,3.791-2.948,6.36-2.948c3.201,0,5.939,1.77,7.371,4.381c1.474-2.611,4.255-4.381,7.413-4.381
		c4.634,0,8.382,3.749,8.382,8.382v11.247c0,0.505-0.421,0.968-1.011,0.968c-0.548,0-0.969-0.463-0.969-0.968V262.614z"/>
	<path fill="#005DAA" stroke="#005DAA" stroke-width="0.504" stroke-miterlimit="10" d="M346.297,264.847v-0.421v-0.422v-8.803
		c0-0.548,0.463-1.011,1.01-1.011c0.59,0,1.054,0.463,1.054,1.011v2.991c1.769-2.401,4.633-4.001,7.834-4.001
		c5.56,0,9.983,4.591,9.983,10.235c0,5.602-4.423,10.276-9.983,10.276c-3.201,0-6.065-1.601-7.834-4.044v11.795
		c0,0.548-0.464,1.01-1.054,1.01c-0.548,0-1.01-0.463-1.01-1.01V264.847z M348.361,264.426c0,4.549,3.58,8.213,7.834,8.255
		c4.381-0.042,7.919-3.706,7.919-8.255c0-4.55-3.538-8.172-7.919-8.172c-4.17,0-7.666,3.454-7.834,7.835V264.426z"/>
	<path fill="#005DAA" stroke="#005DAA" stroke-width="0.504" stroke-miterlimit="10" d="M391.316,255.202v18.618
		c0,0.548-0.463,1.011-1.011,1.011c-0.548,0-1.01-0.463-1.01-1.011v-3.076c-1.769,2.443-4.591,4.086-7.751,4.086
		c-5.434,0-9.772-4.676-9.772-10.32c0-5.644,4.338-10.318,9.772-10.318c3.159,0,5.981,1.601,7.751,4.044v-3.033
		c0-0.59,0.463-1.011,1.01-1.011C390.853,254.191,391.316,254.612,391.316,255.202z M389.295,264.509c0-4.633-3.497-8.34-7.751-8.34
		c-4.212,0-7.751,3.706-7.751,8.34c0,4.634,3.538,8.299,7.751,8.299C385.798,272.809,389.295,269.143,389.295,264.509z"/>
	<path fill="#005DAA" stroke="#005DAA" stroke-width="0.504" stroke-miterlimit="10" d="M398.512,264.467
		c0-5.727,4.718-10.276,10.614-10.276c2.443,0,4.76,0.841,6.571,2.274c0.421,0.295,0.506,0.927,0.126,1.39
		c-0.337,0.38-0.927,0.505-1.39,0.168c-1.474-1.178-3.328-1.853-5.308-1.853c-4.802,0-8.593,3.749-8.593,8.298
		c0,4.634,3.791,8.341,8.593,8.341c1.979,0,3.833-0.675,5.308-1.812c0.463-0.337,1.053-0.21,1.39,0.169
		c0.38,0.463,0.295,1.095-0.21,1.473c-1.727,1.348-4.044,2.191-6.487,2.191C403.23,274.83,398.512,270.281,398.512,264.467z"/>
	<path fill="#005DAA" stroke="#005DAA" stroke-width="0.504" stroke-miterlimit="10" d="M431.15,255.202
		c0,0.505-0.505,1.011-1.011,1.011h-2.653v15.037c0,1.012,1.011,1.517,1.516,1.517c0.506,0,1.054,0.548,1.054,1.053
		c0,0.505-0.548,1.011-1.054,1.011c-2.063,0-3.622-1.516-3.622-3.581v-15.037h-2.569c-1.01,0-1.01-0.505-1.01-1.011
		c0-0.505,0-1.011,1.01-1.011h2.569v-7.667c0-0.505,0.506-1.01,1.011-1.01c0.548,0,1.095,0.505,1.095,1.01v7.667h2.653
		C430.645,254.191,431.15,254.696,431.15,255.202z"/>
	<path fill="#005DAA" stroke="#005DAA" stroke-width="0.504" stroke-miterlimit="10" d="M462.06,254.191
		c5.433,0,9.772,4.717,9.772,10.318c0,5.604-4.339,10.32-9.772,10.32c-5.391,0-9.772-4.717-9.772-10.32
		C452.287,258.908,456.668,254.191,462.06,254.191z M462.06,272.809c4.212,0,7.751-3.708,7.751-8.299c0-4.591-3.539-8.34-7.751-8.34
		c-4.212,0-7.751,3.749-7.751,8.34C454.309,269.101,457.847,272.809,462.06,272.809z"/>
	<path fill="#005DAA" stroke="#005DAA" stroke-width="0.504" stroke-miterlimit="10" d="M487.116,246.44
		c0,0.548-0.465,1.012-1.012,1.012c-1.431,0-2.189,0.294-2.611,0.8c-0.463,0.505-0.843,1.516-0.843,3.411v2.191h2.908
		c0.588,0,1.053,0.463,1.053,1.011c0,0.59-0.464,1.053-1.053,1.053h-2.908v17.945c0,0.548-0.463,1.011-1.01,1.011
		c-0.59,0-1.053-0.463-1.053-1.011v-17.945h-2.738c-0.548,0-1.011-0.463-1.011-1.053c0-0.548,0.463-1.011,1.011-1.011h2.738v-2.191
		c0.042-2.106,0.38-3.664,1.348-4.802c1.011-1.095,2.528-1.475,4.169-1.475C486.652,245.387,487.116,245.851,487.116,246.44z"/>
	<path fill="#005DAA" stroke="#005DAA" stroke-width="0.504" stroke-miterlimit="10" d="M506.189,246.356
		c0-0.548,0.463-1.012,1.01-1.012h0.085h15.079c0.59,0,1.01,0.465,1.01,1.012c0,0.588-0.42,1.053-1.01,1.053h-14.111v11.666h12.341
		c0.548,0,1.012,0.465,1.012,1.055c0,0.546-0.464,1.01-1.012,1.01h-12.341v11.626h14.111c0.59,0,1.01,0.463,1.01,1.053
		c0,0.548-0.42,1.011-1.01,1.011h-15.037H507.2h-0.085c-0.505-0.042-0.926-0.463-0.926-1.011V246.356z"/>
	<path fill="#005DAA" stroke="#005DAA" stroke-width="0.504" stroke-miterlimit="10" d="M547.925,255.202v18.618
		c0,0.548-0.463,1.011-1.01,1.011c-0.548,0-1.01-0.463-1.01-1.011v-3.076c-1.77,2.443-4.591,4.086-7.751,4.086
		c-5.432,0-9.771-4.676-9.771-10.32c0-5.644,4.339-10.318,9.771-10.318c3.16,0,5.981,1.601,7.751,4.044v-3.033
		c0-0.59,0.463-1.011,1.01-1.011C547.462,254.191,547.925,254.612,547.925,255.202z M545.904,264.509c0-4.633-3.496-8.34-7.751-8.34
		c-4.212,0-7.75,3.706-7.75,8.34c0,4.634,3.538,8.299,7.75,8.299C542.408,272.809,545.904,269.143,545.904,264.509z"/>
	<path fill="#005DAA" stroke="#005DAA" stroke-width="0.504" stroke-miterlimit="10" d="M556.594,255.244
		c0-0.59,0.465-1.012,1.055-1.012c0.505,0,0.968,0.422,0.968,1.012v4.549c0.085-0.17,0.168-0.337,0.295-0.505
		c1.558-2.443,4.296-5.056,8.255-5.056c0.548,0,1.012,0.422,1.012,1.012c0,0.548-0.465,1.011-1.012,1.011
		c-2.696,0-4.549,1.516-5.982,3.369c-1.389,1.855-2.189,3.961-2.484,4.803c-0.085,0.168-0.085,0.253-0.085,0.336v9.057
		c0,0.59-0.463,1.011-0.968,1.011c-0.59,0-1.055-0.421-1.055-1.011V255.244z"/>
	<path fill="#005DAA" stroke="#005DAA" stroke-width="0.504" stroke-miterlimit="10" d="M575.29,246.356
		c0-0.548,0.464-1.012,1.012-1.012c0.589,0,1.053,0.465,1.053,1.012v27.463c0,0.548-0.464,1.011-1.053,1.011
		c-0.548,0-1.012-0.463-1.012-1.011V246.356z"/>
	<path fill="#005DAA" stroke="#005DAA" stroke-width="0.504" stroke-miterlimit="10" d="M586.407,255.159
		c0-0.548,0.463-0.968,0.968-0.968c0.59,0,1.053,0.421,1.053,0.968v11.204c0,3.538,2.823,6.361,6.319,6.361
		c3.538,0,6.36-2.823,6.402-6.361v-11.204c0-0.168,0.042-0.38,0.17-0.505c0-0.042,0.041-0.085,0.041-0.127
		c0.042,0,0.042-0.042,0.085-0.042c0.085-0.126,0.253-0.21,0.38-0.253h0.083c0.042,0,0.085-0.041,0.127-0.041h0.125h0.127
		c0.168,0.041,0.337,0.125,0.505,0.21c0.085,0.083,0.21,0.21,0.253,0.337c0.085,0.126,0.127,0.293,0.127,0.421v11.204v0.38v6.444
		c0,5.392-4.381,9.688-9.815,9.688c-1.516,0-2.948-0.378-4.254-0.968c-0.463-0.295-0.675-0.885-0.422-1.348
		c0.254-0.505,0.8-0.632,1.307-0.505c1.01,0.505,2.189,0.8,3.369,0.8c4.296,0,7.75-3.413,7.792-7.667v-1.348
		c-1.558,1.77-3.833,2.948-6.402,2.948c-4.591-0.042-8.34-3.791-8.34-8.425V255.159z"/>
	<path fill="#005DAA" stroke="#005DAA" stroke-width="0.504" stroke-miterlimit="10" d="M624.474,269.311
		c0.337-0.421,0.926-0.463,1.306-0.125c2.191,1.768,5.854,3.833,9.688,3.791c2.569,0,4.886-0.758,6.487-1.938
		c1.643-1.18,2.528-2.738,2.528-4.381c0-1.684-0.8-2.948-2.402-4.044c-1.601-1.053-3.959-1.853-6.823-2.401h-0.085
		c-2.738-0.505-5.139-1.263-6.95-2.486c-1.811-1.178-3.033-2.948-3.033-5.139c0-2.231,1.222-4.169,3.076-5.517
		c1.853-1.348,4.339-2.148,7.118-2.148c3.876,0,6.782,1.896,9.099,3.411c0.42,0.295,0.546,0.843,0.253,1.306
		c-0.253,0.422-0.843,0.548-1.265,0.253c-2.316-1.516-4.844-3.116-8.087-3.116c-2.401,0-4.549,0.715-6.022,1.77
		c-1.475,1.094-2.318,2.526-2.318,4.042c0.042,1.475,0.717,2.57,2.191,3.581c1.475,1.01,3.666,1.728,6.319,2.233h0.083
		c2.948,0.548,5.561,1.39,7.499,2.696c1.936,1.263,3.243,3.201,3.243,5.559c0,2.36-1.349,4.466-3.328,5.897
		c-1.98,1.433-4.634,2.318-7.582,2.318c-4.507-0.042-8.425-2.318-10.868-4.254C624.222,270.281,624.18,269.691,624.474,269.311z"/>
	<path fill="#005DAA" stroke="#005DAA" stroke-width="0.504" stroke-miterlimit="10" d="M652.942,255.159
		c0-0.59,0.463-1.011,1.01-1.011c0.548,0,1.012,0.421,1.012,1.011v11.246c0,3.538,2.821,6.361,6.317,6.404
		c3.538-0.042,6.402-2.865,6.402-6.404v-11.246c0-0.59,0.505-1.011,1.012-1.011c0.588,0,1.053,0.421,1.053,1.011v11.246
		c0,4.634-3.749,8.425-8.467,8.425c-4.634,0-8.34-3.791-8.34-8.425V255.159z"/>
	<path fill="#005DAA" stroke="#005DAA" stroke-width="0.504" stroke-miterlimit="10" d="M679.091,255.244
		c0-0.59,0.465-1.012,1.055-1.012c0.505,0,0.968,0.422,0.968,1.012v4.549c0.085-0.17,0.168-0.337,0.295-0.505
		c1.558-2.443,4.296-5.056,8.255-5.056c0.548,0,1.01,0.422,1.01,1.012c0,0.548-0.463,1.011-1.01,1.011
		c-2.696,0-4.549,1.516-5.982,3.369c-1.389,1.855-2.189,3.961-2.484,4.803c-0.085,0.168-0.085,0.253-0.085,0.336v9.057
		c0,0.59-0.463,1.011-0.968,1.011c-0.59,0-1.055-0.421-1.055-1.011V255.244z"/>
	<path fill="#005DAA" stroke="#005DAA" stroke-width="0.504" stroke-miterlimit="10" d="M715.523,273.187
		c0,5.349-4.339,9.688-9.73,9.688c-1.517,0-2.948-0.378-4.296-0.968c-0.422-0.295-0.675-0.885-0.422-1.348
		c0.253-0.548,0.843-0.758,1.348-0.464c1.053,0.507,2.106,0.759,3.371,0.759c4.296,0,7.708-3.413,7.708-7.667v-2.528
		c-1.728,2.486-4.549,4.044-7.708,4.044c-5.392,0-9.688-4.59-9.688-10.276c0-5.561,4.296-10.235,9.688-10.235
		c3.159,0,5.98,1.601,7.708,4.044v-3.033c0-0.548,0.463-1.011,1.053-1.011c0.505,0,0.97,0.463,0.97,1.011V273.187z M713.501,264.426
		c0-4.591-3.454-8.214-7.708-8.214c-4.213,0-7.667,3.623-7.667,8.214c0,4.632,3.454,8.298,7.667,8.298
		C710.047,272.724,713.501,269.058,713.501,264.426z"/>
	<path fill="#005DAA" stroke="#005DAA" stroke-width="0.504" stroke-miterlimit="10" d="M725.244,248.462
		c0-0.548,0.464-1.011,1.012-1.011c0.588,0,1.053,0.463,1.053,1.011v0.968c0,0.59-0.464,1.095-1.053,1.095
		c-0.548,0-1.012-0.505-1.012-1.095V248.462z M725.244,255.202c0-0.59,0.464-1.011,1.012-1.011c0.588,0,1.053,0.421,1.053,1.011
		v18.618c0,0.548-0.464,1.011-1.053,1.011c-0.548,0-1.012-0.463-1.012-1.011V255.202z"/>
	<path fill="#005DAA" stroke="#005DAA" stroke-width="0.504" stroke-miterlimit="10" d="M735.476,264.467
		c0-5.727,4.717-10.276,10.615-10.276c2.443,0,4.759,0.841,6.57,2.274c0.422,0.295,0.505,0.927,0.127,1.39
		c-0.337,0.38-0.927,0.505-1.39,0.168c-1.475-1.178-3.328-1.853-5.307-1.853c-4.803,0-8.594,3.749-8.594,8.298
		c0,4.634,3.791,8.341,8.594,8.341c1.979,0,3.832-0.675,5.307-1.812c0.463-0.337,1.053-0.21,1.39,0.169
		c0.378,0.463,0.295,1.095-0.212,1.473c-1.726,1.348-4.042,2.191-6.485,2.191C740.193,274.83,735.476,270.281,735.476,264.467z"/>
	<path fill="#005DAA" stroke="#005DAA" stroke-width="0.504" stroke-miterlimit="10" d="M778.222,255.202v18.618
		c0,0.548-0.463,1.011-1.01,1.011c-0.548,0-1.01-0.463-1.01-1.011v-3.076c-1.77,2.443-4.591,4.086-7.751,4.086
		c-5.432,0-9.771-4.676-9.771-10.32c0-5.644,4.339-10.318,9.771-10.318c3.16,0,5.982,1.601,7.751,4.044v-3.033
		c0-0.59,0.463-1.011,1.01-1.011C777.759,254.191,778.222,254.612,778.222,255.202z M776.201,264.509c0-4.633-3.496-8.34-7.751-8.34
		c-4.212,0-7.75,3.706-7.75,8.34c0,4.634,3.538,8.299,7.75,8.299C772.705,272.809,776.201,269.143,776.201,264.509z"/>
	<path fill="#005DAA" stroke="#005DAA" stroke-width="0.504" stroke-miterlimit="10" d="M787.777,246.356
		c0-0.548,0.464-1.012,1.012-1.012c0.588,0,1.053,0.465,1.053,1.012v27.463c0,0.548-0.464,1.011-1.053,1.011
		c-0.548,0-1.012-0.463-1.012-1.011V246.356z"/>
	<path fill="#005DAA" stroke="#005DAA" stroke-width="0.504" stroke-miterlimit="10" d="M824.923,244.924
		c3.622,0,6.95,1.263,9.518,3.243c0.464,0.38,0.548,1.095,0.169,1.473c-0.337,0.507-1.011,0.548-1.433,0.212
		c-2.274-1.77-5.139-2.865-8.255-2.865c-7.372,0-13.269,5.771-13.269,12.974c0,7.034,5.897,12.806,13.269,12.806
		c3.116,0,5.981-1.012,8.17-2.865c0.507-0.336,1.18-0.253,1.475,0.253c0.42,0.38,0.337,1.138-0.127,1.475
		c-2.569,1.98-5.897,3.201-9.518,3.201c-8.467,0-15.332-6.655-15.332-14.869C809.591,251.578,816.456,244.966,824.923,244.924z"/>
	<path fill="#005DAA" stroke="#005DAA" stroke-width="0.504" stroke-miterlimit="10" d="M860.126,255.202v18.618
		c0,0.548-0.463,1.011-1.01,1.011c-0.548,0-1.01-0.463-1.01-1.011v-3.076c-1.77,2.443-4.591,4.086-7.75,4.086
		c-5.434,0-9.773-4.676-9.773-10.32c0-5.644,4.339-10.318,9.773-10.318c3.159,0,5.98,1.601,7.75,4.044v-3.033
		c0-0.59,0.463-1.011,1.01-1.011C859.663,254.191,860.126,254.612,860.126,255.202z M858.105,264.509c0-4.633-3.496-8.34-7.75-8.34
		c-4.213,0-7.751,3.706-7.751,8.34c0,4.634,3.538,8.299,7.751,8.299C854.609,272.809,858.105,269.143,858.105,264.509z"/>
	<path fill="#005DAA" stroke="#005DAA" stroke-width="0.504" stroke-miterlimit="10" d="M868.795,255.244
		c0-0.59,0.464-1.012,1.054-1.012c0.505,0,0.968,0.422,0.968,1.012v4.549c0.085-0.17,0.168-0.337,0.295-0.505
		c1.558-2.443,4.296-5.056,8.255-5.056c0.548,0,1.01,0.422,1.01,1.012c0,0.548-0.463,1.011-1.01,1.011
		c-2.696,0-4.549,1.516-5.982,3.369c-1.389,1.855-2.189,3.961-2.484,4.803c-0.085,0.168-0.085,0.253-0.085,0.336v9.057
		c0,0.59-0.463,1.011-0.968,1.011c-0.59,0-1.054-0.421-1.054-1.011V255.244z"/>
	<path fill="#005DAA" stroke="#005DAA" stroke-width="0.504" stroke-miterlimit="10" d="M883.619,264.552
		c0-5.729,4.464-10.361,10.025-10.361c5.307,0,9.518,4.212,9.94,9.603v0.042v0.125c0,0.548-0.463,0.927-1.01,0.927H885.64
		c0.212,4.507,3.75,7.919,8.004,7.919c2.738,0,5.264-1.433,6.655-3.75c0.295-0.505,0.927-0.588,1.348-0.336
		c0.463,0.336,0.632,0.926,0.337,1.431c-1.77,2.823-4.844,4.676-8.34,4.676C888.083,274.83,883.619,270.196,883.619,264.552z
		 M885.767,262.909h15.627c-0.673-3.874-3.959-6.697-7.75-6.697C889.768,256.212,886.525,258.993,885.767,262.909z"/>
</g>
<g>
	<line fill="#0096D6" x1="3.963" y1="224.715" x2="906.822" y2="224.715"/>
	<path fill="#0096D6" d="M906.822,227.659H3.963c-1.626,0-2.945-1.318-2.945-2.944s1.318-2.944,2.945-2.944h902.858
		c1.626,0,2.944,1.318,2.944,2.944S908.448,227.659,906.822,227.659z"/>
</g>
<path fill="#005DAA" stroke="#005DAA" stroke-width="1.68" stroke-miterlimit="10" d="M101.173,153.499H28.829l-14.062,37.419
	c-0.907,2.267-2.948,3.629-5.215,3.629c-0.453,0-1.36-0.232-2.045-0.232c-2.719-1.13-4.301-4.535-3.174-7.254L59.443,39.869
	c0.914-2.034,3.181-3.396,5.448-3.396c2.493,0,4.76,1.362,5.439,3.396l55.112,147.192c1.134,2.719-0.228,6.124-2.948,7.254
	c-0.907,0-1.36,0.232-2.044,0.232c-2.037,0-4.308-1.362-5.216-3.629L101.173,153.499z M32.908,142.384h64.185L65.111,57.109
	L32.908,142.384z"/>
<path fill="#005DAA" stroke="#005DAA" stroke-width="1.68" stroke-miterlimit="10" d="M167.489,41.916
	c0-2.944,2.493-5.444,5.446-5.444c3.174,0,5.668,2.5,5.668,5.444V189.78c0,2.953-2.493,5.453-5.668,5.453
	c-2.952,0-5.446-2.5-5.446-5.453V41.916z"/>
<path fill="#005DAA" stroke="#005DAA" stroke-width="1.68" stroke-miterlimit="10" d="M342.721,58.492l-50.802,70.53
	c-1.134,1.815-2.948,2.491-4.535,2.491h-0.452c-2.048,0-3.629-0.676-4.767-2.491l-50.799-70.31v130.408
	c0,2.952-2.493,5.451-5.446,5.451c-3.174,0-5.668-2.5-5.668-5.451V42.156c0-1.815,0.908-3.396,2.271-4.301
	c0-0.233,0.222-0.233,0.455-0.453c2.487-1.595,5.894-1.138,7.706,1.357l56.467,78.241l56.246-78.241
	c1.59-2.495,5.22-2.952,7.713-1.357c0.679,0.672,1.133,1.129,1.586,1.815c0.455,0.904,0.908,2.034,0.908,2.939v146.963
	c0,2.952-2.493,5.451-5.442,5.451c-3.174,0-5.442-2.5-5.442-5.451V58.492z"/>
<path fill="#005DAA" stroke="#005DAA" stroke-width="1.68" stroke-miterlimit="10" d="M395.251,41.916
	c0-2.944,2.493-5.444,5.439-5.444h0.454h81.194c3.171,0,5.439,2.5,5.439,5.444c0,3.172-2.267,5.672-5.439,5.672h-75.974v62.824
	h66.448c2.944,0,5.443,2.491,5.443,5.663c0,2.952-2.5,5.453-5.443,5.453h-66.448v62.589h75.974c3.171,0,5.439,2.49,5.439,5.663
	c0,2.953-2.267,5.453-5.439,5.453h-80.967h-0.681h-0.453c-2.719-0.234-4.987-2.5-4.987-5.453V41.916z"/>
<g>
	<path fill="#005DAA" d="M560.711,175.436h-0.025c-22.418-0.206-41.006-12.326-50.091-19.534c-2.936-2.594-3.35-7.012-1.053-9.954
		c2.464-3.095,7.248-3.497,10.112-0.944c4.594,3.699,21.423,16.08,40.529,16.08l0.496-0.003c10.312-0.001,20.166-2.926,27.078-8.028
		c6.476-4.637,10.022-10.689,10.022-17.069c0-6.288-2.889-11.072-9.369-15.508c-6.518-4.283-16.266-7.708-28.921-10.152
		l-0.626-0.049c-13.836-2.546-24.301-6.307-31.996-11.498c-9.517-6.193-14.781-15.18-14.781-25.282
		c0-10.379,5.288-19.936,14.888-26.91c8.963-6.52,20.813-10.113,33.363-10.113c18.152,0,31.957,9.037,42.037,15.637
		c3.298,2.316,4.127,6.542,2.008,9.882c-1.185,1.963-3.436,3.215-5.843,3.215c-1.439,0-2.817-0.436-3.986-1.261
		c-9.492-6.203-20.345-13.302-34.216-13.302c-9.407,0-18.528,2.664-25.031,7.31c-5.817,4.323-9.043,9.856-9.043,15.542
		c0.155,5.459,2.682,9.508,8.437,13.456c5.74,3.93,14.717,7.091,26.674,9.397l0.634,0.05c14.831,2.747,26.087,6.812,34.417,12.423
		c10.119,6.606,15.712,16.261,15.712,27.163c0,10.818-5.834,21.244-16.008,28.605C586.445,171.586,573.87,175.436,560.711,175.436z"
		/>
</g>
<path fill-rule="evenodd" clip-rule="evenodd" fill="#0096D6" d="M640.986,198.972c0.417,1.164,1.977,1.153,3.394,1.726
	c0.479,0.231,1.251-0.072,0.758-0.592c-0.03-0.036-0.06-0.074-0.085-0.11c-0.229-0.297,0.22-0.058,0.574-0.1
	c0.37-0.05,1.348,0.99,1.629,0.89c0.337-0.137,0.115-0.797-0.615-1.23c-0.215-0.125-0.191-0.081,0.035-0.056
	c0.072,0.006,0.165,0.008,0.275-0.009c0.185-0.027,0.168-0.053,0.308,0.077c0.209,0.196,0.466,0.419,0.68,0.573
	c0.204,0.159,0.689,0.06,0.582-0.198c-0.028-0.055-0.06-0.1-0.083-0.143c-0.053-0.083-0.069-0.096,0.025-0.069
	c0.185,0.055,0.388,0.067,0.403-0.093c0.057-0.295-0.62-0.78-1.161-1.105c-0.041-0.027-0.074-0.049-0.107-0.082
	c-0.108-0.103-0.235-0.169-0.395-0.193c-0.105-0.019-0.163-0.022-0.263-0.069c-0.394-0.166-0.797-0.232-1.229-0.112
	c-0.32,0.089-0.301,0.05-0.609-0.11c-0.265-0.138-0.555-0.256-0.902-0.328c-0.373-0.079-0.406-0.038-0.362-0.334
	c0.071-0.494,0.002-1.001-0.105-1.513c-0.064-0.317-0.05-0.565-0.036-0.89c0.096-1.74,0.184-3.485-0.392-5.288
	c-0.259-1.033-0.355-2.081-0.323-3.146c0.017-0.573,0.111-0.967,0.262-1.506c0.497-1.768,0.3-3.377-0.414-4.864
	c-0.413-0.857-0.573-0.747,0.389-0.545c0.538,0.115,1.07,0.176,1.593,0.149c1.138,0.064,1.79-0.395,1.961-1.428
	c0.088-0.533,0.005-0.444,0.394-0.788c0.229-0.201,0.45-0.494,0.587-0.871c0.105-0.282,0.049-0.4,0.315-0.567
	c0.301-0.188,0.458-0.213,0.634-0.463c0.138-0.202,0.041-0.571-0.036-0.988c-0.039-0.213-0.078-0.245,0.086-0.381
	c0.979-0.836,0.184-1.291-0.267-2.137c-0.254-0.634,0.323-1.136,0.752-1.864c0.852-1.831,0.038-3.223-0.565-4.874
	c-0.935-2.573-3.276-4.896-8.032-4.966c-6.444,0.188-9.432,5.471-6.149,12.274c0.532,1.847-3.297,0.6-6.564,4.142
	c-1.848,1.426-2.785,1.193-6.173,0.959c-10.654-0.62-12.005,5.869-11.627,10.59c0,1.05-0.541,1.825-1.043,2.52
	c-0.323,0.447-0.297,0.148-0.686-0.17c-1.332-1.097-3.678-1.632-6.744-1.77c-0.149-0.008-0.201-0.011-0.33-0.086
	c-0.237-0.137-0.493-0.254-0.773-0.334c-0.111-0.028-0.122-0.072-0.196-0.166c-0.852-1.092-2.227-1.175-4.127-0.246
	c-0.334,0.165-0.651,0.231-1.009,0.331c-2.285,0.642-2.344,1.371-3.319,1.466c-0.45,0.033-0.877,0.17-0.89,0.626
	c0,0.071,0.006,0.061-0.044,0.11c-0.132,0.108-0.201,0.273-0.154,0.433c0.019,0.064,0.035,0.05-0.011,0.099
	c-0.157,0.152-0.204,0.375-0.13,0.567c0.031,0.075,0.061,0.071-0.008,0.116c-0.563,0.378-0.322,0.949,0.311,1.119
	c1.633,0.54,3.441,0.416,5.423-0.372c1.486-0.533,4.786,0.659,7.069,1.483c0.65,0.235,0.458,0.14-0.049,0.411
	c-1.149,0.621-2.074,1.878-2.917,3.361c-0.218,0.383-0.191,0.312-0.61,0.383c-0.245,0.039-0.499,0.122-0.774,0.303
	c-0.256,0.174-0.22,0.182-0.519,0.132c-1.324-0.22-1.787,0.741-1.2,1.324c0.731,0.684,1.681,0.692,2.373,0.695
	c1.626,0.033,3.177-0.317,4.698-0.844c0.786-0.275,1.054-0.121,1.867,0.112c3.927,1.131,7.838,2.219,11.32,2.263
	c1.985,0.169,3.283-0.278,3.896-1.354c1.326-2.233,1.222-7.138,0.474-9.762c-0.122-0.431-0.303-0.516,0.192-0.417
	c1.309,0.272,2.023,0.202,3.229-0.011c0.604-0.11,0.632-0.243,0.441,0.367c-0.989,3.145-1.368,7.177-0.598,9.966
	c0.074,0.265,0.097,0.366,0.074,0.634c-0.113,1.357,1.71,0.676,2.941,1.444c0.552,0.347,1.191,0.275,0.907-0.226
	c-0.055-0.102-0.052-0.08,0.063-0.077c0.907,0.013,1.809,0.248,2.244,0.347c0.224,0.017,0.361-0.024,0.381-0.166
	c0.011-0.077-0.011-0.064,0.072-0.041c0.373,0.121,0.665-0.045,0.535-0.264c-0.03-0.052-0.05-0.05,0.016-0.033
	c0.273,0.074,0.388-0.165,0.248-0.331c-0.541-0.626-1.786-0.962-2.446-1.034c-0.391-0.042-0.246-0.008-0.494-0.278
	c-0.209-0.228-0.545-0.422-0.822-0.56c-0.177-0.089-0.188-0.052-0.126-0.238c0.239-0.68,0.359-1.376,0.406-2.084
	c0.047-0.673,0.099-1.065,0.315-1.706c0.519-1.546,0.868-3.124,1.01-4.737c0.036-0.419-0.063-0.62,0.275-0.858
	c0.171-0.127,0.298-0.284,0.38-0.465c0.118-0.27,0.096-0.228,0.402-0.3c1.042-0.251,1.977-0.612,2.671-1.098
	c0.502-0.35,0.613-0.428,1.219-0.576c1.031-0.248,1.911-0.665,2.762-1.136c0.555-0.303,0.435-0.275,0.363,0.319
	c-0.132,1.109-0.111,2.071,0.061,2.884c0.121,0.56,0.235,1.092,0.323,1.663C639.482,194.839,639.957,197.481,640.986,198.972
	L640.986,198.972z M613.894,195.633c-0.221-0.249-0.406-0.548-0.532-0.923c-0.144-0.428-0.035-0.471-0.318-0.085
	c-0.248,0.339-0.546,0.653-0.89,0.943c-0.296,0.254-0.292,0.204,0.083,0.163c0.538-0.058,1.062-0.038,1.569,0.045
	C614.131,195.834,614.107,195.876,613.894,195.633L613.894,195.633z"/>
<path fill-rule="evenodd" clip-rule="evenodd" fill="#0096D6" d="M664.447,167.913c0.296,0.497,0.045,1.326,0.166,2.139
	c0.05,0.384,0.734,0.33,0.83,0c0.11-0.249,0.151-0.502,0.216-0.783c0.162,0.168,0.282,0.323,0.595,0.475
	c0.408,0.184,0.617-0.53,0.416-0.943c-0.044-0.089-0.118-0.17-0.174-0.253c-0.088-0.138-0.171-0.235-0.29-0.367
	c-0.11-0.118-0.094-0.115-0.044-0.268c0.061-0.204,0.086-0.414,0.086-0.634c-0.005-0.231,0.011-0.301,0.088-0.516
	c0.082-0.245,0.112-0.475,0.116-0.714c0.006-0.308-0.023-0.42,0.122-0.686c0.135-0.237,0.229-0.485,0.297-0.736
	c0.14-0.504,0.234-0.614,0.438-0.067c0.209,0.551,0.152,0.766,0.526,1.329c0.671,0.86,1.392,0.331,1.293-0.372
	c-0.094-0.803-0.444-1.23-0.51-1.778c-0.047-1.726-0.457-3.353-1.2-4.764c-0.24-0.471,0.177-1.382,0.331-2.437
	c0.152-1.036,0.097-1.089,0.595-2.005c0.591-1.083,1.279-2.904,1.817-4.503c1.003-2.961,0.75-3.038,0.786,0.04
	c0.031,2.274,0.245,4.297,0.993,7.631c2.208,7.926-8.523,15.285-4.806,16.711c0.501,0.19,0.406,0.457,0.672,0.924
	c1.362,2.416,5.106,2.685,7.643,3.135c1.698,0.298,1.35,0.16,0.907,1.549c-1.43,4.492,0.687,12.851-0.562,15.939
	c-0.637,1.566-0.176,3.623,1.048,4.146c2.625,1.213,5.285,1.404,7.789,2.865c0.806,0.494,1.483,0.347,1.624-0.03
	c0.05-0.14-0.005-0.173,0.151-0.121c0.515,0.17,0.83-0.078,0.846-0.322c0.006-0.125-0.028-0.119,0.115-0.074
	c0.84,0.212,1.097-0.337,0.819-0.568c-0.06-0.053-0.055-0.113,0.082-0.082c0.417,0.097,1.023-0.093,0.654-0.57
	c-0.033-0.041-0.044-0.056,0.033-0.058c0.378-0.041,0.83-0.201,0.835-0.717c0-0.828-1.922-0.621-3.18-1.353
	c-1.324-0.769-2.015-1.652-3.372-2.548c-0.808-0.537-1.219-0.91,0.176-1.301c2.052-0.57,6.562,0.187,7.786-1.166
	c0.355-0.499-0.224-0.998-0.827-0.943c-0.082,0.005-0.173,0.042-0.093-0.055c0.202-0.253-0.078-0.613-0.519-0.496
	c-0.085,0.025-0.069-0.003-0.033-0.047c0.217-0.257,0.014-0.601-0.399-0.543c-0.078,0.014-0.061-0.028-0.061-0.074
	c0.071-0.22-0.171-0.378-0.694-0.328c-0.229,0.025-0.607,0.143-0.948,0.061c-2.675-0.643-3.998,0.293-3.785-0.717
	c0.499-1.993,1.455-7.182,1.619-11.918c2.93-0.044,4.888-0.267,6.049-0.56c2.037-0.524,0.466-1.45,2.529-1.608
	c1.417-0.105,3.465-0.146,3.767-1.323c0.941-3.526,2.161-1.968,3.8-3.609c3.647-4.191-5.092-10.752-6.391-16.75
	c-0.331-6.911,0.967-6.577-0.303-13.429c1.208,2.041,4.041,3.094,4.442,3.928c0.502,1.124,1.017,2.19,1.616,2.807
	c0.33,0.876,0.915,1.669,1.237,2.087c0.29,0.376,0.772-0.028,0.678-0.395c-0.071-0.272-0.267-0.868-0.207-1.189
	c0.1-0.516,0.549-0.314,0.954-0.004c0.72,0.555,1.429,1.815,1.549,1.994c0.408,0.609,0.985,0.17,0.908-0.253
	c-0.082-0.459-0.469-1.417-0.813-2.038c0.598,0.154,1.679,1.887,1.789,2.038c0.359,0.479,1.055-0.064,0.847-0.563
	c-0.044-0.105-0.18-0.786-1.44-2.032c0.841,0.461,1.142,0.85,1.762,0.93c0.353,0.039,0.545-0.425,0.083-0.78
	c-1.145-0.883-2.137-1.905-2.595-2.325c-0.637-0.635-3.317-1.39-3.73-2.299c-1.71-3.105-2.043-5.978-4.4-8.68
	c-1.979-3.644,0.314-8.104-6.178-9.897c1.316-1.294,1.855-3.509,1.883-4.552c0.055-2.137-0.708-4.988-0.708-6.041
	c0.02-1.034,0.72-2.326,0.852-3.563c0.289-2.724,0.185-5.455-3.89-6.586c-0.775-0.215-1.373-0.463-2.118-0.76
	c-2.617-1.054-5.093-0.67-7.604-0.075c-0.339,0.079-0.537,0.145-0.502-0.287c0.08-1.031,0.681-1.417,0.113-2.166
	c-0.86-1.065-2.449-0.644-2.872,0.154c-0.317,0.661-0.242,1.291,0.18,1.832c0.129,0.162,0.033,0.231-0.093,0.14
	c-0.384-0.268-0.828-0.67-1.368-1.28c-1.516-1.688-3.744,1.61-2.926,2.68c0.364,0.483,1.389,0.585,2.608,0.632
	c0.111,0,0.129,0.148-0.01,0.15c-1.307,0.024-3.039-0.029-3.171,1.311c-0.082,1.351,0.446,2.542,1.216,2.303
	c0.774-0.356,1.597-1.215,2.25-1.637c0.071-0.046,0.14,0.006,0.077,0.085c-0.905,0.964-1.773,2.392-1.982,3.572
	c-0.356,1.997,0.254,3.672,1.033,5.34c-1.367,0.609-0.626,2.263-0.042,3.607c1.2,2.678,1.739,2.979,2.179,2.821
	c0.709,0.516,1.105,1.567,1.022,2.709c0.003,1.725-4.284,4.505-6.749,6.416c-3.027,1.881-4.202,10.083-6.302,15.125
	c-1.332,3.502-1.508,8.416-1.142,11.793c0.268,1.549-0.53,4.077-0.234,5.713C663.416,165.633,663.838,166.775,664.447,167.913
	L664.447,167.913z"/>
<path fill-rule="evenodd" clip-rule="evenodd" fill="#0096D6" d="M725.886,201.021c-0.374,3.032,8.638,3.036,9.412-0.097
	c1.331-5.126,3.642-6.782,2.708-9.865c-0.141-0.465-0.154-0.69-0.158-1.178c-0.005-0.358-0.035-0.706-0.1-1.044
	c-0.14-0.687-0.173-0.846,0.003-1.552c0.212-0.843,0.422-1.681,0.634-2.525c0.744-2.437,8.688-0.496,9.463-2.346
	c0.764-1.679,1.122-4.016,1.346-6.333c0.187-1.955,0.444-3.553,0.923-5.456c1.136-4.525,2.089-9.856,2.614-14.535
	c0.303-2.707,0.209-2.624,1.279-0.069c3.325,7.951,2.638,15.679,4.621,22.796c0.356,1.444,2.476,2.286,3.975,2.959
	c0.626,0.224,0.723,0.766,0.428,1.29c-0.177,0.413-0.606,0.643-1.033,1.593c-0.482,1.078-0.417,2.776-0.336,4.494
	c-0.11,1.384,0.678,2.92,2.586,3.706c1.451,0.731,1.309,2.473,1.908,3.932c0.976,3.131,9.774,2.084,9.013-0.995
	c-0.039-0.163-0.047-0.209-0.022-0.373c0.614-3.546-2.71-6.611-4.499-10.091c-0.786-1.557-0.984-2.222-0.919-3.697
	c0.055-1.247,2.532-1.166,2.644-2.974c0.016-6.165,0.135-12.624-0.985-18.913c-0.272-1.535-0.439-2.941-0.618-4.477
	c-0.077-0.65-0.188-1.295-0.34-1.932c-0.463-1.986-0.512-2.774-0.367-4.82c0.238-3.342-0.129-6.684-0.311-10.026
	c-0.06-0.487,0.744-0.397,0.898-1.012c0.278-1.712-2.027-3.399-2.666-5.555c-1.534-3.573-1.498-9.787-0.927-12.081
	c0.532-1.77,0.578-3.465,0.516-5.395c-0.064-2.018-0.185-1.826,0.777-0.159c0.992,1.709,2.03,3.369,2.749,5.329
	c1.759,5.168,4.921,10.169,5.28,15.502c0.229,1.917-0.577,2.248-0.957,4.195c-0.364,1.266-0.045,4.666-0.045,6.349
	c-0.033,0.81,1.252,0.78,1.381,0.041c0.138-1.054,0.146-1.688,0.286-2.743c0.069-0.628,0.406-0.905,0.786-0.475
	c0.62,0.918,0.976,1.308,0.585,2.353c-0.268,0.425-0.791,0.443-0.981,0.479c-0.381,0.057-0.336,0.611,0.047,0.661
	c0.041,0.003,0.057,0.011-0.006,0.028c-0.563,0.172-0.494,0.598-0.3,0.661c0.044,0.013,0.039,0.002,0,0.029
	c-0.281,0.196-0.259,0.588,0.05,0.561c0.019-0.002,0.022,0,0,0.012c-0.287,0.143-0.34,0.667,0.26,0.655
	c1.417-0.129,2.029-0.426,2.724-1.067c1.044-1.105,1.508-1.866,1.654-2.598c0.107-0.559,0.055-1.218,0.085-1.796
	c0.107-1.966-0.028-3.951-1.04-6.003c-0.428-0.866-0.697-1.32-0.86-2.29c-0.882-5.236-1.299-10.55-2.699-15.803
	c-0.438-2.451-1.756-4.666-2.541-7.063c-0.643-1.254,2.832-2.985,2.021-3.931c-0.226-0.412-0.45-0.824-0.673-1.237
	c-1.227-4.225-3.6-10.659-6.063-12.914c-2.059-2.097-4.754-1.618-6.637-3.872c-1.166-1.46-2.016-2.167-3.262-2.542
	c-1.083-0.324-0.995-0.053-0.235-0.904c1.158-1.293,1.778-2.818,1.996-4.514c0.072-0.542,0.047-0.405,0.42-0.73
	c0.576-0.509,0.664-1.65,0.416-3.542c-0.108-0.824,0.035-0.89,0.424-1.62c3.694-6.922-4.244-12.036-10.424-10.392
	c-0.604,0.16-0.861,0.176-1.48,0.167c-1.646-0.027-3.509,0.73-4.7,2.519c-1.5,2.255-1.646,5.124-0.951,7.318
	c0.173,0.549,0.221,0.727,0.171,1.306c-0.176,2.041,0.159,3.559,0.979,4.387c0.505,0.512,0.488,0.475,0.64,1.226
	c0.203,0.984,0.479,1.884,0.808,2.725c0.221,0.574,0.144,0.494-0.538,0.621c-1.072,0.199-2.175,0.662-3.256,1.696
	c-1.632,1.56-1.757,1.464-3.937,2.22c-3.622,1.26-6.531,4.172-8.826,11.508c-0.988,2.634-3.021,4.554-4.163,7.309
	c-0.545,1.097,2.551,1.434,2.081,2.809c-1.05,3.423-2.526,8.08-3.121,11.793c-0.613,2.129-0.78,8.826-1.249,14.119
	c-0.513,4.309-4.048,6.579-3.039,9.588c0.061,0.19,0.066,0.203,0.008,0.395c-0.282,0.94-0.074,1.556,0.185,2.146
	c0.077,0.178,0.104,0.294,0.127,0.488c0.157,1.212,0.42,1.542,0.648,2.88c0.146,0.856,1.247,0.446,1.169-0.306
	c-0.279-2.44,0.171-3.593,1.47-4.8c0.351-0.327,0.322-0.25,0.331,0.117c0.055,1.964,0.066,3.036,1.45,4.325
	c0.416,0.411,1.329,0.042,1.114-0.477c-0.428-1.019-0.62-1.928-0.422-3.046c0.328-1.801,0.752-2.704,1.317-3.287
	c0.322-0.333,0.962-0.366,0.99,0.357c0.028,0.803,0.077,1.615,0.177,2.398c0.163,1.274,1.761,0.715,1.674-0.211
	c-0.286-2.55,0.587-4.719-0.496-6.799c-0.574-1.107-0.753-1.076-0.75-2.424c0.014-4.652,0.099-9.112,1.055-13.693
	c0.769-2.066,2.406-6.746,3.361-9.385c0.345-0.95,0.132-0.838,0.985-0.57c0.359,0.115,0.704,0.144,0.989,0.115
	c0.138-0.014,0.37-0.009,0.403,0.357c0.377,3.97-0.072,7.726,0.303,11.695c-0.56,3.931-0.072,7.532-1.53,11.885
	c-0.453,1.46-0.879,1.633-0.912,2.171c-0.049,0.692,1.941,0.531,1.546,1.11c-1.831,4.449-1.633,10.203-2.46,15.746
	c-0.039,1.138-2.12,1.007-1.588,1.98c0.51,1.771,0.428,2.591,0.565,4.85c0.523,5.264-2.09,10.761-2.406,16.36
	c-0.168,1.163,1.828,0.929,1.367,2.261c-0.22,0.797-0.363,1.79-0.546,2.693c-0.146,0.747-0.133,1.108-0.737,1.185
	c-2.412,0.348-3.247,3.767-3.626,7.097c-0.069,0.53-0.113,0.717-0.394,1.163c-1.16,1.85-1.921,3.651-1.691,5.442
	C725.906,200.79,725.903,200.874,725.886,201.021L725.886,201.021z"/>
<path fill-rule="evenodd" clip-rule="evenodd" fill="#0096D6" d="M794.918,47.865c-0.077-2.892,0.417-5.859,2.035-8.976
	c0.948-1.703,1.348-4.413,1.497-7.577c0.654-8.205,5.112-11.142,9.92-11.917c2.694-1.093,5.694-0.921,8.073,0.937
	c0.992,0.773,1.467,1.156,2.577,1.734c3.079,1.601,4.249,5.206,3.86,9.047c0,2.159,0.731,4.187,2.195,6.082
	c1.867,3.107,0.34,6.68-0.948,8.824c-2.101,2.709-2.318,4.822-0.731,5.159c2.696,0.576,4.394,3.218,5.37,5.76
	c2.186,4.067,3.774,7.934,5.961,12c1.42,2.638,1.591,4.389,1.464,7.41c-0.259,6.094-0.938,11.859-1.219,17.933
	c-0.02,0.39,0,0.711,0.052,1.097c0.19,1.328,0.297,2.315-0.003,3.492c-0.234,0.898-0.174,0.841,0.276,1.678
	c1.836,3.419,1.133,5.215,4.598,13.23c1.061,1.982-6.412,1.964-6.815,4.734c-1.353,9.402-4.273,16.209-5.439,19.955
	c-0.358,1.142-0.402,2.086-0.549,3.237c-0.18,1.398-0.646,2.488-1.017,3.669c-0.38,1.211-0.347,2.213-0.385,3.47
	c-0.361,11.484-5.046,20.891-5.803,34.132c-0.08,2.575,1.91,6.162,3.118,9.572c0.628,2.65,2.269,3.339,2.917,4.213
	c1.277,1.564,0.384,2.781-2.089,2.84c-0.457,0.013-0.355-0.006-0.061,0.298c3.287,3.452-1.288,3.782-8.072,3.094
	c-2.57-0.345-4.077-2.853-5.118-5.925c-0.148-0.433-0.138-0.554-0.16-0.017c-0.036,0.742-0.066,1.39-0.104,2.132
	c-0.006,0.331-0.993,0.292-0.999-0.002c-0.232-3.014,0.221-6.243-1.885-8.658c-0.987-1.133-1.219-1.924-1.164-2.853
	c0.122-1.075,0.65-2.812,1.296-4.091c0.521-1.025,0.705-1.618,0.815-2.807c0.805-8.594-2.528-22.484,3.482-31.647
	c1.28-1.847,1.837-3.954,0.794-6.631c-2.509-7.825-5.909-15.63-10.838-23.579c-0.465-0.746-2.449-0.34-2.939-1.087
	c-2.165-3.367-1.381-8.413-1.301-12.914c0.038-2.175-0.155-2.376-1.568-3.971c-4.726-5.336-7.656-9.981-10.714-16.53
	c-0.43-0.92-0.883-1.749-1.372-2.629c-0.662-1.203-1.101-2.497-0.898-4.038c0.127-0.983,0.259-1.939,0.38-2.93
	c0.391-3.205,1.714-6.54,3.132-9.888c0.747-1.763,0.943-2.205,1.316-4.026c1.1-5.374,2.286-10.71,6.399-11.971
	C795.101,48.67,794.941,48.78,794.918,47.865L794.918,47.865z M825.718,71.566c-0.193,5.06-1.932,9.131,0.538,14.91
	c0.548,1.288,1.968,2.221,3.113,3.623c1.538,1.888,1.059,2.091,0.968-0.639c-0.105-3.168-0.096-6.911-0.281-9.656
	c-0.121-1.761,0.028-4.191-0.965-5.607c-0.562-0.796-1.353-1.985-2.099-3.061C825.428,68.872,825.806,69.179,825.718,71.566
	L825.718,71.566z M794.017,75.476c-0.143,0.285-0.286,0.57-0.428,0.857c-0.926,1.848-0.967,2.284-0.209,4.226
	c1.2,3.065,2.098,6.043,3.83,8.945c0.46,0.85,1.149,1.245,1.185-0.381c0.204-2.391,0.846-3.756,0.331-6.404
	c-0.424-2.185-1.346-4.256-2.732-7.06C794.899,73.449,795.155,73.198,794.017,75.476L794.017,75.476z"/>
<path fill-rule="evenodd" clip-rule="evenodd" fill="#0096D6" d="M874.855,191.478c-1.44,1.916-2.004,3.782-1.571,5.569
	c0.099,0.411,0.091,0.362-0.041,0.739c-0.174,0.505-0.096,1.181,0.036,1.693c1.065,3.381,7.886,3.741,11.621,1.858
	c1.058-0.573,0.828-1.88,0.739-2.617c-0.218-2.612,1.083-4.277,0.336-7.353c-0.262-0.712,0.956-1.141,1.966-1.483
	c1.564-0.532,2.366-1.668,2.021-2.751c-0.72-2.867-2.909-4.949-2.476-7.797c0.664-3.874,0.38-6.719-0.686-10.43
	c-1.134-3.454-1.687-6.724-1.188-9.67c0.866-2.829,1.423-6.636,1.613-11.615c1.241-7.53,2.815-15.117,5.3-22.873
	c0.191-0.752,0.785-0.435,0.846,0.762c0.281,5.99,0.621,11.918,2.034,16.771c2.57,5.154,2.851,7.978,2.371,12.664
	c-0.347,2.944-0.055,5.522-0.588,8.464c-0.73,4.036-1.91,8.152-3.603,13.179c-1.641,5.682-0.854,10.13,1.409,13.448
	c0.29,0.428,0.268,0.438,0.184,0.952c-0.367,2.142-0.264,3.961,1.001,4.846c1.951,1.159,4.26,1.353,6.551,1.378
	c1.691,0.173,0.861,3.742,5.679,5.421c4.318,1.202,9.951,0.786,11.392-1.569c0.108-0.182,0.022-0.395,0.038-0.555
	c0.193-1.95-1.373-3.651-3.223-5.031c-0.953-0.709-2.23-1.158-3.043-1.864c-0.796-0.684-1.797-1.585-2.394-2.518
	c-0.226-0.358-0.193-0.502-0.257-0.898c-0.193-1.142-1.241-2.217-1.946-3.317c-0.29-0.46-0.331-0.414,0.097-0.701
	c4.88-3.3,0.868-8.633,2.186-14.813c3.207-9.418,2.142-18.997,3.611-28.494c0.819-3.727-0.347-5.625-0.242-8.758
	c0.982-13.389-0.013-26.888-3.297-41.845c-0.016-0.074-0.022-0.123-0.017-0.197c0.067-0.962,0.023-1.976-0.209-3.071
	c-0.052-0.235,0.058-0.272,0.058-0.514c-0.013-4.635-2.627-21.194-1.605-23.675c0.06-0.148,0.049-0.127,0.152-0.024
	c0.618,0.59,1.34,0.924,2.112,1.131c0.191,0.054,0.169,0.06,0.22,0.253c1.856,6.685,5.017,12.977,9.962,19.021
	c0.741,1.061,0.828,2.282-0.508,3.855c-1.222,1.617-0.667,4.142-1.092,6.532c-0.148,0.902-0.286,2.242-0.138,2.955
	c0.188,0.77,1.996,0.479,2.506-0.622c0.375-0.671,0.614-1.706,0.636-2.73c0.006-0.404,0.135-0.566,0.549-0.668
	c1.695-0.431,2.175,1.121,1.836,3.44c-0.229,1.487-1.006,2.882-1.087,4.804c-0.035,1.033,0.628,1.292,1.386,1.113
	c0.136-0.031,0.132-0.066,0.136,0.074c0.053,1.356,1.213,1.401,2.02,0.774c0.089-0.071,0.066-0.06,0.118,0.035
	c0.366,0.62,1.139,0.875,1.684,0.328c0.518-0.571,0.894-1.459,1.274-2.338c0.044-0.105,0.024-0.089,0.099-0.033
	c0.246,0.181,0.689,0.065,0.81-0.261c1.058-2.646,1.233-2.471,1.56-3.727c0.249-0.972,0.009-2.069-0.3-2.735
	c-0.861-2.569-1.875-5.142-4.149-7.938c-0.215-0.265-0.22-0.3-0.228-0.642c-0.033-1.194-0.237-2.412-0.588-3.653
	c-1.546-7.758-3.628-15.155-7.202-21.561c-0.243-0.672,0.326-1.152,1.266-1.542c2.457-0.708,2.534-1.902,1.944-3.233
	c-2.647-6.144-6.096-12.285-9.644-18.432c-1.116-2.457-3.101-4.583-5.677-6.477c-3.031-2.025-7.893-3.711-12.5-5.445
	c-0.193-0.073-0.199-0.075-0.079-0.242c0.534-0.731,0.725-1.241,0.913-2.201c0.165-0.831,0.505-1.606,0.632-2.43
	c0.049-0.318,0.02-0.319,0.282-0.493c0.424-0.282,0.727-0.655,0.736-1.24c0.001-0.367-0.005-0.511,0.118-0.869
	c0.926-2.779,1.251-5.042-0.254-5.739c-0.417-0.192-0.345-0.127-0.281-0.615c0.538-4.092,1.296-7.719-2.947-10.122
	c-0.356-0.2-0.599-0.376-0.913-0.638c-3.526-2.945-8.183-3.086-11.459-1.339c-0.265,0.145-0.461,0.224-0.758,0.308
	c-5.421,1.521-5.482,6.033-4.077,12.742c0.209,0.993,0.155,0.741-0.764,0.867c-2.324,0.318-2.112,2.515-0.351,5.854
	c0.177,0.341,0.337,0.678,0.502,1.024c0.366,0.771,0.755,1.072,1.235,1.099c0.295,0.02,0.361-0.05,0.389,0.269
	c0.009,0.11,0.009,0.177-0.009,0.286c-0.019,0.162-0.05,0.265-0.282,0.456c-0.697,0.566-1.273,1.99-1.838,3.452
	c-0.425,1.093-0.722,1.068-1.803,1.546c-6.365,2.821-12.566,5.808-15.749,11.812c-1.395,2.151-1.318,5.952-2.666,8.321
	c-3.504,5.554-5.075,11.421-7.155,17.805c-1.001,2.243,3.488,3.069,5.376,3.797c0.466,0.199,0.491,0.625,0.54,1.359
	c0.201,2.89-1.293,10.243-1.56,14.349c-0.125,3.213,0.527,12.711,2.081,19.526c0.237,1.027,0.182,1.365,0.049,2.387
	c-0.215,1.662-0.19,3.63-0.813,5.006c-0.692,1.356-0.3,2.966-0.482,6.662c-0.132,1.334,0.668,2.027,1.409,2.21
	c0.099,0.025,0.089,0.023,0.121,0.123c0.353,1.121,0.588,1.355,1.552,1.313c0.159-0.005,0.141-0.017,0.22,0.118
	c0.475,0.802,1.152,0.569,2.085,1.655c0.935,1.09,1.764,0.772,2.686,0.929c0.532,0.107,0.993,0.131,1.472,0.077
	c0.62-0.024,1.28,0.546,1.547,0.651c0.642,0.315,1.142-0.85,0.359-1.5c-1.05-0.904-1.473-2.048-2.244-2.839
	c-0.41-0.42-0.345-0.322-0.326-0.917c0.036-0.785-0.171-1.365-0.414-1.912c-0.147-0.335-0.212-0.489-0.193-0.862
	c0.017-0.379,0.063-0.777-0.044-1.209c-0.136-0.563,0.221-1.102,0.428-1.252c0.436-0.315,0.997-0.077,1.225,0.183
	c0.582,0.76,0.598,1.952,0.901,2.882c0.356,1.091,1.007,1.89,1.938,2.338c1.089,0.288,1.365-0.275,1.164-0.944
	c-0.304-1.293-0.246-2.686-0.657-3.598c-1.329-2.766-1.8-6.28-4.618-9.275c-1.498-2.277-1.114-8.419-1.094-11.962
	c-0.119-3.671,1.037-5.884,1.428-10.489c0.093-1.085,1.061-13.837,1.979-13.757c1.563,0.135,2.244,0.23,3.656,0
	c0.606-0.1-0.802,14.249-0.954,14.892c-0.309,1.285-0.573,2.336-0.728,3.684c-0.121,1.049-0.366,2.892-0.348,4.444
	c0.075,6.783,0.251,11.299,0.279,11.84c0.201,3.716,1.409,7.344,1.839,10.848c0.078,0.647,0.119,1.284,0.103,1.907
	c-0.681,5.184-0.987,10.306-0.257,15.265c0.493,8.345,1.979,15.093,2.967,22.639c1.208,7.64-0.88,14.834,1.674,22.327
	c0.071,0.212,0.017,0.323-0.052,0.527c-1.349,3.785-1.519,7.408,0.432,10.482C875.08,191.217,875.097,191.158,874.855,191.478
	L874.855,191.478z"/>
</svg>
