<?xml version="1.0" encoding="utf-8"?>
<!-- Generator: Adobe Illustrator 21.0.2, SVG Export Plug-In . SVG Version: 6.00 Build 0)  -->
<svg version="1.1" id="Layer_1" xmlns="http://www.w3.org/2000/svg" xmlns:xlink="http://www.w3.org/1999/xlink" x="0px" y="0px"
	 width="327.4px" height="283.5px" viewBox="0 0 327.4 283.5" enable-background="new 0 0 327.4 283.5" xml:space="preserve">
<g>
	<g>
		<path fill="#614776" d="M72.6,193.1c1.2,1.2,1.7,2.8,1.7,4.8v78.5c0,2-0.6,3.6-1.8,4.8c-1.2,1.2-2.7,1.9-4.6,1.9
			c-2.2,0-3.9-0.9-5.1-2.6l-50.3-66.4v62.3c0,2-0.6,3.6-1.7,4.8c-1.2,1.2-2.7,1.9-4.6,1.9c-1.9,0-3.4-0.6-4.5-1.8
			c-1.1-1.2-1.7-2.8-1.7-4.9v-78.5c0-2,0.6-3.6,1.8-4.8c1.2-1.2,2.7-1.9,4.6-1.9c2.2,0,3.9,0.9,5.1,2.6l50.3,66.5v-62.4
			c0-2,0.6-3.6,1.7-4.8c1.1-1.2,2.6-1.9,4.5-1.9C70,191.2,71.5,191.9,72.6,193.1z"/>
		<path fill="#614776" d="M97.2,281.3c-1.2-1.2-1.8-2.8-1.8-4.9v-78.1c0-2,0.6-3.5,1.7-4.7c1.2-1.2,2.8-1.7,4.8-1.7h31
			c9.6,0,17,2.4,22.3,7.1c5.3,4.7,8,11.4,8,20c0,8.6-2.7,15.2-8,20c-5.3,4.8-12.8,7.2-22.3,7.2h-24.3v30.2c0,2.1-0.6,3.7-1.7,4.9
			c-1.2,1.2-2.8,1.8-4.9,1.8C100,283.1,98.4,282.5,97.2,281.3z M131.5,235.6c12.7,0,19-5.5,19-16.6c0-11-6.3-16.4-19-16.4h-22.9v33
			H131.5z"/>
		<path fill="#614776" d="M180.9,280.7c-1.2-1.2-1.7-2.7-1.7-4.7v-77.7c0-2,0.6-3.5,1.7-4.7c1.2-1.2,2.8-1.7,4.8-1.7H233
			c2,0,3.5,0.5,4.6,1.4c1.1,0.9,1.6,2.3,1.6,4c0,1.7-0.5,3-1.6,3.9c-1.1,0.9-2.6,1.3-4.6,1.3h-40.8v28.5h38.3c2,0,3.5,0.5,4.6,1.4
			c1.1,0.9,1.6,2.3,1.6,4c0,1.7-0.5,3-1.6,4c-1.1,0.9-2.6,1.4-4.6,1.4h-38.3v29.9H233c4.1,0,6.2,1.8,6.2,5.3c0,1.7-0.5,3-1.6,4
			c-1.1,0.9-2.6,1.4-4.6,1.4h-47.3C183.7,282.4,182.1,281.9,180.9,280.7z"/>
		<path fill="#614776" d="M263,274.1c-6.3-6.2-9.4-15.5-9.4-27.6v-48.6c0-2.1,0.6-3.7,1.8-4.9c1.2-1.2,2.8-1.8,4.8-1.8
			c2,0,3.6,0.6,4.8,1.8c1.2,1.2,1.8,2.8,1.8,4.9v49.5c0,8.3,2,14.6,6,18.9c4,4.3,9.9,6.4,17.8,6.4c7.8,0,13.7-2.1,17.7-6.4
			c4-4.3,6-10.6,6-18.9v-49.5c0-2,0.6-3.6,1.8-4.8c1.2-1.2,2.8-1.9,4.8-1.9c2,0,3.6,0.6,4.8,1.8c1.2,1.2,1.8,2.8,1.8,4.9v48.6
			c0,12.1-3.1,21.3-9.4,27.6c-6.3,6.3-15.4,9.4-27.4,9.4C278.5,283.5,269.3,280.3,263,274.1z"/>
	</g>
	<g>
		<path fill="#614776" d="M184.1,44.7c0-24.7-20-44.7-44.7-44.7c-24.7,0-44.7,20-44.7,44.7c0,24.7,20,44.7,44.7,44.7
			C164.1,89.4,184.1,69.4,184.1,44.7"/>
		<path fill="#BE955B" d="M244.6,37.8c3.4-8.5-0.8-18.1-9.3-21.5c-8.5-3.4-18.1,0.8-21.5,9.3c-3.4,8.5,0.8,18.1,9.3,21.5
			C231.6,50.5,241.3,46.3,244.6,37.8"/>
		<g>
			<path fill="#BE955B" d="M172.5,110.4c4.9,0.6,21.1,2.5,42.8-10.5c16.1-9.7,26.6-23.7,27.6-32.1c1-6.8-3.7-13-10.5-14
				c-2.9-0.4-5.3,0.1-8,1.6c-8.4,4.4-10.5,19.9-18.3,31.5c-11.7,17.1-26.2,17.7-33.2,18c-1.5,0-2.8,1.2-2.8,2.8
				C170.1,109.1,171.2,110.3,172.5,110.4z"/>
			<path fill="#614776" d="M240.2,89c-7.4,9-29.4,28.9-56.3,28.9s-40.1-13.5-60.2-21.8c-15.7-6.6-33.9,0.8-40.5,16.5
				c-4.9,11.6-2.1,24.6,6,33.2c13.7,15,41.5,25.9,86.7,10.9c45.2-15,67.1-58.3,70.2-64c0.9-1.7,0.1-3.8-1.6-4.6
				C243.1,87.2,241.2,87.7,240.2,89z"/>
		</g>
	</g>
</g>
</svg>
