<?xml version="1.0" encoding="utf-8"?>
<!-- Generator: Adobe Illustrator 15.1.0, SVG Export Plug-In . SVG Version: 6.00 Build 0)  -->
<!DOCTYPE svg PUBLIC "-//W3C//DTD SVG 1.1//EN" "http://www.w3.org/Graphics/SVG/1.1/DTD/svg11.dtd">
<svg version="1.1" id="Layer_1" xmlns="http://www.w3.org/2000/svg" xmlns:xlink="http://www.w3.org/1999/xlink" x="0px" y="0px"
	 width="873.282px" height="283.465px" viewBox="0 0 873.282 283.465" enable-background="new 0 0 873.282 283.465"
	 xml:space="preserve">
<path fill="#FFFFFF" d="M13.78,141.732c0-70.552,58.517-127.95,130.442-127.95h303.809v255.899H144.222
	C72.297,269.682,13.78,212.285,13.78,141.732z"/>
<path fill="#933961" d="M558.291,207.809V79.99c0-6.712,5.199-11.907,11.911-11.907h25.56c41.81,0,75.611,34.007,75.611,75.597
	c0,42.029-33.802,76.041-75.611,76.041h-25.56C563.49,219.721,558.291,214.306,558.291,207.809z M582.333,195.673h13.428
	c28.602-0.215,51.567-23.177,51.567-51.994c0-28.377-22.966-51.554-51.567-51.554h-13.428V195.673z"/>
<path fill="#933961" d="M703.212,207.809V79.99c0-6.712,5.191-11.907,11.907-11.907h0.216c0,0,0,0,0.431,0h70.195
	c6.276,0,11.907,5.195,11.907,11.907c0,6.721-5.631,12.136-11.907,12.136h-58.706v39.643h50.469c6.501,0,11.92,5.63,11.92,11.912
	c0,6.721-5.419,12.136-11.92,12.136h-50.469v39.858h58.706c6.276,0,11.907,5.415,11.907,12.136c0,6.497-5.631,11.912-11.907,11.912
	h-70.195c-0.431,0-0.431-0.215-0.431-0.215l-0.216,0.215C708.404,219.721,703.212,214.306,703.212,207.809z"/>
<g>
	<path fill="#933961" d="M729.054,0h-584.83C64.7,0,0,63.58,0,141.732s64.7,141.732,144.224,141.732h584.83
		c79.527,0,144.228-63.58,144.228-141.732S808.582,0,729.054,0z M13.782,141.732c0-70.552,58.517-127.95,130.442-127.95h303.812
		v255.899H144.224C72.299,269.682,13.782,212.285,13.782,141.732z"/>
	<g>
		<path fill="#933961" d="M161.883,183.973h-52.642l-10.618,28.162c-1.946,4.765-6.492,7.586-11.261,7.586
			c-1.519,0-2.822-0.215-4.114-0.65c-6.288-2.387-9.314-9.318-7.149-15.604L123.972,75.88c1.947-4.765,6.719-7.797,11.477-7.582
			c4.987-0.215,9.529,2.817,11.49,7.582l47.873,127.586c2.164,6.286-0.873,13.217-7.149,15.604c-1.088,0.435-2.606,0.65-4.114,0.65
			c-4.769,0-9.325-2.822-11.048-7.586L161.883,183.973z M153,160.149l-17.552-46.574l-17.54,46.574H153z"/>
		<path fill="#933961" d="M248.304,207.809c0,6.497-5.415,11.912-11.694,11.912c-6.719,0-11.907-5.415-11.907-11.912V81.946
			c0,0,0,0,0-0.22c-0.215-3.683,1.508-7.582,4.758-9.96c5.418-3.683,12.782-2.602,16.464,2.593l69.969,96.841V81.946
			c0-6.281,5.199-11.701,11.703-11.701c6.505,0,11.909,5.419,11.909,11.701v125.863c0,6.497-5.404,11.912-11.909,11.912
			c-3.466,0-6.719-1.731-8.884-4.334c-0.431-0.435-0.87-0.866-1.086-1.301l-69.322-96.181V207.809z"/>
		<path fill="#933961" d="M413.371,179.428c-9.099-9.318-14.729-22.966-14.729-37.695s5.631-28.377,14.729-37.906
			c9.099-9.749,21.234-15.384,35.091-15.384V63.749c-20.79,0-39.849,8.883-53.073,23.177
			c-13.426,14.298-21.438,33.357-21.438,54.807c0,21.445,8.013,40.728,21.438,54.807c13.225,14.083,32.283,23.182,53.073,23.182
			v-24.693C434.605,195.027,422.469,189.172,413.371,179.428z"/>
	</g>
</g>
<g>
	<path fill="#FFFFFF" d="M558.291,207.809V79.99c0-6.712,5.199-11.907,11.911-11.907h25.56c41.81,0,75.611,34.007,75.611,75.597
		c0,42.029-33.802,76.041-75.611,76.041h-25.56C563.49,219.721,558.291,214.306,558.291,207.809z M582.333,195.673h13.428
		c28.602-0.215,51.567-23.177,51.567-51.994c0-28.377-22.966-51.554-51.567-51.554h-13.428V195.673z"/>
	<path fill="#FFFFFF" d="M703.212,207.809V79.99c0-6.712,5.191-11.907,11.907-11.907h0.216c0,0,0,0,0.431,0h70.195
		c6.276,0,11.907,5.195,11.907,11.907c0,6.721-5.631,12.136-11.907,12.136h-58.706v39.643h50.469c6.501,0,11.92,5.63,11.92,11.912
		c0,6.721-5.419,12.136-11.92,12.136h-50.469v39.858h58.706c6.276,0,11.907,5.415,11.907,12.136c0,6.497-5.631,11.912-11.907,11.912
		h-70.195c-0.431,0-0.431-0.215-0.431-0.215l-0.216,0.215C708.404,219.721,703.212,214.306,703.212,207.809z"/>
	<path fill="#FFFFFF" d="M448.461,63.749c19.934,0,39.001,8.883,51.783,23.177c13.428,14.298,21.88,33.357,21.88,54.807
		c0,21.445-8.452,40.728-21.88,54.807c-12.782,14.083-31.85,23.182-51.783,23.182 M448.461,195.027
		c13.007,0,25.134-5.855,34.231-15.6c8.884-9.318,14.729-22.966,14.729-37.695s-5.846-28.377-14.729-37.906
		c-9.098-9.749-21.225-15.384-34.231-15.384"/>
</g>
</svg>
