<?xml version="1.0" encoding="utf-8"?>
<!-- Generator: Adobe Illustrator 15.1.0, SVG Export Plug-In . SVG Version: 6.00 Build 0)  -->
<!DOCTYPE svg PUBLIC "-//W3C//DTD SVG 1.1//EN" "http://www.w3.org/Graphics/SVG/1.1/DTD/svg11.dtd">
<svg version="1.1" id="Layer_1" xmlns="http://www.w3.org/2000/svg" xmlns:xlink="http://www.w3.org/1999/xlink" x="0px" y="0px"
	 width="854.196px" height="283.465px" viewBox="0 0 854.196 283.465" enable-background="new 0 0 854.196 283.465"
	 xml:space="preserve">
<path fill="#319BC6" d="M547.886,159.665c-8.146,4.164-15.34,7.028-21.584,8.591c-6.244,1.56-13.624,2.341-22.132,2.341
	c-20.576,0-37.701-6.735-51.383-20.206c-13.688-13.471-20.533-30.373-20.533-50.7c0-22.228,7.257-40.686,21.765-55.381
	c14.513-14.695,32.7-22.043,54.559-22.043c6.92,0,13.276,0.504,19.064,1.515c5.785,1.011,11.735,2.679,17.858,5.004v23.79
	c-5.574-4.165-11.735-7.348-18.503-9.555c-6.768-2.2-13.726-3.304-20.889-3.304c-14.331,0-26.249,5.39-35.769,16.162
	c-9.522,10.779-14.28,24.282-14.28,40.508c0,16.283,4.483,29.818,13.451,40.594c8.971,10.776,20.187,16.166,33.657,16.166
	c9.063,0,17.094-1.32,24.104-3.968c7.01-2.641,14.252-7.066,21.724-13.272L547.886,159.665z"/>
<path fill="#319BC6" d="M602.26,126.725V40.084c-7.594,0.306-14.115,0.857-19.563,1.655c-10.594,1.53-19.319,4.101-26.176,7.711
	l4.223-12.444l4.226-12.536h48.219h55.385l-3.399,11.893l-3.489,11.895c-8.451-3.183-15.646-5.446-21.584-6.796
	c-5.204-1.1-10.533-1.744-15.983-1.929v87.192c0,8.32,0.421,15.54,1.244,21.66c0.829,6.12,2.276,12.785,4.359,20.005h-16.439
	h-16.532c2.079-7.035,3.521-13.61,4.317-19.728C601.86,142.539,602.26,135.229,602.26,126.725z"/>
<path fill="#319BC6" d="M689.238,126.696V66.167c0-8.999-0.37-16.563-1.104-22.687s-2.054-12.457-3.948-19.011h15.889h15.98
	c-1.837,6.43-3.122,12.689-3.855,18.78c-0.737,6.095-1.104,13.732-1.104,22.917v60.529c0,9.06,0.366,16.653,1.104,22.776
	c0.733,6.123,2.047,12.431,3.947,18.917H700.26h-15.983c1.837-6.365,3.125-12.609,3.858-18.732
	C688.868,143.592,689.238,135.938,689.238,126.696z"/>
<path fill="#319BC6" d="M853.087,159.665c-8.142,4.164-15.336,7.028-21.584,8.591c-6.244,1.56-13.623,2.341-22.132,2.341
	c-20.576,0-37.698-6.735-51.383-20.206c-13.688-13.471-20.531-30.373-20.531-50.7c0-22.228,7.252-40.686,21.766-55.381
	s32.697-22.043,54.556-22.043c6.92,0,13.279,0.504,19.064,1.515s11.735,2.679,17.858,5.004v23.79
	c-5.574-4.165-11.735-7.348-18.503-9.555c-6.767-2.2-13.726-3.304-20.889-3.304c-14.328,0-26.246,5.39-35.769,16.162
	c-9.522,10.779-14.277,24.282-14.277,40.508c0,16.283,4.48,29.818,13.448,40.594c8.975,10.776,20.188,16.166,33.658,16.166
	c9.063,0,17.093-1.32,24.103-3.968c7.013-2.641,14.255-7.066,21.724-13.272L853.087,159.665z"/>
<g>
	<path fill="#319BC6" d="M42.933,226.463l12.927-33.664h4.8l13.777,33.664h-5.076l-3.926-10.198H51.36l-3.698,10.198H42.933z
		 M52.646,212.639h11.412l-3.513-9.322c-1.072-2.832-1.869-5.159-2.389-6.98c-0.429,2.159-1.033,4.302-1.815,6.429L52.646,212.639z"
		/>
	<path fill="#319BC6" d="M77.466,226.463v-24.387h3.72v3.467c1.791-2.679,4.377-4.019,7.761-4.019c1.47,0,2.821,0.265,4.053,0.791
		c1.231,0.529,2.154,1.225,2.767,2.079c0.612,0.858,1.041,1.875,1.285,3.056c0.153,0.765,0.229,2.104,0.229,4.018v14.995h-4.133
		v-14.835c0-1.685-0.161-2.94-0.482-3.776c-0.322-0.836-0.893-1.499-1.711-1.996c-0.819-0.498-1.779-0.746-2.881-0.746
		c-1.76,0-3.28,0.558-4.559,1.674c-1.277,1.119-1.917,3.237-1.917,6.362v13.317H77.466z"/>
	<path fill="#319BC6" d="M112.643,222.764l0.598,3.651c-1.164,0.246-2.206,0.367-3.124,0.367c-1.5,0-2.663-0.236-3.49-0.711
		c-0.826-0.476-1.408-1.101-1.745-1.872c-0.336-0.772-0.505-2.398-0.505-4.88v-14.028h-3.031v-3.215h3.031v-6.037l4.111-2.48v8.518
		h4.155v3.215h-4.155v14.258c0,1.181,0.072,1.939,0.218,2.274c0.145,0.335,0.381,0.605,0.711,0.804c0.329,0.2,0.8,0.296,1.413,0.296
		C111.29,222.923,111.894,222.872,112.643,222.764z"/>
	<path fill="#319BC6" d="M116.708,197.551v-4.752h4.133v4.752H116.708z M116.708,226.463v-24.387h4.133v24.387H116.708z"/>
	<path fill="#319BC6" d="M125.479,219.183l4.087-0.642c0.229,1.637,0.869,2.89,1.918,3.764c1.047,0.874,2.515,1.308,4.396,1.308
		c1.899,0,3.307-0.383,4.226-1.158c0.918-0.771,1.377-1.681,1.377-2.72c0-0.935-0.405-1.668-1.216-2.207
		c-0.566-0.363-1.976-0.832-4.226-1.396c-3.031-0.766-5.131-1.429-6.303-1.99c-1.17-0.555-2.059-1.33-2.663-2.315
		c-0.604-0.988-0.907-2.079-0.907-3.271c0-1.091,0.249-2.096,0.746-3.023c0.498-0.925,1.175-1.693,2.033-2.306
		c0.643-0.476,1.518-0.877,2.628-1.206c1.11-0.328,2.301-0.494,3.572-0.494c1.914,0,3.592,0.274,5.039,0.829
		c1.448,0.549,2.515,1.295,3.204,2.239c0.689,0.938,1.164,2.2,1.424,3.775l-4.041,0.549c-0.185-1.254-0.716-2.232-1.596-2.938
		s-2.124-1.056-3.731-1.056c-1.899,0-3.252,0.313-4.064,0.941c-0.812,0.628-1.216,1.361-1.216,2.203
		c0,0.536,0.167,1.021,0.505,1.448c0.336,0.443,0.864,0.81,1.583,1.104c0.413,0.152,1.631,0.504,3.651,1.052
		c2.923,0.785,4.962,1.423,6.118,1.92c1.156,0.498,2.063,1.219,2.722,2.169c0.657,0.95,0.987,2.13,0.987,3.536
		c0,1.378-0.402,2.676-1.206,3.895c-0.804,1.215-1.963,2.155-3.479,2.822c-1.515,0.666-3.229,0.998-5.143,0.998
		c-3.168,0-5.584-0.657-7.244-1.975C126.999,223.721,125.938,221.769,125.479,219.183z"/>
	<path fill="#319BC6" d="M167.337,218.608l4.27,0.526c-0.673,2.497-1.921,4.433-3.742,5.811c-1.823,1.378-4.149,2.066-6.981,2.066
		c-3.567,0-6.394-1.097-8.483-3.294c-2.09-2.197-3.135-5.278-3.135-9.242c0-4.102,1.056-7.287,3.168-9.552
		c2.113-2.264,4.852-3.399,8.22-3.399c3.261,0,5.925,1.11,7.992,3.329c2.066,2.22,3.1,5.346,3.1,9.37
		c0,0.242-0.008,0.612-0.024,1.104h-18.186c0.153,2.679,0.911,4.726,2.274,6.151c1.362,1.426,3.062,2.134,5.098,2.134
		c1.515,0,2.808-0.396,3.879-1.193C165.859,221.625,166.709,220.353,167.337,218.608z M153.766,211.928h13.618
		c-0.185-2.055-0.705-3.592-1.563-4.618c-1.315-1.588-3.023-2.386-5.12-2.386c-1.897,0-3.494,0.635-4.787,1.907
		C154.62,208.101,153.905,209.8,153.766,211.928z"/>
	<path fill="#319BC6" d="M176.798,235.807v-33.73h3.766v3.167c0.887-1.237,1.89-2.169,3.007-2.787
		c1.118-0.619,2.472-0.932,4.064-0.932c2.081,0,3.918,0.536,5.511,1.607c1.591,1.071,2.794,2.583,3.605,4.535
		c0.81,1.951,1.217,4.091,1.217,6.416c0,2.497-0.448,4.745-1.344,6.742c-0.895,1.996-2.196,3.526-3.904,4.592
		c-1.706,1.065-3.501,1.595-5.383,1.595c-1.378,0-2.615-0.29-3.709-0.874c-1.094-0.58-1.995-1.313-2.698-2.2v11.869H176.798z
		 M180.54,214.408c0,3.139,0.635,5.453,1.906,6.955c1.271,1.503,2.81,2.249,4.616,2.249c1.837,0,3.409-0.775,4.718-2.328
		c1.309-1.554,1.963-3.961,1.963-7.221c0-3.108-0.64-5.434-1.917-6.983c-1.279-1.544-2.805-2.315-4.581-2.315
		c-1.76,0-3.318,0.822-4.672,2.469C181.218,208.879,180.54,211.271,180.54,214.408z"/>
	<path fill="#319BC6" d="M211.974,222.764l0.598,3.651c-1.164,0.246-2.205,0.367-3.124,0.367c-1.5,0-2.663-0.236-3.491-0.711
		c-0.826-0.476-1.408-1.101-1.744-1.872c-0.336-0.772-0.505-2.398-0.505-4.88v-14.028h-3.031v-3.215h3.031v-6.037l4.11-2.48v8.518
		h4.156v3.215h-4.156v14.258c0,1.181,0.072,1.939,0.219,2.274c0.145,0.335,0.381,0.605,0.711,0.804
		c0.329,0.2,0.801,0.296,1.413,0.296C210.62,222.923,211.224,222.872,211.974,222.764z"/>
	<path fill="#319BC6" d="M216.038,197.551v-4.752h4.133v4.752H216.038z M216.038,226.463v-24.387h4.133v24.387H216.038z"/>
	<path fill="#319BC6" d="M242.375,217.527l4.064,0.529c-0.445,2.8-1.58,4.994-3.409,6.579c-1.831,1.585-4.076,2.376-6.74,2.376
		c-3.337,0-6.02-1.091-8.047-3.272c-2.028-2.181-3.042-5.307-3.042-9.379c0-2.631,0.437-4.937,1.309-6.91
		c0.872-1.978,2.2-3.457,3.983-4.446c1.783-0.985,3.724-1.479,5.822-1.479c2.647,0,4.814,0.67,6.498,2.009
		c1.684,1.34,2.763,3.24,3.237,5.709l-4.019,0.618c-0.382-1.639-1.06-2.87-2.031-3.699c-0.973-0.822-2.148-1.237-3.525-1.237
		c-2.081,0-3.773,0.746-5.074,2.239c-1.301,1.492-1.952,3.853-1.952,7.083c0,3.274,0.628,5.657,1.883,7.14
		c1.255,1.486,2.893,2.227,4.913,2.227c1.623,0,2.977-0.494,4.064-1.493C241.396,221.125,242.084,219.594,242.375,217.527z"/>
	<path fill="#319BC6" d="M263.637,226.463v-33.664h14.925c3.001,0,5.281,0.304,6.844,0.906c1.561,0.605,2.808,1.674,3.742,3.205
		c0.933,1.53,1.4,3.224,1.4,5.073c0,2.389-0.773,4.401-2.318,6.04c-1.546,1.64-3.935,2.68-7.164,3.122
		c1.178,0.564,2.074,1.126,2.687,1.675c1.301,1.196,2.534,2.688,3.696,4.478l5.855,9.165h-5.602l-4.455-7.003
		c-1.301-2.021-2.373-3.568-3.214-4.641c-0.842-1.071-1.596-1.82-2.261-2.248c-0.667-0.431-1.344-0.727-2.033-0.899
		c-0.505-0.104-1.331-0.159-2.479-0.159h-5.166v14.95H263.637z M268.092,207.654h9.575c2.035,0,3.627-0.208,4.775-0.632
		c1.148-0.421,2.021-1.091,2.618-2.019c0.597-0.928,0.895-1.933,0.895-3.021c0-1.591-0.577-2.901-1.733-3.926
		c-1.156-1.023-2.982-1.54-5.476-1.54h-10.655V207.654z"/>
	<path fill="#319BC6" d="M312.913,223.452c-1.531,1.302-3.004,2.22-4.42,2.756s-2.936,0.804-4.557,0.804
		c-2.679,0-4.739-0.654-6.177-1.965c-1.438-1.308-2.158-2.979-2.158-5.013c0-1.196,0.271-2.287,0.815-3.272
		c0.542-0.988,1.255-1.779,2.135-2.379c0.88-0.597,1.872-1.046,2.974-1.353c0.812-0.217,2.035-0.421,3.674-0.621
		c3.337-0.399,5.793-0.871,7.37-1.426c0.016-0.564,0.024-0.925,0.024-1.078c0-1.684-0.391-2.87-1.172-3.559
		c-1.056-0.932-2.625-1.4-4.707-1.4c-1.944,0-3.379,0.342-4.305,1.023c-0.926,0.68-1.61,1.885-2.055,3.617l-4.041-0.556
		c0.367-1.729,0.973-3.125,1.814-4.19c0.84-1.062,2.059-1.881,3.65-2.455c1.593-0.574,3.436-0.861,5.535-0.861
		c2.081,0,3.772,0.246,5.074,0.733c1.301,0.491,2.258,1.11,2.87,1.85c0.612,0.743,1.042,1.681,1.285,2.813
		c0.139,0.704,0.208,1.977,0.208,3.813v5.511c0,3.84,0.087,6.27,0.265,7.29c0.175,1.018,0.523,1.993,1.044,2.928h-4.316
		C313.311,225.602,313.035,224.601,312.913,223.452z M312.568,214.224c-1.5,0.612-3.75,1.132-6.75,1.563
		c-1.7,0.242-2.902,0.517-3.605,0.822c-0.705,0.31-1.249,0.756-1.631,1.347c-0.383,0.586-0.574,1.243-0.574,1.964
		c0,1.101,0.418,2.019,1.252,2.756c0.834,0.733,2.055,1.1,3.663,1.1c1.591,0,3.007-0.348,4.248-1.043
		c1.24-0.698,2.151-1.651,2.733-2.86c0.443-0.935,0.665-2.312,0.665-4.133V214.224z"/>
	<path fill="#319BC6" d="M323.153,226.463v-24.387h3.718v3.467c1.792-2.679,4.379-4.019,7.762-4.019c1.47,0,2.819,0.265,4.053,0.791
		c1.231,0.529,2.153,1.225,2.765,2.079c0.612,0.858,1.043,1.875,1.289,3.056c0.153,0.765,0.229,2.104,0.229,4.018v14.995h-4.133
		v-14.835c0-1.685-0.163-2.94-0.484-3.776c-0.319-0.836-0.89-1.499-1.709-1.996c-0.82-0.498-1.78-0.746-2.883-0.746
		c-1.761,0-3.278,0.558-4.557,1.674c-1.279,1.119-1.917,3.237-1.917,6.362v13.317H323.153z"/>
	<path fill="#319BC6" d="M365.127,226.463v-3.08c-1.547,2.42-3.821,3.629-6.821,3.629c-1.942,0-3.731-0.536-5.361-1.607
		c-1.63-1.071-2.893-2.567-3.789-4.49c-0.896-1.92-1.342-4.127-1.342-6.62c0-2.437,0.405-4.644,1.218-6.627
		c0.81-1.984,2.028-3.502,3.648-4.558c1.624-1.056,3.438-1.585,5.444-1.585c1.47,0,2.778,0.313,3.926,0.932
		c1.148,0.618,2.083,1.429,2.8,2.424v-12.081h4.11v33.664H365.127z M352.062,214.294c0,3.118,0.657,5.453,1.974,7.003
		c1.317,1.543,2.87,2.315,4.663,2.315c1.805,0,3.339-0.737,4.602-2.214c1.263-1.479,1.895-3.73,1.895-6.761
		c0-3.339-0.641-5.788-1.926-7.348c-1.288-1.563-2.87-2.344-4.755-2.344c-1.837,0-3.371,0.75-4.602,2.248
		C352.677,208.696,352.062,211.063,352.062,214.294z"/>
	<path fill="#319BC6" d="M373.923,214.268c0-4.516,1.253-7.857,3.763-10.032c2.098-1.805,4.656-2.711,7.67-2.711
		c3.352,0,6.094,1.101,8.221,3.298c2.127,2.193,3.192,5.229,3.192,9.102c0,3.138-0.472,5.606-1.413,7.405
		c-0.94,1.798-2.312,3.195-4.11,4.19c-1.799,0.994-3.763,1.492-5.89,1.492c-3.413,0-6.171-1.094-8.276-3.285
		C374.975,221.539,373.923,218.389,373.923,214.268z M378.171,214.268c0,3.126,0.679,5.463,2.041,7.017
		c1.365,1.553,3.077,2.328,5.144,2.328c2.05,0,3.76-0.778,5.122-2.341s2.044-3.942,2.044-7.141c0-3.014-0.686-5.3-2.057-6.854
		c-1.368-1.553-3.071-2.331-5.109-2.331c-2.067,0-3.779,0.775-5.144,2.318C378.85,208.812,378.171,211.146,378.171,214.268z"/>
	<path fill="#319BC6" d="M401.61,226.463v-24.387h3.696v3.422c0.765-1.192,1.783-2.156,3.055-2.883
		c1.269-0.728,2.717-1.091,4.34-1.091c1.805,0,3.285,0.376,4.442,1.126c1.154,0.749,1.971,1.799,2.446,3.147
		c1.926-2.851,4.439-4.273,7.53-4.273c2.42,0,4.279,0.67,5.581,2.009c1.301,1.34,1.951,3.403,1.951,6.188v16.742h-4.11v-15.365
		c0-1.651-0.134-2.841-0.402-3.568c-0.268-0.727-0.753-1.311-1.458-1.757c-0.705-0.443-1.531-0.663-2.481-0.663
		c-1.713,0-3.138,0.567-4.271,1.709c-1.132,1.142-1.7,2.966-1.7,5.476v14.169h-4.133V210.62c0-1.837-0.335-3.215-1.011-4.134
		c-0.673-0.918-1.773-1.377-3.304-1.377c-1.164,0-2.239,0.306-3.228,0.918c-0.988,0.612-1.703,1.505-2.146,2.686
		c-0.443,1.18-0.667,2.876-0.667,5.096v12.654H401.61z"/>
	<path fill="#319BC6" d="M440.809,197.551v-4.752h4.134v4.752H440.809z M440.809,226.463v-24.387h4.134v24.387H440.809z"/>
	<path fill="#319BC6" d="M449.579,219.183l4.088-0.642c0.23,1.637,0.868,2.89,1.914,3.764c1.052,0.874,2.52,1.308,4.4,1.308
		c1.895,0,3.305-0.383,4.223-1.158c0.919-0.771,1.378-1.681,1.378-2.72c0-0.935-0.402-1.668-1.219-2.207
		c-0.561-0.363-1.971-0.832-4.222-1.396c-3.03-0.766-5.135-1.429-6.302-1.99c-1.174-0.555-2.061-1.33-2.666-2.315
		c-0.606-0.988-0.906-2.079-0.906-3.271c0-1.091,0.249-2.096,0.746-3.023c0.498-0.925,1.174-1.693,2.035-2.306
		c0.638-0.476,1.518-0.877,2.628-1.206c1.109-0.328,2.296-0.494,3.571-0.494c1.914,0,3.591,0.274,5.039,0.829
		c1.448,0.549,2.513,1.295,3.202,2.239c0.688,0.938,1.16,2.2,1.422,3.775l-4.037,0.549c-0.186-1.254-0.721-2.232-1.602-2.938
		c-0.88-0.705-2.123-1.056-3.73-1.056c-1.895,0-3.253,0.313-4.063,0.941c-0.81,0.628-1.218,1.361-1.218,2.203
		c0,0.536,0.172,1.021,0.51,1.448c0.332,0.443,0.861,0.81,1.582,1.104c0.415,0.152,1.633,0.504,3.648,1.052
		c2.928,0.785,4.969,1.423,6.123,1.92c1.154,0.498,2.061,1.219,2.717,2.169c0.663,0.95,0.989,2.13,0.989,3.536
		c0,1.378-0.402,2.676-1.206,3.895c-0.804,1.215-1.964,2.155-3.476,2.822c-1.519,0.666-3.234,0.998-5.147,0.998
		c-3.164,0-5.581-0.657-7.239-1.975C451.097,223.721,450.038,221.769,449.579,219.183z"/>
	<path fill="#319BC6" d="M491.433,218.608l4.273,0.526c-0.677,2.497-1.92,4.433-3.744,5.811c-1.817,1.378-4.146,2.066-6.978,2.066
		c-3.565,0-6.397-1.097-8.483-3.294c-2.092-2.197-3.138-5.278-3.138-9.242c0-4.102,1.059-7.287,3.17-9.552
		c2.111-2.264,4.854-3.399,8.222-3.399c3.259,0,5.925,1.11,7.991,3.329c2.066,2.22,3.1,5.346,3.1,9.37
		c0,0.242-0.013,0.612-0.025,1.104h-18.184c0.153,2.679,0.912,4.726,2.271,6.151c1.365,1.426,3.062,2.134,5.096,2.134
		c1.519,0,2.813-0.396,3.885-1.193C489.959,221.625,490.808,220.353,491.433,218.608z M477.866,211.928h13.617
		c-0.185-2.055-0.708-3.592-1.563-4.618c-1.32-1.588-3.023-2.386-5.122-2.386c-1.9,0-3.495,0.635-4.79,1.907
		C478.721,208.101,478,209.8,477.866,211.928z"/>
	<path fill="#319BC6" d="M516.716,226.463v-3.08c-1.544,2.42-3.821,3.629-6.818,3.629c-1.945,0-3.731-0.536-5.364-1.607
		c-1.626-1.071-2.89-2.567-3.789-4.49c-0.893-1.92-1.339-4.127-1.339-6.62c0-2.437,0.401-4.644,1.218-6.627
		c0.811-1.984,2.028-3.502,3.648-4.558s3.438-1.585,5.44-1.585c1.474,0,2.781,0.313,3.93,0.932c1.147,0.618,2.079,1.429,2.8,2.424
		v-12.081h4.107v33.664H516.716z M503.653,214.294c0,3.118,0.656,5.453,1.971,7.003c1.32,1.543,2.87,2.315,4.662,2.315
		c1.806,0,3.343-0.737,4.605-2.214c1.263-1.479,1.895-3.73,1.895-6.761c0-3.339-0.645-5.788-1.927-7.348
		c-1.288-1.563-2.87-2.344-4.758-2.344c-1.837,0-3.368,0.75-4.599,2.248C504.266,208.696,503.653,211.063,503.653,214.294z"/>
	<path fill="#319BC6" d="M564.66,214.657l4.458,1.129c-0.938,3.658-2.614,6.448-5.045,8.368c-2.424,1.92-5.39,2.883-8.897,2.883
		c-3.623,0-6.576-0.74-8.847-2.22c-2.276-1.474-4.005-3.616-5.191-6.416s-1.779-5.811-1.779-9.025c0-3.502,0.669-6.563,2.009-9.172
		c1.339-2.608,3.246-4.592,5.715-5.944c2.475-1.358,5.198-2.034,8.164-2.034c3.367,0,6.199,0.857,8.496,2.57
		c2.296,1.716,3.896,4.126,4.803,7.232l-4.389,1.033c-0.778-2.446-1.913-4.229-3.399-5.348c-1.486-1.116-3.349-1.675-5.601-1.675
		c-2.589,0-4.751,0.619-6.486,1.856c-1.741,1.243-2.959,2.908-3.661,4.994c-0.708,2.092-1.059,4.248-1.059,6.467
		c0,2.861,0.415,5.358,1.25,7.495c0.836,2.137,2.131,3.73,3.891,4.79c1.761,1.052,3.668,1.581,5.722,1.581
		c2.494,0,4.604-0.721,6.333-2.155C562.881,219.626,564.048,217.492,564.66,214.657z"/>
	<path fill="#319BC6" d="M572.537,214.268c0-4.516,1.25-7.857,3.764-10.032c2.098-1.805,4.655-2.711,7.666-2.711
		c3.355,0,6.098,1.101,8.222,3.298c2.13,2.193,3.195,5.229,3.195,9.102c0,3.138-0.472,5.606-1.416,7.405
		c-0.938,1.798-2.309,3.195-4.107,4.19c-1.799,0.994-3.763,1.492-5.894,1.492c-3.412,0-6.168-1.094-8.272-3.285
		C573.59,221.539,572.537,218.389,572.537,214.268z M576.785,214.268c0,3.126,0.676,5.463,2.041,7.017
		c1.365,1.553,3.074,2.328,5.141,2.328c2.054,0,3.763-0.778,5.122-2.341c1.364-1.563,2.047-3.942,2.047-7.141
		c0-3.014-0.688-5.3-2.06-6.854c-1.365-1.553-3.068-2.331-5.109-2.331c-2.066,0-3.775,0.775-5.141,2.318
		C577.461,208.812,576.785,211.146,576.785,214.268z"/>
	<path fill="#319BC6" d="M600.225,226.463v-24.387h3.719v3.467c1.792-2.679,4.382-4.019,7.762-4.019
		c1.474,0,2.819,0.265,4.057,0.791c1.231,0.529,2.149,1.225,2.762,2.079c0.612,0.858,1.046,1.875,1.289,3.056
		c0.152,0.765,0.229,2.104,0.229,4.018v14.995h-4.134v-14.835c0-1.685-0.159-2.94-0.484-3.776c-0.318-0.836-0.887-1.499-1.709-1.996
		c-0.816-0.498-1.779-0.746-2.883-0.746c-1.761,0-3.278,0.558-4.555,1.674c-1.281,1.119-1.92,3.237-1.92,6.362v13.317H600.225z"/>
	<path fill="#319BC6" d="M635.406,222.764l0.594,3.651c-1.161,0.246-2.2,0.367-3.119,0.367c-1.505,0-2.666-0.236-3.495-0.711
		c-0.823-0.476-1.403-1.101-1.741-1.872c-0.338-0.772-0.504-2.398-0.504-4.88v-14.028h-3.036v-3.215h3.036v-6.037l4.107-2.48v8.518
		h4.158v3.215h-4.158v14.258c0,1.181,0.07,1.939,0.217,2.274s0.383,0.605,0.715,0.804c0.325,0.2,0.797,0.296,1.409,0.296
		C634.048,222.923,634.654,222.872,635.406,222.764z"/>
	<path fill="#319BC6" d="M639.399,226.463v-24.387h3.719v3.696c0.95-1.729,1.824-2.87,2.628-3.419
		c0.804-0.555,1.689-0.829,2.653-0.829c1.396,0,2.813,0.446,4.247,1.333l-1.422,3.833c-1.008-0.596-2.021-0.893-3.029-0.893
		c-0.906,0-1.716,0.271-2.437,0.813c-0.721,0.545-1.231,1.298-1.537,2.261c-0.46,1.471-0.689,3.077-0.689,4.822v12.769H639.399z"/>
	<path fill="#319BC6" d="M653.565,214.268c0-4.516,1.257-7.857,3.763-10.032c2.099-1.805,4.656-2.711,7.673-2.711
		c3.349,0,6.092,1.101,8.222,3.298c2.124,2.193,3.189,5.229,3.189,9.102c0,3.138-0.473,5.606-1.41,7.405
		c-0.943,1.798-2.314,3.195-4.113,4.19c-1.799,0.994-3.764,1.492-5.888,1.492c-3.412,0-6.174-1.094-8.278-3.285
		C654.618,221.539,653.565,218.389,653.565,214.268z M657.813,214.268c0,3.126,0.683,5.463,2.041,7.017
		c1.364,1.553,3.08,2.328,5.146,2.328c2.048,0,3.757-0.778,5.122-2.341c1.358-1.563,2.041-3.942,2.041-7.141
		c0-3.014-0.683-5.3-2.054-6.854c-1.371-1.553-3.074-2.331-5.109-2.331c-2.066,0-3.782,0.775-5.146,2.318
		C658.496,208.812,657.813,211.146,657.813,214.268z"/>
	<path fill="#319BC6" d="M681.164,226.463v-33.664h4.133v33.664H681.164z"/>
	<path fill="#319BC6" d="M691.611,226.463v-33.664h4.133v33.664H691.611z"/>
	<path fill="#319BC6" d="M718.846,218.608l4.273,0.526c-0.676,2.497-1.926,4.433-3.744,5.811c-1.824,1.378-4.152,2.066-6.984,2.066
		c-3.564,0-6.391-1.097-8.482-3.294c-2.086-2.197-3.132-5.278-3.132-9.242c0-4.102,1.053-7.287,3.17-9.552
		c2.111-2.264,4.848-3.399,8.215-3.399c3.266,0,5.926,1.11,7.992,3.329c2.066,2.22,3.1,5.346,3.1,9.37
		c0,0.242-0.006,0.612-0.019,1.104h-18.191c0.153,2.679,0.912,4.726,2.277,6.151c1.358,1.426,3.062,2.134,5.097,2.134
		c1.518,0,2.806-0.396,3.878-1.193C717.366,221.625,718.221,220.353,718.846,218.608z M705.273,211.928h13.617
		c-0.186-2.055-0.702-3.592-1.563-4.618c-1.314-1.588-3.023-2.386-5.115-2.386c-1.901,0-3.496,0.635-4.79,1.907
		C706.128,208.101,705.413,209.8,705.273,211.928z"/>
	<path fill="#319BC6" d="M744.129,226.463v-3.08c-1.55,2.42-3.82,3.629-6.824,3.629c-1.939,0-3.731-0.536-5.358-1.607
		c-1.633-1.071-2.896-2.567-3.788-4.49c-0.899-1.92-1.346-4.127-1.346-6.62c0-2.437,0.408-4.644,1.218-6.627
		c0.811-1.984,2.028-3.502,3.648-4.558c1.626-1.056,3.438-1.585,5.447-1.585c1.467,0,2.774,0.313,3.922,0.932
		c1.148,0.618,2.086,1.429,2.801,2.424v-12.081h4.113v33.664H744.129z M731.06,214.294c0,3.118,0.657,5.453,1.978,7.003
		c1.314,1.543,2.87,2.315,4.662,2.315c1.806,0,3.336-0.737,4.599-2.214c1.264-1.479,1.895-3.73,1.895-6.761
		c0-3.339-0.638-5.788-1.926-7.348c-1.288-1.563-2.87-2.344-4.752-2.344c-1.837,0-3.374,0.75-4.605,2.248
		C731.679,208.696,731.06,211.063,731.06,214.294z"/>
	<path fill="#319BC6" d="M775.765,226.463v-29.69H764.68v-3.974h26.68v3.974h-11.137v29.69H775.765z"/>
	<path fill="#319BC6" d="M793.61,226.463v-24.387h3.719v3.696c0.95-1.729,1.824-2.87,2.628-3.419
		c0.804-0.555,1.69-0.829,2.653-0.829c1.391,0,2.807,0.446,4.248,1.333l-1.423,3.833c-1.014-0.596-2.021-0.893-3.036-0.893
		c-0.899,0-1.709,0.271-2.43,0.813c-0.721,0.545-1.231,1.298-1.537,2.261c-0.459,1.471-0.688,3.077-0.688,4.822v12.769H793.61z"/>
	<path fill="#319BC6" d="M809.333,197.551v-4.752h4.133v4.752H809.333z M809.333,226.463v-24.387h4.133v24.387H809.333z"/>
	<path fill="#319BC6" d="M835.675,223.452c-1.531,1.302-3.004,2.22-4.42,2.756s-2.94,0.804-4.561,0.804
		c-2.679,0-4.739-0.654-6.174-1.965c-1.442-1.308-2.163-2.979-2.163-5.013c0-1.196,0.274-2.287,0.816-3.272
		c0.543-0.988,1.257-1.779,2.137-2.379c0.881-0.597,1.869-1.046,2.973-1.353c0.81-0.217,2.034-0.421,3.674-0.621
		c3.336-0.399,5.791-0.871,7.373-1.426c0.013-0.564,0.02-0.925,0.02-1.078c0-1.684-0.39-2.87-1.168-3.559
		c-1.059-0.932-2.627-1.4-4.707-1.4c-1.945,0-3.38,0.342-4.305,1.023c-0.932,0.68-1.614,1.885-2.061,3.617l-4.037-0.556
		c0.363-1.729,0.97-3.125,1.812-4.19c0.842-1.062,2.06-1.881,3.654-2.455c1.589-0.574,3.432-0.861,5.53-0.861
		c2.086,0,3.775,0.246,5.077,0.733c1.301,0.491,2.258,1.11,2.87,1.85c0.612,0.743,1.039,1.681,1.281,2.813
		c0.141,0.704,0.211,1.977,0.211,3.813v5.511c0,3.84,0.09,6.27,0.262,7.29c0.179,1.018,0.522,1.993,1.046,2.928h-4.318
		C836.07,225.602,835.796,224.601,835.675,223.452z M835.33,214.224c-1.505,0.612-3.75,1.132-6.754,1.563
		c-1.697,0.242-2.902,0.517-3.604,0.822c-0.701,0.31-1.25,0.756-1.633,1.347c-0.382,0.586-0.573,1.243-0.573,1.964
		c0,1.101,0.421,2.019,1.256,2.756c0.829,0.733,2.054,1.1,3.661,1.1c1.588,0,3.004-0.348,4.248-1.043
		c1.237-0.698,2.149-1.651,2.729-2.86c0.447-0.935,0.67-2.312,0.67-4.133V214.224z"/>
	<path fill="#319BC6" d="M845.822,226.463v-33.664h4.133v33.664H845.822z"/>
	<path fill="#319BC6" d="M339.822,282.891v-21.169h-3.652v-3.215h3.652v-2.596c0-1.64,0.143-2.854,0.434-3.651
		c0.398-1.068,1.1-1.939,2.102-2.605c1.004-0.667,2.408-0.998,4.213-0.998c1.164,0,2.449,0.137,3.858,0.411l-0.619,3.606
		c-0.858-0.152-1.671-0.229-2.437-0.229c-1.253,0-2.143,0.269-2.663,0.804c-0.52,0.536-0.781,1.537-0.781,3.008v2.251h4.755v3.215
		h-4.755v21.169H339.822z"/>
	<path fill="#319BC6" d="M350.362,270.699c0-4.517,1.253-7.861,3.763-10.036c2.099-1.806,4.656-2.708,7.67-2.708
		c3.352,0,6.094,1.101,8.221,3.295c2.127,2.197,3.192,5.229,3.192,9.104c0,3.138-0.472,5.606-1.413,7.405
		c-0.941,1.798-2.312,3.195-4.111,4.19s-3.763,1.492-5.89,1.492c-3.413,0-6.171-1.094-8.276-3.285
		C351.415,277.97,350.362,274.816,350.362,270.699z M354.61,270.699c0,3.122,0.679,5.463,2.041,7.013
		c1.365,1.556,3.078,2.331,5.144,2.331c2.05,0,3.76-0.781,5.122-2.341c1.362-1.563,2.044-3.941,2.044-7.141
		c0-3.017-0.686-5.3-2.057-6.856c-1.368-1.55-3.071-2.328-5.109-2.328c-2.066,0-3.779,0.771-5.144,2.318
		C355.289,265.242,354.61,267.577,354.61,270.699z"/>
	<path fill="#319BC6" d="M378.008,282.891v-24.384h3.718v3.696c0.95-1.731,1.824-2.87,2.628-3.422s1.69-0.826,2.653-0.826
		c1.394,0,2.81,0.443,4.248,1.33l-1.422,3.836c-1.011-0.596-2.021-0.896-3.033-0.896c-0.902,0-1.712,0.274-2.433,0.816
		s-1.231,1.295-1.537,2.261c-0.459,1.471-0.689,3.077-0.689,4.822v12.766H378.008z"/>
	<path fill="#319BC6" d="M408.062,282.891v-33.661h4.455v33.661H408.062z"/>
	<path fill="#319BC6" d="M419.842,282.891v-24.384h3.719v3.467c1.792-2.679,4.378-4.019,7.762-4.019c1.47,0,2.819,0.265,4.053,0.791
		c1.231,0.529,2.153,1.222,2.766,2.079c0.613,0.858,1.041,1.875,1.29,3.052c0.152,0.766,0.229,2.105,0.229,4.019v14.995h-4.135
		v-14.832c0-1.685-0.163-2.944-0.484-3.779c-0.319-0.832-0.891-1.499-1.71-1.996c-0.819-0.498-1.779-0.747-2.883-0.747
		c-1.76,0-3.278,0.562-4.557,1.678s-1.917,3.237-1.917,6.359v13.317H419.842z"/>
	<path fill="#319BC6" d="M444.343,275.613l4.082-0.645c0.229,1.64,0.874,2.893,1.92,3.767c1.046,0.87,2.513,1.308,4.395,1.308
		c1.9,0,3.31-0.386,4.229-1.158c0.918-0.771,1.378-1.681,1.378-2.723c0-0.932-0.408-1.665-1.219-2.204
		c-0.567-0.366-1.978-0.832-4.223-1.4c-3.035-0.765-5.134-1.429-6.308-1.986c-1.167-0.559-2.054-1.33-2.659-2.318
		c-0.606-0.988-0.906-2.079-0.906-3.272c0-1.087,0.249-2.092,0.746-3.02c0.498-0.925,1.174-1.693,2.028-2.306
		c0.645-0.476,1.519-0.877,2.628-1.206c1.11-0.331,2.303-0.494,3.572-0.494c1.913,0,3.597,0.274,5.038,0.826
		c1.448,0.552,2.52,1.298,3.208,2.238c0.689,0.941,1.161,2.201,1.423,3.776l-4.044,0.552c-0.185-1.253-0.714-2.235-1.595-2.938
		c-0.88-0.704-2.124-1.059-3.73-1.059c-1.901,0-3.253,0.315-4.063,0.944c-0.81,0.625-1.218,1.361-1.218,2.203
		c0,0.536,0.165,1.018,0.504,1.445c0.338,0.446,0.867,0.813,1.588,1.103c0.408,0.153,1.626,0.504,3.648,1.056
		c2.921,0.781,4.962,1.42,6.116,1.917c1.161,0.497,2.066,1.222,2.724,2.172c0.657,0.947,0.988,2.127,0.988,3.536
		c0,1.378-0.401,2.673-1.205,3.892c-0.804,1.218-1.965,2.158-3.482,2.825c-1.512,0.663-3.228,0.998-5.141,0.998
		c-3.17,0-5.581-0.66-7.246-1.974C445.86,280.151,444.802,278.199,444.343,275.613z"/>
	<path fill="#319BC6" d="M486.196,275.039l4.273,0.526c-0.677,2.497-1.92,4.433-3.744,5.811c-1.818,1.378-4.146,2.066-6.978,2.066
		c-3.565,0-6.397-1.101-8.483-3.294c-2.092-2.197-3.138-5.278-3.138-9.242c0-4.102,1.059-7.287,3.17-9.555
		c2.111-2.265,4.854-3.396,8.222-3.396c3.259,0,5.925,1.11,7.991,3.329c2.066,2.22,3.1,5.342,3.1,9.367
		c0,0.245-0.013,0.612-0.025,1.104H472.4c0.152,2.679,0.912,4.729,2.271,6.154c1.364,1.423,3.062,2.134,5.096,2.134
		c1.519,0,2.813-0.398,3.885-1.192C484.723,278.056,485.571,276.783,486.196,275.039z M472.63,268.354h13.617
		c-0.185-2.05-0.708-3.587-1.563-4.614c-1.32-1.592-3.023-2.389-5.122-2.389c-1.9,0-3.495,0.638-4.79,1.907
		C473.484,264.528,472.764,266.23,472.63,268.354z"/>
	<path fill="#319BC6" d="M495.616,282.891v-24.384h3.719v3.696c0.95-1.731,1.824-2.87,2.628-3.422s1.69-0.826,2.653-0.826
		c1.391,0,2.807,0.443,4.248,1.33l-1.423,3.836c-1.014-0.596-2.021-0.896-3.036-0.896c-0.898,0-1.709,0.274-2.43,0.816
		s-1.231,1.295-1.537,2.261c-0.459,1.471-0.688,3.077-0.688,4.822v12.766H495.616z"/>
	<path fill="#319BC6" d="M520.345,279.194l0.593,3.651c-1.16,0.243-2.2,0.367-3.118,0.367c-1.506,0-2.666-0.239-3.496-0.711
		c-0.822-0.476-1.402-1.101-1.741-1.872c-0.338-0.775-0.504-2.401-0.504-4.88v-14.028h-3.035v-3.215h3.035v-6.04l4.108-2.481v8.521
		h4.158v3.215h-4.158v14.258c0,1.177,0.069,1.937,0.217,2.274c0.146,0.335,0.383,0.605,0.714,0.804
		c0.325,0.197,0.798,0.296,1.41,0.296C518.986,279.354,519.592,279.3,520.345,279.194z"/>
	<path fill="#319BC6" d="M524.407,253.981v-4.752h4.134v4.752H524.407z M524.407,282.891v-24.384h4.134v24.384H524.407z"/>
	<path fill="#319BC6" d="M533.292,270.699c0-4.517,1.257-7.861,3.764-10.036c2.099-1.806,4.656-2.708,7.673-2.708
		c3.349,0,6.091,1.101,8.222,3.295c2.124,2.197,3.188,5.229,3.188,9.104c0,3.138-0.472,5.606-1.409,7.405
		c-0.944,1.798-2.315,3.195-4.114,4.19s-3.763,1.492-5.887,1.492c-3.412,0-6.174-1.094-8.279-3.285
		C534.345,277.97,533.292,274.816,533.292,270.699z M537.54,270.699c0,3.122,0.683,5.463,2.041,7.013
		c1.365,1.556,3.081,2.331,5.147,2.331c2.047,0,3.757-0.781,5.121-2.341c1.359-1.563,2.041-3.941,2.041-7.141
		c0-3.017-0.682-5.3-2.054-6.856c-1.371-1.55-3.074-2.328-5.108-2.328c-2.066,0-3.782,0.771-5.147,2.318
		C538.223,265.242,537.54,267.577,537.54,270.699z"/>
	<path fill="#319BC6" d="M560.986,282.891v-24.384h3.719v3.467c1.792-2.679,4.375-4.019,7.762-4.019
		c1.467,0,2.819,0.265,4.051,0.791c1.23,0.529,2.155,1.222,2.768,2.079c0.612,0.858,1.04,1.875,1.288,3.052
		c0.153,0.766,0.23,2.105,0.23,4.019v14.995h-4.134v-14.832c0-1.685-0.166-2.944-0.484-3.779c-0.319-0.832-0.893-1.499-1.709-1.996
		c-0.823-0.498-1.78-0.747-2.884-0.747c-1.76,0-3.278,0.562-4.56,1.678c-1.276,1.116-1.914,3.237-1.914,6.359v13.317H560.986z"/>
	<path fill="#319BC6" d="M598.662,270.699c0-4.517,1.257-7.861,3.763-10.036c2.099-1.806,4.656-2.708,7.674-2.708
		c3.348,0,6.091,1.101,8.221,3.295c2.124,2.197,3.189,5.229,3.189,9.104c0,3.138-0.472,5.606-1.409,7.405
		c-0.944,1.798-2.315,3.195-4.114,4.19s-3.764,1.492-5.887,1.492c-3.413,0-6.175-1.094-8.279-3.285
		C599.715,277.97,598.662,274.816,598.662,270.699z M602.91,270.699c0,3.122,0.683,5.463,2.041,7.013
		c1.365,1.556,3.08,2.331,5.147,2.331c2.047,0,3.756-0.781,5.121-2.341c1.358-1.563,2.041-3.941,2.041-7.141
		c0-3.017-0.683-5.3-2.054-6.856c-1.371-1.55-3.074-2.328-5.108-2.328c-2.067,0-3.782,0.771-5.147,2.318
		C603.593,265.242,602.91,267.577,602.91,270.699z"/>
	<path fill="#319BC6" d="M627.345,282.891v-21.169h-3.654v-3.215h3.654v-2.596c0-1.64,0.141-2.854,0.434-3.651
		c0.396-1.068,1.097-1.939,2.099-2.605c1.008-0.667,2.411-0.998,4.216-0.998c1.161,0,2.449,0.137,3.858,0.411l-0.618,3.606
		c-0.861-0.152-1.671-0.229-2.437-0.229c-1.257,0-2.144,0.269-2.666,0.804c-0.517,0.536-0.778,1.537-0.778,3.008v2.251h4.752v3.215
		h-4.752v21.169H627.345z"/>
	<path fill="#319BC6" d="M677.03,271.088l4.459,1.126c-0.938,3.661-2.615,6.448-5.046,8.368c-2.423,1.923-5.389,2.883-8.897,2.883
		c-3.622,0-6.575-0.74-8.846-2.217c-2.277-1.477-4.006-3.616-5.192-6.416c-1.187-2.804-1.779-5.811-1.779-9.025
		c0-3.505,0.67-6.563,2.009-9.172c1.34-2.611,3.247-4.592,5.715-5.947c2.475-1.355,5.198-2.031,8.164-2.031
		c3.368,0,6.2,0.857,8.496,2.57c2.296,1.716,3.896,4.126,4.803,7.232l-4.389,1.033c-0.777-2.446-1.913-4.231-3.399-5.348
		s-3.349-1.678-5.6-1.678c-2.59,0-4.752,0.619-6.486,1.859c-1.742,1.24-2.96,2.905-3.661,4.994c-0.708,2.089-1.06,4.244-1.06,6.464
		c0,2.864,0.415,5.361,1.251,7.498c0.835,2.133,2.13,3.731,3.891,4.786c1.76,1.056,3.667,1.585,5.721,1.585
		c2.494,0,4.605-0.721,6.334-2.158C675.251,276.057,676.418,273.923,677.03,271.088z"/>
	<path fill="#319BC6" d="M702.358,279.884c-1.531,1.301-3.004,2.219-4.42,2.755s-2.935,0.804-4.561,0.804
		c-2.679,0-4.732-0.653-6.174-1.965c-1.441-1.308-2.156-2.981-2.156-5.016c0-1.193,0.268-2.284,0.811-3.272
		c0.548-0.988,1.256-1.779,2.137-2.376c0.88-0.596,1.875-1.049,2.972-1.355c0.816-0.214,2.041-0.421,3.674-0.618
		c3.342-0.398,5.798-0.874,7.373-1.426c0.013-0.564,0.025-0.925,0.025-1.078c0-1.684-0.396-2.87-1.173-3.559
		c-1.06-0.935-2.628-1.4-4.708-1.4c-1.945,0-3.38,0.338-4.305,1.021s-1.613,1.888-2.054,3.616l-4.044-0.552
		c0.37-1.729,0.976-3.125,1.817-4.19c0.843-1.062,2.054-1.881,3.648-2.455s3.438-0.861,5.536-0.861c2.08,0,3.77,0.246,5.071,0.733
		c1.301,0.491,2.258,1.106,2.87,1.85s1.039,1.681,1.288,2.813c0.134,0.704,0.204,1.974,0.204,3.811v5.511
		c0,3.843,0.09,6.272,0.268,7.29c0.173,1.021,0.523,1.997,1.04,2.928h-4.312C702.754,282.033,702.479,281.031,702.358,279.884z
		 M702.014,270.651c-1.499,0.612-3.75,1.135-6.748,1.563c-1.703,0.245-2.902,0.52-3.61,0.826c-0.701,0.309-1.243,0.756-1.626,1.342
		c-0.383,0.591-0.574,1.244-0.574,1.965c0,1.104,0.415,2.021,1.25,2.756c0.836,0.733,2.054,1.103,3.661,1.103
		c1.595,0,3.011-0.351,4.248-1.046c1.244-0.695,2.149-1.648,2.736-2.857c0.44-0.935,0.663-2.312,0.663-4.133V270.651z"/>
	<path fill="#319BC6" d="M721.62,279.194l0.6,3.651c-1.167,0.243-2.207,0.367-3.125,0.367c-1.499,0-2.666-0.239-3.489-0.711
		c-0.829-0.476-1.409-1.101-1.747-1.872c-0.338-0.775-0.504-2.401-0.504-4.88v-14.028h-3.03v-3.215h3.03v-6.04l4.107-2.481v8.521
		h4.158v3.215h-4.158v14.258c0,1.177,0.076,1.937,0.223,2.274c0.141,0.335,0.383,0.605,0.708,0.804
		c0.332,0.197,0.804,0.296,1.416,0.296C720.269,279.354,720.867,279.3,721.62,279.194z"/>
	<path fill="#319BC6" d="M725.664,282.891v-33.661h4.133v12.077c1.927-2.235,4.363-3.352,7.303-3.352
		c1.806,0,3.375,0.354,4.708,1.068c1.326,0.711,2.283,1.696,2.857,2.95c0.573,1.253,0.86,3.077,0.86,5.463v15.454h-4.133v-15.454
		c0-2.066-0.446-3.568-1.346-4.51c-0.893-0.943-2.162-1.412-3.802-1.412c-1.225,0-2.372,0.315-3.45,0.953
		c-1.084,0.635-1.85,1.496-2.309,2.583c-0.46,1.085-0.689,2.587-0.689,4.5v13.34H725.664z"/>
	<path fill="#319BC6" d="M768.506,275.039l4.273,0.526c-0.676,2.497-1.92,4.433-3.744,5.811c-1.817,1.378-4.146,2.066-6.978,2.066
		c-3.565,0-6.397-1.101-8.482-3.294c-2.093-2.197-3.139-5.278-3.139-9.242c0-4.102,1.06-7.287,3.17-9.555
		c2.111-2.265,4.854-3.396,8.222-3.396c3.26,0,5.926,1.11,7.992,3.329c2.066,2.22,3.1,5.342,3.1,9.367
		c0,0.245-0.013,0.612-0.025,1.104H754.71c0.153,2.679,0.912,4.729,2.271,6.154c1.365,1.423,3.062,2.134,5.097,2.134
		c1.518,0,2.813-0.398,3.884-1.192C767.033,278.056,767.881,276.783,768.506,275.039z M754.939,268.354h13.618
		c-0.186-2.05-0.708-3.587-1.563-4.614c-1.32-1.592-3.022-2.389-5.121-2.389c-1.9,0-3.495,0.638-4.79,1.907
		C755.795,264.528,755.074,266.23,754.939,268.354z"/>
	<path fill="#319BC6" d="M786.996,279.194l0.594,3.651c-1.161,0.243-2.201,0.367-3.119,0.367c-1.505,0-2.666-0.239-3.495-0.711
		c-0.823-0.476-1.403-1.101-1.741-1.872c-0.338-0.775-0.504-2.401-0.504-4.88v-14.028h-3.036v-3.215h3.036v-6.04l4.107-2.481v8.521
		h4.158v3.215h-4.158v14.258c0,1.177,0.07,1.937,0.217,2.274c0.146,0.335,0.383,0.605,0.715,0.804
		c0.325,0.197,0.797,0.296,1.409,0.296C785.638,279.354,786.244,279.3,786.996,279.194z"/>
	<path fill="#319BC6" d="M807.726,275.039l4.273,0.526c-0.677,2.497-1.92,4.433-3.744,5.811c-1.817,1.378-4.146,2.066-6.978,2.066
		c-3.565,0-6.397-1.101-8.483-3.294c-2.092-2.197-3.138-5.278-3.138-9.242c0-4.102,1.059-7.287,3.17-9.555
		c2.111-2.265,4.854-3.396,8.222-3.396c3.259,0,5.925,1.11,7.991,3.329c2.066,2.22,3.1,5.342,3.1,9.367
		c0,0.245-0.013,0.612-0.025,1.104H793.93c0.153,2.679,0.912,4.729,2.271,6.154c1.365,1.423,3.062,2.134,5.096,2.134
		c1.519,0,2.813-0.398,3.885-1.192C806.252,278.056,807.101,276.783,807.726,275.039z M794.159,268.354h13.617
		c-0.185-2.05-0.708-3.587-1.563-4.614c-1.32-1.592-3.023-2.389-5.122-2.389c-1.9,0-3.495,0.638-4.79,1.907
		C795.014,264.528,794.293,266.23,794.159,268.354z"/>
	<path fill="#319BC6" d="M817.14,282.891v-24.384h3.719v3.696c0.95-1.731,1.824-2.87,2.628-3.422
		c0.803-0.552,1.689-0.826,2.653-0.826c1.396,0,2.813,0.443,4.247,1.33l-1.422,3.836c-1.008-0.596-2.021-0.896-3.029-0.896
		c-0.906,0-1.716,0.274-2.437,0.816s-1.231,1.295-1.537,2.261c-0.46,1.471-0.689,3.077-0.689,4.822v12.766H817.14z"/>
	<path fill="#319BC6" d="M831.197,275.613l4.082-0.645c0.229,1.64,0.874,2.893,1.92,3.767c1.046,0.87,2.513,1.308,4.395,1.308
		c1.9,0,3.31-0.386,4.229-1.158c0.918-0.771,1.378-1.681,1.378-2.723c0-0.932-0.408-1.665-1.219-2.204
		c-0.567-0.366-1.977-0.832-4.222-1.4c-3.036-0.765-5.135-1.429-6.309-1.986c-1.167-0.559-2.054-1.33-2.659-2.318
		c-0.606-0.988-0.906-2.079-0.906-3.272c0-1.087,0.249-2.092,0.746-3.02c0.498-0.925,1.174-1.693,2.028-2.306
		c0.645-0.476,1.519-0.877,2.628-1.206c1.11-0.331,2.303-0.494,3.572-0.494c1.913,0,3.597,0.274,5.038,0.826
		c1.448,0.552,2.52,1.298,3.209,2.238c0.688,0.941,1.16,2.201,1.422,3.776l-4.044,0.552c-0.185-1.253-0.714-2.235-1.595-2.938
		c-0.88-0.704-2.123-1.059-3.73-1.059c-1.901,0-3.253,0.315-4.063,0.944c-0.81,0.625-1.218,1.361-1.218,2.203
		c0,0.536,0.166,1.018,0.504,1.445c0.338,0.446,0.867,0.813,1.588,1.103c0.408,0.153,1.627,0.504,3.648,1.056
		c2.921,0.781,4.962,1.42,6.116,1.917c1.161,0.497,2.066,1.222,2.724,2.172c0.657,0.947,0.988,2.127,0.988,3.536
		c0,1.378-0.401,2.673-1.205,3.892c-0.804,1.218-1.965,2.158-3.482,2.825c-1.512,0.663-3.228,0.998-5.141,0.998
		c-3.17,0-5.581-0.66-7.246-1.974C832.715,280.151,831.656,278.199,831.197,275.613z"/>
</g>
<g>
	<g>
		<polygon fill="#4277B0" points="230.188,61.294 211.457,104.736 249.01,104.736 230.28,61.294 		"/>
		<path fill="#4277B0" d="M376.809,140.651c-9.883-11.697-18.312-22.872-25.29-33.523l-3.763-5.788v24.521
			c0,9.063,0.367,16.656,1.104,22.779c0.684,5.712,1.895,11.593,3.594,17.62h48.797
			C394.182,160.092,386.046,151.574,376.809,140.651z"/>
		<path fill="#4277B0" d="M324.795,148.821c0.734-6.123,1.104-13.776,1.104-22.961V75.767l0.726,0.331l-71.466-59.553l-7.839,4.356
			L232.516,0L164.59,78.375l-33.962-17.419L80.99,92.308l-5.227-12.191L0,155.879v10.381h76.732l30.59-21.055l24.629,21.055h25.971
			c3.49-3.716,6.89-8.27,10.184-13.765c3.674-6.123,8.266-15.001,13.777-26.635l49.23-105.067h0.068L280.41,125.86
			c5.695,12.064,10.348,21.156,13.961,27.279c3.202,5.428,6.354,9.762,9.462,13.12h12.129h5.321
			C322.926,160.344,324.111,154.53,324.795,148.821z"/>
		<path fill="#4277B0" d="M261.504,134.222l-4.701-11.116h-53.243l-0.686,2.114c-3.674,8.512-6.491,16.866-8.45,25.075
			c-1.725,7.221-2.356,12.54-1.899,15.965h76.968c0.389-2.864,0.008-6.866-1.239-12.153
			C266.814,148.012,264.564,141.385,261.504,134.222z"/>
		<g>
			<path fill="#FFFFFF" d="M325.898,125.86c0,9.185-0.37,16.838-1.104,22.961c-0.684,5.709-1.869,11.522-3.511,17.438h31.17
				c-1.7-6.027-2.91-11.908-3.594-17.62c-0.737-6.123-1.104-13.716-1.104-22.779V101.34l3.763,5.788
				c6.978,10.651,15.406,21.826,25.29,33.523c9.237,10.923,17.373,19.44,24.442,25.608h25.969
				c-9.781-10.792-17.58-19.725-23.349-26.757c-5.999-7.318-11.481-14.618-16.437-21.908l-10.38-15.614
				c-5.319-3.329-6.707-4.063-14.628-9.127c-2.099,1.161-14.695-5.062-14.664-7.125l-21.139-9.631l-0.726-0.331V125.86z"/>
		</g>
	</g>
	<g>
		<g>
			<path fill="#319BC6" d="M412.364,139.503c-5.999-7.318-11.481-14.618-16.44-21.908l-12.2-18.43
				c2.478-1.247,2.491-1.799,4.718-3.244c11.021-7.469,16.532-17.329,16.532-29.575c0-13.655-4.959-24.186-14.88-31.594
				c-9.918-7.408-24.062-11.114-42.431-11.114h-10.84h-15.979c1.896,6.55,3.216,12.891,3.95,19.014
				c0.734,6.123,1.104,13.684,1.104,22.687v10.429l21.858,9.956V37.507c9.733,0.431,17.636,3.001,23.695,7.715
				c6.493,5.144,9.736,11.907,9.736,20.298c0,9.185-3.428,16.593-10.285,22.225c-5.941,4.963-8.477,5.109-8.477,5.109
				c7.922,5.064,9.309,5.798,14.628,9.127l10.38,15.614c4.956,7.29,10.438,14.59,16.437,21.908
				c5.769,7.032,13.568,15.965,23.349,26.757h8.49C425.929,155.468,418.13,146.535,412.364,139.503z"/>
		</g>
	</g>
</g>
</svg>
