<?xml version="1.0" encoding="utf-8"?>
<!-- Generator: Adobe Illustrator 15.1.0, SVG Export Plug-In . SVG Version: 6.00 Build 0)  -->
<!DOCTYPE svg PUBLIC "-//W3C//DTD SVG 1.1//EN" "http://www.w3.org/Graphics/SVG/1.1/DTD/svg11.dtd">
<svg version="1.1" id="Layer_1" xmlns="http://www.w3.org/2000/svg" xmlns:xlink="http://www.w3.org/1999/xlink" x="0px" y="0px"
	 width="542.91px" height="212.6px" viewBox="0 0 542.91 212.6" enable-background="new 0 0 542.91 212.6" xml:space="preserve">
<g>
	<g>
		<path fill="#2D649E" d="M179.557,181.164h-0.027c-19.724-0.185-36.082-10.851-44.077-17.188c-2.704-2.396-3.089-6.464-0.984-9.169
			c1.277-1.6,3.127-2.497,5.097-2.497c1.563,0,3.068,0.573,4.238,1.612c3.994,3.219,18.656,14.018,35.304,14.018l0.417-0.002
			c8.955,0,17.523-2.542,23.538-6.973c5.584-4.01,8.643-9.219,8.643-14.69c0-5.392-2.487-9.497-8.067-13.313
			c-5.65-3.72-14.135-6.701-25.179-8.835l-0.581-0.048c-12.177-2.247-21.385-5.557-28.147-10.121
			c-8.43-5.489-13.093-13.464-13.093-22.421c0-9.198,4.678-17.665,13.172-23.839c7.905-5.753,18.353-8.921,29.419-8.921
			c15.987,0,28.136,7.95,37.006,13.754c3.046,2.131,3.81,6.021,1.849,9.101c-1.08,1.803-3.162,2.964-5.394,2.964
			c-1.323,0-2.592-0.399-3.672-1.155c-8.27-5.41-17.727-11.599-29.791-11.599c-8.173,0-16.096,2.31-21.736,6.336
			c-5.007,3.72-7.79,8.475-7.79,13.355c0.134,4.653,2.302,8.121,7.25,11.514c4.986,3.423,12.795,6.174,23.208,8.177l0.583,0.046
			c13.044,2.425,22.946,6.002,30.276,10.939c8.958,5.844,13.911,14.397,13.911,24.062c0,9.582-5.162,18.811-14.16,25.316
			C202.247,177.765,191.158,181.164,179.557,181.164z"/>
	</g>
	<g>
		<path fill="#2D649E" d="M299.71,181.002c-34.51,0-62.585-27.268-62.585-60.783c0-33.707,28.07-61.27,62.57-61.44
			c13.977,0,27.766,4.698,38.844,13.231c1.648,1.345,2.614,3.261,2.717,5.309c0.09,1.731-0.482,3.391-1.571,4.601
			c-1.255,1.72-3.255,2.736-5.406,2.739c-1.556,0-3.069-0.53-4.271-1.489c-8.824-6.861-19.313-10.502-30.297-10.502
			c-26.853,0-48.702,21.333-48.702,47.554c0,25.86,21.846,46.897,48.702,46.897c11.319,0,21.94-3.711,29.906-10.451l0.266-0.197
			c1.254-0.839,2.694-1.282,4.162-1.282c2.254,0,4.275,1.056,5.487,2.847c1.175,1.233,1.787,2.94,1.69,4.759
			c-0.105,2.08-1.137,4.021-2.75,5.198C327.605,176.36,313.816,181.002,299.71,181.002z"/>
	</g>
	<g>
		<path fill="#2D649E" d="M441.55,181.002c-2.768,0-5.434-1.835-6.486-4.459l-9.471-25.209h-48.23l-9.447,25.148
			c-1.105,2.768-3.65,4.52-6.511,4.52c-0.259,0-0.635-0.04-1.044-0.106c-0.146-0.021-0.305-0.053-0.447-0.06l-0.521-0.021
			l-0.591-0.202c-1.702-0.709-3.094-2.131-3.825-3.899c-0.705-1.715-0.722-3.551-0.044-5.171l39.855-106.435
			c1.112-2.51,3.771-4.199,6.606-4.199c3.127,0,5.821,1.794,6.711,4.467l39.788,106.267c0.648,1.544,0.645,3.467-0.045,5.175
			c-0.697,1.726-2.045,3.108-3.697,3.796l-0.541,0.225h-0.586c-0.133,0-0.23,0.027-0.318,0.043
			C442.328,180.949,441.97,181.002,441.55,181.002z M382.52,137.453h37.929L401.55,87.059L382.52,137.453z"/>
	</g>
	<g>
		<path fill="#2D649E" d="M468.593,181.002c-3.717,0-6.857-3.143-6.857-6.858V67.278c0-3.489,2.818-6.564,6.289-6.854l1.063-0.01
			h31.959c19.6,0,35.541,16.018,35.541,35.708c0,11.979-6.105,23.141-15.912,29.702c5.754,4.015,14.109,12.261,14.109,26.354
			c0,6.917,0.721,10.533,1.322,12.349c0.09,0.258,0.203,0.563,0.344,0.843c2.605,0.378,4.822,2.088,5.697,4.491l0.102,0.344
			c0.85,3.689-1.012,7.317-4.426,8.633l-0.508,0.192h-0.391c-0.541,0.073-1.268,0.164-2.119,0.164h-0.326
			c-3.156,0-7.633-2.146-9.992-6.856c-2.359-4.528-3.424-10.759-3.424-20.16c0-6.121-2.592-10.895-8.16-15.023
			c-4.504-3.195-10.115-4.906-11.977-5.191l-0.484-0.118c-0.18-0.06-0.334-0.117-0.471-0.176h-24.355v42.474
			C475.617,177.923,472.466,181.002,468.593,181.002z M475.617,117.947h26.086c11.637-0.289,21.168-10.078,21.168-21.821
			c0-12.032-9.789-21.822-21.82-21.822h-25.432v43.644H475.617z"/>
	</g>
	<g>
		<g>
			<path fill="#2D649E" d="M60.671,182.391c-33.837,0-60.487-27.268-60.671-62.081c0.064-12.086,3.422-23.759,9.712-33.767
				c1.242-1.974,3.377-3.153,5.712-3.153c1.266,0,2.502,0.358,3.577,1.03c1.523,0.958,2.584,2.451,2.984,4.207
				c0.4,1.755,0.095,3.561-0.863,5.083c-4.954,7.88-7.596,17.078-7.648,26.599c0.145,27.253,20.876,48.605,47.197,48.605
				c26.593,0,47.537-21.383,47.679-48.678c-0.143-27.253-21.084-48.605-47.679-48.605c-7.631,0-14.877,1.781-21.541,5.294
				c-0.964,0.51-2.05,0.779-3.134,0.779c-2.509,0-4.796-1.378-5.967-3.598c-0.84-1.594-1.008-3.418-0.476-5.136
				c0.533-1.718,1.704-3.127,3.295-3.965c8.623-4.545,17.983-6.851,27.822-6.851c34.109,0,60.971,27.271,61.154,62.083
				C121.641,155.095,94.781,182.391,60.671,182.391z"/>
		</g>
	</g>
	<g>
		<path fill="#9C2F33" d="M36.344,133.353c-1.941,0-3.638-1.341-4.19-3.208c-0.437-1.185-3.728-5.575-9.003-9.032
			c-0.881-0.575-1.828-1.146-2.801-1.73c-6.11-3.683-14.477-8.728-14.4-19.722c0.094-13.425,8.812-20.446,17.376-20.446
			c5.012,0,9.584,2.217,13.049,6.152c3.463-3.774,8.063-5.947,13.005-5.947c8.551,0,17.252,6.914,17.342,20.131
			c0.078,10.616-7.889,15.571-13.705,19.187c-1.219,0.759-2.369,1.473-3.369,2.184c-4.891,3.466-8.559,7.892-9.073,9.196
			c-0.49,1.917-2.184,3.203-4.162,3.234C36.39,133.351,36.368,133.353,36.344,133.353z"/>
	</g>
	<g>
		<path fill="#2D649E" d="M105.804,195.79c1.331,1.416,2.169,3.307,2.169,5.43c0,2.127-0.838,4.036-2.169,5.433
			c-1.268,1.396-3.155,2.298-5.129,2.298c-2.061,0-3.95-0.9-5.26-2.298c-1.332-1.396-2.125-3.306-2.125-5.433
			c0-2.123,0.795-4.014,2.125-5.43c1.31-1.415,3.199-2.297,5.26-2.297C102.649,193.493,104.537,194.375,105.804,195.79z
			 M105.526,201.219c0-1.46-0.58-2.809-1.46-3.755c-0.9-0.968-2.104-1.522-3.392-1.522c-1.375,0-2.578,0.556-3.478,1.522
			c-0.901,0.946-1.46,2.295-1.46,3.755c0,1.458,0.559,2.813,1.46,3.736c0.902,0.964,2.104,1.544,3.478,1.544
			c1.287,0,2.489-0.58,3.392-1.544C104.946,204.032,105.526,202.677,105.526,201.219z"/>
		<path fill="#2D649E" d="M115.678,208.947c-2.449,0-4.466-2.017-4.466-4.464v-5.133c0-0.599,0.516-1.135,1.136-1.135
			c0.644,0,1.138,0.536,1.138,1.135v5.133c0,1.226,0.965,2.188,2.19,2.188c1.244,0,2.231-0.963,2.252-2.188v-5.133
			c0-0.599,0.472-1.135,1.117-1.135c0.601,0,1.161,0.536,1.161,1.135v5.133C120.207,206.93,118.145,208.947,115.678,208.947z"/>
		<path fill="#2D649E" d="M128.876,199.396c0,0.645-0.558,1.175-1.201,1.175h-0.536v5.992c0.666,0,1.181,0.536,1.181,1.201
			c0,0.667-0.515,1.181-1.181,1.181c-1.31,0-2.382-1.07-2.382-2.382v-5.992h-0.622c-0.667,0-1.182-0.53-1.182-1.175
			c0-0.669,0.516-1.181,1.182-1.181h0.622v-3.113c0-0.668,0.537-1.182,1.201-1.182c0.665,0,1.181,0.515,1.181,1.182v3.113h0.536
			C128.318,198.216,128.876,198.729,128.876,199.396z"/>
		<path fill="#2D649E" d="M131.021,203.603c0-2.982,2.489-5.37,5.451-5.388c1.288,0,2.489,0.472,3.412,1.181
			c0.494,0.385,0.581,1.117,0.236,1.586c-0.429,0.52-1.117,0.603-1.61,0.218c-0.558-0.405-1.246-0.685-2.04-0.685
			c-1.739,0-3.178,1.438-3.178,3.088c0,1.652,1.439,3.069,3.178,3.069c0.774,0,1.481-0.277,2.04-0.688
			c0.472-0.363,1.181-0.275,1.61,0.237c0.345,0.472,0.258,1.159-0.236,1.591c-0.923,0.662-2.124,1.137-3.412,1.137
			C133.51,208.947,131.021,206.541,131.021,203.603z"/>
		<path fill="#2D649E" d="M144.156,207.382c-0.923-0.946-1.483-2.275-1.483-3.778c0-1.458,0.559-2.727,1.483-3.758
			c0.966-1.009,2.211-1.63,3.692-1.63c1.417,0,2.704,0.621,3.585,1.63c0.965,1.029,1.503,2.298,1.503,3.758
			c0,1.503-0.536,2.832-1.503,3.778c-0.881,1.011-2.168,1.632-3.585,1.632C146.368,209.011,145.123,208.39,144.156,207.382z
			 M145.016,203.603c0,0.923,0.279,1.674,0.771,2.275c0.539,0.517,1.246,0.794,2.062,0.794c0.751,0,1.438-0.277,1.975-0.794
			c0.536-0.601,0.838-1.354,0.838-2.275c0-0.88-0.302-1.652-0.838-2.23c-0.537-0.474-1.224-0.815-1.975-0.815
			c-0.816,0-1.523,0.343-2.062,0.815C145.293,201.95,145.016,202.723,145.016,203.603z"/>
		<path fill="#2D649E" d="M165.019,202.659c0,0.019,0,0.042,0,0.063v5.087c0,0.621-0.514,1.137-1.137,1.137
			c-0.601,0-1.158-0.516-1.158-1.137v-5.087c0-0.021,0-0.046,0-0.063c-0.022-1.183-1.01-2.146-2.211-2.146
			c-1.181,0-2.168,0.985-2.168,2.21v5.087c0,0.04-0.021,0.106-0.021,0.149c0,0.022,0,0.063,0,0.063
			c-0.022,0.04-0.022,0.088-0.064,0.129c0,0.021,0,0.065,0,0.106c-0.193,0.386-0.622,0.686-1.072,0.686
			c-0.087,0-0.15-0.02-0.215-0.02c-0.516-0.129-0.923-0.561-0.923-1.117v-5.086c0-0.025,0-0.025,0-0.025v-3.326
			c0-0.668,0.516-1.158,1.138-1.158c0.452,0,0.858,0.234,1.03,0.644c0.687-0.408,1.481-0.644,2.297-0.644
			c1.351,0,2.554,0.557,3.37,1.48c0.794-0.925,2.017-1.48,3.372-1.48c2.469,0,4.464,2.017,4.464,4.509v5.087
			c0,0.621-0.516,1.137-1.137,1.137s-1.161-0.516-1.161-1.137v-5.087c0-1.227-0.987-2.21-2.167-2.21
			C166.027,200.515,165.064,201.477,165.019,202.659z"/>
		<path fill="#2D649E" d="M175.171,203.58c0.02-2.919,2.297-5.364,5.236-5.364c2.792,0,5.001,2.082,5.173,4.981
			c0,0.019,0,0.063,0,0.105s0,0.149-0.021,0.195c-0.065,0.514-0.516,0.856-1.117,0.856h-6.826c0.107,0.491,0.345,1.053,0.729,1.418
			c0.451,0.515,1.311,0.898,2.06,0.964c0.774,0.065,1.697-0.131,2.233-0.537c0.452-0.474,1.331-0.407,1.61-0.064
			c0.278,0.302,0.494,0.946,0,1.395c-1.052,0.969-2.319,1.42-3.843,1.42C177.468,208.928,175.191,206.5,175.171,203.58z
			 M177.51,202.528h6.074c-0.214-0.855-1.308-2.126-3.178-2.273C178.583,200.338,177.682,201.65,177.51,202.528z"/>
		<path fill="#2D649E" d="M203.437,203.603v4.207c0,0.621-0.515,1.137-1.137,1.137c-0.558,0-0.987-0.408-1.116-0.923
			c-0.814,0.58-1.782,0.923-2.854,0.923c-1.459,0-2.727-0.602-3.649-1.566c-0.921-0.986-1.46-2.316-1.46-3.777
			c0-1.482,0.539-2.811,1.46-3.781c0.923-0.985,2.19-1.606,3.649-1.606c1.072,0,2.04,0.366,2.854,0.944
			c0.128-0.535,0.558-0.944,1.116-0.944c0.623,0,1.137,0.514,1.137,1.158V203.603z M201.162,203.603c0-0.9-0.322-1.675-0.838-2.21
			c-0.516-0.583-1.245-0.88-1.995-0.88c-0.774,0-1.503,0.297-1.998,0.88c-0.513,0.533-0.814,1.31-0.814,2.21
			c0,0.882,0.301,1.652,0.814,2.212c0.494,0.535,1.226,0.837,1.998,0.837c0.75,0,1.481-0.302,1.995-0.837
			C200.84,205.256,201.162,204.485,201.162,203.603z"/>
		<path fill="#2D649E" d="M210.628,197.506v0.302h0.643c0.645,0,1.181,0.517,1.181,1.183c0,0.643-0.536,1.177-1.181,1.177h-0.643
			v7.58c0,0.645-0.516,1.182-1.181,1.182s-1.181-0.537-1.181-1.182v-7.58h-0.559c-0.665,0-1.201-0.534-1.201-1.177
			c0-0.669,0.536-1.183,1.201-1.183h0.559v-0.302c0-0.792,0.086-1.482,0.407-2.104c0.302-0.644,0.901-1.139,1.546-1.326
			c0.429-0.132,0.837-0.176,1.288-0.176c0.645,0,1.181,0.534,1.181,1.18c0,0.666-0.536,1.204-1.181,1.204
			c-0.28,0-0.472,0.021-0.558,0.063c-0.085,0.02-0.107,0.04-0.129,0.065C210.799,196.414,210.628,196.714,210.628,197.506z"/>
		<path fill="#2D649E" d="M219.169,199.396c0,0.645-0.557,1.175-1.201,1.175h-0.536v5.992c0.665,0,1.181,0.536,1.181,1.201
			c0,0.667-0.516,1.181-1.181,1.181c-1.309,0-2.382-1.07-2.382-2.382v-5.992h-0.623c-0.667,0-1.181-0.53-1.181-1.175
			c0-0.669,0.515-1.181,1.181-1.181h0.623v-3.113c0-0.668,0.536-1.182,1.201-1.182s1.181,0.515,1.181,1.182v3.113h0.536
			C218.611,198.216,219.169,198.729,219.169,199.396z"/>
		<path fill="#2D649E" d="M220.779,203.58c0.02-2.919,2.297-5.364,5.237-5.364c2.791,0,5.002,2.082,5.173,4.981
			c0,0.019,0,0.063,0,0.105s0,0.149-0.02,0.195c-0.065,0.514-0.516,0.856-1.117,0.856h-6.826c0.106,0.491,0.344,1.053,0.729,1.418
			c0.452,0.515,1.31,0.898,2.062,0.964c0.773,0.065,1.697-0.131,2.232-0.537c0.452-0.474,1.333-0.407,1.611-0.064
			c0.278,0.302,0.494,0.946,0,1.395c-1.054,0.969-2.32,1.42-3.843,1.42C223.077,208.928,220.8,206.5,220.779,203.58z
			 M223.119,202.528h6.074c-0.213-0.855-1.308-2.126-3.178-2.273C224.191,200.338,223.29,201.65,223.119,202.528z"/>
		<path fill="#2D649E" d="M240.225,199.35c0,0.604-0.494,1.141-1.137,1.141c-0.494,0-0.923,0.13-1.288,0.407
			c-0.408,0.259-0.73,0.621-0.987,1.028c-0.516,0.688-0.774,1.505-0.881,1.803v4.081c0,0.621-0.536,1.137-1.181,1.137
			c-0.623,0-1.139-0.516-1.139-1.137v-8.46c0-0.621,0.516-1.117,1.139-1.117c0.643,0,1.181,0.496,1.181,1.117v0.152
			c0.128-0.152,0.3-0.321,0.451-0.432c0.708-0.471,1.631-0.855,2.705-0.839C239.731,198.233,240.225,198.729,240.225,199.35z"/>
		<path fill="#2D649E" d="M247.886,205.879c0.387-0.515,1.137-0.58,1.61-0.171c0.558,0.473,1.523,0.963,2.362,0.943
			c0.579,0,1.117-0.191,1.459-0.405c0.301-0.261,0.387-0.473,0.387-0.646c0-0.109-0.021-0.153-0.064-0.219
			c-0.022-0.063-0.106-0.148-0.28-0.253c-0.301-0.217-0.945-0.456-1.717-0.603h-0.022c-0.665-0.129-1.307-0.302-1.867-0.562
			c-0.579-0.275-1.095-0.663-1.481-1.239c-0.236-0.39-0.365-0.862-0.365-1.354c0-0.987,0.558-1.825,1.268-2.364
			c0.75-0.514,1.652-0.792,2.64-0.792c1.483,0,2.533,0.709,3.22,1.182c0.515,0.344,0.665,1.053,0.343,1.586
			c-0.343,0.52-1.052,0.668-1.588,0.303c-0.688-0.451-1.289-0.794-1.975-0.794c-0.536,0-1.008,0.172-1.288,0.386
			c-0.28,0.191-0.345,0.388-0.345,0.495c0,0.085,0,0.105,0.044,0.173c0.022,0.041,0.086,0.129,0.236,0.212
			c0.28,0.195,0.837,0.39,1.567,0.516l0.022,0.024h0.02c0.709,0.13,1.374,0.321,1.997,0.622c0.58,0.256,1.158,0.666,1.523,1.269
			c0.258,0.426,0.407,0.922,0.407,1.417c0,1.051-0.579,1.93-1.351,2.488c-0.774,0.535-1.739,0.858-2.791,0.858
			c-1.674-0.021-2.963-0.794-3.821-1.479C247.564,207.08,247.499,206.35,247.886,205.879z"/>
		<path fill="#2D649E" d="M257.674,203.58c0.02-2.919,2.297-5.364,5.236-5.364c2.793,0,5.001,2.082,5.171,4.981
			c0,0.019,0,0.063,0,0.105s0,0.149-0.02,0.195c-0.064,0.514-0.516,0.856-1.117,0.856h-6.826c0.107,0.491,0.345,1.053,0.731,1.418
			c0.449,0.515,1.308,0.898,2.06,0.964c0.774,0.065,1.697-0.131,2.233-0.537c0.45-0.474,1.331-0.407,1.61-0.064
			c0.278,0.302,0.494,0.946,0,1.395c-1.052,0.969-2.319,1.42-3.845,1.42C259.971,208.928,257.694,206.5,257.674,203.58z
			 M260.014,202.528h6.076c-0.215-0.855-1.312-2.126-3.18-2.273C261.086,200.338,260.185,201.65,260.014,202.528z"/>
		<path fill="#2D649E" d="M272.287,193.921c0.67,0,1.204,0.537,1.204,1.182v12.663c0,0.645-0.534,1.182-1.204,1.182
			c-0.643,0-1.175-0.537-1.175-1.182v-12.663C271.112,194.458,271.645,193.921,272.287,193.921z"/>
		<path fill="#2D649E" d="M275.982,203.58c0.023-2.919,2.298-5.364,5.24-5.364c2.791,0,4.998,2.082,5.172,4.981
			c0,0.019,0,0.063,0,0.105s0,0.149-0.02,0.195c-0.065,0.514-0.517,0.856-1.117,0.856h-6.826c0.109,0.491,0.346,1.053,0.73,1.418
			c0.449,0.515,1.313,0.898,2.063,0.964c0.773,0.065,1.695-0.131,2.232-0.537c0.449-0.474,1.327-0.407,1.605-0.064
			c0.279,0.302,0.497,0.946,0,1.395c-1.051,0.969-2.316,1.42-3.84,1.42C278.279,208.928,276.003,206.5,275.982,203.58z
			 M278.321,202.528h6.079c-0.217-0.855-1.311-2.126-3.178-2.273C279.395,200.338,278.491,201.65,278.321,202.528z"/>
		<path fill="#2D649E" d="M288.515,203.603c0-2.982,2.492-5.37,5.451-5.388c1.289,0,2.492,0.472,3.418,1.181
			c0.49,0.385,0.58,1.117,0.236,1.586c-0.431,0.52-1.117,0.603-1.611,0.218c-0.558-0.405-1.243-0.685-2.039-0.685
			c-1.739,0-3.174,1.438-3.174,3.088c0,1.652,1.435,3.069,3.174,3.069c0.772,0,1.482-0.277,2.039-0.688
			c0.472-0.363,1.182-0.275,1.611,0.237c0.344,0.472,0.254,1.159-0.236,1.591c-0.926,0.662-2.129,1.137-3.418,1.137
			C291.007,208.947,288.515,206.541,288.515,203.603z"/>
		<path fill="#2D649E" d="M305.817,199.396c0,0.645-0.558,1.175-1.201,1.175h-0.534v5.992c0.668,0,1.18,0.536,1.18,1.201
			c0,0.667-0.514,1.181-1.18,1.181c-1.31,0-2.384-1.07-2.384-2.382v-5.992h-0.618c-0.671,0-1.183-0.53-1.183-1.175
			c0-0.669,0.517-1.181,1.183-1.181h0.618v-3.113c0-0.668,0.537-1.182,1.2-1.182c0.669,0,1.184,0.515,1.184,1.182v3.113h0.534
			C305.261,198.216,305.817,198.729,305.817,199.396z"/>
		<path fill="#2D649E" d="M311.378,195.533c0,0.643-0.494,1.181-1.162,1.181c-0.643,0-1.157-0.538-1.157-1.181v-0.454
			c0-0.646,0.516-1.16,1.157-1.16c0.668,0,1.162,0.516,1.162,1.16V195.533z M311.378,199.415v8.372c0,0.646-0.494,1.162-1.162,1.162
			c-0.643,0-1.157-0.517-1.157-1.162v-8.372c0-0.687,0.516-1.183,1.157-1.183C310.884,198.233,311.378,198.729,311.378,199.415z"/>
		<path fill="#2D649E" d="M323.009,199.93l-3.521,8.331c-0.022,0.064-0.065,0.129-0.088,0.147c0,0.023-0.021,0.023-0.021,0.023
			c-0.045,0.04-0.086,0.106-0.127,0.149c0,0.022-0.025,0.022-0.025,0.022c-0.039,0.064-0.083,0.086-0.129,0.129
			c0,0-0.02,0-0.02,0.023c-0.045,0.041-0.089,0.083-0.154,0.106c0,0,0,0-0.039,0c0,0,0,0,0,0.02c-0.063,0-0.129,0.021-0.172,0.046
			c-0.023,0-0.023,0-0.043,0c-0.086,0.021-0.152,0.021-0.215,0.021c-0.043,0-0.109,0-0.191-0.021c-0.024,0-0.024,0-0.045,0
			c-0.059-0.024-0.107-0.046-0.172-0.046c0-0.02,0-0.02,0-0.02c-0.041,0-0.041,0-0.041,0c-0.064-0.023-0.106-0.063-0.194-0.106
			c0-0.023-0.021-0.023-0.021-0.023c-0.043-0.043-0.088-0.063-0.129-0.129c-0.022,0-0.022,0-0.041-0.022
			c-0.025-0.043-0.064-0.107-0.107-0.149c-0.023,0-0.023,0-0.023-0.023c-0.039-0.02-0.064-0.083-0.09-0.147l-3.473-8.331
			c-0.26-0.58,0.021-1.201,0.619-1.458c0.515-0.256,1.181,0.043,1.441,0.624l2.467,5.838l2.49-5.838
			c0.237-0.581,0.883-0.881,1.438-0.624C322.99,198.729,323.269,199.35,323.009,199.93z"/>
		<path fill="#2D649E" d="M325.087,203.58c0.024-2.919,2.299-5.364,5.239-5.364c2.792,0,5,2.082,5.173,4.981
			c0,0.019,0,0.063,0,0.105s0,0.149-0.021,0.195c-0.063,0.514-0.515,0.856-1.116,0.856h-6.822c0.104,0.491,0.342,1.053,0.729,1.418
			c0.451,0.515,1.311,0.898,2.063,0.964c0.771,0.065,1.695-0.131,2.231-0.537c0.452-0.474,1.33-0.407,1.608-0.064
			c0.277,0.302,0.494,0.946,0,1.395c-1.053,0.969-2.318,1.42-3.844,1.42C327.388,208.928,325.112,206.5,325.087,203.58z
			 M327.427,202.528h6.08c-0.219-0.855-1.312-2.126-3.181-2.273C328.503,200.338,327.602,201.65,327.427,202.528z"/>
		<path fill="#2D649E" d="M343.525,203.58c0.023-2.919,2.298-5.364,5.24-5.364c2.791,0,4.998,2.082,5.174,4.981
			c0,0.019,0,0.063,0,0.105s0,0.149-0.021,0.195c-0.064,0.514-0.515,0.856-1.115,0.856h-6.824c0.107,0.491,0.343,1.053,0.729,1.418
			c0.449,0.515,1.313,0.898,2.063,0.964c0.772,0.065,1.692-0.131,2.231-0.537c0.448-0.474,1.328-0.407,1.604-0.064
			c0.278,0.302,0.497,0.946,0,1.395c-1.05,0.969-2.313,1.42-3.841,1.42C345.824,208.928,343.548,206.5,343.525,203.58z
			 M345.865,202.528h6.078c-0.218-0.855-1.311-2.126-3.18-2.273C346.94,200.338,346.039,201.65,345.865,202.528z"/>
		<path fill="#2D649E" d="M365.891,203.603v4.207c0,0.621-0.515,1.137-1.134,1.137c-0.561,0-0.986-0.408-1.116-0.923
			c-0.814,0.58-1.786,0.923-2.856,0.923c-1.458,0-2.729-0.602-3.648-1.566c-0.924-0.986-1.459-2.316-1.459-3.777
			c0-1.482,0.535-2.811,1.459-3.781c0.922-0.985,2.19-1.606,3.648-1.606c1.07,0,2.04,0.366,2.856,0.944
			c0.13-0.535,0.557-0.944,1.116-0.944c0.619,0,1.134,0.514,1.134,1.158V203.603z M363.618,203.603c0-0.9-0.319-1.675-0.836-2.21
			c-0.521-0.583-1.245-0.88-1.998-0.88c-0.771,0-1.504,0.297-1.995,0.88c-0.517,0.533-0.813,1.31-0.813,2.21
			c0,0.882,0.3,1.652,0.813,2.212c0.491,0.535,1.225,0.837,1.995,0.837c0.751,0,1.479-0.302,1.998-0.837
			C363.298,205.256,363.618,204.485,363.618,203.603z"/>
		<path fill="#2D649E" d="M376.171,199.35c0,0.604-0.494,1.141-1.138,1.141c-0.495,0-0.923,0.13-1.288,0.407
			c-0.408,0.259-0.732,0.621-0.986,1.028c-0.516,0.688-0.773,1.505-0.883,1.803v4.081c0,0.621-0.537,1.137-1.181,1.137
			c-0.621,0-1.137-0.516-1.137-1.137v-8.46c0-0.621,0.516-1.117,1.137-1.117c0.644,0,1.181,0.496,1.181,1.117v0.152
			c0.131-0.152,0.301-0.321,0.449-0.432c0.711-0.471,1.631-0.855,2.709-0.839C375.677,198.233,376.171,198.729,376.171,199.35z"/>
		<path fill="#2D649E" d="M379.777,193.921c0.665,0,1.202,0.537,1.202,1.182v12.663c0,0.645-0.537,1.182-1.202,1.182
			c-0.643,0-1.182-0.537-1.182-1.182v-12.663C378.597,194.458,379.136,193.921,379.777,193.921z"/>
		<path fill="#2D649E" d="M392.743,199.35v5.068v3.049c0,2.873-2.272,5.13-5.132,5.13c-0.771,0-1.568-0.216-2.212-0.537
			c-0.599-0.26-0.813-0.923-0.558-1.523c0.279-0.516,1.012-0.749,1.524-0.473c0.408,0.193,0.815,0.302,1.243,0.302
			c1.27-0.022,2.339-0.839,2.686-1.955c-0.602,0.349-1.334,0.521-2.043,0.521c-2.465,0-4.486-2.038-4.486-4.509v-5.068
			c0-0.645,0.539-1.135,1.117-1.135c0.668,0,1.14,0.49,1.14,1.135v5.068c0,1.241,1.008,2.188,2.229,2.188
			c1.225,0,2.215-0.945,2.215-2.188v-5.068c0-0.645,0.473-1.135,1.111-1.135C392.208,198.216,392.743,198.706,392.743,199.35z"/>
		<path fill="#2D649E" d="M401.882,203.603c0-2.982,2.492-5.37,5.455-5.388c1.287,0,2.492,0.472,3.414,1.181
			c0.492,0.385,0.58,1.117,0.238,1.586c-0.432,0.52-1.117,0.603-1.615,0.218c-0.555-0.405-1.24-0.685-2.035-0.685
			c-1.738,0-3.176,1.438-3.176,3.088c0,1.652,1.438,3.069,3.176,3.069c0.771,0,1.48-0.277,2.035-0.688
			c0.475-0.363,1.184-0.275,1.615,0.237c0.342,0.472,0.254,1.159-0.238,1.591c-0.922,0.662-2.127,1.137-3.414,1.137
			C404.375,208.947,401.882,206.541,401.882,203.603z"/>
		<path fill="#2D649E" d="M415.687,193.921c0.664,0,1.199,0.537,1.199,1.182v12.663c0,0.645-0.535,1.182-1.199,1.182
			c-0.645,0-1.182-0.537-1.182-1.182v-12.663C414.503,194.458,415.042,193.921,415.687,193.921z"/>
		<path fill="#2D649E" d="M420.152,207.382c-0.926-0.946-1.482-2.275-1.482-3.778c0-1.458,0.557-2.727,1.482-3.758
			c0.965-1.009,2.211-1.63,3.691-1.63c1.416,0,2.705,0.621,3.582,1.63c0.969,1.029,1.508,2.298,1.508,3.758
			c0,1.503-0.539,2.832-1.508,3.778c-0.881,1.011-2.166,1.632-3.582,1.632C422.363,209.011,421.117,208.39,420.152,207.382z
			 M421.011,203.603c0,0.923,0.275,1.674,0.771,2.275c0.537,0.517,1.246,0.794,2.061,0.794c0.752,0,1.439-0.277,1.977-0.794
			c0.535-0.601,0.834-1.354,0.834-2.275c0-0.88-0.299-1.652-0.834-2.23c-0.537-0.474-1.225-0.815-1.977-0.815
			c-0.813,0-1.521,0.343-2.061,0.815C421.287,201.95,421.011,202.723,421.011,203.603z"/>
		<path fill="#2D649E" d="M431.523,205.879c0.391-0.515,1.141-0.58,1.613-0.171c0.553,0.473,1.523,0.963,2.357,0.943
			c0.584,0,1.117-0.191,1.463-0.405c0.299-0.261,0.389-0.473,0.389-0.646c0-0.109-0.025-0.153-0.066-0.219
			c-0.023-0.063-0.105-0.148-0.277-0.253c-0.303-0.217-0.947-0.456-1.721-0.603h-0.02c-0.668-0.129-1.311-0.302-1.871-0.562
			c-0.58-0.275-1.094-0.663-1.48-1.239c-0.234-0.39-0.363-0.862-0.363-1.354c0-0.987,0.555-1.825,1.264-2.364
			c0.754-0.514,1.656-0.792,2.645-0.792c1.48,0,2.531,0.709,3.217,1.182c0.518,0.344,0.67,1.053,0.344,1.586
			c-0.344,0.52-1.051,0.668-1.59,0.303c-0.686-0.451-1.289-0.794-1.975-0.794c-0.535,0-1.012,0.172-1.285,0.386
			c-0.279,0.191-0.346,0.388-0.346,0.495c0,0.085,0,0.105,0.041,0.173c0.025,0.041,0.088,0.129,0.236,0.212
			c0.283,0.195,0.838,0.39,1.572,0.516l0.02,0.024h0.021c0.709,0.13,1.373,0.321,2,0.622c0.576,0.256,1.158,0.666,1.521,1.269
			c0.254,0.426,0.406,0.922,0.406,1.417c0,1.051-0.58,1.93-1.354,2.488c-0.775,0.535-1.74,0.858-2.793,0.858
			c-1.67-0.021-2.959-0.794-3.818-1.479C431.205,207.08,431.138,206.35,431.523,205.879z"/>
		<path fill="#2D649E" d="M446.314,208.947c-2.447,0-4.463-2.017-4.463-4.464v-5.133c0-0.599,0.516-1.135,1.137-1.135
			c0.645,0,1.139,0.536,1.139,1.135v5.133c0,1.226,0.965,2.188,2.188,2.188c1.246,0,2.234-0.963,2.258-2.188v-5.133
			c0-0.599,0.473-1.135,1.115-1.135c0.6,0,1.158,0.536,1.158,1.135v5.133C450.845,206.93,448.783,208.947,446.314,208.947z"/>
		<path fill="#2D649E" d="M461.298,199.35c0,0.604-0.496,1.141-1.141,1.141c-0.494,0-0.922,0.13-1.289,0.407
			c-0.406,0.259-0.73,0.621-0.984,1.028c-0.518,0.688-0.773,1.505-0.883,1.803v4.081c0,0.621-0.537,1.137-1.182,1.137
			c-0.619,0-1.135-0.516-1.135-1.137v-8.46c0-0.621,0.516-1.117,1.135-1.117c0.645,0,1.182,0.496,1.182,1.117v0.152
			c0.129-0.152,0.303-0.321,0.451-0.432c0.709-0.471,1.631-0.855,2.705-0.839C460.802,198.233,461.298,198.729,461.298,199.35z"/>
		<path fill="#2D649E" d="M461.744,203.58c0.023-2.919,2.299-5.364,5.24-5.364c2.791,0,5,2.082,5.172,4.981c0,0.019,0,0.063,0,0.105
			s0,0.149-0.02,0.195c-0.063,0.514-0.516,0.856-1.117,0.856h-6.822c0.105,0.491,0.342,1.053,0.729,1.418
			c0.449,0.515,1.309,0.898,2.061,0.964c0.771,0.065,1.697-0.131,2.232-0.537c0.449-0.474,1.33-0.407,1.607-0.064
			c0.277,0.302,0.496,0.946,0,1.395c-1.051,0.969-2.316,1.42-3.844,1.42C464.044,208.928,461.767,206.5,461.744,203.58z
			 M464.083,202.528h6.078c-0.215-0.855-1.311-2.126-3.18-2.273C465.16,200.338,464.255,201.65,464.083,202.528z"/>
		<path fill="#2D649E" d="M481.923,207.382c-0.926-0.946-1.48-2.275-1.48-3.778c0-1.458,0.557-2.727,1.48-3.758
			c0.963-1.009,2.211-1.63,3.693-1.63c1.414,0,2.705,0.621,3.582,1.63c0.969,1.029,1.506,2.298,1.506,3.758
			c0,1.503-0.537,2.832-1.506,3.778c-0.881,1.011-2.168,1.632-3.582,1.632C484.132,209.011,482.886,208.39,481.923,207.382z
			 M482.781,203.603c0,0.923,0.277,1.674,0.773,2.275c0.535,0.517,1.244,0.794,2.061,0.794c0.752,0,1.438-0.277,1.975-0.794
			c0.537-0.601,0.834-1.354,0.834-2.275c0-0.88-0.297-1.652-0.834-2.23c-0.537-0.474-1.223-0.815-1.975-0.815
			c-0.813,0-1.521,0.343-2.061,0.815C483.06,201.95,482.781,202.723,482.781,203.603z"/>
		<path fill="#2D649E" d="M496.583,197.506v0.302h0.645c0.645,0,1.182,0.517,1.182,1.183c0,0.643-0.537,1.177-1.182,1.177h-0.645
			v7.58c0,0.645-0.514,1.182-1.18,1.182c-0.668,0-1.184-0.537-1.184-1.182v-7.58h-0.557c-0.668,0-1.203-0.534-1.203-1.177
			c0-0.669,0.535-1.183,1.203-1.183h0.557v-0.302c0-0.792,0.088-1.482,0.406-2.104c0.303-0.644,0.904-1.139,1.547-1.326
			c0.432-0.132,0.84-0.176,1.289-0.176c0.645,0,1.184,0.534,1.184,1.18c0,0.666-0.539,1.204-1.184,1.204
			c-0.275,0-0.471,0.021-0.559,0.063c-0.084,0.02-0.107,0.04-0.125,0.065C496.755,196.414,496.583,196.714,496.583,197.506z"/>
		<path fill="#2D649E" d="M511.458,203.108h-2.645v4.657c0,0.645-0.533,1.182-1.203,1.182c-0.643,0-1.176-0.537-1.176-1.182v-12.663
			c0-0.668,0.533-1.182,1.176-1.182h0.023h3.824c2.553,0,4.613,2.063,4.613,4.616C516.074,201.047,514.011,203.108,511.458,203.108z
			 M508.816,200.727h2.645c1.24,0,2.209-0.985,2.229-2.189c-0.021-1.243-0.988-2.23-2.229-2.23h-2.645V200.727z"/>
		<path fill="#2D649E" d="M518.414,207.765v-12.663c0-0.668,0.514-1.182,1.176-1.182h2.535c4.141,0,7.492,3.372,7.492,7.491
			c0,4.165-3.354,7.534-7.492,7.534h-2.535C518.927,208.947,518.414,208.409,518.414,207.765z M520.794,206.564h1.332
			c2.834-0.022,5.109-2.296,5.109-5.151c0-2.812-2.275-5.107-5.109-5.107h-1.332V206.564z"/>
		<path fill="#2D649E" d="M539.576,205.407h-5.217l-1.053,2.788c-0.193,0.475-0.645,0.752-1.117,0.752
			c-0.148,0-0.277-0.02-0.406-0.065c-0.621-0.235-0.924-0.921-0.709-1.542l4.744-12.646c0.193-0.472,0.668-0.772,1.139-0.75
			c0.492-0.022,0.947,0.278,1.137,0.75l4.746,12.646c0.213,0.621-0.084,1.309-0.707,1.542c-0.109,0.047-0.258,0.065-0.41,0.065
			c-0.473,0-0.922-0.277-1.096-0.752L539.576,205.407z M538.695,203.044l-1.738-4.615l-1.734,4.615H538.695z"/>
	</g>
	<g>
		<path fill="#2D649E" d="M92.725,1.732C92.725,0.795,93.521,0,94.459,0h0.215h11.048c6.931,0,12.562,5.632,12.562,12.636
			c0,3.972-1.95,7.508-4.837,9.819c5.705,1.948,9.892,7.292,9.892,13.646c0,8.013-6.499,14.438-14.438,14.438H94.675H94.46h-0.073
			c-0.938,0-1.661-0.792-1.661-1.733L92.725,1.732L92.725,1.732z M105.722,21.589c4.983,0,9.024-4.044,9.024-8.954
			c0-5.054-4.043-9.098-9.024-9.098h-9.458v18.052H105.722z M108.9,47.001c5.992,0,10.83-4.838,10.901-10.901
			c-0.072-5.993-4.911-10.902-10.901-10.902H96.264v21.806H108.9V47.001z"/>
		<path fill="#2D649E" d="M164.488,16.894v31.911c0,0.941-0.794,1.733-1.732,1.733s-1.732-0.792-1.732-1.733v-5.271
			c-3.031,4.187-7.869,7.004-13.284,7.004c-9.313,0-16.75-8.014-16.75-17.688s7.437-17.688,16.75-17.688
			c5.416,0,10.253,2.743,13.284,6.931v-5.198c0-1.011,0.794-1.731,1.732-1.731S164.488,15.885,164.488,16.894z M161.022,32.85
			c0-7.941-5.992-14.296-13.285-14.296c-7.22,0-13.283,6.354-13.283,14.296s6.063,14.224,13.283,14.224
			C155.031,47.075,161.022,40.793,161.022,32.85z"/>
		<path fill="#2D649E" d="M179.5,33.644v-0.724v-0.719V1.732c0-0.938,0.795-1.732,1.732-1.732c1.012,0,1.805,0.795,1.805,1.732
			v20.36c3.105-4.188,8.016-6.931,13.574-6.931c9.531,0,17.111,7.941,17.111,17.759c0,9.677-7.58,17.617-17.111,17.617
			c-5.558,0-10.468-2.674-13.574-6.858v5.126c0,0.941-0.793,1.733-1.805,1.733c-0.938,0-1.732-0.792-1.732-1.733V33.644z
			 M183.038,32.921c0,7.799,6.137,14.081,13.574,14.081c7.51,0,13.574-6.281,13.574-14.081c0-7.869-6.064-14.221-13.574-14.221
			c-7.292,0-13.285,6.065-13.574,13.646V32.921z"/>
		<path fill="#2D649E" d="M222.384,16.821c0-0.938,0.794-1.659,1.661-1.659c1.012,0,1.804,0.723,1.804,1.659v19.206
			c0,6.066,4.837,10.902,10.831,10.902c6.063,0,10.901-4.836,10.974-10.902V16.821c0-0.287,0.073-0.648,0.289-0.866
			c0-0.071,0.071-0.145,0.071-0.218c0.073,0,0.073-0.07,0.145-0.07c0.145-0.217,0.433-0.361,0.65-0.434h0.144
			c0.071,0,0.144-0.072,0.215-0.072h0.217h0.215c0.289,0.072,0.577,0.217,0.867,0.36c0.143,0.145,0.359,0.361,0.433,0.577
			c0.144,0.217,0.217,0.505,0.217,0.722v19.207v0.649V47.72c0,9.242-7.509,16.609-16.823,16.609c-2.601,0-5.054-0.651-7.292-1.66
			c-0.793-0.507-1.156-1.519-0.721-2.309c0.433-0.869,1.372-1.083,2.238-0.869c1.732,0.869,3.754,1.371,5.777,1.371
			c7.364,0,13.283-5.844,13.356-13.141v-2.307c-2.67,3.031-6.57,5.052-10.974,5.052c-7.87-0.071-14.295-6.497-14.295-14.438
			L222.384,16.821L222.384,16.821L222.384,16.821z"/>
	</g>
</g>
</svg>
