<?xml version="1.0" encoding="utf-8"?>
<!-- Generator: Adobe Illustrator 15.1.0, SVG Export Plug-In . SVG Version: 6.00 Build 0)  -->
<!DOCTYPE svg PUBLIC "-//W3C//DTD SVG 1.1//EN" "http://www.w3.org/Graphics/SVG/1.1/DTD/svg11.dtd">
<svg version="1.1" id="Layer_1" xmlns="http://www.w3.org/2000/svg" xmlns:xlink="http://www.w3.org/1999/xlink" x="0px" y="0px"
	 width="418.682px" height="212.6px" viewBox="0 0 418.682 212.6" enable-background="new 0 0 418.682 212.6" xml:space="preserve">
<g>
	<g>
		<path fill="#00A297" d="M45.356,32.471c0,1.677-0.141,3.424-0.44,5.257c-0.936,5.352-4.271,9.497-8.149,12.626
			c-3.629,3.21-9.574,6.178-13.458,7.528c-0.942,0.332-2.226,0.562-3.623,0.772c-0.991,0.25-2.311,0.605-3.214,0.905
			c0.353,0.47,0.827,1.048,1.31,1.599c0.889,1.022,1.841,2.047,2.345,2.583l0.034,0.04c1.854-0.858,5.842-1.592,7.83-2.347
			c8.813-3.375,17.85-9.545,19.251-18.181c1.123-7.014-0.215-12.743-2.769-17.815C45.03,27.639,45.356,29.971,45.356,32.471z"/>
		<path fill="#00A297" d="M53.245,115.603c1.801,5.381,3.048,10.513,3.75,15.501l0.009,0.062l0.008,8.418l-0.006,0.061
			c-2.191,15.595-9.482,30.23-22.194,44.818c-6.411,7.312-12.084,12.839-19.491,18.962l-1.779,1.672
			c-1.58,1.563-3.652,3.694-6.495,4.413c-0.54,0.715-0.827,1.232,0.522,2.313c5.617,2.773,8.73-2.54,11.666-5.034
			c7.358-6.268,12.718-11.691,18.684-18.678c10.126-11.945,18.624-26.156,20.992-43.403v-8.094
			C57.865,128.999,55.695,121.923,53.245,115.603z"/>
	</g>
	<path fill="#0070BA" d="M73.278,116.412c-1.537,0-2.847-0.472-3.938-1.414c-1.09-0.941-1.634-2.271-1.634-4
		c0-1.559,0.557-2.845,1.675-3.854c1.114-1.012,2.415-1.514,3.897-1.514c1.426,0,2.692,0.458,3.795,1.374
		c1.104,0.919,1.652,2.25,1.652,3.996c0,1.698-0.539,3.022-1.614,3.979C76.038,115.932,74.755,116.412,73.278,116.412z
		 M78.728,127.793v31.851c0,2.205-0.525,3.874-1.571,5.006c-1.05,1.13-2.381,1.7-4,1.7c-1.613,0-2.926-0.578-3.935-1.735
		c-1.01-1.158-1.513-2.813-1.513-4.967V128.12c0-2.175,0.503-3.822,1.513-4.918c1.01-1.108,2.322-1.656,3.935-1.656
		c1.618,0,2.949,0.552,4,1.656C78.203,124.296,78.728,125.833,78.728,127.793z"/>
	<path fill="#0070BA" d="M101.05,150.442v9.204c0,2.234-0.525,3.908-1.571,5.024c-1.05,1.114-2.384,1.676-3.999,1.676
		c-1.588,0-2.892-0.569-3.916-1.698c-1.021-1.129-1.536-2.798-1.536-5.005v-30.68c0-4.948,1.79-7.425,5.366-7.425
		c1.831,0,3.149,0.576,3.957,1.731c0.808,1.156,1.25,2.866,1.332,5.125c1.318-2.261,2.669-3.969,4.056-5.125
		c1.386-1.155,3.234-1.731,5.551-1.731c2.313,0,4.563,0.576,6.742,1.731c2.177,1.156,3.27,2.692,3.27,4.603
		c0,1.349-0.466,2.455-1.393,3.329c-0.931,0.872-1.933,1.309-3.008,1.309c-0.404,0-1.377-0.246-2.925-0.745
		c-1.55-0.502-2.915-0.751-4.097-0.751c-1.616,0-2.934,0.42-3.957,1.272c-1.022,0.853-1.815,2.105-2.381,3.771
		c-0.565,1.667-0.956,3.654-1.171,5.959C101.159,144.326,101.05,147.129,101.05,150.442z"/>
	<path fill="#0070BA" d="M127.919,122.505h1.208v-6.616c0-1.775,0.046-3.171,0.141-4.182c0.094-1.01,0.357-1.875,0.791-2.603
		c0.428-0.753,1.049-1.369,1.857-1.837c0.807-0.473,1.707-0.706,2.702-0.706c1.399,0,2.665,0.526,3.795,1.568
		c0.752,0.702,1.231,1.556,1.433,2.566c0.205,1.01,0.305,2.438,0.305,4.297v7.507h4.035c1.561,0,2.752,0.371,3.574,1.107
		c0.821,0.742,1.229,1.688,1.229,2.848c0,1.479-0.583,2.52-1.755,3.105c-1.174,0.591-2.846,0.89-5.025,0.89h-2.057v20.263
		c0,1.725,0.06,3.051,0.182,3.979c0.121,0.927,0.443,1.683,0.969,2.261s1.375,0.867,2.564,0.867c0.646,0,1.52-0.115,2.621-0.345
		c1.105-0.226,1.964-0.338,2.582-0.338c0.888,0,1.688,0.354,2.406,1.067c0.713,0.715,1.069,1.595,1.069,2.644
		c0,1.778-0.969,3.141-2.905,4.079c-1.937,0.94-4.724,1.418-8.357,1.418c-3.444,0-6.055-0.578-7.833-1.734
		c-1.775-1.159-2.94-2.759-3.491-4.805c-0.555-2.044-0.831-4.78-0.831-8.194v-21.147h-1.454c-1.588,0-2.798-0.381-3.631-1.132
		c-0.837-0.752-1.251-1.711-1.251-2.868s0.438-2.103,1.312-2.845S126.25,122.505,127.919,122.505z"/>
	<path fill="#0070BA" d="M167.356,111.848v16.35c1.399-1.616,2.768-2.894,4.098-3.838c1.331-0.94,2.807-1.646,4.42-2.117
		c1.614-0.477,3.352-0.706,5.207-0.706c2.796,0,5.277,0.587,7.447,1.772c2.166,1.188,3.865,2.906,5.104,5.172
		c0.78,1.317,1.307,2.792,1.574,4.42s0.404,3.506,0.404,5.629v21.114c0,2.205-0.504,3.874-1.514,5.005
		c-1.013,1.131-2.348,1.701-4.019,1.701c-3.634,0-5.449-2.239-5.449-6.701V141.04c0-3.524-0.524-6.242-1.573-8.133
		c-1.05-1.901-3.043-2.848-5.975-2.848c-1.966,0-3.732,0.56-5.309,1.676c-1.574,1.112-2.752,2.644-3.531,4.582
		c-0.594,1.639-0.889,4.563-0.889,8.755v14.571c0,2.18-0.492,3.845-1.475,4.987c-0.982,1.144-2.347,1.719-4.097,1.719
		c-3.634,0-5.449-2.237-5.449-6.701v-47.791c0-2.234,0.479-3.912,1.435-5.026c0.953-1.115,2.293-1.673,4.017-1.673
		c1.75,0,3.114,0.566,4.097,1.695C166.867,107.976,167.356,109.646,167.356,111.848z"/>
	<path fill="#0070BA" d="M216.69,127.712v1.334c2.07-2.556,4.22-4.435,6.456-5.63c2.238-1.196,4.763-1.796,7.589-1.796
		c3.393,0,6.511,0.873,9.363,2.619c2.853,1.75,5.104,4.305,6.763,7.668c1.654,3.365,2.481,7.347,2.481,11.947
		c0,3.39-0.479,6.506-1.434,9.347c-0.953,2.84-2.266,5.222-3.938,7.146c-1.674,1.924-3.638,3.402-5.913,4.439
		c-2.272,1.035-4.715,1.549-7.325,1.549c-3.146,0-5.791-0.633-7.93-1.897c-2.137-1.266-4.178-3.121-6.11-5.569v16.55
		c0,4.842-1.767,7.263-5.29,7.263c-2.074,0-3.448-0.623-4.119-1.877c-0.672-1.249-1.012-3.072-1.012-5.468V127.79
		c0-2.095,0.457-3.667,1.373-4.702c0.914-1.031,2.166-1.551,3.756-1.551c1.561,0,2.83,0.532,3.813,1.593
		C216.195,124.196,216.69,125.725,216.69,127.712z M238.283,143.739c0-2.904-0.442-5.404-1.333-7.485
		c-0.883-2.084-2.116-3.685-3.688-4.801c-1.57-1.116-3.319-1.678-5.229-1.678c-3.045,0-5.607,1.197-7.688,3.589
		c-2.087,2.398-3.131,5.923-3.131,10.583c0,4.385,1.032,7.793,3.109,10.233c2.072,2.437,4.643,3.651,7.706,3.651
		c1.828,0,3.522-0.53,5.09-1.594c1.561-1.063,2.81-2.657,3.757-4.784C237.813,149.326,238.283,146.753,238.283,143.739z"/>
	<path fill="#0070BA" d="M258.187,159.646v-47.798c0-2.207,0.482-3.872,1.471-5.005c0.98-1.131,2.309-1.694,3.975-1.694
		s3.018,0.56,4.033,1.676c1.021,1.111,1.535,2.792,1.535,5.022v47.793c0,2.232-0.514,3.906-1.549,5.021
		c-1.037,1.116-2.377,1.679-4.02,1.679c-1.619,0-2.926-0.575-3.941-1.733C258.69,163.453,258.187,161.8,258.187,159.646z"/>
	<path fill="#0070BA" d="M308.438,160.129c-2.662,2.076-5.24,3.626-7.729,4.662c-2.492,1.036-5.279,1.556-8.373,1.556
		c-2.822,0-5.309-0.564-7.449-1.68c-2.141-1.116-3.787-2.629-4.941-4.546c-1.158-1.907-1.736-3.98-1.736-6.217
		c0-3.012,0.955-5.583,2.869-7.709c1.908-2.125,4.535-3.553,7.869-4.279c0.697-0.161,2.438-0.524,5.207-1.095
		c2.771-0.567,5.146-1.085,7.127-1.551c1.979-0.475,4.121-1.042,6.436-1.717c-0.133-2.905-0.719-5.04-1.756-6.401
		c-1.031-1.359-3.18-2.037-6.436-2.037c-2.797,0-4.908,0.394-6.32,1.174c-1.412,0.777-2.619,1.951-3.631,3.51
		c-1.01,1.562-1.727,2.594-2.139,3.087c-0.418,0.497-1.314,0.753-2.688,0.753c-1.236,0-2.303-0.398-3.207-1.194
		c-0.904-0.795-1.354-1.812-1.354-3.049c0-1.938,0.686-3.821,2.061-5.65c1.371-1.831,3.51-3.335,6.42-4.521
		c2.906-1.188,6.523-1.774,10.855-1.774c4.844,0,8.65,0.573,11.424,1.715c2.771,1.145,4.732,2.959,5.877,5.435
		c1.145,2.474,1.717,5.759,1.717,9.852c0,2.583-0.008,4.775-0.018,6.579c-0.02,1.803-0.041,3.81-0.063,6.016
		c0,2.071,0.34,4.231,1.025,6.479c0.686,2.247,1.029,3.692,1.029,4.34c0,1.131-0.531,2.162-1.596,3.087
		c-1.063,0.93-2.264,1.396-3.613,1.396c-1.129,0-2.248-0.532-3.348-1.598C310.851,163.69,309.677,162.149,308.438,160.129z
		 M307.714,144.183c-1.613,0.594-3.959,1.218-7.043,1.881c-3.086,0.659-5.213,1.141-6.404,1.454
		c-1.186,0.309-2.313,0.916-3.389,1.814c-1.078,0.904-1.617,2.164-1.617,3.773c0,1.669,0.631,3.086,1.9,4.259
		c1.266,1.17,2.916,1.756,4.963,1.756c2.178,0,4.195-0.481,6.039-1.435c1.84-0.952,3.195-2.184,4.055-3.691
		c0.996-1.668,1.492-4.412,1.492-8.235L307.714,144.183L307.714,144.183z"/>
	<path fill="#0070BA" d="M369.235,152.701c0,1.374-0.408,2.843-1.23,4.399c-0.82,1.559-2.074,3.047-3.758,4.464
		c-1.682,1.41-3.799,2.547-6.355,3.41c-2.555,0.858-5.438,1.29-8.637,1.29c-6.805,0-12.121-1.987-15.943-5.957
		c-3.824-3.972-5.729-9.288-5.729-15.966c0-4.52,0.871-8.516,2.621-11.987c1.746-3.475,4.281-6.157,7.588-8.054
		c3.314-1.9,7.268-2.846,11.867-2.846c2.854,0,5.467,0.413,7.848,1.25c2.383,0.836,4.398,1.908,6.063,3.232
		c1.648,1.316,2.918,2.721,3.793,4.216c0.871,1.492,1.309,2.883,1.309,4.177c0,1.32-0.484,2.438-1.469,3.353
		c-0.984,0.916-2.176,1.373-3.576,1.373c-0.92,0-1.676-0.231-2.279-0.707c-0.604-0.473-1.281-1.23-2.037-2.28
		c-1.352-2.04-2.75-3.578-4.217-4.602c-1.463-1.021-3.33-1.535-5.59-1.535c-3.256,0-5.885,1.273-7.871,3.813
		c-1.994,2.543-2.984,6.025-2.984,10.435c0,2.073,0.256,3.978,0.764,5.714c0.51,1.733,1.254,3.218,2.221,4.44
		c0.969,1.224,2.141,2.154,3.512,2.787c1.371,0.635,2.879,0.949,4.52,0.949c2.209,0,4.1-0.511,5.672-1.537
		c1.57-1.019,2.969-2.584,4.18-4.68c0.668-1.237,1.396-2.207,2.178-2.906c0.773-0.699,1.732-1.051,2.869-1.051
		c1.346,0,2.461,0.514,3.35,1.54C368.792,150.458,369.235,151.543,369.235,152.701z"/>
	<path fill="#0070BA" d="M409.601,146.648h-21.557c0.023,2.502,0.531,4.71,1.514,6.62c0.982,1.906,2.285,3.352,3.912,4.317
		c1.635,0.968,3.426,1.453,5.391,1.453c1.316,0,2.525-0.156,3.613-0.465c1.092-0.31,2.146-0.793,3.168-1.456
		c1.02-0.661,1.967-1.367,2.826-2.115c0.857-0.753,1.979-1.778,3.348-3.067c0.57-0.486,1.373-0.728,2.426-0.728
		c1.127,0,2.045,0.311,2.744,0.929c0.697,0.621,1.051,1.495,1.051,2.621c0,1-0.396,2.162-1.176,3.497
		c-0.775,1.331-1.957,2.612-3.529,3.835c-1.572,1.225-3.557,2.244-5.934,3.053c-2.385,0.808-5.121,1.211-8.217,1.211
		c-7.076,0-12.58-2.018-16.514-6.058c-3.934-4.03-5.891-9.513-5.891-16.429c0-3.255,0.482-6.275,1.457-9.069
		c0.967-2.783,2.377-5.172,4.234-7.162c1.855-1.993,4.143-3.517,6.865-4.579c2.715-1.064,5.729-1.596,9.041-1.596
		c4.301,0,8,0.907,11.082,2.724c3.082,1.814,5.389,4.165,6.922,7.044c1.535,2.879,2.303,5.812,2.303,8.805
		c0,2.77-0.797,4.565-2.383,5.386C414.714,146.237,412.481,146.648,409.601,146.648z M388.048,140.39h19.98
		c-0.271-3.767-1.285-6.59-3.055-8.459c-1.764-1.87-4.086-2.807-6.961-2.807c-2.74,0-5,0.948-6.76,2.845
		C389.487,133.871,388.421,136.679,388.048,140.39z"/>
	<path fill="#8AB1DF" d="M70.775,189.581c-0.357,0-0.666-0.112-0.919-0.326c-0.253-0.22-0.38-0.528-0.38-0.929
		c0-0.367,0.129-0.665,0.389-0.899c0.259-0.232,0.563-0.353,0.908-0.353c0.329,0,0.625,0.106,0.88,0.316
		c0.257,0.213,0.387,0.522,0.387,0.932c0,0.396-0.127,0.701-0.374,0.926C71.416,189.472,71.117,189.581,70.775,189.581z
		 M72.04,192.229v7.404c0,0.514-0.123,0.903-0.366,1.161c-0.245,0.263-0.557,0.398-0.931,0.398s-0.678-0.135-0.915-0.402
		c-0.234-0.27-0.352-0.654-0.352-1.152v-7.334c0-0.506,0.117-0.891,0.352-1.146c0.234-0.256,0.541-0.388,0.915-0.388
		c0.376,0,0.688,0.135,0.931,0.388C71.917,191.415,72.04,191.773,72.04,192.229z"/>
	<path fill="#8AB1DF" d="M78.536,192.192v0.309c0.451-0.596,0.942-1.031,1.478-1.309c0.534-0.28,1.15-0.418,1.846-0.418
		c0.674,0,1.28,0.146,1.811,0.441c0.532,0.302,0.932,0.712,1.195,1.248c0.166,0.312,0.278,0.654,0.326,1.018
		c0.05,0.365,0.074,0.829,0.074,1.388v4.771c0,0.512-0.117,0.901-0.353,1.163c-0.236,0.259-0.54,0.396-0.915,0.396
		c-0.385,0-0.69-0.133-0.931-0.404c-0.235-0.27-0.355-0.653-0.355-1.153v-4.271c0-0.841-0.117-1.49-0.353-1.938
		c-0.232-0.449-0.706-0.671-1.403-0.671c-0.457,0-0.872,0.135-1.248,0.406c-0.376,0.272-0.65,0.648-0.827,1.123
		c-0.125,0.382-0.187,1.096-0.187,2.14v3.21c0,0.519-0.121,0.908-0.361,1.169c-0.241,0.26-0.553,0.394-0.934,0.394
		c-0.37,0-0.669-0.132-0.91-0.403c-0.24-0.271-0.357-0.654-0.357-1.154v-7.402c0-0.485,0.106-0.853,0.319-1.097
		c0.213-0.236,0.502-0.362,0.872-0.362c0.225,0,0.43,0.05,0.61,0.16c0.181,0.104,0.327,0.266,0.436,0.478
		C78.482,191.628,78.536,191.885,78.536,192.192z"/>
	<path fill="#8AB1DF" d="M104.931,189.348h-6.281v3.381h5.783c0.425,0,0.747,0.096,0.953,0.289c0.212,0.189,0.315,0.441,0.315,0.753
		c0,0.309-0.104,0.568-0.311,0.764c-0.206,0.193-0.525,0.297-0.956,0.297H98.65v3.913h6.5c0.437,0,0.768,0.104,0.991,0.311
		c0.221,0.204,0.334,0.475,0.334,0.811c0,0.327-0.112,0.587-0.334,0.793c-0.221,0.207-0.555,0.308-0.991,0.308h-7.575
		c-0.605,0-1.044-0.133-1.31-0.398c-0.266-0.272-0.4-0.706-0.4-1.307v-10.344c0-0.398,0.058-0.728,0.177-0.979
		s0.306-0.438,0.56-0.554c0.252-0.115,0.576-0.174,0.971-0.174h7.36c0.445,0,0.773,0.099,0.991,0.296
		c0.219,0.201,0.323,0.454,0.323,0.773c0,0.325-0.109,0.587-0.323,0.782C105.705,189.251,105.375,189.348,104.931,189.348z"/>
	<path fill="#8AB1DF" d="M112.374,192.192v0.309c0.451-0.596,0.944-1.031,1.48-1.309c0.533-0.28,1.15-0.418,1.844-0.418
		c0.673,0,1.282,0.146,1.814,0.441c0.531,0.302,0.931,0.712,1.195,1.248c0.168,0.312,0.278,0.654,0.327,1.018
		c0.049,0.365,0.075,0.829,0.075,1.388v4.771c0,0.512-0.118,0.901-0.353,1.163c-0.236,0.259-0.54,0.396-0.917,0.396
		c-0.38,0-0.69-0.133-0.931-0.404c-0.236-0.27-0.357-0.653-0.357-1.153v-4.271c0-0.841-0.117-1.49-0.352-1.938
		c-0.232-0.449-0.704-0.671-1.403-0.671c-0.457,0-0.872,0.135-1.248,0.406c-0.376,0.272-0.653,0.648-0.827,1.123
		c-0.125,0.382-0.187,1.096-0.187,2.14v3.21c0,0.519-0.122,0.908-0.362,1.169c-0.24,0.26-0.553,0.394-0.934,0.394
		c-0.37,0-0.669-0.132-0.91-0.403c-0.24-0.271-0.357-0.654-0.357-1.154v-7.402c0-0.485,0.106-0.853,0.319-1.097
		c0.212-0.236,0.501-0.362,0.871-0.362c0.225,0,0.427,0.05,0.611,0.16c0.181,0.104,0.327,0.266,0.438,0.478
		C112.318,191.628,112.374,191.885,112.374,192.192z"/>
	<path fill="#8AB1DF" d="M132.623,192.65v7.448c0,0.849-0.089,1.582-0.272,2.192c-0.181,0.613-0.476,1.12-0.873,1.521
		c-0.4,0.401-0.928,0.696-1.574,0.893c-0.648,0.196-1.454,0.293-2.418,0.293c-0.881,0-1.67-0.127-2.365-0.37
		c-0.696-0.244-1.229-0.566-1.605-0.954c-0.375-0.396-0.563-0.793-0.563-1.206c0-0.309,0.105-0.57,0.316-0.763
		c0.215-0.199,0.471-0.298,0.771-0.298c0.374,0,0.703,0.166,0.983,0.498c0.136,0.17,0.281,0.34,0.428,0.512
		c0.145,0.171,0.311,0.314,0.486,0.442c0.18,0.122,0.396,0.214,0.643,0.271c0.249,0.058,0.54,0.093,0.863,0.093
		c0.666,0,1.181-0.093,1.548-0.278c0.368-0.188,0.623-0.443,0.767-0.773c0.146-0.332,0.234-0.688,0.26-1.066
		c0.027-0.379,0.045-0.988,0.057-1.825c-0.396,0.552-0.848,0.971-1.365,1.261c-0.518,0.289-1.131,0.429-1.846,0.429
		c-0.859,0-1.607-0.219-2.252-0.657c-0.641-0.438-1.135-1.052-1.478-1.84c-0.345-0.788-0.517-1.698-0.517-2.731
		c0-0.766,0.104-1.463,0.313-2.082c0.213-0.618,0.508-1.142,0.897-1.565c0.392-0.425,0.838-0.748,1.344-0.963
		c0.503-0.218,1.063-0.319,1.669-0.319c0.729,0,1.359,0.135,1.891,0.414s1.023,0.717,1.483,1.309v-0.353
		c0-0.444,0.108-0.788,0.326-1.029c0.222-0.244,0.501-0.365,0.844-0.365c0.491,0,0.823,0.159,0.987,0.485
		C132.541,191.578,132.623,192.046,132.623,192.65z M125.197,195.901c0,1.039,0.223,1.823,0.68,2.354
		c0.455,0.532,1.04,0.798,1.759,0.798c0.424,0,0.829-0.116,1.205-0.34c0.379-0.227,0.688-0.574,0.926-1.032
		c0.237-0.461,0.358-1.02,0.358-1.676c0-1.047-0.229-1.861-0.69-2.438c-0.459-0.582-1.065-0.876-1.816-0.876
		c-0.73,0-1.32,0.277-1.762,0.837C125.417,194.085,125.197,194.874,125.197,195.901z"/>
	<path fill="#8AB1DF" d="M136.481,199.635v-11.113c0-0.514,0.117-0.9,0.342-1.162c0.228-0.262,0.535-0.4,0.927-0.4
		c0.39,0,0.7,0.134,0.937,0.396c0.237,0.258,0.356,0.649,0.356,1.168v11.118c0,0.519-0.121,0.91-0.362,1.167
		c-0.24,0.262-0.553,0.394-0.931,0.394s-0.681-0.133-0.918-0.402C136.6,200.521,136.481,200.138,136.481,199.635z"/>
	<path fill="#8AB1DF" d="M149.709,199.749c-0.621,0.483-1.22,0.841-1.801,1.085c-0.576,0.242-1.229,0.361-1.949,0.361
		c-0.656,0-1.234-0.133-1.729-0.395c-0.498-0.255-0.883-0.611-1.15-1.058c-0.268-0.445-0.402-0.926-0.402-1.445
		c0-0.701,0.221-1.296,0.664-1.793c0.445-0.497,1.055-0.827,1.829-0.997c0.163-0.041,0.567-0.125,1.21-0.253
		c0.645-0.133,1.197-0.249,1.656-0.36c0.461-0.11,0.958-0.242,1.499-0.399c-0.034-0.672-0.168-1.174-0.409-1.487
		c-0.24-0.313-0.74-0.476-1.499-0.476c-0.651,0-1.142,0.092-1.465,0.273c-0.33,0.181-0.61,0.452-0.845,0.815
		c-0.233,0.366-0.398,0.602-0.497,0.718c-0.099,0.119-0.306,0.176-0.625,0.176c-0.287,0-0.536-0.093-0.747-0.277
		c-0.211-0.186-0.314-0.419-0.314-0.708c0-0.451,0.16-0.889,0.482-1.315c0.316-0.422,0.816-0.774,1.492-1.048
		c0.675-0.277,1.519-0.41,2.525-0.41c1.127,0,2.012,0.133,2.658,0.398s1.104,0.688,1.369,1.266c0.266,0.575,0.398,1.341,0.398,2.29
		c0,0.602,0,1.109-0.004,1.535c-0.004,0.419-0.008,0.887-0.015,1.398c0,0.482,0.081,0.982,0.24,1.508
		c0.157,0.521,0.237,0.856,0.237,1.012c0,0.264-0.123,0.502-0.371,0.718c-0.248,0.221-0.528,0.323-0.84,0.323
		c-0.265,0-0.523-0.128-0.78-0.369C150.268,200.576,149.996,200.219,149.709,199.749z M149.539,196.041
		c-0.378,0.134-0.924,0.283-1.64,0.437c-0.717,0.15-1.211,0.267-1.488,0.337c-0.273,0.07-0.538,0.217-0.789,0.423
		c-0.249,0.212-0.376,0.499-0.376,0.878c0,0.389,0.146,0.716,0.44,0.99c0.299,0.271,0.679,0.408,1.155,0.408
		c0.509,0,0.976-0.112,1.403-0.335c0.429-0.221,0.745-0.509,0.943-0.859c0.23-0.39,0.35-1.024,0.35-1.913L149.539,196.041
		L149.539,196.041z"/>
	<path fill="#8AB1DF" d="M158.502,192.192v0.309c0.451-0.596,0.944-1.031,1.48-1.309c0.533-0.28,1.148-0.418,1.843-0.418
		c0.676,0,1.282,0.146,1.813,0.441c0.531,0.302,0.93,0.712,1.193,1.248c0.17,0.312,0.277,0.654,0.329,1.018
		c0.051,0.365,0.075,0.829,0.075,1.388v4.771c0,0.512-0.118,0.901-0.354,1.163c-0.235,0.259-0.54,0.396-0.916,0.396
		c-0.383,0-0.69-0.133-0.932-0.404c-0.24-0.27-0.356-0.653-0.356-1.153v-4.271c0-0.841-0.119-1.49-0.354-1.938
		c-0.234-0.449-0.704-0.671-1.403-0.671c-0.457,0-0.874,0.135-1.248,0.406c-0.376,0.272-0.651,0.648-0.827,1.123
		c-0.127,0.382-0.187,1.096-0.187,2.14v3.21c0,0.519-0.124,0.908-0.362,1.169c-0.24,0.26-0.555,0.394-0.934,0.394
		c-0.37,0-0.672-0.132-0.909-0.403c-0.238-0.271-0.356-0.654-0.356-1.154v-7.402c0-0.485,0.105-0.853,0.316-1.097
		c0.214-0.236,0.503-0.362,0.874-0.362c0.226,0,0.428,0.05,0.61,0.16c0.181,0.104,0.326,0.266,0.437,0.478
		C158.448,191.628,158.502,191.885,158.502,192.192z"/>
	<path fill="#8AB1DF" d="M176.346,199.731v-0.252c-0.345,0.396-0.682,0.716-1.019,0.962c-0.336,0.248-0.7,0.436-1.089,0.564
		c-0.393,0.134-0.821,0.195-1.284,0.195c-0.615,0-1.183-0.133-1.703-0.394c-0.522-0.261-0.974-0.632-1.358-1.11
		c-0.381-0.486-0.666-1.048-0.864-1.698c-0.199-0.655-0.298-1.358-0.298-2.113c0-1.604,0.395-2.854,1.177-3.745
		c0.78-0.899,1.813-1.345,3.087-1.345c0.74,0,1.363,0.131,1.869,0.381c0.506,0.254,1.001,0.646,1.482,1.173v-3.787
		c0-0.527,0.104-0.923,0.313-1.193c0.21-0.27,0.509-0.402,0.897-0.402c0.387,0,0.687,0.131,0.895,0.371
		c0.21,0.245,0.314,0.61,0.314,1.097v11.3c0,0.486-0.115,0.854-0.338,1.103c-0.226,0.245-0.516,0.366-0.875,0.366
		c-0.351,0-0.64-0.132-0.869-0.383C176.461,200.559,176.346,200.202,176.346,199.731z M171.303,195.967
		c0,0.692,0.11,1.283,0.323,1.773c0.214,0.487,0.513,0.854,0.886,1.104c0.377,0.247,0.787,0.371,1.231,0.371
		c0.45,0,0.862-0.116,1.235-0.354c0.371-0.233,0.666-0.591,0.891-1.079c0.221-0.486,0.334-1.092,0.334-1.815
		c0-0.684-0.113-1.273-0.334-1.761c-0.223-0.488-0.523-0.866-0.901-1.128c-0.381-0.261-0.792-0.389-1.243-0.389
		c-0.473,0-0.89,0.133-1.26,0.397c-0.372,0.267-0.656,0.651-0.859,1.146C171.406,194.735,171.303,195.308,171.303,195.967z"/>
	<path fill="#8AB1DF" d="M193.128,195.075h-0.976v4.422c0,0.58-0.133,1.014-0.387,1.284c-0.256,0.274-0.588,0.41-1.006,0.41
		c-0.443,0-0.789-0.144-1.033-0.431c-0.242-0.288-0.365-0.71-0.365-1.27v-10.588c0-0.602,0.134-1.033,0.404-1.304
		c0.268-0.271,0.703-0.401,1.305-0.401h4.533c0.625,0,1.16,0.027,1.604,0.08c0.444,0.052,0.842,0.162,1.199,0.321
		c0.432,0.179,0.817,0.439,1.146,0.777c0.332,0.337,0.582,0.731,0.754,1.182c0.172,0.445,0.258,0.923,0.258,1.423
		c0,1.02-0.291,1.843-0.867,2.455c-0.578,0.613-1.456,1.049-2.635,1.306c0.494,0.264,0.968,0.652,1.418,1.162
		c0.451,0.513,0.854,1.062,1.207,1.639c0.353,0.576,0.629,1.104,0.826,1.566c0.198,0.47,0.297,0.786,0.297,0.963
		c0,0.181-0.058,0.361-0.174,0.54c-0.119,0.176-0.273,0.319-0.476,0.424c-0.2,0.104-0.433,0.155-0.695,0.155
		c-0.312,0-0.577-0.074-0.789-0.222c-0.213-0.145-0.397-0.331-0.549-0.56c-0.149-0.222-0.36-0.557-0.625-0.994l-1.114-1.86
		c-0.398-0.682-0.759-1.199-1.076-1.558c-0.315-0.357-0.638-0.601-0.959-0.735C194.034,195.14,193.621,195.075,193.128,195.075z
		 M194.725,189.289h-2.57v3.782h2.496c0.666,0,1.232-0.056,1.689-0.175s0.807-0.312,1.047-0.589c0.237-0.28,0.36-0.663,0.36-1.151
		c0-0.385-0.095-0.72-0.291-1.011c-0.194-0.291-0.465-0.509-0.81-0.652C196.326,189.36,195.682,189.289,194.725,189.289z"/>
	<path fill="#8AB1DF" d="M211.225,196.617h-5.014c0.006,0.579,0.125,1.099,0.353,1.542c0.23,0.438,0.531,0.775,0.912,1.002
		c0.379,0.223,0.797,0.339,1.256,0.339c0.306,0,0.584-0.04,0.838-0.111c0.256-0.07,0.5-0.186,0.745-0.337
		c0.233-0.153,0.454-0.313,0.656-0.488c0.199-0.178,0.458-0.412,0.779-0.714c0.133-0.113,0.314-0.168,0.564-0.168
		c0.264,0,0.479,0.072,0.636,0.221c0.164,0.137,0.246,0.343,0.246,0.606c0,0.229-0.089,0.499-0.273,0.813
		c-0.18,0.31-0.454,0.608-0.82,0.894c-0.365,0.282-0.825,0.52-1.38,0.706c-0.553,0.188-1.19,0.282-1.909,0.282
		c-1.646,0-2.926-0.47-3.842-1.407c-0.914-0.938-1.371-2.213-1.371-3.82c0-0.758,0.111-1.462,0.338-2.106
		c0.223-0.645,0.552-1.201,0.983-1.667c0.433-0.464,0.963-0.818,1.597-1.066c0.631-0.246,1.334-0.367,2.103-0.367
		c1.002,0,1.861,0.21,2.575,0.633c0.72,0.423,1.256,0.97,1.612,1.639c0.358,0.665,0.537,1.354,0.537,2.047
		c0,0.646-0.188,1.064-0.558,1.25C212.412,196.521,211.896,196.617,211.225,196.617z M206.209,195.158h4.65
		c-0.063-0.877-0.303-1.536-0.707-1.97c-0.412-0.433-0.952-0.653-1.622-0.653c-0.64,0-1.165,0.221-1.573,0.665
		C206.546,193.646,206.298,194.296,206.209,195.158z"/>
	<path fill="#8AB1DF" d="M225.267,197.844c0,0.708-0.171,1.312-0.517,1.814c-0.342,0.503-0.85,0.89-1.527,1.146
		c-0.667,0.261-1.488,0.393-2.451,0.393c-0.924,0-1.714-0.139-2.362-0.421c-0.66-0.284-1.146-0.634-1.459-1.058
		c-0.312-0.423-0.473-0.844-0.473-1.271c0-0.282,0.102-0.522,0.305-0.722c0.201-0.204,0.455-0.309,0.757-0.309
		c0.269,0,0.479,0.066,0.62,0.2c0.144,0.133,0.281,0.314,0.412,0.555c0.264,0.456,0.574,0.798,0.939,1.021
		c0.367,0.224,0.865,0.337,1.499,0.337c0.514,0,0.933-0.117,1.268-0.342c0.323-0.224,0.486-0.486,0.486-0.784
		c0-0.451-0.17-0.776-0.51-0.986c-0.34-0.206-0.904-0.398-1.686-0.589c-0.885-0.22-1.603-0.448-2.156-0.689
		c-0.552-0.238-0.997-0.563-1.33-0.951c-0.331-0.396-0.495-0.88-0.495-1.458c0-0.51,0.152-0.999,0.461-1.456
		c0.309-0.456,0.756-0.822,1.358-1.099c0.598-0.27,1.319-0.405,2.168-0.405c0.662,0,1.258,0.068,1.785,0.211
		c0.531,0.134,0.975,0.316,1.324,0.553c0.357,0.228,0.625,0.486,0.81,0.767c0.188,0.283,0.277,0.56,0.277,0.829
		c0,0.296-0.1,0.536-0.296,0.726c-0.201,0.189-0.482,0.279-0.842,0.279c-0.264,0-0.485-0.073-0.669-0.221
		c-0.183-0.148-0.396-0.376-0.632-0.676c-0.194-0.251-0.424-0.454-0.688-0.603c-0.264-0.146-0.619-0.22-1.066-0.22
		c-0.467,0-0.848,0.096-1.158,0.295c-0.306,0.197-0.457,0.443-0.457,0.738c0,0.271,0.112,0.485,0.337,0.664
		c0.224,0.175,0.528,0.313,0.909,0.428c0.383,0.112,0.909,0.248,1.577,0.41c0.795,0.195,1.447,0.425,1.95,0.695
		c0.502,0.271,0.887,0.585,1.146,0.95C225.137,196.953,225.267,197.375,225.267,197.844z"/>
	<path fill="#8AB1DF" d="M236.127,196.617h-5.012c0.007,0.579,0.125,1.099,0.354,1.542c0.227,0.438,0.531,0.775,0.912,1.002
		c0.378,0.223,0.797,0.339,1.251,0.339c0.309,0,0.588-0.04,0.843-0.111c0.256-0.07,0.497-0.186,0.74-0.337
		c0.233-0.153,0.455-0.313,0.656-0.488c0.202-0.178,0.462-0.412,0.78-0.714c0.133-0.113,0.316-0.168,0.563-0.168
		c0.264,0,0.482,0.072,0.642,0.221c0.159,0.137,0.241,0.343,0.241,0.606c0,0.229-0.092,0.499-0.271,0.813
		c-0.182,0.31-0.454,0.608-0.82,0.894c-0.365,0.282-0.827,0.52-1.38,0.706c-0.553,0.188-1.19,0.282-1.907,0.282
		c-1.646,0-2.928-0.47-3.844-1.407c-0.914-0.938-1.371-2.213-1.371-3.82c0-0.758,0.112-1.462,0.338-2.106
		c0.22-0.646,0.555-1.201,0.984-1.667c0.432-0.464,0.964-0.818,1.597-1.066c0.631-0.244,1.332-0.367,2.099-0.367
		c1.006,0,1.863,0.21,2.577,0.633c0.72,0.423,1.255,0.97,1.611,1.639c0.357,0.665,0.533,1.354,0.533,2.047
		c0,0.646-0.184,1.064-0.551,1.25C237.322,196.524,236.796,196.617,236.127,196.617z M231.115,195.158h4.649
		c-0.062-0.877-0.303-1.536-0.709-1.97c-0.407-0.433-0.948-0.653-1.621-0.653c-0.639,0-1.162,0.221-1.569,0.665
		C231.45,193.646,231.202,194.296,231.115,195.158z"/>
	<path fill="#8AB1DF" d="M248.396,199.749c-0.621,0.483-1.219,0.841-1.802,1.085c-0.576,0.24-1.226,0.361-1.947,0.361
		c-0.66,0-1.235-0.133-1.729-0.395c-0.498-0.255-0.883-0.611-1.151-1.058c-0.268-0.445-0.402-0.926-0.402-1.445
		c0-0.701,0.221-1.296,0.666-1.793c0.445-0.493,1.057-0.827,1.828-0.997c0.164-0.041,0.571-0.125,1.212-0.253
		c0.645-0.133,1.195-0.249,1.654-0.36c0.462-0.11,0.959-0.242,1.502-0.399c-0.036-0.672-0.171-1.174-0.408-1.487
		c-0.239-0.313-0.739-0.476-1.496-0.476c-0.653,0-1.143,0.092-1.468,0.273c-0.327,0.181-0.609,0.452-0.843,0.815
		c-0.232,0.366-0.397,0.602-0.497,0.718c-0.097,0.119-0.307,0.176-0.624,0.176c-0.284,0-0.534-0.093-0.745-0.277
		c-0.214-0.187-0.314-0.419-0.314-0.708c0-0.451,0.159-0.889,0.48-1.315c0.316-0.422,0.818-0.774,1.494-1.048
		c0.672-0.277,1.519-0.41,2.527-0.41c1.127,0,2.01,0.133,2.655,0.398c0.647,0.266,1.103,0.688,1.37,1.266
		c0.264,0.575,0.397,1.341,0.397,2.29c0,0.602-0.003,1.109-0.007,1.535c-0.002,0.419-0.006,0.887-0.013,1.398
		c0,0.482,0.077,0.982,0.235,1.508c0.156,0.521,0.237,0.856,0.237,1.012c0,0.264-0.125,0.502-0.372,0.718
		c-0.246,0.221-0.527,0.323-0.838,0.323c-0.264,0-0.523-0.128-0.78-0.369C248.954,200.576,248.684,200.219,248.396,199.749z
		 M248.228,196.041c-0.38,0.134-0.926,0.283-1.639,0.437c-0.714,0.15-1.21,0.267-1.481,0.337c-0.278,0.07-0.542,0.217-0.789,0.423
		c-0.25,0.21-0.378,0.499-0.378,0.878c0,0.389,0.146,0.716,0.441,0.99c0.295,0.271,0.679,0.408,1.153,0.408
		c0.509,0,0.976-0.112,1.404-0.335c0.429-0.221,0.747-0.509,0.94-0.859c0.229-0.39,0.35-1.024,0.35-1.913L248.228,196.041
		L248.228,196.041z"/>
	<path fill="#8AB1DF" d="M257.403,197.498v2.142c0,0.518-0.121,0.91-0.365,1.167c-0.246,0.262-0.555,0.394-0.932,0.394
		c-0.371,0-0.67-0.133-0.911-0.397c-0.233-0.259-0.355-0.649-0.355-1.161v-7.132c0-1.154,0.415-1.729,1.247-1.729
		c0.424,0,0.738,0.134,0.924,0.404c0.188,0.265,0.291,0.665,0.311,1.191c0.311-0.524,0.621-0.923,0.943-1.191
		c0.322-0.271,0.75-0.404,1.287-0.404c0.541,0,1.063,0.134,1.564,0.404c0.508,0.265,0.762,0.623,0.762,1.067
		c0,0.312-0.111,0.571-0.326,0.775c-0.221,0.204-0.449,0.306-0.697,0.306c-0.094,0-0.318-0.056-0.678-0.172
		c-0.361-0.115-0.678-0.175-0.955-0.175c-0.375,0-0.68,0.099-0.922,0.298c-0.232,0.197-0.42,0.486-0.555,0.878
		s-0.223,0.85-0.273,1.38C257.429,196.076,257.403,196.727,257.403,197.498z"/>
	<path fill="#8AB1DF" d="M273.511,198.023c0,0.317-0.096,0.66-0.287,1.02c-0.189,0.366-0.482,0.709-0.871,1.036
		c-0.395,0.33-0.887,0.594-1.48,0.793c-0.594,0.2-1.266,0.308-2.006,0.308c-1.584,0-2.82-0.464-3.709-1.388
		c-0.893-0.923-1.334-2.159-1.334-3.712c0-1.052,0.203-1.979,0.607-2.791c0.404-0.806,0.996-1.429,1.766-1.873
		c0.77-0.439,1.689-0.662,2.76-0.662c0.664,0,1.275,0.097,1.822,0.29c0.559,0.197,1.023,0.445,1.408,0.752
		c0.387,0.31,0.68,0.632,0.883,0.982c0.205,0.349,0.307,0.671,0.307,0.971c0,0.309-0.115,0.568-0.342,0.779
		c-0.227,0.214-0.506,0.314-0.832,0.314c-0.213,0-0.393-0.054-0.531-0.166c-0.139-0.106-0.303-0.283-0.477-0.531
		c-0.313-0.478-0.639-0.833-0.982-1.069c-0.336-0.233-0.771-0.354-1.297-0.354c-0.756,0-1.371,0.301-1.828,0.887
		c-0.467,0.592-0.695,1.4-0.695,2.433c0,0.482,0.059,0.925,0.18,1.329c0.121,0.399,0.293,0.748,0.516,1.026
		c0.223,0.285,0.494,0.497,0.818,0.651c0.313,0.145,0.664,0.221,1.053,0.221c0.508,0,0.949-0.12,1.314-0.357
		c0.367-0.238,0.689-0.602,0.973-1.091c0.156-0.287,0.324-0.512,0.506-0.674c0.182-0.161,0.402-0.243,0.666-0.243
		c0.311,0,0.572,0.119,0.777,0.36C273.409,197.5,273.511,197.755,273.511,198.023z"/>
	<path fill="#8AB1DF" d="M279.288,188.522v3.804c0.324-0.379,0.643-0.672,0.951-0.894c0.311-0.222,0.652-0.386,1.023-0.49
		c0.377-0.111,0.779-0.164,1.211-0.164c0.654,0,1.23,0.136,1.73,0.411c0.504,0.275,0.898,0.677,1.188,1.196
		c0.184,0.312,0.311,0.655,0.367,1.027c0.063,0.378,0.094,0.814,0.094,1.309v4.912c0,0.514-0.115,0.901-0.354,1.161
		c-0.232,0.263-0.547,0.398-0.932,0.398c-0.842,0-1.268-0.518-1.268-1.557v-4.329c0-0.819-0.123-1.449-0.365-1.891
		c-0.242-0.446-0.709-0.662-1.389-0.662c-0.459,0-0.867,0.131-1.238,0.388c-0.365,0.265-0.639,0.618-0.82,1.068
		c-0.139,0.383-0.207,1.06-0.207,2.034v3.392c0,0.507-0.113,0.894-0.344,1.157c-0.225,0.267-0.547,0.399-0.949,0.399
		c-0.844,0-1.271-0.52-1.271-1.56v-11.117c0-0.518,0.115-0.908,0.334-1.17c0.221-0.261,0.535-0.392,0.934-0.392
		c0.4,0,0.723,0.134,0.949,0.396C279.175,187.62,279.288,188.009,279.288,188.522z"/>
	<path fill="#8AB1DF" d="M301.778,195.602h-2.553v3.895c0,0.56-0.131,0.979-0.395,1.27c-0.262,0.286-0.594,0.43-0.998,0.43
		c-0.416,0-0.754-0.14-1.016-0.425c-0.262-0.283-0.387-0.701-0.387-1.251v-10.61c0-0.613,0.137-1.053,0.42-1.313
		c0.285-0.261,0.73-0.396,1.344-0.396h3.58c1.059,0,1.869,0.081,2.438,0.244c0.566,0.155,1.047,0.414,1.463,0.779
		c0.41,0.365,0.721,0.81,0.932,1.334c0.219,0.526,0.314,1.112,0.314,1.771c0,1.399-0.432,2.462-1.293,3.189
		C304.776,195.24,303.489,195.602,301.778,195.602z M301.104,189.289h-1.881v4.206h1.881c0.656,0,1.199-0.068,1.645-0.206
		c0.441-0.138,0.775-0.366,1.012-0.677c0.229-0.311,0.35-0.722,0.35-1.229c0-0.606-0.18-1.101-0.539-1.482
		C303.173,189.494,302.351,189.289,301.104,189.289z"/>
	<path fill="#8AB1DF" d="M313.165,197.498v2.142c0,0.518-0.125,0.91-0.365,1.167c-0.244,0.262-0.557,0.394-0.932,0.394
		c-0.371,0-0.67-0.133-0.912-0.397c-0.236-0.259-0.357-0.649-0.357-1.161v-7.132c0-1.154,0.414-1.729,1.25-1.729
		c0.426,0,0.732,0.134,0.922,0.404c0.189,0.265,0.295,0.665,0.311,1.191c0.311-0.524,0.621-0.923,0.939-1.191
		c0.32-0.271,0.754-0.404,1.289-0.404c0.541,0,1.064,0.134,1.566,0.404c0.506,0.265,0.758,0.623,0.758,1.067
		c0,0.312-0.107,0.571-0.32,0.775c-0.221,0.204-0.449,0.306-0.699,0.306c-0.094,0-0.318-0.056-0.68-0.172
		c-0.361-0.115-0.676-0.175-0.951-0.175c-0.377,0-0.68,0.099-0.924,0.298c-0.234,0.197-0.422,0.486-0.557,0.878
		c-0.133,0.392-0.221,0.85-0.271,1.38C313.19,196.076,313.165,196.727,313.165,197.498z"/>
	<path fill="#8AB1DF" d="M329.444,195.987c0,0.761-0.121,1.467-0.359,2.11c-0.234,0.646-0.574,1.196-1.027,1.66
		c-0.451,0.466-0.988,0.818-1.617,1.067c-0.625,0.243-1.33,0.369-2.107,0.369s-1.473-0.13-2.094-0.379s-1.16-0.605-1.611-1.075
		c-0.453-0.468-0.801-1.017-1.031-1.647c-0.229-0.636-0.354-1.338-0.354-2.105c0-0.776,0.123-1.486,0.359-2.13
		c0.234-0.646,0.574-1.196,1.018-1.653c0.447-0.455,0.982-0.806,1.619-1.056c0.631-0.243,1.33-0.371,2.094-0.371
		c0.773,0,1.475,0.13,2.107,0.379s1.176,0.604,1.627,1.07s0.791,1.014,1.023,1.648C329.329,194.51,329.444,195.214,329.444,195.987z
		 M326.87,195.987c0-1.046-0.229-1.861-0.688-2.439c-0.463-0.582-1.078-0.874-1.852-0.874c-0.5,0-0.941,0.134-1.328,0.395
		c-0.381,0.257-0.672,0.641-0.881,1.148c-0.207,0.507-0.311,1.1-0.311,1.772c0,0.668,0.104,1.255,0.309,1.757
		c0.207,0.501,0.488,0.884,0.869,1.149c0.385,0.268,0.826,0.399,1.342,0.399c0.775,0,1.393-0.296,1.854-0.878
		C326.642,197.827,326.87,197.017,326.87,195.987z"/>
	<path fill="#8AB1DF" d="M342.405,192.65v7.448c0,0.849-0.092,1.582-0.273,2.192c-0.18,0.613-0.477,1.12-0.871,1.521
		c-0.398,0.399-0.928,0.696-1.57,0.893c-0.648,0.196-1.455,0.293-2.416,0.293c-0.887,0-1.674-0.127-2.367-0.37
		c-0.691-0.244-1.229-0.566-1.604-0.954c-0.379-0.396-0.564-0.793-0.564-1.206c0-0.309,0.104-0.57,0.316-0.763
		c0.213-0.199,0.471-0.298,0.766-0.298c0.375,0,0.705,0.166,0.984,0.498c0.137,0.17,0.281,0.34,0.428,0.512
		c0.146,0.171,0.311,0.314,0.488,0.442c0.18,0.122,0.396,0.214,0.646,0.271c0.246,0.058,0.541,0.093,0.859,0.093
		c0.666,0,1.182-0.093,1.547-0.278c0.369-0.188,0.623-0.443,0.771-0.773c0.145-0.332,0.229-0.688,0.256-1.066
		s0.045-0.988,0.055-1.825c-0.396,0.552-0.85,0.971-1.367,1.261c-0.52,0.289-1.131,0.429-1.848,0.429
		c-0.854,0-1.605-0.219-2.25-0.657c-0.643-0.438-1.131-1.052-1.477-1.84s-0.516-1.698-0.516-2.731c0-0.766,0.107-1.463,0.311-2.082
		c0.209-0.618,0.508-1.142,0.9-1.565c0.389-0.425,0.836-0.748,1.342-0.963c0.506-0.216,1.064-0.319,1.67-0.319
		c0.727,0,1.355,0.135,1.889,0.414c0.531,0.279,1.023,0.717,1.48,1.309v-0.353c0-0.444,0.111-0.788,0.328-1.029
		c0.221-0.244,0.5-0.365,0.842-0.365c0.492,0,0.824,0.159,0.984,0.485C342.327,191.578,342.405,192.046,342.405,192.65z
		 M334.979,195.901c0,1.039,0.227,1.823,0.682,2.354c0.453,0.532,1.037,0.798,1.76,0.798c0.424,0,0.832-0.116,1.203-0.34
		c0.375-0.227,0.686-0.574,0.926-1.032c0.238-0.457,0.357-1.02,0.357-1.676c0-1.047-0.227-1.861-0.688-2.438
		c-0.463-0.582-1.066-0.876-1.816-0.876c-0.732,0-1.316,0.277-1.758,0.837C335.202,194.085,334.979,194.874,334.979,195.901z"/>
	<path fill="#8AB1DF" d="M348.827,197.498v2.142c0,0.518-0.125,0.91-0.365,1.167c-0.246,0.262-0.555,0.394-0.93,0.394
		c-0.371,0-0.67-0.133-0.914-0.397c-0.236-0.259-0.357-0.649-0.357-1.161v-7.132c0-1.154,0.412-1.729,1.25-1.729
		c0.422,0,0.734,0.134,0.92,0.404c0.193,0.265,0.295,0.665,0.313,1.191c0.311-0.524,0.623-0.923,0.941-1.191
		c0.32-0.271,0.754-0.404,1.289-0.404c0.541,0,1.063,0.134,1.566,0.404c0.504,0.265,0.758,0.623,0.758,1.067
		c0,0.312-0.109,0.571-0.326,0.775s-0.445,0.306-0.695,0.306c-0.096,0-0.318-0.056-0.68-0.172c-0.357-0.115-0.674-0.175-0.949-0.175
		c-0.379,0-0.684,0.099-0.924,0.298c-0.234,0.197-0.42,0.486-0.555,0.878s-0.221,0.85-0.275,1.38
		C348.856,196.076,348.827,196.727,348.827,197.498z"/>
	<path fill="#8AB1DF" d="M362.243,199.749c-0.621,0.483-1.219,0.841-1.801,1.085c-0.578,0.242-1.229,0.361-1.949,0.361
		c-0.66,0-1.232-0.133-1.729-0.395c-0.494-0.255-0.883-0.611-1.152-1.058c-0.27-0.445-0.398-0.926-0.398-1.445
		c0-0.701,0.219-1.296,0.664-1.793s1.055-0.827,1.832-0.997c0.156-0.041,0.564-0.125,1.205-0.253c0.65-0.133,1.197-0.249,1.656-0.36
		c0.463-0.11,0.957-0.242,1.498-0.399c-0.035-0.672-0.166-1.174-0.404-1.487c-0.24-0.313-0.744-0.476-1.498-0.476
		c-0.654,0-1.141,0.092-1.465,0.273c-0.326,0.181-0.611,0.452-0.842,0.815c-0.232,0.366-0.398,0.602-0.496,0.718
		c-0.098,0.119-0.309,0.176-0.625,0.176c-0.289,0-0.537-0.093-0.75-0.277c-0.211-0.187-0.311-0.419-0.311-0.708
		c0-0.451,0.154-0.889,0.479-1.315c0.318-0.422,0.82-0.774,1.492-1.048c0.678-0.277,1.518-0.41,2.525-0.41
		c1.127,0,2.01,0.133,2.658,0.398s1.102,0.688,1.367,1.266c0.268,0.575,0.398,1.341,0.398,2.29c0,0.602-0.002,1.109-0.004,1.535
		c-0.004,0.419-0.012,0.887-0.016,1.398c0,0.482,0.076,0.982,0.236,1.508c0.158,0.521,0.24,0.856,0.24,1.012
		c0,0.264-0.129,0.502-0.373,0.718c-0.244,0.221-0.529,0.323-0.842,0.323c-0.264,0-0.521-0.128-0.777-0.369
		C362.8,200.576,362.53,200.219,362.243,199.749z M362.071,196.041c-0.375,0.134-0.926,0.283-1.641,0.437
		c-0.719,0.15-1.209,0.267-1.482,0.337c-0.277,0.07-0.541,0.217-0.789,0.423c-0.25,0.212-0.379,0.499-0.379,0.878
		c0,0.389,0.146,0.716,0.439,0.99c0.301,0.271,0.68,0.408,1.158,0.408c0.506,0,0.977-0.112,1.402-0.335
		c0.428-0.221,0.746-0.509,0.939-0.859c0.232-0.39,0.35-1.024,0.35-1.913L362.071,196.041L362.071,196.041z"/>
	<path fill="#8AB1DF" d="M377.235,196.174v3.41c0,0.54-0.127,0.939-0.371,1.209c-0.242,0.27-0.568,0.402-0.963,0.402
		c-0.393,0-0.705-0.134-0.943-0.402c-0.238-0.27-0.363-0.669-0.363-1.209v-4.082c0-0.648-0.021-1.146-0.063-1.505
		c-0.045-0.355-0.16-0.652-0.359-0.875c-0.193-0.227-0.496-0.342-0.922-0.342c-0.838,0-1.389,0.289-1.652,0.861
		c-0.268,0.574-0.4,1.399-0.4,2.479v3.464c0,0.531-0.119,0.932-0.361,1.203c-0.238,0.271-0.559,0.408-0.951,0.408
		c-0.387,0-0.707-0.137-0.951-0.408s-0.369-0.672-0.369-1.203v-7.329c0-0.483,0.109-0.849,0.33-1.101
		c0.221-0.249,0.514-0.379,0.879-0.379c0.352,0,0.645,0.123,0.877,0.354c0.23,0.233,0.352,0.563,0.352,0.974v0.241
		c0.443-0.53,0.922-0.924,1.428-1.171c0.506-0.254,1.07-0.379,1.689-0.379c0.645,0,1.197,0.132,1.662,0.388
		c0.461,0.254,0.84,0.645,1.145,1.162c0.428-0.524,0.895-0.919,1.387-1.171c0.492-0.254,1.041-0.379,1.639-0.379
		c0.703,0,1.305,0.134,1.816,0.408c0.506,0.273,0.885,0.667,1.133,1.184c0.221,0.465,0.328,1.195,0.328,2.187v5.006
		c0,0.535-0.127,0.938-0.367,1.207c-0.244,0.269-0.572,0.404-0.967,0.404c-0.393,0-0.707-0.138-0.953-0.408
		c-0.248-0.273-0.371-0.673-0.371-1.203v-4.311c0-0.549-0.027-0.988-0.068-1.322c-0.047-0.333-0.176-0.609-0.383-0.837
		c-0.209-0.225-0.52-0.337-0.938-0.337c-0.338,0-0.66,0.101-0.959,0.301c-0.307,0.201-0.539,0.472-0.711,0.806
		C377.327,194.315,377.235,195.078,377.235,196.174z"/>
	<path fill="#8AB1DF" d="M395.778,196.174v3.41c0,0.54-0.125,0.939-0.367,1.209s-0.568,0.402-0.971,0.402
		c-0.387,0-0.699-0.134-0.938-0.402c-0.24-0.268-0.361-0.669-0.361-1.209v-4.082c0-0.648-0.025-1.146-0.064-1.505
		c-0.045-0.355-0.162-0.652-0.357-0.875c-0.193-0.227-0.5-0.342-0.924-0.342c-0.838,0-1.389,0.289-1.654,0.861
		c-0.266,0.574-0.398,1.399-0.398,2.479v3.464c0,0.531-0.121,0.932-0.361,1.203c-0.236,0.271-0.559,0.408-0.953,0.408
		c-0.391,0-0.705-0.137-0.947-0.408c-0.248-0.271-0.373-0.672-0.373-1.203v-7.329c0-0.483,0.111-0.849,0.33-1.101
		c0.221-0.249,0.516-0.379,0.877-0.379c0.35,0,0.645,0.123,0.879,0.354c0.234,0.233,0.352,0.563,0.352,0.974v0.241
		c0.443-0.53,0.924-0.924,1.426-1.171c0.51-0.254,1.07-0.379,1.691-0.379c0.645,0,1.199,0.132,1.66,0.388
		c0.465,0.254,0.842,0.645,1.145,1.162c0.432-0.524,0.895-0.919,1.385-1.171c0.496-0.254,1.043-0.379,1.645-0.379
		c0.701,0,1.303,0.134,1.811,0.408c0.51,0.273,0.891,0.667,1.137,1.184c0.223,0.465,0.33,1.195,0.33,2.187v5.006
		c0,0.535-0.125,0.938-0.367,1.207c-0.244,0.269-0.568,0.404-0.967,0.404c-0.389,0-0.705-0.138-0.951-0.408
		c-0.248-0.273-0.371-0.673-0.371-1.203v-4.311c0-0.549-0.023-0.988-0.072-1.322c-0.043-0.333-0.168-0.609-0.381-0.837
		c-0.205-0.225-0.518-0.337-0.938-0.337c-0.336,0-0.656,0.101-0.953,0.301c-0.309,0.201-0.543,0.472-0.717,0.806
		C395.87,194.315,395.778,195.078,395.778,196.174z"/>
	<path fill="#8AB1DF" d="M412.956,196.617h-5.01c0.008,0.579,0.125,1.099,0.354,1.542c0.227,0.438,0.531,0.775,0.91,1.002
		c0.379,0.223,0.799,0.339,1.254,0.339c0.311,0,0.584-0.04,0.842-0.111c0.248-0.07,0.492-0.186,0.736-0.337
		c0.24-0.153,0.459-0.313,0.66-0.488c0.203-0.178,0.461-0.412,0.777-0.714c0.133-0.113,0.316-0.168,0.57-0.168
		c0.26,0,0.475,0.072,0.637,0.221c0.16,0.137,0.244,0.343,0.244,0.606c0,0.229-0.098,0.499-0.277,0.813
		c-0.18,0.31-0.455,0.608-0.82,0.894c-0.367,0.282-0.826,0.52-1.377,0.706c-0.557,0.188-1.191,0.282-1.908,0.282
		c-1.645,0-2.926-0.47-3.84-1.407c-0.918-0.938-1.373-2.213-1.373-3.82c0-0.758,0.113-1.462,0.336-2.106
		c0.227-0.65,0.557-1.201,0.986-1.667c0.432-0.464,0.963-0.818,1.598-1.066c0.631-0.246,1.334-0.367,2.105-0.367
		c1,0,1.859,0.21,2.576,0.633s1.25,0.97,1.607,1.639c0.357,0.665,0.537,1.354,0.537,2.047c0,0.646-0.189,1.064-0.557,1.25
		C414.149,196.521,413.626,196.617,412.956,196.617z M407.946,195.158h4.646c-0.063-0.877-0.299-1.536-0.707-1.97
		c-0.406-0.433-0.949-0.653-1.621-0.653c-0.639,0-1.162,0.221-1.57,0.665C408.28,193.646,408.032,194.296,407.946,195.158z"/>
	<path fill="#0070BA" d="M26.838,0.74l3.517,4.036c7.873,8.941,16.016,18.18,13.611,32.789C42.14,48.534,29,54.531,23.434,56.609
		l-3.691,1.036c-1.497,0.388-3.933,1.001-4.701,1.469c0.539,1.157,3.385,4.207,4.376,5.27l0.757,0.838
		c11.055,12.257,20.782,23.717,27.938,39.856c4.19,9.468,6.784,18.028,7.928,26.158l0.009,8.276
		c-2.162,15.383-9.344,29.83-21.966,44.322c-6.382,7.275-12.003,12.757-19.428,18.897l-1.797,1.691
		c-2.547,2.547-6.046,6.036-11.304,3.5c-1.038-0.775-1.463-1.365-1.539-2.017c-0.106-0.807,0.347-1.383,0.75-1.896l0.397-0.534
		l0.133-0.186l0.241-0.144c4.979-2.529,9.016-6.556,12.919-10.46l3.145-3.086c5.951-5.622,12.669-12.285,17.37-19.138
		c3.135-4.55,5.606-8.863,7.769-13.563c11.073-24.308-0.404-49.367-11.989-66.101l-1.414-2.047
		c-3.297-4.798-7.028-10.232-11.795-15.641L13.82,69.36c-6.729-6.521-11.366-11.354-9.66-14.15c1.218-1.996,4.93-2.508,8.855-3.058
		c1.919-0.271,3.748-0.517,4.928-0.932c4.856-1.635,13.241-5.865,15.832-9.768c6.365-9.586-1.775-22.16-7.198-28.813
		c-0.009,0-0.942-1.146-0.942-1.146c-3.144-3.807-5.702-7.132-5.085-9.393c0.143-0.539,0.538-1.271,1.605-1.653
		c1.598-0.529,2.702-0.669,4.326,0.021l0.202,0.088L26.838,0.74z"/>
</g>
</svg>
