<?xml version="1.0" encoding="utf-8"?>
<!-- Generator: Adobe Illustrator 15.1.0, SVG Export Plug-In . SVG Version: 6.00 Build 0)  -->
<!DOCTYPE svg PUBLIC "-//W3C//DTD SVG 1.1//EN" "http://www.w3.org/Graphics/SVG/1.1/DTD/svg11.dtd">
<svg version="1.1" id="Layer_1" xmlns="http://www.w3.org/2000/svg" xmlns:xlink="http://www.w3.org/1999/xlink" x="0px" y="0px"
	 width="151.748px" height="212.6px" viewBox="0 0 151.748 212.6" enable-background="new 0 0 151.748 212.6" xml:space="preserve">
<linearGradient id="SVGID_1_" gradientUnits="userSpaceOnUse" x1="75.8345" y1="212.7175" x2="75.8345" y2="-2.7756" gradientTransform="matrix(1 0 0 -1 0.04 211.6636)">
	<stop  offset="0.25" style="stop-color:#66376D"/>
	<stop  offset="0.4856" style="stop-color:#FFFFFF"/>
	<stop  offset="0.75" style="stop-color:#66376D"/>
</linearGradient>
<path fill="url(#SVGID_1_)" d="M67.871,48.25c-3.104-0.135-10.994,1.417-14.14,1.972c-4.825,0.851-9.628,1.906-14.348,3.223
	c-8.057,2.245-15.983,5.333-22.585,10.583C2.985,75.01-0.628,92.159,0.085,109.045c0.699,16.542,8.876,30.648,19.522,42.874
	c11.02,12.65,27.188,18.021,39.958,28.461c6.813,6.247,10.996,11.77,16.013,20.345c1.862,2.956,2.812,7.015,4.293,11.872
	c1.619-1.754,2.813-4.739,3.331-6.662c1.056-3.939,1.683-7.812,3.558-11.521c0.822-1.627,2.146-3.526,3.373-4.855
	c4.831-5.222,10.271-8.835,16.058-12.953c6.41-4.563,15.287-11.459,21.186-16.732c6.52-5.828,9.563-9.844,14.757-16.877
	c10.232-13.852,11.736-34.37,7.152-50.646c-2.366-8.402-6.072-17.182-11.386-24.125c-5.521-7.221-12.53-13.777-19.024-20.104
	c-3.117-3.039-7.405-7.017-9.31-11.063c-1.853-3.407-2.328-4.986-2.295-8.905c-0.03-4.453,0.811-7.691,3.092-11.184
	c2.504-3.354,5.379-6.821,8.783-9.326c3.227-2.375,6.771-4.87,10.965-7.617c-7.729-0.491-18.782,6.868-24.43,11.604
	c-3.138,2.632-6.869,7.65-8.484,11.473c-1.692,3.998-2.137,6.896-2.137,11.243c0,8.695,3.063,16.105,8.703,22.415
	c6.709,7.506,12.58,14.894,19.414,22.286c6.229,6.738,9.34,11.003,11.079,15.358c4.542,11.379,4.048,25.998,0.944,36.791
	c-3.373,8.322-9.414,17.903-15.417,24.741c-4.747,5.406-10.164,10.365-15.894,14.72c-9.41,7.154-19.967,14.038-21.988,26.684
	c-0.036,1.875-0.885,7.316-1.172,9.192c-0.582-6.851-1.266-7.558-2.119-9.674c-1.311-3.251-3.229-6.22-5.342-8.998
	c-4.62-6.078-10.024-11.557-15.455-16.9c-10.699-10.528-22.203-20.846-30.942-33.137c-7.147-10.051-10.984-22.131-11.33-34.513
	c-0.314-11.314,2.468-22.659,10.391-30.975c4.847-5.087,11.145-9.009,17.211-12.468c3.455-1.97,7.017-3.749,10.66-5.346
	c2.688-1.177,5.5-1.981,8.23-3.032C63.157,50.984,67.167,49.296,67.871,48.25"/>
<path fill="#66376D" d="M58.506,144.605l-3.574,1.644l-0.137-0.297c0.831-0.649,1.354-1.396,1.572-2.231
	c0.217-0.838,0.149-1.642-0.206-2.41c-0.296-0.646-0.753-1.148-1.371-1.519c-0.617-0.366-1.282-0.537-1.995-0.512
	c-0.912,0.032-1.837,0.266-2.775,0.697c-0.923,0.424-1.709,0.926-2.36,1.507c-0.65,0.583-1.055,1.211-1.215,1.886
	c-0.159,0.676-0.057,1.409,0.306,2.199c0.299,0.648,0.715,1.178,1.247,1.588c0.532,0.41,1.283,0.754,2.252,1.032l-0.89,0.409
	c-0.87-0.301-1.583-0.702-2.142-1.203c-0.559-0.5-1.031-1.17-1.416-2.007c-0.506-1.102-0.734-2.18-0.686-3.236
	c0.048-1.056,0.378-2.006,0.992-2.851c0.613-0.845,1.386-1.48,2.319-1.909c0.983-0.452,2.035-0.623,3.153-0.516
	c1.119,0.107,2.123,0.488,3.012,1.14c0.889,0.649,1.559,1.468,2.011,2.451c0.334,0.727,0.528,1.563,0.584,2.514
	c0.033,0.551,0.077,0.891,0.135,1.018c0.075,0.162,0.199,0.273,0.373,0.338c0.174,0.065,0.398,0.057,0.674-0.025L58.506,144.605z"/>
<path fill="#66376D" d="M72.547,156.747l-0.417,4.603l0.226,0.021c0.716,0.064,1.257-0.112,1.62-0.533
	c0.363-0.422,0.628-1.065,0.797-1.938l0.316,0.028l-0.536,5.92l-0.316-0.029c-0.009-0.65-0.102-1.189-0.278-1.621
	c-0.176-0.431-0.4-0.729-0.67-0.896c-0.271-0.168-0.677-0.275-1.215-0.324l-0.289,3.186c-0.056,0.621-0.063,1.004-0.025,1.148
	c0.041,0.145,0.129,0.268,0.265,0.367c0.138,0.103,0.367,0.168,0.689,0.196l0.675,0.063c1.056,0.095,1.924-0.072,2.606-0.504
	c0.68-0.432,1.205-1.134,1.572-2.109l0.31,0.027l-0.834,3.548l-9.771-0.887l0.028-0.31l0.375,0.033
	c0.328,0.03,0.597-0.004,0.808-0.104c0.151-0.063,0.275-0.188,0.371-0.369c0.072-0.129,0.134-0.476,0.186-1.043l0.674-7.437
	c0.046-0.511,0.06-0.826,0.044-0.945c-0.038-0.198-0.128-0.356-0.268-0.479c-0.197-0.175-0.479-0.277-0.846-0.313l-0.376-0.032
	l0.028-0.31l9.461,0.856l-0.303,3.343l-0.316-0.029c-0.084-0.83-0.26-1.438-0.52-1.817c-0.259-0.383-0.648-0.683-1.167-0.896
	c-0.302-0.129-0.881-0.231-1.736-0.31L72.547,156.747z"/>
<path fill="#66376D" d="M58.968,157.712l-3.275-2.313l-1.027,0.629c-0.34,0.21-0.58,0.414-0.718,0.608
	c-0.184,0.262-0.214,0.524-0.091,0.798c0.072,0.159,0.337,0.428,0.794,0.808l-0.179,0.252l-3.085-2.178l0.179-0.252
	c0.369,0.186,0.74,0.238,1.114,0.165c0.374-0.074,0.967-0.354,1.78-0.838l8.54-5.061l0.129,0.09l-2.023,9.966
	c-0.188,0.944-0.247,1.586-0.174,1.916c0.056,0.25,0.217,0.487,0.483,0.709l-0.179,0.254L56.75,160.1l0.179-0.252l0.185,0.13
	c0.359,0.253,0.648,0.382,0.865,0.385c0.152-0.003,0.276-0.07,0.373-0.208c0.058-0.081,0.104-0.176,0.138-0.282
	c0.02-0.047,0.072-0.267,0.157-0.657L58.968,157.712z M59.093,157.042l0.872-4.168l-3.677,2.189L59.093,157.042z"/>
<path fill="#66376D" d="M87.972,154.474l1.452,3.494l-0.319,0.123c-0.494-0.824-1.141-1.394-1.938-1.701
	c-0.8-0.312-1.542-0.332-2.229-0.066c-0.529,0.206-0.896,0.512-1.097,0.915c-0.198,0.402-0.228,0.79-0.084,1.159
	c0.091,0.234,0.228,0.421,0.405,0.563c0.246,0.187,0.582,0.334,1.007,0.443c0.313,0.076,0.994,0.162,2.05,0.256
	c1.473,0.129,2.53,0.381,3.172,0.756c0.639,0.375,1.09,0.91,1.359,1.608c0.344,0.884,0.293,1.778-0.148,2.685
	c-0.441,0.903-1.193,1.563-2.254,1.975c-0.334,0.128-0.662,0.217-0.984,0.264c-0.323,0.048-0.744,0.063-1.264,0.052
	c-0.291-0.009-0.519,0.021-0.68,0.082c-0.135,0.054-0.258,0.159-0.367,0.321c-0.111,0.164-0.172,0.37-0.183,0.619l-0.29,0.112
	l-1.548-3.998l0.288-0.111c0.664,1.036,1.438,1.723,2.318,2.059c0.881,0.338,1.699,0.36,2.453,0.067
	c0.584-0.226,0.986-0.563,1.209-1.015c0.225-0.452,0.254-0.89,0.09-1.312c-0.097-0.25-0.258-0.466-0.479-0.647
	c-0.227-0.183-0.512-0.325-0.863-0.433c-0.354-0.104-0.938-0.194-1.755-0.268c-1.146-0.103-1.994-0.236-2.545-0.405
	c-0.551-0.171-1.021-0.415-1.403-0.739c-0.385-0.323-0.675-0.73-0.865-1.228c-0.326-0.842-0.295-1.681,0.095-2.513
	c0.39-0.834,1.055-1.435,1.995-1.8c0.344-0.133,0.693-0.219,1.048-0.262c0.271-0.031,0.61-0.031,1.028,0
	c0.416,0.033,0.693,0.021,0.836-0.031c0.136-0.054,0.226-0.135,0.271-0.248c0.046-0.113,0.041-0.344-0.014-0.688L87.972,154.474z"/>
<path fill="#66376D" d="M107.526,142.353l3.125,0.59c0.604,0.114,0.99,0.149,1.162,0.104c0.17-0.045,0.317-0.15,0.447-0.318
	c0.127-0.17,0.239-0.509,0.338-1.02l0.303,0.058l-1.077,5.708l-0.306-0.059c0.1-0.516,0.117-0.873,0.058-1.075
	c-0.063-0.201-0.162-0.354-0.306-0.457c-0.137-0.103-0.51-0.211-1.112-0.324l-7.237-1.366c-0.604-0.114-0.988-0.149-1.158-0.104
	c-0.172,0.045-0.32,0.149-0.449,0.319c-0.127,0.168-0.239,0.508-0.338,1.019l-0.305-0.058l0.979-5.182
	c0.256-1.351,0.535-2.318,0.841-2.908c0.304-0.591,0.743-1.035,1.319-1.335c0.578-0.301,1.201-0.387,1.877-0.26
	c0.822,0.155,1.445,0.58,1.873,1.273c0.268,0.441,0.422,1.02,0.463,1.73l4.283-1.969c0.557-0.261,0.904-0.45,1.055-0.576
	c0.214-0.191,0.354-0.437,0.429-0.729l0.304,0.059l-0.662,3.511l-5.763,2.637L107.526,142.353z M102.058,141.32l4.885,0.923
	l0.09-0.469c0.146-0.762,0.183-1.346,0.113-1.75c-0.068-0.404-0.265-0.749-0.59-1.035c-0.324-0.285-0.775-0.481-1.363-0.595
	c-0.852-0.16-1.518-0.08-1.996,0.241c-0.48,0.319-0.805,0.922-0.973,1.805L102.058,141.32z"/>
<path fill="#66376D" d="M101.827,154.845l-2.637,3.021l0.521,1.086c0.173,0.358,0.353,0.617,0.532,0.775
	c0.24,0.209,0.502,0.268,0.783,0.172c0.166-0.055,0.461-0.29,0.884-0.706l0.233,0.203l-2.481,2.845l-0.233-0.203
	c0.221-0.348,0.313-0.711,0.279-1.09c-0.036-0.38-0.255-0.998-0.652-1.856l-4.156-9.013l0.104-0.121l9.704,3.035
	c0.923,0.284,1.552,0.408,1.891,0.369c0.256-0.029,0.508-0.164,0.754-0.408l0.233,0.205l-3.608,4.137l-0.232-0.202l0.148-0.17
	c0.289-0.332,0.444-0.605,0.472-0.821c0.014-0.149-0.042-0.281-0.169-0.393c-0.076-0.065-0.166-0.12-0.268-0.166
	c-0.047-0.023-0.26-0.1-0.639-0.225L101.827,154.845z M101.173,154.652l-4.058-1.295l1.801,3.881L101.173,154.652z"/>
</svg>
