<?xml version="1.0" encoding="utf-8"?>
<!-- Generator: Adobe Illustrator 15.1.0, SVG Export Plug-In . SVG Version: 6.00 Build 0)  -->
<!DOCTYPE svg PUBLIC "-//W3C//DTD SVG 1.1//EN" "http://www.w3.org/Graphics/SVG/1.1/DTD/svg11.dtd">
<svg version="1.1" id="Layer_1" xmlns="http://www.w3.org/2000/svg" xmlns:xlink="http://www.w3.org/1999/xlink" x="0px" y="0px"
	 width="340.903px" height="212.598px" viewBox="0 0 340.903 212.598" enable-background="new 0 0 340.903 212.598"
	 xml:space="preserve">
<g>
	<g>
		<g>
			<path fill="#398F3B" d="M13.217,183.74c-0.865,0.443-1.635,0.749-2.303,0.916c-0.666,0.164-1.455,0.249-2.357,0.249
				c-2.194,0-4.025-0.721-5.481-2.157c-1.46-1.438-2.19-3.237-2.19-5.406c0-2.37,0.774-4.338,2.322-5.903
				c1.55-1.569,3.491-2.353,5.819-2.353c0.737,0,1.416,0.056,2.032,0.159c0.616,0.113,1.252,0.288,1.905,0.537v2.537
				c-0.591-0.445-1.252-0.785-1.973-1.019c-0.72-0.231-1.462-0.354-2.228-0.354c-1.529,0-2.8,0.576-3.814,1.729
				c-1.014,1.152-1.522,2.591-1.522,4.317c0,1.734,0.478,3.182,1.435,4.331c0.957,1.147,2.154,1.726,3.589,1.726
				c0.963,0,1.82-0.137,2.57-0.422c0.749-0.279,1.52-0.752,2.317-1.416L13.217,183.74z"/>
		</g>
		<g>
			<path fill="#398F3B" d="M15.02,183.411c-0.895-0.998-1.342-2.247-1.342-3.751c0-1.686,0.496-3.086,1.493-4.208
				c0.997-1.109,2.243-1.674,3.739-1.674c1.352,0,2.475,0.498,3.366,1.499c0.891,1.002,1.337,2.252,1.337,3.755
				c0,1.687-0.496,3.086-1.489,4.198c-0.993,1.114-2.241,1.671-3.742,1.671C17.034,184.906,15.913,184.408,15.02,183.411z
				 M20.892,182.088c0.336-0.646,0.504-1.396,0.504-2.259c0-1.359-0.327-2.445-0.979-3.263c-0.655-0.825-1.541-1.25-2.655-1.289
				c-0.577,0.234-1.031,0.679-1.37,1.327c-0.335,0.654-0.501,1.407-0.501,2.267c0,1.357,0.325,2.442,0.979,3.263
				c0.653,0.813,1.54,1.24,2.656,1.283C20.099,183.176,20.554,182.732,20.892,182.088z"/>
			<path fill="#398F3B" d="M24.993,181.556v-4.418c0-0.578-0.034-1.103-0.097-1.555c-0.066-0.458-0.183-0.976-0.353-1.557h1.284
				h1.29v1.851l1.618-1.861c0.549-0.148,1.006-0.222,1.371-0.222c0.967,0,1.701,0.3,2.205,0.905
				c0.501,0.605,0.752,1.482,0.752,2.639v4.22c0,0.887,0.03,1.554,0.083,2.012c0.055,0.455,0.155,0.821,0.302,1.104h-1.479h-1.48
				c0.17-0.322,0.289-0.719,0.353-1.177c0.063-0.46,0.098-1.107,0.098-1.938v-3.931c0-0.622-0.143-1.084-0.43-1.387
				c-0.289-0.301-0.731-0.457-1.322-0.457c-0.404,0-0.934,0.149-1.588,0.453l-0.483,0.219v5.102c0,0.829,0.036,1.469,0.102,1.922
				c0.068,0.455,0.189,0.85,0.357,1.191h-1.514h-1.518c0.17-0.324,0.287-0.719,0.353-1.177
				C24.963,183.038,24.993,182.391,24.993,181.556z"/>
			<path fill="#398F3B" d="M36.933,181.819c0,0.181,0.11,0.338,0.334,0.468c0.221,0.127,0.493,0.193,0.823,0.193h2.292
				c0.914,0,1.583,0.187,2.009,0.566c0.421,0.381,0.636,0.98,0.636,1.807c0,0.919-0.444,1.688-1.331,2.323
				c-0.889,0.635-1.978,0.944-3.263,0.944c-1.306,0-2.285-0.131-2.938-0.39c-0.654-0.255-0.978-0.646-0.978-1.159
				c0-0.261,0.13-0.557,0.391-0.874c0.262-0.323,0.785-0.843,1.567-1.55c-0.548-0.045-0.982-0.136-1.303-0.276
				c-0.438-0.188-0.657-0.479-0.657-0.855c0-0.294,0.117-0.549,0.353-0.775c0.234-0.228,0.853-0.685,1.86-1.374
				c-0.387-0.158-0.74-0.393-1.059-0.68c-0.712-0.657-1.067-1.475-1.067-2.458c0-1.122,0.355-2.062,1.067-2.806
				c0.71-0.749,1.607-1.118,2.685-1.118c0.823,0,1.545,0.208,2.166,0.628h1.097c0.425,0,0.842-0.021,1.248-0.06
				c0.408-0.042,0.697-0.086,0.868-0.134l-0.226,1.685l-1.725,0.013c0.221,0.474,0.334,1.018,0.334,1.624
				c0,1.038-0.357,1.904-1.074,2.593c-0.715,0.688-1.611,1.032-2.689,1.032c-0.274,0-0.538-0.021-0.795-0.065
				c-0.176,0.078-0.327,0.188-0.451,0.331C36.994,181.564,36.933,181.693,36.933,181.819z M38.236,175.275
				c-0.496,0-0.895,0.179-1.197,0.534c-0.299,0.355-0.45,0.833-0.45,1.416c0,0.673,0.185,1.251,0.552,1.729
				c0.37,0.48,0.814,0.724,1.329,0.724h-0.011c0.51,0,0.917-0.175,1.216-0.522c0.3-0.352,0.451-0.823,0.451-1.416
				c0-0.687-0.18-1.271-0.544-1.741c-0.361-0.479-0.808-0.719-1.337-0.719L38.236,175.275L38.236,175.275z M36.709,185.276
				c0,0.389,0.159,0.667,0.485,0.85c0.325,0.183,0.825,0.274,1.505,0.274c0.744,0,1.295-0.096,1.649-0.287
				c0.355-0.195,0.534-0.489,0.534-0.889c0-0.323-0.13-0.585-0.385-0.776c-0.255-0.195-0.599-0.291-1.035-0.291h-2.096
				c-0.183,0.117-0.338,0.287-0.466,0.495C36.771,184.873,36.709,185.082,36.709,185.276z"/>
			<path fill="#398F3B" d="M48.489,184.906c-1.47,0-2.677-0.49-3.614-1.475c-0.939-0.98-1.412-2.243-1.412-3.781
				c0-1.678,0.41-3.076,1.239-4.192c0.827-1.108,1.86-1.665,3.101-1.665h0.019c1.214,0,2.149,0.416,2.806,1.264
				c0.657,0.842,0.984,2.046,0.984,3.604v0.957h-5.896c0.104,0.965,0.387,1.771,0.842,2.413c0.58,0.811,1.373,1.212,2.369,1.212
				c0.452,0,0.896-0.06,1.33-0.18c0.438-0.119,0.836-0.289,1.188-0.502l-0.844,2.048c-0.463,0.121-0.838,0.203-1.121,0.239
				C49.193,184.888,48.866,184.906,48.489,184.906z M49.873,178.135c-0.006-0.93-0.18-1.638-0.514-2.121
				c-0.334-0.489-0.829-0.739-1.473-0.739h0.01c-0.705,0-1.252,0.303-1.639,0.905c-0.308,0.481-0.49,1.131-0.559,1.955H49.873z"/>
			<path fill="#398F3B" d="M53.156,181.556v-4.418c0-0.578-0.034-1.103-0.098-1.555c-0.065-0.458-0.184-0.976-0.354-1.557h1.284
				h1.291v1.851l1.616-1.861c0.549-0.148,1.006-0.222,1.373-0.222c0.967,0,1.701,0.3,2.205,0.905
				c0.502,0.605,0.752,1.482,0.752,2.639v4.22c0,0.887,0.028,1.554,0.082,2.012c0.056,0.455,0.155,0.821,0.303,1.104h-1.48h-1.48
				c0.17-0.322,0.287-0.719,0.354-1.177c0.064-0.46,0.098-1.107,0.098-1.938v-3.931c0-0.622-0.141-1.084-0.432-1.387
				c-0.289-0.303-0.729-0.457-1.32-0.457c-0.404,0-0.933,0.149-1.588,0.453l-0.482,0.219v5.102c0,0.829,0.035,1.469,0.102,1.922
				c0.068,0.455,0.188,0.85,0.357,1.191h-1.518h-1.518c0.17-0.324,0.287-0.719,0.354-1.177
				C53.122,183.036,53.156,182.391,53.156,181.556z"/>
			<path fill="#398F3B" d="M63.26,181.556v-4.418c0-0.576-0.035-1.094-0.099-1.551c-0.063-0.456-0.183-0.979-0.353-1.565h1.518
				h1.518c-0.166,0.338-0.289,0.737-0.356,1.197c-0.066,0.457-0.103,1.102-0.103,1.92v4.418c0,0.829,0.036,1.469,0.103,1.922
				c0.067,0.455,0.19,0.85,0.356,1.191h-1.518h-1.518c0.17-0.323,0.287-0.719,0.353-1.177
				C63.229,183.038,63.26,182.391,63.26,181.556z M64.277,169.573c0.398,0,0.736,0.162,1.018,0.483
				c0.278,0.318,0.417,0.712,0.417,1.178s-0.138,0.852-0.417,1.172c-0.277,0.319-0.619,0.479-1.018,0.479
				c-0.4,0-0.743-0.155-1.02-0.479c-0.277-0.313-0.414-0.706-0.414-1.172c0-0.465,0.135-0.854,0.414-1.178
				C63.537,169.735,63.875,169.573,64.277,169.573z"/>
			<path fill="#398F3B" d="M70.126,184.906c-0.84,0-1.448-0.247-1.827-0.746c-0.382-0.493-0.574-1.286-0.574-2.379v-6.29h-1.509
				v-0.004l3.618-3.816h0.018v2.348h2.479v1.47h-2.479v5.395c0,0.719,0.123,1.258,0.369,1.613c0.243,0.354,0.611,0.533,1.104,0.533
				c0.302,0,0.576-0.041,0.828-0.108c0.25-0.07,0.554-0.201,0.906-0.385l-0.842,2.047c-0.371,0.128-0.697,0.21-0.974,0.248
				C70.956,184.883,70.586,184.906,70.126,184.906z"/>
			<path fill="#398F3B" d="M75.998,184.906c-1.038,0-1.839-0.221-2.4-0.665c-0.562-0.442-0.842-1.081-0.842-1.904
				c0-0.549,0.2-1.063,0.594-1.546c0.396-0.488,0.931-0.866,1.601-1.146l3.136-1.295v-0.967c0-0.578-0.179-1.048-0.538-1.388
				c-0.36-0.342-0.842-0.513-1.452-0.513c-0.393,0-0.77,0.063-1.137,0.2c-0.365,0.134-0.763,0.353-1.201,0.661l0.584-2.043
				c0.418-0.178,0.823-0.31,1.215-0.392c0.392-0.077,0.791-0.124,1.197-0.124c1.15,0,2.012,0.301,2.592,0.902
				c0.575,0.601,0.867,1.499,0.867,2.698v4.171c0,0.887,0.027,1.554,0.083,2.013c0.054,0.454,0.153,0.82,0.3,1.104h-1.254h-1.255
				v-1.02l-1.655,1.235L75.998,184.906z M78.085,183.057v-2.933h-2.743c-0.066,0-0.148,0.199-0.251,0.594
				c-0.1,0.395-0.151,0.727-0.151,0.99c0,0.509,0.164,0.882,0.49,1.135c0.322,0.248,0.815,0.378,1.467,0.378
				c0.404,0,0.795-0.058,1.164-0.165L78.085,183.057L78.085,183.057z"/>
			<path fill="#398F3B" d="M82.182,181.556v-8.425c0-0.694-0.031-1.269-0.098-1.726c-0.066-0.463-0.184-0.928-0.354-1.392
				l1.519-0.309l1.519-0.311c-0.17,0.487-0.289,1.02-0.357,1.615s-0.102,1.404-0.102,2.432v8.111c0,0.829,0.033,1.469,0.102,1.922
				c0.068,0.455,0.188,0.849,0.357,1.191h-1.517h-1.519c0.17-0.324,0.287-0.72,0.354-1.177
				C82.152,183.036,82.182,182.391,82.182,181.556z"/>
			<path fill="#398F3B" d="M93.335,180.223l5.251-11.205h0.006l5.252,11.205c0.607,1.286,1.105,2.258,1.49,2.905
				c0.387,0.656,0.764,1.167,1.135,1.541h-1.904h-1.904c0.078-0.308,0.04-0.783-0.113-1.438c-0.152-0.648-0.396-1.358-0.719-2.119
				l-0.501-1.186h-5.679l-0.072,0.221c-0.393,0.915-0.693,1.804-0.901,2.68c-0.208,0.871-0.266,1.486-0.176,1.838h-1.918h-1.929
				c0.418-0.414,0.826-0.947,1.215-1.605C92.257,182.411,92.747,181.461,93.335,180.223z M96.486,177.97h4.008l-1.997-4.639h-0.011
				L96.486,177.97z"/>
			<path fill="#398F3B" d="M107.398,181.556v-4.418c0-0.578-0.037-1.103-0.101-1.555c-0.063-0.458-0.183-0.976-0.353-1.557h1.283
				h1.293v1.851l1.615-1.861c0.549-0.148,1.006-0.222,1.371-0.222c0.967,0,1.701,0.3,2.205,0.905
				c0.501,0.605,0.754,1.482,0.754,2.639v4.22c0,0.887,0.028,1.554,0.084,2.012c0.053,0.455,0.152,0.821,0.299,1.104h-1.479h-1.478
				c0.168-0.322,0.287-0.719,0.353-1.177c0.062-0.46,0.099-1.107,0.099-1.938v-3.931c0-0.622-0.145-1.084-0.432-1.387
				c-0.287-0.301-0.729-0.457-1.322-0.457c-0.404,0-0.934,0.149-1.588,0.453l-0.482,0.219v5.102c0,0.829,0.035,1.469,0.104,1.922
				c0.066,0.455,0.188,0.85,0.357,1.191h-1.519h-1.521c0.17-0.324,0.289-0.719,0.355-1.177
				C107.361,183.038,107.398,182.391,107.398,181.556z"/>
			<path fill="#398F3B" d="M118.041,183.411c-0.895-0.998-1.342-2.247-1.342-3.751c0-1.686,0.496-3.086,1.492-4.208
				c0.998-1.109,2.244-1.674,3.74-1.674c1.353,0,2.471,0.498,3.365,1.499c0.891,1.002,1.338,2.252,1.338,3.755
				c0,1.687-0.496,3.086-1.488,4.198c-0.994,1.114-2.241,1.671-3.742,1.671C120.055,184.906,118.934,184.408,118.041,183.411z
				 M123.911,182.088c0.335-0.646,0.504-1.396,0.504-2.259c0-1.359-0.325-2.445-0.978-3.263c-0.655-0.825-1.541-1.25-2.655-1.289
				c-0.576,0.234-1.029,0.679-1.369,1.327c-0.336,0.654-0.502,1.407-0.502,2.267c0,1.357,0.325,2.442,0.979,3.263
				c0.653,0.813,1.537,1.24,2.655,1.283C123.12,183.176,123.575,182.732,123.911,182.088z"/>
			<path fill="#398F3B" d="M127.872,181.556v-4.418c0-0.576-0.035-1.094-0.099-1.551c-0.065-0.456-0.185-0.979-0.353-1.565h1.284
				h1.292v2.047l1.329-1.644l0.48-0.283c0.455-0.234,0.979-0.353,1.563-0.353c0.842,0,1.481,0.266,1.924,0.791
				c0.332,0.395,0.534,0.926,0.606,1.586l1.578-1.76l0.433-0.243c0.458-0.248,0.944-0.375,1.463-0.375
				c0.825,0,1.452,0.256,1.884,0.771c0.432,0.518,0.648,1.272,0.648,2.263v4.734c0,0.9,0.025,1.579,0.078,2.038
				c0.054,0.457,0.146,0.815,0.285,1.076h-1.467h-1.469c0.17-0.324,0.287-0.718,0.354-1.176c0.063-0.457,0.098-1.105,0.098-1.938
				v-4.064c0-0.576-0.135-1.006-0.4-1.284c-0.268-0.282-0.676-0.423-1.227-0.423c-0.51,0-1.074,0.177-1.689,0.52l-0.511,0.313v4.936
				c0,0.829,0.034,1.469,0.104,1.922c0.067,0.454,0.188,0.85,0.356,1.191h-1.526h-1.517c0.17-0.324,0.287-0.719,0.353-1.177
				c0.066-0.457,0.099-1.104,0.099-1.938v-4.053c0-0.58-0.134-1.015-0.399-1.29c-0.269-0.282-0.677-0.423-1.231-0.423
				c-0.47,0-1.043,0.184-1.728,0.542l-0.471,0.242v4.99c0,0.831,0.035,1.468,0.102,1.924c0.068,0.452,0.188,0.847,0.357,1.192
				h-1.516h-1.518c0.168-0.325,0.286-0.722,0.352-1.18C127.837,183.038,127.872,182.391,127.872,181.556z"/>
			<path fill="#398F3B" d="M146.508,184.906c-1.039,0-1.839-0.221-2.4-0.665c-0.563-0.442-0.842-1.081-0.842-1.904
				c0-0.549,0.201-1.063,0.594-1.546c0.396-0.488,0.931-0.866,1.601-1.146l3.138-1.295v-0.967c0-0.578-0.181-1.048-0.537-1.388
				c-0.365-0.342-0.842-0.513-1.455-0.513c-0.394,0-0.771,0.063-1.135,0.2c-0.367,0.134-0.766,0.353-1.201,0.661l0.584-2.043
				c0.418-0.178,0.824-0.31,1.217-0.392c0.394-0.077,0.789-0.124,1.197-0.124c1.147,0,2.01,0.301,2.59,0.902
				c0.576,0.601,0.865,1.499,0.865,2.698v4.171c0,0.887,0.03,1.554,0.086,2.013c0.053,0.454,0.152,0.82,0.299,1.104h-1.254H148.6
				v-1.02l-1.654,1.235L146.508,184.906z M148.596,183.057v-2.933h-2.742c-0.066,0-0.148,0.199-0.25,0.594
				c-0.103,0.393-0.151,0.727-0.151,0.99c0,0.509,0.164,0.882,0.489,1.135c0.324,0.248,0.818,0.378,1.467,0.378
				c0.404,0,0.793-0.058,1.167-0.165L148.596,183.057L148.596,183.057z"/>
			<path fill="#398F3B" d="M152.693,181.556v-8.425c0-0.694-0.035-1.269-0.1-1.726c-0.063-0.463-0.183-0.928-0.351-1.392
				l1.519-0.309l1.52-0.311c-0.17,0.487-0.292,1.02-0.357,1.615c-0.07,0.593-0.104,1.404-0.104,2.432v8.111
				c0,0.829,0.033,1.469,0.104,1.922c0.066,0.455,0.188,0.849,0.357,1.191h-1.52h-1.519c0.168-0.324,0.286-0.72,0.351-1.177
				C152.663,183.038,152.693,182.391,152.693,181.556z"/>
			<path fill="#398F3B" d="M164.182,177.138l-1.752,4.7c-0.673,1.787-1.285,3.143-1.822,4.064c-0.543,0.931-1.133,1.635-1.773,2.117
				h-2.814c0.728-0.578,1.356-1.221,1.883-1.911c0.533-0.688,1.051-1.563,1.558-2.611l0.285-0.526v0.005l-2.519-5.838
				c-0.293-0.684-0.576-1.26-0.854-1.717s-0.621-0.927-1.022-1.399h1.461h1.463c0.037,0.229,0.115,0.504,0.221,0.835
				c0.115,0.325,0.298,0.799,0.55,1.412l1.841,4.591l0,0l1.541-4.591c0.154-0.467,0.256-0.858,0.299-1.194
				c0.045-0.327,0.037-0.681-0.016-1.053h1.53h1.54c-0.311,0.403-0.576,0.84-0.814,1.293
				C164.727,175.774,164.467,176.378,164.182,177.138z"/>
			<path fill="#398F3B" d="M172.686,180.223v-6.456c0-0.959-0.043-1.766-0.123-2.42c-0.078-0.655-0.219-1.33-0.42-2.028h1.707h1.156
				c1.965,0,3.471,0.397,4.527,1.188c1.059,0.788,1.586,1.91,1.586,3.368c0,1.307-0.586,2.356-1.76,3.153
				c-0.375,0.24-0.779,0.458-1.215,0.649l1.107,1.662c0.531,0.776,1.111,1.554,1.752,2.338c0.643,0.781,1.518,1.78,2.613,2.991
				h-2.732c-0.789-0.665-1.713-1.624-2.768-2.87c-1.057-1.25-1.957-2.438-2.703-3.58l-0.398-0.613v2.612
				c0,0.966,0.039,1.777,0.119,2.434c0.08,0.653,0.221,1.325,0.42,2.014h-1.695h-1.707c0.199-0.676,0.33-1.346,0.408-1.991
				C172.647,182.022,172.686,181.201,172.686,180.223z M175.018,177.037c1.014-0.056,1.834-0.353,2.469-0.88
				c0.73-0.602,1.098-1.388,1.098-2.368c0-0.898-0.348-1.618-1.039-2.169c-0.646-0.504-1.486-0.777-2.525-0.824L175.018,177.037
				L175.018,177.037z"/>
			<path fill="#398F3B" d="M188.315,184.906c-1.469,0-2.676-0.49-3.615-1.475c-0.936-0.98-1.408-2.243-1.408-3.781
				c0-1.678,0.412-3.076,1.238-4.192c0.828-1.109,1.859-1.665,3.102-1.665h0.021c1.211,0,2.15,0.416,2.805,1.264
				c0.654,0.842,0.982,2.046,0.982,3.604v0.957h-5.891c0.104,0.965,0.385,1.771,0.842,2.413c0.58,0.811,1.375,1.212,2.369,1.212
				c0.453,0,0.895-0.06,1.334-0.18c0.438-0.119,0.838-0.289,1.186-0.502l-0.842,2.048c-0.467,0.121-0.842,0.203-1.121,0.239
				C189.036,184.888,188.692,184.906,188.315,184.906z M189.698,178.135c-0.002-0.93-0.174-1.638-0.51-2.121
				c-0.338-0.489-0.834-0.739-1.473-0.739h0.008c-0.703,0-1.25,0.303-1.637,0.905c-0.311,0.481-0.492,1.131-0.563,1.955H189.698z"/>
			<path fill="#398F3B" d="M194.793,181.819c0,0.181,0.111,0.338,0.332,0.468c0.221,0.127,0.492,0.193,0.822,0.193h2.293
				c0.916,0,1.582,0.187,2.008,0.566c0.418,0.381,0.639,0.98,0.639,1.807c0,0.919-0.445,1.688-1.334,2.323
				c-0.885,0.635-1.977,0.944-3.262,0.944c-1.307,0-2.283-0.131-2.938-0.39c-0.658-0.255-0.982-0.646-0.982-1.159
				c0-0.261,0.133-0.557,0.396-0.874c0.258-0.323,0.781-0.843,1.563-1.55c-0.549-0.045-0.982-0.136-1.303-0.276
				c-0.438-0.188-0.656-0.479-0.656-0.855c0-0.294,0.119-0.549,0.355-0.775c0.229-0.228,0.846-0.685,1.859-1.374
				c-0.395-0.158-0.742-0.393-1.059-0.68c-0.713-0.657-1.07-1.475-1.07-2.458c0-1.122,0.357-2.062,1.07-2.806
				c0.709-0.746,1.605-1.118,2.686-1.118c0.826,0,1.547,0.208,2.168,0.628h1.1c0.426,0,0.842-0.021,1.25-0.06
				c0.404-0.042,0.699-0.086,0.865-0.134l-0.225,1.685l-1.725,0.013c0.221,0.474,0.33,1.018,0.33,1.624
				c0,1.038-0.357,1.904-1.072,2.593c-0.719,0.688-1.615,1.032-2.691,1.032c-0.275,0-0.541-0.021-0.793-0.065
				c-0.18,0.078-0.324,0.188-0.451,0.331C194.856,181.564,194.793,181.693,194.793,181.819z M196.1,175.275
				c-0.496,0-0.898,0.179-1.197,0.534c-0.301,0.355-0.449,0.833-0.449,1.416c0,0.673,0.184,1.251,0.561,1.729
				c0.365,0.483,0.811,0.724,1.326,0.724h-0.016c0.51,0,0.92-0.175,1.215-0.522c0.303-0.352,0.449-0.823,0.449-1.416
				c0-0.687-0.18-1.271-0.543-1.741c-0.361-0.479-0.809-0.719-1.338-0.719L196.1,175.275L196.1,175.275z M194.573,185.276
				c0,0.389,0.156,0.667,0.486,0.85c0.32,0.183,0.824,0.274,1.502,0.274c0.746,0,1.295-0.096,1.65-0.287
				c0.354-0.195,0.535-0.489,0.535-0.889c0-0.323-0.133-0.585-0.391-0.776c-0.25-0.195-0.596-0.291-1.035-0.291h-2.094
				c-0.18,0.117-0.336,0.287-0.465,0.495C194.633,184.873,194.573,185.082,194.573,185.276z"/>
			<path fill="#398F3B" d="M201.979,181.556v-4.418c0-0.576-0.033-1.094-0.096-1.551c-0.066-0.456-0.186-0.979-0.355-1.565h1.518
				h1.521c-0.168,0.338-0.289,0.737-0.359,1.197c-0.063,0.457-0.102,1.102-0.102,1.92v4.418c0,0.829,0.039,1.469,0.102,1.922
				c0.07,0.455,0.191,0.85,0.359,1.191h-1.521h-1.518c0.17-0.323,0.287-0.719,0.355-1.177
				C201.948,183.038,201.979,182.391,201.979,181.556z M202.997,169.573c0.398,0,0.738,0.162,1.018,0.483
				c0.281,0.318,0.418,0.712,0.418,1.178s-0.137,0.852-0.418,1.172c-0.277,0.313-0.615,0.479-1.018,0.479s-0.744-0.155-1.018-0.479
				c-0.281-0.313-0.416-0.706-0.416-1.172c0-0.465,0.133-0.854,0.416-1.178C202.25,169.735,202.594,169.573,202.997,169.573z"/>
			<path fill="#398F3B" d="M211.096,176.295c-0.303-0.353-0.609-0.608-0.924-0.773c-0.314-0.164-0.664-0.245-1.043-0.245
				c-0.426,0-0.775,0.113-1.059,0.334c-0.277,0.222-0.42,0.498-0.42,0.831c0,0.327,0.094,0.626,0.287,0.885
				c0.184,0.26,0.533,0.588,1.043,0.99c0.867,0.67,1.48,1.263,1.83,1.774c0.344,0.498,0.516,1.042,0.516,1.638
				c0,0.915-0.314,1.673-0.955,2.273c-0.635,0.605-1.441,0.91-2.406,0.91c-0.527,0-0.98-0.035-1.357-0.097
				c-0.377-0.061-0.844-0.18-1.385-0.354v-2.542c0.408,0.496,0.822,0.866,1.232,1.108c0.408,0.243,0.832,0.366,1.268,0.366
				c0.418,0,0.762-0.125,1.035-0.37c0.277-0.245,0.412-0.556,0.412-0.929c0-0.305-0.113-0.587-0.328-0.871
				c-0.221-0.274-0.639-0.652-1.256-1.124c-0.779-0.606-1.336-1.154-1.648-1.645c-0.314-0.486-0.477-1.019-0.477-1.62
				c0-0.869,0.346-1.599,1.039-2.177c0.695-0.576,1.568-0.863,2.615-0.863c0.391,0,0.725,0.034,1.002,0.101
				c0.283,0.06,0.604,0.183,0.971,0.353L211.096,176.295L211.096,176.295z"/>
			<path fill="#398F3B" d="M215.272,184.906c-0.836,0-1.445-0.247-1.824-0.746c-0.385-0.493-0.576-1.286-0.576-2.379v-6.29h-1.508
				v-0.004l3.617-3.816h0.014v2.348h2.48v1.47h-2.48v5.395c0,0.719,0.129,1.258,0.371,1.613c0.242,0.354,0.607,0.533,1.104,0.533
				c0.305,0,0.576-0.041,0.832-0.108c0.25-0.07,0.555-0.201,0.906-0.385l-0.842,2.047c-0.373,0.128-0.697,0.21-0.975,0.248
				C216.114,184.883,215.741,184.906,215.272,184.906z"/>
			<path fill="#398F3B" d="M223.051,184.906c-1.467,0-2.676-0.49-3.615-1.475c-0.936-0.98-1.412-2.243-1.412-3.781
				c0-1.678,0.412-3.076,1.238-4.192c0.83-1.109,1.859-1.665,3.102-1.665h0.021c1.213,0,2.154,0.416,2.805,1.264
				c0.658,0.842,0.984,2.046,0.984,3.604v0.957h-5.891c0.105,0.965,0.387,1.771,0.842,2.413c0.578,0.811,1.373,1.212,2.369,1.212
				c0.451,0,0.896-0.06,1.332-0.18c0.439-0.119,0.838-0.289,1.191-0.502l-0.846,2.048c-0.467,0.121-0.842,0.203-1.121,0.239
				C223.77,184.888,223.424,184.906,223.051,184.906z M224.436,178.135c-0.006-0.93-0.18-1.638-0.514-2.121
				c-0.338-0.489-0.83-0.739-1.477-0.739h0.01c-0.701,0-1.25,0.303-1.637,0.905c-0.311,0.481-0.492,1.131-0.559,1.955H224.436z"/>
			<path fill="#398F3B" d="M227.762,181.556v-4.418c0-0.576-0.033-1.094-0.1-1.551c-0.059-0.456-0.182-0.979-0.352-1.565h1.285
				h1.287v1.896l1.654-1.861c0.488-0.18,0.959-0.266,1.41-0.266c0.373,0,0.688,0.067,0.947,0.221l-0.43,2.289l-0.098-0.07
				c-0.396-0.291-0.871-0.44-1.422-0.44c-0.4,0-0.932,0.153-1.588,0.454l-0.479,0.215v5.104c0,0.831,0.037,1.469,0.104,1.924
				c0.066,0.453,0.189,0.847,0.357,1.193h-1.518h-1.52c0.17-0.325,0.291-0.722,0.352-1.18
				C227.735,183.038,227.762,182.391,227.762,181.556z"/>
			<path fill="#398F3B" d="M242.94,175.49v6.067c0,0.829,0.039,1.47,0.107,1.922c0.064,0.453,0.188,0.85,0.357,1.191h-1.52h-1.521
				c0.168-0.324,0.285-0.72,0.354-1.177c0.061-0.457,0.1-1.104,0.1-1.938v-6.068h-1.154v-0.034l0.77-1.438h0.387v-0.85
				c0-1.206,0.313-2.15,0.945-2.818c0.635-0.671,1.523-1.015,2.664-1.015c0.396,0,0.752,0.029,1.061,0.072
				c0.313,0.045,0.625,0.133,0.947,0.249l-0.498,2.105c-0.277-0.313-0.535-0.547-0.785-0.688c-0.242-0.146-0.502-0.222-0.77-0.222
				c-0.486,0-0.844,0.146-1.084,0.445c-0.24,0.301-0.359,0.748-0.359,1.351v1.372h2.137v1.469L242.94,175.49L242.94,175.49z"/>
			<path fill="#398F3B" d="M246.407,183.411c-0.895-0.998-1.346-2.247-1.346-3.751c0-1.686,0.496-3.086,1.492-4.208
				c0.998-1.109,2.246-1.674,3.736-1.674c1.355,0,2.479,0.498,3.365,1.499c0.895,1.002,1.342,2.252,1.342,3.755
				c0,1.687-0.494,3.086-1.488,4.198c-0.994,1.114-2.24,1.671-3.744,1.671C248.418,184.906,247.301,184.408,246.407,183.411z
				 M252.28,182.088c0.334-0.646,0.498-1.396,0.498-2.259c0-1.359-0.322-2.445-0.975-3.263c-0.658-0.825-1.545-1.25-2.656-1.289
				c-0.576,0.234-1.029,0.679-1.373,1.327c-0.336,0.654-0.502,1.407-0.502,2.267c0,1.357,0.326,2.442,0.98,3.263
				c0.654,0.813,1.539,1.24,2.654,1.283C251.485,183.176,251.94,182.732,252.28,182.088z"/>
			<path fill="#398F3B" d="M256.434,181.556v-4.418c0-0.576-0.037-1.094-0.1-1.551c-0.066-0.456-0.184-0.979-0.354-1.565h1.285
				h1.291v1.896l1.652-1.861c0.486-0.18,0.959-0.266,1.41-0.266c0.375,0,0.688,0.067,0.947,0.221l-0.432,2.289l-0.1-0.07
				c-0.396-0.291-0.871-0.44-1.418-0.44c-0.402,0-0.932,0.153-1.588,0.454l-0.479,0.215v5.104c0,0.831,0.037,1.469,0.104,1.924
				c0.068,0.453,0.188,0.847,0.357,1.193h-1.52h-1.518c0.17-0.325,0.287-0.722,0.352-1.18
				C256.399,183.038,256.434,182.391,256.434,181.556z"/>
		</g>
		<g>
			<path fill="#398F3B" d="M3.042,206.698c-1.437-1.528-2.156-3.438-2.156-5.746c0-2.233,0.765-4.091,2.298-5.566
				c1.531-1.478,3.451-2.219,5.755-2.219c2.175,0,3.98,0.764,5.417,2.292s2.158,3.441,2.158,5.748c0,2.229-0.765,4.08-2.298,5.559
				c-1.533,1.48-3.453,2.222-5.764,2.222C6.282,208.987,4.482,208.223,3.042,206.698z M12.541,205.542
				c0.955-1.057,1.435-2.374,1.435-3.963c0-1.881-0.525-3.441-1.573-4.688c-1.049-1.241-2.364-1.864-3.951-1.864
				c-1.439,0-2.634,0.527-3.59,1.581c-0.957,1.055-1.436,2.379-1.436,3.97c0,1.877,0.525,3.435,1.572,4.68
				c1.046,1.246,2.36,1.864,3.941,1.864C10.383,207.123,11.582,206.596,12.541,205.542z"/>
		</g>
		<g>
			<path fill="#398F3B" d="M19.089,205.637l1.481-2.271l-1.328-2.146c-0.494-0.775-0.927-1.396-1.291-1.853
				c-0.364-0.458-0.768-0.877-1.205-1.262h1.646h1.656c0.027,0.318,0.113,0.641,0.255,0.967c0.143,0.327,0.381,0.752,0.706,1.276
				l0.757,1.211l0.78-1.211c0.331-0.509,0.572-0.933,0.715-1.259c0.14-0.331,0.233-0.661,0.274-0.983h1.462h1.463
				c-0.404,0.352-0.791,0.753-1.157,1.21c-0.366,0.458-0.812,1.093-1.341,1.903l-1.206,1.93l1.552,2.487
				c0.568,0.9,1.021,1.578,1.367,2.038c0.343,0.459,0.666,0.815,0.966,1.077h-1.569h-1.569c-0.025-0.316-0.11-0.645-0.253-0.97
				c-0.144-0.322-0.381-0.75-0.706-1.272l-0.955-1.528l-0.967,1.528c-0.319,0.502-0.55,0.918-0.691,1.25
				c-0.138,0.327-0.221,0.66-0.251,0.992h-1.495h-1.507c0.262-0.222,0.574-0.562,0.931-1.019
				C17.96,207.275,18.454,206.578,19.089,205.637z"/>
			<path fill="#398F3B" d="M29.987,199.573v6.065c0,0.829,0.034,1.468,0.102,1.924c0.068,0.453,0.188,0.846,0.357,1.189h-1.518
				H27.41c0.168-0.322,0.287-0.719,0.353-1.179c0.062-0.457,0.098-1.104,0.098-1.937v-6.065h-1.157v-0.034l0.772-1.439h0.385v-0.853
				c0-1.204,0.314-2.149,0.948-2.818c0.636-0.673,1.524-1.014,2.664-1.014c0.399,0,0.752,0.025,1.063,0.074
				c0.31,0.045,0.625,0.132,0.946,0.25l-0.5,2.104c-0.274-0.312-0.536-0.547-0.782-0.688c-0.249-0.146-0.505-0.221-0.773-0.221
				c-0.487,0-0.844,0.146-1.083,0.441c-0.238,0.301-0.357,0.753-0.357,1.35v1.372h2.134v1.465h-2.134L29.987,199.573L29.987,199.573
				z"/>
			<path fill="#398F3B" d="M33.451,207.491c-0.895-0.997-1.342-2.247-1.342-3.75c0-1.683,0.495-3.086,1.492-4.205
				c0.997-1.113,2.243-1.677,3.74-1.677c1.352,0,2.473,0.5,3.366,1.499c0.891,1.006,1.337,2.256,1.337,3.756
				c0,1.686-0.496,3.08-1.488,4.198c-0.993,1.117-2.241,1.674-3.742,1.674C35.463,208.987,34.343,208.488,33.451,207.491z
				 M39.322,206.168c0.336-0.644,0.504-1.396,0.504-2.256c0-1.361-0.328-2.449-0.98-3.268c-0.655-0.825-1.541-1.25-2.655-1.285
				c-0.576,0.231-1.031,0.675-1.369,1.326c-0.336,0.651-0.502,1.403-0.502,2.264c0,1.36,0.325,2.443,0.98,3.261
				c0.653,0.821,1.537,1.249,2.655,1.284C38.531,207.253,38.984,206.814,39.322,206.168z"/>
			<path fill="#398F3B" d="M43.477,205.637v-4.418c0-0.576-0.034-1.094-0.098-1.551c-0.066-0.457-0.183-0.979-0.353-1.563h1.285
				h1.291v1.89l1.656-1.859c0.487-0.18,0.957-0.267,1.412-0.267c0.373,0,0.688,0.072,0.948,0.22l-0.431,2.292l-0.099-0.066
				c-0.399-0.295-0.872-0.442-1.42-0.442c-0.401,0-0.931,0.153-1.588,0.453l-0.479,0.219v5.104c0,0.83,0.033,1.467,0.102,1.923
				c0.068,0.452,0.188,0.847,0.357,1.19h-1.519h-1.518c0.17-0.322,0.287-0.72,0.353-1.179
				C43.444,207.117,43.477,206.47,43.477,205.637z"/>
			<path fill="#398F3B" d="M54.004,208.987c-1.313,0-2.352-0.411-3.119-1.237c-0.768-0.822-1.152-1.935-1.152-3.337
				c0-1.878,0.531-3.435,1.594-4.678c1.059-1.243,2.391-1.866,3.992-1.866c0.43,0,0.834,0.058,1.201,0.176v-0.833
				c0-0.689-0.031-1.268-0.098-1.725c-0.066-0.461-0.183-0.927-0.354-1.39l1.49-0.31l1.5-0.311
				c-0.158,0.432-0.264,0.941-0.324,1.539c-0.057,0.596-0.088,1.431-0.088,2.512v8.107c0,0.832,0.035,1.47,0.102,1.922
				c0.068,0.457,0.188,0.848,0.357,1.192h-1.291h-1.293v-1.45l-1.262,1.43C54.764,208.907,54.35,208.99,54.004,208.987z
				 M54.587,199.375c-0.944,0-1.63,0.32-2.047,0.966s-0.627,1.691-0.627,3.146c0,1.162,0.253,2.081,0.759,2.77
				c0.504,0.682,1.189,1.021,2.053,1.021c0.418,0,0.806-0.078,1.164-0.235l0.627-0.33v-6.719
				C56.025,199.581,55.378,199.375,54.587,199.375z"/>
			<path fill="#398F3B" d="M65.605,200.374c-0.301-0.353-0.605-0.608-0.92-0.771c-0.311-0.16-0.666-0.242-1.045-0.242
				c-0.424,0-0.776,0.11-1.058,0.329c-0.282,0.222-0.421,0.497-0.421,0.836c0,0.325,0.093,0.621,0.285,0.882
				c0.183,0.26,0.531,0.587,1.046,0.993c0.866,0.667,1.478,1.262,1.83,1.771c0.345,0.5,0.517,1.047,0.517,1.64
				c0,0.915-0.316,1.674-0.955,2.274c-0.64,0.604-1.438,0.906-2.406,0.906c-0.528,0-0.981-0.037-1.358-0.096
				c-0.376-0.062-0.837-0.18-1.386-0.357V206c0.412,0.498,0.824,0.869,1.234,1.109c0.413,0.236,0.836,0.361,1.268,0.361
				c0.416,0,0.763-0.125,1.037-0.37c0.277-0.241,0.414-0.559,0.414-0.927c0-0.303-0.11-0.592-0.334-0.871
				c-0.215-0.274-0.631-0.655-1.252-1.125c-0.785-0.606-1.336-1.157-1.651-1.645c-0.313-0.487-0.474-1.018-0.474-1.615
				c0-0.875,0.349-1.604,1.041-2.18c0.695-0.576,1.569-0.867,2.621-0.867c0.385,0,0.717,0.035,0.998,0.103
				c0.281,0.061,0.604,0.184,0.971,0.354v2.047H65.605L65.605,200.374z"/>
			<path fill="#398F3B" d="M67.081,205.637v-8.427c0-0.689-0.034-1.267-0.099-1.724c-0.063-0.462-0.182-0.927-0.353-1.391
				l1.519-0.309l1.52-0.311c-0.17,0.485-0.291,1.017-0.357,1.614c-0.067,0.598-0.104,1.406-0.104,2.435v2.432l1.618-1.863
				c0.549-0.146,1.006-0.223,1.372-0.223c0.967,0,1.701,0.31,2.205,0.91c0.504,0.602,0.754,1.482,0.754,2.637v4.223
				c0,0.89,0.027,1.559,0.08,2.012c0.057,0.455,0.156,0.823,0.303,1.104h-1.48H72.58c0.17-0.322,0.289-0.72,0.354-1.179
				c0.063-0.457,0.1-1.108,0.1-1.938v-3.931c0-0.618-0.143-1.087-0.432-1.385c-0.291-0.302-0.731-0.46-1.322-0.46
				c-0.404,0-0.934,0.154-1.588,0.453l-0.483,0.222v5.101c0,0.831,0.036,1.468,0.104,1.924c0.065,0.453,0.188,0.848,0.356,1.19
				h-1.521h-1.52c0.17-0.323,0.289-0.72,0.354-1.179S67.081,206.47,67.081,205.637z"/>
			<path fill="#398F3B" d="M77.254,205.637v-4.418c0-0.576-0.033-1.094-0.098-1.551c-0.063-0.457-0.184-0.979-0.354-1.563h1.519
				h1.518c-0.168,0.336-0.288,0.737-0.354,1.196c-0.066,0.46-0.103,1.1-0.103,1.918v4.418c0,0.831,0.036,1.469,0.103,1.922
				c0.068,0.457,0.188,0.848,0.354,1.191h-1.521h-1.518c0.17-0.321,0.287-0.718,0.354-1.176S77.254,206.47,77.254,205.637z
				 M78.27,193.656c0.4,0,0.74,0.157,1.02,0.479c0.277,0.321,0.418,0.715,0.418,1.177c0,0.467-0.139,0.854-0.418,1.174
				c-0.277,0.314-0.619,0.48-1.02,0.48c-0.398,0-0.739-0.159-1.018-0.48c-0.277-0.313-0.417-0.706-0.417-1.174
				c0-0.462,0.14-0.854,0.417-1.177C77.53,193.814,77.868,193.656,78.27,193.656z"/>
			<path fill="#398F3B" d="M81.534,205.637v-4.418c0-0.576-0.035-1.094-0.101-1.551c-0.063-0.457-0.183-0.979-0.353-1.563h1.284
				h1.292v1.89l1.653-1.859c0.49-0.18,0.961-0.267,1.412-0.267c0.373,0,0.689,0.072,0.95,0.22l-0.432,2.292l-0.099-0.066
				c-0.399-0.295-0.871-0.442-1.42-0.442c-0.404,0-0.933,0.153-1.586,0.453l-0.479,0.219v5.104c0,0.83,0.034,1.467,0.103,1.923
				c0.065,0.452,0.188,0.847,0.356,1.19h-1.519h-1.52c0.17-0.322,0.29-0.72,0.354-1.179
				C81.502,207.117,81.534,206.47,81.534,205.637z"/>
			<path fill="#398F3B" d="M92.625,208.987c-1.469,0-2.674-0.492-3.613-1.476c-0.939-0.981-1.412-2.244-1.412-3.783
				c0-1.676,0.412-3.069,1.239-4.189c0.825-1.109,1.86-1.669,3.101-1.669h0.019c1.214,0,2.149,0.419,2.806,1.27
				c0.657,0.843,0.984,2.043,0.984,3.6v0.961h-5.896c0.106,0.965,0.391,1.77,0.842,2.408c0.582,0.811,1.373,1.217,2.371,1.217
				c0.451,0,0.895-0.062,1.332-0.18c0.438-0.121,0.834-0.291,1.188-0.506l-0.844,2.049c-0.465,0.126-0.84,0.204-1.12,0.24
				C93.335,208.966,93.003,208.987,92.625,208.987z M94.012,202.218c-0.007-0.933-0.177-1.64-0.513-2.126
				c-0.335-0.487-0.83-0.735-1.474-0.735h0.01c-0.706,0-1.25,0.302-1.637,0.901c-0.312,0.483-0.493,1.135-0.563,1.96H94.012
				L94.012,202.218z"/>
		</g>
		<g>
			<g>
				<path fill="#398F3B" d="M96.137,212.599c0.637-1.075,1.111-2.327,1.441-3.752c0.238-1.085,0.275-2.112,0.107-3.088h2.998
					c-0.113,1.103-0.387,2.126-0.826,3.073c-0.613,1.333-1.385,2.588-2.321,3.766L96.137,212.599L96.137,212.599z"/>
			</g>
		</g>
		<g>
			<path fill="#398F3B" d="M109.15,204.304v-6.454c0-0.962-0.039-1.769-0.117-2.421c-0.079-0.658-0.219-1.328-0.422-2.03h1.705
				h1.619c1.588,0,2.847,0.364,3.772,1.088c0.931,0.729,1.397,1.707,1.397,2.94c0,1.123-0.549,2.043-1.645,2.764
				c-0.219,0.143-0.453,0.274-0.706,0.396c0.5,0.176,0.948,0.4,1.343,0.685c1.137,0.798,1.705,1.878,1.705,3.238
				c0,1.359-0.559,2.407-1.672,3.145c-1.111,0.737-2.699,1.104-4.755,1.104h-1.06h-1.693c0.197-0.677,0.334-1.347,0.41-1.994
				C109.114,206.105,109.15,205.287,109.15,204.304z M111.486,200.063h0.098c0.938,0,1.686-0.245,2.238-0.737
				c0.55-0.488,0.826-1.15,0.826-1.991c0-0.751-0.27-1.349-0.812-1.79c-0.542-0.439-1.272-0.661-2.194-0.661h-0.156V200.063
				L111.486,200.063z M111.486,207.261h0.029c1.176,0,2.107-0.261,2.797-0.779c0.687-0.523,1.031-1.229,1.031-2.127
				c0-0.971-0.354-1.748-1.068-2.323c-0.692-0.558-1.623-0.842-2.791-0.861v6.092L111.486,207.261L111.486,207.261z"/>
			<path fill="#398F3B" d="M123.852,208.987c-1.467,0-2.674-0.492-3.613-1.476c-0.938-0.981-1.41-2.244-1.41-3.783
				c0-1.676,0.41-3.069,1.24-4.189c0.824-1.109,1.859-1.669,3.1-1.669h0.02c1.211,0,2.148,0.419,2.804,1.27
				c0.659,0.843,0.987,2.043,0.987,3.6v0.961h-5.896c0.104,0.965,0.388,1.77,0.841,2.408c0.581,0.811,1.374,1.217,2.371,1.217
				c0.451,0,0.895-0.062,1.333-0.18c0.438-0.121,0.836-0.291,1.188-0.506l-0.848,2.049c-0.463,0.126-0.837,0.204-1.119,0.24
				C124.561,208.966,124.234,208.987,123.852,208.987z M125.238,202.218c-0.006-0.933-0.178-1.64-0.516-2.126
				c-0.334-0.487-0.826-0.735-1.474-0.735h0.011c-0.705,0-1.252,0.302-1.639,0.901c-0.309,0.483-0.491,1.135-0.559,1.96H125.238
				L125.238,202.218z"/>
			<path fill="#398F3B" d="M128.574,205.637v-4.418c0-0.576-0.036-1.094-0.1-1.551c-0.064-0.457-0.184-0.979-0.355-1.563h1.283
				h1.293v1.89l1.65-1.859c0.489-0.18,0.961-0.267,1.412-0.267c0.372,0,0.689,0.072,0.95,0.22l-0.431,2.292l-0.098-0.066
				c-0.399-0.295-0.873-0.442-1.42-0.442c-0.406,0-0.935,0.153-1.589,0.453l-0.479,0.219v5.104c0,0.83,0.035,1.467,0.102,1.923
				c0.066,0.452,0.188,0.847,0.357,1.19h-1.52h-1.52c0.17-0.322,0.289-0.72,0.353-1.179
				C128.538,207.117,128.574,206.47,128.574,205.637z"/>
			<path fill="#398F3B" d="M137.393,205.637c0,0.831,0.035,1.469,0.102,1.922c0.068,0.457,0.188,0.847,0.357,1.191h-1.519h-1.519
				c0.17-0.321,0.287-0.718,0.354-1.177c0.066-0.457,0.098-1.106,0.098-1.938v-8.426c0-0.689-0.031-1.268-0.098-1.724
				c-0.064-0.462-0.182-0.927-0.354-1.391l1.519-0.31l1.519-0.31c-0.17,0.485-0.289,1.017-0.357,1.614
				c-0.064,0.598-0.102,1.406-0.102,2.434v5.583h0.004l1.783-2.763c0.346-0.53,0.584-0.957,0.715-1.284
				c0.133-0.329,0.19-0.648,0.176-0.954h1.729h1.732c-0.594,0.511-1.098,0.993-1.506,1.452c-0.409,0.461-0.838,1.018-1.283,1.663
				l-1.154,1.74l1.694,2.679c0.549,0.859,1,1.521,1.353,1.98c0.352,0.457,0.705,0.84,1.059,1.134h-1.557h-1.557
				c0.014-0.183-0.03-0.39-0.128-0.616c-0.097-0.227-0.274-0.547-0.529-0.942l-2.526-4.078h-0.002L137.393,205.637L137.393,205.637z
				"/>
			<path fill="#398F3B" d="M149.221,200.374c-0.302-0.353-0.605-0.608-0.92-0.771c-0.311-0.16-0.662-0.242-1.046-0.242
				c-0.421,0-0.772,0.11-1.057,0.329c-0.281,0.222-0.418,0.497-0.418,0.836c0,0.325,0.096,0.621,0.284,0.882
				c0.184,0.26,0.531,0.587,1.045,0.993c0.869,0.667,1.475,1.262,1.828,1.771c0.346,0.5,0.519,1.047,0.519,1.64
				c0,0.915-0.313,1.674-0.952,2.274c-0.64,0.604-1.443,0.906-2.41,0.906c-0.529,0-0.979-0.037-1.356-0.096
				c-0.376-0.062-0.839-0.18-1.386-0.357V206c0.412,0.498,0.824,0.869,1.234,1.109c0.412,0.236,0.835,0.361,1.268,0.361
				c0.414,0,0.763-0.125,1.037-0.37c0.274-0.241,0.41-0.559,0.41-0.927c0-0.303-0.113-0.592-0.332-0.871
				c-0.217-0.274-0.634-0.655-1.254-1.125c-0.781-0.606-1.332-1.157-1.654-1.645c-0.313-0.487-0.471-1.018-0.471-1.615
				c0-0.875,0.348-1.604,1.041-2.18c0.695-0.576,1.569-0.867,2.615-0.867c0.389,0,0.721,0.035,1.003,0.103
				c0.281,0.061,0.601,0.184,0.968,0.354L149.221,200.374L149.221,200.374z"/>
			<path fill="#398F3B" d="M150.693,205.637v-8.427c0-0.689-0.034-1.267-0.1-1.724c-0.063-0.462-0.184-0.927-0.354-1.391l1.52-0.309
				l1.518-0.311c-0.166,0.485-0.288,1.017-0.356,1.614c-0.065,0.598-0.103,1.406-0.103,2.435v2.432l1.619-1.863
				c0.547-0.146,1.004-0.223,1.371-0.223c0.967,0,1.703,0.31,2.205,0.91c0.502,0.603,0.752,1.482,0.752,2.637v4.223
				c0,0.89,0.027,1.559,0.082,2.012c0.055,0.455,0.153,0.823,0.303,1.104h-1.479h-1.479c0.171-0.322,0.293-0.72,0.354-1.179
				c0.066-0.457,0.1-1.108,0.1-1.938v-3.931c0-0.618-0.143-1.087-0.428-1.385c-0.291-0.3-0.732-0.46-1.324-0.46
				c-0.403,0-0.933,0.154-1.588,0.453l-0.479,0.222v5.101c0,0.831,0.036,1.468,0.103,1.924c0.067,0.453,0.19,0.848,0.358,1.19
				h-1.521h-1.521c0.17-0.323,0.289-0.72,0.354-1.179C150.664,207.117,150.693,206.47,150.693,205.637z"/>
			<path fill="#398F3B" d="M160.869,205.637v-4.418c0-0.576-0.034-1.094-0.1-1.551c-0.063-0.457-0.184-0.979-0.354-1.563h1.52h1.521
				c-0.17,0.336-0.291,0.737-0.358,1.196c-0.066,0.46-0.103,1.1-0.103,1.918v4.418c0,0.831,0.036,1.469,0.103,1.922
				c0.067,0.457,0.188,0.848,0.358,1.191h-1.521h-1.52c0.17-0.321,0.289-0.718,0.354-1.176
				C160.837,207.117,160.869,206.47,160.869,205.637z M161.885,193.656c0.399,0,0.74,0.157,1.018,0.479
				c0.279,0.321,0.419,0.715,0.419,1.177c0,0.467-0.14,0.854-0.419,1.174c-0.277,0.314-0.618,0.48-1.018,0.48
				c-0.4,0-0.742-0.159-1.019-0.48c-0.278-0.313-0.417-0.706-0.417-1.174c0-0.462,0.138-0.854,0.417-1.177
				C161.143,193.814,161.484,193.656,161.885,193.656z"/>
			<path fill="#398F3B" d="M165.146,205.637v-4.418c0-0.576-0.035-1.094-0.101-1.551c-0.062-0.457-0.183-0.979-0.353-1.563h1.283
				h1.293v1.89l1.653-1.859c0.489-0.18,0.962-0.267,1.41-0.267c0.374,0,0.689,0.072,0.951,0.22l-0.432,2.292l-0.094-0.066
				c-0.4-0.295-0.871-0.442-1.422-0.442c-0.404,0-0.934,0.153-1.586,0.453l-0.482,0.219v5.104c0,0.83,0.035,1.467,0.104,1.923
				c0.066,0.452,0.189,0.847,0.359,1.19h-1.521h-1.522c0.17-0.322,0.293-0.72,0.354-1.179
				C165.114,207.117,165.146,206.47,165.146,205.637z"/>
			<path fill="#398F3B" d="M176.243,208.987c-1.467,0-2.676-0.492-3.613-1.476c-0.939-0.981-1.414-2.244-1.414-3.783
				c0-1.676,0.414-3.069,1.238-4.189c0.828-1.109,1.859-1.669,3.102-1.669h0.021c1.215,0,2.148,0.419,2.807,1.27
				c0.654,0.843,0.982,2.043,0.982,3.6v0.961h-5.893c0.104,0.965,0.387,1.77,0.842,2.408c0.576,0.811,1.373,1.217,2.371,1.217
				c0.451,0,0.896-0.062,1.334-0.18c0.436-0.121,0.832-0.291,1.184-0.506l-0.84,2.049c-0.471,0.126-0.842,0.204-1.123,0.24
				C176.952,208.966,176.622,208.987,176.243,208.987z M177.625,202.218c-0.012-0.933-0.182-1.64-0.516-2.126
				c-0.332-0.487-0.83-0.735-1.469-0.735h0.008c-0.705,0-1.252,0.302-1.639,0.901c-0.307,0.483-0.486,1.135-0.559,1.96H177.625
				L177.625,202.218z"/>
			<path fill="#398F3B" d="M187.147,199.033c0-0.89,0.314-1.632,0.953-2.217c0.637-0.594,1.436-0.893,2.395-0.893
				c0.957,0,1.758,0.275,2.393,0.824c0.637,0.55,0.945,1.237,0.945,2.067c0,0.708-0.193,1.312-0.576,1.814
				c-0.201,0.257-0.449,0.488-0.748,0.706l0.629,0.319c0.691,0.359,1.27,0.702,1.721,1.027l1.422,1.045
				c0.238-0.693,0.439-1.582,0.594-2.668c0.143-1.035,0.221-2.099,0.221-3.19c-0.352,0.009-0.717,0.045-1.109,0.121
				c-0.439,0.07-0.795,0.162-1.057,0.274v-2.038h2.305h2.17h2.305v2.038c-0.27-0.111-0.627-0.203-1.068-0.281
				c-0.445-0.075-0.855-0.113-1.234-0.113h-0.363c0.039,0.951-0.029,1.986-0.203,3.083c-0.229,1.488-0.59,2.792-1.08,3.909
				l1.188,0.938c0.518,0.409,1.107,0.793,1.758,1.146c0.646,0.354,1.197,0.589,1.645,0.706l-2.037,1.204
				c-0.367-0.084-0.783-0.246-1.262-0.487c-0.471-0.242-0.881-0.504-1.229-0.782l-1.184-0.949c-0.473,0.49-1.041,0.936-1.717,1.333
				c-1.188,0.672-2.408,1.015-3.678,1.015c-1.504,0-2.754-0.39-3.748-1.151c-0.998-0.767-1.492-1.729-1.492-2.885
				c0-0.975,0.313-1.807,0.957-2.499c0.383-0.398,0.854-0.753,1.441-1.058l-0.313-0.265
				C187.459,200.563,187.147,199.86,187.147,199.033z M191.409,207.114c0.82,0,1.66-0.252,2.518-0.764
				c0.449-0.271,0.846-0.569,1.191-0.901l-1.646-1.233c-0.373-0.275-0.842-0.552-1.422-0.833c-0.693-0.327-1.303-0.635-1.832-0.919
				c-0.455,0.224-0.836,0.474-1.133,0.738c-0.568,0.516-0.848,1.125-0.848,1.831c0,0.593,0.305,1.093,0.912,1.488
				C189.737,206.918,190.491,207.114,191.409,207.114z M189.104,198.984c0,0.399,0.135,0.731,0.4,0.99
				c0.268,0.26,0.604,0.396,1.01,0.396c0.475,0,0.83-0.124,1.063-0.364c0.229-0.237,0.35-0.607,0.35-1.102
				c0-0.344-0.133-0.635-0.398-0.865c-0.27-0.228-0.604-0.347-1.014-0.347c-0.4,0-0.746,0.129-1.012,0.372
				C189.235,198.304,189.104,198.61,189.104,198.984z"/>
			<path fill="#398F3B" d="M209.586,204.304v-6.454c0-0.962-0.039-1.769-0.117-2.421c-0.078-0.658-0.221-1.328-0.42-2.03h1.705
				h1.617c1.588,0,2.852,0.364,3.775,1.088c0.932,0.729,1.393,1.707,1.393,2.94c0,1.123-0.547,2.043-1.643,2.764
				c-0.217,0.143-0.451,0.274-0.705,0.396c0.504,0.176,0.949,0.4,1.346,0.685c1.135,0.798,1.707,1.878,1.707,3.238
				c0,1.359-0.561,2.407-1.67,3.145c-1.111,0.737-2.703,1.104-4.754,1.104h-1.061h-1.695c0.197-0.677,0.334-1.347,0.412-1.994
				C209.549,206.105,209.586,205.287,209.586,204.304z M211.917,200.063h0.1c0.938,0,1.689-0.245,2.244-0.737
				c0.551-0.488,0.828-1.15,0.828-1.991c0-0.751-0.271-1.349-0.814-1.79c-0.543-0.439-1.277-0.661-2.195-0.661h-0.16v5.181
				L211.917,200.063L211.917,200.063z M211.917,207.261h0.033c1.18,0,2.107-0.261,2.795-0.779c0.688-0.523,1.031-1.229,1.031-2.127
				c0-0.971-0.355-1.748-1.066-2.323c-0.691-0.558-1.625-0.842-2.793-0.861V207.261L211.917,207.261z"/>
			<path fill="#398F3B" d="M221.879,201.213v3.962c0,0.614,0.135,1.07,0.424,1.366c0.285,0.304,0.717,0.446,1.295,0.446
				c0.469,0,1.016-0.128,1.662-0.38l0.354-0.137v-5.259c0-0.577-0.035-1.101-0.098-1.549c-0.064-0.46-0.184-0.977-0.354-1.557h1.521
				h1.518c-0.172,0.341-0.291,0.74-0.357,1.197s-0.105,1.102-0.105,1.917v4.419c0,0.83,0.037,1.467,0.105,1.923
				c0.066,0.453,0.188,0.847,0.357,1.189h-1.236h-1.242v-1.813l-1.676,1.813c-0.607,0.155-1.064,0.234-1.373,0.234
				c-0.959,0-1.689-0.253-2.182-0.762c-0.492-0.505-0.748-1.25-0.748-2.222v-4.787c0-0.576-0.037-1.091-0.098-1.549
				c-0.064-0.457-0.186-0.979-0.354-1.563h1.52h1.521c-0.174,0.34-0.293,0.738-0.365,1.197
				C221.911,199.752,221.879,200.392,221.879,201.213z"/>
			<path fill="#398F3B" d="M236.471,208.684c-0.486,0.127-0.877,0.205-1.176,0.241c-0.301,0.041-0.648,0.061-1.053,0.061
				c-1.41,0-2.588-0.498-3.518-1.492c-0.938-0.991-1.408-2.238-1.408-3.741c0-1.685,0.518-3.089,1.557-4.208
				c1.035-1.115,2.342-1.683,3.896-1.683c0.416,0,0.781,0.021,1.1,0.045c0.311,0.035,0.738,0.096,1.283,0.196l-0.107,2.453
				c-0.393-0.422-0.779-0.732-1.17-0.922c-0.393-0.189-0.816-0.285-1.281-0.285c-0.936,0-1.686,0.354-2.234,1.063
				c-0.555,0.708-0.828,1.664-0.828,2.878c0,1.233,0.289,2.214,0.875,2.94c0.578,0.727,1.371,1.089,2.361,1.089
				c0.338,0,0.689-0.047,1.057-0.146c0.365-0.104,0.855-0.28,1.479-0.537L236.471,208.684z"/>
			<path fill="#398F3B" d="M240.784,205.637c0,0.831,0.037,1.469,0.102,1.922c0.07,0.457,0.193,0.847,0.365,1.191h-1.523h-1.52
				c0.172-0.321,0.287-0.718,0.354-1.177c0.063-0.457,0.098-1.106,0.098-1.938v-8.426c0-0.689-0.035-1.268-0.098-1.724
				c-0.066-0.462-0.182-0.927-0.354-1.391l1.52-0.31l1.523-0.31c-0.172,0.485-0.295,1.017-0.365,1.614
				c-0.063,0.593-0.102,1.406-0.102,2.434v5.583h0.004l1.789-2.763c0.342-0.53,0.578-0.957,0.715-1.284
				c0.133-0.329,0.189-0.648,0.176-0.954h1.729h1.732c-0.59,0.511-1.1,0.993-1.504,1.452c-0.412,0.461-0.844,1.018-1.285,1.663
				l-1.154,1.74l1.693,2.679c0.553,0.859,1.006,1.521,1.354,1.98c0.355,0.457,0.705,0.84,1.059,1.134h-1.557h-1.553
				c0.018-0.183-0.033-0.39-0.131-0.616s-0.273-0.547-0.529-0.942l-2.525-4.078h-0.002L240.784,205.637L240.784,205.637z"/>
			<path fill="#398F3B" d="M247.704,205.637v-4.418c0-0.576-0.031-1.094-0.098-1.551c-0.061-0.457-0.182-0.979-0.354-1.563h1.52
				h1.52c-0.164,0.336-0.289,0.737-0.355,1.196c-0.064,0.46-0.104,1.1-0.104,1.918v4.418c0,0.831,0.037,1.469,0.104,1.922
				c0.066,0.457,0.191,0.848,0.355,1.191h-1.52h-1.52c0.172-0.321,0.293-0.718,0.354-1.176
				C247.676,207.117,247.704,206.47,247.704,205.637z M248.723,193.656c0.396,0,0.738,0.157,1.016,0.479
				c0.281,0.321,0.418,0.715,0.418,1.177c0,0.467-0.137,0.854-0.418,1.174c-0.275,0.314-0.615,0.48-1.016,0.48
				c-0.404,0-0.744-0.159-1.021-0.48c-0.277-0.313-0.41-0.706-0.41-1.174c0-0.462,0.133-0.854,0.41-1.177
				C247.985,193.814,248.317,193.656,248.723,193.656z"/>
			<path fill="#398F3B" d="M251.934,205.637v-4.418c0-0.578-0.035-1.103-0.098-1.555c-0.066-0.46-0.186-0.977-0.354-1.557h1.283
				h1.287v1.851l1.617-1.863c0.553-0.146,1.01-0.223,1.371-0.223c0.967,0,1.703,0.31,2.203,0.91c0.5,0.603,0.752,1.482,0.752,2.637
				v4.223c0,0.89,0.031,1.559,0.084,2.012c0.057,0.453,0.154,0.823,0.299,1.104h-1.475h-1.479c0.172-0.322,0.293-0.72,0.354-1.179
				c0.064-0.457,0.1-1.108,0.1-1.938v-3.931c0-0.618-0.139-1.087-0.434-1.385c-0.285-0.306-0.727-0.46-1.318-0.46
				c-0.4,0-0.932,0.154-1.584,0.453l-0.488,0.22v5.103c0,0.831,0.043,1.468,0.105,1.924c0.068,0.453,0.188,0.847,0.359,1.19h-1.521
				h-1.518c0.168-0.323,0.285-0.72,0.354-1.179C251.901,207.118,251.934,206.47,251.934,205.637z"/>
		</g>
		<g>
			<g>
				<path fill="#398F3B" d="M263.866,205.899c0,0.183,0.115,0.34,0.332,0.47c0.223,0.127,0.496,0.193,0.828,0.193h2.289
					c0.918,0,1.584,0.187,2.006,0.568c0.424,0.382,0.643,0.98,0.643,1.803c0,0.921-0.445,1.688-1.336,2.328
					c-0.885,0.632-1.977,0.942-3.26,0.942c-1.309,0-2.285-0.13-2.938-0.388c-0.66-0.262-0.982-0.647-0.982-1.162
					c0-0.261,0.131-0.556,0.395-0.876c0.26-0.322,0.781-0.843,1.563-1.549c-0.545-0.045-0.979-0.134-1.299-0.275
					c-0.438-0.19-0.66-0.479-0.66-0.86c0-0.289,0.121-0.547,0.355-0.771c0.229-0.229,0.848-0.687,1.859-1.373
					c-0.391-0.16-0.742-0.395-1.059-0.682c-0.711-0.656-1.07-1.474-1.07-2.457c0-1.121,0.359-2.062,1.07-2.808
					c0.709-0.747,1.607-1.117,2.686-1.117c0.824,0,1.547,0.213,2.166,0.628h1.104c0.422,0,0.84-0.022,1.246-0.059
					c0.406-0.04,0.701-0.084,0.865-0.134l-0.221,1.687l-1.725,0.01c0.221,0.479,0.326,1.017,0.326,1.63
					c0,1.035-0.357,1.905-1.07,2.592c-0.717,0.685-1.613,1.029-2.691,1.029c-0.273,0-0.543-0.023-0.793-0.066
					c-0.178,0.079-0.324,0.191-0.449,0.332C263.924,205.646,263.866,205.776,263.866,205.899z M265.172,199.357
					c-0.498,0-0.898,0.176-1.197,0.531c-0.303,0.356-0.451,0.832-0.451,1.417c0,0.672,0.184,1.25,0.557,1.729
					c0.367,0.479,0.811,0.718,1.326,0.718h-0.012c0.506,0,0.916-0.174,1.213-0.521c0.301-0.353,0.451-0.822,0.451-1.416
					c0-0.686-0.18-1.267-0.545-1.743c-0.361-0.479-0.809-0.714-1.34-0.714L265.172,199.357L265.172,199.357z M263.639,209.358
					c0,0.387,0.162,0.671,0.486,0.85c0.322,0.183,0.828,0.277,1.506,0.277c0.748,0,1.291-0.1,1.646-0.295
					c0.357-0.191,0.537-0.486,0.537-0.885c0-0.322-0.131-0.585-0.385-0.775c-0.254-0.196-0.604-0.294-1.039-0.294h-2.096
					c-0.178,0.123-0.332,0.289-0.465,0.5C263.706,208.952,263.639,209.16,263.639,209.358z"/>
			</g>
		</g>
		<g>
			<path fill="#398F3B" d="M270.987,205.637v-8.427c0-0.689-0.031-1.267-0.098-1.724c-0.063-0.462-0.18-0.927-0.354-1.391
				l1.52-0.309l1.518-0.311c-0.168,0.485-0.289,1.017-0.355,1.614c-0.064,0.598-0.104,1.406-0.104,2.435v2.432l1.617-1.863
				c0.551-0.146,1.008-0.223,1.373-0.223c0.969,0,1.703,0.31,2.205,0.91c0.504,0.603,0.752,1.482,0.752,2.637v4.223
				c0,0.89,0.035,1.559,0.084,2.012c0.057,0.455,0.156,0.823,0.307,1.104h-1.48h-1.477c0.168-0.322,0.291-0.72,0.352-1.179
				c0.063-0.457,0.102-1.108,0.102-1.938v-3.931c0-0.618-0.143-1.087-0.432-1.385c-0.293-0.306-0.73-0.46-1.322-0.46
				c-0.402,0-0.932,0.154-1.588,0.453l-0.482,0.222v5.101c0,0.831,0.037,1.468,0.105,1.924c0.064,0.453,0.188,0.848,0.357,1.19
				h-1.521h-1.52c0.172-0.323,0.291-0.72,0.352-1.179C270.959,207.117,270.987,206.47,270.987,205.637z"/>
			<path fill="#398F3B" d="M283.633,208.987c-1.039,0-1.838-0.225-2.398-0.667c-0.566-0.444-0.842-1.076-0.842-1.898
				c0-0.553,0.201-1.066,0.592-1.55c0.396-0.486,0.934-0.864,1.602-1.147l3.137-1.29v-0.967c0-0.581-0.178-1.045-0.539-1.388
				c-0.355-0.343-0.842-0.514-1.451-0.514c-0.395,0-0.77,0.064-1.135,0.202c-0.369,0.134-0.764,0.353-1.203,0.663l0.584-2.043
				c0.416-0.18,0.826-0.312,1.215-0.39c0.396-0.084,0.789-0.128,1.197-0.128c1.152,0,2.012,0.307,2.592,0.903
				c0.576,0.6,0.865,1.495,0.865,2.698v4.174c0,0.888,0.033,1.558,0.086,2.011c0.049,0.454,0.15,0.823,0.301,1.104h-1.254h-1.256
				v-1.02l-1.654,1.233L283.633,208.987z M285.719,207.135v-2.933h-2.742c-0.064,0-0.146,0.201-0.246,0.592
				c-0.104,0.397-0.154,0.729-0.154,0.999c0,0.497,0.164,0.875,0.488,1.13c0.324,0.25,0.82,0.378,1.467,0.378
				c0.404,0,0.795-0.054,1.164-0.166H285.719L285.719,207.135z"/>
			<path fill="#398F3B" d="M289.68,205.637v-4.418c0-0.576-0.035-1.094-0.1-1.551s-0.184-0.979-0.352-1.563h1.283h1.291v2.046
				l1.33-1.64l0.482-0.29c0.457-0.229,0.98-0.354,1.563-0.354c0.842,0,1.479,0.267,1.924,0.793c0.332,0.397,0.535,0.925,0.607,1.586
				l1.578-1.759l0.43-0.246c0.461-0.246,0.941-0.373,1.463-0.373c0.828,0,1.455,0.257,1.885,0.773
				c0.432,0.518,0.654,1.27,0.654,2.261v4.734c0,0.9,0.023,1.577,0.074,2.038c0.051,0.459,0.146,0.815,0.289,1.076h-1.471h-1.463
				c0.168-0.321,0.285-0.718,0.348-1.175c0.064-0.459,0.104-1.108,0.104-1.939v-4.064c0-0.576-0.135-1.006-0.4-1.284
				c-0.27-0.287-0.68-0.424-1.229-0.424c-0.506,0-1.074,0.176-1.688,0.521l-0.508,0.311v4.934c0,0.831,0.035,1.468,0.104,1.928
				c0.068,0.452,0.188,0.846,0.357,1.189h-1.521h-1.521c0.172-0.325,0.289-0.723,0.354-1.179c0.064-0.457,0.102-1.108,0.102-1.939
				v-4.054c0-0.577-0.133-1.017-0.4-1.286c-0.266-0.287-0.678-0.424-1.229-0.424c-0.473,0-1.047,0.184-1.729,0.54l-0.477,0.245
				v4.987c0,0.831,0.039,1.469,0.105,1.922c0.066,0.457,0.188,0.848,0.357,1.191h-1.52h-1.518c0.168-0.321,0.285-0.718,0.35-1.176
				S289.68,206.47,289.68,205.637z"/>
			<path fill="#398F3B" d="M310.756,200.374c-0.303-0.353-0.607-0.608-0.92-0.771c-0.314-0.16-0.666-0.242-1.045-0.242
				c-0.426,0-0.775,0.11-1.061,0.329c-0.279,0.222-0.418,0.497-0.418,0.836c0,0.325,0.094,0.621,0.289,0.882
				c0.18,0.26,0.531,0.587,1.043,0.993c0.863,0.667,1.477,1.262,1.826,1.771c0.346,0.5,0.52,1.047,0.52,1.64
				c0,0.915-0.318,1.674-0.957,2.274c-0.635,0.604-1.439,0.91-2.406,0.91c-0.527,0-0.98-0.034-1.355-0.096
				c-0.381-0.06-0.842-0.18-1.391-0.357v-2.535c0.412,0.495,0.826,0.866,1.236,1.106c0.408,0.236,0.834,0.362,1.268,0.362
				c0.418,0,0.764-0.126,1.039-0.37c0.273-0.24,0.406-0.559,0.406-0.927c0-0.303-0.111-0.592-0.328-0.872
				c-0.219-0.273-0.637-0.654-1.256-1.124c-0.779-0.606-1.334-1.154-1.648-1.645c-0.314-0.486-0.477-1.018-0.477-1.614
				c0-0.877,0.35-1.604,1.039-2.181c0.697-0.576,1.57-0.867,2.619-0.867c0.389,0,0.723,0.035,1,0.103
				c0.281,0.06,0.604,0.183,0.971,0.353L310.756,200.374L310.756,200.374z"/>
			<path fill="#398F3B" d="M312.235,205.637v-8.427c0-0.689-0.035-1.267-0.098-1.724c-0.066-0.462-0.188-0.927-0.354-1.391
				l1.518-0.309l1.521-0.311c-0.174,0.485-0.289,1.017-0.359,1.614c-0.066,0.593-0.105,1.406-0.105,2.435v2.432l1.617-1.863
				c0.553-0.146,1.012-0.223,1.375-0.223c0.965,0,1.703,0.31,2.201,0.91c0.502,0.603,0.752,1.482,0.752,2.637v4.223
				c0,0.89,0.029,1.559,0.084,2.012c0.055,0.455,0.154,0.823,0.299,1.104h-1.477h-1.475c0.168-0.322,0.287-0.72,0.352-1.179
				c0.063-0.457,0.1-1.108,0.1-1.938v-3.931c0-0.618-0.143-1.087-0.432-1.385c-0.287-0.306-0.73-0.46-1.324-0.46
				c-0.4,0-0.93,0.154-1.586,0.453l-0.482,0.222v5.101c0,0.831,0.037,1.468,0.105,1.924c0.068,0.453,0.186,0.848,0.357,1.19h-1.52
				h-1.518c0.164-0.323,0.287-0.72,0.354-1.179C312.202,207.117,312.235,206.47,312.235,205.637z"/>
			<path fill="#398F3B" d="M322.409,205.637v-4.418c0-0.576-0.037-1.094-0.096-1.551c-0.066-0.457-0.186-0.979-0.355-1.563h1.518
				h1.521c-0.172,0.336-0.287,0.737-0.357,1.196c-0.066,0.46-0.104,1.1-0.104,1.918v4.418c0,0.831,0.035,1.469,0.104,1.922
				c0.07,0.457,0.186,0.848,0.357,1.191h-1.521h-1.518c0.17-0.321,0.289-0.718,0.355-1.176
				C322.372,207.117,322.409,206.47,322.409,205.637z M323.42,193.656c0.398,0,0.74,0.157,1.018,0.479
				c0.279,0.319,0.416,0.715,0.416,1.177c0,0.467-0.135,0.854-0.416,1.174c-0.279,0.314-0.619,0.48-1.018,0.48
				c-0.4,0-0.742-0.159-1.02-0.48c-0.275-0.313-0.418-0.706-0.418-1.174c0-0.462,0.139-0.854,0.418-1.177
				C322.68,193.814,323.024,193.656,323.42,193.656z"/>
			<path fill="#398F3B" d="M326.686,205.637v-4.418c0-0.576-0.037-1.094-0.098-1.551c-0.066-0.457-0.186-0.979-0.354-1.563h1.281
				h1.293v1.89l1.656-1.859c0.486-0.18,0.959-0.267,1.408-0.267c0.375,0,0.688,0.072,0.945,0.22l-0.432,2.292l-0.098-0.066
				c-0.396-0.295-0.869-0.442-1.42-0.442c-0.398,0-0.932,0.153-1.586,0.453l-0.482,0.219v5.104c0,0.83,0.037,1.467,0.104,1.923
				c0.07,0.452,0.188,0.847,0.359,1.19h-1.521h-1.516c0.166-0.322,0.285-0.72,0.352-1.179
				C326.647,207.119,326.686,206.47,326.686,205.637z"/>
			<path fill="#398F3B" d="M337.778,208.987c-1.469,0-2.678-0.492-3.617-1.476c-0.938-0.981-1.406-2.244-1.406-3.783
				c0-1.676,0.41-3.069,1.238-4.189c0.83-1.109,1.859-1.669,3.104-1.669h0.02c1.209,0,2.148,0.419,2.805,1.27
				c0.656,0.843,0.982,2.043,0.982,3.6v0.961h-5.891c0.102,0.965,0.385,1.77,0.842,2.408c0.578,0.811,1.373,1.217,2.369,1.217
				c0.451,0,0.895-0.062,1.332-0.18c0.438-0.121,0.838-0.291,1.188-0.506l-0.842,2.049c-0.467,0.126-0.84,0.204-1.119,0.24
				C338.487,208.966,338.155,208.987,337.778,208.987z M339.163,202.218c-0.004-0.933-0.18-1.64-0.512-2.126
				c-0.336-0.487-0.828-0.735-1.471-0.735h0.008c-0.705,0-1.252,0.302-1.639,0.901c-0.313,0.483-0.488,1.135-0.561,1.96H339.163
				L339.163,202.218z"/>
		</g>
	</g>
	<polyline fill="#398F3B" points="0.453,0.457 0.453,154.618 164.352,154.618 164.352,0.457 0.453,0.457 	"/>
	<polygon fill="none" stroke="#FFFFFF" stroke-width="0.4289" points="0.453,0.457 0.453,154.618 164.352,154.618 164.352,0.457 	
		"/>
	<path fill="#FFFFFF" d="M85.749,0c0,0-20.89,5.046-38.963,17.295C30.241,27.709,24.04,32.29,12.836,44.182
		C4.953,52.552,0,58.93,0,58.93v33.916c0,0,16.498,18.44,33.148,25.562c16.651,7.125,22.168,7.615,38.472,8.26
		c8.948-0.472,16.147-1.642,22.544-3.455c15.988-3.323,45.678-17.505,53.943-23.451c7.84-5.632,16.699-11.671,16.699-11.671
		s0-12.004,0-12.616c-6.961,12.572-23.021,23.452-30.088,27.842c-7.068,4.386-8.277,4.976-19.347,10.143
		c-7.104,2.848-14.584,4.915-23.438,6.721c-8.855,1.815-15.254,0.815-21.951-1.4c-9.646-4.194-18.307-12.134-20.607-21.345
		c-2.331-9.309-2.186-20.834,0.257-28.435c4.394-9.307,4.964-10.856,11.634-20.163C69.229,37.72,87.096,20.55,99.75,13.535
		c12.65-7.014,31.025-13.521,31.025-13.521H85.748"/>
	<g>
		<g>
			<path fill="#FFFFFF" d="M124.548,48.428l2.468-0.522l-2.806,9.461c-1.118,3.766-2.179,8.106-3.178,13.019
				c-0.55,2.668-0.823,4.388-0.823,5.162s0.311,1.16,0.934,1.16c0.399,0,1.033-0.261,1.905-0.783
				c1.548-0.928,3.029-2.073,4.451-3.442l1.197,1.46c-2.843,2.596-4.662,4.164-5.462,4.717c-1.594,1.098-3.116,1.904-4.563,2.433
				c-0.947,0.346-1.869,0.52-2.768,0.52c-0.651,0-1.135-0.146-1.461-0.447c-0.324-0.302-0.486-0.734-0.486-1.308
				c0-0.374,0.1-0.886,0.301-1.538l1.495-5.09c-2.146,2.567-4.7,4.774-7.666,6.622c-1.817,1.143-3.493,1.722-5.009,1.722
				c-1.45,0-2.559-0.509-3.329-1.536c-1.048-1.372-1.571-3.164-1.571-5.386c0-2.638,0.705-5.584,2.113-8.824
				c1.41-3.238,3.301-6.183,5.668-8.825c2.371-2.643,4.862-4.588,7.482-5.836c2.021-0.944,4.615-1.419,7.779-1.419
				c0.797,0,1.609,0.049,2.433,0.149L124.548,48.428z M119.914,54.153c-1.346-0.276-2.48-0.413-3.408-0.413
				c-2.244,0-4.203,0.619-5.871,1.853c-1.672,1.234-3.224,3.455-4.654,6.655c-1.437,3.208-2.153,6.406-2.153,9.6
				c0,1.693,0.288,2.915,0.86,3.665c0.574,0.752,1.322,1.123,2.246,1.123c1.722,0,3.566-0.932,5.535-2.791
				c1.969-1.861,3.414-4.533,4.34-8.021L119.914,54.153z"/>
			<path fill="#FFFFFF" d="M143.489,80.523h-5.572l2.617-10.061c1.271-4.937,2.379-9.625,3.327-14.063
				c0.224-1.097,0.334-1.782,0.334-2.057c0-0.6-0.273-0.896-0.822-0.896c-0.376,0-0.947,0.256-1.723,0.767
				c-0.771,0.507-2.17,1.773-4.188,3.795l-1.158-1.307c2.392-2.569,4.778-4.498,7.158-5.782c2.381-1.283,4.207-1.925,5.479-1.925
				c0.449,0,0.804,0.108,1.068,0.317c0.262,0.215,0.391,0.483,0.391,0.803c0,0.325-0.162,1.192-0.487,2.595l-1.63,6.731
				c2.525-3.982,5.369-7.387,8.548-10.218c1.524-1.353,2.793-2.026,3.819-2.026c0.752,0,1.375,0.24,1.875,0.729
				c0.5,0.486,0.752,1.054,0.752,1.702c0,0.672-0.241,1.246-0.729,1.721c-0.485,0.476-1.7,1.036-3.644,1.686
				c-1.844,0.623-3.344,1.373-4.504,2.245c-1.158,0.871-2.43,2.208-3.812,4.003c-1.379,1.798-2.348,3.363-2.899,4.696
				c-0.549,1.332-1.383,4.43-2.51,9.293L143.489,80.523z"/>
		</g>
		<g>
			<path fill="#398F3B" d="M183.452,49.065c2.443,0,4.475,0.976,6.098,2.92c1.621,1.943,2.43,4.652,2.43,8.113
				c0,5.536-1.943,10.502-5.834,14.903c-3.883,4.402-8.004,6.602-12.342,6.602c-2.672,0-4.823-0.873-6.454-2.617
				c-1.631-1.739-2.447-4.121-2.447-7.142c0-5.237,1.496-10.07,4.486-14.513C173.157,51.821,177.842,49.065,183.452,49.065z
				 M180.272,51.867c-2.121,0-4.172,1.515-6.154,4.547c-1.988,3.027-2.973,7.214-2.973,12.545c0,3.237,0.609,5.8,1.832,7.664
				c0.896,1.374,2.088,2.063,3.59,2.063c2.094,0,4.008-1.298,5.725-3.892c2.189-3.365,3.289-7.541,3.289-12.532
				c0-3.741-0.506-6.409-1.516-8.007C183.055,52.667,181.79,51.867,180.272,51.867z"/>
			<path fill="#398F3B" d="M212.262,55.612c2.018-2.221,4.014-3.85,5.969-4.883c1.959-1.031,3.68-1.55,5.18-1.55
				c1.746,0,3.146,0.697,4.191,2.096c1.045,1.393,1.57,3.5,1.57,6.321c0,4.09-0.961,8.091-2.877,12.003
				c-1.92,3.918-4.299,6.894-7.129,8.938c-2.83,2.043-5.594,3.064-8.283,3.064c-2.295,0-4.121-0.671-5.496-2.018
				c-1.373-1.347-2.063-3.091-2.063-5.236c0-1.721,0.336-4.116,1.018-7.185l4.412-19.787c1.072-4.836,2.418-8.522,4.033-11.053
				c1.623-2.53,3.758-4.551,6.4-6.062c2.639-1.508,5.148-2.26,7.514-2.26c1.42,0,2.463,0.245,3.129,0.73
				c0.662,0.488,0.988,1.142,0.988,1.963c0,0.752-0.301,1.372-0.896,1.871c-0.596,0.498-1.449,0.751-2.543,0.751
				c-0.822,0-2.246-0.187-4.268-0.563c-0.896-0.172-1.695-0.259-2.393-0.259c-1.25,0-2.26,0.669-3.035,2.018
				c-0.576,1.046-1.363,3.705-2.354,7.966L212.262,55.612z M219.631,53.328c-1.221,0-2.678,0.736-4.359,2.206
				c-1.682,1.468-3.271,4.073-4.768,7.797c-1.492,3.729-2.246,7.389-2.246,10.979c0,1.347,0.432,2.474,1.289,3.384
				c0.855,0.913,1.863,1.367,3.012,1.367c2.768,0,5.234-2.188,7.402-6.563c2.17-4.379,3.252-8.73,3.252-13.068
				c0-1.972-0.41-3.581-1.232-4.829C221.417,53.751,220.627,53.328,219.631,53.328z"/>
			<path fill="#398F3B" d="M249.793,55.612c2.016-2.221,4.006-3.85,5.965-4.883c1.959-1.031,3.686-1.55,5.184-1.55
				c1.746,0,3.145,0.697,4.189,2.096c1.049,1.393,1.57,3.5,1.57,6.321c0,4.09-0.961,8.091-2.879,12.003
				c-1.918,3.918-4.297,6.894-7.127,8.938c-2.83,2.043-5.596,3.064-8.283,3.064c-2.291,0-4.119-0.671-5.498-2.018
				c-1.371-1.347-2.059-3.091-2.059-5.236c0-1.721,0.336-4.116,1.016-7.185l4.408-19.787c1.076-4.836,2.422-8.522,4.039-11.053
				c1.619-2.53,3.756-4.551,6.396-6.062c2.643-1.508,5.148-2.26,7.518-2.26c1.42,0,2.459,0.245,3.125,0.73
				c0.662,0.488,0.992,1.142,0.992,1.963c0,0.752-0.303,1.372-0.904,1.871c-0.594,0.498-1.441,0.751-2.539,0.751
				c-0.828,0-2.25-0.187-4.266-0.563c-0.902-0.172-1.701-0.259-2.398-0.259c-1.248,0-2.26,0.669-3.031,2.018
				c-0.576,1.046-1.359,3.705-2.354,7.966L249.793,55.612z M257.159,53.328c-1.221,0-2.676,0.736-4.355,2.206
				c-1.686,1.468-3.273,4.073-4.77,7.797c-1.494,3.729-2.244,7.389-2.244,10.979c0,1.347,0.43,2.474,1.283,3.384
				c0.859,0.913,1.865,1.367,3.014,1.367c2.771,0,5.234-2.188,7.402-6.563c2.172-4.379,3.252-8.73,3.252-13.068
				c0-1.972-0.406-3.581-1.229-4.829C258.94,53.751,258.155,53.328,257.159,53.328z"/>
		</g>
	</g>
</g>
</svg>
