<?xml version="1.0" encoding="utf-8"?>
<!-- Generator: Adobe Illustrator 15.1.0, SVG Export Plug-In . SVG Version: 6.00 Build 0)  -->
<!DOCTYPE svg PUBLIC "-//W3C//DTD SVG 1.1//EN" "http://www.w3.org/Graphics/SVG/1.1/DTD/svg11.dtd">
<svg version="1.1" id="Layer_1" xmlns="http://www.w3.org/2000/svg" xmlns:xlink="http://www.w3.org/1999/xlink" x="0px" y="0px"
	 width="835.816px" height="283.464px" viewBox="0 0 835.816 283.464" enable-background="new 0 0 835.816 283.464"
	 xml:space="preserve">
<g>
	<path fill="#61853F" d="M412.811,120.604l36.361,11.533c-5.571,20.271-14.842,35.32-27.806,45.165
		c-12.966,9.836-29.415,14.759-49.343,14.759c-24.665,0-44.935-8.431-60.813-25.276c-15.879-16.853-23.816-39.882-23.816-69.105
		c0-30.917,7.983-54.924,23.946-72.021C327.303,8.553,348.287,0,374.3,0c22.719,0,41.173,6.718,55.367,20.147
		c8.438,7.941,14.774,19.336,19.002,34.203l-37.124,8.866c-2.197-9.622-6.775-17.227-13.743-22.798
		c-6.971-5.572-15.438-8.362-25.402-8.362c-13.769,0-24.936,4.937-33.507,14.82c-8.576,9.883-12.86,25.887-12.86,48.015
		c0,23.479,4.223,40.206,12.669,50.165c8.445,9.966,19.424,14.949,32.938,14.949c9.967,0,18.538-3.164,25.719-9.499
		C404.533,144.169,409.684,134.209,412.811,120.604z"/>
	<path fill="#61853F" d="M481.228,3.172h68.536c15.455,0,27.232,1.185,35.342,3.546c10.9,3.21,20.224,8.912,27.997,17.105
		c7.773,8.186,13.682,18.222,17.74,30.083c4.051,11.871,6.075,26.5,6.075,43.895c0,15.286-1.895,28.467-5.701,39.526
		c-4.639,13.514-11.274,24.45-19.888,32.813c-6.504,6.336-15.286,11.273-26.346,14.82c-8.284,2.621-19.345,3.928-33.193,3.928
		h-70.563V3.172z M518.725,34.584v123.014h27.998c10.47,0,18.03-0.589,22.677-1.773c6.076-1.521,11.128-4.097,15.142-7.728
		c4.004-3.631,7.283-9.607,9.813-17.924c2.538-8.323,3.799-19.654,3.799-34.015c0-14.361-1.261-25.383-3.799-33.064
		c-2.529-7.69-6.084-13.682-10.639-17.993c-4.563-4.302-10.349-7.222-17.357-8.745c-5.236-1.176-15.501-1.773-30.787-1.773H518.725z
		"/>
	<path fill="#61853F" d="M668.845,188.888V3.172h78.923c19.849,0,34.272,1.666,43.268,5.006c8.988,3.332,16.188,9.263,21.599,17.793
		c5.405,8.538,8.104,18.29,8.104,29.266c0,13.933-4.098,25.444-12.283,34.523c-8.194,9.081-20.446,14.798-36.741,17.167
		c8.11,4.731,14.797,9.922,20.078,15.58c5.273,5.657,12.397,15.707,21.349,30.153l22.677,36.228h-44.85l-27.11-40.408
		c-9.624-14.446-16.211-23.541-19.758-27.302c-3.555-3.758-7.308-6.333-11.282-7.73c-3.966-1.393-10.257-2.087-18.87-2.087h-7.604
		v77.527H668.845z M706.342,81.712h27.744c17.991,0,29.221-0.757,33.699-2.277c4.478-1.521,7.979-4.135,10.516-7.856
		c2.531-3.716,3.799-8.363,3.799-13.935c0-6.251-1.666-11.296-5.006-15.141c-3.332-3.836-8.041-6.267-14.125-7.284
		c-3.041-0.42-12.159-0.635-27.362-0.635h-29.265V81.712z"/>
</g>
<g>
	<path fill="#61853F" d="M550.688,228.197l3.149,0.795c-0.657,2.591-1.851,4.563-3.562,5.924c-1.721,1.354-3.814,2.032-6.298,2.032
		c-2.562,0-4.651-0.519-6.26-1.566c-1.605-1.039-2.828-2.552-3.669-4.539c-0.842-1.98-1.262-4.104-1.262-6.383
		c0-2.477,0.475-4.639,1.422-6.488c0.947-1.842,2.297-3.248,4.043-4.204c1.751-0.955,3.676-1.437,5.778-1.437
		c2.382,0,4.384,0.604,6.008,1.819c1.624,1.215,2.755,2.92,3.394,5.112l-3.104,0.734c-0.55-1.735-1.352-2.997-2.399-3.783
		c-1.055-0.796-2.373-1.185-3.967-1.185c-1.827,0-3.354,0.435-4.585,1.313s-2.096,2.057-2.593,3.531
		c-0.496,1.477-0.749,3.004-0.749,4.57c0,2.025,0.299,3.792,0.888,5.306c0.589,1.513,1.505,2.637,2.751,3.386
		s2.595,1.123,4.043,1.123c1.766,0,3.265-0.512,4.486-1.529C549.428,231.713,550.254,230.2,550.688,228.197z"/>
	<path fill="#61853F" d="M558.05,236.543v-23.809h2.92v8.545c1.367-1.582,3.087-2.369,5.166-2.369c1.276,0,2.384,0.244,3.328,0.75
		c0.944,0.503,1.617,1.199,2.021,2.087c0.406,0.894,0.611,2.178,0.611,3.867v10.929h-2.927v-10.929c0-1.461-0.313-2.522-0.947-3.188
		c-0.635-0.672-1.529-1.001-2.691-1.001c-0.863,0-1.681,0.222-2.441,0.674c-0.765,0.45-1.312,1.062-1.632,1.826
		c-0.328,0.771-0.488,1.834-0.488,3.188v9.431H558.05z"/>
	<path fill="#61853F" d="M577.26,216.098v-3.363h2.924v3.363H577.26z M577.26,236.543V219.3h2.924v17.243H577.26z"/>
	<path fill="#61853F" d="M585.267,236.543v-23.809h2.927v23.809H585.267z"/>
	<path fill="#61853F" d="M604.61,236.543v-2.171c-1.092,1.705-2.698,2.562-4.822,2.562c-1.376,0-2.637-0.375-3.791-1.131
		c-1.153-0.765-2.048-1.819-2.683-3.18c-0.631-1.361-0.947-2.92-0.947-4.687c0-1.719,0.286-3.286,0.863-4.685
		c0.573-1.406,1.429-2.477,2.58-3.226c1.149-0.749,2.43-1.116,3.848-1.116c1.039,0,1.964,0.214,2.778,0.657
		c0.813,0.436,1.471,1.009,1.982,1.712v-8.545h2.905v23.809H604.61z M595.371,227.937c0,2.21,0.466,3.86,1.397,4.953
		c0.934,1.094,2.03,1.644,3.295,1.644c1.279,0,2.365-0.527,3.257-1.567c0.894-1.046,1.345-2.644,1.345-4.783
		c0-2.362-0.459-4.098-1.369-5.198c-0.909-1.107-2.028-1.659-3.361-1.659c-1.301,0-2.386,0.536-3.257,1.591
		C595.806,223.978,595.371,225.652,595.371,227.937z"/>
	<path fill="#61853F" d="M622.933,236.543v-23.809h8.2c1.856,0,3.268,0.114,4.242,0.345c1.364,0.313,2.529,0.879,3.492,1.705
		c1.254,1.062,2.194,2.415,2.816,4.065c0.624,1.651,0.937,3.539,0.937,5.664c0,1.804-0.214,3.408-0.634,4.807
		c-0.421,1.392-0.964,2.554-1.628,3.463c-0.657,0.917-1.38,1.635-2.164,2.162c-0.786,0.527-1.733,0.926-2.843,1.193
		c-1.112,0.274-2.385,0.404-3.828,0.404H622.933z M626.085,233.738h5.087c1.566,0,2.797-0.145,3.691-0.442
		c0.895-0.29,1.604-0.703,2.136-1.23c0.745-0.749,1.329-1.75,1.747-3.012c0.415-1.261,0.626-2.797,0.626-4.594
		c0-2.492-0.413-4.401-1.23-5.739s-1.811-2.232-2.981-2.69c-0.84-0.322-2.2-0.482-4.073-0.482h-5.002V233.738z"/>
	<path fill="#61853F" d="M659.092,230.996l3.019,0.366c-0.474,1.766-1.36,3.141-2.645,4.111c-1.292,0.979-2.935,1.461-4.938,1.461
		c-2.526,0-4.524-0.772-6.003-2.331c-1.479-1.553-2.221-3.73-2.221-6.536c0-2.904,0.749-5.15,2.247-6.756
		c1.49-1.604,3.432-2.4,5.81-2.4c2.307,0,4.194,0.78,5.655,2.354c1.459,1.567,2.193,3.777,2.193,6.627
		c0,0.169-0.007,0.429-0.016,0.78h-12.862c0.105,1.896,0.642,3.34,1.604,4.349c0.963,1.01,2.164,1.514,3.608,1.514
		c1.069,0,1.987-0.282,2.744-0.849C658.044,233.127,658.648,232.226,659.092,230.996z M649.492,226.263h9.63
		c-0.13-1.452-0.496-2.536-1.104-3.263c-0.93-1.123-2.136-1.689-3.619-1.689c-1.345,0-2.477,0.451-3.39,1.345
		C650.096,223.558,649.591,224.758,649.492,226.263z"/>
	<path fill="#61853F" d="M677.737,234.418c-1.081,0.917-2.125,1.567-3.127,1.949c-1.001,0.375-2.074,0.566-3.221,0.566
		c-1.896,0-3.355-0.459-4.372-1.384c-1.016-0.934-1.529-2.109-1.529-3.555c0-0.84,0.195-1.612,0.582-2.315
		c0.382-0.695,0.886-1.253,1.505-1.673c0.627-0.429,1.327-0.749,2.105-0.964c0.573-0.152,1.441-0.298,2.599-0.436
		c2.358-0.283,4.101-0.619,5.217-1.009c0.008-0.397,0.015-0.657,0.015-0.765c0-1.192-0.274-2.025-0.832-2.516
		c-0.741-0.664-1.854-0.993-3.325-0.993c-1.375,0-2.393,0.246-3.05,0.728c-0.652,0.48-1.138,1.329-1.452,2.553l-2.858-0.391
		c0.26-1.223,0.688-2.209,1.283-2.958c0.598-0.756,1.457-1.338,2.584-1.742c1.125-0.406,2.431-0.604,3.913-0.604
		c1.477,0,2.668,0.169,3.593,0.521c0.918,0.344,1.593,0.778,2.025,1.306c0.436,0.521,0.738,1.187,0.91,1.988
		c0.099,0.497,0.145,1.398,0.145,2.698v3.897c0,2.714,0.065,4.433,0.191,5.151c0.123,0.727,0.367,1.414,0.738,2.071h-3.055
		C678.017,235.94,677.825,235.229,677.737,234.418z M677.496,227.891c-1.062,0.429-2.655,0.795-4.777,1.101
		c-1.199,0.176-2.052,0.367-2.553,0.589c-0.497,0.215-0.879,0.527-1.153,0.947c-0.269,0.413-0.405,0.879-0.405,1.393
		c0,0.778,0.298,1.429,0.886,1.949c0.589,0.519,1.453,0.778,2.591,0.778c1.125,0,2.126-0.251,3.005-0.741
		c0.879-0.496,1.521-1.169,1.934-2.025c0.313-0.657,0.474-1.635,0.474-2.92V227.891z"/>
	<path fill="#61853F" d="M692.064,233.929l0.42,2.584c-0.825,0.176-1.56,0.259-2.208,0.259c-1.063,0-1.885-0.167-2.47-0.503
		c-0.584-0.337-0.993-0.78-1.234-1.323c-0.24-0.549-0.355-1.696-0.355-3.454v-9.92h-2.147V219.3h2.147v-4.271l2.904-1.758v6.029
		h2.943v2.271h-2.943v10.088c0,0.833,0.055,1.368,0.153,1.605c0.106,0.237,0.275,0.429,0.504,0.565
		c0.237,0.145,0.566,0.215,1.002,0.215C691.101,234.045,691.529,234.006,692.064,233.929z"/>
	<path fill="#61853F" d="M695.618,236.543v-23.809h2.927v8.545c1.361-1.582,3.08-2.369,5.159-2.369c1.28,0,2.393,0.244,3.333,0.75
		c0.94,0.503,1.616,1.199,2.021,2.087c0.408,0.894,0.608,2.178,0.608,3.867v10.929h-2.92v-10.929c0-1.461-0.321-2.522-0.952-3.188
		c-0.635-0.672-1.533-1.001-2.687-1.001c-0.868,0-1.682,0.222-2.445,0.674c-0.765,0.45-1.308,1.062-1.637,1.826
		c-0.321,0.771-0.481,1.834-0.481,3.188v9.431H695.618z"/>
	<path fill="#61853F" d="M725.182,236.543v-23.809h10.555c2.121,0,3.737,0.215,4.839,0.642c1.108,0.429,1.987,1.186,2.647,2.263
		c0.661,1.086,0.99,2.285,0.99,3.593c0,1.689-0.547,3.111-1.639,4.273c-1.094,1.153-2.782,1.895-5.068,2.208
		c0.834,0.397,1.468,0.795,1.899,1.185c0.921,0.849,1.793,1.903,2.615,3.164l4.142,6.481h-3.959l-3.157-4.952
		c-0.917-1.431-1.673-2.522-2.27-3.278c-0.596-0.758-1.132-1.292-1.601-1.591c-0.47-0.306-0.953-0.519-1.437-0.635
		c-0.356-0.075-0.945-0.114-1.756-0.114h-3.653v10.57H725.182z M728.33,223.245h6.771c1.441,0,2.568-0.152,3.379-0.451
		s1.431-0.771,1.851-1.429c0.424-0.649,0.635-1.361,0.635-2.133c0-1.123-0.406-2.048-1.224-2.774
		c-0.817-0.726-2.109-1.093-3.876-1.093h-7.536V223.245z"/>
	<path fill="#61853F" d="M761.283,230.996l3.023,0.366c-0.477,1.766-1.36,3.141-2.652,4.111c-1.283,0.979-2.931,1.461-4.937,1.461
		c-2.522,0-4.521-0.772-6.001-2.331c-1.475-1.553-2.217-3.73-2.217-6.536c0-2.904,0.749-5.15,2.241-6.756
		c1.497-1.604,3.435-2.4,5.815-2.4c2.308,0,4.188,0.78,5.656,2.354c1.459,1.567,2.19,3.777,2.19,6.627
		c0,0.169-0.005,0.429-0.02,0.78h-12.863c0.11,1.896,0.649,3.34,1.611,4.349c0.964,1.01,2.164,1.514,3.605,1.514
		c1.072,0,1.986-0.282,2.747-0.849C760.241,233.127,760.842,232.226,761.283,230.996z M751.688,226.263h9.63
		c-0.13-1.452-0.501-2.536-1.107-3.263c-0.93-1.123-2.138-1.689-3.623-1.689c-1.338,0-2.47,0.451-3.386,1.345
		C752.288,223.558,751.78,224.758,751.688,226.263z"/>
	<path fill="#61853F" d="M773.467,236.543l-6.561-17.243h3.087l3.7,10.326c0.404,1.116,0.771,2.278,1.107,3.479
		c0.261-0.91,0.619-2.004,1.085-3.28l3.838-10.524h3.004l-6.532,17.243H773.467z"/>
	<path fill="#61853F" d="M786.021,216.098v-3.363h2.927v3.363H786.021z M786.021,236.543V219.3h2.927v17.243H786.021z"/>
	<path fill="#61853F" d="M805.901,230.996l3.021,0.366c-0.477,1.766-1.355,3.141-2.647,4.111c-1.288,0.979-2.936,1.461-4.938,1.461
		c-2.522,0-4.524-0.772-6-2.331c-1.479-1.553-2.216-3.73-2.216-6.536c0-2.904,0.748-5.15,2.239-6.756
		c1.498-1.604,3.432-2.4,5.816-2.4c2.308,0,4.188,0.78,5.648,2.354c1.467,1.567,2.193,3.777,2.193,6.627
		c0,0.169-0.004,0.429-0.016,0.78h-12.862c0.105,1.896,0.645,3.34,1.608,4.349c0.963,1.01,2.166,1.514,3.604,1.514
		c1.074,0,1.986-0.282,2.744-0.849C804.857,233.127,805.458,232.226,805.901,230.996z M796.302,226.263h9.633
		c-0.13-1.452-0.499-2.536-1.104-3.263c-0.933-1.123-2.14-1.689-3.623-1.689c-1.342,0-2.469,0.451-3.386,1.345
		C796.904,223.558,796.4,224.758,796.302,226.263z"/>
	<path fill="#61853F" d="M816.479,236.543l-5.282-17.243h3.023l2.748,9.952l1.02,3.707c0.042-0.184,0.341-1.377,0.891-3.562
		l2.748-10.098h3.008l2.579,10.006l0.859,3.294l0.994-3.333l2.954-9.967h2.839l-5.388,17.243h-3.038l-2.748-10.325l-0.664-2.943
		l-3.494,13.269H816.479z"/>
	<path fill="#61853F" d="M358.435,276.464v-23.809h8.201c1.854,0,3.266,0.107,4.24,0.336c1.365,0.313,2.528,0.888,3.491,1.705
		c1.257,1.062,2.195,2.422,2.818,4.073c0.623,1.65,0.935,3.531,0.935,5.656c0,1.811-0.21,3.408-0.635,4.807
		c-0.42,1.399-0.962,2.554-1.624,3.47c-0.659,0.918-1.382,1.637-2.167,2.155c-0.785,0.527-1.733,0.926-2.843,1.2
		c-1.11,0.268-2.384,0.406-3.825,0.406H358.435z M361.585,273.652h5.085c1.568,0,2.801-0.146,3.693-0.437
		c0.894-0.291,1.605-0.703,2.136-1.238c0.747-0.742,1.33-1.75,1.747-3.012c0.417-1.261,0.625-2.789,0.625-4.586
		c0-2.491-0.409-4.402-1.227-5.739c-0.817-1.338-1.812-2.24-2.98-2.69c-0.845-0.328-2.204-0.488-4.076-0.488h-5.003V273.652z"/>
	<path fill="#61853F" d="M394.037,274.331c-1.083,0.926-2.125,1.575-3.126,1.949c-1.001,0.383-2.076,0.573-3.225,0.573
		c-1.894,0-3.35-0.466-4.368-1.391c-1.019-0.925-1.527-2.109-1.527-3.546c0-0.849,0.193-1.62,0.577-2.316s0.886-1.261,1.509-1.681
		c0.623-0.422,1.324-0.742,2.104-0.956c0.573-0.153,1.441-0.299,2.599-0.443c2.359-0.283,4.098-0.611,5.212-1.002
		c0.012-0.404,0.018-0.657,0.018-0.763c0-1.193-0.277-2.034-0.828-2.522c-0.749-0.657-1.857-0.986-3.331-0.986
		c-1.375,0-2.391,0.237-3.045,0.719c-0.656,0.48-1.139,1.338-1.455,2.56l-2.858-0.39c0.26-1.223,0.688-2.208,1.284-2.966
		c0.596-0.749,1.456-1.329,2.583-1.735c1.125-0.404,2.43-0.611,3.914-0.611c1.473,0,2.668,0.176,3.588,0.521
		c0.921,0.344,1.598,0.78,2.031,1.308c0.434,0.527,0.736,1.191,0.91,1.986c0.098,0.505,0.147,1.399,0.147,2.698v3.897
		c0,2.721,0.061,4.441,0.185,5.159c0.125,0.719,0.371,1.406,0.74,2.072h-3.054C394.318,275.853,394.123,275.149,394.037,274.331z
		 M393.792,267.805c-1.061,0.435-2.652,0.802-4.772,1.107c-1.204,0.167-2.052,0.367-2.551,0.58
		c-0.499,0.215-0.883,0.536-1.152,0.949c-0.271,0.42-0.407,0.886-0.407,1.391c0,0.779,0.294,1.429,0.885,1.949
		c0.59,0.519,1.454,0.779,2.591,0.779c1.125,0,2.129-0.245,3.003-0.742c0.879-0.488,1.523-1.162,1.934-2.018
		c0.314-0.665,0.47-1.636,0.47-2.927V267.805z"/>
	<path fill="#61853F" d="M408.362,273.85l0.422,2.583c-0.824,0.168-1.559,0.26-2.209,0.26c-1.06,0-1.884-0.167-2.469-0.504
		c-0.584-0.336-0.995-0.779-1.234-1.331c-0.239-0.542-0.357-1.696-0.357-3.447v-9.92h-2.144v-2.277h2.144v-4.272l2.907-1.751v6.023
		h2.94v2.277h-2.94v10.082c0,0.833,0.052,1.367,0.155,1.611c0.104,0.237,0.271,0.422,0.504,0.566
		c0.233,0.139,0.566,0.214,0.999,0.214C407.405,273.964,407.831,273.926,408.362,273.85z"/>
	<path fill="#61853F" d="M423.175,274.331c-1.081,0.926-2.125,1.575-3.127,1.949c-1.001,0.383-2.074,0.573-3.221,0.573
		c-1.898,0-3.354-0.466-4.373-1.391c-1.018-0.925-1.527-2.109-1.527-3.546c0-0.849,0.193-1.62,0.578-2.316
		c0.384-0.696,0.887-1.261,1.51-1.681c0.623-0.422,1.324-0.742,2.104-0.956c0.573-0.153,1.44-0.299,2.598-0.443
		c2.358-0.283,4.101-0.611,5.217-1.002c0.008-0.404,0.015-0.657,0.015-0.763c0-1.193-0.274-2.034-0.832-2.522
		c-0.741-0.657-1.854-0.986-3.325-0.986c-1.375,0-2.392,0.237-3.049,0.719c-0.654,0.48-1.137,1.338-1.45,2.56l-2.858-0.39
		c0.259-1.223,0.686-2.208,1.282-2.966c0.596-0.749,1.456-1.329,2.581-1.735c1.126-0.404,2.433-0.611,3.915-0.611
		c1.475,0,2.668,0.176,3.593,0.521c0.916,0.344,1.593,0.78,2.025,1.308c0.436,0.527,0.738,1.191,0.91,1.986
		c0.099,0.505,0.145,1.399,0.145,2.698v3.897c0,2.721,0.064,4.441,0.191,5.159c0.123,0.719,0.367,1.406,0.738,2.072h-3.055
		C423.454,275.853,423.263,275.149,423.175,274.331z M422.934,267.805c-1.062,0.435-2.656,0.802-4.777,1.107
		c-1.2,0.167-2.052,0.367-2.553,0.58c-0.497,0.215-0.88,0.536-1.152,0.949c-0.27,0.42-0.405,0.886-0.405,1.391
		c0,0.779,0.294,1.429,0.885,1.949c0.589,0.519,1.452,0.779,2.59,0.779c1.125,0,2.125-0.245,3.004-0.742
		c0.879-0.488,1.522-1.162,1.935-2.018c0.313-0.665,0.474-1.636,0.474-2.927V267.805z"/>
	<path fill="#61853F" d="M433.81,276.464h-2.709v-23.809h2.924v8.491c1.233-1.551,2.813-2.324,4.723-2.324
		c1.063,0,2.067,0.215,3.016,0.643c0.947,0.428,1.728,1.032,2.338,1.804c0.611,0.772,1.09,1.704,1.441,2.798
		c0.344,1.093,0.52,2.262,0.52,3.508c0,2.957-0.734,5.244-2.193,6.855c-1.464,1.612-3.217,2.423-5.267,2.423
		c-2.032,0-3.63-0.848-4.792-2.553V276.464z M433.778,267.705c0,2.071,0.283,3.562,0.849,4.486c0.918,1.507,2.164,2.255,3.73,2.255
		c1.28,0,2.384-0.55,3.317-1.666c0.932-1.107,1.398-2.76,1.398-4.96c0-2.247-0.451-3.914-1.346-4.984
		c-0.89-1.07-1.971-1.604-3.24-1.604c-1.276,0-2.377,0.55-3.31,1.659C434.246,264.006,433.778,265.61,433.778,267.705z"/>
	<path fill="#61853F" d="M461.569,274.331c-1.081,0.926-2.125,1.575-3.125,1.949c-1.002,0.383-2.076,0.573-3.226,0.573
		c-1.892,0-3.349-0.466-4.365-1.391c-1.021-0.925-1.528-2.109-1.528-3.546c0-0.849,0.191-1.62,0.576-2.316
		c0.387-0.696,0.888-1.261,1.51-1.681c0.624-0.422,1.322-0.742,2.103-0.956c0.573-0.153,1.444-0.299,2.599-0.443
		c2.362-0.283,4.101-0.611,5.213-1.002c0.015-0.404,0.02-0.657,0.02-0.763c0-1.193-0.279-2.034-0.83-2.522
		c-0.748-0.657-1.857-0.986-3.328-0.986c-1.377,0-2.39,0.237-3.047,0.719c-0.656,0.48-1.138,1.338-1.452,2.56l-2.858-0.39
		c0.261-1.223,0.688-2.208,1.285-2.966c0.596-0.749,1.452-1.329,2.584-1.735c1.123-0.404,2.43-0.611,3.913-0.611
		c1.471,0,2.667,0.176,3.584,0.521c0.925,0.344,1.598,0.78,2.032,1.308c0.437,0.527,0.734,1.191,0.91,1.986
		c0.101,0.505,0.145,1.399,0.145,2.698v3.897c0,2.721,0.062,4.441,0.188,5.159c0.126,0.719,0.37,1.406,0.736,2.072h-3.049
		C461.853,275.853,461.657,275.149,461.569,274.331z M461.325,267.805c-1.06,0.435-2.652,0.802-4.769,1.107
		c-1.208,0.167-2.057,0.367-2.554,0.58c-0.496,0.215-0.883,0.536-1.154,0.949c-0.267,0.42-0.405,0.886-0.405,1.391
		c0,0.779,0.295,1.429,0.888,1.949c0.587,0.519,1.451,0.779,2.591,0.779c1.123,0,2.124-0.245,3.004-0.742
		c0.879-0.488,1.521-1.162,1.934-2.018c0.313-0.665,0.466-1.636,0.466-2.927V267.805z"/>
	<path fill="#61853F" d="M468.342,271.312l2.896-0.45c0.16,1.153,0.611,2.041,1.354,2.66c0.74,0.618,1.78,0.924,3.109,0.924
		c1.347,0,2.34-0.275,2.99-0.818c0.648-0.549,0.974-1.191,0.974-1.925c0-0.658-0.286-1.178-0.859-1.56
		c-0.402-0.26-1.399-0.589-2.988-0.986c-2.148-0.543-3.632-1.016-4.46-1.406c-0.83-0.397-1.457-0.947-1.885-1.644
		c-0.428-0.694-0.643-1.468-0.643-2.315c0-0.765,0.176-1.475,0.527-2.132s0.833-1.2,1.438-1.637
		c0.459-0.336,1.078-0.618,1.861-0.849c0.783-0.236,1.628-0.352,2.526-0.352c1.353,0,2.54,0.2,3.565,0.589
		c1.02,0.39,1.776,0.917,2.266,1.582c0.49,0.666,0.822,1.552,1.009,2.668l-2.858,0.391c-0.13-0.888-0.508-1.584-1.132-2.08
		c-0.622-0.497-1.505-0.741-2.637-0.741c-1.345,0-2.305,0.222-2.876,0.666c-0.574,0.441-0.861,0.962-0.861,1.558
		c0,0.376,0.119,0.719,0.36,1.024c0.237,0.313,0.61,0.573,1.116,0.779c0.294,0.107,1.153,0.352,2.582,0.742
		c2.071,0.559,3.513,1.009,4.33,1.36s1.457,0.864,1.923,1.536c0.466,0.666,0.703,1.498,0.703,2.5c0,0.97-0.288,1.888-0.856,2.751
		c-0.565,0.864-1.392,1.529-2.461,1.995c-1.07,0.473-2.285,0.71-3.639,0.71c-2.239,0-3.947-0.466-5.12-1.397
		C469.419,274.522,468.67,273.147,468.342,271.312z"/>
	<path fill="#61853F" d="M498.654,270.908l3.02,0.374c-0.475,1.766-1.361,3.135-2.646,4.112c-1.292,0.971-2.935,1.459-4.937,1.459
		c-2.527,0-4.524-0.779-6.005-2.331c-1.479-1.551-2.22-3.737-2.22-6.534c0-2.905,0.749-5.159,2.248-6.757
		c1.489-1.605,3.432-2.408,5.808-2.408c2.309,0,4.196,0.789,5.657,2.355c1.459,1.573,2.192,3.783,2.192,6.627
		c0,0.176-0.008,0.435-0.015,0.778h-12.864c0.107,1.896,0.643,3.348,1.605,4.356c0.963,1.002,2.162,1.506,3.607,1.506
		c1.07,0,1.987-0.282,2.744-0.84C497.607,273.04,498.211,272.145,498.654,270.908z M489.055,266.184h9.631
		c-0.131-1.453-0.498-2.545-1.105-3.264c-0.929-1.131-2.136-1.689-3.618-1.689c-1.345,0-2.477,0.443-3.391,1.345
		C489.658,263.47,489.154,264.678,489.055,266.184z"/>
	<path fill="#61853F" d="M516.355,276.464v-23.809h8.202c1.849,0,3.263,0.107,4.241,0.336c1.36,0.313,2.526,0.888,3.493,1.705
		c1.253,1.062,2.193,2.422,2.813,4.073c0.626,1.65,0.936,3.531,0.936,5.656c0,1.811-0.209,3.408-0.63,4.807
		c-0.429,1.399-0.967,2.554-1.628,3.47c-0.657,0.918-1.383,1.637-2.167,2.155c-0.782,0.527-1.731,0.926-2.843,1.2
		c-1.112,0.268-2.385,0.406-3.826,0.406H516.355z M519.504,273.652h5.084c1.574,0,2.805-0.146,3.698-0.437
		c0.895-0.291,1.606-0.703,2.134-1.238c0.749-0.742,1.329-1.75,1.749-3.012c0.413-1.261,0.624-2.789,0.624-4.586
		c0-2.491-0.409-4.402-1.228-5.739c-0.818-1.338-1.812-2.24-2.98-2.69c-0.841-0.328-2.201-0.488-4.073-0.488h-5.008V273.652z"/>
	<path fill="#61853F" d="M552.513,270.908l3.021,0.374c-0.478,1.766-1.36,3.135-2.652,4.112c-1.283,0.971-2.931,1.459-4.938,1.459
		c-2.521,0-4.52-0.779-6-2.331c-1.475-1.551-2.215-3.737-2.215-6.534c0-2.905,0.749-5.159,2.238-6.757
		c1.499-1.605,3.436-2.408,5.816-2.408c2.309,0,4.188,0.789,5.656,2.355c1.46,1.573,2.189,3.783,2.189,6.627
		c0,0.176-0.004,0.435-0.02,0.778h-12.862c0.11,1.896,0.648,3.348,1.612,4.356c0.963,1.002,2.163,1.506,3.604,1.506
		c1.074,0,1.987-0.282,2.747-0.84C551.469,273.04,552.068,272.145,552.513,270.908z M542.915,266.184h9.631
		c-0.13-1.453-0.501-2.545-1.107-3.264c-0.93-1.131-2.137-1.689-3.623-1.689c-1.338,0-2.47,0.443-3.387,1.345
		C543.516,263.47,543.008,264.678,542.915,266.184z"/>
	<path fill="#61853F" d="M564.691,276.464l-6.559-17.251h3.085l3.702,10.334c0.402,1.107,0.769,2.27,1.105,3.47
		c0.259-0.91,0.622-2.002,1.088-3.278l3.829-10.525h3.008l-6.53,17.251H564.691z"/>
	<path fill="#61853F" d="M589.043,270.908l3.019,0.374c-0.475,1.766-1.361,3.135-2.645,4.112c-1.292,0.971-2.936,1.459-4.938,1.459
		c-2.526,0-4.525-0.779-6.005-2.331c-1.479-1.551-2.22-3.737-2.22-6.534c0-2.905,0.75-5.159,2.248-6.757
		c1.49-1.605,3.431-2.408,5.808-2.408c2.309,0,4.196,0.789,5.655,2.355c1.461,1.573,2.195,3.783,2.195,6.627
		c0,0.176-0.009,0.435-0.016,0.778h-12.864c0.107,1.896,0.644,3.348,1.605,4.356c0.963,1.002,2.163,1.506,3.608,1.506
		c1.069,0,1.986-0.282,2.744-0.84C587.995,273.04,588.599,272.145,589.043,270.908z M579.441,266.184h9.631
		c-0.13-1.453-0.497-2.545-1.104-3.264c-0.93-1.131-2.138-1.689-3.619-1.689c-1.347,0-2.477,0.443-3.39,1.345
		C580.046,263.47,579.542,264.678,579.441,266.184z"/>
	<path fill="#61853F" d="M596.364,276.464v-23.809h2.927v23.809H596.364z"/>
	<path fill="#61853F" d="M603.435,267.834c0-3.195,0.886-5.556,2.659-7.093c1.482-1.276,3.295-1.919,5.427-1.919
		c2.369,0,4.311,0.78,5.816,2.332c1.507,1.551,2.254,3.699,2.254,6.443c0,2.216-0.332,3.959-0.997,5.234
		c-0.668,1.27-1.635,2.263-2.907,2.966s-2.661,1.055-4.166,1.055c-2.415,0-4.364-0.779-5.855-2.322
		C604.175,272.979,603.435,270.747,603.435,267.834z M606.438,267.834c0,2.209,0.481,3.868,1.443,4.969
		c0.964,1.093,2.18,1.643,3.639,1.643c1.452,0,2.66-0.55,3.623-1.65c0.963-1.108,1.444-2.791,1.444-5.052
		c0-2.134-0.486-3.753-1.453-4.854c-0.969-1.094-2.173-1.644-3.614-1.644c-1.459,0-2.675,0.543-3.639,1.635
		C606.92,263.975,606.438,265.625,606.438,267.834z"/>
	<path fill="#61853F" d="M623.719,283.076v-23.862h2.668v2.239c0.626-0.872,1.334-1.536,2.125-1.973
		c0.791-0.435,1.75-0.657,2.873-0.657c1.475,0,2.775,0.383,3.898,1.141c1.127,0.756,1.979,1.826,2.553,3.201
		c0.573,1.384,0.855,2.896,0.855,4.54c0,1.766-0.313,3.354-0.947,4.77s-1.552,2.499-2.76,3.248c-1.207,0.757-2.477,1.131-3.81,1.131
		c-0.974,0-1.851-0.206-2.626-0.619c-0.771-0.411-1.406-0.932-1.902-1.559v8.4H623.719z M626.367,267.934
		c0,2.225,0.447,3.859,1.349,4.922c0.898,1.063,1.988,1.59,3.265,1.59c1.299,0,2.411-0.55,3.34-1.643
		c0.925-1.101,1.383-2.806,1.383-5.114c0-2.193-0.451-3.844-1.352-4.938c-0.903-1.092-1.988-1.635-3.241-1.635
		c-1.246,0-2.347,0.58-3.307,1.742C626.846,264.021,626.367,265.717,626.367,267.934z"/>
	<path fill="#61853F" d="M642.918,276.464v-17.251h2.615v2.422c0.542-0.848,1.261-1.527,2.162-2.039
		c0.895-0.514,1.918-0.773,3.064-0.773c1.281,0,2.327,0.269,3.146,0.796c0.817,0.534,1.394,1.276,1.729,2.224
		c1.362-2.011,3.138-3.02,5.328-3.02c1.709,0,3.027,0.475,3.944,1.422c0.921,0.949,1.384,2.408,1.384,4.379v11.841h-2.913v-10.869
		c0-1.169-0.091-2.011-0.282-2.522c-0.188-0.52-0.531-0.932-1.032-1.246c-0.496-0.313-1.081-0.466-1.751-0.466
		c-1.215,0-2.224,0.397-3.021,1.208c-0.8,0.803-1.204,2.094-1.204,3.874v10.021h-2.92v-11.206c0-1.299-0.241-2.276-0.719-2.927
		c-0.474-0.649-1.254-0.971-2.338-0.971c-0.821,0-1.583,0.215-2.278,0.65c-0.703,0.428-1.208,1.062-1.521,1.895
		c-0.313,0.834-0.475,2.034-0.475,3.607v8.951H642.918z"/>
	<path fill="#61853F" d="M683.134,270.908l3.022,0.374c-0.479,1.766-1.361,3.135-2.653,4.112c-1.283,0.971-2.931,1.459-4.938,1.459
		c-2.521,0-4.52-0.779-5.998-2.331c-1.477-1.551-2.217-3.737-2.217-6.534c0-2.905,0.749-5.159,2.238-6.757
		c1.499-1.605,3.437-2.408,5.816-2.408c2.309,0,4.189,0.789,5.656,2.355c1.46,1.573,2.189,3.783,2.189,6.627
		c0,0.176-0.004,0.435-0.02,0.778h-12.862c0.11,1.896,0.65,3.348,1.612,4.356c0.963,1.002,2.163,1.506,3.604,1.506
		c1.074,0,1.987-0.282,2.749-0.84C682.09,273.04,682.689,272.145,683.134,270.908z M673.536,266.184h9.631
		c-0.13-1.453-0.5-2.545-1.107-3.264c-0.93-1.131-2.137-1.689-3.623-1.689c-1.338,0-2.469,0.443-3.387,1.345
		C674.137,263.47,673.629,264.678,673.536,266.184z"/>
	<path fill="#61853F" d="M690.521,276.464v-17.251h2.628v2.453c1.27-1.895,3.101-2.844,5.497-2.844c1.039,0,1.993,0.185,2.865,0.559
		c0.872,0.375,1.521,0.863,1.957,1.476c0.432,0.603,0.734,1.321,0.91,2.154c0.105,0.543,0.16,1.491,0.16,2.845v10.608h-2.924V265.97
		c0-1.192-0.11-2.079-0.341-2.676c-0.229-0.589-0.635-1.055-1.211-1.406c-0.577-0.352-1.257-0.527-2.036-0.527
		c-1.246,0-2.324,0.391-3.226,1.185c-0.903,0.788-1.354,2.285-1.354,4.495v9.424H690.521z"/>
	<path fill="#61853F" d="M716.103,273.85l0.424,2.583c-0.822,0.168-1.56,0.26-2.21,0.26c-1.058,0-1.884-0.167-2.468-0.504
		c-0.585-0.336-0.998-0.779-1.234-1.331c-0.237-0.542-0.359-1.696-0.359-3.447v-9.92h-2.14v-2.277h2.14v-4.272l2.912-1.751v6.023
		h2.936v2.277h-2.936v10.082c0,0.833,0.046,1.367,0.152,1.611c0.1,0.237,0.268,0.422,0.505,0.566
		c0.229,0.139,0.564,0.214,0.993,0.214C715.146,273.964,715.575,273.926,716.103,273.85z"/>
	<path fill="#61853F" d="M729.974,276.464v-23.809h8.981c1.582,0,2.789,0.068,3.623,0.222c1.169,0.198,2.147,0.564,2.934,1.116
		c0.796,0.542,1.431,1.313,1.911,2.3c0.481,0.979,0.726,2.063,0.726,3.248c0,2.019-0.648,3.737-1.934,5.137
		c-1.292,1.406-3.618,2.102-6.985,2.102h-6.105v9.685H729.974z M733.124,263.975h6.152c2.041,0,3.484-0.382,4.341-1.14
		c0.855-0.756,1.284-1.826,1.284-3.202c0-0.993-0.253-1.85-0.757-2.553c-0.505-0.71-1.17-1.178-1.992-1.406
		c-0.53-0.145-1.509-0.213-2.938-0.213h-6.091V263.975z"/>
	<path fill="#61853F" d="M752.453,276.464v-17.251h2.629v2.613c0.673-1.222,1.291-2.025,1.861-2.415
		c0.569-0.389,1.195-0.589,1.877-0.589c0.984,0,1.986,0.314,3.003,0.94l-1.01,2.714c-0.71-0.42-1.429-0.635-2.14-0.635
		c-0.643,0-1.216,0.191-1.724,0.582c-0.508,0.382-0.872,0.916-1.089,1.597c-0.321,1.04-0.488,2.178-0.488,3.408v9.035H752.453z"/>
	<path fill="#61853F" d="M763.168,267.834c0-3.195,0.891-5.556,2.668-7.093c1.482-1.276,3.289-1.919,5.423-1.919
		c2.373,0,4.307,0.78,5.812,2.332c1.507,1.551,2.263,3.699,2.263,6.443c0,2.216-0.336,3.959-1.001,5.234
		c-0.664,1.27-1.636,2.263-2.908,2.966c-1.271,0.703-2.66,1.055-4.165,1.055c-2.415,0-4.368-0.779-5.855-2.322
		C763.918,272.979,763.168,270.747,763.168,267.834z M766.172,267.834c0,2.209,0.485,3.868,1.448,4.969
		c0.963,1.093,2.175,1.643,3.639,1.643c1.448,0,2.656-0.55,3.618-1.65c0.967-1.108,1.448-2.791,1.448-5.052
		c0-2.134-0.485-3.753-1.455-4.854c-0.967-1.094-2.171-1.644-3.611-1.644c-1.464,0-2.676,0.543-3.639,1.635
		C766.657,263.975,766.172,265.625,766.172,267.834z"/>
	<path fill="#61853F" d="M779.738,283.152l0.551-2.484c0.589,0.153,1.048,0.229,1.384,0.229c0.596,0,1.039-0.198,1.329-0.596
		c0.291-0.389,0.439-1.384,0.439-2.957v-18.13h2.923v18.191c0,2.124-0.274,3.599-0.824,4.432c-0.707,1.086-1.876,1.628-3.509,1.628
		C781.236,283.464,780.472,283.359,779.738,283.152z M783.441,256.048v-3.393h2.923v3.393H783.441z"/>
	<path fill="#61853F" d="M803.355,270.908l3.019,0.374c-0.473,1.766-1.36,3.135-2.644,4.112c-1.292,0.971-2.936,1.459-4.938,1.459
		c-2.526,0-4.525-0.779-6.004-2.331c-1.479-1.551-2.22-3.737-2.22-6.534c0-2.905,0.749-5.159,2.246-6.757
		c1.491-1.605,3.432-2.408,5.81-2.408c2.309,0,4.196,0.789,5.655,2.355c1.461,1.573,2.194,3.783,2.194,6.627
		c0,0.176-0.008,0.435-0.015,0.778h-12.864c0.107,1.896,0.642,3.348,1.605,4.356c0.963,1.002,2.162,1.506,3.607,1.506
		c1.07,0,1.986-0.282,2.743-0.84C802.309,273.04,802.913,272.145,803.355,270.908z M793.756,266.184h9.63
		c-0.13-1.453-0.496-2.545-1.104-3.264c-0.929-1.131-2.137-1.689-3.62-1.689c-1.345,0-2.477,0.443-3.389,1.345
		C794.359,263.47,793.854,264.678,793.756,266.184z"/>
	<path fill="#61853F" d="M822.001,270.143l2.878,0.374c-0.316,1.979-1.123,3.532-2.415,4.655c-1.292,1.116-2.882,1.681-4.77,1.681
		c-2.357,0-4.257-0.771-5.69-2.315c-1.433-1.543-2.151-3.753-2.151-6.634c0-1.865,0.306-3.493,0.925-4.893
		c0.619-1.391,1.56-2.445,2.821-3.141c1.261-0.696,2.632-1.048,4.115-1.048c1.872,0,3.405,0.475,4.597,1.422
		c1.192,0.949,1.953,2.294,2.289,4.036l-2.839,0.436c-0.274-1.154-0.753-2.026-1.441-2.613c-0.688-0.582-1.516-0.872-2.495-0.872
		c-1.468,0-2.668,0.527-3.584,1.582c-0.925,1.055-1.384,2.721-1.384,5.007c0,2.316,0.443,4.004,1.329,5.052
		c0.892,1.055,2.05,1.574,3.478,1.574c1.147,0,2.109-0.352,2.874-1.055C821.311,272.688,821.794,271.602,822.001,270.143z"/>
	<path fill="#61853F" d="M834.456,273.85l0.424,2.583c-0.821,0.168-1.56,0.26-2.209,0.26c-1.058,0-1.884-0.167-2.469-0.504
		c-0.584-0.336-0.997-0.779-1.234-1.331c-0.237-0.542-0.358-1.696-0.358-3.447v-9.92h-2.14v-2.277h2.14v-4.272l2.911-1.751v6.023
		h2.936v2.277h-2.936v10.082c0,0.833,0.047,1.367,0.154,1.611c0.099,0.237,0.266,0.422,0.503,0.566
		c0.229,0.139,0.566,0.214,0.993,0.214C833.501,273.964,833.929,273.926,834.456,273.85z"/>
</g>
<polygon fill="#A5BA84" points="68.945,68.944 137.89,68.944 137.89,0 0,0 0,137.894 68.945,137.894 "/>
<rect x="81.027" y="81.033" fill="#61853F" width="113.727" height="113.727"/>
<polygon fill="#A5BA84" points="206.835,137.894 206.835,206.839 131.883,206.839 131.883,275.784 269.772,275.784 269.772,137.894 
	"/>
</svg>
