<?xml version="1.0" encoding="utf-8"?>
<!-- Generator: Adobe Illustrator 15.1.0, SVG Export Plug-In . SVG Version: 6.00 Build 0)  -->
<!DOCTYPE svg PUBLIC "-//W3C//DTD SVG 1.1//EN" "http://www.w3.org/Graphics/SVG/1.1/DTD/svg11.dtd">
<svg version="1.1" xmlns="http://www.w3.org/2000/svg" xmlns:xlink="http://www.w3.org/1999/xlink" x="0px" y="0px"
	 width="497.506px" height="283.465px" viewBox="0 0 497.506 283.465" enable-background="new 0 0 497.506 283.465"
	 xml:space="preserve">
<g id="Background">
	<rect fill="#3272AF" width="497.506" height="283.465"/>
</g>
<g id="Birthplace_Choices">
	<path fill="#FFFFFF" d="M103.524,237.413c-3.957,1.921-11.646,3.843-21.481,3.843c-22.159,0-40.023-14.357-40.023-43.527
		c0-27.812,17.298-45.11,42.51-45.11c10.288,0,16.282,2.148,18.995,3.506l-2.487,7.914c-3.958-1.924-9.497-3.506-16.28-3.506
		c-19.559,0-32.9,13.115-32.9,36.856c0,22.611,12.209,35.953,32.334,35.953c6.558,0,13.002-1.469,17.298-3.504L103.524,237.413z"/>
	<path fill="#FFFFFF" d="M170.68,202.477c0-20.917-13.002-25.55-20.578-25.55c-7.573,0-15.036,4.183-19.105,10.967h-0.227v-38.329
		h-9.384v90.447h9.384v-37.874c0-11.307,9.045-17.297,16.282-17.297c10.626,0,14.244,8.703,14.244,18.768v36.403h9.384V202.477z"/>
	<path fill="#FFFFFF" d="M217.71,176.927c-15.714,0-28.83,11.645-28.83,32.673c0,19.897,12.209,31.77,28.037,31.77
		c13.684,0,28.83-9.724,28.83-32.675C245.747,189.813,234.557,176.927,217.71,176.927z M217.145,234.02
		c-11.079,0-18.654-11.079-18.654-24.759c0-11.872,5.54-24.986,18.882-24.986c13.452,0,18.766,13.791,18.766,24.759
		C236.138,222.94,228.339,234.02,217.145,234.02z"/>
	<rect x="264.518" y="178.396" fill="#FFFFFF" width="9.383" height="61.616"/>
	<path fill="#FFFFFF" d="M336.983,230.516c-3.051,1.357-7.236,3.053-13.339,3.053c-12.438,0-21.37-9.383-21.37-24.308
		c0-13.228,7.464-24.647,21.709-24.647c5.991,0,10.061,1.696,12.662,3.167l2.373-7.577c-2.373-1.242-7.914-3.276-14.81-3.276
		c-18.995,0-31.543,13.904-31.543,32.899c0,18.882,11.646,31.43,29.281,31.43c7.916,0,14.019-2.148,16.732-3.504L336.983,230.516z"
		/>
	<path fill="#FFFFFF" d="M393.965,203.27h-32.673c0.903-8.48,5.88-19.221,17.184-19.221
		C390.573,184.049,394.078,194.901,393.965,203.27 M403.236,205.077c0-10.74-4.863-28.15-23.855-28.15
		c-16.62,0-27.474,13.906-27.474,33.238c0,18.429,10.74,31.093,28.717,31.093c9.383,0,15.828-2.15,19.336-3.847l-1.812-6.782
		c-3.843,1.582-8.48,3.165-16.167,3.165c-11.079,0-20.801-6.443-20.916-23.518h41.943
		C403.125,208.808,403.236,207.226,403.236,205.077"/>
	<path fill="#FFFFFF" d="M453.319,180.657c-3.28-2.035-8.253-3.73-14.134-3.73c-12.437,0-20.123,7.914-20.123,17.523
		c0,7.462,5.315,13.228,15.717,17.411c8.137,3.278,11.418,6.445,11.418,12.209c0,5.54-4.07,9.949-12.325,9.949
		c-5.313,0-10.626-2.261-13.906-4.182l-2.6,7.234c4.184,2.487,10.064,4.184,16.167,4.184c13.457,0,21.821-7.236,21.821-18.202
		c0-9.271-5.766-14.471-15.715-18.543c-7.914-3.392-11.42-5.879-11.42-11.19c0-4.977,3.618-9.159,10.401-9.159
		c5.541,0,9.725,2.148,11.984,3.619L453.319,180.657z"/>
	<path fill="#FFFFFF" d="M455.354,89.676c0-10.551-4.316-23.884-19.569-23.884c-12.565,0-22.64,9.975-22.64,27.818
		c0,14.963,9.02,25.801,23.407,25.801c9.306,0,14.485-2.589,15.924-3.452l-1.149-2.591c-2.782,1.344-6.619,3.263-14.294,3.263
		c-12.95,0-20.527-9.209-20.432-25.325h38.657C455.354,90.826,455.354,90.348,455.354,89.676z M416.985,88.333
		c0.959-8.536,6.428-19.856,18.418-19.856c13.813,0,16.306,14.101,16.21,19.856H416.985z"/>
	<path fill="#FFFFFF" d="M401.444,113.273c-2.78,1.248-6.714,3.358-13.235,3.358c-12.472,0-21.393-9.688-21.393-23.79
		c0-12.661,7.864-24.267,22.445-24.267c5.756,0,9.785,2.013,12.183,3.452l1.535-2.493c-3.069-2.494-9.306-3.741-13.62-3.741
		c-14.774,0-25.996,10.838-25.996,27.434c0,15.252,9.688,26.186,24.268,26.186c7.676,0,13.047-2.589,15.157-3.643L401.444,113.273z"
		/>
	<path fill="#FFFFFF" d="M348.397,106.176V85.839c0-8.729-2.397-20.047-16.88-20.047c-3.935,0-9.499,1.15-14.294,4.508l1.343,2.493
		c3.739-2.685,8.347-4.124,12.662-4.124c13.813,0,13.813,12.564,13.813,18.415c-21.298-0.287-31.466,7.005-31.466,18.61
		c0,6.619,4.509,13.813,14.872,13.813c8.44,0,14.193-4.988,16.594-8.92h0.19l0.768,7.769h3.165
		C348.493,114.233,348.397,110.204,348.397,106.176z M344.946,102.435c0,4.219-4.509,14.292-16.689,14.292
		c-5.664,0-11.225-3.645-11.225-11.607c0-13.718,17.937-15.252,27.914-15.061V102.435z"/>
	<rect x="294.97" y="42.098" fill="#FFFFFF" width="3.356" height="76.261"/>
	<path fill="#FFFFFF" d="M257.175,65.792c-7.481,0-15.25,3.836-19.279,11.414h-0.191l-0.289-10.264h-3.454
		c0.289,4.893,0.385,9.881,0.385,16.307v56.403h3.358v-30.311h0.191c3.742,6.427,10.84,10.168,18.13,10.168
		c12.278,0,23.405-9.114,23.405-27.722C279.431,76.919,270.703,65.792,257.175,65.792z M256.217,116.727
		c-9.017,0-18.513-7.577-18.513-18.608V88.046c0-8.153,7.194-19.472,19.185-19.472c11.896,0,19.088,10.455,19.088,23.404
		C275.977,106.08,268.688,116.727,256.217,116.727z"/>
	<path fill="#FFFFFF" d="M220.628,87.181c0-19.758-13.14-21.389-17.745-21.389c-4.317,0-12.757,1.726-17.841,10.838h-0.191V42.098
		h-3.357v76.259h3.357V86.894c0-9.975,8.632-18.224,17.456-18.224c11.225,0,14.966,9.399,14.966,18.896v30.792h3.355V87.181z"/>
	<path fill="#FFFFFF" d="M149.166,66.942h-8.92v2.974h8.92v34.246c0,6.042,0.768,15.25,11.223,15.25c2.974,0,4.988-0.574,6.62-1.246
		l-0.767-2.495c-1.249,0.48-2.976,0.96-5.661,0.96c-5.563,0-8.058-4.797-8.058-11.318V69.916h15.157v-2.974h-15.157V56.007
		l-3.357,1.534V66.942z"/>
	<path fill="#FFFFFF" d="M134.874,66.079c-0.671-0.191-1.246-0.287-1.918-0.287c-7.291,0-12.566,5.563-14.677,11.894h-0.288
		L117.8,66.942h-3.166c0.288,4.989,0.384,10.456,0.384,15.157v36.258h3.357V89.58c0-11.511,5.946-20.719,14.293-20.719
		c0.864,0,1.344,0.096,2.206,0.191V66.079z"/>
	<rect x="96.506" y="66.942" fill="#FFFFFF" width="3.357" height="51.417"/>
	<path fill="#FFFFFF" d="M101.589,52.17c0-2.11-1.343-3.836-3.357-3.836c-2.014,0-3.453,1.822-3.453,3.836
		c0,2.013,1.343,3.837,3.357,3.837C100.151,56.007,101.589,54.472,101.589,52.17"/>
	<path fill="#FFFFFF" d="M65.426,79.797v-0.385c7.098-2.397,12.565-8.631,12.565-16.115c0-8.729-4.22-17.937-22.445-17.937
		c-4.99,0-9.593,0.669-13.526,1.63v71.271c2.686,0.191,6.619,0.576,11.705,0.576c9.687,0,17.361-1.919,22.06-7.003
		c2.687-2.78,5.086-7.097,5.086-13.524C80.871,86.031,71.085,81.042,65.426,79.797z M45.377,49.197
		c1.727-0.385,4.508-0.961,9.499-0.961c11.318,0,19.567,4.125,19.567,14.963v0.098c0,8.347-6.906,15.061-17.648,15.061H45.377
		V49.197z M54.683,116.055c-3.934,0-6.812-0.095-9.306-0.767V81.138h9.69c11.415,0,22.253,4.988,22.253,17.46
		C77.32,111.643,66.289,116.055,54.683,116.055z"/>
	<polygon fill="#FFFFFF" points="274.992,140.941 274.992,170.279 289.661,155.611 	"/>
	<polygon fill="#FFFFFF" points="263.421,140.945 248.753,155.611 263.421,170.277 	"/>
</g>
</svg>
