<?xml version="1.0" encoding="utf-8"?>
<!-- Generator: Adobe Illustrator 15.1.0, SVG Export Plug-In . SVG Version: 6.00 Build 0)  -->
<!DOCTYPE svg PUBLIC "-//W3C//DTD SVG 1.1//EN" "http://www.w3.org/Graphics/SVG/1.1/DTD/svg11.dtd">
<svg version="1.1" id="Layer_1" xmlns="http://www.w3.org/2000/svg" xmlns:xlink="http://www.w3.org/1999/xlink" x="0px" y="0px"
	 width="923.982px" height="212.6px" viewBox="0 0 923.982 212.6" enable-background="new 0 0 923.982 212.6" xml:space="preserve">
<g>
	<path fill="#4E3E7F" d="M923.983,156.739c0,30.073-24.381,54.451-54.451,54.451H288.415c-30.073,0-54.455-24.378-54.455-54.451
		V55.853c0-30.072,24.379-54.451,54.455-54.451h581.117c30.074,0,54.451,24.378,54.451,54.451V156.739L923.983,156.739z"/>
	<g>
		<g>
			<path fill="#FFFFFF" d="M290.543,45.521h8.948l17.832,46.358h-9.172l-3.627-9.548h-18.915l-3.771,9.548h-9.169L290.543,45.521z
				 M295.073,57.811l-6.218,15.916h12.403L295.073,57.811z"/>
			<path fill="#FFFFFF" d="M324.491,57.591h8.604v3.515c1.95-1.645,3.719-2.791,5.302-3.433c1.583-0.644,3.206-0.962,4.861-0.962
				c3.399,0,6.285,1.188,8.655,3.561c1.994,2.019,2.989,5.003,2.989,8.952v22.66h-8.507V76.867c0-4.094-0.187-6.81-0.551-8.153
				c-0.364-1.343-1.006-2.365-1.917-3.069c-0.914-0.702-2.038-1.055-3.381-1.055c-1.74,0-3.233,0.582-4.479,1.748
				c-1.248,1.164-2.113,2.773-2.596,4.833c-0.251,1.068-0.375,3.389-0.375,6.955v13.756h-8.604L324.491,57.591L324.491,57.591z"/>
			<path fill="#FFFFFF" d="M389.822,57.591h8.604V91.88h-8.604v-3.625c-1.68,1.596-3.364,2.748-5.051,3.452
				c-1.69,0.705-3.521,1.058-5.493,1.058c-4.428,0-8.259-1.716-11.489-5.152c-3.232-3.437-4.848-7.708-4.848-12.81
				c0-5.294,1.561-9.633,4.689-13.018c3.127-3.386,6.924-5.075,11.395-5.075c2.058,0,3.985,0.388,5.791,1.164
				c1.805,0.778,3.474,1.942,5.004,3.5L389.822,57.591L389.822,57.591z M380.777,64.649c-2.659,0-4.867,0.94-6.626,2.822
				c-1.76,1.881-2.64,4.292-2.64,7.23c0,2.963,0.895,5.398,2.687,7.313c1.789,1.907,3.992,2.869,6.609,2.869
				c2.703,0,4.942-0.939,6.723-2.819c1.78-1.879,2.67-4.346,2.67-7.391c0-2.983-0.892-5.399-2.67-7.25
				C385.751,65.576,383.502,64.649,380.777,64.649z"/>
			<path fill="#FFFFFF" d="M407.471,44.354h8.604V91.88h-8.604V44.354z"/>
			<path fill="#FFFFFF" d="M421.376,57.591h8.793l8.906,21.517l9.829-21.517h8.816l-21.474,46.832h-8.886l7.05-15.101
				L421.376,57.591z"/>
			<path fill="#FFFFFF" d="M484.901,62.383l-5.33,5.327c-2.164-2.143-4.129-3.215-5.893-3.215c-0.967,0-1.723,0.207-2.27,0.613
				c-0.541,0.412-0.816,0.921-0.816,1.528c0,0.462,0.176,0.885,0.52,1.276c0.35,0.393,1.203,0.92,2.568,1.591l3.148,1.577
				c3.322,1.642,5.598,3.311,6.844,5.011c1.238,1.704,1.854,3.698,1.854,5.987c0,3.045-1.121,5.589-3.354,7.625
				c-2.234,2.037-5.24,3.057-8.998,3.057c-5.002,0-8.996-1.955-11.978-5.86l5.294-5.766c1.012,1.178,2.189,2.125,3.545,2.851
				c1.355,0.727,2.557,1.089,3.607,1.089c1.133,0,2.049-0.274,2.744-0.821c0.693-0.546,1.039-1.175,1.039-1.89
				c0-1.324-1.25-2.617-3.75-3.879l-2.902-1.448c-5.541-2.795-8.316-6.295-8.316-10.499c0-2.71,1.044-5.026,3.136-6.952
				c2.09-1.92,4.764-2.88,8.02-2.88c2.229,0,4.322,0.484,6.287,1.463C481.87,59.15,483.536,60.552,484.901,62.383z"/>
			<path fill="#FFFFFF" d="M496.952,43.472c1.51,0,2.805,0.547,3.885,1.64c1.078,1.094,1.619,2.418,1.619,3.974
				c0,1.532-0.535,2.842-1.605,3.923c-1.066,1.082-2.346,1.623-3.832,1.623c-1.531,0-2.834-0.548-3.912-1.65
				c-1.076-1.104-1.621-2.439-1.621-4.02c0-1.515,0.535-2.807,1.604-3.877C494.157,44.008,495.446,43.472,496.952,43.472z
				 M492.651,57.591h8.6V91.88h-8.6V57.591z"/>
			<path fill="#FFFFFF" d="M531.349,62.383l-5.326,5.327c-2.166-2.143-4.127-3.215-5.895-3.215c-0.967,0-1.723,0.207-2.268,0.613
				c-0.549,0.412-0.818,0.921-0.818,1.528c0,0.462,0.17,0.885,0.52,1.276c0.348,0.391,1.199,0.92,2.566,1.591l3.152,1.577
				c3.316,1.642,5.598,3.311,6.836,5.011c1.238,1.704,1.861,3.698,1.861,5.987c0,3.045-1.125,5.589-3.357,7.625
				c-2.234,2.037-5.238,3.057-8.996,3.057c-5.008,0-8.992-1.955-11.98-5.86l5.297-5.766c1.01,1.178,2.189,2.125,3.545,2.851
				c1.357,0.727,2.555,1.089,3.609,1.089c1.131,0,2.043-0.274,2.738-0.821c0.693-0.546,1.039-1.175,1.039-1.89
				c0-1.324-1.252-2.617-3.746-3.879l-2.902-1.448c-5.541-2.795-8.318-6.295-8.318-10.499c0-2.71,1.047-5.026,3.137-6.952
				c2.096-1.92,4.766-2.88,8.021-2.88c2.23,0,4.32,0.484,6.287,1.463C528.319,59.15,529.981,60.552,531.349,62.383z"/>
			<path fill="#FFFFFF" d="M575.503,56.711c3.236,0,6.277,0.808,9.125,2.425c2.846,1.618,5.066,3.814,6.67,6.588
				c1.59,2.774,2.395,5.769,2.395,8.981c0,3.235-0.807,6.262-2.414,9.08c-1.605,2.814-3.799,5.015-6.57,6.602
				s-5.83,2.381-9.168,2.381c-4.922,0-9.117-1.751-12.594-5.248c-3.475-3.499-5.215-7.748-5.215-12.751
				c0-5.354,1.965-9.821,5.896-13.394C567.065,58.265,571.024,56.711,575.503,56.711z M575.644,64.808
				c-2.674,0-4.898,0.935-6.682,2.791c-1.777,1.86-2.666,4.237-2.666,7.138c0,2.984,0.877,5.4,2.633,7.249
				c1.762,1.852,3.979,2.775,6.682,2.775c2.691,0,4.936-0.937,6.721-2.804c1.789-1.869,2.689-4.278,2.689-7.219
				c0-2.938-0.883-5.329-2.641-7.167C580.628,65.728,578.38,64.808,575.644,64.808z"/>
			<path fill="#FFFFFF" d="M597.911,57.591h3.055c0.025-4.494,0.1-7.153,0.225-7.973c0.229-1.893,1.021-3.393,2.377-4.496
				c1.352-1.103,3.268-1.651,5.75-1.651c1.789,0,3.803,0.409,6.051,1.229v6.554c-1.242-0.354-2.258-0.534-3.055-0.534
				c-1.008,0-1.744,0.211-2.207,0.627c-0.34,0.315-0.504,0.967-0.504,1.956l-0.033,4.287h5.453v7.279h-5.453v27.007h-8.604V64.87
				h-3.053v-7.279H597.911z"/>
			<path fill="#FFFFFF" d="M684.259,53.67l-6.17,5.883c-4.199-4.435-8.922-6.654-14.17-6.654c-4.43,0-8.164,1.515-11.199,4.543
				c-3.027,3.027-4.551,6.76-4.551,11.199c0,3.091,0.678,5.836,2.018,8.234c1.342,2.396,3.242,4.281,5.699,5.648
				c2.459,1.366,5.186,2.048,8.188,2.048c2.563,0,4.902-0.479,7.021-1.436s4.447-2.698,6.99-5.222l5.98,6.241
				c-3.426,3.342-6.666,5.659-9.709,6.952c-3.047,1.29-6.521,1.938-10.43,1.938c-7.209,0-13.105-2.286-17.695-6.854
				c-4.59-4.566-6.887-10.426-6.887-17.568c0-4.624,1.045-8.729,3.137-12.322c2.088-3.591,5.08-6.481,8.98-8.667
				s8.094-3.277,12.59-3.277c3.826,0,7.506,0.809,11.047,2.425C678.646,48.391,681.696,50.69,684.259,53.67z"/>
			<path fill="#FFFFFF" d="M708.431,56.711c3.234,0,6.275,0.808,9.121,2.425c2.848,1.618,5.068,3.814,6.67,6.588
				c1.596,2.774,2.395,5.769,2.395,8.981c0,3.235-0.803,6.262-2.408,9.08c-1.607,2.814-3.801,5.015-6.576,6.602
				c-2.771,1.587-5.83,2.381-9.168,2.381c-4.916,0-9.111-1.751-12.586-5.248c-3.479-3.499-5.219-7.748-5.219-12.751
				c0-5.354,1.965-9.821,5.896-13.394C699.995,58.265,703.956,56.711,708.431,56.711z M708.571,64.808
				c-2.67,0-4.898,0.935-6.678,2.791c-1.781,1.86-2.668,4.237-2.668,7.138c0,2.984,0.875,5.4,2.631,7.249
				c1.762,1.852,3.982,2.775,6.686,2.775c2.688,0,4.932-0.937,6.719-2.804c1.787-1.869,2.686-4.278,2.686-7.219
				c0-2.938-0.879-5.329-2.639-7.167C713.556,65.728,711.31,64.808,708.571,64.808z"/>
			<path fill="#FFFFFF" d="M734.964,44.354h8.543v16.704c1.68-1.451,3.371-2.536,5.078-3.262c1.701-0.727,3.42-1.086,5.166-1.086
				c3.4,0,6.271,1.178,8.604,3.526c1.992,2.039,2.996,5.033,2.996,8.983v22.66h-8.477V76.847c0-3.973-0.191-6.661-0.57-8.069
				c-0.379-1.405-1.025-2.457-1.938-3.147c-0.912-0.694-2.047-1.042-3.387-1.042c-1.744,0-3.24,0.578-4.496,1.731
				c-1.252,1.154-2.111,2.731-2.598,4.729c-0.256,1.029-0.383,3.385-0.383,7.059v13.771h-8.543L734.964,44.354L734.964,44.354z"/>
			<path fill="#FFFFFF" d="M791.062,56.711c3.23,0,6.277,0.808,9.125,2.425c2.846,1.618,5.068,3.814,6.666,6.588
				c1.596,2.774,2.396,5.769,2.396,8.981c0,3.235-0.809,6.262-2.414,9.08c-1.604,2.814-3.795,5.015-6.568,6.602
				c-2.775,1.588-5.83,2.381-9.172,2.381c-4.92,0-9.111-1.751-12.59-5.248c-3.479-3.499-5.215-7.748-5.215-12.751
				c0-5.354,1.965-9.821,5.895-13.394C782.628,58.265,786.587,56.711,791.062,56.711z M791.206,64.808
				c-2.678,0-4.902,0.935-6.686,2.791c-1.773,1.86-2.664,4.237-2.664,7.138c0,2.984,0.879,5.4,2.633,7.249
				c1.76,1.852,3.979,2.775,6.68,2.775c2.695,0,4.938-0.937,6.725-2.804c1.785-1.869,2.686-4.278,2.686-7.219
				c0-2.938-0.881-5.329-2.637-7.167C796.187,65.728,793.94,64.808,791.206,64.808z"/>
			<path fill="#FFFFFF" d="M815.55,57.591h7.373v4.317c0.801-1.702,1.857-2.995,3.184-3.875c1.326-0.883,2.773-1.325,4.354-1.325
				c1.113,0,2.277,0.294,3.5,0.881l-2.682,7.406c-1.01-0.502-1.84-0.753-2.492-0.753c-1.32,0-2.439,0.816-3.355,2.458
				c-0.912,1.639-1.373,4.854-1.373,9.644l0.033,1.67v13.865h-8.539V57.591H815.55z"/>
			<path fill="#FFFFFF" d="M840.536,44.955h8.611v12.639h5.098V65h-5.098v26.881h-8.611V64.999h-4.41v-7.406h4.41V44.955z"/>
			<path fill="#FFFFFF" d="M881.13,62.383l-5.33,5.327c-2.164-2.143-4.125-3.215-5.891-3.215c-0.971,0-1.725,0.207-2.271,0.613
				c-0.549,0.412-0.818,0.921-0.818,1.528c0,0.462,0.174,0.885,0.52,1.276c0.35,0.391,1.203,0.92,2.57,1.591l3.15,1.577
				c3.318,1.642,5.596,3.311,6.832,5.011c1.24,1.704,1.861,3.698,1.861,5.987c0,3.045-1.121,5.589-3.359,7.625
				c-2.232,2.037-5.234,3.057-8.994,3.057c-5.006,0-8.988-1.955-11.975-5.86l5.293-5.766c1.006,1.178,2.186,2.125,3.545,2.851
				c1.354,0.727,2.555,1.089,3.609,1.089c1.133,0,2.043-0.274,2.736-0.821c0.695-0.546,1.041-1.175,1.041-1.89
				c0-1.324-1.252-2.617-3.748-3.879l-2.9-1.448c-5.545-2.795-8.318-6.295-8.318-10.499c0-2.71,1.047-5.026,3.139-6.952
				c2.094-1.92,4.762-2.88,8.023-2.88c2.225,0,4.314,0.484,6.283,1.463C878.101,59.15,879.761,60.552,881.13,62.383z"/>
		</g>
		<g>
			<path fill="#FFFFFF" d="M312.357,128.885h8.604v34.289h-8.604v-3.625c-1.679,1.594-3.364,2.747-5.051,3.45
				c-1.69,0.703-3.521,1.057-5.493,1.057c-4.429,0-8.257-1.715-11.489-5.15c-3.233-3.437-4.851-7.708-4.851-12.811
				c0-5.295,1.563-9.631,4.692-13.019c3.128-3.383,6.924-5.075,11.396-5.075c2.055,0,3.986,0.39,5.791,1.165
				c1.805,0.777,3.474,1.942,5.004,3.5L312.357,128.885L312.357,128.885z M303.315,135.943c-2.659,0-4.87,0.94-6.629,2.819
				c-1.759,1.882-2.639,4.295-2.639,7.232c0,2.963,0.896,5.399,2.684,7.311c1.791,1.911,3.993,2.872,6.613,2.872
				c2.702,0,4.944-0.939,6.723-2.819c1.779-1.879,2.669-4.344,2.669-7.391c0-2.983-0.891-5.401-2.669-7.25
				C308.287,136.866,306.037,135.943,303.315,135.943z"/>
			<path fill="#FFFFFF" d="M330.951,128.885h8.604v3.515c1.95-1.646,3.719-2.789,5.302-3.43c1.584-0.643,3.207-0.966,4.863-0.966
				c3.399,0,6.285,1.188,8.654,3.561c1.995,2.019,2.99,5.002,2.99,8.951v22.664h-8.508v-15.018c0-4.097-0.185-6.813-0.549-8.153
				c-0.366-1.343-1.006-2.364-1.917-3.069c-0.914-0.703-2.041-1.055-3.381-1.055c-1.738,0-3.233,0.582-4.48,1.747
				c-1.247,1.166-2.112,2.777-2.595,4.831c-0.252,1.066-0.375,3.391-0.375,6.955v13.757h-8.604v-34.29H330.951z"/>
			<path fill="#FFFFFF" d="M396.284,115.647h8.604v47.524h-8.604v-3.627c-1.68,1.596-3.364,2.748-5.051,3.453
				c-1.691,0.703-3.521,1.056-5.493,1.056c-4.429,0-8.258-1.714-11.49-5.15c-3.231-3.437-4.847-7.708-4.847-12.81
				c0-5.295,1.563-9.632,4.689-13.02c3.125-3.386,6.924-5.075,11.396-5.075c2.058,0,3.985,0.39,5.791,1.166
				c1.805,0.776,3.474,1.942,5.007,3.498v-17.016H396.284z M387.239,135.943c-2.659,0-4.869,0.94-6.626,2.819
				c-1.76,1.882-2.64,4.295-2.64,7.232c0,2.963,0.895,5.399,2.687,7.311c1.789,1.911,3.992,2.872,6.609,2.872
				c2.703,0,4.943-0.939,6.722-2.819c1.779-1.879,2.669-4.344,2.669-7.391c0-2.983-0.891-5.401-2.669-7.25
				C392.209,136.866,389.96,135.943,387.239,135.943z"/>
			<path fill="#FFFFFF" d="M450.613,116.812h9.347c5.123,0,8.768,0.458,10.939,1.372c2.174,0.914,3.92,2.433,5.242,4.555
				c1.324,2.122,1.982,4.632,1.982,7.532c0,3.047-0.73,5.596-2.189,7.644c-1.461,2.05-3.662,3.597-6.604,4.649l10.982,20.61h-9.645
				l-10.426-19.633h-0.809v19.633h-8.823v-46.362H450.613L450.613,116.812z M459.436,134.933h2.766c2.807,0,4.74-0.368,5.797-1.106
				c1.061-0.741,1.59-1.96,1.59-3.668c0-1.01-0.266-1.894-0.789-2.642c-0.523-0.744-1.225-1.282-2.104-1.609
				c-0.879-0.329-2.488-0.489-4.839-0.489h-2.419v9.515H459.436L459.436,134.933z"/>
			<path fill="#FFFFFF" d="M503.901,128.002c3.236,0,6.275,0.808,9.125,2.425c2.852,1.617,5.072,3.814,6.668,6.588
				c1.596,2.775,2.396,5.769,2.396,8.982c0,3.235-0.807,6.262-2.416,9.08c-1.605,2.813-3.795,5.014-6.566,6.602
				c-2.771,1.584-5.832,2.376-9.174,2.376c-4.916,0-9.111-1.749-12.59-5.246c-3.475-3.5-5.207-7.747-5.207-12.749
				c0-5.357,1.961-9.822,5.889-13.394C495.466,129.555,499.427,128.002,503.901,128.002z M504.044,136.098
				c-2.676,0-4.896,0.932-6.68,2.789c-1.777,1.861-2.672,4.239-2.672,7.139c0,2.986,0.883,5.401,2.643,7.25
				c1.754,1.85,3.977,2.774,6.674,2.774c2.691,0,4.934-0.938,6.729-2.806c1.785-1.869,2.684-4.276,2.684-7.217
				c0-2.942-0.877-5.332-2.631-7.168C509.026,137.018,506.78,136.098,504.044,136.098z"/>
			<path fill="#FFFFFF" d="M530.378,128.885h8.697v16.516c0,3.216,0.225,5.449,0.666,6.694c0.441,1.253,1.15,2.225,2.137,2.916
				c0.979,0.691,2.18,1.041,3.611,1.041c1.436,0,2.646-0.345,3.654-1.024c1-0.684,1.74-1.687,2.229-3.01
				c0.355-0.987,0.535-3.101,0.535-6.337v-16.796h8.607v14.525c0,5.986-0.48,10.086-1.418,12.292
				c-1.158,2.688-2.859,4.755-5.104,6.191c-2.254,1.439-5.107,2.158-8.572,2.158c-3.768,0-6.807-0.84-9.129-2.522
				c-2.318-1.681-3.953-4.023-4.896-7.023c-0.676-2.081-1.006-5.861-1.006-11.347v-14.273L530.378,128.885L530.378,128.885z"/>
			<path fill="#FFFFFF" d="M571.474,116.245h8.6v12.639h5.105v7.405h-5.105v26.882h-8.6V136.29h-4.414v-7.404h4.414V116.245z"/>
			<path fill="#FFFFFF" d="M594.429,114.762c1.51,0,2.801,0.551,3.881,1.642c1.076,1.091,1.619,2.418,1.619,3.973
				c0,1.535-0.535,2.841-1.605,3.921c-1.064,1.084-2.346,1.627-3.834,1.627c-1.527,0-2.834-0.552-3.91-1.654
				c-1.078-1.104-1.619-2.44-1.619-4.018c0-1.516,0.533-2.806,1.598-3.878C591.632,115.301,592.921,114.762,594.429,114.762z
				 M590.132,128.885h8.6v34.289h-8.6V128.885z"/>
			<path fill="#FFFFFF" d="M607.843,128.885h8.604v3.515c1.949-1.646,3.713-2.789,5.295-3.43c1.586-0.643,3.205-0.966,4.867-0.966
				c3.398,0,6.283,1.188,8.652,3.561c1.99,2.019,2.988,5.002,2.988,8.951v22.664h-8.512v-15.018c0-4.097-0.178-6.813-0.549-8.153
				c-0.371-1.343-1.008-2.364-1.914-3.069c-0.916-0.703-2.041-1.055-3.381-1.055c-1.74,0-3.234,0.582-4.484,1.747
				c-1.248,1.166-2.105,2.777-2.592,4.831c-0.252,1.066-0.379,3.391-0.379,6.955v13.757h-8.604v-34.292L607.843,128.885
				L607.843,128.885z"/>
			<path fill="#FFFFFF" d="M682.208,148.515h-27.639c0.398,2.438,1.463,4.376,3.201,5.814c1.73,1.439,3.943,2.159,6.635,2.159
				c3.213,0,5.979-1.121,8.285-3.37l7.248,3.402c-1.811,2.563-3.971,4.461-6.494,5.689c-2.521,1.228-5.514,1.844-8.979,1.844
				c-5.381,0-9.766-1.698-13.146-5.087c-3.385-3.397-5.076-7.646-5.076-12.751c0-5.229,1.689-9.575,5.063-13.031
				c3.369-3.456,7.598-5.185,12.684-5.185c5.4,0,9.793,1.729,13.17,5.185c3.387,3.456,5.078,8.021,5.078,13.692L682.208,148.515z
				 M673.604,141.742c-0.566-1.908-1.688-3.466-3.359-4.665c-1.67-1.196-3.609-1.798-5.822-1.798c-2.398,0-4.498,0.676-6.314,2.021
				c-1.135,0.844-2.184,2.322-3.152,4.442H673.604L673.604,141.742z"/>
			<path fill="#FFFFFF" d="M725.642,116.812h10.451c6.74,0,11.746,0.835,15.021,2.506c3.271,1.669,5.977,4.385,8.096,8.146
				c2.121,3.764,3.18,8.152,3.18,13.173c0,3.572-0.592,6.855-1.777,9.851c-1.191,2.994-2.822,5.478-4.914,7.455
				c-2.092,1.973-4.354,3.336-6.785,4.099c-2.436,0.756-6.654,1.135-12.652,1.135h-10.617L725.642,116.812L725.642,116.812z
				 M734.403,125.319v29.249h4.1c4.031,0,6.955-0.464,8.779-1.391c1.816-0.924,3.303-2.48,4.457-4.67
				c1.154-2.188,1.73-4.881,1.73-8.076c0-4.92-1.373-8.738-4.129-11.453c-2.479-2.438-6.457-3.661-11.941-3.661L734.403,125.319
				L734.403,125.319z"/>
			<path fill="#FFFFFF" d="M796.456,128.885h8.605v34.289h-8.605v-3.625c-1.684,1.594-3.365,2.747-5.053,3.45
				c-1.689,0.703-3.523,1.057-5.492,1.057c-4.432,0-8.262-1.715-11.492-5.15c-3.232-3.437-4.846-7.708-4.846-12.811
				c0-5.295,1.563-9.631,4.689-13.019c3.129-3.383,6.928-5.075,11.396-5.075c2.059,0,3.986,0.39,5.793,1.165
				c1.801,0.777,3.473,1.942,5.006,3.5L796.456,128.885L796.456,128.885z M787.411,135.943c-2.658,0-4.867,0.94-6.627,2.819
				c-1.762,1.882-2.639,4.295-2.639,7.232c0,2.963,0.896,5.399,2.688,7.311c1.785,1.911,3.992,2.872,6.607,2.872
				c2.701,0,4.945-0.939,6.725-2.819c1.779-1.879,2.67-4.344,2.67-7.391c0-2.983-0.891-5.401-2.668-7.25
				C792.388,136.866,790.134,135.943,787.411,135.943z"/>
			<path fill="#FFFFFF" d="M816.087,116.245h8.604v12.639h5.104v7.405h-5.104v26.882h-8.604V136.29h-4.414v-7.404h4.414V116.245z"/>
			<path fill="#FFFFFF" d="M860.999,128.885h8.604v34.289h-8.604v-3.625c-1.684,1.594-3.365,2.747-5.055,3.45
				s-3.521,1.057-5.494,1.057c-4.428,0-8.258-1.715-11.488-5.15c-3.232-3.437-4.846-7.708-4.846-12.811
				c0-5.295,1.563-9.631,4.689-13.019c3.129-3.383,6.928-5.075,11.396-5.075c2.059,0,3.986,0.39,5.795,1.165
				c1.801,0.777,3.471,1.942,5.004,3.5L860.999,128.885L860.999,128.885z M851.952,135.943c-2.658,0-4.867,0.94-6.623,2.819
				c-1.766,1.882-2.641,4.295-2.641,7.232c0,2.963,0.896,5.399,2.682,7.311c1.789,1.911,3.996,2.872,6.609,2.872
				c2.705,0,4.945-0.939,6.725-2.819c1.779-1.879,2.672-4.344,2.672-7.391c0-2.983-0.891-5.401-2.672-7.25
				C856.925,136.866,854.673,135.943,851.952,135.943z"/>
		</g>
	</g>
	<g>
		<g>
			<path fill="#8C3B7D" d="M156.742,212.597H55.858C25.06,212.597,0,187.538,0,156.739V55.853C0,25.053,25.06,0,55.858,0h100.883
				c30.802,0,55.858,25.058,55.858,55.854v100.886C212.599,187.539,187.542,212.597,156.742,212.597z M55.858,2.808
				c-29.25,0-53.048,23.795-53.048,53.045v100.886c0,29.253,23.798,53.046,53.048,53.046h100.883
				c29.253,0,53.048-23.793,53.048-53.046V55.853c0-29.25-23.797-53.045-53.048-53.045H55.858z"/>
		</g>
		<g>
			<path fill="#4E3E7F" d="M194.43,108.421c-16.052,31.934-49.831,76.82-114.199,82.17c0,0-68.08,6.148-59.189-41.169
				c0,0,7.293-34.903,52.713-13.382c0,0,64.862,32.585,115.212-31.142c0,0,2.106-2.983,4.666-1.219
				C193.635,103.678,195.961,105.345,194.43,108.421z"/>
		</g>
		<g>
			<path fill="#8C3B7D" d="M87.138,124.929c41.29,3.706,52.896-30.25,52.896-30.25c7.147-18.94,27.704-16.695,27.704-16.695
				c28.989,5.563-7.598,38.766-7.598,38.766c-26.252,21.264-56.237,17.475-74.521,11.93c0,0-2.29-0.552-2.035-2.341
				C83.585,126.338,83.683,124.177,87.138,124.929z"/>
		</g>
		<g>
			<path fill="#8C3B7D" d="M185.86,43.198c2.419,12.009-5.363,23.711-17.368,26.125c-11.986,2.426-23.694-5.349-26.115-17.366
				c-2.416-11.999,5.358-23.699,17.357-26.114C171.74,23.427,183.445,31.191,185.86,43.198z"/>
		</g>
		<g>
			<path fill="#4E3E7F" d="M132.258,59.719c4.956,24.574-10.96,48.487-35.504,53.44c-24.545,4.947-48.462-10.956-53.418-35.53
				c-4.945-24.54,10.963-48.457,35.5-53.4C103.38,19.287,127.309,35.174,132.258,59.719z"/>
		</g>
		<path fill="#FFFFFF" d="M58.654,136.787c-8.829-2.786-17.646-1.326-21.314,1.46c4.366-1.419,12.175-1.77,20.687,0.864
			c8.459,2.318,15.669,6.048,20.29,6.582C74.218,143.812,67.631,139.278,58.654,136.787z"/>
		<path fill="#FFFFFF" d="M171.269,82.124c-3.729-1.585-7.486-0.833-9.136,0.008c2.011,0.367,5.08,0.452,8.378,1.857
			c3.426,1.13,4.7,3.711,4.851,5.836C176.721,88.283,175.49,83.332,171.269,82.124z"/>
		<path fill="#FFFFFF" d="M175.022,31.551c-5.583-3.657-11.784-3.071-14.595-1.943c3.134,0.054,8.524,0.351,13.509,3.59
			c4.926,3.332,7.286,8.191,8.544,11.06C182.44,41.229,180.57,35.283,175.022,31.551z"/>
		<path fill="#FFFFFF" d="M110.08,34.997c-11.405-7.628-24.251-6.656-30.088-4.312c6.384-0.311,17.838,0.238,28.203,7.162
			c10.399,6.856,15.349,17.189,17.524,23.21C125.63,54.766,121.538,42.547,110.08,34.997z"/>
	</g>
	<path opacity="0.25" fill="#FFFFFF" enable-background="new    " d="M720.755,1.403l-85.732,199.093L570.462,28.651
		c-0.311-0.814-0.996-1.437-1.846-1.656c-0.854-0.223-1.748-0.016-2.416,0.553l-68.916,58.527L444.109,1.403h-6.352l56.621,90.16
		c0.412,0.664,1.094,1.111,1.863,1.229c0.773,0.133,1.559-0.098,2.148-0.609l68.375-58.06l65.563,174.518
		c0.389,1.024,1.361,1.714,2.455,1.744c0.977-0.009,2.102-0.617,2.531-1.628L726.606,1.404L720.755,1.403L720.755,1.403z"/>
	<path opacity="0.25" fill="#FFFFFF" enable-background="new    " d="M923.983,115.842l-23.43,49.599l-36.639-65.42
		c-0.5-0.898-1.494-1.373-2.502-1.373c-1.027,0.063-1.932,0.706-2.324,1.655l-44.961,108.422L737.499,1.403h-5.729l77.539,209.788
		h9.619l43.006-103.707l36.479,65.138c0.488,0.875,1.318,1.509,2.438,1.374c1.008-0.032,1.91-0.625,2.338-1.537l20.795-44.023
		V115.842L923.983,115.842z"/>
	<g opacity="0.25">
		<path fill="#FFFFFF" d="M544.294,1.403L478.147,181.18l-25.926-30.119c-0.546-0.635-1.37-0.975-2.223-0.926
			c-0.846,0.055-1.616,0.509-2.073,1.222l-22.658,35.107L355.089,36.904c-0.44-0.937-1.374-1.535-2.41-1.549
			c-0.921,0.083-1.98,0.576-2.438,1.501L287.393,164.01l-22.752-37.777c-0.767-1.271-2.423-1.683-3.689-0.917
			c-1.271,0.767-1.681,2.422-0.916,3.69l25.288,41.986c0.506,0.843,1.434,1.389,2.419,1.299c0.982-0.042,1.86-0.616,2.3-1.494
			L352.59,44.247l69.87,148.896c0.418,0.887,1.281,1.479,2.256,1.543c0.061,0.003,0.121,0.006,0.182,0.006
			c0.908,0,1.761-0.461,2.258-1.229l23.337-36.163l26.566,30.859c0.619,0.717,1.564,1.067,2.516,0.888
			c0.941-0.168,1.717-0.82,2.045-1.717L550.022,1.404L544.294,1.403L544.294,1.403z"/>
		<path fill="#FFFFFF" d="M783.265,1.403l-87.092,175.439L630.722,1.403h-5.736l68.324,183.135c0.375,1.002,1.313,1.688,2.379,1.745
			c1.025-0.017,2.076-0.535,2.547-1.49L788.552,2.859c0.23-0.473,0.27-0.967,0.219-1.457L783.265,1.403L783.265,1.403z"/>
	</g>
</g>
</svg>
