<?xml version="1.0" encoding="utf-8"?>
<!-- Generator: Adobe Illustrator 22.0.1, SVG Export Plug-In . SVG Version: 6.00 Build 0)  -->
<svg version="1.1" id="Layer_1" xmlns="http://www.w3.org/2000/svg" xmlns:xlink="http://www.w3.org/1999/xlink" x="0px" y="0px"
	 width="253.5px" height="283.5px" viewBox="0 0 253.5 283.5" enable-background="new 0 0 253.5 283.5" xml:space="preserve">
<g>
	<path fill="#BE955B" d="M7.9,282c-1.7-1-2.9-2.3-3.8-4.1c-0.9-1.8-1.3-3.9-1.3-6.4c0-2.4,0.4-4.6,1.3-6.4s2.2-3.2,3.8-4.1
		c1.7-1,3.6-1.4,5.8-1.4c1.5,0,2.8,0.2,4.1,0.7c1.3,0.5,2.4,1.1,3.4,2c0.4,0.3,0.6,0.8,0.6,1.3c0,0.4-0.1,0.7-0.3,1
		c-0.2,0.3-0.5,0.4-0.8,0.4c-0.4,0-0.7-0.1-1.1-0.4c-1.1-0.8-2-1.4-2.9-1.7c-0.9-0.3-1.9-0.5-3-0.5c-2.4,0-4.3,0.8-5.6,2.4
		s-2,3.8-2,6.8s0.7,5.2,2,6.8c1.3,1.6,3.2,2.4,5.6,2.4c1.1,0,2-0.2,2.9-0.5s1.9-0.9,3-1.7c0.4-0.3,0.8-0.4,1.1-0.4
		c0.3,0,0.6,0.1,0.8,0.4c0.2,0.3,0.3,0.6,0.3,1c0,0.6-0.2,1-0.6,1.3c-1,0.9-2.1,1.5-3.4,2s-2.7,0.7-4.1,0.7
		C11.5,283.5,9.6,283,7.9,282z"/>
	<path fill="#BE955B" d="M25.3,283c-0.3-0.3-0.5-0.7-0.5-1.2v-20.5c0-0.5,0.2-0.9,0.5-1.2c0.3-0.3,0.7-0.4,1.2-0.4s0.9,0.1,1.2,0.4
		c0.3,0.3,0.5,0.7,0.5,1.2v20.5c0,0.5-0.2,0.9-0.5,1.2c-0.3,0.3-0.7,0.4-1.2,0.4S25.7,283.2,25.3,283z"/>
	<path fill="#BE955B" d="M32.3,262.9c-0.4-0.4-0.6-0.8-0.6-1.4s0.2-1,0.6-1.4c0.4-0.3,0.9-0.5,1.5-0.5s1.1,0.2,1.5,0.5
		s0.6,0.8,0.6,1.4s-0.2,1-0.6,1.4s-0.9,0.5-1.5,0.5C33.1,263.4,32.6,263.2,32.3,262.9z M32.6,283c-0.3-0.3-0.5-0.7-0.5-1.2v-13.5
		c0-0.5,0.2-0.9,0.5-1.2c0.3-0.3,0.7-0.4,1.2-0.4s0.9,0.1,1.2,0.4s0.5,0.7,0.5,1.2v13.5c0,0.5-0.2,0.9-0.5,1.2
		c-0.3,0.3-0.7,0.4-1.2,0.4S32.9,283.2,32.6,283z"/>
	<path fill="#BE955B" d="M53.9,273.1v8.6c0,0.5-0.1,0.9-0.4,1.2c-0.3,0.3-0.7,0.4-1.2,0.4s-0.9-0.1-1.2-0.4s-0.4-0.7-0.4-1.2v-8.5
		c0-1.4-0.3-2.4-0.8-3s-1.4-1-2.5-1c-1.3,0-2.4,0.4-3.3,1.3c-0.8,0.8-1.2,2-1.2,3.4v7.8c0,0.5-0.1,0.9-0.4,1.2
		c-0.3,0.3-0.7,0.4-1.2,0.4s-0.9-0.1-1.2-0.4s-0.5-0.7-0.5-1.2v-13.5c0-0.5,0.2-0.8,0.5-1.1c0.3-0.3,0.7-0.4,1.2-0.4
		s0.9,0.1,1.2,0.4s0.4,0.7,0.4,1.1v1.4c0.5-1,1.3-1.7,2.2-2.2s2-0.8,3.2-0.8C51.9,266.6,53.9,268.8,53.9,273.1z"/>
	<path fill="#BE955B" d="M57.8,262.9c-0.4-0.4-0.6-0.8-0.6-1.4s0.2-1,0.6-1.4c0.4-0.3,0.9-0.5,1.5-0.5s1.1,0.2,1.5,0.5
		s0.6,0.8,0.6,1.4s-0.2,1-0.6,1.4s-0.9,0.5-1.5,0.5S58.2,263.2,57.8,262.9z M58.1,283c-0.3-0.3-0.5-0.7-0.5-1.2v-13.5
		c0-0.5,0.2-0.9,0.5-1.2c0.3-0.3,0.7-0.4,1.2-0.4s0.9,0.1,1.2,0.4s0.5,0.7,0.5,1.2v13.5c0,0.5-0.2,0.9-0.5,1.2
		c-0.3,0.3-0.7,0.4-1.2,0.4C58.9,283.4,58.5,283.2,58.1,283z"/>
	<path fill="#BE955B" d="M67.7,282.4c-1.2-0.7-2.1-1.7-2.8-2.9s-1-2.7-1-4.4c0-1.7,0.3-3.2,1-4.4c0.7-1.3,1.6-2.3,2.8-3
		s2.6-1.1,4.2-1.1c0.8,0,1.7,0.1,2.5,0.4c0.9,0.2,1.6,0.6,2.3,1c0.7,0.5,1.1,1.1,1.1,1.7c0,0.4-0.1,0.7-0.3,0.9
		c-0.2,0.3-0.5,0.4-0.8,0.4c-0.2,0-0.4,0-0.6-0.1s-0.5-0.2-0.8-0.4c-0.6-0.4-1.1-0.6-1.5-0.8c-0.5-0.2-1-0.3-1.7-0.3
		c-1.5,0-2.7,0.5-3.5,1.5s-1.2,2.4-1.2,4.2c0,1.8,0.4,3.2,1.2,4.2c0.8,1,2,1.5,3.5,1.5c0.7,0,1.3-0.1,1.8-0.3c0.5-0.2,1-0.5,1.6-0.8
		c0.2-0.2,0.5-0.3,0.7-0.4s0.5-0.2,0.7-0.2c0.3,0,0.6,0.1,0.8,0.4c0.2,0.3,0.3,0.6,0.3,0.9s-0.1,0.6-0.3,0.8
		c-0.2,0.3-0.4,0.5-0.8,0.8c-0.7,0.4-1.4,0.8-2.3,1s-1.8,0.4-2.7,0.4C70.2,283.4,68.9,283.1,67.7,282.4z"/>
	<path fill="#BE955B" d="M91.7,268.2c1,1.1,1.6,2.7,1.6,4.9v8.6c0,0.5-0.1,0.9-0.4,1.2c-0.3,0.3-0.7,0.4-1.2,0.4s-0.9-0.1-1.2-0.4
		c-0.3-0.3-0.4-0.7-0.4-1.2v-1.2c-0.4,0.9-1,1.6-1.9,2.1c-0.8,0.5-1.8,0.7-2.9,0.7s-2-0.2-2.9-0.6s-1.6-1-2.1-1.8s-0.7-1.6-0.7-2.6
		c0-1.2,0.3-2.1,0.9-2.8c0.6-0.7,1.6-1.2,3-1.4c1.4-0.3,3.3-0.4,5.8-0.4H90v-1c0-1.2-0.3-2.1-0.8-2.7s-1.3-0.8-2.5-0.8
		c-0.8,0-1.5,0.1-2.2,0.3c-0.7,0.2-1.4,0.5-2.3,0.9c-0.6,0.3-1,0.5-1.3,0.5s-0.6-0.1-0.8-0.4c-0.2-0.2-0.3-0.6-0.3-0.9
		s0.1-0.6,0.3-0.9c0.2-0.3,0.5-0.5,0.9-0.7c0.8-0.4,1.7-0.8,2.7-1c1-0.3,2-0.4,3-0.4C89.1,266.6,90.7,267.1,91.7,268.2z M88.9,279.7
		c0.8-0.8,1.2-1.9,1.2-3.2v-0.9h-0.6c-1.7,0-3.1,0.1-4,0.2c-0.9,0.2-1.6,0.4-2,0.8s-0.6,0.9-0.6,1.6c0,0.8,0.3,1.4,0.9,2
		c0.6,0.5,1.3,0.8,2.2,0.8C87.1,280.9,88.1,280.5,88.9,279.7z"/>
	<path fill="#BE955B" d="M97.6,283c-0.3-0.3-0.5-0.7-0.5-1.2v-20.5c0-0.5,0.2-0.9,0.5-1.2c0.3-0.3,0.7-0.4,1.2-0.4s0.9,0.1,1.2,0.4
		c0.3,0.3,0.5,0.7,0.5,1.2v20.5c0,0.5-0.2,0.9-0.5,1.2c-0.3,0.3-0.7,0.4-1.2,0.4C98.3,283.4,97.9,283.2,97.6,283z"/>
	<path fill="#BE955B" d="M118.7,282.9c-0.3-0.3-0.5-0.7-0.5-1.2v-19h-6.6c-1.1,0-1.6-0.5-1.6-1.4c0-0.5,0.1-0.8,0.4-1.1
		c0.3-0.2,0.7-0.4,1.2-0.4h16.7c0.5,0,0.9,0.1,1.2,0.4c0.3,0.2,0.4,0.6,0.4,1.1c0,1-0.5,1.4-1.6,1.4h-6.6v19c0,0.5-0.2,0.9-0.5,1.2
		c-0.3,0.3-0.7,0.5-1.3,0.5C119.5,283.4,119.1,283.2,118.7,282.9z"/>
	<path fill="#BE955B" d="M139.1,268c0,0.5-0.1,0.9-0.4,1.1c-0.2,0.2-0.7,0.4-1.3,0.4l-1,0.1c-1.4,0.1-2.4,0.6-3.1,1.5
		c-0.7,0.8-1,1.9-1,3.1v7.6c0,0.5-0.2,0.9-0.5,1.2c-0.3,0.3-0.7,0.4-1.2,0.4s-0.9-0.1-1.2-0.4s-0.5-0.7-0.5-1.2v-13.5
		c0-0.5,0.2-0.9,0.5-1.2c0.3-0.3,0.7-0.4,1.2-0.4c0.4,0,0.8,0.1,1.1,0.4s0.4,0.7,0.4,1.1v1.6c0.4-1,1.1-1.7,1.9-2.2
		c0.8-0.5,1.8-0.8,2.9-0.9h0.5C138.5,266.6,139.1,267.1,139.1,268z"/>
	<path fill="#BE955B" d="M140.5,262.9c-0.4-0.4-0.6-0.8-0.6-1.4s0.2-1,0.6-1.4c0.4-0.3,0.9-0.5,1.5-0.5s1.1,0.2,1.5,0.5
		s0.6,0.8,0.6,1.4s-0.2,1-0.6,1.4c-0.4,0.4-0.9,0.5-1.5,0.5C141.3,263.4,140.8,263.2,140.5,262.9z M140.8,283
		c-0.3-0.3-0.5-0.7-0.5-1.2v-13.5c0-0.5,0.2-0.9,0.5-1.2c0.3-0.3,0.7-0.4,1.2-0.4s0.9,0.1,1.2,0.4s0.5,0.7,0.5,1.2v13.5
		c0,0.5-0.2,0.9-0.5,1.2c-0.3,0.3-0.7,0.4-1.2,0.4S141.1,283.2,140.8,283z"/>
	<path fill="#BE955B" d="M159.1,268.2c1.1,1.1,1.6,2.7,1.6,4.9v8.6c0,0.5-0.1,0.9-0.4,1.2c-0.3,0.3-0.7,0.4-1.2,0.4
		s-0.9-0.1-1.2-0.4s-0.4-0.7-0.4-1.2v-1.2c-0.4,0.9-1,1.6-1.9,2.1c-0.8,0.5-1.8,0.7-2.9,0.7c-1.1,0-2-0.2-2.9-0.6s-1.6-1-2.1-1.8
		s-0.7-1.6-0.7-2.6c0-1.2,0.3-2.1,0.9-2.8c0.6-0.7,1.6-1.2,3-1.4c1.4-0.3,3.3-0.4,5.8-0.4h0.8v-1c0-1.2-0.3-2.1-0.8-2.7
		s-1.3-0.8-2.5-0.8c-0.8,0-1.5,0.1-2.2,0.3c-0.7,0.2-1.4,0.5-2.3,0.9c-0.6,0.3-1,0.5-1.3,0.5s-0.6-0.1-0.8-0.4
		c-0.2-0.2-0.3-0.6-0.3-0.9s0.1-0.6,0.3-0.9s0.5-0.5,0.9-0.7c0.8-0.4,1.7-0.8,2.7-1c1-0.3,2-0.4,3-0.4
		C156.5,266.6,158.1,267.1,159.1,268.2z M156.3,279.7c0.8-0.8,1.2-1.9,1.2-3.2v-0.9h-0.6c-1.7,0-3.1,0.1-4,0.2
		c-0.9,0.2-1.6,0.4-2,0.8s-0.6,0.9-0.6,1.6c0,0.8,0.3,1.4,0.9,2c0.6,0.5,1.3,0.8,2.2,0.8C154.5,280.9,155.5,280.5,156.3,279.7z"/>
	<path fill="#BE955B" d="M165,283c-0.3-0.3-0.5-0.7-0.5-1.2v-20.5c0-0.5,0.2-0.9,0.5-1.2c0.3-0.3,0.7-0.4,1.2-0.4s0.9,0.1,1.2,0.4
		s0.5,0.7,0.5,1.2v20.5c0,0.5-0.2,0.9-0.5,1.2c-0.3,0.3-0.7,0.4-1.2,0.4S165.3,283.2,165,283z"/>
	<path fill="#BE955B" d="M171.8,282c-0.4-0.2-0.7-0.5-0.8-0.8s-0.2-0.6-0.2-0.9c0-0.4,0.1-0.7,0.3-0.9c0.2-0.2,0.5-0.4,0.8-0.4
		s0.7,0.2,1.4,0.5c0.7,0.4,1.3,0.6,1.9,0.9c0.6,0.2,1.4,0.3,2.4,0.3c1.1,0,1.9-0.2,2.5-0.6s0.9-0.9,0.9-1.6c0-0.4-0.1-0.8-0.3-1.1
		c-0.2-0.3-0.6-0.5-1.2-0.7c-0.6-0.2-1.4-0.4-2.6-0.7c-1.9-0.4-3.3-1-4.2-1.7s-1.3-1.7-1.3-2.9c0-1,0.3-1.8,0.8-2.6
		c0.6-0.8,1.3-1.4,2.3-1.8s2.1-0.6,3.3-0.6c0.9,0,1.7,0.1,2.6,0.3c0.8,0.2,1.6,0.6,2.2,1c0.7,0.5,1.1,1.1,1.1,1.7
		c0,0.4-0.1,0.7-0.3,0.9c-0.2,0.2-0.5,0.4-0.7,0.4s-0.4,0-0.6-0.1c-0.2-0.1-0.5-0.2-0.8-0.4c-0.6-0.4-1.2-0.6-1.7-0.8
		c-0.5-0.2-1.2-0.3-1.9-0.3c-0.9,0-1.7,0.2-2.2,0.6c-0.6,0.4-0.8,0.9-0.8,1.6c0,0.6,0.3,1.1,0.8,1.4s1.5,0.7,2.9,1
		c1.5,0.3,2.6,0.7,3.5,1.1c0.8,0.4,1.4,0.9,1.8,1.5c0.4,0.6,0.5,1.3,0.5,2.2c0,1.4-0.6,2.6-1.8,3.5s-2.8,1.3-4.8,1.3
		C175.1,283.4,173.3,283,171.8,282z"/>
	<path fill="#BE955B" d="M197.5,281c-1.6-1.6-2.4-4-2.4-7.1v-12.5c0-0.5,0.2-0.9,0.5-1.3c0.3-0.3,0.7-0.5,1.2-0.5s0.9,0.2,1.2,0.5
		s0.5,0.7,0.5,1.3v12.8c0,2.1,0.5,3.8,1.5,4.9s2.6,1.7,4.6,1.7s3.5-0.6,4.6-1.7c1-1.1,1.6-2.7,1.6-4.9v-12.8c0-0.5,0.2-0.9,0.5-1.2
		c0.3-0.3,0.7-0.5,1.2-0.5s0.9,0.2,1.2,0.5s0.5,0.7,0.5,1.3V274c0,3.1-0.8,5.5-2.4,7.1c-1.6,1.6-4,2.4-7.1,2.4
		C201.5,283.5,199.1,282.7,197.5,281z"/>
	<path fill="#BE955B" d="M232.7,273.1v8.6c0,0.5-0.1,0.9-0.4,1.2c-0.3,0.3-0.7,0.4-1.2,0.4s-0.9-0.1-1.2-0.4s-0.4-0.7-0.4-1.2v-8.5
		c0-1.4-0.3-2.4-0.8-3s-1.4-1-2.5-1c-1.4,0-2.4,0.4-3.3,1.3c-0.8,0.8-1.2,2-1.2,3.4v7.8c0,0.5-0.1,0.9-0.4,1.2
		c-0.3,0.3-0.7,0.4-1.2,0.4s-0.9-0.1-1.2-0.4s-0.5-0.7-0.5-1.2v-13.5c0-0.5,0.2-0.8,0.5-1.1c0.3-0.3,0.7-0.4,1.2-0.4
		s0.9,0.1,1.2,0.4s0.4,0.7,0.4,1.1v1.4c0.5-1,1.3-1.7,2.2-2.2c1-0.5,2-0.8,3.2-0.8C230.8,266.6,232.7,268.8,232.7,273.1z"/>
	<path fill="#BE955B" d="M236.7,262.9c-0.4-0.4-0.6-0.8-0.6-1.4s0.2-1,0.6-1.4c0.4-0.3,0.9-0.5,1.5-0.5s1.1,0.2,1.5,0.5
		s0.6,0.8,0.6,1.4s-0.2,1-0.6,1.4c-0.4,0.4-0.9,0.5-1.5,0.5C237.6,263.4,237,263.2,236.7,262.9z M237,283c-0.3-0.3-0.5-0.7-0.5-1.2
		v-13.5c0-0.5,0.2-0.9,0.5-1.2c0.3-0.3,0.7-0.4,1.2-0.4s0.9,0.1,1.2,0.4s0.5,0.7,0.5,1.2v13.5c0,0.5-0.2,0.9-0.5,1.2
		c-0.3,0.3-0.7,0.4-1.2,0.4S237.3,283.2,237,283z"/>
	<path fill="#BE955B" d="M252.7,281.2c0.2,0.2,0.3,0.5,0.3,0.9s-0.2,0.8-0.5,1s-0.8,0.3-1.5,0.3l-0.9-0.1c-1.8-0.1-3.1-0.7-4-1.6
		c-0.9-1-1.3-2.4-1.3-4.3v-7.8h-2c-1,0-1.5-0.4-1.5-1.3c0-0.4,0.1-0.7,0.4-0.9c0.3-0.2,0.6-0.3,1.1-0.3h2v-3.4
		c0-0.5,0.1-0.9,0.4-1.2c0.3-0.3,0.7-0.4,1.2-0.4s0.9,0.1,1.2,0.4s0.5,0.7,0.5,1.2v3.4h3.3c0.5,0,0.8,0.1,1.1,0.3
		c0.3,0.2,0.4,0.5,0.4,0.9s-0.1,0.7-0.4,1c-0.3,0.2-0.6,0.3-1.1,0.3h-3.3v8c0,1,0.2,1.8,0.6,2.3c0.4,0.5,1.1,0.8,2,0.8l0.9,0.1
		C252.2,280.9,252.5,281,252.7,281.2z"/>
</g>
<path fill="#BE955B" d="M0,239.4c0-1.3,1.1-2.4,2.4-2.4h248.7c1.3,0,2.4,1.1,2.4,2.4c0,1.3-1.1,2.4-2.4,2.4H2.4
	C1.1,241.8,0,240.7,0,239.4"/>
<path fill="#614776" d="M56.6,148.8c0.9,1,1.3,2.2,1.3,3.7V213c0,1.5-0.5,2.8-1.4,3.7c-0.9,1-2.1,1.4-3.6,1.4c-1.7,0-3-0.7-4-2
	L10.2,165v48c0,1.5-0.4,2.8-1.3,3.7c-0.9,1-2.1,1.4-3.5,1.4c-1.5,0-2.6-0.5-3.5-1.4s-1.3-2.2-1.3-3.8v-60.5c0-1.5,0.5-2.8,1.4-3.7
	c0.9-1,2.1-1.4,3.6-1.4c1.7,0,3,0.7,4,2l38.8,51.3v-48.1c0-1.5,0.4-2.8,1.3-3.7c0.9-1,2-1.4,3.5-1.4
	C54.5,147.4,55.7,147.9,56.6,148.8"/>
<path fill="#614776" d="M75.5,216.8c-0.9-0.9-1.4-2.2-1.4-3.8v-60.2c0-1.5,0.4-2.7,1.3-3.6c0.9-0.9,2.1-1.3,3.7-1.3H103
	c7.4,0,13.1,1.8,17.2,5.4c4.1,3.6,6.1,8.8,6.1,15.4c0,6.6-2,11.7-6.1,15.4s-9.8,5.5-17.2,5.5H84.3V213c0,1.6-0.4,2.8-1.3,3.8
	c-0.9,0.9-2.2,1.4-3.8,1.4C77.7,218.2,76.4,217.7,75.5,216.8 M102,181.5c9.8,0,14.6-4.3,14.6-12.8c0-8.4-4.9-12.7-14.6-12.7H84.3
	v25.4H102V181.5z"/>
<path fill="#614776" d="M140,216.3c-0.9-0.9-1.3-2.1-1.3-3.6v-59.9c0-1.5,0.4-2.7,1.3-3.6c0.9-0.9,2.1-1.3,3.7-1.3h36.4
	c1.5,0,2.7,0.4,3.5,1.1c0.8,0.7,1.2,1.7,1.2,3.1c0,1.3-0.4,2.3-1.2,3s-2,1-3.5,1h-31.5v22h29.5c1.5,0,2.7,0.4,3.5,1.1
	c0.8,0.7,1.2,1.7,1.2,3.1c0,1.3-0.4,2.3-1.2,3.1c-0.8,0.7-2,1.1-3.5,1.1h-29.5v23.1h31.5c3.2,0,4.8,1.4,4.8,4.1
	c0,1.3-0.4,2.3-1.2,3.1c-0.8,0.7-2,1.1-3.5,1.1h-36.4C142.1,217.7,140.9,217.2,140,216.3"/>
<path fill="#614776" d="M203.3,211.2c-4.8-4.8-7.2-11.9-7.2-21.3v-37.4c0-1.6,0.5-2.8,1.4-3.8c0.9-0.9,2.1-1.4,3.7-1.4
	c1.5,0,2.7,0.5,3.7,1.4c0.9,0.9,1.4,2.2,1.4,3.8v38.1c0,6.4,1.5,11.3,4.6,14.6s7.6,4.9,13.7,4.9c6,0,10.6-1.6,13.7-4.9
	c3.1-3.3,4.7-8.1,4.7-14.6v-38.1c0-1.5,0.5-2.8,1.4-3.7c0.9-1,2.1-1.4,3.7-1.4c1.5,0,2.7,0.5,3.7,1.4c0.9,0.9,1.4,2.2,1.4,3.8V190
	c0,9.3-2.4,16.4-7.3,21.2c-4.9,4.9-11.9,7.3-21.1,7.3C215.2,218.4,208.1,216,203.3,211.2"/>
<path fill="#614776" d="M142.5,34.5c0-19-15.4-34.5-34.5-34.5S73.6,15.4,73.6,34.5c0,19,15.4,34.5,34.5,34.5S142.5,53.5,142.5,34.5"
	/>
<path fill="#BE955B" d="M189.1,29.2c2.6-6.6-0.6-14-7.2-16.6c-6.6-2.6-14,0.6-16.6,7.2s0.6,14,7.2,16.6
	C179.1,38.9,186.5,35.7,189.1,29.2"/>
<path fill="#BE955B" d="M133.6,85.1c3.8,0.5,16.2,2,33-8.1c12.4-7.4,20.5-18.3,21.3-24.7c0.7-5.2-2.9-10.1-8.1-10.8
	c-2.2-0.3-4.1,0.1-6.1,1.2c-6.5,3.4-8.1,15.3-14.1,24.3c-9,13.2-20.2,13.7-25.6,13.9c-1.2,0-2.1,1-2.1,2.1
	C131.7,84.1,132.5,85,133.6,85.1"/>
<path fill="#614776" d="M185.7,68.6c-5.7,7-22.7,22.3-43.4,22.3S111.4,80.4,95.9,74c-12.1-5.1-26.1,0.6-31.2,12.7
	c-3.8,9-1.6,18.9,4.6,25.6c10.6,11.6,32,20,66.8,8.4s51.7-44.9,54.1-49.3c0.7-1.3,0.1-2.9-1.2-3.6C187.9,67.2,186.5,67.6,185.7,68.6
	"/>
</svg>
