<?xml version="1.0" encoding="utf-8"?>
<!-- Generator: Adobe Illustrator 15.1.0, SVG Export Plug-In . SVG Version: 6.00 Build 0)  -->
<!DOCTYPE svg PUBLIC "-//W3C//DTD SVG 1.1//EN" "http://www.w3.org/Graphics/SVG/1.1/DTD/svg11.dtd">
<svg version="1.1" id="Layer_1" xmlns="http://www.w3.org/2000/svg" xmlns:xlink="http://www.w3.org/1999/xlink" x="0px" y="0px"
	 width="968.946px" height="283.465px" viewBox="0 0 968.946 283.465" enable-background="new 0 0 968.946 283.465"
	 xml:space="preserve">
<radialGradient id="SVGID_1_" cx="841.3613" cy="108.5332" r="67.8325" gradientUnits="userSpaceOnUse">
	<stop  offset="0" style="stop-color:#FFFFFF"/>
	<stop  offset="0.1486" style="stop-color:#D9E7D9"/>
	<stop  offset="0.5726" style="stop-color:#6AA874"/>
	<stop  offset="0.865" style="stop-color:#008740"/>
	<stop  offset="1" style="stop-color:#007D32"/>
</radialGradient>
<path fill="url(#SVGID_1_)" d="M773.527,108.533c0.004,37.463,30.375,67.832,67.84,67.832c37.46,0,67.827-30.369,67.827-67.832
	c0-37.464-30.372-67.832-67.831-67.832C803.899,40.698,773.527,71.069,773.527,108.533z"/>
<radialGradient id="SVGID_2_" cx="737.2793" cy="108.1045" r="67.8328" gradientUnits="userSpaceOnUse">
	<stop  offset="0" style="stop-color:#FFFFFF"/>
	<stop  offset="0.084" style="stop-color:#F5F9EC"/>
	<stop  offset="0.3431" style="stop-color:#D7E5AC"/>
	<stop  offset="0.5733" style="stop-color:#BDD573"/>
	<stop  offset="0.7662" style="stop-color:#A8C947"/>
	<stop  offset="0.9144" style="stop-color:#9AC32C"/>
	<stop  offset="1" style="stop-color:#95C11F"/>
</radialGradient>
<path fill="url(#SVGID_2_)" d="M669.448,108.106c0,37.463,30.371,67.832,67.828,67.832c37.467,0,67.838-30.368,67.835-67.832
	c0-37.464-30.371-67.835-67.835-67.835C699.815,40.271,669.448,70.643,669.448,108.106z"/>
<path fill="#95C11F" d="M94.947,137.854c0,1.064-0.265,2.596-0.799,4.593c-0.599,2.53-0.964,4.059-1.098,4.593
	c-0.2,2.396-0.665,5.891-1.398,10.483c-0.334,1.198-1.198,1.797-2.596,1.797c-0.665,0-1.932-0.134-3.793-0.399
	c-8.187-1.198-20.866-1.797-38.039-1.797c-4.857,0-12.181,0.135-21.965,0.399c-9.784,0.265-17.106,0.399-21.965,0.399
	c-2.196,0-3.294-0.964-3.294-2.896c0-7.453,0.417-18.652,1.25-33.594c0.831-14.945,1.247-26.144,1.247-33.598
	c0-7.588-0.399-21.73-1.198-42.431c-0.135-5.326-0.5-13.279-1.099-23.862l-0.1-1.397c-0.066-1.532,0.799-2.296,2.596-2.296
	c4.658,0,11.646,0.134,20.966,0.399c9.319,0.265,16.308,0.399,20.966,0.399c4.458,0,11.134-0.134,20.016-0.399
	c8.889-0.265,15.561-0.399,20.02-0.399c3.129,0,4.827,0.964,5.091,2.895c1.398,8.786,2.097,14.243,2.097,16.374
	c0,1.532-0.733,2.296-2.196,2.296c-5.657,0-14.229-0.317-25.707-0.951c-11.485-0.63-20.12-0.946-25.91-0.946
	c-5.457,0-8.903,0.733-10.335,2.196c-1.429,1.463-2.145,5.092-2.145,10.883v14.876c0,4.059,0.1,6.424,0.299,7.088
	c0.599,2.063,2.331,3.095,5.191,3.095c0.799,0,1.932-0.035,3.395-0.1c1.532,0,2.662,0,3.395,0c13.044,0,24.76-0.234,35.143-0.699
	c4.06-0.134,8.852-0.464,14.377-0.998c1.397-0.135,2.097,0.464,2.097,1.797c0,2.131-0.251,5.391-0.748,9.784
	c-0.503,4.393-0.75,7.688-0.75,9.884c0,1.198-0.999,1.797-2.995,1.797c-0.799,0-3.76-0.234-8.885-0.699
	c-3.729-0.399-12.115-0.599-25.16-0.599c-10.982,0-17.937,0.134-20.866,0.399c-2.662,0.2-4.193,1.597-4.593,4.193
	c0.066-0.465,0.1,2.096,0.1,7.688v14.776c0,6.923,1.063,11.248,3.194,12.979c1.663,1.398,5.826,2.097,12.48,2.097l10.982-0.1
	c4.658,0,17.737-0.798,39.237-2.396l1.498-0.1C94.282,135.224,94.947,136.058,94.947,137.854z"/>
<path fill="#95C11F" d="M178.632,84.314l-0.1,0.898c-0.6,2.331-1.398,5.756-2.396,10.284c-0.2,2.196-0.633,5.391-1.298,9.584
	c-0.134,0.599-2.031,0.998-5.69,1.198c-2.531,0.135-6.125,0.135-10.783,0c-5.99-0.134-8.786-0.2-8.386-0.2
	c-4.127,0-10.249,0.383-18.371,1.147c-8.121,0.768-14.211,1.149-18.27,1.149c-1.797,0-2.696-1.098-2.696-3.294
	c0-3.061,1.931-9.419,5.791-19.069c0.334-0.933,1.264-1.397,2.796-1.397c2.331,0,5.756,0.083,10.283,0.248
	c4.527,0.168,7.953,0.251,10.284,0.251c4.059,0,10.184-0.417,18.37-1.25c8.187-0.83,14.312-1.246,18.371-1.246
	C177.999,82.617,178.697,83.181,178.632,84.314z"/>
<path fill="#007D32" d="M292.039,39.414c0,1.263-0.699,1.897-2.097,1.897c-5.191,0-13.712-0.3-25.559-0.899
	c-11.048-0.534-19.568-0.733-25.559-0.599l-7.289,0.1c-4.658,0.066-7.123,0.166-7.388,0.3c-1.332,0.534-1.997,2.63-1.997,6.29
	v24.061c0,4.527,0.964,6.789,2.896,6.789c6.455,0,16.191-0.3,29.201-0.899c13.013-0.599,22.75-0.898,29.204-0.898
	c1.398,0,2.097,0.533,2.097,1.597c0,1.133-0.083,2.813-0.248,5.043c-0.168,2.227-0.251,3.908-0.251,5.041
	c0,1.198,0.065,3.012,0.199,5.439c0.135,2.43,0.2,4.245,0.2,5.443c0,0.799-0.699,1.198-2.097,1.198
	c-4.592,0-11.564-0.134-20.918-0.399c-9.351-0.266-16.356-0.399-21.014-0.399c-8.586,0-13.443,0.065-14.576,0.2
	c-2.996,0.333-4.493,1.563-4.493,3.694c0,5.99,0.166,14.976,0.5,26.957c0.334,11.98,0.499,20.966,0.499,26.957
	c0,1.997-0.799,2.995-2.396,2.995c-1.333,0-3.312-0.151-5.939-0.448c-2.63-0.302-4.644-0.45-6.042-0.45
	c-1.133,0-2.861,0.1-5.191,0.299c-2.331,0.2-4.059,0.3-5.191,0.3c-1.663,0-2.496-0.733-2.496-2.197
	c0-7.388,0.316-18.504,0.95-33.346c0.63-14.841,0.947-25.958,0.947-33.346c0-6.854-0.699-29.153-2.097-66.892v-1.297
	c-0.065-1.398,0.764-2.197,2.496-2.396c0.534,0,4.758,0.1,12.679,0.3c10.449,0.2,20.133,0.234,29.053,0.1
	c12.046-0.135,27.39-0.799,46.025-1.997c2.531-0.2,3.959,0.898,4.293,3.294c-0.065,1.797,0.065,4.527,0.399,8.187
	C291.639,34.556,292.039,37.882,292.039,39.414z"/>
<path fill="#007D32" d="M367.134,65.372c0,7.323-0.499,13.978-1.498,19.968c-0.2,1.532-0.864,2.296-1.997,2.296
	c-1.397,0-3.512-0.148-6.338-0.451c-2.83-0.296-4.978-0.448-6.441-0.448c-8.387,0-13.744,2.361-16.074,7.088
	c-1.397,2.861-2.097,8.82-2.097,17.871v10.982c0,3.729,0.148,9.385,0.451,16.973c0.296,7.587,0.448,13.244,0.448,16.972
	c0,1.797-0.764,2.695-2.296,2.695c-2.062,0-5.191-0.034-9.385-0.1c-4.193-0.066-7.322-0.1-9.385-0.1
	c-1.532,0-2.296-0.833-2.296-2.496c0-5.392,0.083-13.513,0.248-24.361c0.168-10.848,0.251-19.003,0.251-24.46
	c0-16.439-1.532-29.652-4.593-39.636c-0.134-0.534-0.2-0.933-0.2-1.198c0-0.798,0.434-1.363,1.298-1.697
	c2.461-0.265,5.925-0.665,10.383-1.198c7.188-1.333,10.518-1.997,9.984-1.997c1.063,0,1.763,1.962,2.097,5.891
	c0.333,3.928,0.933,5.891,1.797,5.891c0.134,0,0.299-0.066,0.499-0.2c2.73-1.732,5.457-3.46,8.187-5.191
	c2.996-1.798,6.056-3.13,9.186-3.994c2.596-0.799,5.925-1.198,9.983-1.198C364.539,63.275,367.134,63.974,367.134,65.372z"/>
<path fill="#007D32" d="M467.794,103.21c0,4.927-2.133,8.221-6.392,9.884c-2.861,1.063-23.462,3.03-61.8,5.891
	c0.864,5.856,4.094,10.848,9.685,14.976c5.326,3.928,11.048,5.891,17.172,5.891c10.518,0,20.167-3.395,28.953-10.184
	c1.063-0.864,2.131-1.732,3.195-2.596c0.533,0,0.881,0.065,1.047,0.2c0.168,0.134,1.415,2.448,3.746,6.937
	c2.331,4.496,3.493,6.906,3.493,7.24c0,0.399-0.53,1.164-1.596,2.296c-9.785,10.383-22.33,15.575-37.64,15.575
	c-15.44,0-27.755-4.609-36.94-13.826c-9.185-9.22-13.778-21.517-13.778-36.892c0-13.712,4.393-25.659,13.179-35.842
	c9.25-10.583,20.601-15.874,34.045-15.874c12.514,0,22.963,4.592,31.349,13.777C463.699,79.583,467.794,90.431,467.794,103.21z
	 M444.031,97.121c0-5.526-2.179-10.417-6.541-14.676c-4.358-4.259-9.268-6.39-14.725-6.39c-6.125,0-11.564,2.461-16.321,7.388
	c-4.762,4.926-7.141,10.448-7.141,16.573c0,1.398,1.198,2.097,3.594,2.097c9.85,0,21.631-0.999,35.343-2.995
	C442.1,98.584,444.031,97.919,444.031,97.121z"/>
<path fill="#007D32" d="M571.447,103.21c0,4.927-2.134,8.221-6.389,9.884c-2.865,1.063-23.466,3.03-61.804,5.891
	c0.867,5.856,4.097,10.848,9.688,14.976c5.321,3.928,11.044,5.891,17.172,5.891c10.515,0,20.167-3.395,28.953-10.184
	c1.061-0.864,2.128-1.732,3.194-2.596c0.531,0,0.882,0.065,1.047,0.2c0.166,0.134,1.412,2.448,3.746,6.937
	c2.327,4.496,3.49,6.906,3.49,7.24c0,0.399-0.529,1.164-1.598,2.296c-9.783,10.383-22.328,15.575-37.635,15.575
	c-15.444,0-27.756-4.609-36.94-13.826c-9.186-9.22-13.778-21.517-13.778-36.892c0-13.712,4.393-25.659,13.179-35.842
	c9.247-10.583,20.601-15.874,34.041-15.874c12.519,0,22.963,4.592,31.35,13.777C567.351,79.583,571.447,90.431,571.447,103.21z
	 M547.686,97.121c0-5.526-2.183-10.417-6.541-14.676s-9.267-6.39-14.728-6.39c-6.122,0-11.562,2.461-16.319,7.388
	c-4.765,4.926-7.14,10.448-7.14,16.573c0,1.398,1.198,2.097,3.595,2.097c9.847,0,21.626-0.999,35.342-2.995
	C545.751,98.584,547.686,97.919,547.686,97.121z"/>
<path fill="#007D32" d="M663.12,146.441c-1.067,4.727-1.666,7.653-1.797,8.786c-0.269,2.331-0.868,3.494-1.797,3.494
	c-2.334,0-5.46-0.134-9.386-0.399c-4.461-0.334-7.553-0.534-9.289-0.599c-4.454-0.134-10.844-0.2-19.168-0.2
	c-6.451,0-13.613,0.265-21.462,0.799c-9.854,0.665-14.08,0.998-12.684,0.998c-1.396,0-2.292-0.599-2.691-1.797
	c-0.937-3.195-1.397-6.923-1.397-11.182c0-0.599,0.034-1.449,0.097-2.544c0.068-1.102,0.103-1.914,0.103-2.448
	c0-0.933,0.716-2.048,2.147-3.343c1.427-1.301,8.532-8.837,21.311-22.615c6.459-6.724,15.61-17.072,27.46-31.05h-44.032
	c-1.061,0-1.598-0.699-1.598-2.097c0-1.932,0.42-4.81,1.253-8.638c0.827-3.825,1.246-6.672,1.246-8.535
	c0-0.798,0.93-1.198,2.796-1.198c3.725,0,9.281,0.165,16.669,0.499c7.389,0.334,12.945,0.499,16.677,0.499
	c18.233,0,28.52,0.135,30.847,0.399c1.667,0.2,2.499,0.899,2.499,2.097c0,10.049-0.399,15.709-1.197,16.973
	c-0.667,0.933-6.424,7.488-17.275,19.668c-6.989,7.922-17.538,19.703-31.646,35.343c22.164-0.599,39.336-0.899,51.517-0.899
	C663.85,138.454,664.119,142.048,663.12,146.441z"/>
<path fill="#007D32" d="M779.181,103.21c0,4.927-2.127,8.221-6.39,9.884c-2.857,1.063-23.458,3.03-61.796,5.891
	c0.86,5.856,4.09,10.848,9.68,14.976c5.329,3.928,11.052,5.891,17.173,5.891c10.521,0,20.168-3.395,28.953-10.184
	c1.067-0.864,2.134-1.732,3.194-2.596c0.538,0,0.882,0.065,1.055,0.2c0.165,0.134,1.411,2.448,3.738,6.937
	c2.334,4.496,3.497,6.906,3.497,7.24c0,0.399-0.536,1.164-1.597,2.296c-9.784,10.383-22.33,15.575-37.644,15.575
	c-15.437,0-27.754-4.609-36.939-13.826c-9.185-9.22-13.777-21.517-13.777-36.892c0-13.712,4.393-25.659,13.178-35.842
	c9.254-10.583,20.603-15.874,34.049-15.874c12.511,0,22.963,4.592,31.35,13.777C775.091,79.583,779.181,90.431,779.181,103.21z
	 M755.419,97.121c0-5.526-2.175-10.417-6.534-14.676c-4.365-4.259-9.274-6.39-14.728-6.39c-6.128,0-11.567,2.461-16.325,7.388
	c-4.759,4.926-7.141,10.448-7.141,16.573c0,1.398,1.197,2.097,3.595,2.097c9.853,0,21.634-0.999,35.343-2.995
	C753.491,98.584,755.419,97.919,755.419,97.121z"/>
<path fill="#007D32" d="M811.64,241.16c79.697,0,145.513-59.283,155.851-136.152c0.934,6.919,1.456,13.97,1.456,21.152
	c0,86.876-70.427,157.305-157.307,157.305c-86.882,0-157.309-70.428-157.309-157.305c0-7.182,0.526-14.232,1.456-21.152
	C666.125,181.877,731.939,241.16,811.64,241.16z"/>
<path fill="#95C11F" d="M936.217,0c15.864,24.207,24.377,52.517,24.377,82.133c0,40.135-15.63,77.869-44.013,106.25
	c-28.376,28.38-66.109,44.009-106.244,44.009c-29.649,0-57.984-8.527-82.208-24.424c16.797,5.633,34.516,8.585,52.351,8.585
	c43.881,0,85.135-17.087,116.16-48.113C941.563,123.517,955.41,57.653,936.217,0"/>
</svg>
