<?xml version="1.0" encoding="utf-8"?>
<!-- Generator: Adobe Illustrator 15.1.0, SVG Export Plug-In . SVG Version: 6.00 Build 0)  -->
<!DOCTYPE svg PUBLIC "-//W3C//DTD SVG 1.1//EN" "http://www.w3.org/Graphics/SVG/1.1/DTD/svg11.dtd">
<svg version="1.1" id="Layer_1" xmlns="http://www.w3.org/2000/svg" xmlns:xlink="http://www.w3.org/1999/xlink" x="0px" y="0px"
	 width="439.523px" height="212.6px" viewBox="0 0 439.523 212.6" enable-background="new 0 0 439.523 212.6" xml:space="preserve">
<g>
	<g>
		<path fill="#009486" d="M55.451,212.583c-14.762,0-27.834-5.585-38.851-16.604C5.584,184.962,0,171.896,0,157.136
			c0-14.759,5.584-27.83,16.6-38.849c10.515-10.509,22.891-16.078,36.813-16.57v-0.034h14.613c2.189,0,4.079,0.789,5.616,2.347
			c1.527,1.553,2.3,3.456,2.3,5.65c0,2.204-0.771,4.106-2.294,5.654c-1.533,1.556-3.425,2.348-5.623,2.348H55.449
			c-9.356,0-17.949,3.322-25.541,9.871c-6.949,5.994-11.373,13.225-13.173,21.511h53.252c2.19,0,4.077,0.789,5.617,2.348
			c1.526,1.551,2.302,3.445,2.302,5.65c0,2.208-0.776,4.111-2.302,5.654c-1.535,1.552-3.427,2.348-5.617,2.348H16.759
			c1.894,8.378,6.337,15.656,13.238,21.664c7.532,6.552,16.097,9.875,25.458,9.875h12.411c2.194,0,4.082,0.777,5.61,2.316
			c1.531,1.527,2.312,3.409,2.312,5.604c0,2.163-0.738,4.035-2.195,5.567c-1.485,1.555-3.299,2.348-5.397,2.348
			c-1.509,0-3.6,0.052-6.292,0.161l-0.041-0.004h-6.41L55.451,212.583L55.451,212.583z"/>
		<path fill="#9DD3CD" d="M438.406,106.104c-5.479-9.612-13.279-17.025-22.238-23.39c-5.447-3.873-11.367-7.089-17.316-10.119
			c-0.857-0.437-1.33-0.58-1.578-0.59c-0.033-0.065-0.061-0.125-0.105-0.203c-0.568-1.03-1.043-2.103-1.535-3.172
			c-0.912-2.011-1.52-4.214-2.154-6.329c-2.967-9.933-3.875-20.409-3.5-30.729c0.148-4.135,0.672-8.168,1.74-12.167
			c0.57-2.112,0.586-2.13,1.373-3.593c0.074-0.142,0.406-0.581,0.623-0.88c0.111-0.046,0.217-0.092,0.385-0.169
			c8.723-4.144,2.18-16.166-6.168-14.629c-18.258,3.367-33.768,16.963-46.734,29.396c-13.309,12.743-25.063,26.957-37.225,40.766
			c-5.803-0.015-11.604-0.021-17.406-0.021c-10.318,0-10.318,16,0,16c5.111,0,10.229,0,15.336,0.009
			c3.152,0.01,6.865,0.585,9.701-1.076c2.273-1.327,3.994-3.936,5.707-5.888c7.67-8.782,15.248-17.639,23.178-26.187
			c9.732-10.485,21.145-22.994,34.381-30.787c-0.105,0.72-0.199,1.424-0.291,2.104c-1.471,11.875-0.5,24,1.875,35.696
			c1.168,5.738,3.063,11.189,5.363,16.563c1.154,2.696,2.729,6.657,5.514,8.016c3.832,1.869,7.615,3.82,11.332,5.908
			c10.406,5.824,19.939,13.062,25.922,23.553C429.693,123.144,443.525,115.086,438.406,106.104z M393.414,15.204
			c0.084-0.096,0.117-0.148,0.146-0.208c0.01-0.004,0.031-0.013,0.045-0.016C393.543,15.05,393.502,15.105,393.414,15.204z"/>
		<path fill="#009486" d="M168.733,198.947c-1.548-1.674-3.428-2.508-5.642-2.508h-56.293V75.697c0-2.214-0.774-4.09-2.321-5.638
			c-1.548-1.547-3.427-2.326-5.638-2.326c-2.213,0-4.091,0.778-5.64,2.326c-1.547,1.549-2.322,3.425-2.322,5.638v128.922
			c0,2.213,0.773,4.096,2.322,5.639c1.55,1.551,3.427,2.325,5.64,2.325h64.256c2.215,0,4.094-0.764,5.64-2.293
			c1.546-1.525,2.322-3.38,2.322-5.563C171.055,202.553,170.281,200.62,168.733,198.947z"/>
		<path fill="#009486" d="M267.127,141.932c0,2.242-0.779,4.146-2.34,5.716c-1.553,1.569-3.443,2.354-5.66,2.354h-59.403v54.596
			c0,2.217-0.774,4.106-2.321,5.658c-1.548,1.551-3.427,2.325-5.638,2.325c-2.213,0-4.059-0.812-5.529-2.435
			c-1.479-1.624-2.213-3.538-2.213-5.75v-62.139c0-19.313,7.225-36.188,21.671-50.639c14.45-14.449,31.324-21.674,50.638-21.674
			h0.184c2.205,0,4.086,0.789,5.631,2.358c1.551,1.563,2.324,3.476,2.324,5.714c0,2.243-0.771,4.146-2.324,5.716
			c-1.551,1.564-3.426,2.354-5.631,2.354h-0.184c-13.568,0-25.76,4.654-36.594,13.958c-10.838,9.309-17.215,20.579-19.131,33.8
			h58.559c2.209,0,4.09,0.789,5.639,2.354C266.355,137.784,267.127,139.689,267.127,141.932z"/>
		<path fill="#9DD3CD" d="M296.459,204.964c0,2.175-0.875,3.989-2.617,5.442c-1.744,1.455-3.705,2.176-5.891,2.176
			s-4.029-0.836-5.563-2.506c-1.529-1.665-2.287-3.589-2.287-5.768v-94.927c0-2.03,0.795-3.809,2.391-5.332
			c1.605-1.528,3.5-2.287,5.678-2.287c2.184,0,4.111,0.836,5.783,2.504s2.514,3.59,2.514,5.768v94.927L296.459,204.964
			L296.459,204.964z"/>
		<path fill="#009486" d="M422.432,204.184c0,2.209-0.84,4.165-2.514,5.857c-1.666,1.695-3.594,2.541-5.783,2.541
			c-2.18,0-4.064-0.738-5.672-2.213c-1.602-1.469-2.396-3.317-2.396-5.526v-46.664c0-11.053-3.91-20.523-11.725-28.41
			c-7.82-7.885-17.252-11.833-28.307-11.833c-11.203,0-20.713,3.942-28.523,11.833c-7.82,7.884-11.727,17.358-11.727,28.41
			c0-0.141,0,15.118,0,45.778c0,2.354-0.836,4.388-2.508,6.079c-1.674,1.689-3.6,2.54-5.789,2.54c-2.178,0-4.068-0.772-5.668-2.323
			c-1.604-1.55-2.4-3.429-2.4-5.638v-46.66c0-15.479,5.461-28.711,16.398-39.697c10.928-10.979,24.227-16.474,39.885-16.474
			c15.508,0,28.805,5.532,39.887,16.59c11.074,11.058,16.615,24.32,16.615,39.807L422.432,204.184z"/>
	</g>
</g>
</svg>
