<?xml version="1.0" encoding="utf-8"?>
<!-- Generator: Adobe Illustrator 15.1.0, SVG Export Plug-In . SVG Version: 6.00 Build 0)  -->
<!DOCTYPE svg PUBLIC "-//W3C//DTD SVG 1.1//EN" "http://www.w3.org/Graphics/SVG/1.1/DTD/svg11.dtd">
<svg version="1.1" id="npeu-logo" xmlns="http://www.w3.org/2000/svg" xmlns:xlink="http://www.w3.org/1999/xlink" x="0px" y="0px"
	 width="323.42px" height="283.465px" viewBox="0 0 323.42 283.465" enable-background="new 0 0 323.42 283.465"
	 xml:space="preserve">
<g id="text">
	<g id="npeu">
		<g>
			<path fill="#748797" d="M17.791,143.667c5.873-9.5,14.854-14.509,26.6-14.509c19.171,0,26.425,11.399,26.425,33.68v34.37
				c0,7.257,1.036,10.883,8.809,11.918v2.765c-4.836-0.691-8.463-1.211-11.053-1.211c-1.728,0-4.491,0.347-8.464,1.211
				c1.037-6.737,1.556-12.783,1.556-17.963v-31.09c0-17.79-4.319-26.427-19.344-26.427c-16.582,0-24.354,9.674-24.354,28.846v31.951
				c0,7.257,1.036,10.883,8.809,11.918v2.765c-6.392-0.864-10.881-1.211-13.3-1.211c-2.417,0-7.081,0.347-13.472,1.211v-2.765
				c7.772-1.035,8.809-4.661,8.809-11.918v-52.16c0-5.7-1.209-7.081-5.354-7.427l-3.282-0.346v-2.591
				c5.699-0.863,11.745-3.282,18.654-7.082C18.308,134.339,17.791,139.693,17.791,143.667z"/>
		</g>
		<g>
			<path fill="#748797" d="M97.757,146.602c7.427-11.571,16.926-17.443,28.671-17.443c19.863,0,35.408,16.927,35.408,42.66
				c0,23.146-15.891,40.935-36.271,40.935c-11.053,0-20.554-5.526-27.808-16.407v31.09c0,7.253,1.037,10.707,8.809,11.918v2.762
				c-5.873-0.688-10.191-1.208-13.3-1.208c-3.108,0-7.6,0.52-13.472,1.208v-2.762c7.772-1.211,8.809-4.665,8.809-11.918v-82.388
				c0-5.7-1.209-7.081-5.354-7.427l-3.282-0.346v-2.591c5.526-0.69,11.572-3.282,18.827-7.082
				C98.274,133.476,97.757,139.693,97.757,146.602z M97.584,170.783c0,22.282,12.782,35.063,26.944,35.063
				c13.991,0,26.945-12.78,26.945-31.955c0-23.144-12.091-37.652-27.982-37.652C110.71,136.238,97.584,149.021,97.584,170.783z"/>
		</g>
		<g>
			<path fill="#748797" d="M176.862,167.503c0,0,0,1.381,0,4.146c0,17.614,13.99,34.197,33.508,34.197
				c8.635,0,16.753-4.146,24.525-12.265l-1.038,10.019c-7.772,6.564-16.926,10.018-26.252,10.018
				c-23.317,0-41.107-18.652-41.107-43.007c0-24.009,16.926-42.145,37.653-42.145c20.553,0,34.197,13.991,34.197,36.271
				c0,0.865,0,1.728,0,2.766H176.862z M228.331,161.111c0-15.372-11.572-26.254-24.007-26.254c-13.817,0-25.044,10.19-27.116,26.6
				h51.123C228.331,161.284,228.331,161.284,228.331,161.111z"/>
		</g>
		<g>
			<path fill="#748797" d="M301.562,196.52c-5.872,10.707-14.68,16.233-26.598,16.233c-18.137,0-26.425-10.361-26.425-30.917
				v-36.788c0-6.736-1.729-7.6-8.638-7.772v-2.418c5.7-0.863,11.572-3.455,18.479-7.255c-0.688,3.109-0.688,6.736-0.688,10.882
				c0,1.556,0,3.282,0,5.183v35.407c0,0.347,0,0.689,0,1.035c0,17.099,4.835,25.39,19.171,25.39
				c16.064,0,24.353-10.534,24.353-31.608v-28.843c0-6.736-1.554-7.6-8.462-7.772v-2.418c5.7-0.863,11.572-3.455,18.479-7.255
				c-0.861,4.665-1.034,10.019-1.034,16.064v53.541c0,7.257,1.034,10.883,8.807,11.918v2.765c-3.8-1.038-7.426-1.211-11.053-1.211
				c-2.938,0-5.354,0.347-7.6,1.211C301.216,207.572,301.389,202.392,301.562,196.52z"/>
		</g>
	</g>
	<g id="strap">
		<g>
			<path fill="#A4AA9A" d="M118.089,250.353c0.996-0.134,1.427-0.536,1.427-1.398c0-0.08,0-0.325,0-0.728v-12.5
				c0-0.269-0.027-0.51-0.027-0.697c0-0.782-0.404-1.134-1.4-1.295v-0.54c1.023,0.138,1.831,0.191,2.396,0.191
				c0.512,0,1.186-0.054,1.94-0.164l9.211,13.794v-11.262c0-1.399-0.188-1.831-1.59-2.046v-0.514
				c0.917,0.11,1.697,0.191,2.371,0.191c0.647,0,1.427-0.054,2.316-0.191v0.514c-1.347,0.215-1.454,0.7-1.454,1.992v15.112h-1.858
				l-10.263-15.273v12.714c0,1.402,0.134,1.885,1.643,2.1v0.54c-0.917-0.134-1.725-0.215-2.397-0.215
				c-0.782,0-1.536,0.081-2.316,0.215V250.353z"/>
		</g>
		<g>
			<path fill="#A4AA9A" d="M148.203,250.893c-0.538-0.134-1.159-0.215-1.804-0.215c-0.431,0-0.998,0.054-1.724,0.161l0.081-2.425
				c-1.024,1.724-2.666,2.667-4.606,2.667c-2.398,0-4.068-1.59-4.068-3.663c0-1.321,0.62-2.451,1.67-3.099
				c0.944-0.591,2.398-0.671,4.256-0.916c1.75-0.241,2.585-0.402,2.585-1.804c0-1.426-1.077-2.479-2.936-2.479
				c-1.992,0-3.448,0.996-3.851,2.559h-0.54c0.163-1.05,0.243-1.965,0.243-2.666c0-0.107,0-0.215,0-0.296
				c1.427-0.646,2.8-0.942,4.256-0.942c3.528,0,5.118,1.536,5.118,4.739v6.007c0,0.218,0,0.353,0,0.46
				c0,0.889,0.431,1.371,1.32,1.371V250.893z M138.505,247.149c0,1.238,0.996,2.261,2.425,2.261c2.155,0,3.744-1.644,3.744-4.417
				c0-0.537,0-0.808,0-0.808C140.794,244.967,138.505,244.886,138.505,247.149z"/>
		</g>
		<g>
			<path fill="#A4AA9A" d="M152.89,234.382c-0.511,0.728-1.105,1.184-1.886,1.426v2.29h-1.617v1.375h1.617v7.569
				c0,2.747,1.105,4.065,3.448,4.065c0.889,0,1.724-0.241,2.532-0.728l0.081-1.641c-0.7,0.456-1.32,0.698-1.966,0.698
				c-1.455,0-1.831-0.942-1.831-2.613v-7.352h3.528v-1.375h-3.528v-3.716H152.89z"/>
		</g>
		<g>
			<path fill="#A4AA9A" d="M158.41,250.353c1.186-0.161,1.32-0.751,1.32-1.938v-7.918c0-1.05-0.215-1.241-1.293-1.295v-0.456
				c1.132-0.134,2.317-0.54,3.664-1.131c-0.107,0.836-0.134,1.697-0.134,2.586v8.214c0,1.214,0.162,1.805,1.345,1.938v0.514
				c-0.914-0.135-1.749-0.215-2.477-0.215c-0.619,0-1.427,0.08-2.425,0.215V250.353z M160.728,232.792
				c0.809,0,1.508,0.701,1.508,1.59c0,0.835-0.673,1.509-1.562,1.509c-0.808,0-1.482-0.674-1.482-1.536
				C159.192,233.547,159.839,232.792,160.728,232.792z"/>
		</g>
		<g>
			<path fill="#A4AA9A" d="M164.821,244.51c0-4.041,2.882-6.814,6.493-6.814c3.582,0,6.463,2.773,6.463,6.678
				c0,4.015-2.881,6.815-6.489,6.815C167.703,251.188,164.821,248.441,164.821,244.51z M171.636,249.843
				c2.076,0,3.8-1.912,3.8-4.578c0-3.88-2.022-6.225-4.447-6.225c-2.072,0-3.823,1.942-3.823,4.608
				C167.166,247.499,169.211,249.843,171.636,249.843z"/>
		</g>
		<g>
			<path fill="#A4AA9A" d="M184.189,250.299v0.567c-1.05-0.135-1.831-0.215-2.424-0.215c-0.621,0-1.429,0.08-2.425,0.215v-0.567
				c0.996-0.054,1.321-0.482,1.321-1.532v-7.842c0-1.13,0-1.398-1.321-1.56v-0.54c0.942-0.134,2.075-0.62,3.501-1.237
				c-0.107,0.996-0.161,2.046-0.161,3.123c0.513-1.751,2.073-2.854,4.041-2.854c3.149,0,4.257,1.938,4.257,5.926v4.984
				c0,1.05,0.321,1.479,1.317,1.532v0.567c-0.728-0.135-1.398-0.215-2.046-0.215c-0.379,0-0.915,0-1.643,0.134
				c0.08-0.861,0.134-1.697,0.134-2.505c0-0.107,0-0.402,0-0.996v-4.608c0-2.126-0.647-3.122-2.237-3.122
				c-1.237,0-2.448,0.7-3.068,1.831c-0.513,0.915-0.54,1.911-0.54,3.099c0,0.215,0,0.43,0,0.645v3.639
				C182.895,249.816,183.193,250.245,184.189,250.299z"/>
		</g>
		<g>
			<path fill="#A4AA9A" d="M205.873,250.893c-0.54-0.134-1.157-0.215-1.805-0.215c-0.433,0-0.996,0.054-1.724,0.161l0.08-2.425
				c-1.023,1.724-2.666,2.667-4.604,2.667c-2.398,0-4.068-1.59-4.068-3.663c0-1.321,0.62-2.451,1.67-3.099
				c0.942-0.591,2.398-0.671,4.256-0.916c1.751-0.241,2.586-0.402,2.586-1.804c0-1.426-1.076-2.479-2.938-2.479
				c-1.992,0-3.448,0.996-3.851,2.559h-0.54c0.161-1.05,0.245-1.965,0.245-2.666c0-0.107,0-0.215,0-0.296
				c1.426-0.646,2.8-0.942,4.256-0.942c3.528,0,5.118,1.536,5.118,4.739v6.007c0,0.218,0,0.353,0,0.46
				c0,0.889,0.429,1.371,1.318,1.371V250.893z M196.176,247.149c0,1.238,0.996,2.261,2.425,2.261c2.153,0,3.743-1.644,3.743-4.417
				c0-0.537,0-0.808,0-0.808C198.463,244.967,196.176,244.886,196.176,247.149z"/>
		</g>
		<g>
			<path fill="#A4AA9A" d="M207.354,250.866c0.97-0.135,1.778-0.215,2.398-0.215c0.725,0,1.56,0.08,2.476,0.215v-0.514
				c-1.211-0.161-1.318-0.751-1.318-1.938v-14.948c0-0.808,0.026-1.696,0.134-2.586c-1.318,0.564-2.532,0.996-3.689,1.131v0.486
				c1.077,0.054,1.318,0.215,1.318,1.265v14.652c0,1.188-0.107,1.777-1.318,1.938V250.866z"/>
		</g>
		<g>
			<path fill="#A4AA9A" d="M220.552,250.353c1.294-0.215,1.455-0.671,1.455-1.885v-12.795c0-1.211-0.188-1.696-1.455-1.911v-0.514
				h6.358c4.766,0,7.19,1.942,7.19,5.47c0,2.854-2.236,5.092-5.631,5.092c-1.67,0-2.747-0.379-2.747-0.755
				c0-0.161,0.215-0.295,0.621-0.295c0.321,0,0.566,0.026,0.781,0.026c2.827,0,4.417-1.59,4.417-3.907
				c0-2.639-1.831-4.014-5.523-4.014h-1.533v13.603c0,1.295,0.241,1.697,1.533,1.885v0.54c-1.05-0.134-1.966-0.215-2.774-0.215
				c-0.889,0-1.777,0.081-2.692,0.215V250.353z"/>
		</g>
		<g>
			<path fill="#A4AA9A" d="M236.333,244.186c0.057,3.179,2.075,5.252,4.85,5.252c1.509,0,2.827-0.591,4.041-1.805l-0.269,1.969
				c-1.268,0.996-2.857,1.533-4.394,1.533c-3.77,0-6.65-2.936-6.65-6.842c0-3.771,2.72-6.544,6.222-6.544
				c3.286,0,5.574,2.287,5.574,5.953c0,0.161-0.027,0.322-0.027,0.483H236.333z M239.998,239.147c-1.831,0-3.367,1.402-3.639,3.72
				h6.952C243.257,240.63,241.749,239.147,239.998,239.147z"/>
		</g>
		<g>
			<path fill="#A4AA9A" d="M247.162,250.353c1.184-0.161,1.321-0.751,1.321-1.938v-7.918c0-1.05-0.218-1.241-1.295-1.295v-0.456
				c1.157-0.134,2.345-0.54,3.609-1.131c-0.081,0.809-0.107,1.778-0.107,2.828c0.942-1.644,2.29-2.532,3.716-2.532
				c0.299,0,0.567,0.054,0.835,0.161l0.245,2.559h-0.325c-0.376-0.376-0.809-0.647-1.426-0.647c-1.751,0-3.019,1.563-3.019,4.474
				v3.958c0,1.214,0.188,1.831,1.429,1.938v0.514c-0.969-0.135-1.777-0.215-2.505-0.215c-0.701,0-1.509,0.08-2.479,0.215V250.353z"
				/>
		</g>
		<g>
			<path fill="#A4AA9A" d="M256.077,250.353c1.187-0.161,1.32-0.751,1.32-1.938v-7.918c0-1.05-0.214-1.241-1.294-1.295v-0.456
				c1.134-0.134,2.317-0.54,3.665-1.131c-0.106,0.836-0.134,1.697-0.134,2.586v8.214c0,1.214,0.161,1.805,1.345,1.938v0.514
				c-0.915-0.135-1.75-0.215-2.479-0.215c-0.62,0-1.425,0.08-2.424,0.215V250.353z M258.394,232.792c0.808,0,1.509,0.701,1.509,1.59
				c0,0.835-0.674,1.509-1.563,1.509c-0.809,0-1.482-0.674-1.482-1.536C256.858,233.547,257.504,232.792,258.394,232.792z"/>
		</g>
		<g>
			<path fill="#A4AA9A" d="M265.99,248.767v-3.639c0-0.215,0-0.43,0-0.645c0-1.188,0.027-2.184,0.537-3.099
				c0.62-1.131,1.834-1.831,3.072-1.831c1.589,0,2.236,0.996,2.236,3.122v4.608c0,0.594,0,0.889,0,0.996
				c0,0.808-0.054,1.644-0.134,2.505c0.725-0.134,1.265-0.134,1.641-0.134c0.646,0,1.32,0.08,2.049,0.215v-0.567
				c-0.996-0.054-1.321-0.482-1.321-1.532v-4.984c0-3.987-1.104-5.926-4.256-5.926c-1.966,0-3.528,1.104-4.039,2.854
				c0-1.077,0.054-2.127,0.161-3.123c-1.429,0.617-2.559,1.104-3.501,1.237v0.54c1.318,0.161,1.318,0.43,1.318,1.56v7.842
				c0,1.05-0.322,1.479-1.318,1.532v0.567c0.996-0.135,1.805-0.215,2.425-0.215c0.59,0,1.372,0.08,2.422,0.215v-0.567
				C266.286,250.245,265.99,249.816,265.99,248.767z"/>
		</g>
		<g>
			<path fill="#A4AA9A" d="M288.967,250.893c-0.54-0.134-1.16-0.215-1.805-0.215c-0.433,0-0.999,0.054-1.724,0.161l0.08-2.425
				c-1.025,1.724-2.669,2.667-4.607,2.667c-2.398,0-4.068-1.59-4.068-3.663c0-1.321,0.62-2.451,1.67-3.099
				c0.945-0.591,2.398-0.671,4.256-0.916c1.751-0.241,2.586-0.402,2.586-1.804c0-1.426-1.076-2.479-2.935-2.479
				c-1.992,0-3.447,0.996-3.854,2.559h-0.536c0.16-1.05,0.241-1.965,0.241-2.666c0-0.107,0-0.215,0-0.296
				c1.429-0.646,2.801-0.942,4.256-0.942c3.528,0,5.118,1.536,5.118,4.739v6.007c0,0.218,0,0.353,0,0.46
				c0,0.889,0.433,1.371,1.321,1.371V250.893z M279.268,247.149c0,1.238,0.996,2.261,2.425,2.261c2.156,0,3.746-1.644,3.746-4.417
				c0-0.537,0-0.808,0-0.808C281.558,244.967,279.268,244.886,279.268,247.149z"/>
		</g>
		<g>
			<path fill="#A4AA9A" d="M293.653,234.382c-0.514,0.728-1.104,1.184-1.885,1.426v2.29h-1.617v1.375h1.617v7.569
				c0,2.747,1.104,4.065,3.447,4.065c0.889,0,1.724-0.241,2.532-0.728l0.08-1.641c-0.7,0.456-1.321,0.698-1.965,0.698
				c-1.456,0-1.831-0.942-1.831-2.613v-7.352h3.528v-1.375h-3.528v-3.716H293.653z"/>
		</g>
		<g>
			<path fill="#A4AA9A" d="M311.216,250.353c-0.892,0-1.321-0.482-1.321-1.371c0-0.107,0-0.242,0-0.46v-6.007
				c0-3.203-1.59-4.739-5.118-4.739c-1.455,0-2.827,0.296-4.256,0.942c0,0.081,0,0.188,0,0.296c0,0.701-0.08,1.616-0.241,2.666
				h0.537c0.405-1.563,1.86-2.559,3.853-2.559c1.858,0,2.936,1.053,2.936,2.479c0,1.401-0.836,1.563-2.586,1.804
				c-1.858,0.245-3.313,0.325-4.256,0.916c-1.05,0.647-1.671,1.777-1.671,3.099c0,2.073,1.671,3.663,4.068,3.663
				c1.938,0,3.582-0.943,4.605-2.667l-0.081,2.425c0.728-0.107,1.295-0.161,1.724-0.161c0.647,0,1.268,0.081,1.808,0.215V250.353z
				 M307.685,244.186c0,0,0,0.271,0,0.808c0,2.773-1.587,4.417-3.743,4.417c-1.429,0-2.425-1.022-2.425-2.261
				C301.517,244.886,303.808,244.967,307.685,244.186z"/>
		</g>
		<g>
			<path fill="#A4AA9A" d="M312.696,250.353c1.214-0.161,1.321-0.751,1.321-1.938v-14.652c0-1.05-0.245-1.211-1.321-1.265v-0.486
				c1.16-0.135,2.371-0.566,3.692-1.131c-0.11,0.89-0.138,1.778-0.138,2.586v14.948c0,1.188,0.11,1.777,1.321,1.938v0.514
				c-0.915-0.135-1.75-0.215-2.479-0.215c-0.62,0-1.429,0.08-2.397,0.215V250.353z"/>
		</g>
		<g>
			<path fill="#A4AA9A" d="M130.964,260.759c0,1.398,0.134,2.693,0.322,3.904h-0.512c-0.35-2.181-1.104-2.291-3.097-2.291h-5.683
				v5.927h3.743c1.293,0,1.779-0.107,1.994-1.453h0.485c-0.081,0.809-0.161,1.533-0.161,2.234s0.027,1.455,0.134,2.264h-0.458
				c-0.215-1.349-0.701-1.482-1.994-1.482h-3.743v6.815h5.871c2.479,0,3.206-0.403,3.61-2.908h0.511
				c-0.27,1.426-0.404,2.935-0.431,4.551h-13.496v-0.539c1.292-0.215,1.455-0.672,1.455-1.886v-12.714
				c0-1.211-0.189-1.697-1.455-1.912v-0.51H130.964z"/>
		</g>
		<g>
			<path fill="#A4AA9A" d="M137.913,282.683v0.567c-1.024-0.135-1.833-0.215-2.425-0.215c-0.647,0-1.454,0.08-2.425,0.215v-0.567
				c0.998-0.054,1.32-0.482,1.32-1.535v-12.715c0-1.157-0.027-1.398-1.32-1.56v-0.54c1.079-0.188,2.237-0.62,3.501-1.237
				c-0.107,0.942-0.161,1.831-0.161,2.692c0.889-1.563,2.478-2.451,4.363-2.451c3.664,0,6.142,2.505,6.142,6.547
				c0,3.77-2.667,6.678-6.169,6.678c-1.965,0-3.34-0.671-4.121-1.992v4.578C136.62,282.2,136.916,282.629,137.913,282.683z
				 M140.229,277.055c2.532,0,4.256-1.968,4.256-5.091c0-3.126-1.697-5.091-4.337-5.091c-2.398,0-3.61,1.697-3.61,5.091
				C136.538,275.358,137.724,277.055,140.229,277.055z"/>
		</g>
		<g>
			<path fill="#A4AA9A" d="M148.498,277.863c1.186-0.164,1.32-0.755,1.32-1.941v-7.919c0-1.05-0.215-1.237-1.293-1.294v-0.456
				c1.132-0.135,2.317-0.54,3.664-1.131c-0.107,0.835-0.134,1.697-0.134,2.586v8.214c0,1.214,0.161,1.805,1.347,1.941v0.51
				c-0.916-0.134-1.751-0.215-2.479-0.215c-0.619,0-1.427,0.081-2.425,0.215V277.863z M150.815,260.3c0.808,0,1.508,0.7,1.508,1.59
				c0,0.835-0.673,1.509-1.562,1.509c-0.808,0-1.482-0.674-1.482-1.536C149.279,261.054,149.927,260.3,150.815,260.3z"/>
		</g>
		<g>
			<path fill="#A4AA9A" d="M167.004,261.376v14.572c0,1.295,0.161,1.832,1.398,1.915v0.51c-0.835-0.107-1.506-0.188-1.992-0.188
				s-1.05,0.054-1.751,0.188c0.107-0.7,0.135-1.509,0.188-2.479c-0.996,1.725-2.532,2.64-4.256,2.64c-3.205,0-5.629-2.72-5.629-6.57
				c0-3.826,2.452-6.547,5.792-6.547c1.644,0,2.937,0.675,3.986,2.073v-5.333c0-1.455-0.135-1.938-1.455-1.938
				c-0.027,0-0.081,0-0.107,0v-0.459c1.268-0.215,2.585-0.698,3.96-1.372C167.058,259.276,167.004,260.272,167.004,261.376z
				 M157.414,271.827c0,3.099,1.644,5.117,3.691,5.117c2.02,0,3.689-1.885,3.689-5.034c0-3.179-1.616-4.983-3.663-4.983
				C159.111,266.927,157.414,268.758,157.414,271.827z"/>
		</g>
		<g>
			<path fill="#A4AA9A" d="M172.203,271.692c0.054,3.18,2.073,5.252,4.847,5.252c1.509,0,2.83-0.59,4.041-1.804l-0.269,1.968
				c-1.268,0.996-2.856,1.533-4.39,1.533c-3.773,0-6.654-2.935-6.654-6.842c0-3.77,2.721-6.543,6.222-6.543
				c3.287,0,5.577,2.287,5.577,5.952c0,0.161-0.026,0.322-0.026,0.483H172.203z M175.866,266.655c-1.832,0-3.367,1.401-3.636,3.719
				h6.949C179.125,268.138,177.616,266.655,175.866,266.655z"/>
		</g>
		<g>
			<path fill="#A4AA9A" d="M183.029,277.863c1.188-0.164,1.321-0.755,1.321-1.941v-7.919c0-1.05-0.214-1.237-1.294-1.294v-0.456
				c1.16-0.135,2.344-0.54,3.608-1.131c-0.08,0.97-0.107,1.885-0.134,2.666c0.781-1.535,2.21-2.425,3.8-2.425
				c1.805,0,3.042,0.943,3.501,2.613c0.781-1.67,2.234-2.586,4.015-2.586c2.287,0,3.743,1.509,3.743,4.068
				c0,0.188,0.026,0.51,0.026,1.022v4.632c0,1.697,0.161,2.613,1.318,2.75v0.51c-0.805-0.134-1.506-0.215-2.1-0.215
				c-0.402,0-0.942,0.054-1.644,0.188c0.161-1.375,0.215-2.452,0.215-3.126v-4.118c0-2.64-0.536-3.935-2.395-3.935
				c-1.969,0-2.938,1.429-2.938,4.229v4.524c0,1.214,0.134,1.831,1.401,1.941v0.51c-1.05-0.134-1.858-0.215-2.451-0.215
				c-0.647,0-1.456,0.081-2.452,0.215v-0.51c1.211-0.164,1.321-0.755,1.321-1.941v-4.873c0-2.56-0.433-3.881-2.371-3.881
				c-1.969,0-2.938,1.429-2.938,4.229v4.524c0,1.214,0.164,1.805,1.348,1.941v0.51c-0.915-0.134-1.75-0.215-2.479-0.215
				c-0.62,0-1.428,0.081-2.425,0.215V277.863z"/>
		</g>
		<g>
			<path fill="#A4AA9A" d="M204.444,277.863c1.187-0.164,1.321-0.755,1.321-1.941v-7.919c0-1.05-0.215-1.237-1.295-1.294v-0.456
				c1.134-0.135,2.317-0.54,3.666-1.131c-0.11,0.835-0.138,1.697-0.138,2.586v8.214c0,1.214,0.164,1.805,1.348,1.941v0.51
				c-0.915-0.134-1.75-0.215-2.478-0.215c-0.621,0-1.429,0.081-2.425,0.215V277.863z M206.761,260.3c0.808,0,1.509,0.7,1.509,1.59
				c0,0.835-0.674,1.509-1.563,1.509c-0.809,0-1.482-0.674-1.482-1.536C205.225,261.054,205.873,260.3,206.761,260.3z"/>
		</g>
		<g>
			<path fill="#A4AA9A" d="M210.856,272.018c0-4.041,2.881-6.814,6.489-6.814c3.582,0,6.467,2.773,6.467,6.681
				c0,4.011-2.885,6.814-6.493,6.814C213.737,278.698,210.856,275.948,210.856,272.018z M217.67,277.351
				c2.073,0,3.797-1.912,3.797-4.578c0-3.881-2.019-6.225-4.443-6.225c-2.076,0-3.827,1.941-3.827,4.607
				C213.197,275.006,215.246,277.351,217.67,277.351z"/>
		</g>
		<g>
			<path fill="#A4AA9A" d="M225.375,277.863c1.211-0.164,1.318-0.755,1.318-1.941v-14.653c0-1.05-0.241-1.211-1.318-1.265v-0.485
				c1.157-0.135,2.368-0.567,3.689-1.131c-0.107,0.889-0.135,1.777-0.135,2.586v14.948c0,1.187,0.107,1.777,1.318,1.941v0.51
				c-0.915-0.134-1.75-0.215-2.479-0.215c-0.617,0-1.425,0.081-2.395,0.215V277.863z"/>
		</g>
		<g>
			<path fill="#A4AA9A" d="M231.757,272.018c0-4.041,2.881-6.814,6.492-6.814c3.582,0,6.464,2.773,6.464,6.681
				c0,4.011-2.882,6.814-6.49,6.814C234.638,278.698,231.757,275.948,231.757,272.018z M238.572,277.351
				c2.073,0,3.797-1.912,3.797-4.578c0-3.881-2.02-6.225-4.443-6.225c-2.073,0-3.824,1.941-3.824,4.607
				C234.101,275.006,236.147,277.351,238.572,277.351z"/>
		</g>
		<g>
			<path fill="#A4AA9A" d="M258.504,267.034c-0.457,0.08-0.782,0.08-0.943,0.08c-0.51,0-1.05-0.026-1.616-0.161
				c0.835,0.781,1.241,1.617,1.241,2.693c0,2.479-2.237,4.632-5.226,4.632c-1.053,0-1.941-0.269-2.83-0.809
				c-0.698,0.486-1.077,0.809-1.077,1.321c0,1.157,1.375,1.375,4.095,1.429c4.042,0.081,6.303,0.51,6.303,3.016
				c0,2.371-2.342,4.229-6.275,4.229c-3.045,0-4.742-1.349-4.742-3.072c0-0.402,0.137-0.778,0.352-1.185l2.207-0.835
				c-0.295,0.514-0.43,0.97-0.43,1.429c0,1.372,1.157,2.371,2.989,2.371c2.075,0,3.447-1.106,3.447-2.344
				c0-1.241-1.13-1.617-3.257-1.617c-0.379,0-0.755,0-1.106,0c-1.59,0-2.854-0.026-3.877-0.432c-1.106-0.457-1.805-1.399-1.805-2.56
				c0-0.241,0.027-0.563,0.107-0.889c1.05-0.456,1.858-0.889,2.371-1.345c-0.835-0.889-1.268-1.938-1.268-3.072
				c0-2.72,2.13-4.632,5.333-4.632c1.375,0,2.776,0.51,4.554,0.51c0.698,0,1.318-0.054,1.912-0.188L258.504,267.034z
				 M249.321,269.432c0,2.02,1.452,3.475,3.069,3.475c1.429,0,2.666-1.214,2.666-2.911c0-1.911-1.345-3.394-2.988-3.394
				C250.585,266.602,249.321,267.708,249.321,269.432z"/>
		</g>
		<g>
			<path fill="#A4AA9A" d="M259.852,268.164c-0.459-1.237-0.835-1.911-1.724-2.072v-0.54c0.754,0.134,1.59,0.188,2.505,0.188
				c0.835,0,1.644-0.054,2.479-0.188v0.513c-0.835,0.081-1.214,0.322-1.214,0.835c0,0.188,0.054,0.457,0.161,0.809l2.723,7.865
				l2.613-7.865c0.107-0.325,0.161-0.62,0.161-0.862c0-0.513-0.379-0.728-1.241-0.781v-0.513c0.701,0.107,1.429,0.161,2.13,0.161
				c0.7,0,1.345-0.027,2.046-0.161v0.513c-0.862,0.135-1.211,0.781-1.616,1.938l-3.743,10.749c-1.077,3.069-1.912,4.659-3.961,4.659
				c-0.537,0-0.996-0.135-1.426-0.46c-0.026-0.942-0.11-1.885-0.244-2.8h0.485c0.135,0.808,0.594,1.24,1.292,1.24
				c0.889,0,1.616-0.594,1.915-1.509l0.482-1.429L259.852,268.164z"/>
		</g>
		<g>
			<path fill="#A4AA9A" d="M280.377,260.92c0.916,0,1.777-0.054,2.693-0.218v0.54c-1.268,0.188-1.429,0.647-1.429,1.885v8.189
				c0,3.797,0.835,5.712,4.122,5.712c3.26,0,4.121-1.915,4.121-5.712V263.1c0-1.237-0.164-1.67-1.455-1.885v-0.513
				c0.942,0.137,1.831,0.19,2.693,0.19c0.915,0,1.805-0.054,2.693-0.19v0.513c-1.318,0.215-1.453,0.675-1.453,1.885v8.217
				c0,5.038-1.753,7.353-6.6,7.353c-4.903,0-6.627-2.314-6.627-7.353v-8.189c0-1.185-0.107-1.67-1.456-1.885v-0.54
				C278.597,260.839,279.486,260.92,280.377,260.92z"/>
		</g>
		<g>
			<path fill="#A4AA9A" d="M300.038,277.807v0.566c-1.05-0.134-1.831-0.215-2.421-0.215c-0.621,0-1.429,0.081-2.425,0.215v-0.566
				c0.996-0.054,1.317-0.483,1.317-1.533v-7.841c0-1.13,0-1.398-1.317-1.56v-0.54c0.942-0.134,2.072-0.62,3.501-1.237
				c-0.107,0.996-0.161,2.046-0.161,3.122c0.51-1.751,2.073-2.854,4.038-2.854c3.152,0,4.256,1.939,4.256,5.927v4.983
				c0,1.05,0.325,1.479,1.321,1.533v0.566c-0.728-0.134-1.401-0.215-2.046-0.215c-0.379,0-0.918,0-1.643,0.135
				c0.08-0.862,0.134-1.697,0.134-2.506c0-0.107,0-0.402,0-0.996v-4.604c0-2.13-0.647-3.126-2.237-3.126
				c-1.237,0-2.451,0.701-3.068,1.831c-0.513,0.916-0.54,1.912-0.54,3.1c0,0.215,0,0.429,0,0.644v3.639
				C298.747,277.323,299.042,277.753,300.038,277.807z"/>
		</g>
		<g>
			<path fill="#A4AA9A" d="M309.683,277.863c1.185-0.164,1.318-0.755,1.318-1.941v-7.919c0-1.05-0.215-1.237-1.291-1.294v-0.456
				c1.13-0.135,2.314-0.54,3.662-1.131c-0.107,0.835-0.134,1.697-0.134,2.586v8.214c0,1.214,0.161,1.805,1.345,1.941v0.51
				c-0.915-0.134-1.751-0.215-2.476-0.215c-0.62,0-1.429,0.081-2.425,0.215V277.863z M311.998,260.3c0.809,0,1.51,0.7,1.51,1.59
				c0,0.835-0.675,1.509-1.563,1.509c-0.808,0-1.479-0.674-1.479-1.536C310.464,261.054,311.109,260.3,311.998,260.3z"/>
		</g>
		<g>
			<path fill="#A4AA9A" d="M319.621,261.89v3.716h3.528v1.375h-3.528v7.352c0,1.67,0.379,2.612,1.832,2.612
				c0.646,0,1.268-0.241,1.968-0.697l-0.08,1.644c-0.809,0.482-1.644,0.725-2.532,0.725c-2.345,0-3.448-1.318-3.448-4.065v-7.569
				h-1.616v-1.375h1.616v-2.288c0.779-0.244,1.372-0.7,1.886-1.428H319.621z"/>
		</g>
	</g>
</g>
<g id="figure-2">
	<g id="arm-2-base">
		<g>
			<path fill="#748797" d="M169.916,72.722c29.55,2.652,37.859-21.652,37.859-21.652c5.118-13.559,19.834-11.948,19.834-11.948
				c20.746,3.979-5.44,27.746-5.44,27.746c-18.79,15.223-40.252,12.509-53.345,8.539c0,0-1.635-0.394-1.455-1.676
				C167.369,73.73,167.44,72.183,169.916,72.722z"/>
		</g>
		<g>
			<path fill="#798B9B" d="M227.501,39.702c20.036,3.912-5.715,27.215-5.715,27.215c-18.808,15.169-39.816,12.388-52.954,8.482
				c0,0-1.607-0.39-1.429-1.671c0,0,0.102-1.491,2.577-0.951c29.551,2.651,38.012-21.395,38.012-21.395
				C213.203,37.882,227.501,39.702,227.501,39.702z"/>
		</g>
		<g>
			<path fill="#7E909F" d="M227.394,40.282c19.326,3.846-5.989,26.686-5.989,26.686c-18.822,15.112-39.378,12.266-52.566,8.422
				c0,0-1.577-0.382-1.398-1.664c0,0,0.131-1.432,2.606-0.893c29.551,2.651,38.164-21.138,38.164-21.138
				C213.513,38.253,227.394,40.282,227.394,40.282z"/>
		</g>
		<g>
			<path fill="#8294A4" d="M227.29,40.862c18.616,3.779-6.267,26.155-6.267,26.155c-18.84,15.059-38.942,12.144-52.176,8.366
				c0,0-1.554-0.378-1.371-1.658c0,0,0.163-1.375,2.636-0.837c29.554,2.651,38.316-20.879,38.316-20.879
				C213.824,38.625,227.29,40.862,227.29,40.862z"/>
		</g>
		<g>
			<path fill="#8799A8" d="M227.182,41.442c17.906,3.713-6.541,25.624-6.541,25.624c-18.855,15.005-38.504,12.022-51.784,8.31
				c0,0-1.527-0.371-1.346-1.652c0,0,0.194-1.318,2.666-0.78c29.554,2.652,38.469-20.62,38.469-20.62
				C214.133,38.996,227.182,41.442,227.182,41.442z"/>
		</g>
		<g>
			<path fill="#8C9DAC" d="M227.075,42.023c17.197,3.645-6.815,25.093-6.815,25.093c-18.873,14.948-38.068,11.9-51.396,8.25
				c0,0-1.497-0.365-1.315-1.646c0,0,0.224-1.259,2.696-0.724c29.553,2.655,38.617-20.361,38.617-20.361
				C214.444,39.369,227.075,42.023,227.075,42.023z"/>
		</g>
		<g>
			<path fill="#91A2B1" d="M226.967,42.604c16.487,3.579-7.09,24.563-7.09,24.563c-18.888,14.895-37.63,11.779-51.006,8.192
				c0,0-1.471-0.359-1.289-1.64c0,0,0.254-1.202,2.727-0.667c29.554,2.654,38.77-20.104,38.77-20.104
				C214.754,39.74,226.967,42.604,226.967,42.604z"/>
		</g>
		<g>
			<path fill="#97A6B5" d="M226.863,43.184c15.777,3.512-7.367,24.031-7.367,24.031c-18.905,14.841-37.194,11.657-50.615,8.137
				c0,0-1.446-0.355-1.262-1.635c0,0,0.286-1.146,2.756-0.61c29.557,2.655,38.922-19.845,38.922-19.845
				C215.064,40.112,226.863,43.184,226.863,43.184z"/>
		</g>
		<g>
			<path fill="#9CABBA" d="M226.755,43.764c15.067,3.446-7.641,23.502-7.641,23.502c-18.921,14.784-36.757,11.535-50.229,8.077
				c0,0-1.417-0.348-1.231-1.629c0,0,0.315-1.086,2.785-0.552c29.557,2.654,39.074-19.588,39.074-19.588
				C215.375,40.483,226.755,43.764,226.755,43.764z"/>
		</g>
		<g>
			<path fill="#A2B0BE" d="M170.505,73.217c29.557,2.655,39.226-19.329,39.226-19.329c5.953-13.033,16.917-9.544,16.917-9.544
				c14.357,3.379-7.915,22.971-7.915,22.971c-18.939,14.731-36.321,11.414-49.838,8.021c0,0-1.39-0.343-1.205-1.623
				C167.69,73.712,168.037,72.684,170.505,73.217z"/>
		</g>
	</g>
	<g id="arm-2-blend">
		<g>
			<path fill="#A2B0BE" d="M170.505,73.217c29.557,2.655,39.226-19.329,39.226-19.329c5.953-13.033,16.917-9.544,16.917-9.544
				c14.357,3.379-7.915,22.971-7.915,22.971c-18.939,14.731-36.321,11.414-49.838,8.021c0,0-1.39-0.343-1.205-1.623
				C167.69,73.712,168.037,72.684,170.505,73.217z"/>
		</g>
		<g>
			<path fill="#A9B7C4" d="M226.317,45.01c13.743,3.27-6.791,21.466-7.823,22.358c-18.154,14.234-35.896,11.295-49.273,7.973
				c0,0-1.452-0.342-1.285-1.579c0,0,0.328-0.95,2.785-0.44c28.969,2.546,38.803-18.455,38.951-18.695
				C215.482,42.21,225.748,44.855,226.317,45.01z"/>
		</g>
		<g>
			<path fill="#B1BDCA" d="M225.989,45.677c13.129,3.16-5.673,19.96-7.733,21.745c-17.367,13.736-35.474,11.176-48.707,7.927
				c0,0-1.518-0.342-1.369-1.536c0,0,0.311-0.873,2.756-0.385c28.385,2.437,38.379-17.585,38.677-18.063
				C215.282,43.565,224.85,45.368,225.989,45.677z"/>
		</g>
		<g>
			<path fill="#B8C4CF" d="M225.658,46.344c12.515,3.051-4.548,18.455-7.644,21.131c-16.58,13.24-35.048,11.059-48.141,7.88
				c0,0-1.584-0.34-1.452-1.493c0,0,0.292-0.795,2.729-0.329c27.797,2.327,37.955-16.711,38.405-17.43
				C215.079,44.921,223.949,45.88,225.658,46.344z"/>
		</g>
		<g>
			<path fill="#C1CBD5" d="M225.327,47.01c11.9,2.941-3.427,16.95-7.552,20.518c-15.795,12.744-34.623,10.939-47.576,7.833
				c0,0-1.646-0.34-1.533-1.45c0,0,0.274-0.716,2.699-0.273c27.209,2.218,37.531-15.84,38.131-16.797
				C214.879,46.276,223.051,46.391,225.327,47.01z"/>
		</g>
		<g>
			<path fill="#C9D2DB" d="M224.999,47.675c11.286,2.833-2.306,15.446-7.462,19.907c-15.008,12.246-34.2,10.82-47.01,7.785
				c0,0-1.712-0.337-1.616-1.406c0,0,0.256-0.638,2.669-0.219c26.625,2.11,37.108-14.966,37.856-16.165
				C214.676,47.633,222.151,46.904,224.999,47.675z"/>
		</g>
		<g>
			<path fill="#D2DAE2" d="M224.667,48.342c10.672,2.723-1.184,13.94-7.369,19.294c-14.224,11.749-33.777,10.701-46.446,7.739
				c0,0-1.774-0.337-1.697-1.364c0,0,0.238-0.56,2.64-0.163c26.037,2,36.685-14.095,37.582-15.532
				C214.476,48.989,221.252,47.416,224.667,48.342z"/>
		</g>
		<g>
			<path fill="#DBE1E8" d="M224.336,49.009c10.058,2.614-0.06,12.436-7.28,18.679c-13.436,11.255-33.35,10.585-45.879,7.693
				c0,0-1.841-0.335-1.781-1.321c0,0,0.221-0.481,2.613-0.107c25.449,1.892,36.261-13.221,37.311-14.898
				C214.274,50.345,220.352,47.928,224.336,49.009z"/>
		</g>
		<g>
			<path fill="#E4E9EE" d="M224.008,49.675c9.442,2.504,1.059,10.93-7.19,18.066c-12.648,10.757-32.927,10.466-45.313,7.647
				c0,0-1.906-0.336-1.864-1.278c0,0,0.202-0.404,2.583-0.052c24.864,1.782,35.837-12.351,37.036-14.267
				C214.074,51.7,219.455,48.44,224.008,49.675z"/>
		</g>
		<g>
			<path fill="#EEF1F4" d="M172.438,74.163c24.278,1.673,35.414-11.477,36.763-13.634c4.671-7.474,9.353-11.577,14.477-10.188
				c8.828,2.395,2.184,9.425-7.098,17.453c-11.864,10.26-32.504,10.347-44.75,7.6c0,0-1.968-0.334-1.944-1.234
				C169.885,74.16,170.071,73.835,172.438,74.163z"/>
		</g>
	</g>
	<g id="arm-2-highlight">
		<path fill="#FFFFFF" d="M230.131,42.086c-2.672-1.136-5.356-0.599-6.543,0.003c1.449,0.263,3.645,0.319,6,1.328
			c2.452,0.808,3.364,2.663,3.478,4.181C234.033,46.497,233.156,42.951,230.131,42.086z"/>
	</g>
	<g>
		<path fill="#748797" d="M228.151,32.924c8.59-1.73,14.161-10.102,12.426-18.703c-1.73-8.589-10.105-14.152-18.694-12.422
			c-7.689,1.548-12.911,8.417-12.696,15.997c0.023-7.058,4.995-13.365,12.183-14.813c8.217-1.655,16.222,3.664,17.877,11.88
			c1.655,8.217-3.665,16.22-11.882,17.875c-2.985,0.601-5.932,0.26-8.565-0.783C221.65,33.174,224.882,33.583,228.151,32.924z"/>
	</g>
	<g>
		<path fill="#748797" d="M227.364,32.739c8.217-1.655,13.537-9.659,11.882-17.875c-1.655-8.216-9.66-13.536-17.877-11.88
			c-7.188,1.448-12.159,7.754-12.183,14.813c0.026,0.892,0.083,1.79,0.265,2.694c0.01,0.046,0.03,0.087,0.042,0.133
			c-1.491-8.102,3.761-15.936,11.867-17.568c8.19-1.651,16.168,3.652,17.82,11.842c1.649,8.191-3.653,16.169-11.843,17.819
			c-3.01,0.607-5.983,0.259-8.632-0.81c0.033,0.014,0.06,0.036,0.093,0.051C221.432,32.999,224.378,33.34,227.364,32.739z"/>
	</g>
	<g>
		<path fill="#758898" d="M227.337,32.715c8.189-1.649,13.492-9.627,11.843-17.819c-1.652-8.19-9.63-13.493-17.82-11.842
			c-8.106,1.633-13.358,9.466-11.867,17.568c0.009,0.042,0.027,0.079,0.036,0.121c-1.551-8.114,3.704-15.982,11.819-17.616
			c8.166-1.645,16.117,3.64,17.764,11.805c1.644,8.165-3.642,16.116-11.805,17.761c-3.03,0.61-6.027,0.258-8.688-0.832
			c0.029,0.013,0.057,0.031,0.086,0.044C221.354,32.975,224.328,33.322,227.337,32.715z"/>
	</g>
	<g>
		<path fill="#768999" d="M227.307,32.693c8.163-1.645,13.448-9.596,11.805-17.761c-1.646-8.165-9.598-13.45-17.764-11.805
			c-8.115,1.634-13.37,9.502-11.819,17.616c0.012,0.05,0.035,0.097,0.048,0.147c-1.635-8.132,3.633-16.053,11.766-17.69
			c8.136-1.639,16.063,3.628,17.701,11.766c1.641,8.138-3.627,16.065-11.766,17.704c-3.097,0.624-6.159,0.237-8.858-0.918
			c0.068,0.033,0.131,0.077,0.2,0.109C221.28,32.951,224.277,33.303,227.307,32.693z"/>
	</g>
	<g>
		<path fill="#778A9A" d="M227.278,32.67c8.139-1.639,13.406-9.566,11.766-17.704c-1.638-8.138-9.565-13.405-17.701-11.766
			c-8.133,1.637-13.4,9.559-11.766,17.69c0.218,0.959,0.495,1.889,0.87,2.762c-0.354-0.869-0.649-1.777-0.841-2.733
			c-1.634-8.111,3.615-16.012,11.728-17.646s16.013,3.616,17.645,11.729c1.634,8.111-3.615,16.012-11.728,17.646
			c-3.99,0.804-7.922-0.073-11.089-2.121c0.713,0.478,1.477,0.867,2.258,1.225C221.119,32.908,224.181,33.294,227.278,32.67z"/>
	</g>
	<g>
		<path fill="#788B9B" d="M227.25,32.648c8.112-1.634,13.361-9.535,11.728-17.646c-1.632-8.112-9.532-13.363-17.645-11.729
			s-13.361,9.535-11.728,17.646c0.191,0.956,0.486,1.864,0.841,2.733c0.016,0.034,0.039,0.061,0.054,0.096
			c-0.372-0.892-0.671-1.83-0.867-2.813c-1.632-8.086,3.603-15.961,11.688-17.589c8.085-1.628,15.959,3.606,17.587,11.69
			c1.632,8.085-3.603,15.96-11.688,17.589c-4.009,0.807-7.961-0.081-11.131-2.156c0.026,0.017,0.048,0.041,0.071,0.058
			C219.329,32.575,223.26,33.452,227.25,32.648z"/>
	</g>
	<g>
		<path fill="#798C9C" d="M227.221,32.625c8.085-1.628,13.319-9.503,11.688-17.589c-1.628-8.084-9.502-13.318-17.587-11.69
			c-8.086,1.628-13.32,9.503-11.688,17.589c0.196,0.982,0.495,1.92,0.867,2.813c0.4,0.906,0.862,1.774,1.411,2.575
			c-1.064-1.581-1.85-3.39-2.249-5.375c-1.625-8.059,3.591-15.907,11.649-17.531c8.059-1.624,15.909,3.594,17.531,11.653
			c1.626,8.059-3.591,15.907-11.649,17.531c-4.608,0.929-9.108-0.432-12.455-3.23c0.444,0.377,0.874,0.771,1.352,1.098
			C219.26,32.545,223.212,33.433,227.221,32.625z"/>
	</g>
	<g>
		<path fill="#7A8D9C" d="M227.194,32.602c8.059-1.624,13.275-9.472,11.649-17.531c-1.622-8.059-9.473-13.276-17.531-11.653
			c-8.059,1.624-13.274,9.473-11.649,17.531c0.399,1.985,1.185,3.794,2.249,5.375c0.018,0.024,0.042,0.043,0.057,0.067
			c-1.083-1.589-1.876-3.419-2.278-5.425c-1.62-8.032,3.579-15.856,11.613-17.475c8.032-1.618,15.855,3.582,17.472,11.614
			c1.619,8.032-3.579,15.856-11.614,17.475c-5.017,1.011-9.952-0.64-13.347-3.979c0.287,0.285,0.621,0.509,0.925,0.771
			C218.085,32.169,222.585,33.531,227.194,32.602z"/>
	</g>
	<g>
		<path fill="#7B8D9D" d="M227.161,32.58c8.035-1.618,13.233-9.443,11.614-17.475c-1.616-8.032-9.439-13.232-17.472-11.614
			c-8.034,1.618-13.233,9.442-11.613,17.475c0.402,2.005,1.195,3.835,2.278,5.425c0.552,0.795,1.169,1.535,1.846,2.21
			C217.208,31.939,222.144,33.59,227.161,32.58z"/>
	</g>
	<g>
		<circle fill="#7B8D9D" cx="224.214" cy="18.061" r="14.786"/>
	</g>
	<g>
		<circle fill="#7C8E9E" cx="224.214" cy="18.061" r="14.786"/>
	</g>
	<g>
		<circle fill="#7C8E9E" cx="224.194" cy="18.086" r="14.738"/>
	</g>
	<g>
		<circle fill="#7D8F9F" cx="224.194" cy="18.086" r="14.738"/>
	</g>
	<g>
		<circle fill="#7D8F9F" cx="224.176" cy="18.111" r="14.69"/>
	</g>
	<g>
		<circle fill="#7E90A0" cx="224.175" cy="18.111" r="14.689"/>
	</g>
	<g>
		<circle fill="#7E90A0" cx="224.158" cy="18.135" r="14.64"/>
	</g>
	<g>
		<circle fill="#7F91A1" cx="224.158" cy="18.135" r="14.64"/>
	</g>
	<g>
		<circle fill="#7F91A1" cx="224.137" cy="18.161" r="14.592"/>
	</g>
	<g>
		<circle fill="#8092A2" cx="224.137" cy="18.16" r="14.592"/>
	</g>
	<g>
		<circle fill="#8092A2" cx="224.119" cy="18.186" r="14.543"/>
	</g>
	<g>
		<circle fill="#8193A3" cx="224.119" cy="18.186" r="14.543"/>
	</g>
	<g>
		<circle fill="#8193A3" cx="224.098" cy="18.211" r="14.494"/>
	</g>
	<g>
		<circle fill="#8294A4" cx="224.098" cy="18.211" r="14.494"/>
	</g>
	<g>
		<circle fill="#8294A4" cx="224.08" cy="18.237" r="14.446"/>
	</g>
	<g>
		<circle fill="#8395A5" cx="224.08" cy="18.237" r="14.445"/>
	</g>
	<g>
		<circle fill="#8395A5" cx="224.063" cy="18.26" r="14.396"/>
	</g>
	<g>
		<circle fill="#8596A6" cx="224.062" cy="18.26" r="14.397"/>
	</g>
	<g>
		<circle fill="#8596A6" cx="224.042" cy="18.286" r="14.348"/>
	</g>
	<g>
		<circle fill="#8697A6" cx="224.042" cy="18.286" r="14.348"/>
	</g>
	<g>
		<circle fill="#8697A6" cx="224.023" cy="18.311" r="14.3"/>
	</g>
	<g>
		<circle fill="#8798A7" cx="224.023" cy="18.311" r="14.3"/>
	</g>
	<g>
		<circle fill="#8798A7" cx="224.002" cy="18.337" r="14.251"/>
	</g>
	<g>
		<circle fill="#8899A8" cx="224.002" cy="18.336" r="14.25"/>
	</g>
	<g>
		<circle fill="#8899A8" cx="223.985" cy="18.362" r="14.202"/>
	</g>
	<g>
		<circle fill="#899AA9" cx="223.984" cy="18.362" r="14.202"/>
	</g>
	<g>
		<circle fill="#899AA9" cx="223.967" cy="18.386" r="14.153"/>
	</g>
	<g>
		<circle fill="#8A9BAA" cx="223.967" cy="18.386" r="14.153"/>
	</g>
	<g>
		<circle fill="#8A9BAA" cx="223.946" cy="18.411" r="14.104"/>
	</g>
	<g>
		<circle fill="#8B9CAB" cx="223.946" cy="18.411" r="14.104"/>
	</g>
	<g>
		<circle fill="#8B9CAB" cx="223.928" cy="18.436" r="14.056"/>
	</g>
	<g>
		<circle fill="#8C9DAC" cx="223.928" cy="18.437" r="14.056"/>
	</g>
	<g>
		<circle fill="#8C9DAC" cx="223.907" cy="18.462" r="14.008"/>
	</g>
	<g>
		<circle fill="#8D9EAD" cx="223.907" cy="18.462" r="14.007"/>
	</g>
	<g>
		<circle fill="#8D9EAD" cx="223.889" cy="18.487" r="13.958"/>
	</g>
	<g>
		<circle fill="#8E9FAE" cx="223.889" cy="18.487" r="13.959"/>
	</g>
	<g>
		<circle fill="#8E9FAE" cx="223.872" cy="18.511" r="13.91"/>
	</g>
	<g>
		<circle fill="#8FA0AF" cx="223.872" cy="18.511" r="13.91"/>
	</g>
	<g>
		<circle fill="#8FA0AF" cx="223.851" cy="18.536" r="13.86"/>
	</g>
	<g>
		<circle fill="#90A1B0" cx="223.851" cy="18.536" r="13.861"/>
	</g>
	<g>
		<circle fill="#90A1B0" cx="223.833" cy="18.562" r="13.811"/>
	</g>
	<g>
		<circle fill="#91A2B1" cx="223.833" cy="18.562" r="13.812"/>
	</g>
	<g>
		<circle fill="#91A2B1" cx="223.812" cy="18.587" r="13.762"/>
	</g>
	<g>
		<circle fill="#93A3B2" cx="223.812" cy="18.587" r="13.764"/>
	</g>
	<g>
		<circle fill="#93A3B2" cx="223.793" cy="18.613" r="13.714"/>
	</g>
	<g>
		<circle fill="#94A4B3" cx="223.794" cy="18.613" r="13.715"/>
	</g>
	<g>
		<circle fill="#94A4B3" cx="223.776" cy="18.636" r="13.665"/>
	</g>
	<g>
		<circle fill="#95A5B3" cx="223.776" cy="18.636" r="13.667"/>
	</g>
	<g>
		<circle fill="#95A5B3" cx="223.755" cy="18.662" r="13.616"/>
	</g>
	<g>
		<circle fill="#96A6B4" cx="223.755" cy="18.662" r="13.618"/>
	</g>
	<g>
		<path fill="#96A6B4" d="M226.416,31.987c-7.343,1.479-14.498-3.274-15.98-10.621c-1.479-7.346,3.278-14.501,10.624-15.98
			c7.343-1.479,14.498,3.275,15.979,10.621C238.518,23.353,233.761,30.508,226.416,31.987z"/>
	</g>
	<g>
		<path fill="#97A7B5" d="M237.039,16.007c-1.481-7.346-8.637-12.1-15.979-10.621c-7.346,1.479-12.104,8.634-10.624,15.98
			c1.482,7.346,8.638,12.1,15.98,10.621C233.761,30.508,238.518,23.353,237.039,16.007z"/>
	</g>
	<g>
		<circle fill="#97A7B5" cx="223.716" cy="18.712" r="13.519"/>
	</g>
	<g>
		<circle fill="#98A8B6" cx="223.716" cy="18.712" r="13.52"/>
	</g>
	<g>
		<circle fill="#98A8B6" cx="223.698" cy="18.738" r="13.47"/>
	</g>
	<g>
		<circle fill="#99A9B7" cx="223.698" cy="18.738" r="13.469"/>
	</g>
	<g>
		<path fill="#99A9B7" d="M226.332,31.919c-7.268,1.464-14.346-3.241-15.807-10.506c-1.465-7.267,3.239-14.344,10.504-15.809
			c7.269-1.464,14.346,3.24,15.808,10.506C238.3,23.377,233.597,30.455,226.332,31.919z"/>
	</g>
	<g>
		<path fill="#9BAAB8" d="M236.836,16.11c-1.462-7.266-8.539-11.97-15.808-10.506c-7.265,1.464-11.969,8.542-10.504,15.809
			c1.461,7.265,8.539,11.97,15.807,10.506C233.597,30.455,238.3,23.377,236.836,16.11z"/>
	</g>
	<g>
		<circle fill="#9BAAB8" cx="223.66" cy="18.787" r="13.373"/>
	</g>
	<g>
		<circle fill="#9CABB9" cx="223.66" cy="18.787" r="13.372"/>
	</g>
	<g>
		<path fill="#9CABB9" d="M226.272,31.874c-7.211,1.453-14.238-3.217-15.69-10.43c-1.456-7.215,3.215-14.24,10.43-15.694
			c7.212-1.453,14.238,3.217,15.69,10.43C238.158,23.395,233.487,30.42,226.272,31.874z"/>
	</g>
	<g>
		<circle fill="#9DACBA" cx="223.642" cy="18.812" r="13.323"/>
	</g>
	<g>
		<circle fill="#9DACBA" cx="223.621" cy="18.838" r="13.275"/>
	</g>
	<g>
		<circle fill="#9EADBB" cx="223.621" cy="18.838" r="13.274"/>
	</g>
	<g>
		<circle fill="#9EADBB" cx="223.603" cy="18.863" r="13.227"/>
	</g>
	<g>
		<circle fill="#9FAEBC" cx="223.603" cy="18.863" r="13.225"/>
	</g>
	<g>
		<circle fill="#9FAEBC" cx="223.585" cy="18.887" r="13.179"/>
	</g>
	<g>
		<circle fill="#A1AFBD" cx="223.585" cy="18.887" r="13.177"/>
	</g>
	<g>
		<circle fill="#A1AFBD" cx="223.564" cy="18.912" r="13.128"/>
	</g>
	<g>
		<circle fill="#A2B0BE" cx="223.564" cy="18.912" r="13.128"/>
	</g>
	<g>
		<circle fill="#A2B0BE" cx="223.546" cy="18.938" r="13.079"/>
	</g>
	<g>
		<circle fill="#A3B1BF" cx="223.546" cy="18.938" r="13.079"/>
	</g>
	<g>
		<circle fill="#A3B1BF" cx="223.525" cy="18.963" r="13.031"/>
	</g>
	<g>
		<circle fill="#A4B2C0" cx="223.525" cy="18.963" r="13.031"/>
	</g>
	<g>
		<circle fill="#A4B2C0" cx="223.508" cy="18.988" r="12.982"/>
	</g>
	<g>
		<circle fill="#A6B4C1" cx="223.508" cy="18.988" r="12.982"/>
	</g>
	<g>
		<path fill="#A6B4C1" d="M226.04,31.69c-7,1.411-13.82-3.121-15.231-10.124c-1.411-7.002,3.123-13.822,10.126-15.233
			c6.999-1.411,13.82,3.121,15.231,10.124C237.576,23.46,233.042,30.28,226.04,31.69z"/>
	</g>
	<g>
		<circle fill="#A7B5C2" cx="223.487" cy="19.012" r="12.933"/>
	</g>
	<g>
		<circle fill="#A7B5C2" cx="223.469" cy="19.038" r="12.885"/>
	</g>
	<g>
		<circle fill="#A8B6C3" cx="223.469" cy="19.038" r="12.884"/>
	</g>
	<g>
		<circle fill="#A8B6C3" cx="223.451" cy="19.063" r="12.836"/>
	</g>
	<g>
		<circle fill="#A9B7C4" cx="223.451" cy="19.063" r="12.836"/>
	</g>
	<g>
		<circle fill="#A9B7C4" cx="223.43" cy="19.088" r="12.787"/>
	</g>
	<g>
		<circle fill="#ABB8C5" cx="223.43" cy="19.088" r="12.787"/>
	</g>
	<g>
		<circle fill="#ABB8C5" cx="223.412" cy="19.114" r="12.739"/>
	</g>
	<g>
		<circle fill="#ACB9C6" cx="223.412" cy="19.114" r="12.739"/>
	</g>
	<g>
		<circle fill="#ACB9C6" cx="223.391" cy="19.137" r="12.69"/>
	</g>
	<g>
		<circle fill="#ADBAC7" cx="223.392" cy="19.137" r="12.69"/>
	</g>
	<g>
		<circle fill="#ADBAC7" cx="223.374" cy="19.163" r="12.641"/>
	</g>
	<g>
		<circle fill="#AEBBC8" cx="223.373" cy="19.163" r="12.641"/>
	</g>
	<g>
		<circle fill="#AEBBC8" cx="223.355" cy="19.188" r="12.593"/>
	</g>
	<g>
		<circle fill="#B0BCC9" cx="223.355" cy="19.188" r="12.592"/>
	</g>
	<g>
		<circle fill="#B0BCC9" cx="223.334" cy="19.213" r="12.544"/>
	</g>
	<g>
		<circle fill="#B1BECA" cx="223.334" cy="19.213" r="12.544"/>
	</g>
	<g>
		<circle fill="#B1BECA" cx="223.316" cy="19.239" r="12.495"/>
	</g>
	<g>
		<circle fill="#B2BFCB" cx="223.317" cy="19.239" r="12.495"/>
	</g>
	<g>
		<circle fill="#B2BFCB" cx="223.296" cy="19.263" r="12.446"/>
	</g>
	<g>
		<circle fill="#B4C0CC" cx="223.296" cy="19.263" r="12.447"/>
	</g>
	<g>
		<circle fill="#B4C0CC" cx="223.278" cy="19.288" r="12.398"/>
	</g>
	<g>
		<circle fill="#B5C1CD" cx="223.278" cy="19.288" r="12.398"/>
	</g>
	<g>
		<path fill="#B5C1CD" d="M225.7,31.418c-6.687,1.348-13.197-2.979-14.546-9.667c-1.345-6.685,2.982-13.196,9.666-14.542
			c6.688-1.348,13.198,2.979,14.546,9.666C236.711,23.561,232.383,30.071,225.7,31.418z"/>
	</g>
	<g>
		<circle fill="#B6C2CE" cx="223.26" cy="19.313" r="12.349"/>
	</g>
	<g>
		<path fill="#B6C2CE" d="M225.667,31.396c-6.656,1.342-13.144-2.969-14.485-9.627c-1.343-6.659,2.971-13.146,9.63-14.486
			c6.657-1.342,13.145,2.969,14.486,9.627C236.639,23.568,232.327,30.055,225.667,31.396z"/>
	</g>
	<g>
		<circle fill="#B8C3CF" cx="223.239" cy="19.339" r="12.3"/>
	</g>
	<g>
		<circle fill="#B8C3CF" cx="223.221" cy="19.364" r="12.25"/>
	</g>
	<g>
		<circle fill="#B9C5D0" cx="223.221" cy="19.364" r="12.252"/>
	</g>
	<g>
		<circle fill="#B9C5D0" cx="223.2" cy="19.388" r="12.201"/>
	</g>
	<g>
		<circle fill="#BAC6D1" cx="223.2" cy="19.388" r="12.203"/>
	</g>
	<g>
		<circle fill="#BAC6D1" cx="223.183" cy="19.413" r="12.153"/>
	</g>
	<g>
		<circle fill="#BCC7D2" cx="223.182" cy="19.413" r="12.155"/>
	</g>
	<g>
		<circle fill="#BCC7D2" cx="223.165" cy="19.438" r="12.104"/>
	</g>
	<g>
		<circle fill="#BDC8D3" cx="223.165" cy="19.439" r="12.106"/>
	</g>
	<g>
		<circle fill="#BDC8D3" cx="223.165" cy="19.439" r="12.055"/>
	</g>
	<g>
		<circle fill="#BDC8D3" cx="223.165" cy="19.439" r="12.057"/>
	</g>
	<g>
		<circle fill="#BDC8D3" cx="223.099" cy="19.525" r="11.891"/>
	</g>
	<g>
		<circle fill="#BFC9D4" cx="223.099" cy="19.525" r="11.89"/>
	</g>
	<g>
		<circle fill="#BFC9D4" cx="223.034" cy="19.61" r="11.726"/>
	</g>
	<g>
		<circle fill="#C0CBD5" cx="223.033" cy="19.61" r="11.726"/>
	</g>
	<g>
		<circle fill="#C0CBD5" cx="222.968" cy="19.697" r="11.561"/>
	</g>
	<g>
		<circle fill="#C2CCD6" cx="222.968" cy="19.697" r="11.561"/>
	</g>
	<g>
		<circle fill="#C2CCD6" cx="222.902" cy="19.783" r="11.397"/>
	</g>
	<g>
		<path fill="#C3CDD7" d="M220.65,8.611c-6.167,1.244-10.164,7.253-8.92,13.422c1.243,6.171,7.253,10.165,13.424,8.922
			c6.168-1.244,10.164-7.253,8.921-13.423C232.831,11.362,226.821,7.369,220.65,8.611z"/>
	</g>
	<g>
		<circle fill="#C3CDD7" cx="222.836" cy="19.87" r="11.231"/>
	</g>
	<g>
		<circle fill="#C5CED8" cx="222.836" cy="19.87" r="11.231"/>
	</g>
	<g>
		<circle fill="#C5CED8" cx="222.771" cy="19.955" r="11.067"/>
	</g>
	<g>
		<path fill="#C6D0D9" d="M220.584,9.106c-5.991,1.206-9.869,7.043-8.661,13.035c1.205,5.992,7.042,9.869,13.033,8.663
			c5.992-1.206,9.869-7.043,8.661-13.035C232.414,11.777,226.577,7.899,220.584,9.106z"/>
	</g>
	<g>
		<circle fill="#C6D0D9" cx="222.706" cy="20.041" r="10.903"/>
	</g>
	<g>
		<circle fill="#C7D1DA" cx="222.706" cy="20.041" r="10.903"/>
	</g>
	<g>
		<circle fill="#C7D1DA" cx="222.64" cy="20.128" r="10.737"/>
	</g>
	<g>
		<circle fill="#C9D2DB" cx="222.64" cy="20.128" r="10.737"/>
	</g>
	<g>
		<circle fill="#C9D2DB" cx="222.574" cy="20.213" r="10.572"/>
	</g>
	<g>
		<circle fill="#CAD3DD" cx="222.574" cy="20.213" r="10.572"/>
	</g>
	<g>
		<circle fill="#CAD3DD" cx="222.508" cy="20.299" r="10.408"/>
	</g>
	<g>
		<circle fill="#CCD5DE" cx="222.508" cy="20.299" r="10.408"/>
	</g>
	<g>
		<circle fill="#CCD5DE" cx="222.443" cy="20.386" r="10.242"/>
	</g>
	<g>
		<circle fill="#CED6DF" cx="222.443" cy="20.386" r="10.242"/>
	</g>
	<g>
		<circle fill="#CED6DF" cx="222.377" cy="20.471" r="10.078"/>
	</g>
	<g>
		<circle fill="#CFD7E0" cx="222.377" cy="20.471" r="10.078"/>
	</g>
	<g>
		<circle fill="#CFD7E0" cx="222.312" cy="20.557" r="9.913"/>
	</g>
	<g>
		<circle fill="#D1D9E1" cx="222.312" cy="20.557" r="9.913"/>
	</g>
	<g>
		<circle fill="#D1D9E1" cx="222.246" cy="20.644" r="9.748"/>
	</g>
	<g>
		<circle fill="#D2DAE2" cx="222.246" cy="20.644" r="9.748"/>
	</g>
	<g>
		<circle fill="#D2DAE2" cx="222.18" cy="20.729" r="9.584"/>
	</g>
	<g>
		<circle fill="#D4DBE3" cx="222.18" cy="20.729" r="9.584"/>
	</g>
	<g>
		<circle fill="#D4DBE3" cx="222.115" cy="20.815" r="9.418"/>
	</g>
	<g>
		<path fill="#D5DDE4" d="M220.253,11.583c-5.097,1.026-8.398,5.994-7.372,11.092c1.028,5.1,5.994,8.4,11.095,7.373
			c5.097-1.026,8.398-5.993,7.372-11.092C230.32,13.855,225.354,10.555,220.253,11.583z"/>
	</g>
	<g>
		<circle fill="#D5DDE4" cx="222.049" cy="20.901" r="9.254"/>
	</g>
	<g>
		<circle fill="#D7DEE5" cx="222.049" cy="20.901" r="9.254"/>
	</g>
	<g>
		<circle fill="#D7DEE5" cx="221.983" cy="20.988" r="9.089"/>
	</g>
	<g>
		<circle fill="#D9DFE6" cx="221.983" cy="20.988" r="9.089"/>
	</g>
	<g>
		<circle fill="#D9DFE6" cx="221.917" cy="21.073" r="8.924"/>
	</g>
	<g>
		<circle fill="#DAE1E7" cx="221.917" cy="21.073" r="8.924"/>
	</g>
	<g>
		<circle fill="#DAE1E7" cx="221.853" cy="21.159" r="8.759"/>
	</g>
	<g>
		<circle fill="#DCE2E8" cx="221.853" cy="21.159" r="8.759"/>
	</g>
	<g>
		<circle fill="#DCE2E8" cx="221.787" cy="21.246" r="8.595"/>
	</g>
	<g>
		<circle fill="#DDE3E9" cx="221.787" cy="21.246" r="8.595"/>
	</g>
	<g>
		<circle fill="#DDE3E9" cx="221.721" cy="21.331" r="8.429"/>
	</g>
	<g>
		<path fill="#DFE5EB" d="M220.057,13.068c-4.563,0.919-7.52,5.364-6.601,9.927c0.922,4.565,5.365,7.519,9.929,6.599
			c4.563-0.918,7.519-5.364,6.601-9.927C229.064,15.102,224.62,12.148,220.057,13.068z"/>
	</g>
	<g>
		<circle fill="#DFE5EB" cx="221.655" cy="21.417" r="8.265"/>
	</g>
	<g>
		<path fill="#E1E6EC" d="M220.024,13.315c-4.477,0.901-7.373,5.26-6.472,9.735c0.903,4.474,5.261,7.371,9.734,6.469
			c4.477-0.901,7.373-5.26,6.473-9.735C228.855,15.311,224.498,12.414,220.024,13.315z"/>
	</g>
	<g>
		<path fill="#E1E6EC" d="M223.188,29.445c-4.384,0.883-8.654-1.957-9.537-6.341c-0.887-4.386,1.953-8.657,6.34-9.541
			c4.385-0.883,8.655,1.957,9.538,6.341C230.415,24.29,227.576,28.561,223.188,29.445z"/>
	</g>
	<g>
		<path fill="#E2E7ED" d="M219.991,13.563c-4.387,0.884-7.227,5.155-6.34,9.541c0.883,4.384,5.153,7.224,9.537,6.341
			c4.388-0.884,7.227-5.155,6.341-9.541C228.646,15.52,224.375,12.68,219.991,13.563z"/>
	</g>
	<g>
		<circle fill="#E2E7ED" cx="221.524" cy="21.589" r="7.934"/>
	</g>
	<g>
		<circle fill="#E4E9EE" cx="221.524" cy="21.589" r="7.934"/>
	</g>
	<g>
		<circle fill="#E4E9EE" cx="221.458" cy="21.676" r="7.771"/>
	</g>
	<g>
		<circle fill="#E6EAEF" cx="221.458" cy="21.676" r="7.771"/>
	</g>
	<g>
		<circle fill="#E6EAEF" cx="221.393" cy="21.762" r="7.606"/>
	</g>
	<g>
		<circle fill="#E7ECF0" cx="221.393" cy="21.762" r="7.606"/>
	</g>
	<g>
		<circle fill="#E7ECF0" cx="221.327" cy="21.848" r="7.44"/>
	</g>
	<g>
		<path fill="#E9EDF1" d="M219.857,14.555c-4.026,0.812-6.636,4.735-5.825,8.763c0.812,4.029,4.736,6.638,8.766,5.825
			c4.026-0.811,6.637-4.735,5.825-8.763C227.811,16.35,223.886,13.742,219.857,14.555z"/>
	</g>
	<g>
		<circle fill="#E9EDF1" cx="221.262" cy="21.933" r="7.276"/>
	</g>
	<g>
		<circle fill="#EBEEF2" cx="221.262" cy="21.933" r="7.276"/>
	</g>
	<g>
		<circle fill="#EBEEF2" cx="221.196" cy="22.02" r="7.112"/>
	</g>
	<g>
		<circle fill="#ECF0F3" cx="221.196" cy="22.02" r="7.112"/>
	</g>
	<g>
		<circle fill="#ECF0F3" cx="221.13" cy="22.106" r="6.946"/>
	</g>
	<g>
		<circle fill="#EEF1F4" cx="221.13" cy="22.106" r="6.946"/>
	</g>
	<g>
		<circle fill="#EEF1F4" cx="221.13" cy="22.106" r="6.781"/>
	</g>
	<g>
		<circle fill="#EEF1F4" cx="221.13" cy="22.106" r="6.781"/>
	</g>
	<g>
		<circle fill="#EEF1F4" cx="220.922" cy="22.378" r="6.296"/>
	</g>
	<g>
		<circle fill="#F0F3F5" cx="220.922" cy="22.378" r="6.296"/>
	</g>
	<g>
		<circle fill="#F0F3F5" cx="220.716" cy="22.651" r="5.812"/>
	</g>
	<g>
		<circle fill="#F2F4F7" cx="220.716" cy="22.651" r="5.812"/>
	</g>
	<g>
		<circle fill="#F2F4F7" cx="220.507" cy="22.922" r="5.329"/>
	</g>
	<g>
		<circle fill="#F4F6F8" cx="220.507" cy="22.922" r="5.329"/>
	</g>
	<g>
		<circle fill="#F4F6F8" cx="220.298" cy="23.195" r="4.844"/>
	</g>
	<g>
		<circle fill="#F5F7F9" cx="220.298" cy="23.195" r="4.844"/>
	</g>
	<g>
		<circle fill="#F5F7F9" cx="220.093" cy="23.466" r="4.36"/>
	</g>
	<g>
		<circle fill="#F7F9FA" cx="220.093" cy="23.466" r="4.36"/>
	</g>
	<g>
		<circle fill="#F7F9FA" cx="219.884" cy="23.74" r="3.875"/>
	</g>
	<g>
		<circle fill="#F9FAFC" cx="219.884" cy="23.74" r="3.875"/>
	</g>
	<g>
		<circle fill="#F9FAFC" cx="219.678" cy="24.011" r="3.391"/>
	</g>
	<g>
		<circle fill="#FBFCFD" cx="219.678" cy="24.011" r="3.391"/>
	</g>
	<g>
		<circle fill="#FBFCFD" cx="219.469" cy="24.284" r="2.907"/>
	</g>
	<g>
		<circle fill="#FDFDFE" cx="219.469" cy="24.284" r="2.907"/>
	</g>
	<g>
		<path fill="#FDFDFE" d="M219.741,26.929c-1.31,0.264-2.586-0.584-2.852-1.896c-0.266-1.312,0.585-2.589,1.897-2.853
			c1.309-0.264,2.585,0.584,2.851,1.895C221.903,25.389,221.053,26.665,219.741,26.929z"/>
	</g>
	<g>
		<circle fill="#FFFFFF" cx="219.264" cy="24.555" r="2.421"/>
	</g>
	<g id="head-2-highlight">
		<path fill="#FFFFFF" d="M232.822,5.885c-4.003-2.616-8.44-2.195-10.45-1.39c2.242,0.039,6.102,0.244,9.669,2.568
			c3.525,2.386,5.213,5.866,6.12,7.918C238.125,12.813,236.789,8.56,232.822,5.885z"/>
	</g>
</g>
<g id="figure-1">
	<g id="arm-1-base_1_">
		<path fill="#A4AA9A" d="M246.714,60.905c-11.488,22.861-35.671,54.991-81.744,58.814c0,0-48.735,4.402-42.369-29.464
			c0,0,5.219-24.987,37.729-9.582c0,0,46.438,23.325,82.472-22.288c0,0,1.509-2.142,3.34-0.871
			C246.141,57.515,247.806,58.704,246.714,60.905z"/>
		<path fill="#A8AE9E" d="M245.667,58.362c0,0,1.574,1.151,0.482,3.353c-11.501,22.291-35.206,54.135-81.279,57.958
			c0,0-48.424,4.396-42.017-29.184c0,0,5.2-24.432,37.709-9.026c0,0,45.92,22.91,81.611-22.102
			C242.174,59.361,243.836,57.092,245.667,58.362z"/>
		<path fill="#ACB1A2" d="M245.194,59.211c0,0,1.483,1.111,0.393,3.313c-11.515,21.721-34.743,53.279-80.815,57.103
			c0,0-48.113,4.388-41.665-28.904c0,0,5.181-23.874,37.69-8.47c0,0,45.403,22.495,80.751-21.914
			C241.547,60.338,243.364,57.94,245.194,59.211z"/>
		<path fill="#AFB5A6" d="M244.719,60.059c0,0,1.393,1.073,0.303,3.274c-11.528,21.15-34.278,52.422-80.35,56.246
			c0,0-47.803,4.381-41.313-28.624c0,0,5.162-23.318,37.67-7.913c0,0,44.886,22.078,79.891-21.729
			C240.92,61.313,242.89,58.788,244.719,60.059z"/>
		<path fill="#B3B8AA" d="M244.246,60.906c0,0,1.302,1.035,0.213,3.236c-11.542,20.58-33.815,51.565-79.886,55.39
			c0,0-47.492,4.374-40.961-28.345c0,0,5.143-22.762,37.651-7.356c0,0,44.37,21.663,79.031-21.542
			C240.293,62.289,242.417,59.636,244.246,60.906z"/>
		<path fill="#B7BCAF" d="M243.772,61.755c0,0,1.211,0.995,0.122,3.196c-11.555,20.01-33.351,50.71-79.421,54.533
			c0,0-47.181,4.367-40.609-28.063c0,0,5.123-22.205,37.632-6.801c0,0,43.852,21.248,78.17-21.354
			C239.667,63.266,241.944,60.484,243.772,61.755z"/>
		<path fill="#BBBFB3" d="M243.298,62.603c0,0,1.12,0.957,0.032,3.158c-11.568,19.439-32.888,49.854-78.957,53.677
			c0,0-46.87,4.36-40.257-27.784c0,0,5.104-21.648,37.613-6.244c0,0,43.335,20.833,77.31-21.168
			C239.04,64.241,241.471,61.332,243.298,62.603z"/>
		<path fill="#BEC3B7" d="M242.824,63.45c0,0,1.029,0.919-0.058,3.12c-11.582,18.869-32.423,48.996-78.491,52.82
			c0,0-46.56,4.354-39.906-27.504c0,0,5.084-21.093,37.593-5.688c0,0,42.818,20.416,76.45-20.982
			C238.413,65.217,240.998,62.18,242.824,63.45z"/>
		<path fill="#C2C6BB" d="M242.35,64.299c0,0,0.938,0.879-0.147,3.08c-11.596,18.299-31.96,48.141-78.027,51.965
			c0,0-46.249,4.346-39.554-27.225c0,0,5.065-20.535,37.574-5.131c0,0,42.302,20.001,75.59-20.795
			C237.786,66.193,240.525,63.028,242.35,64.299z"/>
		<path fill="#C6CABF" d="M241.638,68.188c-11.608,17.729-31.495,47.284-77.563,51.108c0,0-45.938,4.339-39.202-26.944
			c0,0,5.046-19.979,37.555-4.575c0,0,41.784,19.586,74.729-20.608c0,0,2.893-3.293,4.718-2.022
			C241.876,65.146,242.724,65.987,241.638,68.188z"/>
	</g>
	<g id="arm-1-blend">
		<path fill="#C6CABF" d="M241.638,68.188c-11.608,17.729-31.495,47.284-77.563,51.108c0,0-45.938,4.339-39.202-26.944
			c0,0,5.046-19.979,37.555-4.575c0,0,41.784,19.586,74.729-20.608c0,0,2.893-3.293,4.718-2.022
			C241.876,65.146,242.724,65.987,241.638,68.188z"/>
		<path fill="#CBCFC5" d="M240.711,66.785c0,0,0.739,0.987-0.451,3.208c-12.087,17.695-31.579,45.243-75.771,49.058
			c0,0-45.948,4.241-39.073-26.209c0,0,4.958-19.221,37.022-4.184c0,0,41.059,18.816,73.57-19.784
			C236.008,68.874,238.892,65.528,240.711,66.785z"/>
		<path fill="#D0D4CB" d="M239.546,68.425c0,0,0.631,1.133-0.664,3.373c-12.565,17.662-31.663,43.203-73.979,47.006
			c0,0-45.959,4.145-38.945-25.473c0,0,4.869-18.463,36.489-3.793c0,0,40.334,18.049,72.411-18.96
			C234.858,70.578,237.733,67.181,239.546,68.425z"/>
		<path fill="#D6D9D1" d="M238.381,70.063c0,0,0.523,1.278-0.877,3.539c-13.044,17.629-31.748,41.162-72.188,44.955
			c0,0-45.969,4.047-38.815-24.736c0,0,4.78-17.705,35.954-3.402c0,0,39.609,17.279,71.252-18.136
			C233.707,72.283,236.574,68.833,238.381,70.063z"/>
		<path fill="#DBDED7" d="M237.216,71.703c0,0,0.415,1.424-1.09,3.704c-13.522,17.596-31.832,39.122-70.396,42.903
			c0,0-45.979,3.95-38.688-24c0,0,4.691-16.946,35.421-3.011c0,0,38.885,16.511,70.093-17.313
			C232.556,73.987,235.415,70.485,237.216,71.703z"/>
		<path fill="#E0E2DC" d="M236.05,73.342c0,0,0.308,1.57-1.302,3.871c-14,17.563-31.916,37.08-68.605,40.852
			c0,0-45.99,3.854-38.559-23.265c0,0,4.603-16.188,34.888-2.62c0,0,38.159,15.742,68.934-16.487
			C231.406,75.692,234.255,72.138,236.05,73.342z"/>
		<path fill="#E5E7E2" d="M234.885,74.981c0,0,0.199,1.716-1.515,4.036c-14.479,17.529-32,35.04-66.813,38.8
			c0,0-46,3.757-38.431-22.528c0,0,4.514-15.43,34.354-2.229c0,0,37.435,14.974,67.774-15.664
			C230.255,77.396,233.096,73.79,234.885,74.981z"/>
		<path fill="#EBECE8" d="M233.72,76.62c0,0,0.092,1.861-1.728,4.202c-14.957,17.496-32.085,32.999-65.022,36.749
			c0,0-46.01,3.659-38.301-21.792c0,0,4.424-14.672,33.82-1.838c0,0,36.71,14.204,66.615-14.84
			C229.104,79.102,231.937,75.442,233.72,76.62z"/>
		<path fill="#F0F1EE" d="M232.555,78.26c0,0-0.017,2.007-1.94,4.367c-15.436,17.463-32.169,30.959-63.23,34.697
			c0,0-46.021,3.563-38.173-21.056c0,0,4.336-13.914,33.287-1.447c0,0,35.985,13.437,65.456-14.016
			C227.954,80.806,230.778,77.095,232.555,78.26z"/>
		<path fill="#F5F6F4" d="M229.237,84.432c-15.914,17.43-32.253,28.918-61.439,32.646c0,0-46.031,3.465-38.044-20.32
			c0,0,4.247-13.155,32.753-1.056c0,0,35.26,12.667,64.297-13.191c0,0,2.815-3.764,4.587-2.612
			C231.39,79.898,231.265,82.052,229.237,84.432z"/>
	</g>
	<g id="arm-1-highlight">
		<path fill="#FFFFFF" d="M149.527,81.21c-6.323-1.992-12.634-0.948-15.258,1.047c3.125-1.014,8.715-1.262,14.805,0.618
			c6.061,1.661,11.214,4.327,14.524,4.718C160.664,86.245,155.951,82.997,149.527,81.21z"/>
	</g>
	<g id="head-1-base">
		<g>
			<path fill="#A4AA9A" d="M176.792,64.3c17.573-3.54,28.96-20.663,25.417-38.25c-3.543-17.567-20.669-28.942-38.235-25.405
				c-16.63,3.351-27.701,18.875-25.83,35.421c-1.311-15.501,9.169-29.86,24.786-33.005c16.807-3.387,33.174,7.492,36.563,24.298
				c3.385,16.807-7.495,33.175-24.299,36.56c-6.063,1.222-12.061,0.563-17.422-1.537C163.578,64.837,170.151,65.639,176.792,64.3z"
				/>
		</g>
		<g>
			<path fill="#A4AA9A" d="M175.194,63.918c16.804-3.385,27.684-19.753,24.299-36.56c-3.389-16.806-19.756-27.685-36.563-24.298
				c-15.616,3.145-26.097,17.504-24.786,33.005c0.105,0.932,0.229,1.866,0.419,2.802c0.018,0.085,0.046,0.166,0.064,0.25
				c-3.035-16.545,7.723-32.533,24.279-35.868c16.737-3.373,33.037,7.462,36.41,24.199c3.37,16.736-7.463,33.037-24.2,36.409
				c-6.206,1.251-12.351,0.54-17.802-1.694c0.155,0.067,0.303,0.15,0.458,0.217C163.133,64.481,169.131,65.14,175.194,63.918z"/>
		</g>
		<g>
			<path fill="#A5AB9B" d="M175.117,63.858c16.737-3.372,27.57-19.673,24.2-36.409c-3.373-16.736-19.673-27.572-36.41-24.199
				c-16.556,3.334-27.314,19.322-24.279,35.868c0.216,1.03,0.47,2.043,0.777,3.029c-0.231-0.804-0.455-1.612-0.623-2.447
				c-3.357-16.667,7.432-32.901,24.098-36.26c16.669-3.356,32.903,7.433,36.261,24.1c3.358,16.667-7.432,32.901-24.098,36.259
				c-7.141,1.438-14.189,0.266-20.192-2.838c0.802,0.438,1.627,0.831,2.464,1.202C162.766,64.398,168.911,65.109,175.117,63.858z"/>
		</g>
		<g>
			<path fill="#A6AC9C" d="M175.042,63.8c16.666-3.358,27.456-19.592,24.098-36.259c-3.357-16.667-19.592-27.457-36.261-24.1
				c-16.666,3.358-27.455,19.592-24.098,36.26c0.168,0.835,0.392,1.643,0.623,2.447c0.062,0.198,0.146,0.383,0.21,0.579
				c-0.298-0.973-0.553-1.967-0.759-2.984c-3.343-16.597,7.401-32.764,24-36.109c16.598-3.343,32.766,7.401,36.108,24
				c3.344,16.598-7.402,32.765-24,36.109c-8.106,1.633-16.098-0.112-22.555-4.241c0.789,0.526,1.609,1.007,2.441,1.461
				C160.853,64.065,167.902,65.237,175.042,63.8z"/>
		</g>
		<g>
			<path fill="#A7AD9D" d="M174.964,63.742c16.598-3.345,27.344-19.512,24-36.109c-3.343-16.599-19.511-27.343-36.108-24
				c-16.599,3.345-27.344,19.512-24,36.109c0.206,1.017,0.461,2.012,0.759,2.984c0.333,0.999,0.706,1.976,1.126,2.922
				c-0.783-1.855-1.395-3.816-1.808-5.866c-3.33-16.529,7.37-32.628,23.898-35.958c16.529-3.33,32.629,7.37,35.96,23.9
				c3.328,16.529-7.369,32.628-23.898,35.958c-8.24,1.659-16.375-0.17-22.873-4.468c0.133,0.091,0.255,0.196,0.389,0.286
				C158.867,63.63,166.858,65.375,174.964,63.742z"/>
		</g>
		<g>
			<path fill="#A8AE9E" d="M174.893,63.683c16.529-3.33,27.227-19.43,23.898-35.958c-3.331-16.531-19.431-27.23-35.96-23.9
				c-16.529,3.33-27.228,19.43-23.898,35.958c0.413,2.05,1.024,4.011,1.808,5.866c0.81,1.826,1.763,3.563,2.869,5.175
				c-2.185-3.233-3.783-6.937-4.602-11.001c-3.315-16.458,7.34-32.491,23.8-35.808c16.46-3.315,32.491,7.34,35.808,23.8
				c3.316,16.459-7.34,32.491-23.8,35.808c-10.23,2.061-20.293-1.283-27.242-8.058c1.369,1.353,2.866,2.562,4.447,3.649
				C158.518,63.513,166.653,65.342,174.893,63.683z"/>
		</g>
		<g>
			<path fill="#A9AF9F" d="M174.816,63.623c16.46-3.317,27.116-19.349,23.8-35.808c-3.316-16.46-19.348-27.115-35.808-23.8
				c-16.46,3.316-27.115,19.349-23.8,35.808c0.819,4.064,2.417,7.768,4.602,11.001c1.173,1.714,2.502,3.3,3.964,4.742
				C154.522,62.34,164.585,65.684,174.816,63.623z"/>
		</g>
		<g>
			<circle fill="#A9AF9F" cx="168.761" cy="33.884" r="30.275"/>
		</g>
		<g>
			<circle fill="#AAB0A0" cx="168.761" cy="33.884" r="30.275"/>
		</g>
		<g>
			<path fill="#AAB0A0" d="M139.157,39.904c-3.288-16.321,7.277-32.22,23.599-35.508c16.322-3.288,32.219,7.277,35.509,23.599
				c3.286,16.322-7.277,32.22-23.601,35.508C158.343,66.792,142.445,56.226,139.157,39.904z"/>
		</g>
		<g>
			<circle fill="#ABB1A1" cx="168.71" cy="33.95" r="30.148"/>
		</g>
		<g>
			<circle fill="#ABB1A1" cx="168.659" cy="34.017" r="30.02"/>
		</g>
		<g>
			<circle fill="#ACB2A3" cx="168.659" cy="34.017" r="30.019"/>
		</g>
		<g>
			<circle fill="#ACB2A3" cx="168.608" cy="34.083" r="29.892"/>
		</g>
		<g>
			<circle fill="#ADB3A4" cx="168.609" cy="34.083" r="29.892"/>
		</g>
		<g>
			<circle fill="#ADB3A4" cx="168.562" cy="34.148" r="29.764"/>
		</g>
		<g>
			<circle fill="#AEB4A5" cx="168.561" cy="34.148" r="29.764"/>
		</g>
		<g>
			<circle fill="#AEB4A5" cx="168.511" cy="34.214" r="29.636"/>
		</g>
		<g>
			<circle fill="#AFB5A6" cx="168.51" cy="34.214" r="29.636"/>
		</g>
		<g>
			<circle fill="#AFB5A6" cx="168.46" cy="34.28" r="29.508"/>
		</g>
		<g>
			<circle fill="#B0B6A7" cx="168.46" cy="34.28" r="29.508"/>
		</g>
		<g>
			<circle fill="#B0B6A7" cx="168.41" cy="34.345" r="29.38"/>
		</g>
		<g>
			<circle fill="#B1B7A8" cx="168.409" cy="34.345" r="29.381"/>
		</g>
		<g>
			<circle fill="#B1B7A8" cx="168.358" cy="34.412" r="29.253"/>
		</g>
		<g>
			<circle fill="#B2B8A9" cx="168.358" cy="34.412" r="29.253"/>
		</g>
		<g>
			<circle fill="#B2B8A9" cx="168.309" cy="34.478" r="29.125"/>
		</g>
		<g>
			<circle fill="#B4B9AA" cx="168.308" cy="34.478" r="29.125"/>
		</g>
		<g>
			<circle fill="#B4B9AA" cx="168.26" cy="34.543" r="28.997"/>
		</g>
		<g>
			<circle fill="#B5B9AB" cx="168.26" cy="34.543" r="28.997"/>
		</g>
		<g>
			<circle fill="#B5B9AB" cx="168.209" cy="34.609" r="28.87"/>
		</g>
		<g>
			<circle fill="#B6BAAC" cx="168.209" cy="34.609" r="28.87"/>
		</g>
		<g>
			<circle fill="#B6BAAC" cx="168.158" cy="34.675" r="28.743"/>
		</g>
		<g>
			<circle fill="#B7BBAD" cx="168.158" cy="34.675" r="28.743"/>
		</g>
		<g>
			<circle fill="#B7BBAD" cx="168.108" cy="34.742" r="28.616"/>
		</g>
		<g>
			<circle fill="#B8BCAF" cx="168.107" cy="34.742" r="28.615"/>
		</g>
		<g>
			<circle fill="#B8BCAF" cx="168.057" cy="34.807" r="28.487"/>
		</g>
		<g>
			<path fill="#B9BDB0" d="M195.982,29.181c-3.107-15.422-18.127-25.406-33.551-22.3c-15.423,3.108-25.407,18.129-22.3,33.553
				c3.107,15.423,18.129,25.406,33.551,22.3C189.108,59.626,199.09,44.605,195.982,29.181z"/>
		</g>
		<g>
			<circle fill="#B9BDB0" cx="168.007" cy="34.873" r="28.36"/>
		</g>
		<g>
			<circle fill="#BABEB1" cx="168.006" cy="34.873" r="28.359"/>
		</g>
		<g>
			<circle fill="#BABEB1" cx="167.957" cy="34.938" r="28.232"/>
		</g>
		<g>
			<circle fill="#BBBFB2" cx="167.955" cy="34.938" r="28.231"/>
		</g>
		<g>
			<circle fill="#BBBFB2" cx="167.908" cy="35.004" r="28.104"/>
		</g>
		<g>
			<circle fill="#BCC0B3" cx="167.907" cy="35.004" r="28.104"/>
		</g>
		<g>
			<circle fill="#BCC0B3" cx="167.858" cy="35.07" r="27.976"/>
		</g>
		<g>
			<circle fill="#BDC1B4" cx="167.857" cy="35.07" r="27.976"/>
		</g>
		<g>
			<circle fill="#BDC1B4" cx="167.807" cy="35.137" r="27.849"/>
		</g>
		<g>
			<circle fill="#BEC2B5" cx="167.806" cy="35.137" r="27.848"/>
		</g>
		<g>
			<path fill="#BEC2B5" d="M173.232,62.377c-15.009,3.024-29.626-6.69-32.651-21.7c-3.024-15.008,6.691-29.625,21.701-32.649
				c15.006-3.024,29.626,6.691,32.65,21.7C197.954,44.736,188.24,59.354,173.232,62.377z"/>
		</g>
		<g>
			<circle fill="#BFC4B7" cx="167.757" cy="35.202" r="27.721"/>
		</g>
		<g>
			<circle fill="#BFC4B7" cx="167.705" cy="35.268" r="27.593"/>
		</g>
		<g>
			<path fill="#C0C5B8" d="M194.756,29.819c-3.013-14.939-17.561-24.61-32.5-21.601c-14.939,3.009-24.61,17.561-21.601,32.499
				c3.009,14.939,17.561,24.61,32.498,21.6C188.093,59.309,197.766,44.757,194.756,29.819z"/>
		</g>
		<g>
			<circle fill="#C0C5B8" cx="167.654" cy="35.333" r="27.465"/>
		</g>
		<g>
			<circle fill="#C1C6B9" cx="167.655" cy="35.334" r="27.466"/>
		</g>
		<g>
			<circle fill="#C1C6B9" cx="167.606" cy="35.399" r="27.337"/>
		</g>
		<g>
			<circle fill="#C2C7BA" cx="167.608" cy="35.399" r="27.339"/>
		</g>
		<g>
			<circle fill="#C2C7BA" cx="167.556" cy="35.467" r="27.21"/>
		</g>
		<g>
			<circle fill="#C3C8BB" cx="167.557" cy="35.467" r="27.211"/>
		</g>
		<g>
			<circle fill="#C3C8BB" cx="167.505" cy="35.532" r="27.082"/>
		</g>
		<g>
			<circle fill="#C4C9BD" cx="167.506" cy="35.532" r="27.083"/>
		</g>
		<g>
			<circle fill="#C4C9BD" cx="167.455" cy="35.598" r="26.955"/>
		</g>
		<g>
			<circle fill="#C5CABE" cx="167.455" cy="35.598" r="26.955"/>
		</g>
		<g>
			<circle fill="#C5CABE" cx="167.403" cy="35.663" r="26.826"/>
		</g>
		<g>
			<circle fill="#C7CBBF" cx="167.405" cy="35.663" r="26.827"/>
		</g>
		<g>
			<circle fill="#C7CBBF" cx="167.354" cy="35.729" r="26.7"/>
		</g>
		<g>
			<circle fill="#C8CCC0" cx="167.354" cy="35.729" r="26.7"/>
		</g>
		<g>
			<circle fill="#C8CCC0" cx="167.304" cy="35.795" r="26.573"/>
		</g>
		<g>
			<path fill="#C9CDC1" d="M193.352,30.547c-2.899-14.386-16.911-23.699-31.297-20.801c-14.386,2.899-23.699,16.911-20.802,31.296
				c2.899,14.387,16.911,23.699,31.299,20.802C186.936,58.944,196.25,44.933,193.352,30.547z"/>
		</g>
		<g>
			<circle fill="#C9CDC1" cx="167.255" cy="35.862" r="26.444"/>
		</g>
		<g>
			<circle fill="#CACEC3" cx="167.255" cy="35.862" r="26.444"/>
		</g>
		<g>
			<circle fill="#CACEC3" cx="167.205" cy="35.927" r="26.317"/>
		</g>
		<g>
			<circle fill="#CBCFC4" cx="167.204" cy="35.927" r="26.317"/>
		</g>
		<g>
			<circle fill="#CBCFC4" cx="167.153" cy="35.993" r="26.189"/>
		</g>
		<g>
			<circle fill="#CCD0C5" cx="167.154" cy="35.993" r="26.189"/>
		</g>
		<g>
			<circle fill="#CCD0C5" cx="167.103" cy="36.059" r="26.061"/>
		</g>
		<g>
			<circle fill="#CDD1C6" cx="167.103" cy="36.058" r="26.062"/>
		</g>
		<g>
			<circle fill="#CDD1C6" cx="167.052" cy="36.124" r="25.933"/>
		</g>
		<g>
			<circle fill="#CED2C8" cx="167.052" cy="36.124" r="25.934"/>
		</g>
		<g>
			<circle fill="#CED2C8" cx="167.001" cy="36.191" r="25.805"/>
		</g>
		<g>
			<circle fill="#CFD3C9" cx="167.001" cy="36.191" r="25.805"/>
		</g>
		<g>
			<circle fill="#CFD3C9" cx="166.953" cy="36.257" r="25.678"/>
		</g>
		<g>
			<circle fill="#D1D4CA" cx="166.954" cy="36.257" r="25.678"/>
		</g>
		<g>
			<circle fill="#D1D4CA" cx="166.903" cy="36.322" r="25.55"/>
		</g>
		<g>
			<circle fill="#D2D5CB" cx="166.903" cy="36.322" r="25.55"/>
		</g>
		<g>
			<circle fill="#D2D5CB" cx="166.851" cy="36.388" r="25.422"/>
		</g>
		<g>
			<circle fill="#D3D6CD" cx="166.852" cy="36.388" r="25.422"/>
		</g>
		<g>
			<circle fill="#D3D6CD" cx="166.802" cy="36.454" r="25.295"/>
		</g>
		<g>
			<circle fill="#D4D7CE" cx="166.802" cy="36.454" r="25.295"/>
		</g>
		<g>
			<circle fill="#D4D7CE" cx="166.751" cy="36.519" r="25.167"/>
		</g>
		<g>
			<circle fill="#D5D8CF" cx="166.751" cy="36.519" r="25.167"/>
		</g>
		<g>
			<circle fill="#D5D8CF" cx="166.7" cy="36.586" r="25.039"/>
		</g>
		<g>
			<circle fill="#D6D9D0" cx="166.7" cy="36.586" r="25.039"/>
		</g>
		<g>
			<circle fill="#D6D9D0" cx="166.653" cy="36.652" r="24.911"/>
		</g>
		<g>
			<circle fill="#D7DAD2" cx="166.652" cy="36.652" r="24.911"/>
		</g>
		<g>
			<circle fill="#D7DAD2" cx="166.602" cy="36.718" r="24.783"/>
		</g>
		<g>
			<circle fill="#D8DCD3" cx="166.602" cy="36.718" r="24.783"/>
		</g>
		<g>
			<circle fill="#D8DCD3" cx="166.602" cy="36.718" r="24.658"/>
		</g>
		<g>
			<circle fill="#D8DCD3" cx="166.601" cy="36.718" r="24.657"/>
		</g>
		<g>
			<circle fill="#D8DCD3" cx="166.429" cy="36.944" r="24.225"/>
		</g>
		<g>
			<circle fill="#DADDD4" cx="166.429" cy="36.944" r="24.225"/>
		</g>
		<g>
			<circle fill="#DADDD4" cx="166.254" cy="37.173" r="23.793"/>
		</g>
		<g>
			<circle fill="#DBDED6" cx="166.254" cy="37.173" r="23.793"/>
		</g>
		<g>
			<circle fill="#DBDED6" cx="166.08" cy="37.399" r="23.363"/>
		</g>
		<g>
			<circle fill="#DCDFD7" cx="166.08" cy="37.399" r="23.363"/>
		</g>
		<g>
			<circle fill="#DCDFD7" cx="165.906" cy="37.627" r="22.931"/>
		</g>
		<g>
			<circle fill="#DDE0D8" cx="165.906" cy="37.627" r="22.931"/>
		</g>
		<g>
			<circle fill="#DDE0D8" cx="165.734" cy="37.854" r="22.499"/>
		</g>
		<g>
			<circle fill="#DEE1DA" cx="165.734" cy="37.854" r="22.499"/>
		</g>
		<g>
			<circle fill="#DEE1DA" cx="165.56" cy="38.082" r="22.068"/>
		</g>
		<g>
			<circle fill="#E0E2DB" cx="165.56" cy="38.082" r="22.068"/>
		</g>
		<g>
			<circle fill="#E0E2DB" cx="165.388" cy="38.309" r="21.636"/>
		</g>
		<g>
			<circle fill="#E1E3DC" cx="165.388" cy="38.309" r="21.636"/>
		</g>
		<g>
			<circle fill="#E1E3DC" cx="165.215" cy="38.536" r="21.204"/>
		</g>
		<g>
			<circle fill="#E2E4DE" cx="165.215" cy="38.536" r="21.204"/>
		</g>
		<g>
			<circle fill="#E2E4DE" cx="165.043" cy="38.764" r="20.774"/>
		</g>
		<g>
			<circle fill="#E3E6DF" cx="165.043" cy="38.764" r="20.774"/>
		</g>
		<g>
			<circle fill="#E3E6DF" cx="164.869" cy="38.99" r="20.342"/>
		</g>
		<g>
			<circle fill="#E4E7E0" cx="164.869" cy="38.99" r="20.342"/>
		</g>
		<g>
			<circle fill="#E4E7E0" cx="164.695" cy="39.218" r="19.909"/>
		</g>
		<g>
			<path fill="#E6E8E2" d="M160.764,19.701c-10.779,2.171-17.758,12.669-15.585,23.45c2.171,10.779,12.669,17.757,23.448,15.584
				c10.782-2.171,17.758-12.669,15.587-23.449C182.042,24.507,171.543,17.528,160.764,19.701z"/>
		</g>
		<g>
			<circle fill="#E6E8E2" cx="164.52" cy="39.445" r="19.479"/>
		</g>
		<g>
			<circle fill="#E7E9E3" cx="164.52" cy="39.445" r="19.479"/>
		</g>
		<g>
			<circle fill="#E7E9E3" cx="164.346" cy="39.672" r="19.047"/>
		</g>
		<g>
			<circle fill="#E8EAE4" cx="164.346" cy="39.672" r="19.047"/>
		</g>
		<g>
			<circle fill="#E8EAE4" cx="164.175" cy="39.9" r="18.615"/>
		</g>
		<g>
			<circle fill="#E9EBE6" cx="164.175" cy="39.9" r="18.615"/>
		</g>
		<g>
			<circle fill="#E9EBE6" cx="164.001" cy="40.127" r="18.185"/>
		</g>
		<g>
			<circle fill="#EBECE7" cx="164.001" cy="40.127" r="18.185"/>
		</g>
		<g>
			<circle fill="#EBECE7" cx="163.829" cy="40.355" r="17.753"/>
		</g>
		<g>
			<circle fill="#ECEDE9" cx="163.829" cy="40.355" r="17.753"/>
		</g>
		<g>
			<circle fill="#ECEDE9" cx="163.655" cy="40.581" r="17.32"/>
		</g>
		<g>
			<circle fill="#EDEEEA" cx="163.655" cy="40.581" r="17.32"/>
		</g>
		<g>
			<circle fill="#EDEEEA" cx="163.481" cy="40.808" r="16.89"/>
		</g>
		<g>
			<circle fill="#EEF0EB" cx="163.481" cy="40.808" r="16.89"/>
		</g>
		<g>
			<circle fill="#EEF0EB" cx="163.309" cy="41.036" r="16.458"/>
		</g>
		<g>
			<circle fill="#EFF1ED" cx="163.309" cy="41.036" r="16.458"/>
		</g>
		<g>
			<circle fill="#EFF1ED" cx="163.135" cy="41.263" r="16.027"/>
		</g>
		<g>
			<path fill="#F1F2EE" d="M159.97,25.551c-8.676,1.749-14.293,10.2-12.546,18.877c1.75,8.676,10.2,14.294,18.876,12.546
				c8.68-1.749,14.295-10.2,12.548-18.877C177.1,29.421,168.648,23.804,159.97,25.551z"/>
		</g>
		<g>
			<circle fill="#F1F2EE" cx="162.961" cy="41.491" r="15.595"/>
		</g>
		<g>
			<circle fill="#F2F3F0" cx="162.961" cy="41.491" r="15.595"/>
		</g>
		<g>
			<circle fill="#F2F3F0" cx="162.787" cy="41.718" r="15.163"/>
		</g>
		<g>
			<circle fill="#F3F4F1" cx="162.787" cy="41.718" r="15.163"/>
		</g>
		<g>
			<circle fill="#F3F4F1" cx="162.615" cy="41.946" r="14.733"/>
		</g>
		<g>
			<circle fill="#F4F5F3" cx="162.615" cy="41.946" r="14.733"/>
		</g>
		<g>
			<circle fill="#F4F5F3" cx="162.441" cy="42.172" r="14.301"/>
		</g>
		<g>
			<circle fill="#F5F6F4" cx="162.441" cy="42.172" r="14.301"/>
		</g>
		<g>
			<circle fill="#F5F6F4" cx="162.44" cy="42.173" r="13.869"/>
		</g>
		<g>
			<path fill="#F5F6F4" d="M159.702,28.577c-7.508,1.512-12.37,8.827-10.856,16.335c1.512,7.508,8.827,12.37,16.333,10.856
				c7.51-1.513,12.371-8.827,10.859-16.335C174.523,31.925,167.21,27.063,159.702,28.577z"/>
		</g>
		<g>
			<circle fill="#F5F6F4" cx="161.895" cy="42.889" r="12.631"/>
		</g>
		<g>
			<circle fill="#F7F8F6" cx="161.895" cy="42.889" r="12.631"/>
		</g>
		<g>
			<circle fill="#F7F8F6" cx="161.351" cy="43.604" r="11.392"/>
		</g>
		<g>
			<circle fill="#F8F9F7" cx="161.351" cy="43.604" r="11.392"/>
		</g>
		<g>
			<circle fill="#F8F9F7" cx="160.805" cy="44.32" r="10.154"/>
		</g>
		<g>
			<circle fill="#FAFAF9" cx="160.805" cy="44.32" r="10.154"/>
		</g>
		<g>
			<circle fill="#FAFAF9" cx="160.26" cy="45.036" r="8.916"/>
		</g>
		<g>
			<circle fill="#FBFBFA" cx="160.26" cy="45.036" r="8.916"/>
		</g>
		<g>
			<circle fill="#FBFBFA" cx="159.714" cy="45.752" r="7.678"/>
		</g>
		<g>
			<circle fill="#FCFDFC" cx="159.714" cy="45.752" r="7.678"/>
		</g>
		<g>
			<circle fill="#FCFDFC" cx="159.168" cy="46.466" r="6.439"/>
		</g>
		<g>
			<circle fill="#FEFEFD" cx="159.168" cy="46.466" r="6.439"/>
		</g>
		<g>
			<circle fill="#FEFEFD" cx="158.622" cy="47.182" r="5.201"/>
		</g>
		<g>
			<circle fill="#FFFFFF" cx="158.622" cy="47.182" r="5.201"/>
		</g>
	</g>
	<g id="head-1-highlight">
		<path fill="#FFFFFF" d="M186.336,8.351c-8.166-5.458-17.357-4.766-21.539-3.083c4.575-0.224,12.771,0.17,20.186,5.121
			c7.444,4.909,10.987,12.312,12.544,16.619C197.467,22.503,194.539,13.755,186.336,8.351z"/>
	</g>
</g>
</svg>
