<?xml version="1.0" encoding="utf-8"?>
<!-- Generator: Adobe Illustrator 21.0.2, SVG Export Plug-In . SVG Version: 6.00 Build 0)  -->
<svg version="1.1" id="Layer_1" xmlns="http://www.w3.org/2000/svg" xmlns:xlink="http://www.w3.org/1999/xlink" x="0px" y="0px"
	 width="570.2px" height="283.5px" viewBox="0 0 570.2 283.5" enable-background="new 0 0 570.2 283.5" xml:space="preserve">
<g>
	<g>
		<g>
			<path fill="#009490" d="M280,40.3h-37.6v20.3H277c2.6,0,4.5,0.6,5.7,1.7c1.3,1.1,1.9,2.7,1.9,4.5c0,1.9-0.6,3.4-1.9,4.6
				c-1.2,1.2-3.2,1.8-5.7,1.8h-34.7v23.5h38.9c2.6,0,4.6,0.6,5.9,1.8c1.3,1.2,2,2.8,2,4.9c0,2-0.7,3.5-2,4.8
				c-1.3,1.2-3.3,1.8-5.9,1.8h-45.4c-3.6,0-6.3-0.8-7.8-2.4c-1.6-1.6-2.4-4.2-2.4-7.8v-62c0-2.4,0.4-4.4,1.1-5.9
				c0.7-1.5,1.8-2.6,3.3-3.3c1.5-0.7,3.5-1,5.8-1H280c2.7,0,4.6,0.6,5.9,1.8c1.3,1.2,1.9,2.7,1.9,4.6c0,2-0.6,3.5-1.9,4.7
				C284.6,39.7,282.7,40.3,280,40.3z"/>
			<path fill="#009490" d="M365.2,85.2c0,5-1.3,9.5-3.9,13.4c-2.6,4-6.3,7.1-11.3,9.3c-5,2.3-10.8,3.4-17.6,3.4
				c-8.1,0-14.9-1.5-20.1-4.6c-3.8-2.2-6.8-5.2-9.1-8.9c-2.3-3.7-3.5-7.3-3.5-10.8c0-2,0.7-3.8,2.1-5.2c1.4-1.4,3.2-2.2,5.4-2.2
				c1.8,0,3.3,0.6,4.5,1.7c1.2,1.1,2.3,2.8,3.1,5c1,2.6,2.2,4.8,3.4,6.6c1.2,1.8,2.9,3.2,5.1,4.4c2.2,1.1,5.1,1.7,8.7,1.7
				c5,0,9-1.2,12.1-3.5c3.1-2.3,4.6-5.2,4.6-8.6c0-2.7-0.8-5-2.5-6.7c-1.7-1.7-3.8-3-6.5-3.9c-2.6-0.9-6.2-1.9-10.6-2.9
				c-5.9-1.4-10.9-3-14.9-4.9c-4-1.9-7.2-4.4-9.5-7.6c-2.3-3.2-3.5-7.2-3.5-12c0-4.5,1.2-8.6,3.7-12.1c2.5-3.5,6.1-6.2,10.7-8.1
				c4.7-1.9,10.2-2.8,16.5-2.8c5.1,0,9.4,0.6,13.1,1.9c3.7,1.3,6.8,2.9,9.2,5c2.4,2.1,4.2,4.3,5.3,6.6c1.1,2.3,1.7,4.5,1.7,6.7
				c0,2-0.7,3.8-2.1,5.4c-1.4,1.6-3.2,2.4-5.3,2.4c-1.9,0-3.4-0.5-4.4-1.4c-1-1-2.1-2.5-3.2-4.7c-1.5-3.1-3.3-5.5-5.4-7.3
				c-2.1-1.7-5.5-2.6-10.1-2.6c-4.3,0-7.8,0.9-10.4,2.8c-2.6,1.9-4,4.2-4,6.8c0,1.7,0.5,3.1,1.4,4.3c0.9,1.2,2.1,2.2,3.7,3.1
				c1.6,0.9,3.2,1.5,4.8,2c1.6,0.5,4.3,1.2,8,2.1c4.7,1.1,8.9,2.3,12.6,3.6c3.8,1.3,7,2.9,9.6,4.8c2.6,1.9,4.7,4.2,6.2,7.1
				C364.5,77.5,365.2,81,365.2,85.2z"/>
			<path fill="#009490" d="M407.2,97.5L394,44.9v56.9c0,3.2-0.7,5.5-2.1,7.1c-1.4,1.6-3.3,2.4-5.6,2.4c-2.3,0-4.1-0.8-5.5-2.3
				c-1.4-1.6-2.1-3.9-2.1-7.1V36.6c0-3.6,0.9-6,2.8-7.3c1.9-1.3,4.4-1.9,7.6-1.9h5.2c3.1,0,5.4,0.3,6.8,0.8c1.4,0.6,2.4,1.6,3.1,3
				c0.7,1.5,1.4,3.8,2.3,7.1l12,45.2l12-45.2c0.9-3.3,1.6-5.7,2.3-7.1c0.7-1.5,1.7-2.5,3.1-3c1.4-0.6,3.7-0.8,6.8-0.8h5.2
				c3.2,0,5.7,0.6,7.6,1.9c1.9,1.3,2.8,3.7,2.8,7.3v65.3c0,3.2-0.7,5.5-2.1,7.1c-1.4,1.6-3.3,2.4-5.7,2.4c-2.2,0-4-0.8-5.5-2.4
				c-1.4-1.6-2.1-3.9-2.1-7.1V44.9l-13.2,52.6c-0.9,3.4-1.6,5.9-2.1,7.5c-0.5,1.6-1.5,3-3,4.4c-1.5,1.3-3.5,2-6.1,2
				c-2,0-3.6-0.4-5-1.3c-1.4-0.8-2.4-1.9-3.2-3.2c-0.8-1.3-1.3-2.8-1.8-4.4C408.1,100.9,407.7,99.2,407.2,97.5z"/>
			<path fill="#009490" d="M482.1,41.7c-2.1,0-4-0.7-5.5-2c-1.5-1.3-2.3-3.2-2.3-5.6c0-2.2,0.8-4,2.3-5.4c1.6-1.4,3.4-2.1,5.4-2.1
				c2,0,3.8,0.6,5.3,1.9c1.5,1.3,2.3,3.1,2.3,5.6c0,2.4-0.8,4.2-2.3,5.5C485.9,41.1,484.1,41.7,482.1,41.7z M489.7,57.6V102
				c0,3.1-0.7,5.4-2.2,7c-1.5,1.6-3.3,2.4-5.6,2.4c-2.3,0-4.1-0.8-5.5-2.4c-1.4-1.6-2.1-3.9-2.1-6.9V58c0-3,0.7-5.3,2.1-6.9
				c1.4-1.5,3.2-2.3,5.5-2.3c2.3,0,4.1,0.8,5.6,2.3C488.9,52.7,489.7,54.9,489.7,57.6z"/>
			<path fill="#009490" d="M561,40.3h-37.6v20.3H558c2.6,0,4.5,0.6,5.7,1.7c1.3,1.1,1.9,2.7,1.9,4.5c0,1.9-0.6,3.4-1.9,4.6
				c-1.2,1.2-3.2,1.8-5.7,1.8h-34.7v23.5h38.9c2.6,0,4.6,0.6,5.9,1.8c1.3,1.2,2,2.8,2,4.9c0,2-0.7,3.5-2,4.8
				c-1.3,1.2-3.3,1.8-5.9,1.8h-45.4c-3.6,0-6.3-0.8-7.8-2.4c-1.6-1.6-2.4-4.2-2.4-7.8v-62c0-2.4,0.4-4.4,1.1-5.9
				c0.7-1.5,1.8-2.6,3.3-3.3c1.5-0.7,3.5-1,5.8-1H561c2.7,0,4.6,0.6,5.9,1.8c1.3,1.2,1.9,2.7,1.9,4.6c0,2-0.6,3.5-1.9,4.7
				C565.6,39.7,563.6,40.3,561,40.3z"/>
		</g>
		<g>
			<path fill="#009490" d="M312.9,132.6h-8.6v4.6h7.9c0.6,0,1,0.1,1.3,0.4c0.3,0.3,0.4,0.6,0.4,1c0,0.4-0.1,0.8-0.4,1
				c-0.3,0.3-0.7,0.4-1.3,0.4h-7.9v5.4h8.9c0.6,0,1.1,0.1,1.4,0.4c0.3,0.3,0.5,0.6,0.5,1.1c0,0.4-0.2,0.8-0.5,1.1
				c-0.3,0.3-0.8,0.4-1.4,0.4h-10.4c-0.8,0-1.4-0.2-1.8-0.6c-0.4-0.4-0.5-1-0.5-1.8V132c0-0.5,0.1-1,0.2-1.3
				c0.2-0.3,0.4-0.6,0.8-0.8c0.3-0.2,0.8-0.2,1.3-0.2h10.1c0.6,0,1.1,0.1,1.4,0.4c0.3,0.3,0.4,0.6,0.4,1.1c0,0.4-0.1,0.8-0.4,1.1
				C313.9,132.4,313.5,132.6,312.9,132.6z"/>
			<path fill="#009490" d="M320.9,136.5v0.4c0.6-0.8,1.3-1.4,2-1.8c0.7-0.4,1.6-0.6,2.5-0.6c0.9,0,1.7,0.2,2.5,0.6
				c0.7,0.4,1.3,1,1.6,1.7c0.2,0.4,0.4,0.9,0.4,1.4c0.1,0.5,0.1,1.1,0.1,1.9v6.5c0,0.7-0.2,1.2-0.5,1.6c-0.3,0.4-0.7,0.5-1.3,0.5
				c-0.5,0-0.9-0.2-1.3-0.6c-0.3-0.4-0.5-0.9-0.5-1.6v-5.8c0-1.2-0.2-2-0.5-2.6c-0.3-0.6-1-0.9-1.9-0.9c-0.6,0-1.2,0.2-1.7,0.6
				c-0.5,0.4-0.9,0.9-1.1,1.5c-0.2,0.5-0.3,1.5-0.3,2.9v4.4c0,0.7-0.2,1.2-0.5,1.6c-0.3,0.4-0.8,0.5-1.3,0.5c-0.5,0-0.9-0.2-1.2-0.6
				c-0.3-0.4-0.5-0.9-0.5-1.6v-10.1c0-0.7,0.1-1.2,0.4-1.5c0.3-0.3,0.7-0.5,1.2-0.5c0.3,0,0.6,0.1,0.8,0.2c0.2,0.1,0.4,0.4,0.6,0.7
				C320.9,135.7,320.9,136,320.9,136.5z"/>
			<path fill="#009490" d="M337.1,131.4v5.2c0.4-0.5,0.9-0.9,1.3-1.2c0.4-0.3,0.9-0.5,1.4-0.7c0.5-0.1,1.1-0.2,1.7-0.2
				c0.9,0,1.7,0.2,2.4,0.6c0.7,0.4,1.2,0.9,1.6,1.6c0.2,0.4,0.4,0.9,0.5,1.4c0.1,0.5,0.1,1.1,0.1,1.8v6.7c0,0.7-0.2,1.2-0.5,1.6
				s-0.7,0.5-1.3,0.5c-1.2,0-1.7-0.7-1.7-2.1v-5.9c0-1.1-0.2-2-0.5-2.6c-0.3-0.6-1-0.9-1.9-0.9c-0.6,0-1.2,0.2-1.7,0.5
				c-0.5,0.4-0.9,0.8-1.1,1.5c-0.2,0.5-0.3,1.4-0.3,2.8v4.6c0,0.7-0.2,1.2-0.5,1.6c-0.3,0.4-0.7,0.5-1.3,0.5c-1.2,0-1.7-0.7-1.7-2.1
				v-15.2c0-0.7,0.2-1.2,0.5-1.6c0.3-0.4,0.7-0.5,1.3-0.5c0.6,0,1,0.2,1.3,0.5S337.1,130.7,337.1,131.4z"/>
			<path fill="#009490" d="M358.4,146.8c-0.8,0.7-1.7,1.2-2.5,1.5c-0.8,0.3-1.7,0.5-2.7,0.5c-0.9,0-1.7-0.2-2.4-0.5
				c-0.7-0.4-1.2-0.8-1.6-1.4c-0.4-0.6-0.6-1.3-0.6-2c0-1,0.3-1.8,0.9-2.5c0.6-0.7,1.4-1.1,2.5-1.4c0.2-0.1,0.8-0.2,1.7-0.3
				s1.6-0.3,2.3-0.5c0.6-0.1,1.3-0.3,2-0.5c0-0.9-0.2-1.6-0.6-2c-0.3-0.4-1-0.6-2-0.6c-0.9,0-1.6,0.1-2,0.4
				c-0.4,0.2-0.8,0.6-1.2,1.1c-0.3,0.5-0.5,0.8-0.7,1c-0.1,0.2-0.4,0.2-0.9,0.2c-0.4,0-0.7-0.1-1-0.4c-0.3-0.3-0.4-0.6-0.4-1
				c0-0.6,0.2-1.2,0.7-1.8c0.4-0.6,1.1-1.1,2-1.4c0.9-0.4,2.1-0.6,3.5-0.6c1.5,0,2.8,0.2,3.6,0.5c0.9,0.4,1.5,0.9,1.9,1.7
				c0.4,0.8,0.5,1.8,0.5,3.1c0,0.8,0,1.5,0,2.1c0,0.6,0,1.2,0,1.9c0,0.7,0.1,1.3,0.3,2.1c0.2,0.7,0.3,1.2,0.3,1.4
				c0,0.4-0.2,0.7-0.5,1c-0.3,0.3-0.7,0.4-1.1,0.4c-0.4,0-0.7-0.2-1.1-0.5C359.1,147.9,358.8,147.4,358.4,146.8z M358.1,141.7
				c-0.5,0.2-1.3,0.4-2.2,0.6c-1,0.2-1.7,0.4-2,0.5c-0.4,0.1-0.7,0.3-1.1,0.6c-0.3,0.3-0.5,0.7-0.5,1.2c0,0.5,0.2,1,0.6,1.4
				c0.4,0.4,0.9,0.6,1.6,0.6c0.7,0,1.3-0.2,1.9-0.5c0.6-0.3,1-0.7,1.3-1.2c0.3-0.5,0.5-1.4,0.5-2.6V141.7z"/>
			<path fill="#009490" d="M368.3,136.5v0.4c0.6-0.8,1.3-1.4,2-1.8c0.7-0.4,1.6-0.6,2.5-0.6c0.9,0,1.7,0.2,2.5,0.6
				c0.7,0.4,1.3,1,1.6,1.7c0.2,0.4,0.4,0.9,0.4,1.4c0.1,0.5,0.1,1.1,0.1,1.9v6.5c0,0.7-0.2,1.2-0.5,1.6s-0.7,0.5-1.3,0.5
				c-0.5,0-0.9-0.2-1.3-0.6c-0.3-0.4-0.5-0.9-0.5-1.6v-5.8c0-1.2-0.2-2-0.5-2.6c-0.3-0.6-1-0.9-1.9-0.9c-0.6,0-1.2,0.2-1.7,0.6
				c-0.5,0.4-0.9,0.9-1.1,1.5c-0.2,0.5-0.3,1.5-0.3,2.9v4.4c0,0.7-0.2,1.2-0.5,1.6c-0.3,0.4-0.8,0.5-1.3,0.5c-0.5,0-0.9-0.2-1.2-0.6
				c-0.3-0.4-0.5-0.9-0.5-1.6v-10.1c0-0.7,0.1-1.2,0.4-1.5c0.3-0.3,0.7-0.5,1.2-0.5c0.3,0,0.6,0.1,0.8,0.2c0.2,0.1,0.4,0.4,0.6,0.7
				C368.2,135.7,368.3,136,368.3,136.5z"/>
			<path fill="#009490" d="M393.6,144.4c0,0.4-0.1,0.9-0.4,1.4c-0.3,0.5-0.7,1-1.2,1.4c-0.5,0.4-1.2,0.8-2,1.1
				c-0.8,0.3-1.7,0.4-2.7,0.4c-2.2,0-3.9-0.6-5.1-1.9c-1.2-1.3-1.8-3-1.8-5.1c0-1.4,0.3-2.7,0.8-3.8c0.6-1.1,1.4-2,2.4-2.6
				c1.1-0.6,2.3-0.9,3.8-0.9c0.9,0,1.7,0.1,2.5,0.4c0.8,0.3,1.4,0.6,1.9,1c0.5,0.4,0.9,0.9,1.2,1.3c0.3,0.5,0.4,0.9,0.4,1.3
				c0,0.4-0.2,0.8-0.5,1.1c-0.3,0.3-0.7,0.4-1.1,0.4c-0.3,0-0.5-0.1-0.7-0.2c-0.2-0.1-0.4-0.4-0.6-0.7c-0.4-0.6-0.9-1.1-1.3-1.5
				c-0.5-0.3-1.1-0.5-1.8-0.5c-1,0-1.9,0.4-2.5,1.2c-0.6,0.8-0.9,1.9-0.9,3.3c0,0.7,0.1,1.3,0.2,1.8c0.2,0.6,0.4,1,0.7,1.4
				c0.3,0.4,0.7,0.7,1.1,0.9c0.4,0.2,0.9,0.3,1.4,0.3c0.7,0,1.3-0.2,1.8-0.5c0.5-0.3,0.9-0.8,1.3-1.5c0.2-0.4,0.4-0.7,0.7-0.9
				c0.2-0.2,0.6-0.3,0.9-0.3c0.4,0,0.8,0.2,1.1,0.5C393.4,143.7,393.6,144.1,393.6,144.4z"/>
			<path fill="#009490" d="M398.4,132.9c-0.5,0-0.9-0.1-1.3-0.4c-0.3-0.3-0.5-0.7-0.5-1.3c0-0.5,0.2-0.9,0.5-1.2
				c0.4-0.3,0.8-0.5,1.2-0.5c0.5,0,0.9,0.1,1.2,0.4c0.4,0.3,0.5,0.7,0.5,1.3c0,0.5-0.2,1-0.5,1.3
				C399.3,132.7,398.9,132.9,398.4,132.9z M400.1,136.5v10.1c0,0.7-0.2,1.2-0.5,1.6c-0.3,0.4-0.8,0.5-1.3,0.5
				c-0.5,0-0.9-0.2-1.3-0.6c-0.3-0.4-0.5-0.9-0.5-1.6v-10c0-0.7,0.2-1.2,0.5-1.6c0.3-0.4,0.7-0.5,1.3-0.5c0.5,0,0.9,0.2,1.3,0.5
				C400,135.4,400.1,135.9,400.1,136.5z"/>
			<path fill="#009490" d="M406.9,136.5v0.4c0.6-0.8,1.3-1.4,2-1.8c0.7-0.4,1.6-0.6,2.5-0.6c0.9,0,1.7,0.2,2.5,0.6
				c0.7,0.4,1.3,1,1.6,1.7c0.2,0.4,0.4,0.9,0.4,1.4c0.1,0.5,0.1,1.1,0.1,1.9v6.5c0,0.7-0.2,1.2-0.5,1.6c-0.3,0.4-0.7,0.5-1.3,0.5
				c-0.5,0-0.9-0.2-1.3-0.6c-0.3-0.4-0.5-0.9-0.5-1.6v-5.8c0-1.2-0.2-2-0.5-2.6c-0.3-0.6-1-0.9-1.9-0.9c-0.6,0-1.2,0.2-1.7,0.6
				c-0.5,0.4-0.9,0.9-1.1,1.5c-0.2,0.5-0.3,1.5-0.3,2.9v4.4c0,0.7-0.2,1.2-0.5,1.6c-0.3,0.4-0.8,0.5-1.3,0.5c-0.5,0-0.9-0.2-1.2-0.6
				c-0.3-0.4-0.5-0.9-0.5-1.6v-10.1c0-0.7,0.1-1.2,0.4-1.5c0.3-0.3,0.7-0.5,1.2-0.5c0.3,0,0.6,0.1,0.8,0.2c0.2,0.1,0.4,0.4,0.6,0.7
				C406.8,135.7,406.9,136,406.9,136.5z"/>
			<path fill="#009490" d="M432.5,137.1v10.2c0,1.2-0.1,2.2-0.4,3c-0.2,0.8-0.6,1.5-1.2,2.1c-0.5,0.5-1.3,1-2.1,1.2
				c-0.9,0.3-2,0.4-3.3,0.4c-1.2,0-2.3-0.2-3.2-0.5c-0.9-0.3-1.7-0.8-2.2-1.3c-0.5-0.5-0.8-1.1-0.8-1.6c0-0.4,0.1-0.8,0.4-1
				c0.3-0.3,0.6-0.4,1.1-0.4c0.5,0,1,0.2,1.3,0.7c0.2,0.2,0.4,0.5,0.6,0.7c0.2,0.2,0.4,0.4,0.7,0.6c0.2,0.2,0.5,0.3,0.9,0.4
				c0.3,0.1,0.7,0.1,1.2,0.1c0.9,0,1.6-0.1,2.1-0.4c0.5-0.3,0.9-0.6,1.1-1.1c0.2-0.5,0.3-0.9,0.4-1.5c0-0.5,0.1-1.3,0.1-2.5
				c-0.5,0.8-1.2,1.3-1.9,1.7c-0.7,0.4-1.5,0.6-2.5,0.6c-1.2,0-2.2-0.3-3.1-0.9c-0.9-0.6-1.6-1.4-2-2.5c-0.5-1.1-0.7-2.3-0.7-3.7
				c0-1.1,0.1-2,0.4-2.8c0.3-0.8,0.7-1.6,1.2-2.1c0.5-0.6,1.1-1,1.8-1.3c0.7-0.3,1.5-0.4,2.3-0.4c1,0,1.9,0.2,2.6,0.6
				c0.7,0.4,1.4,1,2,1.8v-0.5c0-0.6,0.1-1.1,0.4-1.4c0.3-0.3,0.7-0.5,1.2-0.5c0.7,0,1.1,0.2,1.3,0.7
				C432.4,135.6,432.5,136.3,432.5,137.1z M422.3,141.5c0,1.4,0.3,2.5,0.9,3.2c0.6,0.7,1.4,1.1,2.4,1.1c0.6,0,1.1-0.2,1.6-0.5
				c0.5-0.3,0.9-0.8,1.3-1.4c0.3-0.6,0.5-1.4,0.5-2.3c0-1.4-0.3-2.5-0.9-3.3c-0.6-0.8-1.5-1.2-2.5-1.2c-1,0-1.8,0.4-2.4,1.1
				C422.6,139,422.3,140.1,422.3,141.5z"/>
			<path fill="#009490" d="M442.8,134.8h0.4v-2.1c0-0.6,0-1,0-1.3c0-0.3,0.1-0.6,0.3-0.8c0.1-0.2,0.3-0.4,0.6-0.6
				c0.3-0.1,0.5-0.2,0.9-0.2c0.4,0,0.8,0.2,1.2,0.5c0.2,0.2,0.4,0.5,0.5,0.8c0.1,0.3,0.1,0.8,0.1,1.4v2.4h1.3c0.5,0,0.9,0.1,1.1,0.4
				c0.3,0.2,0.4,0.5,0.4,0.9c0,0.5-0.2,0.8-0.6,1c-0.4,0.2-0.9,0.3-1.6,0.3h-0.7v6.4c0,0.5,0,1,0.1,1.3c0,0.3,0.1,0.5,0.3,0.7
				c0.2,0.2,0.4,0.3,0.8,0.3c0.2,0,0.5,0,0.8-0.1c0.4-0.1,0.6-0.1,0.8-0.1c0.3,0,0.5,0.1,0.8,0.3c0.2,0.2,0.3,0.5,0.3,0.8
				c0,0.6-0.3,1-0.9,1.3c-0.6,0.3-1.5,0.4-2.7,0.4c-1.1,0-1.9-0.2-2.5-0.6c-0.6-0.4-0.9-0.9-1.1-1.5c-0.2-0.7-0.3-1.5-0.3-2.6v-6.7
				h-0.5c-0.5,0-0.9-0.1-1.2-0.4c-0.3-0.2-0.4-0.5-0.4-0.9c0-0.4,0.1-0.7,0.4-0.9C441.9,135,442.3,134.8,442.8,134.8z"/>
			<path fill="#009490" d="M455.3,131.4v5.2c0.4-0.5,0.9-0.9,1.3-1.2c0.4-0.3,0.9-0.5,1.4-0.7c0.5-0.1,1.1-0.2,1.7-0.2
				c0.9,0,1.7,0.2,2.4,0.6c0.7,0.4,1.2,0.9,1.6,1.6c0.2,0.4,0.4,0.9,0.5,1.4c0.1,0.5,0.1,1.1,0.1,1.8v6.7c0,0.7-0.2,1.2-0.5,1.6
				c-0.3,0.4-0.7,0.5-1.3,0.5c-1.2,0-1.7-0.7-1.7-2.1v-5.9c0-1.1-0.2-2-0.5-2.6c-0.3-0.6-1-0.9-1.9-0.9c-0.6,0-1.2,0.2-1.7,0.5
				c-0.5,0.4-0.9,0.8-1.1,1.5c-0.2,0.5-0.3,1.4-0.3,2.8v4.6c0,0.7-0.2,1.2-0.5,1.6c-0.3,0.4-0.7,0.5-1.3,0.5c-1.2,0-1.7-0.7-1.7-2.1
				v-15.2c0-0.7,0.2-1.2,0.5-1.6c0.3-0.4,0.7-0.5,1.3-0.5c0.6,0,1,0.2,1.3,0.5C455.2,130.2,455.3,130.7,455.3,131.4z"/>
			<path fill="#009490" d="M477.6,142.5h-6.9c0,0.8,0.2,1.5,0.5,2.1c0.3,0.6,0.7,1.1,1.2,1.4c0.5,0.3,1.1,0.5,1.7,0.5
				c0.4,0,0.8,0,1.1-0.1c0.3-0.1,0.7-0.3,1-0.5c0.3-0.2,0.6-0.4,0.9-0.7c0.3-0.2,0.6-0.6,1.1-1c0.2-0.2,0.4-0.2,0.8-0.2
				c0.4,0,0.6,0.1,0.9,0.3c0.2,0.2,0.3,0.5,0.3,0.8c0,0.3-0.1,0.7-0.4,1.1c-0.2,0.4-0.6,0.8-1.1,1.2c-0.5,0.4-1.1,0.7-1.9,1
				c-0.8,0.3-1.6,0.4-2.6,0.4c-2.2,0-4-0.6-5.2-1.9c-1.2-1.3-1.9-3-1.9-5.2c0-1,0.2-2,0.5-2.9c0.3-0.9,0.8-1.6,1.3-2.3
				s1.3-1.1,2.2-1.5c0.9-0.3,1.8-0.5,2.9-0.5c1.4,0,2.5,0.3,3.5,0.9c1,0.6,1.7,1.3,2.2,2.2c0.5,0.9,0.7,1.8,0.7,2.8
				c0,0.9-0.3,1.5-0.8,1.7S478.5,142.5,477.6,142.5z M470.7,140.5h6.4c-0.1-1.2-0.4-2.1-1-2.7c-0.6-0.6-1.3-0.9-2.2-0.9
				c-0.9,0-1.6,0.3-2.1,0.9C471.2,138.4,470.8,139.3,470.7,140.5z"/>
			<path fill="#009490" d="M504.5,142.8c0,1.1-0.3,2.2-0.9,3.1c-0.6,0.9-1.4,1.6-2.6,2.1c-1.1,0.5-2.5,0.8-4,0.8
				c-1.9,0-3.4-0.4-4.6-1.1c-0.9-0.5-1.6-1.2-2.1-2c-0.5-0.8-0.8-1.7-0.8-2.5c0-0.5,0.2-0.9,0.5-1.2c0.3-0.3,0.7-0.5,1.2-0.5
				c0.4,0,0.7,0.1,1,0.4c0.3,0.3,0.5,0.6,0.7,1.1c0.2,0.6,0.5,1.1,0.8,1.5s0.7,0.7,1.2,1c0.5,0.3,1.2,0.4,2,0.4c1.1,0,2-0.3,2.8-0.8
				s1.1-1.2,1.1-2c0-0.6-0.2-1.1-0.6-1.5c-0.4-0.4-0.9-0.7-1.5-0.9c-0.6-0.2-1.4-0.4-2.4-0.7c-1.4-0.3-2.5-0.7-3.4-1.1
				c-0.9-0.4-1.6-1-2.2-1.7c-0.5-0.7-0.8-1.6-0.8-2.7c0-1,0.3-2,0.8-2.8c0.6-0.8,1.4-1.4,2.5-1.9s2.3-0.6,3.8-0.6
				c1.2,0,2.2,0.1,3,0.4c0.8,0.3,1.5,0.7,2.1,1.1c0.6,0.5,1,1,1.2,1.5c0.3,0.5,0.4,1,0.4,1.5c0,0.5-0.2,0.9-0.5,1.2
				c-0.3,0.4-0.7,0.5-1.2,0.5c-0.4,0-0.8-0.1-1-0.3c-0.2-0.2-0.5-0.6-0.7-1.1c-0.3-0.7-0.8-1.3-1.2-1.7c-0.5-0.4-1.3-0.6-2.3-0.6
				c-1,0-1.8,0.2-2.4,0.6s-0.9,1-0.9,1.6c0,0.4,0.1,0.7,0.3,1c0.2,0.3,0.5,0.5,0.8,0.7c0.4,0.2,0.7,0.4,1.1,0.5
				c0.4,0.1,1,0.3,1.8,0.5c1.1,0.2,2,0.5,2.9,0.8c0.9,0.3,1.6,0.7,2.2,1.1c0.6,0.4,1.1,1,1.4,1.6
				C504.3,141.1,504.5,141.9,504.5,142.8z"/>
			<path fill="#009490" d="M516.4,146.8c-0.8,0.7-1.7,1.2-2.5,1.5c-0.8,0.3-1.7,0.5-2.7,0.5c-0.9,0-1.7-0.2-2.4-0.5
				c-0.7-0.4-1.2-0.8-1.6-1.4c-0.4-0.6-0.6-1.3-0.6-2c0-1,0.3-1.8,0.9-2.5s1.4-1.1,2.5-1.4c0.2-0.1,0.8-0.2,1.7-0.3
				c0.9-0.2,1.6-0.3,2.3-0.5c0.6-0.1,1.3-0.3,2-0.5c0-0.9-0.2-1.6-0.6-2c-0.3-0.4-1-0.6-2-0.6c-0.9,0-1.6,0.1-2,0.4
				c-0.4,0.2-0.8,0.6-1.2,1.1s-0.5,0.8-0.7,1c-0.1,0.2-0.4,0.2-0.9,0.2c-0.4,0-0.7-0.1-1-0.4c-0.3-0.3-0.4-0.6-0.4-1
				c0-0.6,0.2-1.2,0.7-1.8s1.1-1.1,2-1.4c0.9-0.4,2.1-0.6,3.5-0.6c1.5,0,2.7,0.2,3.6,0.5c0.9,0.4,1.5,0.9,1.9,1.7
				c0.4,0.8,0.5,1.8,0.5,3.1c0,0.8,0,1.5,0,2.1c0,0.6,0,1.2,0,1.9c0,0.7,0.1,1.3,0.3,2.1c0.2,0.7,0.3,1.2,0.3,1.4
				c0,0.4-0.2,0.7-0.5,1c-0.3,0.3-0.7,0.4-1.1,0.4c-0.4,0-0.7-0.2-1.1-0.5C517.1,147.9,516.7,147.4,516.4,146.8z M516.1,141.7
				c-0.5,0.2-1.3,0.4-2.2,0.6c-1,0.2-1.7,0.4-2,0.5c-0.4,0.1-0.7,0.3-1.1,0.6c-0.3,0.3-0.5,0.7-0.5,1.2c0,0.5,0.2,1,0.6,1.4
				c0.4,0.4,0.9,0.6,1.6,0.6c0.7,0,1.3-0.2,1.9-0.5c0.6-0.3,1-0.7,1.3-1.2c0.3-0.5,0.5-1.4,0.5-2.6V141.7z"/>
			<path fill="#009490" d="M522.8,134.8h0.8v-1.1c0-1.1,0.1-2,0.4-2.6c0.3-0.6,0.7-1.1,1.4-1.4c0.7-0.3,1.6-0.4,2.7-0.4
				c2,0,3.1,0.5,3.1,1.5c0,0.3-0.1,0.6-0.3,0.8c-0.2,0.2-0.5,0.3-0.8,0.3c-0.1,0-0.4,0-0.7-0.1c-0.3-0.1-0.6-0.1-0.8-0.1
				c-0.6,0-1,0.2-1.2,0.6c-0.2,0.4-0.3,0.9-0.3,1.6v0.8h0.9c1.3,0,2,0.4,2,1.2c0,0.6-0.2,0.9-0.5,1.1c-0.4,0.2-0.8,0.2-1.5,0.2h-0.9
				v9.3c0,0.7-0.2,1.2-0.5,1.6c-0.3,0.4-0.8,0.5-1.3,0.5c-0.5,0-0.9-0.2-1.2-0.5c-0.3-0.4-0.5-0.9-0.5-1.6v-9.3h-1
				c-0.5,0-0.9-0.1-1.2-0.4c-0.3-0.2-0.4-0.5-0.4-0.9C521.1,135.3,521.7,134.8,522.8,134.8z"/>
			<path fill="#009490" d="M541.3,142.5h-6.9c0,0.8,0.2,1.5,0.5,2.1c0.3,0.6,0.7,1.1,1.2,1.4c0.5,0.3,1.1,0.5,1.7,0.5
				c0.4,0,0.8,0,1.1-0.1c0.3-0.1,0.7-0.3,1-0.5c0.3-0.2,0.6-0.4,0.9-0.7c0.3-0.2,0.6-0.6,1.1-1c0.2-0.2,0.4-0.2,0.8-0.2
				c0.4,0,0.6,0.1,0.9,0.3c0.2,0.2,0.3,0.5,0.3,0.8c0,0.3-0.1,0.7-0.4,1.1c-0.2,0.4-0.6,0.8-1.1,1.2c-0.5,0.4-1.1,0.7-1.9,1
				c-0.8,0.3-1.6,0.4-2.6,0.4c-2.2,0-4-0.6-5.2-1.9c-1.2-1.3-1.9-3-1.9-5.2c0-1,0.2-2,0.5-2.9c0.3-0.9,0.8-1.6,1.3-2.3
				c0.6-0.6,1.3-1.1,2.2-1.5c0.9-0.3,1.8-0.5,2.9-0.5c1.4,0,2.5,0.3,3.5,0.9c1,0.6,1.7,1.3,2.2,2.2c0.5,0.9,0.7,1.8,0.7,2.8
				c0,0.9-0.3,1.5-0.8,1.7C542.9,142.4,542.2,142.5,541.3,142.5z M534.4,140.5h6.4c-0.1-1.2-0.4-2.1-1-2.7c-0.6-0.6-1.3-0.9-2.2-0.9
				c-0.9,0-1.6,0.3-2.1,0.9C534.9,138.4,534.6,139.3,534.4,140.5z"/>
			<path fill="#009490" d="M547.3,134.8h0.4v-2.1c0-0.6,0-1,0-1.3c0-0.3,0.1-0.6,0.2-0.8c0.1-0.2,0.3-0.4,0.6-0.6
				c0.3-0.1,0.5-0.2,0.9-0.2c0.4,0,0.8,0.2,1.2,0.5c0.2,0.2,0.4,0.5,0.5,0.8c0.1,0.3,0.1,0.8,0.1,1.4v2.4h1.3c0.5,0,0.9,0.1,1.1,0.4
				c0.3,0.2,0.4,0.5,0.4,0.9c0,0.5-0.2,0.8-0.6,1c-0.4,0.2-0.9,0.3-1.6,0.3h-0.7v6.4c0,0.5,0,1,0.1,1.3c0,0.3,0.1,0.5,0.3,0.7
				c0.2,0.2,0.4,0.3,0.8,0.3c0.2,0,0.5,0,0.8-0.1s0.6-0.1,0.8-0.1c0.3,0,0.5,0.1,0.8,0.3c0.2,0.2,0.3,0.5,0.3,0.8
				c0,0.6-0.3,1-0.9,1.3c-0.6,0.3-1.5,0.4-2.7,0.4c-1.1,0-1.9-0.2-2.5-0.6c-0.6-0.4-0.9-0.9-1.1-1.5c-0.2-0.7-0.3-1.5-0.3-2.6v-6.7
				h-0.5c-0.5,0-0.9-0.1-1.2-0.4c-0.3-0.2-0.4-0.5-0.4-0.9c0-0.4,0.1-0.7,0.4-0.9C546.4,135,546.8,134.8,547.3,134.8z"/>
			<path fill="#009490" d="M559.7,149.2l0.3-0.8l-4.3-10.9c-0.3-0.6-0.4-1.1-0.4-1.4c0-0.3,0.1-0.6,0.2-0.8c0.2-0.3,0.4-0.5,0.6-0.6
				c0.3-0.2,0.5-0.2,0.8-0.2c0.5,0,0.9,0.2,1.1,0.5s0.5,0.8,0.7,1.4l3,8.6l2.8-8c0.2-0.6,0.4-1.2,0.6-1.5c0.2-0.4,0.4-0.6,0.6-0.7
				s0.5-0.2,0.9-0.2c0.3,0,0.5,0.1,0.8,0.2c0.2,0.1,0.4,0.3,0.6,0.6c0.1,0.2,0.2,0.5,0.2,0.8c0,0.2-0.1,0.4-0.2,0.7
				c-0.1,0.3-0.2,0.6-0.3,0.9l-4.6,12c-0.4,1.1-0.8,1.9-1.2,2.5s-0.9,1.1-1.5,1.4c-0.6,0.3-1.5,0.5-2.5,0.5c-1,0-1.8-0.1-2.3-0.3
				c-0.5-0.2-0.8-0.6-0.8-1.2c0-0.4,0.1-0.7,0.4-0.9c0.2-0.2,0.6-0.3,1.1-0.3c0.2,0,0.4,0,0.6,0.1c0.2,0.1,0.4,0.1,0.6,0.1
				c0.4,0,0.7-0.1,0.9-0.2c0.2-0.1,0.4-0.3,0.6-0.6C559.2,150.2,559.4,149.8,559.7,149.2z"/>
			<path fill="#009490" d="M313.3,173.2c0,1-0.2,2-0.5,2.9s-0.8,1.6-1.4,2.3c-0.6,0.6-1.4,1.1-2.2,1.5c-0.9,0.3-1.8,0.5-2.9,0.5
				c-1.1,0-2-0.2-2.9-0.5s-1.6-0.8-2.2-1.5c-0.6-0.6-1.1-1.4-1.4-2.3c-0.3-0.9-0.5-1.8-0.5-2.9c0-1.1,0.2-2,0.5-2.9
				c0.3-0.9,0.8-1.6,1.4-2.3c0.6-0.6,1.3-1.1,2.2-1.4c0.9-0.3,1.8-0.5,2.9-0.5c1.1,0,2,0.2,2.9,0.5c0.9,0.3,1.6,0.8,2.2,1.5
				c0.6,0.6,1.1,1.4,1.4,2.3C313.2,171.2,313.3,172.1,313.3,173.2z M309.8,173.2c0-1.4-0.3-2.5-0.9-3.3c-0.6-0.8-1.5-1.2-2.5-1.2
				c-0.7,0-1.3,0.2-1.8,0.5c-0.5,0.4-0.9,0.9-1.2,1.6c-0.3,0.7-0.4,1.5-0.4,2.4c0,0.9,0.1,1.7,0.4,2.4c0.3,0.7,0.7,1.2,1.2,1.6
				c0.5,0.4,1.1,0.5,1.8,0.5c1.1,0,1.9-0.4,2.5-1.2C309.5,175.7,309.8,174.6,309.8,173.2z"/>
			<path fill="#009490" d="M315.8,166.4h0.8v-1.1c0-1.1,0.1-2,0.4-2.6c0.3-0.6,0.7-1.1,1.4-1.4c0.7-0.3,1.6-0.4,2.7-0.4
				c2,0,3.1,0.5,3.1,1.5c0,0.3-0.1,0.6-0.3,0.8c-0.2,0.2-0.5,0.3-0.8,0.3c-0.1,0-0.4,0-0.7-0.1c-0.3-0.1-0.6-0.1-0.8-0.1
				c-0.6,0-1,0.2-1.2,0.6c-0.2,0.4-0.3,0.9-0.3,1.6v0.8h0.9c1.3,0,2,0.4,2,1.2c0,0.6-0.2,0.9-0.5,1.1c-0.4,0.2-0.8,0.2-1.5,0.2h-0.9
				v9.3c0,0.7-0.2,1.2-0.5,1.6c-0.3,0.4-0.8,0.5-1.3,0.5c-0.5,0-0.9-0.2-1.2-0.5c-0.3-0.4-0.5-0.9-0.5-1.6v-9.3h-1
				c-0.5,0-0.9-0.1-1.2-0.4c-0.3-0.2-0.4-0.5-0.4-0.9C314.1,166.8,314.7,166.4,315.8,166.4z"/>
			<path fill="#009490" d="M341,177.2l-3-12v13c0,0.7-0.2,1.3-0.5,1.6c-0.3,0.4-0.7,0.5-1.3,0.5c-0.5,0-0.9-0.2-1.3-0.5
				c-0.3-0.4-0.5-0.9-0.5-1.6v-14.9c0-0.8,0.2-1.4,0.6-1.7c0.4-0.3,1-0.4,1.7-0.4h1.2c0.7,0,1.2,0.1,1.5,0.2
				c0.3,0.1,0.6,0.4,0.7,0.7c0.2,0.3,0.3,0.9,0.5,1.6l2.7,10.3l2.7-10.3c0.2-0.8,0.4-1.3,0.5-1.6c0.2-0.3,0.4-0.6,0.7-0.7
				c0.3-0.1,0.8-0.2,1.5-0.2h1.2c0.7,0,1.3,0.1,1.7,0.4c0.4,0.3,0.6,0.8,0.6,1.7v14.9c0,0.7-0.2,1.3-0.5,1.6
				c-0.3,0.4-0.8,0.5-1.3,0.5c-0.5,0-0.9-0.2-1.2-0.5c-0.3-0.4-0.5-0.9-0.5-1.6v-13l-3,12c-0.2,0.8-0.4,1.3-0.5,1.7
				c-0.1,0.4-0.4,0.7-0.7,1c-0.3,0.3-0.8,0.4-1.4,0.4c-0.4,0-0.8-0.1-1.1-0.3c-0.3-0.2-0.5-0.4-0.7-0.7c-0.2-0.3-0.3-0.6-0.4-1
				C341.2,177.9,341.1,177.5,341,177.2z"/>
			<path fill="#009490" d="M358,164.4c-0.5,0-0.9-0.1-1.3-0.4c-0.3-0.3-0.5-0.7-0.5-1.3c0-0.5,0.2-0.9,0.5-1.2
				c0.4-0.3,0.8-0.5,1.2-0.5c0.5,0,0.9,0.1,1.2,0.4c0.4,0.3,0.5,0.7,0.5,1.3c0,0.5-0.2,1-0.5,1.3S358.5,164.4,358,164.4z
				 M359.8,168.1v10.1c0,0.7-0.2,1.2-0.5,1.6c-0.3,0.4-0.8,0.5-1.3,0.5c-0.5,0-0.9-0.2-1.3-0.6c-0.3-0.4-0.5-0.9-0.5-1.6v-10
				c0-0.7,0.2-1.2,0.5-1.6c0.3-0.4,0.7-0.5,1.3-0.5c0.5,0,0.9,0.2,1.3,0.5C359.6,166.9,359.8,167.4,359.8,168.1z"/>
			<path fill="#009490" d="M373,178.3V178c-0.5,0.5-0.9,1-1.4,1.3c-0.5,0.3-1,0.6-1.5,0.8c-0.5,0.2-1.1,0.3-1.8,0.3
				c-0.8,0-1.6-0.2-2.3-0.5c-0.7-0.4-1.3-0.9-1.9-1.5c-0.5-0.7-0.9-1.4-1.2-2.3c-0.3-0.9-0.4-1.9-0.4-2.9c0-2.2,0.5-3.9,1.6-5.1
				c1.1-1.2,2.5-1.8,4.2-1.8c1,0,1.9,0.2,2.6,0.5c0.7,0.3,1.4,0.9,2,1.6V163c0-0.7,0.1-1.3,0.4-1.6c0.3-0.4,0.7-0.6,1.2-0.6
				s0.9,0.2,1.2,0.5c0.3,0.3,0.4,0.8,0.4,1.5v15.4c0,0.7-0.2,1.2-0.5,1.5c-0.3,0.3-0.7,0.5-1.2,0.5c-0.5,0-0.9-0.2-1.2-0.5
				C373.1,179.4,373,178.9,373,178.3z M366.1,173.2c0,0.9,0.1,1.8,0.4,2.4c0.3,0.7,0.7,1.2,1.2,1.5c0.5,0.3,1.1,0.5,1.7,0.5
				c0.6,0,1.2-0.2,1.7-0.5c0.5-0.3,0.9-0.8,1.2-1.5s0.5-1.5,0.5-2.5c0-0.9-0.2-1.7-0.5-2.4s-0.7-1.2-1.2-1.5
				c-0.5-0.4-1.1-0.5-1.7-0.5c-0.6,0-1.2,0.2-1.7,0.5c-0.5,0.4-0.9,0.9-1.2,1.6C366.2,171.5,366.1,172.3,366.1,173.2z"/>
			<path fill="#009490" d="M382,168.2l2.3,7.8l2.1-7.3c0.2-0.8,0.4-1.3,0.5-1.6c0.1-0.3,0.3-0.5,0.6-0.8c0.3-0.3,0.7-0.4,1.2-0.4
				c0.5,0,0.9,0.1,1.2,0.4c0.3,0.3,0.5,0.5,0.6,0.8c0.1,0.3,0.3,0.8,0.5,1.5l2.1,7.3l2.3-7.8c0.2-0.6,0.3-1,0.4-1.2
				c0.1-0.3,0.3-0.5,0.5-0.7c0.2-0.2,0.5-0.3,1-0.3c0.4,0,0.8,0.1,1.1,0.4c0.3,0.3,0.5,0.6,0.5,1c0,0.4-0.1,0.9-0.4,1.6l-2.9,8.4
				c-0.2,0.7-0.4,1.2-0.6,1.5c-0.1,0.3-0.4,0.6-0.6,0.8c-0.3,0.2-0.7,0.4-1.2,0.4c-0.5,0-0.9-0.1-1.3-0.4c-0.3-0.3-0.5-0.6-0.7-1
				c-0.1-0.4-0.3-0.9-0.5-1.5l-2-6.8l-1.9,6.8c-0.3,1-0.5,1.7-0.8,2.1c-0.3,0.5-0.8,0.7-1.6,0.7c-0.4,0-0.7-0.1-1-0.2
				c-0.3-0.1-0.5-0.4-0.7-0.6c-0.2-0.3-0.3-0.6-0.5-1c-0.1-0.4-0.2-0.7-0.3-0.9l-2.8-8.4c-0.3-0.8-0.4-1.3-0.4-1.6
				c0-0.4,0.1-0.7,0.4-1c0.3-0.3,0.7-0.4,1.1-0.4c0.6,0,1,0.2,1.2,0.5C381.5,166.9,381.8,167.5,382,168.2z"/>
			<path fill="#009490" d="M402.9,164.4c-0.5,0-0.9-0.1-1.3-0.4c-0.3-0.3-0.5-0.7-0.5-1.3c0-0.5,0.2-0.9,0.5-1.2
				c0.4-0.3,0.8-0.5,1.2-0.5c0.5,0,0.9,0.1,1.2,0.4c0.4,0.3,0.5,0.7,0.5,1.3c0,0.5-0.2,1-0.5,1.3S403.4,164.4,402.9,164.4z
				 M404.7,168.1v10.1c0,0.7-0.2,1.2-0.5,1.6c-0.3,0.4-0.8,0.5-1.3,0.5c-0.5,0-0.9-0.2-1.3-0.6c-0.3-0.4-0.5-0.9-0.5-1.6v-10
				c0-0.7,0.2-1.2,0.5-1.6c0.3-0.4,0.7-0.5,1.3-0.5c0.5,0,0.9,0.2,1.3,0.5C404.5,166.9,404.7,167.4,404.7,168.1z"/>
			<path fill="#009490" d="M408,166.4h0.8v-1.1c0-1.1,0.1-2,0.4-2.6c0.3-0.6,0.7-1.1,1.4-1.4c0.7-0.3,1.6-0.4,2.7-0.4
				c2,0,3.1,0.5,3.1,1.5c0,0.3-0.1,0.6-0.3,0.8c-0.2,0.2-0.5,0.3-0.8,0.3c-0.1,0-0.4,0-0.7-0.1c-0.3-0.1-0.6-0.1-0.8-0.1
				c-0.6,0-1,0.2-1.2,0.6c-0.2,0.4-0.3,0.9-0.3,1.6v0.8h0.9c1.3,0,2,0.4,2,1.2c0,0.6-0.2,0.9-0.5,1.1c-0.4,0.2-0.8,0.2-1.5,0.2h-0.9
				v9.3c0,0.7-0.2,1.2-0.5,1.6c-0.3,0.4-0.8,0.5-1.3,0.5c-0.5,0-0.9-0.2-1.2-0.5c-0.3-0.4-0.5-0.9-0.5-1.6v-9.3h-1
				c-0.5,0-0.9-0.1-1.2-0.4c-0.3-0.2-0.4-0.5-0.4-0.9C406.3,166.8,406.8,166.4,408,166.4z"/>
			<path fill="#009490" d="M426.5,174h-6.9c0,0.8,0.2,1.5,0.5,2.1c0.3,0.6,0.7,1.1,1.2,1.4c0.5,0.3,1.1,0.5,1.7,0.5
				c0.4,0,0.8,0,1.1-0.1c0.3-0.1,0.7-0.3,1-0.5s0.6-0.4,0.9-0.7s0.6-0.6,1.1-1c0.2-0.2,0.4-0.2,0.8-0.2c0.4,0,0.6,0.1,0.9,0.3
				c0.2,0.2,0.3,0.5,0.3,0.8c0,0.3-0.1,0.7-0.4,1.1c-0.2,0.4-0.6,0.8-1.1,1.2s-1.1,0.7-1.9,1c-0.8,0.3-1.6,0.4-2.6,0.4
				c-2.3,0-4-0.6-5.2-1.9c-1.2-1.3-1.9-3-1.9-5.2c0-1,0.2-2,0.5-2.9c0.3-0.9,0.8-1.6,1.3-2.3c0.6-0.6,1.3-1.1,2.2-1.5
				c0.9-0.3,1.8-0.5,2.9-0.5c1.4,0,2.5,0.3,3.5,0.9c1,0.6,1.7,1.3,2.2,2.2c0.5,0.9,0.7,1.8,0.7,2.8c0,0.9-0.3,1.5-0.8,1.7
				C428.1,173.9,427.4,174,426.5,174z M419.6,172.1h6.4c-0.1-1.2-0.4-2.1-1-2.7c-0.6-0.6-1.3-0.9-2.2-0.9c-0.9,0-1.6,0.3-2.1,0.9
				C420.1,170,419.7,170.9,419.6,172.1z"/>
			<path fill="#009490" d="M435.8,175.3v2.9c0,0.7-0.2,1.2-0.5,1.6c-0.3,0.4-0.8,0.5-1.3,0.5c-0.5,0-0.9-0.2-1.2-0.5
				c-0.3-0.4-0.5-0.9-0.5-1.6v-9.8c0-1.6,0.6-2.4,1.7-2.4c0.6,0,1,0.2,1.3,0.6c0.3,0.4,0.4,0.9,0.4,1.6c0.4-0.7,0.8-1.3,1.3-1.6
				c0.4-0.4,1-0.6,1.8-0.6c0.7,0,1.4,0.2,2.1,0.6c0.7,0.4,1,0.9,1,1.5c0,0.4-0.1,0.8-0.4,1.1c-0.3,0.3-0.6,0.4-1,0.4
				c-0.1,0-0.4-0.1-0.9-0.2s-0.9-0.2-1.3-0.2c-0.5,0-0.9,0.1-1.3,0.4c-0.3,0.3-0.6,0.7-0.8,1.2c-0.2,0.5-0.3,1.2-0.4,1.9
				C435.8,173.3,435.8,174.2,435.8,175.3z"/>
			<path fill="#009490" d="M447.1,180.7l0.3-0.8l-4.3-10.9c-0.3-0.6-0.4-1.1-0.4-1.4c0-0.3,0.1-0.6,0.2-0.8c0.2-0.3,0.4-0.5,0.6-0.6
				c0.3-0.2,0.5-0.2,0.8-0.2c0.5,0,0.9,0.2,1.1,0.5c0.3,0.3,0.5,0.8,0.7,1.4l3,8.6l2.8-8c0.2-0.6,0.4-1.2,0.6-1.5
				c0.2-0.4,0.4-0.6,0.6-0.7c0.2-0.1,0.5-0.2,0.9-0.2c0.3,0,0.5,0.1,0.8,0.2c0.2,0.1,0.4,0.3,0.6,0.6c0.1,0.2,0.2,0.5,0.2,0.8
				c0,0.2-0.1,0.4-0.2,0.7c-0.1,0.3-0.2,0.6-0.3,0.9l-4.6,12c-0.4,1.1-0.8,1.9-1.2,2.5c-0.4,0.6-0.9,1.1-1.5,1.4
				c-0.6,0.3-1.5,0.5-2.5,0.5c-1,0-1.8-0.1-2.3-0.3c-0.5-0.2-0.8-0.6-0.8-1.2c0-0.4,0.1-0.7,0.4-0.9c0.2-0.2,0.6-0.3,1.1-0.3
				c0.2,0,0.4,0,0.6,0.1c0.2,0.1,0.4,0.1,0.6,0.1c0.4,0,0.7-0.1,0.9-0.2c0.2-0.1,0.4-0.3,0.6-0.6
				C446.6,181.8,446.8,181.3,447.1,180.7z"/>
			<path fill="#009490" d="M462.7,174.7h-4.1c-0.6,0-1.1-0.1-1.4-0.4c-0.3-0.3-0.5-0.7-0.5-1.1c0-0.5,0.2-0.8,0.5-1.1
				c0.3-0.3,0.8-0.4,1.4-0.4h4.1c0.6,0,1.1,0.1,1.4,0.4c0.3,0.3,0.5,0.7,0.5,1.1c0,0.5-0.2,0.8-0.5,1.1
				C463.8,174.6,463.3,174.7,462.7,174.7z"/>
			<path fill="#009490" d="M470.8,163.2v13.7h7.7c0.6,0,1.1,0.1,1.4,0.4c0.3,0.3,0.5,0.7,0.5,1.1c0,0.5-0.2,0.8-0.5,1.1
				c-0.3,0.3-0.8,0.4-1.4,0.4h-9.2c-0.8,0-1.4-0.2-1.8-0.6c-0.4-0.4-0.5-1-0.5-1.8v-14.5c0-0.8,0.2-1.3,0.5-1.7
				c0.3-0.4,0.8-0.6,1.4-0.6c0.6,0,1,0.2,1.4,0.6C470.6,161.8,470.8,162.4,470.8,163.2z"/>
			<path fill="#009490" d="M492.5,174h-6.9c0,0.8,0.2,1.5,0.5,2.1c0.3,0.6,0.7,1.1,1.2,1.4c0.5,0.3,1.1,0.5,1.7,0.5
				c0.4,0,0.8,0,1.1-0.1c0.3-0.1,0.7-0.3,1-0.5c0.3-0.2,0.6-0.4,0.9-0.7s0.6-0.6,1.1-1c0.2-0.2,0.4-0.2,0.8-0.2
				c0.4,0,0.6,0.1,0.9,0.3c0.2,0.2,0.3,0.5,0.3,0.8c0,0.3-0.1,0.7-0.4,1.1c-0.2,0.4-0.6,0.8-1.1,1.2c-0.5,0.4-1.1,0.7-1.9,1
				c-0.8,0.3-1.6,0.4-2.6,0.4c-2.2,0-4-0.6-5.2-1.9c-1.2-1.3-1.9-3-1.9-5.2c0-1,0.2-2,0.5-2.9c0.3-0.9,0.8-1.6,1.3-2.3
				s1.3-1.1,2.2-1.5c0.9-0.3,1.8-0.5,2.9-0.5c1.4,0,2.5,0.3,3.5,0.9c1,0.6,1.7,1.3,2.2,2.2c0.5,0.9,0.7,1.8,0.7,2.8
				c0,0.9-0.3,1.5-0.8,1.7C494.1,173.9,493.4,174,492.5,174z M485.6,172.1h6.4c-0.1-1.2-0.4-2.1-1-2.7c-0.6-0.6-1.3-0.9-2.2-0.9
				c-0.9,0-1.6,0.3-2.1,0.9C486.1,170,485.7,170.9,485.6,172.1z"/>
			<path fill="#009490" d="M507.9,178.3V178c-0.5,0.5-0.9,1-1.4,1.3c-0.5,0.3-1,0.6-1.5,0.8c-0.5,0.2-1.1,0.3-1.8,0.3
				c-0.8,0-1.6-0.2-2.3-0.5c-0.7-0.4-1.3-0.9-1.9-1.5c-0.5-0.7-0.9-1.4-1.2-2.3c-0.3-0.9-0.4-1.9-0.4-2.9c0-2.2,0.5-3.9,1.6-5.1
				c1.1-1.2,2.5-1.8,4.2-1.8c1,0,1.9,0.2,2.6,0.5c0.7,0.3,1.4,0.9,2,1.6V163c0-0.7,0.1-1.3,0.4-1.6c0.3-0.4,0.7-0.6,1.2-0.6
				s0.9,0.2,1.2,0.5c0.3,0.3,0.4,0.8,0.4,1.5v15.4c0,0.7-0.2,1.2-0.5,1.5c-0.3,0.3-0.7,0.5-1.2,0.5c-0.5,0-0.9-0.2-1.2-0.5
				C508.1,179.4,507.9,178.9,507.9,178.3z M501,173.2c0,0.9,0.1,1.8,0.4,2.4c0.3,0.7,0.7,1.2,1.2,1.5c0.5,0.3,1.1,0.5,1.7,0.5
				c0.6,0,1.2-0.2,1.7-0.5c0.5-0.3,0.9-0.8,1.2-1.5c0.3-0.7,0.5-1.5,0.5-2.5c0-0.9-0.2-1.7-0.5-2.4c-0.3-0.7-0.7-1.2-1.2-1.5
				c-0.5-0.4-1.1-0.5-1.7-0.5c-0.6,0-1.2,0.2-1.7,0.5c-0.5,0.4-0.9,0.9-1.2,1.6C501.2,171.5,501,172.3,501,173.2z"/>
			<path fill="#009490" d="M308.5,211.5h-5.7c-0.8,0-1.4-0.2-1.8-0.6c-0.4-0.4-0.5-1-0.5-1.8V195c0-0.8,0.2-1.4,0.5-1.8
				c0.4-0.4,1-0.5,1.8-0.5h6.1c0.9,0,1.7,0.1,2.3,0.2c0.7,0.1,1.2,0.3,1.8,0.6c0.4,0.3,0.8,0.6,1.2,1c0.3,0.4,0.6,0.9,0.8,1.3
				c0.2,0.5,0.3,1,0.3,1.6c0,1.9-0.9,3.3-2.8,4.1c2.5,0.8,3.7,2.3,3.7,4.6c0,1.1-0.3,2-0.8,2.8c-0.5,0.8-1.3,1.5-2.2,1.9
				c-0.6,0.2-1.2,0.4-2,0.5C310.4,211.5,309.5,211.5,308.5,211.5z M304.3,195.6v4.9h3.5c0.9,0,1.7-0.1,2.2-0.3
				c0.5-0.2,0.9-0.5,1.2-1c0.2-0.4,0.3-0.8,0.3-1.2c0-0.9-0.3-1.6-1-1.9c-0.7-0.3-1.7-0.5-3.1-0.5H304.3z M308.2,203.2h-4v5.5h4.1
				c2.6,0,3.9-0.9,3.9-2.8c0-1-0.3-1.6-1-2.1C310.5,203.4,309.6,203.2,308.2,203.2z"/>
			<path fill="#009490" d="M320.9,196c-0.5,0-0.9-0.1-1.3-0.4c-0.3-0.3-0.5-0.7-0.5-1.3c0-0.5,0.2-0.9,0.5-1.2
				c0.4-0.3,0.8-0.5,1.2-0.5c0.5,0,0.9,0.1,1.2,0.4c0.4,0.3,0.5,0.7,0.5,1.3c0,0.5-0.2,1-0.5,1.3C321.8,195.8,321.4,196,320.9,196z
				 M322.6,199.6v10.1c0,0.7-0.2,1.2-0.5,1.6c-0.3,0.4-0.8,0.5-1.3,0.5c-0.5,0-0.9-0.2-1.3-0.6c-0.3-0.4-0.5-0.9-0.5-1.6v-10
				c0-0.7,0.2-1.2,0.5-1.6c0.3-0.4,0.7-0.5,1.3-0.5c0.5,0,0.9,0.2,1.3,0.5C322.5,198.5,322.6,199,322.6,199.6z"/>
			<path fill="#009490" d="M329.7,206.8v2.9c0,0.7-0.2,1.2-0.5,1.6c-0.3,0.4-0.8,0.5-1.3,0.5c-0.5,0-0.9-0.2-1.2-0.5
				c-0.3-0.4-0.5-0.9-0.5-1.6V200c0-1.6,0.6-2.4,1.7-2.4c0.6,0,1,0.2,1.3,0.6c0.3,0.4,0.4,0.9,0.4,1.6c0.4-0.7,0.8-1.3,1.3-1.6
				c0.4-0.4,1-0.6,1.8-0.6c0.7,0,1.4,0.2,2.1,0.6c0.7,0.4,1,0.9,1,1.5c0,0.4-0.1,0.8-0.4,1.1c-0.3,0.3-0.6,0.4-1,0.4
				c-0.1,0-0.4-0.1-0.9-0.2c-0.5-0.2-0.9-0.2-1.3-0.2c-0.5,0-0.9,0.1-1.3,0.4c-0.3,0.3-0.6,0.7-0.8,1.2c-0.2,0.5-0.3,1.2-0.4,1.9
				C329.8,204.8,329.7,205.7,329.7,206.8z"/>
			<path fill="#009490" d="M338.3,197.9h0.4v-2.1c0-0.6,0-1,0-1.3c0-0.3,0.1-0.6,0.3-0.8c0.1-0.2,0.3-0.4,0.6-0.6
				c0.3-0.1,0.5-0.2,0.9-0.2c0.4,0,0.8,0.2,1.2,0.5c0.2,0.2,0.4,0.5,0.5,0.8c0.1,0.3,0.1,0.8,0.1,1.4v2.4h1.3c0.5,0,0.9,0.1,1.1,0.4
				s0.4,0.5,0.4,0.9c0,0.5-0.2,0.8-0.6,1c-0.4,0.2-0.9,0.3-1.6,0.3h-0.7v6.4c0,0.5,0,1,0.1,1.3c0,0.3,0.1,0.5,0.3,0.7
				c0.2,0.2,0.4,0.3,0.8,0.3c0.2,0,0.5,0,0.8-0.1c0.4-0.1,0.6-0.1,0.8-0.1c0.3,0,0.5,0.1,0.8,0.3c0.2,0.2,0.3,0.5,0.3,0.8
				c0,0.6-0.3,1-0.9,1.3c-0.6,0.3-1.5,0.4-2.7,0.4c-1.1,0-1.9-0.2-2.5-0.6c-0.6-0.4-0.9-0.9-1.1-1.5c-0.2-0.6-0.3-1.5-0.3-2.6v-6.7
				h-0.5c-0.5,0-0.9-0.1-1.2-0.4c-0.3-0.2-0.4-0.5-0.4-0.9c0-0.4,0.1-0.7,0.4-0.9C337.3,198,337.7,197.9,338.3,197.9z"/>
			<path fill="#009490" d="M350.8,194.5v5.2c0.4-0.5,0.9-0.9,1.3-1.2c0.4-0.3,0.9-0.5,1.4-0.7c0.5-0.1,1.1-0.2,1.7-0.2
				c0.9,0,1.7,0.2,2.4,0.6c0.7,0.4,1.2,0.9,1.6,1.6c0.2,0.4,0.4,0.9,0.5,1.4c0.1,0.5,0.1,1.1,0.1,1.8v6.7c0,0.7-0.2,1.2-0.5,1.6
				c-0.3,0.4-0.7,0.5-1.3,0.5c-1.2,0-1.7-0.7-1.7-2.1v-5.9c0-1.1-0.2-2-0.5-2.6c-0.3-0.6-1-0.9-1.9-0.9c-0.6,0-1.2,0.2-1.7,0.5
				c-0.5,0.4-0.9,0.8-1.1,1.5c-0.2,0.5-0.3,1.5-0.3,2.8v4.6c0,0.7-0.2,1.2-0.5,1.6c-0.3,0.4-0.7,0.5-1.3,0.5c-1.2,0-1.7-0.7-1.7-2.1
				v-15.2c0-0.7,0.2-1.2,0.5-1.6c0.3-0.4,0.7-0.5,1.3-0.5c0.6,0,1,0.2,1.3,0.5C350.7,193.3,350.8,193.8,350.8,194.5z"/>
			<path fill="#009490" d="M382.5,195.6h-8.6v4.6h7.9c0.6,0,1,0.1,1.3,0.4c0.3,0.3,0.4,0.6,0.4,1c0,0.4-0.1,0.8-0.4,1
				c-0.3,0.3-0.7,0.4-1.3,0.4h-7.9v5.4h8.9c0.6,0,1.1,0.1,1.4,0.4c0.3,0.3,0.5,0.6,0.5,1.1c0,0.4-0.2,0.8-0.5,1.1s-0.8,0.4-1.4,0.4
				h-10.4c-0.8,0-1.4-0.2-1.8-0.6c-0.4-0.4-0.5-1-0.5-1.8V195c0-0.5,0.1-1,0.2-1.3c0.2-0.3,0.4-0.6,0.8-0.8c0.3-0.2,0.8-0.2,1.3-0.2
				h10.1c0.6,0,1.1,0.1,1.4,0.4c0.3,0.3,0.4,0.6,0.4,1.1c0,0.4-0.1,0.8-0.4,1.1C383.5,195.5,383.1,195.6,382.5,195.6z"/>
			<path fill="#009490" d="M390.5,199.5v0.4c0.6-0.8,1.3-1.4,2-1.8c0.7-0.4,1.6-0.6,2.5-0.6c0.9,0,1.7,0.2,2.5,0.6
				c0.7,0.4,1.3,1,1.6,1.7c0.2,0.4,0.4,0.9,0.4,1.4c0.1,0.5,0.1,1.1,0.1,1.9v6.5c0,0.7-0.2,1.2-0.5,1.6s-0.7,0.5-1.3,0.5
				c-0.5,0-0.9-0.2-1.3-0.6c-0.3-0.4-0.5-0.9-0.5-1.6v-5.8c0-1.2-0.2-2-0.5-2.6c-0.3-0.6-1-0.9-1.9-0.9c-0.6,0-1.2,0.2-1.7,0.6
				c-0.5,0.4-0.9,0.9-1.1,1.5c-0.2,0.5-0.3,1.5-0.3,2.9v4.4c0,0.7-0.2,1.2-0.5,1.6c-0.3,0.4-0.8,0.5-1.3,0.5c-0.5,0-0.9-0.2-1.2-0.6
				c-0.3-0.4-0.5-0.9-0.5-1.6v-10.1c0-0.7,0.1-1.2,0.4-1.5c0.3-0.3,0.7-0.5,1.2-0.5c0.3,0,0.6,0.1,0.8,0.2c0.2,0.1,0.4,0.4,0.6,0.7
				C390.5,198.8,390.5,199.1,390.5,199.5z"/>
			<path fill="#009490" d="M412.8,214.7v-4.9c-0.7,0.7-1.4,1.2-2.1,1.5c-0.7,0.4-1.5,0.5-2.4,0.5c-1.1,0-2.1-0.3-3-0.9
				c-0.9-0.6-1.6-1.4-2.1-2.5c-0.5-1.1-0.8-2.3-0.8-3.8c0-1.5,0.3-2.8,0.8-3.8c0.5-1.1,1.2-1.9,2.1-2.4c0.9-0.6,1.9-0.8,3-0.8
				c0.9,0,1.8,0.2,2.5,0.6s1.4,1,1.9,1.8v-0.4c0-0.6,0.2-1.1,0.5-1.5s0.7-0.5,1.2-0.5s0.9,0.2,1.2,0.5c0.3,0.3,0.5,0.8,0.5,1.5v15.1
				c0,1.6-0.6,2.3-1.7,2.3c-0.7,0-1.1-0.2-1.3-0.6C412.9,216,412.8,215.4,412.8,214.7z M406,204.7c0,0.9,0.2,1.8,0.5,2.4
				c0.3,0.7,0.7,1.2,1.2,1.5c0.5,0.3,1,0.5,1.6,0.5c0.6,0,1.2-0.2,1.7-0.5c0.5-0.3,0.9-0.8,1.3-1.5c0.3-0.7,0.5-1.5,0.5-2.5
				c0-0.7-0.1-1.3-0.3-1.9c-0.2-0.6-0.4-1-0.8-1.4c-0.3-0.4-0.7-0.7-1.1-0.8c-0.4-0.2-0.8-0.3-1.3-0.3c-0.9,0-1.7,0.4-2.3,1.2
				C406.3,202.2,406,203.3,406,204.7z"/>
			<path fill="#009490" d="M428.8,209.9v-0.4c-0.4,0.5-0.9,1-1.3,1.3c-0.5,0.4-1,0.6-1.5,0.8c-0.5,0.2-1.2,0.3-1.9,0.3
				c-0.8,0-1.6-0.2-2.3-0.5c-0.7-0.4-1.2-0.8-1.6-1.5c-0.4-0.7-0.7-1.8-0.7-3.2v-6.9c0-0.7,0.2-1.2,0.5-1.6c0.3-0.3,0.7-0.5,1.3-0.5
				c0.5,0,1,0.2,1.3,0.5c0.3,0.4,0.5,0.9,0.5,1.6v5.6c0,0.8,0.1,1.5,0.2,2c0.1,0.6,0.4,1,0.7,1.3c0.4,0.3,0.8,0.5,1.4,0.5
				c0.6,0,1.1-0.2,1.7-0.5s0.9-0.8,1.1-1.4c0.2-0.5,0.3-1.6,0.3-3.3v-4.3c0-0.7,0.2-1.2,0.5-1.6c0.3-0.4,0.7-0.5,1.3-0.5
				s0.9,0.2,1.3,0.5c0.3,0.3,0.5,0.9,0.5,1.6v10.2c0,0.7-0.2,1.2-0.5,1.5s-0.7,0.5-1.2,0.5s-0.9-0.2-1.2-0.5
				C428.9,211,428.8,210.5,428.8,209.9z"/>
			<path fill="#009490" d="M437.3,196c-0.5,0-0.9-0.1-1.3-0.4c-0.3-0.3-0.5-0.7-0.5-1.3c0-0.5,0.2-0.9,0.5-1.2
				c0.4-0.3,0.8-0.5,1.2-0.5c0.5,0,0.9,0.1,1.2,0.4c0.4,0.3,0.5,0.7,0.5,1.3c0,0.5-0.2,1-0.5,1.3C438.2,195.8,437.8,196,437.3,196z
				 M439,199.6v10.1c0,0.7-0.2,1.2-0.5,1.6c-0.3,0.4-0.8,0.5-1.3,0.5c-0.5,0-0.9-0.2-1.3-0.6c-0.3-0.4-0.5-0.9-0.5-1.6v-10
				c0-0.7,0.2-1.2,0.5-1.6c0.3-0.4,0.7-0.5,1.3-0.5c0.5,0,0.9,0.2,1.3,0.5C438.9,198.5,439,199,439,199.6z"/>
			<path fill="#009490" d="M446.1,206.8v2.9c0,0.7-0.2,1.2-0.5,1.6c-0.3,0.4-0.8,0.5-1.3,0.5c-0.5,0-0.9-0.2-1.2-0.5
				c-0.3-0.4-0.5-0.9-0.5-1.6V200c0-1.6,0.6-2.4,1.7-2.4c0.6,0,1,0.2,1.3,0.6c0.3,0.4,0.4,0.9,0.4,1.6c0.4-0.7,0.8-1.3,1.3-1.6
				c0.4-0.4,1-0.6,1.8-0.6c0.7,0,1.4,0.2,2.1,0.6c0.7,0.4,1,0.9,1,1.5c0,0.4-0.1,0.8-0.4,1.1c-0.3,0.3-0.6,0.4-1,0.4
				c-0.1,0-0.4-0.1-0.9-0.2c-0.5-0.2-0.9-0.2-1.3-0.2c-0.5,0-0.9,0.1-1.3,0.4c-0.3,0.3-0.6,0.7-0.8,1.2c-0.2,0.5-0.3,1.2-0.4,1.9
				C446.2,204.8,446.1,205.7,446.1,206.8z"/>
			<path fill="#009490" d="M457.4,212.3l0.3-0.8l-4.3-10.9c-0.3-0.6-0.4-1.1-0.4-1.4c0-0.3,0.1-0.6,0.2-0.8c0.2-0.3,0.4-0.5,0.6-0.6
				c0.3-0.2,0.6-0.2,0.8-0.2c0.5,0,0.9,0.2,1.1,0.5s0.5,0.8,0.7,1.4l3,8.6l2.8-8c0.2-0.6,0.4-1.2,0.6-1.5c0.2-0.4,0.4-0.6,0.6-0.7
				c0.2-0.1,0.5-0.2,0.9-0.2c0.3,0,0.5,0.1,0.8,0.2c0.2,0.1,0.4,0.3,0.6,0.6s0.2,0.5,0.2,0.8c0,0.2-0.1,0.4-0.2,0.7
				c-0.1,0.3-0.2,0.6-0.3,0.9l-4.6,12c-0.4,1.1-0.8,1.9-1.2,2.5c-0.4,0.6-0.9,1.1-1.5,1.4c-0.6,0.3-1.5,0.5-2.5,0.5
				c-1,0-1.8-0.1-2.3-0.3c-0.5-0.2-0.8-0.6-0.8-1.2c0-0.4,0.1-0.7,0.4-0.9c0.2-0.2,0.6-0.3,1.1-0.3c0.2,0,0.4,0,0.6,0.1
				c0.2,0.1,0.4,0.1,0.6,0.1c0.4,0,0.7-0.1,0.9-0.2c0.2-0.1,0.4-0.3,0.6-0.6C456.9,213.3,457.2,212.9,457.4,212.3z"/>
		</g>
	</g>
	<g>
		<path fill="#009490" d="M90.6,155.6c-1.3,2.7-2.4,5.1-3.2,7.7c-0.4,1.3-0.8,2.6-1,4.1c-0.2,1.5-0.5,3.1-0.6,4.9
			c-0.1,1-0.2,2.4-0.3,4.3c0,0.9,0,1.9-0.1,3c0,0.4,0,0.9,0,1.3c0,0.5,0,1.1,0,1.7c0,1.1,0.1,2.2,0.1,3.4c0,1.1,0.1,2.3,0.2,3.5
			c0.1,1.2,0.1,2.4,0.3,3.6c0.5,4.8,1.3,9.8,2.4,14.8c1.2,5,2.7,10.2,4.5,15.2c3.7,10.1,8.9,20.1,15.5,28.8
			c6.5,8.7,14.3,16.3,22.8,21.6c4.2,2.7,8.5,4.8,12.7,6.4c4.2,1.6,8.4,2.5,12.3,3.2c7.8,1.1,14.2,0.5,18.6-0.1
			c2.2-0.3,3.9-0.7,5.1-1c0.6-0.1,1-0.2,1.3-0.3c0.3-0.1,0.4-0.1,0.4-0.1s0.6-0.2,1.7-0.5c0.6-0.2,1.3-0.3,2.1-0.6
			c0.8-0.3,1.7-0.6,2.8-1c4.2-1.5,10-4.1,16.6-8.1c3.2-2.1,6.7-4.5,10.1-7.3c1.8-1.4,3.4-2.9,5.2-4.5c1.7-1.6,3.4-3.3,5.1-5.1
			c1.7-1.8,3.3-3.7,5-5.6c1.6-2,3.2-4,4.8-6.1c3.1-4.2,6.1-8.7,8.7-13.4c2.6-4.7,5.1-9.7,7.2-14.7c2.1-5.1,3.8-10.2,5.3-15.4
			c0.4-1.3,0.7-2.6,1-3.9c0.2-0.7,0.3-1.3,0.5-2l0.4-1.9c0.5-2.5,1.2-4.9,1.9-7.3c0.7-2.4,1.4-4.7,2.3-7c0.4-1.1,0.8-2.2,1.3-3.3
			c0.2-0.5,0.5-1.1,0.7-1.6c0.2-0.5,0.4-0.9,0.6-1.4c1.9-4.1,3.8-7.3,4.9-8.7c1.9-2.7,3.5-4.7,5.2-6.5c1.7-1.8,3.4-3.4,6.1-4.8
			c-3-0.1-5.8,0.8-8.2,2.2c-2.5,1.4-4.7,3.5-6.9,6.6c-1.2,1.6-3.3,5.1-5.3,9.4c-0.2,0.5-0.4,1-0.6,1.4c-0.2,0.6-0.5,1.1-0.7,1.7
			c-0.5,1.1-0.9,2.3-1.3,3.5c-0.9,2.4-1.6,4.8-2.4,7.3c-0.7,2.5-1.4,5-1.9,7.6c-0.1,0.7-0.3,1.3-0.4,2c-0.1,0.6-0.3,1.2-0.4,1.8
			c-0.3,1.2-0.6,2.5-1,3.7c-1.4,5-3.1,10-5.1,14.9c-2,4.9-4.4,9.6-6.9,14.2c-2.5,4.6-5.4,8.9-8.4,13c-1.5,2-3.1,4-4.6,5.9
			c-1.6,1.8-3.2,3.7-4.8,5.4c-1.6,1.7-3.3,3.3-4.9,4.9c-1.7,1.5-3.3,3-5,4.3c-3.3,2.7-6.6,5-9.6,7c-6.2,3.9-11.7,6.3-15.7,7.7
			c-1,0.3-1.9,0.6-2.6,0.9c-0.8,0.2-1.4,0.4-2,0.6c-1.1,0.3-1.6,0.5-1.6,0.5s-0.1,0-0.4,0.1c-0.3,0.1-0.7,0.2-1.2,0.3
			c-1.1,0.2-2.7,0.6-4.7,0.9c-4.1,0.6-10.1,1.1-17.2,0.1c-3.6-0.6-7.4-1.5-11.3-2.9c-3.9-1.5-7.9-3.5-11.8-6
			c-7.9-5-15.3-12.1-21.5-20.4c-6.3-8.3-11.2-17.9-14.8-27.6c-1.8-4.9-3.2-9.8-4.3-14.7c-1.1-4.9-1.8-9.7-2.3-14.3
			c-0.1-1.2-0.2-2.3-0.3-3.4c-0.1-1.1-0.2-2.2-0.2-3.3c0-1.1-0.1-2.2-0.1-3.3c0-0.5,0-1.1,0-1.6c0-0.4,0-0.8,0-1.2c0-1,0-2,0-2.9
			c0.1-1.7,0.2-3.2,0.2-4.1c0.1-1.7,0.3-3.3,0.3-4.7c0-1.4,0.1-2.8,0.1-4.1C90.7,161.1,90.7,158.6,90.6,155.6z"/>
		<path fill="#7FC9C7" d="M139.9,237.9c1.1,1.1,1.8,2.2,2.7,3.3c0.8,1.1,1.6,2.1,2.5,3.1c0.9,1,1.9,2,3,3c1.2,1,2.6,2,4.4,2.9
			c1,0.4,2.6,1.2,4.9,1.2c1.2,0,2.3-0.2,3.5-0.5c0.3-0.1,0.5-0.2,0.8-0.2c0.4-0.1,0.7-0.3,1-0.4c0.7-0.3,1.3-0.6,2-1
			c1.3-0.8,2.5-1.7,3.6-2.8c0.3-0.3,0.5-0.6,0.8-0.9c0.2-0.4,0.5-0.7,0.7-1.1c0.5-0.8,0.8-1.8,1-2.9c0.1-0.6,0.2-1.2,0.3-1.9
			c0-0.3,0.1-0.6,0.1-0.9l0.3-0.9c0.6-2.4,1.7-4.6,3.4-6.2c1.6-1.6,3.7-2.8,5.9-3.4c1.1-0.3,2.2-0.5,3.3-0.6c0.3,0,0.5-0.1,0.8-0.1
			c0.1,0,0.3,0,0.4,0l0.3,0l0.5,0l0.2,0c0.1,0,0.1-0.1,0.2-0.1l0.4-0.2l0.6-0.3c0.3-0.2,0.6-0.3,1-0.5c1.4-0.8,2.7-1.9,3.6-3.4
			c0.9-1.5,1.2-3.4,1-5c-0.1-0.8-0.3-1.5-0.5-2.2c-0.1-0.4-0.3-0.7-0.4-1c-0.1-0.2-0.2-0.3-0.3-0.5c-0.1-0.3-0.3-0.5-0.5-0.7
			c-1.1-1.3-2.1-2-3-2.7c-1-0.7-1.9-1.3-2.9-1.8c-0.5-0.3-0.9-0.5-1.4-0.8c-0.4-0.2-0.9-0.5-1.3-0.7c-1.6-1-3.2-1.9-4.5-2.7
			c-1.4-0.8-2.6-1.6-3.7-2.2c-0.3-0.2-0.5-0.3-0.8-0.5c-0.1-0.1-0.2-0.1-0.4-0.2c0,0-0.5-0.3-0.5-0.3c-0.2-0.1-0.5-0.3-0.7-0.4
			c-0.8-0.6-0.9-1-0.7-0.7c0,0-0.1-0.1,0,0c0,0-0.1-0.1,0,0c-0.8-1.1-0.8-2.4-0.3-3.7c0.4-1.3,1.2-2.7,1.9-4.1
			c0.3-0.7,0.6-1.4,0.8-2.2c0.1-0.4,0.2-0.8,0.2-1.2c0-0.2,0-0.4,0-0.6c0-0.2,0-0.4,0-0.5c0-1.2-0.1-2.1-0.1-2.8
			c-0.1-1.5,0-2.2,0-2.7c0-0.2,0.1-0.4,0.1-0.4c0-0.1,0-0.1,0-0.1s0,0,0-0.1c0.1-0.1-0.1,0,0.4-0.9c0.2-0.4,0.5-0.9,0.8-1.5
			c0.1-0.1,0.2-0.3,0.3-0.4c0-0.1,0.1-0.2,0.1-0.2c-0.1-0.1-0.2-0.1-0.2-0.2c-0.3-0.2-0.7-0.4-1.1-0.7c-0.9-0.5-1.6-1.2-1.7-1.4
			c-0.3-0.3-0.6-0.8-0.9-1.3c-0.1-0.1-0.2-0.3-0.4-0.7c-0.1-0.2-0.2-0.4-0.3-0.7c-0.1-0.3-0.1-0.6-0.1-0.7l0,0l-0.1,0l-0.3-0.1
			c-0.1,0-0.3-0.1-0.5-0.1l-0.1,0l0,0l0,0c-0.2-0.1,1.8,0.6,0.9,0.3l0,0l0-0.1l0-0.1l0.1-0.2c0.1-0.2,0.2-0.4,0.3-0.7
			c0.2-0.4,0.6-0.8,1.3-1.3c0.4-0.2,0.8-0.5,1.2-0.7c0.2-0.1,0.5-0.2,0.8-0.3c0.1-0.1,0.3-0.1,0.4-0.2l0.1,0l0,0
			c0.3-0.1-0.4,0.1-0.3,0.1l0,0l0,0l0.2,0l0.3-0.1c0.9-0.2,1.8-0.8,2.7-1.4c0.8-0.7,1.5-1.4,2.1-2.3l0,0c0.5-0.8,1.1-1.9,1.5-3.1
			c0.2-0.6,0.4-1.3,0.6-2.1c0-0.2,0.1-0.4,0.1-0.7c0-0.2,0-0.3,0.1-0.5c0-0.3,0.1-0.7,0.1-1c0.5-2.8,1.1-6.2,2.4-9.6
			c0.3-0.8,0.7-1.7,1.1-2.4l0.2-0.3c0.1-0.1,0,0,0.1-0.1l0.5-0.6c0.3-0.4,0.6-0.8,1-1.2c1.3-1.6,2.7-3.1,4.3-4.4
			c1.6-1.3,3.4-2.5,5.4-3.5c2-1,4.1-1.9,6.1-2.4c1-0.3,2.2-0.4,3.2-0.6c1.1-0.1,2.2-0.2,3.3-0.2c2.2-0.1,4.4,0.1,6.6,0.4
			c1.1,0.2,2.1,0.4,3.2,0.6c0.9,0.2,1.7,0.5,2.6,0.7c0.8,0.3,1.6,0.5,2.3,0.8c0.8,0.2,1.4,0.6,2.1,0.8c0.6,0.3,1.3,0.6,1.8,0.8
			c1.1,0.6,2,1.1,2.6,1.4c1.4,0.9,2.7,1.6,3.9,2.4c1.2,0.8,2.3,1.4,3.4,2.1c1.1,0.7,2.2,1.3,3.3,2.1c1.1,0.7,2.2,1.5,3.5,2.3
			c-0.7-1.3-1.4-2.5-2.2-3.7c-0.8-1.1-1.6-2.2-2.5-3.2c-0.9-1.1-2-2-3.1-3c-0.6-0.5-1.2-0.9-1.9-1.4c-0.7-0.5-1.4-1-2.2-1.4
			c-0.7-0.4-1.7-0.9-2.9-1.6c-0.6-0.3-1.3-0.6-2-0.9c-0.7-0.3-1.5-0.7-2.3-0.9c-0.8-0.3-1.7-0.6-2.6-0.9c-0.9-0.3-1.9-0.5-2.9-0.8
			c-1.2-0.3-2.4-0.5-3.5-0.7c-2.4-0.3-4.9-0.6-7.4-0.5c-1.3,0-2.5,0.1-3.8,0.2c-1.3,0.2-2.5,0.4-3.8,0.7c-0.6,0.1-1.3,0.3-1.9,0.5
			l-0.9,0.3l-0.9,0.3c-1.2,0.4-2.3,1-3.4,1.5c-2.2,1.1-4.4,2.5-6.3,4.1c-1.9,1.6-3.5,3.3-4.9,5c-0.3,0.4-0.7,0.9-1,1.3l-0.5,0.6
			c-0.1,0.1-0.3,0.4-0.4,0.6l-0.2,0.4c-0.6,1-1,2-1.4,3c-1.5,4-2.2,7.5-2.7,10.5c-0.1,0.4-0.1,0.7-0.2,1.1c0,0.2,0,0.4-0.1,0.5
			c0,0,0,0.2-0.1,0.3c-0.1,0.5-0.3,1-0.4,1.5c-0.3,0.9-0.7,1.6-1,2.1l0,0c-0.4,0.5-0.8,0.9-1.1,1.3c-0.4,0.3-0.8,0.5-1.2,0.6
			c-0.2,0.1-0.4,0.1-0.6,0.2c-0.2,0.1-0.3,0.1-0.5,0.2c-0.3,0.1-0.7,0.3-1,0.4c-0.6,0.3-1.2,0.6-1.8,1c-1.1,0.7-2.1,1.7-2.7,2.8
			c-0.3,0.5-0.5,1-0.7,1.5c-0.1,0.3-0.1,0.3-0.2,0.6c-0.1,0.4-0.2,0.7-0.2,1c0,1.2,0.2,1.8,0.3,2.4c0.2,0.5,0.3,0.9,0.5,1.2
			c0.3,0.6,0.5,0.9,0.6,1.1c0.5,0.8,0.9,1.5,1.4,2c0.6,0.7,0.7,0.7,0.6,0.7l0,0c-0.1,0.3-0.1,0.4-0.1,0.5c0,0.2,0,0.2,0,0.2
			s0,0.1,0,0.2c0,0.2-0.1,0.4-0.1,0.8c-0.1,0.7-0.1,1.9,0,3.5c0,0.8,0.1,1.7,0.1,2.6c0,0.1,0,0.2,0,0.3l0,0.2c0,0.2,0,0.3-0.1,0.6
			c-0.1,0.4-0.3,0.9-0.6,1.5c-0.5,1.1-1.4,2.5-2.1,4.6c-0.3,1-0.6,2.3-0.5,3.7c0.1,1.4,0.5,2.9,1.5,4.1c-0.1-0.1,0,0,0.1,0.1
			c-0.1-0.1,0,0,0.1,0.1c-0.2-0.3-0.2-0.3,0,0c0.2,0.3,0.7,0.9,1.5,1.5c0.4,0.3,0.9,0.7,1.6,1c0.2,0.1,0,0,0.1,0.1
			c0.1,0.1,0.2,0.1,0.4,0.2c0.2,0.1,0.5,0.3,0.8,0.5c1,0.6,2.3,1.4,3.7,2.2c1.4,0.8,2.9,1.8,4.6,2.8c0.4,0.2,0.9,0.5,1.3,0.7
			c0.4,0.2,0.8,0.5,1.3,0.7c0.9,0.5,1.7,1,2.5,1.6c0.8,0.6,1.7,1.3,2,1.7c0,0,0,0,0,0c0,0.1,0.1,0.2,0.1,0.3
			c0.1,0.2,0.2,0.4,0.2,0.6c0.1,0.4,0.2,0.8,0.3,1.2c0.1,0.8-0.1,1.5-0.4,2.1c-0.4,0.6-1,1.2-1.9,1.7c-0.2,0.1-0.4,0.2-0.6,0.3
			l-0.2,0.1c-0.1,0,0,0,0,0c0,0,0,0,0,0l0,0l0,0l-0.1,0c-0.2,0-0.4,0-0.5,0c-0.4,0-0.7,0-1,0.1c-1.4,0.1-2.8,0.4-4.2,0.8
			c-2.8,0.8-5.7,2.3-7.9,4.6c-2.3,2.3-3.8,5.3-4.5,8.2l-0.3,1.1c-0.1,0.4-0.1,0.8-0.2,1.1c-0.1,0.7-0.2,1.5-0.3,2.2
			c-0.1,0.5-0.5,1.4-1.3,2.1c-0.7,0.8-1.6,1.5-2.6,2c-0.5,0.3-1,0.5-1.5,0.7c-0.2,0.1-0.5,0.2-0.7,0.3l-0.5,0.2
			c-0.8,0.2-1.5,0.3-2.1,0.3c-1.3,0-2.4-0.5-3.1-0.8c-1.4-0.6-2.6-1.4-3.8-2.1c-1.2-0.8-2.3-1.5-3.4-2.2c-1.1-0.7-2.2-1.4-3.4-2
			C142.6,239.1,141.3,238.4,139.9,237.9z"/>
		<path fill="#009490" d="M155.1,7.8c-2.2-2.1-4.3-3.7-6.8-4.9c-2.5-1.3-5.3-2.2-9-2.6c-1.3-0.1-3.3-0.4-7.6-0.2
			c-2.5,0.1-5.4,0.5-8.4,1.2c-3.1,0.7-6.4,1.7-9.6,3.1c-6.6,2.7-13,7-18.2,11.6c-5.3,4.6-9.3,9.6-11.9,13.4c-0.6,1-1.2,1.8-1.7,2.6
			c-0.5,0.8-0.9,1.5-1.2,2c-0.3,0.6-0.6,1-0.8,1.3c-0.2,0.3-0.3,0.5-0.3,0.5s-0.3,0.5-0.8,1.5c-0.5,1-1.3,2.4-2.1,4.2
			c-1.7,3.6-3.7,8.7-5.2,14.7c-1.5,6-2.2,12.9-1.8,19.5c0.3,6.7,1.9,13.1,3.9,18.1c2.2,5.3,4.2,8.2,5.3,9.7c2.2,3,4.4,5.1,6.7,6.6
			c2.3,1.5,4.7,2.6,7.6,3.5c-2.2-2.2-3.7-4.1-5.3-6c-1.6-2-3.2-4-5.2-6.8c-0.9-1.4-2.8-4-4.7-8.8c-1.8-4.6-3.3-10.4-3.6-16.6
			c-0.3-6.2,0.3-12.6,1.7-18.2c1.3-5.6,3.3-10.4,4.8-13.8c0.8-1.7,1.5-3,2-3.9c0.5-0.9,0.8-1.4,0.8-1.4s0.1-0.1,0.2-0.4
			c0.2-0.3,0.4-0.7,0.7-1.2c0.3-0.5,0.7-1.2,1.2-1.9c0.5-0.7,1-1.5,1.6-2.4c2.5-3.5,6.3-8.2,11.2-12.6c4.9-4.3,10.9-8.3,17-10.8
			c3-1.3,6-2.2,8.9-2.9c2.8-0.6,5.4-0.9,7.7-1.1c3.8-0.2,5.7,0.1,6.8,0.1c3.3,0.4,5.9,0.8,8.4,1.2C149.7,6.5,152.2,7,155.1,7.8z"/>
		<path fill="#009490" d="M177.8,22.4c1.5,2.6,2.3,5,3.1,7.3c0.7,2.4,1.4,4.9,2.1,8.2c0.1,0.4,0.2,1,0.3,1.6
			c0.1,0.7,0.2,1.4,0.3,2.2c0.1,0.8,0.1,1.8,0.1,2.8c0,0.2,0,0.4,0,0.7c0,0.3,0,0.5,0,0.8c0,0.5-0.1,1-0.1,1.6c0,0.5,0,1.1-0.1,1.6
			c-0.1,0.5-0.1,1.1-0.2,1.7c-0.1,1.1-0.3,2.3-0.5,3.4c-0.3,1.2-0.5,2.3-0.8,3.5c-0.6,2.4-1.3,4.9-2,7.4c-0.7,2.5-1.6,5-2.3,7.8
			c-0.4,1.4-0.7,2.9-0.8,4.4c0,0.8,0,1.6,0.1,2.4c0.1,0.8,0.3,1.6,0.5,2.3c0.8,2.9,2,5.3,3.2,7.7c0.6,1.2,1.2,2.3,1.8,3.5l0.5,0.8
			c0.1,0.1,0,0,0,0.1c0,0.1,0.1,0.2,0.1,0.3c0.1,0.4,0.2,0.8,0.2,1.1c0,0.7-0.2,1.3-0.6,1.9c-0.4,0.6-1,1-1.9,1.4
			c-0.8,0.4-1.7,0.8-2.5,1.1c-0.9,0.3-1.7,0.5-2.8,0.8c-0.5,0.1-1.1,0.4-1.7,0.7c-0.6,0.3-1.2,0.8-1.7,1.3c-0.5,0.5-0.8,1.1-1,1.6
			c-0.2,0.5-0.4,0.9-0.5,1.4c-0.3,0.9-0.4,1.9-0.4,2.6c0,0.7,0,1.2-0.1,1.6c-0.1,0.8-0.3,1.5-0.4,1.9c-0.2,0.5-0.3,0.7-0.3,0.7
			s-0.1,0.1-0.2,0.5c-0.2,0.4-0.4,0.9-0.9,1.9c-0.5,0.9-1.3,2.2-2.6,3.8c-0.6,0.8-1.4,1.7-2.3,2.7c-0.2,0.2-0.4,0.4-0.6,0.6
			l-0.2,0.2l-0.1,0.3l-0.2,0.5c-0.1,0.4-0.3,0.8-0.4,1.2c-0.3,0.7-0.5,1.5-0.8,2.3c-0.3,0.8-0.7,1.9-1.2,3.3
			c-0.1,0.2-0.1,0.4-0.2,0.5l-0.1,0.3l0,0l0,0l-0.1,0.1c-0.1,0.1-0.1,0.1-0.2,0.2c-0.5,0.5-1.2,0.9-1.9,1.3c-1.4,0.7-3.2,1.1-5,0.7
			c-0.9-0.1-1.9-0.6-2.9-1c-0.5-0.3-0.9-0.6-1.4-0.9c-0.5-0.3-1-0.8-1.6-1.1c-4.3-3.2-8.7-6.8-12.8-10.4c-0.5-0.5-1-0.9-1.5-1.4
			l-0.9-0.8c-0.6-0.5-0.9-0.6-1.3-0.8c-1.5-0.7-3-1.2-4.7-1.3c-1.6-0.1-3.3,0.1-4.8,0.7c-0.4,0.1-0.7,0.3-1.1,0.5
			c-0.3,0.2-0.7,0.3-1,0.5c-0.3,0.2-0.6,0.4-0.9,0.6l-0.4,0.3l-0.4,0.4c-0.6,0.6-1.2,1.1-1.6,1.7c-0.4,0.6-0.9,1.1-1.2,1.6
			c-0.3,0.5-0.6,1-0.9,1.5c-0.3,0.5-0.5,1-0.7,1.4c-0.4,0.9-0.7,1.7-0.9,2.4c-0.1,0.3-0.2,0.7-0.3,1c-0.1,0.3-0.1,0.6-0.2,0.8
			c-0.8,4-0.1,7.2,1.1,9.8c1.2,2.6,2.9,4.8,5.2,6.7c-1.2-2.8-1.7-5.2-2-7.6c-0.3-2.4-0.4-4.9,0.2-7.9c0-0.2,0.1-0.4,0.1-0.6
			c0.1-0.2,0.2-0.5,0.2-0.7c0.2-0.5,0.3-1.2,0.7-1.8c0.2-0.3,0.3-0.7,0.5-1.1c0.2-0.4,0.5-0.8,0.7-1.2c0.2-0.4,0.6-0.8,0.9-1.2
			c0.3-0.4,0.7-0.8,1.1-1.2c1.3-1.3,3.1-2,5-1.8c1,0.1,2,0.4,3,0.8c0.2,0.1,0.5,0.3,0.4,0.2l0.7,0.6c0.5,0.5,1,0.9,1.6,1.4
			c4.2,3.7,8.7,7.4,13.1,10.6c0.6,0.4,1.1,0.8,1.7,1.2c0.6,0.4,1.2,0.8,1.9,1.2c1.3,0.7,2.7,1.3,4.2,1.5c1.4,0.3,2.9,0.3,4.3,0.1
			c1.4-0.2,2.6-0.7,3.7-1.2c1.1-0.6,2-1.2,2.8-1.9c0.1-0.1,0.2-0.2,0.3-0.3l0.4-0.3c0.3-0.3,0.6-0.6,0.7-1c0.2-0.5,0.3-1,0.5-1.4
			c0.5-1.4,0.9-2.5,1.2-3.3c0.3-0.8,0.6-1.6,0.8-2.3c0.1-0.3,0.2-0.7,0.4-1l0,0l0,0l0.1-0.2c1-1.1,1.8-2.1,2.6-3
			c1.4-1.8,2.3-3.3,3-4.4c0.6-1.1,1-1.9,1.1-2.3c0.2-0.5,0.3-0.6,0.3-0.6s0.1-0.3,0.3-0.9c0.2-0.6,0.5-1.6,0.6-2.9
			c0.1-0.7,0.1-1.4,0.1-1.9c0-0.6,0.1-1,0.2-1.5c0.1-0.2,0.2-0.6,0.3-0.8c0.1-0.2,0.2-0.4,0.3-0.5c0.1-0.1,0.2-0.2,0.4-0.3
			c0.2-0.1,0.5-0.2,0.9-0.3c0.8-0.2,1.8-0.4,2.9-0.8c1.1-0.3,2.2-0.8,3.3-1.4c1.1-0.6,2.4-1.4,3.4-2.7c1-1.3,1.6-3.1,1.6-4.7
			c0-0.8-0.1-1.7-0.4-2.4c-0.1-0.2-0.1-0.4-0.2-0.6c-0.1-0.2-0.3-0.6-0.4-0.7l-0.4-0.8c-0.6-1.1-1.2-2.1-1.7-3.3
			c-1.1-2.2-2.2-4.6-2.8-6.8c-0.6-2.1-0.4-4.3,0.3-6.7c0.7-2.5,1.6-5.1,2.3-7.6c0.8-2.6,1.5-5.1,2.1-7.6c0.3-1.2,0.6-2.6,0.8-3.8
			c0.3-1.2,0.4-2.5,0.6-3.7c0.1-0.6,0.2-1.2,0.2-1.8c0-0.6,0.1-1.2,0.1-1.8c0-0.6,0.1-1.2,0.1-1.7c0-0.3,0-0.6,0-0.9
			c0-0.2,0-0.5,0-0.7c-0.1-1.1,0-2.1-0.2-3.1c-0.1-0.9-0.2-1.8-0.3-2.5c-0.1-0.7-0.3-1.4-0.3-1.9c-0.8-3.7-2-6.4-3.6-8.8
			C182.3,25.9,180.4,24,177.8,22.4z"/>
		<path fill="#7FC9C7" d="M170.6,20c0.1,0.8-0.3,1.7-0.9,2.1c-0.6,0.5-1.2,0.8-1.9,1.1c-1.4,0.5-2.9,0.8-4.4,1
			c-3,0.4-5.9,0.6-8.9,0.9c-3,0.2-6.1,0.5-9.5,0.9c-1.7,0.2-3.5,0.4-5.5,0.8c-2.2,0.4-4.2,1.1-6.4,1.7c-0.7,0.3-1.6,0.6-2.6,1
			c-0.5,0.2-1.1,0.4-1.7,0.7c-0.6,0.3-1.2,0.6-1.9,1c-2.7,1.3-6.3,3.6-10.2,7.5c-3.7,3.6-7.5,9.5-9.8,16.1c-2.5,6.5-4,13.5-5.3,19.8
			c-0.6,3.2-1.2,5.9-1.8,8.5c-0.7,2.5-1.3,4.8-2,6.6c-0.6,1.9-1.2,3.3-1.7,4.3c-0.4,1-0.7,1.6-0.7,1.6s-0.9,1.8-2.5,4.6
			c-1.6,2.8-4.2,6.4-7.9,9.8c-3.6,3.3-8.3,6.2-13.4,8.2c-5.1,1.9-10.4,3.1-14.9,3.5c-5.8,0.8-10.3,0.3-13.9-0.4
			c-3.6-0.6-6.1-1.6-7.9-2.3c-7-2.7-12.5-5.8-17.9-8.5c-5.4-2.8-10.8-5.5-17.3-8.6c4.3,5.7,8,10.5,12.6,15c2.3,2.2,4.8,4.4,7.9,6.5
			c3,2.1,6.5,4,10.8,5.7c2.1,0.8,5.2,2,9.7,2.8c4.4,0.9,10.4,1.4,17.2,0.5c5.1-0.5,11.4-1.8,17.5-4.2c6.2-2.3,12.2-6,16.8-10.3
			c4.6-4.3,7.9-8.9,9.8-12.3c1.9-3.4,2.9-5.6,2.9-5.6s0.3-0.7,0.8-1.8c0.5-1.2,1.3-2.9,2-5c0.8-2.1,1.5-4.7,2.3-7.5
			c0.7-2.8,1.4-6.1,2-9c1.2-6.1,2.7-12.6,4.8-18.1c2-5.5,4.9-9.8,7.5-12.4c2.8-2.8,5.3-4.5,7.4-5.5c0.5-0.3,1-0.5,1.4-0.8
			c0.5-0.2,0.9-0.4,1.3-0.5c0.8-0.3,1.5-0.6,2-0.8c1.8-0.5,3.5-1.2,5-1.6c1.8-0.4,3.5-0.9,5.1-1.3c3.4-0.9,6.5-1.9,9.5-3
			c3-1.2,5.9-2.5,8.7-4.4c1.4-0.9,2.8-1.9,4.1-3.3c0.6-0.7,1.2-1.5,1.6-2.4C171.2,21.9,171.1,20.9,170.6,20z"/>
	</g>
</g>
</svg>
