<?xml version="1.0" encoding="utf-8"?>
<!-- Generator: Adobe Illustrator 15.1.0, SVG Export Plug-In . SVG Version: 6.00 Build 0)  -->
<!DOCTYPE svg PUBLIC "-//W3C//DTD SVG 1.1//EN" "http://www.w3.org/Graphics/SVG/1.1/DTD/svg11.dtd">
<svg version="1.1" id="Shapes" xmlns="http://www.w3.org/2000/svg" xmlns:xlink="http://www.w3.org/1999/xlink" x="0px" y="0px"
	 width="328.341px" height="283.464px" viewBox="0 0 328.341 283.464" enable-background="new 0 0 328.341 283.464"
	 xml:space="preserve">
<g>
	<path fill="#345424" d="M40.317,222.73c-14.286-41.135,35.399-95.763,110.982-122.01c38.066-13.221,75.435-16.716,104.983-11.676
		c-29.832-20.118-85.555-22.248-142.853-2.349C37.848,112.943-11.839,167.569,2.449,208.704c7.089,20.42,28.612,33.674,57.73,38.64
		C50.662,240.925,43.772,232.681,40.317,222.73z"/>
</g>
<g>
	<path fill="#8B9F78" d="M302.719,163.599c-4.994-14.39-19.13-24.086-37.974-28.165c6.266,4.679,10.889,10.569,13.324,17.585
		c10.063,28.979-20.727,65.993-68.775,82.684c-24.191,8.401-48.139,10.039-67.246,5.901c19.618,14.65,55.48,17.326,91.901,4.685
		C281.996,229.596,312.784,192.58,302.719,163.599z"/>
</g>
<path fill="#345424" d="M103.22,49.293c-3.941,24.563-19.913,42.424-35.668,39.894c-15.76-2.528-25.335-24.491-21.392-49.053
	C50.102,15.572,66.068-2.29,81.831,0.238C97.588,2.767,107.162,24.731,103.22,49.293z"/>
<path fill="#8B9F78" d="M286.911,275.926c-14.354-10.002-20.366-26.187-13.428-36.132c6.936-9.95,24.192-9.902,38.548,0.104
	c14.351,10.002,20.365,26.183,13.425,36.135C318.521,285.986,301.265,285.933,286.911,275.926z"/>
<text transform="matrix(1 0 0 1 49.4517 211.3765)" fill="#345424" font-family="'PerpetuaTitlingMT-Light'" font-size="60.7706">GRACES</text>
</svg>
