<?xml version="1.0" encoding="utf-8"?>
<!-- Generator: Adobe Illustrator 15.1.0, SVG Export Plug-In . SVG Version: 6.00 Build 0)  -->
<!DOCTYPE svg PUBLIC "-//W3C//DTD SVG 1.1//EN" "http://www.w3.org/Graphics/SVG/1.1/DTD/svg11.dtd">
<svg version="1.1" id="Layer_1" xmlns="http://www.w3.org/2000/svg" xmlns:xlink="http://www.w3.org/1999/xlink" x="0px" y="0px"
	 width="268.489px" height="212.598px" viewBox="0 0 268.489 212.598" enable-background="new 0 0 268.489 212.598"
	 xml:space="preserve">
<g>
	<g>
		<g>
			
				<radialGradient id="SVGID_1_" cx="-334.0703" cy="-608.4675" r="13.3423" gradientTransform="matrix(10.021 0 0 10.021 3481.4453 6204.0508)" gradientUnits="userSpaceOnUse">
				<stop  offset="0" style="stop-color:#4B2A00"/>
				<stop  offset="0.0221" style="stop-color:#4B2A00"/>
				<stop  offset="0.0625" style="stop-color:#4F2E00"/>
				<stop  offset="0.3786" style="stop-color:#6E4B2D"/>
				<stop  offset="0.6514" style="stop-color:#876448"/>
				<stop  offset="0.8675" style="stop-color:#98775B"/>
				<stop  offset="1" style="stop-color:#9E7E63"/>
			</radialGradient>
			<path fill="url(#SVGID_1_)" d="M260.366,7.083c-3.625-1.957-9.963-2.264-13.139-2.317c-42.178-0.619-75.248,29.449-95.797,55.624
				c-4.152,5.283-7.357,12.616-11.111,17.057c-0.52,0.613-2.021-0.061-2.021-0.061s-0.271-10.032-3.863-11.59
				c-10.319-2.081-13.545,9.546-13.545,9.546s-1.332,0.216-1.502-0.175c-5.797-17.156-40.104-57.794-66.845-68.86
				C43.901,2.727,32.791,0.044,23.071,0h-0.523c-3.066,0.012-5.984,0.299-8.634,0.901C8.754,2.079,4.241,9.368,3.101,14.04
				c-0.754,3.037-0.979,8.136-0.771,10.045c0.532,4.883,4.922,8.486,5.406,14.68c0.401,5.104-2.884,7.796-0.771,13.906
				c-4.421,3.752-2.597,9.218-3.861,16.224C2.399,72.733,0.03,74.694,0,77.084v0.087c0.004,0.07,0.004,0.145,0.009,0.221
				c0.465,6.471,8.459,9.912,8.5,16.227c5.254,3.501,12.896,4.615,21.631,4.637c-4.553,4.974-10.621,8.438-13.906,14.675
				c-2.053,14.546-4.12,32.468,5.41,40.945c-0.166,4.802,2.574,6.693,3.09,10.813c6.539,1.958,7.119,9.88,10.813,14.684
				c5.977,1.231,9.252,5.172,10.817,10.814c8.491,1.038,11.68,7.376,16.226,12.358c5.836-0.948,8.266,1.604,10.449,4.152
				c1.917,2.233,3.65,4.474,7.32,4.349c4.962-0.164,8.642-7.365,11.586-11.589c3.597-5.161,7.377-9.99,9.271-14.678
				c3.008,0.409,5.182-2.449,6.953-4.641c4.34-5.333,8.529-12.258,10.817-19.31c1.726-5.323,1.489-12.115,5.079-16.587
				c0.314-0.239,0.285-1.015,0.972-1.021c0.685-0.01,0.522,0.758,0.576,1.233c1.209,9.967-1.966,37.699,11.139,24.869
				c0.488-8.622-0.902-19.129,0.557-26.789c0.063-0.35,0.967-0.142,1.098,0.257c3.084,9.337,0.645,20.808,3.76,29.624
				c1.545,4.369,5.51,6.448,5.404,10.815c10.713,3.318,9.908,29.886,23.174,29.357c6.928-0.276,6.482-9.454,17.771-6.954
				c2.818-2.585,5.846-4.964,7.723-8.497c2.545-0.547,4.938-1.248,7.725-1.546c4.008-4.492,6.295-10.713,13.91-11.589
				c2.199-2.762,1.697-6.573,4.635-10.047c2.006-2.377,5.977-2.762,7.729-5.408c1.135-1.699,0.584-5.511,2.316-8.5
				c1.752-3.017,5.619-4.447,6.18-7.726c0.783-4.521,3.039-13.393,3.088-15.454c0.082-3.119-2.305-7.396-2.316-11.586
				c0-2.153,1.129-4.492,0.771-6.181c-1.402-6.512-9.119-9.672-10.816-14.679c7.311,0.793,15.348,1.795,20.861-1.545
				c3.264-1.978,3.057-5.099,5.41-8.498c2.67-3.855,6.354-5.43,6.953-10.047c0.277-2.171-2.283-5.149-2.318-8.496
				c-0.033-2.74,1.773-4.805,1.547-6.954c-0.393-3.71-3.318-6.971-3.861-10.044c2.518-2.917,1.641-10.61,0.771-14.678
				c2.287-5.061,8.16-9.873,9.271-14.681C269.729,22.409,266.125,10.185,260.366,7.083z"/>
		</g>
	</g>
	<path fill="#FFFFFF" d="M70.981,125.929v1.354H43.937v-1.354h1.717c1.498,0,2.703-0.271,3.619-0.81
		c0.66-0.359,1.168-0.98,1.524-1.854c0.281-0.621,0.415-2.242,0.415-4.869v-34.12c0-2.678-0.134-4.351-0.415-5.021
		c-0.282-0.67-0.844-1.254-1.698-1.758c-0.849-0.5-1.996-0.752-3.445-0.752h-1.717v-1.354h27.041v1.353h-1.703
		c-1.489,0-2.691,0.271-3.598,0.81c-0.658,0.362-1.176,0.98-1.553,1.856c-0.277,0.617-0.415,2.241-0.415,4.867v34.124
		c0,2.679,0.146,4.351,0.437,5.021c0.291,0.668,0.855,1.257,1.707,1.757c0.842,0.499,1.988,0.753,3.425,0.753L70.981,125.929
		L70.981,125.929z"/>
	<path fill="#FFFFFF" d="M105.329,127.284H74.794v-0.842c9.401-11.133,15.102-18.621,17.096-22.47
		c1.994-3.846,2.998-7.602,2.998-11.27c0-2.677-0.836-4.9-2.496-6.669c-1.66-1.773-3.69-2.655-6.096-2.655
		c-3.938,0-6.988,1.96-9.162,5.88l-1.416-0.495c1.375-4.899,3.467-8.524,6.275-10.872c2.802-2.347,6.044-3.522,9.716-3.522
		c2.627,0,5.026,0.61,7.194,1.834c2.17,1.22,3.863,2.897,5.09,5.023c1.222,2.126,1.834,4.12,1.834,5.98
		c0,3.389-0.941,6.829-2.834,10.319c-2.581,4.713-8.21,11.289-16.893,19.719h11.217c2.757,0,4.549-0.115,5.377-0.345
		c0.83-0.229,1.513-0.616,2.048-1.161c0.536-0.544,1.239-1.696,2.104-3.452h1.363L105.329,127.284z"/>
	<path fill="#FFFFFF" d="M186.147,74.235l0.453,17.253h-1.547c-0.742-4.314-2.559-7.786-5.455-10.414
		c-2.893-2.626-6.025-3.94-9.393-3.94c-2.604,0-4.662,0.695-6.184,2.078c-1.52,1.388-2.273,2.982-2.273,4.792
		c0,1.146,0.266,2.162,0.803,3.053c0.742,1.196,1.926,2.378,3.559,3.548c1.199,0.842,3.965,2.327,8.299,4.463
		c6.068,2.979,10.156,5.792,12.273,8.438c2.088,2.651,3.137,5.679,3.137,9.092c0,4.331-1.689,8.053-5.08,11.171
		c-3.385,3.123-7.68,4.685-12.889,4.685c-1.641,0-3.188-0.17-4.645-0.502c-1.459-0.333-3.279-0.961-5.479-1.887
		c-1.229-0.515-2.242-0.768-3.031-0.768c-0.666,0-1.371,0.26-2.104,0.78c-0.744,0.519-1.346,1.307-1.809,2.375h-1.35v-19.573h1.35
		c1.131,5.479,3.293,9.667,6.51,12.545c3.205,2.879,6.664,4.322,10.371,4.322c2.861,0,5.146-0.778,6.85-2.333
		c1.699-1.55,2.545-3.358,2.545-5.415c0-1.22-0.324-2.404-0.971-3.55c-0.658-1.146-1.641-2.232-2.969-3.264
		c-1.324-1.025-3.672-2.371-7.037-4.026c-4.719-2.312-8.107-4.286-10.172-5.914c-2.059-1.628-3.645-3.451-4.748-5.459
		c-1.105-2.012-1.656-4.227-1.656-6.647c0-4.125,1.516-7.638,4.539-10.542c3.031-2.9,6.848-4.353,11.455-4.353
		c1.678,0,3.309,0.205,4.881,0.61c1.195,0.305,2.648,0.865,4.373,1.694c1.715,0.824,2.92,1.237,3.604,1.237
		c0.662,0,1.186-0.204,1.564-0.611c0.379-0.405,0.736-1.383,1.066-2.932h1.164v-0.004h-0.008v-0.002H186.147z"/>
	<path fill="#FFFFFF" d="M225.456,127.284h-30.529v-0.842c9.396-11.133,15.1-18.621,17.092-22.47
		c1.996-3.846,2.992-7.602,2.992-11.27c0-2.677-0.832-4.9-2.49-6.669c-1.66-1.773-3.695-2.655-6.096-2.655
		c-3.941,0-6.992,1.96-9.164,5.88l-1.418-0.495c1.379-4.899,3.473-8.524,6.273-10.872c2.803-2.347,6.045-3.522,9.717-3.522
		c2.623,0,5.023,0.61,7.195,1.834c2.168,1.22,3.861,2.897,5.092,5.023c1.221,2.126,1.836,4.12,1.836,5.98
		c0,3.389-0.947,6.829-2.838,10.319c-2.578,4.713-8.207,11.289-16.891,19.719h11.209c2.762,0,4.557-0.115,5.383-0.345
		c0.83-0.229,1.512-0.616,2.047-1.161c0.535-0.544,1.236-1.696,2.105-3.452h1.361L225.456,127.284z"/>
</g>
</svg>
