<?xml version="1.0" encoding="utf-8"?>
<!-- Generator: Adobe Illustrator 22.0.1, SVG Export Plug-In . SVG Version: 6.00 Build 0)  -->
<svg version="1.1" id="Layer_1" xmlns="http://www.w3.org/2000/svg" xmlns:xlink="http://www.w3.org/1999/xlink" x="0px" y="0px"
	 width="765.937px" height="283.465px" viewBox="0 0 765.937 283.465" enable-background="new 0 0 765.937 283.465"
	 xml:space="preserve">
<path fill="#1E2171" d="M406.083,0c-40.349,0-73.058,32.653-73.058,72.931c0,40.28,32.709,72.933,73.058,72.933
	c40.348,0,73.057-32.653,73.057-72.933C479.14,32.653,446.431,0,406.083,0z M447.469,121.549c-1.09-1.333-3.042-1.573-4.416-0.518
	c-1.378,1.052-1.649,3.003-0.636,4.397c-2.828,1.955-5.818,3.691-8.952,5.177c-0.7-1.581-2.534-2.328-4.143-1.661
	c-1.607,0.663-2.377,2.485-1.749,4.098c-3.221,1.148-6.563,2.036-9.999,2.659c-0.272-1.701-1.844-2.889-3.565-2.66
	c-1.718,0.225-2.927,1.772-2.753,3.482c-1.708,0.137-3.429,0.226-5.172,0.226c-1.744,0-3.466-0.089-5.174-0.226
	c0.176-1.711-1.035-3.257-2.754-3.482c-1.718-0.229-3.292,0.959-3.564,2.66c-3.435-0.623-6.777-1.511-9.998-2.658
	c0.627-1.612-0.143-3.435-1.75-4.098c-1.608-0.666-3.442,0.08-4.143,1.661c-3.134-1.486-6.123-3.222-8.951-5.176
	c1.013-1.394,0.741-3.345-0.637-4.397c-1.374-1.055-3.327-0.816-4.416,0.518c-2.63-2.234-5.076-4.675-7.314-7.301
	c1.333-1.086,1.575-3.037,0.521-4.41c-1.057-1.374-3.011-1.646-4.407-0.635c-1.958-2.823-3.697-5.808-5.186-8.937
	c1.583-0.696,2.332-2.527,1.664-4.134c-0.664-1.606-2.491-2.373-4.105-1.749c-1.149-3.215-2.039-6.55-2.663-9.979
	c1.702-0.271,2.891-1.841,2.666-3.557c-0.227-1.716-1.776-2.925-3.49-2.752c-0.137-1.705-0.226-3.424-0.226-5.165
	c0-1.739,0.089-3.457,0.226-5.161c1.714,0.171,3.263-1.037,3.49-2.751c0.225-1.717-0.964-3.288-2.666-3.56
	c0.624-3.429,1.513-6.765,2.663-9.98c1.614,0.626,3.44-0.142,4.104-1.747c0.668-1.606-0.081-3.437-1.664-4.135
	c1.488-3.129,3.227-6.113,5.185-8.936c1.396,1.01,3.35,0.739,4.408-0.635c1.054-1.373,0.813-3.325-0.521-4.41
	c2.238-2.626,4.684-5.068,7.315-7.302c1.089,1.331,3.042,1.572,4.415,0.52c1.378-1.053,1.65-3.004,0.638-4.399
	c2.828-1.954,5.817-3.69,8.951-5.176c0.701,1.582,2.535,2.326,4.143,1.662c1.606-0.665,2.376-2.485,1.75-4.098
	c3.22-1.148,6.562-2.035,9.998-2.658c0.271,1.699,1.846,2.886,3.564,2.66c1.718-0.225,2.929-1.774,2.754-3.483
	c1.709-0.137,3.43-0.226,5.174-0.226c1.743,0,3.465,0.089,5.172,0.226c-0.173,1.709,1.036,3.258,2.753,3.483
	c1.721,0.226,3.294-0.961,3.565-2.66c3.436,0.623,6.778,1.511,9.998,2.658c-0.627,1.612,0.143,3.433,1.749,4.098
	c1.608,0.664,3.442-0.08,4.143-1.662c3.134,1.486,6.124,3.222,8.952,5.177c-1.013,1.395-0.742,3.345,0.636,4.398
	c1.375,1.052,3.326,0.812,4.416-0.519c2.631,2.234,5.077,4.676,7.314,7.302c-1.334,1.085-1.575,3.037-0.521,4.409
	c1.057,1.374,3.012,1.645,4.407,0.636c1.958,2.823,3.697,5.808,5.185,8.936c-1.584,0.698-2.331,2.529-1.666,4.134
	c0.666,1.604,2.492,2.373,4.106,1.747c1.15,3.215,2.039,6.551,2.663,9.98c-1.702,0.272-2.89,1.842-2.664,3.559
	c0.227,1.714,1.776,2.923,3.488,2.751c0.137,1.704,0.226,3.422,0.226,5.161c0,1.741-0.09,3.459-0.226,5.165
	c-1.713-0.174-3.261,1.035-3.488,2.751c-0.225,1.715,0.963,3.285,2.664,3.556c-0.624,3.429-1.513,6.765-2.662,9.979
	c-1.615-0.624-3.441,0.144-4.107,1.749c-0.664,1.607,0.082,3.437,1.666,4.134c-1.488,3.129-3.227,6.113-5.185,8.937
	c-1.396-1.01-3.35-0.739-4.407,0.635c-1.055,1.373-0.813,3.323,0.52,4.409C452.545,116.874,450.1,119.315,447.469,121.549z"/>
<g>
	<polygon fill="#1E2171" points="391.399,93.944 374.121,128.197 395.195,96.131 398.035,89.505 396.18,89.505 396.18,87.574 	"/>
	<path fill="#1E2171" d="M408.322,75.179c0.64-0.635,0.923-1.323,0.923-2.236c0-0.561-0.142-1.076-0.445-1.62
		c-0.277-0.495-0.62-0.831-1.106-1.093c-0.553-0.299-1.069-0.437-1.616-0.437c-0.539,0-1.049,0.14-1.608,0.439
		c-0.484,0.26-0.821,0.594-1.1,1.089c-0.306,0.548-0.448,1.063-0.448,1.622c0,0.909,0.285,1.599,0.926,2.238
		c0.641,0.642,1.327,0.927,2.23,0.927C406.989,76.107,407.678,75.822,408.322,75.179z"/>
	<polygon fill="#1E2171" points="402.44,89.505 400.365,89.505 397.347,97.021 389.539,134.572 401.583,98.154 402.44,92.184 	"/>
	<path fill="#1E2171" d="M398.878,87.537l1.392-3.249c0.6,0.307,1.225,0.572,1.876,0.782l-0.99,2.466h1.951l0.305-2.127
		c0.655,0.139,1.33,0.216,2.018,0.251l-0.942,7.839h3.191l-0.942-7.839c0.687-0.035,1.362-0.112,2.017-0.25l0.305,2.126h1.95
		l-0.99-2.466c0.651-0.21,1.276-0.475,1.876-0.782l1.392,3.248h0.686v-2.643l-0.498-0.664h-5.75v-3.095
		c1.708-0.314,3.198-1.136,4.442-2.446c1.525-1.606,2.296-3.544,2.296-5.759c0-1.44-0.366-2.835-1.096-4.145
		c-0.738-1.33-1.79-2.381-3.12-3.123c-1.314-0.731-2.713-1.103-4.155-1.103c-1.454,0-2.855,0.37-4.162,1.095
		c-1.329,0.737-2.377,1.788-3.12,3.121c-0.734,1.314-1.104,2.714-1.104,4.154c0,1.486,0.389,2.91,1.156,4.234
		c0.772,1.336,1.831,2.371,3.147,3.07c0.828,0.447,1.635,0.749,2.406,0.906v3.091h-5.723l-0.537,0.715v2.592H398.878z
		 M402.451,76.573c-1.009-1.007-1.504-2.197-1.504-3.631c0-0.895,0.231-1.741,0.702-2.582c0.456-0.818,1.073-1.427,1.887-1.865
		c0.844-0.452,1.672-0.672,2.542-0.672c0.876,0,1.712,0.22,2.554,0.672c0.813,0.438,1.429,1.047,1.887,1.865
		c0.472,0.841,0.7,1.687,0.7,2.582c0,1.434-0.49,2.623-1.504,3.631c-1.01,1.013-2.202,1.504-3.637,1.504
		C404.648,78.078,403.466,77.587,402.451,76.573z"/>
	<polygon fill="#1E2171" points="415.947,87.523 415.947,87.537 415.947,89.505 414.13,89.505 416.969,96.131 438.045,128.197 
		420.766,93.944 	"/>
	<polygon fill="#1E2171" points="407.724,95.472 404.414,95.472 404.251,95.472 403.892,98.456 406.083,136.747 408.275,98.456 
		407.917,95.472 	"/>
	<path fill="#1E2171" d="M430.216,81.651l37.614,7.797l-36.481-12.024l-12.763-1.827c0.139-0.653,0.216-1.328,0.251-2.014
		l12.816,1.535l38.355-2.188l-38.355-2.188l-12.816,1.536c-0.035-0.686-0.112-1.361-0.251-2.014l12.763-1.827l36.481-12.023
		l-37.614,7.798L418.245,69c-0.211-0.65-0.476-1.274-0.784-1.873l11.861-5.063l32.123-21.041L427.13,58.273l-10.323,7.721
		c-0.37-0.569-0.788-1.102-1.242-1.604l10.149-7.961l25.57-28.623l-28.671,25.526l-7.973,10.133
		c-0.503-0.454-1.039-0.871-1.61-1.242l7.736-10.307l17.278-34.254l-21.075,32.067l-5.074,11.841
		c-0.601-0.307-1.226-0.572-1.877-0.782l4.797-11.949l7.812-37.551l-12.046,36.417l-1.83,12.743
		c-0.654-0.139-1.329-0.216-2.016-0.25l1.538-12.796l-2.192-38.289l-2.191,38.289L405.43,60.2c-0.687,0.035-1.363,0.112-2.018,0.251
		l-1.83-12.743L389.539,11.29l7.808,37.551l4.8,11.949c-0.651,0.21-1.276,0.475-1.877,0.782l-5.074-11.842l-21.074-32.067
		l17.278,34.254l7.736,10.308c-0.571,0.37-1.106,0.788-1.609,1.241l-7.974-10.134l-28.671-25.526l25.571,28.623L396.6,64.39
		c-0.454,0.502-0.871,1.035-1.242,1.604l-10.323-7.721l-34.314-17.251l32.122,21.041l11.861,5.063
		c-0.308,0.599-0.573,1.223-0.784,1.873l-11.97-4.788l-37.615-7.798l36.48,12.023l12.765,1.827
		c-0.139,0.654-0.216,1.328-0.251,2.014l-12.816-1.536l-38.356,2.188l38.356,2.188l12.816-1.535
		c0.035,0.686,0.112,1.361,0.251,2.014l-12.765,1.827l-36.48,12.024l37.615-7.797l11.97-4.79c0.211,0.65,0.476,1.273,0.784,1.873
		l-11.861,5.065l-32.122,21.041l34.314-17.248l10.323-7.724c0.371,0.569,0.788,1.103,1.243,1.605l-10.15,7.96l-25.571,28.622
		l28.671-25.527l6.628-8.422v-1.849h1.974h3.49c-0.189-0.091-0.375-0.183-0.564-0.285c-1.645-0.876-2.969-2.163-3.929-3.823
		c-0.944-1.629-1.419-3.386-1.419-5.22c0-1.783,0.456-3.503,1.352-5.112c0.926-1.662,2.236-2.97,3.887-3.887
		c1.609-0.89,3.33-1.342,5.122-1.342c1.781,0,3.503,0.454,5.119,1.352c1.659,0.928,2.967,2.236,3.877,3.885
		c0.896,1.6,1.348,3.318,1.348,5.104c0,2.739-0.953,5.133-2.836,7.111c-0.898,0.948-1.902,1.687-3.005,2.217h3.378h1.974v1.799
		l6.667,8.471l28.671,25.527l-25.57-28.622l-10.15-7.96c0.454-0.502,0.872-1.036,1.243-1.605l10.323,7.724l34.315,17.248
		l-32.123-21.041l-11.86-5.065c0.308-0.6,0.573-1.224,0.784-1.873L430.216,81.651z"/>
	<polygon fill="#1E2171" points="411.799,89.505 409.699,89.505 409.699,91.997 410.583,98.154 422.628,134.572 414.816,97.021 	"/>
</g>
<path fill="#1E2171" d="M10.478,139.625c-0.84-0.45-1.677-0.672-2.554-0.672c-0.869,0-1.699,0.222-2.542,0.672
	c-0.814,0.437-1.431,1.048-1.887,1.867c-0.359,0.642-0.534,1.296-0.617,1.966h10.107c-0.082-0.67-0.257-1.325-0.617-1.966
	C11.908,140.673,11.292,140.063,10.478,139.625z"/>
<path fill="#1E2171" d="M37.547,118.753v3.093h6.21v-8.367c-0.382,1.028-0.963,1.976-1.769,2.825
	C40.743,117.616,39.255,118.435,37.547,118.753z"/>
<path fill="#1E2171" d="M41.04,110.559c0-0.893-0.227-1.741-0.697-2.582c-0.46-0.817-1.076-1.427-1.89-1.865
	c-0.84-0.45-1.677-0.672-2.554-0.672c-0.869,0-1.698,0.222-2.542,0.672c-0.814,0.437-1.43,1.047-1.887,1.865
	c-0.47,0.841-0.699,1.689-0.699,2.582c0,1.436,0.493,2.624,1.504,3.633c1.014,1.011,2.198,1.502,3.625,1.502
	c1.436,0,2.627-0.492,3.638-1.502C40.551,113.182,41.04,111.994,41.04,110.559z"/>
<path fill="#1E2171" d="M41.04,77.045c0-0.894-0.227-1.741-0.697-2.582c-0.46-0.818-1.076-1.428-1.89-1.864
	c-0.84-0.453-1.677-0.674-2.554-0.674c-0.869,0-1.698,0.221-2.542,0.674c-0.814,0.436-1.43,1.047-1.887,1.864
	c-0.47,0.841-0.699,1.688-0.699,2.582c0,1.435,0.493,2.623,1.504,3.632c1.014,1.011,2.198,1.501,3.625,1.501
	c1.436,0,2.627-0.489,3.638-1.501C40.551,79.669,41.04,78.48,41.04,77.045z"/>
<path fill="#1E2171" d="M37.547,85.239v3.093h6.21v-8.369c-0.382,1.03-0.963,1.978-1.769,2.828
	C40.743,84.102,39.255,84.921,37.547,85.239z"/>
<path fill="#1E2171" d="M41.04,43.531c0-0.893-0.227-1.741-0.697-2.583c-0.46-0.817-1.076-1.427-1.89-1.863
	c-0.84-0.453-1.677-0.675-2.554-0.675c-0.869,0-1.698,0.221-2.542,0.675c-0.814,0.436-1.43,1.046-1.887,1.863
	c-0.47,0.842-0.699,1.689-0.699,2.583c0,1.434,0.493,2.623,1.504,3.631c1.014,1.013,2.198,1.504,3.625,1.504
	c1.436,0,2.627-0.491,3.638-1.504C40.551,46.155,41.04,44.965,41.04,43.531z"/>
<path fill="#1E2171" d="M37.547,51.723v3.095h6.21v-8.367c-0.382,1.028-0.963,1.975-1.769,2.825
	C40.743,50.588,39.255,51.408,37.547,51.723z"/>
<path fill="#1E2171" d="M37.547,24.611v5.965h-3.311v-5.965h-6.259v-3.306h6.259v-3.092c-0.771-0.158-1.577-0.459-2.406-0.904
	c-1.315-0.7-2.375-1.735-3.148-3.071c-0.766-1.323-1.155-2.747-1.155-4.233c0-1.442,0.37-2.84,1.103-4.155
	c0.745-1.333,1.793-2.384,3.121-3.121c0.222-0.123,0.449-0.221,0.676-0.324H11.404c0.231,0.104,0.462,0.206,0.688,0.331
	c1.33,0.742,2.382,1.794,3.119,3.123c0.728,1.309,1.095,2.703,1.095,4.145c0,2.215-0.772,4.152-2.294,5.757
	c-1.245,1.313-2.733,2.133-4.441,2.448v3.095h6.245v3.306H9.571v5.965H6.259v-5.965H0.001v-3.306h6.258v-3.092
	c-0.77-0.158-1.576-0.459-2.406-0.904c-1.315-0.7-2.375-1.735-3.147-3.071C0.408,13.721,0.183,13.183,0,12.639v28.243
	c0.172-0.515,0.38-1.027,0.655-1.519c0.744-1.333,1.792-2.384,3.12-3.121c1.309-0.725,2.709-1.095,4.163-1.095
	c1.443,0,2.841,0.372,4.155,1.102c1.33,0.744,2.382,1.794,3.119,3.123c0.728,1.309,1.095,2.704,1.095,4.145
	c0,2.215-0.772,4.153-2.294,5.758c-1.245,1.311-2.733,2.132-4.441,2.447v3.095h6.245v3.306H9.571v5.965H6.259v-5.965H0.001v-3.306
	h6.258v-3.091c-0.77-0.157-1.576-0.46-2.406-0.905c-1.315-0.7-2.375-1.735-3.147-3.071C0.408,47.234,0.183,46.697,0,46.153v28.243
	c0.172-0.515,0.38-1.025,0.655-1.519c0.744-1.333,1.792-2.383,3.12-3.121c1.309-0.725,2.709-1.095,4.163-1.095
	c1.443,0,2.841,0.372,4.155,1.102c1.33,0.744,2.382,1.794,3.119,3.123c0.728,1.309,1.095,2.704,1.095,4.145
	c0,2.215-0.772,4.152-2.294,5.759c-1.245,1.311-2.733,2.13-4.441,2.448v3.093h6.245v3.306H9.571v5.967H6.259v-5.967H0.001v-3.306
	h6.258v-3.089c-0.77-0.158-1.576-0.462-2.406-0.905c-1.315-0.701-2.375-1.738-3.147-3.072C0.408,80.749,0.183,80.209,0,79.667
	v28.244c0.172-0.516,0.38-1.027,0.655-1.52c0.744-1.333,1.792-2.384,3.12-3.12c1.309-0.726,2.709-1.094,4.163-1.094
	c1.443,0,2.841,0.37,4.155,1.101c1.33,0.742,2.382,1.794,3.119,3.123c0.728,1.309,1.095,2.704,1.095,4.145
	c0,2.215-0.772,4.153-2.294,5.759c-1.245,1.312-2.733,2.13-4.441,2.448v3.093h6.245v3.305H9.571v5.967H6.259v-5.967H0.001v-3.305
	h6.258v-3.09c-0.77-0.16-1.576-0.462-2.406-0.905c-1.315-0.701-2.375-1.737-3.147-3.072c-0.299-0.516-0.524-1.056-0.707-1.598
	v28.244c0.172-0.516,0.38-1.024,0.655-1.52c0.744-1.332,1.792-2.384,3.12-3.12c1.309-0.726,2.709-1.094,4.163-1.094
	c1.443,0,2.841,0.37,4.155,1.102c1.33,0.741,2.382,1.793,3.119,3.122c0.626,1.124,0.968,2.315,1.057,3.544h11.297
	c0.09-1.229,0.434-2.423,1.064-3.554c0.745-1.332,1.793-2.384,3.121-3.12c1.309-0.726,2.708-1.094,4.161-1.094
	c1.444,0,2.841,0.37,4.157,1.102c1.33,0.741,2.382,1.793,3.118,3.122c0.23,0.416,0.411,0.839,0.57,1.271v-16.035h-6.21v5.967h-3.311
	v-5.967h-6.259v-3.305h6.259v-3.09c-0.771-0.16-1.577-0.462-2.406-0.905c-1.315-0.701-2.375-1.737-3.148-3.072
	c-0.766-1.323-1.155-2.747-1.155-4.233c0-1.44,0.37-2.839,1.103-4.155c0.745-1.333,1.793-2.384,3.121-3.12
	c1.309-0.726,2.708-1.094,4.161-1.094c1.444,0,2.841,0.37,4.157,1.101c1.33,0.742,2.382,1.794,3.118,3.123
	c0.23,0.413,0.411,0.839,0.57,1.271V91.637h-6.21v5.967h-3.311v-5.967h-6.259v-3.306h6.259v-3.089
	c-0.771-0.158-1.577-0.462-2.406-0.905c-1.315-0.701-2.375-1.738-3.148-3.072c-0.766-1.325-1.155-2.747-1.155-4.233
	c0-1.441,0.37-2.84,1.103-4.155c0.745-1.333,1.793-2.383,3.121-3.121c1.309-0.725,2.708-1.095,4.161-1.095
	c1.444,0,2.841,0.372,4.157,1.102c1.33,0.744,2.382,1.794,3.118,3.123c0.23,0.414,0.411,0.84,0.57,1.27V58.124h-6.21v5.965h-3.311
	v-5.965h-6.259v-3.306h6.259v-3.091c-0.771-0.157-1.577-0.46-2.406-0.905c-1.315-0.7-2.375-1.735-3.148-3.071
	c-0.766-1.323-1.155-2.748-1.155-4.234c0-1.44,0.37-2.84,1.103-4.154c0.745-1.333,1.793-2.384,3.121-3.121
	c1.309-0.725,2.708-1.095,4.161-1.095c1.444,0,2.841,0.372,4.157,1.102c1.33,0.744,2.382,1.794,3.118,3.123
	c0.23,0.414,0.411,0.84,0.57,1.27V24.611H37.547z"/>
<path fill="#1E2171" d="M40.343,141.492c-0.46-0.819-1.076-1.429-1.89-1.867c-0.84-0.45-1.677-0.672-2.554-0.672
	c-0.869,0-1.698,0.222-2.542,0.672c-0.814,0.437-1.43,1.048-1.887,1.867c-0.359,0.642-0.534,1.296-0.617,1.966h10.107
	C40.877,142.788,40.702,142.134,40.343,141.492z"/>
<path fill="#1E2171" d="M40.069,2.736c1.33,0.742,2.382,1.794,3.118,3.123c0.23,0.413,0.411,0.84,0.57,1.27V2.405H39.38
	C39.611,2.509,39.842,2.611,40.069,2.736z"/>
<path fill="#1E2171" d="M37.547,18.209v3.095h6.21v-8.367c-0.382,1.028-0.963,1.975-1.769,2.823
	C40.743,17.074,39.255,17.894,37.547,18.209z"/>
<path fill="#1E2171" d="M31.469,7.435c-0.47,0.841-0.699,1.688-0.699,2.583c0,1.434,0.493,2.623,1.504,3.632
	c1.014,1.011,2.198,1.503,3.625,1.503c1.436,0,2.627-0.492,3.638-1.503c1.014-1.008,1.503-2.198,1.503-3.632
	c0-0.894-0.227-1.741-0.697-2.583c-0.46-0.817-1.076-1.427-1.89-1.864c-0.84-0.453-1.677-0.674-2.554-0.674
	c-0.869,0-1.698,0.22-2.542,0.674C32.543,6.007,31.927,6.618,31.469,7.435z"/>
<path fill="#1E2171" d="M0.655,5.849c0.744-1.333,1.792-2.384,3.12-3.121c0.223-0.123,0.45-0.221,0.677-0.324H0v4.963
	C0.172,6.852,0.38,6.342,0.655,5.849z"/>
<path fill="#1E2171" d="M7.924,115.694c1.436,0,2.627-0.492,3.638-1.502c1.014-1.01,1.503-2.198,1.503-3.633
	c0-0.893-0.227-1.741-0.698-2.582c-0.459-0.817-1.075-1.427-1.889-1.865c-0.84-0.45-1.677-0.672-2.554-0.672
	c-0.869,0-1.699,0.222-2.542,0.672c-0.814,0.437-1.431,1.047-1.887,1.865c-0.47,0.841-0.699,1.689-0.699,2.582
	c0,1.436,0.493,2.624,1.504,3.633C5.312,115.202,6.496,115.694,7.924,115.694z"/>
<path fill="#1E2171" d="M7.924,82.178c1.436,0,2.627-0.489,3.638-1.501c1.014-1.009,1.503-2.198,1.503-3.632
	c0-0.894-0.227-1.741-0.698-2.582c-0.459-0.818-1.075-1.428-1.889-1.864c-0.84-0.453-1.677-0.674-2.554-0.674
	c-0.869,0-1.699,0.221-2.542,0.674c-0.814,0.436-1.431,1.047-1.887,1.864c-0.47,0.841-0.699,1.688-0.699,2.582
	c0,1.435,0.493,2.623,1.504,3.632C5.312,81.689,6.496,82.178,7.924,82.178z"/>
<path fill="#1E2171" d="M7.924,48.666c1.436,0,2.627-0.491,3.638-1.504c1.014-1.008,1.503-2.197,1.503-3.631
	c0-0.893-0.227-1.741-0.698-2.583c-0.459-0.817-1.075-1.427-1.889-1.863c-0.84-0.453-1.677-0.675-2.554-0.675
	c-0.869,0-1.699,0.221-2.542,0.675c-0.814,0.436-1.431,1.046-1.887,1.863c-0.47,0.842-0.699,1.689-0.699,2.583
	c0,1.434,0.493,2.623,1.504,3.631C5.312,48.175,6.496,48.666,7.924,48.666z"/>
<path fill="#1E2171" d="M3.494,7.435c-0.47,0.841-0.699,1.688-0.699,2.583c0,1.434,0.493,2.623,1.504,3.632
	c1.014,1.011,2.198,1.503,3.625,1.503c1.436,0,2.627-0.492,3.638-1.503c1.014-1.008,1.503-2.198,1.503-3.632
	c0-0.894-0.227-1.741-0.698-2.583c-0.459-0.817-1.075-1.427-1.889-1.864c-0.84-0.453-1.677-0.674-2.554-0.674
	c-0.869,0-1.699,0.22-2.542,0.674C4.568,6.007,3.95,6.618,3.494,7.435z"/>
<path fill="#1E2171" d="M119.569,71.957c-0.775,0.041-1.526,0.235-2.285,0.642c-0.814,0.436-1.43,1.047-1.887,1.864
	c-0.47,0.841-0.699,1.688-0.699,2.582c0,0.079,0.018,0.15,0.02,0.227c0.433-0.821,0.896-1.583,1.422-2.224
	C117.171,73.796,118.318,72.776,119.569,71.957z"/>
<path fill="#1E2171" d="M123.463,47.162c0.972-0.965,1.448-2.105,1.488-3.46c-2.264,1.243-4.519,2.81-6.76,4.689
	c0.509,0.171,1.047,0.275,1.635,0.275C121.262,48.666,122.453,48.175,123.463,47.162z"/>
<path fill="#1E2171" d="M178.331,139.625c-0.84-0.45-1.678-0.672-2.555-0.672c-0.869,0-1.698,0.222-2.542,0.672
	c-0.813,0.437-1.43,1.048-1.886,1.867c-0.359,0.642-0.535,1.296-0.618,1.966h9.986v-0.77c-0.115-0.405-0.274-0.802-0.495-1.196
	C179.762,140.673,179.145,140.063,178.331,139.625z"/>
<path fill="#1E2171" d="M94.404,139.625c-0.84-0.45-1.678-0.672-2.554-0.672c-0.87,0-1.699,0.222-2.542,0.672
	c-0.814,0.437-1.431,1.048-1.887,1.867c-0.359,0.642-0.534,1.296-0.618,1.966H96.91c-0.082-0.67-0.257-1.325-0.617-1.966
	C95.835,140.673,95.218,140.063,94.404,139.625z"/>
<path fill="#1E2171" d="M86.72,43.531c0,1.434,0.494,2.623,1.505,3.631c1.013,1.013,2.197,1.504,3.625,1.504
	c1.436,0,2.627-0.491,3.638-1.504c1.014-1.008,1.503-2.197,1.503-3.631c0-0.779-0.207-1.519-0.563-2.255h-9.143
	C86.929,42.012,86.72,42.752,86.72,43.531z"/>
<path fill="#1E2171" d="M145.523,38.979c-0.087,0.043-0.175,0.058-0.264,0.106c-0.814,0.436-1.43,1.046-1.886,1.863
	c-0.471,0.842-0.7,1.689-0.7,2.583c0,1.434,0.493,2.623,1.504,3.631c1.014,1.013,2.198,1.504,3.625,1.504
	c1.436,0,2.627-0.491,3.637-1.504c1.014-1.008,1.504-2.197,1.504-3.631c0-0.893-0.228-1.741-0.698-2.583
	c-0.43-0.766-1.017-1.339-1.759-1.769c-1.447-0.129-2.927-0.212-4.468-0.212C145.85,38.967,145.69,38.977,145.523,38.979z"/>
<path fill="#1E2171" d="M178.331,72.599c-0.84-0.453-1.678-0.674-2.555-0.674c-0.869,0-1.698,0.221-2.542,0.674
	c-0.813,0.436-1.43,1.047-1.886,1.864c-0.471,0.841-0.7,1.688-0.7,2.582c0,1.435,0.494,2.623,1.505,3.632
	c1.013,1.011,2.197,1.501,3.625,1.501c1.437,0,2.628-0.489,3.638-1.501c0.658-0.657,1.072-1.396,1.298-2.219
	c0-1.04-0.051-2.021-0.088-3.018c-0.111-0.327-0.224-0.655-0.404-0.978C179.762,73.645,179.145,73.035,178.331,72.599z"/>
<path fill="#1E2171" d="M180.715,83.796c-0.982,0.726-2.078,1.217-3.29,1.443v3.093h3.29V83.796z"/>
<path fill="#1E2171" d="M178.331,106.112c-0.84-0.45-1.678-0.672-2.555-0.672c-0.869,0-1.698,0.222-2.542,0.672
	c-0.813,0.437-1.43,1.047-1.886,1.865c-0.471,0.841-0.7,1.689-0.7,2.582c0,1.436,0.494,2.624,1.505,3.633
	c1.013,1.011,2.197,1.502,3.625,1.502c1.437,0,2.628-0.492,3.638-1.502c0.659-0.659,1.074-1.401,1.3-2.225v-2.792
	c-0.115-0.405-0.274-0.802-0.495-1.198C179.762,107.159,179.145,106.549,178.331,106.112z"/>
<path fill="#1E2171" d="M180.715,117.31c-0.982,0.726-2.078,1.217-3.29,1.442v3.093h3.29V117.31z"/>
<path fill="#1E2171" d="M150.355,139.625c-0.839-0.45-1.677-0.672-2.554-0.672c-0.87,0-1.698,0.222-2.542,0.672
	c-0.814,0.437-1.43,1.048-1.886,1.867c-0.36,0.642-0.535,1.296-0.618,1.966h10.107c-0.082-0.67-0.257-1.325-0.616-1.966
	C151.786,140.673,151.169,140.063,150.355,139.625z"/>
<path fill="#1E2171" d="M140.924,81.774c0.238,1.651,0.371,3.469,0.371,5.493v1.065h4.843v-3.089
	c-0.771-0.158-1.576-0.462-2.406-0.905C142.594,83.73,141.66,82.86,140.924,81.774z"/>
<path fill="#1E2171" d="M147.801,82.178c1.436,0,2.627-0.489,3.637-1.501c1.014-1.009,1.504-2.198,1.504-3.632
	c0-0.894-0.228-1.741-0.698-2.582c-0.459-0.818-1.076-1.428-1.89-1.864c-0.839-0.453-1.677-0.674-2.554-0.674
	c-0.87,0-1.698,0.221-2.542,0.674c-0.814,0.436-1.43,1.047-1.886,1.864c-0.471,0.841-0.7,1.688-0.7,2.582
	c0,1.435,0.493,2.623,1.504,3.632C145.189,81.689,146.373,82.178,147.801,82.178z"/>
<path fill="#1E2171" d="M140.532,72.877c0.745-1.333,1.793-2.383,3.121-3.121c1.309-0.725,2.708-1.095,4.161-1.095
	c1.444,0,2.842,0.372,4.157,1.102c1.33,0.744,2.382,1.794,3.118,3.123c0.729,1.309,1.095,2.704,1.095,4.145
	c0,2.215-0.771,4.152-2.294,5.759c-1.245,1.311-2.733,2.13-4.44,2.448v3.093h6.245v3.306h-6.245v5.967h-3.312v-5.967h-4.843v13.638
	c0.646-0.811,1.43-1.491,2.358-2.005c1.309-0.726,2.708-1.094,4.161-1.094c1.444,0,2.842,0.37,4.157,1.101
	c1.33,0.742,2.382,1.794,3.118,3.123c0.729,1.309,1.095,2.704,1.095,4.145c0,2.215-0.771,4.153-2.294,5.759
	c-1.245,1.312-2.733,2.13-4.44,2.448v3.093h6.245v3.305h-6.245v5.967h-3.312v-5.967h-4.843v13.638
	c0.646-0.811,1.43-1.491,2.358-2.005c1.309-0.726,2.708-1.094,4.161-1.094c1.444,0,2.842,0.37,4.157,1.102
	c1.33,0.741,2.382,1.793,3.118,3.122c0.627,1.124,0.968,2.315,1.056,3.544h11.299c0.09-1.229,0.435-2.423,1.063-3.554
	c0.745-1.332,1.793-2.384,3.121-3.12c1.309-0.726,2.708-1.094,4.163-1.094c1.443,0,2.841,0.37,4.155,1.102
	c0.271,0.15,0.521,0.321,0.769,0.498v-12.14h-3.29v5.967h-3.312v-5.967h-6.258v-3.305h6.258v-3.09
	c-0.771-0.16-1.576-0.462-2.406-0.905c-1.315-0.701-2.375-1.737-3.148-3.072c-0.765-1.323-1.154-2.747-1.154-4.233
	c0-1.44,0.37-2.839,1.101-4.155c0.745-1.333,1.793-2.384,3.121-3.12c1.309-0.726,2.708-1.094,4.163-1.094
	c1.443,0,2.841,0.37,4.155,1.101c0.271,0.149,0.521,0.322,0.769,0.499v-12.14h-3.29v5.967h-3.312v-5.967h-6.258v-3.306h6.258v-3.089
	c-0.771-0.158-1.576-0.462-2.406-0.905c-1.315-0.701-2.375-1.738-3.148-3.072c-0.765-1.325-1.154-2.747-1.154-4.233
	c0-1.441,0.37-2.84,1.101-4.155c0.745-1.333,1.793-2.383,3.121-3.121c1.309-0.725,2.708-1.095,4.163-1.095
	c1.443,0,2.841,0.372,4.155,1.102c0.098,0.054,0.181,0.122,0.276,0.179c-0.512-4.389-1.446-8.295-2.797-11.726v5.873h-3.312v-5.965
	h-6.258v-3.306h6.258v-2.904c-0.051-0.075-0.095-0.156-0.147-0.229c-0.727-0.165-1.481-0.444-2.259-0.862
	c-1.315-0.7-2.375-1.735-3.148-3.071c-0.46-0.796-0.767-1.634-0.953-2.493c-3.503-2.572-7.588-4.351-12.255-5.337
	c0.543,1.149,0.832,2.354,0.832,3.597c0,2.215-0.771,4.153-2.294,5.758c-1.245,1.311-2.733,2.132-4.44,2.447v3.095h6.245v3.306
	h-6.245v5.965h-3.312v-5.965h-6.258v-3.306h6.258v-3.091c-0.771-0.157-1.576-0.46-2.406-0.905c-1.315-0.7-2.375-1.735-3.148-3.071
	c-0.765-1.323-1.155-2.748-1.155-4.234c0-1.44,0.371-2.84,1.102-4.154c0.03-0.054,0.068-0.1,0.099-0.151
	c-4.656,0.421-8.837,1.412-12.543,2.968c0.072,0.442,0.121,0.886,0.121,1.337c0,2.215-0.771,4.153-2.294,5.758
	c-1.245,1.311-2.733,2.132-4.441,2.447v3.095h6.245v3.306h-6.245v5.965h-3.311v-5.965h-6.259v-3.306h6.259v-3.091
	c-0.771-0.157-1.577-0.46-2.406-0.905c-0.061-0.032-0.114-0.075-0.172-0.108c-2.202,2.098-4.395,4.49-6.577,7.207V41.276h-9.088
	c0.205,0.732,0.315,1.48,0.315,2.242c0,2.215-0.772,4.153-2.294,5.758c-1.245,1.311-2.734,2.132-4.441,2.447v3.095h6.245v3.306
	h-6.245v5.965h-3.312v-5.965h-6.259v-3.306h6.259v-3.091c-0.77-0.157-1.576-0.46-2.406-0.905c-1.315-0.7-2.375-1.735-3.147-3.071
	c-0.766-1.323-1.155-2.748-1.155-4.234c0-0.762,0.11-1.51,0.316-2.242H72.479v102.182h11.038c0.09-1.229,0.435-2.423,1.064-3.554
	c0.744-1.332,1.792-2.384,3.12-3.12c1.309-0.726,2.708-1.094,4.163-1.094c1.443,0,2.841,0.37,4.155,1.102
	c1.33,0.741,2.382,1.793,3.119,3.122c0.626,1.124,0.968,2.315,1.057,3.544h11.297c0.035-0.47,0.099-0.938,0.213-1.396v-29.531
	c-0.16-0.647-0.251-1.308-0.251-1.986c0-0.676,0.089-1.342,0.251-1.998v-14.16c0-1.881,0.077-3.612,0.197-5.261v-0.796h0.054
	c0.212-2.427,0.567-4.572,1.052-6.469c-0.135-0.195-0.277-0.385-0.399-0.597c-0.766-1.325-1.155-2.747-1.155-4.233
	c0-1.441,0.37-2.84,1.102-4.155c0.744-1.333,1.792-2.383,3.12-3.121c1.31-0.725,2.709-1.095,4.162-1.095
	c1.444,0,2.841,0.372,4.156,1.102c0.124,0.069,0.232,0.154,0.35,0.227c1.066-0.22,2.183-0.331,3.36-0.331
	c4.304,0,7.646,1.332,10.024,3.993c0.681,0.764,1.254,1.699,1.74,2.772C139.559,75.198,139.904,74.006,140.532,72.877z
	 M99.744,121.846v3.305h-6.245v5.967h-3.312v-5.967h-6.259v-3.305h6.259v-3.09c-0.77-0.16-1.576-0.462-2.406-0.905
	c-1.315-0.701-2.375-1.737-3.147-3.072c-0.766-1.323-1.155-2.747-1.155-4.233c0-1.44,0.37-2.839,1.102-4.155
	c0.744-1.333,1.792-2.384,3.12-3.12c1.309-0.726,2.708-1.094,4.163-1.094c1.443,0,2.841,0.37,4.155,1.101
	c1.33,0.742,2.382,1.794,3.119,3.123c0.728,1.309,1.095,2.704,1.095,4.145c0,2.215-0.772,4.153-2.294,5.759
	c-1.245,1.312-2.734,2.13-4.441,2.448v3.093H99.744z M97.94,82.791c-1.245,1.311-2.734,2.13-4.441,2.448v3.093h6.245v3.306h-6.245
	v5.967h-3.312v-5.967h-6.259v-3.306h6.259v-3.089c-0.77-0.158-1.576-0.462-2.406-0.905c-1.315-0.701-2.375-1.738-3.147-3.072
	c-0.766-1.325-1.155-2.747-1.155-4.233c0-1.441,0.37-2.84,1.102-4.155c0.744-1.333,1.792-2.383,3.12-3.121
	c1.309-0.725,2.708-1.095,4.163-1.095c1.443,0,2.841,0.372,4.155,1.102c1.33,0.744,2.382,1.794,3.119,3.123
	c0.728,1.309,1.095,2.704,1.095,4.145C100.234,79.247,99.463,81.184,97.94,82.791z"/>
<path fill="#1E2171" d="M141.295,115.81v6.036h4.843v-3.09c-0.771-0.16-1.576-0.462-2.406-0.905
	C142.781,117.344,141.967,116.657,141.295,115.81z"/>
<path fill="#1E2171" d="M94.404,72.599c-0.84-0.453-1.678-0.674-2.554-0.674c-0.87,0-1.699,0.221-2.542,0.674
	c-0.814,0.436-1.431,1.047-1.887,1.864c-0.47,0.841-0.7,1.688-0.7,2.582c0,1.435,0.494,2.623,1.505,3.632
	c1.013,1.011,2.197,1.501,3.625,1.501c1.436,0,2.627-0.489,3.638-1.501c1.014-1.009,1.503-2.198,1.503-3.632
	c0-0.894-0.227-1.741-0.698-2.582C95.835,73.645,95.218,73.035,94.404,72.599z"/>
<path fill="#1E2171" d="M96.991,110.559c0-0.893-0.227-1.741-0.698-2.582c-0.459-0.817-1.076-1.427-1.889-1.865
	c-0.84-0.45-1.678-0.672-2.554-0.672c-0.87,0-1.699,0.222-2.542,0.672c-0.814,0.437-1.431,1.047-1.887,1.865
	c-0.47,0.841-0.7,1.689-0.7,2.582c0,1.436,0.494,2.624,1.505,3.633c1.013,1.011,2.197,1.502,3.625,1.502
	c1.436,0,2.627-0.492,3.638-1.502C96.502,113.182,96.991,111.994,96.991,110.559z"/>
<path fill="#1E2171" d="M147.801,115.694c1.436,0,2.627-0.492,3.637-1.502c1.014-1.01,1.504-2.198,1.504-3.633
	c0-0.893-0.228-1.741-0.698-2.582c-0.459-0.817-1.076-1.427-1.89-1.865c-0.839-0.45-1.677-0.672-2.554-0.672
	c-0.87,0-1.698,0.222-2.542,0.672c-0.814,0.437-1.43,1.047-1.886,1.865c-0.471,0.841-0.7,1.689-0.7,2.582
	c0,1.436,0.493,2.624,1.504,3.633C145.189,115.202,146.373,115.694,147.801,115.694z"/>
<path fill="#1E2171" d="M226.599,43.531c0,1.434,0.493,2.623,1.503,3.631c1.014,1.013,2.198,1.504,3.626,1.504
	c1.436,0,2.627-0.491,3.638-1.504c1.014-1.008,1.503-2.197,1.503-3.631c0-0.893-0.227-1.741-0.697-2.583
	c-0.313-0.557-0.733-0.987-1.205-1.362c-2.787,0.442-5.443,1.147-7.976,2.105C226.757,42.292,226.599,42.899,226.599,43.531z"/>
<path fill="#1E2171" d="M208.894,110.559c0-0.893-0.227-1.741-0.697-2.582c-0.46-0.817-1.076-1.427-1.89-1.865
	c-0.84-0.45-1.677-0.672-2.554-0.672c-0.869,0-1.699,0.222-2.542,0.672c-0.22,0.117-0.389,0.281-0.58,0.425
	c0.61,3.159,1.431,6.185,2.441,9.095c0.224,0.027,0.445,0.062,0.681,0.062c1.436,0,2.627-0.492,3.638-1.502
	C208.405,113.182,208.894,111.994,208.894,110.559z"/>
<path fill="#1E2171" d="M259.704,48.666c1.437,0,2.628-0.491,3.638-1.504c0.643-0.64,1.053-1.362,1.283-2.164
	c-1.788-1.128-3.638-2.144-5.599-2.952c-1.174-0.484-2.384-0.901-3.62-1.27c-0.038,0.063-0.093,0.108-0.13,0.172
	c-0.471,0.842-0.7,1.689-0.7,2.583c0,1.434,0.493,2.623,1.503,3.631C257.092,48.175,258.276,48.666,259.704,48.666z"/>
<path fill="#1E2171" d="M259.704,138.953c-0.869,0-1.698,0.222-2.542,0.672c-0.813,0.437-1.43,1.048-1.886,1.867
	c-0.458,0.815-0.677,1.639-0.691,2.504c2.259-0.683,4.43-1.568,6.513-2.654c0.63-0.333,1.275-0.729,1.925-1.156
	c-0.24-0.2-0.476-0.404-0.765-0.56C261.418,139.175,260.581,138.953,259.704,138.953z"/>
<path fill="#1E2171" d="M202.089,85.243c-0.77-0.158-1.576-0.462-2.406-0.905c-0.063-0.035-0.119-0.079-0.182-0.114
	c-0.099,1.333-0.148,2.716-0.189,4.108h2.776V85.243z"/>
<path fill="#1E2171" d="M207.39,80.678c1.014-1.009,1.503-2.198,1.503-3.632c0-0.894-0.227-1.741-0.697-2.582
	c-0.46-0.818-1.076-1.428-1.89-1.864c-0.84-0.453-1.677-0.674-2.554-0.674c-0.839,0-1.642,0.217-2.455,0.639
	c-0.603,2.479-1.082,5.076-1.417,7.819c0.086,0.096,0.152,0.2,0.247,0.294c1.014,1.011,2.198,1.501,3.626,1.501
	C205.189,82.178,206.38,81.689,207.39,80.678z"/>
<path fill="#1E2171" d="M310.526,43.531c0,1.36,0.46,2.49,1.364,3.464v-6.927c-0.245,0.268-0.477,0.546-0.665,0.88
	C310.754,41.79,310.526,42.638,310.526,43.531z"/>
<path fill="#1E2171" d="M283.25,7.435c-0.47,0.841-0.7,1.688-0.7,2.583c0,1.434,0.494,2.623,1.505,3.632
	c1.013,1.011,2.197,1.503,3.625,1.503c1.436,0,2.627-0.492,3.638-1.503c1.014-1.008,1.503-2.198,1.503-3.632
	c0-0.894-0.227-1.741-0.698-2.583c-0.458-0.817-1.076-1.427-1.889-1.864c-0.84-0.453-1.677-0.674-2.554-0.674
	c-0.87,0-1.699,0.22-2.542,0.674C284.324,6.007,283.706,6.618,283.25,7.435z"/>
<path fill="#1E2171" d="M310.526,10.018c0,1.359,0.46,2.49,1.364,3.464V6.554c-0.245,0.267-0.477,0.546-0.665,0.881
	C310.754,8.276,310.526,9.123,310.526,10.018z"/>
<path fill="#1E2171" d="M310.526,77.045c0,1.36,0.46,2.49,1.364,3.465v-6.929c-0.245,0.269-0.477,0.547-0.665,0.882
	C310.754,75.304,310.526,76.151,310.526,77.045z"/>
<path fill="#1E2171" d="M310.608,143.458h1.282v-2.848c-0.245,0.267-0.477,0.546-0.665,0.882
	C310.866,142.134,310.691,142.788,310.608,143.458z"/>
<path fill="#1E2171" d="M310.526,110.559c0,1.36,0.46,2.491,1.364,3.465v-6.927c-0.245,0.267-0.477,0.546-0.665,0.88
	C310.754,108.818,310.526,109.665,310.526,110.559z"/>
<path fill="#1E2171" d="M234.282,139.625c-0.84-0.45-1.677-0.672-2.554-0.672c-0.869,0-1.698,0.222-2.542,0.672
	c-0.814,0.437-1.43,1.048-1.887,1.867c-0.293,0.521-0.459,1.054-0.568,1.593c3.069,1.183,6.381,1.979,9.941,2.375
	c0.117-0.437,0.197-0.894,0.197-1.387c0-0.894-0.227-1.742-0.697-2.581C235.712,140.673,235.096,140.063,234.282,139.625z"/>
<path fill="#1E2171" d="M234.282,106.112c-0.84-0.45-1.677-0.672-2.554-0.672c-0.869,0-1.698,0.222-2.542,0.672
	c-0.814,0.437-1.43,1.047-1.887,1.865c-0.47,0.841-0.699,1.689-0.699,2.582c0,1.436,0.493,2.624,1.503,3.633
	c1.014,1.011,2.198,1.502,3.626,1.502c1.436,0,2.627-0.492,3.638-1.502c1.014-1.01,1.503-2.198,1.503-3.633
	c0-0.893-0.227-1.741-0.697-2.582C235.712,107.159,235.096,106.549,234.282,106.112z"/>
<path fill="#1E2171" d="M279.347,143.458c0.09-1.229,0.435-2.423,1.064-3.554c0.744-1.332,1.792-2.384,3.12-3.12
	c1.309-0.726,2.708-1.094,4.162-1.094c1.444,0,2.841,0.37,4.156,1.102c1.33,0.741,2.382,1.793,3.119,3.122
	c0.626,1.124,0.968,2.315,1.056,3.544h11.298c0.09-1.229,0.435-2.423,1.064-3.554c0.745-1.332,1.792-2.384,3.119-3.12
	c0.128-0.069,0.257-0.119,0.384-0.183v-11.45h-4.157v-3.305h4.157v-3.858c-0.102-0.048-0.2-0.081-0.302-0.137
	c-1.316-0.701-2.376-1.737-3.149-3.072c-0.766-1.323-1.155-2.747-1.155-4.233c0-1.44,0.37-2.839,1.102-4.155
	c0.745-1.333,1.792-2.384,3.119-3.12c0.128-0.069,0.257-0.119,0.384-0.183v-11.45h-4.157v-3.306h4.157v-3.858
	c-0.102-0.05-0.2-0.083-0.302-0.137c-1.316-0.701-2.376-1.738-3.149-3.072c-0.766-1.325-1.155-2.747-1.155-4.233
	c0-1.441,0.37-2.84,1.102-4.155c0.745-1.333,1.792-2.383,3.119-3.121c0.128-0.069,0.257-0.119,0.384-0.183V58.124h-4.157v-3.306
	h4.157v-3.856c-0.102-0.05-0.2-0.084-0.302-0.14c-1.316-0.7-2.376-1.735-3.149-3.071c-0.766-1.323-1.155-2.748-1.155-4.234
	c0-1.44,0.37-2.84,1.102-4.154c0.745-1.333,1.792-2.384,3.119-3.121c0.128-0.069,0.257-0.12,0.384-0.183V24.611h-4.157v-3.306h4.157
	v-3.857c-0.102-0.049-0.2-0.082-0.302-0.139c-1.316-0.7-2.376-1.735-3.149-3.071c-0.766-1.323-1.155-2.747-1.155-4.233
	c0-1.442,0.37-2.84,1.102-4.155c0.745-1.333,1.792-2.384,3.119-3.121c0.128-0.069,0.257-0.119,0.384-0.183V2.405h-20.729
	c0.231,0.104,0.462,0.206,0.688,0.331c1.33,0.742,2.382,1.794,3.119,3.123c0.728,1.309,1.095,2.703,1.095,4.145
	c0,2.215-0.771,4.152-2.294,5.757c-1.245,1.313-2.734,2.133-4.441,2.448v3.095h6.245v3.306h-6.245v5.965h-3.312v-5.965h-6.259
	v-3.306h6.259v-3.092c-0.77-0.158-1.576-0.459-2.406-0.904c-1.315-0.7-2.375-1.735-3.147-3.071
	c-0.766-1.323-1.155-2.747-1.155-4.233c0-1.442,0.37-2.84,1.103-4.155c0.744-1.333,1.792-2.384,3.12-3.121
	c0.221-0.123,0.45-0.221,0.677-0.324h-11.931v48.878c-1.538-1.637-3.192-3.067-4.91-4.378c-0.38,0.851-0.89,1.65-1.574,2.371
	c-1.245,1.311-2.733,2.132-4.44,2.447v3.095h6.245v3.306h-6.245v5.965h-3.312v-5.965h-6.259v-3.306h6.259v-3.091
	c-0.771-0.157-1.576-0.46-2.406-0.905c-1.315-0.7-2.375-1.735-3.148-3.071c-0.765-1.323-1.155-2.748-1.155-4.234
	c0-1.22,0.282-2.407,0.808-3.541c-3.076-0.65-6.31-1.01-9.741-1.01c-1.207,0-2.374,0.079-3.54,0.162
	c0.05,0.085,0.111,0.157,0.158,0.244c0.729,1.309,1.095,2.704,1.095,4.145c0,2.215-0.772,4.153-2.294,5.758
	c-1.245,1.311-2.733,2.132-4.441,2.447v3.095h6.246v3.306h-6.246v5.965h-3.311v-5.965h-6.259v-3.306h6.259v-3.091
	c-0.771-0.157-1.577-0.46-2.406-0.905c-1.315-0.7-2.375-1.735-3.148-3.071c-0.766-1.323-1.155-2.748-1.155-4.234
	c0-0.079,0.012-0.158,0.015-0.237c-4.4,2.209-8.403,5.227-11.96,9.156c-0.68,0.752-1.291,1.572-1.913,2.381h2.147v3.306h-4.435
	c-0.641,1.025-1.247,2.081-1.81,3.182v2.783h-1.356c-0.646,1.509-1.23,3.08-1.746,4.716c0.483-0.085,0.97-0.145,1.468-0.145
	c1.444,0,2.841,0.372,4.156,1.102c1.33,0.744,2.382,1.794,3.119,3.123c0.728,1.309,1.095,2.704,1.095,4.145
	c0,2.215-0.772,4.152-2.294,5.759c-1.245,1.311-2.733,2.13-4.441,2.448v3.093h6.245v3.306h-6.245v5.967h-3.312v-5.967h-2.858
	c0.014,3.965,0.296,7.77,0.818,11.421c1.181-0.576,2.426-0.882,3.718-0.882c1.444,0,2.841,0.37,4.156,1.101
	c1.33,0.742,2.382,1.794,3.119,3.123c0.728,1.309,1.095,2.704,1.095,4.145c0,2.215-0.772,4.153-2.294,5.759
	c-1.245,1.312-2.733,2.13-4.441,2.448v2.712c0.061,0.129,0.131,0.252,0.193,0.382h6.052v3.305h-4.324
	c0.909,1.623,1.871,3.213,2.934,4.74c3.662,5.268,8.143,9.224,13.436,11.869c0.183-0.632,0.432-1.253,0.767-1.855
	c0.745-1.332,1.793-2.384,3.121-3.12c1.309-0.726,2.708-1.094,4.161-1.094c1.444,0,2.841,0.37,4.157,1.102
	c1.33,0.741,2.382,1.793,3.118,3.122c0.729,1.309,1.095,2.706,1.095,4.145c0,0.57-0.055,1.121-0.157,1.655
	c0.742,0.03,1.49,0.054,2.252,0.054c3.196,0,6.251-0.327,9.175-0.955c-0.022-0.251-0.049-0.499-0.049-0.753
	c0-1.439,0.371-2.839,1.103-4.155c0.745-1.332,1.793-2.384,3.121-3.12c1.309-0.726,2.708-1.094,4.161-1.094
	c1.444,0,2.842,0.37,4.157,1.102c0.692,0.385,1.306,0.861,1.843,1.412c2.962-2.406,6.109-5.682,9.452-9.853v15.107H279.347z
	 M237.817,116.304c-1.245,1.312-2.733,2.13-4.441,2.448v3.093h6.246v3.305h-6.246v5.967h-3.311v-5.967h-6.259v-3.305h6.259v-3.09
	c-0.771-0.16-1.577-0.462-2.406-0.905c-1.315-0.701-2.375-1.737-3.148-3.072c-0.766-1.323-1.155-2.747-1.155-4.233
	c0-1.44,0.37-2.839,1.103-4.155c0.745-1.333,1.793-2.384,3.121-3.12c1.309-0.726,2.708-1.094,4.161-1.094
	c1.444,0,2.841,0.37,4.157,1.101c1.33,0.742,2.382,1.794,3.118,3.123c0.729,1.309,1.095,2.704,1.095,4.145
	C240.112,112.761,239.34,114.699,237.817,116.304z M268.085,110.509c0,0.014,0.002,0.025,0.002,0.037
	c0,2.215-0.771,4.153-2.294,5.759c-1.245,1.312-2.733,2.13-4.44,2.448v3.093h6.245v3.305h-6.245v5.967h-3.312v-5.967h-6.259v-3.305
	h6.259v-3.09c-0.771-0.16-1.576-0.462-2.406-0.905c-0.42-0.224-0.805-0.495-1.172-0.786c-4.442-0.153-8.194-2.069-11.244-5.792
	c-3.181-3.881-4.771-9.99-4.771-18.328c0-0.452,0.021-0.868,0.029-1.307h-5.1v5.967h-3.311v-5.967h-6.259v-3.306h6.259v-3.089
	c-0.771-0.158-1.577-0.462-2.406-0.905c-1.315-0.701-2.375-1.738-3.148-3.072c-0.766-1.325-1.155-2.747-1.155-4.233
	c0-1.441,0.37-2.84,1.103-4.155c0.745-1.333,1.793-2.383,3.121-3.121c1.309-0.725,2.708-1.095,4.161-1.095
	c1.444,0,2.841,0.372,4.157,1.102c1.33,0.744,2.382,1.794,3.118,3.123c0.729,1.309,1.095,2.704,1.095,4.145
	c0,2.215-0.772,4.152-2.294,5.759c-1.245,1.311-2.733,2.13-4.441,2.448v3.093h5.245c0.461-6.514,1.933-11.346,4.453-14.438
	c3.084-3.784,6.906-5.677,11.469-5.677c1.49,0,2.897,0.18,4.241,0.503c0.308-0.035,0.619-0.06,0.933-0.06
	c1.444,0,2.842,0.372,4.157,1.102c1.33,0.744,2.382,1.794,3.118,3.123c0.268,0.479,0.468,0.974,0.638,1.472
	c3.285,3.948,4.936,9.847,4.936,17.719C272.566,100.43,271.059,106.554,268.085,110.509z M280.411,39.364
	c0.744-1.333,1.792-2.384,3.12-3.121c1.309-0.725,2.708-1.095,4.162-1.095c1.444,0,2.841,0.372,4.156,1.102
	c1.33,0.744,2.382,1.794,3.119,3.123c0.728,1.309,1.095,2.704,1.095,4.145c0,2.215-0.771,4.153-2.294,5.758
	c-1.245,1.311-2.734,2.132-4.441,2.447v3.095h6.245v3.306h-6.245v5.965h-3.312v-5.965h-6.259v-3.306h6.259v-3.091
	c-0.77-0.157-1.576-0.46-2.406-0.905c-1.315-0.7-2.375-1.735-3.147-3.071c-0.766-1.323-1.155-2.748-1.155-4.234
	C279.308,42.077,279.678,40.678,280.411,39.364z M280.411,72.877c0.744-1.333,1.792-2.383,3.12-3.121
	c1.309-0.725,2.708-1.095,4.162-1.095c1.444,0,2.841,0.372,4.156,1.102c1.33,0.744,2.382,1.794,3.119,3.123
	c0.728,1.309,1.095,2.704,1.095,4.145c0,2.215-0.771,4.152-2.294,5.759c-1.245,1.311-2.734,2.13-4.441,2.448v3.093h6.245v3.306
	h-6.245v5.967h-3.312v-5.967h-6.259v-3.306h6.259v-3.089c-0.77-0.158-1.576-0.462-2.406-0.905c-1.315-0.701-2.375-1.738-3.147-3.072
	c-0.766-1.325-1.155-2.747-1.155-4.233C279.308,75.591,279.678,74.192,280.411,72.877z M280.411,106.391
	c0.744-1.333,1.792-2.384,3.12-3.12c1.309-0.726,2.708-1.094,4.162-1.094c1.444,0,2.841,0.37,4.156,1.101
	c1.33,0.742,2.382,1.794,3.119,3.123c0.728,1.309,1.095,2.704,1.095,4.145c0,2.215-0.771,4.153-2.294,5.759
	c-1.245,1.312-2.734,2.13-4.441,2.448v3.093h6.245v3.305h-6.245v5.967h-3.312v-5.967h-6.259v-3.305h6.259v-3.09
	c-0.77-0.16-1.576-0.462-2.406-0.905c-1.315-0.701-2.375-1.737-3.147-3.072c-0.766-1.323-1.155-2.747-1.155-4.233
	C279.308,109.105,279.678,107.706,280.411,106.391z"/>
<path fill="#1E2171" d="M287.68,115.694c1.436,0,2.627-0.492,3.638-1.502c1.014-1.01,1.503-2.198,1.503-3.633
	c0-0.893-0.227-1.741-0.698-2.582c-0.458-0.817-1.076-1.427-1.889-1.865c-0.84-0.45-1.677-0.672-2.554-0.672
	c-0.87,0-1.699,0.222-2.542,0.672c-0.814,0.437-1.431,1.047-1.887,1.865c-0.47,0.841-0.7,1.689-0.7,2.582
	c0,1.436,0.494,2.624,1.505,3.633C285.067,115.202,286.251,115.694,287.68,115.694z"/>
<path fill="#1E2171" d="M290.234,139.625c-0.84-0.45-1.677-0.672-2.554-0.672c-0.87,0-1.699,0.222-2.542,0.672
	c-0.814,0.437-1.431,1.048-1.887,1.867c-0.359,0.642-0.534,1.296-0.618,1.966h10.108c-0.082-0.67-0.257-1.325-0.617-1.966
	C291.664,140.673,291.047,140.063,290.234,139.625z"/>
<path fill="#1E2171" d="M287.68,82.178c1.436,0,2.627-0.489,3.638-1.501c1.014-1.009,1.503-2.198,1.503-3.632
	c0-0.894-0.227-1.741-0.698-2.582c-0.458-0.818-1.076-1.428-1.889-1.864c-0.84-0.453-1.677-0.674-2.554-0.674
	c-0.87,0-1.699,0.221-2.542,0.674c-0.814,0.436-1.431,1.047-1.887,1.864c-0.47,0.841-0.7,1.688-0.7,2.582
	c0,1.435,0.494,2.623,1.505,3.632C285.067,81.689,286.251,82.178,287.68,82.178z"/>
<path fill="#1E2171" d="M287.68,48.666c1.436,0,2.627-0.491,3.638-1.504c1.014-1.008,1.503-2.197,1.503-3.631
	c0-0.893-0.227-1.741-0.698-2.583c-0.458-0.817-1.076-1.427-1.889-1.863c-0.84-0.453-1.677-0.675-2.554-0.675
	c-0.87,0-1.699,0.221-2.542,0.675c-0.814,0.436-1.431,1.046-1.887,1.863c-0.47,0.842-0.7,1.689-0.7,2.583
	c0,1.434,0.494,2.623,1.505,3.631C285.067,48.175,286.251,48.666,287.68,48.666z"/>
<path fill="#1E2171" d="M236.869,77.045c0-0.894-0.227-1.741-0.697-2.582c-0.46-0.818-1.076-1.428-1.89-1.864
	c-0.84-0.453-1.677-0.674-2.554-0.674c-0.869,0-1.698,0.221-2.542,0.674c-0.814,0.436-1.43,1.047-1.887,1.864
	c-0.47,0.841-0.699,1.688-0.699,2.582c0,1.435,0.493,2.623,1.503,3.632c1.014,1.011,2.198,1.501,3.626,1.501
	c1.436,0,2.627-0.489,3.638-1.501C236.38,79.669,236.869,78.48,236.869,77.045z"/>
<path fill="#1E2171" d="M506.471,21.305h3.348v-3.092c-0.308-0.063-0.628-0.167-0.949-0.276c-0.724,0.906-1.422,1.832-2.05,2.798
	C506.694,20.923,506.59,21.116,506.471,21.305z"/>
<path fill="#1E2171" d="M515.119,13.649c0.837-0.833,1.296-1.798,1.439-2.914c-1.897,1.359-3.621,2.829-5.179,4.408
	c0.034,0.002,0.065,0.009,0.1,0.009C512.917,15.152,514.11,14.66,515.119,13.649z"/>
<path fill="#1E2171" d="M509.818,130.812v-5.661h-4.68C506.544,127.133,508.117,129.013,509.818,130.812z"/>
<path fill="#1E2171" d="M572.574,144.073c0-0.894-0.227-1.742-0.697-2.581c-0.461-0.819-1.076-1.429-1.889-1.867
	c-0.842-0.45-1.678-0.672-2.556-0.672c-0.869,0-1.696,0.222-2.541,0.672c-0.815,0.437-1.431,1.048-1.89,1.867
	c-0.47,0.839-0.697,1.687-0.697,2.581c0,0.635,0.112,1.213,0.308,1.758c3.419-0.044,6.69-0.216,9.808-0.515
	C572.513,144.92,572.574,144.512,572.574,144.073z"/>
<path fill="#1E2171" d="M592.863,139.625c-0.797,0.43-1.401,1.033-1.856,1.828c1.325-0.468,2.617-0.965,3.854-1.508
	c0.601-0.263,1.173-0.557,1.755-0.836c-0.397-0.096-0.798-0.156-1.208-0.156C594.537,138.953,593.709,139.175,592.863,139.625z"/>
<path fill="#1E2171" d="M619.89,80.787c-0.476-1.053-1.004-2.086-1.577-3.105c0.127,1.15,0.589,2.142,1.446,2.995
	C619.801,80.72,619.848,80.747,619.89,80.787z"/>
<path fill="#1E2171" d="M535.027,7.435c-0.471,0.841-0.702,1.688-0.702,2.583c0,1.434,0.494,2.623,1.505,3.632
	c1.012,1.011,2.198,1.503,3.626,1.503c1.436,0,2.626-0.492,3.637-1.503c1.013-1.008,1.502-2.198,1.502-3.632
	c0-0.894-0.227-1.741-0.697-2.583c-0.458-0.817-1.075-1.427-1.89-1.864c-0.839-0.453-1.678-0.674-2.553-0.674
	c-0.87,0-1.7,0.22-2.544,0.674C536.1,6.007,535.481,6.618,535.027,7.435z"/>
<path fill="#1E2171" d="M620.841,106.112c-0.813,0.437-1.431,1.047-1.89,1.865c-0.47,0.841-0.697,1.689-0.697,2.582
	c0,1.436,0.493,2.624,1.504,3.633c0.112,0.114,0.239,0.198,0.359,0.299c1.174-2.897,2.027-5.885,2.564-8.958
	C622.063,105.621,621.454,105.783,620.841,106.112z"/>
<path fill="#1E2171" d="M618.763,42.046c-0.019-0.16-0.054-0.302-0.073-0.462c-0.066,0.16-0.146,0.318-0.197,0.478L618.763,42.046z"
	/>
<path fill="#1E2171" d="M600.548,110.559c0-0.893-0.229-1.741-0.699-2.582c-0.459-0.817-1.075-1.427-1.89-1.865
	c-0.839-0.45-1.676-0.672-2.553-0.672c-0.87,0-1.698,0.222-2.544,0.672c-0.813,0.437-1.428,1.047-1.883,1.865
	c-0.472,0.841-0.704,1.689-0.704,2.582c0,1.436,0.494,2.624,1.504,3.633c1.013,1.011,2.198,1.502,3.627,1.502
	c1.436,0,2.626-0.492,3.637-1.502C600.057,113.182,600.548,111.994,600.548,110.559z"/>
<path fill="#1E2171" d="M592.863,5.571c-0.813,0.436-1.428,1.047-1.883,1.864c-0.472,0.841-0.704,1.688-0.704,2.583
	c0,1.434,0.494,2.623,1.504,3.632c1.013,1.011,2.198,1.503,3.627,1.503c1.436,0,2.626-0.492,3.637-1.503
	c1.013-1.008,1.504-2.198,1.504-3.632c0-0.291-0.062-0.569-0.112-0.85c-2.182-1.412-4.557-2.676-7.159-3.762
	C593.137,5.467,593.002,5.498,592.863,5.571z"/>
<path fill="#1E2171" d="M542.009,139.625c-0.839-0.45-1.678-0.672-2.553-0.672c-0.87,0-1.7,0.222-2.544,0.672
	c-0.813,0.437-1.431,1.048-1.885,1.867c-0.35,0.622-0.521,1.256-0.609,1.903c3.138,0.684,6.498,1.233,10.093,1.632
	c0.055-0.306,0.085-0.622,0.085-0.953c0-0.894-0.227-1.742-0.697-2.581C543.44,140.673,542.824,140.063,542.009,139.625z"/>
<path fill="#1E2171" d="M516.623,43.531c0-0.893-0.227-1.741-0.699-2.583c-0.458-0.817-1.074-1.427-1.887-1.863
	c-0.842-0.453-1.678-0.675-2.558-0.675c-0.867,0-1.695,0.221-2.541,0.675c-0.813,0.436-1.429,1.046-1.888,1.863
	c-0.472,0.842-0.699,1.689-0.699,2.583c0,1.434,0.495,2.623,1.504,3.631c1.013,1.013,2.198,1.504,3.623,1.504
	c1.439,0,2.631-0.491,3.64-1.504C516.132,46.155,516.623,44.965,516.623,43.531z"/>
<path fill="#1E2171" d="M599.849,40.949c-0.459-0.817-1.075-1.427-1.89-1.863c-0.839-0.453-1.676-0.675-2.553-0.675
	c-0.87,0-1.698,0.221-2.544,0.675c-0.813,0.436-1.428,1.046-1.883,1.863c-0.472,0.842-0.704,1.689-0.704,2.583
	c0,0.062,0.016,0.118,0.016,0.18l10.203-0.597C600.433,42.373,600.246,41.655,599.849,40.949z"/>
<path fill="#1E2171" d="M572.574,77.045c0-0.894-0.227-1.741-0.697-2.582c-0.461-0.818-1.076-1.428-1.889-1.864
	c-0.842-0.453-1.678-0.674-2.556-0.674c-0.869,0-1.696,0.221-2.541,0.674c-0.815,0.436-1.431,1.047-1.89,1.864
	c-0.47,0.841-0.697,1.688-0.697,2.582c0,1.435,0.493,2.623,1.502,3.632c1.015,1.011,2.197,1.501,3.625,1.501
	c1.437,0,2.629-0.489,3.638-1.501C572.084,79.669,572.574,78.48,572.574,77.045z"/>
<path fill="#1E2171" d="M536.912,39.085c-0.813,0.436-1.431,1.046-1.885,1.863c-0.471,0.842-0.702,1.689-0.702,2.583
	c0,1.434,0.494,2.623,1.505,3.631c1.012,1.013,2.198,1.504,3.626,1.504c1.436,0,2.626-0.491,3.637-1.504
	c0.951-0.946,1.426-2.062,1.479-3.382c-0.17-0.129-0.359-0.256-0.505-0.387c-1.678-1.419-2.664-2.987-3.014-4.692
	c-0.524-0.172-1.054-0.29-1.598-0.29C538.587,38.411,537.756,38.632,536.912,39.085z"/>
<path fill="#1E2171" d="M572.574,10.018c0-0.894-0.227-1.741-0.697-2.583c-0.461-0.817-1.076-1.427-1.889-1.864
	c-0.842-0.453-1.678-0.674-2.556-0.674c-0.869,0-1.696,0.22-2.541,0.674c-0.815,0.436-1.431,1.047-1.89,1.864
	c-0.47,0.841-0.697,1.688-0.697,2.583c0,1.434,0.493,2.623,1.502,3.632c1.015,1.011,2.197,1.503,3.625,1.503
	c1.437,0,2.629-0.492,3.638-1.503C572.084,12.641,572.574,11.452,572.574,10.018z"/>
<path fill="#1E2171" d="M535.027,107.976c-0.471,0.841-0.702,1.689-0.702,2.582c0,1.436,0.494,2.624,1.505,3.633
	c1.012,1.011,2.198,1.502,3.626,1.502c1.436,0,2.626-0.492,3.637-1.502c0.667-0.665,1.086-1.414,1.306-2.25
	c-0.758-0.728-1.487-1.499-2.162-2.351c-0.925-1.185-1.737-2.564-2.456-4.109c-0.111-0.008-0.215-0.043-0.324-0.043
	c-0.87,0-1.7,0.222-2.544,0.672C536.1,106.549,535.481,107.159,535.027,107.976z"/>
<path fill="#1E2171" d="M597.96,72.599c-0.839-0.453-1.676-0.674-2.553-0.674c-0.87,0-1.698,0.221-2.544,0.674
	c-0.813,0.436-1.428,1.047-1.883,1.864c-0.472,0.841-0.704,1.688-0.704,2.582c0,1.435,0.494,2.623,1.504,3.632
	c1.013,1.011,2.198,1.501,3.627,1.501c1.436,0,2.626-0.489,3.637-1.501c1.013-1.009,1.504-2.198,1.504-3.632
	c0-0.894-0.229-1.741-0.699-2.582C599.391,73.645,598.774,73.035,597.96,72.599z"/>
<path fill="#1E2171" d="M615.46,121.846h0.859c0.898-1.426,1.712-2.87,2.441-4.343c-1.056-0.678-1.936-1.587-2.594-2.724
	c-0.763-1.323-1.152-2.747-1.152-4.233c0-1.44,0.37-2.839,1.101-4.155c0.744-1.333,1.794-2.384,3.118-3.12
	c1.232-0.681,2.544-1.036,3.906-1.076c0.147-1.514,0.251-3.04,0.251-4.59h-1.67v-5.967h-6.26v-3.306h6.26V85.72
	c-0.054-0.177-0.108-0.349-0.162-0.526c-0.724-0.165-1.472-0.445-2.244-0.857c-1.314-0.701-2.375-1.738-3.149-3.072
	c-0.763-1.325-1.152-2.747-1.152-4.233c0-1.137,0.238-2.246,0.693-3.307c-3.76-4.929-9.072-9.162-15.977-12.676
	c-0.832-0.423-1.735-0.845-2.675-1.266v4.307h-3.312v-5.702c-0.219-0.085-0.443-0.174-0.672-0.263h-5.585v-2.002
	c-4.846-1.612-10.505-3.217-16.975-4.816c-0.459,0.178-0.932,0.325-1.431,0.417v3.095h6.247v3.306h-6.247v5.965h-3.311v-5.965
	h-6.262v-3.306h6.262v-3.091c-0.77-0.157-1.577-0.46-2.406-0.905c-0.809-0.43-1.513-1.001-2.121-1.679
	c-0.832-0.185-1.666-0.369-2.525-0.554c-4.8-0.998-8.504-2.047-11.114-3.145c-0.326,1.422-0.996,2.714-2.059,3.832
	c-1.246,1.311-2.733,2.132-4.441,2.447v3.095h6.244v3.306h-6.244v5.965h-3.313v-5.965h-6.255v-3.306h6.255v-3.091
	c-0.77-0.157-1.575-0.46-2.406-0.905c-1.314-0.7-2.374-1.735-3.145-3.071c-0.766-1.323-1.156-2.748-1.156-4.234
	c0-1.44,0.37-2.84,1.102-4.154c0.743-1.333,1.793-2.384,3.122-3.121c1.308-0.725,2.708-1.095,4.16-1.095
	c0.551,0,1.092,0.071,1.623,0.18c0.451-2.225,1.662-4.173,3.65-5.837c2.571-2.149,6.393-3.223,11.469-3.223
	c3.66,0,6.836,0.519,9.558,1.535v-3.191h-6.262v-3.306h6.262v-3.092c-0.77-0.158-1.577-0.459-2.406-0.904
	c-1.314-0.7-2.375-1.735-3.149-3.071c-0.765-1.323-1.154-2.747-1.154-4.233c0-1.442,0.37-2.84,1.103-4.155
	c0.744-1.333,1.792-2.384,3.118-3.121c1.312-0.725,2.711-1.095,4.165-1.095c1.44,0,2.84,0.372,4.156,1.102
	c1.329,0.742,2.381,1.794,3.118,3.123c0.729,1.309,1.095,2.703,1.095,4.145c0,2.215-0.771,4.152-2.295,5.757
	c-1.244,1.313-2.733,2.133-4.441,2.448v3.095h6.247v3.306h-6.247v4.818c0.572,0.361,1.123,0.744,1.639,1.168
	c3.502,2.886,5.799,7.505,6.89,13.854l9.453-0.552c-0.007-0.127-0.027-0.252-0.027-0.381c0-1.44,0.37-2.84,1.102-4.154
	c0.745-1.333,1.793-2.384,3.124-3.121c1.305-0.725,2.706-1.095,4.158-1.095c1.447,0,2.843,0.372,4.157,1.102
	c1.33,0.744,2.382,1.794,3.118,3.123c0.63,1.128,0.973,2.321,1.057,3.551l11.366-0.665c0.154-0.997,0.482-1.967,0.998-2.896
	c0.485-0.872,1.114-1.611,1.859-2.233c-2.201-11.199-6.994-19.719-14.319-25.631c-0.274,1.599-0.992,3.031-2.159,4.261
	c-1.246,1.313-2.733,2.133-4.441,2.448v3.095h6.246v3.306h-6.246v5.965h-3.312v-5.965h-6.257v-3.306h6.257v-3.092
	c-0.772-0.158-1.577-0.459-2.406-0.904c-1.316-0.7-2.374-1.735-3.147-3.071c-0.766-1.323-1.156-2.747-1.156-4.233
	c0-1.442,0.37-2.84,1.102-4.155c0.391-0.699,0.868-1.313,1.423-1.854C581.588,1.337,571.923,0,560.549,0
	c-7.949,0-14.954,0.559-21.077,1.634c1.443,0,2.841,0.372,4.153,1.102c1.328,0.742,2.383,1.794,3.118,3.123
	c0.728,1.309,1.096,2.703,1.096,4.145c0,2.215-0.772,4.152-2.294,5.757c-1.246,1.313-2.733,2.133-4.441,2.448v3.095h6.244v3.306
	h-6.244v5.965h-3.313v-5.965h-6.255v-3.306h6.255v-3.092c-0.77-0.158-1.575-0.459-2.406-0.904c-1.314-0.7-2.374-1.735-3.145-3.071
	c-0.766-1.323-1.156-2.747-1.156-4.233c0-1.442,0.37-2.84,1.102-4.155c0.743-1.333,1.793-2.384,3.122-3.121
	c0.368-0.204,0.745-0.373,1.127-0.519c-3.968,0.858-7.513,1.963-10.63,3.324c-2.161,0.945-4.182,1.981-6.068,3.105
	c0.073,0.451,0.128,0.905,0.128,1.366c0,2.215-0.771,4.152-2.295,5.757c-1.245,1.313-2.733,2.133-4.441,2.448v3.095h6.247v3.306
	h-6.247v5.965h-3.311v-5.965h-5.227c-2.708,5.299-4.087,10.852-4.087,16.665c0,5.487,1.021,10.486,3.053,15.004v-1.462h6.262v-3.091
	c-0.772-0.157-1.577-0.46-2.406-0.905c-1.316-0.7-2.375-1.735-3.151-3.071c-0.763-1.323-1.152-2.748-1.152-4.234
	c0-1.44,0.37-2.84,1.101-4.154c0.746-1.333,1.794-2.384,3.12-3.121c1.31-0.725,2.711-1.095,4.163-1.095
	c1.442,0,2.843,0.372,4.156,1.102c1.331,0.744,2.382,1.794,3.12,3.123c0.728,1.309,1.095,2.704,1.095,4.145
	c0,2.215-0.771,4.153-2.295,5.758c-1.245,1.311-2.733,2.132-4.441,2.447v3.095h6.247v3.306h-6.247v5.965h-3.311v-5.965h-5.305
	c2.019,3.82,4.766,7.295,8.327,10.381c0.142,0.123,0.3,0.245,0.443,0.369c0.814,0.178,1.604,0.467,2.367,0.889
	c1.296,0.724,2.321,1.744,3.053,3.026c3.571,2.229,7.778,4.293,12.628,6.192c-0.154-0.634-0.247-1.286-0.247-1.949
	c0-1.441,0.37-2.84,1.102-4.155c0.743-1.333,1.793-2.383,3.122-3.121c1.308-0.725,2.708-1.095,4.16-1.095
	c1.447,0,2.841,0.372,4.157,1.102c1.328,0.744,2.383,1.794,3.118,3.123c0.728,1.309,1.096,2.704,1.096,4.145
	c0,2.215-0.772,4.152-2.294,5.759c-0.216,0.227-0.449,0.42-0.681,0.616c2.839,0.778,5.808,1.522,8.937,2.225
	c4.014,0.882,7.49,1.782,10.501,2.7h1.465v-3.089c-0.77-0.158-1.577-0.462-2.406-0.905c-1.314-0.701-2.375-1.738-3.149-3.072
	c-0.765-1.325-1.154-2.747-1.154-4.233c0-1.441,0.37-2.84,1.103-4.155c0.744-1.333,1.792-2.383,3.118-3.121
	c1.312-0.725,2.711-1.095,4.165-1.095c1.44,0,2.84,0.372,4.156,1.102c1.329,0.744,2.381,1.794,3.118,3.123
	c0.729,1.309,1.095,2.704,1.095,4.145c0,2.215-0.771,4.152-2.295,5.759c-1.244,1.311-2.733,2.13-4.441,2.448v3.093h6.247v3.306
	h-2.448c1.369,0.715,2.467,1.439,3.284,2.173c3.213,2.887,4.819,6.159,4.819,9.813c0,3.851-1.684,7.233-5.058,10.151
	c-0.393,0.342-0.809,0.658-1.24,0.957c-0.327,0.551-0.7,1.081-1.162,1.574c-1.244,1.312-2.733,2.13-4.441,2.448v3.093h6.247v3.305
	h-6.247v5.967h-3.311v-5.967h-6.262v-3.305h6.262v-3.09c-0.617-0.125-1.256-0.372-1.913-0.68c-0.754,0.048-1.537,0.075-2.344,0.075
	c-5.74,0-10.548-1.379-14.469-4.075c-0.373,0.793-0.851,1.547-1.499,2.228c-1.246,1.312-2.733,2.13-4.441,2.448v3.093h6.244v3.305
	h-6.244v5.967h-3.313v-5.967h-6.255v-3.305h6.255v-3.09c-0.77-0.16-1.575-0.462-2.406-0.905c-1.314-0.701-2.374-1.737-3.145-3.072
	c-0.766-1.323-1.156-2.747-1.156-4.233c0-1.44,0.37-2.839,1.102-4.155c0.743-1.333,1.793-2.384,3.122-3.12
	c1.019-0.566,2.094-0.907,3.209-1.033c-0.777-2.367-1.374-5.036-1.774-8.043l-23.614,1.476v1.934h-3.311v-1.726l-14.615,0.913
	c0.843,9.857,3.661,18.487,8.353,25.946v-0.891h6.262v-3.09c-0.772-0.16-1.577-0.462-2.406-0.905
	c-1.316-0.701-2.375-1.737-3.151-3.072c-0.763-1.323-1.152-2.747-1.152-4.233c0-1.44,0.37-2.839,1.101-4.155
	c0.746-1.333,1.794-2.384,3.12-3.12c1.31-0.726,2.711-1.094,4.163-1.094c1.442,0,2.843,0.37,4.156,1.101
	c1.331,0.742,2.382,1.794,3.12,3.123c0.728,1.309,1.095,2.704,1.095,4.145c0,2.215-0.771,4.153-2.295,5.759
	c-1.245,1.312-2.733,2.13-4.441,2.448v3.093h6.247v3.305h-6.247v5.967h-3.033c0.281,0.293,0.532,0.603,0.816,0.89
	c4.789,4.778,11.57,8.312,20.314,10.614c0.162-0.935,0.474-1.845,0.96-2.718c0.743-1.332,1.793-2.384,3.122-3.12
	c1.308-0.726,2.708-1.094,4.16-1.094c1.447,0,2.841,0.37,4.157,1.102c1.328,0.741,2.383,1.793,3.118,3.122
	c0.728,1.309,1.096,2.706,1.096,4.145c0,0.441-0.054,0.861-0.112,1.281c3.623,0.307,7.483,0.471,11.542,0.505
	c-0.128-0.583-0.208-1.179-0.208-1.785c0-1.439,0.37-2.839,1.103-4.155c0.744-1.332,1.792-2.384,3.118-3.12
	c1.312-0.726,2.711-1.094,4.165-1.094c1.44,0,2.84,0.37,4.156,1.102c1.329,0.741,2.381,1.793,3.118,3.122
	c0.729,1.309,1.095,2.706,1.095,4.145c0,0.31-0.05,0.601-0.081,0.898c4.091-0.528,7.899-1.293,11.435-2.29
	c0.162-0.951,0.474-1.876,0.967-2.762c0.745-1.332,1.793-2.384,3.124-3.12c1.305-0.726,2.706-1.094,4.158-1.094
	c1.447,0,2.843,0.37,4.157,1.102c0.227,0.127,0.435,0.273,0.643,0.418c6.246-3.604,11.327-8.286,15.241-14.051V121.846z
	 M603.301,121.846v3.305h-6.246v5.967h-3.312v-5.967h-6.257v-3.305h6.257v-3.09c-0.772-0.16-1.577-0.462-2.406-0.905
	c-1.316-0.701-2.374-1.737-3.147-3.072c-0.766-1.323-1.156-2.747-1.156-4.233c0-1.44,0.37-2.839,1.102-4.155
	c0.745-1.333,1.793-2.384,3.124-3.12c1.305-0.726,2.706-1.094,4.158-1.094c1.447,0,2.843,0.37,4.157,1.101
	c1.33,0.742,2.382,1.794,3.118,3.123c0.729,1.309,1.096,2.704,1.096,4.145c0,2.215-0.77,4.153-2.294,5.759
	c-1.246,1.312-2.733,2.13-4.441,2.448v3.093H603.301z M601.496,82.791c-1.246,1.311-2.733,2.13-4.441,2.448v3.093h6.246v3.306
	h-6.246v5.967h-3.312v-5.967h-6.257v-3.306h6.257v-3.089c-0.772-0.158-1.577-0.462-2.406-0.905
	c-1.316-0.701-2.374-1.738-3.147-3.072c-0.766-1.325-1.156-2.747-1.156-4.233c0-1.441,0.37-2.84,1.102-4.155
	c0.745-1.333,1.793-2.383,3.124-3.121c1.305-0.725,2.706-1.095,4.158-1.095c1.447,0,2.843,0.372,4.157,1.102
	c1.33,0.744,2.382,1.794,3.118,3.123c0.729,1.309,1.096,2.704,1.096,4.145C603.79,79.247,603.02,81.184,601.496,82.791z"/>
<path fill="#1E2171" d="M543.094,80.678c1.013-1.009,1.502-2.198,1.502-3.632c0-0.894-0.227-1.741-0.697-2.582
	c-0.458-0.818-1.075-1.428-1.89-1.864c-0.839-0.453-1.678-0.674-2.553-0.674c-0.87,0-1.7,0.221-2.544,0.674
	c-0.813,0.436-1.431,1.047-1.885,1.864c-0.471,0.841-0.702,1.688-0.702,2.582c0,1.406,0.482,2.571,1.451,3.569
	c1.472,0.506,2.983,1.005,4.559,1.487C541.385,81.936,542.298,81.473,543.094,80.678z"/>
<path fill="#1E2171" d="M516.623,110.559c0-0.893-0.227-1.741-0.699-2.582c-0.458-0.817-1.074-1.427-1.887-1.865
	c-0.842-0.45-1.678-0.672-2.558-0.672c-0.867,0-1.695,0.222-2.541,0.672c-0.813,0.437-1.429,1.047-1.888,1.865
	c-0.472,0.841-0.699,1.689-0.699,2.582c0,1.436,0.495,2.624,1.504,3.633c1.013,1.011,2.198,1.502,3.623,1.502
	c1.439,0,2.631-0.492,3.64-1.502C516.132,113.182,516.623,111.994,516.623,110.559z"/>
<path fill="#1E2171" d="M651.36,48.666c1.433,0,2.626-0.491,3.635-1.504c1.015-1.008,1.504-2.197,1.504-3.631
	c0-0.893-0.227-1.741-0.697-2.583c-0.461-0.817-1.077-1.427-1.89-1.863c-0.842-0.453-1.678-0.675-2.553-0.675
	c-0.872,0-1.7,0.221-2.544,0.675c-0.815,0.436-1.431,1.046-1.885,1.863c-0.471,0.842-0.702,1.689-0.702,2.583
	c0,1.434,0.494,2.623,1.503,3.631C648.746,48.175,649.93,48.666,651.36,48.666z"/>
<path fill="#1E2171" d="M712.226,145.55c0.135-0.465,0.224-0.95,0.224-1.477c0-0.894-0.228-1.742-0.697-2.581
	c-0.458-0.819-1.077-1.429-1.89-1.867c-0.839-0.45-1.678-0.672-2.552-0.672c-0.87,0-1.7,0.222-2.544,0.672
	c-0.813,0.437-1.431,1.048-1.885,1.867c-0.471,0.839-0.702,1.687-0.702,2.581c0,0.643,0.116,1.231,0.316,1.78
	c0.3,0.002,0.59,0.011,0.89,0.011C706.46,145.864,709.393,145.75,712.226,145.55z"/>
<path fill="#1E2171" d="M681.888,139.625c-0.839-0.45-1.675-0.672-2.555-0.672c-0.867,0-1.695,0.222-2.541,0.672
	c-0.813,0.437-1.429,1.048-1.89,1.867c-0.235,0.423-0.412,0.851-0.528,1.287c3.105,0.791,6.455,1.428,10.043,1.914
	c0.023-0.203,0.057-0.404,0.057-0.619c0-0.894-0.227-1.742-0.697-2.581C683.319,140.673,682.704,140.063,681.888,139.625z"/>
<path fill="#1E2171" d="M647.061,58.124c0.775,1.462,1.635,2.883,2.633,4.237v-4.237H647.061z"/>
<path fill="#1E2171" d="M649.694,127.79v-2.639h-2.008C648.325,126.051,648.997,126.929,649.694,127.79z"/>
<path fill="#1E2171" d="M644.143,47.752c-0.361-0.624-0.633-1.269-0.826-1.934c0.357,3.185,1.116,6.177,2.225,9.001h4.152v-3.091
	c-0.77-0.157-1.577-0.46-2.406-0.905C645.973,50.123,644.914,49.087,644.143,47.752z"/>
<path fill="#1E2171" d="M674.902,7.435c-0.47,0.841-0.697,1.688-0.697,2.583c0,1.434,0.493,2.623,1.504,3.632
	c1.013,1.011,2.198,1.503,3.623,1.503c1.439,0,2.629-0.492,3.64-1.503c1.013-1.008,1.502-2.198,1.502-3.632
	c0-0.894-0.227-1.741-0.697-2.583c-0.458-0.817-1.074-1.427-1.89-1.864c-0.839-0.453-1.675-0.674-2.555-0.674
	c-0.867,0-1.695,0.22-2.541,0.674C675.98,6.007,675.363,6.618,674.902,7.435z"/>
<path fill="#1E2171" d="M764.909,88.201v0.131h0.031C764.932,88.288,764.92,88.245,764.909,88.201z"/>
<path fill="#1E2171" d="M758.832,40.949c-0.235,0.423-0.412,0.844-0.528,1.272l3.007-0.174c-0.128-1.038-0.316-2.009-0.485-3.006
	c-0.034,0.019-0.069,0.025-0.108,0.044C759.904,39.521,759.288,40.132,758.832,40.949z"/>
<path fill="#1E2171" d="M763.026,82.157c-0.763-1.882-1.662-3.71-2.725-5.474c-0.454-0.753-0.948-1.493-1.473-2.218
	c-0.467,0.841-0.698,1.689-0.698,2.58c0,1.435,0.494,2.623,1.505,3.632C760.59,81.631,761.705,82.105,763.026,82.157z"/>
<path fill="#1E2171" d="M760.717,106.112c-0.813,0.437-1.429,1.047-1.885,1.865c-0.471,0.841-0.702,1.689-0.702,2.582
	c0,1.436,0.494,2.624,1.505,3.633c0.751,0.747,1.594,1.206,2.559,1.398c1.372-3.14,2.363-6.383,2.976-9.736
	c-0.628-0.249-1.255-0.414-1.909-0.414C762.391,105.44,761.563,105.661,760.717,106.112z"/>
<path fill="#1E2171" d="M732.745,5.571c-0.815,0.436-1.431,1.047-1.89,1.864c-0.47,0.841-0.697,1.688-0.697,2.583
	c0,1.434,0.493,2.623,1.502,3.632c1.015,1.011,2.198,1.503,3.625,1.503c1.437,0,2.629-0.492,3.638-1.503
	c1.015-1.008,1.504-2.198,1.504-3.632c0-0.894-0.227-1.741-0.699-2.583c-0.066-0.112-0.153-0.19-0.224-0.296
	c-1.517-0.79-3.13-1.506-4.819-2.163C734.035,5.055,733.392,5.224,732.745,5.571z"/>
<path fill="#1E2171" d="M649.694,20.272c-0.104,0.156-0.223,0.304-0.327,0.462c-0.123,0.189-0.227,0.381-0.347,0.57h0.674V20.272z"
	/>
<path fill="#1E2171" d="M682.973,80.678c1.013-1.009,1.502-2.198,1.502-3.632c0-0.894-0.227-1.741-0.697-2.582
	c-0.458-0.818-1.074-1.428-1.89-1.864c-0.839-0.453-1.675-0.674-2.555-0.674c-0.867,0-1.695,0.221-2.541,0.674
	c-0.813,0.436-1.429,1.047-1.89,1.864c-0.47,0.841-0.697,1.688-0.697,2.582c0,0.838,0.189,1.587,0.532,2.271
	c2.148,0.819,4.427,1.606,6.813,2.363C682.058,81.433,682.538,81.113,682.973,80.678z"/>
<path fill="#1E2171" d="M712.45,77.045c0-0.894-0.228-1.741-0.697-2.582c-0.458-0.818-1.077-1.428-1.89-1.864
	c-0.839-0.453-1.678-0.674-2.552-0.674c-0.87,0-1.7,0.221-2.544,0.674c-0.813,0.436-1.431,1.047-1.885,1.864
	c-0.471,0.841-0.702,1.688-0.702,2.582c0,1.435,0.494,2.623,1.502,3.632c1.015,1.011,2.198,1.501,3.629,1.501
	c1.436,0,2.626-0.489,3.637-1.501C711.961,79.669,712.45,78.48,712.45,77.045z"/>
<path fill="#1E2171" d="M681.888,106.112c-0.839-0.45-1.675-0.672-2.555-0.672c-0.867,0-1.695,0.222-2.541,0.672
	c-0.813,0.437-1.429,1.047-1.89,1.865c-0.47,0.841-0.697,1.689-0.697,2.582c0,1.436,0.493,2.624,1.504,3.633
	c1.013,1.011,2.198,1.502,3.623,1.502c1.439,0,2.629-0.492,3.64-1.502c1.013-1.01,1.502-2.198,1.502-3.633
	c0-0.729-0.192-1.428-0.508-2.12c-0.235-0.355-0.458-0.729-0.678-1.109C682.9,106.844,682.457,106.418,681.888,106.112z"/>
<path fill="#1E2171" d="M735.285,138.953c-0.869,0-1.697,0.222-2.541,0.672c-0.815,0.437-1.431,1.048-1.89,1.867
	c-0.177,0.318-0.288,0.643-0.4,0.967c2.456-0.725,4.777-1.559,6.953-2.514c0.183-0.079,0.348-0.169,0.525-0.251
	c-0.034-0.019-0.057-0.05-0.092-0.069C736.999,139.175,736.164,138.953,735.285,138.953z"/>
<path fill="#1E2171" d="M712.45,10.018c0-0.894-0.228-1.741-0.697-2.583c-0.458-0.817-1.077-1.427-1.89-1.864
	c-0.839-0.453-1.678-0.674-2.552-0.674c-0.87,0-1.7,0.22-2.544,0.674c-0.813,0.436-1.431,1.047-1.885,1.864
	c-0.471,0.841-0.702,1.688-0.702,2.583c0,1.434,0.494,2.623,1.502,3.632c1.015,1.011,2.198,1.503,3.629,1.503
	c1.436,0,2.626-0.492,3.637-1.503C711.961,12.641,712.45,11.452,712.45,10.018z"/>
<path fill="#1E2171" d="M681.888,39.085c-0.839-0.453-1.675-0.675-2.555-0.675c-0.867,0-1.695,0.221-2.541,0.675
	c-0.813,0.436-1.429,1.046-1.89,1.863c-0.47,0.842-0.697,1.689-0.697,2.583c0,1.434,0.493,2.623,1.504,3.631
	c1.013,1.013,2.198,1.504,3.623,1.504c1.439,0,2.629-0.491,3.64-1.504c1.013-1.008,1.502-2.197,1.502-3.631
	c0-0.893-0.227-1.741-0.697-2.583C683.319,40.132,682.704,39.521,681.888,39.085z"/>
<path fill="#1E2171" d="M739.729,40.949c-0.459-0.817-1.074-1.427-1.888-1.863c-0.841-0.453-1.677-0.675-2.555-0.675
	c-0.869,0-1.697,0.221-2.541,0.675c-0.815,0.436-1.431,1.046-1.89,1.863c-0.47,0.842-0.697,1.689-0.697,2.583
	c0,0.116,0.023,0.222,0.031,0.333l10.205-0.597C740.351,42.472,740.155,41.705,739.729,40.949z"/>
<path fill="#1E2171" d="M656.499,110.559c0-0.893-0.227-1.741-0.697-2.582c-0.461-0.817-1.077-1.427-1.89-1.865
	c-0.842-0.45-1.678-0.672-2.553-0.672c-0.872,0-1.7,0.222-2.544,0.672c-0.815,0.437-1.431,1.047-1.885,1.865
	c-0.471,0.841-0.702,1.689-0.702,2.582c0,1.436,0.494,2.624,1.503,3.633c1.014,1.011,2.198,1.502,3.628,1.502
	c1.433,0,2.626-0.492,3.635-1.502C656.01,113.182,656.499,111.994,656.499,110.559z"/>
<path fill="#1E2171" d="M737.841,72.599c-0.841-0.453-1.677-0.674-2.555-0.674c-0.869,0-1.697,0.221-2.541,0.674
	c-0.815,0.436-1.431,1.047-1.89,1.864c-0.47,0.841-0.697,1.688-0.697,2.582c0,1.435,0.493,2.623,1.502,3.632
	c1.015,1.011,2.198,1.501,3.625,1.501c1.437,0,2.629-0.489,3.638-1.501c1.015-1.009,1.504-2.198,1.504-3.632
	c0-0.894-0.227-1.741-0.699-2.582C739.27,73.645,738.654,73.035,737.841,72.599z"/>
<path fill="#1E2171" d="M740.427,110.559c0-0.893-0.227-1.741-0.699-2.582c-0.459-0.817-1.074-1.427-1.888-1.865
	c-0.841-0.45-1.677-0.672-2.555-0.672c-0.869,0-1.697,0.222-2.541,0.672c-0.815,0.437-1.431,1.047-1.89,1.865
	c-0.47,0.841-0.697,1.689-0.697,2.582c0,1.436,0.493,2.624,1.502,3.633c1.015,1.011,2.198,1.502,3.625,1.502
	c1.437,0,2.629-0.492,3.638-1.502C739.938,113.182,740.427,111.994,740.427,110.559z"/>
<path fill="#1E2171" d="M755.34,125.151v-3.305h3.526c0.691-1.096,1.328-2.206,1.917-3.328c-0.52-0.17-1.047-0.377-1.591-0.667
	c-1.316-0.701-2.374-1.737-3.147-3.072c-0.766-1.323-1.156-2.747-1.156-4.233c0-1.44,0.37-2.839,1.102-4.155
	c0.745-1.333,1.793-2.384,3.124-3.12c1.306-0.726,2.706-1.094,4.158-1.094c0.811,0,1.6,0.128,2.375,0.358
	c0.173-1.634,0.289-3.288,0.289-4.971c0-2.028-0.139-4.002-0.397-5.926h-0.631v5.967h-3.312v-5.967h-6.257v-3.306h6.257v-3.089
	c-0.772-0.158-1.577-0.462-2.406-0.905c-1.316-0.701-2.374-1.738-3.147-3.072c-0.766-1.325-1.156-2.747-1.156-4.233
	c0-1.441,0.37-2.84,1.102-4.155c0.212-0.377,0.45-0.725,0.715-1.056c-3.629-4.121-8.425-7.718-14.427-10.772
	c-1.581-0.805-3.366-1.606-5.345-2.407v5.448h-3.311v-5.965h-6.262V55.26c-4.672-1.464-10.008-2.925-16.025-4.38
	c-0.738,0.405-1.532,0.688-2.379,0.843v3.095h6.244v3.306h-6.244v5.965h-3.313v-5.965h-6.255v-3.306h6.255v-3.091
	c-0.77-0.157-1.575-0.46-2.406-0.905c-1.074-0.575-1.974-1.386-2.69-2.392c-6.229-1.333-10.532-2.755-12.888-4.263
	c-0.139,1.94-0.868,3.666-2.236,5.109c-1.245,1.311-2.733,2.132-4.441,2.447v3.095h6.247v3.306h-6.247v5.965h-3.311v-5.965h-6.262
	v-3.306h6.262v-3.091c-0.772-0.157-1.577-0.46-2.406-0.905c-1.316-0.7-2.375-1.735-3.151-3.071
	c-0.763-1.323-1.152-2.748-1.152-4.234c0-1.44,0.37-2.84,1.101-4.154c0.746-1.333,1.794-2.384,3.12-3.121
	c1.31-0.725,2.711-1.095,4.163-1.095c1.439,0,2.835,0.372,4.145,1.099c0.274-2.613,1.535-4.864,3.798-6.756
	c2.571-2.149,6.391-3.223,11.468-3.223c2.526,0,4.812,0.253,6.886,0.737v-2.393h-6.255v-3.306h6.255v-3.092
	c-0.77-0.158-1.575-0.459-2.406-0.904c-1.314-0.7-2.375-1.735-3.145-3.071c-0.766-1.323-1.157-2.747-1.157-4.233
	c0-1.442,0.372-2.84,1.104-4.155c0.743-1.333,1.793-2.384,3.122-3.121c1.308-0.725,2.706-1.095,4.16-1.095
	c1.447,0,2.841,0.372,4.157,1.102c1.328,0.742,2.382,1.794,3.118,3.123c0.728,1.309,1.094,2.703,1.094,4.145
	c0,2.215-0.77,4.152-2.294,5.757c-1.244,1.313-2.733,2.133-4.439,2.448v3.095h6.244v3.306h-6.244v3.437
	c1.606,0.665,3.049,1.51,4.308,2.549c3.502,2.886,5.799,7.505,6.889,13.854l6.793-0.396c-0.011-0.179-0.034-0.356-0.034-0.538
	c0-1.44,0.37-2.84,1.103-4.154c0.744-1.333,1.792-2.384,3.118-3.121c1.31-0.725,2.711-1.095,4.165-1.095
	c1.44,0,2.841,0.372,4.154,1.102c1.331,0.744,2.382,1.794,3.12,3.123c0.652,1.174,0.998,2.421,1.063,3.706l11.328-0.662
	c0.139-1.052,0.481-2.076,1.024-3.054c0.745-1.333,1.793-2.384,3.124-3.121c0.358-0.199,0.72-0.363,1.094-0.509
	c-0.897-4.077-2.162-7.777-3.767-11.122h-1.101v-2.186c-2.78-5.022-6.409-9.162-10.943-12.37c-0.239-0.169-0.512-0.31-0.754-0.474
	c0.007,0.141,0.027,0.282,0.027,0.424c0,2.215-0.771,4.152-2.295,5.757c-1.243,1.313-2.733,2.133-4.441,2.448v3.095h6.247v3.306
	h-6.247v5.965h-3.311v-5.965h-6.262v-3.306h6.262v-3.092c-0.77-0.158-1.577-0.459-2.406-0.904c-1.316-0.7-2.375-1.735-3.149-3.071
	c-0.765-1.323-1.154-2.747-1.154-4.233c0-1.442,0.37-2.84,1.103-4.155c0.54-0.968,1.244-1.78,2.092-2.438
	C722.531,1.162,713.557,0,703.097,0c-8.392,0-15.728,0.622-22.082,1.82c0.855,0.175,1.689,0.472,2.49,0.916
	c1.331,0.742,2.383,1.794,3.118,3.123c0.73,1.309,1.096,2.703,1.096,4.145c0,2.215-0.771,4.152-2.295,5.757
	c-1.245,1.313-2.733,2.133-4.441,2.448v3.095h6.247v3.306h-6.247v5.965h-3.311v-5.965h-6.262v-3.306h6.262v-3.092
	c-0.772-0.158-1.577-0.459-2.406-0.904c-1.316-0.7-2.375-1.735-3.151-3.071c-0.763-1.323-1.152-2.747-1.152-4.233
	c0-1.442,0.37-2.84,1.101-4.155c0.522-0.933,1.2-1.718,2.009-2.363c-2.032,0.609-3.963,1.278-5.72,2.046
	c-3.182,1.387-6.057,2.97-8.637,4.749c-0.066,2.095-0.813,3.944-2.271,5.48c-1.244,1.313-2.733,2.133-4.441,2.448v3.095h6.246v3.306
	h-6.246v5.965h-3.312v-5.965h-2.555c-2.706,5.299-4.087,10.852-4.087,16.665c0,0.328,0.039,0.636,0.046,0.956
	c0.154-0.987,0.478-1.948,0.992-2.869c0.743-1.333,1.791-2.384,3.122-3.121c1.308-0.725,2.706-1.095,4.16-1.095
	c1.445,0,2.841,0.372,4.155,1.102c1.33,0.744,2.382,1.794,3.12,3.123c0.728,1.309,1.094,2.704,1.094,4.145
	c0,2.215-0.77,4.153-2.294,5.758c-1.244,1.311-2.733,2.132-4.441,2.447v3.095h6.246v3.306h-6.246v5.965h-1.915
	c1.291,1.539,2.694,3.026,4.297,4.415c3.933,3.429,9.149,6.528,15.626,9.301c-0.023-0.256-0.05-0.512-0.05-0.774
	c0-1.441,0.37-2.84,1.101-4.155c0.746-1.333,1.794-2.383,3.12-3.121c1.31-0.725,2.711-1.095,4.163-1.095
	c1.442,0,2.843,0.372,4.156,1.102c1.331,0.744,2.383,1.794,3.118,3.123c0.73,1.309,1.096,2.704,1.096,4.145
	c0,2.215-0.771,4.152-2.295,5.759c-0.015,0.017-0.034,0.029-0.05,0.046c3.435,0.988,7.086,1.92,10.975,2.795
	c3.494,0.766,6.562,1.549,9.295,2.344v-2.733c-0.77-0.158-1.575-0.462-2.406-0.905c-1.314-0.701-2.375-1.738-3.145-3.072
	c-0.766-1.325-1.157-2.747-1.157-4.233c0-1.441,0.372-2.84,1.104-4.155c0.743-1.333,1.793-2.383,3.122-3.121
	c1.308-0.725,2.706-1.095,4.16-1.095c1.447,0,2.841,0.372,4.157,1.102c1.328,0.744,2.382,1.794,3.118,3.123
	c0.728,1.309,1.094,2.704,1.094,4.145c0,2.215-0.77,4.152-2.294,5.759c-1.244,1.311-2.733,2.13-4.439,2.448v3.093h6.244v3.199
	c1.465,0.75,2.653,1.508,3.509,2.279c3.211,2.887,4.819,6.159,4.819,9.813c0,3.851-1.685,7.233-5.058,10.151
	c-1.597,1.38-3.521,2.422-5.752,3.149c-1.098,0.944-2.352,1.568-3.762,1.83v3.093h6.244v3.305h-6.244v5.967h-3.313v-5.967h-6.255
	v-3.305h6.255v-3.09c-0.566-0.117-1.159-0.341-1.76-0.612c-6.728-0.035-12.18-1.955-16.389-5.719
	c-0.32,1.443-0.999,2.747-2.071,3.879c-1.245,1.312-2.733,2.13-4.441,2.448v3.093h6.247v3.305h-6.247v5.967h-3.311v-5.967h-6.262
	v-3.305h6.262v-3.09c-0.772-0.16-1.577-0.462-2.406-0.905c-1.316-0.701-2.375-1.737-3.151-3.072
	c-0.763-1.323-1.152-2.747-1.152-4.233c0-1.44,0.37-2.839,1.101-4.155c0.746-1.333,1.794-2.384,3.12-3.12
	c1.31-0.726,2.711-1.094,4.163-1.094c0.598,0,1.184,0.079,1.762,0.204c-0.489-1.468-0.901-3.063-1.241-4.777h-2.198v-3.307
	l-24.667,1.54v1.767h-3.312v-1.558l-11.943,0.745c0.813,9.464,3.437,17.801,7.798,25.054h4.145v-3.09
	c-0.77-0.16-1.577-0.462-2.406-0.905c-1.316-0.701-2.374-1.737-3.145-3.072c-0.768-1.323-1.157-2.747-1.157-4.233
	c0-1.44,0.37-2.839,1.104-4.155c0.743-1.333,1.791-2.384,3.122-3.12c1.308-0.726,2.706-1.094,4.16-1.094
	c1.445,0,2.841,0.37,4.155,1.101c1.33,0.742,2.382,1.794,3.12,3.123c0.728,1.309,1.094,2.704,1.094,4.145
	c0,2.215-0.77,4.153-2.294,5.759c-1.244,1.312-2.733,2.13-4.441,2.448v3.093h6.246v3.305h-6.246v5.967h-0.362
	c0.281,0.293,0.532,0.603,0.818,0.89c4.317,4.308,10.258,7.596,17.788,9.896c0.185-0.682,0.455-1.353,0.816-2
	c0.746-1.332,1.794-2.384,3.12-3.12c1.31-0.726,2.711-1.094,4.163-1.094c1.442,0,2.843,0.37,4.156,1.102
	c1.331,0.741,2.383,1.793,3.118,3.122c0.73,1.309,1.096,2.706,1.096,4.145c0,0.352-0.055,0.686-0.092,1.023
	c3.611,0.384,7.444,0.632,11.516,0.73c-0.123-0.574-0.206-1.158-0.206-1.753c0-1.439,0.372-2.839,1.104-4.155
	c0.743-1.332,1.793-2.384,3.122-3.12c1.308-0.726,2.706-1.094,4.16-1.094c1.447,0,2.841,0.37,4.157,1.102
	c1.328,0.741,2.382,1.793,3.118,3.122c0.728,1.309,1.094,2.706,1.094,4.145c0,0.412-0.054,0.803-0.104,1.195
	c4.04-0.41,7.843-1.029,11.37-1.872c0.1-1.202,0.443-2.37,1.06-3.477c0.744-1.332,1.792-2.384,3.118-3.12
	c1.31-0.726,2.711-1.094,4.165-1.094c1.44,0,2.841,0.37,4.154,1.102c0.649,0.36,1.227,0.799,1.74,1.305
	c6.219-3.311,11.354-7.624,15.397-12.947H755.34z M743.181,121.846v3.305h-6.247v5.967h-3.311v-5.967h-6.262v-3.305h6.262v-3.09
	c-0.77-0.16-1.577-0.462-2.406-0.905c-1.316-0.701-2.375-1.737-3.149-3.072c-0.765-1.323-1.154-2.747-1.154-4.233
	c0-1.44,0.37-2.839,1.103-4.155c0.744-1.333,1.792-2.384,3.118-3.12c1.31-0.726,2.711-1.094,4.165-1.094
	c1.44,0,2.841,0.37,4.154,1.101c1.331,0.742,2.382,1.794,3.12,3.123c0.728,1.309,1.095,2.704,1.095,4.145
	c0,2.215-0.771,4.153-2.295,5.759c-1.243,1.312-2.733,2.13-4.441,2.448v3.093H743.181z M741.375,82.791
	c-1.243,1.311-2.733,2.13-4.441,2.448v3.093h6.247v3.306h-6.247v5.967h-3.311v-5.967h-6.262v-3.306h6.262v-3.089
	c-0.77-0.158-1.577-0.462-2.406-0.905c-1.316-0.701-2.375-1.738-3.149-3.072c-0.765-1.325-1.154-2.747-1.154-4.233
	c0-1.441,0.37-2.84,1.103-4.155c0.744-1.333,1.792-2.383,3.118-3.121c1.31-0.725,2.711-1.095,4.165-1.095
	c1.44,0,2.841,0.372,4.154,1.102c1.331,0.744,2.382,1.794,3.12,3.123c0.728,1.309,1.095,2.704,1.095,4.145
	C743.67,79.247,742.899,81.184,741.375,82.791z"/>
<g>
	<g>
		<path fill="#1E2171" d="M142.373,195.021v-21.248h2.816v21.248H142.373z"/>
		<path fill="#1E2171" d="M149.821,195.021V179.63h2.352v2.19c1.133-1.693,2.768-2.539,4.907-2.539c0.93,0,1.783,0.165,2.563,0.499
			c0.779,0.333,1.362,0.772,1.75,1.311c0.387,0.544,0.658,1.185,0.813,1.927c0.096,0.485,0.144,1.33,0.144,2.536v9.467h-2.613
			v-9.364c0-1.061-0.102-1.855-0.305-2.384c-0.203-0.524-0.564-0.946-1.082-1.26c-0.518-0.313-1.126-0.47-1.823-0.47
			c-1.111,0-2.073,0.352-2.881,1.056c-0.809,0.706-1.213,2.045-1.213,4.015v8.408H149.821z"/>
		<path fill="#1E2171" d="M176.361,195.021v-1.94c-0.978,1.524-2.414,2.286-4.312,2.286c-1.229,0-2.359-0.337-3.39-1.013
			c-1.029-0.676-1.83-1.622-2.394-2.833c-0.568-1.214-0.85-2.606-0.85-4.182c0-1.536,0.256-2.93,0.769-4.183
			c0.514-1.25,1.283-2.21,2.308-2.878c1.027-0.664,2.174-0.998,3.442-0.998c0.929,0,1.757,0.197,2.483,0.585
			c0.726,0.391,1.316,0.9,1.772,1.532v-7.625h2.598v21.248H176.361z M168.1,187.34c0,1.97,0.416,3.448,1.248,4.42
			c0.833,0.976,1.815,1.464,2.948,1.464c1.142,0,2.112-0.466,2.911-1.398c0.798-0.932,1.198-2.354,1.198-4.268
			c0-2.107-0.406-3.652-1.22-4.638c-0.813-0.986-1.814-1.479-3.005-1.479c-1.161,0-2.133,0.474-2.912,1.422
			C168.489,183.81,168.1,185.298,168.1,187.34z"/>
		<path fill="#1E2171" d="M182.909,176.776v-3.003h2.615v3.003H182.909z M182.909,195.021V179.63h2.615v15.391H182.909z"/>
		<path fill="#1E2171" d="M199.563,193.124c-0.968,0.823-1.899,1.401-2.795,1.739c-0.896,0.336-1.856,0.505-2.881,0.505
			c-1.694,0-2.996-0.412-3.906-1.236c-0.909-0.828-1.365-1.884-1.365-3.169c0-0.754,0.171-1.44,0.515-2.066
			c0.343-0.62,0.793-1.123,1.351-1.499c0.555-0.377,1.183-0.66,1.879-0.857c0.515-0.133,1.288-0.262,2.324-0.389
			c2.11-0.25,3.663-0.553,4.66-0.901c0.01-0.354,0.014-0.582,0.014-0.68c0-1.059-0.246-1.81-0.74-2.246
			c-0.668-0.588-1.66-0.885-2.976-0.885c-1.23,0-2.138,0.216-2.722,0.643c-0.588,0.432-1.02,1.191-1.301,2.284l-2.554-0.345
			c0.232-1.094,0.613-1.978,1.147-2.646c0.532-0.674,1.302-1.191,2.307-1.555c1.006-0.358,2.174-0.541,3.499-0.541
			c1.316,0,2.387,0.154,3.21,0.462c0.822,0.31,1.427,0.699,1.815,1.168c0.386,0.47,0.658,1.061,0.812,1.777
			c0.088,0.444,0.131,1.244,0.131,2.404v3.479c0,2.427,0.055,3.96,0.167,4.603c0.111,0.642,0.331,1.258,0.661,1.847h-2.73
			C199.815,194.48,199.641,193.846,199.563,193.124z M199.345,187.296c-0.949,0.387-2.371,0.717-4.268,0.986
			c-1.073,0.156-1.834,0.33-2.279,0.52c-0.446,0.197-0.789,0.478-1.03,0.85c-0.242,0.372-0.363,0.786-0.363,1.236
			c0,0.697,0.263,1.278,0.791,1.742c0.527,0.464,1.298,0.695,2.315,0.695c1.006,0,1.902-0.218,2.686-0.659
			c0.784-0.439,1.36-1.038,1.727-1.803c0.282-0.589,0.421-1.458,0.421-2.608V187.296z"/>
		<path fill="#1E2171" d="M206.039,195.021V179.63h2.352v2.19c1.133-1.693,2.769-2.539,4.907-2.539c0.929,0,1.782,0.165,2.563,0.499
			c0.779,0.333,1.362,0.772,1.749,1.311c0.388,0.544,0.659,1.185,0.814,1.927c0.096,0.485,0.144,1.33,0.144,2.536v9.467h-2.613
			v-9.364c0-1.061-0.102-1.855-0.305-2.384c-0.202-0.524-0.564-0.946-1.082-1.26c-0.519-0.313-1.125-0.47-1.822-0.47
			c-1.114,0-2.075,0.352-2.883,1.056c-0.809,0.706-1.213,2.045-1.213,4.015v8.408H206.039z"/>
		<path fill="#1E2171" d="M230.315,184.672c0-3.526,0.95-6.289,2.846-8.282c1.898-1.997,4.346-2.995,7.347-2.995
			c1.965,0,3.736,0.473,5.314,1.408c1.577,0.937,2.78,2.244,3.608,3.92c0.826,1.678,1.242,3.579,1.242,5.705
			c0,2.153-0.436,4.083-1.307,5.78c-0.871,1.703-2.105,2.989-3.703,3.865c-1.598,0.873-3.32,1.31-5.169,1.31
			c-2.003,0-3.795-0.482-5.372-1.447c-1.578-0.967-2.774-2.286-3.586-3.96C230.721,188.307,230.315,186.537,230.315,184.672z
			 M233.218,184.717c0,2.562,0.69,4.576,2.07,6.054c1.379,1.47,3.11,2.208,5.191,2.208c2.119,0,3.864-0.743,5.235-2.229
			c1.368-1.49,2.053-3.602,2.053-6.337c0-1.73-0.293-3.239-0.878-4.532c-0.586-1.287-1.442-2.29-2.568-2.997
			c-1.129-0.71-2.394-1.069-3.798-1.069c-1.993,0-3.71,0.686-5.146,2.053C233.937,179.235,233.218,181.52,233.218,184.717z"/>
		<path fill="#1E2171" d="M256.377,195.021h-2.424v-21.248h2.614v7.583c1.103-1.383,2.512-2.075,4.225-2.075
			c0.949,0,1.846,0.192,2.695,0.57c0.845,0.383,1.542,0.916,2.089,1.612c0.546,0.687,0.975,1.521,1.284,2.502
			c0.311,0.974,0.465,2.018,0.465,3.128c0,2.635-0.653,4.679-1.96,6.116c-1.307,1.44-2.874,2.159-4.704,2.159
			c-1.819,0-3.247-0.757-4.283-2.274V195.021z M256.348,187.211c0,1.845,0.251,3.178,0.753,4c0.824,1.342,1.938,2.013,3.341,2.013
			c1.142,0,2.129-0.495,2.961-1.485c0.833-0.988,1.25-2.467,1.25-4.428c0-2.013-0.401-3.494-1.198-4.449
			c-0.799-0.96-1.764-1.435-2.897-1.435c-1.143,0-2.131,0.493-2.962,1.485C256.764,183.902,256.348,185.335,256.348,187.211z"/>
		<path fill="#1E2171" d="M269.459,190.426l2.584-0.406c0.145,1.038,0.549,1.83,1.212,2.377c0.663,0.555,1.59,0.828,2.781,0.828
			c1.199,0,2.091-0.242,2.671-0.733c0.581-0.487,0.871-1.058,0.871-1.715c0-0.591-0.256-1.055-0.77-1.392
			c-0.357-0.233-1.248-0.528-2.671-0.882c-1.917-0.485-3.245-0.903-3.986-1.256c-0.74-0.353-1.302-0.842-1.685-1.464
			c-0.381-0.624-0.572-1.311-0.572-2.064c0-0.69,0.157-1.323,0.472-1.905c0.314-0.588,0.742-1.073,1.285-1.458
			c0.406-0.301,0.96-0.555,1.662-0.761c0.7-0.208,1.454-0.313,2.258-0.313c1.21,0,2.271,0.176,3.187,0.522
			c0.914,0.347,1.59,0.818,2.026,1.412c0.435,0.597,0.735,1.39,0.9,2.386l-2.555,0.349c-0.117-0.795-0.453-1.414-1.009-1.858
			c-0.557-0.443-1.343-0.665-2.359-0.665c-1.2,0-2.057,0.198-2.571,0.592c-0.513,0.398-0.769,0.863-0.769,1.391
			c0,0.342,0.107,0.647,0.318,0.914c0.213,0.281,0.548,0.512,1.003,0.697c0.261,0.097,1.031,0.318,2.309,0.665
			c1.849,0.495,3.139,0.898,3.87,1.212c0.731,0.315,1.304,0.77,1.72,1.371c0.417,0.597,0.625,1.342,0.625,2.23
			c0,0.871-0.253,1.69-0.764,2.456c-0.507,0.77-1.241,1.362-2.198,1.783c-0.959,0.42-2.043,0.63-3.253,0.63
			c-2.004,0-3.532-0.414-4.58-1.244C270.418,193.291,269.749,192.061,269.459,190.426z"/>
		<path fill="#1E2171" d="M291.077,192.687l0.378,2.306c-0.736,0.154-1.394,0.233-1.974,0.233c-0.949,0-1.684-0.153-2.208-0.451
			c-0.521-0.298-0.889-0.691-1.103-1.181c-0.213-0.487-0.319-1.513-0.319-3.08v-8.856h-1.917v-2.028h1.917v-3.815l2.598-1.564v5.38
			h2.628v2.028h-2.628v9c0,0.746,0.045,1.223,0.138,1.435c0.092,0.213,0.243,0.382,0.452,0.508c0.207,0.126,0.505,0.188,0.893,0.188
			C290.221,192.79,290.604,192.756,291.077,192.687z"/>
		<path fill="#1E2171" d="M304.188,190.064l2.701,0.335c-0.427,1.574-1.218,2.797-2.367,3.668c-1.152,0.868-2.622,1.302-4.414,1.302
			c-2.255,0-4.043-0.693-5.365-2.078c-1.322-1.387-1.982-3.332-1.982-5.836c0-2.587,0.668-4.598,2.004-6.027
			c1.336-1.431,3.068-2.146,5.197-2.146c2.062,0,3.747,0.701,5.052,2.101c1.307,1.403,1.96,3.373,1.96,5.913
			c0,0.153-0.005,0.387-0.014,0.693h-11.5c0.097,1.695,0.577,2.989,1.438,3.887c0.861,0.9,1.936,1.348,3.222,1.348
			c0.959,0,1.778-0.25,2.455-0.754C303.255,191.967,303.792,191.167,304.188,190.064z M295.608,185.847h8.609
			c-0.116-1.294-0.446-2.265-0.986-2.914c-0.833-1.005-1.912-1.506-3.239-1.506c-1.2,0-2.21,0.402-3.027,1.204
			C296.147,183.432,295.694,184.505,295.608,185.847z"/>
		<path fill="#1E2171" d="M315.877,192.687l0.377,2.306c-0.735,0.154-1.394,0.233-1.973,0.233c-0.949,0-1.685-0.153-2.207-0.451
			c-0.523-0.298-0.891-0.691-1.103-1.181c-0.213-0.487-0.319-1.513-0.319-3.08v-8.856h-1.917v-2.028h1.917v-3.815l2.598-1.564v5.38
			h2.628v2.028h-2.628v9c0,0.746,0.045,1.223,0.137,1.435c0.092,0.213,0.243,0.382,0.452,0.508c0.208,0.126,0.506,0.188,0.893,0.188
			C315.02,192.79,315.403,192.756,315.877,192.687z"/>
		<path fill="#1E2171" d="M318.403,195.021V179.63h2.352v2.331c0.601-1.09,1.154-1.81,1.661-2.157
			c0.51-0.347,1.068-0.522,1.679-0.522c0.881,0,1.776,0.281,2.686,0.839l-0.9,2.419c-0.639-0.373-1.278-0.564-1.916-0.564
			c-0.572,0-1.084,0.171-1.539,0.514c-0.455,0.345-0.78,0.818-0.974,1.429c-0.291,0.926-0.436,1.943-0.436,3.043v8.059H318.403z"/>
		<path fill="#1E2171" d="M328.349,176.776v-3.003h2.613v3.003H328.349z M328.349,195.021V179.63h2.613v15.391H328.349z"/>
		<path fill="#1E2171" d="M345.002,189.384l2.569,0.331c-0.28,1.77-0.998,3.154-2.155,4.157c-1.158,0.998-2.577,1.497-4.262,1.497
			c-2.111,0-3.807-0.688-5.089-2.064c-1.283-1.377-1.923-3.349-1.923-5.919c0-1.664,0.276-3.118,0.827-4.366
			c0.553-1.243,1.391-2.181,2.518-2.802c1.127-0.622,2.355-0.935,3.681-0.935c1.675,0,3.044,0.422,4.109,1.268
			c1.064,0.848,1.747,2.045,2.046,3.602l-2.541,0.393c-0.242-1.033-0.67-1.813-1.286-2.334c-0.614-0.522-1.357-0.782-2.229-0.782
			c-1.316,0-2.385,0.47-3.208,1.412c-0.823,0.944-1.234,2.431-1.234,4.472c0,2.069,0.397,3.571,1.191,4.508
			c0.792,0.937,1.829,1.405,3.106,1.405c1.026,0,1.883-0.313,2.57-0.943C344.384,191.656,344.818,190.69,345.002,189.384z"/>
		<path fill="#1E2171" d="M357.445,188.197l2.657-0.235c0.125,1.065,0.417,1.935,0.878,2.615c0.46,0.683,1.174,1.234,2.141,1.652
			c0.968,0.422,2.057,0.631,3.268,0.631c1.074,0,2.022-0.158,2.846-0.478c0.822-0.318,1.434-0.753,1.837-1.312
			c0.401-0.555,0.603-1.161,0.603-1.819c0-0.666-0.195-1.248-0.581-1.748c-0.386-0.496-1.026-0.913-1.917-1.25
			c-0.571-0.222-1.836-0.57-3.79-1.038c-1.955-0.468-3.325-0.912-4.108-1.326c-1.017-0.531-1.775-1.19-2.273-1.979
			c-0.498-0.786-0.748-1.668-0.748-2.643c0-1.074,0.306-2.076,0.914-3.008c0.611-0.934,1.5-1.639,2.671-2.124
			c1.172-0.481,2.473-0.724,3.907-0.724c1.578,0,2.969,0.254,4.173,0.761c1.206,0.508,2.133,1.254,2.78,2.24
			c0.649,0.985,0.998,2.101,1.046,3.346l-2.7,0.206c-0.146-1.343-0.637-2.36-1.473-3.045c-0.838-0.684-2.075-1.029-3.71-1.029
			c-1.703,0-2.946,0.311-3.724,0.937c-0.78,0.62-1.169,1.373-1.169,2.253c0,0.761,0.276,1.39,0.827,1.884
			c0.543,0.493,1.958,0.996,4.248,1.513c2.287,0.517,3.859,0.969,4.711,1.356c1.238,0.57,2.153,1.293,2.744,2.167
			c0.592,0.875,0.886,1.88,0.886,3.021c0,1.129-0.324,2.197-0.973,3.196c-0.648,0.999-1.581,1.78-2.796,2.332
			c-1.214,0.557-2.581,0.834-4.103,0.834c-1.924,0-3.54-0.281-4.841-0.842c-1.302-0.557-2.324-1.402-3.062-2.529
			C357.873,190.888,357.482,189.615,357.445,188.197z"/>
		<path fill="#1E2171" d="M388.007,195.021v-2.261c-1.2,1.74-2.83,2.608-4.892,2.608c-0.91,0-1.761-0.173-2.548-0.52
			c-0.791-0.349-1.375-0.784-1.757-1.312c-0.383-0.524-0.651-1.173-0.806-1.936c-0.107-0.512-0.16-1.323-0.16-2.434v-9.536h2.614
			v8.537c0,1.363,0.053,2.28,0.16,2.754c0.164,0.687,0.512,1.223,1.045,1.616c0.533,0.388,1.19,0.587,1.975,0.587
			c0.782,0,1.52-0.202,2.205-0.603c0.687-0.4,1.174-0.948,1.462-1.637c0.283-0.693,0.427-1.693,0.427-3.01v-8.244h2.614v15.391
			H388.007z"/>
		<path fill="#1E2171" d="M394.409,195.021V179.63h2.354v2.331c0.599-1.09,1.152-1.81,1.66-2.157
			c0.508-0.347,1.069-0.522,1.678-0.522c0.882,0,1.778,0.281,2.687,0.839l-0.9,2.419c-0.64-0.373-1.279-0.564-1.917-0.564
			c-0.572,0-1.084,0.171-1.541,0.514c-0.454,0.345-0.778,0.818-0.973,1.429c-0.29,0.926-0.435,1.943-0.435,3.043v8.059H394.409z"/>
		<path fill="#1E2171" d="M408.626,195.021l-5.866-15.391h2.758l3.311,9.216c0.359,0.996,0.688,2.03,0.986,3.103
			c0.233-0.813,0.557-1.789,0.974-2.928l3.424-9.391h2.688l-5.837,15.391H408.626z"/>
		<path fill="#1E2171" d="M429.763,190.064l2.704,0.335c-0.427,1.574-1.218,2.797-2.369,3.668c-1.152,0.868-2.624,1.302-4.413,1.302
			c-2.256,0-4.045-0.693-5.364-2.078c-1.324-1.387-1.984-3.332-1.984-5.836c0-2.587,0.668-4.598,2.004-6.027
			c1.335-1.431,3.068-2.146,5.197-2.146c2.064,0,3.746,0.701,5.052,2.101c1.305,1.403,1.961,3.373,1.961,5.913
			c0,0.153-0.004,0.387-0.014,0.693h-11.501c0.099,1.695,0.579,2.989,1.439,3.887c0.859,0.9,1.936,1.348,3.222,1.348
			c0.96,0,1.776-0.25,2.454-0.754C428.831,191.967,429.368,191.167,429.763,190.064z M421.184,185.847h8.609
			c-0.117-1.294-0.445-2.265-0.987-2.914c-0.83-1.005-1.913-1.506-3.238-1.506c-1.2,0-2.21,0.402-3.028,1.204
			C421.723,183.432,421.271,184.505,421.184,185.847z"/>
		<path fill="#1E2171" d="M435.761,176.776v-3.003h2.614v3.003H435.761z M435.761,195.021V179.63h2.614v15.391H435.761z"/>
		<path fill="#1E2171" d="M442.294,195.021v-21.248h2.614v21.248H442.294z"/>
		<path fill="#1E2171" d="M448.9,195.021v-21.248h2.615v21.248H448.9z"/>
		<path fill="#1E2171" d="M465.627,193.124c-0.967,0.823-1.899,1.401-2.795,1.739c-0.896,0.336-1.856,0.505-2.882,0.505
			c-1.695,0-2.995-0.412-3.906-1.236c-0.909-0.828-1.365-1.884-1.365-3.169c0-0.754,0.172-1.44,0.516-2.066
			c0.343-0.62,0.792-1.123,1.351-1.499c0.557-0.377,1.184-0.66,1.88-0.857c0.512-0.133,1.287-0.262,2.323-0.389
			c2.111-0.25,3.663-0.553,4.661-0.901c0.01-0.354,0.014-0.582,0.014-0.68c0-1.059-0.247-1.81-0.74-2.246
			c-0.667-0.588-1.662-0.885-2.978-0.885c-1.227,0-2.136,0.216-2.722,0.643c-0.585,0.432-1.019,1.191-1.298,2.284l-2.555-0.345
			c0.231-1.094,0.612-1.978,1.147-2.646c0.532-0.674,1.301-1.191,2.308-1.555c1.008-0.358,2.171-0.541,3.5-0.541
			c1.316,0,2.386,0.154,3.206,0.462c0.825,0.31,1.429,0.699,1.815,1.168c0.387,0.47,0.656,1.061,0.813,1.777
			c0.089,0.444,0.133,1.244,0.133,2.404v3.479c0,2.427,0.054,3.96,0.165,4.603c0.114,0.642,0.335,1.258,0.663,1.847h-2.729
			C465.881,194.48,465.703,193.846,465.627,193.124z M465.409,187.296c-0.948,0.387-2.372,0.717-4.268,0.986
			c-1.075,0.156-1.836,0.33-2.281,0.52c-0.447,0.197-0.79,0.478-1.031,0.85c-0.242,0.372-0.363,0.786-0.363,1.236
			c0,0.697,0.263,1.278,0.791,1.742c0.53,0.464,1.3,0.695,2.317,0.695c1.008,0,1.902-0.218,2.685-0.659
			c0.786-0.439,1.362-1.038,1.73-1.803c0.277-0.589,0.42-1.458,0.42-2.608V187.296z"/>
		<path fill="#1E2171" d="M472.1,195.021V179.63h2.356v2.19c1.131-1.693,2.768-2.539,4.905-2.539c0.93,0,1.785,0.165,2.562,0.499
			c0.78,0.333,1.364,0.772,1.751,1.311c0.387,0.544,0.658,1.185,0.813,1.927c0.096,0.485,0.144,1.33,0.144,2.536v9.467h-2.614
			v-9.364c0-1.061-0.102-1.855-0.302-2.384c-0.206-0.524-0.564-0.946-1.083-1.26c-0.52-0.313-1.125-0.47-1.822-0.47
			c-1.115,0-2.074,0.352-2.881,1.056c-0.811,0.706-1.216,2.045-1.216,4.015v8.408H472.1z"/>
		<path fill="#1E2171" d="M498.699,189.384l2.571,0.331c-0.279,1.77-0.998,3.154-2.157,4.157c-1.156,0.998-2.576,1.497-4.258,1.497
			c-2.112,0-3.81-0.688-5.091-2.064c-1.279-1.377-1.924-3.349-1.924-5.919c0-1.664,0.277-3.118,0.828-4.366
			c0.551-1.243,1.39-2.181,2.519-2.802c1.127-0.622,2.356-0.935,3.681-0.935c1.676,0,3.045,0.422,4.109,1.268
			c1.065,0.848,1.749,2.045,2.048,3.602l-2.54,0.393c-0.243-1.033-0.67-1.813-1.285-2.334c-0.617-0.522-1.358-0.782-2.228-0.782
			c-1.317,0-2.387,0.47-3.209,1.412c-0.825,0.944-1.235,2.431-1.235,4.472c0,2.069,0.397,3.571,1.191,4.508
			c0.795,0.937,1.83,1.405,3.108,1.405c1.025,0,1.88-0.313,2.572-0.943C498.081,191.656,498.518,190.69,498.699,189.384z"/>
		<path fill="#1E2171" d="M514.064,190.064l2.698,0.335c-0.425,1.574-1.213,2.797-2.365,3.668c-1.152,0.868-2.623,1.302-4.414,1.302
			c-2.255,0-4.045-0.693-5.362-2.078c-1.323-1.387-1.984-3.332-1.984-5.836c0-2.587,0.668-4.598,2.005-6.027
			c1.335-1.431,3.067-2.146,5.197-2.146c2.063,0,3.744,0.701,5.052,2.101c1.306,1.403,1.963,3.373,1.963,5.913
			c0,0.153-0.006,0.387-0.015,0.693h-11.501c0.096,1.695,0.576,2.989,1.435,3.887c0.865,0.9,1.938,1.348,3.227,1.348
			c0.957,0,1.776-0.25,2.454-0.754C513.127,191.967,513.664,191.167,514.064,190.064z M505.481,185.847h8.612
			c-0.117-1.294-0.447-2.265-0.99-2.914c-0.83-1.005-1.911-1.506-3.236-1.506c-1.2,0-2.211,0.402-3.028,1.204
			C506.022,183.432,505.569,184.505,505.481,185.847z"/>
		<path fill="#1E2171" d="M527.681,188.197l2.658-0.235c0.125,1.065,0.416,1.935,0.878,2.615c0.459,0.683,1.173,1.234,2.142,1.652
			c0.966,0.422,2.057,0.631,3.265,0.631c1.076,0,2.027-0.158,2.847-0.478c0.825-0.318,1.437-0.753,1.838-1.312
			c0.4-0.555,0.601-1.161,0.601-1.819c0-0.666-0.193-1.248-0.581-1.748c-0.386-0.496-1.026-0.913-1.916-1.25
			c-0.57-0.222-1.834-0.57-3.789-1.038c-1.955-0.468-3.325-0.912-4.11-1.326c-1.015-0.531-1.774-1.19-2.271-1.979
			c-0.499-0.786-0.75-1.668-0.75-2.643c0-1.074,0.306-2.076,0.915-3.008c0.61-0.934,1.502-1.639,2.671-2.124
			c1.173-0.481,2.473-0.724,3.906-0.724c1.58,0,2.971,0.254,4.174,0.761c1.206,0.508,2.132,1.254,2.781,2.24
			c0.649,0.985,0.998,2.101,1.046,3.346l-2.7,0.206c-0.147-1.343-0.638-2.36-1.474-3.045c-0.838-0.684-2.075-1.029-3.712-1.029
			c-1.702,0-2.943,0.311-3.723,0.937c-0.78,0.62-1.169,1.373-1.169,2.253c0,0.761,0.277,1.39,0.826,1.884
			c0.542,0.493,1.961,0.996,4.249,1.513c2.288,0.517,3.858,0.969,4.711,1.356c1.239,0.57,2.153,1.293,2.745,2.167
			c0.589,0.875,0.884,1.88,0.884,3.021c0,1.129-0.324,2.197-0.973,3.196c-0.645,0.999-1.579,1.78-2.793,2.332
			c-1.218,0.557-2.583,0.834-4.102,0.834c-1.929,0-3.541-0.281-4.843-0.842c-1.304-0.557-2.322-1.402-3.064-2.529
			C528.111,190.888,527.72,189.615,527.681,188.197z"/>
		<path fill="#1E2171" d="M548.024,200.95l-0.29-2.448c0.57,0.153,1.067,0.229,1.492,0.229c0.581,0,1.048-0.094,1.395-0.288
			c0.349-0.194,0.635-0.464,0.859-0.814c0.164-0.26,0.429-0.907,0.797-1.938c0.046-0.148,0.124-0.362,0.235-0.642l-5.853-15.42
			h2.816l3.211,8.916c0.414,1.127,0.788,2.317,1.115,3.561c0.3-1.196,0.659-2.367,1.077-3.506l3.293-8.971h2.614l-5.864,15.653
			c-0.629,1.69-1.12,2.855-1.466,3.49c-0.464,0.862-0.996,1.495-1.599,1.895c-0.599,0.399-1.316,0.599-2.149,0.599
			C549.203,201.267,548.643,201.162,548.024,200.95z"/>
		<path fill="#1E2171" d="M561.961,190.426l2.585-0.406c0.146,1.038,0.549,1.83,1.211,2.377c0.665,0.555,1.591,0.828,2.782,0.828
			c1.202,0,2.091-0.242,2.671-0.733c0.582-0.487,0.873-1.058,0.873-1.715c0-0.591-0.258-1.055-0.772-1.392
			c-0.357-0.233-1.246-0.528-2.672-0.882c-1.917-0.485-3.243-0.903-3.983-1.256c-0.743-0.353-1.304-0.842-1.685-1.464
			c-0.384-0.624-0.572-1.311-0.572-2.064c0-0.69,0.156-1.323,0.472-1.905c0.312-0.588,0.74-1.073,1.28-1.458
			c0.409-0.301,0.963-0.555,1.664-0.761c0.703-0.208,1.454-0.313,2.26-0.313c1.209,0,2.271,0.176,3.186,0.522
			c0.914,0.347,1.59,0.818,2.026,1.412c0.435,0.597,0.736,1.39,0.901,2.386l-2.557,0.349c-0.116-0.795-0.453-1.414-1.008-1.858
			c-0.556-0.443-1.342-0.665-2.359-0.665c-1.2,0-2.059,0.198-2.569,0.592c-0.514,0.398-0.771,0.863-0.771,1.391
			c0,0.342,0.106,0.647,0.32,0.914c0.212,0.281,0.547,0.512,1,0.697c0.263,0.097,1.032,0.318,2.308,0.665
			c1.849,0.495,3.14,0.898,3.872,1.212c0.728,0.315,1.304,0.77,1.72,1.371c0.418,0.597,0.624,1.342,0.624,2.23
			c0,0.871-0.254,1.69-0.765,2.456c-0.507,0.77-1.238,1.362-2.198,1.783c-0.959,0.42-2.041,0.63-3.253,0.63
			c-2.002,0-3.53-0.414-4.58-1.244C562.923,193.291,562.252,192.061,561.961,190.426z"/>
		<path fill="#1E2171" d="M583.582,192.687l0.375,2.306c-0.736,0.154-1.394,0.233-1.974,0.233c-0.95,0-1.685-0.153-2.208-0.451
			c-0.522-0.298-0.889-0.691-1.104-1.181c-0.214-0.487-0.317-1.513-0.317-3.08v-8.856h-1.917v-2.028h1.917v-3.815l2.598-1.564v5.38
			h2.629v2.028h-2.629v9c0,0.746,0.046,1.223,0.137,1.435c0.091,0.213,0.244,0.382,0.452,0.508c0.206,0.126,0.505,0.188,0.892,0.188
			C582.725,192.79,583.104,192.756,583.582,192.687z"/>
		<path fill="#1E2171" d="M596.692,190.064l2.701,0.335c-0.426,1.574-1.214,2.797-2.37,3.668c-1.147,0.868-2.619,1.302-4.413,1.302
			c-2.253,0-4.04-0.693-5.364-2.078c-1.321-1.387-1.981-3.332-1.981-5.836c0-2.587,0.666-4.598,2.003-6.027
			c1.337-1.431,3.068-2.146,5.199-2.146c2.061,0,3.746,0.701,5.052,2.101c1.305,1.403,1.961,3.373,1.961,5.913
			c0,0.153-0.005,0.387-0.016,0.693h-11.501c0.097,1.695,0.578,2.989,1.439,3.887c0.861,0.9,1.937,1.348,3.224,1.348
			c0.962,0,1.778-0.25,2.452-0.754C595.758,191.967,596.296,191.167,596.692,190.064z M588.112,185.847h8.609
			c-0.117-1.294-0.445-2.265-0.987-2.914c-0.832-1.005-1.911-1.506-3.24-1.506c-1.197,0-2.209,0.402-3.024,1.204
			C588.651,183.432,588.196,184.505,588.112,185.847z"/>
		<path fill="#1E2171" d="M602.673,195.021V179.63h2.338v2.162c0.485-0.757,1.129-1.362,1.93-1.822
			c0.805-0.457,1.719-0.688,2.743-0.688c1.145,0,2.08,0.239,2.814,0.709c0.728,0.475,1.244,1.138,1.543,1.986
			c1.22-1.797,2.806-2.695,4.763-2.695c1.529,0,2.706,0.422,3.528,1.268c0.823,0.848,1.233,2.149,1.233,3.906v10.566h-2.599v-9.698
			c0-1.044-0.084-1.791-0.252-2.253c-0.171-0.457-0.477-0.827-0.922-1.109c-0.447-0.277-0.969-0.418-1.57-0.418
			c-1.084,0-1.982,0.358-2.699,1.081c-0.718,0.716-1.077,1.872-1.077,3.455v8.943h-2.614v-10.001c0-1.159-0.212-2.031-0.637-2.61
			c-0.426-0.577-1.125-0.868-2.092-0.868c-0.736,0-1.414,0.194-2.038,0.578c-0.626,0.387-1.079,0.953-1.356,1.697
			c-0.283,0.746-0.422,1.817-0.422,3.219v7.985H602.673z"/>
	</g>
	<rect x="0.001" y="185.936" fill="#1E2171" width="128.692" height="2.791"/>
	<rect x="637.248" y="185.936" fill="#1E2171" width="128.689" height="2.791"/>
</g>
<g>
	<path fill="#C80850" stroke="#C80850" stroke-width="0.75" stroke-miterlimit="10" d="M246.953,263.366h-27.509
		c-2.713,4.826-4.602,8.612-5.67,11.358c-1.068,2.746-1.602,5.103-1.602,7.073l-0.051,0.666c-0.78,0.083-1.347,0.131-1.703,0.146
		c-0.356,0.013-0.686,0.02-0.992,0.02c-2.204,0-3.882-0.367-5.034-1.102c-1.153-0.735-1.729-1.81-1.729-3.225
		c0-1.415,3.288-7.53,9.865-18.347c6.576-10.817,12.322-20.871,17.238-30.162c-0.543-0.638-1.127-1.255-1.754-1.851
		c-0.628-0.596-1.297-1.2-2.009-1.81c1.254-1.276,2.398-2.205,3.432-2.787c1.034-0.582,2.076-0.874,3.127-0.874
		c1.457,0,2.873,0.769,4.246,2.309c1.373,1.538,2.975,4.153,4.805,7.842c1.593,3.19,3.779,7.641,6.559,13.355
		c9.424,19.387,15.983,30.523,19.678,33.407c-1.289,1.165-2.475,1.997-3.559,2.496c-1.085,0.499-2.221,0.749-3.407,0.749
		c-3.424,0-7.305-4.771-11.644-14.311C248.258,266.209,247.495,264.559,246.953,263.366z M233.834,236.532l-2.441,4.66
		c-3.899,7.489-6.763,12.98-8.593,16.475h21.407c-1.729-3.8-3.458-7.453-5.187-10.963
		C237.292,243.196,235.563,239.805,233.834,236.532z"/>
	<path fill="#C80850" d="M321.916,261.67c1.041,0.948,1.562,2.225,1.562,3.834c0,3.504-1.516,6.344-4.544,8.52
		c-4.544,3.124-10.792,5.634-18.745,7.526c-6.439,1.513-11.409,2.13-14.911,1.846c-2.083-0.191-4.615-1.469-7.597-3.835
		c-2.982-2.365-4.473-4.26-4.473-5.68c0-0.472,0.235-0.802,0.71-0.994c2.649-0.756,6.106-1.136,10.367-1.136
		c1.988,0,4.686,0.096,8.094,0.285c3.408,0.19,5.727,0.284,6.958,0.284c1.229,0,2.223-0.047,2.982-0.142
		c3.029-0.472,6.057-0.945,9.088-1.42c3.976-0.756,5.915-1.704,5.822-2.84c-0.095-1.609-2.747-2.698-7.952-3.266
		c-1.231-0.092-5.445-0.284-12.639-0.568c-3.788-0.093-7.575-0.142-11.36-0.142c-4.072-0.377-7.291-1.75-9.657-4.118
		c-0.475-0.472-0.71-1.041-0.71-1.704c0-1.513,1.087-3.409,3.266-5.68c1.988-1.989,4.165-3.693,6.532-5.113
		c9.466-3.408,16.992-5.112,22.579-5.112c1.136,0,2.272,0.048,3.408,0.141c7.005,0.759,10.743,2.225,11.219,4.403
		c0.377,1.42-0.096,2.911-1.42,4.473c-1.327,1.562-2.51,2.439-3.55,2.627c-3.788-2.081-8.663-3.124-14.627-3.124
		c-7.859,0-14.864,1.562-21.017,4.685c-0.19,0.285-0.284,0.569-0.284,0.852c0,1.136,0.615,1.729,1.846,1.775
		c1.229,0.049,2.461,0.071,3.692,0.071c2.461,0,5.94-0.284,10.437-0.852c4.495-0.568,7.786-0.852,9.869-0.852
		C312.732,256.416,317.749,258.169,321.916,261.67z"/>
	<path fill="#C80850" d="M379.285,261.67c1.041,0.948,1.562,2.225,1.562,3.834c0,3.504-1.516,6.344-4.544,8.52
		c-4.544,3.124-10.792,5.634-18.745,7.526c-6.439,1.513-11.409,2.13-14.911,1.846c-2.083-0.191-4.615-1.469-7.597-3.835
		c-2.982-2.365-4.473-4.26-4.473-5.68c0-0.472,0.235-0.802,0.71-0.994c2.649-0.756,6.106-1.136,10.367-1.136
		c1.988,0,4.686,0.096,8.094,0.285c3.408,0.19,5.727,0.284,6.958,0.284c1.229,0,2.223-0.047,2.982-0.142
		c3.029-0.472,6.057-0.945,9.088-1.42c3.976-0.756,5.915-1.704,5.822-2.84c-0.095-1.609-2.747-2.698-7.952-3.266
		c-1.231-0.092-5.445-0.284-12.639-0.568c-3.788-0.093-7.575-0.142-11.36-0.142c-4.072-0.377-7.291-1.75-9.657-4.118
		c-0.475-0.472-0.71-1.041-0.71-1.704c0-1.513,1.087-3.409,3.266-5.68c1.988-1.989,4.165-3.693,6.532-5.113
		c9.466-3.408,16.992-5.112,22.579-5.112c1.136,0,2.272,0.048,3.408,0.141c7.005,0.759,10.743,2.225,11.219,4.403
		c0.377,1.42-0.096,2.911-1.42,4.473c-1.327,1.562-2.51,2.439-3.55,2.627c-3.788-2.081-8.663-3.124-14.627-3.124
		c-7.859,0-14.864,1.562-21.017,4.685c-0.19,0.285-0.284,0.569-0.284,0.852c0,1.136,0.615,1.729,1.846,1.775
		c1.229,0.049,2.461,0.071,3.692,0.071c2.461,0,5.94-0.284,10.437-0.852c4.495-0.568,7.786-0.852,9.869-0.852
		C370.101,256.416,375.118,258.169,379.285,261.67z"/>
	<path fill="#C80850" d="M437.221,254.002c-1.231,4.26-1.468,11.268-0.71,21.017c-0.758,1.42-2.037,2.414-3.834,2.982
		c-1.42,0.568-2.889,1.089-4.402,1.561c-1.136-0.377-1.705-1.324-1.705-2.84c0-0.189,0-0.568,0-1.135
		c0.093-0.473,0.142-0.803,0.142-0.995c0-1.704-0.617-2.84-1.846-3.408c-9.372,6.155-17.467,9.23-24.282,9.23
		c-3.883,0-7.171-1.092-9.87-3.279c-2.698-2.186-4.047-5.561-4.047-10.124c0-1.902,0.284-3.613,0.851-5.135
		c5.774-10.93,17.751-16.063,35.928-15.401c2.84,0.095,5.94,1.018,9.302,2.769C436.108,250.998,437.598,252.582,437.221,254.002z
		 M426.571,256.984c-0.474-0.945-1.894-1.42-4.26-1.42c-4.451,0-8.804,0.948-13.064,2.84c-2.84,0.948-5.658,2.58-8.449,4.899
		c-2.794,2.321-4,3.812-3.621,4.474c0.189,0.474,1.989,0.568,5.396,0.284c3.313-0.189,6.011-0.569,8.094-1.136
		c3.501-0.756,7.005-1.562,10.509-2.414C424.867,263.09,426.664,260.583,426.571,256.984z"/>
	<path fill="#C80850" d="M557.071,265.221c2.272,0.284,3.409,1.184,3.409,2.698c0,1.895-1.515,4.214-4.544,6.959
		c-3.031,2.747-5.396,4.238-7.1,4.473c-1.705,0.238-3.266,0.355-4.686,0.355c-3.504,0-8.143-1.371-13.917-4.118
		c-1.327-0.662-4.355-3.927-9.088-9.799c-4.735-5.869-7.433-8.804-8.095-8.804c-0.852,0.19-2.296,1.799-4.33,4.828
		c-2.038,3.031-2.96,5.255-2.77,6.675c0.093,0.284,0.71,1.562,1.846,3.834c0.852,1.515,1.279,2.698,1.279,3.55
		c0,0.568-0.142,1.089-0.426,1.562c-1.136,1.231-2.747,1.846-4.829,1.846c-2.083,0-4.213-0.519-6.389-1.561
		c-2.84-1.797-6.439-5.916-10.793-12.355c-4.072-5.869-6.344-8.804-6.816-8.804c-0.759,0-2.13,1.989-4.118,5.964
		c-2.652,5.113-4.782,8.712-6.39,10.793c-3.031,3.976-6.249,5.964-9.657,5.964c-1.42,0-2.84-0.33-4.26-0.994
		c-0.948-0.377-2.154-4.26-3.621-11.644c-1.469-7.384-3.528-11.549-6.177-12.497c-2.272-0.756-3.409-1.94-3.409-3.55
		c0-0.661,0.189-1.182,0.569-1.562c1.324-1.42,3.454-2.13,6.39-2.13c1.04,0,2.982,0.191,5.822,0.569
		c2.461,0.284,4.403,1.799,5.823,4.544c0.851,1.611,1.609,4.072,2.272,7.384c0.662,2.652,1.183,4.072,1.562,4.26
		c0.284,0.095,1.704-1.371,4.26-4.402c3.313-3.881,6.057-6.816,8.236-8.805c3.692-3.124,6.863-4.685,9.514-4.685
		c2.933,0,6.2,2.367,9.798,7.1c3.596,4.734,5.539,7.1,5.823,7.1c0.284,0,2.531-2.366,6.745-7.1c4.211-4.734,6.98-7.1,8.307-7.1
		c4.545,0.479,9.23,3.359,14.059,8.638c5.964,6.623,9.798,10.415,11.502,11.373c0.946,0.577,2.272,0.863,3.976,0.863
		c1.513,0,3.501-0.26,5.964-0.781C555.272,265.34,556.692,265.127,557.071,265.221z"/>
</g>
<path fill="#C80850" d="M403.425,94.484v-5.963h-6.257v-5.276h6.257v-1.344c-0.618-0.191-1.25-0.459-1.885-0.799
	c-1.477-0.786-2.665-1.947-3.536-3.446c-0.851-1.477-1.285-3.068-1.285-4.727c0-1.614,0.412-3.173,1.227-4.633
	c0.839-1.5,2.014-2.676,3.504-3.505c1.458-0.809,3.02-1.218,4.642-1.218c1.612,0,3.17,0.413,4.636,1.228
	c1.499,0.837,2.677,2.017,3.502,3.506c0.809,1.449,1.219,3.006,1.219,4.622c0,2.477-0.863,4.644-2.567,6.435
	c-1.187,1.256-2.589,2.111-4.169,2.552v1.329h6.247v5.276h-6.247v5.963H403.425z M406.078,68.808c-0.699,0-1.377,0.183-2.077,0.556
	c-0.651,0.35-1.124,0.818-1.492,1.476c-0.387,0.693-0.574,1.38-0.574,2.103c0,1.176,0.385,2.108,1.213,2.935
	c0.832,0.826,1.761,1.213,2.93,1.213c1.179,0,2.113-0.385,2.937-1.211c0.83-0.826,1.216-1.759,1.216-2.937
	c0-0.725-0.187-1.412-0.572-2.101c-0.37-0.658-0.843-1.13-1.497-1.477C407.468,68.988,406.787,68.808,406.078,68.808z"/>
</svg>
