<?xml version="1.0" encoding="utf-8"?>
<!-- Generator: Adobe Illustrator 15.1.0, SVG Export Plug-In . SVG Version: 6.00 Build 0)  -->
<!DOCTYPE svg PUBLIC "-//W3C//DTD SVG 1.1//EN" "http://www.w3.org/Graphics/SVG/1.1/DTD/svg11.dtd">
<svg version="1.1" id="Layer_1" xmlns="http://www.w3.org/2000/svg" xmlns:xlink="http://www.w3.org/1999/xlink" x="0px" y="0px"
	 width="768.586px" height="212.598px" viewBox="0 0 768.586 212.598" enable-background="new 0 0 768.586 212.598"
	 xml:space="preserve">
<g>
	<path fill="#FFFFFF" d="M613.764,2.492c22.178,0,40.15,17.977,40.15,40.152v127.441c0,22.175-17.973,40.149-40.15,40.149H42.513
		c-22.175,0-40.15-17.976-40.15-40.149V42.645c0-22.176,17.975-40.152,40.15-40.152H613.764L613.764,2.492z"/>
	<g>
		<path fill="#354080" d="M44.865,35.804v57.207h-5.449V35.804H44.865z"/>
		<path fill="#354080" d="M60.811,51.665v7.132h0.159c0.961-2.509,2.67-4.524,5.128-6.051c2.459-1.523,5.156-2.283,8.092-2.283
			c2.884,0,5.301,0.372,7.252,1.12c1.949,0.748,3.512,1.803,4.687,3.164c1.174,1.364,2.002,3.032,2.483,5.007
			c0.48,1.977,0.719,4.192,0.719,6.649v26.6h-5.047V67.21c0-1.764-0.161-3.407-0.483-4.928c-0.318-1.521-0.88-2.841-1.682-3.964
			c-0.8-1.122-1.884-2.002-3.247-2.643c-1.363-0.644-3.057-0.963-5.087-0.963c-2.029,0-3.833,0.359-5.406,1.081
			c-1.578,0.723-2.91,1.711-4.006,2.966c-1.098,1.254-1.95,2.751-2.564,4.489c-0.616,1.736-0.951,3.617-1,5.649v24.113h-5.05V51.666
			L60.811,51.665L60.811,51.665z"/>
		<path fill="#354080" d="M102.588,79.35c0.509,1.951,1.322,3.696,2.446,5.247c1.12,1.548,2.534,2.83,4.245,3.846
			c1.712,1.015,3.766,1.522,6.171,1.522c3.683,0,6.569-0.962,8.651-2.886c2.083-1.921,3.527-4.484,4.326-7.69h5.05
			c-1.069,4.702-3.032,8.332-5.892,10.895c-2.857,2.563-6.905,3.847-12.134,3.847c-3.261,0-6.079-0.574-8.453-1.723
			c-2.38-1.149-4.316-2.726-5.81-4.728c-1.495-2.005-2.604-4.328-3.325-6.968c-0.72-2.646-1.081-5.438-1.081-8.374
			c0-2.724,0.361-5.396,1.081-8.013c0.723-2.615,1.83-4.955,3.325-7.012c1.494-2.056,3.43-3.712,5.81-4.967
			c2.375-1.254,5.192-1.884,8.453-1.884c3.308,0,6.139,0.669,8.493,2.004c2.348,1.334,4.258,3.085,5.728,5.249
			c1.466,2.164,2.523,4.648,3.166,7.45c0.64,2.807,0.905,5.646,0.799,8.532h-31.811C101.826,75.516,102.079,77.4,102.588,79.35z
			 M127.584,63.924c-0.615-1.761-1.48-3.321-2.604-4.687c-1.123-1.362-2.483-2.453-4.086-3.285c-1.604-0.829-3.417-1.24-5.446-1.24
			c-2.084,0-3.928,0.411-5.533,1.24c-1.601,0.832-2.966,1.923-4.084,3.285c-1.123,1.365-2.015,2.936-2.685,4.729
			c-0.667,1.789-1.108,3.62-1.323,5.489h26.76C128.531,67.531,128.2,65.686,127.584,63.924z"/>
		<path fill="#354080" d="M171.771,108.231V85.156h-0.162c-0.532,1.498-1.293,2.805-2.281,3.93
			c-0.989,1.121-2.124,2.055-3.406,2.804c-1.284,0.749-2.658,1.308-4.126,1.684c-1.469,0.372-2.979,0.563-4.525,0.563
			c-3.153,0-5.889-0.575-8.213-1.724c-2.324-1.149-4.258-2.726-5.806-4.728c-1.55-2.005-2.7-4.328-3.447-6.968
			c-0.749-2.646-1.123-5.438-1.123-8.374c0-2.936,0.375-5.729,1.123-8.372c0.749-2.646,1.897-4.968,3.447-6.97
			c1.55-2.004,3.484-3.59,5.806-4.766c2.324-1.174,5.061-1.762,8.213-1.762c1.496,0,3.004,0.216,4.525,0.64
			c1.52,0.431,2.952,1.044,4.287,1.845c1.335,0.803,2.525,1.748,3.567,2.844c1.04,1.097,1.827,2.341,2.363,3.725h0.16v-7.85h4.647
			v56.564h-5.047L171.771,108.231L171.771,108.231z M144.49,78.705c0.509,2.111,1.31,3.994,2.402,5.649
			c1.095,1.653,2.496,3.003,4.208,4.048c1.709,1.042,3.766,1.563,6.169,1.563c2.667,0,4.928-0.522,6.77-1.563
			c1.841-1.044,3.335-2.395,4.487-4.048c1.148-1.655,1.975-3.538,2.483-5.649c0.508-2.107,0.762-4.229,0.762-6.37
			c0-2.134-0.254-4.26-0.762-6.371c-0.509-2.111-1.335-3.994-2.483-5.648c-1.15-1.656-2.644-3.004-4.487-4.044
			c-1.842-1.046-4.1-1.562-6.77-1.562c-2.403,0-4.464,0.519-6.169,1.562c-1.709,1.04-3.11,2.39-4.208,4.044
			c-1.095,1.654-1.897,3.538-2.402,5.648c-0.509,2.11-0.761,4.23-0.761,6.371C143.728,74.476,143.984,76.599,144.49,78.705z"/>
		<path fill="#354080" d="M215.278,93.011v-7.452h-0.161c-1.334,2.778-3.271,4.902-5.809,6.373c-2.536,1.468-5.353,2.202-8.45,2.202
			c-2.618,0-4.847-0.359-6.691-1.083c-1.843-0.72-3.337-1.749-4.485-3.083c-1.15-1.335-1.992-2.965-2.527-4.887
			c-0.536-1.923-0.802-4.113-0.802-6.572V51.666h5.05v26.923c0.104,3.738,0.973,6.568,2.604,8.492
			c1.628,1.925,4.446,2.886,8.454,2.886c2.187,0,4.058-0.468,5.606-1.406c1.551-0.936,2.831-2.176,3.848-3.724
			c1.015-1.549,1.763-3.323,2.243-5.329c0.479-2.005,0.72-4.048,0.72-6.13V51.665h5.047v41.344h-4.646L215.278,93.011
			L215.278,93.011z"/>
		<path fill="#354080" d="M230.5,58.077c0.851-1.762,2.014-3.203,3.485-4.329c1.471-1.121,3.192-1.95,5.169-2.484
			c1.975-0.531,4.165-0.799,6.569-0.799c1.815,0,3.63,0.176,5.449,0.521c1.813,0.346,3.443,1,4.885,1.963
			c1.444,0.962,2.615,2.309,3.525,4.045c0.908,1.737,1.363,3.994,1.363,6.772v21.952c0,2.03,0.989,3.044,2.966,3.044
			c0.587,0,1.122-0.104,1.603-0.319v4.245c-0.586,0.111-1.106,0.188-1.563,0.243c-0.456,0.055-1.029,0.082-1.722,0.082
			c-1.284,0-2.313-0.175-3.084-0.522c-0.776-0.348-1.375-0.841-1.803-1.479c-0.43-0.641-0.708-1.405-0.841-2.286
			c-0.135-0.88-0.202-1.854-0.202-2.926h-0.16c-0.913,1.336-1.829,2.523-2.764,3.566c-0.936,1.043-1.979,1.909-3.127,2.606
			c-1.15,0.693-2.456,1.226-3.928,1.599c-1.466,0.372-3.218,0.563-5.249,0.563c-1.919,0-3.725-0.229-5.406-0.683
			c-1.684-0.451-3.153-1.173-4.406-2.165c-1.258-0.986-2.246-2.241-2.967-3.765c-0.721-1.523-1.082-3.324-1.082-5.407
			c0-2.885,0.643-5.139,1.923-6.772c1.282-1.629,2.975-2.869,5.09-3.726c2.107-0.852,4.483-1.454,7.131-1.803
			c2.641-0.347,5.327-0.679,8.052-1c1.065-0.104,2-0.241,2.802-0.4c0.802-0.16,1.467-0.44,2.003-0.839
			c0.531-0.401,0.945-0.948,1.239-1.641c0.296-0.693,0.44-1.598,0.44-2.723c0-1.711-0.279-3.111-0.842-4.209
			c-0.562-1.094-1.333-1.962-2.323-2.605c-0.986-0.64-2.134-1.08-3.443-1.318c-1.308-0.242-2.709-0.36-4.206-0.36
			c-3.207,0-5.825,0.761-7.854,2.282c-2.029,1.523-3.097,3.966-3.203,7.333h-5.05C229.138,61.921,229.643,59.84,230.5,58.077z
			 M255.738,70.415c-0.321,0.588-0.936,1.017-1.843,1.283c-0.911,0.268-1.71,0.455-2.404,0.563c-2.137,0.372-4.34,0.708-6.608,1
			c-2.273,0.294-4.341,0.731-6.21,1.32c-1.871,0.587-3.406,1.427-4.606,2.521c-1.201,1.098-1.803,2.662-1.803,4.688
			c0,1.285,0.25,2.417,0.759,3.406c0.506,0.99,1.19,1.844,2.042,2.564c0.854,0.725,1.843,1.271,2.966,1.641
			c1.122,0.373,2.27,0.563,3.443,0.563c1.924,0,3.765-0.293,5.53-0.884c1.762-0.587,3.297-1.44,4.609-2.563
			c1.308-1.123,2.347-2.486,3.125-4.087c0.772-1.6,1.158-3.416,1.158-5.446v-6.573h-0.16l0,0h0.002V70.415L255.738,70.415z"/>
		<path fill="#354080" d="M276.167,35.804v57.207h-5.045V35.804H276.167z"/>
		<path fill="#354080" d="M290.989,35.804v8.093h-5.045v-8.093H290.989z M290.989,51.665v41.344h-5.045V51.665H290.989z"/>
		<path fill="#354080" d="M317.11,51.665v4.248h-8.414v27.882c0,1.656,0.225,2.952,0.681,3.887c0.453,0.937,1.589,1.455,3.407,1.561
			c1.442,0,2.88-0.082,4.327-0.239v4.245c-0.752,0-1.499,0.027-2.248,0.081c-0.748,0.051-1.494,0.082-2.242,0.082
			c-3.365,0-5.714-0.654-7.05-1.963c-1.335-1.312-1.978-3.728-1.924-7.251V55.914h-7.21v-4.248h7.21V39.25h5.05v12.416
			L317.11,51.665L317.11,51.665z"/>
		<path fill="#354080" d="M329.527,35.804v8.093h-5.047v-8.093H329.527z M329.527,51.665v41.344h-5.047V51.665H329.527z"/>
		<path fill="#354080" d="M342.947,79.35c0.508,1.951,1.322,3.696,2.445,5.247c1.118,1.548,2.535,2.83,4.244,3.846
			c1.712,1.015,3.766,1.522,6.172,1.522c3.683,0,6.569-0.962,8.65-2.886c2.082-1.921,3.525-4.484,4.327-7.69h5.047
			c-1.071,4.702-3.032,8.332-5.889,10.895c-2.859,2.563-6.905,3.847-12.137,3.847c-3.262,0-6.079-0.574-8.456-1.723
			c-2.376-1.149-4.313-2.726-5.809-4.728c-1.494-2.005-2.604-4.328-3.324-6.968c-0.719-2.646-1.08-5.438-1.08-8.374
			c0-2.724,0.361-5.396,1.08-8.013c0.723-2.615,1.831-4.955,3.324-7.012c1.496-2.056,3.432-3.712,5.809-4.967
			c2.375-1.254,5.192-1.884,8.456-1.884c3.31,0,6.14,0.669,8.49,2.004c2.349,1.334,4.261,3.085,5.728,5.249
			c1.467,2.164,2.524,4.648,3.166,7.45c0.641,2.807,0.907,5.646,0.802,8.532H342.18C342.183,75.516,342.437,77.4,342.947,79.35z
			 M367.945,63.924c-0.615-1.761-1.482-3.321-2.604-4.687c-1.124-1.362-2.485-2.453-4.089-3.285c-1.601-0.829-3.417-1.24-5.446-1.24
			c-2.084,0-3.928,0.411-5.533,1.24c-1.604,0.832-2.966,1.923-4.084,3.285c-1.124,1.365-2.018,2.936-2.688,4.729
			c-0.668,1.789-1.106,3.62-1.322,5.489h26.761C368.892,67.531,368.559,65.686,367.945,63.924z"/>
		<path fill="#354080" d="M404.6,59.719c-0.588-1.149-1.375-2.097-2.36-2.842c-0.994-0.748-2.126-1.296-3.407-1.644
			c-1.282-0.35-2.646-0.519-4.088-0.519c-1.119,0-2.254,0.118-3.407,0.359c-1.148,0.242-2.2,0.642-3.163,1.203
			c-0.96,0.563-1.735,1.295-2.323,2.203c-0.59,0.908-0.88,2.029-0.88,3.363c0,1.122,0.279,2.07,0.84,2.842
			c0.563,0.777,1.266,1.427,2.125,1.963c0.85,0.537,1.787,0.976,2.802,1.322c1.014,0.35,1.949,0.629,2.804,0.842l6.729,1.521
			c1.441,0.215,2.874,0.604,4.286,1.162c1.415,0.563,2.674,1.293,3.766,2.201c1.094,0.908,1.992,2.029,2.686,3.365
			c0.69,1.338,1.039,2.917,1.039,4.729c0,2.242-0.505,4.154-1.521,5.729c-1.017,1.579-2.313,2.86-3.887,3.846
			c-1.576,0.987-3.354,1.695-5.328,2.122c-1.978,0.433-3.924,0.644-5.849,0.644c-4.861,0-8.804-1.148-11.819-3.447
			c-3.019-2.294-4.741-5.98-5.168-11.056h5.047c0.214,3.416,1.457,5.996,3.723,7.73c2.272,1.738,5.089,2.607,8.456,2.607
			c1.227,0,2.499-0.135,3.803-0.4c1.313-0.267,2.526-0.722,3.648-1.362c1.117-0.643,2.043-1.458,2.765-2.446
			c0.725-0.989,1.081-2.203,1.081-3.644c0-1.231-0.252-2.258-0.762-3.09c-0.507-0.828-1.188-1.521-2.042-2.079
			c-0.853-0.563-1.828-1.03-2.926-1.407c-1.094-0.371-2.201-0.689-3.323-0.958l-6.491-1.441c-1.65-0.426-3.177-0.922-4.562-1.482
			c-1.388-0.563-2.607-1.254-3.646-2.083c-1.043-0.828-1.856-1.844-2.445-3.044c-0.585-1.202-0.881-2.686-0.881-4.448
			c0-2.077,0.467-3.869,1.401-5.364c0.934-1.494,2.151-2.697,3.648-3.604c1.492-0.908,3.165-1.579,5.006-2.005
			c1.843-0.425,3.674-0.641,5.489-0.641c2.08,0,4.018,0.269,5.806,0.8c1.79,0.535,3.363,1.363,4.728,2.485
			c1.362,1.123,2.444,2.511,3.246,4.168c0.802,1.651,1.253,3.604,1.364,5.847h-5.049C405.508,62.217,405.187,60.869,404.6,59.719z"
			/>
		<path fill="#354080" d="M446.74,35.804v8.093h-5.044v-8.093H446.74z M446.74,51.665v41.344h-5.044V51.665H446.74z"/>
		<path fill="#354080" d="M461.405,51.665v7.132h0.156c0.963-2.509,2.671-4.524,5.129-6.051c2.458-1.524,5.154-2.283,8.094-2.283
			c2.885,0,5.303,0.372,7.254,1.12c1.945,0.748,3.514,1.803,4.684,3.164c1.176,1.364,2.006,3.032,2.488,5.007
			c0.475,1.977,0.721,4.192,0.721,6.649v26.6h-5.051V67.21c0-1.764-0.154-3.407-0.479-4.928c-0.322-1.52-0.881-2.841-1.682-3.964
			c-0.803-1.122-1.885-2.002-3.246-2.643c-1.367-0.644-3.057-0.963-5.088-0.963c-2.033,0-3.834,0.359-5.41,1.081
			c-1.574,0.723-2.91,1.711-4.005,2.966c-1.098,1.254-1.952,2.751-2.564,4.489c-0.613,1.736-0.945,3.617-0.999,5.649v24.113h-5.048
			V51.666L461.405,51.665L461.405,51.665z"/>
		<path fill="#354080" d="M44.865,121.646v57.206h-5.449v-57.206H44.865z"/>
		<path fill="#354080" d="M60.811,137.51v7.13h0.159c0.961-2.507,2.67-4.524,5.128-6.052c2.459-1.521,5.156-2.283,8.092-2.283
			c2.884,0,5.301,0.373,7.252,1.122c1.949,0.749,3.512,1.804,4.687,3.165c1.174,1.363,2.002,3.032,2.483,5.008
			c0.481,1.975,0.719,4.194,0.719,6.646v26.604h-5.047v-25.799c0-1.764-0.161-3.408-0.483-4.928
			c-0.318-1.523-0.88-2.842-1.682-3.964c-0.8-1.122-1.884-2.002-3.247-2.643c-1.363-0.645-3.057-0.964-5.087-0.964
			c-2.029,0-3.833,0.36-5.406,1.079c-1.578,0.725-2.91,1.713-4.006,2.966c-1.098,1.256-1.95,2.754-2.564,4.491
			c-0.616,1.734-0.951,3.615-1,5.646v24.115h-5.05v-41.342h5.052V137.51z"/>
		<path fill="#354080" d="M106.635,141.757v37.098h-5.049v-37.098h-7.053v-4.247h7.053v-3.766c0-1.763,0.131-3.392,0.399-4.887
			c0.269-1.493,0.774-2.776,1.522-3.846c0.749-1.07,1.775-1.896,3.087-2.484c1.305-0.587,2.976-0.88,5.006-0.88
			c0.749,0,1.442,0.025,2.083,0.081c0.641,0.053,1.361,0.133,2.164,0.242v4.324c-0.696-0.104-1.335-0.198-1.923-0.28
			c-0.588-0.08-1.174-0.123-1.764-0.123c-1.391,0-2.457,0.214-3.204,0.643c-0.75,0.428-1.297,1.002-1.642,1.724
			c-0.348,0.722-0.547,1.562-0.602,2.521c-0.053,0.964-0.079,2.005-0.079,3.127v3.604h8.171v4.247H106.635L106.635,141.757z"/>
		<path fill="#354080" d="M120.656,143.921c0.853-1.764,2.014-3.203,3.482-4.328c1.47-1.122,3.193-1.949,5.17-2.486
			c1.976-0.529,4.167-0.799,6.569-0.799c1.814,0,3.632,0.176,5.449,0.521c1.814,0.35,3.444,1,4.886,1.962
			c1.443,0.965,2.617,2.313,3.525,4.046c0.907,1.739,1.363,3.994,1.363,6.772v21.952c0,2.03,0.987,3.044,2.963,3.044
			c0.588,0,1.124-0.104,1.604-0.318v4.244c-0.587,0.111-1.108,0.188-1.563,0.242c-0.454,0.056-1.029,0.081-1.721,0.081
			c-1.285,0-2.314-0.172-3.085-0.521c-0.775-0.35-1.375-0.839-1.802-1.479c-0.43-0.638-0.708-1.402-0.842-2.286
			c-0.134-0.881-0.2-1.854-0.2-2.927h-0.16c-0.91,1.337-1.831,2.523-2.765,3.57c-0.936,1.045-1.977,1.909-3.125,2.604
			c-1.153,0.696-2.457,1.225-3.927,1.604c-1.47,0.37-3.219,0.563-5.249,0.563c-1.921,0-3.725-0.229-5.406-0.684
			c-1.684-0.451-3.153-1.174-4.405-2.164c-1.256-0.985-2.246-2.244-2.969-3.766c-0.719-1.522-1.079-3.325-1.079-5.407
			c0-2.885,0.64-5.142,1.924-6.771c1.282-1.631,2.977-2.871,5.09-3.729c2.106-0.852,4.484-1.453,7.129-1.803
			c2.643-0.349,5.327-0.68,8.053-1c1.065-0.104,2.002-0.24,2.804-0.401c0.799-0.161,1.466-0.438,2.002-0.842
			c0.532-0.399,0.947-0.943,1.239-1.641c0.293-0.693,0.44-1.602,0.44-2.724c0-1.708-0.279-3.11-0.839-4.209
			c-0.561-1.093-1.335-1.962-2.324-2.604c-0.986-0.639-2.134-1.079-3.443-1.318c-1.309-0.243-2.711-0.359-4.205-0.359
			c-3.206,0-5.826,0.762-7.851,2.286c-2.033,1.521-3.1,3.961-3.204,7.331h-5.05C119.294,147.767,119.799,145.681,120.656,143.921z
			 M145.894,156.26c-0.321,0.587-0.936,1.016-1.845,1.282c-0.911,0.269-1.709,0.451-2.403,0.561
			c-2.137,0.373-4.34,0.709-6.608,1.001c-2.272,0.296-4.341,0.733-6.21,1.32c-1.868,0.588-3.406,1.427-4.607,2.523
			c-1.202,1.102-1.802,2.659-1.802,4.688c0,1.283,0.25,2.418,0.759,3.407c0.509,0.988,1.191,1.847,2.045,2.562
			c0.853,0.725,1.841,1.27,2.963,1.643c1.123,0.373,2.271,0.563,3.444,0.563c1.924,0,3.765-0.296,5.527-0.884
			c1.765-0.587,3.298-1.441,4.609-2.563c1.309-1.122,2.349-2.486,3.125-4.085c0.773-1.6,1.159-3.416,1.159-5.447v-6.577h-0.156
			V156.26L145.894,156.26z"/>
		<path fill="#354080" d="M166.164,137.51v7.13h0.16c0.961-2.507,2.67-4.524,5.128-6.052c2.456-1.521,5.156-2.283,8.092-2.283
			c2.885,0,5.303,0.373,7.252,1.122c1.95,0.749,3.512,1.804,4.688,3.165c1.173,1.363,2.002,3.032,2.485,5.008
			c0.48,1.975,0.719,4.194,0.719,6.646v26.604h-5.047v-25.799c0-1.764-0.161-3.408-0.483-4.928c-0.319-1.523-0.88-2.842-1.682-3.964
			c-0.802-1.122-1.884-2.002-3.246-2.643c-1.363-0.645-3.058-0.964-5.089-0.964c-2.033,0-3.833,0.36-5.407,1.079
			c-1.576,0.725-2.91,1.713-4.005,2.966c-1.098,1.256-1.952,2.754-2.564,4.491c-0.615,1.734-0.951,3.615-1.001,5.646v24.115h-5.049
			v-41.342h5.049V137.51z"/>
		<path fill="#354080" d="M220.645,137.51v4.247h-8.413v27.881c0,1.659,0.225,2.952,0.68,3.888c0.453,0.938,1.589,1.455,3.406,1.563
			c1.444,0,2.883-0.082,4.327-0.242v4.247c-0.751,0-1.498,0.026-2.246,0.083c-0.749,0.05-1.494,0.078-2.242,0.078
			c-3.365,0-5.718-0.656-7.052-1.963c-1.333-1.313-1.977-3.725-1.924-7.253v-28.28h-7.208v-4.247h7.208v-12.419h5.05v12.419
			L220.645,137.51L220.645,137.51z"/>
		<path fill="#354080" d="M259.023,121.646l19.788,50.155l19.71-50.155h8.013v57.206h-5.449v-49.431h-0.16l-19.55,49.434h-5.128
			l-19.627-49.434h-0.16v49.434h-5.448v-57.209H259.023z"/>
		<path fill="#354080" d="M342.785,138.071c2.433,1.178,4.473,2.751,6.132,4.729c1.651,1.978,2.908,4.287,3.764,6.933
			c0.853,2.643,1.282,5.46,1.282,8.453c0,2.988-0.427,5.81-1.282,8.453c-0.854,2.643-2.11,4.955-3.764,6.93
			c-1.659,1.975-3.699,3.538-6.132,4.688c-2.433,1.147-5.222,1.725-8.372,1.725c-3.15,0-5.942-0.576-8.372-1.725
			c-2.434-1.149-4.475-2.714-6.131-4.688c-1.656-1.975-2.91-4.287-3.765-6.93c-0.852-2.645-1.282-5.461-1.282-8.453
			c0-2.993,0.427-5.812,1.282-8.453c0.855-2.646,2.109-4.955,3.765-6.933c1.654-1.975,3.697-3.551,6.131-4.729
			c2.43-1.173,5.219-1.763,8.372-1.763C337.567,136.308,340.355,136.898,342.785,138.071z M328.084,142.076
			c-1.815,1.018-3.325,2.352-4.528,4.007c-1.2,1.657-2.108,3.541-2.723,5.646c-0.614,2.113-0.923,4.262-0.923,6.45
			c0,2.19,0.309,4.34,0.923,6.451c0.615,2.109,1.523,3.993,2.723,5.65c1.202,1.651,2.712,2.988,4.528,4.004
			c1.816,1.018,3.928,1.524,6.329,1.524c2.405,0,4.514-0.511,6.332-1.524c1.818-1.012,3.324-2.347,4.525-4.004
			c1.202-1.657,2.111-3.541,2.726-5.65c0.613-2.111,0.923-4.261,0.923-6.451c0-2.188-0.31-4.337-0.923-6.45
			c-0.615-2.105-1.523-3.989-2.726-5.646c-1.2-1.653-2.709-2.991-4.525-4.007c-1.815-1.014-3.927-1.521-6.332-1.521
			C332.011,140.554,329.9,141.064,328.084,142.076z"/>
		<path fill="#354080" d="M366.144,137.51v9.695h0.16c1.283-3.365,3.272-5.956,5.971-7.771c2.695-1.813,5.915-2.644,9.654-2.484
			v5.049c-2.296-0.105-4.382,0.201-6.251,0.924c-1.868,0.722-3.484,1.748-4.846,3.084c-1.361,1.337-2.417,2.926-3.163,4.769
			c-0.75,1.841-1.122,3.861-1.122,6.047v22.033H361.5v-41.345L366.144,137.51L366.144,137.51z"/>
		<path fill="#354080" d="M403.159,137.51v4.247h-8.415v27.881c0,1.659,0.226,2.952,0.678,3.888c0.456,0.938,1.59,1.455,3.41,1.563
			c1.439,0,2.88-0.082,4.327-0.242v4.247c-0.752,0-1.498,0.026-2.244,0.083c-0.749,0.05-1.493,0.078-2.245,0.078
			c-3.361,0-5.717-0.656-7.048-1.963c-1.337-1.313-1.978-3.725-1.922-7.253v-28.28h-7.212v-4.247h7.212v-12.419h5.046v12.419
			L403.159,137.51L403.159,137.51z"/>
		<path fill="#354080" d="M411.489,143.921c0.851-1.764,2.013-3.203,3.485-4.328c1.471-1.122,3.191-1.949,5.17-2.486
			c1.972-0.529,4.166-0.799,6.567-0.799c1.816,0,3.633,0.176,5.45,0.521c1.813,0.35,3.442,1,4.885,1.962
			c1.444,0.965,2.614,2.313,3.522,4.046c0.908,1.739,1.364,3.994,1.364,6.772v21.952c0,2.03,0.987,3.044,2.966,3.044
			c0.588,0,1.122-0.104,1.604-0.318v4.244c-0.588,0.111-1.105,0.188-1.563,0.242c-0.456,0.056-1.028,0.081-1.72,0.081
			c-1.286,0-2.314-0.172-3.089-0.521s-1.372-0.839-1.803-1.479c-0.429-0.638-0.706-1.402-0.843-2.286
			c-0.134-0.881-0.201-1.854-0.201-2.927h-0.158c-0.908,1.337-1.832,2.523-2.765,3.57c-0.936,1.045-1.979,1.909-3.127,2.604
			c-1.15,0.696-2.456,1.225-3.927,1.604c-1.468,0.37-3.218,0.563-5.25,0.563c-1.917,0-3.726-0.229-5.404-0.684
			c-1.685-0.451-3.154-1.174-4.405-2.164c-1.259-0.985-2.247-2.244-2.968-3.766c-0.725-1.522-1.082-3.325-1.082-5.407
			c0-2.885,0.642-5.142,1.923-6.771c1.279-1.631,2.976-2.871,5.088-3.729c2.105-0.852,4.483-1.453,7.132-1.803
			c2.641-0.349,5.325-0.68,8.047-1c1.065-0.104,2.004-0.24,2.805-0.401c0.802-0.161,1.47-0.438,2.005-0.842
			c0.53-0.399,0.945-0.943,1.24-1.641c0.295-0.693,0.438-1.602,0.438-2.724c0-1.708-0.276-3.11-0.84-4.209
			c-0.562-1.093-1.334-1.962-2.324-2.604c-0.988-0.639-2.134-1.079-3.444-1.318c-1.307-0.243-2.708-0.359-4.203-0.359
			c-3.208,0-5.825,0.762-7.854,2.286c-2.031,1.521-3.099,3.961-3.205,7.331h-5.048C410.127,147.767,410.629,145.681,411.489,143.921
			z M436.727,156.26c-0.32,0.587-0.937,1.016-1.844,1.282c-0.91,0.269-1.713,0.451-2.405,0.561
			c-2.138,0.373-4.338,0.709-6.607,1.001c-2.271,0.296-4.337,0.733-6.209,1.32c-1.871,0.588-3.409,1.427-4.605,2.523
			c-1.203,1.102-1.803,2.659-1.803,4.688c0,1.283,0.247,2.418,0.76,3.407c0.504,0.988,1.189,1.847,2.043,2.562
			c0.852,0.725,1.843,1.27,2.965,1.643s2.27,0.563,3.444,0.563c1.925,0,3.766-0.296,5.53-0.884c1.757-0.587,3.296-1.441,4.604-2.563
			c1.31-1.122,2.348-2.486,3.127-4.085c0.773-1.6,1.157-3.416,1.157-5.447v-6.577h-0.159v0.006H436.727z"/>
		<path fill="#354080" d="M457.156,121.646v57.206h-5.046v-57.206H457.156z"/>
		<path fill="#354080" d="M471.977,121.646v8.095h-5.046v-8.095H471.977z M471.977,137.51v41.345h-5.046V137.51H471.977z"/>
		<path fill="#354080" d="M498.094,137.51v4.247h-8.412v27.881c0,1.659,0.225,2.952,0.68,3.888c0.457,0.938,1.594,1.455,3.41,1.563
			c1.439,0,2.879-0.082,4.322-0.242v4.247c-0.744,0-1.492,0.026-2.244,0.083c-0.746,0.05-1.49,0.078-2.24,0.078
			c-3.365,0-5.717-0.656-7.051-1.963c-1.336-1.313-1.982-3.725-1.922-7.253v-28.28h-7.211v-4.247h7.211v-12.419h5.047v12.419
			L498.094,137.51L498.094,137.51z"/>
		<path fill="#354080" d="M506.108,137.51l13.621,35.257l12.738-35.257h5.045l-17.945,47.594c-0.746,1.763-1.439,3.218-2.078,4.367
			c-0.643,1.149-1.352,2.056-2.123,2.727c-0.779,0.665-1.689,1.146-2.729,1.439c-1.037,0.295-2.363,0.44-3.965,0.44
			c-1.016-0.053-1.801-0.094-2.359-0.117c-0.566-0.028-1.057-0.125-1.48-0.287v-4.246c0.588,0.104,1.156,0.202,1.721,0.28
			s1.133,0.121,1.727,0.121c1.121,0,2.045-0.16,2.76-0.48c0.729-0.32,1.354-0.762,1.891-1.322c0.533-0.56,0.988-1.243,1.361-2.042
			c0.375-0.802,0.775-1.683,1.205-2.643l1.76-4.647l-16.504-41.184H506.108L506.108,137.51z"/>
	</g>
	<path fill="#354080" d="M627.797,205.144c-4.346,1.745-9.072,2.73-14.033,2.73H42.514c-20.836,0-37.788-16.95-37.788-37.788V42.643
		c0-20.837,16.952-37.79,37.788-37.79h571.254c4.959,0,9.688,0.985,14.031,2.732V2.56c-4.398-1.543-9.109-2.43-14.031-2.43H42.513
		C19.072,0.132,0,19.203,0,42.643v127.44c0,23.441,19.071,42.516,42.513,42.516h571.253c4.924,0,9.631-0.89,14.033-2.433v-5.022
		H627.797L627.797,205.144z"/>
	<g>
		<g>
			<g>
				<path fill="#354080" d="M767.928,107.74c-20.32,40.432-63.096,97.268-144.592,104.042c0,0-86.211,7.787-74.953-52.127
					c0,0,9.242-44.192,66.746-16.946c0,0,82.127,41.26,145.875-39.43c0,0,2.676-3.777,5.91-1.543
					C766.92,101.737,769.866,103.848,767.928,107.74z"/>
			</g>
			<g>
				<path fill="#9799C6" d="M632.077,128.647c52.285,4.688,66.979-38.304,66.979-38.304c9.049-23.979,35.08-21.14,35.08-21.14
					c36.709,7.046-9.619,49.08-9.619,49.08c-33.242,26.929-71.207,22.13-94.361,15.105c0,0-2.887-0.703-2.57-2.966
					C627.581,130.427,627.702,127.691,632.077,128.647z"/>
			</g>
			<g>
				<path fill="#9799C6" d="M757.077,25.161c3.064,15.205-6.787,30.02-21.992,33.078c-15.178,3.066-30-6.775-33.066-21.989
					c-3.057-15.197,6.783-30.011,21.979-33.065C739.194,0.125,754.016,9.96,757.077,25.161z"/>
			</g>
			<g>
				<path fill="#354080" d="M689.208,46.076c6.275,31.114-13.871,61.395-44.951,67.666c-31.074,6.26-61.361-13.872-67.639-44.986
					c-6.256-31.068,13.877-61.354,44.953-67.614C652.641-5.118,682.944,14.999,689.208,46.076z"/>
			</g>
			<path fill="#FFFFFF" d="M596.01,143.656c-11.176-3.522-22.336-1.679-26.982,1.855c5.531-1.8,15.416-2.239,26.191,1.092
				c10.715,2.934,19.836,7.662,25.695,8.337C615.719,152.553,607.379,146.816,596.01,143.656z"/>
			<path fill="#FFFFFF" d="M738.6,74.448c-4.721-2.011-9.477-1.054-11.564,0.009c2.549,0.465,6.43,0.568,10.604,2.356
				c4.34,1.424,5.959,4.692,6.152,7.388C745.508,82.241,743.948,75.979,738.6,74.448z"/>
			<path fill="#FFFFFF" d="M743.35,10.409c-7.066-4.632-14.922-3.886-18.479-2.458c3.961,0.071,10.791,0.441,17.105,4.546
				c6.236,4.225,9.227,10.374,10.814,14.003C752.747,22.667,750.381,15.138,743.35,10.409z"/>
			<path fill="#FFFFFF" d="M661.131,14.775c-14.445-9.66-30.709-8.43-38.104-5.461c8.09-0.394,22.592,0.305,35.707,9.067
				c13.17,8.682,19.439,21.765,22.191,29.389C680.819,39.806,675.633,24.335,661.131,14.775z"/>
		</g>
	</g>
</g>
</svg>
