<?xml version="1.0" encoding="utf-8"?>
<!-- Generator: Adobe Illustrator 15.1.0, SVG Export Plug-In . SVG Version: 6.00 Build 0)  -->
<!DOCTYPE svg PUBLIC "-//W3C//DTD SVG 1.1//EN" "http://www.w3.org/Graphics/SVG/1.1/DTD/svg11.dtd">
<svg version="1.1" id="Layer_1" xmlns="http://www.w3.org/2000/svg" xmlns:xlink="http://www.w3.org/1999/xlink" x="0px" y="0px"
	 width="571.197px" height="212.598px" viewBox="0 0 571.197 212.598" enable-background="new 0 0 571.197 212.598"
	 xml:space="preserve">
<g id="Layer_1_1_">
	<path fill="#FFEC96" d="M282.134,123.091c0,2.348-1.188,3.521-3.563,3.521h-19.999c-1.831,0-2.925-0.21-3.289-0.625
		c-0.365-0.416-0.548-1.467-0.548-3.144V23.49h-21.222c-2.757,0-4.135-1.252-4.135-3.765V7.682c0-2.512,1.371-3.768,4.121-3.768
		h44.784c2.563,0,3.849,1.255,3.849,3.771L282.134,123.091L282.134,123.091z"/>
	<path fill="#FFEC96" d="M407.12,123.084c0,2.355-1.285,3.533-3.861,3.533h-18.822c-2.236,0-3.35-1.182-3.35-3.533V42.126
		c0-14.127-5.383-21.188-16.146-21.188c-8.713,0-18.025,4.374-27.934,13.117v89.029c0,2.355-1.201,3.533-3.609,3.533h-18.822
		c-2.408,0-3.607-1.18-3.607-3.528V37.257c0-9.733-1.641-18.031-4.936-24.918c-1.027-2.184-0.686-3.694,1.023-4.533l17.23-7.555
		C324.796,0.085,325.315,0,325.829,0c1.199,0,2.486,1.434,3.855,4.299c1.031,1.851,2.742,6.146,5.146,12.88
		c7.885-6.153,13.799-10.244,17.75-12.301c6.514-3.245,13.371-4.868,20.574-4.868c12.004,0,20.662,2.943,25.975,8.823
		c5.313,5.889,7.975,15.809,7.975,29.761v84.491L407.12,123.084L407.12,123.084z"/>
	<path fill="#FFEC96" d="M466.634,123.091c0,2.348-1.191,3.521-3.564,3.521h-19.998c-1.828,0-2.926-0.21-3.289-0.625
		c-0.365-0.416-0.545-1.467-0.545-3.144V23.49h-21.221c-2.76,0-4.135-1.252-4.135-3.765V7.682c0-2.512,1.375-3.768,4.121-3.768
		h44.781c2.564,0,3.854,1.255,3.854,3.771v115.406H466.634L466.634,123.091z"/>
	<path fill="#FFEC96" d="M571.198,92.091c0,11.409-3.943,20.644-11.844,27.689c-7.893,7.048-18.266,10.579-31.105,10.579
		c-15.961,0-30.193-3.598-42.684-10.8c-1.564-0.842-2.352-1.512-2.352-2.012c-0.176-0.332,0.084-1.34,0.785-3.016l5.465-13.064
		c0.691-1.675,2.344-1.842,4.945-0.503c12.488,5.991,23.424,8.988,32.791,8.988c5.373,0,9.709-1.467,13.016-4.399
		c3.299-2.937,4.943-6.758,4.943-11.446c0-3.689-1.301-6.625-3.908-8.81c-1.91-1.676-6.688-4.446-14.336-8.3
		c-6.254-3.016-14.594-7.298-25.023-12.83c-9.729-5.701-14.59-14.421-14.59-26.161c0-11.068,4.033-20.165,12.107-27.295
		c8.07-7.131,18.447-10.694,31.125-10.694c12.328,0,23.693,2.774,34.113,8.323c2.26,1.178,2.777,3.109,1.561,5.796l-5.465,11.099
		c-1.045,2.014-2.781,2.439-5.207,1.266c-9.715-4.264-17.881-6.396-24.48-6.396c-12.152,0.167-18.223,5.115-18.223,14.848
		c0,3.528,1.209,6.466,3.65,8.818c1.902,2.009,5.988,4.62,12.248,7.806l25.803,13.088C565.642,70.693,571.198,79.842,571.198,92.091
		z"/>
	<path fill="#124395" d="M262.607,168.284c0,0.399-0.212,0.598-0.635,0.598h-8.907c-0.26,0-0.425-0.039-0.496-0.107
		c-0.069-0.07-0.105-0.231-0.105-0.489v-1.693c0-0.282,0.03-0.452,0.087-0.51c0.06-0.06,0.229-0.089,0.512-0.089h2.507V147.49
		h-2.507c-0.281,0-0.453-0.034-0.512-0.09c-0.057-0.059-0.087-0.226-0.087-0.51v-1.695c0-0.258,0.036-0.425,0.105-0.491
		c0.071-0.064,0.236-0.107,0.496-0.107h8.907c0.423,0,0.635,0.204,0.635,0.6v1.694c0,0.257-0.036,0.423-0.105,0.491
		c-0.071,0.064-0.247,0.107-0.532,0.107h-2.511v18.503h2.511c0.423,0,0.636,0.202,0.636,0.599L262.607,168.284L262.607,168.284z"/>
	<path fill="#124395" d="M278.947,168.389c0,0.324-0.176,0.489-0.532,0.489h-2.583c-0.306,0-0.459-0.164-0.459-0.489v-11.396
		c0-1.989-0.744-2.972-2.228-2.972c-1.204,0-2.487,0.614-3.854,1.839v12.533c0,0.327-0.166,0.488-0.495,0.488h-2.583
		c-0.33,0-0.495-0.161-0.495-0.488v-12.075c0-1.372-0.228-2.53-0.681-3.5c-0.14-0.311-0.094-0.517,0.141-0.638l2.372-1.063
		c0.07-0.031,0.143-0.044,0.213-0.044c0.164,0,0.342,0.208,0.532,0.601c0.142,0.263,0.378,0.861,0.708,1.806
		c1.086-0.857,1.9-1.435,2.441-1.724c0.897-0.458,1.841-0.683,2.832-0.683c1.652,0,2.845,0.414,3.577,1.238
		c0.73,0.835,1.096,2.229,1.096,4.19L278.947,168.389L278.947,168.389z"/>
	<path fill="#124395" d="M293.235,167.685c0.092,0.354-0.014,0.595-0.318,0.747c-1.316,0.613-2.74,0.93-4.252,0.93
		c-1.748,0-2.973-0.5-3.682-1.488c-0.586-0.831-0.886-2.108-0.886-3.855v-9.625h-2.437c-0.213,0-0.358-0.032-0.44-0.087
		c-0.084-0.063-0.123-0.215-0.123-0.445v-1.709c0-0.228,0.045-0.382,0.141-0.443c0.093-0.051,0.234-0.087,0.424-0.087h2.436v-4.635
		c0-0.307,0.146-0.487,0.463-0.528l2.404-0.463c0.283-0.047,0.459-0.059,0.531-0.04c0.119,0.044,0.176,0.201,0.176,0.464v5.19h4.684
		c0.355,0,0.486,0.22,0.393,0.641l-0.393,1.665c-0.068,0.311-0.248,0.463-0.531,0.463h-4.146v9.279c0,0.926,0.072,1.545,0.217,1.843
		c0.23,0.492,0.746,0.746,1.529,0.746c0.635,0,1.535-0.234,2.693-0.723c0.334-0.142,0.545-0.024,0.639,0.35L293.235,167.685z"/>
	<path fill="#124395" d="M307.987,159.851c0,0.519-0.016,0.842-0.035,0.955c-0.07,0.228-0.252,0.349-0.535,0.349h-9.83
		c0.121,3.479,1.551,5.209,4.287,5.209c0.893,0,1.744-0.144,2.547-0.462c0.027,0,0.617-0.272,1.773-0.82
		c0.188-0.1,0.344-0.024,0.459,0.217l0.814,1.771c0.168,0.354,0.047,0.654-0.352,0.884c-1.557,0.967-3.42,1.452-5.594,1.452
		c-2.4,0-4.277-0.794-5.609-2.384c-1.334-1.595-1.998-3.832-1.998-6.711c0-2.805,0.666-5.051,1.996-6.724
		c1.332-1.675,3.123-2.521,5.359-2.521c2.17,0,3.836,0.754,4.994,2.267C307.407,154.853,307.987,157.02,307.987,159.851z
		 M304.202,158.436c-0.072-3.118-1.125-4.679-3.17-4.679c-2.063,0-3.209,1.561-3.449,4.679H304.202z"/>
	<path fill="#124395" d="M320.671,152.139l-0.922,2.243c-0.121,0.282-0.264,0.396-0.426,0.345c-0.707-0.157-1.15-0.238-1.311-0.238
		c-0.832,0-1.871,0.719-3.121,2.157v11.751c0,0.327-0.164,0.488-0.494,0.488h-2.545c-0.354,0-0.533-0.161-0.533-0.488v-10.724
		c0-1.932-0.23-3.41-0.703-4.419c-0.217-0.479-0.313-0.724-0.313-0.751c0-0.136,0.084-0.243,0.248-0.313l2.158-0.988
		c0.117-0.045,0.223-0.067,0.314-0.067c0.229,0,0.516,0.378,0.842,1.125c0.262,0.542,0.439,1.106,0.533,1.697
		c0.898-1.005,1.537-1.646,1.906-1.953c0.783-0.583,1.623-0.869,2.52-0.869c0.666,0,1.213,0.13,1.664,0.387
		C320.728,151.648,320.786,151.859,320.671,152.139z"/>
	<path fill="#124395" d="M335.833,168.389c0,0.324-0.18,0.489-0.535,0.489h-2.586c-0.303,0-0.461-0.164-0.461-0.489v-11.396
		c0-1.989-0.748-2.972-2.229-2.972c-1.197,0-2.486,0.614-3.854,1.839v12.533c0,0.327-0.168,0.488-0.494,0.488h-2.588
		c-0.33,0-0.49-0.161-0.49-0.488v-12.075c0-1.372-0.223-2.53-0.674-3.5c-0.141-0.311-0.098-0.517,0.135-0.638l2.375-1.063
		c0.066-0.031,0.141-0.044,0.215-0.044c0.168,0,0.344,0.208,0.531,0.601c0.139,0.263,0.381,0.861,0.707,1.806
		c1.094-0.857,1.902-1.435,2.441-1.724c0.902-0.458,1.84-0.683,2.832-0.683c1.65,0,2.844,0.414,3.578,1.238
		c0.73,0.835,1.104,2.229,1.104,4.19v11.885h-0.008V168.389z"/>
	<path fill="#124395" d="M352.46,167.58c0.174,0.307,0.145,0.504-0.063,0.599l-2.16,1.064c-0.141,0.071-0.262,0.111-0.357,0.111
		c-0.186,0-0.385-0.189-0.582-0.555c-0.197-0.37-0.402-0.91-0.617-1.615c-1.441,1.444-3.031,2.17-4.781,2.17
		c-1.539,0-2.754-0.465-3.668-1.388c-0.908-0.924-1.361-2.164-1.361-3.727c0-2.391,1.021-4.063,3.078-5.035
		c1.443-0.686,3.5-1.042,6.193-1.068v-1.138c0-1.086-0.211-1.846-0.621-2.28c-0.41-0.44-1.137-0.662-2.17-0.662
		c-1.063,0-2.42,0.341-4.072,1.02c-0.332,0.141-0.541,0.083-0.637-0.178l-0.572-1.726c-0.045-0.127-0.064-0.224-0.064-0.313
		c0-0.283,0.229-0.52,0.707-0.707c1.646-0.68,3.33-1.021,5.063-1.021c3.895,0,5.838,1.78,5.838,5.349v6.931
		C351.61,165.105,351.896,166.495,352.46,167.58z M348.147,164.961v-4.242c-1.65,0.021-2.889,0.187-3.713,0.496
		c-1.371,0.493-2.051,1.43-2.051,2.782c0,0.76,0.223,1.394,0.688,1.907c0.461,0.508,1.025,0.761,1.715,0.761
		C345.866,166.669,346.991,166.103,348.147,164.961z"/>
	<path fill="#124395" d="M366.044,167.685c0.1,0.354-0.012,0.595-0.313,0.747c-1.324,0.613-2.74,0.93-4.254,0.93
		c-1.746,0-2.977-0.5-3.688-1.488c-0.584-0.831-0.883-2.108-0.883-3.855v-9.625h-2.439c-0.215,0-0.355-0.032-0.439-0.087
		c-0.082-0.063-0.129-0.215-0.129-0.445v-1.709c0-0.228,0.047-0.382,0.137-0.443c0.1-0.051,0.236-0.087,0.426-0.087h2.438v-4.635
		c0-0.307,0.148-0.487,0.463-0.528l2.408-0.463c0.283-0.047,0.457-0.059,0.531-0.04c0.117,0.044,0.176,0.201,0.176,0.464v5.19h4.684
		c0.354,0,0.486,0.22,0.391,0.641l-0.391,1.665c-0.066,0.311-0.248,0.463-0.531,0.463h-4.15v9.279c0,0.926,0.072,1.545,0.223,1.843
		c0.23,0.492,0.744,0.746,1.523,0.746c0.637,0,1.541-0.234,2.693-0.723c0.332-0.142,0.547-0.024,0.641,0.35L366.044,167.685z"/>
	<path fill="#124395" d="M373.165,168.389c0,0.329-0.15,0.489-0.465,0.489h-2.578c-0.23,0-0.379-0.03-0.424-0.095
		c-0.047-0.054-0.07-0.206-0.07-0.437v-13.979h-2.721c-0.354,0-0.531-0.179-0.531-0.531v-1.702c0-0.354,0.178-0.531,0.531-0.531
		h5.758c0.328,0,0.496,0.178,0.496,0.531v16.252L373.165,168.389L373.165,168.389z M373.733,145.912c0,0.706-0.24,1.297-0.723,1.788
		c-0.488,0.484-1.08,0.724-1.787,0.724c-0.686,0-1.275-0.235-1.768-0.724c-0.496-0.487-0.75-1.082-0.75-1.788
		c0-0.683,0.25-1.272,0.75-1.769c0.49-0.492,1.082-0.746,1.768-0.746c0.678,0,1.271,0.24,1.766,0.746
		C373.485,144.638,373.733,145.23,373.733,145.912z"/>
	<path fill="#124395" d="M391.495,160.207c0,2.862-0.668,5.104-2.002,6.744c-1.33,1.64-3.148,2.458-5.463,2.458
		s-4.111-0.798-5.381-2.404c-1.273-1.604-1.912-3.853-1.912-6.723c0-2.883,0.668-5.133,1.988-6.763
		c1.322-1.631,3.148-2.441,5.486-2.441c2.287,0,4.072,0.806,5.359,2.409C390.851,155.089,391.495,157.335,391.495,160.207z
		 M387.665,160.143c0-4.117-1.184-6.167-3.535-6.167c-2.373,0-3.57,2.057-3.57,6.167c0,4.255,1.191,6.382,3.57,6.382
		C386.487,166.52,387.665,164.396,387.665,160.143z"/>
	<path fill="#124395" d="M408.288,168.389c0,0.324-0.182,0.489-0.531,0.489h-2.584c-0.311,0-0.463-0.164-0.463-0.489v-11.396
		c0-1.989-0.746-2.972-2.23-2.972c-1.199,0-2.486,0.614-3.854,1.839v12.533c0,0.327-0.166,0.488-0.494,0.488h-2.588
		c-0.328,0-0.486-0.161-0.486-0.488v-12.075c0-1.372-0.225-2.53-0.684-3.5c-0.137-0.311-0.09-0.517,0.143-0.638l2.365-1.063
		c0.068-0.031,0.143-0.044,0.217-0.044c0.168,0,0.342,0.208,0.533,0.601c0.141,0.263,0.383,0.861,0.709,1.806
		c1.082-0.857,1.902-1.435,2.439-1.724c0.9-0.458,1.836-0.683,2.828-0.683c1.654,0,2.846,0.414,3.58,1.238
		c0.73,0.835,1.104,2.229,1.104,4.19L408.288,168.389L408.288,168.389z"/>
	<path fill="#124395" d="M424.915,167.58c0.164,0.307,0.141,0.504-0.064,0.599l-2.16,1.064c-0.143,0.071-0.262,0.111-0.355,0.111
		c-0.184,0-0.385-0.189-0.58-0.555c-0.203-0.37-0.406-0.91-0.619-1.615c-1.439,1.444-3.037,2.17-4.781,2.17
		c-1.535,0-2.758-0.465-3.666-1.388c-0.912-0.924-1.367-2.164-1.367-3.727c0-2.391,1.027-4.063,3.084-5.035
		c1.434-0.686,3.498-1.042,6.195-1.068v-1.138c0-1.086-0.211-1.846-0.621-2.28c-0.414-0.44-1.143-0.662-2.172-0.662
		c-1.066,0-2.422,0.341-4.068,1.02c-0.334,0.141-0.547,0.083-0.641-0.178l-0.57-1.726c-0.043-0.127-0.07-0.224-0.07-0.313
		c0-0.283,0.234-0.52,0.711-0.707c1.643-0.68,3.33-1.021,5.063-1.021c3.895,0,5.838,1.78,5.838,5.349v6.931
		C424.067,165.105,424.351,166.495,424.915,167.58z M420.603,164.961v-4.242c-1.648,0.021-2.887,0.187-3.713,0.496
		c-1.373,0.493-2.053,1.43-2.053,2.782c0,0.76,0.227,1.394,0.688,1.907c0.463,0.508,1.031,0.761,1.719,0.761
		C418.327,166.669,419.448,166.103,420.603,164.961z"/>
	<path fill="#124395" d="M435.925,168.112c0.092,0.327,0.021,0.545-0.223,0.64c-0.893,0.399-1.904,0.599-3.043,0.599
		c-1.533,0-2.604-0.423-3.221-1.271c-0.541-0.736-0.813-1.855-0.813-3.37c0-0.326,0-0.826,0-1.481c0-0.665,0-1.157,0-1.482v-17.353
		c0-0.312,0.146-0.496,0.457-0.571l2.637-0.57c0.352-0.064,0.52,0.095,0.52,0.493v20.938c0,1.018,0.4,1.519,1.197,1.519
		c0.447,0,0.867-0.096,1.27-0.297c0.33-0.163,0.531-0.119,0.6,0.139L435.925,168.112z"/>
	<path fill="#124395" d="M459.45,168.28c0,0.4-0.201,0.603-0.6,0.603h-2.125c-0.324,0-0.578-0.165-0.748-0.492l-7.148-14.513
		c-0.521-1.032-1.064-2.434-1.635-4.176c0.141,1.575,0.219,2.879,0.219,3.892v14.688c0,0.4-0.219,0.603-0.641,0.603h-2.119
		c-0.398,0-0.602-0.203-0.602-0.603v-23.085c0-0.398,0.199-0.602,0.602-0.602h2.545c0.332,0,0.57,0.152,0.707,0.466l6.723,13.497
		c0.568,1.132,1.107,2.524,1.635,4.179c-0.086-1.084-0.137-2.341-0.137-3.761v-13.773c0-0.259,0.041-0.421,0.109-0.491
		c0.066-0.066,0.23-0.107,0.492-0.107h2.117c0.258,0,0.424,0.041,0.492,0.107c0.068,0.07,0.105,0.232,0.105,0.491v23.079
		L459.45,168.28L459.45,168.28L459.45,168.28z"/>
	<path fill="#124395" d="M476.968,159.851c0,0.519-0.016,0.842-0.037,0.955c-0.07,0.228-0.25,0.349-0.533,0.349h-9.836
		c0.117,3.479,1.549,5.209,4.287,5.209c0.898,0,1.748-0.144,2.549-0.462c0.025,0,0.615-0.272,1.768-0.82
		c0.193-0.1,0.344-0.024,0.463,0.217l0.818,1.771c0.164,0.354,0.043,0.654-0.354,0.884c-1.555,0.967-3.422,1.452-5.596,1.452
		c-2.402,0-4.275-0.794-5.607-2.384c-1.338-1.595-1.996-3.832-1.996-6.711c0-2.805,0.664-5.051,1.994-6.724
		c1.326-1.675,3.127-2.521,5.357-2.521c2.17,0,3.834,0.754,4.99,2.267C476.386,154.851,476.968,157.02,476.968,159.851z
		 M473.183,158.436c-0.074-3.118-1.131-4.679-3.166-4.679c-2.066,0-3.211,1.561-3.453,4.679H473.183z"/>
	<path fill="#124395" d="M493.571,160.207c0,2.862-0.664,5.104-1.996,6.744c-1.334,1.64-3.158,2.458-5.469,2.458
		c-2.313,0-4.109-0.798-5.379-2.404c-1.277-1.604-1.91-3.853-1.91-6.723c0-2.883,0.666-5.133,1.988-6.763
		c1.316-1.629,3.145-2.441,5.486-2.441c2.287,0,4.074,0.806,5.359,2.409C492.933,155.089,493.571,157.335,493.571,160.207z
		 M489.743,160.143c0-4.117-1.18-6.167-3.531-6.167c-2.379,0-3.572,2.057-3.572,6.167c0,4.255,1.191,6.382,3.572,6.382
		C488.563,166.52,489.743,164.396,489.743,160.143z"/>
	<path fill="#124395" d="M510.364,168.389c0,0.324-0.176,0.489-0.529,0.489h-2.588c-0.311,0-0.457-0.164-0.457-0.489v-11.396
		c0-1.989-0.748-2.972-2.232-2.972c-1.199,0-2.484,0.614-3.854,1.839v12.533c0,0.327-0.166,0.488-0.494,0.488h-2.582
		c-0.34,0-0.494-0.161-0.494-0.488v-12.075c0-1.372-0.223-2.53-0.682-3.5c-0.139-0.311-0.094-0.517,0.143-0.638l2.369-1.063
		c0.07-0.031,0.141-0.044,0.215-0.044c0.166,0,0.344,0.208,0.531,0.601c0.143,0.263,0.385,0.861,0.709,1.806
		c1.086-0.857,1.902-1.435,2.438-1.724c0.898-0.458,1.84-0.683,2.834-0.683c1.648,0,2.846,0.414,3.578,1.238
		c0.732,0.835,1.1,2.229,1.1,4.19L510.364,168.389L510.364,168.389z"/>
	<path fill="#124395" d="M526.995,167.58c0.168,0.307,0.143,0.504-0.064,0.599l-2.158,1.064c-0.143,0.071-0.264,0.111-0.357,0.111
		c-0.184,0-0.383-0.189-0.582-0.555c-0.203-0.37-0.404-0.91-0.623-1.615c-1.436,1.444-3.035,2.17-4.775,2.17
		c-1.543,0-2.762-0.465-3.668-1.388c-0.908-0.925-1.363-2.164-1.363-3.727c0-2.391,1.023-4.063,3.078-5.035
		c1.438-0.686,3.5-1.042,6.195-1.068v-1.138c0-1.086-0.211-1.846-0.625-2.28c-0.408-0.44-1.139-0.662-2.172-0.662
		c-1.064,0-2.424,0.341-4.072,1.02c-0.326,0.141-0.545,0.083-0.639-0.178l-0.566-1.726c-0.047-0.127-0.066-0.224-0.066-0.313
		c0-0.283,0.229-0.52,0.707-0.707c1.65-0.68,3.334-1.021,5.064-1.021c3.895,0,5.842,1.78,5.842,5.349v6.931
		C526.149,165.105,526.431,166.495,526.995,167.58z M522.685,164.961v-4.242c-1.652,0.021-2.889,0.187-3.719,0.496
		c-1.371,0.493-2.049,1.43-2.049,2.782c0,0.76,0.225,1.394,0.688,1.907c0.459,0.508,1.029,0.761,1.717,0.761
		C520.407,166.669,521.528,166.103,522.685,164.961z"/>
	<path fill="#124395" d="M540.581,167.685c0.094,0.354-0.016,0.595-0.313,0.747c-1.324,0.613-2.744,0.93-4.252,0.93
		c-1.748,0-2.977-0.5-3.686-1.488c-0.588-0.831-0.887-2.108-0.887-3.855v-9.625h-2.438c-0.215,0-0.355-0.032-0.439-0.087
		c-0.082-0.063-0.129-0.215-0.129-0.445v-1.709c0-0.228,0.047-0.382,0.141-0.443c0.096-0.051,0.23-0.087,0.422-0.087h2.438v-4.635
		c0-0.307,0.152-0.487,0.465-0.528l2.4-0.463c0.281-0.047,0.463-0.059,0.539-0.04c0.115,0.044,0.174,0.201,0.174,0.464v5.19h4.684
		c0.354,0,0.486,0.22,0.385,0.641l-0.385,1.665c-0.07,0.311-0.252,0.463-0.537,0.463h-4.145v9.279c0,0.926,0.068,1.545,0.215,1.843
		c0.232,0.492,0.748,0.746,1.525,0.746c0.643,0,1.543-0.234,2.697-0.723c0.332-0.142,0.543-0.024,0.643,0.35L540.581,167.685z"/>
	<path fill="#124395" d="M555.466,167.58c0.162,0.307,0.137,0.504-0.076,0.599l-2.158,1.064c-0.139,0.071-0.26,0.111-0.355,0.111
		c-0.188,0-0.387-0.189-0.582-0.555c-0.205-0.37-0.404-0.91-0.617-1.615c-1.441,1.444-3.039,2.17-4.781,2.17
		c-1.539,0-2.754-0.465-3.668-1.388c-0.908-0.924-1.363-2.164-1.363-3.727c0-2.391,1.021-4.063,3.078-5.035
		c1.441-0.686,3.5-1.042,6.195-1.068v-1.138c0-1.086-0.213-1.846-0.623-2.28c-0.408-0.44-1.135-0.662-2.174-0.662
		c-1.063,0-2.412,0.341-4.068,1.02c-0.33,0.141-0.543,0.083-0.635-0.178l-0.572-1.726c-0.049-0.127-0.066-0.224-0.066-0.313
		c0-0.283,0.23-0.52,0.705-0.707c1.65-0.68,3.336-1.021,5.066-1.021c3.895,0,5.836,1.78,5.836,5.349v6.931
		C554.61,165.105,554.892,166.495,555.466,167.58z M551.144,164.961v-4.242c-1.646,0.021-2.887,0.187-3.709,0.496
		c-1.373,0.493-2.055,1.43-2.055,2.782c0,0.76,0.223,1.394,0.691,1.907c0.455,0.508,1.023,0.761,1.715,0.761
		C548.864,166.669,549.987,166.103,551.144,164.961z"/>
	<path fill="#124395" d="M566.46,168.112c0.096,0.327,0.023,0.545-0.215,0.64c-0.896,0.399-1.91,0.599-3.047,0.599
		c-1.535,0-2.604-0.423-3.219-1.271c-0.545-0.736-0.813-1.855-0.813-3.37c0-0.326,0-0.826,0-1.481c0-0.665,0-1.157,0-1.482v-17.353
		c0-0.312,0.146-0.496,0.455-0.571l2.635-0.57c0.348-0.064,0.523,0.095,0.523,0.493v20.938c0,1.018,0.398,1.519,1.195,1.519
		c0.443,0,0.871-0.096,1.271-0.297c0.328-0.163,0.531-0.119,0.6,0.139L566.46,168.112z"/>
	<path fill="#124395" d="M262.607,204.362c0,0.399-0.212,0.595-0.635,0.595h-8.907c-0.26,0-0.425-0.038-0.496-0.107
		c-0.069-0.07-0.105-0.229-0.105-0.486v-1.697c0-0.281,0.03-0.453,0.087-0.508c0.06-0.06,0.229-0.089,0.512-0.089h2.507v-18.503
		h-2.507c-0.281,0-0.453-0.03-0.512-0.091c-0.057-0.059-0.087-0.226-0.087-0.507v-1.694c0-0.261,0.036-0.425,0.105-0.489
		c0.071-0.069,0.236-0.107,0.496-0.107h8.907c0.423,0,0.635,0.201,0.635,0.598v1.694c0,0.257-0.036,0.421-0.105,0.492
		c-0.071,0.065-0.247,0.104-0.532,0.104h-2.511v18.503h2.511c0.423,0,0.636,0.203,0.636,0.597L262.607,204.362L262.607,204.362z"/>
	<path fill="#124395" d="M287.507,204.467c0,0.329-0.18,0.49-0.531,0.49h-2.55c-0.326,0-0.492-0.158-0.492-0.486v-11.625
		c0-1.784-0.635-2.676-1.91-2.676c-0.898,0-2.006,0.511-3.324,1.555v12.779c0,0.309-0.166,0.465-0.493,0.465h-2.508
		c-0.353,0-0.53-0.166-0.53-0.491v-11.472c0-1.882-0.65-2.816-1.951-2.816c-0.972,0-2.071,0.504-3.302,1.513v12.774
		c0,0.328-0.166,0.494-0.493,0.494h-2.509c-0.352,0-0.528-0.166-0.528-0.494v-12.315c0-1.249-0.143-2.2-0.425-2.865
		c-0.292-0.64-0.292-1.021,0-1.131l2.158-0.887c0.094-0.044,0.189-0.064,0.283-0.064c0.213,0,0.484,0.407,0.814,1.232
		c0.14,0.327,0.246,0.665,0.318,1.021c1.816-1.506,3.514-2.261,5.094-2.261c1.722,0,2.936,0.753,3.644,2.261
		c1.908-1.506,3.68-2.261,5.31-2.261c1.58,0,2.665,0.545,3.254,1.629c0.447,0.827,0.668,2.081,0.668,3.777v11.854H287.507
		L287.507,204.467z"/>
	<path fill="#124395" d="M313.981,204.467c0,0.329-0.176,0.49-0.531,0.49h-2.545c-0.334,0-0.49-0.158-0.49-0.486v-11.625
		c0-1.784-0.641-2.676-1.91-2.676c-0.898,0-1.996,0.511-3.322,1.555v12.779c0,0.309-0.16,0.465-0.492,0.465h-2.512
		c-0.352,0-0.527-0.166-0.527-0.491v-11.472c0-1.882-0.652-2.816-1.953-2.816c-0.973,0-2.072,0.504-3.299,1.513v12.774
		c0,0.328-0.166,0.494-0.494,0.494h-2.506c-0.352,0-0.531-0.166-0.531-0.494v-12.315c0-1.249-0.141-2.2-0.426-2.865
		c-0.289-0.64-0.289-1.021,0-1.131l2.16-0.887c0.098-0.044,0.186-0.064,0.285-0.064c0.211,0,0.484,0.407,0.813,1.232
		c0.143,0.327,0.252,0.665,0.314,1.021c1.814-1.506,3.514-2.261,5.096-2.261c1.723,0,2.936,0.753,3.645,2.261
		c1.91-1.506,3.678-2.261,5.309-2.261c1.58,0,2.668,0.545,3.252,1.629c0.455,0.827,0.67,2.081,0.67,3.777v11.859L313.981,204.467
		L313.981,204.467z"/>
	<path fill="#124395" d="M332.909,203.907c0.191,0.305,0.154,0.501-0.105,0.589l-2.262,0.852c-0.098,0.049-0.188,0.069-0.281,0.069
		c-0.232,0-0.465-0.187-0.672-0.573c-0.166-0.312-0.344-0.793-0.531-1.459c-1.604,1.352-3.291,2.023-5.064,2.023
		c-1.836,0-3.172-0.517-4-1.549c-0.707-0.919-1.063-2.331-1.063-4.231v-11.252c0-0.282,0.15-0.465,0.465-0.53l2.482-0.595
		c0.447-0.126,0.666,0.023,0.666,0.421v11.131c0,1.37,0.18,2.313,0.516,2.843c0.342,0.528,0.945,0.79,1.818,0.79
		c1.256,0,2.482-0.521,3.68-1.551v-12.516c0-0.282,0.148-0.461,0.463-0.525l2.48-0.598c0.42-0.095,0.637,0.045,0.637,0.421v12.685
		C332.14,201.875,332.397,203.058,332.909,203.907z"/>
	<path fill="#124395" d="M350.87,204.467c0,0.329-0.174,0.49-0.531,0.49h-2.584c-0.309,0-0.459-0.161-0.459-0.491v-11.395
		c0-1.989-0.746-2.97-2.229-2.97c-1.205,0-2.488,0.61-3.854,1.836v12.534c0,0.329-0.164,0.495-0.494,0.495h-2.582
		c-0.328,0-0.494-0.166-0.494-0.495v-12.071c0-1.373-0.221-2.532-0.674-3.503c-0.143-0.31-0.096-0.52,0.137-0.636l2.373-1.063
		c0.068-0.024,0.137-0.036,0.213-0.036c0.168,0,0.344,0.2,0.535,0.596c0.135,0.263,0.377,0.863,0.705,1.808
		c1.086-0.858,1.904-1.438,2.438-1.724c0.908-0.457,1.846-0.678,2.834-0.678c1.652,0,2.848,0.411,3.576,1.234
		c0.74,0.835,1.107,2.229,1.107,4.188L350.87,204.467L350.87,204.467z"/>
	<path fill="#124395" d="M369.62,196.287c0,2.856-0.666,5.099-1.998,6.743c-1.332,1.64-3.15,2.461-5.469,2.461
		c-2.316,0-4.107-0.805-5.375-2.412c-1.281-1.6-1.914-3.851-1.914-6.724c0-2.879,0.666-5.135,1.986-6.761
		c1.318-1.63,3.145-2.438,5.482-2.438c2.293,0,4.078,0.803,5.363,2.404C368.974,191.167,369.62,193.412,369.62,196.287z
		 M365.788,196.217c0-4.116-1.18-6.166-3.531-6.166c-2.381,0-3.57,2.057-3.57,6.166c0,4.258,1.188,6.383,3.57,6.383
		C364.616,202.6,365.788,200.475,365.788,196.217z"/>
	<path fill="#124395" d="M383.497,203.762c0.096,0.356-0.014,0.604-0.314,0.748c-1.32,0.614-2.738,0.927-4.258,0.927
		c-1.748,0-2.969-0.496-3.682-1.485c-0.586-0.828-0.885-2.113-0.885-3.854v-9.626h-2.436c-0.219,0-0.357-0.029-0.439-0.096
		c-0.084-0.052-0.129-0.207-0.129-0.437v-1.706c0-0.23,0.045-0.386,0.139-0.445c0.094-0.055,0.23-0.087,0.426-0.087h2.438v-4.636
		c0-0.307,0.148-0.487,0.459-0.531l2.406-0.457c0.285-0.044,0.463-0.062,0.531-0.042c0.119,0.044,0.18,0.204,0.18,0.461v5.198h4.684
		c0.35,0,0.486,0.213,0.393,0.637l-0.393,1.667c-0.07,0.312-0.25,0.465-0.535,0.465h-4.146v9.284c0,0.919,0.063,1.535,0.213,1.836
		c0.234,0.489,0.748,0.747,1.531,0.747c0.635,0,1.535-0.237,2.695-0.729c0.326-0.142,0.543-0.021,0.639,0.349L383.497,203.762z"/>
	<path fill="#124395" d="M399.96,204.467c0,0.329-0.182,0.49-0.537,0.49h-2.59c-0.33,0-0.492-0.189-0.492-0.568V193.1
		c0-1.091-0.164-1.852-0.498-2.301c-0.324-0.448-0.896-0.67-1.689-0.67c-1.152,0-2.439,0.609-3.855,1.838v12.489
		c0,0.329-0.16,0.489-0.488,0.489h-2.559c-0.381,0-0.568-0.157-0.568-0.489v-23.979c0-0.312,0.16-0.493,0.496-0.57l2.439-0.492
		c0.453-0.096,0.672,0.044,0.672,0.421v9.55c1.602-1.485,3.322-2.231,5.166-2.231c1.699,0,2.896,0.514,3.607,1.553
		c0.588,0.828,0.891,2.122,0.891,3.892v11.867h0.006V204.467L399.96,204.467z"/>
	<path fill="#124395" d="M418.038,195.93c0,0.515-0.012,0.84-0.035,0.949c-0.068,0.229-0.246,0.351-0.537,0.351h-9.826
		c0.117,3.482,1.547,5.21,4.281,5.21c0.896,0,1.746-0.148,2.547-0.464c0.027,0,0.617-0.271,1.775-0.816
		c0.188-0.099,0.338-0.024,0.457,0.218l0.816,1.77c0.166,0.354,0.047,0.647-0.354,0.885c-1.555,0.967-3.42,1.454-5.592,1.454
		c-2.4,0-4.281-0.798-5.617-2.394c-1.328-1.589-1.996-3.827-1.996-6.701c0-2.806,0.666-5.051,1.996-6.724
		c1.332-1.675,3.127-2.521,5.359-2.521c2.168,0,3.84,0.754,4.992,2.263C417.462,190.932,418.038,193.101,418.038,195.93z
		 M414.253,194.515c-0.068-3.123-1.125-4.678-3.166-4.678c-2.066,0-3.211,1.556-3.449,4.678H414.253z"/>
	<path fill="#124395" d="M431.429,188.21l-0.916,2.24c-0.125,0.281-0.262,0.4-0.426,0.352c-0.711-0.161-1.148-0.242-1.313-0.242
		c-0.826,0-1.869,0.72-3.119,2.156v11.753c0,0.33-0.162,0.493-0.494,0.493h-2.549c-0.354,0-0.527-0.163-0.527-0.493v-10.718
		c0-1.934-0.23-3.408-0.707-4.421c-0.217-0.473-0.311-0.722-0.311-0.749c0-0.139,0.082-0.242,0.248-0.311l2.16-0.992
		c0.115-0.047,0.223-0.066,0.314-0.066c0.232,0,0.516,0.379,0.848,1.127c0.258,0.542,0.436,1.106,0.525,1.696
		c0.902-1.002,1.537-1.646,1.908-1.958c0.787-0.578,1.625-0.867,2.523-0.867c0.664,0,1.213,0.13,1.66,0.384
		C431.493,187.727,431.546,187.934,431.429,188.21z"/>
	<path fill="#124395" d="M446.022,203.66c0.16,0.303,0.139,0.505-0.07,0.597l-2.16,1.066c-0.141,0.063-0.262,0.104-0.354,0.104
		c-0.189,0-0.385-0.183-0.586-0.548c-0.193-0.375-0.396-0.909-0.617-1.623c-1.443,1.45-3.031,2.167-4.779,2.167
		c-1.535,0-2.754-0.465-3.668-1.383c-0.908-0.926-1.363-2.167-1.363-3.726c0-2.387,1.021-4.068,3.08-5.04
		c1.439-0.681,3.504-1.038,6.195-1.065v-1.135c0-1.088-0.209-1.848-0.621-2.283c-0.41-0.437-1.137-0.665-2.168-0.665
		c-1.064,0-2.426,0.344-4.074,1.021c-0.332,0.139-0.545,0.083-0.639-0.18l-0.57-1.729c-0.047-0.121-0.068-0.221-0.068-0.314
		c0-0.285,0.236-0.513,0.709-0.705c1.648-0.684,3.336-1.021,5.063-1.021c3.896,0,5.838,1.781,5.838,5.345v6.943
		C445.169,201.184,445.452,202.574,446.022,203.66z M441.698,201.039v-4.247c-1.643,0.029-2.887,0.191-3.709,0.499
		c-1.369,0.5-2.055,1.432-2.055,2.785c0,0.765,0.223,1.396,0.688,1.907c0.465,0.508,1.029,0.764,1.717,0.764
		C439.429,202.748,440.544,202.181,441.698,201.039z"/>
	<path fill="#124395" d="M464.378,195.973c0,3.064-0.533,5.424-1.594,7.058c-1.063,1.64-2.596,2.461-4.6,2.461
		c-1.295,0-2.598-0.409-3.893-1.24v7.01c0,0.281-0.143,0.46-0.426,0.528l-2.584,0.639c-0.381,0.096-0.568-0.07-0.568-0.493V192.61
		c0-1.249-0.207-2.292-0.609-3.113c-0.189-0.401-0.283-0.667-0.283-0.784c0-0.135,0.068-0.248,0.215-0.307l2.303-1.179
		c0.119-0.045,0.225-0.063,0.314-0.063c0.143,0,0.342,0.23,0.6,0.706c0.236,0.382,0.41,0.801,0.531,1.274
		c1.652-1.319,3.236-1.983,4.742-1.983C462.431,187.156,464.378,190.094,464.378,195.973z M460.7,196.156
		c0-2.126-0.225-3.661-0.691-4.604c-0.461-0.945-1.219-1.419-2.279-1.419c-0.936,0-2.082,0.508-3.422,1.523v9.879
		c1.174,0.705,2.24,1.063,3.18,1.063c1.201,0,2.041-0.483,2.512-1.434C460.464,200.208,460.7,198.542,460.7,196.156z"/>
	<path fill="#124395" d="M481.144,188.638l-4.107,14.63c-0.283,1.019-0.572,2.025-0.844,3.043c-0.334,1.154-0.709,2.202-1.137,3.145
		c-0.941,2.089-2.527,3.145-4.777,3.145c-1.578,0-3.02-0.424-4.316-1.275c-0.283-0.188-0.367-0.39-0.246-0.594l0.992-2.009
		c0.096-0.191,0.27-0.204,0.533-0.042c1.064,0.661,2,0.987,2.832,0.987c1.275,0,2.203-0.95,2.793-2.869l0.57-1.836h-1.42
		c-0.311,0-0.506-0.131-0.604-0.392l-5.52-15.819c-0.143-0.421-0.043-0.665,0.313-0.745l2.658-0.535
		c0.4-0.066,0.648,0.062,0.746,0.392l3.432,11.044c0.186,0.615,0.541,2.064,1.066,4.353c0.135-0.798,0.365-1.993,0.666-3.571
		l2.9-11.794c0.094-0.354,0.268-0.496,0.527-0.426l2.727,0.673C481.144,188.193,481.21,188.363,481.144,188.638z"/>
	<path fill="#124395" d="M504.048,198.313c0,2.151-0.701,3.869-2.086,5.173c-1.393,1.297-3.232,1.944-5.529,1.944
		c-2.383,0-4.564-0.531-6.555-1.595c-0.352-0.188-0.463-0.485-0.311-0.889l0.885-2.303c0.045-0.143,0.139-0.222,0.283-0.222
		c0.072,0,0.309,0.106,0.705,0.314c1.77,0.926,3.451,1.382,5.025,1.382c1.156,0,2.078-0.306,2.75-0.935
		c0.668-0.625,1.012-1.465,1.012-2.524c0-1.084-0.273-1.912-0.816-2.481c-0.547-0.564-1.803-1.376-3.773-2.438
		c-1.965-1.063-3.311-1.933-4.016-2.612c-1.154-1.158-1.73-2.6-1.73-4.314c0-1.988,0.678-3.578,2.031-4.779
		c1.363-1.197,3.146-1.809,5.361-1.809c2.266,0,4.264,0.529,5.98,1.59c0.311,0.191,0.4,0.41,0.283,0.67l-0.924,2.118
		c-0.141,0.311-0.471,0.316-0.994,0.04c-1.58-0.825-3.02-1.23-4.313-1.23c-2.361,0-3.537,1.009-3.537,3.006
		c0,0.829,0.213,1.475,0.635,1.951c0.424,0.469,1.313,1.069,2.658,1.81c2.549,1.365,4.168,2.381,4.852,3.048
		C503.337,194.54,504.048,196.24,504.048,198.313z"/>
	<path fill="#124395" d="M517.61,203.762c0.09,0.356-0.018,0.604-0.316,0.748c-1.322,0.614-2.738,0.927-4.252,0.927
		c-1.75,0-2.977-0.496-3.689-1.485c-0.584-0.828-0.883-2.113-0.883-3.854v-9.626h-2.438c-0.217,0-0.357-0.029-0.441-0.096
		c-0.082-0.052-0.127-0.207-0.127-0.437v-1.706c0-0.23,0.045-0.386,0.139-0.445c0.096-0.055,0.23-0.087,0.424-0.087h2.438v-4.636
		c0-0.307,0.148-0.487,0.465-0.531l2.402-0.457c0.287-0.044,0.463-0.062,0.531-0.042c0.121,0.044,0.18,0.204,0.18,0.461v5.198h4.686
		c0.35,0,0.482,0.213,0.391,0.637l-0.391,1.667c-0.07,0.312-0.246,0.465-0.533,0.465h-4.152v9.284c0,0.919,0.068,1.535,0.223,1.836
		c0.23,0.489,0.746,0.747,1.523,0.747c0.641,0,1.535-0.237,2.697-0.729c0.33-0.142,0.545-0.021,0.635,0.349L517.61,203.762z"/>
	<path fill="#124395" d="M533.921,203.907c0.188,0.305,0.148,0.501-0.105,0.589l-2.262,0.852c-0.096,0.049-0.189,0.069-0.287,0.069
		c-0.232,0-0.463-0.187-0.668-0.573c-0.164-0.312-0.344-0.793-0.529-1.459c-1.605,1.352-3.291,2.023-5.064,2.023
		c-1.838,0-3.172-0.517-3.998-1.549c-0.707-0.919-1.064-2.331-1.064-4.231v-11.252c0-0.282,0.15-0.465,0.465-0.53l2.479-0.595
		c0.451-0.126,0.674,0.023,0.674,0.421v11.131c0,1.37,0.17,2.313,0.514,2.843c0.34,0.528,0.945,0.79,1.82,0.79
		c1.248,0,2.479-0.521,3.676-1.551v-12.516c0-0.282,0.152-0.461,0.463-0.525l2.479-0.598c0.422-0.095,0.639,0.045,0.639,0.421
		v12.685C533.147,201.875,533.405,203.058,533.921,203.907z"/>
	<path fill="#124395" d="M551.71,204.209l-2.268,1.067c-0.121,0.044-0.221,0.065-0.309,0.065c-0.398,0-0.77-0.647-1.104-1.938
		c-1.768,1.395-3.467,2.087-5.096,2.087c-1.768,0-3.152-0.792-4.16-2.372c-1.006-1.579-1.502-3.765-1.502-6.545
		c0-3.351,0.705-5.83,2.121-7.437c1.158-1.321,2.609-1.982,4.359-1.982c1.131,0,2.359,0.366,3.682,1.098v-7.783
		c0-0.329,0.135-0.521,0.391-0.569l2.547-0.528c0.426-0.099,0.637,0.054,0.637,0.459v20.138c0,1.537,0.219,2.68,0.633,3.432
		c0.189,0.353,0.283,0.546,0.283,0.567C551.921,204.055,551.851,204.138,551.71,204.209z M547.435,200.931v-9.911
		c-1.086-0.584-2.115-0.885-3.08-0.885c-1.232,0-2.105,0.471-2.623,1.396c-0.52,0.931-0.781,2.498-0.781,4.689
		c0,2.262,0.23,3.893,0.693,4.866c0.463,0.979,1.236,1.465,2.32,1.465C545.167,202.557,546.327,202.013,547.435,200.931z"/>
	<path fill="#124395" d="M569.097,188.638l-4.111,14.63c-0.275,1.019-0.568,2.025-0.84,3.043c-0.34,1.154-0.709,2.202-1.133,3.145
		c-0.945,2.089-2.537,3.145-4.783,3.145c-1.582,0-3.02-0.424-4.318-1.275c-0.281-0.188-0.365-0.39-0.244-0.594l0.994-2.009
		c0.092-0.191,0.264-0.204,0.527-0.042c1.061,0.661,2.002,0.987,2.834,0.987c1.279,0,2.205-0.95,2.789-2.869l0.57-1.836h-1.414
		c-0.307,0-0.504-0.131-0.6-0.392l-5.525-15.819c-0.141-0.421-0.037-0.665,0.318-0.745l2.65-0.535c0.4-0.066,0.652,0.062,0.75,0.392
		l3.422,11.044c0.188,0.615,0.547,2.064,1.064,4.353c0.141-0.798,0.371-1.993,0.67-3.571l2.9-11.794
		c0.098-0.354,0.27-0.496,0.533-0.426l2.725,0.673C569.097,188.193,569.161,188.363,569.097,188.638z"/>
	<path fill="#4E69AE" d="M92.512,83.159c2.632,3.851,1.359,7.989,2.69,11.833c2.396,6.915,11.461,10.736,9.143,19.902
		c-15.865,3.31-21.444-18.177-19.9-32.271C87.24,82.148,90.459,81.658,92.512,83.159z M88.747,86.924
		c-4.476,9.61-0.555,24.356,9.681,25.816c0.631-0.801,1.351-1.52,2.151-2.154c-3.539-6.063-9.024-13.599-10.219-23.667
		C89.823,86.924,89.285,86.924,88.747,86.924z"/>
	<path fill="#97A1D2" d="M31.196,118.658c0.182-1.076-0.11-1.681-1.076-1.616c1.884-8.517,8.415-12.379,15.598-15.596
		c-0.509-11.256,2.659-17.439,11.832-15.599c5.241,1.057,10.415,6.857,9.143,11.835c-0.525,2.055-3.548,2.972-4.302,4.841
		c-2.171,5.371,0.853,11.391-2.151,17.212c-2.806-5.747-5.865-13.088-12.371-12.369C41.388,108.073,40.831,121.499,31.196,118.658z
		 M48.945,89.614c-3.737,8.22,0.002,19.555,8.606,20.438C60.781,103.745,62.073,83.183,48.945,89.614z M32.272,116.506
		c1.422,1.029,4.939,0.56,6.455,0c1.021-3.565,6.142-7.498,2.689-10.756C37.013,107.982,31.864,109.467,32.272,116.506z"/>
	<path fill="#4E69AE" d="M57.551,110.051c-8.603-0.877-12.343-12.216-8.606-20.438C62.073,83.183,60.781,103.745,57.551,110.051z
		 M55.4,106.286c0.147-5.166-1.073-8.967-2.689-12.37C46.628,94.857,51.044,107.024,55.4,106.286z"/>
	<path fill="#D7D8EE" d="M118.329,93.377c0,0.898,0,1.796,0,2.689c-0.946,1.458-4.432,1.458-5.378,0
		C111.905,91.909,116.52,91.665,118.329,93.377z M114.564,96.606c0.717,0,1.435,0,2.152,0c1.388-1.547,0.046-3.625-1.614-3.765
		C114.29,93.6,113.404,95.452,114.564,96.606z"/>
	<path fill="#0C4396" d="M52.711,93.916c1.616,3.406,2.836,7.205,2.689,12.37C51.044,107.024,46.628,94.857,52.711,93.916z"/>
	<path fill="#0C4396" d="M36.574,110.051c1.338-0.083,1.666,0.844,2.69,1.077c1.054,4.806-6.004,7.382-5.916,2.151
		C34.619,114.509,34.2,110.53,36.574,110.051z"/>
	<path fill="#97A1D2" d="M27.431,121.884c1.166-0.093,0.242,1.91,0.538,2.688c-0.436-0.103-0.536-0.538-1.075-0.538
		c0,0.897,0,1.794,0,2.688c-8.189,7.05-9.586,20.894-21.514,24.203c-0.621-0.707-1.223-6.715-0.538-3.766
		c1.199-5.075,0.714-11.836,3.765-15.063c7.353-1.607,10.659-7.271,16.673-10.222C26.491,121.971,27.208,124.28,27.431,121.884z
		 M9.144,134.254c-1.057,2.636-2.563,7.327-1.075,10.756c1.254,0,2.51,0,3.765,0c4.29-7.185,10.089-12.856,13.984-20.438
		C19.253,124.738,16.051,132.663,9.144,134.254z"/>
	<path fill="#0C4396" d="M7.53,6.782c60.6,0,121.196,0,181.795,0c0,62.212,0,124.426,0,186.638c0,0.18,0,0.357,0,0.538
		c-1.171-0.454-11.354-1.366-12.908-5.379c-1.879-4.852,4.411-11.575,3.765-16.673c-0.645-5.083-6.605-9.324-11.296-10.225
		c-8.784-1.675-18.402,4.273-25.816,5.382c-4.811-3.609-0.968-10.44,0-16.136c1.521-8.982,1.142-17.824,4.302-23.666
		c2.696-4.24,5.377-10.736,2.151-15.6c-2.32-3.5-8.359-4.722-11.833-5.916c-4.766-1.639-8.75-2.792-10.757-6.994
		c-2.195-4.6,0.276-14.343-1.075-19.36c-2.209-8.2-11.448-15.567-17.749-16.674c-13.753-2.405-20.222,6.691-30.12,7.528
		c-3.37,0.285-10.953-1.238-15.06-3.228c-0.355-0.172-0.255-1.437-0.538-1.614c-0.51-0.316-1.654,0.338-2.151,0
		c-4.966-3.346-11.133-14.95-14.521-20.439c-1.688-2.73-2.4-5.725-3.765-8.064c-3.92-6.728-10.167-10.09-15.598-15.063
		C19.956,15.989,13.709,11.668,7.53,6.782z"/>
	<path fill="#4E69AE" d="M4.304,6.782c0.538,0,1.075,0,1.614,0c0.179,0,0.357,0,0.539,0c0.359,0,0.716,0,1.075,0
		c6.178,4.886,12.426,9.206,18.826,15.061c5.434,4.974,11.68,8.334,15.598,15.063c1.365,2.343,2.078,5.333,3.765,8.067
		c3.389,5.489,9.556,17.091,14.521,20.438c0.498,0.338,1.641-0.315,2.151,0c0.283,0.179,0.182,1.441,0.538,1.614
		c4.107,1.988,11.691,3.512,15.06,3.227c9.898-0.837,16.367-9.938,30.12-7.528c6.301,1.107,15.543,8.474,17.749,16.677
		c1.352,5.019-1.12,14.759,1.075,19.358c2.007,4.204,5.991,5.352,10.757,6.996c3.473,1.191,9.513,2.419,11.833,5.913
		c3.226,4.863,0.544,11.36-2.151,15.6c-3.161,5.838-2.78,14.68-4.302,23.666c-0.968,5.693-4.811,12.531,0,16.136
		c7.412-1.11,17.031-7.057,25.817-5.38c4.689,0.896,10.651,5.14,11.295,10.223c0.646,5.097-5.645,11.821-3.765,16.673
		c1.553,4.018,11.737,4.925,12.908,5.379c0,0.896,0,1.797,0,2.689c-4.919-1.895-11.186-2.442-15.059-5.379
		c-3-8.906,6.314-12.483,3.227-21.516c-7.228-10.23-24.59-3.711-33.885,0.538c-6.493-5.916-2.473-18.141-0.538-31.194
		c0.927-6.255,1.958-11.441,3.227-16.137c0.664-2.45,3.185-5.563,2.69-8.067c-1.01-5.107-11.706-6.003-16.135-8.605
		c-2.656-1.559-6.587-5.621-7.53-8.605c-1.548-4.895,0.823-9.79,0-15.6c-1.079-7.604-9.345-16.944-16.674-18.286
		c-14.027-2.566-21.958,6.531-30.12,7.529c-5.852,0.708-9.229-2.384-15.598-3.228c-8.152-5.017-12.564-13.324-17.211-21.515
		c-5.035-8.872-9.614-14.916-16.674-20.976C21.198,18.873,13.529,11.396,4.304,6.782z"/>
	<path fill="#4E69AE" d="M41.416,105.75c3.455,3.253-1.667,7.191-2.689,10.756c-1.516,0.56-5.032,1.029-6.455,0
		C31.864,109.467,37.013,107.982,41.416,105.75z M33.348,113.278c-0.087,5.23,6.971,2.653,5.916-2.151
		c-1.024-0.231-1.352-1.16-2.69-1.077C34.2,110.53,34.619,114.509,33.348,113.278z"/>
	<path fill="#97A1D2" d="M79.604,74.014c0.357,0,0.716,0,1.076,0c2.826,2.655,6.599,1.232,9.681,2.689
		c6.159,2.911,5.151,9.13,6.992,16.137c1.952,7.416,11.442,13.88,9.144,22.053c-0.948,0.484-1.667,1.203-2.151,2.149
		c-1.973,0-3.943,0-5.916,0c-2.2-2.428-5.077-2.509-6.992-4.298c-5.181-4.852-5.136-12.345-7.53-19.362
		c-1.9-5.569-7.191-6.374-9.681-10.755C75.832,79.721,79.939,77.149,79.604,74.014z M84.444,82.621
		c-1.543,14.097,4.033,35.579,19.9,32.271c2.318-9.166-6.747-12.988-9.143-19.902c-1.331-3.844-0.058-7.982-2.69-11.833
		C90.459,81.658,87.24,82.148,84.444,82.621z"/>
	<path fill="#97A1D2" d="M115.102,92.842c1.662,0.14,3.004,2.217,1.614,3.765c-0.717,0-1.435,0-2.152,0
		C113.404,95.452,114.29,93.6,115.102,92.842z"/>
	<path fill="#0C4396" d="M90.361,86.924c1.197,10.066,6.681,17.602,10.219,23.666c-0.8,0.632-1.518,1.354-2.151,2.154
		c-10.236-1.463-14.157-16.208-9.681-25.816C89.285,86.924,89.823,86.924,90.361,86.924z"/>
	<path fill="#4E69AE" d="M25.818,124.573c-3.895,7.578-9.694,13.255-13.984,20.438c-1.254,0-2.511,0-3.765,0
		c-1.489-3.421,0.019-8.121,1.075-10.755C16.051,132.663,19.253,124.738,25.818,124.573z"/>
</g>
<g id="Layer_2_copy_2">
</g>
<g id="Layer_2_copy">
	<path fill="#97A1D2" d="M189.326,196.647c-4.919-1.895-11.186-2.442-15.059-5.382c-3-8.901,6.314-12.479,3.227-21.515
		c-7.228-10.229-24.59-3.712-33.885,0.542c-6.493-5.917-2.473-18.142-0.538-31.195c0.927-6.255,1.958-11.441,3.227-16.137
		c0.664-2.45,3.185-5.563,2.69-8.066c-1.01-5.112-11.706-6.004-16.135-8.607c-2.655-1.558-6.587-5.621-7.53-8.604
		c-1.548-4.895,0.823-9.79,0-15.6c-1.079-7.604-9.345-16.945-16.674-18.288c-14.026-2.567-21.958,6.533-30.12,7.53
		c-5.852,0.708-9.229-2.385-15.598-3.226C54.779,63.081,50.367,54.772,45.72,46.58c-5.034-8.871-9.613-14.915-16.673-20.973
		C21.203,18.874,13.532,11.393,4.306,6.781c-0.179,0-0.359,0-0.539,0c7.646,5.804,19.214,12.341,25.28,21.514
		c2.897,0.15,3.02,3.08,5.917,3.228c11.412,17.817,18.119,40.33,45.718,41.953c0.953-0.099-0.127-0.809-0.538-0.541
		c9.071-5.966,26.697-13.724,37.65-3.228c2.568,2.46,5.893,7.705,6.455,12.37c0.507,4.243-1.67,7.604-1.076,12.369
		c1.586,12.731,15.334,15.7,23.127,20.442c-0.965,12.086-6.021,32.166-6.992,45.18c-0.381,5.106,0.635,8.284,2.688,11.836
		c11.319,0.666,26.908-12.75,33.348,1.072c-1.796,6.678-6.518,16.479-1.076,22.59c5.781-1.027,11.971,4.01,15.06,2.052v-0.974
		h-0.002V196.647L189.326,196.647z"/>
</g>
<g id="Layer_2_copy_3">
	<path fill="#D7D8EE" d="M174.266,195.57c-5.443-6.114-0.721-15.916,1.075-22.59c-6.439-13.823-22.028-0.403-33.347-1.072
		c-2.053-3.554-3.069-6.729-2.688-11.832c0.971-13.017,6.027-33.091,6.992-45.181c-7.793-4.739-21.542-7.709-23.128-20.44
		c-0.593-4.771,1.586-8.131,1.076-12.37c-0.562-4.663-3.889-9.906-6.455-12.369c-10.952-10.496-28.579-2.742-37.651,3.228
		c0.411-0.27,1.491,0.442,0.539,0.538c-27.599-1.627-34.306-24.14-45.718-41.953c-2.897-0.148-3.019-3.078-5.916-3.228
		C22.978,19.125,11.41,12.589,3.766,6.785H0.5C0.266,6.937,0.073,7.113,0,7.322c18.688,8.205,30.994,22.789,42.491,38.188
		c2.778,9.435,13.268,22.021,23.667,25.816c3.501,1.274,6.921,0.152,7.53,3.229c0.872,4.402-6.484,6.149-10.22,8.064
		c-10.122-3.479-20.893,3.447-18.826,17.213c-7.738,3.916-14.246,9.061-16.673,18.289c-6.79,5.402-14.129,10.254-23.128,13.444
		c0.425,8.568-3.829,16.112-1.614,23.128c12.269-0.82,12.533-11.985,18.826-16.674c0.899-4.74,2.914-9.093,5.916-10.219
		c0.166-2.167,1.163-3.5,1.614-5.381c8.31-3.407,13.168-6.685,16.673-12.907c9.826-3.278,10.794,10.396,11.833,19.362
		c7.108-1.141,4.77-11.724,5.378-19.362c2.608-6.357,7.798-10.13,7.529-19.36c2.39-2.228,5.724-1.259,9.144-0.538
		c3.992,5.175,3.648,14.902,8.068,20.978c4.08,5.609,12.888,9.266,18.826,6.447c3.078-6.438-2.242-11.974-2.689-18.288
		c-5.78-2.824-3.633-13.577-6.455-19.359c-2.61-3.847-8.453-4.458-10.757-8.607c12.564-10.536,34.372-4.656,36.036,11.834
		c0.501,4.959-2.135,9.427-0.538,15.6c2.655,2.724,4.359,6.396,6.455,9.681c-1.322,0.65-1.044,2.9-2.689,3.229
		c-3.361-1.394-10.949-2.056-10.22,4.84c1.646,1.939,4.824,2.349,6.455,4.299c-0.671,8.425,3.402,14.31,10.757,10.224
		c0.888-3.211,2.539-5.919,2.151-9.145c-0.4-3.343-4.334-5.341-3.228-8.067c3.626-1.465,8.561,0.396,11.295,1.614
		c1.921,12.977-6.224,36.986-5.379,49.481c1.424,21.035,21.085,0.88,32.272,9.144c0.453,5.414-2.664,7.176-2.689,11.296
		c-0.089,14.086,12.615,13.408,20.439,18.289c0.501-0.079,0.835-0.322,1.075-0.667v-4.817
		C186.237,199.579,180.047,194.545,174.266,195.57z M27.969,124.573c-0.436-0.103-0.536-0.538-1.075-0.538c0,0.897,0,1.794,0,2.688
		c-8.189,7.049-9.586,20.894-21.514,24.203c-0.621-0.707-1.223-6.715-0.538-3.766c1.199-5.075,0.714-11.835,3.765-15.062
		c7.353-1.608,10.659-7.271,16.673-10.223c1.212,0.088,1.928,2.397,2.151,0C28.596,121.792,27.674,123.794,27.969,124.573z
		 M66.695,97.682c-0.525,2.051-3.548,2.972-4.302,4.841c-2.171,5.37,0.852,11.39-2.151,17.211
		c-2.806-5.746-5.865-13.087-12.371-12.369c-6.482,0.708-7.04,14.137-16.673,11.291c0.182-1.077-0.11-1.681-1.076-1.616
		c1.884-8.517,8.415-12.379,15.598-15.595c-0.509-11.256,2.66-17.44,11.832-15.599C62.792,86.904,67.966,92.706,66.695,97.682z
		 M90.361,76.704c6.159,2.911,5.151,9.13,6.992,16.137c1.952,7.416,11.442,13.88,9.144,22.053c-0.948,0.484-1.667,1.203-2.151,2.149
		c-1.973,0-3.943,0-5.916,0c-2.2-2.428-5.077-2.509-6.992-4.298c-5.181-4.852-5.136-12.345-7.53-19.362
		c-1.9-5.569-7.191-6.374-9.681-10.756c1.607-2.903,5.714-5.475,5.379-8.608c0.357,0,0.716,0,1.076,0
		C83.505,76.67,87.276,75.249,90.361,76.704z"/>
</g>
</svg>
