<?xml version="1.0" encoding="utf-8"?>
<!-- Generator: Adobe Illustrator 15.1.0, SVG Export Plug-In . SVG Version: 6.00 Build 0)  -->
<!DOCTYPE svg PUBLIC "-//W3C//DTD SVG 1.1//EN" "http://www.w3.org/Graphics/SVG/1.1/DTD/svg11.dtd">
<svg version="1.1" id="Layer_1" xmlns="http://www.w3.org/2000/svg" xmlns:xlink="http://www.w3.org/1999/xlink" x="0px" y="0px"
	 width="1328.829px" height="215.156px" viewBox="0 0 1328.829 215.156" enable-background="new 0 0 1328.829 215.156"
	 xml:space="preserve">
<g>
	<g>
		<path fill="#133478" d="M270.862,58.046h8.329v75.273h32.056v8.04h-40.383L270.862,58.046L270.862,58.046z"/>
		<path fill="#133478" d="M325.884,54.363c1.806,0,3.348,0.646,4.623,1.926c1.279,1.282,1.917,2.833,1.917,4.642
			c0,1.781-0.639,3.309-1.917,4.589c-1.277,1.286-2.819,1.925-4.623,1.925c-1.77,0-3.29-0.637-4.565-1.925
			c-1.279-1.281-1.917-2.809-1.917-4.589c0-1.813,0.638-3.358,1.917-4.642C322.594,55.01,324.118,54.363,325.884,54.363z
			 M321.946,79.739h7.93v61.615h-7.93V79.739z"/>
		<path fill="#133478" d="M377.34,86.478l-5.097,5.269c-4.243-4.118-8.384-6.175-12.434-6.175c-2.575,0-4.783,0.85-6.618,2.552
			c-1.836,1.699-2.753,3.677-2.753,5.946c0,2.001,0.758,3.906,2.269,5.723c1.516,1.851,4.695,4.021,9.538,6.51
			c5.902,3.058,9.914,6.003,12.031,8.838c2.081,2.874,3.12,6.098,3.12,9.688c0,5.063-1.774,9.347-5.332,12.857
			c-3.554,3.505-7.998,5.269-13.331,5.269c-3.555,0-6.947-0.781-10.18-2.321c-3.234-1.55-5.911-3.68-8.025-6.401l4.983-5.663
			c4.052,4.565,8.345,6.854,12.888,6.854c3.178,0,5.885-1.018,8.117-3.055c2.232-2.041,3.35-4.438,3.35-7.195
			c0-2.267-0.738-4.286-2.213-6.066c-1.478-1.73-4.807-3.924-9.992-6.563c-5.564-2.872-9.347-5.705-11.352-8.5
			c-2.008-2.791-3.01-5.984-3.01-9.569c0-4.679,1.597-8.568,4.793-11.667c3.196-3.097,7.233-4.647,12.114-4.647
			C365.88,78.152,371.593,80.925,377.34,86.478z"/>
		<path fill="#133478" d="M398.296,56.853h7.93v22.884h12.572v6.857h-12.572v54.774h-7.93V86.59h-10.817v-6.854h10.817V56.853z"/>
		<path fill="#133478" d="M482.573,120.913l6.684,3.512c-2.192,4.303-4.724,7.777-7.595,10.416
			c-2.872,2.646-6.101,4.652-9.694,6.034c-3.591,1.375-7.657,2.069-12.188,2.069c-10.054,0-17.911-3.295-23.583-9.881
			c-5.668-6.586-8.502-14.037-8.502-22.347c0-7.817,2.399-14.781,7.197-20.902c6.083-7.775,14.229-11.667,24.435-11.667
			c10.505,0,18.896,3.985,25.167,11.953c4.46,5.626,6.728,12.651,6.802,21.066h-55.45c0.149,7.16,2.438,13.027,6.862,17.604
			c4.424,4.576,9.887,6.865,16.387,6.865c3.136,0,6.188-0.547,9.156-1.637c2.966-1.089,5.493-2.537,7.571-4.34
			C477.905,127.855,480.156,124.937,482.573,120.913z M482.573,104.318c-1.061-4.229-2.598-7.606-4.621-10.137
			c-2.022-2.532-4.698-4.568-8.022-6.122c-3.328-1.547-6.823-2.324-10.489-2.324c-6.051,0-11.25,1.949-15.594,5.835
			c-3.176,2.831-5.578,7.078-7.203,12.743L482.573,104.318L482.573,104.318z"/>
		<path fill="#133478" d="M506.075,79.739h7.927v11.04c3.171-4.225,6.684-7.394,10.537-9.488c3.853-2.094,8.042-3.144,12.572-3.144
			c4.608,0,8.695,1.17,12.263,3.509c3.567,2.345,6.202,5.493,7.9,9.458c1.698,3.959,2.552,10.143,2.552,18.52v31.711H551.9v-29.384
			c0-7.102-0.294-11.839-0.883-14.221c-0.921-4.075-2.685-7.14-5.288-9.2c-2.605-2.059-6.004-3.09-10.194-3.09
			c-4.796,0-9.093,1.589-12.89,4.76c-3.794,3.171-6.297,7.101-7.503,11.782c-0.755,3.055-1.133,8.642-1.133,16.766v22.592h-7.927
			V79.737L506.075,79.739L506.075,79.739z"/>
		<path fill="#133478" d="M579.566,54.363c1.806,0,3.345,0.646,4.621,1.926c1.279,1.282,1.919,2.833,1.919,4.642
			c0,1.781-0.643,3.309-1.919,4.589c-1.278,1.286-2.815,1.925-4.621,1.925c-1.768,0-3.292-0.637-4.565-1.925
			c-1.279-1.281-1.917-2.809-1.917-4.589c0-1.813,0.638-3.358,1.917-4.642C576.274,55.01,577.798,54.363,579.566,54.363z
			 M575.628,79.739h7.929v61.615h-7.929V79.739z"/>
		<path fill="#133478" d="M600.04,79.739h7.926v11.04c3.171-4.225,6.684-7.394,10.534-9.488c3.855-2.094,8.043-3.144,12.574-3.144
			c4.606,0,8.693,1.17,12.267,3.509c3.566,2.345,6.201,5.493,7.901,9.458c1.699,3.959,2.546,10.143,2.546,18.52v31.711h-7.926
			v-29.384c0-7.102-0.292-11.839-0.883-14.221c-0.923-4.075-2.684-7.14-5.288-9.2c-2.606-2.059-6-3.09-10.195-3.09
			c-4.795,0-9.093,1.589-12.89,4.76c-3.794,3.171-6.297,7.101-7.504,11.782c-0.753,3.055-1.133,8.642-1.133,16.766v22.592h-7.926
			L600.04,79.739L600.04,79.739z"/>
		<path fill="#133478" d="M723.903,79.739h7.93v49.108c0,8.646-0.756,14.971-2.266,18.976c-2.082,5.663-5.684,10.021-10.82,13.081
			c-5.133,3.058-11.303,4.592-18.518,4.592c-5.287,0-10.035-0.75-14.242-2.245c-4.207-1.499-7.639-3.5-10.283-6.021
			c-2.637-2.518-5.076-6.204-7.311-11.047h8.615c2.338,4.075,5.367,7.101,9.074,9.068c3.705,1.964,8.297,2.938,13.773,2.938
			c5.416,0,9.973-1.009,13.695-3.019c3.725-2.015,6.387-4.546,7.971-7.592c1.584-3.048,2.379-7.965,2.379-14.758v-3.173
			c-2.984,3.771-6.646,6.673-10.941,8.694c-4.313,2.021-8.887,3.028-13.723,3.028c-5.666,0-11.004-1.409-15.988-4.224
			c-4.988-2.809-8.846-6.597-11.561-11.355c-2.721-4.753-4.082-9.984-4.082-15.688c0-5.701,1.414-11.019,4.246-15.943
			c2.838-4.922,6.758-8.821,11.768-11.693c5.012-2.87,10.293-4.303,15.848-4.303c4.609,0,8.904,0.956,12.902,2.858
			c3.984,1.909,7.83,5.055,11.531,9.437v-10.72H723.903z M700.51,85.798c-4.49,0-8.658,1.084-12.518,3.26
			c-3.867,2.169-6.869,5.17-9.064,8.998c-2.189,3.836-3.295,7.979-3.295,12.433c0,6.76,2.273,12.351,6.801,16.768
			c4.529,4.417,10.4,6.628,17.609,6.628c7.299,0,13.164-2.188,17.59-6.566c4.439-4.385,6.66-10.144,6.66-17.274
			c0-4.646-1.016-8.791-3.059-12.436c-2.039-3.642-4.924-6.516-8.664-8.635C708.834,86.853,704.815,85.798,700.51,85.798z"/>
		<path fill="#133478" d="M787.848,56.853h7.93v22.884h12.566v6.857h-12.566v54.774h-7.93V86.59h-10.82v-6.854h10.82V56.853z"/>
		<path fill="#133478" d="M849.411,78.152c9.492,0,17.367,3.434,23.604,10.311c5.68,6.273,8.516,13.687,8.516,22.259
			c0,8.613-2.994,16.139-8.982,22.574c-6.01,6.438-13.705,9.656-23.133,9.656c-9.453,0-17.178-3.22-23.17-9.656
			c-5.998-6.437-8.992-13.961-8.992-22.574c0-8.528,2.838-15.933,8.506-22.198C831.995,81.607,839.881,78.152,849.411,78.152z
			 M849.383,85.909c-6.594,0-12.26,2.436-16.99,7.309c-4.74,4.875-7.119,10.766-7.119,17.674c0,4.459,1.088,8.614,3.244,12.459
			c2.154,3.854,5.074,6.826,8.75,8.919c3.68,2.097,7.709,3.146,12.104,3.146c4.396,0,8.428-1.056,12.104-3.146
			c3.68-2.097,6.596-5.073,8.76-8.919c2.156-3.854,3.23-8.002,3.23-12.459c0-6.909-2.375-12.801-7.129-17.674
			C861.586,88.346,855.94,85.909,849.383,85.909z"/>
		<path fill="#133478" d="M929.553,58.046h16.6c9.516,0,15.932,0.417,19.256,1.248c4.758,1.17,8.646,3.581,11.668,7.217
			c3.023,3.649,4.529,8.225,4.529,13.733c0,5.55-1.465,10.135-4.416,13.734c-2.947,3.605-7.002,6.03-12.184,7.28
			c-3.773,0.908-10.832,1.359-21.182,1.359h-5.947v38.738h-8.332V58.046H929.553z M937.877,66.198v28.264l14.105,0.168
			c5.705,0,9.877-0.518,12.521-1.554c2.646-1.035,4.719-2.706,6.225-5.028c1.521-2.317,2.273-4.91,2.273-7.775
			c0-2.789-0.756-5.342-2.273-7.658c-1.506-2.319-3.492-3.967-5.979-4.948c-2.467-0.98-6.518-1.468-12.146-1.468H937.877
			L937.877,66.198z"/>
		<path fill="#133478" d="M1058.35,79.739v61.615h-7.816V130.77c-3.326,4.042-7.055,7.079-11.188,9.118
			c-4.135,2.04-8.654,3.053-13.57,3.053c-8.725,0-16.166-3.154-22.352-9.481c-6.168-6.322-9.252-14.018-9.252-23.08
			c0-8.873,3.115-16.457,9.346-22.769c6.23-6.301,13.727-9.453,22.484-9.453c5.061,0,9.643,1.073,13.736,3.229
			c4.098,2.152,7.693,5.379,10.785,9.688V79.753L1058.35,79.739L1058.35,79.739z M1026.667,85.798c-4.418,0-8.49,1.084-12.227,3.251
			c-3.73,2.173-6.703,5.216-8.902,9.137c-2.209,3.922-3.322,8.068-3.322,12.441c0,4.341,1.113,8.493,3.34,12.444
			c2.227,3.959,5.211,7.046,8.965,9.254c3.754,2.206,7.781,3.311,12.086,3.311c4.338,0,8.455-1.095,12.334-3.279
			c3.885-2.188,6.871-5.147,8.969-8.889c2.096-3.731,3.143-7.938,3.143-12.616c0-7.129-2.348-13.085-7.043-17.877
			C1039.301,88.191,1033.524,85.798,1026.667,85.798z"/>
		<path fill="#133478" d="M1073.19,79.739h8.1v9.003c2.424-3.547,4.973-6.198,7.648-7.962c2.688-1.754,5.477-2.632,8.379-2.632
			c2.195,0,4.535,0.701,7.025,2.096l-4.133,6.687c-1.658-0.713-3.055-1.076-4.193-1.076c-2.641,0-5.186,1.084-7.646,3.254
			c-2.449,2.173-4.326,5.543-5.607,10.108c-0.982,3.511-1.473,10.614-1.473,21.302v20.841h-8.1V79.739L1073.19,79.739z"/>
		<path fill="#133478" d="M1162.956,120.913l6.691,3.512c-2.191,4.303-4.725,7.777-7.6,10.416c-2.877,2.646-6.098,4.652-9.693,6.034
			c-3.594,1.375-7.656,2.069-12.188,2.069c-10.055,0-17.912-3.295-23.59-9.881c-5.666-6.589-8.498-14.037-8.498-22.347
			c0-7.817,2.4-14.781,7.197-20.902c6.088-7.775,14.232-11.667,24.428-11.667c10.512,0,18.904,3.985,25.186,11.953
			c4.451,5.626,6.729,12.651,6.805,21.066h-55.451c0.148,7.16,2.439,13.027,6.865,17.604c4.422,4.576,9.891,6.865,16.389,6.865
			c3.139,0,6.186-0.547,9.162-1.637c2.967-1.089,5.486-2.537,7.572-4.34C1158.303,127.855,1160.534,124.937,1162.956,120.913z
			 M1162.956,104.318c-1.053-4.229-2.598-7.606-4.623-10.137c-2.006-2.532-4.695-4.568-8.018-6.122
			c-3.324-1.547-6.826-2.324-10.496-2.324c-6.037,0-11.238,1.949-15.59,5.835c-3.18,2.831-5.578,7.078-7.207,12.743
			L1162.956,104.318L1162.956,104.318z"/>
		<path fill="#133478" d="M1186.463,79.739h7.932v11.04c3.168-4.225,6.688-7.394,10.531-9.488c3.854-2.094,8.039-3.144,12.574-3.144
			c4.609,0,8.689,1.17,12.264,3.509c3.57,2.343,6.203,5.493,7.9,9.458c1.703,3.959,2.545,10.143,2.545,18.52v31.711h-7.922v-29.384
			c0-7.102-0.297-11.839-0.881-14.221c-0.926-4.075-2.686-7.14-5.291-9.2c-2.605-2.059-5.996-3.09-10.195-3.09
			c-4.797,0-9.092,1.589-12.896,4.76c-3.797,3.171-6.285,7.101-7.498,11.782c-0.752,3.055-1.127,8.642-1.127,16.766v22.592h-7.939
			v-61.61H1186.463L1186.463,79.739z"/>
		<path fill="#133478" d="M1264.112,56.853h7.926v22.884h12.574v6.857h-12.574v54.774h-7.926V86.59h-10.816v-6.854h10.816V56.853z"
			/>
		<path fill="#133478" d="M1327.489,86.478l-5.092,5.269c-4.238-4.118-8.387-6.175-12.432-6.175c-2.574,0-4.793,0.85-6.611,2.552
			c-1.838,1.699-2.76,3.677-2.76,5.946c0,2.001,0.756,3.906,2.27,5.723c1.516,1.851,4.697,4.021,9.537,6.51
			c5.893,3.058,9.912,6.003,12.029,8.838c2.08,2.874,3.119,6.098,3.119,9.688c0,5.063-1.775,9.347-5.328,12.857
			c-3.563,3.505-8.006,5.269-13.334,5.269c-3.553,0-6.943-0.781-10.188-2.321c-3.234-1.55-5.91-3.68-8.027-6.401l4.984-5.663
			c4.055,4.565,8.35,6.854,12.898,6.854c3.178,0,5.887-1.018,8.113-3.055c2.23-2.041,3.344-4.438,3.344-7.195
			c0-2.267-0.738-4.286-2.209-6.066c-1.477-1.73-4.807-3.924-9.986-6.563c-5.561-2.872-9.35-5.705-11.355-8.5
			c-2.004-2.791-3.012-5.984-3.012-9.569c0-4.679,1.605-8.568,4.797-11.667c3.203-3.097,7.236-4.647,12.115-4.647
			C1316.032,78.152,1321.741,80.925,1327.489,86.478z"/>
	</g>
	
		<linearGradient id="SVGID_1_" gradientUnits="userSpaceOnUse" x1="-39.5737" y1="150.2839" x2="193.5093" y2="150.2839" gradientTransform="matrix(0.9051 0 0 0.9051 35.8182 -67.4001)">
		<stop  offset="0.2" style="stop-color:#0092D4"/>
		<stop  offset="0.8" style="stop-color:#133478"/>
	</linearGradient>
	
		<path fill="url(#SVGID_1_)" stroke="#FFFFFF" stroke-width="2.5574" stroke-linecap="round" stroke-linejoin="round" stroke-miterlimit="10" d="
		M210.963,105.475C210.963,47.217,163.735,0,105.48,0C47.225,0,0,47.217,0,105.475c0,0,5.418-12.802,24.023-11.636
		c12.216-24.424,26.146-8.338,26.146-8.338s16.594-15.385,24.156-0.848c25.009-6.39,30.242,27.071,30.242,27.071
		s20.065,31.545,29.36,15.267c14.012-24.741-22.773-60.485-22.773-60.485s36.083,33.94,22.773,60.485
		c13.521,23.903,25.225-1.484,25.225-1.484s6.456-43.188-39.174-78.769c48.913,37.312,38.459,84.235,38.459,84.235
		s22.018,17.528,27.831-16.195c-2.494-58.45-47.109-81.065-47.109-81.065s43.186,20.067,46.935,81.99
		C187.841,115.704,205.258,124.83,210.963,105.475z"/>
	
		<linearGradient id="SVGID_2_" gradientUnits="userSpaceOnUse" x1="-39.5737" y1="233.4207" x2="193.5093" y2="233.4207" gradientTransform="matrix(0.9051 0 0 0.9051 35.8182 -67.4001)">
		<stop  offset="0.2" style="stop-color:#133478"/>
		<stop  offset="0.8" style="stop-color:#0092D4"/>
	</linearGradient>
	
		<path fill="url(#SVGID_2_)" stroke="#FFFFFF" stroke-width="2.5574" stroke-linecap="round" stroke-linejoin="round" stroke-miterlimit="10" d="
		M0,107.128c0,58.25,47.225,105.471,105.48,105.471c58.255,0,105.483-47.221,105.483-105.471c0,0-5.419,12.799-24.023,11.634
		c-12.217,24.422-28.499,12.21-28.499,12.21s-17.443,12.79-25.006-1.744c-25.004,6.401-33.623-30.24-33.623-30.24
		s-13.48-29.65-22.78-13.37c-14.005,24.729,22.78,60.478,22.78,60.478s-36.092-33.939-22.78-60.48
		c-13.518-23.902-26.168,0.581-26.168,0.581s-10.267,42.034,40.119,79.675c-48.91-37.313-40.119-79.675-40.119-79.675
		S30.51,64.097,24.697,97.832c2.494,58.443,47.105,81.063,47.105,81.063s-43.185-20.065-46.931-81.996
		C23.12,96.896,5.708,87.776,0,107.128z"/>
</g>
</svg>
