<?xml version="1.0" encoding="utf-8"?>
<!-- Generator: Adobe Illustrator 21.0.2, SVG Export Plug-In . SVG Version: 6.00 Build 0)  -->
<svg version="1.1" id="Layer_1" xmlns="http://www.w3.org/2000/svg" xmlns:xlink="http://www.w3.org/1999/xlink" x="0px" y="0px"
	 width="1156px" height="284.7px" viewBox="0 0 1156 284.7" enable-background="new 0 0 1156 284.7" xml:space="preserve">
<radialGradient id="SVGID_1_" cx="743.8903" cy="136.536" r="45.2011" gradientTransform="matrix(2.7117 0 0 2.7117 -986.7558 -244.6391)" gradientUnits="userSpaceOnUse">
	<stop  offset="0" style="stop-color:#FFFFFF"/>
	<stop  offset="0.1495" style="stop-color:#FEF9F9"/>
	<stop  offset="0.3451" style="stop-color:#FCE9EA"/>
	<stop  offset="0.5663" style="stop-color:#F9CECF"/>
	<stop  offset="0.8046" style="stop-color:#F4A8AB"/>
	<stop  offset="1" style="stop-color:#EF8488"/>
</radialGradient>
<circle fill-rule="evenodd" clip-rule="evenodd" fill="url(#SVGID_1_)" cx="1030.4" cy="125.6" r="122.6"/>
<path fill="#E40646" d="M186.7,154.6c-3.8,2.4-7.9,3.6-12.1,3.6s-7.5-1.3-9.9-3.8c-2.3-2.5-3.8-6.8-4.4-12.8L152.9,28l-45.1,120.3
	c-1.6,4.5-4.7,6.8-9.4,6.8c-4.7,0-7.8-2.3-9.4-6.8L44.7,28L37.3,141c-0.4,6.1-1.6,10.5-3.6,13.3c-2,2.8-5.2,4.1-9.8,4.1
	c-4.5,0-8.6-1.8-12.3-5.5c2.8-2.4,4.5-6.7,4.9-13l8.9-119.9c0-0.9,0-1.6,0-2.3c0-4.7-1.1-8.4-3.4-11.1C28.1,3,34.5,1.2,41.1,1.2
	c6.7,0,11.8,1.8,15.5,5.5c3.7,3.7,6.8,9.5,9.4,17.4l34.2,92.4l35.3-92c2.8-8.8,6.4-14.9,10.7-18.3c4.3-3.4,9.5-5.1,15.4-5.1
	c6,0,11.5,1.3,16.6,3.8c-2.3,3.1-3.4,7-3.4,11.7c0,0.7,0,1.5,0,2.3l8.3,120.5C183.4,146.9,184.6,151.9,186.7,154.6z"/>
<path fill="#E40646" d="M298.5,81.1v54c0,7.9,3.5,12.6,10.6,14c-3.5,6.2-9,9.4-16.4,9.4c-9.5,0-14.9-5.3-16.4-15.9
	c-8.2,10.6-19.2,15.9-32.9,15.9c-9.1,0-16.4-2.4-22.1-7.2c-5.7-4.8-8.5-11.5-8.5-20c0-10.5,5.4-18.9,16.2-25.4
	c10.8-6.4,26.5-10,47.2-10.5V80.5c0-7.6-1.4-13.3-4.1-16.9c-2.8-3.6-7-5.4-12.8-5.4c-5.7,0-10.1,1.2-13.1,3.7
	c-3,2.5-4.5,5.5-4.5,8.9c0,3.5,1,6.3,3,8.4c-3.5,3.1-7.7,4.7-12.3,4.7s-8.3-1.2-10.9-3.5c-2.6-2.3-3.9-5.6-3.9-9.7
	c0-7.1,4.1-13,12.3-17.9c8.2-4.8,18.2-7.2,29.9-7.2s21.1,3,28.2,9.1C294.9,60.8,298.5,69.6,298.5,81.1z M236.8,128.9
	c0,9.1,5,13.6,14.9,13.6c9.9,0,18.1-4.2,24.4-12.5v-24c-13.5,0.7-23.4,3.2-29.8,7.3C240,117.5,236.8,122.7,236.8,128.9z"/>
<path fill="#E40646" d="M413,81.1v54c0,7.9,3.5,12.6,10.6,14c-3.5,6.2-9,9.4-16.4,9.4c-9.5,0-14.9-5.3-16.4-15.9
	c-8.2,10.6-19.2,15.9-32.9,15.9c-9.1,0-16.4-2.4-22.1-7.2c-5.7-4.8-8.5-11.5-8.5-20c0-10.5,5.4-18.9,16.2-25.4
	c10.8-6.4,26.5-10,47.2-10.5V80.5c0-7.6-1.4-13.3-4.1-16.9c-2.8-3.6-7-5.4-12.8-5.4c-5.7,0-10.1,1.2-13.1,3.7
	c-3,2.5-4.5,5.5-4.5,8.9c0,3.5,1,6.3,3,8.4c-3.5,3.1-7.7,4.7-12.3,4.7s-8.3-1.2-10.9-3.5c-2.6-2.3-3.9-5.6-3.9-9.7
	c0-7.1,4.1-13,12.3-17.9c8.2-4.8,18.2-7.2,29.9-7.2s21.1,3,28.2,9.1C409.5,60.8,413,69.6,413,81.1z M351.4,128.9
	c0,9.1,5,13.6,14.9,13.6c9.9,0,18.1-4.2,24.4-12.5v-24c-13.5,0.7-23.4,3.2-29.8,7.3C354.6,117.5,351.4,122.7,351.4,128.9z"/>
<path fill="#E40646" d="M472.7,63.3v64.4c0,5.1,1,8.7,2.9,10.9c1.9,2.2,5.1,3.3,9.5,3.3c8.6,0,16.6-3.6,23.8-10.8
	c3.1,0.6,4.7,3.1,4.7,7.7c0,4.5-3.2,9-9.7,13.3c-6.4,4.3-14.4,6.5-23.8,6.5c-9.4,0-16.7-2.4-21.9-7.3s-7.8-12.1-7.8-21.8V63.3
	c-5.8-0.1-10.1-1.1-12.8-2.9c-2.7-1.8-4-4.1-4-6.9c0-2.8,1.1-5,3.2-6.6c4,0.6,7.7,0.9,11.3,0.9h2.3v-14c0-5.1-2-8.5-5.9-10.2
	c3.4-5,7.9-7.4,13.4-7.4c9.9,0,14.9,6,14.9,17.9v13.8h34.4c0.8,1.3,1.3,2.5,1.3,3.8c0,7.8-11,11.7-33.2,11.7H472.7z"/>
<path fill="#253A8E" d="M661.7,18.8v122c0,5.2,1.9,8.6,5.7,10.2c-3.7,5-8.2,7.4-13.6,7.4c-9.6,0-14.5-5.9-14.5-17.9V87.3h-77.8v53.6
	c0,5.1,1.9,8.5,5.7,10.2c-3.4,5-7.9,7.4-13.6,7.4c-9.6,0-14.5-5.9-14.5-17.9v-122c0-5-1.9-8.3-5.7-10c3.3-5,7.7-7.4,13.4-7.4
	c9.8,0,14.7,5.9,14.7,17.6v52.7h77.8V18.6c0-5-1.9-8.3-5.7-10c3.3-5,7.7-7.4,13.4-7.4C656.8,1.2,661.7,7.1,661.7,18.8z"/>
<path fill="#253A8E" d="M799,158.5c-4.8,0-8.8-1.2-12-3.5c-3.2-2.3-7-6.8-11.4-13.3l-32.1-46.8h-17.4v45.9c0,5.1,2,8.5,5.9,10.2
	c-3.7,5-8.3,7.4-13.8,7.4c-9.6,0-14.5-5.9-14.5-17.9V21.4c0-5.1-1.9-8.5-5.7-10.2c4-5.5,9.8-8.3,17.6-8.3h34.2
	c16.7,0,30.4,4.1,41.1,12.2c10.7,8.1,16,19.4,16,33.9c0,11.5-3.5,21-10.4,28.5c-6.9,7.5-16.2,12.6-27.8,15.3l31.9,43.6
	c4.1,5.7,9,9.1,14.7,10.2C811.5,154.5,806,158.5,799,158.5z M726.1,19.9v58.2h23c11.3,0,19.9-2.5,25.8-7.5c5.9-5,8.8-12.1,8.8-21.4
	c0-9.2-2.9-16.4-8.8-21.6c-5.9-5.2-14.5-7.8-25.8-7.8H726.1z"/>
<path fill="#253A8E" d="M863.8,18.8v122c0,5.1,1.9,8.5,5.7,10.2c-3.4,5-7.9,7.4-13.6,7.4c-9.6,0-14.5-5.9-14.5-17.9v-122
	c0-5-1.9-8.3-5.7-10c3.3-5,7.7-7.4,13.4-7.4C858.9,1.2,863.8,7.1,863.8,18.8z"/>
<g>
	<path fill="#253A8E" d="M1.7,225.3v-35.1h7L17,215c0.8,2.3,1.3,4,1.7,5.2c0.4-1.3,1-3.2,1.9-5.6l8.4-24.4h6.2v35.1h-4.5v-29.4
		l-10.2,29.4h-4.2L6.2,195.4v29.9H1.7z"/>
	<path fill="#253A8E" d="M59.2,222.1c-1.6,1.4-3.1,2.3-4.6,2.9c-1.5,0.6-3.1,0.8-4.7,0.8c-2.8,0-4.9-0.7-6.4-2
		c-1.5-1.4-2.2-3.1-2.2-5.2c0-1.2,0.3-2.4,0.8-3.4c0.6-1,1.3-1.9,2.2-2.5c0.9-0.6,1.9-1.1,3.1-1.4c0.8-0.2,2.1-0.4,3.8-0.6
		c3.5-0.4,6-0.9,7.7-1.5c0-0.6,0-1,0-1.1c0-1.8-0.4-3-1.2-3.7c-1.1-1-2.7-1.5-4.9-1.5c-2,0-3.5,0.4-4.5,1.1c-1,0.7-1.7,2-2.1,3.8
		l-4.2-0.6c0.4-1.8,1-3.3,1.9-4.4c0.9-1.1,2.1-2,3.8-2.6c1.7-0.6,3.6-0.9,5.8-0.9c2.2,0,3.9,0.3,5.3,0.8c1.4,0.5,2.4,1.2,3,1.9
		c0.6,0.8,1.1,1.7,1.3,2.9c0.1,0.7,0.2,2.1,0.2,4v5.7c0,4,0.1,6.5,0.3,7.6c0.2,1.1,0.5,2.1,1.1,3h-4.5
		C59.6,224.4,59.3,223.3,59.2,222.1z M58.8,212.5c-1.6,0.6-3.9,1.2-7,1.6c-1.8,0.3-3,0.5-3.8,0.9c-0.7,0.3-1.3,0.8-1.7,1.4
		c-0.4,0.6-0.6,1.3-0.6,2c0,1.1,0.4,2.1,1.3,2.9c0.9,0.8,2.1,1.1,3.8,1.1c1.7,0,3.1-0.4,4.4-1.1c1.3-0.7,2.2-1.7,2.8-3
		c0.5-1,0.7-2.4,0.7-4.3V212.5z"/>
	<path fill="#253A8E" d="M79.8,221.4l0.6,3.8c-1.2,0.3-2.3,0.4-3.3,0.4c-1.6,0-2.8-0.2-3.6-0.7c-0.9-0.5-1.5-1.1-1.8-1.9
		c-0.4-0.8-0.5-2.5-0.5-5.1v-14.6H68v-3.3h3.2v-6.3l4.3-2.6v8.9h4.3v3.3h-4.3v14.9c0,1.2,0.1,2,0.2,2.4c0.2,0.3,0.4,0.6,0.7,0.8
		c0.3,0.2,0.8,0.3,1.5,0.3C78.4,221.6,79,221.5,79.8,221.4z"/>
	<path fill="#253A8E" d="M101.9,217.1l4.4,0.6c-0.7,2.6-2,4.6-3.9,6.1c-1.9,1.4-4.3,2.2-7.3,2.2c-3.7,0-6.7-1.1-8.8-3.4
		c-2.2-2.3-3.3-5.5-3.3-9.6c0-4.3,1.1-7.6,3.3-10c2.2-2.4,5.1-3.5,8.6-3.5c3.4,0,6.2,1.2,8.3,3.5c2.2,2.3,3.2,5.6,3.2,9.8
		c0,0.3,0,0.6,0,1.1H87.5c0.2,2.8,0.9,4.9,2.4,6.4c1.4,1.5,3.2,2.2,5.3,2.2c1.6,0,2.9-0.4,4-1.2
		C100.3,220.2,101.2,218.9,101.9,217.1z M87.7,210.1h14.2c-0.2-2.1-0.7-3.7-1.6-4.8c-1.4-1.7-3.2-2.5-5.3-2.5c-2,0-3.6,0.7-5,2
		C88.6,206.1,87.9,207.9,87.7,210.1z"/>
	<path fill="#253A8E" d="M112.2,225.3v-25.4h3.9v3.9c1-1.8,1.9-3,2.7-3.6c0.8-0.6,1.8-0.9,2.8-0.9c1.5,0,2.9,0.5,4.4,1.4l-1.5,4
		c-1.1-0.6-2.1-0.9-3.2-0.9c-0.9,0-1.8,0.3-2.5,0.8c-0.7,0.6-1.3,1.4-1.6,2.4c-0.5,1.5-0.7,3.2-0.7,5v13.3H112.2z"/>
	<path fill="#253A8E" d="M129,225.3v-25.4h3.9v3.6c1.9-2.8,4.6-4.2,8.1-4.2c1.5,0,2.9,0.3,4.2,0.8c1.3,0.6,2.2,1.3,2.9,2.2
		c0.6,0.9,1.1,2,1.3,3.2c0.2,0.8,0.2,2.2,0.2,4.2v15.6h-4.3v-15.5c0-1.8-0.2-3.1-0.5-3.9c-0.3-0.9-0.9-1.6-1.8-2.1s-1.9-0.8-3-0.8
		c-1.8,0-3.4,0.6-4.7,1.7c-1.3,1.2-2,3.4-2,6.6v13.9H129z"/>
	<path fill="#253A8E" d="M173.3,222.1c-1.6,1.4-3.1,2.3-4.6,2.9c-1.5,0.6-3.1,0.8-4.7,0.8c-2.8,0-4.9-0.7-6.4-2
		c-1.5-1.4-2.2-3.1-2.2-5.2c0-1.2,0.3-2.4,0.8-3.4c0.6-1,1.3-1.9,2.2-2.5c0.9-0.6,1.9-1.1,3.1-1.4c0.8-0.2,2.1-0.4,3.8-0.6
		c3.5-0.4,6-0.9,7.7-1.5c0-0.6,0-1,0-1.1c0-1.8-0.4-3-1.2-3.7c-1.1-1-2.7-1.5-4.9-1.5c-2,0-3.5,0.4-4.5,1.1c-1,0.7-1.7,2-2.1,3.8
		l-4.2-0.6c0.4-1.8,1-3.3,1.9-4.4c0.9-1.1,2.1-2,3.8-2.6c1.7-0.6,3.6-0.9,5.8-0.9c2.2,0,3.9,0.3,5.3,0.8c1.4,0.5,2.4,1.2,3,1.9
		c0.6,0.8,1.1,1.7,1.3,2.9c0.1,0.7,0.2,2.1,0.2,4v5.7c0,4,0.1,6.5,0.3,7.6c0.2,1.1,0.5,2.1,1.1,3h-4.5
		C173.8,224.4,173.5,223.3,173.3,222.1z M173,212.5c-1.6,0.6-3.9,1.2-7,1.6c-1.8,0.3-3,0.5-3.8,0.9c-0.7,0.3-1.3,0.8-1.7,1.4
		c-0.4,0.6-0.6,1.3-0.6,2c0,1.1,0.4,2.1,1.3,2.9c0.9,0.8,2.1,1.1,3.8,1.1c1.7,0,3.1-0.4,4.4-1.1c1.3-0.7,2.2-1.7,2.8-3
		c0.5-1,0.7-2.4,0.7-4.3V212.5z"/>
	<path fill="#253A8E" d="M184.4,225.3v-35.1h4.3v35.1H184.4z"/>
	<path fill="#253A8E" d="M226.6,222.1c-1.6,1.4-3.1,2.3-4.6,2.9c-1.5,0.6-3.1,0.8-4.7,0.8c-2.8,0-4.9-0.7-6.4-2
		c-1.5-1.4-2.2-3.1-2.2-5.2c0-1.2,0.3-2.4,0.8-3.4c0.6-1,1.3-1.9,2.2-2.5c0.9-0.6,1.9-1.1,3.1-1.4c0.8-0.2,2.1-0.4,3.8-0.6
		c3.5-0.4,6-0.9,7.7-1.5c0-0.6,0-1,0-1.1c0-1.8-0.4-3-1.2-3.7c-1.1-1-2.7-1.5-4.9-1.5c-2,0-3.5,0.4-4.5,1.1c-1,0.7-1.7,2-2.1,3.8
		l-4.2-0.6c0.4-1.8,1-3.3,1.9-4.4c0.9-1.1,2.1-2,3.8-2.6c1.7-0.6,3.6-0.9,5.8-0.9c2.2,0,3.9,0.3,5.3,0.8c1.4,0.5,2.4,1.2,3,1.9
		c0.6,0.8,1.1,1.7,1.3,2.9c0.1,0.7,0.2,2.1,0.2,4v5.7c0,4,0.1,6.5,0.3,7.6c0.2,1.1,0.5,2.1,1.1,3h-4.5
		C227,224.4,226.7,223.3,226.6,222.1z M226.2,212.5c-1.6,0.6-3.9,1.2-7,1.6c-1.8,0.3-3,0.5-3.8,0.9c-0.7,0.3-1.3,0.8-1.7,1.4
		c-0.4,0.6-0.6,1.3-0.6,2c0,1.1,0.4,2.1,1.3,2.9c0.9,0.8,2.1,1.1,3.8,1.1c1.7,0,3.1-0.4,4.4-1.1c1.3-0.7,2.2-1.7,2.8-3
		c0.5-1,0.7-2.4,0.7-4.3V212.5z"/>
	<path fill="#253A8E" d="M237.7,225.3v-25.4h3.9v3.6c1.9-2.8,4.6-4.2,8.1-4.2c1.5,0,2.9,0.3,4.2,0.8c1.3,0.6,2.2,1.3,2.9,2.2
		s1.1,2,1.3,3.2c0.2,0.8,0.2,2.2,0.2,4.2v15.6h-4.3v-15.5c0-1.8-0.2-3.1-0.5-3.9c-0.3-0.9-0.9-1.6-1.8-2.1s-1.9-0.8-3-0.8
		c-1.8,0-3.4,0.6-4.7,1.7c-1.3,1.2-2,3.4-2,6.6v13.9H237.7z"/>
	<path fill="#253A8E" d="M282,225.3v-3.2c-1.6,2.5-4,3.8-7.1,3.8c-2,0-3.9-0.6-5.6-1.7c-1.7-1.1-3-2.7-3.9-4.7
		c-0.9-2-1.4-4.3-1.4-6.9c0-2.5,0.4-4.8,1.3-6.9c0.8-2.1,2.1-3.6,3.8-4.7c1.7-1.1,3.6-1.7,5.7-1.7c1.5,0,2.9,0.3,4.1,1
		c1.2,0.6,2.2,1.5,2.9,2.5v-12.6h4.3v35.1H282z M268.3,212.6c0,3.3,0.7,5.7,2.1,7.3c1.4,1.6,3,2.4,4.9,2.4c1.9,0,3.5-0.8,4.8-2.3
		c1.3-1.5,2-3.9,2-7c0-3.5-0.7-6-2-7.7c-1.3-1.6-3-2.4-5-2.4c-1.9,0-3.5,0.8-4.8,2.3C269,206.8,268.3,209.2,268.3,212.6z"/>
	<path fill="#253A8E" d="M307.3,235v-35.1h3.9v3.3c0.9-1.3,2-2.3,3.1-2.9c1.2-0.6,2.6-1,4.2-1c2.2,0,4.1,0.6,5.7,1.7
		c1.7,1.1,2.9,2.7,3.8,4.7c0.8,2,1.3,4.3,1.3,6.7c0,2.6-0.5,4.9-1.4,7c-0.9,2.1-2.3,3.7-4.1,4.8c-1.8,1.1-3.6,1.7-5.6,1.7
		c-1.4,0-2.7-0.3-3.9-0.9c-1.1-0.6-2.1-1.4-2.8-2.3V235H307.3z M311.2,212.7c0,3.3,0.7,5.7,2,7.3c1.3,1.6,2.9,2.3,4.8,2.3
		c1.9,0,3.6-0.8,4.9-2.4c1.4-1.6,2-4.1,2-7.5c0-3.2-0.7-5.7-2-7.3c-1.3-1.6-2.9-2.4-4.8-2.4c-1.8,0-3.5,0.9-4.9,2.6
		C311.9,207,311.2,209.4,311.2,212.7z"/>
	<path fill="#253A8E" d="M352.5,217.1l4.4,0.6c-0.7,2.6-2,4.6-3.9,6.1c-1.9,1.4-4.3,2.2-7.3,2.2c-3.7,0-6.7-1.1-8.8-3.4
		c-2.2-2.3-3.3-5.5-3.3-9.6c0-4.3,1.1-7.6,3.3-10c2.2-2.4,5.1-3.5,8.6-3.5c3.4,0,6.2,1.2,8.3,3.5c2.2,2.3,3.2,5.6,3.2,9.8
		c0,0.3,0,0.6,0,1.1h-18.9c0.2,2.8,0.9,4.9,2.4,6.4c1.4,1.5,3.2,2.2,5.3,2.2c1.6,0,2.9-0.4,4-1.2
		C350.9,220.2,351.8,218.9,352.5,217.1z M338.3,210.1h14.2c-0.2-2.1-0.7-3.7-1.6-4.8c-1.4-1.7-3.2-2.5-5.3-2.5c-2,0-3.6,0.7-5,2
		C339.2,206.1,338.5,207.9,338.3,210.1z"/>
	<path fill="#253A8E" d="M362.8,225.3v-25.4h3.9v3.9c1-1.8,1.9-3,2.7-3.6c0.8-0.6,1.8-0.9,2.8-0.9c1.5,0,2.9,0.5,4.4,1.4l-1.5,4
		c-1.1-0.6-2.1-0.9-3.2-0.9c-0.9,0-1.8,0.3-2.5,0.8c-0.7,0.6-1.3,1.4-1.6,2.4c-0.5,1.5-0.7,3.2-0.7,5v13.3H362.8z"/>
	<path fill="#253A8E" d="M379.6,195.2v-5h4.3v5H379.6z M379.6,225.3v-25.4h4.3v25.4H379.6z"/>
	<path fill="#253A8E" d="M391,225.3v-25.4h3.9v3.6c1.9-2.8,4.6-4.2,8.1-4.2c1.5,0,2.9,0.3,4.2,0.8s2.2,1.3,2.9,2.2s1.1,2,1.3,3.2
		c0.2,0.8,0.2,2.2,0.2,4.2v15.6h-4.3v-15.5c0-1.8-0.2-3.1-0.5-3.9c-0.3-0.9-0.9-1.6-1.8-2.1c-0.9-0.5-1.9-0.8-3-0.8
		c-1.8,0-3.4,0.6-4.7,1.7c-1.3,1.2-2,3.4-2,6.6v13.9H391z"/>
	<path fill="#253A8E" d="M435.3,222.1c-1.6,1.4-3.1,2.3-4.6,2.9c-1.5,0.6-3.1,0.8-4.7,0.8c-2.8,0-4.9-0.7-6.4-2
		c-1.5-1.4-2.2-3.1-2.2-5.2c0-1.2,0.3-2.4,0.8-3.4c0.6-1,1.3-1.9,2.2-2.5c0.9-0.6,1.9-1.1,3.1-1.4c0.8-0.2,2.1-0.4,3.8-0.6
		c3.5-0.4,6-0.9,7.7-1.5c0-0.6,0-1,0-1.1c0-1.8-0.4-3-1.2-3.7c-1.1-1-2.7-1.5-4.9-1.5c-2,0-3.5,0.4-4.5,1.1c-1,0.7-1.7,2-2.1,3.8
		l-4.2-0.6c0.4-1.8,1-3.3,1.9-4.4c0.9-1.1,2.1-2,3.8-2.6c1.7-0.6,3.6-0.9,5.8-0.9c2.2,0,3.9,0.3,5.3,0.8c1.4,0.5,2.4,1.2,3,1.9
		c0.6,0.8,1.1,1.7,1.3,2.9c0.1,0.7,0.2,2.1,0.2,4v5.7c0,4,0.1,6.5,0.3,7.6c0.2,1.1,0.5,2.1,1.1,3h-4.5
		C435.7,224.4,435.4,223.3,435.3,222.1z M435,212.5c-1.6,0.6-3.9,1.2-7,1.6c-1.8,0.3-3,0.5-3.8,0.9c-0.7,0.3-1.3,0.8-1.7,1.4
		c-0.4,0.6-0.6,1.3-0.6,2c0,1.1,0.4,2.1,1.3,2.9c0.9,0.8,2.1,1.1,3.8,1.1c1.7,0,3.1-0.4,4.4-1.1c1.3-0.7,2.2-1.7,2.8-3
		c0.5-1,0.7-2.4,0.7-4.3V212.5z"/>
	<path fill="#253A8E" d="M455.9,221.4l0.6,3.8c-1.2,0.3-2.3,0.4-3.3,0.4c-1.6,0-2.8-0.2-3.6-0.7c-0.9-0.5-1.5-1.1-1.8-1.9
		c-0.4-0.8-0.5-2.5-0.5-5.1v-14.6h-3.2v-3.3h3.2v-6.3l4.3-2.6v8.9h4.3v3.3h-4.3v14.9c0,1.2,0.1,2,0.2,2.4c0.1,0.3,0.4,0.6,0.7,0.8
		c0.3,0.2,0.8,0.3,1.5,0.3C454.5,221.6,455.1,221.5,455.9,221.4z"/>
	<path fill="#253A8E" d="M477.2,222.1c-1.6,1.4-3.1,2.3-4.6,2.9c-1.5,0.6-3.1,0.8-4.7,0.8c-2.8,0-4.9-0.7-6.4-2
		c-1.5-1.4-2.2-3.1-2.2-5.2c0-1.2,0.3-2.4,0.8-3.4c0.6-1,1.3-1.9,2.2-2.5c0.9-0.6,2-1.1,3.1-1.4c0.8-0.2,2.1-0.4,3.8-0.6
		c3.5-0.4,6-0.9,7.7-1.5c0-0.6,0-1,0-1.1c0-1.8-0.4-3-1.2-3.7c-1.1-1-2.7-1.5-4.9-1.5c-2,0-3.5,0.4-4.5,1.1c-1,0.7-1.7,2-2.1,3.8
		l-4.2-0.6c0.4-1.8,1-3.3,1.9-4.4c0.9-1.1,2.1-2,3.8-2.6c1.7-0.6,3.6-0.9,5.8-0.9c2.2,0,3.9,0.3,5.3,0.8c1.4,0.5,2.4,1.2,3,1.9
		c0.6,0.8,1.1,1.7,1.3,2.9c0.1,0.7,0.2,2.1,0.2,4v5.7c0,4,0.1,6.5,0.3,7.6c0.2,1.1,0.5,2.1,1.1,3H478
		C477.6,224.4,477.3,223.3,477.2,222.1z M476.8,212.5c-1.6,0.6-3.9,1.2-7,1.6c-1.8,0.3-3,0.5-3.8,0.9c-0.7,0.3-1.3,0.8-1.7,1.4
		c-0.4,0.6-0.6,1.3-0.6,2c0,1.1,0.4,2.1,1.3,2.9c0.9,0.8,2.1,1.1,3.8,1.1c1.7,0,3.1-0.4,4.4-1.1c1.3-0.7,2.2-1.7,2.8-3
		c0.5-1,0.7-2.4,0.7-4.3V212.5z"/>
	<path fill="#253A8E" d="M488.2,225.3v-35.1h4.3v35.1H488.2z"/>
	<path fill="#253A8E" d="M514.5,225.3v-35.1h4.6v14.4h18.2v-14.4h4.6v35.1h-4.6v-16.5h-18.2v16.5H514.5z"/>
	<path fill="#253A8E" d="M567.1,217.1l4.5,0.6c-0.7,2.6-2,4.6-3.9,6.1c-1.9,1.4-4.3,2.2-7.3,2.2c-3.7,0-6.7-1.1-8.8-3.4
		c-2.2-2.3-3.3-5.5-3.3-9.6c0-4.3,1.1-7.6,3.3-10c2.2-2.4,5.1-3.5,8.6-3.5c3.4,0,6.2,1.2,8.3,3.5c2.2,2.3,3.2,5.6,3.2,9.8
		c0,0.3,0,0.6,0,1.1h-18.9c0.2,2.8,0.9,4.9,2.4,6.4c1.4,1.5,3.2,2.2,5.3,2.2c1.6,0,2.9-0.4,4-1.2
		C565.5,220.2,566.4,218.9,567.1,217.1z M552.9,210.1h14.2c-0.2-2.1-0.7-3.7-1.6-4.8c-1.4-1.7-3.2-2.5-5.3-2.5c-2,0-3.6,0.7-5,2
		C553.8,206.1,553.1,207.9,552.9,210.1z"/>
	<path fill="#253A8E" d="M594,222.1c-1.6,1.4-3.1,2.3-4.6,2.9s-3.1,0.8-4.7,0.8c-2.8,0-4.9-0.7-6.4-2c-1.5-1.4-2.2-3.1-2.2-5.2
		c0-1.2,0.3-2.4,0.8-3.4c0.6-1,1.3-1.9,2.2-2.5c0.9-0.6,2-1.1,3.1-1.4c0.8-0.2,2.1-0.4,3.8-0.6c3.5-0.4,6-0.9,7.7-1.5
		c0-0.6,0-1,0-1.1c0-1.8-0.4-3-1.2-3.7c-1.1-1-2.7-1.5-4.9-1.5c-2,0-3.5,0.4-4.5,1.1c-1,0.7-1.7,2-2.1,3.8l-4.2-0.6
		c0.4-1.8,1-3.3,1.9-4.4c0.9-1.1,2.1-2,3.8-2.6c1.7-0.6,3.6-0.9,5.8-0.9c2.2,0,3.9,0.3,5.3,0.8c1.4,0.5,2.4,1.2,3,1.9
		c0.6,0.8,1.1,1.7,1.3,2.9c0.1,0.7,0.2,2.1,0.2,4v5.7c0,4,0.1,6.5,0.3,7.6c0.2,1.1,0.5,2.1,1.1,3h-4.5
		C594.4,224.4,594.1,223.3,594,222.1z M593.7,212.5c-1.6,0.6-3.9,1.2-7,1.6c-1.8,0.3-3,0.5-3.8,0.9c-0.7,0.3-1.3,0.8-1.7,1.4
		c-0.4,0.6-0.6,1.3-0.6,2c0,1.1,0.4,2.1,1.3,2.9c0.9,0.8,2.1,1.1,3.8,1.1c1.7,0,3.1-0.4,4.4-1.1c1.3-0.7,2.2-1.7,2.8-3
		c0.5-1,0.7-2.4,0.7-4.3V212.5z"/>
	<path fill="#253A8E" d="M605.1,225.3v-35.1h4.3v35.1H605.1z"/>
	<path fill="#253A8E" d="M625.9,221.4l0.6,3.8c-1.2,0.3-2.3,0.4-3.3,0.4c-1.6,0-2.8-0.2-3.6-0.7c-0.9-0.5-1.5-1.1-1.8-1.9
		c-0.4-0.8-0.5-2.5-0.5-5.1v-14.6h-3.2v-3.3h3.2v-6.3l4.3-2.6v8.9h4.3v3.3h-4.3v14.9c0,1.2,0.1,2,0.2,2.4c0.1,0.3,0.4,0.6,0.7,0.8
		c0.3,0.2,0.8,0.3,1.5,0.3C624.5,221.6,625.2,221.5,625.9,221.4z"/>
	<path fill="#253A8E" d="M630.6,225.3v-35.1h4.3v12.6c2-2.3,4.5-3.5,7.6-3.5c1.9,0,3.5,0.4,4.9,1.1c1.4,0.7,2.4,1.8,3,3.1
		c0.6,1.3,0.9,3.2,0.9,5.7v16.1H647v-16.1c0-2.2-0.5-3.7-1.4-4.7c-0.9-1-2.3-1.5-4-1.5c-1.3,0-2.5,0.3-3.6,1
		c-1.1,0.7-1.9,1.6-2.4,2.7c-0.5,1.1-0.7,2.7-0.7,4.7v13.9H630.6z"/>
	<path fill="#253A8E" d="M673.1,225.3v-35.1h15.6c3.1,0,5.5,0.3,7.1,0.9s2.9,1.7,3.9,3.3c1,1.6,1.5,3.4,1.5,5.3
		c0,2.5-0.8,4.6-2.4,6.3c-1.6,1.7-4.1,2.8-7.5,3.3c1.2,0.6,2.2,1.2,2.8,1.7c1.4,1.2,2.6,2.8,3.9,4.7l6.1,9.5h-5.8l-4.6-7.3
		c-1.4-2.1-2.5-3.7-3.3-4.8c-0.9-1.1-1.7-1.9-2.4-2.3s-1.4-0.8-2.1-0.9c-0.5-0.1-1.4-0.2-2.6-0.2h-5.4v15.6H673.1z M677.8,205.7h10
		c2.1,0,3.8-0.2,5-0.7c1.2-0.4,2.1-1.1,2.7-2.1c0.6-1,0.9-2,0.9-3.1c0-1.7-0.6-3-1.8-4.1c-1.2-1.1-3.1-1.6-5.7-1.6h-11.1V205.7z"/>
	<path fill="#253A8E" d="M725.8,217.1l4.5,0.6c-0.7,2.6-2,4.6-3.9,6.1c-1.9,1.4-4.3,2.2-7.3,2.2c-3.7,0-6.7-1.1-8.8-3.4
		s-3.3-5.5-3.3-9.6c0-4.3,1.1-7.6,3.3-10c2.2-2.4,5.1-3.5,8.6-3.5c3.4,0,6.2,1.2,8.3,3.5c2.2,2.3,3.2,5.6,3.2,9.8c0,0.3,0,0.6,0,1.1
		h-18.9c0.2,2.8,0.9,4.9,2.4,6.4c1.4,1.5,3.2,2.2,5.3,2.2c1.6,0,2.9-0.4,4-1.2C724.2,220.2,725.1,218.9,725.8,217.1z M711.6,210.1
		h14.2c-0.2-2.1-0.7-3.7-1.6-4.8c-1.4-1.7-3.2-2.5-5.3-2.5c-2,0-3.6,0.7-5,2C712.5,206.1,711.8,207.9,711.6,210.1z"/>
	<path fill="#253A8E" d="M734.4,217.7l4.3-0.7c0.2,1.7,0.9,3,2,3.9c1.1,0.9,2.6,1.4,4.6,1.4c2,0,3.4-0.4,4.4-1.2
		c1-0.8,1.4-1.7,1.4-2.8c0-1-0.4-1.7-1.3-2.3c-0.6-0.4-2.1-0.9-4.4-1.5c-3.2-0.8-5.3-1.5-6.6-2.1c-1.2-0.6-2.1-1.4-2.8-2.4
		c-0.6-1-0.9-2.2-0.9-3.4c0-1.1,0.3-2.2,0.8-3.1c0.5-1,1.2-1.8,2.1-2.4c0.7-0.5,1.6-0.9,2.7-1.3c1.2-0.3,2.4-0.5,3.7-0.5
		c2,0,3.7,0.3,5.3,0.9c1.5,0.6,2.6,1.4,3.3,2.3c0.7,1,1.2,2.3,1.5,3.9l-4.2,0.6c-0.2-1.3-0.7-2.3-1.7-3.1c-0.9-0.7-2.2-1.1-3.9-1.1
		c-2,0-3.4,0.3-4.2,1c-0.8,0.7-1.3,1.4-1.3,2.3c0,0.6,0.2,1.1,0.5,1.5c0.4,0.5,0.9,0.8,1.6,1.1c0.4,0.2,1.7,0.5,3.8,1.1
		c3,0.8,5.2,1.5,6.4,2c1.2,0.5,2.1,1.3,2.8,2.3c0.7,1,1,2.2,1,3.7c0,1.4-0.4,2.8-1.3,4.1c-0.8,1.3-2,2.2-3.6,2.9
		c-1.6,0.7-3.4,1-5.4,1c-3.3,0-5.8-0.7-7.5-2.1C736,222.4,734.9,220.4,734.4,217.7z"/>
	<path fill="#253A8E" d="M778.5,217.1l4.5,0.6c-0.7,2.6-2,4.6-3.9,6.1c-1.9,1.4-4.3,2.2-7.3,2.2c-3.7,0-6.7-1.1-8.8-3.4
		s-3.3-5.5-3.3-9.6c0-4.3,1.1-7.6,3.3-10c2.2-2.4,5.1-3.5,8.6-3.5c3.4,0,6.2,1.2,8.3,3.5c2.2,2.3,3.2,5.6,3.2,9.8c0,0.3,0,0.6,0,1.1
		h-18.9c0.2,2.8,0.9,4.9,2.4,6.4c1.4,1.5,3.2,2.2,5.3,2.2c1.6,0,2.9-0.4,4-1.2C777,220.2,777.8,218.9,778.5,217.1z M764.4,210.1
		h14.2c-0.2-2.1-0.7-3.7-1.6-4.8c-1.4-1.7-3.2-2.5-5.3-2.5c-2,0-3.6,0.7-5,2C765.3,206.1,764.5,207.9,764.4,210.1z"/>
	<path fill="#253A8E" d="M805.4,222.1c-1.6,1.4-3.1,2.3-4.6,2.9c-1.5,0.6-3.1,0.8-4.7,0.8c-2.8,0-4.9-0.7-6.4-2
		c-1.5-1.4-2.2-3.1-2.2-5.2c0-1.2,0.3-2.4,0.8-3.4c0.6-1,1.3-1.9,2.2-2.5c0.9-0.6,2-1.1,3.1-1.4c0.8-0.2,2.1-0.4,3.8-0.6
		c3.5-0.4,6-0.9,7.7-1.5c0-0.6,0-1,0-1.1c0-1.8-0.4-3-1.2-3.7c-1.1-1-2.7-1.5-4.9-1.5c-2,0-3.5,0.4-4.5,1.1c-1,0.7-1.7,2-2.1,3.8
		l-4.2-0.6c0.4-1.8,1-3.3,1.9-4.4c0.9-1.1,2.1-2,3.8-2.6c1.7-0.6,3.6-0.9,5.8-0.9c2.2,0,3.9,0.3,5.3,0.8c1.4,0.5,2.4,1.2,3,1.9
		c0.6,0.8,1.1,1.7,1.3,2.9c0.1,0.7,0.2,2.1,0.2,4v5.7c0,4,0.1,6.5,0.3,7.6c0.2,1.1,0.5,2.1,1.1,3h-4.5
		C805.8,224.4,805.6,223.3,805.4,222.1z M805.1,212.5c-1.6,0.6-3.9,1.2-7,1.6c-1.8,0.3-3,0.5-3.8,0.9c-0.7,0.3-1.3,0.8-1.7,1.4
		c-0.4,0.6-0.6,1.3-0.6,2c0,1.1,0.4,2.1,1.3,2.9c0.9,0.8,2.1,1.1,3.8,1.1c1.7,0,3.1-0.4,4.4-1.1c1.3-0.7,2.2-1.7,2.8-3
		c0.5-1,0.7-2.4,0.7-4.3V212.5z"/>
	<path fill="#253A8E" d="M816.5,225.3v-25.4h3.9v3.9c1-1.8,1.9-3,2.7-3.6c0.8-0.6,1.8-0.9,2.8-0.9c1.5,0,2.9,0.5,4.4,1.4l-1.5,4
		c-1.1-0.6-2.1-0.9-3.2-0.9c-0.9,0-1.8,0.3-2.5,0.8c-0.7,0.6-1.3,1.4-1.6,2.4c-0.5,1.5-0.7,3.2-0.7,5v13.3H816.5z"/>
	<path fill="#253A8E" d="M850,216l4.2,0.6c-0.5,2.9-1.6,5.2-3.6,6.9c-1.9,1.6-4.2,2.5-7,2.5c-3.5,0-6.3-1.1-8.4-3.4
		c-2.1-2.3-3.2-5.5-3.2-9.8c0-2.7,0.5-5.1,1.4-7.2c0.9-2.1,2.3-3.6,4.2-4.6c1.9-1,3.9-1.5,6.1-1.5c2.8,0,5,0.7,6.8,2.1
		c1.8,1.4,2.9,3.4,3.4,5.9l-4.2,0.6c-0.4-1.7-1.1-3-2.1-3.9c-1-0.9-2.2-1.3-3.7-1.3c-2.2,0-3.9,0.8-5.3,2.3c-1.4,1.6-2,4-2,7.4
		c0,3.4,0.7,5.9,2,7.4c1.3,1.5,3,2.3,5.1,2.3c1.7,0,3.1-0.5,4.2-1.6C849,219.7,849.7,218.1,850,216z"/>
	<path fill="#253A8E" d="M858.4,225.3v-35.1h4.3v12.6c2-2.3,4.5-3.5,7.6-3.5c1.9,0,3.5,0.4,4.9,1.1c1.4,0.7,2.4,1.8,3,3.1
		c0.6,1.3,0.9,3.2,0.9,5.7v16.1h-4.3v-16.1c0-2.2-0.5-3.7-1.4-4.7c-0.9-1-2.3-1.5-4-1.5c-1.3,0-2.5,0.3-3.6,1
		c-1.1,0.7-1.9,1.6-2.4,2.7s-0.7,2.7-0.7,4.7v13.9H858.4z"/>
	<path fill="#253A8E" d="M17.9,274.8l4.2,0.6c-0.5,2.9-1.6,5.2-3.6,6.9c-1.9,1.6-4.2,2.5-7,2.5c-3.5,0-6.3-1.1-8.4-3.4
		C1.1,279,0,275.7,0,271.5c0-2.7,0.5-5.1,1.4-7.2c0.9-2.1,2.3-3.6,4.2-4.6c1.9-1,3.9-1.5,6.1-1.5c2.8,0,5,0.7,6.8,2.1
		c1.8,1.4,2.9,3.4,3.4,5.9l-4.2,0.6c-0.4-1.7-1.1-3-2.1-3.9c-1-0.9-2.2-1.3-3.7-1.3c-2.2,0-3.9,0.8-5.3,2.3c-1.4,1.6-2,4-2,7.4
		c0,3.4,0.7,5.9,2,7.4c1.3,1.5,3,2.3,5.1,2.3c1.7,0,3.1-0.5,4.2-1.6C16.9,278.5,17.6,276.9,17.9,274.8z"/>
	<path fill="#253A8E" d="M24.7,271.4c0-4.7,1.3-8.2,3.9-10.5c2.2-1.9,4.8-2.8,8-2.8c3.5,0,6.3,1.1,8.6,3.4c2.2,2.3,3.3,5.5,3.3,9.5
		c0,3.3-0.5,5.8-1.5,7.7c-1,1.9-2.4,3.3-4.3,4.4c-1.9,1-3.9,1.6-6.1,1.6c-3.6,0-6.4-1.1-8.6-3.4C25.8,279,24.7,275.7,24.7,271.4z
		 M29.1,271.4c0,3.3,0.7,5.7,2.1,7.3c1.4,1.6,3.2,2.4,5.4,2.4c2.1,0,3.9-0.8,5.3-2.4c1.4-1.6,2.1-4.1,2.1-7.4c0-3.1-0.7-5.5-2.1-7.1
		c-1.4-1.6-3.2-2.4-5.3-2.4c-2.2,0-3.9,0.8-5.4,2.4C29.8,265.7,29.1,268.1,29.1,271.4z"/>
	<path fill="#253A8E" d="M54,284.1V249h4.3v35.1H54z"/>
	<path fill="#253A8E" d="M65.3,284.1V249h4.3v35.1H65.3z"/>
	<path fill="#253A8E" d="M93.4,280.9c-1.6,1.4-3.1,2.3-4.6,2.9c-1.5,0.6-3.1,0.8-4.7,0.8c-2.8,0-4.9-0.7-6.4-2
		c-1.5-1.4-2.2-3.1-2.2-5.2c0-1.2,0.3-2.4,0.8-3.4c0.6-1,1.3-1.9,2.2-2.5c0.9-0.6,1.9-1.1,3.1-1.4c0.8-0.2,2.1-0.4,3.8-0.6
		c3.5-0.4,6-0.9,7.7-1.5c0-0.6,0-1,0-1.1c0-1.8-0.4-3-1.2-3.7c-1.1-1-2.7-1.5-4.9-1.5c-2,0-3.5,0.4-4.5,1.1c-1,0.7-1.7,2-2.1,3.8
		l-4.2-0.6c0.4-1.8,1-3.3,1.9-4.4c0.9-1.1,2.1-2,3.8-2.6c1.7-0.6,3.6-0.9,5.8-0.9c2.2,0,3.9,0.3,5.3,0.8c1.4,0.5,2.4,1.2,3,1.9
		c0.6,0.8,1.1,1.7,1.3,2.9c0.1,0.7,0.2,2.1,0.2,4v5.7c0,4,0.1,6.5,0.3,7.6c0.2,1.1,0.5,2.1,1.1,3h-4.5
		C93.8,283.2,93.5,282.1,93.4,280.9z M93,271.3c-1.6,0.6-3.9,1.2-7,1.6c-1.8,0.3-3,0.5-3.8,0.9c-0.7,0.3-1.3,0.8-1.7,1.4
		c-0.4,0.6-0.6,1.3-0.6,2c0,1.1,0.4,2.1,1.3,2.9c0.9,0.8,2.1,1.1,3.8,1.1c1.7,0,3.1-0.4,4.4-1.1c1.3-0.7,2.2-1.7,2.8-3
		c0.5-1,0.7-2.4,0.7-4.3V271.3z"/>
	<path fill="#253A8E" d="M108.5,284.1h-4V249h4.3v12.5c1.8-2.3,4.1-3.4,7-3.4c1.6,0,3,0.3,4.4,0.9c1.4,0.6,2.5,1.5,3.4,2.7
		c0.9,1.1,1.6,2.5,2.1,4.1c0.5,1.6,0.8,3.3,0.8,5.2c0,4.4-1.1,7.7-3.2,10.1c-2.2,2.4-4.7,3.6-7.8,3.6c-3,0-5.4-1.3-7.1-3.8V284.1z
		 M108.5,271.2c0,3,0.4,5.2,1.2,6.6c1.4,2.2,3.2,3.3,5.5,3.3c1.9,0,3.5-0.8,4.9-2.5c1.4-1.6,2.1-4.1,2.1-7.3c0-3.3-0.7-5.8-2-7.3
		c-1.3-1.6-2.9-2.4-4.8-2.4c-1.9,0-3.5,0.8-4.9,2.5C109.2,265.7,108.5,268.1,108.5,271.2z"/>
	<path fill="#253A8E" d="M130.7,271.4c0-4.7,1.3-8.2,3.9-10.5c2.2-1.9,4.8-2.8,8-2.8c3.5,0,6.3,1.1,8.6,3.4c2.2,2.3,3.3,5.5,3.3,9.5
		c0,3.3-0.5,5.8-1.5,7.7c-1,1.9-2.4,3.3-4.3,4.4c-1.9,1-3.9,1.6-6.1,1.6c-3.6,0-6.4-1.1-8.6-3.4C131.8,279,130.7,275.7,130.7,271.4z
		 M135.1,271.4c0,3.3,0.7,5.7,2.1,7.3c1.4,1.6,3.2,2.4,5.4,2.4c2.1,0,3.9-0.8,5.3-2.4c1.4-1.6,2.1-4.1,2.1-7.4
		c0-3.1-0.7-5.5-2.1-7.1c-1.4-1.6-3.2-2.4-5.3-2.4c-2.2,0-3.9,0.8-5.4,2.4C135.8,265.7,135.1,268.1,135.1,271.4z"/>
	<path fill="#253A8E" d="M160,284.1v-25.4h3.9v3.9c1-1.8,1.9-3,2.7-3.6c0.8-0.6,1.8-0.9,2.8-0.9c1.5,0,2.9,0.5,4.4,1.4l-1.5,4
		c-1.1-0.6-2.1-0.9-3.2-0.9c-0.9,0-1.8,0.3-2.5,0.8c-0.7,0.6-1.3,1.4-1.6,2.4c-0.5,1.5-0.7,3.2-0.7,5v13.3H160z"/>
	<path fill="#253A8E" d="M193.4,280.9c-1.6,1.4-3.1,2.3-4.6,2.9c-1.5,0.6-3.1,0.8-4.7,0.8c-2.8,0-4.9-0.7-6.4-2
		c-1.5-1.4-2.2-3.1-2.2-5.2c0-1.2,0.3-2.4,0.8-3.4c0.6-1,1.3-1.9,2.2-2.5c0.9-0.6,1.9-1.1,3.1-1.4c0.8-0.2,2.1-0.4,3.8-0.6
		c3.5-0.4,6-0.9,7.7-1.5c0-0.6,0-1,0-1.1c0-1.8-0.4-3-1.2-3.7c-1.1-1-2.7-1.5-4.9-1.5c-2,0-3.5,0.4-4.5,1.1c-1,0.7-1.7,2-2.1,3.8
		l-4.2-0.6c0.4-1.8,1-3.3,1.9-4.4c0.9-1.1,2.1-2,3.8-2.6c1.7-0.6,3.6-0.9,5.8-0.9c2.2,0,3.9,0.3,5.3,0.8c1.4,0.5,2.4,1.2,3,1.9
		c0.6,0.8,1.1,1.7,1.3,2.9c0.1,0.7,0.2,2.1,0.2,4v5.7c0,4,0.1,6.5,0.3,7.6c0.2,1.1,0.5,2.1,1.1,3h-4.5
		C193.8,283.2,193.5,282.1,193.4,280.9z M193.1,271.3c-1.6,0.6-3.9,1.2-7,1.6c-1.8,0.3-3,0.5-3.8,0.9c-0.7,0.3-1.3,0.8-1.7,1.4
		s-0.6,1.3-0.6,2c0,1.1,0.4,2.1,1.3,2.9c0.9,0.8,2.1,1.1,3.8,1.1c1.7,0,3.1-0.4,4.4-1.1c1.3-0.7,2.2-1.7,2.8-3
		c0.5-1,0.7-2.4,0.7-4.3V271.3z"/>
	<path fill="#253A8E" d="M214,280.2l0.6,3.8c-1.2,0.3-2.3,0.4-3.3,0.4c-1.6,0-2.8-0.2-3.6-0.7c-0.9-0.5-1.5-1.1-1.8-1.9
		c-0.4-0.8-0.5-2.5-0.5-5.1V262h-3.2v-3.3h3.2v-6.3l4.3-2.6v8.9h4.3v3.3h-4.3v14.9c0,1.2,0.1,2,0.2,2.4c0.2,0.3,0.4,0.6,0.7,0.8
		c0.3,0.2,0.8,0.3,1.5,0.3C212.6,280.4,213.2,280.3,214,280.2z"/>
	<path fill="#253A8E" d="M218.7,254v-5h4.3v5H218.7z M218.7,284.1v-25.4h4.3v25.4H218.7z"/>
	<path fill="#253A8E" d="M228.5,271.4c0-4.7,1.3-8.2,3.9-10.5c2.2-1.9,4.8-2.8,8-2.8c3.5,0,6.3,1.1,8.6,3.4c2.2,2.3,3.3,5.5,3.3,9.5
		c0,3.3-0.5,5.8-1.5,7.7c-1,1.9-2.4,3.3-4.3,4.4c-1.9,1-3.9,1.6-6.1,1.6c-3.6,0-6.4-1.1-8.6-3.4C229.6,279,228.5,275.7,228.5,271.4z
		 M232.9,271.4c0,3.3,0.7,5.7,2.1,7.3c1.4,1.6,3.2,2.4,5.4,2.4c2.1,0,3.9-0.8,5.3-2.4c1.4-1.6,2.1-4.1,2.1-7.4
		c0-3.1-0.7-5.5-2.1-7.1c-1.4-1.6-3.2-2.4-5.3-2.4c-2.2,0-3.9,0.8-5.4,2.4C233.6,265.7,232.9,268.1,232.9,271.4z"/>
	<path fill="#253A8E" d="M257.8,284.1v-25.4h3.9v3.6c1.9-2.8,4.6-4.2,8.1-4.2c1.5,0,2.9,0.3,4.2,0.8c1.3,0.6,2.2,1.3,2.9,2.2
		c0.6,0.9,1.1,2,1.3,3.2c0.2,0.8,0.2,2.2,0.2,4.2v15.6h-4.3v-15.5c0-1.8-0.2-3.1-0.5-3.9c-0.3-0.9-0.9-1.6-1.8-2.1
		c-0.9-0.5-1.9-0.8-3-0.8c-1.8,0-3.4,0.6-4.7,1.7c-1.3,1.2-2,3.4-2,6.6v13.9H257.8z"/>
	<path fill="#253A8E" d="M301,284.1V249h4.6v35.1H301z"/>
	<path fill="#253A8E" d="M313.8,284.1v-25.4h3.9v3.6c1.9-2.8,4.6-4.2,8.1-4.2c1.5,0,2.9,0.3,4.2,0.8c1.3,0.6,2.2,1.3,2.9,2.2
		c0.6,0.9,1.1,2,1.3,3.2c0.2,0.8,0.2,2.2,0.2,4.2v15.6h-4.3v-15.5c0-1.8-0.2-3.1-0.5-3.9c-0.3-0.9-0.9-1.6-1.8-2.1
		c-0.9-0.5-1.9-0.8-3-0.8c-1.8,0-3.4,0.6-4.7,1.7c-1.3,1.2-2,3.4-2,6.6v13.9H313.8z"/>
	<path fill="#253A8E" d="M358,284.1v-3.2c-1.6,2.5-4,3.8-7.1,3.8c-2,0-3.9-0.6-5.6-1.7c-1.7-1.1-3-2.7-3.9-4.7
		c-0.9-2-1.4-4.3-1.4-6.9c0-2.5,0.4-4.8,1.3-6.9c0.8-2.1,2.1-3.6,3.8-4.7c1.7-1.1,3.6-1.7,5.7-1.7c1.5,0,2.9,0.3,4.1,1
		c1.2,0.6,2.2,1.5,2.9,2.5V249h4.3v35.1H358z M344.4,271.4c0,3.3,0.7,5.7,2.1,7.3c1.4,1.6,3,2.4,4.9,2.4c1.9,0,3.5-0.8,4.8-2.3
		c1.3-1.5,2-3.9,2-7c0-3.5-0.7-6-2-7.7c-1.3-1.6-3-2.4-5-2.4c-1.9,0-3.5,0.8-4.8,2.3C345,265.6,344.4,268,344.4,271.4z"/>
	<path fill="#253A8E" d="M369.3,254v-5h4.3v5H369.3z M369.3,284.1v-25.4h4.3v25.4H369.3z"/>
	<path fill="#253A8E" d="M397.2,280.9c-1.6,1.4-3.1,2.3-4.6,2.9c-1.5,0.6-3.1,0.8-4.7,0.8c-2.8,0-4.9-0.7-6.4-2
		c-1.5-1.4-2.2-3.1-2.2-5.2c0-1.2,0.3-2.4,0.8-3.4c0.6-1,1.3-1.9,2.2-2.5c0.9-0.6,1.9-1.1,3.1-1.4c0.8-0.2,2.1-0.4,3.8-0.6
		c3.5-0.4,6-0.9,7.7-1.5c0-0.6,0-1,0-1.1c0-1.8-0.4-3-1.2-3.7c-1.1-1-2.7-1.5-4.9-1.5c-2,0-3.5,0.4-4.5,1.1c-1,0.7-1.7,2-2.1,3.8
		l-4.2-0.6c0.4-1.8,1-3.3,1.9-4.4c0.9-1.1,2.1-2,3.8-2.6c1.7-0.6,3.6-0.9,5.8-0.9c2.2,0,3.9,0.3,5.3,0.8c1.4,0.5,2.4,1.2,3,1.9
		c0.6,0.8,1.1,1.7,1.3,2.9c0.1,0.7,0.2,2.1,0.2,4v5.7c0,4,0.1,6.5,0.3,7.6c0.2,1.1,0.5,2.1,1.1,3h-4.5
		C397.6,283.2,397.3,282.1,397.2,280.9z M396.8,271.3c-1.6,0.6-3.9,1.2-7,1.6c-1.8,0.3-3,0.5-3.8,0.9s-1.3,0.8-1.7,1.4
		s-0.6,1.3-0.6,2c0,1.1,0.4,2.1,1.3,2.9c0.9,0.8,2.1,1.1,3.8,1.1c1.7,0,3.1-0.4,4.4-1.1c1.3-0.7,2.2-1.7,2.8-3
		c0.5-1,0.7-2.4,0.7-4.3V271.3z"/>
</g>
<g>
	<path fill="#E84B5E" d="M1032.4,3l-2.3,2.1c-0.9,0.9-1.8,1.7-2.7,2.7c-7.1,8.5-16.1,24.6-14.5,51.1c1.4,24.4,4.4,31.1,2,39.4
		c-2.3,8.3-14.4,21.8-14.4,21.8s-5.6,7.4,2.1,13.9c7.7,6.5,13.3,5,14.5,11.3c1.3,6.3-1.7,7,0.4,16c2.1,9,8.4,18.1,8.4,18.1l2.5,15.4
		c0,0,8.3,14.6,25.7,6.4c17.4-8.2,33.5-18.3,33.5-18.3s3.4-1.5,7.8-1.2l13.9,38c26.7-22.6,43.6-56.2,43.6-93.9
		C1152.9,58.9,1099.2,4.3,1032.4,3z"/>
	<path fill="#E84B5E" d="M980.5,228.5c-8.7-11-8.4-18.8-8.4-18.8c2.7-2.3,7-4.6,7-4.6l10.4-6.7c0,0,3.8-1.7,3.8-6
		c0-4.4-3.9-7.6-4-11.3c-0.1-3.7,0.6-7.1-1.2-9.6c2.7-1.6,4.8-6.3,4.1-8c-0.7-2.1-2-3.8-6.4-5.3c-5.5-1.1-6.7-8.4-6.7-8.4
		s-1.5-10.6-5.2-16.4c-4.2-5.2-8.5-9.8-18.3-13.2c-9.6-3.3-31.1-2.9-48.2,16.5c4.8,56.1,47.2,101.4,101.9,110.6
		C1009.4,247.2,989.2,239.5,980.5,228.5z"/>
</g>
<path fill-rule="evenodd" clip-rule="evenodd" fill="#FFFFFF" fill-opacity="0.25" d="M1124.1,43.7c0.1,0.2,15.5,20.8,14.5,22.8
	c-0.1,0.3-0.3,0.6-0.4,0.9c-0.3,0.8,1.4,5.3,1.2,6.1c-0.4,1.9,4.8,6.6,4.9,8.4c0,0.4,0.5,2.1,0.1,3.4c-0.3,1-1.4,1.6-1.9,1.3
	c-0.7-0.3-0.8-2.1-1.7-4.2c-0.8-1.9-2.3-1.4-4.1-5.5c-0.3-0.7-1,1-1.6,1c-0.6,0-0.9-1.9-1.2-2.2c-0.3-0.2-0.8,1.1-0.8,1.2
	c0,0.4,0.3,1.3,0.1,2.2c-0.2,0.9-1.1,1.6-0.8,2.3c0.2,0.4,0.4,0.9,0.7,1.3c0.1,0.2,4.9-0.6,5-0.3c0.5,0.8,0.1,2.7-0.5,5
	c-0.3,1.2,0.8,1.9,1.5,2.7c2.5,3.1,4.7,6.8,5.2,8.7c0.2,0.6,0.2,2.7,0.2,3.4c0,0.6-0.6,2.3-0.5,2.9c0.6,4.5-0.6,6.4-1.6,10.5
	c-0.5,2-5.9,6.6-6.1,7.1c-0.3,1,0,3.5-0.2,4.5c-0.4,1.4-0.9,2.8-1.8,3.3c-0.3,0.1-1.6,0.1-1.6-0.2c0-0.5-0.2-1.7,0.1-2.7
	c0.3-1.3,1.1-1.5,0.9-3.6c-0.2-2.1-2.8,0.9-2.9,0.9c-1.4,1.5-2.9,6.8,0.9,11c0.7,0.8,1.6,0.5,2,1.3c1.4,2.7,0.7,6.1,1,7.8
	c0.3,1.7-3.3,4.1-5.9,8.8c-0.2,0.4-1.2,0.4-1.6,0c-0.3-0.3,0.1-1.8-0.3-2.3c-0.6-1-1.7-1.7-2.4-2.6c-0.9-1.1-2.4-3.2-2.9-3.3
	c-0.8-0.2-1.7,2-1.9,3.5c0,0.5-0.3,0.9-0.4,1.4c-0.2,2.2-0.1,4.7,0,5.5c0.2,1.4,0.2,2.5,5.1,6.6c0.8,0.7-0.1,6.3,0.3,8.3
	c0.1,0.6-1.3,2.5-1.2,3c0.1,0.4,0.1,1.3,0.8,1.7c0.8,0.4,2.4,0.4,2.5,0.8c0.6,1.6,0.3,2.6-1.2,4.6c-0.4,0.5,0.1,1.7,0,2.5
	c0,0.4,1.9,0.8,4.1,0.3c0.5-0.1,0.7-0.7,1.3-0.9c0.9-0.2,2.2-0.2,3-0.5c1.6-0.5,1.3,0.9,1.7,0.7c1.5-0.7,3.3-1.3,4.8-2.3
	c3.8-2.5,1.4,1.3,1.3,1.9c-0.4,2.5-2.7,2.2-2.4,1.2c0.1-0.3-0.6,0.2-1.3,0.2c-0.4,0-0.5,0.6-0.6,0.6c-0.9,0-1.2,0.6-2.1,0.6
	c-0.8,0-2.4-0.1-3.1,0.4c-0.7,0.5-2.3,0.9-3.5,0.9c-1.8-0.1-0.8,0.9-4.3,0.4c-1.6-0.2-0.4-0.9-1.7-1.6c-2.2-1.2-4.2-3.4-5.4-5.4
	c-0.5-0.9,0.6-2,0.1-3c-1.7-3.1-5.2-6.4-6.8-9.8c-0.2-0.5-0.9-1.4-1-2c0-0.3-0.4-1.6,0.3-1.1c0.9,0.6,2.5-0.5,4.3,1
	c1.7,1.4,1.6,1.9,2,2.1c0.8,0.4,2.1,0.6,2-0.3c0-0.7,1.1-0.9,1.1-1.6c-0.1-1,0.8-1.4,0.2-3.1c-0.4-1-2.5-3.1-3.2-4.1
	c-0.4-0.5,0.1-1.6,0.1-2.2c0-1.4-0.1-2.5-0.2-4.1c-0.3-3.5-0.2-6.7-0.5-9.2c-0.2-1.2-0.9-2.6-0.9-3.2c-0.1-0.7-1.5-0.3-1.7,0.5
	c-0.1,0.5-1.1,0.4-1.3,0.7c-0.3,0.4-0.5,0.5-1.1,0.4c-0.3-0.1-0.8,0.1-0.9,0c-0.4-0.3-0.5-1.4-0.3-2.8c0.1-0.9-0.2-1.9-0.3-2.6
	c-0.1-0.5-0.5-1-0.9-1.7c-0.3-0.6-0.4-1.4-0.8-1.9c-0.2-0.3-0.6-0.2-0.8-0.5c-0.5-0.6-0.5-1.4-0.8-1.9c-0.2-0.3-0.7-0.6-0.8-0.7
	c-0.4-0.6-0.7-1.7-1.3-2.1c-0.8-0.5-1.2,0-2,0.6c-0.4,0.3-0.8,0.9-1.8,0.9c-2.4,0.1-3.6,1.3-4.8,2.4c-0.4,0.4-0.6,1-1,1.5
	c-0.6,0.6-1.9,1.2-2.7,2.1c-0.6,0.6-0.6,1.5-1.3,2.1c-1,1-2.3,1.8-2.9,2.7c-1.3,1.9-5.1,3.1-5.4,5.1c-0.2,1.3-1.1,6.1-1.5,9.1
	c-0.2,1.2-0.8,1.8-0.5,2.2c4.3,6.1,3.3,8.6,2.6,9.3c-1,1-2.6,0.6-3.3,0.1c-0.8-0.6-0.5-3.3-1.7-4.1c-0.8-0.6-2.8,0.1-3.7-0.3
	c-1.7-0.7-2.3-2.3-2.8-4.4c-0.9-3.8-2-5.2-3.3-11.7c-0.3-1.4-1.2-1.7-1.6-3.3c-0.5-2.3-0.1-5.7-0.3-8.5c-0.1-1.3-1.4-1.9-5.2-2.7
	c-2.1-0.5-3.2-3.2-3.8-5.8c-0.5-2.2-1.3-4.4-3.9-5.5c-2.9-1.2-8.2,0.5-11.2-0.7c-2.5-1.1-5-2.2-7.3-3.4c-1.7-0.9,1.6-2.9-5.1-2.8
	c-0.7,0-6.2-2.2-6.9-4.8c-1.3-5-2.8-5.7-4.5-5.2c-1.9,0.5-1.5,2.6-0.6,5.3c0.4,1.1,1.5,2,1.6,3.6c0.2,3.9,2.5,5.4,4,6.4
	c0.7,0.5,2.1,0.8,3.4,0c2.6-1.7,5.9-4.3,6.1-2.6c0.2,2.2-1.2,3.1,0.2,4.3c2.5,2.1,3.8,3,4.5,4.1c1.2,1.9-3.7,6.8-4.1,7.1
	c-2.1,1.8-6.9,4.1-7.2,4.1c-12.6,1.9-2.7,0.7-8.3,2.6c-1,0.3-2.3,0.6-3.9,0.6c-1.4,0-2.7,1.4-4.1,1.6c-4.2,0.6-8.4,0.4-10,0.1
	c-0.3-0.1-1.6-0.9-1.4-2c0.4-3.4,0.1-8.8,0.1-10.3c0-0.5-1.4-0.7-1.4-1.6c-0.4-4.4-1.5-5.3-2.2-6.5c-1-1.6,0.5-6-0.8-7.6
	c-2.1-2.7-0.7-7.3-2.5-12.1c-0.3-0.9-2.5-0.6-2.7-0.3c-0.5,0.9-0.5,0.9-0.3,5.4c0.3,9.2,1.6,8.7,1.4,9.7c-0.7,3.6-0.4,7.5,0.3,8.4
	c2,2.9,1,6.6,1.9,8.3c2.5,4.8,4,6.2,4.8,7.8c0.6,1.3,0.3,2.6,1,3.7c1.7,2.6-0.7,2.3,3,2.6c10.1,0.9,14.4-1.7,14,1
	c-0.7,4.4-2.5,5.1-5.2,9.1c-1.4,2.1-5.4,7.2-8.9,8.3c-3.3,1-11.8,4.5-13.9,7.6c-0.8,1.2-4.1,3.2-3.7,4.5c0.7,2.2-1.1,7.5,1,10.4
	c0.3,0.5,0.9,0.3,1.1,0.9c0.6,2.4,0,6.6-0.2,8.3c-0.3,1.9-3.9,3.5-6,3.5c-0.9,0-1.7,0.6-2.7,1c-1.4,0.6-2.8,1-2.6,1.5
	c0.9,2.5,1.9,4.9,1.4,6.4c-0.3,0.8-3,0.4-3.4,1.1c-0.3,0.6,0.4,2.6,0,3c-3.7,3.8-5.5,4.5-7.1,4.1c-3.8-0.8-12-4.7-13.6-9
	c-0.7-1.8-2.4-4.2-3.8-5.9c-2.6-3.2-5.1-8.1-6.3-12.9c-0.8-3.2-3.2-5.4-4.4-8.4c-0.8-2.1-1.2-5.5-0.1-8.3c1.6-4,0.6-10.3-1.2-14.9
	c-0.8-2.2-0.6-5-1.4-6.8c-0.9-2.3-2.6-3.5-1.9-6.1c4.4-16.1-1.2-11.5-2-16.2c-0.4-2.8-0.7-6.5-3.3-6.5c-4.9-0.1-4.6-0.9-4.8-1.9
	c-0.7-3.6-3.5-2-3.6-3.7c-0.8-12-0.2-23.5,4.3-31.4c2.5-4.3,4.3-9.7,7.8-13.3c1.3-1.3,2.6-2.7,4.4-4.1c1.6-1.2,3.1-1,4.1-2.1
	c2.4-2.7,3.9-5.6,5.6-5.8c2.7-0.3,3.8-0.9,5.7-1.6c0.5-0.2,2.1,2.1,1.8,2.7c-0.3,0.5,3.4-0.6,4.8-0.1c0.8,0.3,9.9,5.4,9.7,6.3
	c-0.4,1.7-4.8,5-4.8,6.8c0,2.4,3.7,2.3,3.1,4.5c-1.9,6.7,3.7,8.3,6.3,3.8c0.6-1,2.2-1.3,3.5-0.4c0.7,0.5,1.1,2,1.8,2.7
	c7.8,8.3,7.1,4.5,9.9,6c1.8,1,6,2.6,7.1,1c1.6-2.3,4.7-3.9,6-7.6c0.2-0.4,0.7-1.5-0.6-1.7c-0.9-0.2-3.6,0.6-4.3-0.1
	c-0.3-0.3-0.8-1.1-1.6-1.6c-0.8-0.5-1.9,0-3.1-0.7c-0.9-0.5-1.6-1.2-2.6-1.8c-0.6-0.3-0.5-4.1,0.1-6.5c0-0.1,0.9-1.8,1.5-1.8
	c0.5,0.1,1.7-1.1,2.6-0.9c0.4,0.1,2.1-0.9,2.5-0.6c0.4,0.4,0.7,1,1.1,1.4c0.5,0.5,1.7,0.9,2.2,0.6c0.3-0.2,1.2,0.1,2.1,0
	c1.2-0.1,2.4-0.7,3-0.5c0.3,0.1,0.3,0.4,0.5,0.6c0.9,0.5,1.6,1.1,2.4,2.2c0.8,1,2.3,2,3.2,2.6c1.4,0.9,3.8,0.2,5,0.1
	c0.9-0.1,2.3-1.9,1.8-3.6c-0.4-1.3-2.6-2.5-2.9-3.4c-0.2-0.5-1.1-1.4-1-2.3c0-0.2-0.7-0.7-0.4-0.9c3.4-2,3.1-3.5,2-3.5
	c-0.4,0-2.5-0.3-3.1-0.2c-0.7,0.2-1.2,1.1-1.8,1.6c-0.3,0.2,0.5,1.5,0.2,1.7c-0.5,0.3-1.5,0.3-2,0.4c-0.3,0.1-0.7,0.4-0.9,0.4
	c-0.8-0.3-0.9-1.9-0.9-3c0-0.5,2.1-0.3,1.1-1.2c-0.5-0.4-2.7-0.9-3.3-1c-1.9-0.3-6.7,4.1-8.2,6.3c-0.2,0.3-0.6,1-1,1.1
	c-0.6,0.1-1.6,0.8-2.1,0.9c-1.4,0.3-3.3,0.3-3.3,0.2c-1.3-0.6-2.2-0.6-3.4,3.1c-0.1,0.4,0.2,1.6-0.1,2.3c-0.1,0.2-0.8-1.2-1-1.1
	c-0.2,0.1,0,1.7-0.2,1.8c-0.1,0.2-0.7-1.4-0.9-1.3c-0.4,0.1,0.1,1.8-0.2,2c-0.5,0.2-0.7-1-1.2-1c-0.6,0-1.4,1.1-1.6,0.6
	c-0.1-0.2,0.1-1.1,0.1-1.4c0-0.2-0.7,0-0.7-0.2c0.1-0.8,1.4-1.7,2.1-3.2c0.3-0.6,0.1-1.3,0.5-2c0.2-0.3-0.6-1.4-0.5-1.7
	c0.1-0.4,0.1-1.8,1-2.2c0.8-0.4,0.6-1.8,0.4-2.1c-0.6-1-0.3-8.1-1.9-8.8c-0.6-0.3-2,2.8-2.8,6.4c-0.3,1.3,1.5,4.5,1.2,5.6
	c-0.5,1.5-3.5,2.5-3.9,2.5c-0.2,0-1-0.8-1.6-0.4c-0.2,0.1,0.3,0.9,0,1.1c-0.7,0.8-2.1,1.4-2.4,1.3c-1.1-0.2-1.8-1.1-2.1-3.6
	c-0.1-0.6,4.2,0.8,4,0.3c-0.1-0.2-0.2-0.8,0.3-1.1c0.6-0.5,2-0.8,1.8-1.1c-0.5-0.7,0.4-4.3-0.4-4.9c-0.3-0.2-0.5,0.1-0.8-0.1
	c-0.5-0.3-0.6-0.9-0.3-2.5c0.1-0.4,1.7-1.7,1.7-2c0-0.4,0.5-1.8,0.1-1.8c-0.8-0.1-2.1-0.1-3.5-0.1c-0.5,0-1.6-1.3-2.1-1.3
	c-0.9,0-2.5,0.6-3.4,2c-0.4,0.6-3.2-0.6-3.7-0.2c-1.3,1-4.2,4.6-5.6,4.8c-1.2,0.2-2.3,0.5-3.1-0.1c-0.2-0.2,0.1-0.7-0.4-0.9
	c-0.3-0.1-1.1,0.2-1.2,0c-0.1-0.1-0.2-0.4-0.1-0.7c0.1-0.3-0.1-0.7-0.1-1c0-0.6,0.3-1,0.3-1.2c-0.1-0.5-0.2-0.3-0.4-0.2
	c-0.2,0.1-0.5,0.1-0.5,0.1c-0.2-1.8,1.3-3.1,2.7-4.5c1-1,1.5-2.2,2.9-3c1.1-0.6,2.8-3,4-3.5c1.3-0.6,3.3,1.6,4.2,3.9
	c0.4,1,1.6-1.7,2.6-2.7c0.7-0.6,2.3-1.6,3.2-3.2c0.5-0.9,0.2-2.8,0.7-3.1c1.4-1,1.5,0.8,2.8,0.3c1.5-0.6,6.3,0.3,7.8-0.3
	c0.9-0.3,2.3-1.7,3.1-2c1.3-0.5,3.7,0.5,4.8,0.1c1.9-0.8,3-2.6,4-3.3c1.8-1.2,3.6,0,3.9,0.7c0,0.1-4,2.8-4.8,3.7
	c-0.6,0.7,1.6,0.7,1.8,1.1c0.2,0.5-1.3,1.3-0.3,1.5c0.8,0.1,2.8-0.2,4-0.2c0.3,0,0.2,1.1,0.5,1c1.3-0.8,2.6-0.5,3.6-0.6
	c0.4-0.1,2.6-2.5,3.1-2.6c0.6-0.1,1.3,0.2,2,0.1c0.4-0.1-0.3,1.8,0.1,1.8c0.5-0.1,0.8,0.4,1.1,0c0.5-0.5,0.8-1.6,1.7-2.1
	c0.2-0.1-2-0.5-1.8-0.6c0.3-0.1,0.2-0.9,0.6-1c0.8-0.2,2.5,0,3.4-0.1c0.5,0,1.3,1.8,1.7,1.8c0.8-0.1,2-0.1,2.6-0.5c1-0.7,1-1.9,1-2
	c0-0.1-0.9-0.1-2.4,0.2c-0.8,0.1-2.2,0.1-2.6,0c-0.3-0.1,0.1-0.4-0.2-0.6c-0.5-0.3-1.1-0.1-1.5-0.4c-0.6-0.4-1.1-1.1-1-1.2
	c0.3-0.7,3-1.6,4.2-2.5c0.4-0.3,0.8-0.9,1.8-1.2c0.8-0.2,2.2-0.1,3-0.5c1.2-0.5,2.6-1.5,2.8-1.9c1-2,0.1-1-1.4-0.3
	c-0.5,0.2-1.3,0-1.7,0.2c-0.4,0.2-1.6,1.5-2,1.6c-0.6,0.2-2.4-0.5-3-0.3c-0.9,0.3-1.8,1.2-2.6,1.3c-0.6,0.1-1.7,1.4-2.3,1.5
	c-0.5,0-0.8,0.9-1.2,2c-0.3,1-1.1,0.6-1.6,0.6c-0.5-0.1-2.9,0.6-6.2,3.5c-0.2,0.1-1.3-0.5-1.9-0.3c-0.5,0.1-0.4,1.1-0.9,1.1
	c-1.1,0-2.1-0.5-2.1-0.9c0-0.3,0.6-0.9,1.2-1.4c0.6-0.4,1.2-0.7,1.4-1.2c0.2-0.5,2.4-2.2,2.6-2.8c0.1-0.2-0.7-0.7-1.6-0.6
	c-0.4,0.1-0.9,0.9-1.3,0.8c-0.7-0.1-1.4-0.7-1.4-0.9c1-3,5.3-5.9,5.4-6.2c0.1-0.4,4.9,0.1,5.7-0.3c0.6-0.3,2.9-0.7,3.7-1
	c1.2-0.4,3.4-1.2,5.2-1.7c0.3-0.1,0.5-1.5,0.9-1.5c0.7-0.1,1.1,0.7,1.9,0.6c1.5-0.3,3.2-0.6,5-0.3c0.4,0.1,0.5,0.9,1.1,0.8
	c0.5-0.1,1.5-1,1.9-1c1.7,0.2,3.4,1.1,5.2,1.3c0.4,0-0.8,2.2-0.4,2.2c0.8,0,2.2,2,3,2c0.3,0,0,1.9,0.3,1.9c0.5,0,0.7,0.5,1.2,0.4
	c0.1,0,0.5,1.1-0.5,1.8c-0.6,0.4-2.1,0.5-3,0.6c-0.5,0.1-2.8-2.9-3.2-2.7c-0.9,0.5-1.2,4.3-1.1,4.5c0,0.1,1,0.5,1.6,0.4
	c0.2,0,0-1.1,0.3-1.2c0.5-0.1,1.3,0.1,2,0c0.1,0-0.2,0.6,0,0.8c0.3,0.3,1.1,0.3,1.3,0.3c0.5-0.1,0.6-1.4,1.1-1.5
	c1.4-0.6,2.7-0.4,2.8-0.4c0.5,0,1.8-3,2.3-3c0.7,0,2.1,0.1,0.9,3c-0.2,0.5,0.7,0.5,1.2,0.5c0.5-0.1,0.8-1.6,1.2-1.7
	c1.4-0.2,4.4-0.7,6.3-0.2c0.8,0.2,0.8,1.9,1.4,1.8c0.9-0.1,1.7-0.3,2.6-0.5c0.3-0.1-0.6-2.4-0.3-2.4c0.9-0.2,4.3,2.5,5.3,2.3
	c0.2-0.1,0.7-1,0.8-1.9c0.1-0.6-0.2-1.4-0.1-1.5c0.4-1,0.9-2.1,1.8-2.3c0.7-0.2,1.9,0.2,1.8,4.5c0,0.8-0.6,5.7,2.4,5.9
	c0.6,0,0.2-1.8,0.6-2.9c0.2-0.4,2.6,1.8,2.8,1.3c0.2-0.5,0.7-2.7-1.4-2.4c-0.6,0.1-1.3-0.7-2.4-0.6c-0.6,0.1-1-3.9-0.9-4.3
	c0.1-0.5,1.3,0.3,2,0c0.6-0.2,0.8-0.8,1.3-1.2c0.7-0.5,1.9-0.5,2-0.6c0.2-0.2,0.1-0.7,0-1.3c-0.1-0.2,1.4-0.6,2.7-1.7
	c0.8-0.7,2.2-0.1,2.2-0.3c-0.3-0.9,0.6-2-5.6-2.1c-0.7,0-1.2-0.4-1.5-0.8c-0.7-1.1-0.4-2.6,0-2.8c1.3-0.5,2.9,0.6,4.6,1.2
	c0.8,0.3,1.7,0.3,2.5,0.6c0.7,0.3,1.6,1.4,2.3,1.8c0.9,0.5,2.9-0.3,3.7,0.2c2.1,1.1,3,3.2,4.7,3.5c0.8,0.2,1.8-0.2,2.6-0.2
	c0.3,0-0.3-1-0.1-1c1.1-0.2,3.1,0.5,3.9,0.2c0.2-0.1,1.4,1.2,1.6,1.2c0.7-0.3-0.5-1.6-0.4-2.2C1091.6,18.3,1122.2,39.9,1124.1,43.7z
	"/>
<circle fill-rule="evenodd" clip-rule="evenodd" fill="none" stroke="#EF8488" stroke-width="6.0586" stroke-miterlimit="10" cx="1030.4" cy="125.6" r="122.6"/>
</svg>
