<?xml version="1.0" encoding="utf-8"?>
<!-- Generator: Adobe Illustrator 15.1.0, SVG Export Plug-In . SVG Version: 6.00 Build 0)  -->
<!DOCTYPE svg PUBLIC "-//W3C//DTD SVG 1.1//EN" "http://www.w3.org/Graphics/SVG/1.1/DTD/svg11.dtd">
<svg version="1.1" id="Layer_1" xmlns="http://www.w3.org/2000/svg" xmlns:xlink="http://www.w3.org/1999/xlink" x="0px" y="0px"
	 width="959.661px" height="283.464px" viewBox="0 0 959.661 283.464" enable-background="new 0 0 959.661 283.464"
	 xml:space="preserve">
<path fill="#78B5D7" d="M86.705,174.828h14.539v108.637H85.618v-84.537l-33.399,42h-2.875l-33.79-42v84.537H0V174.828h14.73
	l36.095,44.618L86.705,174.828z"/>
<path fill="#0077AD" d="M127.561,174.828h15.556v108.637h-15.556V174.828z"/>
<path fill="#78B5D7" d="M255.28,174.828h14.778v108.637h-13.374l-72.631-83.671v83.671h-14.619V174.828h12.594l73.252,84.375
	V174.828z"/>
<path fill="#0077AD" d="M296.378,174.828h15.55v108.637h-15.55V174.828z"/>
<path fill="#0077AD" d="M330.34,283.464V58.319h76.016c30.664,0,54.926,4.6,72.787,13.799c17.866,9.199,32.068,22.734,42.606,40.589
	c10.544,17.866,15.816,37.341,15.816,58.424c0,15.067-2.905,29.485-8.715,43.258c-5.811,13.772-14.089,25.876-24.854,36.313
	c-10.975,10.759-23.725,18.882-38.25,24.369c-8.5,3.335-16.3,5.563-23.402,6.692c-7.101,1.13-20.658,1.7-40.67,1.7H330.34z
	 M402.966,87.046h-40.348v167.69h41.316c16.139,0,28.679-1.097,37.604-3.313c8.93-2.195,16.381-5.003,22.352-8.393
	c5.972-3.39,11.432-7.553,16.381-12.503c15.929-16.139,23.886-36.528,23.886-61.172c0-24.209-8.177-43.947-24.532-59.23
	c-6.02-5.697-12.933-10.377-20.739-14.041c-7.795-3.653-15.197-6.074-22.191-7.263C429.708,87.644,418.459,87.046,402.966,87.046z"
	/>
<path fill="#0077AD" d="M566.81,58.319h127.822v28.728h-95.543v68.753h92.315v28.889h-92.315v70.049h98.608v28.728H566.81V58.319z"
	/>
<path fill="#0077AD" d="M914.359,57.996h39.009l-90.201,108.746l96.494,116.723h-38.98l-76.801-93.467l-77.499,93.467h-39.444
	l97.039-116.739l-90.1-108.729h39.396l70.77,86.113L914.359,57.996z"/>
<polygon fill="#0077AD" points="89.664,152.125 62.518,105.114 89.664,58.096 143.961,58.096 171.106,105.114 143.961,152.125 "/>
<polygon fill="#78B5D7" points="183.114,94.032 155.962,47.013 183.114,0 237.401,0 264.546,47.013 237.401,94.032 "/>
<polygon fill="#0077AD" points="276.546,152.125 249.402,105.114 276.546,58.096 330.848,58.096 357.995,105.114 330.848,152.125 
	"/>
</svg>
