<?xml version="1.0" encoding="utf-8"?>
<!-- Generator: Adobe Illustrator 15.1.0, SVG Export Plug-In . SVG Version: 6.00 Build 0)  -->
<!DOCTYPE svg PUBLIC "-//W3C//DTD SVG 1.1//EN" "http://www.w3.org/Graphics/SVG/1.1/DTD/svg11.dtd">
<svg version="1.1" id="Layer_1" xmlns="http://www.w3.org/2000/svg" xmlns:xlink="http://www.w3.org/1999/xlink" x="0px" y="0px"
	 width="1832.416px" height="283.465px" viewBox="0 -35.432 1832.416 283.465" enable-background="new 0 -35.432 1832.416 283.465"
	 xml:space="preserve">
<g>
	<path d="M1232.229-35.432c-5.639,0-10.097,1.642-13.396,4.939c-3.896,3.897-5.85,9.84-5.85,17.812v10.012h-11.055v6.371h11.055
		v56.042h7.802V3.703h20.026v-6.371h-20.026v-10.012c0-6.065,1.211-10.313,3.639-12.743c2.08-2.08,4.945-3.119,8.583-3.119
		c3.557,0,6.638,0.867,9.234,2.602l3.119-5.463C1242.156-34.091,1237.775-35.432,1232.229-35.432 M1179.896,47.52
		c-3.602,4.592-8.564,6.893-14.893,6.893c-5.894,0-10.769-2.406-14.628-7.221c-3.856-4.809-5.781-11.108-5.781-18.914
		c0-7.799,1.836-14.042,5.521-18.724c3.688-4.681,8.604-7.021,14.761-7.021c5.896,0,10.773,2.45,14.622,7.344
		c3.862,4.902,5.797,11.207,5.797,18.917C1185.294,36.69,1183.487,42.929,1179.896,47.52 M1185.745,4.676
		c-5.07-5.933-11.856-8.901-20.346-8.901c-8.933,0-15.977,2.969-21.133,8.901c-5.164,5.943-7.739,13.897-7.739,23.866
		c0,9.963,2.575,17.917,7.739,23.855c5.153,5.939,11.984,8.906,20.479,8.906c8.752,0,15.71-2.919,20.864-8.773
		c5.158-5.85,7.739-13.677,7.739-23.472C1193.351,18.744,1190.815,10.617,1185.745,4.676 M1092.194,52.202
		c-1.041,0.349-2.041,0.698-2.986,1.039c-2.172,0.611-4.25,0.913-6.247,0.913c-4.594,0-7.495-1.43-8.711-4.286
		c-0.695-1.568-1.042-5.159-1.042-10.797V3.703h20.025v-6.371h-20.025v-17.68h-7.794v17.68h-10.93v6.371h10.93v36.929
		c0,4.504,0.166,7.667,0.513,9.491c0.433,2.779,1.477,4.987,3.122,6.633c2.948,2.947,7.24,4.419,12.875,4.419
		c4.248,0,8.362-1,12.349-2.987L1092.194,52.202z M1043.434,22.169c0-5.287-0.216-9.062-0.647-11.314
		c-0.779-3.985-2.469-7.282-5.07-9.878c-3.472-3.474-8.284-5.203-14.438-5.203c-7.195,0-14.036,2.035-20.542,6.105v-4.548h-7.411
		v62.413h7.802V8.777c0.693-0.695,2.773-1.734,6.237-3.124c4.683-1.991,8.977-2.991,12.875-2.991c4.158,0,7.411,1.172,9.75,3.513
		c1.646,1.646,2.734,3.987,3.258,7.017c0.255,1.823,0.388,5.203,0.388,10.146v36.407h7.799V22.169z M935.905,23.47
		c0.344-6.416,2.427-11.529,6.245-15.348c3.805-3.813,8.494-5.721,14.036-5.721c5.552,0,9.844,2.345,12.877,7.022
		c2.425,3.902,3.638,8.583,3.638,14.047H935.905z M973.74,3.573c-4.416-5.198-10.312-7.799-17.679-7.799
		c-8.672,0-15.583,3.013-20.742,9.035c-5.159,6.026-7.739,14.065-7.739,24.121c0,9.622,2.58,17.378,7.739,23.271
		c5.159,5.897,12.203,8.844,21.13,8.844c5.372,0,10.664-1,15.861-2.991c3.732-1.561,5.854-2.685,6.373-3.38l-3.511-5.987
		c-6.758,3.385-12.786,5.076-18.078,5.076c-6.841,0-12.138-2.164-15.856-6.5c-3.731-4.336-5.594-10.061-5.594-17.167h44.731
		c0-0.518,0.039-1.302,0.125-2.34c0.089-1.041,0.133-1.646,0.133-1.819C980.633,16.493,978.336,9.034,973.74,3.573 M913.804,26.717
		c0-7.282-0.218-12.224-0.651-14.827c-0.781-4.415-2.602-8.056-5.459-10.914c-3.473-3.474-8.11-5.203-13.915-5.203
		c-7.198,0-14.737,2.424-22.624,7.282c-3.47-4.858-8.627-7.282-15.471-7.282c-6.421,0-13.003,2.035-19.768,6.105v-4.548h-7.412
		v62.413h7.801V8.777c5.985-3.987,12.177-5.987,18.593-5.987c3.903,0,6.938,1.088,9.104,3.252c1.562,1.562,2.559,3.991,2.993,7.283
		c0.26,1.906,0.393,5.981,0.393,12.224v34.195h7.801V23.47c0-8.238-0.39-13.18-1.174-14.826c6.503-3.813,12.831-5.721,18.988-5.721
		c4.073,0,7.19,1.083,9.36,3.251c2.424,2.424,3.644,7.889,3.644,16.384v37.186h7.801V26.717H913.804z M811.863,52.202
		c-1.041,0.349-2.037,0.698-2.989,1.039c-2.169,0.611-4.25,0.913-6.242,0.913c-4.595,0-7.5-1.43-8.714-4.286
		c-0.693-1.568-1.037-5.159-1.037-10.797V3.703h20.021v-6.371H792.88v-17.68h-7.8v17.68h-10.924v6.371h10.924v36.929
		c0,4.504,0.171,7.667,0.516,9.491c0.437,2.779,1.479,4.987,3.121,6.633c2.949,2.947,7.242,4.419,12.878,4.419
		c4.244,0,8.36-1,12.348-2.987L811.863,52.202z M760.242-4.358c-7.714,0-14.302,3.296-19.762,9.883v-8.194h-7.411v62.413h7.801
		V13.715c0.693-1.035,1.427-2.081,2.212-3.124c1.73-2.081,3.77-3.766,6.11-5.066c3.203-1.822,6.761-2.734,10.661-2.734
		c1.561,0,3.25,0.134,5.07,0.389l1.822-6.5C764.664-4.014,762.493-4.358,760.242-4.358 M690.549,54.153
		c-4.595,0-8.106-1.212-10.535-3.642c-2.164-2.168-3.247-4.938-3.247-8.323c0-9.445,9.233-14.17,27.695-14.17h3.513v21.063
		C700.696,52.462,694.884,54.153,690.549,54.153 M715.775,19.568c0-4.419-0.218-7.627-0.652-9.623
		c-0.607-3.292-2.033-6.065-4.289-8.323c-3.987-3.987-9.618-5.98-16.902-5.98c-5.46,0-10.574,1-15.341,2.99
		c-3.121,1.302-5.159,2.43-6.111,3.38l3.248,5.465c5.81-3.293,11.577-4.942,17.293-4.942c5.551,0,9.497,1.211,11.836,3.641
		c2.079,2.168,3.12,6.544,3.12,13.132v2.34h-3.253c-24.011,0-36.012,6.805-36.012,20.414c0,5.638,1.837,10.207,5.521,13.72
		c3.685,3.504,8.518,5.266,14.499,5.266c4.592,0,9.232-0.956,13.914-2.859c1.993-1.043,3.985-2.083,5.979-3.124v4.681h7.152V19.568
		H715.775z M643.81,46.679c-4.119,4.982-9.559,7.473-16.32,7.473c-4.507,0-9.277-1.385-14.304-4.164V8.775
		c4.854-4.08,10.445-6.115,16.773-6.115c5.897,0,10.707,2.251,14.435,6.761c3.725,4.507,5.589,10.36,5.589,17.556
		C649.982,35.123,647.921,41.694,643.81,46.679 M650.505,4.419c-5.027-5.766-11.616-8.646-19.768-8.646
		c-6.758,0-12.739,1.946-17.94,5.849v-4.292h-7.411v90.111h7.799V57.533c3.727,2.345,8.452,3.513,14.174,3.513
		c9.014,0,16.38-3.142,22.104-9.428c5.722-6.283,8.582-14.414,8.582-24.379C658.043,17.793,655.529,10.183,650.505,4.419
		 M545.962,23.47c0.35-6.416,2.43-11.529,6.244-15.348c3.816-3.813,8.495-5.721,14.045-5.721c5.544,0,9.834,2.345,12.871,7.022
		c2.423,3.902,3.642,8.583,3.642,14.047H545.962z M583.801,3.573c-4.422-5.198-10.315-7.799-17.683-7.799
		c-8.672,0-15.583,3.013-20.741,9.035c-5.156,6.026-7.733,14.065-7.733,24.121c0,9.622,2.577,17.378,7.733,23.271
		c5.157,5.897,12.199,8.844,21.13,8.844c5.374,0,10.661-1,15.862-2.991c3.727-1.561,5.853-2.685,6.374-3.38l-3.512-5.987
		c-6.762,3.385-12.789,5.076-18.071,5.076c-6.852,0-12.138-2.164-15.864-6.5c-3.73-4.336-5.593-10.061-5.593-17.167h44.73
		c0-0.518,0.043-1.302,0.133-2.34c0.083-1.041,0.127-1.646,0.127-1.819C590.693,16.493,588.396,9.034,583.801,3.573 M506.697,43.752
		c-3.901,3.902-8.582,6.503-14.041,7.799c-3.819,0.867-9.451,1.301-16.902,1.301H463.92v-72.944h8.581
		c9.445,0,16.255,0.474,20.415,1.434c5.199,1.124,9.622,3.508,13.261,7.146c6.851,6.853,10.276,15.914,10.276,27.178
		C516.452,27.885,513.198,37.252,506.697,43.752 M512.419-16.189c-4.508-4.509-10.23-7.544-17.163-9.105
		c-5.118-1.125-12.79-1.691-23.017-1.691h-16.643v86.729h19.635c9.189,0,16.08-0.561,20.673-1.69
		c6.326-1.561,11.833-4.681,16.514-9.367c8.322-8.316,12.48-19.241,12.48-32.761C524.9,2.835,520.741-7.868,512.419-16.189
		 M379.534,54.153c-5.895,0-10.729-2.257-14.498-6.766c-3.77-4.5-5.659-10.353-5.659-17.552c0-8.146,2.084-14.716,6.246-19.698
		c4.158-4.98,9.62-7.477,16.38-7.477c4.595,0,9.32,1.389,14.175,4.164v41.217C390.367,52.113,384.821,54.153,379.534,54.153
		 M404.107-33.874h-7.929v33.156c-3.9-2.34-8.629-3.508-14.175-3.508c-9.014,0-16.38,3.141-22.105,9.424
		c-5.723,6.286-8.581,14.41-8.581,24.381c0,9.445,2.514,17.052,7.543,22.816c5.024,5.765,11.656,8.649,19.893,8.649
		c7.194,0,13.26-1.996,18.203-5.981v4.681h7.148v-93.618H404.107z M336.626-33.874h-7.8v93.618h7.8V-33.874z M269.402,23.47
		c0.349-6.416,2.429-11.529,6.242-15.348c3.816-3.813,8.495-5.721,14.045-5.721c5.545,0,9.834,2.345,12.871,7.022
		c2.424,3.902,3.642,8.583,3.642,14.047H269.402z M307.241,3.573c-4.422-5.198-10.315-7.799-17.683-7.799
		c-8.667,0-15.583,3.013-20.74,9.035c-5.158,6.026-7.734,14.065-7.734,24.121c0,9.622,2.578,17.378,7.734,23.271
		c5.157,5.897,12.199,8.844,21.13,8.844c5.374,0,10.661-1,15.861-2.991c3.729-1.561,5.854-2.685,6.374-3.38l-3.511-5.987
		c-6.765,3.385-12.788,5.076-18.07,5.076c-6.852,0-12.138-2.164-15.865-6.5c-3.73-4.336-5.592-10.061-5.592-17.167h44.73
		c0-0.518,0.041-1.302,0.133-2.34c0.081-1.041,0.125-1.646,0.125-1.819C314.131,16.493,311.835,9.034,307.241,3.573 M246.391-2.669
		h-7.8v62.413h7.8V-2.669z M246.196-27.436c-1-0.996-2.232-1.496-3.705-1.496c-1.391,0-2.602,0.5-3.643,1.496
		c-1.043,0.996-1.557,2.229-1.557,3.703c0,1.389,0.514,2.602,1.557,3.641c1.041,1.04,2.252,1.561,3.643,1.561
		c1.473,0,2.705-0.522,3.705-1.561c0.994-1.039,1.496-2.251,1.496-3.641C247.691-25.207,247.19-26.441,246.196-27.436
		 M217.006-35.432c-5.637,0-10.098,1.642-13.392,4.939c-3.9,3.897-5.853,9.84-5.853,17.812v10.012h-11.05v6.371h11.05v56.042h7.802
		V3.703h20.025v-6.371h-20.025v-10.012c0-6.065,1.215-10.313,3.642-12.743c2.08-2.08,4.939-3.119,8.581-3.119
		c3.554,0,6.632,0.867,9.234,2.602l3.117-5.463C226.929-34.091,222.553-35.432,217.006-35.432 M169.939-35.432
		c-5.635,0-10.099,1.642-13.392,4.939c-3.9,3.897-5.854,9.84-5.854,17.812v10.012h-11.051v6.371h11.051v56.042h7.803V3.703h20.025
		v-6.371h-20.025v-10.012c0-6.065,1.215-10.313,3.642-12.743c2.08-2.08,4.938-3.119,8.582-3.119c3.551,0,6.632,0.867,9.23,2.602
		l3.122-5.463C179.86-34.091,175.484-35.432,169.939-35.432 M127.551-2.669h-7.8v50.711c-2.169,1.039-4.336,2.124-6.501,3.248
		c-4.508,1.907-8.715,2.863-12.613,2.863c-3.986,0-7.217-1.234-9.688-3.703c-2.469-2.469-3.705-7.783-3.705-15.932V-2.668h-7.803
		v35.628c0,5.81,0.134,9.663,0.391,11.57c0.779,4.596,2.513,8.238,5.201,10.923c3.723,3.729,8.75,5.592,15.083,5.592
		c7.28,0,14.043-2.081,20.281-6.244v4.943h7.155V-2.669z M60.068-26.985h-7.669l0.259,75.16L9.102-26.985H0v86.729h7.669
		L7.407-14.761l43.172,74.505h9.491v-86.729H60.068z"/>
	<path d="M1832.416,107.448h-13.256v59.835h-69.767v-59.835h-13.25v138.097h13.25v-67.078h69.767v67.078h13.256V107.448z
		 M1711.704,107.448h-96.892v11.181h41.822v126.916h13.247V118.629h41.822V107.448L1711.704,107.448z M1623.506,233.952h-59.418
		V107.448h-13.25v138.097h72.668V233.952L1623.506,233.952z M1446.28,194.612l26.091-73.29l26.289,73.29H1446.28z M1480.233,107.448
		h-14.906l-50.312,138.097h13.252L1442.348,206h60.249l14.08,39.545h14.078L1480.233,107.448z M1399.489,233.952h-61.493v-55.281
		h56.113v-10.972h-56.113v-49.07h59.843v-11.181h-72.885v138.097h74.535V233.952z M1289.345,107.448h-13.255v59.835h-69.768v-59.835
		h-13.25v138.097h13.25v-67.078h69.768v67.078h13.255V107.448z M1107.769,107.448h-12.216l0.414,119.67l-69.358-119.67h-14.494
		v138.097h12.216l-0.411-118.639l68.735,118.639h15.114V107.448z M956.113,219.875c-8.484,11.175-19.908,16.768-34.268,16.768
		c-13.662,0-24.947-5.69-33.852-17.083c-8.901-11.384-13.351-25.908-13.351-43.583c0-17.94,4.245-32.364,12.731-43.27
		c8.491-10.901,19.775-16.354,33.849-16.354c13.944,0,25.364,5.453,34.27,16.354c8.901,10.905,13.354,25.056,13.354,42.441
		C968.847,193.785,964.6,208.696,956.113,219.875 M965.944,124.836c-11.315-13.246-25.742-19.875-43.271-19.875
		c-18.355,0-33.297,6.766-44.821,20.295c-11.526,13.525-17.289,30.987-17.289,52.379c0,20.427,5.724,37.27,17.185,50.522
		c11.457,13.247,25.883,19.875,43.272,19.875c18.356,0,33.262-6.695,44.721-20.085c11.455-13.388,17.185-30.713,17.185-51.971
		C982.925,155.139,977.261,138.092,965.944,124.836 M831.372,107.448h-13.251v138.101h13.251V107.448L831.372,107.448z
		 M793.688,107.448h-96.895v11.181h41.82v126.916h13.251V118.629h41.821v-11.181H793.688z M622.669,194.612l26.088-73.29
		l26.294,73.29H622.669z M656.625,107.448h-14.91l-50.312,138.097h13.251L618.738,206h60.247l14.08,39.545h14.082L656.625,107.448z
		 M572.566,233.952h-59.42V107.448h-13.247v138.097h72.667V233.952z M466.358,107.448h-13.044v73.09
		c0,15.595-0.35,25.674-1.038,30.228c-1.107,6.764-3.934,12.418-8.491,16.975c-5.935,5.938-14.217,8.902-24.845,8.902
		c-11.594,0-20.636-3.239-27.121-9.734c-4.004-4-6.559-8.969-7.662-14.906c-0.693-3.446-1.038-9.175-1.038-17.183v-87.373h-13.042
		v74.741c0,15.047,0.417,25.055,1.241,30.024c1.517,9.247,5.105,16.707,10.769,22.36c8.971,8.973,21.05,13.461,36.23,13.461
		s27.126-4.352,35.82-13.043c6.074-6.07,9.799-14.561,11.18-25.469c0.688-4.968,1.038-16.839,1.038-35.615v-66.458H466.358z
		 M321.839,169.769c-3.723,3.726-8.901,6.074-15.524,7.039c-3.729,0.553-10.907,0.826-21.536,0.826h-11.384v-59.423h17.185
		c8.281,0,14.144,0.278,17.596,0.832c6.077,0.828,10.698,2.832,13.872,6.004c5.659,5.664,8.491,12.972,8.491,21.945
		C330.538,156.381,327.636,163.974,321.839,169.769 M332.607,118.212c-4.557-4.552-10.561-7.587-18.013-9.109
		c-5.11-1.102-12.699-1.654-22.774-1.654h-31.469v138.097h13.042v-57.146h12.213c12.972,0,21.67-0.411,26.087-1.238
		c8.417-1.518,15.458-5.104,21.12-10.764c7.313-7.319,10.975-17.052,10.975-29.195C343.791,135.33,340.06,125.668,332.607,118.212
		 M204.343,219.875c-8.485,11.175-19.911,16.768-34.263,16.768c-13.665,0-24.949-5.69-33.852-17.083
		c-8.904-11.384-13.357-25.908-13.357-43.583c0-17.94,4.246-32.364,12.736-43.27c8.491-10.901,19.771-16.354,33.853-16.354
		c13.939,0,25.361,5.453,34.265,16.354c8.901,10.905,13.354,25.056,13.354,42.441C217.08,193.785,212.834,208.696,204.343,219.875
		 M214.18,124.836c-11.321-13.246-25.745-19.875-43.27-19.875c-18.362,0-33.305,6.766-44.826,20.295
		c-11.529,13.525-17.288,30.987-17.288,52.379c0,20.427,5.727,37.27,17.184,50.522c11.452,13.247,25.878,19.875,43.27,19.875
		c18.36,0,33.265-6.695,44.722-20.085c11.458-13.388,17.184-30.713,17.184-51.971C231.155,155.139,225.497,138.092,214.18,124.836
		 M64.905,169.769c-3.73,3.726-8.907,6.074-15.532,7.039c-3.723,0.553-10.904,0.826-21.533,0.826H16.456v-59.423H33.64
		c8.28,0,14.142,0.278,17.595,0.832c6.075,0.828,10.696,2.832,13.874,6.004c5.659,5.664,8.491,12.972,8.491,21.945
		C73.599,156.381,70.698,163.974,64.905,169.769 M75.668,118.212c-4.553-4.552-10.56-7.587-18.013-9.109
		c-5.105-1.102-12.698-1.654-22.774-1.654H3.411v138.097h13.045v-57.146h12.213c12.97,0,21.67-0.411,26.085-1.238
		c8.419-1.518,15.458-5.104,21.123-10.764c7.313-7.319,10.972-17.052,10.972-29.195C86.85,135.33,83.121,125.668,75.668,118.212"/>
</g>
</svg>
