<?xml version="1.0" encoding="utf-8"?>
<!-- Generator: Adobe Illustrator 21.1.0, SVG Export Plug-In . SVG Version: 6.00 Build 0)  -->
<svg version="1.1" id="Layer_1" xmlns="http://www.w3.org/2000/svg" xmlns:xlink="http://www.w3.org/1999/xlink" x="0px" y="0px"
	 width="363.8px" height="69.9px" viewBox="0 0 363.8 69.9" enable-background="new 0 0 363.8 69.9" xml:space="preserve">
<path fill="#B51A82" d="M180.1,10.3C173.3,3.4,165,0,155.5,0c-9.6,0-17.8,3.4-24.7,10.3c-6.8,6.8-10.2,15.1-10.2,24.7
	c0,9.6,3.4,17.8,10.2,24.6c6.9,6.9,15.1,10.3,24.7,10.3c9.6,0,17.8-3.4,24.6-10.3c6.9-6.9,10.3-15.1,10.3-24.6
	C190.4,25.4,187,17.2,180.1,10.3z M155.4,63.8c-15.9,0-28.8-12.9-28.8-28.8c0-15.9,12.9-28.8,28.8-28.8c15.9,0,28.8,12.9,28.8,28.8
	C184.2,50.8,171.3,63.8,155.4,63.8z"/>
<g>
	<path fill="#009590" d="M208.3,52.5c0,1-0.4,1.9-1.1,2.6c-0.7,0.7-1.6,1.1-2.6,1.1c-1,0-1.9-0.4-2.6-1.1c-0.7-0.7-1.1-1.6-1.1-2.6
		c0-1,0.4-1.9,1.1-2.6c0.7-0.7,1.6-1.1,2.6-1.1c1,0,1.9,0.4,2.6,1.1C208,50.6,208.3,51.4,208.3,52.5z M207.3,52.5
		c0-0.7-0.3-1.4-0.8-1.9c-0.5-0.5-1.2-0.8-1.9-0.8s-1.4,0.3-1.9,0.8c-0.5,0.5-0.8,1.2-0.8,1.9s0.3,1.4,0.8,1.9
		c0.5,0.5,1.2,0.8,1.9,0.8s1.4-0.3,1.9-0.8C207.1,53.8,207.3,53.2,207.3,52.5z"/>
	<path fill="#009590" d="M215.8,52.9c0,0.9-0.3,1.6-1,2.3c-0.6,0.6-1.4,0.9-2.3,0.9c-0.9,0-1.7-0.3-2.3-1v2.3c0,0.1,0,0.2-0.1,0.3
		c-0.1,0.1-0.2,0.2-0.3,0.2s-0.2-0.1-0.3-0.2c-0.1-0.1-0.1-0.2-0.1-0.3v-7.3c0-0.1,0-0.2,0.1-0.3c0.1-0.1,0.2-0.2,0.3-0.2
		s0.2,0.1,0.3,0.2c0.1,0.1,0.1,0.2,0.1,0.3v0.5c0.6-0.7,1.4-1,2.3-1c0.9,0,1.6,0.3,2.3,1C215.4,51.3,215.8,52,215.8,52.9z
		 M214.8,52.9c0-0.6-0.2-1.1-0.7-1.6c-0.4-0.4-1-0.7-1.6-0.7c-0.6,0-1.2,0.2-1.6,0.7c-0.4,0.4-0.7,1-0.7,1.6c0,0.6,0.2,1.1,0.7,1.6
		c0.4,0.4,1,0.7,1.6,0.7c0.6,0,1.1-0.2,1.6-0.7C214.5,54.1,214.8,53.5,214.8,52.9z"/>
	<path fill="#009590" d="M220.1,55.7c0,0.1-0.1,0.2-0.2,0.3s-0.2,0.1-0.3,0.1h-2c-0.1,0-0.2,0-0.3-0.1c-0.1-0.1-0.1-0.2-0.1-0.3v-5
		h-0.8c-0.1,0-0.1,0-0.2,0c-0.1,0-0.1-0.1-0.2-0.1c0,0-0.1-0.1-0.1-0.2c0-0.1,0-0.1,0-0.2c0-0.1,0-0.2,0.1-0.3
		c0.1-0.1,0.2-0.2,0.3-0.2h0.8v-0.4c0-0.1,0-0.1,0-0.2c0-0.1,0.1-0.1,0.1-0.2c0,0,0.1-0.1,0.2-0.1c0.1,0,0.1,0,0.2,0
		c0.1,0,0.2,0,0.3,0.1c0.1,0.1,0.1,0.2,0.1,0.3v0.4h0.8c0.1,0,0.2,0.1,0.3,0.2c0.1,0.1,0.2,0.2,0.2,0.3c0,0.1-0.1,0.2-0.2,0.3
		c-0.1,0.1-0.2,0.1-0.3,0.1h-0.8v4.5h1.5c0.1,0,0.2,0.1,0.3,0.2S220.1,55.5,220.1,55.7z"/>
	<path fill="#009590" d="M221.7,55.7c0,0.1,0,0.1,0,0.2c0,0.1-0.1,0.1-0.1,0.2c0,0-0.1,0.1-0.2,0.1c-0.1,0-0.1,0-0.2,0
		c-0.1,0-0.2,0-0.3-0.1s-0.1-0.2-0.1-0.3v-5.5c0-0.1,0-0.2,0.1-0.3c0.1-0.1,0.2-0.2,0.3-0.2s0.2,0.1,0.3,0.2
		c0.1,0.1,0.1,0.2,0.1,0.3V55.7z"/>
	<path fill="#009590" d="M231.6,55.7c0,0.1-0.1,0.2-0.2,0.3c-0.1,0.1-0.2,0.1-0.3,0.1c-0.1,0-0.1,0-0.2,0c-0.1,0-0.1-0.1-0.2-0.1
		c0,0-0.1-0.1-0.1-0.2c0-0.1,0-0.1,0-0.2v-3.6c0-0.4-0.1-0.7-0.4-1c-0.3-0.3-0.6-0.4-1-0.4c-0.4,0-0.7,0.1-1,0.4
		c-0.3,0.3-0.4,0.6-0.4,1v3.6c0,0.1,0,0.1,0,0.2c0,0.1-0.1,0.1-0.1,0.2c0,0-0.1,0.1-0.2,0.1c-0.1,0-0.1,0-0.2,0c-0.1,0-0.1,0-0.2,0
		s-0.1-0.1-0.2-0.1c0,0-0.1-0.1-0.1-0.2c0-0.1,0-0.1,0-0.2v-3.6c0-0.4-0.1-0.7-0.4-1c-0.3-0.3-0.6-0.4-1-0.4c-0.4,0-0.7,0.1-1,0.4
		c-0.3,0.3-0.4,0.6-0.4,1v3.6c0,0.1,0,0.1,0,0.2c0,0.1-0.1,0.1-0.1,0.2c0,0-0.1,0.1-0.2,0.1s-0.1,0-0.2,0c-0.1,0-0.2,0-0.3-0.1
		s-0.1-0.2-0.1-0.3v-5.5c0-0.1,0-0.2,0.1-0.3c0.1-0.1,0.2-0.2,0.3-0.2c0.1,0,0.3,0.1,0.4,0.2c0.1,0.1,0.1,0.2,0.1,0.4
		c0.4-0.4,0.9-0.5,1.4-0.5c0.4,0,0.8,0.1,1.1,0.3c0.3,0.2,0.6,0.5,0.8,0.8c0.2-0.4,0.5-0.6,0.8-0.8c0.4-0.2,0.7-0.3,1.1-0.3
		c0.7,0,1.2,0.2,1.7,0.7c0.5,0.5,0.7,1,0.7,1.7V55.7z"/>
	<path fill="#009590" d="M233.7,55.7c0,0.1,0,0.1,0,0.2c0,0.1-0.1,0.1-0.1,0.2c0,0-0.1,0.1-0.2,0.1s-0.1,0-0.2,0
		c-0.1,0-0.2,0-0.3-0.1s-0.1-0.2-0.1-0.3v-5.5c0-0.1,0-0.2,0.1-0.3c0.1-0.1,0.2-0.2,0.3-0.2c0.1,0,0.2,0.1,0.3,0.2
		c0.1,0.1,0.1,0.2,0.1,0.3V55.7z"/>
	<path fill="#009590" d="M238.3,54.3c0,0.5-0.2,0.9-0.5,1.3c-0.4,0.4-0.8,0.5-1.3,0.5c-0.3,0-0.7-0.1-0.9-0.2
		c-0.3-0.2-0.5-0.4-0.7-0.7c0-0.1-0.1-0.2-0.1-0.2c0-0.1,0-0.1,0-0.2c0-0.1,0.1-0.1,0.1-0.2c0,0,0.1-0.1,0.2-0.1c0.1,0,0.1,0,0.2,0
		c0.1,0,0.3,0.1,0.5,0.3c0.2,0.2,0.4,0.3,0.7,0.3c0.2,0,0.4-0.1,0.6-0.3s0.3-0.4,0.3-0.6c0-0.2-0.1-0.4-0.3-0.6s-0.4-0.3-0.6-0.3
		c-0.5,0-0.9-0.2-1.3-0.5c-0.4-0.4-0.5-0.8-0.5-1.3s0.2-0.9,0.5-1.3c0.4-0.4,0.8-0.6,1.3-0.6c0.3,0,0.6,0.1,0.9,0.3
		c0.3,0.2,0.5,0.4,0.7,0.7c0,0.1,0.1,0.2,0.1,0.2c0,0.1,0,0.2-0.1,0.3s-0.2,0.1-0.3,0.1c-0.1,0-0.3-0.1-0.5-0.3
		c-0.2-0.2-0.4-0.3-0.7-0.3c-0.2,0-0.4,0.1-0.6,0.3c-0.2,0.2-0.3,0.4-0.3,0.6c0,0.2,0.1,0.4,0.3,0.6c0.2,0.2,0.4,0.3,0.6,0.3
		c0.5,0,0.9,0.2,1.3,0.5C238.1,53.3,238.3,53.8,238.3,54.3z"/>
	<path fill="#009590" d="M240.2,55.7c0,0.1,0,0.1,0,0.2c0,0.1-0.1,0.1-0.1,0.2c0,0-0.1,0.1-0.2,0.1c-0.1,0-0.1,0-0.2,0
		c-0.1,0-0.2,0-0.3-0.1c-0.1-0.1-0.1-0.2-0.1-0.3v-5.5c0-0.1,0-0.2,0.1-0.3c0.1-0.1,0.2-0.2,0.3-0.2s0.2,0.1,0.3,0.2
		c0.1,0.1,0.1,0.2,0.1,0.3V55.7z"/>
	<path fill="#009590" d="M247.8,55.7c0,0.1,0,0.1,0,0.2c0,0.1-0.1,0.1-0.1,0.2c0,0-0.1,0.1-0.2,0.1c-0.1,0-0.1,0-0.2,0
		c-0.1,0-0.3,0-0.3-0.1s-0.1-0.2-0.1-0.3v-2.7c0-0.6-0.2-1.1-0.7-1.6c-0.4-0.4-1-0.7-1.6-0.7c-0.6,0-1.2,0.2-1.6,0.7
		c-0.4,0.4-0.7,1-0.7,1.6v2.7c0,0.1,0,0.1,0,0.2c0,0.1-0.1,0.1-0.1,0.2c0,0-0.1,0.1-0.2,0.1s-0.1,0-0.2,0c-0.1,0-0.2,0-0.3-0.1
		s-0.1-0.2-0.1-0.3v-5.5c0-0.1,0-0.2,0.1-0.3c0.1-0.1,0.2-0.2,0.3-0.2c0.1,0,0.2,0.1,0.3,0.2c0.1,0.1,0.1,0.2,0.1,0.3v0.5
		c0.6-0.7,1.4-1,2.3-1c0.9,0,1.6,0.3,2.2,1c0.6,0.6,0.9,1.4,0.9,2.3V55.7z"/>
	<path fill="#009590" d="M255.1,57.4c0,0.1,0,0.1,0,0.2c0,0.1-0.1,0.1-0.1,0.2c0,0-0.1,0.1-0.2,0.1c-0.1,0-0.1,0-0.2,0h-3.7
		c-0.1,0-0.2-0.1-0.3-0.2c-0.1-0.1-0.1-0.2-0.1-0.3c0-0.1,0-0.1,0-0.2c0-0.1,0.1-0.1,0.1-0.2c0,0,0.1-0.1,0.2-0.1c0.1,0,0.1,0,0.2,0
		h3.2v-1.8c-0.6,0.7-1.4,1-2.3,1c-0.9,0-1.7-0.3-2.3-0.9c-0.6-0.6-0.9-1.4-0.9-2.3s0.3-1.6,0.9-2.3c0.6-0.6,1.4-1,2.3-1
		c0.9,0,1.6,0.3,2.3,1v-0.5c0-0.1,0-0.2,0.1-0.3c0.1-0.1,0.2-0.2,0.3-0.2c0.1,0,0.1,0,0.2,0c0.1,0,0.1,0.1,0.2,0.1
		c0,0,0.1,0.1,0.1,0.2c0,0.1,0,0.1,0,0.2V57.4z M254.1,52.9c0-0.6-0.2-1.1-0.7-1.6c-0.4-0.4-1-0.7-1.6-0.7s-1.1,0.2-1.6,0.7
		c-0.4,0.4-0.7,1-0.7,1.6c0,0.6,0.2,1.1,0.7,1.6c0.4,0.4,1,0.7,1.6,0.7c0.6,0,1.1-0.2,1.6-0.7C253.9,54.1,254.1,53.5,254.1,52.9z"/>
	<path fill="#009590" d="M261.2,55.7c0,0.1,0,0.1,0,0.2c0,0.1-0.1,0.1-0.1,0.2c0,0-0.1,0.1-0.2,0.1c-0.1,0-0.1,0-0.2,0
		c-0.1,0-0.2,0-0.3-0.1c-0.1-0.1-0.1-0.2-0.1-0.3v-6.4c0-0.1,0-0.1,0-0.2c0-0.1,0.1-0.1,0.1-0.2c0,0,0.1-0.1,0.2-0.1
		c0.1,0,0.1,0,0.2,0c0.1,0,0.2,0,0.3,0.1c0.1,0.1,0.1,0.2,0.1,0.3V55.7z"/>
	<path fill="#009590" d="M268.8,55.7c0,0.1,0,0.1,0,0.2c0,0.1-0.1,0.1-0.1,0.2c0,0-0.1,0.1-0.2,0.1c-0.1,0-0.1,0-0.2,0
		c-0.1,0-0.3,0-0.3-0.1s-0.1-0.2-0.1-0.3v-0.5c-0.6,0.7-1.4,1-2.3,1c-0.9,0-1.6-0.3-2.2-1c-0.6-0.6-0.9-1.4-0.9-2.3v-2.7
		c0-0.1,0-0.2,0.1-0.3c0.1-0.1,0.2-0.2,0.3-0.2c0.1,0,0.2,0.1,0.3,0.2c0.1,0.1,0.1,0.2,0.1,0.3v2.7c0,0.6,0.2,1.1,0.7,1.6
		c0.4,0.4,1,0.7,1.6,0.7c0.6,0,1.1-0.2,1.6-0.7c0.4-0.4,0.7-1,0.7-1.6v-2.7c0-0.1,0-0.2,0.1-0.3c0.1-0.1,0.2-0.2,0.3-0.2
		c0.1,0,0.2,0.1,0.3,0.2c0.1,0.1,0.1,0.2,0.1,0.3V55.7z"/>
	<path fill="#009590" d="M278.7,55.7c0,0.1-0.1,0.2-0.2,0.3c-0.1,0.1-0.2,0.1-0.3,0.1c-0.1,0-0.1,0-0.2,0c-0.1,0-0.1-0.1-0.2-0.1
		c0,0-0.1-0.1-0.1-0.2c0-0.1,0-0.1,0-0.2v-3.6c0-0.4-0.1-0.7-0.4-1c-0.3-0.3-0.6-0.4-1-0.4c-0.4,0-0.7,0.1-1,0.4
		c-0.3,0.3-0.4,0.6-0.4,1v3.6c0,0.1,0,0.1,0,0.2c0,0.1-0.1,0.1-0.1,0.2c0,0-0.1,0.1-0.2,0.1c-0.1,0-0.1,0-0.2,0s-0.1,0-0.2,0
		S274.1,56,274,56c0,0-0.1-0.1-0.1-0.2c0-0.1,0-0.1,0-0.2v-3.6c0-0.4-0.1-0.7-0.4-1c-0.3-0.3-0.6-0.4-1-0.4c-0.4,0-0.7,0.1-1,0.4
		c-0.3,0.3-0.4,0.6-0.4,1v3.6c0,0.1,0,0.1,0,0.2c0,0.1-0.1,0.1-0.1,0.2c0,0-0.1,0.1-0.2,0.1c-0.1,0-0.1,0-0.2,0
		c-0.1,0-0.2,0-0.3-0.1c-0.1-0.1-0.1-0.2-0.1-0.3v-5.5c0-0.1,0-0.2,0.1-0.3c0.1-0.1,0.2-0.2,0.3-0.2c0.1,0,0.3,0.1,0.4,0.2
		c0.1,0.1,0.1,0.2,0.1,0.4c0.4-0.4,0.9-0.5,1.4-0.5c0.4,0,0.8,0.1,1.1,0.3c0.3,0.2,0.6,0.5,0.8,0.8c0.2-0.4,0.5-0.6,0.8-0.8
		c0.4-0.2,0.7-0.3,1.1-0.3c0.7,0,1.2,0.2,1.7,0.7c0.5,0.5,0.7,1,0.7,1.7V55.7z"/>
	<path fill="#009590" d="M286.4,52.9c0,0.9-0.3,1.6-1,2.3c-0.6,0.6-1.4,0.9-2.3,0.9c-0.9,0-1.7-0.3-2.3-1v0.5c0,0.1,0,0.1,0,0.2
		c0,0.1-0.1,0.1-0.1,0.2c0,0-0.1,0.1-0.2,0.1c-0.1,0-0.1,0-0.2,0c-0.1,0-0.2,0-0.3-0.1s-0.1-0.2-0.1-0.3v-6.4c0-0.1,0-0.1,0-0.2
		s0.1-0.1,0.1-0.2c0,0,0.1-0.1,0.2-0.1c0.1,0,0.1,0,0.2,0c0.1,0,0.2,0,0.3,0.1c0.1,0.1,0.1,0.2,0.1,0.3v1.4c0.6-0.7,1.4-1,2.3-1
		c0.9,0,1.6,0.3,2.3,1C286,51.3,286.4,52,286.4,52.9z M285.4,52.9c0-0.6-0.2-1.1-0.7-1.6c-0.4-0.4-1-0.7-1.6-0.7
		c-0.6,0-1.2,0.2-1.6,0.7c-0.4,0.4-0.7,1-0.7,1.6c0,0.6,0.2,1.1,0.7,1.6c0.4,0.4,1,0.7,1.6,0.7c0.6,0,1.1-0.2,1.6-0.7
		C285.2,54.1,285.4,53.5,285.4,52.9z"/>
	<path fill="#009590" d="M293.4,55.7c0,0.1,0,0.1,0,0.2c0,0.1-0.1,0.1-0.1,0.2c0,0-0.1,0.1-0.2,0.1c-0.1,0-0.1,0-0.2,0
		c-0.1,0-0.1,0-0.2,0c-0.1,0-0.1-0.1-0.2-0.1c0,0-0.1-0.1-0.1-0.2c0-0.1,0-0.1,0-0.2v-0.5c-0.6,0.7-1.4,1-2.3,1
		c-0.9,0-1.7-0.3-2.3-0.9c-0.6-0.6-0.9-1.4-0.9-2.3s0.3-1.6,0.9-2.3c0.6-0.6,1.4-1,2.3-1c0.9,0,1.6,0.3,2.3,1v-0.5
		c0-0.1,0-0.2,0.1-0.3c0.1-0.1,0.2-0.2,0.3-0.2c0.1,0,0.1,0,0.2,0c0.1,0,0.1,0.1,0.2,0.1c0,0,0.1,0.1,0.1,0.2c0,0.1,0,0.1,0,0.2
		V55.7z M292.4,52.9c0-0.6-0.2-1.1-0.7-1.6c-0.4-0.4-1-0.7-1.6-0.7s-1.1,0.2-1.6,0.7c-0.4,0.4-0.7,1-0.7,1.6c0,0.6,0.2,1.1,0.7,1.6
		c0.4,0.4,1,0.7,1.6,0.7c0.6,0,1.1-0.2,1.6-0.7C292.2,54.1,292.4,53.5,292.4,52.9z"/>
	<path fill="#009590" d="M298.3,50.2c0,0.1-0.1,0.2-0.2,0.3c-0.1,0.1-0.2,0.1-0.3,0.1c-0.6,0-1.2,0.2-1.6,0.7
		c-0.4,0.4-0.7,1-0.7,1.6v2.7c0,0.1,0,0.1,0,0.2c0,0.1-0.1,0.1-0.1,0.2c0,0-0.1,0.1-0.2,0.1c-0.1,0-0.1,0-0.2,0
		c-0.1,0-0.2,0-0.3-0.1c-0.1-0.1-0.1-0.2-0.1-0.3v-5.5c0-0.1,0-0.2,0.1-0.3c0.1-0.1,0.2-0.2,0.3-0.2c0.1,0,0.2,0.1,0.3,0.2
		c0.1,0.1,0.1,0.2,0.1,0.3v0.5c0.6-0.7,1.3-1,2.3-1c0.1,0,0.2,0.1,0.3,0.2C298.3,49.9,298.3,50,298.3,50.2z"/>
	<path fill="#009590" d="M309.7,52.9c0,0.9-0.3,1.6-1,2.3c-0.6,0.6-1.4,0.9-2.3,0.9c-0.9,0-1.7-0.3-2.3-1v2.3c0,0.1,0,0.2-0.1,0.3
		c-0.1,0.1-0.2,0.2-0.3,0.2c-0.1,0-0.2-0.1-0.3-0.2c-0.1-0.1-0.1-0.2-0.1-0.3v-7.3c0-0.1,0-0.2,0.1-0.3c0.1-0.1,0.2-0.2,0.3-0.2
		c0.1,0,0.2,0.1,0.3,0.2c0.1,0.1,0.1,0.2,0.1,0.3v0.5c0.6-0.7,1.4-1,2.3-1c0.9,0,1.6,0.3,2.3,1C309.4,51.3,309.7,52,309.7,52.9z
		 M308.7,52.9c0-0.6-0.2-1.1-0.7-1.6c-0.4-0.4-1-0.7-1.6-0.7c-0.6,0-1.2,0.2-1.6,0.7c-0.4,0.4-0.7,1-0.7,1.6c0,0.6,0.2,1.1,0.7,1.6
		c0.4,0.4,1,0.7,1.6,0.7c0.6,0,1.1-0.2,1.6-0.7C308.5,54.1,308.7,53.5,308.7,52.9z"/>
	<path fill="#009590" d="M317,55.7c0,0.1,0,0.1,0,0.2c0,0.1-0.1,0.1-0.1,0.2c0,0-0.1,0.1-0.2,0.1c-0.1,0-0.1,0-0.2,0
		c-0.1,0-0.3,0-0.3-0.1s-0.1-0.2-0.1-0.3v-0.5c-0.6,0.7-1.4,1-2.3,1c-0.9,0-1.6-0.3-2.2-1c-0.6-0.6-0.9-1.4-0.9-2.3v-2.7
		c0-0.1,0-0.2,0.1-0.3c0.1-0.1,0.2-0.2,0.3-0.2c0.1,0,0.2,0.1,0.3,0.2c0.1,0.1,0.1,0.2,0.1,0.3v2.7c0,0.6,0.2,1.1,0.7,1.6
		c0.4,0.4,1,0.7,1.6,0.7c0.6,0,1.1-0.2,1.6-0.7c0.4-0.4,0.7-1,0.7-1.6v-2.7c0-0.1,0-0.2,0.1-0.3c0.1-0.1,0.2-0.2,0.3-0.2
		c0.1,0,0.2,0.1,0.3,0.2c0.1,0.1,0.1,0.2,0.1,0.3V55.7z"/>
	<path fill="#009590" d="M324.6,55.7c0,0.1,0,0.1,0,0.2c0,0.1-0.1,0.1-0.1,0.2c0,0-0.1,0.1-0.2,0.1c-0.1,0-0.1,0-0.2,0
		c-0.1,0-0.3,0-0.3-0.1s-0.1-0.2-0.1-0.3v-2.7c0-0.6-0.2-1.1-0.7-1.6c-0.4-0.4-1-0.7-1.6-0.7c-0.6,0-1.2,0.2-1.6,0.7
		c-0.4,0.4-0.7,1-0.7,1.6v2.7c0,0.1,0,0.1,0,0.2c0,0.1-0.1,0.1-0.1,0.2c0,0-0.1,0.1-0.2,0.1s-0.1,0-0.2,0c-0.1,0-0.2,0-0.3-0.1
		c-0.1-0.1-0.1-0.2-0.1-0.3v-5.5c0-0.1,0-0.2,0.1-0.3c0.1-0.1,0.2-0.2,0.3-0.2c0.1,0,0.2,0.1,0.3,0.2c0.1,0.1,0.1,0.2,0.1,0.3v0.5
		c0.6-0.7,1.4-1,2.3-1c0.9,0,1.6,0.3,2.2,1c0.6,0.6,0.9,1.4,0.9,2.3V55.7z"/>
	<path fill="#009590" d="M331.1,51c0,0.1-0.1,0.2-0.2,0.3c-0.1,0.1-0.2,0.1-0.3,0.1c-0.1,0-0.1,0-0.2,0c-0.1,0-0.1-0.1-0.2-0.1
		s-0.1-0.1-0.1-0.1c0,0-0.1-0.1-0.1-0.1c-0.4-0.3-0.8-0.4-1.3-0.4c-0.6,0-1.1,0.2-1.6,0.7c-0.4,0.4-0.7,1-0.7,1.6
		c0,0.6,0.2,1.1,0.7,1.6c0.4,0.4,1,0.7,1.6,0.7c0.5,0,1-0.1,1.3-0.4c0,0,0.1-0.1,0.1-0.1c0,0,0.1-0.1,0.1-0.1
		c0.1-0.1,0.2-0.1,0.3-0.1c0.1,0,0.1,0,0.2,0c0.1,0,0.1,0.1,0.2,0.1c0,0,0.1,0.1,0.1,0.2c0,0.1,0,0.1,0,0.2c0,0.2-0.2,0.4-0.5,0.6
		c-0.6,0.4-1.3,0.6-1.9,0.6c-0.9,0-1.7-0.3-2.3-0.9c-0.6-0.6-0.9-1.4-0.9-2.3s0.3-1.6,0.9-2.3c0.6-0.6,1.4-1,2.3-1
		c0.7,0,1.3,0.2,1.9,0.6C330.9,50.6,331.1,50.8,331.1,51z"/>
	<path fill="#009590" d="M335.9,55.7c0,0.1-0.1,0.2-0.2,0.3c-0.1,0.1-0.2,0.1-0.3,0.1h-2c-0.1,0-0.2,0-0.3-0.1
		c-0.1-0.1-0.1-0.2-0.1-0.3v-5h-0.8c-0.1,0-0.1,0-0.2,0c-0.1,0-0.1-0.1-0.2-0.1c0,0-0.1-0.1-0.1-0.2c0-0.1,0-0.1,0-0.2
		c0-0.1,0-0.2,0.1-0.3c0.1-0.1,0.2-0.2,0.3-0.2h0.8v-0.4c0-0.1,0-0.1,0-0.2c0-0.1,0.1-0.1,0.1-0.2c0,0,0.1-0.1,0.2-0.1
		c0.1,0,0.1,0,0.2,0c0.1,0,0.2,0,0.3,0.1c0.1,0.1,0.1,0.2,0.1,0.3v0.4h0.8c0.1,0,0.2,0.1,0.3,0.2c0.1,0.1,0.2,0.2,0.2,0.3
		c0,0.1-0.1,0.2-0.2,0.3c-0.1,0.1-0.2,0.1-0.3,0.1h-0.8v4.5h1.5c0.1,0,0.2,0.1,0.3,0.2C335.8,55.4,335.9,55.5,335.9,55.7z"/>
	<path fill="#009590" d="M342.6,55.7c0,0.1,0,0.1,0,0.2c0,0.1-0.1,0.1-0.1,0.2c0,0-0.1,0.1-0.2,0.1c-0.1,0-0.1,0-0.2,0
		c-0.1,0-0.3,0-0.3-0.1c-0.1-0.1-0.1-0.2-0.1-0.3v-0.5c-0.6,0.7-1.4,1-2.3,1c-0.9,0-1.6-0.3-2.2-1c-0.6-0.6-0.9-1.4-0.9-2.3v-2.7
		c0-0.1,0-0.2,0.1-0.3c0.1-0.1,0.2-0.2,0.3-0.2c0.1,0,0.2,0.1,0.3,0.2c0.1,0.1,0.1,0.2,0.1,0.3v2.7c0,0.6,0.2,1.1,0.7,1.6
		c0.4,0.4,1,0.7,1.6,0.7c0.6,0,1.1-0.2,1.6-0.7c0.4-0.4,0.7-1,0.7-1.6v-2.7c0-0.1,0-0.2,0.1-0.3c0.1-0.1,0.2-0.2,0.3-0.2
		c0.1,0,0.2,0.1,0.3,0.2c0.1,0.1,0.1,0.2,0.1,0.3V55.7z"/>
	<path fill="#009590" d="M347.5,50.2c0,0.1-0.1,0.2-0.2,0.3c-0.1,0.1-0.2,0.1-0.3,0.1c-0.6,0-1.2,0.2-1.6,0.7
		c-0.4,0.4-0.7,1-0.7,1.6v2.7c0,0.1,0,0.1,0,0.2c0,0.1-0.1,0.1-0.1,0.2c0,0-0.1,0.1-0.2,0.1c-0.1,0-0.1,0-0.2,0
		c-0.1,0-0.2,0-0.3-0.1c-0.1-0.1-0.1-0.2-0.1-0.3v-5.5c0-0.1,0-0.2,0.1-0.3c0.1-0.1,0.2-0.2,0.3-0.2s0.2,0.1,0.3,0.2
		c0.1,0.1,0.1,0.2,0.1,0.3v0.5c0.6-0.7,1.3-1,2.3-1c0.1,0,0.2,0.1,0.3,0.2C347.5,49.9,347.5,50,347.5,50.2z"/>
	<path fill="#009590" d="M353.3,51c0,0.1-0.1,0.3-0.1,0.4l-3.5,3.5c0.4,0.2,0.8,0.3,1.2,0.3c0.5,0,1-0.1,1.3-0.4
		c0,0,0.1-0.1,0.1-0.1c0,0,0.1-0.1,0.1-0.1c0.1-0.1,0.2-0.1,0.3-0.1c0.1,0,0.1,0,0.2,0c0.1,0,0.1,0.1,0.2,0.1c0,0,0.1,0.1,0.1,0.2
		c0,0.1,0,0.1,0,0.2c0,0.2-0.2,0.4-0.5,0.6c-0.6,0.4-1.3,0.6-1.9,0.6c-0.9,0-1.7-0.3-2.3-0.9c-0.6-0.6-0.9-1.4-0.9-2.3
		s0.3-1.6,0.9-2.3c0.6-0.6,1.4-1,2.3-1c0.6,0,1.3,0.2,1.9,0.6C353.1,50.5,353.3,50.8,353.3,51z M352.1,51c-0.4-0.3-0.8-0.4-1.3-0.4
		c-0.6,0-1.1,0.2-1.6,0.7c-0.4,0.4-0.7,1-0.7,1.6c0,0.5,0.1,0.9,0.4,1.2L352.1,51z"/>
	<path fill="#009590" d="M357.7,54.3c0,0.5-0.2,0.9-0.5,1.3c-0.4,0.4-0.8,0.5-1.3,0.5c-0.3,0-0.7-0.1-0.9-0.2
		c-0.3-0.2-0.5-0.4-0.7-0.7c0-0.1-0.1-0.2-0.1-0.2c0-0.1,0-0.1,0-0.2c0-0.1,0.1-0.1,0.1-0.2c0,0,0.1-0.1,0.2-0.1c0.1,0,0.1,0,0.2,0
		c0.1,0,0.3,0.1,0.5,0.3c0.2,0.2,0.4,0.3,0.7,0.3c0.2,0,0.4-0.1,0.6-0.3s0.3-0.4,0.3-0.6c0-0.2-0.1-0.4-0.3-0.6s-0.4-0.3-0.6-0.3
		c-0.5,0-0.9-0.2-1.3-0.5c-0.4-0.4-0.5-0.8-0.5-1.3s0.2-0.9,0.5-1.3c0.4-0.4,0.8-0.6,1.3-0.6c0.3,0,0.6,0.1,0.9,0.3
		c0.3,0.2,0.5,0.4,0.7,0.7c0,0.1,0.1,0.2,0.1,0.2c0,0.1,0,0.2-0.1,0.3c-0.1,0.1-0.2,0.1-0.3,0.1c-0.1,0-0.3-0.1-0.5-0.3
		c-0.2-0.2-0.4-0.3-0.7-0.3c-0.2,0-0.4,0.1-0.6,0.3c-0.2,0.2-0.3,0.4-0.3,0.6c0,0.2,0.1,0.4,0.3,0.6c0.2,0.2,0.4,0.3,0.6,0.3
		c0.5,0,0.9,0.2,1.3,0.5C357.5,53.3,357.7,53.8,357.7,54.3z"/>
	<path fill="#009590" d="M202.2,68.6c0,0.1,0,0.1,0,0.2c0,0.1-0.1,0.1-0.1,0.2c0,0-0.1,0.1-0.2,0.1c-0.1,0-0.1,0-0.2,0
		c-0.1,0-0.2,0-0.3-0.1c-0.1-0.1-0.1-0.2-0.1-0.3v-5.5c0-0.1,0-0.2,0.1-0.3c0.1-0.1,0.2-0.2,0.3-0.2s0.2,0.1,0.3,0.2
		c0.1,0.1,0.1,0.2,0.1,0.3V68.6z"/>
	<path fill="#009590" d="M209.8,68.6c0,0.1,0,0.1,0,0.2c0,0.1-0.1,0.1-0.1,0.2c0,0-0.1,0.1-0.2,0.1c-0.1,0-0.1,0-0.2,0
		c-0.1,0-0.3,0-0.3-0.1c-0.1-0.1-0.1-0.2-0.1-0.3v-2.7c0-0.6-0.2-1.1-0.7-1.6c-0.4-0.4-1-0.7-1.6-0.7c-0.6,0-1.2,0.2-1.6,0.7
		c-0.4,0.4-0.7,1-0.7,1.6v2.7c0,0.1,0,0.1,0,0.2c0,0.1-0.1,0.1-0.1,0.2c0,0-0.1,0.1-0.2,0.1c-0.1,0-0.1,0-0.2,0
		c-0.1,0-0.2,0-0.3-0.1c-0.1-0.1-0.1-0.2-0.1-0.3v-5.5c0-0.1,0-0.2,0.1-0.3c0.1-0.1,0.2-0.2,0.3-0.2s0.2,0.1,0.3,0.2
		c0.1,0.1,0.1,0.2,0.1,0.3v0.5c0.6-0.7,1.4-1,2.3-1c0.9,0,1.6,0.3,2.2,1c0.6,0.6,0.9,1.4,0.9,2.3V68.6z"/>
	<path fill="#009590" d="M221.4,68.6c0,0.1,0,0.1,0,0.2c0,0.1-0.1,0.1-0.1,0.2c0,0-0.1,0.1-0.2,0.1c-0.1,0-0.1,0-0.2,0
		c-0.1,0-0.3,0-0.3-0.1c-0.1-0.1-0.1-0.2-0.1-0.3v-2.7c0-0.6-0.2-1.1-0.7-1.6c-0.4-0.4-1-0.7-1.6-0.7c-0.6,0-1.2,0.2-1.6,0.7
		c-0.4,0.4-0.7,1-0.7,1.6v2.7c0,0.1,0,0.1,0,0.2c0,0.1-0.1,0.1-0.1,0.2c0,0-0.1,0.1-0.2,0.1c-0.1,0-0.1,0-0.2,0
		c-0.1,0-0.2,0-0.3-0.1c-0.1-0.1-0.1-0.2-0.1-0.3v-5.5c0-0.1,0-0.2,0.1-0.3c0.1-0.1,0.2-0.2,0.3-0.2s0.2,0.1,0.3,0.2
		c0.1,0.1,0.1,0.2,0.1,0.3v0.5c0.6-0.7,1.4-1,2.3-1c0.9,0,1.6,0.3,2.2,1c0.6,0.6,0.9,1.4,0.9,2.3V68.6z"/>
	<path fill="#009590" d="M227.9,63.9c0,0.1-0.1,0.3-0.1,0.4l-3.5,3.5c0.4,0.2,0.8,0.3,1.2,0.3c0.5,0,1-0.1,1.3-0.4
		c0,0,0.1-0.1,0.1-0.1c0,0,0.1-0.1,0.1-0.1c0.1-0.1,0.2-0.1,0.3-0.1c0.1,0,0.1,0,0.2,0c0.1,0,0.1,0.1,0.2,0.1c0,0,0.1,0.1,0.1,0.2
		c0,0.1,0,0.1,0,0.2c0,0.2-0.2,0.4-0.5,0.6c-0.6,0.4-1.3,0.6-1.9,0.6c-0.9,0-1.7-0.3-2.3-0.9c-0.6-0.6-0.9-1.4-0.9-2.3
		c0-0.9,0.3-1.6,0.9-2.3c0.6-0.6,1.4-1,2.3-1c0.6,0,1.3,0.2,1.9,0.6C227.7,63.5,227.9,63.7,227.9,63.9z M226.7,64
		c-0.4-0.3-0.8-0.4-1.3-0.4c-0.6,0-1.1,0.2-1.6,0.7c-0.4,0.4-0.7,1-0.7,1.6c0,0.5,0.1,0.9,0.4,1.2L226.7,64z"/>
	<path fill="#009590" d="M237,63.1c0,0.1,0,0.1,0,0.2l-2.4,5.4c0,0,0,0,0,0c0,0,0,0,0,0.1c-0.1,0.2-0.2,0.3-0.5,0.3
		c-0.2,0-0.4-0.1-0.4-0.3c0,0,0,0,0,0s0,0,0-0.1l-0.9-1.9l-0.9,1.9c0,0,0,0,0,0c0,0,0,0,0,0.1c-0.1,0.2-0.2,0.3-0.5,0.3
		c-0.2,0-0.4-0.1-0.4-0.3c0,0,0,0,0,0c0,0,0,0,0-0.1l-2.4-5.4c0-0.1,0-0.1,0-0.2c0-0.1,0-0.2,0.1-0.3c0.1-0.1,0.2-0.2,0.3-0.2
		c0.2,0,0.4,0.1,0.4,0.3l2,4.5l0.8-1.8l-1-2.2c0-0.1,0-0.1,0-0.2c0-0.1,0-0.2,0.1-0.3c0.1-0.1,0.2-0.2,0.3-0.2
		c0.2,0,0.4,0.1,0.4,0.3l0.6,1.4l0.6-1.4c0.1-0.2,0.2-0.3,0.4-0.3c0.1,0,0.2,0.1,0.3,0.2c0.1,0.1,0.2,0.2,0.2,0.3c0,0.1,0,0.1,0,0.2
		l-1,2.2l0.8,1.8l2-4.5c0.1-0.2,0.2-0.3,0.4-0.3c0.1,0,0.2,0.1,0.3,0.2C236.9,62.9,237,63,237,63.1z"/>
	<path fill="#009590" d="M244.1,65.9c0,0.9-0.3,1.6-1,2.3c-0.6,0.6-1.4,0.9-2.3,0.9c-0.9,0-1.7-0.3-2.3-1v0.5c0,0.1,0,0.1,0,0.2
		c0,0.1-0.1,0.1-0.1,0.2c0,0-0.1,0.1-0.2,0.1c-0.1,0-0.1,0-0.2,0c-0.1,0-0.2,0-0.3-0.1c-0.1-0.1-0.1-0.2-0.1-0.3v-6.4
		c0-0.1,0-0.1,0-0.2s0.1-0.1,0.1-0.2c0,0,0.1-0.1,0.2-0.1c0.1,0,0.1,0,0.2,0c0.1,0,0.2,0,0.3,0.1c0.1,0.1,0.1,0.2,0.1,0.3v1.4
		c0.6-0.7,1.4-1,2.3-1c0.9,0,1.6,0.3,2.3,1C243.8,64.2,244.1,65,244.1,65.9z M243.1,65.9c0-0.6-0.2-1.1-0.7-1.6
		c-0.4-0.4-1-0.7-1.6-0.7c-0.6,0-1.2,0.2-1.6,0.7c-0.4,0.4-0.7,1-0.7,1.6c0,0.6,0.2,1.1,0.7,1.6c0.4,0.4,1,0.7,1.6,0.7
		c0.6,0,1.1-0.2,1.6-0.7C242.9,67,243.1,66.5,243.1,65.9z"/>
	<path fill="#009590" d="M251.1,65.9c0,0.9-0.3,1.6-1,2.3c-0.6,0.6-1.4,0.9-2.3,0.9s-1.7-0.3-2.3-0.9c-0.6-0.6-0.9-1.4-0.9-2.3
		c0-0.9,0.3-1.6,0.9-2.3c0.6-0.6,1.4-1,2.3-1s1.6,0.3,2.3,1C250.8,64.2,251.1,65,251.1,65.9z M250.1,65.9c0-0.6-0.2-1.1-0.7-1.6
		c-0.4-0.4-1-0.7-1.6-0.7c-0.6,0-1.1,0.2-1.6,0.7c-0.4,0.4-0.7,1-0.7,1.6c0,0.6,0.2,1.1,0.7,1.6c0.4,0.4,1,0.7,1.6,0.7
		c0.6,0,1.1-0.2,1.6-0.7C249.9,67,250.1,66.5,250.1,65.9z"/>
	<path fill="#009590" d="M255.7,63.1c0,0.1-0.1,0.2-0.2,0.3c-0.1,0.1-0.2,0.1-0.3,0.1c-0.6,0-1.2,0.2-1.6,0.7
		c-0.4,0.4-0.7,1-0.7,1.6v2.7c0,0.1,0,0.1,0,0.2c0,0.1-0.1,0.1-0.1,0.2c0,0-0.1,0.1-0.2,0.1c-0.1,0-0.1,0-0.2,0
		c-0.1,0-0.2,0-0.3-0.1c-0.1-0.1-0.1-0.2-0.1-0.3v-5.5c0-0.1,0-0.2,0.1-0.3c0.1-0.1,0.2-0.2,0.3-0.2s0.2,0.1,0.3,0.2
		c0.1,0.1,0.1,0.2,0.1,0.3v0.5c0.6-0.7,1.3-1,2.3-1c0.1,0,0.2,0.1,0.3,0.2C255.7,62.9,255.7,63,255.7,63.1z"/>
	<path fill="#009590" d="M262.9,68.6c0,0.1,0,0.1,0,0.2c0,0.1-0.1,0.1-0.1,0.2c0,0-0.1,0.1-0.2,0.1c-0.1,0-0.1,0-0.2,0
		c-0.1,0-0.3,0-0.3-0.1c-0.1-0.1-0.1-0.2-0.1-0.3v-2.7c0-0.6-0.2-1.1-0.7-1.6c-0.4-0.4-1-0.7-1.6-0.7c-0.6,0-1.2,0.2-1.6,0.7
		c-0.4,0.4-0.7,1-0.7,1.6v2.7c0,0.1,0,0.1,0,0.2c0,0.1-0.1,0.1-0.1,0.2c0,0-0.1,0.1-0.2,0.1c-0.1,0-0.1,0-0.2,0
		c-0.1,0-0.2,0-0.3-0.1c-0.1-0.1-0.1-0.2-0.1-0.3v-5.5c0-0.1,0-0.2,0.1-0.3c0.1-0.1,0.2-0.2,0.3-0.2c0.1,0,0.2,0.1,0.3,0.2
		c0.1,0.1,0.1,0.2,0.1,0.3v0.5c0.6-0.7,1.4-1,2.3-1c0.9,0,1.6,0.3,2.2,1c0.6,0.6,0.9,1.4,0.9,2.3V68.6z"/>
	<path fill="#009590" d="M267.4,67.2c0,0.5-0.2,0.9-0.5,1.3s-0.8,0.5-1.3,0.5c-0.3,0-0.7-0.1-0.9-0.2c-0.3-0.2-0.5-0.4-0.7-0.7
		c0-0.1-0.1-0.2-0.1-0.2c0-0.1,0-0.1,0-0.2c0-0.1,0.1-0.1,0.1-0.2c0,0,0.1-0.1,0.2-0.1c0.1,0,0.1,0,0.2,0c0.1,0,0.3,0.1,0.5,0.3
		c0.2,0.2,0.4,0.3,0.7,0.3c0.2,0,0.4-0.1,0.6-0.3s0.3-0.4,0.3-0.6c0-0.2-0.1-0.4-0.3-0.6s-0.4-0.3-0.6-0.3c-0.5,0-0.9-0.2-1.3-0.5
		c-0.4-0.4-0.5-0.8-0.5-1.3c0-0.5,0.2-0.9,0.5-1.3c0.4-0.4,0.8-0.6,1.3-0.6c0.3,0,0.6,0.1,0.9,0.3c0.3,0.2,0.5,0.4,0.7,0.7
		c0,0.1,0.1,0.2,0.1,0.2c0,0.1,0,0.2-0.1,0.3c-0.1,0.1-0.2,0.1-0.3,0.1c-0.1,0-0.3-0.1-0.5-0.3c-0.2-0.2-0.4-0.3-0.7-0.3
		c-0.2,0-0.4,0.1-0.6,0.3c-0.2,0.2-0.3,0.4-0.3,0.6c0,0.2,0.1,0.4,0.3,0.6s0.4,0.3,0.6,0.3c0.5,0,0.9,0.2,1.3,0.5
		C267.2,66.3,267.4,66.7,267.4,67.2z"/>
</g>
<g>
	<path fill="#009590" d="M214.3,26.8c-3.6,0-6.8-1.3-9.4-3.9c-2.6-2.6-3.9-5.8-3.9-9.4c0-3.6,1.3-6.8,3.9-9.4
		c2.6-2.6,5.8-3.9,9.4-3.9c2.7,0,5.4,0.9,8,2.7c1.4,1,2.1,1.8,2.1,2.6c0,0.3-0.1,0.5-0.2,0.7c-0.1,0.2-0.2,0.4-0.4,0.6
		c-0.2,0.2-0.4,0.3-0.6,0.4c-0.7,0.3-1.5,0.2-2.1-0.4c-0.4-0.3-0.7-0.6-1-0.9c-1.5-1.3-3.5-1.9-5.7-1.9c-2.6,0-4.9,1-6.8,2.8
		c-1.9,1.9-2.8,4.1-2.8,6.7c0,2.6,1,4.9,2.8,6.8c1.9,1.9,4.2,2.8,6.8,2.8c2.3,0,4.2-0.6,5.8-1.9c0.3-0.3,0.6-0.6,1-0.9
		c0.6-0.6,1.4-0.7,2.1-0.4c0.2,0.1,0.4,0.2,0.6,0.4c0.2,0.2,0.3,0.4,0.4,0.6c0.1,0.2,0.2,0.5,0.2,0.7c0,0.8-0.7,1.7-2.1,2.6
		C219.7,25.9,217,26.8,214.3,26.8z"/>
</g>
<g>
	<path fill="#009590" d="M254.4,26.8h-14.9c-0.5,0-1-0.2-1.3-0.6c-0.4-0.4-0.6-0.8-0.6-1.3v-23c0-0.3,0.1-0.5,0.2-0.7
		c0.1-0.2,0.2-0.4,0.4-0.6c0.2-0.2,0.4-0.3,0.6-0.4c0.5-0.2,1-0.2,1.5,0c0.2,0.1,0.4,0.2,0.6,0.4c0.2,0.2,0.3,0.4,0.4,0.6
		c0.1,0.2,0.2,0.5,0.2,0.7V23h13c0.5,0,1,0.2,1.3,0.6c0.4,0.4,0.6,0.8,0.6,1.3c0,0.5-0.2,1-0.6,1.3
		C255.4,26.6,254.9,26.8,254.4,26.8z"/>
</g>
<g>
	<path fill="#009590" d="M286.4,26.8h-14.9c-0.5,0-1-0.2-1.3-0.6c-0.4-0.4-0.6-0.8-0.6-1.3v-23c0-0.3,0.1-0.5,0.2-0.7
		c0.1-0.2,0.2-0.4,0.4-0.6c0.2-0.2,0.4-0.3,0.6-0.4c0.2-0.1,0.5-0.2,0.7-0.2h14.9c0.3,0,0.5,0.1,0.7,0.2c0.2,0.1,0.4,0.2,0.6,0.4
		c0.2,0.2,0.3,0.4,0.4,0.6c0.1,0.2,0.2,0.5,0.2,0.7c0,0.5-0.2,1-0.6,1.3c-0.4,0.4-0.8,0.6-1.3,0.6h-13v7.7h9.8
		c0.5,0,0.9,0.2,1.3,0.6c0.4,0.4,0.6,0.8,0.6,1.3c0,0.2-0.1,0.5-0.2,0.7c-0.1,0.2-0.2,0.4-0.4,0.6c-0.2,0.2-0.4,0.3-0.6,0.4
		c-0.2,0.1-0.5,0.2-0.7,0.2h-9.8V23h13c0.5,0,1,0.2,1.3,0.6c0.4,0.4,0.6,0.8,0.6,1.3s-0.2,1-0.6,1.3
		C287.4,26.6,286.9,26.8,286.4,26.8z"/>
</g>
<path fill="#009590" d="M324,24.1l-9.3-22.8c-0.4-1.1-1.2-1.4-1.8-1.4c-0.6,0-1.3,0.2-1.8,1.4l-9.3,22.8c-0.1,0.2-0.1,0.4-0.1,0.7
	c0,0.5,0.2,1,0.5,1.3c0.4,0.4,0.8,0.6,1.3,0.6c0.9,0,1.5-0.4,1.8-1.2l2.1-5.3h10.9l2.2,5.3c0.3,0.8,0.9,1.2,1.8,1.2
	c0.5,0,1-0.2,1.3-0.6c0.4-0.4,0.5-0.8,0.5-1.3C324.1,24.6,324,24.4,324,24.1z M309,16.5l3.9-9.6l3.9,9.6H309z"/>
<path fill="#009590" d="M351.6,18c1.7-0.6,3.1-1.6,4.2-3.1c1.3-1.7,1.9-3.6,1.9-5.6c0-2.5-0.9-4.7-2.7-6.5c-1.8-1.8-4-2.7-6.5-2.7
	h-11.1v24.9c0,0.5,0.2,1,0.6,1.3c0.7,0.7,1.9,0.7,2.7,0c0.4-0.4,0.6-0.8,0.6-1.3v-6.4h5.6l7.7,7.7c0.4,0.4,0.8,0.5,1.3,0.5
	c0.3,0,0.5-0.1,0.7-0.2c0.2-0.1,0.4-0.2,0.6-0.4c0.2-0.2,0.3-0.4,0.4-0.6c0.1-0.2,0.2-0.5,0.2-0.7c0-0.5-0.2-1-0.5-1.3L351.6,18z
	 M341.2,14.7V3.8h7.3c1.5,0,2.8,0.5,3.8,1.6c1.1,1.1,1.6,2.3,1.6,3.8c0,1.5-0.5,2.8-1.6,3.9c-1.1,1.1-2.3,1.6-3.8,1.6H341.2z"/>
<path fill="#B51A82" d="M155.4,27.6c4.1,0,7.3,3.3,7.3,7.4c0,4.1-3.3,7.3-7.3,7.3c-4.1,0-7.4-3.3-7.4-7.3
	C148.1,30.9,151.3,27.6,155.4,27.6"/>
<path fill="#009590" d="M360.6,31.8h-191c0.2,1,0.4,2.1,0.4,3.2c0,1.1-0.1,2.1-0.4,3.1h191c1.7,0,3.1-1.4,3.1-3.2
	S362.4,31.8,360.6,31.8z"/>
<path fill="#009590" d="M73.5,69.1c-0.8,0-1.5-0.3-2.2-0.9c-0.6-0.6-0.9-1.3-0.9-2.2V3.9c0-0.4,0.1-0.7,0.2-1.1
	c0.2-0.4,0.4-0.7,0.7-1c0.3-0.3,0.6-0.5,1-0.7c0.4-0.2,0.7-0.3,1.1-0.3h45.4c0.4,0,0.8,0.1,1.1,0.3c0.4,0.2,0.7,0.4,1,0.7
	c0.3,0.3,0.5,0.6,0.7,1c0.2,0.4,0.3,0.7,0.3,1.1c0,0.8-0.3,1.5-0.9,2.2c-0.6,0.6-1.3,0.9-2.2,0.9H76.5v55.9h42.2
	c0.8,0,1.5,0.3,2.2,0.9c0.6,0.6,0.9,1.3,0.9,2.2c0,0.8-0.3,1.5-0.9,2.2c-0.6,0.6-1.3,0.9-2.2,0.9H73.5z"/>
<path fill="#B51A82" d="M56.4,69.1c-0.9,0-1.8-0.5-2.7-1.5l-47.5-55V66c0,0.8-0.3,1.5-0.9,2.2c-0.6,0.6-1.3,0.9-2.2,0.9
	c-0.8,0-1.5-0.3-2.2-0.9C0.3,67.5,0,66.8,0,66V3.9c0-0.4,0.1-0.7,0.2-1.1c0.2-0.4,0.4-0.7,0.7-1c0.3-0.3,0.6-0.5,1-0.7
	c0.4-0.2,0.7-0.3,1.1-0.3c1,0,1.7,0.3,2.2,0.8l48.1,55.7V3.9c0-0.4,0.1-0.7,0.2-1.1c0.2-0.4,0.4-0.7,0.7-1c0.3-0.3,0.6-0.5,1-0.7
	c0.4-0.2,0.7-0.3,1.1-0.3c0.4,0,0.8,0.1,1.1,0.3c0.4,0.2,0.7,0.4,1,0.7c0.3,0.3,0.5,0.6,0.7,1c0.2,0.4,0.3,0.7,0.3,1.1V66
	c0,0.8-0.3,1.5-0.9,2.2C58,68.8,57.3,69.1,56.4,69.1z"/>
<path fill="#009590" d="M140.9,35c0-1.1,0.1-2.1,0.4-3.1H90.3c-1.7,0-3.2,1.4-3.2,3.2s1.4,3.2,3.2,3.2h50.9
	C141,37.1,140.9,36,140.9,35z"/>
</svg>
