<?xml version="1.0" encoding="utf-8"?>
<!-- Generator: Adobe Illustrator 15.1.0, SVG Export Plug-In . SVG Version: 6.00 Build 0)  -->
<!DOCTYPE svg PUBLIC "-//W3C//DTD SVG 1.1//EN" "http://www.w3.org/Graphics/SVG/1.1/DTD/svg11.dtd">
<svg version="1.1" id="Layer_1" xmlns="http://www.w3.org/2000/svg" xmlns:xlink="http://www.w3.org/1999/xlink" x="0px" y="0px"
	 width="441.145px" height="212.596px" viewBox="0 0 441.145 212.596" enable-background="new 0 0 441.145 212.596"
	 xml:space="preserve">
<path fill="#588EC6" d="M239.766,6.624c-15.615-5.82-31.19-7.86-45.04-5.901c-32.819,4.648-53.445,30.568-52.546,66.033
	c0.685,26.888,11.423,51.062,29.464,66.334c15.02,12.71,33.904,18.207,53.18,15.477c19.439-2.754,39.357-9.77,56.082-19.754
	c17.725-10.583,30.131-23.57,34.939-36.578C326.444,63.551,293.739,26.75,239.766,6.624z M308.016,82.72
	c-7.996,21.639-44.502,43.432-81.527,48.677c-37.031,5.247-67.956-26.242-69.078-70.331c-1.119-44.089,35.381-65.885,81.529-48.679
	C285.086,29.594,316.01,61.081,308.016,82.72z"/>
<g>
	<g>
		<path fill="#588EC6" d="M289.442,74.728c-11.297,22.476-35.068,54.06-80.365,57.825c0,0-47.913,4.33-41.653-28.97
			c0,0,5.133-24.563,37.096-9.418c0,0,45.651,22.932,81.079-21.913c0,0,1.486-2.104,3.289-0.858
			C288.885,71.392,290.52,72.563,289.442,74.728z"/>
	</g>
	<g>
		<path fill="#605D59" d="M213.936,86.347c29.057,2.604,37.225-21.29,37.225-21.29c5.033-13.328,19.498-11.749,19.498-11.749
			c20.396,3.915-5.35,27.281-5.35,27.281c-18.471,14.967-39.574,12.301-52.441,8.396c0,0-1.608-0.392-1.433-1.647
			C211.436,87.336,211.502,85.815,213.936,86.347z"/>
	</g>
	<g>
		<path fill="#605D59" d="M283.409,28.834c1.707,8.447-3.77,16.686-12.219,18.382c-8.438,1.705-16.674-3.767-18.377-12.22
			c-1.705-8.445,3.766-16.682,12.213-18.381S281.711,20.381,283.409,28.834z"/>
	</g>
	<g>
		<path fill="#588EC6" d="M245.692,40.459c3.484,17.291-7.713,34.123-24.985,37.604c-17.273,3.479-34.104-7.711-37.592-25.003
			c-3.479-17.27,7.713-34.102,24.979-37.578C225.364,12.004,242.208,23.185,245.692,40.459z"/>
	</g>
	<path fill="#FFFFFF" d="M193.891,94.689c-6.211-1.956-12.416-0.932-15,1.031c3.074-1,8.567-1.244,14.561,0.604
		c5.953,1.634,11.027,4.256,14.279,4.636C204.846,99.637,200.211,96.442,193.891,94.689z"/>
	<path fill="#FFFFFF" d="M273.143,56.223c-2.625-1.113-5.268-0.587-6.432,0.005c1.416,0.26,3.578,0.317,5.895,1.309
		c2.414,0.792,3.314,2.609,3.414,4.106C276.975,60.559,276.112,57.073,273.143,56.223z"/>
	<path fill="#FFFFFF" d="M275.782,20.633c-3.928-2.573-8.291-2.161-10.27-1.371c2.203,0.042,6,0.244,9.51,2.528
		c3.465,2.346,5.125,5.765,6.01,7.78C281.002,27.445,279.686,23.26,275.782,20.633z"/>
	<path fill="#FFFFFF" d="M230.083,23.059c-8.027-5.371-17.067-4.687-21.174-3.038c4.49-0.218,12.557,0.169,19.848,5.04
		c7.316,4.825,10.803,12.098,12.332,16.337C241.026,36.972,238.145,28.372,230.083,23.059z"/>
</g>
<g>
	<path fill="#605D59" d="M0,204.408v-27.866h9.602c2.167,0,3.821,0.135,4.96,0.398c1.596,0.368,2.959,1.033,4.086,1.996
		c1.469,1.24,2.57,2.827,3.3,4.765c0.727,1.93,1.093,4.142,1.093,6.622c0,2.118-0.247,3.992-0.742,5.628
		c-0.495,1.634-1.127,2.984-1.901,4.058c-0.773,1.07-1.62,1.914-2.538,2.529c-0.919,0.612-2.028,1.078-3.325,1.396
		c-1.298,0.316-2.792,0.478-4.478,0.478H0V204.408z M3.689,201.121h5.949c1.839,0,3.279-0.173,4.324-0.513
		c1.046-0.345,1.879-0.823,2.5-1.443c0.876-0.877,1.556-2.053,2.043-3.53c0.487-1.478,0.731-3.266,0.731-5.369
		c0-2.914-0.479-5.154-1.436-6.719c-0.957-1.565-2.119-2.612-3.489-3.146c-0.989-0.381-2.579-0.57-4.771-0.57H3.687v21.29H3.689z"/>
	<path fill="#605D59" d="M41.5,197.906l3.536,0.438c-0.556,2.063-1.59,3.67-3.1,4.812c-1.507,1.14-3.436,1.712-5.779,1.712
		c-2.953,0-5.293-0.911-7.025-2.729c-1.73-1.816-2.596-4.368-2.596-7.651c0-3.396,0.874-6.03,2.624-7.907
		c1.75-1.878,4.018-2.813,6.806-2.813c2.7,0,4.904,0.918,6.614,2.755c1.712,1.839,2.568,4.426,2.568,7.758
		c0,0.2-0.006,0.508-0.019,0.911H30.073c0.127,2.218,0.753,3.915,1.882,5.094c1.127,1.181,2.534,1.77,4.22,1.77
		c1.254,0,2.326-0.328,3.212-0.988C40.273,200.403,40.979,199.354,41.5,197.906z M30.264,192.377h11.271
		c-0.151-1.697-0.582-2.971-1.292-3.821c-1.091-1.317-2.502-1.977-4.24-1.977c-1.571,0-2.891,0.525-3.962,1.576
		C30.97,189.209,30.379,190.616,30.264,192.377z"/>
	<path fill="#605D59" d="M49.254,204.408v-27.866h3.421v27.866H49.254z"/>
	<path fill="#605D59" d="M58.001,180.475v-3.937h3.42v3.937H58.001z M58.001,204.408V184.22h3.42v20.188H58.001L58.001,204.408z"/>
	<path fill="#605D59" d="M72.238,204.408l-7.681-20.188h3.613l4.335,12.09c0.47,1.309,0.898,2.661,1.292,4.068
		c0.304-1.063,0.729-2.346,1.273-3.84l4.486-12.318h3.517l-7.644,20.189h-3.191V204.408L72.238,204.408z"/>
	<path fill="#605D59" d="M99.917,197.906l3.536,0.438c-0.556,2.063-1.59,3.67-3.1,4.812c-1.508,1.14-3.434,1.712-5.778,1.712
		c-2.954,0-5.294-0.911-7.024-2.729c-1.729-1.816-2.594-4.368-2.594-7.651c0-3.396,0.874-6.03,2.623-7.907
		c1.748-1.876,4.018-2.813,6.806-2.813c2.7,0,4.904,0.918,6.616,2.755c1.712,1.839,2.566,4.426,2.566,7.758
		c0,0.2-0.007,0.508-0.02,0.911H88.493c0.127,2.218,0.753,3.915,1.882,5.094c1.127,1.181,2.534,1.77,4.22,1.77
		c1.254,0,2.326-0.328,3.212-0.988C98.693,200.403,99.396,199.354,99.917,197.906z M88.682,192.377h11.271
		c-0.153-1.697-0.583-2.971-1.292-3.821c-1.091-1.317-2.502-1.977-4.239-1.977c-1.571,0-2.892,0.525-3.963,1.576
		C89.387,189.206,88.796,190.616,88.682,192.377z"/>
	<path fill="#605D59" d="M107.711,204.408V184.22h3.081v3.059c0.787-1.434,1.512-2.376,2.177-2.834
		c0.666-0.454,1.397-0.686,2.196-0.686c1.152,0,2.326,0.368,3.517,1.104l-1.178,3.174c-0.837-0.493-1.673-0.742-2.509-0.742
		c-0.748,0-1.418,0.228-2.015,0.674c-0.595,0.45-1.021,1.074-1.273,1.873c-0.381,1.217-0.57,2.548-0.57,3.994v10.566h-3.425
		L107.711,204.408L107.711,204.408z"/>
	<path fill="#605D59" d="M120.561,212.183l-0.381-3.214c0.749,0.202,1.401,0.305,1.958,0.305c0.761,0,1.369-0.127,1.824-0.379
		c0.458-0.257,0.832-0.608,1.123-1.065c0.215-0.343,0.563-1.19,1.046-2.55c0.064-0.189,0.166-0.47,0.304-0.836l-7.662-20.229h3.689
		l4.201,11.688c0.543,1.481,1.033,3.043,1.463,4.677c0.393-1.57,0.861-3.104,1.407-4.601l4.316-11.77h3.421l-7.679,20.53
		c-0.825,2.218-1.463,3.744-1.92,4.583c-0.607,1.126-1.305,1.954-2.089,2.479c-0.787,0.525-1.725,0.788-2.813,0.788
		C122.109,212.602,121.373,212.463,120.561,212.183z"/>
	<path fill="#605D59" d="M149.723,194.315c0-3.737,1.041-6.51,3.119-8.308c1.734-1.498,3.852-2.243,6.348-2.243
		c2.777,0,5.045,0.911,6.806,2.729c1.76,1.816,2.644,4.33,2.644,7.536c0,2.599-0.39,4.643-1.17,6.13
		c-0.779,1.488-1.914,2.646-3.402,3.47c-1.487,0.825-3.114,1.238-4.875,1.238c-2.825,0-5.11-0.907-6.854-2.722
		C150.596,200.333,149.723,197.722,149.723,194.315z M153.241,194.315c0,2.584,0.563,4.521,1.69,5.81
		c1.127,1.285,2.547,1.928,4.26,1.928c1.699,0,3.109-0.646,4.238-1.938c1.127-1.292,1.69-3.262,1.69-5.911
		c0-2.496-0.567-4.389-1.701-5.675c-1.133-1.285-2.542-1.93-4.229-1.93c-1.711,0-3.131,0.64-4.258,1.921
		C153.805,189.797,153.241,191.729,153.241,194.315z"/>
	<path fill="#605D59" d="M173.467,204.408v-17.524h-3.021v-2.661h3.021v-2.146c0-1.356,0.12-2.362,0.36-3.021
		c0.33-0.885,0.91-1.607,1.737-2.156c0.83-0.551,1.994-0.827,3.49-0.827c0.961,0,2.027,0.11,3.192,0.343l-0.515,2.983
		c-0.707-0.128-1.379-0.188-2.016-0.188c-1.039,0-1.773,0.222-2.205,0.665c-0.433,0.443-0.646,1.273-0.646,2.489v1.861h3.936v2.66
		h-3.936v17.525h-3.398V204.408z"/>
	<path fill="#588EC6" d="M194.684,204.408v-27.866h3.783l14.637,21.88v-21.88h3.537v27.866h-3.785l-14.639-21.898v21.898H194.684
		L194.684,204.408z"/>
	<path fill="#588EC6" d="M236.219,197.906l3.535,0.438c-0.561,2.063-1.59,3.67-3.102,4.812c-1.508,1.14-3.434,1.712-5.777,1.712
		c-2.953,0-5.293-0.911-7.025-2.729c-1.73-1.816-2.594-4.368-2.594-7.651c0-3.396,0.877-6.03,2.621-7.907
		c1.75-1.876,4.02-2.813,6.809-2.813c2.699,0,4.904,0.918,6.615,2.755c1.713,1.839,2.564,4.426,2.564,7.758
		c0,0.2-0.006,0.508-0.018,0.911H224.79c0.127,2.218,0.752,3.915,1.881,5.094c1.127,1.181,2.535,1.77,4.221,1.77
		c1.254,0,2.326-0.328,3.213-0.988C234.995,200.403,235.698,199.354,236.219,197.906z M224.983,192.377h11.271
		c-0.152-1.697-0.582-2.971-1.291-3.821c-1.092-1.317-2.504-1.977-4.24-1.977c-1.57,0-2.893,0.525-3.963,1.576
		C225.69,189.209,225.1,190.616,224.983,192.377z"/>
	<path fill="#588EC6" d="M242.776,194.315c0-3.737,1.039-6.51,3.115-8.308c1.74-1.498,3.855-2.243,6.35-2.243
		c2.777,0,5.045,0.911,6.809,2.729c1.76,1.817,2.643,4.33,2.643,7.536c0,2.599-0.391,4.643-1.17,6.13
		c-0.777,1.488-1.912,2.646-3.4,3.47c-1.49,0.825-3.115,1.238-4.879,1.238c-2.824,0-5.105-0.907-6.852-2.722
		C243.647,200.333,242.776,197.722,242.776,194.315z M246.295,194.315c0,2.584,0.563,4.521,1.689,5.81
		c1.129,1.285,2.549,1.928,4.258,1.928c1.697,0,3.111-0.646,4.238-1.938c1.129-1.292,1.693-3.262,1.693-5.911
		c0-2.496-0.568-4.389-1.701-5.675c-1.133-1.285-2.545-1.93-4.23-1.93c-1.713,0-3.129,0.64-4.258,1.921
		C246.858,189.797,246.295,191.729,246.295,194.315z"/>
	<path fill="#588EC6" d="M265.704,204.408V184.22h3.078v2.868c1.482-2.217,3.625-3.326,6.428-3.326c1.217,0,2.334,0.22,3.354,0.657
		c1.021,0.438,1.783,1.009,2.293,1.72c0.508,0.709,0.859,1.553,1.064,2.527c0.127,0.634,0.188,1.74,0.188,3.323v12.415h-3.42
		v-12.276c0-1.394-0.135-2.438-0.4-3.129c-0.266-0.689-0.736-1.24-1.412-1.653c-0.682-0.411-1.475-0.617-2.389-0.617
		c-1.459,0-2.715,0.462-3.773,1.39c-1.059,0.925-1.588,2.681-1.588,5.266v11.023H265.704L265.704,204.408z"/>
	<path fill="#588EC6" d="M300.532,201.92c-1.27,1.078-2.486,1.837-3.662,2.281c-1.172,0.441-2.43,0.665-3.77,0.665
		c-2.217,0-3.922-0.542-5.111-1.627c-1.191-1.085-1.789-2.468-1.789-4.153c0-0.988,0.227-1.893,0.674-2.708
		c0.451-0.815,1.039-1.473,1.771-1.965c0.729-0.494,1.549-0.869,2.461-1.124c0.67-0.177,1.684-0.35,3.041-0.513
		c2.762-0.328,4.797-0.726,6.104-1.18c0.014-0.471,0.018-0.767,0.018-0.892c0-1.396-0.322-2.378-0.969-2.948
		c-0.877-0.773-2.176-1.157-3.896-1.157c-1.609,0-2.799,0.279-3.563,0.844c-0.77,0.565-1.334,1.563-1.701,2.996l-3.346-0.457
		c0.303-1.432,0.803-2.586,1.5-3.471c0.695-0.881,1.707-1.559,3.02-2.034c1.316-0.476,2.844-0.713,4.582-0.713
		c1.723,0,3.125,0.201,4.201,0.607c1.078,0.406,1.869,0.917,2.377,1.529c0.51,0.615,0.863,1.392,1.066,2.329
		c0.113,0.582,0.17,1.634,0.17,3.154v4.563c0,3.181,0.072,5.194,0.221,6.035c0.145,0.844,0.434,1.649,0.865,2.426h-3.574
		C300.858,203.699,300.631,202.871,300.532,201.92z M300.249,194.276c-1.244,0.507-3.105,0.938-5.594,1.293
		c-1.404,0.2-2.396,0.432-2.98,0.686c-0.584,0.253-1.035,0.624-1.354,1.11c-0.314,0.489-0.477,1.029-0.477,1.627
		c0,0.911,0.346,1.674,1.033,2.281c0.693,0.606,1.701,0.91,3.031,0.91c1.318,0,2.49-0.288,3.518-0.864
		c1.029-0.575,1.779-1.363,2.264-2.365c0.365-0.772,0.551-1.913,0.551-3.424v-1.253L300.249,194.276L300.249,194.276z"/>
	<path fill="#588EC6" d="M316.479,201.348l0.494,3.022c-0.965,0.202-1.826,0.304-2.584,0.304c-1.244,0-2.207-0.196-2.891-0.589
		c-0.686-0.393-1.164-0.911-1.443-1.549c-0.279-0.641-0.42-1.987-0.42-4.039v-11.616h-2.51v-2.664h2.51v-5l3.404-2.054v7.054h3.441
		v2.661h-3.441v11.807c0,0.976,0.061,1.604,0.182,1.882c0.121,0.276,0.316,0.499,0.59,0.665c0.271,0.165,0.662,0.246,1.168,0.246
		C315.356,201.481,315.856,201.436,316.479,201.348z"/>
	<path fill="#588EC6" d="M333,201.92c-1.271,1.078-2.486,1.837-3.658,2.281c-1.172,0.441-2.434,0.665-3.773,0.665
		c-2.219,0-3.924-0.542-5.115-1.627s-1.785-2.468-1.785-4.153c0-0.988,0.225-1.893,0.676-2.708c0.449-0.815,1.039-1.473,1.768-1.965
		c0.73-0.494,1.553-0.869,2.463-1.124c0.674-0.177,1.689-0.35,3.043-0.513c2.764-0.328,4.799-0.726,6.104-1.18
		c0.012-0.471,0.018-0.767,0.018-0.892c0-1.396-0.322-2.378-0.971-2.948c-0.875-0.773-2.172-1.157-3.896-1.157
		c-1.607,0-2.797,0.279-3.564,0.844c-0.77,0.565-1.336,1.563-1.701,2.996l-3.348-0.457c0.303-1.432,0.805-2.586,1.504-3.471
		c0.695-0.881,1.705-1.559,3.021-2.034c1.316-0.477,2.846-0.713,4.582-0.713c1.725,0,3.123,0.201,4.199,0.607
		c1.078,0.406,1.869,0.917,2.377,1.529c0.508,0.615,0.861,1.392,1.066,2.329c0.109,0.582,0.17,1.634,0.17,3.154v4.563
		c0,3.181,0.074,5.194,0.219,6.035c0.146,0.844,0.436,1.649,0.865,2.426h-3.572C333.329,203.699,333.1,202.871,333,201.92z
		 M332.715,194.276c-1.242,0.507-3.105,0.938-5.59,1.293c-1.406,0.2-2.4,0.432-2.984,0.686c-0.58,0.253-1.033,0.624-1.35,1.11
		c-0.316,0.489-0.48,1.029-0.48,1.627c0,0.911,0.348,1.674,1.039,2.281c0.691,0.606,1.699,0.91,3.031,0.91
		c1.318,0,2.49-0.288,3.516-0.864c1.027-0.575,1.781-1.363,2.262-2.365c0.369-0.772,0.555-1.913,0.555-3.424v-1.253L332.715,194.276
		L332.715,194.276z"/>
	<path fill="#588EC6" d="M341.401,204.408v-27.866h3.42v27.866H341.401z"/>
	<path fill="#588EC6" d="M381.266,194.636l3.688,0.934c-0.77,3.028-2.162,5.338-4.172,6.93c-2.006,1.591-4.463,2.387-7.363,2.387
		c-3.004,0-5.445-0.611-7.328-1.836c-1.881-1.221-3.314-2.993-4.297-5.313c-0.98-2.319-1.477-4.811-1.477-7.473
		c0-2.9,0.559-5.434,1.664-7.594s2.689-3.802,4.734-4.925c2.045-1.121,4.299-1.684,6.758-1.684c2.789,0,5.133,0.708,7.033,2.128
		c1.9,1.419,3.225,3.414,3.973,5.987l-3.631,0.854c-0.646-2.026-1.584-3.505-2.813-4.43s-2.777-1.389-4.639-1.389
		c-2.146,0-3.936,0.514-5.371,1.541c-1.438,1.027-2.451,2.403-3.033,4.137c-0.58,1.729-0.875,3.511-0.875,5.351
		c0,2.368,0.348,4.438,1.035,6.207c0.691,1.771,1.768,3.09,3.225,3.966c1.459,0.874,3.037,1.313,4.734,1.313
		c2.066,0,3.814-0.599,5.248-1.786C379.792,198.75,380.76,196.983,381.266,194.636z"/>
	<path fill="#588EC6" d="M402.233,201.92c-1.268,1.078-2.482,1.837-3.66,2.281c-1.17,0.441-2.43,0.665-3.77,0.665
		c-2.217,0-3.922-0.542-5.113-1.627c-1.188-1.085-1.785-2.468-1.785-4.153c0-0.988,0.227-1.893,0.674-2.708s1.039-1.473,1.77-1.965
		c0.729-0.494,1.551-0.869,2.461-1.124c0.674-0.177,1.688-0.35,3.043-0.513c2.764-0.328,4.797-0.726,6.105-1.18
		c0.014-0.471,0.02-0.767,0.02-0.892c0-1.396-0.324-2.378-0.969-2.948c-0.877-0.773-2.176-1.157-3.9-1.157
		c-1.607,0-2.797,0.279-3.564,0.844c-0.766,0.565-1.332,1.563-1.699,2.996l-3.348-0.457c0.303-1.432,0.807-2.586,1.502-3.471
		c0.697-0.881,1.705-1.559,3.021-2.034c1.32-0.478,2.846-0.713,4.584-0.713c1.723,0,3.123,0.201,4.201,0.607
		s1.867,0.917,2.377,1.529c0.508,0.615,0.859,1.392,1.063,2.329c0.113,0.582,0.174,1.634,0.174,3.154v4.563
		c0,3.181,0.07,5.194,0.219,6.035c0.143,0.844,0.434,1.649,0.865,2.426h-3.574C402.563,203.699,402.338,202.871,402.233,201.92z
		 M401.948,194.276c-1.238,0.507-3.104,0.938-5.588,1.293c-1.408,0.2-2.4,0.432-2.98,0.686c-0.584,0.253-1.035,0.624-1.354,1.11
		c-0.314,0.486-0.479,1.029-0.479,1.627c0,0.911,0.346,1.674,1.035,2.281c0.691,0.606,1.699,0.91,3.031,0.91
		c1.318,0,2.49-0.288,3.518-0.864c1.025-0.575,1.781-1.363,2.262-2.365c0.367-0.772,0.553-1.913,0.553-3.424L401.948,194.276
		L401.948,194.276L401.948,194.276z"/>
	<path fill="#588EC6" d="M410.676,204.408V184.22h3.078v3.059c0.787-1.434,1.512-2.376,2.178-2.834
		c0.664-0.454,1.395-0.686,2.195-0.686c1.15,0,2.328,0.368,3.516,1.104l-1.176,3.174c-0.838-0.493-1.674-0.742-2.512-0.742
		c-0.75,0-1.422,0.228-2.02,0.674c-0.596,0.45-1.02,1.074-1.27,1.873c-0.385,1.217-0.57,2.548-0.57,3.994v10.566h-3.422
		L410.676,204.408L410.676,204.408z"/>
	<path fill="#588EC6" d="M437.5,197.906l3.531,0.438c-0.559,2.063-1.592,3.67-3.1,4.812c-1.508,1.14-3.438,1.712-5.777,1.712
		c-2.953,0-5.295-0.911-7.023-2.729c-1.73-1.816-2.596-4.368-2.596-7.651c0-3.396,0.873-6.03,2.623-7.907
		c1.75-1.878,4.021-2.813,6.809-2.813c2.701,0,4.902,0.918,6.615,2.755c1.709,1.839,2.563,4.426,2.563,7.758
		c0,0.2-0.008,0.508-0.018,0.911h-15.059c0.129,2.218,0.754,3.915,1.881,5.094c1.129,1.181,2.535,1.77,4.223,1.77
		c1.254,0,2.326-0.328,3.211-0.988C436.274,200.403,436.977,199.354,437.5,197.906z M426.264,192.377h11.27
		c-0.148-1.697-0.582-2.971-1.293-3.821c-1.09-1.317-2.502-1.977-4.236-1.977c-1.57,0-2.895,0.525-3.967,1.576
		C426.971,189.209,426.379,190.616,426.264,192.377z"/>
</g>
</svg>
