<?xml version="1.0" encoding="utf-8"?>
<!-- Generator: Adobe Illustrator 22.0.1, SVG Export Plug-In . SVG Version: 6.00 Build 0)  -->
<svg version="1.1" id="typefaces" xmlns="http://www.w3.org/2000/svg" xmlns:xlink="http://www.w3.org/1999/xlink" x="0px" y="0px"
	 width="693.2px" height="283.5px" viewBox="0 0 693.2 283.5" style="enable-background:new 0 0 693.2 283.5;" xml:space="preserve"
	>
<style type="text/css">
	.st0{fill:#6D6E71;}
	.st1{fill:url(#SVGID_1_);}
	.st2{fill:url(#SVGID_2_);}
	.st3{fill:url(#SVGID_3_);}
	.st4{fill:url(#SVGID_4_);}
	.st5{fill:url(#SVGID_5_);}
	.st6{fill:url(#SVGID_6_);}
	.st7{fill:url(#SVGID_7_);}
	.st8{fill:#ED1C24;}
	.st9{fill:#F6D809;}
	.st10{fill:#00AEEF;}
	.st11{fill:#00A651;}
	.st12{fill:#58595B;}
</style>
<g id="Strapline">
	<path class="st0" d="M2.2,243v-20.5H5l10.8,16.1v-16.1h2.6V243h-2.8L4.8,226.9V243H2.2z"/>
	<path class="st0" d="M33,238.2l2.6,0.3c-0.4,1.5-1.2,2.7-2.3,3.5c-1.1,0.8-2.5,1.3-4.3,1.3c-2.2,0-3.9-0.7-5.2-2
		c-1.3-1.3-1.9-3.2-1.9-5.6c0-2.5,0.6-4.4,1.9-5.8c1.3-1.4,3-2.1,5-2.1c2,0,3.6,0.7,4.9,2c1.3,1.4,1.9,3.3,1.9,5.7
		c0,0.2,0,0.4,0,0.7H24.6c0.1,1.6,0.6,2.9,1.4,3.8c0.8,0.9,1.9,1.3,3.1,1.3c0.9,0,1.7-0.2,2.4-0.7C32.1,240.1,32.6,239.3,33,238.2z
		 M24.7,234.2H33c-0.1-1.2-0.4-2.2-1-2.8c-0.8-1-1.8-1.5-3.1-1.5c-1.2,0-2.1,0.4-2.9,1.2C25.2,231.8,24.8,232.9,24.7,234.2z"/>
	<path class="st0" d="M37.3,243l5.4-7.7l-5-7.1h3.1l2.3,3.5c0.4,0.7,0.8,1.2,1,1.7c0.4-0.6,0.8-1.2,1.1-1.6l2.5-3.5h3l-5.1,7
		l5.5,7.9h-3.1l-3.1-4.6l-0.8-1.2l-3.9,5.9H37.3z"/>
	<path class="st0" d="M59,240.8l0.4,2.2c-0.7,0.2-1.3,0.2-1.9,0.2c-0.9,0-1.6-0.1-2.1-0.4c-0.5-0.3-0.9-0.7-1.1-1.1
		c-0.2-0.5-0.3-1.5-0.3-3v-8.6h-1.8v-2h1.8v-3.7l2.5-1.5v5.2H59v2h-2.5v8.7c0,0.7,0,1.2,0.1,1.4c0.1,0.2,0.2,0.4,0.4,0.5
		c0.2,0.1,0.5,0.2,0.9,0.2C58.2,240.9,58.5,240.8,59,240.8z"/>
	<path class="st0" d="M68.8,238.6l2.5-0.4c0.1,1,0.5,1.8,1.2,2.3c0.6,0.5,1.5,0.8,2.7,0.8c1.2,0,2-0.2,2.6-0.7
		c0.6-0.5,0.8-1,0.8-1.7c0-0.6-0.2-1-0.7-1.3c-0.3-0.2-1.2-0.5-2.6-0.9c-1.8-0.5-3.1-0.9-3.8-1.2c-0.7-0.3-1.3-0.8-1.6-1.4
		c-0.4-0.6-0.6-1.3-0.6-2c0-0.7,0.2-1.3,0.5-1.8c0.3-0.6,0.7-1,1.2-1.4c0.4-0.3,0.9-0.5,1.6-0.7c0.7-0.2,1.4-0.3,2.2-0.3
		c1.2,0,2.2,0.2,3.1,0.5c0.9,0.3,1.5,0.8,2,1.4c0.4,0.6,0.7,1.3,0.9,2.3l-2.5,0.3c-0.1-0.8-0.4-1.4-1-1.8c-0.5-0.4-1.3-0.6-2.3-0.6
		c-1.2,0-2,0.2-2.5,0.6c-0.5,0.4-0.7,0.8-0.7,1.3c0,0.3,0.1,0.6,0.3,0.9c0.2,0.3,0.5,0.5,1,0.7c0.3,0.1,1,0.3,2.2,0.6
		c1.8,0.5,3,0.9,3.7,1.2c0.7,0.3,1.3,0.7,1.7,1.3c0.4,0.6,0.6,1.3,0.6,2.2c0,0.8-0.2,1.6-0.7,2.4c-0.5,0.7-1.2,1.3-2.1,1.7
		c-0.9,0.4-2,0.6-3.1,0.6c-1.9,0-3.4-0.4-4.4-1.2C69.7,241.4,69.1,240.2,68.8,238.6z"/>
	<path class="st0" d="M89.8,240.8l0.4,2.2c-0.7,0.2-1.3,0.2-1.9,0.2c-0.9,0-1.6-0.1-2.1-0.4c-0.5-0.3-0.9-0.7-1.1-1.1
		c-0.2-0.5-0.3-1.5-0.3-3v-8.6H83v-2h1.8v-3.7l2.5-1.5v5.2h2.5v2h-2.5v8.7c0,0.7,0,1.2,0.1,1.4c0.1,0.2,0.2,0.4,0.4,0.5
		c0.2,0.1,0.5,0.2,0.9,0.2C89,240.9,89.4,240.8,89.8,240.8z"/>
	<path class="st0" d="M102.2,241.2c-0.9,0.8-1.8,1.4-2.7,1.7c-0.9,0.3-1.8,0.5-2.8,0.5c-1.6,0-2.9-0.4-3.8-1.2
		c-0.9-0.8-1.3-1.8-1.3-3.1c0-0.7,0.2-1.4,0.5-2c0.3-0.6,0.8-1.1,1.3-1.4c0.5-0.4,1.1-0.6,1.8-0.8c0.5-0.1,1.2-0.3,2.2-0.4
		c2-0.2,3.5-0.5,4.5-0.9c0-0.3,0-0.6,0-0.7c0-1-0.2-1.7-0.7-2.2c-0.6-0.6-1.6-0.9-2.9-0.9c-1.2,0-2.1,0.2-2.6,0.6
		c-0.6,0.4-1,1.2-1.3,2.2l-2.5-0.3c0.2-1.1,0.6-1.9,1.1-2.6c0.5-0.6,1.3-1.1,2.2-1.5c1-0.3,2.1-0.5,3.4-0.5c1.3,0,2.3,0.2,3.1,0.4
		c0.8,0.3,1.4,0.7,1.7,1.1c0.4,0.5,0.6,1,0.8,1.7c0.1,0.4,0.1,1.2,0.1,2.3v3.4c0,2.3,0.1,3.8,0.2,4.4c0.1,0.6,0.3,1.2,0.6,1.8h-2.6
		C102.5,242.5,102.3,241.9,102.2,241.2z M102,235.6c-0.9,0.4-2.3,0.7-4.1,1c-1,0.2-1.8,0.3-2.2,0.5c-0.4,0.2-0.8,0.5-1,0.8
		c-0.2,0.4-0.4,0.8-0.4,1.2c0,0.7,0.3,1.2,0.8,1.7c0.5,0.4,1.3,0.7,2.2,0.7c1,0,1.8-0.2,2.6-0.6c0.8-0.4,1.3-1,1.7-1.7
		c0.3-0.6,0.4-1.4,0.4-2.5V235.6z"/>
	<path class="st0" d="M108.2,244.3l2.4,0.4c0.1,0.8,0.4,1.3,0.9,1.7c0.6,0.5,1.5,0.7,2.6,0.7c1.2,0,2.1-0.2,2.7-0.7
		c0.6-0.5,1.1-1.1,1.3-2c0.1-0.5,0.2-1.6,0.2-3.2c-1.1,1.3-2.5,1.9-4.1,1.9c-2,0-3.6-0.7-4.7-2.2c-1.1-1.5-1.7-3.2-1.7-5.3
		c0-1.4,0.3-2.7,0.8-3.9c0.5-1.2,1.3-2.1,2.2-2.8c1-0.7,2.1-1,3.4-1c1.8,0,3.2,0.7,4.3,2.1v-1.8h2.3V241c0,2.3-0.2,4-0.7,4.9
		c-0.5,1-1.2,1.7-2.2,2.3c-1,0.6-2.3,0.8-3.8,0.8c-1.8,0-3.2-0.4-4.3-1.2C108.7,247.1,108.2,245.9,108.2,244.3z M110.3,235.3
		c0,1.9,0.4,3.4,1.2,4.3c0.8,0.9,1.7,1.3,2.9,1.3c1.2,0,2.1-0.4,2.9-1.3c0.8-0.9,1.2-2.3,1.2-4.2c0-1.8-0.4-3.2-1.2-4.1
		c-0.8-0.9-1.8-1.4-2.9-1.4c-1.1,0-2.1,0.5-2.9,1.4C110.7,232.2,110.3,233.5,110.3,235.3z"/>
	<path class="st0" d="M135,238.2l2.6,0.3c-0.4,1.5-1.2,2.7-2.3,3.5c-1.1,0.8-2.5,1.3-4.3,1.3c-2.2,0-3.9-0.7-5.2-2
		c-1.3-1.3-1.9-3.2-1.9-5.6c0-2.5,0.6-4.4,1.9-5.8c1.3-1.4,3-2.1,5-2.1c2,0,3.6,0.7,4.9,2c1.3,1.4,1.9,3.3,1.9,5.7
		c0,0.2,0,0.4,0,0.7h-11.1c0.1,1.6,0.6,2.9,1.4,3.8c0.8,0.9,1.9,1.3,3.1,1.3c0.9,0,1.7-0.2,2.4-0.7
		C134.1,240.1,134.6,239.3,135,238.2z M126.7,234.2h8.3c-0.1-1.2-0.4-2.2-1-2.8c-0.8-1-1.8-1.5-3.1-1.5c-1.2,0-2.1,0.4-2.9,1.2
		C127.2,231.8,126.8,232.9,126.7,234.2z"/>
	<path class="st0" d="M149.1,225.4v-2.9h2.5v2.9H149.1z M149.1,243v-14.9h2.5V243H149.1z"/>
	<path class="st0" d="M155.7,243v-14.9h2.3v2.1c1.1-1.6,2.7-2.5,4.7-2.5c0.9,0,1.7,0.2,2.5,0.5c0.8,0.3,1.3,0.7,1.7,1.3
		c0.4,0.5,0.6,1.1,0.8,1.9c0.1,0.5,0.1,1.3,0.1,2.4v9.1h-2.5v-9c0-1-0.1-1.8-0.3-2.3c-0.2-0.5-0.5-0.9-1-1.2
		c-0.5-0.3-1.1-0.5-1.8-0.5c-1.1,0-2,0.3-2.8,1c-0.8,0.7-1.2,2-1.2,3.9v8.1H155.7z"/>
	<path class="st0" d="M180.4,243v-20.5h14.8v2.4h-12.1v6.3h11.4v2.4h-11.4v7h12.6v2.4H180.4z"/>
	<path class="st0" d="M203.4,243l-5.7-14.9h2.7l3.2,8.9c0.3,1,0.7,2,1,3c0.2-0.8,0.5-1.7,0.9-2.8l3.3-9.1h2.6l-5.6,14.9H203.4z"/>
	<path class="st0" d="M213.9,225.4v-2.9h2.5v2.9H213.9z M213.9,243v-14.9h2.5V243H213.9z"/>
	<path class="st0" d="M230.1,243v-1.9c-0.9,1.5-2.3,2.2-4.2,2.2c-1.2,0-2.3-0.3-3.3-1c-1-0.7-1.8-1.6-2.3-2.7
		c-0.5-1.2-0.8-2.5-0.8-4c0-1.5,0.2-2.8,0.7-4c0.5-1.2,1.2-2.1,2.2-2.8c1-0.6,2.1-1,3.3-1c0.9,0,1.7,0.2,2.4,0.6
		c0.7,0.4,1.3,0.9,1.7,1.5v-7.4h2.5V243H230.1z M222.1,235.6c0,1.9,0.4,3.3,1.2,4.3c0.8,0.9,1.7,1.4,2.8,1.4c1.1,0,2-0.5,2.8-1.4
		c0.8-0.9,1.2-2.3,1.2-4.1c0-2-0.4-3.5-1.2-4.5c-0.8-1-1.7-1.4-2.9-1.4c-1.1,0-2.1,0.5-2.8,1.4C222.5,232.2,222.1,233.6,222.1,235.6
		z"/>
	<path class="st0" d="M246.7,238.2l2.6,0.3c-0.4,1.5-1.2,2.7-2.3,3.5c-1.1,0.8-2.5,1.3-4.3,1.3c-2.2,0-3.9-0.7-5.2-2
		c-1.3-1.3-1.9-3.2-1.9-5.6c0-2.5,0.6-4.4,1.9-5.8c1.3-1.4,3-2.1,5-2.1c2,0,3.6,0.7,4.9,2c1.3,1.4,1.9,3.3,1.9,5.7
		c0,0.2,0,0.4,0,0.7h-11.1c0.1,1.6,0.6,2.9,1.4,3.8c0.8,0.9,1.9,1.3,3.1,1.3c0.9,0,1.7-0.2,2.4-0.7
		C245.8,240.1,246.4,239.3,246.7,238.2z M238.5,234.2h8.3c-0.1-1.2-0.4-2.2-1-2.8c-0.8-1-1.8-1.5-3.1-1.5c-1.2,0-2.1,0.4-2.9,1.2
		C239,231.8,238.6,232.9,238.5,234.2z"/>
	<path class="st0" d="M252.7,243v-14.9h2.3v2.1c1.1-1.6,2.7-2.5,4.7-2.5c0.9,0,1.7,0.2,2.5,0.5c0.8,0.3,1.3,0.7,1.7,1.3
		c0.4,0.5,0.6,1.1,0.8,1.9c0.1,0.5,0.1,1.3,0.1,2.4v9.1h-2.5v-9c0-1-0.1-1.8-0.3-2.3c-0.2-0.5-0.5-0.9-1-1.2
		c-0.5-0.3-1.1-0.5-1.8-0.5c-1.1,0-2,0.3-2.8,1c-0.8,0.7-1.2,2-1.2,3.9v8.1H252.7z"/>
	<path class="st0" d="M278.6,237.6l2.5,0.3c-0.3,1.7-1,3-2.1,4c-1.1,1-2.5,1.4-4.1,1.4c-2,0-3.7-0.7-4.9-2c-1.2-1.3-1.9-3.2-1.9-5.7
		c0-1.6,0.3-3,0.8-4.2c0.5-1.2,1.3-2.1,2.4-2.7c1.1-0.6,2.3-0.9,3.5-0.9c1.6,0,2.9,0.4,4,1.2c1,0.8,1.7,2,2,3.5l-2.4,0.4
		c-0.2-1-0.6-1.8-1.2-2.3c-0.6-0.5-1.3-0.8-2.1-0.8c-1.3,0-2.3,0.5-3.1,1.4c-0.8,0.9-1.2,2.3-1.2,4.3c0,2,0.4,3.4,1.1,4.4
		c0.8,0.9,1.8,1.4,3,1.4c1,0,1.8-0.3,2.5-0.9C278,239.8,278.4,238.8,278.6,237.6z"/>
	<path class="st0" d="M293.6,238.2l2.6,0.3c-0.4,1.5-1.2,2.7-2.3,3.5c-1.1,0.8-2.5,1.3-4.3,1.3c-2.2,0-3.9-0.7-5.2-2
		c-1.3-1.3-1.9-3.2-1.9-5.6c0-2.5,0.6-4.4,1.9-5.8c1.3-1.4,3-2.1,5-2.1c2,0,3.6,0.7,4.9,2c1.3,1.4,1.9,3.3,1.9,5.7
		c0,0.2,0,0.4,0,0.7h-11.1c0.1,1.6,0.6,2.9,1.4,3.8c0.8,0.9,1.9,1.3,3.1,1.3c0.9,0,1.7-0.2,2.4-0.7
		C292.7,240.1,293.2,239.3,293.6,238.2z M285.3,234.2h8.3c-0.1-1.2-0.4-2.2-1-2.8c-0.8-1-1.8-1.5-3.1-1.5c-1.2,0-2.1,0.4-2.9,1.2
		C285.8,231.8,285.4,232.9,285.3,234.2z"/>
	<path class="st0" d="M298.6,236.9v-2.5h7.7v2.5H298.6z"/>
	<path class="st0" d="M311.6,243h-2.3v-20.5h2.5v7.3c1.1-1.3,2.4-2,4.1-2c0.9,0,1.8,0.2,2.6,0.6c0.8,0.4,1.5,0.9,2,1.6
		c0.5,0.7,0.9,1.5,1.2,2.4c0.3,0.9,0.4,1.9,0.4,3c0,2.5-0.6,4.5-1.9,5.9c-1.3,1.4-2.8,2.1-4.5,2.1c-1.8,0-3.1-0.7-4.1-2.2V243z
		 M311.6,235.5c0,1.8,0.2,3.1,0.7,3.9c0.8,1.3,1.9,1.9,3.2,1.9c1.1,0,2.1-0.5,2.9-1.4c0.8-1,1.2-2.4,1.2-4.3c0-1.9-0.4-3.4-1.2-4.3
		c-0.8-0.9-1.7-1.4-2.8-1.4c-1.1,0-2.1,0.5-2.9,1.4C312,232.3,311.6,233.7,311.6,235.5z"/>
	<path class="st0" d="M335.1,241.2c-0.9,0.8-1.8,1.4-2.7,1.7c-0.9,0.3-1.8,0.5-2.8,0.5c-1.6,0-2.9-0.4-3.8-1.2
		c-0.9-0.8-1.3-1.8-1.3-3.1c0-0.7,0.2-1.4,0.5-2c0.3-0.6,0.8-1.1,1.3-1.4c0.5-0.4,1.1-0.6,1.8-0.8c0.5-0.1,1.2-0.3,2.2-0.4
		c2-0.2,3.5-0.5,4.5-0.9c0-0.3,0-0.6,0-0.7c0-1-0.2-1.7-0.7-2.2c-0.6-0.6-1.6-0.9-2.9-0.9c-1.2,0-2.1,0.2-2.6,0.6s-1,1.2-1.3,2.2
		l-2.5-0.3c0.2-1.1,0.6-1.9,1.1-2.6c0.5-0.6,1.3-1.1,2.2-1.5c1-0.3,2.1-0.5,3.4-0.5c1.3,0,2.3,0.2,3.1,0.4c0.8,0.3,1.4,0.7,1.7,1.1
		c0.4,0.5,0.6,1,0.8,1.7c0.1,0.4,0.1,1.2,0.1,2.3v3.4c0,2.3,0.1,3.8,0.2,4.4c0.1,0.6,0.3,1.2,0.6,1.8h-2.6
		C335.4,242.5,335.2,241.9,335.1,241.2z M334.9,235.6c-0.9,0.4-2.3,0.7-4.1,1c-1,0.2-1.8,0.3-2.2,0.5c-0.4,0.2-0.8,0.5-1,0.8
		c-0.2,0.4-0.3,0.8-0.3,1.2c0,0.7,0.3,1.2,0.8,1.7c0.5,0.4,1.3,0.7,2.2,0.7c1,0,1.8-0.2,2.6-0.6c0.8-0.4,1.3-1,1.7-1.7
		c0.3-0.6,0.4-1.4,0.4-2.5V235.6z"/>
	<path class="st0" d="M340.6,238.6l2.5-0.4c0.1,1,0.5,1.8,1.2,2.3c0.6,0.5,1.5,0.8,2.7,0.8c1.2,0,2-0.2,2.6-0.7
		c0.6-0.5,0.8-1,0.8-1.7c0-0.6-0.2-1-0.7-1.3c-0.3-0.2-1.2-0.5-2.6-0.9c-1.8-0.5-3.1-0.9-3.8-1.2c-0.7-0.3-1.3-0.8-1.6-1.4
		c-0.4-0.6-0.6-1.3-0.6-2c0-0.7,0.2-1.3,0.5-1.8c0.3-0.6,0.7-1,1.2-1.4c0.4-0.3,0.9-0.5,1.6-0.7c0.7-0.2,1.4-0.3,2.2-0.3
		c1.2,0,2.2,0.2,3.1,0.5c0.9,0.3,1.5,0.8,2,1.4c0.4,0.6,0.7,1.3,0.9,2.3l-2.5,0.3c-0.1-0.8-0.4-1.4-1-1.8c-0.5-0.4-1.3-0.6-2.3-0.6
		c-1.2,0-2,0.2-2.5,0.6c-0.5,0.4-0.7,0.8-0.7,1.3c0,0.3,0.1,0.6,0.3,0.9c0.2,0.3,0.5,0.5,1,0.7c0.3,0.1,1,0.3,2.2,0.6
		c1.8,0.5,3,0.9,3.7,1.2c0.7,0.3,1.3,0.7,1.7,1.3c0.4,0.6,0.6,1.3,0.6,2.2c0,0.8-0.2,1.6-0.7,2.4c-0.5,0.7-1.2,1.3-2.1,1.7
		c-0.9,0.4-2,0.6-3.1,0.6c-1.9,0-3.4-0.4-4.4-1.2C341.5,241.4,340.9,240.2,340.6,238.6z"/>
	<path class="st0" d="M366.3,238.2l2.6,0.3c-0.4,1.5-1.2,2.7-2.3,3.5c-1.1,0.8-2.5,1.3-4.3,1.3c-2.2,0-3.9-0.7-5.2-2
		c-1.3-1.3-1.9-3.2-1.9-5.6c0-2.5,0.6-4.4,1.9-5.8c1.3-1.4,3-2.1,5-2.1c2,0,3.6,0.7,4.9,2c1.3,1.4,1.9,3.3,1.9,5.7
		c0,0.2,0,0.4,0,0.7h-11.1c0.1,1.6,0.6,2.9,1.4,3.8c0.8,0.9,1.9,1.3,3.1,1.3c0.9,0,1.7-0.2,2.4-0.7
		C365.4,240.1,365.9,239.3,366.3,238.2z M358,234.2h8.3c-0.1-1.2-0.4-2.2-1-2.8c-0.8-1-1.8-1.5-3.1-1.5c-1.2,0-2.1,0.4-2.9,1.2
		C358.5,231.8,358.1,232.9,358,234.2z"/>
	<path class="st0" d="M381.9,243v-1.9c-0.9,1.5-2.3,2.2-4.2,2.2c-1.2,0-2.3-0.3-3.3-1c-1-0.7-1.8-1.6-2.3-2.7
		c-0.5-1.2-0.8-2.5-0.8-4c0-1.5,0.2-2.8,0.7-4c0.5-1.2,1.2-2.1,2.2-2.8c1-0.6,2.1-1,3.3-1c0.9,0,1.7,0.2,2.4,0.6
		c0.7,0.4,1.3,0.9,1.7,1.5v-7.4h2.5V243H381.9z M373.9,235.6c0,1.9,0.4,3.3,1.2,4.3c0.8,0.9,1.7,1.4,2.8,1.4c1.1,0,2-0.5,2.8-1.4
		c0.8-0.9,1.2-2.3,1.2-4.1c0-2-0.4-3.5-1.2-4.5c-0.8-1-1.7-1.4-2.9-1.4c-1.1,0-2.1,0.5-2.8,1.4C374.3,232.2,373.9,233.6,373.9,235.6
		z"/>
	<path class="st0" d="M396.6,248.7v-20.6h2.3v1.9c0.5-0.8,1.2-1.3,1.8-1.7c0.7-0.4,1.5-0.6,2.5-0.6c1.3,0,2.4,0.3,3.4,1
		c1,0.7,1.7,1.6,2.2,2.8c0.5,1.2,0.7,2.5,0.7,3.9c0,1.5-0.3,2.9-0.8,4.1c-0.5,1.2-1.3,2.2-2.4,2.8c-1,0.6-2.1,1-3.3,1
		c-0.8,0-1.6-0.2-2.3-0.5c-0.7-0.4-1.2-0.8-1.6-1.3v7.2H396.6z M398.9,235.7c0,1.9,0.4,3.3,1.2,4.2c0.8,0.9,1.7,1.4,2.8,1.4
		c1.1,0,2.1-0.5,2.9-1.4c0.8-0.9,1.2-2.4,1.2-4.4c0-1.9-0.4-3.3-1.2-4.3c-0.8-0.9-1.7-1.4-2.8-1.4c-1.1,0-2,0.5-2.8,1.5
		C399.3,232.3,398.9,233.8,398.9,235.7z"/>
	<path class="st0" d="M422.4,241.2c-0.9,0.8-1.8,1.4-2.7,1.7c-0.9,0.3-1.8,0.5-2.8,0.5c-1.6,0-2.9-0.4-3.8-1.2
		c-0.9-0.8-1.3-1.8-1.3-3.1c0-0.7,0.2-1.4,0.5-2c0.3-0.6,0.8-1.1,1.3-1.4c0.5-0.4,1.1-0.6,1.8-0.8c0.5-0.1,1.2-0.3,2.2-0.4
		c2-0.2,3.5-0.5,4.5-0.9c0-0.3,0-0.6,0-0.7c0-1-0.2-1.7-0.7-2.2c-0.6-0.6-1.6-0.9-2.9-0.9c-1.2,0-2.1,0.2-2.6,0.6
		c-0.6,0.4-1,1.2-1.3,2.2l-2.5-0.3c0.2-1.1,0.6-1.9,1.1-2.6c0.5-0.6,1.3-1.1,2.2-1.5c1-0.3,2.1-0.5,3.4-0.5c1.3,0,2.3,0.2,3.1,0.4
		c0.8,0.3,1.4,0.7,1.8,1.1c0.4,0.5,0.6,1,0.8,1.7c0.1,0.4,0.1,1.2,0.1,2.3v3.4c0,2.3,0.1,3.8,0.2,4.4c0.1,0.6,0.3,1.2,0.6,1.8h-2.6
		C422.7,242.5,422.5,241.9,422.4,241.2z M422.2,235.6c-0.9,0.4-2.3,0.7-4.1,1c-1,0.2-1.8,0.3-2.2,0.5c-0.4,0.2-0.8,0.5-1,0.8
		c-0.2,0.4-0.4,0.8-0.4,1.2c0,0.7,0.3,1.2,0.8,1.7c0.5,0.4,1.3,0.7,2.2,0.7c1,0,1.8-0.2,2.6-0.6c0.8-0.4,1.3-1,1.7-1.7
		c0.3-0.6,0.4-1.4,0.4-2.5V235.6z"/>
	<path class="st0" d="M439,238.2l2.6,0.3c-0.4,1.5-1.2,2.7-2.3,3.5c-1.1,0.8-2.5,1.3-4.3,1.3c-2.2,0-3.9-0.7-5.2-2
		c-1.3-1.3-1.9-3.2-1.9-5.6c0-2.5,0.6-4.4,1.9-5.8c1.3-1.4,3-2.1,5-2.1c2,0,3.6,0.7,4.9,2c1.3,1.4,1.9,3.3,1.9,5.7
		c0,0.2,0,0.4,0,0.7h-11.1c0.1,1.6,0.6,2.9,1.4,3.8c0.8,0.9,1.9,1.3,3.1,1.3c0.9,0,1.7-0.2,2.4-0.7
		C438.1,240.1,438.7,239.3,439,238.2z M430.8,234.2h8.3c-0.1-1.2-0.4-2.2-1-2.8c-0.8-1-1.8-1.5-3.1-1.5c-1.2,0-2.1,0.4-2.9,1.2
		C431.3,231.8,430.9,232.9,430.8,234.2z"/>
	<path class="st0" d="M454.7,243v-1.9c-0.9,1.5-2.3,2.2-4.2,2.2c-1.2,0-2.3-0.3-3.3-1c-1-0.7-1.8-1.6-2.3-2.7
		c-0.5-1.2-0.8-2.5-0.8-4c0-1.5,0.2-2.8,0.7-4c0.5-1.2,1.2-2.1,2.2-2.8c1-0.6,2.1-1,3.3-1c0.9,0,1.7,0.2,2.4,0.6
		c0.7,0.4,1.3,0.9,1.7,1.5v-7.4h2.5V243H454.7z M446.7,235.6c0,1.9,0.4,3.3,1.2,4.3c0.8,0.9,1.7,1.4,2.8,1.4c1.1,0,2-0.5,2.8-1.4
		c0.8-0.9,1.2-2.3,1.2-4.1c0-2-0.4-3.5-1.2-4.5c-0.8-1-1.7-1.4-2.9-1.4c-1.1,0-2.1,0.5-2.8,1.4C447.1,232.2,446.7,233.6,446.7,235.6
		z"/>
	<path class="st0" d="M461.2,225.4v-2.9h2.5v2.9H461.2z M461.2,243v-14.9h2.5V243H461.2z"/>
	<path class="st0" d="M477.4,241.2c-0.9,0.8-1.8,1.4-2.7,1.7c-0.9,0.3-1.8,0.5-2.8,0.5c-1.6,0-2.9-0.4-3.8-1.2
		c-0.9-0.8-1.3-1.8-1.3-3.1c0-0.7,0.2-1.4,0.5-2c0.3-0.6,0.8-1.1,1.3-1.4c0.5-0.4,1.1-0.6,1.8-0.8c0.5-0.1,1.2-0.3,2.2-0.4
		c2-0.2,3.5-0.5,4.5-0.9c0-0.3,0-0.6,0-0.7c0-1-0.2-1.7-0.7-2.2c-0.6-0.6-1.6-0.9-2.9-0.9c-1.2,0-2.1,0.2-2.6,0.6s-1,1.2-1.3,2.2
		l-2.5-0.3c0.2-1.1,0.6-1.9,1.1-2.6c0.5-0.6,1.3-1.1,2.2-1.5c1-0.3,2.1-0.5,3.4-0.5c1.3,0,2.3,0.2,3.1,0.4c0.8,0.3,1.4,0.7,1.7,1.1
		c0.4,0.5,0.6,1,0.8,1.7c0.1,0.4,0.1,1.2,0.1,2.3v3.4c0,2.3,0.1,3.8,0.2,4.4c0.1,0.6,0.3,1.2,0.6,1.8h-2.6
		C477.7,242.5,477.5,241.9,477.4,241.2z M477.2,235.6c-0.9,0.4-2.3,0.7-4.1,1c-1,0.2-1.8,0.3-2.2,0.5c-0.4,0.2-0.8,0.5-1,0.8
		c-0.2,0.4-0.3,0.8-0.3,1.2c0,0.7,0.3,1.2,0.8,1.7c0.5,0.4,1.3,0.7,2.2,0.7c1,0,1.8-0.2,2.6-0.6c0.8-0.4,1.3-1,1.7-1.7
		c0.3-0.6,0.4-1.4,0.4-2.5V235.6z"/>
	<path class="st0" d="M489.4,240.8l0.4,2.2c-0.7,0.2-1.3,0.2-1.9,0.2c-0.9,0-1.6-0.1-2.1-0.4c-0.5-0.3-0.9-0.7-1.1-1.1
		c-0.2-0.5-0.3-1.5-0.3-3v-8.6h-1.8v-2h1.8v-3.7l2.5-1.5v5.2h2.5v2h-2.5v8.7c0,0.7,0,1.2,0.1,1.4c0.1,0.2,0.2,0.4,0.4,0.5
		c0.2,0.1,0.5,0.2,0.9,0.2C488.6,240.9,488.9,240.8,489.4,240.8z"/>
	<path class="st0" d="M492,243v-14.9h2.3v2.3c0.6-1.1,1.1-1.7,1.6-2.1c0.5-0.3,1-0.5,1.6-0.5c0.8,0,1.7,0.3,2.6,0.8l-0.9,2.3
		c-0.6-0.4-1.2-0.5-1.8-0.5c-0.5,0-1,0.2-1.5,0.5c-0.4,0.3-0.8,0.8-0.9,1.4c-0.3,0.9-0.4,1.9-0.4,2.9v7.8H492z"/>
	<path class="st0" d="M501.8,225.4v-2.9h2.5v2.9H501.8z M501.8,243v-14.9h2.5V243H501.8z"/>
	<path class="st0" d="M518.1,237.6l2.5,0.3c-0.3,1.7-1,3-2.1,4c-1.1,1-2.5,1.4-4.1,1.4c-2,0-3.7-0.7-4.9-2c-1.2-1.3-1.9-3.2-1.9-5.7
		c0-1.6,0.3-3,0.8-4.2c0.5-1.2,1.3-2.1,2.4-2.7c1.1-0.6,2.3-0.9,3.5-0.9c1.6,0,2.9,0.4,4,1.2c1,0.8,1.7,2,2,3.5l-2.5,0.4
		c-0.2-1-0.6-1.8-1.2-2.3c-0.6-0.5-1.3-0.8-2.1-0.8c-1.3,0-2.3,0.5-3.1,1.4c-0.8,0.9-1.2,2.3-1.2,4.3c0,2,0.4,3.4,1.2,4.4
		c0.8,0.9,1.8,1.4,3,1.4c1,0,1.8-0.3,2.5-0.9C517.5,239.8,517.9,238.8,518.1,237.6z"/>
	<path class="st0" d="M0.9,273l2.5-0.4c0.1,1,0.5,1.8,1.2,2.3c0.6,0.5,1.5,0.8,2.7,0.8c1.2,0,2-0.2,2.6-0.7c0.6-0.5,0.8-1,0.8-1.7
		c0-0.6-0.2-1-0.7-1.3c-0.3-0.2-1.2-0.5-2.6-0.9c-1.8-0.5-3.1-0.9-3.8-1.2c-0.7-0.3-1.3-0.8-1.6-1.4c-0.4-0.6-0.6-1.3-0.6-2
		c0-0.7,0.2-1.3,0.5-1.8c0.3-0.6,0.7-1,1.2-1.4c0.4-0.3,0.9-0.5,1.6-0.7c0.7-0.2,1.4-0.3,2.2-0.3c1.2,0,2.2,0.2,3.1,0.5
		c0.9,0.3,1.5,0.8,2,1.4c0.4,0.6,0.7,1.3,0.9,2.3l-2.5,0.3c-0.1-0.8-0.4-1.4-1-1.8c-0.5-0.4-1.3-0.6-2.3-0.6c-1.2,0-2,0.2-2.5,0.6
		c-0.5,0.4-0.7,0.8-0.7,1.3c0,0.3,0.1,0.6,0.3,0.9c0.2,0.3,0.5,0.5,1,0.7c0.3,0.1,1,0.3,2.2,0.6c1.8,0.5,3,0.9,3.7,1.2
		c0.7,0.3,1.3,0.7,1.7,1.3c0.4,0.6,0.6,1.3,0.6,2.2c0,0.8-0.2,1.6-0.7,2.4c-0.5,0.7-1.2,1.3-2.1,1.7c-0.9,0.4-2,0.6-3.1,0.6
		c-1.9,0-3.4-0.4-4.4-1.2C1.8,275.8,1.2,274.6,0.9,273z"/>
	<path class="st0" d="M26.2,277.4v-2.2c-1.2,1.7-2.7,2.5-4.7,2.5c-0.9,0-1.7-0.2-2.5-0.5c-0.8-0.3-1.3-0.8-1.7-1.3
		c-0.4-0.5-0.6-1.1-0.8-1.9c-0.1-0.5-0.2-1.3-0.2-2.4v-9.2h2.5v8.2c0,1.3,0.1,2.2,0.2,2.7c0.2,0.7,0.5,1.2,1,1.6
		c0.5,0.4,1.1,0.6,1.9,0.6c0.8,0,1.5-0.2,2.1-0.6c0.7-0.4,1.1-0.9,1.4-1.6c0.3-0.7,0.4-1.6,0.4-2.9v-8h2.5v14.9H26.2z"/>
	<path class="st0" d="M32.5,277.4v-14.9h2.3v2.3c0.6-1.1,1.1-1.8,1.6-2.1c0.5-0.3,1-0.5,1.6-0.5c0.8,0,1.7,0.3,2.6,0.8l-0.9,2.3
		c-0.6-0.4-1.2-0.5-1.8-0.5c-0.6,0-1,0.2-1.5,0.5c-0.4,0.3-0.8,0.8-0.9,1.4c-0.3,0.9-0.4,1.9-0.4,2.9v7.8H32.5z"/>
	<path class="st0" d="M41.9,278.7l2.4,0.4c0.1,0.8,0.4,1.3,0.9,1.7c0.6,0.5,1.5,0.7,2.6,0.7c1.2,0,2.1-0.2,2.7-0.7
		c0.6-0.5,1.1-1.1,1.3-2c0.1-0.5,0.2-1.6,0.2-3.2c-1.1,1.3-2.5,1.9-4.1,1.9c-2,0-3.6-0.7-4.7-2.2c-1.1-1.5-1.7-3.2-1.7-5.3
		c0-1.4,0.3-2.7,0.8-3.9c0.5-1.2,1.3-2.1,2.2-2.8c1-0.7,2.1-1,3.4-1c1.8,0,3.2,0.7,4.3,2.1v-1.8h2.3v12.9c0,2.3-0.2,4-0.7,4.9
		c-0.5,1-1.2,1.7-2.2,2.3c-1,0.6-2.3,0.8-3.8,0.8c-1.8,0-3.2-0.4-4.3-1.2C42.3,281.5,41.8,280.3,41.9,278.7z M43.9,269.7
		c0,1.9,0.4,3.4,1.2,4.3c0.8,0.9,1.7,1.3,2.9,1.3c1.2,0,2.1-0.4,2.9-1.3c0.8-0.9,1.2-2.3,1.2-4.2c0-1.8-0.4-3.2-1.2-4.1
		c-0.8-0.9-1.8-1.4-2.9-1.4c-1.1,0-2.1,0.5-2.9,1.4C44.3,266.6,43.9,267.9,43.9,269.7z"/>
	<path class="st0" d="M58.5,259.8v-2.9H61v2.9H58.5z M58.5,277.4v-14.9H61v14.9H58.5z"/>
	<path class="st0" d="M74.7,272l2.5,0.3c-0.3,1.7-1,3-2.1,4c-1.1,1-2.5,1.4-4.1,1.4c-2,0-3.7-0.7-4.9-2c-1.2-1.3-1.9-3.2-1.9-5.7
		c0-1.6,0.3-3,0.8-4.2c0.5-1.2,1.3-2.1,2.4-2.7c1.1-0.6,2.3-0.9,3.5-0.9c1.6,0,2.9,0.4,4,1.2c1,0.8,1.7,2,2,3.5l-2.4,0.4
		c-0.2-1-0.6-1.7-1.2-2.3c-0.6-0.5-1.3-0.8-2.1-0.8c-1.3,0-2.3,0.5-3.1,1.4c-0.8,0.9-1.2,2.3-1.2,4.3c0,2,0.4,3.4,1.1,4.4
		c0.8,0.9,1.8,1.4,3,1.4c1,0,1.8-0.3,2.5-0.9C74.1,274.2,74.6,273.2,74.7,272z"/>
	<path class="st0" d="M89.3,275.6c-0.9,0.8-1.8,1.4-2.7,1.7c-0.9,0.3-1.8,0.5-2.8,0.5c-1.6,0-2.9-0.4-3.8-1.2
		c-0.9-0.8-1.3-1.8-1.3-3.1c0-0.7,0.2-1.4,0.5-2c0.3-0.6,0.8-1.1,1.3-1.4c0.5-0.4,1.1-0.6,1.8-0.8c0.5-0.1,1.2-0.3,2.2-0.4
		c2-0.2,3.5-0.5,4.5-0.9c0-0.3,0-0.6,0-0.7c0-1-0.2-1.8-0.7-2.2c-0.6-0.6-1.6-0.9-2.9-0.9c-1.2,0-2.1,0.2-2.6,0.6
		c-0.6,0.4-1,1.2-1.3,2.2l-2.5-0.3c0.2-1.1,0.6-1.9,1.1-2.6s1.3-1.1,2.2-1.5c1-0.3,2.1-0.5,3.4-0.5c1.3,0,2.3,0.2,3.1,0.4
		c0.8,0.3,1.4,0.7,1.7,1.1c0.4,0.5,0.6,1,0.8,1.7c0.1,0.4,0.1,1.2,0.1,2.3v3.4c0,2.3,0.1,3.8,0.2,4.4c0.1,0.6,0.3,1.2,0.6,1.8h-2.6
		C89.5,276.9,89.3,276.3,89.3,275.6z M89.1,270c-0.9,0.4-2.3,0.7-4.1,1c-1,0.1-1.8,0.3-2.2,0.5c-0.4,0.2-0.8,0.5-1,0.8
		c-0.2,0.4-0.4,0.8-0.4,1.2c0,0.7,0.3,1.2,0.8,1.7c0.5,0.4,1.3,0.7,2.2,0.7c1,0,1.8-0.2,2.6-0.6c0.8-0.4,1.3-1,1.7-1.7
		c0.3-0.6,0.4-1.4,0.4-2.5V270z"/>
	<path class="st0" d="M95.7,277.4v-20.5h2.5v20.5H95.7z"/>
	<path class="st0" d="M115.5,277.4v-18.1h-6.8v-2.4H125v2.4h-6.8v18.1H115.5z"/>
	<path class="st0" d="M126.6,277.4v-14.9h2.3v2.3c0.6-1.1,1.1-1.8,1.6-2.1c0.5-0.3,1-0.5,1.6-0.5c0.8,0,1.7,0.3,2.6,0.8l-0.9,2.3
		c-0.6-0.4-1.2-0.5-1.8-0.5c-0.6,0-1,0.2-1.5,0.5c-0.4,0.3-0.8,0.8-0.9,1.4c-0.3,0.9-0.4,1.9-0.4,2.9v7.8H126.6z"/>
	<path class="st0" d="M146.5,272.6l2.6,0.3c-0.4,1.5-1.2,2.7-2.3,3.5c-1.1,0.8-2.5,1.3-4.3,1.3c-2.2,0-3.9-0.7-5.2-2
		c-1.3-1.3-1.9-3.2-1.9-5.6c0-2.5,0.6-4.4,1.9-5.8c1.3-1.4,3-2.1,5-2.1c2,0,3.6,0.7,4.9,2c1.3,1.4,1.9,3.3,1.9,5.7
		c0,0.1,0,0.4,0,0.7h-11.1c0.1,1.6,0.6,2.9,1.4,3.8c0.8,0.9,1.9,1.3,3.1,1.3c0.9,0,1.7-0.2,2.4-0.7
		C145.6,274.5,146.1,273.7,146.5,272.6z M138.2,268.6h8.3c-0.1-1.3-0.4-2.2-1-2.8c-0.8-1-1.8-1.5-3.1-1.5c-1.2,0-2.1,0.4-2.9,1.2
		C138.8,266.2,138.3,267.3,138.2,268.6z"/>
	<path class="st0" d="M162.2,275.6c-0.9,0.8-1.8,1.4-2.7,1.7c-0.9,0.3-1.8,0.5-2.8,0.5c-1.6,0-2.9-0.4-3.8-1.2
		c-0.9-0.8-1.3-1.8-1.3-3.1c0-0.7,0.2-1.4,0.5-2c0.3-0.6,0.8-1.1,1.3-1.4c0.5-0.4,1.1-0.6,1.8-0.8c0.5-0.1,1.2-0.3,2.2-0.4
		c2-0.2,3.5-0.5,4.5-0.9c0-0.3,0-0.6,0-0.7c0-1-0.2-1.8-0.7-2.2c-0.6-0.6-1.6-0.9-2.9-0.9c-1.2,0-2.1,0.2-2.6,0.6
		c-0.6,0.4-1,1.2-1.3,2.2l-2.5-0.3c0.2-1.1,0.6-1.9,1.1-2.6c0.5-0.6,1.3-1.1,2.2-1.5c1-0.3,2.1-0.5,3.4-0.5c1.3,0,2.3,0.2,3.1,0.4
		c0.8,0.3,1.4,0.7,1.7,1.1c0.4,0.5,0.6,1,0.8,1.7c0.1,0.4,0.1,1.2,0.1,2.3v3.4c0,2.3,0.1,3.8,0.2,4.4c0.1,0.6,0.3,1.2,0.6,1.8h-2.6
		C162.4,276.9,162.3,276.3,162.2,275.6z M162,270c-0.9,0.4-2.3,0.7-4.1,1c-1,0.1-1.8,0.3-2.2,0.5c-0.4,0.2-0.8,0.5-1,0.8
		c-0.2,0.4-0.4,0.8-0.4,1.2c0,0.7,0.3,1.2,0.8,1.7c0.5,0.4,1.3,0.7,2.2,0.7c1,0,1.8-0.2,2.6-0.6c0.8-0.4,1.3-1,1.7-1.7
		c0.3-0.6,0.4-1.4,0.4-2.5V270z"/>
	<path class="st0" d="M174.1,275.2l0.4,2.2c-0.7,0.2-1.3,0.2-1.9,0.2c-0.9,0-1.6-0.1-2.1-0.4c-0.5-0.3-0.9-0.7-1.1-1.1
		c-0.2-0.5-0.3-1.5-0.3-3v-8.6h-1.8v-2h1.8v-3.7l2.5-1.5v5.2h2.5v2h-2.5v8.7c0,0.7,0,1.2,0.1,1.4c0.1,0.2,0.2,0.4,0.4,0.5
		c0.2,0.1,0.5,0.2,0.9,0.2C173.3,275.3,173.7,275.2,174.1,275.2z"/>
	<path class="st0" d="M176.8,277.4v-14.9h2.3v2.1c0.5-0.7,1.1-1.3,1.9-1.8c0.8-0.4,1.7-0.7,2.6-0.7c1.1,0,2,0.2,2.7,0.7
		c0.7,0.5,1.2,1.1,1.5,1.9c1.2-1.7,2.7-2.6,4.6-2.6c1.5,0,2.6,0.4,3.4,1.2c0.8,0.8,1.2,2.1,1.2,3.8v10.2h-2.5v-9.4
		c0-1-0.1-1.7-0.2-2.2c-0.2-0.4-0.5-0.8-0.9-1.1c-0.4-0.3-0.9-0.4-1.5-0.4c-1,0-1.9,0.3-2.6,1c-0.7,0.7-1,1.8-1,3.3v8.6h-2.5v-9.7
		c0-1.1-0.2-2-0.6-2.5c-0.4-0.6-1.1-0.8-2-0.8c-0.7,0-1.4,0.2-2,0.6c-0.6,0.4-1,0.9-1.3,1.6c-0.3,0.7-0.4,1.8-0.4,3.1v7.7H176.8z"/>
	<path class="st0" d="M211,272.6l2.6,0.3c-0.4,1.5-1.2,2.7-2.3,3.5c-1.1,0.8-2.5,1.3-4.3,1.3c-2.2,0-3.9-0.7-5.2-2
		c-1.3-1.3-1.9-3.2-1.9-5.6c0-2.5,0.6-4.4,1.9-5.8c1.3-1.4,3-2.1,5-2.1c2,0,3.6,0.7,4.9,2c1.3,1.4,1.9,3.3,1.9,5.7
		c0,0.1,0,0.4,0,0.7h-11.1c0.1,1.6,0.6,2.9,1.4,3.8c0.8,0.9,1.9,1.3,3.1,1.3c0.9,0,1.7-0.2,2.4-0.7
		C210.1,274.5,210.7,273.7,211,272.6z M202.8,268.6h8.3c-0.1-1.3-0.4-2.2-1-2.8c-0.8-1-1.8-1.5-3.1-1.5c-1.2,0-2.1,0.4-2.9,1.2
		C203.3,266.2,202.9,267.3,202.8,268.6z"/>
	<path class="st0" d="M217,277.4v-14.9h2.3v2.1c1.1-1.6,2.7-2.4,4.7-2.4c0.9,0,1.7,0.2,2.5,0.5c0.8,0.3,1.3,0.7,1.7,1.3
		c0.4,0.5,0.6,1.1,0.8,1.9c0.1,0.5,0.1,1.3,0.1,2.5v9.1h-2.5v-9c0-1-0.1-1.8-0.3-2.3c-0.2-0.5-0.5-0.9-1-1.2
		c-0.5-0.3-1.1-0.5-1.8-0.5c-1.1,0-2,0.3-2.8,1c-0.8,0.7-1.2,2-1.2,3.9v8.1H217z"/>
	<path class="st0" d="M238.7,275.2l0.4,2.2c-0.7,0.2-1.3,0.2-1.9,0.2c-0.9,0-1.6-0.1-2.1-0.4c-0.5-0.3-0.9-0.7-1.1-1.1
		c-0.2-0.5-0.3-1.5-0.3-3v-8.6h-1.8v-2h1.8v-3.7l2.5-1.5v5.2h2.5v2h-2.5v8.7c0,0.7,0,1.2,0.1,1.4c0.1,0.2,0.2,0.4,0.4,0.5
		c0.2,0.1,0.5,0.2,0.9,0.2C237.8,275.3,238.2,275.2,238.7,275.2z"/>
	<path class="st0" d="M248.9,270.8l2.6-0.2c0.1,1,0.4,1.9,0.8,2.5c0.4,0.7,1.1,1.2,2.1,1.6c0.9,0.4,2,0.6,3.1,0.6c1,0,2-0.2,2.7-0.5
		c0.8-0.3,1.4-0.7,1.8-1.3c0.4-0.5,0.6-1.1,0.6-1.8c0-0.6-0.2-1.2-0.6-1.7c-0.4-0.5-1-0.9-1.8-1.2c-0.6-0.2-1.8-0.5-3.7-1
		c-1.9-0.5-3.2-0.9-4-1.3c-1-0.5-1.7-1.2-2.2-1.9c-0.5-0.8-0.7-1.6-0.7-2.6c0-1,0.3-2,0.9-2.9c0.6-0.9,1.4-1.6,2.6-2
		c1.1-0.5,2.4-0.7,3.8-0.7c1.5,0,2.9,0.2,4,0.7c1.2,0.5,2.1,1.2,2.7,2.2c0.6,1,1,2,1,3.2l-2.6,0.2c-0.1-1.3-0.6-2.3-1.4-2.9
		c-0.8-0.7-2-1-3.6-1c-1.6,0-2.8,0.3-3.6,0.9c-0.8,0.6-1.1,1.3-1.1,2.2c0,0.7,0.3,1.3,0.8,1.8c0.5,0.5,1.9,1,4.1,1.5
		c2.2,0.5,3.7,0.9,4.5,1.3c1.2,0.5,2.1,1.2,2.6,2.1s0.9,1.8,0.9,2.9c0,1.1-0.3,2.1-0.9,3.1c-0.6,1-1.5,1.7-2.7,2.3
		c-1.2,0.5-2.5,0.8-4,0.8c-1.9,0-3.4-0.3-4.7-0.8c-1.3-0.5-2.2-1.4-3-2.4C249.3,273.4,248.9,272.2,248.9,270.8z"/>
	<path class="st0" d="M274.3,275.2l0.4,2.2c-0.7,0.2-1.3,0.2-1.9,0.2c-0.9,0-1.6-0.1-2.1-0.4c-0.5-0.3-0.9-0.7-1.1-1.1
		c-0.2-0.5-0.3-1.5-0.3-3v-8.6h-1.8v-2h1.8v-3.7l2.5-1.5v5.2h2.5v2h-2.5v8.7c0,0.7,0,1.2,0.1,1.4c0.1,0.2,0.2,0.4,0.4,0.5
		c0.2,0.1,0.5,0.2,0.9,0.2C273.5,275.3,273.9,275.2,274.3,275.2z"/>
	<path class="st0" d="M277,277.4v-14.9h2.3v2.3c0.6-1.1,1.1-1.8,1.6-2.1c0.5-0.3,1-0.5,1.6-0.5c0.8,0,1.7,0.3,2.6,0.8l-0.9,2.3
		c-0.6-0.4-1.2-0.5-1.8-0.5c-0.6,0-1,0.2-1.5,0.5c-0.4,0.3-0.8,0.8-0.9,1.4c-0.3,0.9-0.4,1.9-0.4,2.9v7.8H277z"/>
	<path class="st0" d="M296.4,275.6c-0.9,0.8-1.8,1.4-2.7,1.7c-0.9,0.3-1.8,0.5-2.8,0.5c-1.6,0-2.9-0.4-3.8-1.2
		c-0.9-0.8-1.3-1.8-1.3-3.1c0-0.7,0.2-1.4,0.5-2c0.3-0.6,0.8-1.1,1.3-1.4c0.5-0.4,1.1-0.6,1.8-0.8c0.5-0.1,1.2-0.3,2.2-0.4
		c2-0.2,3.5-0.5,4.5-0.9c0-0.3,0-0.6,0-0.7c0-1-0.2-1.8-0.7-2.2c-0.6-0.6-1.6-0.9-2.9-0.9c-1.2,0-2.1,0.2-2.6,0.6
		c-0.6,0.4-1,1.2-1.3,2.2l-2.5-0.3c0.2-1.1,0.6-1.9,1.1-2.6c0.5-0.6,1.3-1.1,2.2-1.5c1-0.3,2.1-0.5,3.4-0.5c1.3,0,2.3,0.2,3.1,0.4
		c0.8,0.3,1.4,0.7,1.7,1.1c0.4,0.5,0.6,1,0.8,1.7c0.1,0.4,0.1,1.2,0.1,2.3v3.4c0,2.3,0.1,3.8,0.2,4.4c0.1,0.6,0.3,1.2,0.6,1.8h-2.6
		C296.7,276.9,296.5,276.3,296.4,275.6z M296.2,270c-0.9,0.4-2.3,0.7-4.1,1c-1,0.1-1.8,0.3-2.2,0.5c-0.4,0.2-0.8,0.5-1,0.8
		c-0.2,0.4-0.4,0.8-0.4,1.2c0,0.7,0.3,1.2,0.8,1.7c0.5,0.4,1.3,0.7,2.2,0.7c1,0,1.8-0.2,2.6-0.6c0.8-0.4,1.3-1,1.7-1.7
		c0.3-0.6,0.4-1.4,0.4-2.5V270z"/>
	<path class="st0" d="M308.4,275.2l0.4,2.2c-0.7,0.2-1.3,0.2-1.9,0.2c-0.9,0-1.6-0.1-2.1-0.4c-0.5-0.3-0.9-0.7-1.1-1.1
		c-0.2-0.5-0.3-1.5-0.3-3v-8.6h-1.8v-2h1.8v-3.7l2.5-1.5v5.2h2.5v2h-2.5v8.7c0,0.7,0,1.2,0.1,1.4c0.1,0.2,0.2,0.4,0.4,0.5
		c0.2,0.1,0.5,0.2,0.9,0.2C307.6,275.3,307.9,275.2,308.4,275.2z"/>
	<path class="st0" d="M321.2,272.6l2.6,0.3c-0.4,1.5-1.2,2.7-2.3,3.5c-1.1,0.8-2.5,1.3-4.3,1.3c-2.2,0-3.9-0.7-5.2-2
		c-1.3-1.3-1.9-3.2-1.9-5.6c0-2.5,0.6-4.4,1.9-5.8c1.3-1.4,3-2.1,5-2.1c2,0,3.6,0.7,4.9,2c1.3,1.4,1.9,3.3,1.9,5.7
		c0,0.1,0,0.4,0,0.7h-11.1c0.1,1.6,0.6,2.9,1.4,3.8c0.8,0.9,1.9,1.3,3.1,1.3c0.9,0,1.7-0.2,2.4-0.7
		C320.3,274.5,320.8,273.7,321.2,272.6z M312.9,268.6h8.3c-0.1-1.3-0.4-2.2-1-2.8c-0.8-1-1.8-1.5-3.1-1.5c-1.2,0-2.1,0.4-2.9,1.2
		C313.5,266.2,313,267.3,312.9,268.6z"/>
	<path class="st0" d="M326.7,278.7l2.5,0.4c0.1,0.8,0.4,1.3,0.9,1.7c0.6,0.5,1.5,0.7,2.6,0.7c1.2,0,2.1-0.2,2.7-0.7
		c0.6-0.5,1.1-1.1,1.3-2c0.1-0.5,0.2-1.6,0.2-3.2c-1.1,1.3-2.5,1.9-4.1,1.9c-2,0-3.6-0.7-4.7-2.2c-1.1-1.5-1.7-3.2-1.7-5.3
		c0-1.4,0.3-2.7,0.8-3.9c0.5-1.2,1.3-2.1,2.2-2.8c1-0.7,2.1-1,3.4-1c1.8,0,3.2,0.7,4.3,2.1v-1.8h2.3v12.9c0,2.3-0.2,4-0.7,4.9
		c-0.5,1-1.2,1.7-2.2,2.3c-1,0.6-2.3,0.8-3.8,0.8c-1.8,0-3.2-0.4-4.3-1.2C327.2,281.5,326.7,280.3,326.7,278.7z M328.8,269.7
		c0,1.9,0.4,3.4,1.2,4.3c0.8,0.9,1.7,1.3,2.9,1.3c1.2,0,2.1-0.4,2.9-1.3c0.8-0.9,1.2-2.3,1.2-4.2c0-1.8-0.4-3.2-1.2-4.1
		c-0.8-0.9-1.8-1.4-2.9-1.4c-1.1,0-2.1,0.5-2.9,1.4C329.2,266.6,328.8,267.9,328.8,269.7z"/>
	<path class="st0" d="M343.3,259.8v-2.9h2.5v2.9H343.3z M343.3,277.4v-14.9h2.5v14.9H343.3z"/>
	<path class="st0" d="M360.1,272.6l2.6,0.3c-0.4,1.5-1.2,2.7-2.3,3.5c-1.1,0.8-2.5,1.3-4.3,1.3c-2.2,0-3.9-0.7-5.2-2
		c-1.3-1.3-1.9-3.2-1.9-5.6c0-2.5,0.6-4.4,1.9-5.8c1.3-1.4,3-2.1,5-2.1c2,0,3.6,0.7,4.9,2c1.3,1.4,1.9,3.3,1.9,5.7
		c0,0.1,0,0.4,0,0.7h-11.1c0.1,1.6,0.6,2.9,1.4,3.8c0.8,0.9,1.9,1.3,3.1,1.3c0.9,0,1.7-0.2,2.4-0.7
		C359.2,274.5,359.7,273.7,360.1,272.6z M351.8,268.6h8.3c-0.1-1.3-0.4-2.2-1-2.8c-0.8-1-1.8-1.5-3.1-1.5c-1.2,0-2.1,0.4-2.9,1.2
		C352.3,266.2,351.9,267.3,351.8,268.6z"/>
	<path class="st0" d="M365,273l2.5-0.4c0.1,1,0.5,1.8,1.2,2.3c0.6,0.5,1.5,0.8,2.7,0.8c1.2,0,2-0.2,2.6-0.7c0.6-0.5,0.8-1,0.8-1.7
		c0-0.6-0.2-1-0.7-1.3c-0.3-0.2-1.2-0.5-2.6-0.9c-1.8-0.5-3.1-0.9-3.8-1.2c-0.7-0.3-1.3-0.8-1.6-1.4c-0.4-0.6-0.6-1.3-0.6-2
		c0-0.7,0.2-1.3,0.5-1.8s0.7-1,1.2-1.4c0.4-0.3,0.9-0.5,1.6-0.7c0.7-0.2,1.4-0.3,2.2-0.3c1.2,0,2.2,0.2,3.1,0.5
		c0.9,0.3,1.5,0.8,2,1.4c0.4,0.6,0.7,1.3,0.9,2.3l-2.5,0.3c-0.1-0.8-0.4-1.4-1-1.8c-0.5-0.4-1.3-0.6-2.3-0.6c-1.2,0-2,0.2-2.5,0.6
		c-0.5,0.4-0.7,0.8-0.7,1.3c0,0.3,0.1,0.6,0.3,0.9c0.2,0.3,0.5,0.5,1,0.7c0.3,0.1,1,0.3,2.2,0.6c1.8,0.5,3,0.9,3.7,1.2
		c0.7,0.3,1.3,0.7,1.7,1.3c0.4,0.6,0.6,1.3,0.6,2.2c0,0.8-0.2,1.6-0.7,2.4c-0.5,0.7-1.2,1.3-2.1,1.7c-0.9,0.4-2,0.6-3.1,0.6
		c-1.9,0-3.4-0.4-4.4-1.2C366,275.8,365.3,274.6,365,273z"/>
</g>
<g id="Horizontal_Waves">
	<linearGradient id="SVGID_1_" gradientUnits="userSpaceOnUse" x1="28.0293" y1="109.9172" x2="687.999" y2="109.9172">
		<stop  offset="0.15" style="stop-color:#FFFFFF"/>
		<stop  offset="1" style="stop-color:#F6D809"/>
	</linearGradient>
	<path class="st1" d="M206.4,79c49,0,98.5,10.7,160.5,34.6c46.1,17.8,97.3,34.2,158.5,33.2c47.5-0.8,98.4-11.8,160.4-34.6
		c2.7-1,2.3-3.6,2.2-4.1c-0.3-1.5-1.5-3.1-3.6-2.4c-60.9,22.4-116,33.7-168.5,34.6c-56.1,1-104-17-154.8-36
		c-6.1-2.3-12.2-4.6-18.4-6.9C298.6,81.2,251.6,73,203,73c-56.5,0-114.6,11-172.7,32.8c-2.7,1-2.3,3.7-2.2,4.2
		c0.2,1.2,1,2.6,2.4,2.6h0c0.4,0,0.7-0.1,1.2-0.2C86.3,91.8,140,81,195.8,79.2C199.3,79.1,202.9,79,206.4,79z"/>
	<g id="Hoizontal_Waves">
		<linearGradient id="SVGID_2_" gradientUnits="userSpaceOnUse" x1="25.423" y1="73.4279" x2="685.3926" y2="73.4279">
			<stop  offset="0.15" style="stop-color:#FFFFFF"/>
			<stop  offset="1" style="stop-color:#00AEEF"/>
		</linearGradient>
		<path class="st2" d="M203.8,42.5c49,0,98.5,10.7,160.5,34.6c46.1,17.8,97.3,34.2,158.5,33.2c47.5-0.8,98.4-11.8,160.4-34.6
			c2.7-1,2.3-3.6,2.2-4.1c-0.3-1.5-1.5-3.1-3.6-2.4c-60.9,22.4-116,33.7-168.5,34.6c-56.1,1-104-17-154.8-36
			c-6.1-2.3-12.2-4.6-18.4-6.9C296,44.7,249,36.5,200.4,36.5c-56.5,0-114.6,11-172.7,32.8c-2.7,1-2.3,3.7-2.2,4.2
			c0.2,1.2,1,2.6,2.4,2.6h0c0.4,0,0.7-0.1,1.2-0.2c54.6-20.5,108.3-31.3,164.1-33.1C196.7,42.6,200.3,42.5,203.8,42.5z"/>
		<g>
			<linearGradient id="SVGID_3_" gradientUnits="userSpaceOnUse" x1="34.4004" y1="162.6869" x2="693.9035" y2="162.6869">
				<stop  offset="0.15" style="stop-color:#FFFFFF"/>
				<stop  offset="1" style="stop-color:#ED1C24"/>
			</linearGradient>
			<path class="st3" d="M693.1,144.6c-0.3-1.5-1.5-3.1-3.6-2.4c-60.9,22.4-116,33.7-168.5,34.6c-4.3,0.1-8.6,0-12.9-0.1
				c-1.5,1.3-3,2.6-4.6,3.8c-0.9,0.7-1.9,1.3-2.9,1.9c9.7,0.7,19.6,1.1,29.9,0.9c47.5-0.8,98.4-11.8,160.4-34.6
				C693.6,147.7,693.2,145.1,693.1,144.6z"/>
			<linearGradient id="SVGID_4_" gradientUnits="userSpaceOnUse" x1="33.945" y1="134.9027" x2="693.0419" y2="134.9027">
				<stop  offset="0.15" style="stop-color:#FFFFFF"/>
				<stop  offset="1" style="stop-color:#ED1C24"/>
			</linearGradient>
			<path class="st4" d="M402.2,154c-11.9-4.2-23.9-8.7-36-13.2c-6.1-2.3-12.2-4.6-18.4-6.9c-44.1-16.3-91.1-24.5-139.7-24.5
				c-56.5,0-114.6,11-172.7,32.8c-2.7,1-2.3,3.7-2.2,4.2c0.2,1.2,1,2.6,2.4,2.6h0c0.4,0,0.7-0.1,1.2-0.2
				c54.6-20.5,108.3-31.3,164.1-33.1c3.6-0.1,7.1-0.2,10.6-0.2c49,0,98.5,10.7,160.5,34.6c9.1,3.5,18.3,6.9,27.8,10.2
				C400.2,158,401,155.9,402.2,154z"/>
		</g>
		<g>
			<linearGradient id="SVGID_5_" gradientUnits="userSpaceOnUse" x1="23.5742" y1="53.2173" x2="683.5848" y2="53.2173">
				<stop  offset="0.15" style="stop-color:#FFFFFF"/>
				<stop  offset="1" style="stop-color:#00A651"/>
			</linearGradient>
			<path class="st5" d="M682.7,35.1c-0.3-1.5-1.5-3.1-3.6-2.4C619.8,54.6,566,65.8,514.7,67.3c-0.3,1.2-0.8,2.3-1.5,3.4
				c-0.8,1.3-1.9,2.4-3.1,3.2c3.3,0,6.6,0.1,10,0C567.6,73,618.5,62,680.5,39.3C683.1,38.3,682.8,35.6,682.7,35.1z"/>
			<linearGradient id="SVGID_6_" gradientUnits="userSpaceOnUse" x1="22.0979" y1="20.764" x2="683.3189" y2="20.764">
				<stop  offset="0.15" style="stop-color:#FFFFFF"/>
				<stop  offset="1" style="stop-color:#00A651"/>
			</linearGradient>
			<path class="st6" d="M363.9,41.5c2.3-2.1,5.2-3.5,8.4-4c-5.5-2-11-4.1-16.5-6.2c-6.1-2.3-12.2-4.6-18.4-6.9
				C293.4,8.2,246.4,0,197.8,0C141.3,0,83.2,11,25.1,32.8c-2.7,1-2.3,3.7-2.2,4.2c0.2,1.2,1,2.6,2.4,2.6h0c0.4,0,0.7-0.1,1.2-0.2
				C81.1,18.8,134.8,8,190.6,6.2c3.6-0.1,7.1-0.2,10.6-0.2c49,0,98.5,10.7,160.5,34.6C362.4,41,363.1,41.2,363.9,41.5z"/>
			<linearGradient id="SVGID_7_" gradientUnits="userSpaceOnUse" x1="23.5742" y1="51.3224" x2="681.9721" y2="51.3224">
				<stop  offset="0.15" style="stop-color:#FFFFFF"/>
				<stop  offset="1" style="stop-color:#00A651"/>
			</linearGradient>
			<path class="st7" d="M421,54c-11-3.2-21.9-6.8-32.8-10.7c2,2.4,3.4,5.3,3.9,8.5c7.9,2.7,16,5.2,24.2,7.6
				C417.7,57.5,419.3,55.7,421,54z"/>
		</g>
	</g>
</g>
<g id="Vertical_Waves">
	<path class="st8" d="M656.2,176.7c12-28.4,5.2-57.1-2.1-85.7c-6-23.4-4.6-44.2,1.8-67.4c0.9-3.4,6.2-1.9,5.3,1.5
		c-3.8,13.8-6.3,27.3-6,41.7c0.3,15.3,6.5,31,9.8,46c5,22.8,5.2,45.1-4,66.8C659.5,182.7,654.8,179.9,656.2,176.7L656.2,176.7z"/>
	<path class="st9" d="M621.4,181.9c12-28.4,5.2-57.1-2.1-85.7c-6-23.4-4.6-44.2,1.8-67.4c0.9-3.4,6.2-1.9,5.3,1.5
		c-3.8,13.8-6.3,27.3-6,41.7c0.3,15.3,6.5,31,9.8,46c5,22.8,5.2,45.1-4,66.8C624.8,187.9,620.1,185.1,621.4,181.9L621.4,181.9z"/>
	<path class="st10" d="M586.7,189.7c12-28.4,5.2-57.1-2.1-85.7c-6-23.4-4.6-44.2,1.8-67.4c0.9-3.4,6.2-1.9,5.3,1.5
		c-3.8,13.8-6.3,27.3-6,41.7c0.3,15.3,6.5,31,9.8,46c5,22.8,5.2,45.1-4,66.8C590,195.7,585.3,192.9,586.7,189.7L586.7,189.7z"/>
	<path class="st11" d="M551.9,194.9c12-28.4,5.2-57.1-2.1-85.7c-6-23.4-4.6-44.2,1.8-67.4c0.9-3.4,6.2-1.9,5.3,1.5
		c-3.8,13.8-6.3,27.3-6,41.7c0.3,15.3,6.5,31,9.8,46c5,22.8,5.2,45.1-4,66.8C555.3,200.9,550.6,198.1,551.9,194.9L551.9,194.9z"/>
</g>
<g id="NETS">
	<g>
		<path class="st8" d="M11.8,169.4c6.5,0,11.8,5.3,11.8,11.8c0,6.5-5.3,11.8-11.8,11.8c-6.5,0-11.8-5.3-11.8-11.8
			C0,174.7,5.3,169.4,11.8,169.4"/>
		<g>
			<path class="st12" d="M102.1,44.6c-6.4,0-11.6,5.4-11.6,11.6v88.6L21.1,48.7c-3.7-5.2-11-6.2-16.3-2.6C1.5,48.5-0.2,52.4,0,56
				c0,0.2,0,0.2,0,0.2V169c3.1-2.9,7.2-4.7,11.7-4.7c4.5,0,8.6,1.8,11.7,4.7v-77l68.8,95.4c0.2,0.4,0.6,0.9,1.1,1.3
				c2.1,2.6,5.4,4.3,8.8,4.3c6.4,0,11.8-5.4,11.8-11.8V56.2C114,50,108.6,44.6,102.1,44.6z"/>
		</g>
	</g>
	<g>
		<path class="st9" d="M239.6,169.1c6.6,0,11.9,5.3,11.9,11.9c0,6.6-5.3,11.9-11.9,11.9c-6.6,0-11.9-5.4-11.9-11.9
			C227.6,174.4,233,169.1,239.6,169.1"/>
		<g>
			<path class="st12" d="M222.4,181c0-4.6,1.9-8.8,4.9-11.9h-45.8v-39.5h50.1c6.4,0,11.8-5.4,11.8-12c0-6.2-5.4-11.8-11.8-11.8
				h-50.1V66.3h58.3c6.2,0,11.8-5.4,11.8-12c0-6.7-5.6-11.8-11.8-11.8H170c-0.4,0-0.4,0-0.4,0h-0.2c-6.7,0-11.8,5.2-11.8,11.8v126.8
				c0,6.4,5.2,11.8,11.8,11.8l0.2-0.2c0,0,0,0.2,0.4,0.2h57.2C224.3,189.9,222.4,185.6,222.4,181z"/>
		</g>
	</g>
	<g>
		<path class="st11" d="M416.2,174.9c-6.6,0-11.9-5.4-11.9-12c0-6.6,5.4-11.9,11.9-11.9c6.6,0,11.9,5.4,11.9,11.9
			C428.1,169.5,422.8,174.9,416.2,174.9z"/>
		<g>
			<path class="st12" d="M516.9,128.9c-4.9-8-12.7-13.5-21.5-17.8c-8.6-4.1-18.7-6.9-29.7-9h-0.4c-11.6-2.2-21.3-5.6-26.9-9.5
				c-2.8-1.9-4.7-3.9-5.8-5.6c-1.1-1.7-1.5-3.4-1.5-6c0-4.5,2.4-9.2,8.2-13.5c5.8-4.3,14.4-7.3,24.1-7.3c13.1,0,23.6,6.4,34.6,13.8
				c5.2,3.4,12,1.9,15.3-3.2c3.4-4.9,1.9-11.8-3-15.3c-11-7.1-26.2-17.2-46.9-17.2c-14,0-27.1,4.1-37.2,11.4
				c-9.9,7.3-17.2,18.5-17.2,31.4c0,6.5,1.7,12.5,4.9,17.6c4.7,7.5,11.8,12.9,20,16.8c8.2,3.9,17.6,6.4,27.7,8.4h0.4
				c12.7,2.4,23.2,6,29.4,10.1c3.2,2.1,5.2,4.3,6.5,6.4c1.3,2.2,1.9,4.1,1.9,6.9c0,5.4-2.8,10.8-9.2,15.5c-6.4,4.7-16.1,8-26.9,8
				c-10.5,0.1-21.6-4.1-30.5-9.3c0.1,0.5,0.1,1.1,0.1,1.7c0,7.9-5.4,14.6-12.7,16.6c11.6,7,26.4,13.1,43.1,13.2
				c13.9,0,26.7-3.8,36.9-10.3c1-0.6,2-1.3,2.9-1.9c1.6-1.2,3.1-2.4,4.6-3.8c8.3-7.6,13.9-17.9,13.9-29.6
				C522,140.5,520.1,134,516.9,128.9z"/>
		</g>
	</g>
	<g>
		<path class="st10" d="M375.2,42.5c6.6,0,11.9,5.4,11.9,11.9c0,6.6-5.3,12-11.9,12c-6.6,0-11.9-5.4-11.9-12
			C363.2,47.8,368.6,42.5,375.2,42.5"/>
		<g>
			<path class="st12" d="M358,54.4c0-4.6,1.9-8.9,4.9-11.9h-79.4c-6.7,0-11.8,5.2-11.8,11.8c0,6.5,5.2,12,11.8,12h34v114.8
				c0,6.7,5.4,11.8,11.8,11.8c6.7,0,11.8-5.2,11.8-11.8V66.3h21.8C359.9,63.2,358,59.1,358,54.4z"/>
		</g>
	</g>
</g>
</svg>
