<?xml version="1.0" encoding="utf-8"?>
<!-- Generator: Adobe Illustrator 22.0.1, SVG Export Plug-In . SVG Version: 6.00 Build 0)  -->
<svg version="1.1" id="Layer_1" xmlns="http://www.w3.org/2000/svg" xmlns:xlink="http://www.w3.org/1999/xlink" x="0px" y="0px"
	 width="834.766px" height="283.465px" viewBox="0 0 834.766 283.465" enable-background="new 0 0 834.766 283.465"
	 xml:space="preserve">
<g>
	<path fill="#5F4776" d="M446.806,95.768c1.763,1.893,2.639,4.337,2.639,7.333v119.51c0,3.001-0.914,5.445-2.736,7.333
		c-1.828,1.893-4.175,2.839-7.041,2.839c-3.396,0-5.997-1.303-7.825-3.91l-76.67-101.124v94.862c0,3.001-0.882,5.445-2.644,7.333
		c-1.758,1.893-4.078,2.839-6.943,2.839c-2.872,0-5.154-0.914-6.846-2.742c-1.698-1.822-2.542-4.299-2.542-7.43V103.1
		c0-2.996,0.914-5.44,2.736-7.333c1.828-1.893,4.175-2.839,7.041-2.839c3.391,0,5.997,1.309,7.825,3.915l76.676,101.319V103.1
		c0-2.996,0.844-5.44,2.541-7.333c1.693-1.893,3.975-2.839,6.846-2.839C442.729,92.929,445.043,93.875,446.806,95.768"/>
	<path fill="#5F4776" d="M484.258,230.045c-1.823-1.828-2.736-4.304-2.736-7.436V103.689c0-3.001,0.881-5.381,2.639-7.138
		c1.763-1.763,4.207-2.644,7.338-2.644h47.139c14.601,0,25.946,3.591,34.031,10.761s12.129,17.343,12.129,30.51
		c0,13.043-4.045,23.21-12.129,30.51c-8.084,7.306-19.43,10.956-34.031,10.956h-36.967v45.965c0,3.131-0.881,5.608-2.644,7.436
		c-1.758,1.822-4.272,2.736-7.528,2.736C488.498,232.782,486.086,231.868,484.258,230.045 M536.486,160.41
		c19.3,0,28.947-8.409,28.947-25.232c0-16.688-9.647-25.038-28.947-25.038h-34.815v50.27H536.486z"/>
	<path fill="#5F4776" d="M611.691,229.163c-1.763-1.763-2.639-4.137-2.639-7.138V103.688c0-3.001,0.876-5.381,2.639-7.138
		c1.763-1.763,4.202-2.644,7.333-2.644h71.982c2.996,0,5.31,0.719,6.943,2.152c1.628,1.438,2.444,3.461,2.444,6.067
		c0,2.606-0.817,4.596-2.444,5.965c-1.633,1.368-3.948,2.055-6.943,2.055h-62.199v43.418h58.29c2.996,0,5.31,0.719,6.938,2.152
		c1.633,1.438,2.45,3.455,2.45,6.067c0,2.606-0.817,4.629-2.45,6.062c-1.628,1.433-3.942,2.152-6.938,2.152h-58.29v45.571h62.199
		c6.257,0,9.388,2.677,9.388,8.02c0,2.612-0.817,4.629-2.444,6.062c-1.633,1.438-3.948,2.152-6.943,2.152h-71.982
		C615.893,231.802,613.454,230.926,611.691,229.163"/>
	<path fill="#5F4776" d="M736.773,219.09c-9.518-9.517-14.276-23.54-14.276-42.056V103.1c0-3.126,0.908-5.602,2.736-7.43
		c1.822-1.828,4.234-2.736,7.236-2.736c3.001,0,5.408,0.908,7.241,2.736c1.822,1.828,2.736,4.305,2.736,7.43v75.308
		c0,12.649,3.028,22.231,9.096,28.753c6.062,6.522,15.093,9.777,27.093,9.777c11.859,0,20.857-3.256,26.99-9.777
		c6.127-6.522,9.193-16.104,9.193-28.753V103.1c0-2.996,0.909-5.44,2.737-7.333c1.828-1.887,4.234-2.834,7.241-2.834
		c2.996,0,5.408,0.908,7.236,2.736c1.822,1.828,2.736,4.305,2.736,7.43v73.934c0,18.386-4.791,32.376-14.374,41.958
		c-9.588,9.582-23.507,14.374-41.758,14.374C760.243,233.367,746.291,228.608,736.773,219.09"/>
	<path fill="#5F4776" d="M178.805,77.346C178.805,34.631,144.174,0,101.459,0C58.743,0,24.113,34.631,24.113,77.346
		c0,42.716,34.631,77.346,77.346,77.346C144.174,154.693,178.805,120.062,178.805,77.346"/>
	<path fill="#BC955C" d="M283.43,65.448c5.813-14.731-1.412-31.381-16.137-37.2c-14.731-5.813-31.386,1.412-37.2,16.142
		c-5.819,14.725,1.411,31.381,16.137,37.194C260.961,87.404,277.616,80.179,283.43,65.448"/>
	<path fill="#BC955C" d="M158.735,191.093c8.555,1.109,36.48,4.38,74.01-18.164c27.823-16.715,46.047-41.061,47.799-55.553
		c1.665-11.713-6.484-22.561-18.197-24.227c-4.97-0.703-9.112,0.26-13.8,2.715c-14.569,7.641-18.089,34.463-31.743,54.493
		c-20.171,29.586-45.387,30.71-57.489,31.192c-2.65,0-4.802,2.152-4.802,4.802C154.511,188.806,156.361,190.802,158.735,191.093"/>
	<path fill="#5F4776" d="M275.846,153.938c-12.735,15.655-50.957,49.967-97.436,49.967c-46.474,0-69.456-23.334-104.158-37.686
		c-27.222-11.464-58.582,1.303-70.051,28.526c-8.479,20.127-3.677,42.504,10.394,57.44c23.74,26.016,71.879,44.83,150.091,18.803
		c78.206-26.027,116.076-100.854,121.527-110.652c1.471-3.018,0.243-6.5-2.769-8.036
		C280.745,150.915,277.549,151.678,275.846,153.938"/>
</g>
</svg>
