<?xml version="1.0" encoding="utf-8"?>
<!-- Generator: Adobe Illustrator 15.1.0, SVG Export Plug-In . SVG Version: 6.00 Build 0)  -->
<!DOCTYPE svg PUBLIC "-//W3C//DTD SVG 1.1//EN" "http://www.w3.org/Graphics/SVG/1.1/DTD/svg11.dtd">
<svg version="1.1" id="Quadrangle_and_Rectangle" xmlns="http://www.w3.org/2000/svg" xmlns:xlink="http://www.w3.org/1999/xlink"
	 x="0px" y="0px" width="212.598px" height="212.598px" viewBox="-43.799 -43.799 212.598 212.598"
	 enable-background="new -43.799 -43.799 212.598 212.598" xml:space="preserve">
<g>
	<rect x="-43.799" y="-43.799" fill="#002147" width="212.598" height="212.598"/>
	<g>
		<path fill="#FFFFFF" d="M-14.918,106.754c-0.708,0.707-1.816,1.262-3.481,1.262c-1.357,0-2.658-0.422-3.538-1.3
			c-1.146-1.148-1.109-2.602-1.109-3.862v-7.841h1.721v8.032c0,0.975-0.037,1.932,0.727,2.695c0.517,0.519,1.32,0.804,2.256,0.804
			c0.938,0,1.646-0.323,2.104-0.783c0.86-0.86,0.784-1.834,0.784-3.998v-6.75h1.684v6.482
			C-13.77,103.863-13.693,105.529-14.918,106.754z"/>
		<path fill="#FFFFFF" d="M-1.477,107.767l-6.024-10.154l0.037,10.154h-1.568V95.011h1.701l6.024,10.191l-0.038-10.191h1.568v12.756
			H-1.477z"/>
		<path fill="#FFFFFF" d="M5.371,107.767V95.011h1.721v12.756H5.371z"/>
		<path fill="#FFFFFF" d="M16.657,107.767h-1.893l-4.398-12.756h1.779l3.614,10.997l3.711-10.997h1.663L16.657,107.767z"/>
		<path fill="#FFFFFF" d="M24.476,107.767V95.011h7.057v1.415h-5.375v4.017h5.05v1.377h-5.05v4.494h5.528v1.453H24.476z"/>
		<path fill="#FFFFFF" d="M42.596,107.767l-1.473-3.328c-0.879-1.97-1.301-2.143-3.021-2.143H37.3v5.471h-1.684V95.011h2.83
			c1.702,0,3.022-0.02,4.055,1.014c0.63,0.631,0.993,1.473,0.993,2.543c0,0.882-0.249,1.626-0.785,2.198
			c-0.459,0.499-1.204,0.919-2.045,1.016c0.42,0.02,0.842,0.267,1.089,0.518c0.383,0.382,0.652,0.993,0.996,1.777l1.645,3.692
			h-1.798V107.767z M41.239,97.037c-0.689-0.688-1.589-0.669-2.621-0.669H37.3v4.572h0.594c1.222,0,2.465,0.036,3.269-0.764
			c0.401-0.402,0.631-0.997,0.631-1.608C41.793,97.879,41.524,97.326,41.239,97.037z"/>
		<path fill="#FFFFFF" d="M50.965,108.032c-2.256,0-3.767-1.224-3.92-1.377l0.821-1.184c0.23,0.152,1.474,1.089,3.022,1.089
			c1.568,0,2.484-0.937,2.484-2.103c0-1.395-1.561-2.086-2.938-2.754c-1.626-0.783-3.028-1.626-3.028-3.499
			c0-2.028,1.645-3.443,3.997-3.443c2.352,0,3.519,1.168,3.634,1.302l-0.86,1.108c-0.152-0.135-1.167-0.957-2.658-0.957
			c-1.396,0-2.389,0.689-2.389,1.836c0,1.205,1.127,1.652,2.389,2.302c1.129,0.574,3.635,1.448,3.635,3.953
			C55.155,106.408,53.605,108.032,50.965,108.032z"/>
		<path fill="#FFFFFF" d="M59.185,107.767V95.011h1.722v12.756H59.185z"/>
		<path fill="#FFFFFF" d="M69.695,96.426v11.341h-1.721V96.426h-3.751v-1.415h9.2v1.415H69.695z"/>
		<path fill="#FFFFFF" d="M80.854,102.718v5.049H79.15v-5.049l-4.034-7.707h1.88l3.109,6.003l3.053-6.003h1.729L80.854,102.718z"/>
		<path fill="#FFFFFF" d="M99.16,108.016c-3.365,0-5.794-2.733-5.794-6.599c0-3.938,2.409-6.655,5.89-6.655
			c3.405,0,5.775,2.718,5.775,6.561C105.031,105.301,102.642,108.016,99.16,108.016z M99.14,96.215
			c-2.428,0-4.016,2.045-4.016,5.164c0,3.096,1.78,5.162,4.112,5.162c2.659,0,4.036-2.275,4.036-5.278
			C103.272,98.223,101.571,96.215,99.14,96.215z"/>
		<path fill="#FFFFFF" d="M110.814,96.426v4.017h4.896v1.377h-4.896v5.947h-1.702V95.011h6.904v1.415H110.814z"/>
		<g>
			<path fill="#FFFFFF" d="M2.806,132.837c0,8.172-6.291,14.088-14.16,14.088c-8.011,0-14.161-5.993-14.161-13.786
				c0-8.165,6.3-14.084,14.161-14.084C-3.334,119.055,2.806,125.04,2.806,132.837L2.806,132.837L2.806,132.837z M-1.752,132.986
				c0-7.416-3.524-12.431-9.603-12.431c-6.591,0-9.586,6.065-9.586,12.431c0,7.421,3.52,12.46,9.586,12.46
				C-4.754,145.45-1.752,139.367-1.752,132.986L-1.752,132.986L-1.752,132.986z"/>
			<path fill="#FFFFFF" d="M89.279,132.837c0,8.172-6.294,14.088-14.161,14.088c-8.011,0-14.161-5.993-14.161-13.786
				c0-8.165,6.297-14.084,14.161-14.084C83.132,119.055,89.279,125.04,89.279,132.837L89.279,132.837L89.279,132.837z
				 M84.713,132.986c0-7.416-3.524-12.431-9.597-12.431c-6.596,0-9.59,6.065-9.59,12.431c0,7.421,3.521,12.46,9.59,12.46
				C81.71,145.45,84.713,139.367,84.713,132.986L84.713,132.986L84.713,132.986z"/>
			<path fill="#FFFFFF" d="M100.218,133.063h3.37c5.096,0,6.148-3.129,6.148-6.208c0-2.306-0.977-4.189-3.371-5.24
				c-1.279-0.527-2.477-0.6-4.123-0.6h-2.024V133.063L100.218,133.063z M106.366,137.504c-1.574-2.259-2.174-2.937-4.122-2.937
				h-2.024v9.004c0,0.752,0.226,1.123,1.124,1.277l3.074,0.602v1.056H92.28v-1.056l2.771-0.602c0.901-0.229,1.118-0.525,1.118-1.277
				v-21.129c0-0.752-0.291-1.131-1.118-1.28l-2.771-0.604v-1.048h11.834c2.479,0,4.197,0.223,5.622,0.75
				c2.92,1.125,4.567,3.908,4.567,6.517c0,3.304-2.468,6.061-6.592,7.04v0.153c0.825,0.372,1.274,0.906,4.199,4.733l3.747,4.868
				c0.522,0.752,1.124,1.277,2.091,1.429l2.551,0.45v1.056h-6.514c-0.753,0-1.13-0.229-1.801-1.136L106.366,137.504L106.366,137.504
				z"/>
			<path fill="#FFFFFF" d="M53.539,128.804h1.274v8.93h-1.274l-0.527-2.564c-0.216-0.974-0.816-1.353-1.721-1.353h-6.516v9.753
				c0,0.751,0.225,1.123,1.117,1.277l3.08,0.6v1.06H36.829v-1.06l2.769-0.6c0.903-0.229,1.129-0.526,1.129-1.277v-21.127
				c0-0.752-0.302-1.131-1.129-1.28l-2.769-0.604v-1.048h20.457v6.74h-1.271l-1.055-3.806c-0.299-1.058-0.901-1.429-1.8-1.429
				h-8.388v11.296h6.516c0.903,0,1.503-0.352,1.721-1.321L53.539,128.804L53.539,128.804z"/>
			<path fill="#FFFFFF" d="M122.473,146.506v-1.056l2.771-0.602c0.9-0.229,1.126-0.525,1.126-1.277v-21.129
				c0-0.752-0.301-1.131-1.126-1.28l-2.771-0.604v-1.048h12.666c3.445,0,5.916,0.446,7.936,1.352
				c5.102,2.335,7.418,7.345,7.418,12.279c0,4.812-1.79,9.298-6.364,11.71c-2.097,1.121-5.02,1.659-8.84,1.659h-12.815V146.506z
				 M130.346,121.015v22.775c0,0.98,0.223,1.21,1.195,1.21h3.297c3.145,0,5.468-0.381,7.117-1.582
				c2.777-2.029,3.973-5.539,3.973-10.202c0-4.564-1.195-8.896-4.946-11.079c-1.579-0.899-3.597-1.122-6.743-1.122H130.346
				L130.346,121.015z"/>
			<path fill="#FFFFFF" d="M13.451,145.45v1.056h-9.67v-1.056l2.396-0.525c0.9-0.23,1.577-0.524,2.106-1.212l8.097-10.345
				l-8.097-10.926c-0.529-0.752-1.206-1.131-2.029-1.355l-2.243-0.531v-1.046h11.917v1.048l-2.551,0.457
				c-0.82,0.149-0.745,0.372-0.292,0.973l5.987,8.476h0.152l6.214-8.326c0.453-0.601,0.453-0.899-0.224-1.05l-2.393-0.531v-1.046
				h9.661v1.048l-2.392,0.531c-0.903,0.225-1.58,0.526-2.102,1.201l-7.71,9.67l8.609,11.613c0.527,0.75,1.204,1.122,2.031,1.354
				l2.241,0.523v1.06h-11.92v-1.06l2.558-0.449c0.814-0.15,0.738-0.38,0.297-0.979l-6.529-9.146h-0.146l-6.669,9.146
				c-0.453,0.602-0.524,0.751,0.299,0.905L13.451,145.45L13.451,145.45z"/>
		</g>
	</g>
	<path fill="#FFFFFF" d="M106.043,8.66c0-1.573-0.531-2.844-1.685-3.519c-0.721-0.425-1.7-0.563-2.906-0.563l-8.73-0.001v17.707
		h9.508c2.199,0,3.494,0.495,3.607,2.468h0.209L106.043,8.66z"/>
	<path fill="#FFFFFF" d="M107.567,8.66c0-1.573,0.531-2.844,1.685-3.519c0.724-0.425,1.7-0.563,2.906-0.563l8.793-0.001v17.707
		h-9.567c-2.2,0-3.494,0.495-3.607,2.468h-0.211L107.567,8.66z"/>
	<path fill="#FFFFFF" d="M122.893,5.702c0,0,0,17.593,0,18.979c-1.34,0-13.817,0-13.817,0l-0.188,0.469
		c-0.227,0.555-0.632,1.068-2.066,1.068c-1.437,0-1.844-0.513-2.068-1.068l-0.188-0.469c0,0-12.436,0-13.777,0
		c0-1.386,0-18.979,0-18.979h-1.5v0.492l-1.051-0.323c-0.155-0.466-0.59-0.807-1.108-0.807c-0.645,0-1.171,0.526-1.171,1.172
		s0.526,1.172,1.171,1.172c0.27,0,0.515-0.096,0.715-0.249l1.446,0.444v1.449l-1.041-0.186c-0.177-0.38-0.552-0.653-1-0.673
		c-0.646-0.033-1.196,0.466-1.228,1.114c-0.032,0.646,0.467,1.195,1.114,1.226c0.339,0.018,0.651-0.115,0.877-0.336l1.277,0.229
		v1.481l-1.091-0.047c-0.21-0.323-0.572-0.539-0.987-0.539c-0.645,0-1.171,0.525-1.171,1.17c0,0.647,0.526,1.172,1.171,1.172
		c0.377,0,0.708-0.179,0.924-0.456l1.154,0.049v1.611l-1.13,0.041c-0.214-0.279-0.546-0.462-0.927-0.462
		c-0.646,0-1.171,0.525-1.171,1.172c0,0.646,0.526,1.17,1.171,1.17c0.41,0,0.771-0.211,0.98-0.532l1.076-0.038v1.483l-1.247,0.214
		c-0.213-0.213-0.505-0.344-0.827-0.344c-0.648,0-1.173,0.525-1.173,1.171c0,0.646,0.528,1.17,1.173,1.17
		c0.465,0,0.865-0.274,1.053-0.668l1.023-0.177v1.453l-1.386,0.423c-0.196-0.152-0.441-0.248-0.711-0.248
		c-0.647,0-1.172,0.526-1.172,1.172c0,0.647,0.527,1.172,1.172,1.172c0.519,0,0.954-0.338,1.106-0.806l0.99-0.305v1.397
		l-1.547,0.668c-0.19-0.117-0.417-0.182-0.659-0.173c-0.646,0.025-1.152,0.571-1.124,1.218c0.024,0.647,0.572,1.151,1.217,1.124
		c0.547-0.021,0.987-0.416,1.097-0.929l1.018-0.438v1.376c0,0,13.562,0,14.353,0c0.607,1.013,1.634,1.537,3.179,1.537
		c1.543,0,2.574-0.526,3.183-1.537c0.787,0,14.394,0,14.394,0V5.702H122.893z"/>
	<g>
		<ellipse fill="#FFFFFF" cx="97.416" cy="0.549" rx="5.231" ry="1.003"/>
		<path fill="#FFFFFF" d="M104.617-6.935l-3.02,2.123l-0.026,0.216l0.718,0.322c0.143,0.07,0.143,0.184,0.069,0.253l-1.896,1.601
			l-0.178-0.018l-1.345-1.981c-0.092-0.127-0.059-0.255,0.104-0.282l0.903-0.148v-0.228L97.608-8.38h-0.387l-2.339,3.303v0.228
			l0.902,0.148c0.162,0.027,0.195,0.155,0.103,0.282l-1.344,1.981L94.366-2.42l-1.773-1.601c-0.073-0.069-0.07-0.183,0.069-0.253
			l0.721-0.322l-0.026-0.216l-3.146-2.123l-0.256,0.101l1.847,5.643c0.937-0.421,3.091-0.717,5.614-0.729
			c2.52,0.012,4.674,0.308,5.612,0.729l1.847-5.643L104.617-6.935z"/>
	</g>
	<g>
		<ellipse fill="#FFFFFF" cx="106.797" cy="38.391" rx="5.231" ry="1.004"/>
		<path fill="#FFFFFF" d="M114.002,30.908l-3.021,2.123l-0.024,0.214l0.717,0.324c0.142,0.07,0.144,0.184,0.072,0.253l-1.898,1.6
			l-0.18-0.017l-1.342-1.982c-0.094-0.127-0.061-0.255,0.103-0.282l0.902-0.148v-0.228l-2.339-3.303h-0.387l-2.336,3.303v0.228
			l0.9,0.148c0.163,0.027,0.194,0.155,0.104,0.282l-1.346,1.982l-0.178,0.017l-1.772-1.6c-0.071-0.07-0.069-0.185,0.071-0.253
			l0.718-0.324l-0.026-0.214l-3.147-2.123l-0.253,0.101l1.848,5.643c0.938-0.421,3.089-0.717,5.612-0.729
			c2.52,0.012,4.675,0.308,5.612,0.729l1.847-5.643L114.002,30.908z"/>
	</g>
	<g>
		<ellipse fill="#FFFFFF" cx="116.156" cy="0.549" rx="5.231" ry="1.003"/>
		<path fill="#FFFFFF" d="M123.361-6.935l-3.021,2.123l-0.024,0.216l0.717,0.322c0.144,0.07,0.144,0.184,0.071,0.253l-1.896,1.601
			l-0.18-0.018l-1.345-1.981c-0.093-0.127-0.059-0.255,0.104-0.282l0.902-0.148v-0.228l-2.339-3.303h-0.386l-2.338,3.303v0.228
			l0.901,0.148c0.164,0.027,0.196,0.155,0.104,0.282l-1.345,1.981l-0.18,0.018l-1.771-1.623c-0.073-0.068-0.071-0.182,0.069-0.253
			l0.718-0.302l-0.024-0.216l-3.147-2.123L108.7-6.836l1.846,5.643c0.938-0.422,3.091-0.718,5.612-0.729
			c2.521,0.012,4.675,0.308,5.613,0.729l1.847-5.643L123.361-6.935z"/>
	</g>
	<circle fill="#FFFFFF" cx="106.757" cy="-22.126" r="1.073"/>
	<circle fill="#FFFFFF" cx="131.809" cy="-12.18" r="1.073"/>
	<g>
		<path fill="#002147" d="M94.948,7.301c0.478,0,0.88,0.094,1.139,0.347c0.183,0.177,0.336,0.464,0.336,0.801
			c0,0.972-0.737,1.39-1.642,1.39h-1.006V9.686c0.285-0.024,0.317-0.05,0.317-0.472V7.925c0-0.422-0.032-0.449-0.284-0.472V7.301
			H94.948z M94.755,9.218c0,0.347,0.087,0.414,0.272,0.414c0.337,0,0.675-0.371,0.675-1.062c0-0.839-0.426-1.075-0.756-1.075
			c-0.092,0-0.14,0.013-0.168,0.028c-0.021,0.009-0.024,0.099-0.024,0.194L94.755,9.218L94.755,9.218z"/>
		<path fill="#002147" d="M99.383,8.538c0,0.835-0.571,1.358-1.319,1.358c-0.79,0-1.302-0.575-1.302-1.292
			c0-0.633,0.422-1.363,1.355-1.363C98.831,7.243,99.383,7.765,99.383,8.538z M97.489,8.471c0,0.708,0.266,1.223,0.647,1.223
			c0.336,0,0.52-0.323,0.52-1.031c0-0.785-0.28-1.218-0.616-1.218C97.738,7.445,97.489,7.789,97.489,8.471z"/>
		<path fill="#002147" d="M102.829,7.301v0.153c-0.298,0.027-0.314,0.042-0.301,0.453l0.04,1.31c0.01,0.434,0.017,0.446,0.299,0.472
			V9.84h-1.223V9.688c0.292-0.027,0.306-0.038,0.303-0.472l-0.014-1.376h-0.017l-0.751,1.957h-0.212l-0.711-1.819h-0.011
			l-0.027,0.868c-0.012,0.334-0.007,0.521,0.008,0.643c0.017,0.145,0.103,0.18,0.355,0.199V9.84h-0.963V9.688
			c0.186-0.016,0.262-0.055,0.285-0.199c0.02-0.121,0.04-0.326,0.06-0.682l0.044-0.79c0.029-0.492-0.004-0.534-0.313-0.561V7.303
			h0.917l0.683,1.546l0.6-1.546h0.948V7.301z"/>
		<path fill="#002147" d="M104.098,9.214c0,0.422,0.031,0.449,0.304,0.472v0.153h-1.266V9.686c0.268-0.024,0.3-0.05,0.3-0.472V7.925
			c0-0.422-0.032-0.449-0.3-0.472V7.301h1.266v0.153c-0.272,0.024-0.304,0.05-0.304,0.472V9.214z"/>
	</g>
	<g>
		<path fill="#002147" d="M97.812,14.552h-0.336l-1.446-1.844h-0.009v0.719c0,0.41,0.017,0.625,0.033,0.745
			c0.021,0.136,0.123,0.187,0.384,0.199v0.151h-0.974v-0.151c0.175-0.008,0.274-0.063,0.294-0.199
			c0.018-0.121,0.032-0.335,0.032-0.745v-0.719c0-0.289-0.009-0.339-0.088-0.449c-0.057-0.083-0.156-0.109-0.296-0.121v-0.153h0.863
			l1.301,1.621h0.009v-0.524c0-0.409-0.016-0.624-0.033-0.745c-0.021-0.136-0.123-0.187-0.383-0.199v-0.153h0.995v0.153
			c-0.194,0.008-0.297,0.063-0.317,0.199c-0.013,0.121-0.029,0.335-0.029,0.745V14.552z"/>
		<path fill="#002147" d="M99.393,14.552c-0.27-0.703-0.638-1.667-0.777-2.035c-0.128-0.335-0.206-0.355-0.394-0.379v-0.153h1.261
			v0.153l-0.133,0.015c-0.145,0.018-0.145,0.051-0.104,0.188c0.07,0.218,0.381,0.987,0.525,1.371
			c0.119-0.332,0.37-1.078,0.434-1.261c0.081-0.239,0.058-0.281-0.115-0.302l-0.118-0.012v-0.153h0.945v0.153
			c-0.224,0.029-0.277,0.047-0.43,0.401c-0.025,0.055-0.5,1.214-0.793,2.012H99.393z"/>
		<path fill="#002147" d="M101.153,13.718c0.079,0.229,0.312,0.66,0.694,0.66c0.202,0,0.358-0.133,0.358-0.386
			c0-0.232-0.153-0.359-0.389-0.468l-0.059-0.029c-0.32-0.147-0.683-0.35-0.683-0.769c0-0.44,0.319-0.801,0.934-0.801
			c0.118,0,0.246,0.015,0.359,0.047c0.089,0.022,0.152,0.037,0.202,0.055c0.017,0.151,0.042,0.341,0.087,0.607l-0.175,0.028
			c-0.085-0.258-0.221-0.535-0.53-0.535c-0.199,0-0.34,0.154-0.34,0.341c0,0.194,0.152,0.31,0.403,0.422l0.085,0.037
			c0.36,0.166,0.669,0.364,0.669,0.82c0,0.48-0.387,0.831-0.993,0.831c-0.156,0-0.315-0.031-0.422-0.065
			c-0.116-0.039-0.199-0.071-0.244-0.096c-0.031-0.178-0.085-0.389-0.13-0.651L101.153,13.718z"/>
	</g>
	<g>
		<path fill="#002147" d="M96.074,18.584c0,0.419,0.031,0.448,0.302,0.473v0.151H95.11v-0.151c0.27-0.026,0.303-0.053,0.303-0.473
			v-1.29c0-0.422-0.033-0.449-0.303-0.471v-0.153h1.266v0.153c-0.271,0.024-0.302,0.049-0.302,0.471V18.584z"/>
		<path fill="#002147" d="M97.618,18.633c0,0.205,0.011,0.301,0.08,0.335c0.063,0.032,0.152,0.035,0.272,0.035
			c0.126,0,0.292-0.01,0.377-0.112c0.062-0.073,0.128-0.177,0.191-0.386l0.167,0.027c-0.024,0.15-0.107,0.555-0.141,0.675h-1.937
			v-0.151c0.297-0.026,0.327-0.053,0.327-0.473v-1.29c0-0.422-0.032-0.449-0.294-0.471v-0.153h1.271v0.153
			c-0.282,0.024-0.314,0.049-0.314,0.471V18.633L97.618,18.633z"/>
		<path fill="#002147" d="M99.798,18.633c0,0.205,0.01,0.301,0.079,0.335c0.063,0.032,0.153,0.035,0.272,0.035
			c0.125,0,0.293-0.01,0.376-0.112c0.063-0.073,0.126-0.177,0.189-0.386l0.169,0.027c-0.023,0.15-0.106,0.555-0.14,0.675h-1.937
			v-0.151c0.296-0.026,0.325-0.053,0.325-0.473v-1.29c0-0.422-0.029-0.449-0.292-0.471v-0.153h1.27v0.153
			c-0.281,0.024-0.313,0.049-0.313,0.471V18.633L99.798,18.633z"/>
		<path fill="#002147" d="M101.664,19.237c-0.269-0.705-0.638-1.667-0.776-2.034c-0.128-0.335-0.206-0.355-0.395-0.379v-0.153h1.263
			v0.153l-0.135,0.015c-0.145,0.016-0.145,0.05-0.103,0.188c0.073,0.218,0.38,0.987,0.524,1.37c0.12-0.331,0.371-1.078,0.434-1.26
			c0.082-0.24,0.059-0.282-0.118-0.301l-0.114-0.012v-0.153h0.945v0.153c-0.223,0.027-0.277,0.046-0.431,0.401
			c-0.022,0.055-0.498,1.214-0.79,2.012H101.664z"/>
	</g>
	<g>
		<path fill="#002147" d="M112.447,7.386v0.153c-0.299,0.028-0.313,0.042-0.303,0.455l0.039,1.308
			c0.015,0.434,0.021,0.445,0.3,0.473v0.151h-1.221V9.774c0.293-0.029,0.308-0.039,0.301-0.473l-0.012-1.376h-0.017l-0.752,1.956
			h-0.209l-0.715-1.818h-0.01l-0.026,0.867c-0.014,0.335-0.01,0.522,0.007,0.643c0.015,0.145,0.103,0.18,0.355,0.201v0.151h-0.964
			V9.774c0.188-0.017,0.261-0.056,0.286-0.201c0.02-0.121,0.041-0.327,0.062-0.682l0.043-0.789c0.026-0.492-0.004-0.534-0.314-0.562
			V7.388h0.917l0.683,1.545l0.6-1.545h0.95V7.386z"/>
		<path fill="#002147" d="M113.716,9.299c0,0.422,0.032,0.449,0.3,0.474v0.151h-1.265V9.772c0.271-0.026,0.301-0.052,0.301-0.474
			V8.01c0-0.422-0.03-0.449-0.301-0.471V7.386h1.265v0.153c-0.268,0.024-0.3,0.049-0.3,0.471V9.299z"/>
		<path fill="#002147" d="M116.619,9.953h-0.334l-1.446-1.844h-0.007v0.718c0,0.41,0.017,0.625,0.032,0.745
			c0.02,0.138,0.124,0.188,0.384,0.201v0.151h-0.974V9.772c0.173-0.01,0.275-0.063,0.292-0.201c0.019-0.12,0.033-0.334,0.033-0.745
			V8.109c0-0.289-0.008-0.34-0.086-0.449c-0.059-0.083-0.156-0.109-0.296-0.121V7.386h0.862l1.3,1.621h0.007V8.482
			c0-0.409-0.015-0.623-0.029-0.746c-0.021-0.135-0.125-0.187-0.386-0.198V7.384h0.997v0.154c-0.193,0.007-0.296,0.063-0.316,0.198
			c-0.017,0.122-0.033,0.336-0.033,0.746V9.953z"/>
		<path fill="#002147" d="M118.251,9.772l0.119-0.018c0.143-0.02,0.149-0.057,0.102-0.198l-0.142-0.398h-0.641l-0.116,0.375
			c-0.05,0.168-0.05,0.206,0.128,0.227l0.111,0.013v0.151h-0.907V9.774c0.199-0.029,0.256-0.044,0.387-0.372l0.781-2.02l0.269-0.054
			l0.264,0.738c0.17,0.464,0.336,0.925,0.485,1.323c0.126,0.339,0.196,0.358,0.387,0.384v0.151h-1.227V9.772z M117.756,8.924h0.501
			l-0.245-0.745h-0.016L117.756,8.924z"/>
	</g>
	<g>
		<path fill="#002147" d="M112.414,13.983c0,0.422,0.033,0.451,0.358,0.473v0.151h-1.365v-0.151
			c0.313-0.024,0.344-0.051,0.344-0.473v-1.709h-0.066c-0.261,0-0.367,0.046-0.43,0.118c-0.043,0.058-0.093,0.16-0.145,0.377h-0.165
			c0.017-0.326,0.039-0.596,0.047-0.795h0.121c0.059,0.09,0.099,0.099,0.203,0.099h1.558c0.102,0,0.121-0.025,0.181-0.099h0.122
			c0.003,0.165,0.024,0.495,0.041,0.784l-0.169,0.012c-0.061-0.232-0.104-0.334-0.163-0.401c-0.066-0.07-0.192-0.094-0.382-0.094
			h-0.097v1.709H112.414z"/>
		<path fill="#002147" d="M114.459,13.983c0,0.422,0.031,0.451,0.3,0.473v0.151h-1.262v-0.151c0.269-0.024,0.301-0.051,0.301-0.473
			v-1.288c0-0.422-0.032-0.45-0.301-0.473v-0.151h1.262v0.151c-0.269,0.024-0.3,0.051-0.3,0.473V13.983z"/>
		<path fill="#002147" d="M117.706,13.309c0,0.834-0.571,1.358-1.319,1.358c-0.79,0-1.3-0.575-1.3-1.292
			c0-0.633,0.42-1.365,1.354-1.365C117.154,12.01,117.706,12.536,117.706,13.309z M115.813,13.24c0,0.708,0.264,1.224,0.647,1.224
			c0.336,0,0.521-0.325,0.521-1.03c0-0.786-0.28-1.218-0.618-1.218C116.063,12.216,115.813,12.558,115.813,13.24z"/>
	</g>
	<g>
		<path fill="#002147" d="M113.566,16.756v0.153c-0.295,0.027-0.312,0.042-0.299,0.454l0.038,1.308
			c0.012,0.434,0.019,0.446,0.301,0.472v0.152h-1.223v-0.152c0.293-0.028,0.305-0.039,0.301-0.472l-0.012-1.378h-0.017l-0.752,1.956
			h-0.211l-0.715-1.818h-0.006l-0.03,0.867c-0.01,0.335-0.007,0.522,0.01,0.644c0.017,0.146,0.102,0.18,0.355,0.2v0.152h-0.965
			v-0.152c0.189-0.017,0.263-0.054,0.286-0.2c0.021-0.121,0.043-0.326,0.062-0.683l0.043-0.789c0.028-0.491-0.004-0.534-0.313-0.561
			v-0.153h0.917l0.685,1.546l0.596-1.546H113.566z"/>
		<path fill="#002147" d="M114.171,17.38c0-0.422-0.033-0.449-0.292-0.472v-0.153h1.851c0.003,0.066,0.023,0.352,0.043,0.645
			l-0.173,0.012c-0.038-0.191-0.083-0.301-0.146-0.363c-0.06-0.068-0.188-0.091-0.395-0.091h-0.066c-0.149,0-0.156,0-0.156,0.138
			v0.751h0.194c0.335,0,0.347-0.024,0.387-0.32h0.173v0.922h-0.173c-0.038-0.342-0.05-0.368-0.387-0.368h-0.194v0.636
			c0,0.204,0.007,0.301,0.076,0.335c0.063,0.034,0.154,0.036,0.272,0.036c0.156,0,0.329-0.024,0.415-0.117
			c0.064-0.07,0.131-0.214,0.191-0.402l0.171,0.029c-0.021,0.19-0.102,0.589-0.137,0.694h-1.986v-0.152
			c0.299-0.025,0.331-0.051,0.331-0.473L114.171,17.38L114.171,17.38z"/>
		<path fill="#002147" d="M117.335,19.142l0.118-0.017c0.143-0.021,0.149-0.058,0.102-0.199l-0.142-0.398h-0.639l-0.118,0.376
			c-0.05,0.167-0.05,0.205,0.129,0.226l0.113,0.013v0.152h-0.91v-0.152c0.199-0.028,0.259-0.044,0.387-0.372l0.781-2.019
			l0.269-0.055l0.266,0.738c0.168,0.464,0.334,0.925,0.483,1.324c0.127,0.338,0.196,0.358,0.389,0.383v0.152h-1.228V19.142
			L117.335,19.142z M116.841,18.293h0.499l-0.249-0.745h-0.012L116.841,18.293z"/>
	</g>
	<circle fill="#FFFFFF" cx="102.163" cy="51.435" r="1.073"/>
	<circle fill="#FFFFFF" cx="112.729" cy="53.169" r="1.073"/>
	<path fill="#FFFFFF" d="M73.282-5.38L73.282-5.38L73.282-5.38z"/>
	<path fill="#FFFFFF" d="M115.052-17.138L115.052-17.138L115.052-17.138z"/>
	<path fill="#FFFFFF" d="M117.062-24.208L117.062-24.208L117.062-24.208z"/>
	<path fill="#FFFFFF" d="M133.873-3.507L133.873-3.507L133.873-3.507z"/>
	<path fill="#FFFFFF" d="M145.652,19.783L145.652,19.783L145.652,19.783z"/>
	<path fill="#FFFFFF" d="M141.976,30.375L141.976,30.375L141.976,30.375z"/>
	<path fill="#FFFFFF" d="M78.066,31.221c0.368,0.001,1.408,0.104,2.287,1.354c0.361,0.515,0.616,1.12,0.616,1.755
		c-0.004,1.051-0.516,1.658-1.746,2.523l-3.269,2.306l-0.889-1.263l3.661-2.585c0.339-0.238,0.789-0.629,0.79-1.131
		c0-0.277-0.036-0.502-0.287-0.86c-0.391-0.55-0.796-0.6-1.053-0.6c-0.391,0-0.756,0.234-1.543,0.788l-3.173,2.069l-0.863-1.231
		l3.368-2.205C76.857,31.521,77.429,31.219,78.066,31.221z"/>
	<path fill="#FFFFFF" d="M72.243,28.234l4.478-1.757l0.481,1.256l-6.758,2.619l-0.477-1.31l3.498-4.453l-4.51,1.575l-0.48-1.318
		l6.82-2.384l0.451,1.238L72.243,28.234z"/>
	<path fill="#FFFFFF" d="M67.388,19.242l7.181-1.092l0.232,1.528l-7.179,1.091L67.388,19.242z"/>
	<path fill="#FFFFFF" d="M74.31,13.387l-7.36,2.206l0.065-1.556l5.521-1.488l-5.373-1.98l0.062-1.513l7.148,2.831L74.31,13.387z"/>
	<path fill="#FFFFFF" d="M67.994,5.126l1.203-4.23l1.195,0.339L69.605,4l1.621,0.461l0.74-2.595l1.172,0.331l-0.739,2.597
		l1.78,0.507l0.811-2.85l1.216,0.346l-1.229,4.313L67.994,5.126z"/>
	<path fill="#FFFFFF" d="M79.083-3.019l-2.153-0.19c-1.016-0.095-1.114,0.149-1.401,0.665l-0.086,0.151l2.551,1.358l-0.756,1.344
		l-6.383-3.496L71.9-5.026c0.472-0.846,0.974-1.745,2.253-1.745c0.802,0,1.916,0.673,1.916,1.886c0,0.216-0.05,0.444-0.143,0.681
		c0.289-0.414,0.809-0.475,1.282-0.47c0.261,0.003,0.52,0.041,0.732,0.06l1.937,0.17L79.083-3.019z M73.721-5.218
		c-0.37,0.105-0.561,0.39-0.837,0.886L72.645-3.92l1.761,0.949l0.298-0.533c0.247-0.447,0.304-0.702,0.216-1.013
		c-0.065-0.238-0.289-0.485-0.509-0.607C74.153-5.271,73.9-5.27,73.721-5.218z"/>
	<path fill="#FFFFFF" d="M82.298-17.318l1.236-0.929l4.368,5.798l-1.236,0.93L82.298-17.318z"/>
	<path fill="#FFFFFF" d="M90.446-20.917l2.758,5.351l-1.374,0.708l-2.759-5.351l-1.771,0.914l-0.569-1.103l4.906-2.529l0.568,1.102
		L90.446-20.917z"/>
	<path fill="#FFFFFF" d="M98.942-20.527l0.701,2.809l-1.438,0.357l-0.7-2.81l-3.274-3.682l1.521-0.381l2.166,2.535l0.728-3.26
		l1.457-0.357L98.942-20.527z"/>
	<path fill="#FFFFFF" d="M125.225-17.92l2.294,1.366l-0.625,1.047l-2.292-1.365l-1.593,2.676l-1.311-0.782l3.716-6.238l3.722,2.218
		l-0.638,1.064l-2.411-1.438L125.225-17.92z"/>
	<path fill="#FFFFFF" d="M138.274,5.67l1.986-2.186l-2.883-0.68l-0.477-1.518l4.286,1.12l2.688-3.146l0.498,1.59l-1.843,2.015
		l2.676,0.645l0.463,1.485l-3.982-1.066l-2.92,3.32L138.274,5.67L138.274,5.67z"/>
	<path fill="#FFFFFF" d="M145.221,10.845l-1.685,0.135l0.178,2.682l-1.217,0.082l-0.177-2.66l-3.109,0.209l-0.103-1.458l7.248-0.594
		l0.289,4.366l-1.239,0.083L145.221,10.845L145.221,10.845z"/>
	<path fill="#FFFFFF" d="M150.323,14.407c0.194-23.952-19.167-43.599-43.163-43.792c-11.213-0.092-21.893,4.07-30.077,11.711
		C68.287-9.458,63.391,1.686,63.292,13.703c-0.117,14.332,6.835,27.747,18.601,35.964c1.116,4.653,5.318,8.129,10.331,8.129
		c1.436,0,2.822-0.28,4.134-0.831c1.394,0.443,2.826,0.816,4.254,1.115c-0.463,1.276-1.121,2.477-1.761,3.565l1.04,1.041
		c0.249-0.166,0.542-0.247,0.837-0.249c0.798,0,1.559,0.545,1.552,1.526c0,0.801-0.538,1.548-1.659,1.548
		c-0.606,0-1.394-0.32-1.819-1.23c0,0-0.282,0.885-0.282,1.951c0,3.229,3.51,6.783,8.208,8.271c4.725-1.475,8.221-5.042,8.221-8.271
		c0-1.066-0.282-1.951-0.282-1.951c-0.426,0.908-1.211,1.23-1.819,1.23c-1.119,0-1.659-0.747-1.659-1.548
		c-0.007-0.981,0.756-1.526,1.553-1.526c0.293,0.002,0.587,0.083,0.834,0.249l0.958-0.953l0.025-0.013l0.038-0.051
		c0.005,0.003,0.012,0.005,0.015,0.008l0.004-0.027l0.003-0.007l-0.003-0.008v-0.001c-0.471-1.126-0.814-2.152-1.057-3.132
		c7.793-1.068,14.369-4.375,19.604-9.88l-0.008-0.01C143.958,40.403,150.213,27.976,150.323,14.407z M92.228,56.334
		c-5.013,0-9.094-4.092-9.094-9.123c0-1.573,0.398-3.053,1.098-4.345c0.465,0.422,0.962,0.86,1.479,1.305
		c-0.442,0.934-0.698,1.972-0.698,3.074c0,2.73,1.377,4.988,3.981,6.522c1.51,0.891,3.224,1.693,5.041,2.389
		C93.443,56.275,92.839,56.334,92.228,56.334z M106.807,43.012c-1.7,0-3.375-0.153-5.022-0.441
		c-1.773-3.614-5.515-5.946-9.557-5.946c-1.037,0-2.037,0.156-2.986,0.432c-7.133-5.464-11.376-14.002-11.376-23.001
		c0-15.967,12.985-28.958,28.943-28.958c15.96,0,28.944,12.992,28.944,28.958C135.75,30.021,122.769,43.012,106.807,43.012z
		 M112.985,43.846c-0.751,1.209-1.209,2.78-1.372,4.371c-2.65-0.694-5.059-1.61-7.172-2.57c0.293-0.61,0.977-1.178,2.147-1.178
		c0.073,0,0.145,0.006,0.218,0.006C108.923,44.475,110.989,44.257,112.985,43.846z M103.729,44.324
		c-0.241,0.211-0.44,0.451-0.604,0.704c-0.929-0.393-2.722-1.231-3.302-1.58C100.741,43.744,102.797,44.23,103.729,44.324z
		 M92.228,38.087c3.046,0,5.896,1.563,7.566,4.067c-1.468-0.366-2.914-0.846-4.321-1.446l-0.003,0.008l-0.04-0.024
		c-0.981-0.461-2.031-0.697-3.126-0.697c-2.425,0-4.571,1.187-5.896,3.004c-0.555-0.31-1.109-0.633-1.656-0.97
		C86.394,39.65,89.131,38.087,92.228,38.087z M112.611,61.093c-1.666,0-2.904,1.301-2.904,2.909c0,1.873,1.312,3.003,3.003,3.003
		c0.209,0,0.415-0.025,0.611-0.067c-0.504,2.336-3.266,4.867-6.595,5.998c-3.269-1.131-6.075-3.662-6.577-5.998
		c0.196,0.042,0.4,0.067,0.611,0.067c1.688,0,3.003-1.13,3.003-3.003c0-1.607-1.238-2.909-2.908-2.909
		c0.422-0.774,0.897-1.726,1.251-2.727c1.963,0.337,3.898,0.522,5.7,0.522c1.451,0,2.865-0.076,4.245-0.211
		c0.187,0.709,0.635,2.074,0.753,2.427C112.744,61.098,112.683,61.093,112.611,61.093z M107.807,57.428
		c-5.797,0-13.028-1.971-18.001-4.904c-1.481-0.875-3.252-2.503-3.252-5.28c0-0.724,0.14-1.41,0.38-2.048
		c1.879,1.544,3.802,2.981,5.018,3.648c0.286,0.158,0.45,0.232,0.784,0.232c0.797,0,1.445-0.649,1.445-1.451
		c0-0.612-0.332-1.109-0.881-1.349c-1.043-0.458-3.205-1.351-5.547-2.556c1.053-1.373,2.7-2.261,4.551-2.261
		c0.854,0,1.673,0.182,2.439,0.543l1.583,0.923c5.029,3.071,17.885,10.92,33.465,6.844C123.904,54.91,116.686,57.428,107.807,57.428
		z M132.149,47.509c-6.963,2.454-13.466,2.3-19.028,1.073c0.178-2.381,1.066-5.019,2.531-5.417
		c12.507-3.792,21.639-15.407,21.639-29.11c0-16.774-13.676-30.421-30.484-30.421S76.324-2.72,76.324,14.055
		c0,9.162,4.197,17.878,11.296,23.632c-1.665,0.801-3.085,2.021-4.129,3.517c-0.5-0.347-0.98-0.706-1.433-1.075l-0.283,0.286
		c0.311,0.372,0.767,0.851,1.323,1.391c-0.953,1.582-1.505,3.429-1.505,5.405c0,0.136,0.014,0.269,0.021,0.403
		c-10.641-7.999-16.892-20.534-16.78-33.902c0.095-11.628,4.828-22.404,13.328-30.345c7.894-7.369,18.185-11.378,28.985-11.293
		c23.145,0.187,41.823,19.171,41.634,42.32C148.675,27.54,142.616,39.573,132.149,47.509z"/>
	<path fill="#FFFFFF" d="M83.617-9.521c0,0.621-0.272,1.278-0.814,1.873c-1.043,1.141-2.157,1.243-2.271,1.241l-0.315-1.204
		c0.176-0.045,0.991-0.214,1.571-0.849c0.262-0.287,0.398-0.593,0.398-0.862c0-0.288-0.189-0.784-0.781-0.784
		c-0.631,0-1.686,0.914-2.767,0.914c-0.415,0-0.877-0.058-1.358-0.498c-0.464-0.425-0.68-0.967-0.68-1.519
		c0-0.602,0.274-1.235,0.785-1.793c0.971-1.062,2.037-1.146,2.13-1.151l0.261,1.182c-0.123,0.022-0.917,0.194-1.408,0.733
		c-0.255,0.276-0.388,0.578-0.388,0.839c0,0.286,0.18,0.636,0.651,0.643c0.521,0.008,1.827-0.948,2.887-0.948
		c0.491,0,0.851,0.088,1.349,0.544C83.368-10.702,83.617-10.127,83.617-9.521z"/>
	<path fill="#FFFFFF" d="M117.064-16.823c-1.851,0-3.531-1.409-3.531-3.53c0-1.895,1.27-4.092,3.578-4.092
		c1.877,0,3.61,1.325,3.61,3.459C120.722-19.383,119.639-16.823,117.064-16.823z M119.176-21.007c0-0.502-0.115-1.027-0.419-1.434
		c-0.313-0.423-0.832-0.72-1.446-0.72c-1.301,0-2.252,1.614-2.252,2.948c0,1.238,0.833,2.078,1.956,2.078
		C118.486-18.133,119.176-20.044,119.176-21.007z"/>
	<path fill="#FFFFFF" d="M137.207-1.31c-2.211,0-3.429-2.129-3.429-3.558c0-2.165,2.33-3.82,4.15-3.82
		c1.987,0,3.443,1.888,3.443,3.597C141.374-3.146,139.344-1.31,137.207-1.31z M136.949-2.781c1.275,0,3.043-1.104,3.043-2.587
		c0-1.024-0.794-1.822-1.813-1.822c-1.192,0-3.011,1.062-3.011,2.561C135.169-3.832,135.776-2.781,136.949-2.781z"/>
	<path fill="#FFFFFF" d="M138.637,20.081c0-1.793,1.213-3.555,3.627-3.555c2.028,0,3.991,1.25,3.991,3.499
		c0,1.845-1.183,3.619-3.579,3.619C140.623,23.642,138.637,22.348,138.637,20.081z M142.756,22.091c1.285,0,2.23-0.788,2.23-1.944
		c0-1.381-1.596-2.084-2.83-2.084c-1.583,0-2.221,1.027-2.221,1.993C139.936,21.571,141.787,22.091,142.756,22.091z"/>
	<path fill="#FFFFFF" d="M135.876,28.641l2.159,0.011c1.023,0.008,1.1-0.244,1.344-0.777l0.071-0.16l-2.598-1.206l0.623-1.379
		l6.574,3.035l-0.844,1.891c-0.576,1.272-1.068,1.915-2.274,1.915c-0.773,0-1.908-0.644-1.899-1.826
		c0.001-0.182,0.026-0.378,0.084-0.585c-0.387,0.672-1.358,0.579-1.968,0.579l-1.945-0.009L135.876,28.641z M140.087,29.448
		c0,0.555,0.467,0.995,0.984,0.995c0.462,0,0.754-0.253,1.026-0.857l0.229-0.542l-1.795-0.842l-0.301,0.67
		C140.132,29.09,140.087,29.283,140.087,29.448z"/>
	<path fill="#FFFFFF" d="M131.455,36.67c0-1.485,0.688-2.293,1.56-3.366l0.941-1.157l5.634,4.584l-1.266,1.553
		c-0.712,0.877-1.553,1.956-3.169,1.956c-0.92,0-1.728-0.427-2.299-0.891C132.139,38.767,131.455,37.78,131.455,36.67z
		 M135.325,38.799c0.764,0,1.209-0.23,2.089-1.311l0.274-0.339l-3.74-3.042l-0.46,0.564c-0.452,0.554-0.685,1.099-0.685,1.624
		c0,0.7,0.346,1.314,1.053,1.89C134.366,38.601,134.837,38.799,135.325,38.799z"/>
</g>
</svg>
