<?xml version="1.0" encoding="utf-8"?>
<!-- Generator: Adobe Illustrator 15.1.0, SVG Export Plug-In . SVG Version: 6.00 Build 0)  -->
<!DOCTYPE svg PUBLIC "-//W3C//DTD SVG 1.1//EN" "http://www.w3.org/Graphics/SVG/1.1/DTD/svg11.dtd">
<svg version="1.1" id="Layer_1" xmlns="http://www.w3.org/2000/svg" xmlns:xlink="http://www.w3.org/1999/xlink" x="0px" y="0px"
	 width="830.603px" height="283.465px" viewBox="0 -35.432 830.603 283.465" enable-background="new 0 -35.432 830.603 283.465"
	 xml:space="preserve">
<path fill="#328953" d="M236.598-33.749c-48.5,8.552-92.462,39.825-95.452,91.963c-8.04,2.953-13.786,10.656-13.786,19.723
	c0,11.614,9.415,21.03,21.028,21.03s21.032-9.417,21.032-21.03c0-9.047-5.725-16.736-13.738-19.703
	c0.053-0.064,0.116-0.127,0.117-0.194c0.449-24.047,9.822-45.619,26.356-62.981c8.207-8.617,18.303-15.23,28.917-20.467
	c3.057-1.509,6.253-2.758,9.466-3.912c-5.822,2.119,5.277-1.147,8.071-1.551c7.018-1.01,14.139-1.004,21.201-0.668
	c45.792,2.185,85.993,35.86,93.403,80.433c1.439-0.603,3.883-1.163,3.766-2.799c-0.391-5.496,5.092-6.681,9.672-8.297
	C344.186-13.377,289.067-43.003,236.598-33.749z"/>
<path fill="#328953" d="M62.292,114.781c31.929,0,45.771,15.37,46.412,35.755c1.162,32.181-33.332,50.142-59.954,32.671
	l-0.021-1.765c-0.117-0.13,22.479,2.249,28.961-21.284c0.892-3.297,1.307-7.673,1.15-11.219
	c-0.523-15.911-9.086-26.291-24.021-26.291H42.37v109.166c0.122,6.504,5.421,11.735,11.943,11.735h2.371l0.028,1.866H0l0.029-1.866
	h2.361c6.531,0,11.832-5.236,11.96-11.735V127.385c0-6.295-5.695-10.753-11.915-10.753H0.094l-0.029-1.854L62.292,114.781z"/>
<path fill="#328953" d="M177.979,245.409h-56.692l0.028-1.867h2.361c6.531,0,11.831-5.234,11.954-11.731V128.284
	c-0.161-6.465-5.445-11.659-11.951-11.659h-2.359l-0.031-1.864h56.687l-0.028,1.864h-2.361c-6.49,0-11.768,5.173-11.95,11.618
	V231.81c0.122,6.497,5.421,11.731,11.953,11.731h2.361L177.979,245.409z"/>
<path fill="#328953" d="M307.429,143.723l-1.883-0.026v-2.195c0.021-11.378-7.224-18.761-18.675-19.05h-25.069v109.506
	c0.201,6.434,5.469,11.591,11.95,11.591h2.361l0.028,1.864h-56.716l0.028-1.864h2.361c6.428,0,11.663-5.074,11.944-11.434V122.452
	h-25.093c-11.449,0.291-18.696,7.673-18.672,19.05v2.195l-1.886,0.026v-32.525c3.445,1.451,14.089,3.298,22.12,3.393h75.073
	c8.028-0.095,18.674-1.941,22.117-3.393L307.429,143.723z"/>
<path fill="#328953" d="M442.645,190.946l1.805,32.121c-8.361,13.813-24.26,24.966-52.441,24.966
	c-45.826-0.188-75.71-25.515-75.71-68.115c0-41.745,28.838-67.743,76.241-67.743c19.872,0,35.824,4.618,46.402,10.109l0.367,32.019
	h-1.555c-6.802-24.502-22.824-34.259-43.345-34.271c-29.604,0-47.69,22.801-47.69,59.463c0,36.946,17.497,59.934,45.285,60.68
	c28.717-0.032,43.273-12.535,49.084-49.228H442.645z"/>
<path fill="#328953" d="M549.236,245.409l0.034-1.864h2.359c6.481,0,11.752-5.157,11.95-11.591v-47.638h-60.508v47.495
	c0.123,6.5,5.42,11.734,11.951,11.734h2.364l0.028,1.865H460.72l0.029-1.865h2.364c6.531,0,11.831-5.234,11.95-11.734V128.364
	c-0.158-6.466-5.442-11.735-11.95-11.735h-2.359l-0.031-1.863h56.685l-0.025,1.863h-2.362c-6.492,0-11.766,5.289-11.95,11.735
	v48.086h60.507v-48.086c-0.244-6.392-5.494-11.738-11.95-11.738h-2.359l-0.028-1.863h56.685l-0.029,1.863h-2.359
	c-6.531,0-11.83,5.236-11.95,11.737v103.448c0.12,6.498,5.417,11.732,11.95,11.732h2.359l0.034,1.867h-56.692V245.409z"/>
<path fill="#328953" d="M718.027,245.412H621.4l0.031-1.864h2.359c6.533,0,11.833-5.234,11.958-11.734V127.769
	c-0.428-6.222-5.597-11.14-11.933-11.14h-2.359l-0.028-1.854h71.546c8.042-0.073,18.803-1.934,22.276-3.394v32.627l-1.886-0.027
	v-2.195c0.023-11.228-7.036-18.565-18.229-19.033h-31.401v54.297h24.739c9.167-0.176,15.857-6.906,15.826-15.994v-1.615l1.822-0.025
	v43.128l-1.822-0.023v-1.616c0.025-9.013-6.55-15.701-15.589-15.984h-24.977v52.517h24.5c18.641,0,30.742-11.584,36.526-30.103
	h1.864L718.027,245.412z"/>
<path fill="#328953" d="M813.787,178.442c11.091,7.206,17.547,16.99,16.75,30.943c-1.133,24.309-19.461,38.633-49.305,38.633
	c-16.737,0-32.417-4.31-39.229-11.326c-3.086-7.803-0.461-23.541,4.422-31.68h1.643c-1.5,19.455,12.802,35.506,35.192,35.142
	c16.224-0.294,25.794-9.289,25.786-20.98c0.008-7.567-4.888-12.617-14.919-19.273l-32.521-21.575
	c-12.841-8.523-19.221-19.888-17.859-33.488c1.586-19.322,15.745-32.673,39.286-32.673c6.006,0,16.891,0.835,25.417,1.914h11.721
	l-2.445,27.431h-1.799c-0.029-12.955-10.523-21.479-26.308-21.479c-14.695,0-23.974,7.928-24.424,17.948
	c-0.456,7.347,5.185,12.266,13.002,17.35L813.787,178.442z"/>
<path fill="#328953" d="M310.39,5.699c-1.126-1.276-2.686-1.98-4.083-2.234c-2.439-0.384-4.433,0.043-6.238,0.753
	c-0.315,0.124-0.219-0.15-0.623-0.395c-0.814-0.461-1.608-0.873-2.371-1.211c-1.525-0.689-2.917-1.166-4.088-1.517
	c-2.348-0.672-3.804-0.889-3.803-0.892c-0.002,0.005-0.613-0.126-1.724-0.264c-1.099-0.103-2.707-0.365-4.876-0.156
	c-2.008,0.193-4.258,0.626-6.668,1.383c-1.201,0.377-2.43,0.832-3.667,1.384c-0.617,0.28-1.239,0.575-1.859,0.903l-1.276,0.718
	c-0.003,0.002-0.007,0.005-0.012,0.002l-0.512-0.194c-1.044-0.357-2.13-0.581-3.274-0.64c-2.217-0.151-5.098,0.544-6.858,2.835
	c-0.85,1.108-1.314,2.435-1.427,3.652c-0.148,1.293,0.119,2.616,0.516,3.602c0.82,2.012,1.964,3.339,2.989,4.473l0.458,0.469
	c0.037,0.914,0.105,1.779,0.236,2.563c0.229,1.597,0.599,2.882,0.907,3.788c1.539,4.452,4.009,7.185,6.381,9.301
	c2.408,2.142,5.102,3.704,8.33,5.128c-2.203-2.805-3.796-5.167-5.347-7.695c-1.548-2.526-3.15-5.035-4.272-8.419
	c-0.23-0.695-0.502-1.669-0.672-2.888c-0.102-0.606-0.149-1.278-0.177-2.001l-0.01-0.554l-0.005-0.282l-0.001-0.037v-0.002
	l-0.809-1.96l-0.001-0.002l-0.006-0.006l-0.014-0.015l-0.056-0.056l-0.113-0.112l-0.863-0.885c-0.805-0.865-1.567-1.875-1.915-2.767
	c-0.17-0.458-0.207-0.75-0.176-1.074c0.035-0.401,0.167-0.685,0.331-0.917c0.314-0.44,1.129-0.811,2.312-0.745
	c0.58,0.028,1.204,0.149,1.791,0.352c0.067-0.016,1.153,0.505,1.854,0.895c0.788,0.794,1.465-0.095,2.179-0.512
	c1.346-0.913,1.449-0.91,2.043-1.246c0.504-0.27,1.021-0.515,1.535-0.75c1.034-0.462,2.076-0.852,3.09-1.17
	c2.018-0.638,3.966-1.015,5.542-1.164c1.42-0.154,2.777,0.038,3.715,0.129c0.93,0.112,1.449,0.224,1.45,0.219
	c0,0,1.229,0.19,3.214,0.759c0.983,0.301,2.153,0.703,3.395,1.268c0.624,0.277,1.253,0.608,1.892,0.97
	c0.308,0.19,0.632,0.377,0.939,0.586l0.459,0.319l0.06,0.041l0.028,0.021l0.006,0.004c1.783,0.118,1.601,0.104,2.891,0.188
	l0.341-0.172c1.172-0.579,2.804-0.905,3.832-0.7c1.026,0.245,1.333,0.616,1.458,1.614c0.078,0.831-0.59,2.184-1.691,3.409
	c-0.266,0.31-0.563,0.614-0.864,0.924l-0.48,0.473l-0.06,0.06c-0.332,0.45-0.805,1.023-0.818,1.844l-0.001,0.009l-0.001,0.02
	l-0.003,0.041l-0.011,0.16l-0.02,0.315c-0.042,0.847-0.139,1.656-0.266,2.429c-0.758,4.828-3.258,8.066-4.56,9.69
	c-2.479,2.975-4.547,5.381-6.49,7.517c-0.996,1.078-2.013,2.179-3.063,3.233c-1.085,1.017-2.167,2.177-3.851,2.712
	c1.795,0.337,3.545-0.255,5.059-0.788c1.541-0.59,2.917-1.266,4.318-2.086c2.825-1.701,5.36-3.875,8.186-7.198
	c0.76-0.927,1.907-2.381,3.052-4.434c1.138-2.043,2.192-4.734,2.679-7.755c0.137-0.82,0.242-1.667,0.304-2.527
	c0.01-0.156,0.602-0.66,0.972-1.088c1.404-1.66,3.097-3.953,3.006-7.23C312.071,8.547,311.531,6.986,310.39,5.699z"/>
<path fill="#328953" d="M302.886,97.824l-0.056-0.522c-0.085-0.689-0.119-1.348-0.289-2.019c-0.308-1.1-0.779-2.542-2.723-4.1
	c-0.486-0.387-1.095-0.758-1.755-1.121l-1.857-0.948c-0.659-0.334-1.249-0.69-1.588-1.004c0.007-0.016-0.036-0.19-0.378-1.215
	c-0.384-1.009-0.854-1.949-1.347-2.846c-0.986-1.781-2.074-3.425-2.894-5.052c-0.415-0.814-0.77-1.616-1.001-2.4
	c-0.23-0.73-0.394-1.634-0.529-2.584c-0.266-1.862-0.379-3.781-0.451-5.629c-0.125-3.706-0.131-7.157-0.292-9.688l-0.061-0.965
	l-0.104-1.206c-0.079-0.959-0.196-1.751-0.281-2.406c-0.207-1.268-0.336-1.947-0.34-1.938c-0.003,0.038-0.443-2.41-1.583-5.112
	c-0.277-0.669-0.599-1.474-1.032-1.705c-0.367-0.793-1.162,1.677-1.139-0.518c-0.045-0.272-0.063-0.667-0.135-0.849l-0.293-0.26
	c-0.103-0.065-0.195-0.224-0.308-0.219l-0.438,0.742c-0.149,0.277-0.292,0.441-0.451,0.817l-0.483,1.279
	c-0.331,0.831-0.646,1.805-0.97,2.76c-0.639,1.871-1.351,3.586-2.088,5.117c-0.832,1.685-1.053,2.056-1.529,2.89
	c-0.112,0.195-0.245,0.388-0.361,0.583c-0.427,0.466-0.854,0.93-1.287,1.392c-2.017,2.154-4.169,4.319-7.009,7.099
	c-1.181,1.142-3.307,3.12-6.139,5.513l-3.065,2.598c-0.078,0.09-0.239,0.143-0.247,0.267l0.001,0.381l0.004,0.771l-0.006,1.608
	l-0.067,1.167c-0.11,1.586-0.377,3.263-0.494,5.228c-0.105,1.926-0.026,4.348,1.248,6.648c0.625,1.123,1.508,2.091,2.412,2.819
	l0.682,0.52l0.476,0.327l0.028,0.019c0.039,0.016,0.057,0.049,0.002,0.039l-8.411,0.001c-1.368-0.004-0.944,0.008-1.021-0.009
	l-1.064-1.539c-1.069-1.559-2.106-3.113-3.077-4.682c-1.944-3.137-3.619-6.34-4.833-9.655c-0.164-0.41-0.291-0.831-0.438-1.247
	l-0.253-0.773l-0.389-1.289l-0.39-1.285c-0.279-0.277-0.848-0.265-1.258-0.409l-2.223-0.535c-1.733-0.431-3.441-0.919-5.121-1.45
	c-3.363-1.062-6.617-2.296-9.766-3.582c0,0-1.869-0.753-2.344-0.973c-0.474-0.22-0.284-0.526-0.284-0.526s-0.021-0.057,1.238-3.28
	c1.335-3.43,0.391-0.832,0.391-0.832c0.357-0.902,1.031-2.548,0.831-2.135l-0.21-0.672c-0.217-0.62-0.41-1.088-0.715-1.699
	c-0.448-0.912-1.108-1.865-1.845-2.772c-0.057-0.056-0.163-0.171-0.384-0.422l-0.73-0.746l-0.504-0.496l-0.777-0.68l-0.52-0.444
	c0.098-0.032-1.447,1.512-1.447,1.512c-0.042,0.037,0.004,0.46,0.001,0.671l0.055,1.561l0.109,3.104l0.108,3.077l0.055,1.53
	c0,0-0.001,0.444-0.009,0.481c0,0-0.545,1.259-0.805,1.777l-0.377-0.173l-0.404-0.185c-0.088-0.005,0.039,0.25,0.051,0.373
	l0.234,0.928c-0.809,1.453-1.568,2.501-1.775,2.834l-1.714,2.421c-2.154,2.919-3.385,4.785-3.359,4.762l-5.543,8.625
	c-0.566,0.827-1.182,1.684-1.86,2.522c-0.338,0.419-0.695,0.833-1.068,1.229l-0.283,0.297l-0.07,0.076
	c0.994,2.039-2.248-4.538,2.222,4.574h0.022l0.045-0.004l0.183-0.013c0.246-0.021,0.495-0.049,0.719-0.037
	c0.445-0.028,0.957,0.085,1.173,0.124l0.026,0.013c0.017,0.013,0.025,0.031,0.032,0.052c0.006,0.018-0.036,0.004-0.052,0.008h-3.62
	l-8.499-0.002l-0.667-8.863c-0.3-3.949-0.588-7.97-0.716-12.014c-0.272-8.065,0.247-16.324,2.62-23.957
	c2.306-7.615,6.679-14.383,12.643-18.677c5.922-4.37,13.023-6.3,19.547-6.931c0.82-0.08,1.632-0.142,2.436-0.189l1.593-0.067
	l1.415-0.027l2.555,0.021l3.89,0.162c4.421,0.065,7.76-0.677,10.756-1.626c3.002-0.975,5.68-2.238,8.881-3.762
	c-7.103-0.387-16.154,0.017-19.493,0.029L234.3,18.02l-2.752-0.03l-1.534,0.027l-1.731,0.073c-0.877,0.053-1.765,0.119-2.666,0.205
	c-7.14,0.694-15.25,2.821-22.213,7.948c-7.016,5.043-12.073,13.002-14.603,21.434c-2.625,8.453-3.136,17.354-2.855,25.724
	c0.134,4.197,0.43,8.288,0.732,12.256l0.45,5.861l0.209,2.859l0.184,2.745l0.093,1.402l0.045,0.699
	c0.04,0.081-0.056,0.309,0.095,0.272h0.35l13.114-0.002h2.552c0.481-0.014,0.701,0.031,1.389-0.033l2.062-0.195l4.036-0.383
	c1.132-0.243,3.412,0.222,2.141-1.442c-0.957-2.304-1.658-4.566-3.526-6.465c-0.676-0.676-1.528-1.201-2.438-1.615
	c0.257-0.358,0.513-0.716,0.748-1.059V88.3l5.586-8.699c0.013-0.033,1.036-1.595,3.227-4.566l0.9-1.271l0.596,2.521l1.293,5.513
	c1.302,5.452,3.145,9.995,4.453,12.134c0.568,0.992,1.188,1.898,1.853,2.721l0.507,0.6l0.714,0.762l0.893,0.897
	c0.156,0.125,0.271,0.341,0.458,0.383l0.621-0.017c1.965-0.042,2.341-0.123,3.231-0.207l2.337-0.299
	c3.059-0.451,5.949-1.111,9.391-1.969c-3.443-0.855-6.332-1.517-9.391-1.968l-2.337-0.298c-0.706-0.087-1.971-0.162-1.702-0.22
	c-0.032-0.02-0.032-0.094-0.032-0.119l0.004-0.022l-0.176-0.228l-0.345-0.483c-0.46-0.66-0.915-1.383-1.362-2.182
	c-1.021-1.707-2.625-5.564-3.878-10.801l-1.272-5.4l-0.085-0.366L223.66,74.7l-0.015-0.037c-0.009-0.023,0.019-0.001,0.014-0.008
	l0.024,0.016l0.022,0.013l-0.002,0.001l0.467,0.182l1.028,0.387c2.833,1.057,6.301,2.12,8.721,2.809
	c1.263,0.365,1.646,0.47,1.743,0.496c-0.022-0.006-0.044-0.008,0.009,0.013c0.001,0.006,0.001,0.009,0.002-0.005
	c0,0.095-0.04,0.434-0.073,0.623c-0.063,0.444-0.154,0.845-0.247,1.192c-0.424,1.69-1.181,3.394-1.533,5.5
	c-0.373,2.168,0.079,4.547,1.502,6.245c1.463,1.688,3.195,2.171,4.633,2.646c1.47,0.469,2.932,0.855,4.289,2.03
	c-1.344-3.392-5.186-5.011-5.661-6.877c-0.287-0.853-0.284-1.862,0.098-3c0.317-1.057,0.979-2.444,1.565-4.251
	c1.212,2.792,2.673,5.478,4.26,8.038c1.036,1.673,2.122,3.299,3.216,4.895l2.203,3.177l0.404,0.582
	c0.049,0.132,0.152,0.16,0.285,0.137h0.356h1.428h1.862l5.723,0.001c0.993-0.016,1.809,0.034,2.942-0.035l4.21-0.51l4.189-0.507
	l2.085-0.251l0.521-0.065c0.135,0.016,0.108-0.056,0.046-0.143l-0.119-0.23l-0.446-0.866c-0.585-1.086-0.927-1.945-1.659-2.886
	c-0.706-0.919-1.845-1.929-3.434-2.868l-2.356-1.387l-0.664-0.435l-0.406-0.31c-0.51-0.412-0.854-0.818-1.11-1.267
	c-0.504-0.877-0.666-2.169-0.569-3.721c0.085-1.542,0.355-3.298,0.485-5.115c0.086-1.469,0.096-1.826,0.092-1.889l0.417-0.355
	c0.233,0.625,0.486,1.213,0.754,1.755c1.035,2.134,2.12,3.625,2.82,4.589c2.629,3.495,4.985,5.612,6.972,7.735
	c1.041,1.095,2.104,2.206,3.311,3.281c1.212,1.049,2.572,2.166,4.263,2.779c-1.185-1.316-1.794-2.762-2.441-4.137
	c-0.623-1.391-1.195-2.764-1.908-4.178c-1.464-2.939-3.58-5.525-5.865-8.645c-0.608-0.853-1.505-2.119-2.292-3.758
	c-0.276-0.559-0.51-1.181-0.73-1.831l1.161-1.065c2.503-2.337,5.242-5.197,7.627-8.398c1.196-1.594,2.3-3.271,3.279-4.959
	c0.448-0.764,1.096-1.991,1.051-1.913l0.032-0.069c0.029-0.163,0.056,0.031,0.052,0.001l0.072,1.15
	c0.147,2.352,0.146,5.69,0.27,9.578c0.073,1.944,0.188,4.029,0.493,6.193c0.153,1.061,0.337,2.188,0.714,3.414
	c0.354,1.182,0.837,2.256,1.344,3.252c1.016,2,2.141,3.69,2.982,5.223c0.417,0.759,0.767,1.472,1.015,2.119
	c0.101,0.326,0.181,0.491,0.397,1.362l0.137,0.521c0.1,0.166,0.253,0.323,0.375,0.482c0.268,0.31,0.518,0.618,0.849,0.917
	c1.04,0.939,2.009,1.432,2.812,1.853l0.276,0.14l0.015,0.004l0.054,0.032c0.055,0.046,0.172,0.111,0.13,0.228
	c-0.018,0.059-0.079,0.133-0.213,0.22l-2.292,0.298c-3.059,0.451-5.948,1.111-9.391,1.968c3.442,0.858,6.332,1.518,9.391,1.969
	c0.774,0.108,1.519,0.223,2.36,0.289c1.113-0.069,2.295-0.173,3.544-0.309l3.953-0.494l1.053-0.15l0.268-0.038
	C302.923,98.011,302.886,97.904,302.886,97.824z"/>
<g>
	<path fill="#328953" d="M278.244,31.897c0.078,0.944-0.208,2.004,0,3.027c0.849,4.105,8.368,4.12,10.728,1.789
		c1.108-1.099,0.892-2.535,0.959-4.402c0.047-1.319,0.551-2.663,0.551-3.985c0-2.479-0.801-4.628-1.375-6.878
		c0.979,2.749-0.024,8.177-0.135,10.863c-0.036,0.826,0.235,1.598,0.135,2.202c-0.337,2.079-2.403,2.011-4.67,1.648
		c-0.37-0.138-0.147-0.866-0.416-1.101c0.012,0.468,0.045,0.96-0.276,1.101c-0.868,0.276-2.211,0.076-3.3,0.138
		c-1.64-0.638-1.046-2.598-1.237-4.676c-0.278-3.055-0.928-7.315-0.139-10.176C277.596,25.03,277.96,28.33,278.244,31.897z"/>
	<path fill="#328953" d="M266.282,10.858c-0.108,0.034-0.159,0.121-0.139,0.277c0.715,2.037,2.528,2.974,2.752,5.5
		C271.087,14.439,268.888,10.901,266.282,10.858z"/>
	<path fill="#328953" d="M300.932,16.637c-0.24-2.457,2.071-3.508,2.613-5.634C300.974,10.399,298.328,14.724,300.932,16.637z"/>
	<path fill="#328953" d="M273.845,17.873c0.118,2.285,3.376,1.813,3.851,0.137C276.961,16.981,274.542,16.328,273.845,17.873z"/>
	<path fill="#328953" d="M294.332,17.873c-0.282-1.601-3.217-0.883-3.851,0.137C290.976,19.985,294.685,19.887,294.332,17.873z"/>
	<path fill="#328953" d="M280.032,30.932c-0.463,5.055,9.202,4.772,8.113-0.409c-0.369-1.751-2.733-2.177-4.814-1.927
		C281.178,28.852,280.142,29.739,280.032,30.932z"/>
</g>
<g>
	<g>
		<path fill="#8CBB94" d="M357.714,61.711c-1.422-1.827-2.473-3.365-3.473-5.003c-1.005-1.643-2.045-3.276-2.775-5.475
			c-0.148-0.453-0.326-1.083-0.438-1.877c-0.065-0.394-0.098-0.832-0.116-1.301l-0.007-0.359l-0.004-0.187l-0.002-0.022v-0.001
			v-0.002l-0.527-1.273l-0.004-0.004l-0.008-0.009l-0.037-0.036l-0.074-0.072l-0.561-0.576c-0.524-0.561-1.02-1.219-1.244-1.795
			c-0.111-0.298-0.135-0.484-0.113-0.699c0.023-0.262,0.107-0.444,0.215-0.595c0.205-0.286,0.732-0.527,1.502-0.483
			c0.377,0.017,0.783,0.098,1.164,0.228c0.041-0.011,0.75,0.328,1.203,0.583c0.512,0.519,0.951-0.061,1.416-0.332
			c0.875-0.594,0.942-0.592,1.328-0.811c0.329-0.173,0.665-0.333,0.998-0.487c0.672-0.3,1.351-0.554,2.01-0.759
			c1.313-0.418,2.577-0.662,3.606-0.763c1.882-0.13,3.405,0.255,3.353,0.223c0,0,0.799,0.123,2.086,0.494
			c0.641,0.194,1.398,0.457,2.205,0.824c0.407,0.181,0.816,0.395,1.232,0.63l0.61,0.383l0.3,0.206l0.039,0.027l0.02,0.013
			l0.004,0.002c0.838,0.056-1.869-0.12,1.881,0.125l0.008-0.002l0.07-0.035l0.142-0.072c0.761-0.376,1.825-0.596,2.481-0.452
			c0.666,0.147,0.881,0.413,0.956,1.043c0.051,0.54-0.387,1.424-1.102,2.223c-0.179,0.209-0.329,0.367-0.647,0.691
			c-0.52,0.417-0.73,0.941-0.75,1.405c-0.146,1.151-0.143,1.424-0.244,1.982c-0.488,3.137-2.114,5.239-2.961,6.295
			c-1.613,1.934-2.957,3.5-4.219,4.887c-0.646,0.701-1.308,1.416-1.993,2.102c-0.707,0.662-1.409,1.413-2.503,1.76
			c1.167,0.22,2.305-0.166,3.287-0.51c1.002-0.384,1.896-0.82,2.808-1.355c1.836-1.107,3.481-2.521,5.32-4.68
			c0.956-1.148,3.099-3.917,3.726-7.923c0.098-0.57,0.193-1.495,0.185-1.521c0.01-0.154,0.013-0.159,0.014-0.147l0.634-0.684
			c0.908-1.081,2.006-2.566,1.953-4.695c-0.057-1.023-0.41-2.035-1.152-2.868c-0.73-0.824-1.742-1.285-2.648-1.445
			c-1.585-0.262-2.877,0.018-4.047,0.478c-0.415-0.256-0.415-0.256-0.415-0.256c-0.529-0.299-1.044-0.566-1.542-0.788
			c-0.99-0.448-1.895-0.757-2.657-0.987c-1.526-0.438-2.474-0.578-2.474-0.581c-0.046,0.047-1.49-0.431-4.293-0.267
			c-1.303,0.125-2.766,0.412-4.329,0.901c-0.78,0.246-1.579,0.54-2.383,0.899c-0.399,0.181-0.806,0.371-1.208,0.585l-0.829,0.466
			l-0.007,0.001l-0.335-0.129c-0.679-0.23-1.384-0.375-2.128-0.413c-1.439-0.099-3.312,0.352-4.457,1.841
			c-0.552,0.72-0.854,1.582-0.928,2.373c-0.097,0.838,0.076,1.701,0.333,2.341c0.532,1.309,1.277,2.17,1.944,2.907l0.295,0.28
			c0.025,0.604,0.07,1.173,0.156,1.691c0.15,1.035,0.39,1.87,0.59,2.459c1,2.893,2.604,4.668,4.143,6.047
			C353.869,59.775,355.621,60.775,357.714,61.711z"/>
		<g>
			<path fill="#8CBB94" d="M358.622,56.997c0.048,0.613-0.137,1.302,0,1.966c0.552,2.667,5.438,2.677,6.974,1.162
				c0.72-0.708,0.58-1.646,0.623-2.858c0.03-0.859,0.359-1.73,0.359-2.592c0-1.611-0.522-3.009-0.896-4.469
				c0.635,1.787-0.013,5.313-0.086,7.061c-0.023,0.534,0.153,1.035,0.086,1.43c-0.222,1.352-1.56,1.309-3.035,1.074
				c-0.24-0.091-0.096-0.563-0.27-0.715c0.004,0.302,0.028,0.624-0.178,0.715c-0.567,0.177-1.441,0.048-2.145,0.085
				c-1.066-0.412-0.685-1.688-0.806-3.034c-0.183-1.988-0.603-4.758-0.089-6.616C358.201,52.532,358.441,54.676,358.622,56.997z"/>
			<path fill="#8CBB94" d="M350.849,43.321c-0.072,0.021-0.105,0.077-0.092,0.182c0.469,1.324,1.645,1.934,1.789,3.574
				C353.975,45.649,352.542,43.348,350.849,43.321z"/>
			<path fill="#8CBB94" d="M373.369,47.077c-0.156-1.595,1.348-2.28,1.7-3.667C373.4,43.022,371.676,45.833,373.369,47.077z"/>
			<path fill="#8CBB94" d="M355.765,47.88c0.076,1.484,2.194,1.18,2.502,0.09C357.79,47.3,356.215,46.879,355.765,47.88z"/>
			<path fill="#8CBB94" d="M369.082,47.88c-0.183-1.04-2.093-0.577-2.502,0.09C366.899,49.253,369.311,49.189,369.082,47.88z"/>
			<path fill="#8CBB94" d="M359.786,56.37c-0.302,3.285,5.983,3.103,5.273-0.264c-0.237-1.14-1.774-1.416-3.126-1.254
				C360.531,55.016,359.859,55.593,359.786,56.37z"/>
		</g>
	</g>
	<path fill="#8CBB94" d="M374.672,99.867l-0.049-0.344c-0.075-0.463-0.118-0.892-0.228-1.326c-0.188-0.712-0.488-1.657-1.77-2.664
		c-0.29-0.258-0.722-0.487-1.13-0.731l-1.2-0.616c-0.422-0.211-0.833-0.469-1.022-0.646c-0.034-0.033,0.058,0.124-0.255-0.797
		c-0.249-0.656-0.555-1.266-0.875-1.85c-0.641-1.159-1.348-2.227-1.879-3.284c-0.575-1.106-0.818-1.954-0.994-3.241
		c-0.173-1.209-0.244-2.459-0.293-3.66c-0.084-2.405-0.087-4.654-0.193-6.295c-0.077-0.995-0.152-2.098-0.313-2.951
		c-0.131-0.823-0.193-1.293-0.205-1.275c-0.02,0.066-0.285-1.557-1.025-3.315l-0.309-0.602l-0.166-0.322
		c-0.029-0.051-0.056-0.117-0.086-0.157l-0.111,0.055c-0.277,0.053-0.703,0.622-0.803-0.168l-0.266-0.776
		c-0.048-0.109-0.082-0.316-0.144-0.349l-0.294,0.637c-0.396,0.897-0.807,1.631-1.232,2.934l-0.646,1.806l-0.692,1.499
		c-0.56,1.231-0.712,1.407-1.013,1.967c-0.094,0.16-0.215,0.314-0.312,0.473c-1.53,1.691-3.143,3.248-5.314,5.423
		c-0.608,0.582-1.584,1.506-2.876,2.627l-2.264,1.935l-0.586,0.493c-0.154,0.188-0.511,0.28-0.416,0.585
		c0.002,0.245,0.023,1.745-0.047,2.37c-0.073,1.602-0.566,3.373-0.202,5.729c0.202,1.154,0.8,2.448,1.712,3.311
		c0.422,0.418,0.951,0.827,1.324,1.06l0.009,0.002c0.013,0.004,0.039,0.03,0.009,0.023l-2.645,0.001h-2.898h-0.602l-0.264-0.381
		c-2.196-3.151-4.193-6.295-5.458-9.645c-0.166-0.416-0.308-0.837-0.45-1.256l-0.642-2.098l-2.487-0.604l-1.302-0.353
		c-1.725-0.491-3.412-1.041-5.052-1.658l-2.602-1.009l-0.621-0.251c-0.004-0.003-0.015-0.004-0.012-0.008
		c0.001,0.002,0.008-0.026,0.003,0.001c0.178-0.489,0.287-1.196,0.316-1.67c0.096-0.887,0.065-2.197-0.231-3.182v-0.001
		c-0.576-2.025-3.346-5.013-3.346-5.013c-1.138,0.448-1.673,1.484-2.344,2.581l0.008,0.01l0.019,0.021l0.475,0.59
		c0.153,0.228,0.283,0.459,0.386,0.695c0.2,0.469,0.297,0.954,0.312,1.459c0.012,1.078-0.322,2.172-0.779,3.206l-0.207-0.094
		c-0.065-0.012,0.022,0.163,0.027,0.238l0.037,0.146c-0.396,0.84-0.854,1.642-1.279,2.34l-3.588,5.375
		c-0.012-0.026-1.146,1.873-3.088,4.82h-0.001c-0.348,0.506-2.073,2.62-2.073,2.62l-0.044,0.047l-0.023,0.025
		c0.918,1.874,1.336,2.724,1.499,3.055h-0.521l-5.998-0.001c-0.01,0.002-0.008-0.005-0.01-0.014l-0.096-1.351l-0.29-3.8
		c-0.195-2.56-0.392-5.172-0.492-7.806c-0.221-5.25,0.068-10.634,1.529-15.652c1.417-5.006,4.178-9.509,8.025-12.403
		c3.822-2.934,8.456-4.267,12.727-4.726l2.853-0.192c0.322-0.008,2.63-0.015,2.63-0.015l2.571,0.103
		c5.768-0.029,8.615-1.595,12.765-3.501c-4.617-0.25-7.701,0.06-12.671,0.02l-4.392-0.138c-0.328-0.008-2.386,0.087-2.386,0.087
		l-1.748,0.147c-4.682,0.5-9.99,1.979-14.488,5.428c-4.526,3.402-7.704,8.681-9.256,14.206c-1.613,5.541-1.892,11.337-1.664,16.77
		c0.103,2.723,0.305,5.373,0.502,7.943l0.289,3.788l0.164,2.36c0,0,0.117,2.15,0.176,2.249h1.355l7.899-0.001l1.635-0.001
		c0.184,0.02,0.781-0.057,1.183-0.09l1.316-0.126l2.573-0.244l0.629-0.061c0.188-0.031,0.532,0.03,0.331-0.237l-0.455-1.13
		c-0.566-1.433-1.145-2.912-2.463-4.013c-0.328-0.295-0.753-0.529-1.185-0.716c0.153-0.216,0.34-0.452,0.479-0.657h0.002
		c2.086-3.168,3.109-4.902,3.139-4.901c0,0,1.929-2.917,3.122-4.728l0.442,1.826l0.84,3.578c0.838,3.545,2.055,6.495,2.896,7.886
		c0.378,0.64,0.767,1.237,1.21,1.766c0.252,0.32,0.332,0.414,0.773,0.865l0.584,0.609c0.104,0.083,0.174,0.237,0.302,0.256
		l0.405-0.016c1.281-0.038,1.528-0.084,2.105-0.142l1.52-0.195c1.99-0.293,3.867-0.723,6.105-1.279
		c-2.237-0.556-4.115-0.984-6.105-1.279l-1.52-0.194c-0.459-0.056-1.277-0.104-1.104-0.143c-0.025-0.017-0.006-0.046-0.002-0.058
		c0.041,0.035-0.255-0.328-0.354-0.5c-0.307-0.417-0.59-0.899-0.888-1.414c-0.659-1.113-1.712-3.61-2.522-7.021l-0.827-3.502
		c-0.084-0.355-0.059-0.236-0.071-0.279c-0.006-0.017,0.012-0.002,0.008-0.005l0.016,0.009l0.015,0.009
		c0.004,0.001-0.008-0.004-0.013-0.005l0.313,0.12l0.668,0.254c1.84,0.688,4.094,1.378,5.667,1.826l0.966,0.276l0.176,0.05
		l0.002,0.008c0,0.004,0,0.006,0-0.004c0.002,0.06-0.025,0.281-0.047,0.405c-0.042,0.288-0.1,0.548-0.16,0.775
		c-0.275,1.099-0.766,2.207-0.995,3.575c-0.235,1.409,0.05,2.959,0.979,4.056c2.038,2.126,4.031,1.477,5.797,3.045
		c-0.877-2.205-3.373-3.258-3.674-4.474c-0.194-0.549-0.184-1.213,0.058-1.948c0.208-0.695,0.646-1.61,1.03-2.81
		c1.409,3.256,3.322,6.276,5.284,9.092c0.179,0.176,0.837,1.397,1.447,1.896h2.305h2.898c1.026-0.02,1.791,0.047,3.023-0.047
		l4.316-0.496l2.143-0.246c0,0,0.594-0.143,0.553-0.22l-0.613-1.087c-0.559-1.01-0.998-1.88-2.444-2.895
		c-0.718-0.494-1.555-0.944-2.346-1.436c-0.415-0.255-0.604-0.431-0.84-0.65c-0.425-0.414-0.613-0.856-0.747-1.466
		c-0.237-1.236,0.116-3,0.25-4.832l0.043-0.695l0.017-0.541v-0.002l0.005-0.007l0.269-0.23c0.152,0.406,0.315,0.791,0.491,1.142
		c0.673,1.388,1.377,2.358,1.832,2.984c1.707,2.272,3.242,3.649,4.533,5.027c1.361,1.366,2.73,3.034,4.92,3.941
		c-1.451-1.766-1.854-3.593-2.826-5.405c-0.954-1.911-2.328-3.587-3.813-5.618c-0.395-0.556-0.978-1.377-1.488-2.444
		c-0.182-0.366-0.343-0.763-0.486-1.19c-0.064-0.195,0.766-0.691,0.766-0.691c1.625-1.521,3.407-3.377,4.954-5.458
		c1.209-1.509,2.654-4.134,2.86-4.537c0.005,0.018,0.009,0.042,0.008,0.031l0.049,0.744c0.096,1.531,0.095,3.696,0.179,6.225
		c0.05,1.266,0.12,2.616,0.319,4.025c0.147,1.337,0.648,3.109,1.333,4.332c0.66,1.299,1.392,2.398,1.938,3.396
		c0.271,0.492,0.497,0.956,0.658,1.376c0.101,0.152,0.231,1.495,1.13,2.11c0.698,0.642,1.312,0.944,1.839,1.226l0.194,0.095
		l0.033,0.021c0.035,0.029,0.112,0.072,0.084,0.147c-0.012,0.039-0.052,0.086-0.139,0.144l-1.491,0.194
		c-1.99,0.294-3.869,0.723-6.105,1.279c2.236,0.556,4.115,0.985,6.105,1.278c0.501,0.072,0.987,0.145,1.531,0.189
		c0.729-0.043,1.502-0.109,2.318-0.195l2.588-0.313l0.689-0.094l0.176-0.025C374.701,99.99,374.675,99.92,374.672,99.867z"/>
</g>
</svg>
