<?xml version="1.0" encoding="utf-8"?>
<!-- Generator: Adobe Illustrator 23.0.2, SVG Export Plug-In . SVG Version: 6.00 Build 0)  -->
<svg version="1.1" id="Layer_1" xmlns="http://www.w3.org/2000/svg" xmlns:xlink="http://www.w3.org/1999/xlink" x="0px" y="0px"
	 width="782.9px" height="265.9px" viewBox="0 0 782.9 265.9" enable-background="new 0 0 782.9 265.9" xml:space="preserve">
<g>
	<path fill="#BC955B" d="M361.1,221.8c0.6,0.6,0.9,1.4,0.9,2.3v37.8c0,0.9-0.3,1.7-0.8,2.2c-0.5,0.5-1.2,0.8-2.1,0.8
		c-0.9,0-1.5-0.3-2-0.8s-0.7-1.3-0.7-2.2v-28.6l-12.1,22.9c-0.8,1.4-1.8,2.2-3,2.2c-1.2,0-2.2-0.7-3-2.2l-12.1-22.7v28.4
		c0,0.9-0.2,1.7-0.7,2.2c-0.5,0.5-1.2,0.8-2.1,0.8c-0.9,0-1.5-0.3-2.1-0.8c-0.5-0.6-0.8-1.3-0.8-2.2v-37.8c0-0.9,0.3-1.7,0.9-2.3
		c0.6-0.6,1.3-0.9,2.2-0.9c1.3,0,2.3,0.7,3.1,2.2l14.7,28.1l14.6-28.1c0.8-1.5,1.8-2.2,3-2.2C359.8,220.9,360.5,221.2,361.1,221.8z"
		/>
	<path fill="#BC955B" d="M405.4,221.8c0.6,0.6,0.8,1.4,0.8,2.3v37.6c0,0.9-0.3,1.7-0.9,2.3c-0.6,0.6-1.3,0.9-2.2,0.9
		c-1.1,0-1.9-0.4-2.5-1.2l-24.1-31.8v29.8c0,0.9-0.3,1.7-0.8,2.3c-0.6,0.6-1.3,0.9-2.2,0.9c-0.9,0-1.6-0.3-2.2-0.9
		c-0.5-0.6-0.8-1.4-0.8-2.3v-37.6c0-0.9,0.3-1.7,0.9-2.3c0.6-0.6,1.3-0.9,2.2-0.9c1.1,0,1.9,0.4,2.5,1.2l24.1,31.9v-29.9
		c0-0.9,0.3-1.7,0.8-2.3c0.5-0.6,1.3-0.9,2.2-0.9S404.8,221.2,405.4,221.8z"/>
	<path fill="#BC955B" d="M450.8,221.8c0.6,0.6,0.9,1.4,0.9,2.3v37.6c0,0.9-0.3,1.7-0.9,2.3c-0.6,0.6-1.3,0.9-2.3,0.9
		s-1.7-0.3-2.3-0.9c-0.6-0.6-0.9-1.4-0.9-2.3v-16.5h-24.2v16.5c0,0.9-0.3,1.7-0.9,2.3c-0.6,0.6-1.3,0.9-2.3,0.9s-1.7-0.3-2.3-0.9
		c-0.6-0.6-0.9-1.4-0.9-2.3v-37.6c0-0.9,0.3-1.7,0.9-2.3c0.6-0.6,1.3-0.9,2.3-0.9s1.7,0.3,2.3,0.9c0.6,0.6,0.9,1.4,0.9,2.3V240h24.2
		v-15.9c0-0.9,0.3-1.7,0.9-2.3c0.6-0.6,1.3-0.9,2.3-0.9S450.2,221.2,450.8,221.8z"/>
	<path fill="#BC955B" d="M468.3,262.4c-3.1-1.8-5.4-4.3-7.1-7.7c-1.6-3.3-2.5-7.3-2.5-11.8c0-4.5,0.8-8.4,2.5-11.8
		c1.6-3.3,4-5.9,7.1-7.7s6.7-2.7,10.8-2.7c2.7,0,5.3,0.4,7.7,1.3c2.4,0.8,4.5,2.1,6.3,3.7c0.8,0.6,1.2,1.4,1.2,2.5
		c0,0.7-0.2,1.4-0.6,1.9c-0.4,0.5-0.9,0.8-1.5,0.8c-0.7,0-1.4-0.3-2-0.8c-2-1.5-3.8-2.5-5.4-3.1c-1.6-0.6-3.5-0.9-5.5-0.9
		c-4.5,0-8,1.5-10.4,4.4c-2.4,2.9-3.6,7.1-3.6,12.5c0,5.5,1.2,9.7,3.6,12.6c2.4,2.9,5.9,4.4,10.4,4.4c2,0,3.8-0.3,5.4-0.9
		c1.6-0.6,3.5-1.6,5.5-3.1c0.8-0.5,1.5-0.8,2-0.8c0.6,0,1.1,0.3,1.5,0.8c0.4,0.5,0.6,1.1,0.6,1.9c0,1-0.4,1.8-1.2,2.5
		c-1.8,1.6-3.9,2.8-6.3,3.7c-2.4,0.8-5,1.3-7.7,1.3C475,265.1,471.4,264.2,468.3,262.4z"/>
</g>
<path fill="#BC955B" d="M314.2,189.5c0-2.2,1.8-3.9,3.9-3.9H779c2.2,0,3.9,1.8,3.9,3.9c0,2.2-1.8,3.9-3.9,3.9H318.1
	C316,193.5,314.2,191.7,314.2,189.5"/>
<path fill="#604876" d="M167.7,72.5C167.7,32.5,135.2,0,95.2,0C55.1,0,22.6,32.5,22.6,72.5c0,40.1,32.5,72.5,72.5,72.5
	C135.2,145.1,167.7,112.6,167.7,72.5"/>
<path fill="#BC955B" d="M265.8,61.4c5.5-13.8-1.3-29.4-15.1-34.9c-13.8-5.5-29.4,1.3-34.9,15.1c-5.5,13.8,1.3,29.4,15.1,34.9
	C244.8,82,260.4,75.2,265.8,61.4"/>
<path fill="#BC955B" d="M148.9,179.2c8,1,34.2,4.1,69.4-17c26.1-15.7,43.2-38.5,44.8-52.1c1.6-11-6.1-21.2-17.1-22.7
	c-4.7-0.7-8.5,0.2-12.9,2.5c-13.7,7.2-17,32.3-29.8,51.1c-18.9,27.7-42.6,28.8-53.9,29.3c-2.5,0-4.5,2-4.5,4.5
	C144.9,177.1,146.6,179,148.9,179.2"/>
<path fill="#604876" d="M258.7,144.4c-11.9,14.7-47.8,46.9-91.4,46.9c-43.6,0-65.1-21.9-97.7-35.3c-25.5-10.8-54.9,1.2-65.7,26.7
	c-8,18.9-3.4,39.9,9.7,53.9c22.3,24.4,67.4,42,140.8,17.6c73.3-24.4,108.9-94.6,114-103.8c1.4-2.8,0.2-6.1-2.6-7.5
	C263.3,141.5,260.3,142.2,258.7,144.4"/>
<g>
	<path fill="#604876" d="M317.8,153.2c-1.7-1.7-2.6-4-2.6-7V34.4c0-2.8,0.8-5.1,2.5-6.7s4-2.5,6.9-2.5h44.3c13.7,0,24.4,3.4,32,10.1
		c7.6,6.7,11.4,16.3,11.4,28.7c0,12.3-3.8,21.8-11.4,28.7c-7.6,6.9-18.3,10.3-32,10.3h-34.7v43.2c0,2.9-0.8,5.3-2.5,7
		c-1.7,1.7-4,2.6-7.1,2.6C321.8,155.7,319.5,154.9,317.8,153.2z M366.9,87.7c18.1,0,27.2-7.9,27.2-23.7c0-15.7-9.1-23.5-27.2-23.5
		h-32.7v47.3H366.9z"/>
	<path fill="#604876" d="M537.5,148.2c0,2.2-0.9,4.1-2.7,5.6c-1.8,1.5-3.8,2.3-6.2,2.3c-3.4,0-6.2-1.5-8.3-4.6l-24.6-38.2
		c-2.8-4.4-5.8-7.5-9-9.3c-3.2-1.8-7.4-2.7-12.5-2.7h-20.8v44.9c0,2.9-0.8,5.3-2.5,7c-1.7,1.7-4,2.6-6.9,2.6c-2.8,0-5.1-0.9-6.8-2.6
		c-1.7-1.7-2.6-4-2.6-7V34.4c0-2.8,0.8-5.1,2.5-6.7c1.7-1.7,4-2.5,6.9-2.5h45.8c14.3,0,25.3,3.2,32.8,9.6
		c7.5,6.4,11.3,15.7,11.3,27.9c0,10.2-2.9,18.4-8.6,24.7c-5.8,6.3-14,10.3-24.6,12c3.2,0.9,6.1,2.4,8.6,4.6c2.6,2.2,5.1,5.3,7.5,9.2
		l18.9,29.8C537,144.6,537.5,146.4,537.5,148.2z M487.7,86c9.6,0,16.6-1.9,21.2-5.6c4.6-3.7,6.9-9.5,6.9-17.4
		c0-7.8-2.3-13.6-6.8-17.2c-4.5-3.6-11.6-5.4-21.3-5.4h-34.4V86H487.7z"/>
	<path fill="#604876" d="M573.7,142.9c-8.9-8.9-13.4-22.1-13.4-39.5V33.8c0-2.9,0.9-5.3,2.6-7c1.7-1.7,4-2.6,6.8-2.6
		c2.8,0,5.1,0.9,6.8,2.6c1.7,1.7,2.6,4,2.6,7v70.8c0,11.9,2.8,20.9,8.5,27c5.7,6.1,14.2,9.2,25.5,9.2c11.2,0,19.6-3.1,25.4-9.2
		c5.8-6.1,8.6-15.1,8.6-27V33.8c0-2.8,0.9-5.1,2.6-6.9c1.7-1.8,4-2.7,6.8-2.7c2.8,0,5.1,0.9,6.8,2.6c1.7,1.7,2.6,4,2.6,7v69.5
		c0,17.3-4.5,30.4-13.5,39.4c-9,9-22.1,13.5-39.3,13.5C595.8,156.3,582.7,151.8,573.7,142.9z"/>
</g>
</svg>
