<?xml version="1.0" encoding="utf-8"?>
<!-- Generator: Adobe Illustrator 22.0.1, SVG Export Plug-In . SVG Version: 6.00 Build 0)  -->
<svg version="1.1" id="Layer_1" xmlns="http://www.w3.org/2000/svg" xmlns:xlink="http://www.w3.org/1999/xlink" x="0px" y="0px"
	 width="255.3px" height="283.5px" viewBox="0 0 255.3 283.5" enable-background="new 0 0 255.3 283.5" xml:space="preserve">
<g>
	<path fill="#BE955B" d="M81.1,282.8c-1.5-0.5-2.7-1.1-3.7-1.9c-0.4-0.4-0.6-0.8-0.6-1.4c0-0.4,0.1-0.7,0.3-1
		c0.2-0.3,0.5-0.4,0.8-0.4s0.7,0.1,1.1,0.4c2,1.5,4.2,2.2,6.8,2.2c1.8,0,3.2-0.3,4.1-1c1-0.7,1.4-1.6,1.4-2.9c0-1-0.4-1.7-1.3-2.2
		s-2.3-1-4.3-1.4c-1.9-0.4-3.4-0.9-4.6-1.4s-2.1-1.2-2.8-2.1c-0.7-0.9-1-2-1-3.4s0.4-2.6,1.1-3.6c0.7-1.1,1.8-1.9,3.1-2.5
		c1.3-0.6,2.9-0.9,4.6-0.9c1.6,0,3,0.2,4.4,0.7c1.3,0.4,2.5,1.1,3.4,2c0.4,0.4,0.7,0.8,0.7,1.4c0,0.4-0.1,0.7-0.4,1
		c-0.2,0.3-0.5,0.4-0.8,0.4s-0.7-0.1-1.1-0.4c-1-0.8-2-1.3-2.9-1.7c-0.9-0.3-2-0.5-3.3-0.5c-1.7,0-3.1,0.4-4,1.1s-1.4,1.7-1.4,2.9
		c0,1.1,0.4,1.9,1.3,2.4c0.8,0.5,2.2,1,4.1,1.5c2,0.4,3.5,0.9,4.8,1.4c1.2,0.5,2.2,1.1,2.9,2c0.7,0.8,1.1,1.9,1.1,3.2
		c0,1.3-0.4,2.5-1.1,3.6c-0.7,1-1.8,1.8-3.1,2.4c-1.3,0.6-2.9,0.9-4.7,0.9C84.2,283.5,82.6,283.2,81.1,282.8z"/>
	<path fill="#BE955B" d="M117.8,259.9c0.3,0.3,0.5,0.7,0.5,1.3v20.4c0,0.5-0.2,0.9-0.5,1.3c-0.3,0.3-0.7,0.5-1.2,0.5
		s-0.9-0.2-1.2-0.5c-0.3-0.3-0.5-0.7-0.5-1.3v-9h-13.2v9c0,0.5-0.2,0.9-0.5,1.3c-0.3,0.3-0.7,0.5-1.2,0.5s-0.9-0.2-1.2-0.5
		c-0.3-0.3-0.5-0.7-0.5-1.3v-20.4c0-0.5,0.2-0.9,0.5-1.3c0.3-0.3,0.7-0.5,1.2-0.5s0.9,0.2,1.2,0.5c0.3,0.3,0.5,0.7,0.5,1.3v8.6h13.2
		v-8.6c0-0.5,0.2-0.9,0.5-1.3c0.3-0.3,0.7-0.5,1.2-0.5S117.5,259.6,117.8,259.9z"/>
	<path fill="#BE955B" d="M123.4,282.7c-0.3-0.3-0.5-0.7-0.5-1.2v-20.2c0-0.5,0.2-0.9,0.5-1.2c0.3-0.3,0.7-0.5,1.3-0.5H137
		c0.5,0,0.9,0.1,1.2,0.4c0.3,0.2,0.4,0.6,0.4,1s-0.1,0.8-0.4,1c-0.3,0.2-0.7,0.4-1.2,0.4h-10.6v7.4h10c0.5,0,0.9,0.1,1.2,0.4
		c0.3,0.2,0.4,0.6,0.4,1s-0.1,0.8-0.4,1c-0.3,0.2-0.7,0.4-1.2,0.4h-10v7.8H137c1.1,0,1.6,0.5,1.6,1.4c0,0.4-0.1,0.8-0.4,1
		c-0.3,0.2-0.7,0.4-1.2,0.4h-12.3C124.1,283.2,123.7,283,123.4,282.7z"/>
	<path fill="#BE955B" d="M142.1,282.7c-0.3-0.3-0.5-0.7-0.5-1.2v-20.2c0-0.5,0.2-0.9,0.5-1.2c0.3-0.3,0.7-0.5,1.3-0.5h12.3
		c0.5,0,0.9,0.1,1.2,0.4c0.3,0.2,0.4,0.6,0.4,1s-0.1,0.8-0.4,1c-0.3,0.2-0.7,0.4-1.2,0.4h-10.6v7.4h10c0.5,0,0.9,0.1,1.2,0.4
		c0.3,0.2,0.4,0.6,0.4,1s-0.1,0.8-0.4,1c-0.3,0.2-0.7,0.4-1.2,0.4h-10v7.8h10.6c1.1,0,1.6,0.5,1.6,1.4c0,0.4-0.1,0.8-0.4,1
		c-0.3,0.2-0.7,0.4-1.2,0.4h-12.3C142.9,283.2,142.4,283,142.1,282.7z"/>
	<path fill="#BE955B" d="M179.1,282c0,0.4-0.2,0.7-0.5,1s-0.7,0.4-1.1,0.4c-0.6,0-1.1-0.3-1.5-0.8l-4.5-7c-0.5-0.8-1.1-1.4-1.6-1.7
		c-0.6-0.3-1.3-0.5-2.3-0.5h-3.8v8.2c0,0.5-0.2,1-0.5,1.3s-0.7,0.5-1.3,0.5c-0.5,0-0.9-0.2-1.2-0.5s-0.5-0.7-0.5-1.3v-20.3
		c0-0.5,0.2-0.9,0.5-1.2c0.3-0.3,0.7-0.5,1.3-0.5h8.3c2.6,0,4.6,0.6,6,1.7c1.4,1.2,2.1,2.9,2.1,5.1c0,1.9-0.5,3.3-1.6,4.5
		c-1,1.1-2.5,1.9-4.5,2.2c0.6,0.2,1.1,0.4,1.6,0.8s0.9,1,1.4,1.7l3.4,5.4C179,281.3,179.1,281.7,179.1,282z M170.1,270.7
		c1.7,0,3-0.3,3.9-1c0.8-0.7,1.3-1.7,1.3-3.2c0-1.4-0.4-2.5-1.2-3.1c-0.8-0.7-2.1-1-3.9-1h-6.3v8.3L170.1,270.7L170.1,270.7z"/>
</g>
<path fill="#BE955B" d="M0,241.1c0-1.3,1.1-2.4,2.4-2.4h250.5c1.3,0,2.4,1.1,2.4,2.4c0,1.3-1.1,2.4-2.4,2.4H2.4
	C1.1,243.5,0,242.4,0,241.1"/>
<path fill="#614776" d="M57,149.9c0.9,1,1.3,2.2,1.3,3.7v60.9c0,1.5-0.5,2.8-1.4,3.7c-0.9,1-2.1,1.4-3.6,1.4c-1.7,0-3.1-0.7-4-2
	l-39.1-51.5v48.4c0,1.5-0.4,2.8-1.3,3.7c-0.9,1-2.1,1.4-3.5,1.4c-1.5,0-2.6-0.5-3.5-1.4s-1.3-2.2-1.3-3.8v-60.9
	c0-1.5,0.5-2.8,1.4-3.7c0.9-1,2.1-1.4,3.6-1.4c1.7,0,3.1,0.7,4,2L48.7,202v-48.5c0-1.5,0.4-2.8,1.3-3.7c0.9-1,2-1.4,3.5-1.4
	C54.9,148.5,56.1,148.9,57,149.9"/>
<path fill="#614776" d="M76.1,218.3c-0.9-0.9-1.4-2.2-1.4-3.8v-60.6c0-1.5,0.4-2.7,1.3-3.6c0.9-0.9,2.1-1.3,3.7-1.3h24
	c7.4,0,13.2,1.8,17.3,5.5c4.1,3.7,6.2,8.8,6.2,15.6c0,6.6-2.1,11.8-6.2,15.6c-4.1,3.7-9.9,5.6-17.3,5.6H84.9v23.4
	c0,1.6-0.4,2.9-1.3,3.8c-0.9,0.9-2.2,1.4-3.8,1.4C78.2,219.7,77,219.3,76.1,218.3 M102.7,182.8c9.8,0,14.8-4.3,14.8-12.9
	c0-8.5-4.9-12.8-14.8-12.8H84.9v25.6L102.7,182.8L102.7,182.8z"/>
<path fill="#614776" d="M141,217.9c-0.9-0.9-1.3-2.1-1.3-3.6V154c0-1.5,0.4-2.7,1.3-3.6c0.9-0.9,2.1-1.3,3.7-1.3h36.7
	c1.5,0,2.7,0.4,3.5,1.1c0.8,0.7,1.2,1.8,1.2,3.1s-0.4,2.3-1.2,3s-2,1-3.5,1h-31.7v22.1h29.7c1.5,0,2.7,0.4,3.5,1.1
	c0.8,0.7,1.2,1.8,1.2,3.1s-0.4,2.4-1.2,3.1c-0.8,0.7-2,1.1-3.5,1.1h-29.7V211h31.7c3.2,0,4.8,1.4,4.8,4.1c0,1.3-0.4,2.4-1.2,3.1
	c-0.8,0.7-2,1.1-3.5,1.1h-36.7C143.2,219.2,141.9,218.8,141,217.9"/>
<path fill="#614776" d="M204.8,212.8c-4.9-4.8-7.3-12-7.3-21.4v-37.7c0-1.6,0.5-2.9,1.4-3.8c0.9-0.9,2.2-1.4,3.7-1.4
	s2.8,0.5,3.7,1.4s1.4,2.2,1.4,3.8V192c0,6.4,1.5,11.3,4.6,14.7c3.1,3.3,7.7,5,13.8,5c6,0,10.6-1.7,13.8-5c3.1-3.3,4.7-8.2,4.7-14.7
	v-38.4c0-1.5,0.5-2.8,1.4-3.7c0.9-1,2.2-1.4,3.7-1.4s2.8,0.5,3.7,1.4s1.4,2.2,1.4,3.8v37.7c0,9.4-2.4,16.5-7.3,21.4
	c-4.9,4.9-12,7.3-21.3,7.3C216.7,220,209.6,217.6,204.8,212.8"/>
<path fill="#614776" d="M143.5,34.7C143.5,15.5,128,0,108.8,0S74.1,15.5,74.1,34.7s15.5,34.7,34.7,34.7S143.5,53.9,143.5,34.7"/>
<path fill="#BE955B" d="M190.5,29.4c2.6-6.6-0.6-14.1-7.2-16.7s-14.1,0.6-16.7,7.2c-2.6,6.6,0.6,14.1,7.2,16.7
	C180.4,39.2,187.9,36,190.5,29.4"/>
<path fill="#BE955B" d="M134.5,85.7c3.8,0.5,16.4,2,33.2-8.1c12.5-7.5,20.7-18.4,21.4-24.9c0.7-5.3-2.9-10.1-8.2-10.9
	c-2.2-0.3-4.1,0.1-6.2,1.2c-6.5,3.4-8.1,15.5-14.2,24.4c-9,13.3-20.4,13.8-25.8,14c-1.2,0-2.2,1-2.2,2.2
	C132.6,84.7,133.5,85.6,134.5,85.7"/>
<path fill="#614776" d="M187.1,69.1c-5.7,7-22.9,22.4-43.7,22.4S112.2,81,96.6,74.6c-12.2-5.1-26.3,0.6-31.4,12.8
	c-3.8,9-1.6,19.1,4.7,25.8c10.7,11.7,32.2,20.1,67.3,8.4s52.1-45.2,54.5-49.6c0.7-1.4,0.1-2.9-1.2-3.6
	C189.3,67.7,187.8,68,187.1,69.1"/>
</svg>
