<?xml version="1.0" encoding="utf-8"?>
<!-- Generator: Adobe Illustrator 15.1.0, SVG Export Plug-In . SVG Version: 6.00 Build 0)  -->
<!DOCTYPE svg PUBLIC "-//W3C//DTD SVG 1.1//EN" "http://www.w3.org/Graphics/SVG/1.1/DTD/svg11.dtd">
<svg version="1.1" id="Layer_1" xmlns="http://www.w3.org/2000/svg" xmlns:xlink="http://www.w3.org/1999/xlink" x="0px" y="0px"
	 width="493.115px" height="212.598px" viewBox="0 0 493.115 212.598" enable-background="new 0 0 493.115 212.598"
	 xml:space="preserve">
<g>
	<path fill="#4A3C7A" d="M27.965,145.106c-7.728-0.04-13.823-2.229-18.171-6.509c-4.41-4.344-6.625-10.423-6.586-18.06
		c0.078-15.373,9.158-24.553,24.289-24.553c0.034,0,13.042-0.061,13.042-0.061C8.534,89.091,3.209,64.972,3.209,49.692
		c-0.115-14.306,3.99-25.799,12.19-34.082c9.543-9.636,24.435-14.538,44.25-14.572h47.491c15.411,0.079,24.676,9.329,24.834,24.745
		c0,15.611-9.061,24.925-24.234,25.004l-9.99-0.016c29.188,7.911,34.292,31.27,34.382,46.262c0,17.879-7.371,47.824-56.728,48.07
		c-0.018,0-0.03,0-0.044,0L27.965,145.106L27.965,145.106z"/>
	<path fill="#FFFFFF" d="M122.913,25.875c0,10.516-5.073,15.798-15.221,15.854l-48.027-0.081
		c-10.621,0.104-15.982,2.788-16.087,8.045c0.157,4.994,5.547,7.466,16.167,7.412h15.537c31.703,0.105,47.631,13.432,47.79,39.984
		c0,25.813-15.902,38.8-47.712,38.955H27.965c-10.515-0.052-15.745-5.204-15.694-15.458c0.053-10.462,5.229-15.641,15.537-15.535
		l47.552-0.234c10.621-0.052,15.93-2.76,15.93-8.124s-5.362-8.019-16.087-7.964H59.668c-31.599-0.053-47.397-13.065-47.397-39.036
		c-0.21-26.342,15.587-39.538,47.395-39.591h47.474C117.55,10.156,122.808,15.413,122.913,25.875z"/>
	<path fill="#4A3C7A" d="M27.965,145.106c-7.728-0.04-13.823-2.229-18.171-6.509c-4.41-4.344-6.625-10.423-6.586-18.06
		c0.078-15.373,9.158-24.553,24.289-24.553c0.034,0,13.042-0.061,13.042-0.061C8.534,89.091,3.209,64.972,3.209,49.692
		c-0.115-14.306,3.99-25.799,12.19-34.082c9.543-9.636,24.435-14.538,44.25-14.572h47.491c15.411,0.079,24.676,9.329,24.834,24.745
		c0,15.611-9.061,24.925-24.234,25.004l-9.99-0.016c29.188,7.911,34.292,31.27,34.382,46.262c0,17.879-7.371,47.824-56.728,48.07
		c-0.018,0-0.03,0-0.044,0L27.965,145.106L27.965,145.106z"/>
	<path fill="#FFFFFF" d="M122.913,25.875c0,10.516-5.073,15.798-15.221,15.854l-48.027-0.081
		c-10.621,0.104-15.982,2.788-16.087,8.045c0.157,4.994,5.547,7.466,16.167,7.412h15.537c31.703,0.105,47.631,13.432,47.79,39.984
		c0,25.813-15.902,38.8-47.712,38.955H27.965c-10.515-0.052-15.745-5.204-15.694-15.458c0.053-10.462,5.229-15.641,15.537-15.535
		l47.552-0.234c10.621-0.052,15.93-2.76,15.93-8.124s-5.362-8.019-16.087-7.964H59.668c-31.599-0.053-47.397-13.065-47.397-39.036
		c-0.21-26.342,15.587-39.538,47.395-39.591h47.474C117.55,10.156,122.808,15.413,122.913,25.875z"/>
</g>
<g>
	<path fill="#4A3C7A" d="M201.224,145.264c-15.476,0-24.758-9.093-24.834-24.315V25.875c0.079-15.355,9.292-24.68,24.651-24.988
		l80.01,0.154c14.913,0.24,23.789,9.329,23.867,24.315c0,12.505-5.886,21.067-16.133,24.158
		c10.206,3.008,16.066,11.372,16.133,23.556c-0.234,15.649-9.489,24.879-24.756,24.879l-54.03,0.066v22.497
		c-0.077,15.359-9.354,24.595-24.823,24.751C201.28,145.264,201.25,145.264,201.224,145.264z"/>
	<path fill="#FFFFFF" d="M201.224,9.947l79.809,0.155c9.832,0.16,14.772,5.259,14.827,15.303c0,10.722-5.313,16.166-15.932,16.324
		h-62.852v15.616h63.09c10.408,0.156,15.641,5.414,15.693,15.771c-0.158,10.516-5.39,15.773-15.693,15.773l-63.09,0.077v31.548
		c-0.054,10.356-5.336,15.588-15.853,15.69c-10.46,0-15.722-5.1-15.772-15.3v-95.03C185.502,15.465,190.762,10.156,201.224,9.947z"
		/>
	<path fill="#4A3C7A" d="M201.224,145.264c-15.476,0-24.758-9.093-24.834-24.315V25.875c0.079-15.355,9.292-24.68,24.651-24.988
		l80.01,0.154c14.913,0.24,23.789,9.329,23.867,24.315c0,12.505-5.886,21.067-16.133,24.158
		c10.206,3.008,16.066,11.372,16.133,23.556c-0.234,15.649-9.489,24.879-24.756,24.879l-54.03,0.066v22.497
		c-0.077,15.359-9.354,24.595-24.823,24.751C201.28,145.264,201.25,145.264,201.224,145.264z"/>
	<path fill="#FFFFFF" d="M201.224,9.947l79.809,0.155c9.832,0.16,14.772,5.259,14.827,15.303c0,10.722-5.313,16.166-15.932,16.324
		h-62.852v15.616h63.09c10.408,0.156,15.641,5.414,15.693,15.771c-0.158,10.516-5.39,15.773-15.693,15.773l-63.09,0.077v31.548
		c-0.054,10.356-5.336,15.588-15.853,15.69c-10.46,0-15.722-5.1-15.772-15.3v-95.03C185.502,15.465,190.762,10.156,201.224,9.947z"
		/>
</g>
<g>
	<path fill="#4A3C7A" d="M366.674,145.264c-15.553,0-24.833-9.11-24.833-24.359l0.067-70.116h-14.586
		c-15.55,0-24.833-9.313-24.833-24.913c0.079-15.355,9.293-24.68,24.649-24.988l80.008,0.154
		c14.914,0.24,23.792,9.329,23.871,24.315c0,15.711-9.293,25.202-24.86,25.429h-14.642l0.071,69.716
		c-0.155,15.391-9.434,24.605-24.825,24.763C366.733,145.264,366.701,145.264,366.674,145.264z"/>
	<path fill="#FFFFFF" d="M327.321,9.947l79.809,0.155c9.831,0.16,14.773,5.259,14.827,15.303c0,10.722-5.313,16.166-15.929,16.324
		h-23.581l0.082,78.78c-0.106,10.358-5.39,15.589-15.854,15.692c-10.514,0-15.772-5.101-15.772-15.301l0.083-79.174h-23.659
		c-10.515,0-15.771-5.284-15.771-15.854C311.603,15.465,316.859,10.156,327.321,9.947z"/>
	<path fill="#4A3C7A" d="M366.674,145.264c-15.553,0-24.833-9.11-24.833-24.359l0.067-70.116h-14.586
		c-15.55,0-24.833-9.313-24.833-24.913c0.079-15.355,9.293-24.68,24.649-24.988l80.008,0.154
		c14.914,0.24,23.792,9.329,23.871,24.315c0,15.711-9.293,25.202-24.86,25.429h-14.642l0.071,69.716
		c-0.155,15.391-9.434,24.605-24.825,24.763C366.733,145.264,366.701,145.264,366.674,145.264z"/>
	<path fill="#FFFFFF" d="M327.321,9.947l79.809,0.155c9.831,0.16,14.773,5.259,14.827,15.303c0,10.722-5.313,16.166-15.929,16.324
		h-23.581l0.082,78.78c-0.106,10.358-5.39,15.589-15.854,15.692c-10.514,0-15.772-5.101-15.772-15.301l0.083-79.174h-23.659
		c-10.515,0-15.771-5.284-15.771-15.854C311.603,15.465,316.859,10.156,327.321,9.947z"/>
</g>
<g>
	<g>
		<path fill="#9081AE" d="M403.266,171.929H4.485c-2.479,0-4.485-2.012-4.485-4.486c0-2.478,2.008-4.485,4.485-4.485h396.879
			l45.91-47.351c1.726-1.778,4.566-1.822,6.34-0.101c1.78,1.728,1.823,4.563,0.101,6.345l-47.23,48.717
			C405.64,171.435,404.478,171.929,403.266,171.929z"/>
	</g>
	<g>
		<path fill="#9081AE" d="M441.399,171.929c-1.125,0-2.253-0.423-3.123-1.267c-1.78-1.727-1.822-4.563-0.101-6.344l47.232-48.715
			c1.727-1.779,4.566-1.822,6.343-0.102c1.779,1.728,1.821,4.565,0.1,6.345l-47.232,48.719
			C443.739,171.471,442.567,171.929,441.399,171.929z"/>
	</g>
</g>
<path fill="none" stroke="#973721" stroke-width="6.8" stroke-linecap="round" stroke-linejoin="round" stroke-miterlimit="10" d="
	M4.485,167.441"/>
<g>
	<path fill="#4A3C7A" d="M5.799,200.006l2.555-0.224c0.121,1.021,0.402,1.864,0.844,2.521c0.443,0.655,1.129,1.187,2.06,1.593
		c0.932,0.401,1.98,0.604,3.142,0.604c1.034,0,1.945-0.153,2.739-0.46c0.791-0.311,1.38-0.73,1.767-1.265
		c0.387-0.537,0.581-1.121,0.581-1.75c0-0.646-0.188-1.204-0.559-1.686c-0.372-0.479-0.986-0.881-1.843-1.207
		c-0.548-0.215-1.764-0.547-3.644-1c-1.881-0.449-3.197-0.875-3.952-1.276c-0.979-0.512-1.707-1.147-2.185-1.906
		c-0.481-0.758-0.719-1.606-0.719-2.548c0-1.033,0.293-1.998,0.88-2.897c0.586-0.896,1.444-1.58,2.57-2.045
		c1.125-0.467,2.376-0.701,3.757-0.701c1.518,0,2.855,0.245,4.016,0.735c1.159,0.488,2.049,1.209,2.675,2.158
		c0.623,0.949,0.958,2.022,1.005,3.228l-2.596,0.194c-0.14-1.293-0.615-2.27-1.418-2.934c-0.806-0.662-1.994-0.992-3.568-0.992
		c-1.639,0-2.834,0.304-3.582,0.904c-0.748,0.599-1.125,1.321-1.125,2.17c0,0.735,0.266,1.34,0.797,1.813
		c0.521,0.477,1.884,0.961,4.084,1.462c2.2,0.5,3.712,0.935,4.53,1.303c1.193,0.551,2.073,1.249,2.641,2.089
		c0.568,0.842,0.853,1.813,0.853,2.911c0,1.092-0.313,2.117-0.935,3.08c-0.624,0.962-1.52,1.712-2.69,2.249
		c-1.167,0.535-2.483,0.806-3.944,0.806c-1.854,0-3.405-0.272-4.658-0.813c-1.252-0.54-2.234-1.354-2.946-2.436
		C6.217,202.606,5.837,201.374,5.799,200.006z"/>
	<path fill="#4A3C7A" d="M25.476,212.264v-20.515h2.29v1.926c0.54-0.752,1.151-1.316,1.829-1.695
		c0.68-0.376,1.505-0.569,2.473-0.569c1.265,0,2.383,0.326,3.351,0.979c0.969,0.652,1.699,1.569,2.193,2.76
		c0.492,1.188,0.74,2.487,0.74,3.904c0,1.518-0.271,2.882-0.816,4.097s-1.335,2.148-2.373,2.792
		c-1.04,0.647-2.129,0.972-3.276,0.972c-0.84,0-1.589-0.177-2.256-0.532c-0.665-0.353-1.212-0.799-1.639-1.339v7.221H25.476
		L25.476,212.264z M27.753,199.249c0,1.908,0.387,3.321,1.158,4.23c0.772,0.914,1.709,1.369,2.807,1.369
		c1.118,0,2.075-0.473,2.87-1.417s1.194-2.407,1.194-4.394c0-1.89-0.389-3.306-1.167-4.246c-0.776-0.938-1.705-1.409-2.785-1.409
		c-1.071,0-2.018,0.501-2.843,1.502C28.165,195.887,27.753,197.342,27.753,199.249z"/>
	<path fill="#4A3C7A" d="M51.536,201.805l2.598,0.321c-0.411,1.519-1.17,2.695-2.277,3.533s-2.523,1.258-4.245,1.258
		c-2.169,0-3.889-0.669-5.16-2.003c-1.271-1.338-1.904-3.21-1.904-5.623c0-2.494,0.642-4.432,1.926-5.81
		c1.284-1.378,2.952-2.068,5-2.068c1.984,0,3.604,0.676,4.86,2.026c1.256,1.35,1.886,3.248,1.886,5.7
		c0,0.146-0.004,0.372-0.013,0.668h-11.06c0.091,1.632,0.553,2.879,1.382,3.743c0.829,0.866,1.862,1.298,3.1,1.298
		c0.922,0,1.707-0.24,2.36-0.727C50.637,203.639,51.154,202.865,51.536,201.805z M43.281,197.741h8.281
		c-0.11-1.248-0.427-2.184-0.948-2.807c-0.802-0.97-1.839-1.454-3.115-1.454c-1.155,0-2.126,0.388-2.912,1.159
		C43.802,195.416,43.366,196.449,43.281,197.741z"/>
	<path fill="#4A3C7A" d="M67.441,201.805l2.598,0.321c-0.408,1.519-1.167,2.695-2.274,3.533c-1.108,0.838-2.524,1.258-4.246,1.258
		c-2.171,0-3.889-0.669-5.16-2.003c-1.271-1.338-1.905-3.21-1.905-5.623c0-2.494,0.642-4.432,1.929-5.81
		c1.284-1.378,2.951-2.068,4.999-2.068c1.984,0,3.603,0.676,4.86,2.026c1.256,1.35,1.886,3.248,1.886,5.7
		c0,0.146-0.004,0.372-0.013,0.668H59.053c0.093,1.632,0.555,2.879,1.381,3.743c0.827,0.866,1.862,1.298,3.1,1.298
		c0.921,0,1.708-0.24,2.36-0.727C66.544,203.639,67.059,202.865,67.441,201.805z M59.189,197.741h8.28
		c-0.11-1.248-0.429-2.184-0.95-2.807c-0.799-0.97-1.838-1.454-3.112-1.454c-1.155,0-2.125,0.388-2.913,1.159
		C59.707,195.416,59.273,196.449,59.189,197.741z"/>
	<path fill="#4A3C7A" d="M82.816,206.58v-1.872c-0.939,1.47-2.321,2.207-4.148,2.207c-1.184,0-2.269-0.326-3.261-0.979
		c-0.993-0.653-1.76-1.562-2.304-2.729c-0.544-1.17-0.816-2.511-0.816-4.031c0-1.479,0.247-2.819,0.739-4.026
		c0.493-1.208,1.235-2.13,2.219-2.773c0.987-0.642,2.09-0.965,3.311-0.965c0.893,0,1.691,0.19,2.39,0.568
		c0.699,0.378,1.265,0.868,1.703,1.473v-7.348h2.5v20.473h-2.332L82.816,206.58L82.816,206.58z M74.871,199.179
		c0,1.899,0.4,3.321,1.202,4.262c0.799,0.939,1.745,1.409,2.833,1.409c1.1,0,2.033-0.448,2.8-1.35
		c0.768-0.897,1.152-2.267,1.152-4.11c0-2.03-0.392-3.52-1.174-4.471c-0.782-0.948-1.745-1.425-2.891-1.425
		c-1.117,0-2.049,0.456-2.8,1.368C75.245,195.776,74.871,197.217,74.871,199.179z"/>
	<path fill="#4A3C7A" d="M96.112,199.167c0-2.747,0.763-4.781,2.292-6.104c1.276-1.101,2.83-1.647,4.665-1.647
		c2.039,0,3.706,0.669,5.001,2.005c1.293,1.337,1.941,3.182,1.941,5.537c0,1.907-0.288,3.41-0.859,4.503
		c-0.574,1.096-1.408,1.944-2.5,2.55c-1.093,0.604-2.289,0.908-3.583,0.908c-2.077,0-3.754-0.666-5.034-1.997
		C96.751,203.588,96.112,201.671,96.112,199.167z M98.696,199.167c0,1.898,0.415,3.322,1.242,4.267
		c0.828,0.943,1.871,1.417,3.13,1.417c1.246,0,2.286-0.475,3.115-1.427c0.829-0.947,1.242-2.397,1.242-4.343
		c0-1.834-0.417-3.224-1.25-4.168c-0.833-0.946-1.869-1.416-3.106-1.416c-1.257,0-2.3,0.469-3.13,1.408
		C99.108,195.847,98.696,197.269,98.696,199.167z"/>
	<path fill="#4A3C7A" d="M113.555,206.58v-12.876h-2.22v-1.954h2.22v-1.579c0-0.995,0.088-1.733,0.266-2.219
		c0.242-0.652,0.668-1.182,1.277-1.586c0.61-0.404,1.463-0.607,2.564-0.607c0.708,0,1.489,0.087,2.347,0.253l-0.376,2.191
		c-0.522-0.093-1.017-0.141-1.482-0.141c-0.763,0-1.303,0.164-1.621,0.49c-0.317,0.325-0.474,0.934-0.474,1.826v1.369h2.891v1.955
		h-2.891v12.876L113.555,206.58L113.555,206.58z"/>
	<path fill="#4A3C7A" d="M128.86,188.999v-2.891h2.512v2.891H128.86z M128.86,206.58v-14.83h2.512v14.83H128.86z"/>
	<path fill="#4A3C7A" d="M135.198,206.58v-14.83h2.262v2.108c1.09-1.631,2.662-2.445,4.722-2.445c0.893,0,1.715,0.162,2.464,0.483
		c0.75,0.323,1.309,0.745,1.683,1.264c0.372,0.523,0.634,1.144,0.783,1.858c0.094,0.466,0.14,1.281,0.14,2.441v9.118h-2.515v-9.021
		c0-1.021-0.098-1.789-0.293-2.295c-0.195-0.507-0.542-0.915-1.04-1.218c-0.498-0.302-1.082-0.453-1.754-0.453
		c-1.069,0-1.995,0.341-2.772,1.02s-1.166,1.968-1.166,3.866v8.1h-2.515L135.198,206.58L135.198,206.58z"/>
	<path fill="#4A3C7A" d="M160.784,201.15l2.47,0.318c-0.27,1.706-0.961,3.041-2.073,4.002c-1.112,0.965-2.479,1.447-4.099,1.447
		c-2.031,0-3.663-0.667-4.897-1.988c-1.233-1.329-1.85-3.229-1.85-5.707c0-1.604,0.266-3.004,0.795-4.205
		c0.532-1.198,1.339-2.102,2.424-2.703c1.084-0.602,2.264-0.902,3.54-0.902c1.609,0,2.927,0.409,3.952,1.226
		c1.025,0.815,1.682,1.973,1.969,3.47l-2.443,0.377c-0.233-0.997-0.644-1.743-1.235-2.248c-0.591-0.503-1.308-0.754-2.145-0.754
		c-1.268,0-2.296,0.455-3.087,1.363c-0.791,0.907-1.186,2.346-1.186,4.307c0,1.994,0.38,3.439,1.146,4.344
		c0.763,0.903,1.76,1.355,2.989,1.355c0.987,0,1.812-0.305,2.473-0.91C160.188,203.338,160.606,202.409,160.784,201.15z"/>
	<path fill="#4A3C7A" d="M165.379,206.58v-14.83h2.262v2.249c0.576-1.053,1.11-1.745,1.599-2.082
		c0.489-0.336,1.026-0.504,1.613-0.504c0.846,0,1.708,0.272,2.583,0.813l-0.865,2.33c-0.615-0.362-1.229-0.543-1.843-0.543
		c-0.548,0-1.044,0.165-1.479,0.495c-0.438,0.329-0.75,0.786-0.935,1.373c-0.281,0.896-0.419,1.873-0.419,2.934v7.763h-2.515
		L165.379,206.58L165.379,206.58z"/>
	<path fill="#4A3C7A" d="M185.084,201.805l2.596,0.321c-0.408,1.519-1.167,2.695-2.275,3.533c-1.107,0.838-2.523,1.258-4.245,1.258
		c-2.17,0-3.888-0.669-5.16-2.003c-1.271-1.338-1.905-3.21-1.905-5.623c0-2.494,0.642-4.432,1.928-5.81
		c1.284-1.378,2.951-2.068,4.999-2.068c1.984,0,3.604,0.676,4.86,2.026c1.257,1.35,1.885,3.248,1.885,5.7
		c0,0.146-0.004,0.372-0.012,0.668h-11.063c0.094,1.632,0.555,2.879,1.382,3.743c0.827,0.866,1.862,1.298,3.1,1.298
		c0.92,0,1.707-0.24,2.36-0.727C184.184,203.639,184.7,202.865,185.084,201.805z M176.83,197.741h8.281
		c-0.111-1.248-0.428-2.184-0.95-2.807c-0.799-0.97-1.839-1.454-3.112-1.454c-1.154,0-2.125,0.388-2.913,1.159
		C177.349,195.416,176.913,196.449,176.83,197.741z"/>
	<path fill="#4A3C7A" d="M200.515,204.752c-0.932,0.79-1.828,1.353-2.689,1.677c-0.861,0.325-1.787,0.485-2.773,0.485
		c-1.63,0-2.881-0.396-3.756-1.195c-0.876-0.793-1.314-1.813-1.314-3.052c0-0.728,0.166-1.389,0.495-1.99
		c0.329-0.601,0.763-1.084,1.299-1.445c0.535-0.362,1.139-0.64,1.81-0.824c0.493-0.13,1.239-0.256,2.234-0.377
		c2.031-0.24,3.522-0.53,4.481-0.865c0.009-0.345,0.013-0.565,0.013-0.657c0-1.023-0.235-1.744-0.711-2.166
		c-0.643-0.567-1.598-0.85-2.861-0.85c-1.185,0-2.056,0.208-2.619,0.621c-0.563,0.414-0.98,1.147-1.25,2.197l-2.458-0.333
		c0.224-1.052,0.592-1.903,1.104-2.549c0.513-0.646,1.252-1.146,2.22-1.493c0.966-0.351,2.09-0.525,3.365-0.525
		c1.269,0,2.297,0.149,3.088,0.449c0.791,0.299,1.373,0.673,1.746,1.124c0.371,0.45,0.633,1.019,0.782,1.709
		c0.083,0.431,0.125,1.201,0.125,2.319v3.352c0,2.338,0.054,3.813,0.159,4.435c0.105,0.619,0.318,1.212,0.637,1.778h-2.627
		C200.756,206.059,200.588,205.448,200.515,204.752z M200.306,199.139c-0.912,0.371-2.281,0.687-4.104,0.948
		c-1.034,0.146-1.765,0.315-2.192,0.5c-0.429,0.188-0.759,0.461-0.993,0.819c-0.232,0.356-0.349,0.755-0.349,1.19
		c0,0.674,0.253,1.229,0.761,1.678c0.506,0.446,1.25,0.668,2.226,0.668c0.969,0,1.828-0.211,2.583-0.636
		c0.752-0.425,1.307-1.004,1.662-1.738c0.271-0.568,0.404-1.404,0.404-2.514v-0.92L200.306,199.139L200.306,199.139z"/>
	<path fill="#4A3C7A" d="M205.737,202.156l2.486-0.394c0.139,0.995,0.529,1.76,1.166,2.289c0.639,0.529,1.529,0.796,2.672,0.796
		c1.155,0,2.012-0.233,2.571-0.704c0.56-0.473,0.837-1.021,0.837-1.654c0-0.57-0.246-1.017-0.74-1.342
		c-0.344-0.225-1.201-0.504-2.566-0.853c-1.844-0.466-3.122-0.864-3.833-1.206c-0.713-0.339-1.252-0.811-1.62-1.409
		c-0.368-0.603-0.551-1.267-0.551-1.99c0-0.661,0.15-1.273,0.453-1.835c0.304-0.566,0.714-1.03,1.238-1.405
		c0.391-0.287,0.924-0.531,1.599-0.733c0.676-0.199,1.397-0.302,2.17-0.302c1.163,0,2.185,0.17,3.065,0.504
		c0.881,0.333,1.529,0.789,1.951,1.36c0.418,0.576,0.707,1.34,0.865,2.299l-2.458,0.333c-0.11-0.761-0.437-1.359-0.972-1.785
		c-0.535-0.428-1.291-0.644-2.268-0.644c-1.156,0-1.979,0.189-2.474,0.572c-0.494,0.384-0.74,0.829-0.74,1.343
		c0,0.324,0.103,0.617,0.308,0.878c0.205,0.271,0.525,0.493,0.964,0.671c0.251,0.093,0.991,0.311,2.22,0.643
		c1.777,0.476,3.02,0.863,3.721,1.168c0.703,0.303,1.254,0.742,1.653,1.317c0.399,0.577,0.603,1.294,0.603,2.152
		c0,0.838-0.244,1.627-0.733,2.364c-0.49,0.74-1.195,1.313-2.116,1.719c-0.92,0.402-1.964,0.606-3.127,0.606
		c-1.926,0-3.396-0.397-4.404-1.2C206.661,204.915,206.017,203.729,205.737,202.156z"/>
	<path fill="#4A3C7A" d="M221.058,188.999v-2.891h2.512v2.891H221.058z M221.058,206.58v-14.83h2.512v14.83H221.058z"/>
	<path fill="#4A3C7A" d="M227.397,206.58v-14.83h2.263v2.108c1.09-1.631,2.661-2.445,4.721-2.445c0.894,0,1.716,0.162,2.466,0.483
		c0.747,0.323,1.309,0.745,1.684,1.264c0.371,0.523,0.633,1.144,0.781,1.858c0.094,0.466,0.141,1.281,0.141,2.441v9.118h-2.516
		v-9.021c0-1.021-0.098-1.789-0.293-2.295c-0.194-0.507-0.541-0.915-1.041-1.218c-0.498-0.302-1.082-0.453-1.752-0.453
		c-1.07,0-1.994,0.341-2.771,1.02c-0.778,0.679-1.165,1.968-1.165,3.866v8.1h-2.515L227.397,206.58L227.397,206.58z"/>
	<path fill="#4A3C7A" d="M242.842,207.812l2.443,0.362c0.102,0.756,0.387,1.305,0.851,1.647c0.623,0.466,1.476,0.697,2.556,0.697
		c1.161,0,2.062-0.231,2.694-0.697c0.633-0.467,1.063-1.117,1.285-1.956c0.131-0.51,0.19-1.586,0.181-3.226
		c-1.099,1.293-2.468,1.938-4.104,1.938c-2.039,0-3.619-0.736-4.735-2.204c-1.117-1.472-1.675-3.235-1.675-5.295
		c0-1.414,0.255-2.72,0.769-3.918c0.51-1.196,1.254-2.12,2.227-2.771c0.973-0.653,2.115-0.98,3.426-0.98
		c1.752,0,3.194,0.711,4.332,2.125v-1.788h2.317v12.819c0,2.309-0.233,3.945-0.707,4.911c-0.468,0.964-1.217,1.726-2.234,2.282
		c-1.018,0.56-2.272,0.838-3.766,0.838c-1.769,0-3.196-0.396-4.288-1.193C243.332,210.611,242.806,209.412,242.842,207.812z
		 M244.924,198.901c0,1.948,0.388,3.366,1.158,4.262c0.774,0.894,1.742,1.339,2.907,1.339c1.152,0,2.121-0.443,2.903-1.332
		c0.781-0.891,1.171-2.283,1.171-4.185c0-1.815-0.401-3.187-1.207-4.105c-0.804-0.923-1.776-1.382-2.911-1.382
		c-1.119,0-2.066,0.453-2.849,1.363C245.315,195.767,244.924,197.112,244.924,198.901z"/>
	<path fill="#4A3C7A" d="M267.155,206.58v-14.83h2.249v2.08c0.467-0.725,1.086-1.307,1.858-1.75
		c0.774-0.441,1.653-0.667,2.642-0.667c1.098,0,1.998,0.229,2.702,0.688c0.703,0.456,1.198,1.093,1.487,1.913
		c1.173-1.734,2.7-2.603,4.581-2.603c1.467,0,2.604,0.408,3.395,1.224c0.79,0.815,1.187,2.07,1.187,3.766v10.18h-2.5v-9.341
		c0-1.008-0.081-1.729-0.242-2.173c-0.164-0.442-0.46-0.798-0.889-1.067c-0.429-0.269-0.932-0.402-1.506-0.402
		c-1.044,0-1.909,0.347-2.602,1.039c-0.689,0.693-1.031,1.807-1.031,3.33v8.615h-2.514v-9.635c0-1.117-0.205-1.952-0.616-2.514
		c-0.406-0.56-1.08-0.841-2.013-0.841c-0.707,0-1.362,0.189-1.961,0.562c-0.601,0.374-1.035,0.917-1.304,1.636
		c-0.271,0.716-0.405,1.748-0.405,3.103v7.689h-2.517v0.002h-0.003L267.155,206.58L267.155,206.58z"/>
	<path fill="#4A3C7A" d="M290.995,188.999v-2.891h2.516v2.891H290.995z M290.995,206.58v-14.83h2.516v14.83H290.995z"/>
	<path fill="#4A3C7A" d="M297.28,206.58v-20.474h2.513v20.474H297.28z"/>
	<path fill="#4A3C7A" d="M303.702,206.58v-20.474h2.516v11.677l5.947-6.033h3.256l-5.67,5.505l6.242,9.326h-3.101L307.991,199
		l-1.773,1.704v5.882h-2.516V206.58L303.702,206.58z"/>
	<path fill="#4A3C7A" d="M326.535,206.58v-12.876h-2.22v-1.954h2.22v-1.579c0-0.995,0.089-1.733,0.265-2.219
		c0.243-0.652,0.67-1.182,1.28-1.586c0.609-0.404,1.464-0.607,2.563-0.607c0.707,0,1.49,0.087,2.345,0.253l-0.375,2.191
		c-0.522-0.093-1.017-0.141-1.48-0.141c-0.764,0-1.304,0.164-1.619,0.49c-0.314,0.325-0.475,0.934-0.475,1.826v1.369h2.889v1.955
		h-2.889v12.876L326.535,206.58L326.535,206.58z"/>
	<path fill="#4A3C7A" d="M344.034,201.805l2.6,0.321c-0.409,1.519-1.169,2.695-2.276,3.533c-1.106,0.838-2.524,1.258-4.246,1.258
		c-2.171,0-3.892-0.669-5.16-2.003c-1.271-1.338-1.904-3.21-1.904-5.623c0-2.494,0.641-4.432,1.926-5.81
		c1.284-1.378,2.951-2.068,5.001-2.068c1.983,0,3.603,0.676,4.86,2.026c1.255,1.35,1.883,3.248,1.883,5.7
		c0,0.146-0.005,0.372-0.015,0.668H335.64c0.092,1.632,0.555,2.879,1.382,3.743c0.828,0.866,1.86,1.298,3.101,1.298
		c0.924,0,1.71-0.24,2.362-0.727C343.135,203.639,343.65,202.865,344.034,201.805z M335.778,197.741h8.282
		c-0.112-1.248-0.43-2.184-0.948-2.807c-0.803-0.97-1.841-1.454-3.116-1.454c-1.153,0-2.124,0.388-2.912,1.159
		C336.299,195.416,335.864,196.449,335.778,197.741z"/>
	<path fill="#4A3C7A" d="M359.938,201.805l2.601,0.321c-0.41,1.519-1.169,2.695-2.277,3.533c-1.107,0.838-2.523,1.258-4.246,1.258
		c-2.169,0-3.889-0.669-5.161-2.003c-1.271-1.338-1.903-3.21-1.903-5.623c0-2.494,0.64-4.432,1.926-5.81
		c1.284-1.378,2.951-2.068,4.999-2.068c1.985,0,3.604,0.676,4.862,2.026c1.257,1.35,1.885,3.248,1.885,5.7
		c0,0.146-0.003,0.372-0.017,0.668h-11.06c0.091,1.632,0.552,2.879,1.382,3.743c0.827,0.866,1.859,1.298,3.102,1.298
		c0.922,0,1.708-0.24,2.357-0.727C359.042,203.639,359.559,202.865,359.938,201.805z M351.686,197.741h8.282
		c-0.11-1.248-0.429-2.184-0.949-2.807c-0.803-0.97-1.841-1.454-3.115-1.454c-1.153,0-2.124,0.388-2.912,1.159
		C352.206,195.416,351.772,196.449,351.686,197.741z"/>
	<path fill="#4A3C7A" d="M375.316,206.58v-1.872c-0.938,1.47-2.325,2.207-4.147,2.207c-1.184,0-2.268-0.326-3.262-0.979
		c-0.995-0.653-1.762-1.562-2.304-2.729c-0.542-1.17-0.814-2.511-0.814-4.031c0-1.479,0.247-2.819,0.741-4.026
		c0.495-1.206,1.231-2.13,2.221-2.773c0.984-0.642,2.088-0.965,3.308-0.965c0.894,0,1.69,0.19,2.391,0.568s1.264,0.868,1.703,1.473
		v-7.348h2.5v20.473h-2.331v0.003H375.316z M367.37,199.179c0,1.899,0.397,3.321,1.199,4.262c0.799,0.939,1.743,1.409,2.835,1.409
		c1.097,0,2.029-0.448,2.8-1.35c0.769-0.897,1.152-2.267,1.152-4.11c0-2.03-0.395-3.52-1.174-4.471
		c-0.78-0.948-1.746-1.425-2.89-1.425c-1.118,0-2.052,0.456-2.799,1.368C367.743,195.776,367.37,197.217,367.37,199.179z"/>
	<path fill="#4A3C7A" d="M380.594,202.156l2.485-0.394c0.138,0.995,0.528,1.76,1.163,2.289c0.637,0.529,1.529,0.796,2.675,0.796
		c1.155,0,2.012-0.233,2.569-0.704c0.561-0.473,0.842-1.021,0.842-1.654c0-0.57-0.248-1.017-0.743-1.342
		c-0.345-0.225-1.2-0.504-2.567-0.853c-1.846-0.466-3.122-0.864-3.834-1.206c-0.712-0.339-1.254-0.811-1.62-1.409
		c-0.366-0.603-0.55-1.267-0.55-1.99c0-0.661,0.15-1.273,0.453-1.835c0.304-0.566,0.713-1.03,1.236-1.405
		c0.391-0.287,0.925-0.531,1.6-0.733c0.675-0.199,1.398-0.302,2.17-0.302c1.163,0,2.187,0.17,3.065,0.504
		c0.88,0.333,1.529,0.789,1.95,1.36c0.419,0.576,0.708,1.34,0.864,2.299l-2.458,0.333c-0.112-0.761-0.435-1.359-0.972-1.785
		c-0.534-0.428-1.29-0.644-2.269-0.644c-1.153,0-1.979,0.189-2.472,0.572c-0.494,0.384-0.74,0.829-0.74,1.343
		c0,0.324,0.103,0.617,0.306,0.878c0.204,0.271,0.526,0.493,0.967,0.671c0.25,0.093,0.989,0.311,2.218,0.643
		c1.778,0.476,3.021,0.863,3.722,1.168c0.706,0.303,1.254,0.742,1.653,1.317c0.399,0.577,0.601,1.294,0.601,2.152
		c0,0.838-0.242,1.627-0.734,2.364c-0.485,0.741-1.189,1.313-2.114,1.719c-0.923,0.402-1.965,0.606-3.129,0.606
		c-1.929,0-3.396-0.397-4.403-1.2C381.519,204.915,380.872,203.729,380.594,202.156z"/>
</g>
<g>
	<path fill="#4A3C7A" d="M153.959,145.576c-15.437-0.312-24.65-9.648-24.65-24.989v-94.79c-0.041-7.635,2.149-13.744,6.499-18.123
		c4.343-4.362,10.442-6.597,18.131-6.635c15.542,0.156,24.88,9.329,25.112,24.539l0.004,94.932
		c-0.156,15.499-9.416,24.84-24.774,25.068c-0.049,0-0.089,0.002-0.136,0.002C154.082,145.578,154.021,145.576,153.959,145.576z"/>
	<path fill="#FFFFFF" d="M153.984,10.103c10.515,0.106,15.851,5.311,16.008,15.617v94.792c-0.104,10.516-5.389,15.852-15.852,16.009
		c-10.513-0.212-15.771-5.521-15.771-15.933V25.797C138.318,15.386,143.522,10.156,153.984,10.103z"/>
	<path fill="#4A3C7A" d="M179.654,26.096c0.087-6.058-1.921-11.822-5.689-16.485c-0.438-0.553-0.906-1.081-1.395-1.584
		c-0.069-0.073-0.125-0.149-0.196-0.222c-0.015-0.017-0.034-0.03-0.049-0.046c-0.106-0.106-0.221-0.205-0.331-0.311
		c-4.749-4.701-11.004-7.354-17.688-7.446L153.923,0c-13.974,0-25.507,11.37-25.709,25.347c-0.041,2.71,0.351,5.321,1.095,7.787
		v87.453c0,15.341,9.212,24.679,24.651,24.989c0.062,0,0.123,0.002,0.183,0.002c0.047,0,0.089-0.002,0.137-0.002
		c15.36-0.229,24.619-9.567,24.774-25.067l-0.004-89.264C179.419,29.583,179.63,27.86,179.654,26.096z"/>
	<path fill="#FFFFFF" d="M171.564,25.978c0.14-9.72-7.651-17.748-17.371-17.894l-0.259-0.001c-9.576,0-17.48,7.796-17.622,17.38
		c-0.045,3.02,0.678,5.928,2.06,8.52v86.603c0,10.411,5.258,15.722,15.771,15.934c10.462-0.16,15.747-5.494,15.852-16.01V32.94
		C170.964,30.804,171.527,28.452,171.564,25.978z"/>
</g>
<path fill="#9081AE" d="M172.376,7.808c-4.792-4.936-11.208-7.707-18.069-7.804L153.923,0c-13.974,0-25.508,11.37-25.71,25.347
	c-0.206,14.176,11.164,25.878,25.346,26.084l0.377,0.002l0,0c13.974,0,25.511-11.369,25.718-25.337
	C179.753,19.237,177.169,12.741,172.376,7.808z M153.939,43.34l-0.261-0.001c-4.706-0.067-9.104-1.965-12.384-5.342
	c-3.281-3.377-5.05-7.827-4.981-12.533c0.14-9.583,8.044-17.381,17.622-17.381l0.259,0.002c9.72,0.145,17.514,8.169,17.372,17.893
	C171.421,35.551,163.517,43.34,153.939,43.34z"/>
</svg>
