<?xml version="1.0" encoding="utf-8"?>
<!-- Generator: Adobe Illustrator 15.1.0, SVG Export Plug-In . SVG Version: 6.00 Build 0)  -->
<!DOCTYPE svg PUBLIC "-//W3C//DTD SVG 1.1//EN" "http://www.w3.org/Graphics/SVG/1.1/DTD/svg11.dtd">
<svg version="1.1" id="Layer_1" xmlns="http://www.w3.org/2000/svg" xmlns:xlink="http://www.w3.org/1999/xlink" x="0px" y="0px"
	 width="1533.766px" height="283.464px" viewBox="0 0 1533.766 283.464" enable-background="new 0 0 1533.766 283.464"
	 xml:space="preserve">
<g>
	<g>
		<polygon fill="#007D32" points="313.147,211.802 300.437,211.802 300.437,82.588 240.137,82.588 240.137,69.878 373.447,69.878 
			373.447,82.588 313.147,82.588 		"/>
	</g>
	<g>
		<path fill="#007D32" d="M503.311,211.802h-12.71v-19.761c-1.036,1.227-2.138,2.427-3.3,3.589
			c-10.735,10.73-23.921,16.172-39.187,16.172c-15.165,0-28.293-5.442-39.024-16.172c-10.731-10.733-16.172-23.86-16.172-39.024
			c0-15.169,5.441-28.297,16.172-39.024c10.723-10.733,23.856-16.172,39.024-16.172c15.274,0,28.456,5.439,39.187,16.172
			c1.158,1.187,2.259,2.414,3.3,3.673V101.41h12.71V211.802z M448.115,114.12c-11.747,0-21.523,4.066-29.89,12.434
			c-8.366,8.365-12.434,18.196-12.434,30.052c0,11.746,4.067,21.522,12.434,29.89c8.367,8.365,18.143,12.434,29.89,12.434
			c11.857,0,21.662-4.02,29.979-12.279c8.318-8.271,12.405-18.006,12.507-29.757v-0.45c-0.102-11.832-4.218-21.646-12.588-29.963
			C469.646,118.162,459.866,114.12,448.115,114.12z"/>
	</g>
	<g>
		<polygon fill="#007D32" points="636.426,211.802 617.929,211.802 546.801,153.242 538.577,160.166 538.577,211.802 
			525.704,211.802 525.704,69.878 538.577,69.878 538.577,144.01 591.465,101.41 610.075,101.41 556.707,145.253 		"/>
	</g>
	<g>
		<rect x="651.667" y="101.41" fill="#007D32" width="12.873" height="110.393"/>
	</g>
	<g>
		<path fill="#007D32" d="M804.642,211.802h-12.546v-67.711c0-7.988-3.364-14.682-10.288-20.455
			c-7.147-5.965-15.555-8.866-25.697-8.866c-9.476,0-17.269,2.682-23.807,8.203c-6.408,5.404-9.756,11.862-10.235,19.745
			l0.008,69.084h-12.873V101.41h12.873v13.539c0.3-0.282,0.609-0.552,0.918-0.821c9.057-8.002,20.211-12.068,33.116-12.068
			c12.982,0,24.38,4.047,33.884,12.027c9.732,8.284,14.646,18.32,14.646,29.841V211.802z"/>
	</g>
	<g>
		<path fill="#007D32" d="M883.546,245.934c-11.783,0-22.554-3.435-32.013-10.204c-9.202-6.534-15.945-15.506-20.014-26.664
			l-2.037-5.586h13.724l1.007,2.723c3.072,8.333,8.035,14.752,15.176,19.618c7.064,4.803,15.191,7.241,24.157,7.241
			c11.85,0,21.683-4.068,30.042-12.434c8.072-8.07,12.142-17.454,12.418-28.652c-1.024,1.243-2.103,2.452-3.24,3.616
			c-10.776,10.768-23.957,16.21-39.22,16.21c-15.164,0-28.297-5.442-39.034-16.172c-10.728-10.733-16.173-23.86-16.173-39.024
			c0-15.169,5.445-28.297,16.173-39.024c10.737-10.733,23.859-16.172,39.034-16.172c15.268,0,28.449,5.439,39.177,16.172
			c1.164,1.187,2.259,2.414,3.299,3.673V101.41h12.71v91.279c-0.585,14.623-5.97,27.037-16.009,37.074
			C911.989,240.492,898.809,245.934,883.546,245.934z M883.546,114.12c-11.751,0-21.529,4.066-29.9,12.434
			c-8.359,8.365-12.434,18.196-12.434,30.052c0,11.746,4.074,21.522,12.434,29.89c8.371,8.365,18.149,12.434,29.9,12.434
			c11.85,0,21.683-4.069,30.042-12.434c8.37-8.368,12.434-18.144,12.434-29.89c0-11.751-4.085-21.552-12.515-29.971
			C905.088,118.216,895.287,114.12,883.546,114.12z"/>
	</g>
	<g>
		<path fill="#007D32" d="M1041.94,245.934h-12.873V101.41h12.873v19.767c1.04-1.235,2.14-2.433,3.299-3.595
			c10.738-10.733,23.86-16.172,39.024-16.172c15.273,0,28.46,5.439,39.187,16.172c10.625,10.622,16.01,23.754,16.01,39.024
			c0,15.265-5.385,28.397-16.01,39.024c-10.732,10.73-23.913,16.172-39.187,16.172c-15.153,0-28.286-5.442-39.024-16.172
			c-1.159-1.162-2.259-2.362-3.299-3.589V245.934z M1084.264,114.12c-11.74,0-21.52,4.066-29.89,12.434
			c-8.359,8.365-12.434,18.196-12.434,30.052c0,11.746,4.074,21.522,12.434,29.89c8.37,8.365,18.149,12.434,29.89,12.434
			c11.859,0,21.693-4.069,30.053-12.434c8.37-8.368,12.434-18.144,12.434-29.89c0-11.751-4.085-21.552-12.515-29.971
			C1105.815,118.216,1096.015,114.12,1084.264,114.12z"/>
	</g>
	<g>
		<path fill="#95C11F" d="M1274.899,211.802h-13.285l-31.856-74.115h-41.657l-31.856,74.115h-13.289l61.123-141.924h9.703
			L1274.899,211.802z M1193.465,125.465h30.93l-15.468-36.007L1193.465,125.465z"/>
	</g>
	<g>
		<path fill="#95C11F" d="M1392.227,211.802h-13.762l-34.132-79.966h-42.015v79.966h-12.872V69.878h61.372
			c11.729,0,20.918,2.869,27.306,8.52c6.414,5.534,9.687,13.157,9.687,22.622c0,11.41-3.89,19.799-11.572,24.949
			c-3.966,3.302-9.952,5.185-18.209,5.713L1392.227,211.802z M1302.318,119.289h48.337c7.737,0,13.892-1.379,18.302-4.096
			c3.982-2.688,5.981-7.352,5.981-14.173c0-5.881-1.907-10.264-5.835-13.414c-4.15-3.332-10.354-5.017-18.448-5.017h-48.337V119.289
			z"/>
	</g>
	<g>
		<polygon fill="#95C11F" points="1473.466,211.802 1460.756,211.802 1460.756,82.588 1400.456,82.588 1400.456,69.878 
			1533.766,69.878 1533.766,82.588 1473.466,82.588 		"/>
	</g>
	<circle fill="#95C11F" cx="128.532" cy="180.276" r="103.188"/>
	<circle fill="#007D32" cx="51.594" cy="96.014" r="51.594"/>
	<circle fill="#95C11F" cx="132.499" cy="25.799" r="25.795"/>
	<circle fill="#007D32" cx="257.516" cy="252.04" r="18.058"/>
</g>
</svg>
