<?xml version="1.0" encoding="utf-8"?>
<!-- Generator: Adobe Illustrator 22.0.1, SVG Export Plug-In . SVG Version: 6.00 Build 0)  -->
<svg version="1.1" id="Layer_1" xmlns="http://www.w3.org/2000/svg" xmlns:xlink="http://www.w3.org/1999/xlink" x="0px" y="0px"
	 width="891.4px" height="283.5px" viewBox="0 0 891.4 283.5" style="enable-background:new 0 0 891.4 283.5;" xml:space="preserve"
	>
<style type="text/css">
	.st0{fill:#F18626;}
	.st1{fill:#1D1D1B;}
</style>
<path class="st0" d="M213,74.7c0-37.4,0-44.3-0.5-52.1c-0.5-8.4-3-12.5-8.4-13.8c-2.7-0.8-5.9-1-8.8-1c-2.5,0-3.9-0.5-3.9-2.4
	c0-1.5,2-2,5.9-2c9.3,0,24.8,0.7,32,0.7c6.2,0,20.7-0.7,30-0.7c3.2,0,5.2,0.5,5.2,2c0,2-1.5,2.4-3.9,2.4c-2.4,0-4.4,0.2-7.4,0.7
	c-6.7,1.2-8.6,5.4-9.1,14c-0.5,7.9-0.5,14.8-0.5,52.1V118c0,23.9,0,43.3,1,53.9c0.7,6.7,2.5,11.1,9.9,12.1c3.4,0.5,8.8,1,12.5,1
	c2.7,0,3.9,0.7,3.9,2c0,1.7-2,2.5-4.7,2.5c-16.2,0-31.7-0.7-38.4-0.7c-5.7,0-21.1,0.7-31,0.7c-3.2,0-4.9-0.7-4.9-2.5
	c0-1.2,1-2,3.9-2c3.7,0,6.7-0.5,8.9-1c4.9-1,6.4-5.2,7.1-12.3c1.2-10.3,1.2-29.8,1.2-53.6V74.7z"/>
<path class="st0" d="M464.2,172.8c0,6.6-0.3,7.1-3.2,8.9c-16,8.3-40.1,11.1-59.3,11.1c-60.2,0-113.6-28.5-113.6-96.4
	c0-39.4,20.4-66.9,42.8-80.4C354.5,1.7,376.4,0,397,0c17,0,38.6,2.9,43.5,3.9c5.2,1,13.8,2.4,19.4,2.7c3,0.2,3.4,1.2,3.4,2.9
	c0,2.7-1.7,9.6-1.7,40.3c0,3.9-0.7,5.2-2.7,5.2c-1.7,0-2.2-1.2-2.5-3.2c-0.7-5.6-2-13.5-8.4-20.4c-7.4-7.9-27-19.2-54.8-19.2
	c-13.5,0-31.5,1-48.7,15.2c-13.8,11.6-22.6,30-22.6,60.2c0,52.9,33.7,92.5,85.6,92.5c6.4,0,15,0,20.9-2.7c3.7-1.7,4.7-4.9,4.7-9.1
	v-23.1c0-12.3,0-21.7-0.2-29c-0.2-8.4-2.5-12.3-10.6-14c-2-0.5-6.2-0.7-9.6-0.7c-2.2,0-3.7-0.5-3.7-2c0-2,1.7-2.5,5.2-2.5
	c12.8,0,28.3,0.7,35.7,0.7c7.6,0,20.6-0.7,28.8-0.7c3.2,0,4.9,0.5,4.9,2.5c0,1.5-1.5,2-3.2,2c-2,0-3.7,0.2-6.6,0.7
	c-6.7,1.2-9.1,5.4-9.3,14c-0.2,7.4-0.2,17.2-0.2,29.5V172.8z"/>
<path class="st0" d="M69.6,17.2l-36.6,1c-14.3,0.5-20.2,1.7-23.9,7.1C6.7,29,5.4,32,4.9,33.9c-0.5,2-1.2,3-2.7,3
	c-1.7,0-2.2-1.2-2.2-3.9C0,29,4.7,6.6,5.2,4.6C5.9,1.5,6.7,0,8.1,0c2,0,4.4,2.4,10.6,2.9c7.1,0.8,16.5,1.2,24.6,1.2h97.4
	c7.9,0,13.3-0.7,17-1.2c3.7-0.7,5.6-1.2,6.6-1.2c1.7,0,2,1.5,2,5.1c0,5.2-0.7,22.1-0.7,28.5c-0.2,2.4-0.7,3.9-2.2,3.9
	c-2,0-2.4-1.2-2.7-4.9l-0.2-2.7c-0.5-6.4-7.1-13.3-29-13.8l-31-0.7V118c0,22.6,0,42,1.2,52.6c0.7,6.9,2.2,12.3,9.6,13.3
	c3.4,0.5,8.8,1,12.6,1c2.7,0,3.9,0.7,3.9,2c0,1.7-2,2.5-4.7,2.5c-16.2,0-31.7-0.7-38.6-0.7c-5.7,0-21.1,0.7-31,0.7
	c-3.2,0-4.9-0.7-4.9-2.5c0-1.2,1-2,3.9-2c3.7,0,6.6-0.5,8.8-1c4.9-1,6.4-6.4,7.1-13.5c1.2-10.3,1.2-29.8,1.2-52.4V17.2z"/>
<path class="st0" d="M722.2,74.7c0-37.4,0-44.3-0.5-52.1c-0.5-8.4-2.4-12.3-10.6-14c-2-0.5-6.1-0.7-9.6-0.7c-2.7,0-4.2-0.5-4.2-2.2
	c0-1.7,1.7-2.2,5.4-2.2c13,0,28.5,0.7,33.7,0.7c8.3,0,27-0.7,34.7-0.7c15.5,0,32,1.5,45.3,10.6c6.9,4.6,16.7,17.2,16.7,33.7
	c0,18.2-7.6,34.9-32.4,55.1c21.9,27.5,38.9,49.4,53.4,64.7c13.8,14.3,23.8,16,27.5,16.7c2.7,0.5,4.9,0.7,6.9,0.7c2,0,2.9,0.7,2.9,2
	c0,2-1.7,2.5-4.6,2.5h-23.4c-13.8,0-19.9-1.2-26.3-4.7c-10.6-5.6-19.9-17.2-33.7-36.1c-9.8-13.5-21.1-30.3-24.3-33.9
	c-1.2-1.5-2.7-1.7-4.4-1.7l-21.4-0.5c-1.2,0-2,0.5-2,2v3.4c0,22.9,0,42.3,1.2,52.6c0.7,7.1,2.2,12.5,9.6,13.5c3.7,0.5,9.1,1,12.1,1
	c2,0,3,0.7,3,2c0,1.7-1.7,2.5-4.9,2.5c-14.3,0-32.5-0.7-36.1-0.7c-4.7,0-20.2,0.7-30,0.7c-3.2,0-4.9-0.7-4.9-2.5c0-1.2,1-2,4-2
	c3.7,0,6.6-0.5,8.9-1c4.9-1,6.1-6.4,7.1-13.5c1.2-10.3,1.2-29.8,1.2-52.4V74.7z M751.2,94.2c0,2.7,0.5,3.7,2.2,4.4
	c5.1,1.7,12.5,2.5,18.7,2.5c9.8,0,13-1,17.5-4.2c7.4-5.4,14.5-16.7,14.5-36.9c0-34.9-23.1-45-37.6-45c-6.2,0-10.6,0.2-13,1
	c-1.7,0.5-2.2,1.5-2.2,3.4V94.2z"/>
<path class="st1" d="M840.1,102.9c-56.8-30.3-112.5-18.5-172.9-11.2c-14.1,1.7-28.5,2.6-42.8,2.6C608.8,56,592.7,16.1,589.1,7.8
	c-2.5-5.6-3.9-7.8-6.2-7.8c-2.5,0-3.9,2.7-6.9,9.8L546,84.1c-11.3-3.2-22.4-7.2-33.1-12.2c10.7,5,20.6,11.6,30.7,18l-29.3,72.3
	c-4.9,12.3-9.6,20.6-20.9,22.1c-2,0.2-5.4,0.5-7.6,0.5c-2,0-3,0.5-3,2c0,2,1.5,2.5,4.7,2.5c12.8,0,26.3-0.7,29-0.7
	c7.6,0,18.2,0.7,26.1,0.7c2.7,0,4.2-0.5,4.2-2.5c0-1.5-0.7-2-3.7-2h-3.7c-7.6,0-9.8-3.2-9.8-7.6c0-3,1.2-8.9,3.7-15l13.3-33.7
	l6.1-16l5.3-14.1c2.7,1.5,5.4,2.9,8.2,4.2c11,5.1,22.9,9.4,35.1,12.9l4.9,12.7l19.7,50.7c1.2,3-0.5,5.2-2.2,5.6
	c-2.5,0.3-3.4,0.8-3.4,2.2c0,1.7,2.9,1.7,7.4,2c19.7,0.5,37.6,0.5,46.5,0.5c9.1,0,11.3-0.5,11.3-2.5c0-1.7-1.2-2-3.2-2
	c-2.9,0-6.6-0.3-10.3-1c-5.2-1.2-12.3-4.7-21.6-26.8c-3.6-8.6-8.5-20.5-14-33.9c22.4,3.4,45.1,4,66.3,1.4c64.6-7.8,127.9-24.6,189,8
	C878.6,125.9,856.4,111.7,840.1,102.9z M561.9,88.1l13.4-35.7c0.2-1,0.7-2.2,1.5-2.2s1,1.2,1.2,2.2l14.8,40.5
	C582.4,91.9,572.1,90.3,561.9,88.1z"/>
<g>
	<path class="st1" d="M56.4,239.8v-19.5h-7.3v-2.6h17.5v2.6h-7.3v19.5H56.4z"/>
	<path class="st1" d="M68.1,239.8v-16h2.4v2.4c0.6-1.1,1.2-1.9,1.7-2.3c0.5-0.4,1.1-0.5,1.7-0.5c0.9,0,1.8,0.3,2.8,0.9l-0.9,2.5
		c-0.7-0.4-1.3-0.6-2-0.6c-0.6,0-1.1,0.2-1.6,0.5c-0.5,0.4-0.8,0.9-1,1.5c-0.3,1-0.5,2-0.5,3.2v8.4H68.1z"/>
	<path class="st1" d="M88.9,237.9c-1,0.9-2,1.5-2.9,1.8c-0.9,0.4-1.9,0.5-3,0.5c-1.8,0-3.1-0.4-4.1-1.3c-0.9-0.9-1.4-2-1.4-3.3
		c0-0.8,0.2-1.5,0.5-2.1c0.4-0.7,0.8-1.2,1.4-1.6c0.6-0.4,1.2-0.7,2-0.9c0.5-0.1,1.3-0.3,2.4-0.4c2.2-0.3,3.8-0.6,4.8-0.9
		c0-0.4,0-0.6,0-0.7c0-1.1-0.3-1.9-0.8-2.3c-0.7-0.6-1.7-0.9-3.1-0.9c-1.3,0-2.2,0.2-2.8,0.7c-0.6,0.4-1.1,1.2-1.4,2.4l-2.7-0.4
		c0.2-1.1,0.6-2.1,1.2-2.8c0.6-0.7,1.4-1.2,2.4-1.6c1-0.4,2.3-0.6,3.6-0.6c1.4,0,2.5,0.2,3.3,0.5c0.9,0.3,1.5,0.7,1.9,1.2
		c0.4,0.5,0.7,1.1,0.8,1.8c0.1,0.5,0.1,1.3,0.1,2.5v3.6c0,2.5,0.1,4.1,0.2,4.8c0.1,0.7,0.3,1.3,0.7,1.9h-2.8
		C89.2,239.3,89,238.6,88.9,237.9z M88.7,231.8c-1,0.4-2.5,0.7-4.4,1c-1.1,0.2-1.9,0.3-2.4,0.5c-0.5,0.2-0.8,0.5-1.1,0.9
		c-0.3,0.4-0.4,0.8-0.4,1.3c0,0.7,0.3,1.3,0.8,1.8c0.5,0.5,1.4,0.7,2.4,0.7c1,0,2-0.2,2.8-0.7c0.8-0.5,1.4-1.1,1.8-1.9
		c0.3-0.6,0.4-1.5,0.4-2.7V231.8z"/>
	<path class="st1" d="M106.1,234l2.7,0.3c-0.3,1.8-1,3.3-2.2,4.3c-1.2,1-2.7,1.6-4.4,1.6c-2.2,0-4-0.7-5.3-2.2c-1.3-1.4-2-3.5-2-6.2
		c0-1.7,0.3-3.2,0.9-4.5c0.6-1.3,1.4-2.3,2.6-2.9c1.2-0.7,2.4-1,3.8-1c1.7,0,3.2,0.4,4.3,1.3c1.1,0.9,1.8,2.1,2.1,3.8l-2.6,0.4
		c-0.3-1.1-0.7-1.9-1.3-2.4c-0.6-0.5-1.4-0.8-2.3-0.8c-1.4,0-2.5,0.5-3.3,1.5c-0.9,1-1.3,2.5-1.3,4.7c0,2.2,0.4,3.7,1.2,4.7
		c0.8,1,1.9,1.5,3.2,1.5c1.1,0,2-0.3,2.7-1C105.5,236.3,106,235.3,106.1,234z"/>
	<path class="st1" d="M111.2,239.8v-22.1h2.7v12.6l6.4-6.5h3.5l-6.1,6l6.7,10.1h-3.4l-5.3-8.2l-1.9,1.8v6.4H111.2z"/>
	<path class="st1" d="M126.6,220.8v-3.1h2.7v3.1H126.6z M126.6,239.8v-16h2.7v16H126.6z"/>
	<path class="st1" d="M133.5,239.8v-16h2.4v2.3c1.2-1.8,2.9-2.6,5.1-2.6c1,0,1.9,0.2,2.7,0.5c0.8,0.4,1.4,0.8,1.8,1.4
		c0.4,0.6,0.7,1.2,0.8,2c0.1,0.5,0.2,1.4,0.2,2.6v9.9h-2.7v-9.8c0-1.1-0.1-1.9-0.3-2.5c-0.2-0.5-0.6-1-1.1-1.3
		c-0.5-0.3-1.2-0.5-1.9-0.5c-1.2,0-2.2,0.4-3,1.1c-0.8,0.7-1.3,2.1-1.3,4.2v8.8H133.5z"/>
	<path class="st1" d="M150.2,241.2l2.6,0.4c0.1,0.8,0.4,1.4,0.9,1.8c0.7,0.5,1.6,0.8,2.8,0.8c1.3,0,2.2-0.3,2.9-0.8
		c0.7-0.5,1.1-1.2,1.4-2.1c0.1-0.6,0.2-1.7,0.2-3.5c-1.2,1.4-2.7,2.1-4.4,2.1c-2.2,0-3.9-0.8-5.1-2.4c-1.2-1.6-1.8-3.5-1.8-5.7
		c0-1.5,0.3-2.9,0.8-4.2c0.6-1.3,1.4-2.3,2.4-3c1.1-0.7,2.3-1.1,3.7-1.1c1.9,0,3.5,0.8,4.7,2.3v-1.9h2.5v13.9c0,2.5-0.3,4.3-0.8,5.3
		c-0.5,1-1.3,1.9-2.4,2.5c-1.1,0.6-2.5,0.9-4.1,0.9c-1.9,0-3.5-0.4-4.6-1.3C150.7,244.2,150.1,242.9,150.2,241.2z M152.4,231.5
		c0,2.1,0.4,3.6,1.3,4.6c0.8,1,1.9,1.4,3.1,1.4c1.2,0,2.3-0.5,3.1-1.4c0.8-1,1.3-2.5,1.3-4.5c0-2-0.4-3.4-1.3-4.4
		c-0.9-1-1.9-1.5-3.1-1.5c-1.2,0-2.2,0.5-3.1,1.5C152.8,228.1,152.4,229.6,152.4,231.5z"/>
	<path class="st1" d="M182.4,237.4l0.4,2.4c-0.8,0.2-1.5,0.2-2.1,0.2c-1,0-1.8-0.2-2.3-0.5c-0.5-0.3-0.9-0.7-1.1-1.2
		c-0.2-0.5-0.3-1.6-0.3-3.2v-9.2h-2v-2.1h2v-4l2.7-1.6v5.6h2.7v2.1h-2.7v9.4c0,0.8,0,1.3,0.1,1.5c0.1,0.2,0.3,0.4,0.5,0.5
		c0.2,0.1,0.5,0.2,0.9,0.2C181.5,237.5,181.9,237.5,182.4,237.4z"/>
	<path class="st1" d="M185.1,239.8v-22.1h2.7v7.9c1.3-1.5,2.9-2.2,4.8-2.2c1.2,0,2.2,0.2,3.1,0.7c0.9,0.5,1.5,1.1,1.9,1.9
		c0.4,0.8,0.6,2,0.6,3.6v10.2h-2.7v-10.2c0-1.4-0.3-2.3-0.9-3c-0.6-0.6-1.4-0.9-2.5-0.9c-0.8,0-1.6,0.2-2.3,0.6
		c-0.7,0.4-1.2,1-1.5,1.7c-0.3,0.7-0.5,1.7-0.5,3v8.8H185.1z"/>
	<path class="st1" d="M213.2,234.7l2.8,0.3c-0.4,1.6-1.3,2.9-2.5,3.8c-1.2,0.9-2.7,1.4-4.6,1.4c-2.3,0-4.2-0.7-5.6-2.2
		c-1.4-1.4-2.1-3.5-2.1-6.1c0-2.7,0.7-4.8,2.1-6.3c1.4-1.5,3.2-2.2,5.4-2.2c2.1,0,3.9,0.7,5.3,2.2c1.4,1.5,2,3.5,2,6.2
		c0,0.2,0,0.4,0,0.7h-12c0.1,1.8,0.6,3.1,1.5,4c0.9,0.9,2,1.4,3.4,1.4c1,0,1.8-0.3,2.6-0.8C212.3,236.7,212.8,235.8,213.2,234.7z
		 M204.3,230.3h9c-0.1-1.4-0.5-2.4-1-3c-0.9-1-2-1.6-3.4-1.6c-1.2,0-2.3,0.4-3.1,1.3C204.9,227.8,204.4,228.9,204.3,230.3z"/>
	<path class="st1" d="M228.9,239.8v-22.1h2.9v22.1H228.9z"/>
	<path class="st1" d="M236.6,239.8v-16h2.4v2.2c0.5-0.8,1.2-1.4,2-1.9c0.8-0.5,1.8-0.7,2.9-0.7c1.2,0,2.2,0.2,2.9,0.7
		c0.8,0.5,1.3,1.2,1.6,2.1c1.3-1.9,2.9-2.8,5-2.8c1.6,0,2.8,0.4,3.7,1.3c0.9,0.9,1.3,2.2,1.3,4.1v11h-2.7v-10.1
		c0-1.1-0.1-1.9-0.3-2.3c-0.2-0.5-0.5-0.9-1-1.2c-0.5-0.3-1-0.4-1.6-0.4c-1.1,0-2.1,0.4-2.8,1.1c-0.7,0.8-1.1,1.9-1.1,3.6v9.3h-2.7
		v-10.4c0-1.2-0.2-2.1-0.7-2.7c-0.4-0.6-1.2-0.9-2.2-0.9c-0.8,0-1.5,0.2-2.1,0.6c-0.6,0.4-1.1,1-1.4,1.8c-0.3,0.8-0.4,1.9-0.4,3.4
		v8.3H236.6z"/>
	<path class="st1" d="M262.4,246v-22.2h2.5v2.1c0.6-0.8,1.2-1.4,2-1.8c0.7-0.4,1.6-0.6,2.7-0.6c1.4,0,2.6,0.4,3.6,1.1
		c1,0.7,1.8,1.7,2.4,3c0.5,1.3,0.8,2.7,0.8,4.2c0,1.6-0.3,3.1-0.9,4.4c-0.6,1.3-1.4,2.3-2.6,3c-1.1,0.7-2.3,1.1-3.5,1.1
		c-0.9,0-1.7-0.2-2.4-0.6c-0.7-0.4-1.3-0.9-1.8-1.4v7.8H262.4z M264.9,231.9c0,2.1,0.4,3.6,1.3,4.6c0.8,1,1.8,1.5,3,1.5
		c1.2,0,2.2-0.5,3.1-1.5c0.9-1,1.3-2.6,1.3-4.7c0-2-0.4-3.6-1.3-4.6c-0.8-1-1.8-1.5-3-1.5c-1.2,0-2.2,0.5-3.1,1.6
		C265.3,228.3,264.9,229.9,264.9,231.9z"/>
	<path class="st1" d="M290.1,237.9c-1,0.9-2,1.5-2.9,1.8c-0.9,0.4-1.9,0.5-3,0.5c-1.8,0-3.1-0.4-4.1-1.3c-0.9-0.9-1.4-2-1.4-3.3
		c0-0.8,0.2-1.5,0.5-2.1c0.4-0.7,0.8-1.2,1.4-1.6c0.6-0.4,1.2-0.7,2-0.9c0.5-0.1,1.3-0.3,2.4-0.4c2.2-0.3,3.8-0.6,4.8-0.9
		c0-0.4,0-0.6,0-0.7c0-1.1-0.3-1.9-0.8-2.3c-0.7-0.6-1.7-0.9-3.1-0.9c-1.3,0-2.2,0.2-2.8,0.7c-0.6,0.4-1.1,1.2-1.4,2.4l-2.7-0.4
		c0.2-1.1,0.6-2.1,1.2-2.8s1.4-1.2,2.4-1.6c1-0.4,2.3-0.6,3.6-0.6c1.4,0,2.5,0.2,3.3,0.5c0.9,0.3,1.5,0.7,1.9,1.2
		c0.4,0.5,0.7,1.1,0.8,1.8c0.1,0.5,0.1,1.3,0.1,2.5v3.6c0,2.5,0.1,4.1,0.2,4.8c0.1,0.7,0.3,1.3,0.7,1.9h-2.8
		C290.3,239.3,290.1,238.6,290.1,237.9z M289.8,231.8c-1,0.4-2.5,0.7-4.4,1c-1.1,0.2-1.9,0.3-2.4,0.5c-0.5,0.2-0.8,0.5-1.1,0.9
		c-0.3,0.4-0.4,0.8-0.4,1.3c0,0.7,0.3,1.3,0.8,1.8c0.5,0.5,1.4,0.7,2.4,0.7c1,0,2-0.2,2.8-0.7c0.8-0.5,1.4-1.1,1.8-1.9
		c0.3-0.6,0.4-1.5,0.4-2.7V231.8z"/>
	<path class="st1" d="M307.3,234l2.7,0.3c-0.3,1.8-1,3.3-2.2,4.3c-1.2,1-2.7,1.6-4.4,1.6c-2.2,0-4-0.7-5.3-2.2c-1.3-1.4-2-3.5-2-6.2
		c0-1.7,0.3-3.2,0.9-4.5c0.6-1.3,1.4-2.3,2.6-2.9c1.2-0.7,2.4-1,3.8-1c1.7,0,3.2,0.4,4.3,1.3c1.1,0.9,1.8,2.1,2.1,3.8l-2.6,0.4
		c-0.3-1.1-0.7-1.9-1.3-2.4c-0.6-0.5-1.4-0.8-2.3-0.8c-1.4,0-2.5,0.5-3.3,1.5c-0.9,1-1.3,2.5-1.3,4.7c0,2.2,0.4,3.7,1.2,4.7
		c0.8,1,1.9,1.5,3.2,1.5c1.1,0,2-0.3,2.7-1C306.6,236.3,307.1,235.3,307.3,234z"/>
	<path class="st1" d="M318.2,237.4l0.4,2.4c-0.8,0.2-1.4,0.2-2.1,0.2c-1,0-1.8-0.2-2.3-0.5c-0.5-0.3-0.9-0.7-1.1-1.2
		c-0.2-0.5-0.3-1.6-0.3-3.2v-9.2h-2v-2.1h2v-4l2.7-1.6v5.6h2.7v2.1h-2.7v9.4c0,0.8,0,1.3,0.1,1.5c0.1,0.2,0.3,0.4,0.5,0.5
		c0.2,0.1,0.5,0.2,0.9,0.2C317.3,237.5,317.7,237.5,318.2,237.4z"/>
	<path class="st1" d="M328.4,231.8c0-3,0.8-5.2,2.5-6.6c1.4-1.2,3.1-1.8,5-1.8c2.2,0,4,0.7,5.4,2.2c1.4,1.4,2.1,3.4,2.1,6
		c0,2.1-0.3,3.7-0.9,4.9c-0.6,1.2-1.5,2.1-2.7,2.8c-1.2,0.7-2.5,1-3.9,1c-2.2,0-4.1-0.7-5.4-2.2
		C329.1,236.6,328.4,234.5,328.4,231.8z M331.2,231.8c0,2.1,0.4,3.6,1.3,4.6c0.9,1,2,1.5,3.4,1.5c1.3,0,2.5-0.5,3.4-1.5
		c0.9-1,1.3-2.6,1.3-4.7c0-2-0.5-3.5-1.4-4.5c-0.9-1-2-1.5-3.4-1.5c-1.4,0-2.5,0.5-3.4,1.5C331.7,228.2,331.2,229.8,331.2,231.8z"/>
	<path class="st1" d="M347.3,239.8v-13.9h-2.4v-2.1h2.4v-1.7c0-1.1,0.1-1.9,0.3-2.4c0.3-0.7,0.7-1.3,1.4-1.7
		c0.7-0.4,1.6-0.7,2.8-0.7c0.8,0,1.6,0.1,2.5,0.3l-0.4,2.4c-0.6-0.1-1.1-0.2-1.6-0.2c-0.8,0-1.4,0.2-1.8,0.5c-0.3,0.4-0.5,1-0.5,2
		v1.5h3.1v2.1H350v13.9H347.3z"/>
	<path class="st1" d="M374.5,231.2v-2.6l9.4,0v8.2c-1.4,1.1-2.9,2-4.5,2.6c-1.5,0.6-3.1,0.9-4.7,0.9c-2.2,0-4.1-0.5-5.9-1.4
		c-1.8-0.9-3.1-2.3-4-4c-0.9-1.8-1.4-3.7-1.4-5.9c0-2.2,0.5-4.2,1.4-6c0.9-1.9,2.2-3.3,3.9-4.2c1.7-0.9,3.6-1.4,5.8-1.4
		c1.6,0,3,0.3,4.3,0.8c1.3,0.5,2.3,1.2,3,2.2c0.7,0.9,1.3,2.1,1.7,3.6l-2.6,0.7c-0.3-1.1-0.7-2-1.2-2.7c-0.5-0.6-1.2-1.2-2.1-1.5
		c-0.9-0.4-1.9-0.6-3-0.6c-1.3,0-2.5,0.2-3.5,0.6c-1,0.4-1.8,0.9-2.4,1.6c-0.6,0.7-1.1,1.4-1.4,2.2c-0.6,1.4-0.8,2.9-0.8,4.5
		c0,2,0.3,3.6,1,5c0.7,1.3,1.7,2.3,3,3c1.3,0.6,2.7,1,4.1,1c1.3,0,2.5-0.2,3.7-0.7c1.2-0.5,2.1-1,2.7-1.6v-4.1H374.5z"/>
	<path class="st1" d="M398.9,234.7l2.8,0.3c-0.4,1.6-1.3,2.9-2.5,3.8c-1.2,0.9-2.7,1.4-4.6,1.4c-2.3,0-4.2-0.7-5.6-2.2
		c-1.4-1.4-2.1-3.5-2.1-6.1c0-2.7,0.7-4.8,2.1-6.3c1.4-1.5,3.2-2.2,5.4-2.2c2.1,0,3.9,0.7,5.3,2.2c1.4,1.5,2,3.5,2,6.2
		c0,0.2,0,0.4,0,0.7h-12c0.1,1.8,0.6,3.1,1.5,4c0.9,0.9,2,1.4,3.4,1.4c1,0,1.8-0.3,2.6-0.8C397.9,236.7,398.5,235.8,398.9,234.7z
		 M389.9,230.3h9c-0.1-1.4-0.5-2.4-1-3c-0.9-1-2-1.6-3.4-1.6c-1.2,0-2.3,0.4-3.1,1.3C390.5,227.8,390,228.9,389.9,230.3z"/>
	<path class="st1" d="M404,235.1l2.7-0.4c0.2,1.1,0.6,1.9,1.3,2.5c0.7,0.6,1.7,0.9,2.9,0.9c1.2,0,2.2-0.3,2.8-0.8
		c0.6-0.5,0.9-1.1,0.9-1.8c0-0.6-0.3-1.1-0.8-1.4c-0.4-0.2-1.3-0.5-2.8-0.9c-2-0.5-3.4-0.9-4.1-1.3c-0.8-0.4-1.4-0.9-1.8-1.5
		c-0.4-0.7-0.6-1.4-0.6-2.2c0-0.7,0.2-1.4,0.5-2c0.3-0.6,0.8-1.1,1.3-1.5c0.4-0.3,1-0.6,1.7-0.8c0.7-0.2,1.5-0.3,2.3-0.3
		c1.3,0,2.4,0.2,3.3,0.5c1,0.4,1.7,0.9,2.1,1.5c0.5,0.6,0.8,1.4,0.9,2.5l-2.7,0.4c-0.1-0.8-0.5-1.5-1-1.9c-0.6-0.5-1.4-0.7-2.5-0.7
		c-1.2,0-2.1,0.2-2.7,0.6c-0.5,0.4-0.8,0.9-0.8,1.4c0,0.4,0.1,0.7,0.3,1c0.2,0.3,0.6,0.5,1,0.7c0.3,0.1,1.1,0.3,2.4,0.7
		c1.9,0.5,3.3,0.9,4,1.3c0.8,0.3,1.4,0.8,1.8,1.4c0.4,0.6,0.6,1.4,0.6,2.3c0,0.9-0.3,1.8-0.8,2.6c-0.5,0.8-1.3,1.4-2.3,1.9
		c-1,0.4-2.1,0.7-3.4,0.7c-2.1,0-3.7-0.4-4.8-1.3C405,238,404.3,236.8,404,235.1z"/>
	<path class="st1" d="M426.5,237.4l0.4,2.4c-0.8,0.2-1.4,0.2-2.1,0.2c-1,0-1.8-0.2-2.3-0.5c-0.5-0.3-0.9-0.7-1.1-1.2
		c-0.2-0.5-0.3-1.6-0.3-3.2v-9.2h-2v-2.1h2v-4l2.7-1.6v5.6h2.7v2.1h-2.7v9.4c0,0.8,0,1.3,0.1,1.5c0.1,0.2,0.3,0.4,0.5,0.5
		c0.2,0.1,0.5,0.2,0.9,0.2C425.6,237.5,426,237.5,426.5,237.4z"/>
	<path class="st1" d="M439.6,237.9c-1,0.9-2,1.5-2.9,1.8c-0.9,0.4-1.9,0.5-3,0.5c-1.8,0-3.1-0.4-4.1-1.3c-0.9-0.9-1.4-2-1.4-3.3
		c0-0.8,0.2-1.5,0.5-2.1c0.4-0.7,0.8-1.2,1.4-1.6c0.6-0.4,1.2-0.7,2-0.9c0.5-0.1,1.3-0.3,2.4-0.4c2.2-0.3,3.8-0.6,4.8-0.9
		c0-0.4,0-0.6,0-0.7c0-1.1-0.3-1.9-0.8-2.3c-0.7-0.6-1.7-0.9-3.1-0.9c-1.3,0-2.2,0.2-2.8,0.7c-0.6,0.4-1.1,1.2-1.4,2.4l-2.7-0.4
		c0.2-1.1,0.6-2.1,1.2-2.8c0.6-0.7,1.4-1.2,2.4-1.6c1-0.4,2.3-0.6,3.6-0.6c1.4,0,2.5,0.2,3.3,0.5c0.9,0.3,1.5,0.7,1.9,1.2
		c0.4,0.5,0.7,1.1,0.8,1.8c0.1,0.5,0.1,1.3,0.1,2.5v3.6c0,2.5,0.1,4.1,0.2,4.8c0.1,0.7,0.3,1.3,0.7,1.9h-2.8
		C439.9,239.3,439.7,238.6,439.6,237.9z M439.4,231.8c-1,0.4-2.5,0.7-4.4,1c-1.1,0.2-1.9,0.3-2.4,0.5c-0.5,0.2-0.8,0.5-1.1,0.9
		c-0.3,0.4-0.4,0.8-0.4,1.3c0,0.7,0.3,1.3,0.8,1.8c0.5,0.5,1.4,0.7,2.4,0.7c1,0,2-0.2,2.8-0.7c0.8-0.5,1.4-1.1,1.8-1.9
		c0.3-0.6,0.4-1.5,0.4-2.7V231.8z"/>
	<path class="st1" d="M452.3,237.4l0.4,2.4c-0.8,0.2-1.4,0.2-2.1,0.2c-1,0-1.8-0.2-2.3-0.5c-0.5-0.3-0.9-0.7-1.1-1.2
		c-0.2-0.5-0.3-1.6-0.3-3.2v-9.2h-2v-2.1h2v-4l2.7-1.6v5.6h2.7v2.1h-2.7v9.4c0,0.8,0,1.3,0.1,1.5c0.1,0.2,0.3,0.4,0.5,0.5
		c0.2,0.1,0.5,0.2,0.9,0.2C451.4,237.5,451.8,237.5,452.3,237.4z"/>
	<path class="st1" d="M454.9,220.8v-3.1h2.7v3.1H454.9z M454.9,239.8v-16h2.7v16H454.9z"/>
	<path class="st1" d="M460.8,231.8c0-3,0.8-5.2,2.5-6.6c1.4-1.2,3.1-1.8,5-1.8c2.2,0,4,0.7,5.4,2.2c1.4,1.4,2.1,3.4,2.1,6
		c0,2.1-0.3,3.7-0.9,4.9c-0.6,1.2-1.5,2.1-2.7,2.8c-1.2,0.7-2.5,1-3.9,1c-2.2,0-4.1-0.7-5.4-2.2
		C461.5,236.6,460.8,234.5,460.8,231.8z M463.6,231.8c0,2.1,0.4,3.6,1.3,4.6c0.9,1,2,1.5,3.4,1.5c1.4,0,2.5-0.5,3.4-1.5
		c0.9-1,1.3-2.6,1.3-4.7c0-2-0.4-3.5-1.4-4.5c-0.9-1-2-1.5-3.4-1.5c-1.4,0-2.5,0.5-3.4,1.5C464,228.2,463.6,229.8,463.6,231.8z"/>
	<path class="st1" d="M479,239.8v-16h2.4v2.3c1.2-1.8,2.9-2.6,5.1-2.6c1,0,1.9,0.2,2.7,0.5c0.8,0.4,1.4,0.8,1.8,1.4
		c0.4,0.6,0.7,1.2,0.8,2c0.1,0.5,0.2,1.4,0.2,2.6v9.9h-2.7v-9.8c0-1.1-0.1-1.9-0.3-2.5s-0.6-1-1.1-1.3c-0.5-0.3-1.2-0.5-1.9-0.5
		c-1.2,0-2.2,0.4-3,1.1c-0.8,0.7-1.3,2.1-1.3,4.2v8.8H479z"/>
	<path class="st1" d="M506.7,237.9c-1,0.9-2,1.5-2.9,1.8c-0.9,0.4-1.9,0.5-3,0.5c-1.8,0-3.1-0.4-4.1-1.3c-0.9-0.9-1.4-2-1.4-3.3
		c0-0.8,0.2-1.5,0.5-2.1c0.4-0.7,0.8-1.2,1.4-1.6c0.6-0.4,1.2-0.7,2-0.9c0.5-0.1,1.3-0.3,2.4-0.4c2.2-0.3,3.8-0.6,4.8-0.9
		c0-0.4,0-0.6,0-0.7c0-1.1-0.3-1.9-0.8-2.3c-0.7-0.6-1.7-0.9-3.1-0.9c-1.3,0-2.2,0.2-2.8,0.7c-0.6,0.4-1.1,1.2-1.4,2.4l-2.7-0.4
		c0.2-1.1,0.6-2.1,1.2-2.8c0.6-0.7,1.4-1.2,2.4-1.6c1-0.4,2.3-0.6,3.6-0.6c1.4,0,2.5,0.2,3.3,0.5c0.9,0.3,1.5,0.7,1.9,1.2
		c0.4,0.5,0.7,1.1,0.8,1.8c0.1,0.5,0.1,1.3,0.1,2.5v3.6c0,2.5,0.1,4.1,0.2,4.8c0.1,0.7,0.3,1.3,0.7,1.9h-2.8
		C506.9,239.3,506.7,238.6,506.7,237.9z M506.4,231.8c-1,0.4-2.5,0.7-4.4,1c-1.1,0.2-1.9,0.3-2.4,0.5c-0.5,0.2-0.8,0.5-1.1,0.9
		c-0.3,0.4-0.4,0.8-0.4,1.3c0,0.7,0.3,1.3,0.8,1.8c0.5,0.5,1.4,0.7,2.4,0.7c1,0,2-0.2,2.8-0.7c0.8-0.5,1.4-1.1,1.8-1.9
		c0.3-0.6,0.4-1.5,0.4-2.7V231.8z"/>
	<path class="st1" d="M513.3,239.8v-22.1h2.7v22.1H513.3z"/>
	<path class="st1" d="M525.1,239.8l8.5-22.1h3.2l9.1,22.1h-3.3l-2.6-6.7h-9.3l-2.4,6.7H525.1z M531.5,230.8h7.5l-2.3-6.1
		c-0.7-1.9-1.2-3.4-1.6-4.6c-0.3,1.4-0.7,2.8-1.2,4.2L531.5,230.8z"/>
	<path class="st1" d="M547.3,241.2l2.6,0.4c0.1,0.8,0.4,1.4,0.9,1.8c0.7,0.5,1.6,0.8,2.8,0.8c1.3,0,2.2-0.3,2.9-0.8
		c0.7-0.5,1.1-1.2,1.4-2.1c0.1-0.6,0.2-1.7,0.2-3.5c-1.2,1.4-2.7,2.1-4.4,2.1c-2.2,0-3.9-0.8-5.1-2.4c-1.2-1.6-1.8-3.5-1.8-5.7
		c0-1.5,0.3-2.9,0.8-4.2c0.6-1.3,1.4-2.3,2.4-3c1.1-0.7,2.3-1.1,3.7-1.1c1.9,0,3.5,0.8,4.7,2.3v-1.9h2.5v13.9c0,2.5-0.3,4.3-0.8,5.3
		c-0.5,1-1.3,1.9-2.4,2.5c-1.1,0.6-2.5,0.9-4.1,0.9c-1.9,0-3.5-0.4-4.6-1.3C547.8,244.2,547.2,242.9,547.3,241.2z M549.5,231.5
		c0,2.1,0.4,3.6,1.3,4.6c0.8,1,1.9,1.4,3.1,1.4c1.2,0,2.3-0.5,3.1-1.4c0.8-1,1.3-2.5,1.3-4.5c0-2-0.4-3.4-1.3-4.4
		c-0.9-1-1.9-1.5-3.1-1.5c-1.2,0-2.2,0.5-3.1,1.5C550,228.1,549.5,229.6,549.5,231.5z"/>
	<path class="st1" d="M576,234.7l2.8,0.3c-0.4,1.6-1.3,2.9-2.5,3.8c-1.2,0.9-2.7,1.4-4.6,1.4c-2.3,0-4.2-0.7-5.6-2.2
		c-1.4-1.4-2.1-3.5-2.1-6.1c0-2.7,0.7-4.8,2.1-6.3c1.4-1.5,3.2-2.2,5.4-2.2c2.1,0,3.9,0.7,5.3,2.2c1.4,1.5,2,3.5,2,6.2
		c0,0.2,0,0.4,0,0.7h-12c0.1,1.8,0.6,3.1,1.5,4c0.9,0.9,2,1.4,3.4,1.4c1,0,1.8-0.3,2.6-0.8C575,236.7,575.5,235.8,576,234.7z
		 M567,230.3h9c-0.1-1.4-0.5-2.4-1-3c-0.9-1-2-1.6-3.4-1.6c-1.3,0-2.3,0.4-3.1,1.3C567.6,227.8,567.1,228.9,567,230.3z"/>
	<path class="st1" d="M589.8,231.8c0-3,0.8-5.2,2.5-6.6c1.4-1.2,3.1-1.8,5-1.8c2.2,0,4,0.7,5.4,2.2c1.4,1.4,2.1,3.4,2.1,6
		c0,2.1-0.3,3.7-0.9,4.9c-0.6,1.2-1.5,2.1-2.7,2.8c-1.2,0.7-2.5,1-3.9,1c-2.2,0-4.1-0.7-5.4-2.2
		C590.5,236.6,589.8,234.5,589.8,231.8z M592.6,231.8c0,2.1,0.4,3.6,1.3,4.6c0.9,1,2,1.5,3.4,1.5c1.3,0,2.5-0.5,3.4-1.5
		c0.9-1,1.3-2.6,1.3-4.7c0-2-0.4-3.5-1.3-4.5c-0.9-1-2-1.5-3.4-1.5c-1.4,0-2.5,0.5-3.4,1.5C593,228.2,592.6,229.8,592.6,231.8z"/>
	<path class="st1" d="M608,239.8v-16h2.4v2.3c1.2-1.8,2.9-2.6,5.1-2.6c1,0,1.9,0.2,2.7,0.5c0.8,0.4,1.4,0.8,1.8,1.4
		c0.4,0.6,0.7,1.2,0.8,2c0.1,0.5,0.2,1.4,0.2,2.6v9.9h-2.7v-9.8c0-1.1-0.1-1.9-0.3-2.5s-0.6-1-1.1-1.3c-0.5-0.3-1.2-0.5-1.9-0.5
		c-1.2,0-2.2,0.4-3,1.1c-0.8,0.7-1.3,2.1-1.3,4.2v8.8H608z"/>
	<path class="st1" d="M633.8,239.8v-22.1h2.7v7.9c1.3-1.5,2.9-2.2,4.8-2.2c1.2,0,2.2,0.2,3.1,0.7c0.9,0.5,1.5,1.1,1.9,1.9
		c0.4,0.8,0.6,2,0.6,3.6v10.2h-2.7v-10.2c0-1.4-0.3-2.3-0.9-3c-0.6-0.6-1.4-0.9-2.5-0.9c-0.8,0-1.6,0.2-2.3,0.6
		c-0.7,0.4-1.2,1-1.5,1.7c-0.3,0.7-0.5,1.7-0.5,3v8.8H633.8z"/>
	<path class="st1" d="M661.9,234.7l2.8,0.3c-0.4,1.6-1.3,2.9-2.5,3.8c-1.2,0.9-2.7,1.4-4.6,1.4c-2.3,0-4.2-0.7-5.6-2.2
		c-1.4-1.4-2.1-3.5-2.1-6.1c0-2.7,0.7-4.8,2.1-6.3c1.4-1.5,3.2-2.2,5.4-2.2c2.1,0,3.9,0.7,5.3,2.2c1.4,1.5,2,3.5,2,6.2
		c0,0.2,0,0.4,0,0.7h-12c0.1,1.8,0.6,3.1,1.5,4c0.9,0.9,2,1.4,3.4,1.4c1,0,1.8-0.3,2.6-0.8C661,236.7,661.5,235.8,661.9,234.7z
		 M653,230.3h9c-0.1-1.4-0.5-2.4-1-3c-0.9-1-2-1.6-3.4-1.6c-1.3,0-2.3,0.4-3.1,1.3C653.6,227.8,653.1,228.9,653,230.3z"/>
	<path class="st1" d="M678.6,237.9c-1,0.9-2,1.5-2.9,1.8c-0.9,0.4-1.9,0.5-3,0.5c-1.8,0-3.1-0.4-4.1-1.3c-0.9-0.9-1.4-2-1.4-3.3
		c0-0.8,0.2-1.5,0.5-2.1c0.4-0.7,0.8-1.2,1.4-1.6c0.6-0.4,1.2-0.7,2-0.9c0.5-0.1,1.3-0.3,2.4-0.4c2.2-0.3,3.8-0.6,4.8-0.9
		c0-0.4,0-0.6,0-0.7c0-1.1-0.3-1.9-0.8-2.3c-0.7-0.6-1.7-0.9-3.1-0.9c-1.3,0-2.2,0.2-2.8,0.7c-0.6,0.4-1.1,1.2-1.4,2.4l-2.7-0.4
		c0.2-1.1,0.6-2.1,1.2-2.8c0.6-0.7,1.4-1.2,2.4-1.6c1-0.4,2.3-0.6,3.6-0.6c1.4,0,2.5,0.2,3.3,0.5c0.9,0.3,1.5,0.7,1.9,1.2
		c0.4,0.5,0.7,1.1,0.8,1.8c0.1,0.5,0.1,1.3,0.1,2.5v3.6c0,2.5,0.1,4.1,0.2,4.8c0.1,0.7,0.3,1.3,0.7,1.9h-2.8
		C678.9,239.3,678.7,238.6,678.6,237.9z M678.4,231.8c-1,0.4-2.5,0.7-4.4,1c-1.1,0.2-1.9,0.3-2.4,0.5c-0.5,0.2-0.8,0.5-1.1,0.9
		c-0.3,0.4-0.4,0.8-0.4,1.3c0,0.7,0.3,1.3,0.8,1.8c0.5,0.5,1.4,0.7,2.4,0.7c1,0,2-0.2,2.8-0.7c0.8-0.5,1.4-1.1,1.8-1.9
		c0.3-0.6,0.4-1.5,0.4-2.7V231.8z"/>
	<path class="st1" d="M685.3,239.8v-22.1h2.7v22.1H685.3z"/>
	<path class="st1" d="M698.2,237.4l0.4,2.4c-0.8,0.2-1.5,0.2-2.1,0.2c-1,0-1.8-0.2-2.3-0.5c-0.5-0.3-0.9-0.7-1.1-1.2
		c-0.2-0.5-0.3-1.6-0.3-3.2v-9.2h-2v-2.1h2v-4l2.7-1.6v5.6h2.7v2.1h-2.7v9.4c0,0.8,0,1.3,0.1,1.5c0.1,0.2,0.3,0.4,0.5,0.5
		c0.2,0.1,0.5,0.2,0.9,0.2C697.3,237.5,697.7,237.5,698.2,237.4z"/>
	<path class="st1" d="M700.8,239.8v-22.1h2.7v7.9c1.3-1.5,2.9-2.2,4.8-2.2c1.2,0,2.2,0.2,3.1,0.7c0.9,0.5,1.5,1.1,1.9,1.9
		c0.4,0.8,0.6,2,0.6,3.6v10.2h-2.7v-10.2c0-1.4-0.3-2.3-0.9-3c-0.6-0.6-1.4-0.9-2.5-0.9c-0.8,0-1.6,0.2-2.3,0.6
		c-0.7,0.4-1.2,1-1.5,1.7c-0.3,0.7-0.5,1.7-0.5,3v8.8H700.8z"/>
	<path class="st1" d="M718.7,239.8v-3.1h3.1v3.1c0,1.1-0.2,2.1-0.6,2.8c-0.4,0.7-1,1.2-1.9,1.6l-0.8-1.2c0.6-0.3,1-0.6,1.3-1.1
		c0.3-0.5,0.4-1.2,0.5-2.1H718.7z"/>
	<path class="st1" d="M746.2,234.7l2.8,0.3c-0.4,1.6-1.3,2.9-2.5,3.8c-1.2,0.9-2.7,1.4-4.6,1.4c-2.3,0-4.2-0.7-5.6-2.2
		c-1.4-1.4-2.1-3.5-2.1-6.1c0-2.7,0.7-4.8,2.1-6.3c1.4-1.5,3.2-2.2,5.4-2.2c2.1,0,3.9,0.7,5.3,2.2c1.4,1.5,2,3.5,2,6.2
		c0,0.2,0,0.4,0,0.7h-12c0.1,1.8,0.6,3.1,1.5,4c0.9,0.9,2,1.4,3.4,1.4c1,0,1.8-0.3,2.6-0.8C745.2,236.7,745.8,235.8,746.2,234.7z
		 M737.3,230.3h9c-0.1-1.4-0.5-2.4-1-3c-0.9-1-2-1.6-3.4-1.6c-1.3,0-2.3,0.4-3.1,1.3C737.8,227.8,737.4,228.9,737.3,230.3z"/>
	<path class="st1" d="M762.8,239.8v-2c-1,1.6-2.5,2.4-4.5,2.4c-1.3,0-2.5-0.4-3.5-1.1c-1.1-0.7-1.9-1.7-2.5-3
		c-0.6-1.3-0.9-2.7-0.9-4.4c0-1.6,0.3-3.1,0.8-4.4c0.5-1.3,1.3-2.3,2.4-3c1.1-0.7,2.3-1,3.6-1c1,0,1.8,0.2,2.6,0.6
		c0.8,0.4,1.4,0.9,1.8,1.6v-7.9h2.7v22.1H762.8z M754.2,231.8c0,2.1,0.4,3.6,1.3,4.6c0.9,1,1.9,1.5,3.1,1.5c1.2,0,2.2-0.5,3-1.5
		c0.8-1,1.2-2.5,1.2-4.4c0-2.2-0.4-3.8-1.3-4.8c-0.8-1-1.9-1.5-3.1-1.5c-1.2,0-2.2,0.5-3,1.5C754.6,228.2,754.2,229.7,754.2,231.8z"
		/>
	<path class="st1" d="M780.1,239.8v-2.4c-1.3,1.8-2.9,2.7-5.1,2.7c-0.9,0-1.8-0.2-2.7-0.5c-0.8-0.4-1.4-0.8-1.8-1.4
		c-0.4-0.5-0.7-1.2-0.8-2c-0.1-0.5-0.2-1.4-0.2-2.5v-9.9h2.7v8.9c0,1.4,0.1,2.4,0.2,2.9c0.2,0.7,0.5,1.3,1.1,1.7
		c0.6,0.4,1.2,0.6,2.1,0.6c0.8,0,1.6-0.2,2.3-0.6c0.7-0.4,1.2-1,1.5-1.7c0.3-0.7,0.4-1.8,0.4-3.1v-8.6h2.7v16H780.1z"/>
	<path class="st1" d="M797.3,234l2.7,0.3c-0.3,1.8-1,3.3-2.2,4.3c-1.2,1-2.7,1.6-4.4,1.6c-2.2,0-4-0.7-5.3-2.2c-1.3-1.4-2-3.5-2-6.2
		c0-1.7,0.3-3.2,0.9-4.5c0.6-1.3,1.4-2.3,2.6-2.9c1.2-0.7,2.4-1,3.8-1c1.7,0,3.2,0.4,4.3,1.3c1.1,0.9,1.8,2.1,2.1,3.8l-2.6,0.4
		c-0.3-1.1-0.7-1.9-1.3-2.4c-0.6-0.5-1.4-0.8-2.3-0.8c-1.4,0-2.5,0.5-3.3,1.5c-0.9,1-1.3,2.5-1.3,4.7c0,2.2,0.4,3.7,1.2,4.7
		c0.8,1,1.9,1.5,3.2,1.5c1.1,0,2-0.3,2.7-1C796.6,236.3,797.1,235.3,797.3,234z"/>
	<path class="st1" d="M812.7,237.9c-1,0.9-2,1.5-2.9,1.8c-0.9,0.4-1.9,0.5-3,0.5c-1.8,0-3.1-0.4-4.1-1.3c-0.9-0.9-1.4-2-1.4-3.3
		c0-0.8,0.2-1.5,0.5-2.1c0.4-0.7,0.8-1.2,1.4-1.6c0.6-0.4,1.2-0.7,2-0.9c0.5-0.1,1.3-0.3,2.4-0.4c2.2-0.3,3.8-0.6,4.8-0.9
		c0-0.4,0-0.6,0-0.7c0-1.1-0.3-1.9-0.8-2.3c-0.7-0.6-1.7-0.9-3.1-0.9c-1.3,0-2.2,0.2-2.8,0.7c-0.6,0.4-1.1,1.2-1.4,2.4l-2.7-0.4
		c0.2-1.1,0.6-2.1,1.2-2.8c0.6-0.7,1.4-1.2,2.4-1.6c1-0.4,2.3-0.6,3.6-0.6c1.4,0,2.5,0.2,3.3,0.5c0.9,0.3,1.5,0.7,1.9,1.2
		c0.4,0.5,0.7,1.1,0.8,1.8c0.1,0.5,0.1,1.3,0.1,2.5v3.6c0,2.5,0.1,4.1,0.2,4.8c0.1,0.7,0.3,1.3,0.7,1.9h-2.8
		C813,239.3,812.8,238.6,812.7,237.9z M812.5,231.8c-1,0.4-2.5,0.7-4.4,1c-1.1,0.2-1.9,0.3-2.4,0.5c-0.5,0.2-0.8,0.5-1.1,0.9
		c-0.3,0.4-0.4,0.8-0.4,1.3c0,0.7,0.3,1.3,0.8,1.8c0.5,0.5,1.4,0.7,2.4,0.7c1,0,2-0.2,2.8-0.7c0.8-0.5,1.4-1.1,1.8-1.9
		c0.3-0.6,0.4-1.5,0.4-2.7V231.8z"/>
	<path class="st1" d="M825.4,237.4l0.4,2.4c-0.8,0.2-1.4,0.2-2.1,0.2c-1,0-1.8-0.2-2.3-0.5c-0.5-0.3-0.9-0.7-1.1-1.2
		c-0.2-0.5-0.3-1.6-0.3-3.2v-9.2h-2v-2.1h2v-4l2.7-1.6v5.6h2.7v2.1h-2.7v9.4c0,0.8,0,1.3,0.1,1.5c0.1,0.2,0.3,0.4,0.5,0.5
		c0.2,0.1,0.5,0.2,0.9,0.2C824.5,237.5,824.9,237.5,825.4,237.4z"/>
	<path class="st1" d="M828.1,220.8v-3.1h2.7v3.1H828.1z M828.1,239.8v-16h2.7v16H828.1z"/>
	<path class="st1" d="M833.9,231.8c0-3,0.8-5.2,2.5-6.6c1.4-1.2,3.1-1.8,5-1.8c2.2,0,4,0.7,5.4,2.2c1.4,1.4,2.1,3.4,2.1,6
		c0,2.1-0.3,3.7-0.9,4.9c-0.6,1.2-1.5,2.1-2.7,2.8c-1.2,0.7-2.5,1-3.9,1c-2.2,0-4.1-0.7-5.4-2.2
		C834.6,236.6,833.9,234.5,833.9,231.8z M836.7,231.8c0,2.1,0.4,3.6,1.3,4.6c0.9,1,2,1.5,3.4,1.5c1.4,0,2.5-0.5,3.4-1.5
		c0.9-1,1.3-2.6,1.3-4.7c0-2-0.4-3.5-1.4-4.5c-0.9-1-2-1.5-3.4-1.5c-1.4,0-2.5,0.5-3.4,1.5C837.2,228.2,836.7,229.8,836.7,231.8z"/>
	<path class="st1" d="M852.1,239.8v-16h2.4v2.3c1.2-1.8,2.9-2.6,5.1-2.6c1,0,1.9,0.2,2.7,0.5c0.8,0.4,1.4,0.8,1.8,1.4
		c0.4,0.6,0.7,1.2,0.8,2c0.1,0.5,0.2,1.4,0.2,2.6v9.9h-2.7v-9.8c0-1.1-0.1-1.9-0.3-2.5s-0.6-1-1.1-1.3c-0.5-0.3-1.2-0.5-1.9-0.5
		c-1.2,0-2.2,0.4-3,1.1c-0.8,0.7-1.3,2.1-1.3,4.2v8.8H852.1z"/>
	<path class="st1" d="M879.8,237.9c-1,0.9-2,1.5-2.9,1.8c-0.9,0.4-1.9,0.5-3,0.5c-1.8,0-3.1-0.4-4.1-1.3c-0.9-0.9-1.4-2-1.4-3.3
		c0-0.8,0.2-1.5,0.5-2.1c0.4-0.7,0.8-1.2,1.4-1.6c0.6-0.4,1.2-0.7,2-0.9c0.5-0.1,1.3-0.3,2.4-0.4c2.2-0.3,3.8-0.6,4.8-0.9
		c0-0.4,0-0.6,0-0.7c0-1.1-0.3-1.9-0.8-2.3c-0.7-0.6-1.7-0.9-3.1-0.9c-1.3,0-2.2,0.2-2.8,0.7c-0.6,0.4-1.1,1.2-1.4,2.4l-2.7-0.4
		c0.2-1.1,0.6-2.1,1.2-2.8c0.6-0.7,1.4-1.2,2.4-1.6c1-0.4,2.3-0.6,3.6-0.6c1.4,0,2.5,0.2,3.3,0.5c0.9,0.3,1.5,0.7,1.9,1.2
		c0.4,0.5,0.7,1.1,0.8,1.8c0.1,0.5,0.1,1.3,0.1,2.5v3.6c0,2.5,0.1,4.1,0.2,4.8c0.1,0.7,0.3,1.3,0.7,1.9h-2.8
		C880.1,239.3,879.9,238.6,879.8,237.9z M879.6,231.8c-1,0.4-2.5,0.7-4.4,1c-1.1,0.2-1.9,0.3-2.4,0.5c-0.5,0.2-0.8,0.5-1.1,0.9
		c-0.3,0.4-0.4,0.8-0.4,1.3c0,0.7,0.3,1.3,0.8,1.8c0.5,0.5,1.4,0.7,2.4,0.7c1,0,2-0.2,2.8-0.7c0.8-0.5,1.4-1.1,1.8-1.9
		c0.3-0.6,0.4-1.5,0.4-2.7V231.8z"/>
	<path class="st1" d="M886.5,239.8v-22.1h2.7v22.1H886.5z"/>
	<path class="st1" d="M71.8,275c-1,0.9-2,1.5-2.9,1.8c-0.9,0.4-1.9,0.5-3,0.5c-1.8,0-3.1-0.4-4.1-1.3c-0.9-0.9-1.4-2-1.4-3.3
		c0-0.8,0.2-1.5,0.5-2.1c0.4-0.7,0.8-1.2,1.4-1.6c0.6-0.4,1.2-0.7,2-0.9c0.5-0.1,1.3-0.3,2.4-0.4c2.2-0.3,3.8-0.6,4.8-0.9
		c0-0.4,0-0.6,0-0.7c0-1.1-0.3-1.9-0.8-2.3c-0.7-0.6-1.7-0.9-3.1-0.9c-1.3,0-2.2,0.2-2.8,0.7c-0.6,0.4-1.1,1.2-1.4,2.4l-2.7-0.4
		c0.2-1.1,0.6-2.1,1.2-2.8c0.6-0.7,1.4-1.2,2.4-1.6c1-0.4,2.3-0.6,3.6-0.6c1.4,0,2.5,0.2,3.3,0.5c0.9,0.3,1.5,0.7,1.9,1.2
		c0.4,0.5,0.7,1.1,0.8,1.8c0.1,0.5,0.1,1.3,0.1,2.5v3.6c0,2.5,0.1,4.1,0.2,4.8c0.1,0.7,0.3,1.3,0.7,1.9h-2.8
		C72.1,276.4,71.9,275.7,71.8,275z M71.6,268.9c-1,0.4-2.5,0.7-4.4,1c-1.1,0.2-1.9,0.3-2.4,0.5c-0.5,0.2-0.8,0.5-1.1,0.9
		c-0.3,0.4-0.4,0.8-0.4,1.3c0,0.7,0.3,1.3,0.8,1.8c0.5,0.5,1.4,0.7,2.4,0.7c1,0,2-0.2,2.8-0.7c0.8-0.5,1.4-1.1,1.8-1.9
		c0.3-0.6,0.4-1.5,0.4-2.7V268.9z"/>
	<path class="st1" d="M78.6,277v-16H81v2.3c1.2-1.8,2.9-2.6,5.1-2.6c1,0,1.9,0.2,2.7,0.5c0.8,0.4,1.4,0.8,1.8,1.4
		c0.4,0.6,0.7,1.2,0.8,2c0.1,0.5,0.2,1.4,0.2,2.6v9.9h-2.7v-9.8c0-1.1-0.1-1.9-0.3-2.5c-0.2-0.5-0.6-1-1.1-1.3
		c-0.5-0.3-1.2-0.5-1.9-0.5c-1.2,0-2.2,0.4-3,1.1c-0.8,0.7-1.3,2.1-1.3,4.2v8.8H78.6z"/>
	<path class="st1" d="M106.2,277v-2c-1,1.6-2.5,2.4-4.5,2.4c-1.3,0-2.5-0.4-3.5-1.1c-1.1-0.7-1.9-1.7-2.5-3
		c-0.6-1.3-0.9-2.7-0.9-4.4c0-1.6,0.3-3.1,0.8-4.4c0.5-1.3,1.3-2.3,2.4-3c1.1-0.7,2.3-1,3.6-1c1,0,1.8,0.2,2.6,0.6
		c0.8,0.4,1.4,0.9,1.8,1.6v-7.9h2.7V277H106.2z M97.6,269c0,2.1,0.4,3.6,1.3,4.6c0.9,1,1.9,1.5,3.1,1.5c1.2,0,2.2-0.5,3-1.5
		c0.8-1,1.2-2.5,1.2-4.4c0-2.2-0.4-3.8-1.3-4.8c-0.8-1-1.9-1.5-3.1-1.5c-1.2,0-2.2,0.5-3,1.5C98,265.3,97.6,266.8,97.6,269z"/>
	<path class="st1" d="M132.5,271.8l2.8,0.3c-0.4,1.6-1.3,2.9-2.5,3.8c-1.2,0.9-2.7,1.4-4.6,1.4c-2.3,0-4.2-0.7-5.6-2.2
		c-1.4-1.4-2.1-3.5-2.1-6.1c0-2.7,0.7-4.8,2.1-6.3c1.4-1.5,3.2-2.2,5.4-2.2c2.1,0,3.9,0.7,5.3,2.2c1.4,1.5,2,3.5,2,6.2
		c0,0.2,0,0.4,0,0.7h-12c0.1,1.8,0.6,3.1,1.5,4c0.9,0.9,2,1.4,3.4,1.4c1,0,1.8-0.3,2.6-0.8C131.6,273.8,132.1,272.9,132.5,271.8z
		 M123.6,267.4h9c-0.1-1.4-0.5-2.4-1-3c-0.9-1-2-1.6-3.4-1.6c-1.2,0-2.3,0.4-3.1,1.3C124.2,264.9,123.7,266,123.6,267.4z"/>
	<path class="st1" d="M149.2,271.1l2.7,0.3c-0.3,1.8-1,3.3-2.2,4.3c-1.2,1-2.7,1.6-4.4,1.6c-2.2,0-4-0.7-5.3-2.2
		c-1.3-1.4-2-3.5-2-6.2c0-1.7,0.3-3.2,0.9-4.5c0.6-1.3,1.4-2.3,2.6-2.9c1.2-0.7,2.4-1,3.8-1c1.7,0,3.2,0.4,4.3,1.3
		c1.1,0.9,1.8,2.1,2.1,3.8L149,266c-0.3-1.1-0.7-1.9-1.3-2.4c-0.6-0.5-1.4-0.8-2.3-0.8c-1.4,0-2.5,0.5-3.3,1.5
		c-0.9,1-1.3,2.5-1.3,4.7c0,2.2,0.4,3.7,1.2,4.7c0.8,1,1.9,1.5,3.2,1.5c1.1,0,2-0.3,2.7-1C148.6,273.4,149,272.4,149.2,271.1z"/>
	<path class="st1" d="M153.2,268.9c0-3,0.8-5.2,2.5-6.6c1.4-1.2,3.1-1.8,5-1.8c2.2,0,4,0.7,5.4,2.2c1.4,1.4,2.1,3.4,2.1,6
		c0,2.1-0.3,3.7-0.9,4.9c-0.6,1.2-1.5,2.1-2.7,2.8c-1.2,0.7-2.5,1-3.9,1c-2.2,0-4.1-0.7-5.4-2.2
		C153.9,273.7,153.2,271.6,153.2,268.9z M156,268.9c0,2.1,0.4,3.6,1.3,4.6c0.9,1,2,1.5,3.4,1.5c1.3,0,2.5-0.5,3.4-1.5
		c0.9-1,1.3-2.6,1.3-4.7c0-2-0.5-3.5-1.4-4.5c-0.9-1-2-1.5-3.4-1.5c-1.4,0-2.5,0.5-3.4,1.5C156.4,265.3,156,266.9,156,268.9z"/>
	<path class="st1" d="M171.4,277v-16h2.4v2.3c1.2-1.8,2.9-2.6,5.1-2.6c1,0,1.9,0.2,2.7,0.5c0.8,0.4,1.4,0.8,1.8,1.4
		c0.4,0.6,0.7,1.2,0.8,2c0.1,0.5,0.2,1.4,0.2,2.6v9.9h-2.7v-9.8c0-1.1-0.1-1.9-0.3-2.5c-0.2-0.5-0.6-1-1.1-1.3
		c-0.5-0.3-1.2-0.5-1.9-0.5c-1.2,0-2.2,0.4-3,1.1c-0.8,0.7-1.3,2.1-1.3,4.2v8.8H171.4z"/>
	<path class="st1" d="M187.6,268.9c0-3,0.8-5.2,2.5-6.6c1.4-1.2,3.1-1.8,5-1.8c2.2,0,4,0.7,5.4,2.2c1.4,1.4,2.1,3.4,2.1,6
		c0,2.1-0.3,3.7-0.9,4.9c-0.6,1.2-1.5,2.1-2.7,2.8c-1.2,0.7-2.5,1-3.9,1c-2.2,0-4.1-0.7-5.4-2.2
		C188.3,273.7,187.6,271.6,187.6,268.9z M190.4,268.9c0,2.1,0.4,3.6,1.3,4.6c0.9,1,2,1.5,3.4,1.5c1.3,0,2.5-0.5,3.4-1.5
		c0.9-1,1.3-2.6,1.3-4.7c0-2-0.5-3.5-1.4-4.5c-0.9-1-2-1.5-3.4-1.5c-1.4,0-2.5,0.5-3.4,1.5C190.8,265.3,190.4,266.9,190.4,268.9z"/>
	<path class="st1" d="M205.8,277v-16h2.4v2.2c0.5-0.8,1.2-1.4,2-1.9c0.8-0.5,1.8-0.7,2.9-0.7c1.2,0,2.2,0.2,2.9,0.7
		c0.8,0.5,1.3,1.2,1.6,2.1c1.3-1.9,2.9-2.8,5-2.8c1.6,0,2.8,0.4,3.7,1.3c0.9,0.9,1.3,2.2,1.3,4.1v11h-2.7v-10.1
		c0-1.1-0.1-1.9-0.3-2.3c-0.2-0.5-0.5-0.9-1-1.2c-0.5-0.3-1-0.4-1.6-0.4c-1.1,0-2.1,0.4-2.8,1.1c-0.7,0.8-1.1,1.9-1.1,3.6v9.3h-2.7
		v-10.4c0-1.2-0.2-2.1-0.7-2.7s-1.2-0.9-2.2-0.9c-0.8,0-1.5,0.2-2.1,0.6c-0.6,0.4-1.1,1-1.4,1.8c-0.3,0.8-0.4,1.9-0.4,3.4v8.3H205.8
		z"/>
	<path class="st1" d="M231.6,257.9v-3.1h2.7v3.1H231.6z M231.6,277v-16h2.7v16H231.6z"/>
	<path class="st1" d="M248.9,271.1l2.7,0.3c-0.3,1.8-1,3.3-2.2,4.3c-1.2,1-2.7,1.6-4.4,1.6c-2.2,0-4-0.7-5.3-2.2
		c-1.3-1.4-2-3.5-2-6.2c0-1.7,0.3-3.2,0.9-4.5c0.6-1.3,1.4-2.3,2.6-2.9c1.2-0.7,2.4-1,3.8-1c1.7,0,3.2,0.4,4.3,1.3
		c1.1,0.9,1.8,2.1,2.1,3.8l-2.6,0.4c-0.3-1.1-0.7-1.9-1.3-2.4c-0.6-0.5-1.4-0.8-2.3-0.8c-1.4,0-2.5,0.5-3.3,1.5
		c-0.9,1-1.3,2.5-1.3,4.7c0,2.2,0.4,3.7,1.2,4.7c0.8,1,1.9,1.5,3.2,1.5c1.1,0,2-0.3,2.7-1C248.3,273.4,248.7,272.4,248.9,271.1z"/>
	<path class="st1" d="M261.5,268.9c0-3,0.8-5.2,2.5-6.6c1.4-1.2,3.1-1.8,5-1.8c2.2,0,4,0.7,5.4,2.2c1.4,1.4,2.1,3.4,2.1,6
		c0,2.1-0.3,3.7-0.9,4.9c-0.6,1.2-1.5,2.1-2.7,2.8c-1.2,0.7-2.5,1-3.9,1c-2.2,0-4.1-0.7-5.4-2.2
		C262.2,273.7,261.5,271.6,261.5,268.9z M264.3,268.9c0,2.1,0.4,3.6,1.3,4.6c0.9,1,2,1.5,3.4,1.5c1.3,0,2.5-0.5,3.4-1.5
		c0.9-1,1.3-2.6,1.3-4.7c0-2-0.5-3.5-1.4-4.5c-0.9-1-2-1.5-3.4-1.5c-1.4,0-2.5,0.5-3.4,1.5C264.7,265.3,264.3,266.9,264.3,268.9z"/>
	<path class="st1" d="M290.2,277v-2.4c-1.2,1.8-2.9,2.7-5.1,2.7c-0.9,0-1.8-0.2-2.7-0.5c-0.8-0.4-1.4-0.8-1.8-1.4
		c-0.4-0.5-0.7-1.2-0.8-2c-0.1-0.5-0.2-1.4-0.2-2.5v-9.9h2.7v8.9c0,1.4,0.1,2.4,0.2,2.9c0.2,0.7,0.5,1.3,1.1,1.7
		c0.6,0.4,1.2,0.6,2.1,0.6c0.8,0,1.6-0.2,2.3-0.6c0.7-0.4,1.2-1,1.5-1.7c0.3-0.7,0.4-1.8,0.4-3.1v-8.6h2.7v16H290.2z"/>
	<path class="st1" d="M302.8,274.5l0.4,2.4c-0.8,0.2-1.4,0.2-2.1,0.2c-1,0-1.8-0.2-2.3-0.5c-0.5-0.3-0.9-0.7-1.1-1.2
		c-0.2-0.5-0.3-1.6-0.3-3.2V263h-2v-2.1h2v-4l2.7-1.6v5.6h2.7v2.1h-2.7v9.4c0,0.8,0,1.3,0.1,1.5c0.1,0.2,0.3,0.4,0.5,0.5
		c0.2,0.1,0.5,0.2,0.9,0.2C301.9,274.6,302.3,274.6,302.8,274.5z"/>
	<path class="st1" d="M315.9,271.1l2.7,0.3c-0.3,1.8-1,3.3-2.2,4.3c-1.2,1-2.7,1.6-4.4,1.6c-2.2,0-4-0.7-5.3-2.2
		c-1.3-1.4-2-3.5-2-6.2c0-1.7,0.3-3.2,0.9-4.5c0.6-1.3,1.4-2.3,2.6-2.9c1.2-0.7,2.4-1,3.8-1c1.7,0,3.2,0.4,4.3,1.3
		c1.1,0.9,1.8,2.1,2.1,3.8l-2.6,0.4c-0.3-1.1-0.7-1.9-1.3-2.4c-0.6-0.5-1.4-0.8-2.3-0.8c-1.4,0-2.5,0.5-3.3,1.5
		c-0.9,1-1.3,2.5-1.3,4.7c0,2.2,0.4,3.7,1.2,4.7c0.8,1,1.9,1.5,3.2,1.5c1.1,0,2-0.3,2.7-1C315.3,273.4,315.8,272.4,315.9,271.1z"/>
	<path class="st1" d="M319.9,268.9c0-3,0.8-5.2,2.5-6.6c1.4-1.2,3.1-1.8,5-1.8c2.2,0,4,0.7,5.4,2.2c1.4,1.4,2.1,3.4,2.1,6
		c0,2.1-0.3,3.7-0.9,4.9c-0.6,1.2-1.5,2.1-2.7,2.8c-1.2,0.7-2.5,1-3.9,1c-2.2,0-4.1-0.7-5.4-2.2S319.9,271.6,319.9,268.9z
		 M322.7,268.9c0,2.1,0.4,3.6,1.3,4.6c0.9,1,2,1.5,3.4,1.5c1.3,0,2.5-0.5,3.4-1.5s1.3-2.6,1.3-4.7c0-2-0.5-3.5-1.4-4.5
		c-0.9-1-2-1.5-3.4-1.5c-1.4,0-2.5,0.5-3.4,1.5C323.2,265.3,322.7,266.9,322.7,268.9z"/>
	<path class="st1" d="M338.1,277v-16h2.4v2.2c0.5-0.8,1.2-1.4,2-1.9c0.8-0.5,1.8-0.7,2.9-0.7c1.2,0,2.2,0.2,2.9,0.7
		c0.8,0.5,1.3,1.2,1.6,2.1c1.3-1.9,2.9-2.8,5-2.8c1.6,0,2.8,0.4,3.7,1.3c0.9,0.9,1.3,2.2,1.3,4.1v11h-2.7v-10.1
		c0-1.1-0.1-1.9-0.3-2.3c-0.2-0.5-0.5-0.9-1-1.2c-0.5-0.3-1-0.4-1.6-0.4c-1.1,0-2.1,0.4-2.8,1.1c-0.7,0.8-1.1,1.9-1.1,3.6v9.3h-2.7
		v-10.4c0-1.2-0.2-2.1-0.7-2.7c-0.4-0.6-1.2-0.9-2.2-0.9c-0.8,0-1.5,0.2-2.1,0.6c-0.6,0.4-1.1,1-1.4,1.8c-0.3,0.8-0.4,1.9-0.4,3.4
		v8.3H338.1z"/>
	<path class="st1" d="M374.9,271.8l2.8,0.3c-0.4,1.6-1.3,2.9-2.5,3.8c-1.2,0.9-2.7,1.4-4.6,1.4c-2.3,0-4.2-0.7-5.6-2.2
		c-1.4-1.4-2.1-3.5-2.1-6.1c0-2.7,0.7-4.8,2.1-6.3c1.4-1.5,3.2-2.2,5.4-2.2c2.1,0,3.9,0.7,5.3,2.2c1.4,1.5,2,3.5,2,6.2
		c0,0.2,0,0.4,0,0.7h-12c0.1,1.8,0.6,3.1,1.5,4c0.9,0.9,2,1.4,3.4,1.4c1,0,1.8-0.3,2.6-0.8C373.9,273.8,374.5,272.9,374.9,271.8z
		 M366,267.4h9c-0.1-1.4-0.5-2.4-1-3c-0.9-1-2-1.6-3.4-1.6c-1.2,0-2.3,0.4-3.1,1.3C366.5,264.9,366.1,266,366,267.4z"/>
	<path class="st1" d="M380,272.2l2.7-0.4c0.2,1.1,0.6,1.9,1.3,2.5c0.7,0.6,1.7,0.9,2.9,0.9c1.2,0,2.2-0.3,2.8-0.8
		c0.6-0.5,0.9-1.1,0.9-1.8c0-0.6-0.3-1.1-0.8-1.4c-0.4-0.2-1.3-0.5-2.8-0.9c-2-0.5-3.4-0.9-4.1-1.3c-0.8-0.4-1.4-0.9-1.8-1.5
		c-0.4-0.7-0.6-1.4-0.6-2.2c0-0.7,0.2-1.4,0.5-2c0.3-0.6,0.8-1.1,1.3-1.5c0.4-0.3,1-0.6,1.7-0.8c0.7-0.2,1.5-0.3,2.3-0.3
		c1.3,0,2.4,0.2,3.3,0.5c1,0.4,1.7,0.9,2.1,1.5c0.5,0.6,0.8,1.4,0.9,2.5l-2.7,0.4c-0.1-0.8-0.5-1.5-1-1.9c-0.6-0.5-1.4-0.7-2.5-0.7
		c-1.2,0-2.1,0.2-2.7,0.6c-0.5,0.4-0.8,0.9-0.8,1.4c0,0.4,0.1,0.7,0.3,1c0.2,0.3,0.6,0.5,1,0.7c0.3,0.1,1.1,0.3,2.4,0.7
		c1.9,0.5,3.3,0.9,4,1.3c0.8,0.3,1.4,0.8,1.8,1.4c0.4,0.6,0.6,1.4,0.6,2.3c0,0.9-0.3,1.8-0.8,2.6c-0.5,0.8-1.3,1.4-2.3,1.9
		c-1,0.4-2.1,0.7-3.4,0.7c-2.1,0-3.7-0.4-4.8-1.3C381,275.2,380.3,273.9,380,272.2z"/>
	<path class="st1" d="M397.3,264v-3.1h3.1v3.1H397.3z M397.3,277v-3.1h3.1v3.1H397.3z"/>
	<path class="st1" d="M424.2,275c-1,0.9-2,1.5-2.9,1.8c-0.9,0.4-1.9,0.5-3,0.5c-1.8,0-3.1-0.4-4.1-1.3c-0.9-0.9-1.4-2-1.4-3.3
		c0-0.8,0.2-1.5,0.5-2.1c0.4-0.7,0.8-1.2,1.4-1.6c0.6-0.4,1.2-0.7,2-0.9c0.5-0.1,1.3-0.3,2.4-0.4c2.2-0.3,3.8-0.6,4.8-0.9
		c0-0.4,0-0.6,0-0.7c0-1.1-0.3-1.9-0.8-2.3c-0.7-0.6-1.7-0.9-3.1-0.9c-1.3,0-2.2,0.2-2.8,0.7c-0.6,0.4-1.1,1.2-1.4,2.4l-2.7-0.4
		c0.2-1.1,0.6-2.1,1.2-2.8c0.6-0.7,1.4-1.2,2.4-1.6c1-0.4,2.3-0.6,3.6-0.6c1.4,0,2.5,0.2,3.3,0.5c0.9,0.3,1.5,0.7,1.9,1.2
		c0.4,0.5,0.7,1.1,0.8,1.8c0.1,0.5,0.1,1.3,0.1,2.5v3.6c0,2.5,0.1,4.1,0.2,4.8c0.1,0.7,0.3,1.3,0.7,1.9h-2.8
		C424.5,276.4,424.3,275.7,424.2,275z M424,268.9c-1,0.4-2.5,0.7-4.4,1c-1.1,0.2-1.9,0.3-2.4,0.5c-0.5,0.2-0.8,0.5-1.1,0.9
		c-0.3,0.4-0.4,0.8-0.4,1.3c0,0.7,0.3,1.3,0.8,1.8c0.5,0.5,1.4,0.7,2.4,0.7c1,0,2-0.2,2.8-0.7c0.8-0.5,1.4-1.1,1.8-1.9
		c0.3-0.6,0.4-1.5,0.4-2.7V268.9z"/>
	<path class="st1" d="M439.5,277v-22.1h2.7V277H439.5z"/>
	<path class="st1" d="M445.4,268.9c0-3,0.8-5.2,2.5-6.6c1.4-1.2,3.1-1.8,5-1.8c2.2,0,4,0.7,5.4,2.2c1.4,1.4,2.1,3.4,2.1,6
		c0,2.1-0.3,3.7-0.9,4.9c-0.6,1.2-1.5,2.1-2.7,2.8c-1.2,0.7-2.5,1-3.9,1c-2.2,0-4.1-0.7-5.4-2.2
		C446.1,273.7,445.4,271.6,445.4,268.9z M448.2,268.9c0,2.1,0.4,3.6,1.3,4.6c0.9,1,2,1.5,3.4,1.5c1.4,0,2.5-0.5,3.4-1.5
		c0.9-1,1.3-2.6,1.3-4.7c0-2-0.4-3.5-1.4-4.5c-0.9-1-2-1.5-3.4-1.5c-1.4,0-2.5,0.5-3.4,1.5C448.6,265.3,448.2,266.9,448.2,268.9z"/>
	<path class="st1" d="M463.6,277v-16h2.4v2.3c1.2-1.8,2.9-2.6,5.1-2.6c1,0,1.9,0.2,2.7,0.5c0.8,0.4,1.4,0.8,1.8,1.4
		c0.4,0.6,0.7,1.2,0.8,2c0.1,0.5,0.2,1.4,0.2,2.6v9.9h-2.7v-9.8c0-1.1-0.1-1.9-0.3-2.5c-0.2-0.5-0.6-1-1.1-1.3
		c-0.5-0.3-1.2-0.5-1.9-0.5c-1.2,0-2.2,0.4-3,1.1c-0.8,0.7-1.3,2.1-1.3,4.2v8.8H463.6z"/>
	<path class="st1" d="M480.3,278.3l2.6,0.4c0.1,0.8,0.4,1.4,0.9,1.8c0.7,0.5,1.6,0.8,2.8,0.8c1.3,0,2.2-0.3,2.9-0.8
		c0.7-0.5,1.1-1.2,1.4-2.1c0.1-0.6,0.2-1.7,0.2-3.5c-1.2,1.4-2.7,2.1-4.4,2.1c-2.2,0-3.9-0.8-5.1-2.4c-1.2-1.6-1.8-3.5-1.8-5.7
		c0-1.5,0.3-2.9,0.8-4.2c0.6-1.3,1.4-2.3,2.4-3c1.1-0.7,2.3-1.1,3.7-1.1c1.9,0,3.5,0.8,4.7,2.3v-1.9h2.5v13.9c0,2.5-0.3,4.3-0.8,5.3
		c-0.5,1-1.3,1.9-2.4,2.5c-1.1,0.6-2.5,0.9-4.1,0.9c-1.9,0-3.5-0.4-4.6-1.3C480.8,281.3,480.3,280,480.3,278.3z M482.6,268.7
		c0,2.1,0.4,3.6,1.3,4.6c0.8,1,1.9,1.4,3.1,1.4c1.2,0,2.3-0.5,3.1-1.4c0.8-1,1.3-2.5,1.3-4.5c0-2-0.4-3.4-1.3-4.4
		c-0.9-1-1.9-1.5-3.1-1.5c-1.2,0-2.2,0.5-3.1,1.5C483,265.3,482.6,266.7,482.6,268.7z"/>
	<path class="st1" d="M498,257.9v-3.1h2.7v3.1H498z M498,277v-16h2.7v16H498z"/>
	<path class="st1" d="M510.8,274.5l0.4,2.4c-0.8,0.2-1.4,0.2-2.1,0.2c-1,0-1.8-0.2-2.3-0.5c-0.5-0.3-0.9-0.7-1.1-1.2
		c-0.2-0.5-0.3-1.6-0.3-3.2V263h-2v-2.1h2v-4l2.7-1.6v5.6h2.7v2.1h-2.7v9.4c0,0.8,0,1.3,0.1,1.5c0.1,0.2,0.3,0.4,0.5,0.5
		c0.2,0.1,0.5,0.2,0.9,0.2C509.9,274.6,510.3,274.6,510.8,274.5z"/>
	<path class="st1" d="M524,277v-2.4c-1.3,1.8-2.9,2.7-5.1,2.7c-0.9,0-1.8-0.2-2.7-0.5c-0.8-0.4-1.4-0.8-1.8-1.4
		c-0.4-0.5-0.7-1.2-0.8-2c-0.1-0.5-0.2-1.4-0.2-2.5v-9.9h2.7v8.9c0,1.4,0.1,2.4,0.2,2.9c0.2,0.7,0.5,1.3,1.1,1.7
		c0.6,0.4,1.2,0.6,2.1,0.6c0.8,0,1.6-0.2,2.3-0.6c0.7-0.4,1.2-1,1.5-1.7c0.3-0.7,0.4-1.8,0.4-3.1v-8.6h2.7v16H524z"/>
	<path class="st1" d="M541.1,277v-2c-1,1.6-2.5,2.4-4.5,2.4c-1.3,0-2.5-0.4-3.5-1.1c-1.1-0.7-1.9-1.7-2.5-3
		c-0.6-1.3-0.9-2.7-0.9-4.4c0-1.6,0.3-3.1,0.8-4.4c0.5-1.3,1.3-2.3,2.4-3c1.1-0.7,2.3-1,3.6-1c1,0,1.8,0.2,2.6,0.6
		c0.8,0.4,1.4,0.9,1.8,1.6v-7.9h2.7V277H541.1z M532.5,269c0,2.1,0.4,3.6,1.3,4.6c0.9,1,1.9,1.5,3.1,1.5c1.2,0,2.2-0.5,3-1.5
		c0.8-1,1.2-2.5,1.2-4.4c0-2.2-0.4-3.8-1.3-4.8c-0.8-1-1.9-1.5-3.1-1.5c-1.2,0-2.2,0.5-3,1.5C532.9,265.3,532.5,266.8,532.5,269z"/>
	<path class="st1" d="M547.9,257.9v-3.1h2.7v3.1H547.9z M547.9,277v-16h2.7v16H547.9z"/>
	<path class="st1" d="M554.7,277v-16h2.4v2.3c1.2-1.8,2.9-2.6,5.1-2.6c1,0,1.9,0.2,2.7,0.5c0.8,0.4,1.4,0.8,1.8,1.4
		c0.4,0.6,0.7,1.2,0.8,2c0.1,0.5,0.2,1.4,0.2,2.6v9.9h-2.7v-9.8c0-1.1-0.1-1.9-0.3-2.5c-0.2-0.5-0.6-1-1.1-1.3
		c-0.5-0.3-1.2-0.5-1.9-0.5c-1.2,0-2.2,0.4-3,1.1c-0.8,0.7-1.3,2.1-1.3,4.2v8.8H554.7z"/>
	<path class="st1" d="M582.4,275c-1,0.9-2,1.5-2.9,1.8c-0.9,0.4-1.9,0.5-3,0.5c-1.8,0-3.1-0.4-4.1-1.3c-0.9-0.9-1.4-2-1.4-3.3
		c0-0.8,0.2-1.5,0.5-2.1c0.4-0.7,0.8-1.2,1.4-1.6c0.6-0.4,1.2-0.7,2-0.9c0.5-0.1,1.3-0.3,2.4-0.4c2.2-0.3,3.8-0.6,4.8-0.9
		c0-0.4,0-0.6,0-0.7c0-1.1-0.3-1.9-0.8-2.3c-0.7-0.6-1.7-0.9-3.1-0.9c-1.3,0-2.2,0.2-2.8,0.7c-0.6,0.4-1.1,1.2-1.4,2.4l-2.7-0.4
		c0.2-1.1,0.6-2.1,1.2-2.8c0.6-0.7,1.4-1.2,2.4-1.6c1-0.4,2.3-0.6,3.6-0.6c1.4,0,2.5,0.2,3.3,0.5c0.9,0.3,1.5,0.7,1.9,1.2
		c0.4,0.5,0.7,1.1,0.8,1.8c0.1,0.5,0.1,1.3,0.1,2.5v3.6c0,2.5,0.1,4.1,0.2,4.8c0.1,0.7,0.3,1.3,0.7,1.9H583
		C582.7,276.4,582.5,275.7,582.4,275z M582.2,268.9c-1,0.4-2.5,0.7-4.4,1c-1.1,0.2-1.9,0.3-2.4,0.5c-0.5,0.2-0.8,0.5-1.1,0.9
		c-0.3,0.4-0.4,0.8-0.4,1.3c0,0.7,0.3,1.3,0.8,1.8c0.5,0.5,1.4,0.7,2.4,0.7c1,0,2-0.2,2.8-0.7c0.8-0.5,1.4-1.1,1.8-1.9
		c0.3-0.6,0.4-1.5,0.4-2.7V268.9z"/>
	<path class="st1" d="M589.1,277v-22.1h2.7V277H589.1z"/>
	<path class="st1" d="M605,277v-22.1h9.8c2,0,3.5,0.2,4.5,0.6c1,0.4,1.8,1.1,2.5,2.1c0.6,1,0.9,2.1,0.9,3.3c0,1.6-0.5,2.9-1.5,4
		c-1,1.1-2.6,1.8-4.7,2.1c0.8,0.4,1.4,0.7,1.8,1.1c0.9,0.8,1.7,1.8,2.4,2.9l3.9,6h-3.7l-2.9-4.6c-0.9-1.3-1.6-2.3-2.1-3.1
		c-0.6-0.7-1-1.2-1.5-1.5c-0.4-0.3-0.9-0.5-1.3-0.6c-0.3-0.1-0.9-0.1-1.6-0.1h-3.4v9.8H605z M607.9,264.6h6.3c1.3,0,2.4-0.1,3.1-0.4
		c0.8-0.3,1.3-0.7,1.7-1.3c0.4-0.6,0.6-1.3,0.6-2c0-1-0.4-1.9-1.1-2.6c-0.8-0.7-2-1-3.6-1h-7V264.6z"/>
	<path class="st1" d="M637.9,271.8l2.8,0.3c-0.4,1.6-1.3,2.9-2.5,3.8c-1.2,0.9-2.7,1.4-4.6,1.4c-2.3,0-4.2-0.7-5.6-2.2
		c-1.4-1.4-2.1-3.5-2.1-6.1c0-2.7,0.7-4.8,2.1-6.3c1.4-1.5,3.2-2.2,5.4-2.2c2.1,0,3.9,0.7,5.3,2.2c1.4,1.5,2,3.5,2,6.2
		c0,0.2,0,0.4,0,0.7h-12c0.1,1.8,0.6,3.1,1.5,4c0.9,0.9,2,1.4,3.4,1.4c1,0,1.8-0.3,2.6-0.8C636.9,273.8,637.5,272.9,637.9,271.8z
		 M629,267.4h9c-0.1-1.4-0.5-2.4-1-3c-0.9-1-2-1.6-3.4-1.6c-1.3,0-2.3,0.4-3.1,1.3C629.6,264.9,629.1,266,629,267.4z"/>
	<path class="st1" d="M654.6,271.1l2.7,0.3c-0.3,1.8-1,3.3-2.2,4.3c-1.2,1-2.7,1.6-4.4,1.6c-2.2,0-4-0.7-5.3-2.2
		c-1.3-1.4-2-3.5-2-6.2c0-1.7,0.3-3.2,0.9-4.5c0.6-1.3,1.4-2.3,2.6-2.9c1.2-0.7,2.4-1,3.8-1c1.7,0,3.2,0.4,4.3,1.3
		c1.1,0.9,1.8,2.1,2.1,3.8l-2.6,0.4c-0.3-1.1-0.7-1.9-1.3-2.4c-0.6-0.5-1.4-0.8-2.3-0.8c-1.4,0-2.5,0.5-3.3,1.5
		c-0.9,1-1.3,2.5-1.3,4.7c0,2.2,0.4,3.7,1.2,4.7c0.8,1,1.9,1.5,3.2,1.5c1.1,0,2-0.3,2.7-1C654,273.4,654.4,272.4,654.6,271.1z"/>
	<path class="st1" d="M658.6,268.9c0-3,0.8-5.2,2.5-6.6c1.4-1.2,3.1-1.8,5-1.8c2.2,0,4,0.7,5.4,2.2c1.4,1.4,2.1,3.4,2.1,6
		c0,2.1-0.3,3.7-0.9,4.9c-0.6,1.2-1.5,2.1-2.7,2.8c-1.2,0.7-2.5,1-3.9,1c-2.2,0-4.1-0.7-5.4-2.2
		C659.3,273.7,658.6,271.6,658.6,268.9z M661.4,268.9c0,2.1,0.4,3.6,1.3,4.6c0.9,1,2,1.5,3.4,1.5c1.4,0,2.5-0.5,3.4-1.5
		c0.9-1,1.3-2.6,1.3-4.7c0-2-0.4-3.5-1.4-4.5c-0.9-1-2-1.5-3.4-1.5c-1.4,0-2.5,0.5-3.4,1.5C661.8,265.3,661.4,266.9,661.4,268.9z"/>
	<path class="st1" d="M676.8,277v-16h2.4v2.4c0.6-1.1,1.2-1.9,1.7-2.3c0.5-0.4,1.1-0.5,1.7-0.5c0.9,0,1.8,0.3,2.8,0.9l-0.9,2.5
		c-0.7-0.4-1.3-0.6-2-0.6c-0.6,0-1.1,0.2-1.6,0.5c-0.5,0.4-0.8,0.9-1,1.5c-0.3,1-0.5,2-0.5,3.2v8.4H676.8z"/>
	<path class="st1" d="M697.5,277v-2c-1,1.6-2.5,2.4-4.5,2.4c-1.3,0-2.5-0.4-3.5-1.1c-1.1-0.7-1.9-1.7-2.5-3
		c-0.6-1.3-0.9-2.7-0.9-4.4c0-1.6,0.3-3.1,0.8-4.4c0.5-1.3,1.3-2.3,2.4-3c1.1-0.7,2.3-1,3.6-1c1,0,1.8,0.2,2.6,0.6
		c0.8,0.4,1.4,0.9,1.8,1.6v-7.9h2.7V277H697.5z M688.9,269c0,2.1,0.4,3.6,1.3,4.6c0.9,1,1.9,1.5,3.1,1.5c1.2,0,2.2-0.5,3-1.5
		c0.8-1,1.2-2.5,1.2-4.4c0-2.2-0.4-3.8-1.3-4.8c-0.8-1-1.9-1.5-3.1-1.5c-1.2,0-2.2,0.5-3,1.5C689.3,265.3,688.9,266.8,688.9,269z"/>
	<path class="st1" d="M712.8,277v-22.1h2.7V277H712.8z"/>
	<path class="st1" d="M719.8,257.9v-3.1h2.7v3.1H719.8z M719.8,277v-16h2.7v16H719.8z"/>
	<path class="st1" d="M726.6,277v-16h2.4v2.3c1.2-1.8,2.9-2.6,5.1-2.6c1,0,1.9,0.2,2.7,0.5c0.8,0.4,1.4,0.8,1.8,1.4
		c0.4,0.6,0.7,1.2,0.8,2c0.1,0.5,0.2,1.4,0.2,2.6v9.9h-2.7v-9.8c0-1.1-0.1-1.9-0.3-2.5c-0.2-0.5-0.6-1-1.1-1.3
		c-0.5-0.3-1.2-0.5-1.9-0.5c-1.2,0-2.2,0.4-3,1.1c-0.8,0.7-1.3,2.1-1.3,4.2v8.8H726.6z"/>
	<path class="st1" d="M743.8,277v-22.1h2.7v12.6l6.4-6.5h3.5l-6.1,6l6.7,10.1h-3.4l-5.3-8.2l-1.9,1.8v6.4H743.8z"/>
	<path class="st1" d="M769.8,275c-1,0.9-2,1.5-2.9,1.8c-0.9,0.4-1.9,0.5-3,0.5c-1.8,0-3.1-0.4-4.1-1.3c-0.9-0.9-1.4-2-1.4-3.3
		c0-0.8,0.2-1.5,0.5-2.1c0.4-0.7,0.8-1.2,1.4-1.6c0.6-0.4,1.2-0.7,2-0.9c0.5-0.1,1.3-0.3,2.4-0.4c2.2-0.3,3.8-0.6,4.8-0.9
		c0-0.4,0-0.6,0-0.7c0-1.1-0.3-1.9-0.8-2.3c-0.7-0.6-1.7-0.9-3.1-0.9c-1.3,0-2.2,0.2-2.8,0.7c-0.6,0.4-1.1,1.2-1.4,2.4l-2.7-0.4
		c0.2-1.1,0.6-2.1,1.2-2.8c0.6-0.7,1.4-1.2,2.4-1.6c1-0.4,2.3-0.6,3.6-0.6c1.4,0,2.5,0.2,3.3,0.5c0.9,0.3,1.5,0.7,1.9,1.2
		c0.4,0.5,0.7,1.1,0.8,1.8c0.1,0.5,0.1,1.3,0.1,2.5v3.6c0,2.5,0.1,4.1,0.2,4.8c0.1,0.7,0.3,1.3,0.7,1.9h-2.8
		C770,276.4,769.8,275.7,769.8,275z M769.5,268.9c-1,0.4-2.5,0.7-4.4,1c-1.1,0.2-1.9,0.3-2.4,0.5c-0.5,0.2-0.8,0.5-1.1,0.9
		c-0.3,0.4-0.4,0.8-0.4,1.3c0,0.7,0.3,1.3,0.8,1.8c0.5,0.5,1.4,0.7,2.4,0.7c1,0,2-0.2,2.8-0.7c0.8-0.5,1.4-1.1,1.8-1.9
		c0.3-0.6,0.4-1.5,0.4-2.7V268.9z"/>
	<path class="st1" d="M776,278.3l2.6,0.4c0.1,0.8,0.4,1.4,0.9,1.8c0.7,0.5,1.6,0.8,2.8,0.8c1.3,0,2.2-0.3,2.9-0.8
		c0.7-0.5,1.1-1.2,1.4-2.1c0.1-0.6,0.2-1.7,0.2-3.5c-1.2,1.4-2.7,2.1-4.4,2.1c-2.2,0-3.9-0.8-5.1-2.4c-1.2-1.6-1.8-3.5-1.8-5.7
		c0-1.5,0.3-2.9,0.8-4.2c0.6-1.3,1.4-2.3,2.4-3c1.1-0.7,2.3-1.1,3.7-1.1c1.9,0,3.5,0.8,4.7,2.3v-1.9h2.5v13.9c0,2.5-0.3,4.3-0.8,5.3
		c-0.5,1-1.3,1.9-2.4,2.5c-1.1,0.6-2.5,0.9-4.1,0.9c-1.9,0-3.5-0.4-4.6-1.3C776.5,281.3,776,280,776,278.3z M778.2,268.7
		c0,2.1,0.4,3.6,1.3,4.6c0.8,1,1.9,1.4,3.1,1.4c1.2,0,2.3-0.5,3.1-1.4c0.8-1,1.3-2.5,1.3-4.5c0-2-0.4-3.4-1.3-4.4
		c-0.9-1-1.9-1.5-3.1-1.5c-1.2,0-2.2,0.5-3.1,1.5C778.7,265.3,778.2,266.7,778.2,268.7z"/>
	<path class="st1" d="M804.7,271.8l2.8,0.3c-0.4,1.6-1.3,2.9-2.5,3.8c-1.2,0.9-2.7,1.4-4.6,1.4c-2.3,0-4.2-0.7-5.6-2.2
		c-1.4-1.4-2.1-3.5-2.1-6.1c0-2.7,0.7-4.8,2.1-6.3c1.4-1.5,3.2-2.2,5.4-2.2c2.1,0,3.9,0.7,5.3,2.2c1.4,1.5,2,3.5,2,6.2
		c0,0.2,0,0.4,0,0.7h-12c0.1,1.8,0.6,3.1,1.5,4c0.9,0.9,2,1.4,3.4,1.4c1,0,1.8-0.3,2.6-0.8C803.7,273.8,804.3,272.9,804.7,271.8z
		 M795.7,267.4h9c-0.1-1.4-0.5-2.4-1-3c-0.9-1-2-1.6-3.4-1.6c-1.3,0-2.3,0.4-3.1,1.3C796.3,264.9,795.8,266,795.7,267.4z"/>
	<path class="st1" d="M818.4,272.2l2.7-0.4c0.2,1.1,0.6,1.9,1.3,2.5c0.7,0.6,1.7,0.9,2.9,0.9c1.3,0,2.2-0.3,2.8-0.8
		c0.6-0.5,0.9-1.1,0.9-1.8c0-0.6-0.3-1.1-0.8-1.4c-0.4-0.2-1.3-0.5-2.8-0.9c-2-0.5-3.4-0.9-4.1-1.3c-0.8-0.4-1.4-0.9-1.8-1.5
		c-0.4-0.7-0.6-1.4-0.6-2.2c0-0.7,0.2-1.4,0.5-2c0.3-0.6,0.8-1.1,1.3-1.5c0.4-0.3,1-0.6,1.7-0.8c0.7-0.2,1.5-0.3,2.3-0.3
		c1.3,0,2.4,0.2,3.3,0.5c1,0.4,1.7,0.9,2.1,1.5c0.5,0.6,0.8,1.4,0.9,2.5l-2.7,0.4c-0.1-0.8-0.5-1.5-1.1-1.9
		c-0.6-0.5-1.4-0.7-2.5-0.7c-1.3,0-2.1,0.2-2.7,0.6c-0.5,0.4-0.8,0.9-0.8,1.4c0,0.4,0.1,0.7,0.3,1c0.2,0.3,0.6,0.5,1,0.7
		c0.3,0.1,1.1,0.3,2.4,0.7c1.9,0.5,3.3,0.9,4,1.3c0.8,0.3,1.4,0.8,1.8,1.4c0.4,0.6,0.6,1.4,0.6,2.3c0,0.9-0.3,1.8-0.8,2.6
		c-0.5,0.8-1.3,1.4-2.3,1.9c-1,0.4-2.1,0.7-3.4,0.7c-2.1,0-3.7-0.4-4.8-1.3C819.4,275.2,818.7,273.9,818.4,272.2z"/>
	<path class="st1" d="M840.9,274.5l0.4,2.4c-0.8,0.2-1.4,0.2-2.1,0.2c-1,0-1.8-0.2-2.3-0.5c-0.5-0.3-0.9-0.7-1.1-1.2
		c-0.2-0.5-0.3-1.6-0.3-3.2V263h-2v-2.1h2v-4l2.7-1.6v5.6h2.7v2.1h-2.7v9.4c0,0.8,0,1.3,0.1,1.5c0.1,0.2,0.3,0.4,0.5,0.5
		c0.2,0.1,0.5,0.2,0.9,0.2C840,274.6,840.4,274.6,840.9,274.5z"/>
	<path class="st1" d="M854.1,277v-2.4c-1.2,1.8-2.9,2.7-5.1,2.7c-0.9,0-1.8-0.2-2.6-0.5c-0.8-0.4-1.4-0.8-1.8-1.4
		c-0.4-0.5-0.7-1.2-0.8-2c-0.1-0.5-0.2-1.4-0.2-2.5v-9.9h2.7v8.9c0,1.4,0.1,2.4,0.2,2.9c0.2,0.7,0.5,1.3,1.1,1.7
		c0.6,0.4,1.2,0.6,2.1,0.6c0.8,0,1.6-0.2,2.3-0.6c0.7-0.4,1.2-1,1.5-1.7c0.3-0.7,0.4-1.8,0.4-3.1v-8.6h2.7v16H854.1z"/>
	<path class="st1" d="M871.1,277v-2c-1,1.6-2.5,2.4-4.5,2.4c-1.3,0-2.5-0.4-3.5-1.1c-1.1-0.7-1.9-1.7-2.5-3
		c-0.6-1.3-0.9-2.7-0.9-4.4c0-1.6,0.3-3.1,0.8-4.4c0.5-1.3,1.3-2.3,2.4-3c1.1-0.7,2.3-1,3.6-1c1,0,1.8,0.2,2.6,0.6
		c0.8,0.4,1.4,0.9,1.8,1.6v-7.9h2.7V277H871.1z M862.6,269c0,2.1,0.4,3.6,1.3,4.6c0.9,1,1.9,1.5,3.1,1.5c1.2,0,2.2-0.5,3-1.5
		c0.8-1,1.2-2.5,1.2-4.4c0-2.2-0.4-3.8-1.3-4.8c-0.8-1-1.9-1.5-3.1-1.5c-1.2,0-2.2,0.5-3,1.5C863,265.3,862.6,266.8,862.6,269z"/>
	<path class="st1" d="M877.8,283.1l-0.3-2.6c0.6,0.2,1.1,0.2,1.6,0.2c0.6,0,1.1-0.1,1.4-0.3c0.4-0.2,0.7-0.5,0.9-0.8
		c0.2-0.3,0.4-1,0.8-2c0.1-0.2,0.1-0.4,0.2-0.7l-6.1-16.1h2.9l3.3,9.3c0.4,1.2,0.8,2.4,1.2,3.7c0.3-1.2,0.7-2.5,1.1-3.7l3.4-9.3h2.7
		l-6.1,16.3c-0.7,1.8-1.2,3-1.5,3.6c-0.5,0.9-1,1.5-1.7,2c-0.6,0.4-1.4,0.6-2.2,0.6C879,283.5,878.5,283.4,877.8,283.1z"/>
</g>
</svg>
