<?xml version="1.0" encoding="utf-8"?>
<!-- Generator: Adobe Illustrator 15.1.0, SVG Export Plug-In . SVG Version: 6.00 Build 0)  -->
<!DOCTYPE svg PUBLIC "-//W3C//DTD SVG 1.1//EN" "http://www.w3.org/Graphics/SVG/1.1/DTD/svg11.dtd">
<svg version="1.1" id="Layer_1" xmlns="http://www.w3.org/2000/svg" xmlns:xlink="http://www.w3.org/1999/xlink" x="0px" y="0px"
	 width="380.137px" height="213.178px" viewBox="0 0 380.137 213.178" enable-background="new 0 0 380.137 213.178"
	 xml:space="preserve">
<g>
	<path fill="#E3E3E3" d="M147.816,158.045c0,0-11.069,0-11.069,11.07v32.413c0,0,0,11.069,11.069,11.069h32.414
		c0,0,11.069,0,11.069-11.069v-32.413c0,0,0-11.07-11.069-11.07H147.816L147.816,158.045z"/>
	<path fill="none" stroke="#EDEDED" stroke-width="0.5785" d="M147.816,158.045c0,0-11.069,0-11.069,11.07v32.413
		c0,0,0,11.069,11.069,11.069h32.414c0,0,11.069,0,11.069-11.069v-32.413c0,0,0-11.07-11.069-11.07H147.816L147.816,158.045z"/>
	<path fill="#DDDFF1" d="M210.571,158.045c0,0-11.068,0-11.068,11.07v32.413c0,0,0,11.069,11.068,11.069h32.412
		c0,0,11.072,0,11.072-11.069v-32.413c0,0,0-11.07-11.072-11.07H210.571L210.571,158.045z"/>
	<path fill="none" stroke="#E8EAF6" stroke-width="0.5785" d="M210.571,158.045c0,0-11.068,0-11.068,11.07v32.413
		c0,0,0,11.069,11.068,11.069h32.412c0,0,11.072,0,11.072-11.069v-32.413c0,0,0-11.07-11.072-11.07H210.571L210.571,158.045z"/>
	<path fill="#D1D5EC" d="M273.325,158.045c0,0-11.066,0-11.066,11.07v32.413c0,0,0,11.069,11.066,11.069h32.412
		c0,0,11.072,0,11.072-11.069v-32.413c0,0,0-11.07-11.072-11.07H273.325L273.325,158.045z"/>
	<path fill="none" stroke="#DDDFF1" stroke-width="0.5785" d="M273.325,158.045c0,0-11.066,0-11.066,11.07v32.413
		c0,0,0,11.069,11.066,11.069h32.412c0,0,11.072,0,11.072-11.069v-32.413c0,0,0-11.07-11.072-11.07H273.325L273.325,158.045z"/>
	<path fill="#E3E3E3" d="M336.079,158.045c0,0-11.068,0-11.068,11.07v32.413c0,0,0,11.069,11.068,11.069h32.41
		c0,0,11.072,0,11.072-11.069v-32.413c0,0,0-11.07-11.072-11.07H336.079L336.079,158.045z"/>
	<path fill="none" stroke="#EDEDED" stroke-width="0.5785" d="M336.079,158.045c0,0-11.068,0-11.068,11.07v32.413
		c0,0,0,11.069,11.068,11.069h32.41c0,0,11.072,0,11.072-11.069v-32.413c0,0,0-11.07-11.072-11.07H336.079L336.079,158.045z"/>
	<path fill="#E3E3E3" d="M11.07,0C11.07,0,0,0,0,11.07v32.41c0,0,0,11.07,11.07,11.07h32.413c0,0,11.07,0,11.07-11.07V11.07
		c0,0,0-11.07-11.07-11.07H11.07L11.07,0z"/>
	<path fill="none" stroke="#EDEDED" stroke-width="0.5785" d="M11.07,0C11.07,0,0,0,0,11.07v32.41c0,0,0,11.07,11.07,11.07h32.413
		c0,0,11.07,0,11.07-11.07V11.07c0,0,0-11.07-11.07-11.07H11.07L11.07,0z"/>
	<path fill="#DDDFF1" d="M73.82,0c0,0-11.069,0-11.069,11.07v32.41c0,0,0,11.07,11.069,11.07h32.415c0,0,11.07,0,11.07-11.07V11.07
		c0,0,0-11.07-11.07-11.07H73.82L73.82,0z"/>
	<path fill="none" stroke="#E8EAF6" stroke-width="0.5785" d="M73.82,0c0,0-11.069,0-11.069,11.07v32.41c0,0,0,11.07,11.069,11.07
		h32.415c0,0,11.07,0,11.07-11.07V11.07c0,0,0-11.07-11.07-11.07H73.82L73.82,0z"/>
	<path fill="#D1D5EC" d="M136.573,0c0,0-11.07,0-11.07,11.07v32.41c0,0,0,11.07,11.07,11.07h32.413c0,0,11.07,0,11.07-11.07V11.07
		c0,0,0-11.07-11.07-11.07H136.573L136.573,0z"/>
	<path fill="none" stroke="#DDDFF1" stroke-width="0.5785" d="M136.573,0c0,0-11.07,0-11.07,11.07v32.41c0,0,0,11.07,11.07,11.07
		h32.413c0,0,11.07,0,11.07-11.07V11.07c0,0,0-11.07-11.07-11.07H136.573L136.573,0z"/>
	<path fill="#E3E3E3" d="M199.327,0c0,0-11.069,0-11.069,11.07v32.41c0,0,0,11.07,11.069,11.07h32.416c0,0,11.07,0,11.07-11.07
		V11.07c0,0,0-11.07-11.07-11.07H199.327L199.327,0z"/>
	<path fill="none" stroke="#EDEDED" stroke-width="0.5785" d="M199.327,0c0,0-11.069,0-11.069,11.07v32.41c0,0,0,11.07,11.069,11.07
		h32.416c0,0,11.07,0,11.07-11.07V11.07c0,0,0-11.07-11.07-11.07H199.327L199.327,0z"/>
	<path fill="#004996" d="M249.026,127.223c0.789,0.852,1.816,1.282,3.084,1.282c1.248,0,2.275-0.432,3.08-1.293
		c0.813-0.861,1.213-2.172,1.213-3.921v-13.403l10.58-16.229c0.885-1.325,1.51-2.362,1.877-3.113
		c0.363-0.752,0.547-1.499,0.547-2.252c0-0.926-0.359-1.731-1.08-2.437c-0.723-0.7-1.623-1.05-2.699-1.05
		c-0.691,0-1.281,0.126-1.758,0.375c-0.484,0.251-0.92,0.608-1.311,1.081c-0.396,0.474-0.752,0.976-1.084,1.516
		c-0.324,0.54-0.732,1.199-1.207,1.99l-7.986,12.828l-7.898-12.828c-1.207-1.983-2.119-3.302-2.723-3.963s-1.492-0.993-2.666-0.993
		c-1.113,0-2.053,0.354-2.811,1.064c-0.756,0.711-1.137,1.557-1.137,2.536c0,0.591,0.188,1.292,0.564,2.105
		c0.377,0.805,1.018,1.926,1.914,3.371l10.318,15.997v13.405C247.848,125.058,248.241,126.37,249.026,127.223 M211.413,91.957
		c3.113,0,5.428,0.35,6.949,1.054c1.52,0.702,2.275,2.115,2.275,4.252c0,0.999-0.238,1.902-0.725,2.705
		c-0.611,1.132-1.504,1.903-2.662,2.306c-1.164,0.399-2.813,0.605-4.945,0.605h-7.84V91.951L211.413,91.957L211.413,91.957z
		 M220.088,110.463c1.502,0.956,2.252,2.511,2.252,4.643c0,4.172-2.893,6.254-8.678,6.254h-9.197v-12.342h8.906
		C216.348,109.02,218.588,109.5,220.088,110.463 M219.86,127.458c1.668-0.222,3.148-0.6,4.438-1.142
		c2.061-0.903,3.688-2.298,4.9-4.194c1.213-1.895,1.814-4.023,1.814-6.387c0-5.104-2.779-8.549-8.328-10.319
		c4.225-1.96,6.34-5.053,6.34-9.281c0-1.232-0.201-2.397-0.604-3.504c-0.4-1.103-0.992-2.112-1.758-3.023
		c-0.768-0.914-1.65-1.667-2.65-2.26c-1.176-0.714-2.5-1.197-3.98-1.443c-1.479-0.252-3.229-0.38-5.246-0.38h-13.688
		c-1.826,0-3.145,0.407-3.961,1.225c-0.816,0.818-1.229,2.159-1.229,4.024v31.765c0,1.826,0.4,3.156,1.197,3.99
		c0.799,0.84,2.129,1.254,3.992,1.254h12.914C216.237,127.785,218.186,127.676,219.86,127.458 M178.335,114.986
		c-1.089,2.292-2.546,3.982-4.384,5.074c-1.833,1.098-3.85,1.644-6.04,1.644c-1.711,0-3.28-0.318-4.713-0.95
		c-1.431-0.635-2.702-1.589-3.806-2.866c-1.107-1.281-1.961-2.888-2.563-4.827c-0.608-1.939-0.91-4.115-0.91-6.515
		c0-2.381,0.302-4.532,0.91-6.441c0.604-1.908,1.429-3.481,2.478-4.709s2.295-2.17,3.748-2.813c1.453-0.642,3.031-0.963,4.742-0.963
		c2.403,0,4.531,0.578,6.385,1.744c1.854,1.163,3.279,2.878,4.278,5.146c0.999,2.261,1.499,4.946,1.499,8.039
		C179.962,109.887,179.419,112.703,178.335,114.986 M159.152,86.322c-2.533,1.01-4.689,2.466-6.459,4.369
		c-1.768,1.905-3.116,4.207-4.047,6.915c-0.932,2.709-1.397,5.689-1.397,8.938c0,3.169,0.444,6.119,1.339,8.849
		c0.895,2.73,2.215,5.063,3.965,7.005c1.746,1.94,3.932,3.444,6.543,4.512c2.612,1.065,5.574,1.6,8.879,1.6
		c3.322,0,6.273-0.516,8.85-1.555c2.574-1.035,4.742-2.534,6.512-4.492c1.77-1.963,3.094-4.276,3.979-6.949
		c0.884-2.673,1.326-5.64,1.326-8.905c0-4.419-0.806-8.271-2.422-11.547c-1.613-3.276-3.99-5.8-7.132-7.579
		c-3.144-1.779-6.903-2.666-11.284-2.666C164.568,84.809,161.684,85.313,159.152,86.322 M143.816,91.624
		c0.729-0.644,1.097-1.492,1.097-2.55c0-1.057-0.36-1.909-1.083-2.564c-0.721-0.654-1.816-0.981-3.301-0.981h-27.213
		c-1.403,0-2.475,0.319-3.215,0.949c-0.742,0.634-1.106,1.499-1.106,2.597c0,1.058,0.354,1.906,1.067,2.55
		c0.707,0.648,1.795,0.97,3.256,0.97h9.339v30.695c0,1.746,0.399,3.058,1.198,3.92c0.797,0.864,1.828,1.294,3.099,1.294
		c1.248,0,2.265-0.425,3.056-1.283c0.788-0.854,1.184-2.172,1.184-3.938V92.59h9.34C141.994,92.594,143.085,92.269,143.816,91.624"
		/>
	<g>
		<path fill="#004996" d="M284.278,189.966H94.902c-15.792,0-21.522-12.872-21.522-21.521V44.149
			c0-15.79,12.873-21.522,21.522-21.522h189.374c15.793,0,21.521,12.873,21.521,21.522v124.298
			C305.799,184.235,292.924,189.966,284.278,189.966z M94.902,32.466c-1.922,0.026-11.684,0.715-11.684,11.684v124.298
			c0.025,1.922,0.715,11.685,11.684,11.685H284.25c1.98-0.031,11.711-0.734,11.711-11.685V44.149
			c-0.031-1.924-0.717-11.682-11.686-11.682H94.902V32.466z"/>
	</g>
</g>
</svg>
