<?xml version="1.0" encoding="utf-8"?>
<!-- Generator: Adobe Illustrator 15.1.0, SVG Export Plug-In . SVG Version: 6.00 Build 0)  -->
<!DOCTYPE svg PUBLIC "-//W3C//DTD SVG 1.1//EN" "http://www.w3.org/Graphics/SVG/1.1/DTD/svg11.dtd">
<svg version="1.1" id="Layer_1" xmlns="http://www.w3.org/2000/svg" xmlns:xlink="http://www.w3.org/1999/xlink" x="0px" y="0px"
	 width="506.663px" height="284.042px" viewBox="-0.289 -35.723 506.663 284.042"
	 enable-background="new -0.289 -35.723 506.663 284.042" xml:space="preserve">
<g>
	<path fill="#E3E3E3" d="M197.09,175.294c0,0-14.759,0-14.759,14.761v43.218c0,0,0,14.758,14.759,14.758h43.219
		c0,0,14.759,0,14.759-14.758v-43.218c0,0,0-14.761-14.759-14.761H197.09L197.09,175.294z"/>
	<path fill="none" stroke="#EDEDED" stroke-width="0.5785" d="M197.09,175.294c0,0-14.759,0-14.759,14.761v43.218
		c0,0,0,14.758,14.759,14.758h43.219c0,0,14.759,0,14.759-14.758v-43.218c0,0,0-14.761-14.759-14.761H197.09L197.09,175.294z"/>
	<path fill="#DDDFF1" d="M280.763,175.294c0,0-14.757,0-14.757,14.761v43.218c0,0,0,14.758,14.757,14.758h43.217
		c0,0,14.763,0,14.763-14.758v-43.218c0,0,0-14.761-14.763-14.761H280.763L280.763,175.294z"/>
	<path fill="none" stroke="#E8EAF6" stroke-width="0.5785" d="M280.763,175.294c0,0-14.757,0-14.757,14.761v43.218
		c0,0,0,14.758,14.757,14.758h43.217c0,0,14.763,0,14.763-14.758v-43.218c0,0,0-14.761-14.763-14.761H280.763L280.763,175.294z"/>
	<path fill="#D1D5EC" d="M364.437,175.294c0,0-14.755,0-14.755,14.761v43.218c0,0,0,14.758,14.755,14.758h43.217
		c0,0,14.762,0,14.762-14.758v-43.218c0,0,0-14.761-14.762-14.761H364.437L364.437,175.294z"/>
	<path fill="none" stroke="#DDDFF1" stroke-width="0.5785" d="M364.437,175.294c0,0-14.755,0-14.755,14.761v43.218
		c0,0,0,14.758,14.755,14.758h43.217c0,0,14.762,0,14.762-14.758v-43.218c0,0,0-14.761-14.762-14.761H364.437L364.437,175.294z"/>
	<path fill="#E3E3E3" d="M448.109,175.294c0,0-14.758,0-14.758,14.761v43.218c0,0,0,14.758,14.758,14.758h43.214
		c0,0,14.762,0,14.762-14.758v-43.218c0,0,0-14.761-14.762-14.761H448.109L448.109,175.294z"/>
	<path fill="none" stroke="#EDEDED" stroke-width="0.5785" d="M448.109,175.294c0,0-14.758,0-14.758,14.761v43.218
		c0,0,0,14.758,14.758,14.758h43.214c0,0,14.762,0,14.762-14.758v-43.218c0,0,0-14.761-14.762-14.761H448.109L448.109,175.294z"/>
	<path fill="#E3E3E3" d="M14.76-35.434c0,0-14.76,0-14.76,14.76V22.54c0,0,0,14.76,14.76,14.76h43.218c0,0,14.761,0,14.761-14.76
		v-43.214c0,0,0-14.76-14.761-14.76H14.76L14.76-35.434z"/>
	<path fill="none" stroke="#EDEDED" stroke-width="0.5785" d="M14.76-35.434c0,0-14.76,0-14.76,14.76V22.54c0,0,0,14.76,14.76,14.76
		h43.218c0,0,14.761,0,14.761-14.76v-43.214c0,0,0-14.76-14.761-14.76H14.76L14.76-35.434z"/>
	<path fill="#DDDFF1" d="M98.427-35.434c0,0-14.759,0-14.759,14.76V22.54c0,0,0,14.76,14.759,14.76h43.22c0,0,14.761,0,14.761-14.76
		v-43.214c0,0,0-14.76-14.761-14.76H98.427L98.427-35.434z"/>
	<path fill="none" stroke="#E8EAF6" stroke-width="0.5785" d="M98.427-35.434c0,0-14.759,0-14.759,14.76V22.54
		c0,0,0,14.76,14.759,14.76h43.22c0,0,14.761,0,14.761-14.76v-43.214c0,0,0-14.76-14.761-14.76H98.427L98.427-35.434z"/>
	<path fill="#D1D5EC" d="M182.099-35.434c0,0-14.76,0-14.76,14.76V22.54c0,0,0,14.76,14.76,14.76h43.217c0,0,14.761,0,14.761-14.76
		v-43.214c0,0,0-14.76-14.761-14.76H182.099L182.099-35.434z"/>
	<path fill="none" stroke="#DDDFF1" stroke-width="0.5785" d="M182.099-35.434c0,0-14.76,0-14.76,14.76V22.54
		c0,0,0,14.76,14.76,14.76h43.217c0,0,14.761,0,14.761-14.76v-43.214c0,0,0-14.76-14.761-14.76H182.099L182.099-35.434z"/>
	<path fill="#E3E3E3" d="M265.771-35.434c0,0-14.759,0-14.759,14.76V22.54c0,0,0,14.76,14.759,14.76h43.222c0,0,14.76,0,14.76-14.76
		v-43.214c0,0,0-14.76-14.76-14.76H265.771L265.771-35.434z"/>
	<path fill="none" stroke="#EDEDED" stroke-width="0.5785" d="M265.771-35.434c0,0-14.759,0-14.759,14.76V22.54
		c0,0,0,14.76,14.759,14.76h43.222c0,0,14.76,0,14.76-14.76v-43.214c0,0,0-14.76-14.76-14.76H265.771L265.771-35.434z"/>
	<path fill="#004996" d="M332.036,134.199c1.053,1.135,2.423,1.708,4.112,1.708c1.664,0,3.034-0.575,4.107-1.724
		c1.084-1.148,1.617-2.896,1.617-5.229v-17.871l14.106-21.638c1.181-1.767,2.015-3.149,2.503-4.151
		c0.484-1.002,0.73-1.999,0.73-3.002c0-1.234-0.479-2.308-1.44-3.25c-0.965-0.933-2.164-1.4-3.599-1.4
		c-0.921,0-1.707,0.168-2.344,0.5c-0.645,0.335-1.227,0.811-1.749,1.441c-0.527,0.632-1.003,1.302-1.445,2.021
		c-0.433,0.72-0.976,1.599-1.609,2.654l-10.647,17.104l-10.531-17.104c-1.609-2.644-2.824-4.403-3.63-5.284
		c-0.807-0.881-1.99-1.324-3.555-1.324c-1.484,0-2.738,0.472-3.749,1.419c-1.008,0.948-1.516,2.076-1.516,3.381
		c0,0.788,0.25,1.723,0.753,2.807c0.502,1.074,1.356,2.568,2.552,4.495l13.757,21.33v17.873
		C330.466,131.311,330.991,133.061,332.036,134.199 M281.887,87.176c4.149,0,7.236,0.467,9.264,1.405
		c2.027,0.936,3.034,2.82,3.034,5.67c0,1.332-0.317,2.536-0.966,3.606c-0.815,1.51-2.006,2.538-3.55,3.075
		c-1.552,0.532-3.75,0.807-6.594,0.807h-10.453V87.168L281.887,87.176L281.887,87.176z M293.453,111.852
		c2.002,1.274,3.002,3.348,3.002,6.191c0,5.563-3.856,8.338-11.57,8.338h-12.263v-16.455h11.875
		C288.466,109.928,291.453,110.567,293.453,111.852 M293.148,134.512c2.224-0.297,4.197-0.8,5.918-1.523
		c2.749-1.203,4.918-3.063,6.534-5.592c1.617-2.525,2.418-5.364,2.418-8.516c0-6.806-3.706-11.398-11.104-13.759
		c5.634-2.613,8.453-6.738,8.453-12.375c0-1.643-0.267-3.196-0.805-4.672c-0.534-1.471-1.323-2.815-2.344-4.03
		c-1.023-1.219-2.2-2.223-3.534-3.013c-1.567-0.953-3.333-1.596-5.306-1.924c-1.973-0.336-4.307-0.507-6.995-0.507h-18.251
		c-2.436,0-4.193,0.543-5.281,1.634c-1.089,1.09-1.639,2.879-1.639,5.365v42.354c0,2.435,0.534,4.207,1.597,5.318
		c1.065,1.121,2.839,1.674,5.323,1.674h17.217C288.317,134.947,290.916,134.802,293.148,134.512 M237.782,117.881
		c-1.452,3.058-3.395,5.311-5.846,6.766c-2.443,1.465-5.133,2.193-8.053,2.193c-2.281,0-4.374-0.425-6.284-1.268
		c-1.908-0.846-3.604-2.118-5.075-3.821c-1.476-1.708-2.614-3.851-3.417-6.435c-0.811-2.586-1.214-5.487-1.214-8.688
		c0-3.174,0.403-6.042,1.214-8.588c0.805-2.543,1.904-4.642,3.304-6.279c1.398-1.637,3.06-2.893,4.997-3.75
		c1.938-0.856,4.042-1.284,6.323-1.284c3.204,0,6.041,0.771,8.514,2.326c2.472,1.55,4.371,3.837,5.703,6.861
		c1.332,3.015,1.999,6.595,1.999,10.719C239.951,111.084,239.228,114.838,237.782,117.881 M212.204,79.664
		c-3.377,1.346-6.252,3.288-8.612,5.825c-2.357,2.541-4.154,5.609-5.396,9.22c-1.243,3.612-1.862,7.585-1.862,11.917
		c0,4.226,0.592,8.159,1.785,11.8c1.193,3.639,2.953,6.75,5.286,9.338c2.328,2.588,5.243,4.593,8.725,6.018
		c3.482,1.42,7.432,2.133,11.839,2.133c4.429,0,8.364-0.688,11.8-2.073c3.432-1.38,6.322-3.379,8.683-5.989
		c2.36-2.617,4.126-5.702,5.306-9.265c1.179-3.565,1.768-7.521,1.768-11.875c0-5.892-1.074-11.028-3.229-15.396
		c-2.151-4.368-5.32-7.733-9.51-10.105c-4.192-2.372-9.204-3.555-15.045-3.555C219.426,77.646,215.58,78.318,212.204,79.664
		 M191.756,86.732c0.973-0.859,1.463-1.99,1.463-3.4c0-1.409-0.48-2.545-1.443-3.419c-0.962-0.872-2.421-1.308-4.402-1.308h-36.284
		c-1.871,0-3.3,0.426-4.287,1.266c-0.99,0.845-1.475,1.999-1.475,3.463c0,1.41,0.472,2.541,1.422,3.4
		c0.943,0.864,2.394,1.293,4.341,1.293h12.453v40.927c0,2.328,0.532,4.078,1.597,5.227c1.063,1.152,2.438,1.726,4.132,1.726
		c1.664,0,3.021-0.566,4.074-1.71c1.051-1.14,1.579-2.897,1.579-5.251V88.02h12.454C189.327,88.025,190.781,87.592,191.756,86.732"
		/>
	<g>
		<path fill="#004996" d="M379.04,217.855H126.537c-21.056,0-28.696-17.162-28.696-28.695V23.432
			c0-21.053,17.164-28.696,28.696-28.696h252.5c21.059,0,28.695,17.165,28.695,28.696v165.732
			C407.735,210.215,390.568,217.855,379.04,217.855z M126.537,7.854c-2.563,0.035-15.579,0.954-15.579,15.579v165.733
			c0.034,2.563,0.954,15.579,15.579,15.579h252.466c2.641-0.04,15.615-0.978,15.615-15.579V23.432
			c-0.042-2.565-0.956-15.576-15.581-15.576h-252.5V7.854z"/>
	</g>
</g>
</svg>
