<?xml version="1.0" encoding="utf-8"?>
<!-- Generator: Adobe Illustrator 15.1.0, SVG Export Plug-In . SVG Version: 6.00 Build 0)  -->
<!DOCTYPE svg PUBLIC "-//W3C//DTD SVG 1.1//EN" "http://www.w3.org/Graphics/SVG/1.1/DTD/svg11.dtd">
<svg version="1.1" id="Layer_1" xmlns="http://www.w3.org/2000/svg" xmlns:xlink="http://www.w3.org/1999/xlink" x="0px" y="0px"
	 width="478.071px" height="284.086px" viewBox="-0.311 -35.743 478.071 284.086"
	 enable-background="new -0.311 -35.743 478.071 284.086" xml:space="preserve">
<g>
	<g>
		<path fill="#347822" d="M167.575,79.554h-12.247v40.261c0,2.316-0.524,4.041-1.552,5.156c-1.033,1.122-2.365,1.688-4.008,1.688
			c-1.664,0-3.019-0.565-4.067-1.702c-1.045-1.132-1.57-2.851-1.57-5.14V79.554h-12.244c-1.916,0-3.338-0.419-4.271-1.263
			c-0.932-0.847-1.401-1.957-1.401-3.348c0-1.435,0.484-2.57,1.458-3.399c0.972-0.831,2.377-1.25,4.213-1.25h35.686
			c1.945,0,3.382,0.428,4.329,1.287c0.944,0.858,1.418,1.979,1.418,3.367c0,1.389-0.479,2.502-1.435,3.348
			C170.927,79.132,169.497,79.554,167.575,79.554z"/>
		<path fill="#347822" d="M203.352,69.347c5.748,0,10.682,1.166,14.806,3.496c4.117,2.332,7.237,5.648,9.357,9.943
			c2.117,4.3,3.175,9.341,3.175,15.139c0,4.288-0.582,8.18-1.738,11.684c-1.159,3.499-2.898,6.536-5.215,9.106
			c-2.319,2.573-5.17,4.545-8.545,5.901c-3.376,1.356-7.25,2.039-11.607,2.039c-4.332,0-8.215-0.696-11.642-2.095
			c-3.425-1.4-6.289-3.366-8.581-5.916c-2.298-2.544-4.027-5.609-5.197-9.189c-1.175-3.583-1.757-7.448-1.757-11.61
			c0-4.257,0.609-8.163,1.833-11.717c1.223-3.557,2.991-6.58,5.312-9.073c2.314-2.5,5.139-4.411,8.464-5.73
			C195.338,70.008,199.115,69.347,203.352,69.347z M219.304,97.852c0-4.059-0.651-7.568-1.966-10.551
			c-1.308-2.971-3.182-5.22-5.611-6.746c-2.43-1.527-5.222-2.291-8.373-2.291c-2.247,0-4.313,0.417-6.217,1.266
			c-1.902,0.849-3.542,2.069-4.916,3.691c-1.371,1.606-2.458,3.672-3.252,6.182c-0.791,2.508-1.19,5.323-1.19,8.444
			c0,3.144,0.398,5.998,1.19,8.544c0.795,2.542,1.919,4.658,3.367,6.331c1.447,1.679,3.111,2.931,4.989,3.759
			c1.876,0.834,3.942,1.248,6.187,1.248c2.871,0,5.511-0.721,7.92-2.155c2.406-1.44,4.316-3.652,5.742-6.66
			C218.595,105.928,219.304,102.235,219.304,97.852z"/>
		<path fill="#347822" d="M263.949,125.715h-16.938c-2.443,0-4.19-0.541-5.237-1.641c-1.047-1.099-1.573-2.844-1.573-5.239v-41.66
			c0-2.44,0.531-4.198,1.604-5.271c1.071-1.073,2.801-1.607,5.196-1.607h17.953c2.651,0,4.94,0.167,6.883,0.491
			c1.948,0.326,3.681,0.958,5.216,1.894c1.313,0.781,2.475,1.772,3.484,2.971c1.006,1.196,1.776,2.522,2.3,3.965
			c0.534,1.448,0.793,2.98,0.793,4.594c0,5.543-2.773,9.6-8.315,12.172c7.279,2.318,10.921,6.83,10.921,13.529
			c0,3.104-0.794,5.89-2.384,8.375c-1.592,2.479-3.729,4.313-6.425,5.495c-1.694,0.705-3.63,1.203-5.829,1.492
			C269.435,125.566,266.875,125.715,263.949,125.715z M251.441,78.723v14.329h10.281c2.793,0,4.953-0.267,6.481-0.795
			c1.526-0.528,2.69-1.534,3.492-3.021c0.633-1.056,0.945-2.243,0.945-3.552c0-2.794-0.995-4.66-2.984-5.579
			c-1.992-0.923-5.027-1.378-9.114-1.378L251.441,78.723L251.441,78.723z M263.118,101.105h-11.675v16.18h12.061
			c7.584,0,11.38-2.734,11.38-8.204c0-2.797-0.984-4.822-2.948-6.083C269.969,101.733,267.024,101.105,263.118,101.105z"/>
		<path fill="#347822" d="M308.331,119.816v-17.579l-13.525-20.981c-1.193-1.891-2.028-3.363-2.523-4.42
			c-0.489-1.061-0.737-1.978-0.737-2.767c0-1.288,0.5-2.396,1.491-3.328c0.992-0.932,2.221-1.397,3.688-1.397
			c1.535,0,2.699,0.434,3.492,1.304c0.789,0.873,1.98,2.601,3.575,5.198l10.354,16.823l10.469-16.823
			c0.634-1.032,1.159-1.901,1.591-2.608c0.433-0.705,0.898-1.364,1.418-1.979c0.523-0.623,1.093-1.093,1.715-1.417
			c0.635-0.332,1.4-0.496,2.308-0.496c1.406,0,2.583,0.459,3.528,1.38c0.948,0.917,1.418,1.984,1.418,3.195
			c0,0.985-0.242,1.964-0.717,2.948c-0.479,0.985-1.301,2.342-2.452,4.08l-13.876,21.282v17.584c0,2.295-0.534,4.008-1.594,5.139
			c-1.058,1.133-2.412,1.703-4.05,1.703c-1.661,0-3.011-0.558-4.047-1.689C308.846,123.854,308.331,122.135,308.331,119.816z"/>
	</g>
	<g>
		<path fill="#347822" d="M148.202,155.832v4.698c0,1.139-0.283,1.997-0.853,2.564c-0.569,0.569-1.291,0.859-2.163,0.859
			c-0.861,0-1.568-0.29-2.123-0.867c-0.555-0.579-0.831-1.43-0.831-2.557v-15.671c0-2.53,0.971-3.796,2.903-3.796
			c0.995,0,1.709,0.295,2.146,0.89c0.435,0.585,0.674,1.465,0.721,2.618c0.711-1.153,1.445-2.028,2.195-2.618
			c0.753-0.59,1.75-0.89,3.008-0.89c1.25,0,2.471,0.295,3.651,0.89c1.183,0.59,1.772,1.371,1.772,2.347
			c0,0.691-0.25,1.256-0.756,1.703c-0.505,0.447-1.045,0.672-1.63,0.672c-0.216,0-0.75-0.127-1.587-0.385
			c-0.838-0.252-1.58-0.387-2.221-0.387c-0.873,0-1.585,0.218-2.139,0.65c-0.552,0.43-0.983,1.074-1.291,1.927
			c-0.304,0.858-0.52,1.866-0.636,3.039C148.252,152.696,148.202,154.14,148.202,155.832z"/>
		<path fill="#347822" d="M181.674,153.892h-11.671c0.015,1.279,0.29,2.409,0.823,3.382c0.531,0.972,1.237,1.71,2.12,2.195
			c0.88,0.504,1.854,0.749,2.917,0.749c0.712,0,1.361-0.078,1.952-0.234c0.59-0.156,1.163-0.412,1.716-0.749
			c0.55-0.332,1.062-0.696,1.529-1.085c0.468-0.385,1.072-0.903,1.813-1.567c0.305-0.25,0.745-0.37,1.312-0.37
			c0.612,0,1.109,0.159,1.484,0.473c0.377,0.312,0.564,0.765,0.564,1.346c0,0.508-0.206,1.106-0.635,1.781
			c-0.422,0.684-1.061,1.341-1.911,1.962c-0.854,0.625-1.925,1.14-3.215,1.558c-1.29,0.412-2.776,0.618-4.448,0.618
			c-3.833,0-6.809-1.028-8.94-3.094c-2.131-2.063-3.191-4.858-3.191-8.391c0-1.664,0.26-3.206,0.785-4.629
			c0.525-1.425,1.291-2.645,2.297-3.66c1.005-1.019,2.247-1.802,3.72-2.341c1.472-0.539,3.104-0.816,4.895-0.816
			c2.331,0,4.331,0.465,6.001,1.392c1.666,0.93,2.917,2.128,3.748,3.602c0.83,1.477,1.242,2.972,1.242,4.499
			c0,1.412-0.426,2.326-1.289,2.751C184.446,153.679,183.235,153.892,181.674,153.892z M170.003,150.692h10.82
			c-0.148-1.923-0.694-3.361-1.65-4.318c-0.956-0.956-2.21-1.432-3.768-1.432c-1.486,0-2.708,0.486-3.663,1.46
			C170.79,147.363,170.212,148.797,170.003,150.692z"/>
		<path fill="#347822" d="M216.655,145.188v16.354c0,1.868-0.213,3.479-0.637,4.828c-0.423,1.351-1.104,2.464-2.035,3.341
			c-0.932,0.881-2.153,1.531-3.661,1.957c-1.507,0.418-3.383,0.64-5.628,0.64c-2.058,0-3.891-0.276-5.508-0.813
			c-1.621-0.543-2.861-1.242-3.74-2.103c-0.872-0.861-1.309-1.738-1.309-2.65c0-0.688,0.247-1.248,0.747-1.685
			c0.495-0.431,1.091-0.649,1.792-0.649c0.875,0,1.639,0.36,2.296,1.091c0.318,0.368,0.651,0.751,0.999,1.122
			c0.34,0.375,0.723,0.697,1.133,0.971c0.416,0.268,0.915,0.47,1.498,0.598c0.584,0.131,1.248,0.191,2.008,0.191
			c1.543,0,2.744-0.202,3.596-0.609c0.857-0.412,1.453-0.976,1.795-1.703c0.341-0.729,0.539-1.508,0.602-2.342
			c0.06-0.83,0.098-2.169,0.13-4.01c-0.919,1.211-1.979,2.129-3.183,2.766c-1.199,0.634-2.637,0.95-4.297,0.95
			c-1.992,0-3.74-0.479-5.234-1.448c-1.495-0.965-2.643-2.305-3.441-4.037c-0.805-1.729-1.203-3.736-1.203-5.998
			c0-1.699,0.244-3.22,0.733-4.582c0.487-1.36,1.186-2.509,2.085-3.442c0.902-0.935,1.947-1.64,3.129-2.114
			c1.177-0.476,2.476-0.717,3.888-0.717c1.69,0,3.154,0.307,4.394,0.918c1.242,0.617,2.391,1.574,3.455,2.882v-0.769
			c0-0.977,0.256-1.729,0.769-2.268c0.511-0.531,1.164-0.805,1.968-0.805c1.146,0,1.916,0.354,2.293,1.063
			C216.463,142.837,216.655,143.856,216.655,145.188z M199.364,152.319c0,2.283,0.529,4.008,1.584,5.177
			c1.055,1.164,2.42,1.75,4.1,1.75c0.992,0,1.928-0.25,2.807-0.753c0.885-0.502,1.598-1.258,2.152-2.267
			c0.555-1.012,0.831-2.243,0.831-3.684c0-2.302-0.53-4.082-1.604-5.363c-1.067-1.28-2.479-1.918-4.229-1.918
			c-1.703,0-3.068,0.614-4.091,1.833C199.879,148.331,199.364,150.066,199.364,152.319z"/>
		<path fill="#347822" d="M228.838,138.446c-0.83,0-1.541-0.244-2.13-0.72c-0.591-0.484-0.886-1.163-0.886-2.044
			c0-0.794,0.297-1.452,0.904-1.968c0.604-0.521,1.307-0.768,2.109-0.768c0.773,0,1.459,0.231,2.057,0.7
			c0.597,0.468,0.896,1.142,0.896,2.038c0,0.869-0.291,1.544-0.875,2.034C230.333,138.202,229.639,138.446,228.838,138.446z
			 M231.789,144.259v16.269c0,1.125-0.286,1.979-0.854,2.56c-0.571,0.577-1.29,0.866-2.169,0.866c-0.873,0-1.584-0.296-2.13-0.89
			c-0.544-0.586-0.815-1.434-0.815-2.539v-16.106c0-1.117,0.271-1.95,0.815-2.515c0.542-0.563,1.256-0.852,2.13-0.852
			c0.879,0,1.596,0.289,2.169,0.852C231.502,142.476,231.789,143.257,231.789,144.259z"/>
		<path fill="#347822" d="M260.294,156.587c0,1.558-0.406,2.889-1.203,3.991c-0.799,1.108-1.984,1.952-3.552,2.517
			c-1.567,0.569-3.472,0.858-5.716,0.858c-2.143,0-3.976-0.306-5.508-0.93c-1.529-0.618-2.662-1.387-3.386-2.316
			c-0.731-0.921-1.094-1.856-1.094-2.789c0-0.62,0.235-1.146,0.698-1.589c0.471-0.438,1.06-0.656,1.773-0.656
			c0.627,0,1.114,0.144,1.439,0.43c0.339,0.292,0.656,0.694,0.967,1.219c0.614,1.006,1.349,1.754,2.193,2.25
			c0.861,0.492,2.016,0.742,3.483,0.742c1.198,0,2.179-0.25,2.935-0.752c0.769-0.504,1.148-1.076,1.148-1.719
			c0-0.991-0.4-1.711-1.195-2.167c-0.791-0.453-2.102-0.89-3.923-1.3c-2.058-0.478-3.724-0.988-5.022-1.517
			c-1.291-0.527-2.313-1.229-3.095-2.085c-0.766-0.869-1.157-1.936-1.157-3.196c0-1.124,0.359-2.19,1.072-3.194
			c0.715-1.005,1.762-1.813,3.158-2.411c1.391-0.599,3.068-0.888,5.032-0.888c1.544,0,2.933,0.148,4.164,0.447
			c1.238,0.303,2.263,0.707,3.086,1.219c0.817,0.511,1.448,1.076,1.872,1.695c0.433,0.619,0.651,1.225,0.651,1.815
			c0,0.649-0.227,1.175-0.685,1.593c-0.463,0.415-1.121,0.618-1.96,0.618c-0.614,0-1.125-0.164-1.563-0.495
			c-0.43-0.328-0.921-0.822-1.476-1.48c-0.454-0.545-0.989-0.992-1.594-1.321c-0.611-0.329-1.445-0.493-2.492-0.493
			c-1.078,0-1.971,0.212-2.688,0.649c-0.716,0.425-1.068,0.969-1.068,1.613c0,0.59,0.258,1.074,0.785,1.458
			c0.523,0.379,1.229,0.689,2.117,0.936c0.888,0.251,2.109,0.549,3.674,0.906c1.844,0.424,3.361,0.936,4.539,1.524
			c1.172,0.591,2.068,1.292,2.667,2.094C259.996,154.642,260.294,155.559,260.294,156.587z"/>
		<path fill="#347822" d="M268.805,141.562h0.651v-3.382c0-0.907,0.028-1.618,0.08-2.134c0.053-0.522,0.186-0.958,0.417-1.331
			c0.233-0.384,0.569-0.697,1.007-0.936c0.428-0.246,0.923-0.361,1.47-0.361c0.759,0,1.438,0.265,2.058,0.804
			c0.408,0.354,0.66,0.789,0.767,1.305c0.109,0.521,0.172,1.246,0.172,2.195v3.837h2.188c0.85,0,1.49,0.184,1.938,0.563
			c0.44,0.383,0.664,0.863,0.664,1.459c0,0.756-0.32,1.285-0.953,1.588c-0.637,0.304-1.541,0.453-2.721,0.453h-1.115v10.35
			c0,0.884,0.026,1.559,0.093,2.031c0.063,0.475,0.241,0.86,0.527,1.157c0.284,0.296,0.746,0.435,1.386,0.435
			c0.346,0,0.817-0.06,1.419-0.178c0.599-0.121,1.065-0.179,1.396-0.179c0.482,0,0.914,0.183,1.303,0.548
			c0.388,0.361,0.582,0.814,0.582,1.354c0,0.908-0.527,1.602-1.58,2.083c-1.049,0.481-2.557,0.722-4.527,0.722
			c-1.86,0-3.275-0.297-4.238-0.889c-0.963-0.588-1.592-1.408-1.891-2.455c-0.299-1.042-0.45-2.44-0.45-4.189v-10.806h-0.778
			c-0.861,0-1.514-0.188-1.964-0.581c-0.45-0.383-0.677-0.872-0.677-1.465c0-0.587,0.236-1.076,0.711-1.457
			C267.216,141.747,267.904,141.562,268.805,141.562z"/>
		<path fill="#347822" d="M304.11,153.892h-11.667c0.016,1.279,0.289,2.409,0.82,3.382c0.53,0.972,1.239,1.71,2.114,2.195
			c0.891,0.504,1.854,0.749,2.917,0.749c0.714,0,1.364-0.078,1.956-0.234c0.588-0.156,1.164-0.412,1.711-0.749
			c0.552-0.332,1.064-0.696,1.528-1.085c0.469-0.383,1.075-0.903,1.819-1.567c0.306-0.25,0.746-0.37,1.309-0.37
			c0.617,0,1.111,0.159,1.481,0.473c0.383,0.312,0.565,0.765,0.565,1.346c0,0.508-0.209,1.106-0.633,1.781
			c-0.42,0.684-1.058,1.341-1.917,1.962c-0.858,0.622-1.93,1.14-3.216,1.558c-1.287,0.412-2.773,0.618-4.443,0.618
			c-3.836,0-6.807-1.028-8.937-3.094c-2.128-2.063-3.193-4.858-3.193-8.391c0-1.664,0.26-3.206,0.789-4.629
			c0.521-1.423,1.284-2.645,2.295-3.66c1.005-1.019,2.244-1.802,3.721-2.341s3.106-0.816,4.898-0.816
			c2.333,0,4.331,0.465,6.003,1.392c1.666,0.93,2.911,2.128,3.742,3.602c0.825,1.477,1.243,2.972,1.243,4.499
			c0,1.412-0.427,2.326-1.293,2.751C306.883,153.679,305.674,153.892,304.11,153.892z M292.443,150.692h10.813
			c-0.146-1.923-0.696-3.361-1.649-4.318c-0.956-0.956-2.206-1.432-3.769-1.432c-1.484,0-2.705,0.486-3.664,1.46
			C293.224,147.363,292.649,148.797,292.443,150.692z"/>
		<path fill="#347822" d="M323.071,155.832v4.698c0,1.139-0.289,1.997-0.852,2.564c-0.572,0.569-1.289,0.859-2.17,0.859
			c-0.861,0-1.571-0.29-2.119-0.867c-0.553-0.579-0.831-1.43-0.831-2.557v-15.671c0-2.53,0.972-3.796,2.901-3.796
			c0.997,0,1.711,0.295,2.142,0.89c0.438,0.59,0.681,1.465,0.727,2.618c0.714-1.153,1.445-2.028,2.191-2.618
			c0.747-0.594,1.751-0.89,3.013-0.89c1.248,0,2.467,0.295,3.641,0.89c1.186,0.585,1.77,1.371,1.77,2.347
			c0,0.691-0.251,1.256-0.751,1.703c-0.508,0.447-1.044,0.672-1.628,0.672c-0.219,0-0.748-0.127-1.586-0.385
			c-0.841-0.252-1.58-0.387-2.221-0.387c-0.873,0-1.589,0.218-2.139,0.65c-0.552,0.43-0.989,1.074-1.29,1.927
			c-0.306,0.858-0.524,1.866-0.64,3.039C323.125,152.704,323.071,154.14,323.071,155.832z"/>
	</g>
	<g>
		<path fill="#347822" d="M177.75,53.699c0,0.696-0.224,1.452-0.67,2.243c-0.447,0.796-1.131,1.56-2.056,2.281
			c-0.917,0.722-2.077,1.301-3.475,1.737c-1.397,0.441-2.971,0.657-4.721,0.657c-3.724,0-6.628-1.005-8.719-3.039
			c-2.085-2.028-3.131-4.746-3.131-8.155c0-2.306,0.476-4.351,1.435-6.122c0.956-1.771,2.338-3.141,4.147-4.112
			c1.807-0.969,3.972-1.458,6.487-1.458c1.557,0,2.989,0.215,4.292,0.644c1.301,0.429,2.407,0.975,3.305,1.649
			c0.906,0.669,1.597,1.39,2.075,2.155c0.476,0.768,0.719,1.477,0.719,2.135c0,0.674-0.271,1.247-0.806,1.711
			c-0.532,0.467-1.189,0.697-1.95,0.697c-0.505,0-0.916-0.118-1.247-0.362c-0.333-0.237-0.706-0.631-1.118-1.161
			c-0.74-1.047-1.505-1.83-2.305-2.354c-0.802-0.524-1.82-0.781-3.058-0.781c-1.778,0-3.213,0.649-4.302,1.951
			c-1.089,1.293-1.634,3.071-1.634,5.329c0,1.059,0.139,2.028,0.415,2.915c0.281,0.888,0.685,1.64,1.215,2.27
			c0.529,0.624,1.172,1.1,1.918,1.424c0.748,0.318,1.574,0.485,2.472,0.485c1.206,0,2.24-0.264,3.102-0.784
			c0.86-0.528,1.623-1.321,2.284-2.392c0.37-0.633,0.769-1.125,1.193-1.482c0.427-0.355,0.951-0.534,1.568-0.534
			c0.734,0,1.347,0.262,1.832,0.784C177.505,52.551,177.75,53.105,177.75,53.699z"/>
		<path fill="#347822" d="M206.413,49.222c0,1.674-0.28,3.223-0.839,4.638c-0.559,1.419-1.361,2.635-2.421,3.651
			c-1.063,1.012-2.326,1.797-3.802,2.341c-1.471,0.542-3.127,0.814-4.966,0.814c-1.825,0-3.464-0.28-4.917-0.824
			c-1.462-0.551-2.716-1.342-3.784-2.365c-1.068-1.02-1.877-2.231-2.427-3.625c-0.554-1.394-0.825-2.939-0.825-4.629
			c0-1.707,0.279-3.266,0.839-4.679c0.558-1.417,1.361-2.628,2.406-3.628c1.042-1.002,2.307-1.77,3.796-2.318
			c1.482-0.538,3.127-0.811,4.918-0.811c1.825,0,3.479,0.275,4.964,0.826c1.483,0.549,2.76,1.334,3.819,2.353
			c1.061,1.015,1.866,2.228,2.418,3.628C206.135,45.988,206.413,47.533,206.413,49.222z M200.366,49.222
			c0-2.3-0.541-4.085-1.621-5.366c-1.08-1.278-2.532-1.917-4.359-1.917c-1.174,0-2.211,0.287-3.111,0.856
			c-0.898,0.57-1.59,1.417-2.072,2.529c-0.485,1.117-0.729,2.415-0.729,3.9c0,1.472,0.24,2.754,0.718,3.853
			c0.475,1.1,1.163,1.944,2.055,2.528c0.888,0.585,1.938,0.879,3.139,0.879c1.825,0,3.278-0.645,4.358-1.926
			C199.822,53.271,200.366,51.494,200.366,49.222z"/>
		<path fill="#347822" d="M234.605,49.222c0,1.674-0.278,3.223-0.836,4.638c-0.557,1.419-1.369,2.635-2.427,3.651
			c-1.06,1.012-2.319,1.797-3.791,2.341c-1.473,0.542-3.127,0.814-4.965,0.814c-1.825,0-3.464-0.28-4.921-0.824
			c-1.456-0.551-2.716-1.342-3.784-2.365c-1.066-1.02-1.869-2.231-2.424-3.625c-0.548-1.394-0.826-2.939-0.826-4.629
			c0-1.707,0.281-3.266,0.838-4.679c0.559-1.417,1.359-2.628,2.404-3.628c1.047-1.002,2.311-1.77,3.796-2.318
			c1.487-0.538,3.131-0.811,4.92-0.811c1.827,0,3.48,0.275,4.966,0.826c1.484,0.549,2.757,1.334,3.813,2.353
			c1.058,1.015,1.864,2.228,2.422,3.628C234.332,45.988,234.605,47.533,234.605,49.222z M228.56,49.222c0-2.3-0.54-4.085-1.62-5.366
			c-1.082-1.276-2.534-1.917-4.358-1.917c-1.176,0-2.215,0.287-3.113,0.856c-0.899,0.57-1.588,1.417-2.073,2.529
			c-0.482,1.117-0.727,2.415-0.727,3.9c0,1.472,0.238,2.754,0.716,3.853c0.475,1.1,1.164,1.944,2.052,2.528
			c0.891,0.585,1.943,0.879,3.143,0.879c1.827,0,3.277-0.645,4.357-1.926C228.02,53.271,228.56,51.494,228.56,49.222z"/>
		<path fill="#347822" d="M240.254,57.24V32.827c0-1.123,0.27-1.978,0.806-2.553c0.533-0.583,1.254-0.87,2.175-0.87
			c0.919,0,1.646,0.289,2.203,0.856c0.555,0.571,0.841,1.425,0.841,2.566v24.415c0,1.139-0.286,1.999-0.853,2.568
			c-0.565,0.561-1.3,0.854-2.194,0.854c-0.888,0-1.591-0.296-2.153-0.887C240.527,59.183,240.254,58.344,240.254,57.24z"/>
		<path fill="#347822" d="M256.446,35.158c-0.841,0-1.558-0.24-2.151-0.723c-0.594-0.476-0.893-1.157-0.893-2.04
			c0-0.8,0.305-1.458,0.916-1.968c0.612-0.518,1.32-0.775,2.128-0.775c0.781,0,1.474,0.236,2.069,0.703
			c0.603,0.469,0.903,1.146,0.903,2.044c0,0.865-0.296,1.537-0.886,2.028C257.957,34.912,257.258,35.158,256.446,35.158z
			 M259.427,40.975V57.24c0,1.125-0.291,1.982-0.861,2.555c-0.576,0.579-1.303,0.874-2.188,0.874c-0.886,0-1.594-0.296-2.151-0.887
			c-0.555-0.594-0.828-1.435-0.828-2.54V41.137c0-1.117,0.282-1.95,0.828-2.52c0.55-0.563,1.266-0.844,2.151-0.844
			c0.888,0,1.611,0.28,2.188,0.844C259.141,39.187,259.427,39.975,259.427,40.975z"/>
		<path fill="#347822" d="M272.024,40.894v0.677c1.06-1.305,2.216-2.264,3.477-2.877c1.254-0.61,2.699-0.916,4.333-0.916
			c1.59,0,3.014,0.321,4.257,0.969c1.249,0.65,2.187,1.56,2.804,2.742c0.398,0.689,0.65,1.431,0.766,2.229
			c0.119,0.796,0.18,1.819,0.18,3.054v10.472c0,1.125-0.281,1.982-0.828,2.555c-0.55,0.58-1.266,0.874-2.156,0.874
			s-1.62-0.294-2.186-0.887c-0.567-0.594-0.838-1.435-0.838-2.541v-9.387c0-1.853-0.279-3.27-0.828-4.256
			c-0.553-0.984-1.651-1.476-3.301-1.476c-1.073,0-2.055,0.295-2.929,0.892c-0.883,0.599-1.534,1.423-1.945,2.467
			c-0.298,0.834-0.442,2.41-0.442,4.7v7.051c0,1.143-0.284,1.998-0.854,2.565c-0.563,0.571-1.298,0.861-2.193,0.861
			c-0.867,0-1.585-0.296-2.14-0.888c-0.555-0.592-0.841-1.435-0.841-2.54V40.965c0-1.071,0.251-1.873,0.754-2.403
			c0.502-0.533,1.186-0.792,2.057-0.792c0.534,0,1.003,0.115,1.436,0.351c0.424,0.234,0.768,0.584,1.021,1.052
			C271.896,39.646,272.024,40.221,272.024,40.894z"/>
		<path fill="#347822" d="M316.901,41.902v16.352c0,1.871-0.213,3.481-0.648,4.823c-0.419,1.354-1.111,2.463-2.052,3.346
			c-0.942,0.881-2.18,1.533-3.695,1.957c-1.526,0.423-3.417,0.638-5.685,0.638c-2.07,0-3.936-0.272-5.563-0.811
			c-1.628-0.54-2.896-1.243-3.773-2.103c-0.886-0.859-1.326-1.737-1.326-2.653c0-0.681,0.256-1.246,0.756-1.681
			c0.502-0.43,1.104-0.649,1.81-0.649c0.886,0,1.659,0.359,2.312,1.088c0.317,0.372,0.65,0.75,1.006,1.125
			c0.35,0.38,0.729,0.699,1.145,0.972c0.418,0.266,0.918,0.466,1.508,0.598c0.588,0.126,1.262,0.188,2.03,0.188
			c1.56,0,2.769-0.2,3.629-0.607c0.863-0.408,1.47-0.972,1.813-1.703c0.344-0.735,0.539-1.507,0.604-2.339
			c0.06-0.831,0.102-2.174,0.134-4.013c-0.922,1.211-1.994,2.131-3.208,2.765c-1.214,0.639-2.661,0.95-4.336,0.95
			c-2.017,0-3.773-0.482-5.284-1.445c-1.5-0.964-2.661-2.305-3.473-4.042c-0.814-1.738-1.213-3.734-1.213-6
			c0-1.691,0.247-3.217,0.736-4.579c0.492-1.359,1.195-2.509,2.112-3.443c0.906-0.936,1.958-1.639,3.148-2.115
			c1.192-0.471,2.503-0.708,3.929-0.708c1.708,0,3.186,0.305,4.432,0.917c1.246,0.612,2.416,1.573,3.48,2.88v-0.766
			c0-0.979,0.253-1.73,0.769-2.27c0.52-0.533,1.175-0.802,1.987-0.802c1.156,0,1.932,0.353,2.31,1.061
			C316.708,39.551,316.901,40.572,316.901,41.902z M299.446,49.035c0,2.291,0.529,4.009,1.596,5.178
			c1.063,1.169,2.439,1.751,4.139,1.751c1.002,0,1.945-0.25,2.833-0.752c0.888-0.507,1.614-1.257,2.177-2.271
			c0.561-1.007,0.842-2.236,0.842-3.682c0-2.297-0.539-4.076-1.625-5.364c-1.084-1.276-2.506-1.917-4.269-1.917
			c-1.716,0-3.102,0.615-4.141,1.831C299.966,45.041,299.446,46.782,299.446,49.035z"/>
	</g>
	<g>
		<path fill="#EBF0E6" d="M7.917-35.433c0,0-7.917,0-7.917,7.917v50.852c0,0,0,7.917,7.917,7.917H54.19c0,0,7.917,0,7.917-7.917
			v-50.852c0,0,0-7.917-7.917-7.917H7.917z"/>
		<path fill="none" stroke="#EBF0E6" stroke-width="0.6207" d="M7.917-35.433c0,0-7.917,0-7.917,7.917v50.852
			c0,0,0,7.917,7.917,7.917H54.19c0,0,7.917,0,7.917-7.917v-50.852c0,0,0-7.917-7.917-7.917H7.917z"/>
		<path fill="#A4BC8F" d="M94.313-35.433c0,0-7.917,0-7.917,7.917v50.852c0,0,0,7.917,7.917,7.917h46.276c0,0,7.917,0,7.917-7.917
			v-50.852c0,0,0-7.917-7.917-7.917H94.313z"/>
		<path fill="none" stroke="#A4BC8F" stroke-width="0.6207" d="M94.313-35.433c0,0-7.917,0-7.917,7.917v50.852
			c0,0,0,7.917,7.917,7.917h46.276c0,0,7.917,0,7.917-7.917v-50.852c0,0,0-7.917-7.917-7.917H94.313z"/>
		<path fill="#CBD9C0" d="M180.35-35.433c0,0-7.915,0-7.915,7.917v50.852c0,0,0,7.917,7.915,7.917h46.272c0,0,7.918,0,7.918-7.917
			v-50.852c0,0,0-7.917-7.918-7.917H180.35z"/>
		<path fill="none" stroke="#CBD9C0" stroke-width="0.6207" d="M180.35-35.433c0,0-7.915,0-7.915,7.917v50.852
			c0,0,0,7.917,7.915,7.917h46.272c0,0,7.918,0,7.918-7.917v-50.852c0,0,0-7.917-7.918-7.917H180.35z"/>
		<path fill="#EBF0E6" d="M266.748-35.433c0,0-7.922,0-7.922,7.917v50.852c0,0,0,7.917,7.922,7.917h46.273c0,0,7.919,0,7.919-7.917
			v-50.852c0,0,0-7.917-7.919-7.917H266.748z"/>
		<path fill="none" stroke="#EBF0E6" stroke-width="0.6207" d="M266.748-35.433c0,0-7.922,0-7.922,7.917v50.852
			c0,0,0,7.917,7.922,7.917h46.273c0,0,7.919,0,7.919-7.917v-50.852c0,0,0-7.917-7.919-7.917H266.748z"/>
	</g>
	<g>
		<path fill="#347822" d="M4.921-4.779v-14.537c0-1.241,0.281-2.17,0.833-2.784c0.559-0.621,1.29-0.927,2.197-0.927
			c0.947,0,1.702,0.306,2.257,0.927c0.556,0.617,0.838,1.548,0.838,2.784v14.863c0,1.694,0.191,3.109,0.566,4.237
			c0.377,1.132,1.049,2.013,2.01,2.642c0.962,0.631,2.305,0.941,4.043,0.941c2.392,0,4.082-0.642,5.075-1.914
			c0.989-1.264,1.482-3.195,1.482-5.787v-14.983c0-1.25,0.275-2.185,0.824-2.792c0.551-0.616,1.284-0.922,2.207-0.922
			c0.921,0,1.667,0.306,2.236,0.918c0.57,0.61,0.855,1.54,0.855,2.793v14.533c0,2.362-0.229,4.338-0.689,5.917
			c-0.461,1.584-1.332,2.972-2.606,4.168c-1.104,1.015-2.382,1.758-3.839,2.223c-1.458,0.472-3.161,0.706-5.113,0.706
			c-2.324,0-4.323-0.25-6.001-0.758c-1.678-0.5-3.044-1.271-4.102-2.323c-1.06-1.052-1.831-2.402-2.328-4.041
			C5.168-0.536,4.921-2.499,4.921-4.779z"/>
		<path fill="#347822" d="M41.479-19.315v10.594l12.021-12.535c0.576-0.604,1.07-1.052,1.475-1.34
			c0.408-0.294,0.944-0.43,1.619-0.43c0.881,0,1.594,0.26,2.135,0.768c0.542,0.519,0.816,1.141,0.816,1.888
			c0,0.89-0.463,1.783-1.383,2.66l-7.441,7.054L59.3,1.63c0.604,0.856,1.06,1.596,1.359,2.236c0.299,0.64,0.453,1.26,0.453,1.864
			c0,0.672-0.264,1.252-0.795,1.756c-0.529,0.491-1.244,0.743-2.153,0.743c-0.851,0-1.545-0.183-2.08-0.547
			c-0.533-0.362-0.989-0.849-1.358-1.456s-0.703-1.154-0.996-1.652L46.492-6.561l-5.012,4.8v6.249c0,1.263-0.29,2.201-0.866,2.813
			c-0.576,0.613-1.322,0.92-2.226,0.92c-0.528,0-1.024-0.139-1.505-0.418c-0.483-0.275-0.854-0.645-1.116-1.113
			c-0.19-0.382-0.307-0.83-0.352-1.344c-0.043-0.51-0.059-1.243-0.059-2.205v-22.468c0-1.243,0.272-2.167,0.813-2.78
			c0.539-0.62,1.281-0.927,2.216-0.927c0.918,0,1.667,0.307,2.236,0.919C41.193-21.5,41.479-20.567,41.479-19.315z"/>
	</g>
	<path fill="none" stroke="#EBF0E6" stroke-width="0.6207" d="M164.431,181.348c0,0-7.919,0-7.919,7.917v50.85
		c0,0,0,7.918,7.919,7.918h46.274c0,0,7.917,0,7.917-7.918v-50.85c0,0,0-7.917-7.917-7.917H164.431z"/>
	<path fill="none" stroke="#A4BC8F" stroke-width="0.6207" d="M250.824,181.348c0,0-7.918,0-8.418,7.898l-3.188,50.883
		c0,0-0.495,7.9,7.424,7.9h50.453c0,0,7.924,0,7.924-7.916v-50.852c0,0,0-7.917-7.924-7.917L250.824,181.348L250.824,181.348z"/>
	<path fill="none" stroke="#CBD9C0" stroke-width="0.6207" d="M336.865,181.348c0,0-7.917,0-7.917,7.917v50.85
		c0,0,0,7.918,7.917,7.918h46.281c0,0,7.916,0,7.916-7.918v-50.85c0,0,0-7.917-7.916-7.917H336.865z"/>
	<g>
		<path fill="#EBF0E6" d="M164.431,181.348c0,0-7.919,0-7.919,7.917v50.85c0,0,0,7.918,7.919,7.918h46.274c0,0,7.917,0,7.917-7.918
			v-50.85c0,0,0-7.917-7.917-7.917H164.431z"/>
		<path fill="#A4BC8F" d="M250.824,181.348c0,0-7.918,0-8.418,7.898l-3.188,50.883c0,0-0.495,7.9,7.424,7.9h50.453
			c0,0,7.924,0,7.924-7.916v-50.852c0,0,0-7.917-7.924-7.917L250.824,181.348L250.824,181.348z"/>
		<path fill="#CBD9C0" d="M336.865,181.348c0,0-7.917,0-7.917,7.917v50.85c0,0,0,7.918,7.917,7.918h46.281c0,0,7.916,0,7.916-7.918
			v-50.85c0,0,0-7.917-7.916-7.917H336.865z"/>
		<path fill="#EBF0E6" d="M423.257,181.348c0,0-7.914,0-7.914,7.917v50.85c0,0,0,7.918,7.914,7.918h46.275c0,0,7.917,0,7.917-7.918
			v-50.85c0,0,0-7.917-7.917-7.917H423.257z"/>
	</g>
	<path fill="none" stroke="#EBF0E6" stroke-width="0.6207" d="M423.257,181.348c0,0-7.914,0-7.914,7.917v50.85
		c0,0,0,7.918,7.914,7.918h46.275c0,0,7.917,0,7.917-7.918v-50.85c0,0,0-7.917-7.917-7.917H423.257z"/>
	<g>
		<path fill="#347822" d="M329.034,212.928H143.932c-24.044,0-35.537-12.88-40.932-23.687c-5.628-11.25-5.695-22.469-5.695-22.94
			V47.617c0-24.044,12.88-35.529,23.688-40.931c11.252-5.626,22.471-5.694,22.94-5.694h185.109
			c24.038,0,35.527,12.879,40.929,23.683c5.629,11.257,5.693,22.471,5.693,22.941v118.686c0,24.039-12.88,35.532-23.681,40.932
			C340.721,212.863,329.5,212.928,329.034,212.928z M143.932,15.064c-0.062,0-8.73,0.116-17.028,4.396
			c-10.446,5.385-15.524,14.599-15.524,28.155v118.686c0,0.059,0.12,8.729,4.401,17.03c5.383,10.45,14.592,15.526,28.151,15.526
			h185.084c0.289-0.005,8.841-0.176,17.052-4.402c10.45-5.382,15.525-14.592,15.525-28.153V47.618c0-0.059-0.117-8.728-4.4-17.028
			c-5.389-10.449-14.594-15.526-28.156-15.526L143.932,15.064L143.932,15.064z"/>
	</g>
</g>
</svg>
