<?xml version="1.0" encoding="utf-8"?>
<!-- Generator: Adobe Illustrator 15.1.0, SVG Export Plug-In . SVG Version: 6.00 Build 0)  -->
<!DOCTYPE svg PUBLIC "-//W3C//DTD SVG 1.1//EN" "http://www.w3.org/Graphics/SVG/1.1/DTD/svg11.dtd">
<svg version="1.1" id="Layer_1" xmlns="http://www.w3.org/2000/svg" xmlns:xlink="http://www.w3.org/1999/xlink" x="0px" y="0px"
	 width="366.736px" height="212.598px" viewBox="0 0 366.736 212.598" enable-background="new 0 0 366.736 212.598"
	 xml:space="preserve">
<g>
	<path fill="#EAE2EF" d="M8.481,0.396c0,0-8.481,0-8.481,8.479v32.981c0,0,0,8.483,8.481,8.483h30.512c0,0,8.481,0,8.481-8.483
		V8.875c0,0,0-8.479-8.481-8.479H8.481L8.481,0.396z"/>
	<path fill="#F1ECF5" d="M62.293,0.001c0,0-8.48,0-8.48,8.477v32.989c0,0,0,8.478,8.48,8.478h30.515c0,0,8.48,0,8.48-8.478V8.477
		c0,0,0-8.477-8.48-8.477L62.293,0.001L62.293,0.001z"/>
	<path fill="#DCCFE4" d="M115.892,0.396c0,0-8.48,0-8.48,8.479v32.981c0,0,0,8.483,8.48,8.483h30.512c0,0,8.481,0,8.481-8.483V8.875
		c0,0,0-8.479-8.481-8.479H115.892L115.892,0.396z"/>
	<path fill="#EAE2EF" d="M169.277,0.001c0,0-8.48,0-8.48,8.477v32.989c0,0,0,8.478,8.48,8.478h30.513c0,0,8.477,0,8.477-8.478V8.477
		c0,0,0-8.477-8.477-8.477L169.277,0.001L169.277,0.001z"/>
	<g>
		<path fill="#8B5F9A" d="M108.207,88.672h-8.944v29.399c0,1.693-0.376,2.949-1.131,3.766s-1.729,1.229-2.927,1.229
			c-1.213,0-2.205-0.414-2.967-1.24c-0.764-0.831-1.146-2.082-1.146-3.762V88.671h-8.944c-1.398,0-2.438-0.313-3.119-0.928
			c-0.68-0.618-1.02-1.433-1.02-2.44c0-1.049,0.355-1.881,1.063-2.484c0.709-0.607,1.734-0.912,3.078-0.912h26.059
			c1.418,0,2.471,0.312,3.162,0.938c0.69,0.624,1.035,1.447,1.035,2.456s-0.349,1.822-1.048,2.439
			C110.658,88.363,109.605,88.672,108.207,88.672z"/>
		<path fill="#8B5F9A" d="M130.431,81.219c4.197,0,7.798,0.848,10.807,2.552c3.01,1.706,5.286,4.122,6.832,7.257
			c1.547,3.144,2.319,6.822,2.319,11.059c0,3.133-0.425,5.977-1.271,8.529c-0.847,2.558-2.115,4.774-3.811,6.656
			c-1.691,1.879-3.771,3.314-6.236,4.305c-2.469,0.993-5.293,1.49-8.476,1.49c-3.165,0-5.999-0.509-8.504-1.534
			c-2.505-1.021-4.593-2.46-6.265-4.32c-1.677-1.86-2.94-4.095-3.797-6.704c-0.854-2.613-1.285-5.441-1.285-8.475
			c0-3.111,0.444-5.965,1.338-8.557c0.893-2.594,2.186-4.803,3.879-6.622s3.756-3.219,6.184-4.185
			C124.58,81.701,127.34,81.219,130.431,81.219z M142.082,102.03c0-2.964-0.479-5.532-1.436-7.701s-2.324-3.813-4.098-4.925
			c-1.776-1.112-3.814-1.669-6.115-1.669c-1.639,0-3.15,0.311-4.541,0.927c-1.391,0.615-2.585,1.515-3.588,2.693
			c-1.004,1.176-1.795,2.683-2.375,4.514c-0.581,1.828-0.87,3.887-0.87,6.167c0,2.301,0.289,4.38,0.87,6.24
			c0.578,1.859,1.398,3.402,2.455,4.627c1.059,1.221,2.271,2.141,3.644,2.744c1.371,0.605,2.875,0.916,4.513,0.916
			c2.097,0,4.027-0.523,5.783-1.572c1.756-1.048,3.155-2.67,4.197-4.856C141.561,107.933,142.082,105.234,142.082,102.03z"/>
		<path fill="#8B5F9A" d="M170.783,122.379h-12.367c-1.787,0-3.061-0.398-3.825-1.196c-0.763-0.803-1.146-2.081-1.146-3.824V86.934
			c0-1.785,0.392-3.067,1.175-3.852c0.781-0.783,2.047-1.176,3.797-1.176h13.109c1.934,0,3.605,0.121,5.024,0.357
			c1.418,0.24,2.687,0.697,3.81,1.377c0.957,0.574,1.803,1.293,2.541,2.169c0.736,0.876,1.296,1.838,1.685,2.897
			c0.387,1.059,0.574,2.174,0.574,3.354c0,4.047-2.027,7.014-6.074,8.891c5.314,1.693,7.972,4.99,7.972,9.884
			c0,2.259-0.574,4.295-1.73,6.11c-1.16,1.814-2.724,3.147-4.693,4.02c-1.232,0.516-2.651,0.876-4.252,1.093
			C174.785,122.272,172.917,122.379,170.783,122.379z M161.644,88.064v10.462h7.51c2.043,0,3.62-0.193,4.733-0.577
			c1.112-0.388,1.965-1.119,2.554-2.209c0.459-0.771,0.691-1.639,0.691-2.595c0-2.043-0.727-3.401-2.182-4.074
			c-1.455-0.669-3.672-1.01-6.652-1.01L161.644,88.064L161.644,88.064z M170.175,104.406h-8.529v11.819h8.805
			c5.539,0,8.31-1.993,8.31-5.989c0-2.042-0.718-3.524-2.154-4.444C175.169,104.866,173.027,104.406,170.175,104.406z"/>
		<path fill="#8B5F9A" d="M199.231,118.071v-12.837l-9.879-15.318c-0.865-1.378-1.477-2.458-1.836-3.234
			c-0.361-0.77-0.541-1.446-0.541-2.015c0-0.937,0.367-1.745,1.098-2.433c0.729-0.68,1.625-1.018,2.691-1.018
			c1.119,0,1.979,0.316,2.555,0.953c0.574,0.635,1.449,1.901,2.607,3.794l7.568,12.284l7.646-12.284
			c0.461-0.752,0.846-1.389,1.16-1.905c0.313-0.514,0.664-1.001,1.037-1.453c0.379-0.449,0.793-0.798,1.254-1.034
			c0.461-0.237,1.021-0.358,1.686-0.358c1.029,0,1.891,0.333,2.582,1.01c0.689,0.669,1.033,1.45,1.033,2.334
			c0,0.714-0.174,1.435-0.525,2.154c-0.35,0.718-0.945,1.713-1.795,2.978l-10.133,15.545v12.833c0,1.677-0.391,2.93-1.162,3.76
			c-0.768,0.828-1.758,1.242-2.953,1.242c-1.217,0-2.199-0.41-2.957-1.229S199.231,119.765,199.231,118.071z"/>
		<path fill="#8B5F9A" d="M230.269,114.509l9.057-13.223l-7.619-11.765c-0.721-1.142-1.254-2.121-1.615-2.938
			c-0.357-0.818-0.539-1.604-0.539-2.358c0-0.769,0.346-1.462,1.037-2.081c0.684-0.615,1.531-0.925,2.525-0.925
			c1.143,0,2.029,0.332,2.664,1.008c0.637,0.67,1.514,1.917,2.633,3.741l6.072,9.828l6.486-9.828
			c0.537-0.832,0.994-1.539,1.371-2.125c0.379-0.587,0.744-1.076,1.09-1.463c0.354-0.392,0.75-0.674,1.18-0.869
			c0.434-0.193,0.932-0.29,1.502-0.29c1.025,0,1.873,0.311,2.527,0.924c0.652,0.62,0.975,1.35,0.975,2.195
			c0,1.232-0.709,2.908-2.125,5.021l-7.977,11.923l8.584,13.228c0.775,1.161,1.338,2.118,1.684,2.881
			c0.352,0.763,0.525,1.485,0.525,2.168c0,0.649-0.152,1.233-0.471,1.771c-0.314,0.529-0.754,0.953-1.324,1.271
			c-0.574,0.312-1.211,0.471-1.93,0.471c-0.773,0-1.43-0.162-1.963-0.486c-0.535-0.32-0.967-0.727-1.295-1.196
			c-0.328-0.479-0.945-1.409-1.852-2.789l-7.123-11.207l-7.566,11.538c-0.588,0.924-1.01,1.563-1.258,1.935
			c-0.244,0.366-0.549,0.729-0.896,1.076c-0.348,0.349-0.76,0.627-1.242,0.829c-0.482,0.206-1.037,0.31-1.686,0.31
			c-0.998,0-1.814-0.31-2.471-0.912c-0.654-0.607-0.98-1.489-0.98-2.651C228.251,118.143,228.927,116.48,230.269,114.509z"/>
		<path fill="#8B5F9A" d="M282.458,109.598h-14.746c0.02,1.711,0.365,3.222,1.033,4.53c0.666,1.304,1.561,2.288,2.684,2.953
			c1.105,0.664,2.342,0.996,3.678,0.996c0.902,0,1.732-0.107,2.473-0.315c0.748-0.21,1.469-0.54,2.17-0.995
			c0.695-0.451,1.346-0.931,1.93-1.454c0.584-0.511,1.354-1.21,2.293-2.092c0.387-0.329,0.934-0.495,1.652-0.495
			c0.771,0,1.396,0.214,1.877,0.635c0.482,0.424,0.719,1.018,0.719,1.797c0,0.68-0.268,1.476-0.801,2.39
			c-0.533,0.91-1.34,1.785-2.418,2.618c-1.076,0.84-2.432,1.532-4.057,2.084c-1.631,0.553-3.5,0.828-5.619,0.828
			c-4.838,0-8.604-1.378-11.291-4.14c-2.691-2.763-4.031-6.509-4.031-11.236c0-2.226,0.326-4.295,0.99-6.198
			c0.67-1.903,1.635-3.535,2.898-4.9c1.271-1.363,2.836-2.404,4.695-3.134c1.857-0.729,3.922-1.092,6.18-1.092
			c2.949,0,5.467,0.621,7.576,1.861c2.104,1.241,3.684,2.852,4.736,4.82c1.051,1.969,1.572,3.976,1.572,6.019
			c0,1.898-0.545,3.122-1.629,3.683C285.958,109.318,284.427,109.598,282.458,109.598z M267.716,105.317h13.668
			c-0.186-2.576-0.881-4.505-2.082-5.785c-1.203-1.281-2.793-1.915-4.76-1.915c-1.881,0-3.422,0.648-4.625,1.946
			C268.71,100.864,267.974,102.779,267.716,105.317z"/>
	</g>
	<path fill="#EAE2EF" d="M166.945,162.655c0,0-8.48,0-8.48,8.48v32.984c0,0,0,8.479,8.48,8.479h30.513c0,0,8.473,0,8.473-8.479
		v-32.984c0,0,0-8.48-8.473-8.48H166.945z"/>
	<path fill="#F1ECF5" d="M220.755,162.26c0,0-8.48,0-8.48,8.479v32.987c0,0,0,8.479,8.48,8.479h30.516c0,0,8.48,0,8.48-8.479
		v-32.981c0,0,0-8.479-8.48-8.479h-30.516V162.26z"/>
	<path fill="#DCCFE4" d="M274.356,162.655c0,0-8.479,0-8.479,8.48v32.984c0,0,0,8.479,8.479,8.479h30.512c0,0,8.479,0,8.479-8.479
		v-32.984c0,0,0-8.48-8.479-8.48H274.356z"/>
	<path fill="#EAE2EF" d="M327.741,162.26c0,0-8.479,0-8.479,8.479v32.987c0,0,0,8.479,8.479,8.479h30.514c0,0,8.48,0,8.48-8.479
		v-32.981c0,0,0-8.479-8.48-8.479h-30.514V162.26z"/>
	<g>
		<path fill="#8B5F9A" d="M288.745,188.765H79.763c-12.445,0-16.961-10.145-16.961-16.963V41.436
			c0-12.445,10.143-16.963,16.961-16.963h208.982c12.447,0,16.967,10.143,16.967,16.963v130.366
			C305.712,184.249,295.567,188.765,288.745,188.765z M79.767,32.956c-1.964,0.03-8.48,0.735-8.48,8.478v130.365
			c0.031,1.964,0.734,8.482,8.48,8.482h208.96c2.01-0.04,8.504-0.754,8.504-8.482V41.434c-0.033-1.964-0.732-8.478-8.48-8.478
			H79.767L79.767,32.956z"/>
	</g>
</g>
</svg>
