<?xml version="1.0" encoding="utf-8"?>
<!-- Generator: Adobe Illustrator 15.1.0, SVG Export Plug-In . SVG Version: 6.00 Build 0)  -->
<!DOCTYPE svg PUBLIC "-//W3C//DTD SVG 1.1//EN" "http://www.w3.org/Graphics/SVG/1.1/DTD/svg11.dtd">
<svg version="1.1" id="Layer_1" xmlns="http://www.w3.org/2000/svg" xmlns:xlink="http://www.w3.org/1999/xlink" x="0px" y="0px"
	 width="1058.792px" height="283.465px" viewBox="0 0 1058.792 283.465" enable-background="new 0 0 1058.792 283.465"
	 xml:space="preserve">
<path fill="#551F75" d="M67.465,182.436c-18.129,0-33.977-5.438-47.107-16.184c-11.319-9.109-17.961-20.203-19.759-33.011H0.554
	l-0.335-1.688l-0.212-2.204L0,0h14.064v125.781c0,11.815,4.993,21.607,15.255,29.918c10.359,8.401,23.193,12.653,38.146,12.653
	c14.959,0,27.831-4.266,38.268-12.666c10.327-8.311,15.346-18.09,15.346-29.905V0h14.064v125.987
	c0,15.783-6.855,29.339-20.371,40.277C101.648,176.998,85.729,182.436,67.465,182.436z"/>
<polygon fill="#551F75" points="281.333,182.436 182.261,89.575 182.261,182.436 168.191,182.436 168.191,0 182.261,0 
	182.261,59.438 271.115,0 296.163,0 185.573,73.739 301.497,182.436 "/>
<polygon fill="#A22986" points="476.388,182.436 476.388,37.61 414.863,182.436 403.119,182.436 342.026,38.667 342.026,182.436 
	327.956,182.436 327.956,0 340.647,0 408.801,160.557 477.342,0 490.458,0 490.458,182.436 "/>
<path fill="#A22986" d="M707.734,182.436v-28.617c-2.049,2.771-4.336,5.411-6.835,7.911c-13.735,13.748-30.614,20.706-50.167,20.706
	c-19.411,0-36.22-6.958-49.948-20.706c-13.735-13.735-20.699-30.537-20.699-49.941s6.964-36.206,20.699-49.954
	c13.729-13.735,30.537-20.706,49.948-20.706c19.553,0,36.432,6.971,50.167,20.706c2.506,2.513,4.786,5.167,6.835,7.924V0h13.864
	v182.436H707.734z M650.732,55.005c-15.494,0-28.933,5.592-39.956,16.608c-11.029,11.029-16.621,24.546-16.621,40.175
	c0,15.487,5.592,28.927,16.621,39.956c11.023,11.016,24.462,16.608,39.956,16.608c15.629,0,29.146-5.593,40.175-16.608
	c11.022-11.029,16.614-24.469,16.614-39.956s-5.631-28.965-16.725-40.071C679.709,60.623,666.232,55.005,650.732,55.005z"/>
<path fill="#A22986" d="M838.617,182.436h-82.546v-14.083h82.102c11.905,0,21.814-4.188,29.455-12.473
	c7.724-8.362,11.641-19.275,11.641-32.431c0-12.396-4.444-23.077-13.213-31.787c-8.781-8.71-19.514-13.13-31.909-13.13h-40.078
	c-10.636-0.309-19.7-4.342-27.006-11.957c-7.293-7.614-10.991-16.802-10.991-27.315s3.736-19.701,11.106-27.315
	C774.554,4.329,783.631,0.309,794.159,0h67.381v13.864h-66.196c-7.131,0-12.987,2.41-17.896,7.37
	c-4.909,4.974-7.299,10.862-7.299,18.026c0,7.177,2.39,13.065,7.299,18.039c4.909,4.96,10.759,7.37,17.896,7.37h38.803
	c16.177,0,30.163,5.785,41.573,17.201c11.415,11.429,17.2,25.421,17.2,41.579c0,16.659-4.992,30.575-14.85,41.334
	c-10.333,11.416-23.592,17.355-39.395,17.652l-0.29,0.09L838.617,182.436z"/>
<path fill="#A22986" d="M920.796,182.436v-14.083h82.102c11.905,0,21.813-4.188,29.454-12.473
	c7.725-8.362,11.642-19.275,11.642-32.431c0-12.383-4.445-23.077-13.22-31.787s-19.514-13.13-31.909-13.13h-40.078
	c-10.623-0.309-19.688-4.342-26.993-11.957c-7.3-7.628-10.997-16.814-10.997-27.315c0-10.514,3.736-19.713,11.119-27.315
	C939.279,4.329,948.357,0.309,958.883,0h67.381v13.864h-66.202c-7.131,0-12.981,2.41-17.884,7.37
	c-4.915,4.974-7.306,10.875-7.306,18.026c0,7.164,2.391,13.065,7.306,18.039c4.902,4.96,10.753,7.37,17.884,7.37h38.803
	c16.17,0,30.163,5.785,41.579,17.201c11.416,11.429,17.201,25.421,17.201,41.579c0,16.659-4.999,30.575-14.856,41.334
	c-10.236,11.313-23.354,17.239-38.97,17.639l-0.47,0.014H920.796z"/>
<g>
	<path fill="#551F75" d="M35.118,211.594h5.908v37.107c0,7.447-1.823,12.782-5.47,16.016c-3.646,3.234-8.427,4.858-14.341,4.858
		c-6.571,0-11.441-1.676-14.611-5c-3.157-3.337-4.735-8.633-4.735-15.874v-37.107h7.112v37.107c0,4.42,0.509,7.525,1.54,9.329
		s2.577,3.144,4.665,4.007c2.074,0.863,4.252,1.289,6.532,1.289c4.381,0,7.705-1.16,9.986-3.467
		c2.281-2.306,3.415-6.017,3.415-11.158V211.594z"/>
	<path fill="#551F75" d="M103.124,268.402h-7.783l-17.008-31.388l-13,16.248v15.14H58.22v-56.809h7.113v32.946l25.705-32.946h7.686
		l-15.391,19.868L103.124,268.402z"/>
	<path fill="#551F75" d="M195.597,268.402h-6.906v-49.606l-18.438,49.606h-4.825l-18.638-49.606v49.606h-6.036v-56.809h10.533
		l17.156,45.444l16.763-45.444h10.392V268.402z"/>
	<path fill="#551F75" d="M219.788,211.594v7.279h-7.035v-7.279H219.788z M219.576,226.372v42.03h-6.533v-42.03H219.576z"/>
	<path fill="#551F75" d="M269.272,211.594v56.809h-5.907v-7.203c-2.944,5.58-7.377,8.376-13.291,8.376
		c-4.922,0-8.968-2.062-12.125-6.186c-3.169-4.136-4.754-9.341-4.754-15.654c0-6.442,1.559-11.803,4.703-16.093
		c3.131-4.291,7.292-6.443,12.485-6.443c5.038,0,9.161,2.307,12.356,6.92v-20.525H269.272z M262.74,242.607
		c0-3.698-1.121-6.649-3.376-8.865c-2.242-2.229-4.857-3.337-7.86-3.337c-3.247,0-5.914,1.443-8.014,4.329
		c-2.094,2.887-3.137,6.932-3.137,12.15c0,5.631,0.959,9.921,2.893,12.859c1.919,2.938,4.567,4.406,7.924,4.406
		c3.054,0,5.74-1.275,8.072-3.827c2.326-2.551,3.499-5.54,3.499-8.993V242.607z"/>
	<path fill="#551F75" d="M334.611,226.372l-12.092,42.03h-5.302l-9.38-31.22l-8.62,31.22h-5.367l-12.621-42.03h6.552l9.154,31.336
		l8.736-31.336h4.774l9.464,31.452l9.432-31.452H334.611z"/>
	<path fill="#551F75" d="M353.345,211.594v7.279h-7.035v-7.279H353.345z M353.139,226.372v42.03h-6.533v-42.03H353.139z"/>
	<path fill="#551F75" d="M387.438,226.372v5.115h-9.985v36.915h-6.545v-36.915h-7.158v-5.115h7.158
		c0.116-6.738,1.411-11.081,3.891-13.026c2.487-1.945,5.521-2.912,9.097-2.912c1.752,0,3.75,0.193,5.991,0.58v5.205
		c-1.411-0.36-2.757-0.541-4.033-0.541c-2.86,0-4.974,0.632-6.339,1.895c-1.385,1.263-2.062,3.62-2.062,7.086v1.714H387.438z"/>
	<path fill="#551F75" d="M425.023,255.878l6.082,1.25c-1.114,3.582-3.279,6.559-6.494,8.903c-3.228,2.358-7.003,3.544-11.371,3.544
		c-5.74,0-10.385-2.023-13.935-6.069c-3.556-4.033-5.321-9.341-5.321-15.899c0-6.675,1.842-12.086,5.527-16.222
		c3.691-4.123,8.324-6.186,13.896-6.186c5.496,0,9.921,1.907,13.265,5.708c3.344,3.802,5.044,9.483,5.134,17.06H401.25
		c0,6.353,1.34,10.643,4.001,12.859c2.661,2.216,5.482,3.324,8.446,3.324C419.058,264.15,422.833,261.406,425.023,255.878z
		 M424.649,243.097c-0.052-2.358-0.451-4.445-1.166-6.275c-0.715-1.842-1.946-3.401-3.666-4.689
		c-1.713-1.289-3.788-1.933-6.197-1.933c-3.247,0-6.004,1.159-8.259,3.491c-2.261,2.332-3.53,5.464-3.814,9.406H424.649z"/>
	<path fill="#551F75" d="M452.004,268.402h-6.545v-42.03h5.747v9.818c2.022-4.626,4.059-7.628,6.094-9.007
		c2.036-1.378,4.123-2.062,6.262-2.062c0.67,0,1.52,0.052,2.59,0.168v6.236h-1.334c-3.614,0-6.603,1.34-8.987,4.046
		c-2.396,2.692-3.666,6.223-3.827,10.604V268.402z"/>
	<path fill="#551F75" d="M508.774,226.372l-16.853,46.939c-2.442,6.777-6.339,10.153-11.7,10.153c-1.688,0-3.569-0.284-5.618-0.876
		v-5.116c1.688,0.387,3.144,0.58,4.361,0.58c2.087,0,3.833-0.593,5.225-1.791c1.392-1.186,2.796-4.097,4.188-8.71l-14.534-41.18
		h6.636l11.287,31.581l11.493-31.581H508.774z"/>
	<path fill="#551F75" d="M538.609,253.379l6.416-1.456c2.57,7.73,8.169,11.609,16.776,11.609c4.49,0,7.872-0.954,10.153-2.86
		c2.268-1.907,3.401-4.459,3.401-7.654c0-2.435-0.856-4.381-2.597-5.85c-1.727-1.481-3.736-2.499-6.004-3.054l-11.371-2.809
		c-2.931-0.734-5.341-1.649-7.222-2.719c-1.868-1.069-3.46-2.719-4.761-4.947c-1.308-2.217-1.965-4.768-1.965-7.615
		c0-4.755,1.797-8.543,5.379-11.364c3.576-2.809,8.169-4.227,13.768-4.227c10.32,0,17.104,4.678,20.358,14.031l-6.456,1.907
		c-0.754-3.337-2.506-5.85-5.289-7.563c-2.764-1.7-5.721-2.551-8.858-2.551c-3.111,0-5.875,0.824-8.298,2.461
		c-2.435,1.649-3.646,3.969-3.646,6.983c0,4.214,3.072,7.061,9.231,8.529l10.61,2.5c9.722,2.319,14.573,7.551,14.573,15.681
		c0,4.922-1.817,9.007-5.464,12.267c-3.652,3.26-8.8,4.896-15.429,4.896C550.16,269.575,542.39,264.163,538.609,253.379z"/>
	<path fill="#551F75" d="M615.692,263.944v5.167c-2.307,0.309-4.304,0.464-5.991,0.464c-8.131,0-12.189-4.252-12.189-12.756v-25.332
		h-7.454v-5.115h7.454l0.283-10.565l6.082-0.593v11.158h9.399v5.115h-9.399v26.414c0,4.342,2.242,6.507,6.732,6.507
		C612.11,264.408,613.81,264.253,615.692,263.944z"/>
	<path fill="#551F75" d="M659.764,268.402h-5.901v-8.027c-2.996,6.12-7.454,9.2-13.381,9.2c-4.291,0-7.666-1.431-10.114-4.252
		c-2.461-2.835-3.686-6.868-3.686-12.086v-26.865h6.539v26.839c0,4.162,0.857,7.022,2.603,8.595
		c1.727,1.571,3.634,2.345,5.721,2.345c2.101,0,4.008-0.58,5.728-1.778c1.701-1.198,3.118-2.886,4.259-5.103
		c1.14-2.203,1.707-4.612,1.707-7.215v-23.683h6.526V268.402z"/>
	<path fill="#551F75" d="M709.512,211.594v56.809h-5.914v-7.203c-2.944,5.58-7.377,8.376-13.291,8.376
		c-4.922,0-8.968-2.062-12.124-6.186c-3.164-4.136-4.755-9.341-4.755-15.654c0-6.442,1.565-11.803,4.703-16.093
		c3.131-4.291,7.293-6.443,12.479-6.443c5.058,0,9.168,2.307,12.356,6.92v-20.525H709.512z M702.966,242.607
		c0-3.698-1.114-6.649-3.362-8.865c-2.242-2.229-4.871-3.337-7.866-3.337c-3.254,0-5.914,1.443-8.015,4.329
		c-2.087,2.887-3.138,6.932-3.138,12.15c0,5.631,0.96,9.921,2.893,12.859c1.92,2.938,4.574,4.406,7.931,4.406
		c3.048,0,5.733-1.275,8.066-3.827c2.332-2.551,3.491-5.54,3.491-8.993V242.607z"/>
	<path fill="#551F75" d="M755.266,226.372l-16.854,46.939c-2.448,6.777-6.353,10.153-11.706,10.153
		c-1.701,0-3.569-0.284-5.631-0.876v-5.116c1.701,0.387,3.15,0.58,4.381,0.58c2.074,0,3.814-0.593,5.206-1.791
		c1.41-1.186,2.809-4.097,4.2-8.71l-14.541-41.18h6.643l11.28,31.581l11.5-31.581H755.266z"/>
	<path fill="#551F75" d="M785.1,253.379l6.397-1.456c2.59,7.73,8.182,11.609,16.776,11.609c4.496,0,7.885-0.954,10.152-2.86
		c2.281-1.907,3.421-4.459,3.421-7.654c0-2.435-0.869-4.381-2.603-5.85c-1.739-1.481-3.736-2.499-6.017-3.054l-11.358-2.809
		c-2.944-0.734-5.354-1.649-7.222-2.719s-3.453-2.719-4.761-4.947c-1.308-2.217-1.959-4.768-1.959-7.615
		c0-4.755,1.791-8.543,5.367-11.364c3.582-2.809,8.169-4.227,13.773-4.227c10.32,0,17.111,4.678,20.345,14.031l-6.448,1.907
		c-0.748-3.337-2.513-5.85-5.276-7.563c-2.783-1.7-5.74-2.551-8.878-2.551c-3.099,0-5.862,0.824-8.298,2.461
		c-2.416,1.649-3.634,3.969-3.634,6.983c0,4.214,3.073,7.061,9.22,8.529l10.63,2.5c9.702,2.319,14.56,7.551,14.56,15.681
		c0,4.922-1.823,9.007-5.47,12.267c-3.652,3.26-8.787,4.896-15.416,4.896C796.632,269.575,788.875,264.163,785.1,253.379z"/>
	<path fill="#551F75" d="M871.962,226.372l-16.853,46.939c-2.442,6.777-6.333,10.153-11.699,10.153
		c-1.694,0-3.576-0.284-5.625-0.876v-5.116c1.694,0.387,3.15,0.58,4.368,0.58c2.088,0,3.827-0.593,5.225-1.791
		c1.398-1.186,2.79-4.097,4.188-8.71l-14.533-41.18h6.635l11.294,31.581l11.48-31.581H871.962z"/>
	<path fill="#551F75" d="M876.666,257.489l6.23-1.276c1.397,5.296,5.778,7.938,13.155,7.938c2.725,0,5.031-0.593,6.912-1.816
		c1.882-1.225,2.828-2.938,2.828-5.154c0-3.299-2.402-5.398-7.209-6.275l-8.858-1.688c-3.459-0.67-6.223-1.972-8.271-3.917
		c-2.062-1.945-3.086-4.497-3.086-7.692c0-3.53,1.411-6.48,4.2-8.852c2.803-2.357,6.578-3.557,11.319-3.557
		c9.129,0,14.76,3.569,16.898,10.695l-5.991,1.288c-1.714-4.381-5.264-6.559-10.61-6.559c-2.668,0-4.845,0.541-6.559,1.637
		c-1.701,1.095-2.564,2.615-2.564,4.6c0,3.093,2.19,5.051,6.546,5.85l8.194,1.469c8.568,1.56,12.859,5.708,12.859,12.46
		c0,3.865-1.592,6.996-4.793,9.367c-3.189,2.371-7.429,3.569-12.725,3.569C885.176,269.575,879.017,265.542,876.666,257.489z"/>
	<path fill="#551F75" d="M944.743,263.944v5.167c-2.287,0.309-4.291,0.464-5.991,0.464c-8.118,0-12.189-4.252-12.189-12.756v-25.332
		h-7.454v-5.115h7.454l0.296-10.565l6.069-0.593v11.158h9.412v5.115h-9.412v26.414c0,4.342,2.255,6.507,6.745,6.507
		C941.173,264.408,942.861,264.253,944.743,263.944z"/>
	<path fill="#551F75" d="M982.043,255.878l6.082,1.25c-1.114,3.582-3.279,6.559-6.494,8.903c-3.221,2.358-7.003,3.544-11.364,3.544
		c-5.74,0-10.385-2.023-13.935-6.069c-3.557-4.033-5.328-9.341-5.328-15.899c0-6.675,1.843-12.086,5.534-16.222
		c3.685-4.123,8.323-6.186,13.89-6.186c5.495,0,9.928,1.907,13.265,5.708c3.344,3.802,5.051,9.483,5.135,17.06h-30.55
		c0,6.353,1.334,10.643,3.994,12.859c2.667,2.216,5.482,3.324,8.452,3.324C976.078,264.15,979.853,261.406,982.043,255.878z
		 M981.67,243.097c-0.052-2.358-0.444-4.445-1.16-6.275c-0.722-1.842-1.952-3.401-3.665-4.689c-1.714-1.289-3.789-1.933-6.198-1.933
		c-3.253,0-6.004,1.159-8.259,3.491c-2.268,2.332-3.53,5.464-3.814,9.406H981.67z"/>
	<path fill="#551F75" d="M1058.792,268.402h-6.371v-26.13c0-2.693-0.181-4.716-0.554-6.057c-0.381-1.353-1.295-2.59-2.726-3.697
		c-1.449-1.134-3.073-1.701-4.877-1.701c-2.5,0-4.896,1.146-7.209,3.44c-2.319,2.293-3.485,5.772-3.485,10.462v23.683h-6.326
		v-27.677c0-3.697-0.883-6.287-2.635-7.821c-1.771-1.533-3.614-2.28-5.561-2.28c-2.776,0-5.186,1.186-7.247,3.569
		c-2.049,2.384-3.073,5.411-3.073,9.07v25.139h-6.249v-42.03h5.624v8.079c3.138-6.159,7.454-9.252,12.943-9.252
		c3.021,0,5.598,0.992,7.698,2.964c2.113,1.972,3.466,4.343,4.084,7.112c2.88-6.713,7.313-10.076,13.266-10.076
		c2.866,0,5.366,0.825,7.512,2.462c2.151,1.636,3.55,3.518,4.2,5.63c0.657,2.126,0.985,5.115,0.985,8.981V268.402z"/>
</g>
<rect x="531.535" y="135.6" fill="#A22986" width="14.07" height="46.836"/>
<path fill="#551F75" d="M565.493,68.972c0-14.843-12.086-26.916-26.929-26.916c-14.844,0-26.917,12.073-26.917,26.916
	c0,12.408,8.465,22.768,19.887,25.88v7.324h-9.457v14.07h9.457v9.251h14.07v-9.251h9.457v-14.07h-9.457v-7.328
	C557.021,91.729,565.493,81.374,565.493,68.972z M523.74,68.985c0-8.186,6.648-14.844,14.824-14.844
	c8.175,0,14.83,6.658,14.83,14.844c0,8.178-6.655,14.83-14.83,14.83C530.388,83.815,523.74,77.163,523.74,68.985z"/>
</svg>
