<?xml version="1.0" encoding="utf-8"?>
<!-- Generator: Adobe Illustrator 15.1.0, SVG Export Plug-In . SVG Version: 6.00 Build 0)  -->
<!DOCTYPE svg PUBLIC "-//W3C//DTD SVG 1.1//EN" "http://www.w3.org/Graphics/SVG/1.1/DTD/svg11.dtd">
<svg version="1.1" id="Layer_1_copy" xmlns="http://www.w3.org/2000/svg" xmlns:xlink="http://www.w3.org/1999/xlink" x="0px"
	 y="0px" width="370.89px" height="213.707px" viewBox="0 0 370.89 213.707" enable-background="new 0 0 370.89 213.707"
	 xml:space="preserve">
<g>
	
		<radialGradient id="SVGID_1_" cx="119.3594" cy="964.9087" r="85.6167" gradientTransform="matrix(2.4844 0 0 2.4844 -119.7138 -2289.0559)" gradientUnits="userSpaceOnUse">
		<stop  offset="0.1758" style="stop-color:#F3F7EC"/>
		<stop  offset="0.3125" style="stop-color:#EFF4E5"/>
		<stop  offset="0.5365" style="stop-color:#E3ECD1"/>
		<stop  offset="0.8185" style="stop-color:#CFE0B0"/>
		<stop  offset="1" style="stop-color:#C0D697"/>
	</radialGradient>
	<path fill="url(#SVGID_1_)" stroke="#74AF27" stroke-width="2.2152" d="M54.693,33.123C19.428,52.908,0,79.422,0,107.783
		c0,28.354,19.425,54.871,54.693,74.651c34.683,19.457,80.724,30.164,129.646,30.164c48.92,0,94.961-10.703,129.641-30.164
		c35.27-19.789,54.693-46.298,54.693-74.651c0-28.36-19.426-54.877-54.693-74.658C279.296,13.671,233.255,2.961,184.339,2.961
		C135.417,2.958,89.379,13.672,54.693,33.123"/>
	<g>
		<path fill="#C0D697" d="M149.424,192.21c-0.199,0-0.399-0.077-0.55-0.229c-0.299-0.297-0.307-0.771-0.018-1.085l96.875-103.064
			L181.57,17.458c-0.281-0.311-0.269-0.783,0.022-1.079c0.153-0.15,0.354-0.228,0.553-0.228c0.187,0,0.374,0.067,0.525,0.206
			l70.368,64.16l85.732-79.529c0.145-0.134,0.334-0.208,0.525-0.208c0.205,0,0.402,0.074,0.555,0.227
			c0.299,0.3,0.305,0.77,0.021,1.08l-79.52,85.743l60.041,66.248c0.283,0.309,0.271,0.778-0.021,1.076
			c-0.152,0.146-0.354,0.226-0.553,0.226c-0.191,0-0.379-0.069-0.529-0.204l-66.25-60.045l-103.086,96.869
			C149.805,192.135,149.615,192.21,149.424,192.21z"/>
		<path fill="#FFFFFF" d="M339.298,1.558l-79.637,85.869l-0.373,0.395l0.361,0.399l60.17,66.392l-66.387-60.175l-0.4-0.36
			l-0.396,0.369l-103.213,96.985l96.998-103.201l0.371-0.396l-0.367-0.399L182.144,16.93l70.5,64.28l0.398,0.365l0.4-0.373
			L339.298,1.558 M339.298,0c-0.379,0-0.76,0.136-1.059,0.414l-85.205,79.041l-69.838-63.675c-0.299-0.271-0.675-0.404-1.052-0.404
			c-0.399,0-0.797,0.15-1.104,0.457c-0.588,0.584-0.611,1.537-0.047,2.151l63.68,69.843l-96.383,102.539
			c-0.575,0.614-0.562,1.573,0.035,2.172c0.303,0.307,0.703,0.457,1.101,0.457c0.382,0,0.767-0.137,1.067-0.424l102.561-96.371
			l65.717,59.567c0.303,0.271,0.67,0.404,1.047,0.404c0.398,0,0.797-0.152,1.104-0.457c0.588-0.585,0.607-1.532,0.045-2.152
			l-59.563-65.72l79.035-85.22c0.572-0.613,0.553-1.569-0.041-2.162C340.095,0.154,339.697,0,339.298,0L339.298,0z"/>
	</g>
	<g>
		<path fill="#74AF27" stroke="#FFFFFF" stroke-width="1.1076" d="M68.721,127.988c-3.198,0-6.072-0.31-8.63-0.934
			c-2.557-0.617-4.811-1.52-6.758-2.695c-1.947-1.171-3.606-2.6-4.978-4.29c-1.369-1.69-2.463-3.599-3.287-5.729
			c-0.667-1.708-1.148-3.592-1.439-5.662c-0.289-2.07-0.433-4.385-0.433-6.939V65.759h11.185v34.971
			c0,4.322,0.517,7.702,1.549,10.139c1.157,2.707,2.847,4.664,5.066,5.867c2.222,1.2,4.838,1.807,7.854,1.807
			c3.015,0,5.63-0.598,7.854-1.807c2.222-1.197,3.91-3.154,5.065-5.867c1.033-2.438,1.55-5.813,1.55-10.139V65.759h11.186v35.979
			c0,2.555-0.145,4.871-0.434,6.939c-0.289,2.072-0.77,3.956-1.438,5.662c-0.823,2.13-1.928,4.039-3.313,5.729
			s-3.074,3.119-5.068,4.29c-1.994,1.178-4.284,2.078-6.871,2.695C74.807,127.673,71.915,127.988,68.721,127.988z"/>
		<path fill="#74AF27" stroke="#FFFFFF" stroke-width="1.1076" d="M108.894,126.846V65.759h11.186v27.806h0.181l23.062-27.805
			h13.881l-25.48,30.271l27.576,30.818H144.96l-24.698-27.578h-0.181v27.578h-11.188V126.846L108.894,126.846z"/>
		<path fill="#74AF27" stroke="#FFFFFF" stroke-width="1.1076" d="M199.792,94.158c4.385,6.242,7.943,11.78,10.684,16.616h0.273
			c-0.363-7.94-0.545-13.723-0.545-17.343V65.757h11.184v61.085h-11.73L189.75,98.716c-3.5-4.864-7.121-10.512-10.863-16.938h-0.271
			c0.363,7.487,0.549,13.285,0.549,17.4v27.667h-11.186v-61.09h11.734L199.792,94.158z"/>
		<path fill="#74AF27" stroke="#FFFFFF" stroke-width="1.1076" d="M257.408,119.266c2.104,0,4.291-0.213,6.576-0.64
			c2.283-0.43,4.596-1.032,6.938-1.82v8.626c-1.396,0.61-3.545,1.188-6.434,1.733c-2.893,0.55-5.893,0.824-8.992,0.824
			c-3.137,0-6.109-0.401-8.926-1.209c-2.814-0.81-5.271-2.103-7.377-3.906c-2.096-1.793-3.766-4.118-4.996-6.983
			c-1.234-2.86-1.854-6.33-1.854-10.409c0-4.02,0.576-7.533,1.734-10.546c1.154-3.013,2.707-5.508,4.656-7.485
			c1.945-1.982,4.176-3.463,6.688-4.453c2.51-0.988,5.104-1.481,7.783-1.481c2.797,0,5.379,0.425,7.744,1.278
			c2.355,0.85,4.395,2.188,6.115,4.02c1.723,1.826,3.057,4.176,4.02,7.053c0.955,2.875,1.438,6.277,1.438,10.205
			c-0.031,1.524-0.074,2.814-0.137,3.881H243.39c0.154,2.037,0.611,3.776,1.373,5.226c0.758,1.451,1.762,2.622,2.994,3.517
			c1.23,0.898,2.668,1.551,4.309,1.961C253.71,119.063,255.494,119.266,257.408,119.266z M253.072,89.957
			c-1.369,0-2.59,0.25-3.652,0.752c-1.064,0.502-1.984,1.191-2.76,2.058c-0.781,0.867-1.396,1.881-1.852,3.036
			c-0.457,1.156-0.758,2.391-0.918,3.695h17.396c0-1.306-0.174-2.539-0.527-3.695c-0.348-1.157-0.863-2.168-1.551-3.036
			c-0.684-0.866-1.539-1.551-2.557-2.058C255.638,90.207,254.441,89.957,253.072,89.957z"/>
		<path fill="#74AF27" stroke="#FFFFFF" stroke-width="1.1076" d="M313.978,109.313c0-1.551-0.383-2.807-1.143-3.765
			c-0.758-0.956-1.795-1.739-3.102-2.35c-1.314-0.61-2.779-1.104-4.404-1.482c-1.629-0.381-3.342-0.753-5.139-1.116
			c-2.373-0.515-4.641-1.133-6.803-1.847c-2.16-0.715-4.064-1.708-5.711-2.967c-1.639-1.263-2.951-2.867-3.926-4.817
			c-0.971-1.947-1.461-4.382-1.461-7.306c0-3.228,0.564-6.035,1.689-8.424c1.125-2.388,2.656-4.369,4.592-5.939
			c1.93-1.563,4.197-2.733,6.801-3.514c2.602-0.774,5.529-1.164,8.787-1.164c3.256,0,6.529,0.316,9.814,0.959
			c3.289,0.64,6.115,1.463,8.484,2.463v9.591c-3.162-1.25-6.197-2.155-9.1-2.715c-2.912-0.565-5.643-0.843-8.197-0.843
			c-3.676,0-6.518,0.668-8.512,2.004c-1.994,1.343-2.99,3.347-2.99,6.026c0,1.55,0.326,2.83,0.98,3.835
			c0.66,1.008,1.547,1.833,2.67,2.487c1.129,0.66,2.424,1.183,3.883,1.578s3.014,0.759,4.654,1.099
			c2.588,0.549,5.061,1.182,7.418,1.895c2.355,0.716,4.453,1.712,6.279,2.99c1.824,1.28,3.271,2.944,4.334,5
			c1.066,2.059,1.6,4.681,1.6,7.879c0,3.283-0.605,6.133-1.822,8.537c-1.217,2.406-2.945,4.388-5.184,5.961
			c-2.24,1.563-4.951,2.73-8.15,3.492c-3.195,0.762-6.691,1.143-10.498,1.143c-3.322,0-6.582-0.327-9.793-0.98
			c-3.211-0.656-5.885-1.578-8.016-2.767v-9.455c3.012,1.308,5.951,2.261,8.814,2.854c2.863,0.592,5.811,0.894,8.855,0.894
			c1.764,0,3.498-0.144,5.207-0.437c1.705-0.287,3.232-0.781,4.588-1.479c1.355-0.701,2.439-1.652,3.26-2.856
			C313.568,112.566,313.978,111.082,313.978,109.313z"/>
	</g>
	<g>
		<path d="M52.828,157.501h-1.614v-11.783h-4.422v-1.454h10.454v1.454h-4.42L52.828,157.501L52.828,157.501z"/>
		<path d="M60.761,149.392h0.03c0.171-0.223,0.361-0.419,0.574-0.605c0.211-0.191,0.444-0.351,0.704-0.486
			c0.26-0.137,0.534-0.243,0.831-0.321c0.298-0.078,0.617-0.118,0.961-0.118c0.355,0,0.71,0.045,1.067,0.141
			c0.355,0.096,0.685,0.268,0.986,0.511c0.304,0.243,0.551,0.578,0.742,1.019c0.194,0.437,0.287,1.002,0.287,1.688v6.286h-1.535
			v-6.042c0-0.76-0.142-1.329-0.431-1.713c-0.288-0.39-0.754-0.576-1.41-0.576c-0.54,0-1.054,0.145-1.543,0.438
			c-0.487,0.299-0.91,0.697-1.267,1.208v6.679h-1.535v-14.32h1.535v6.217L60.761,149.392L60.761,149.392z"/>
		<path d="M74.373,156.416c0.506,0,0.972-0.045,1.388-0.123c0.421-0.082,0.835-0.204,1.253-0.354v1.276
			c-0.336,0.171-0.753,0.298-1.249,0.393c-0.493,0.096-1.025,0.145-1.593,0.145c-0.671,0-1.303-0.088-1.896-0.262
			c-0.587-0.17-1.099-0.449-1.533-0.83s-0.768-0.881-1.012-1.496c-0.244-0.617-0.367-1.364-0.367-2.229
			c0-0.858,0.119-1.61,0.355-2.235c0.236-0.627,0.553-1.156,0.946-1.578c0.394-0.422,0.848-0.739,1.36-0.949
			c0.515-0.215,1.05-0.313,1.61-0.313c0.526,0,1.019,0.087,1.475,0.263c0.456,0.172,0.853,0.447,1.188,0.832
			c0.333,0.375,0.602,0.853,0.793,1.451c0.191,0.596,0.291,1.309,0.291,2.139c0,0.078,0,0.145,0,0.203
			c0,0.055-0.002,0.183-0.012,0.385h-6.49c0,0.595,0.092,1.105,0.272,1.525c0.181,0.422,0.427,0.756,0.742,1.019
			c0.312,0.257,0.68,0.448,1.103,0.575C73.425,156.353,73.886,156.416,74.373,156.416z M73.565,149.171
			c-0.353,0-0.681,0.07-0.987,0.214c-0.304,0.137-0.569,0.323-0.795,0.565c-0.225,0.235-0.413,0.515-0.551,0.836
			c-0.138,0.321-0.225,0.664-0.26,1.024h4.809c0-0.375-0.048-0.718-0.146-1.036c-0.098-0.316-0.238-0.597-0.425-0.835
			c-0.187-0.241-0.419-0.424-0.693-0.563C74.241,149.24,73.927,149.171,73.565,149.171z"/>
		<path d="M91.041,151.647c0.811,1.165,1.611,2.364,2.402,3.599h0.059c-0.086-1.285-0.129-2.603-0.129-3.941v-7.043h1.625v13.236
			h-1.614l-5.193-7.379c-0.896-1.285-1.698-2.486-2.403-3.604h-0.059c0.087,1.211,0.131,2.615,0.131,4.227v6.756h-1.615v-13.234
			h1.604L91.041,151.647z"/>
		<path d="M103.652,156.462h-0.041c-0.127,0.156-0.285,0.313-0.476,0.472c-0.19,0.155-0.411,0.296-0.664,0.416
			c-0.25,0.123-0.524,0.22-0.821,0.295c-0.298,0.073-0.613,0.106-0.949,0.106c-0.453,0-0.873-0.064-1.25-0.202
			c-0.379-0.136-0.709-0.331-0.98-0.595c-0.271-0.256-0.484-0.574-0.639-0.948c-0.15-0.38-0.227-0.806-0.227-1.28
			c0-0.471,0.086-0.885,0.254-1.255c0.168-0.372,0.401-0.685,0.707-0.937c0.305-0.259,0.666-0.459,1.092-0.594
			c0.428-0.135,0.895-0.208,1.41-0.208c0.487,0.009,0.938,0.048,1.354,0.132c0.415,0.076,0.786,0.178,1.106,0.299h0.041v-0.658
			c0-0.25-0.018-0.482-0.049-0.678c-0.031-0.196-0.09-0.375-0.168-0.527c-0.172-0.315-0.443-0.576-0.822-0.784
			c-0.375-0.208-0.883-0.31-1.522-0.31c-0.476,0-0.923,0.043-1.339,0.133c-0.42,0.091-0.836,0.217-1.25,0.374v-1.284
			c0.158-0.082,0.347-0.156,0.56-0.223c0.214-0.069,0.44-0.135,0.679-0.178c0.235-0.047,0.486-0.089,0.752-0.117
			c0.265-0.026,0.527-0.041,0.791-0.041c0.949,0,1.727,0.168,2.33,0.506c0.603,0.332,1.035,0.777,1.299,1.334
			c0.101,0.216,0.172,0.439,0.215,0.697c0.045,0.252,0.066,0.531,0.066,0.842v6.269h-1.285L103.652,156.462z M103.576,153.378
			c-0.283-0.083-0.617-0.156-1.004-0.227c-0.39-0.074-0.814-0.113-1.281-0.117c-0.652,0-1.158,0.133-1.528,0.41
			c-0.366,0.277-0.552,0.698-0.552,1.278c0,0.291,0.046,0.54,0.137,0.757c0.089,0.221,0.219,0.399,0.376,0.54
			c0.164,0.14,0.353,0.249,0.572,0.315c0.222,0.063,0.454,0.104,0.704,0.104c0.328,0,0.633-0.046,0.916-0.139
			c0.283-0.096,0.533-0.215,0.752-0.346c0.223-0.135,0.408-0.262,0.563-0.396c0.156-0.134,0.266-0.234,0.34-0.311L103.576,153.378
			L103.576,153.378z"/>
		<path d="M113.033,157.522c-0.131,0.05-0.334,0.106-0.604,0.144c-0.271,0.05-0.594,0.074-0.969,0.084
			c-0.494,0-0.926-0.063-1.284-0.183s-0.666-0.301-0.906-0.528c-0.239-0.222-0.419-0.502-0.536-0.825
			c-0.121-0.324-0.178-0.681-0.178-1.076v-5.716h-1.811v-1.317h1.811v-2.569h1.535v2.569h2.804v1.317h-2.81v5.479
			c0,0.223,0.033,0.419,0.093,0.604c0.063,0.187,0.164,0.349,0.298,0.481c0.135,0.136,0.309,0.241,0.52,0.319
			c0.209,0.074,0.463,0.109,0.761,0.109c0.204,0,0.419-0.015,0.647-0.049c0.228-0.035,0.44-0.07,0.629-0.125V157.522
			L113.033,157.522z"/>
		<path d="M115.169,145.917v-1.713h1.531v1.713H115.169z M115.207,157.501v-9.4h1.535v9.4H115.207z"/>
		<path d="M128.186,152.812c0,0.743-0.106,1.413-0.317,2.02c-0.207,0.609-0.508,1.125-0.893,1.555
			c-0.387,0.438-0.852,0.767-1.4,1.01c-0.547,0.23-1.16,0.354-1.84,0.354c-0.701,0-1.324-0.121-1.873-0.354
			c-0.55-0.24-1.019-0.576-1.404-1.01c-0.387-0.432-0.684-0.95-0.887-1.555c-0.205-0.605-0.307-1.28-0.307-2.02
			c0-0.745,0.105-1.42,0.316-2.025c0.209-0.603,0.508-1.125,0.896-1.562c0.388-0.433,0.853-0.771,1.405-1.013
			c0.551-0.232,1.165-0.354,1.845-0.354c0.692,0,1.315,0.118,1.869,0.354c0.556,0.236,1.021,0.576,1.405,1.013
			c0.382,0.437,0.676,0.956,0.88,1.562C128.085,151.393,128.186,152.072,128.186,152.812z M126.585,152.812
			c0-0.574-0.07-1.096-0.213-1.55c-0.141-0.453-0.34-0.833-0.594-1.142c-0.252-0.314-0.555-0.554-0.906-0.715
			c-0.351-0.162-0.73-0.24-1.147-0.24c-0.415,0-0.797,0.078-1.146,0.24c-0.352,0.161-0.653,0.399-0.906,0.715
			c-0.256,0.312-0.451,0.692-0.594,1.142c-0.141,0.454-0.213,0.972-0.213,1.55s0.071,1.092,0.213,1.54
			c0.142,0.453,0.344,0.84,0.601,1.146c0.255,0.308,0.56,0.545,0.91,0.703c0.349,0.162,0.731,0.241,1.146,0.241
			c0.416,0,0.797-0.079,1.143-0.241c0.349-0.158,0.648-0.398,0.9-0.703c0.256-0.31,0.451-0.689,0.594-1.146
			C126.513,153.9,126.585,153.391,126.585,152.812z"/>
		<path d="M132.094,149.41h0.032c0.171-0.221,0.361-0.418,0.566-0.606c0.211-0.19,0.44-0.356,0.699-0.493
			c0.256-0.143,0.538-0.25,0.846-0.328c0.308-0.082,0.642-0.117,1.004-0.117c0.43,0,0.832,0.053,1.209,0.174
			c0.375,0.123,0.703,0.311,0.978,0.576c0.276,0.267,0.496,0.609,0.659,1.031c0.158,0.426,0.242,0.945,0.242,1.567v6.29h-1.532
			v-6.043c0-0.811-0.158-1.396-0.47-1.752c-0.313-0.356-0.77-0.534-1.369-0.534c-0.527,0-1.041,0.147-1.535,0.438
			c-0.496,0.297-0.92,0.697-1.278,1.213v6.678h-1.532v-9.401h1.188L132.094,149.41z"/>
		<path d="M146.794,156.462h-0.039c-0.125,0.156-0.283,0.313-0.477,0.472c-0.19,0.155-0.412,0.296-0.664,0.416
			c-0.25,0.123-0.524,0.22-0.82,0.295c-0.297,0.073-0.613,0.106-0.948,0.106c-0.453,0-0.872-0.064-1.252-0.202
			c-0.38-0.136-0.706-0.331-0.978-0.595c-0.274-0.256-0.486-0.574-0.639-0.948c-0.152-0.38-0.225-0.806-0.225-1.28
			c0-0.471,0.085-0.885,0.25-1.255c0.17-0.372,0.404-0.685,0.707-0.937c0.305-0.259,0.666-0.459,1.094-0.594
			c0.427-0.135,0.895-0.208,1.408-0.208c0.488,0.009,0.939,0.048,1.357,0.132c0.414,0.076,0.783,0.178,1.106,0.299h0.04v-0.658
			c0-0.25-0.018-0.482-0.049-0.678c-0.032-0.196-0.09-0.375-0.168-0.527c-0.174-0.315-0.442-0.576-0.823-0.784
			c-0.374-0.208-0.882-0.31-1.521-0.31c-0.476,0-0.923,0.043-1.342,0.133c-0.417,0.091-0.835,0.217-1.25,0.374v-1.284
			c0.157-0.082,0.346-0.156,0.559-0.223c0.216-0.069,0.44-0.135,0.677-0.178c0.235-0.047,0.487-0.089,0.753-0.117
			c0.263-0.026,0.527-0.041,0.791-0.041c0.949,0,1.727,0.168,2.33,0.506c0.604,0.332,1.035,0.777,1.299,1.334
			c0.104,0.216,0.172,0.439,0.213,0.697c0.042,0.252,0.064,0.531,0.064,0.842v6.269h-1.282L146.794,156.462z M146.714,153.378
			c-0.283-0.083-0.618-0.156-1.004-0.227c-0.389-0.074-0.813-0.113-1.279-0.117c-0.65,0-1.159,0.133-1.527,0.41
			c-0.365,0.277-0.553,0.698-0.553,1.278c0,0.291,0.047,0.54,0.137,0.757c0.09,0.221,0.221,0.399,0.379,0.54
			c0.162,0.14,0.354,0.249,0.572,0.315c0.219,0.063,0.453,0.104,0.704,0.104c0.328,0,0.632-0.046,0.915-0.139
			c0.28-0.096,0.531-0.215,0.754-0.346c0.219-0.135,0.404-0.262,0.563-0.396c0.156-0.134,0.266-0.234,0.34-0.311V153.378
			L146.714,153.378z"/>
		<path d="M151.314,157.501v-14.32h1.535v14.32H151.314z"/>
		<path d="M167.181,157.501h-0.742l-3.333-7.906c-0.464-1.088-0.923-2.27-1.385-3.551h-0.08c0.093,1.84,0.138,3.521,0.138,5.058
			v6.399h-1.611v-13.236h2.326l3.115,7.49c0.355,0.854,0.75,1.89,1.178,3.096h0.049c0.477-1.344,0.867-2.373,1.176-3.096l3.117-7.49
			h2.326v13.236h-1.611v-6.399c0-1.498,0.044-3.185,0.136-5.058H171.9c-0.488,1.351-0.949,2.535-1.384,3.551L167.181,157.501z"/>
		<path d="M182.119,156.462h-0.041c-0.125,0.156-0.283,0.313-0.475,0.472c-0.191,0.155-0.412,0.296-0.663,0.416
			c-0.251,0.123-0.524,0.22-0.821,0.295c-0.297,0.073-0.613,0.106-0.949,0.106c-0.453,0-0.873-0.064-1.25-0.202
			c-0.379-0.136-0.707-0.331-0.979-0.595c-0.271-0.256-0.486-0.574-0.638-0.948c-0.151-0.38-0.226-0.806-0.226-1.28
			c0-0.471,0.084-0.885,0.25-1.255c0.168-0.372,0.404-0.685,0.709-0.937c0.304-0.259,0.664-0.459,1.092-0.594
			c0.425-0.135,0.895-0.208,1.408-0.208c0.487,0.009,0.938,0.048,1.357,0.132c0.418,0.078,0.787,0.178,1.109,0.299h0.041v-0.658
			c0-0.25-0.018-0.482-0.051-0.678s-0.09-0.375-0.168-0.527c-0.174-0.315-0.441-0.576-0.819-0.784
			c-0.376-0.208-0.882-0.31-1.522-0.31c-0.474,0-0.923,0.043-1.339,0.133c-0.421,0.091-0.835,0.217-1.254,0.374v-1.284
			c0.159-0.082,0.347-0.156,0.562-0.223c0.215-0.069,0.439-0.135,0.676-0.178c0.236-0.047,0.488-0.089,0.753-0.117
			c0.263-0.026,0.526-0.041,0.79-0.041c0.949,0,1.728,0.168,2.332,0.506c0.602,0.332,1.035,0.777,1.299,1.334
			c0.1,0.216,0.172,0.439,0.215,0.697c0.044,0.252,0.061,0.531,0.061,0.842v6.269h-1.281L182.119,156.462z M182.037,153.378
			c-0.282-0.083-0.615-0.156-1.002-0.227c-0.39-0.074-0.814-0.113-1.278-0.117c-0.65,0-1.159,0.133-1.527,0.41
			c-0.366,0.277-0.552,0.698-0.552,1.278c0,0.291,0.047,0.54,0.136,0.757c0.093,0.221,0.222,0.399,0.38,0.54
			c0.164,0.14,0.354,0.249,0.572,0.315c0.219,0.063,0.453,0.104,0.704,0.104c0.327,0,0.631-0.046,0.916-0.139
			c0.28-0.096,0.532-0.215,0.753-0.346c0.219-0.135,0.404-0.262,0.563-0.396c0.152-0.134,0.265-0.234,0.338-0.311v-1.869H182.037z"
			/>
		<path d="M191.5,157.522c-0.135,0.05-0.332,0.106-0.604,0.144c-0.271,0.05-0.59,0.074-0.973,0.084c-0.49,0-0.924-0.063-1.283-0.183
			c-0.357-0.12-0.665-0.301-0.904-0.528c-0.24-0.222-0.42-0.502-0.539-0.825c-0.117-0.326-0.179-0.681-0.179-1.076v-5.716h-1.808
			v-1.317h1.808v-2.569h1.538v2.569h2.807v1.317h-2.807v5.479c0,0.223,0.031,0.419,0.092,0.604c0.061,0.187,0.162,0.349,0.299,0.481
			c0.137,0.136,0.311,0.241,0.52,0.319c0.217,0.074,0.469,0.109,0.76,0.109c0.207,0,0.422-0.015,0.654-0.049
			c0.227-0.035,0.434-0.07,0.631-0.125L191.5,157.522L191.5,157.522z"/>
		<path d="M198.031,156.416c0.51,0,0.977-0.045,1.391-0.123c0.416-0.082,0.84-0.204,1.254-0.354v1.276
			c-0.336,0.171-0.752,0.298-1.248,0.393c-0.494,0.096-1.025,0.145-1.592,0.145c-0.67,0-1.303-0.088-1.895-0.262
			c-0.586-0.17-1.1-0.449-1.535-0.83c-0.43-0.381-0.768-0.881-1.014-1.496c-0.244-0.617-0.365-1.364-0.365-2.229
			c0-0.858,0.117-1.61,0.354-2.235c0.234-0.627,0.557-1.156,0.939-1.578c0.4-0.422,0.852-0.739,1.369-0.949
			c0.514-0.215,1.053-0.313,1.609-0.313c0.525,0,1.018,0.087,1.475,0.263c0.455,0.172,0.85,0.447,1.188,0.832
			c0.334,0.375,0.6,0.853,0.799,1.451c0.191,0.592,0.291,1.309,0.291,2.139c0,0.078,0,0.145,0,0.203
			c0,0.055-0.004,0.183-0.014,0.385h-6.486c0,0.595,0.088,1.105,0.271,1.525c0.184,0.422,0.428,0.756,0.746,1.019
			c0.309,0.257,0.68,0.448,1.104,0.575C197.093,156.353,197.55,156.416,198.031,156.416z M197.23,149.171
			c-0.357,0-0.686,0.07-0.99,0.214c-0.303,0.137-0.57,0.323-0.797,0.565c-0.225,0.229-0.406,0.515-0.551,0.836
			c-0.143,0.321-0.225,0.664-0.266,1.024h4.813c0-0.375-0.047-0.718-0.145-1.036c-0.1-0.316-0.234-0.597-0.428-0.835
			c-0.184-0.241-0.414-0.424-0.688-0.563C197.908,149.238,197.585,149.171,197.23,149.171z"/>
		<path d="M208.812,149.349h-0.121c-0.363,0-0.723,0.036-1.07,0.102s-0.676,0.166-0.984,0.307c-0.309,0.134-0.58,0.304-0.83,0.494
			c-0.25,0.203-0.457,0.437-0.623,0.705v6.549h-1.533v-9.396h1.191l0.299,1.489h0.035c0.146-0.24,0.334-0.476,0.559-0.681
			c0.223-0.211,0.473-0.398,0.75-0.553c0.275-0.162,0.58-0.287,0.914-0.375c0.324-0.092,0.672-0.134,1.031-0.134
			c0.064,0,0.135,0,0.207,0.004c0.068,0.005,0.131,0.009,0.184,0.013v1.477H208.812L208.812,149.349z"/>
		<path d="M211.927,149.41h0.029c0.17-0.221,0.363-0.418,0.574-0.606c0.213-0.19,0.439-0.356,0.693-0.493
			c0.258-0.143,0.539-0.25,0.846-0.328c0.309-0.082,0.645-0.117,1.006-0.117c0.43,0,0.834,0.053,1.201,0.174
			c0.381,0.123,0.707,0.311,0.98,0.576c0.279,0.267,0.498,0.609,0.664,1.031c0.158,0.426,0.238,0.945,0.238,1.567v6.29h-1.537
			v-6.043c0-0.811-0.148-1.396-0.471-1.752c-0.311-0.356-0.764-0.534-1.371-0.534c-0.527,0-1.033,0.147-1.531,0.438
			c-0.494,0.297-0.922,0.697-1.275,1.213v6.678h-1.541v-9.401h1.191L211.927,149.41z"/>
		<path d="M226.628,156.462h-0.043c-0.131,0.156-0.285,0.313-0.48,0.472c-0.191,0.155-0.41,0.296-0.662,0.416
			c-0.25,0.123-0.523,0.22-0.826,0.295c-0.295,0.073-0.607,0.106-0.945,0.106c-0.453,0-0.871-0.064-1.248-0.202
			c-0.383-0.136-0.711-0.331-0.98-0.595c-0.277-0.256-0.486-0.574-0.641-0.948c-0.15-0.38-0.225-0.806-0.225-1.28
			c0-0.471,0.082-0.885,0.248-1.255c0.17-0.372,0.402-0.685,0.713-0.937c0.301-0.259,0.664-0.459,1.09-0.594
			c0.424-0.135,0.898-0.208,1.41-0.208c0.486,0.009,0.939,0.048,1.357,0.132c0.416,0.078,0.789,0.178,1.107,0.299h0.041v-0.658
			c0-0.25-0.02-0.482-0.045-0.678c-0.037-0.195-0.09-0.375-0.168-0.527c-0.174-0.315-0.449-0.576-0.82-0.784
			c-0.383-0.208-0.887-0.31-1.529-0.31c-0.479,0-0.924,0.043-1.342,0.133c-0.418,0.091-0.834,0.217-1.248,0.374v-1.284
			c0.154-0.082,0.34-0.156,0.557-0.223c0.221-0.069,0.439-0.135,0.678-0.178c0.234-0.047,0.486-0.089,0.75-0.117
			c0.268-0.026,0.527-0.041,0.793-0.041c0.945,0,1.727,0.168,2.33,0.506c0.604,0.332,1.035,0.777,1.299,1.334
			c0.098,0.216,0.168,0.439,0.217,0.697c0.043,0.252,0.064,0.531,0.064,0.842v6.269h-1.289L226.628,156.462z M226.546,153.378
			c-0.285-0.083-0.613-0.156-1.006-0.227c-0.391-0.074-0.814-0.113-1.285-0.117c-0.646,0-1.156,0.133-1.523,0.41
			c-0.369,0.277-0.553,0.698-0.553,1.278c0,0.291,0.045,0.54,0.135,0.757c0.092,0.221,0.221,0.399,0.383,0.54
			c0.158,0.14,0.348,0.249,0.572,0.315c0.223,0.063,0.455,0.104,0.701,0.104c0.328,0,0.637-0.046,0.922-0.139
			c0.281-0.096,0.531-0.215,0.754-0.346c0.221-0.135,0.402-0.262,0.561-0.396c0.152-0.134,0.271-0.234,0.34-0.311V153.378
			L226.546,153.378z"/>
		<path d="M231.148,157.501v-14.32h1.531v14.32H231.148z"/>
		<path d="M246.794,151.647c0.813,1.165,1.613,2.364,2.404,3.599h0.055c-0.08-1.285-0.129-2.603-0.129-3.941v-7.043h1.625v13.236
			h-1.609l-5.191-7.379c-0.9-1.285-1.703-2.486-2.408-3.604h-0.057c0.086,1.211,0.135,2.615,0.135,4.227v6.756h-1.617V144.26h1.604
			L246.794,151.647z"/>
		<path d="M258.369,156.416c0.502,0,0.967-0.045,1.387-0.123c0.416-0.082,0.84-0.204,1.254-0.354v1.276
			c-0.336,0.171-0.752,0.298-1.25,0.393c-0.49,0.096-1.021,0.145-1.592,0.145c-0.672,0-1.301-0.088-1.895-0.262
			c-0.586-0.17-1.102-0.449-1.533-0.83s-0.766-0.881-1.02-1.496c-0.238-0.617-0.361-1.364-0.361-2.229
			c0-0.858,0.119-1.61,0.354-2.235c0.234-0.627,0.555-1.156,0.945-1.578c0.396-0.422,0.848-0.739,1.365-0.949
			c0.516-0.213,1.049-0.313,1.609-0.313c0.527,0,1.02,0.087,1.473,0.263c0.459,0.172,0.852,0.447,1.189,0.832
			c0.334,0.375,0.598,0.853,0.793,1.451c0.195,0.598,0.297,1.309,0.297,2.139c0,0.078,0,0.145,0,0.203
			c0,0.055-0.006,0.183-0.014,0.385h-6.492c0,0.595,0.092,1.105,0.275,1.525c0.184,0.422,0.428,0.756,0.746,1.019
			c0.311,0.257,0.678,0.448,1.104,0.575C257.425,156.353,257.878,156.416,258.369,156.416z M257.558,149.171
			c-0.355,0-0.684,0.07-0.988,0.214c-0.309,0.137-0.57,0.323-0.797,0.565c-0.227,0.229-0.408,0.515-0.555,0.836
			c-0.137,0.318-0.223,0.664-0.258,1.024h4.805c0-0.375-0.045-0.718-0.143-1.036c-0.098-0.316-0.238-0.597-0.428-0.835
			c-0.186-0.241-0.412-0.424-0.688-0.563C258.238,149.24,257.919,149.171,257.558,149.171z"/>
		<path d="M269.486,156.462h-0.037c-0.131,0.156-0.285,0.313-0.482,0.472c-0.189,0.155-0.408,0.296-0.66,0.416
			c-0.252,0.123-0.523,0.22-0.822,0.295c-0.303,0.073-0.615,0.106-0.951,0.106c-0.457,0-0.871-0.064-1.252-0.202
			c-0.381-0.136-0.707-0.331-0.982-0.595c-0.273-0.256-0.482-0.574-0.637-0.948c-0.148-0.38-0.225-0.806-0.225-1.28
			c0-0.471,0.086-0.885,0.25-1.255c0.168-0.372,0.402-0.685,0.707-0.937c0.305-0.259,0.666-0.459,1.098-0.594
			c0.424-0.135,0.895-0.208,1.408-0.208c0.486,0.009,0.936,0.048,1.355,0.132c0.414,0.076,0.783,0.178,1.109,0.299h0.041v-0.658
			c0-0.25-0.021-0.482-0.053-0.678c-0.029-0.195-0.084-0.375-0.164-0.527c-0.172-0.315-0.443-0.576-0.824-0.784
			c-0.375-0.208-0.879-0.31-1.521-0.31c-0.479,0-0.926,0.043-1.342,0.133c-0.42,0.091-0.836,0.217-1.256,0.374v-1.284
			c0.156-0.082,0.344-0.156,0.563-0.223c0.219-0.069,0.436-0.135,0.676-0.178c0.232-0.047,0.486-0.089,0.754-0.117
			c0.26-0.026,0.525-0.041,0.789-0.041c0.947,0,1.725,0.168,2.33,0.506c0.604,0.332,1.035,0.777,1.299,1.334
			c0.104,0.216,0.174,0.439,0.213,0.697c0.047,0.252,0.066,0.531,0.066,0.842v6.269h-1.285L269.486,156.462z M269.41,153.378
			c-0.285-0.083-0.617-0.156-1.008-0.227c-0.387-0.074-0.814-0.113-1.279-0.117c-0.654,0-1.16,0.133-1.525,0.41
			c-0.371,0.277-0.559,0.698-0.559,1.278c0,0.291,0.047,0.54,0.137,0.757c0.092,0.217,0.223,0.399,0.383,0.54
			c0.156,0.14,0.35,0.249,0.574,0.315c0.223,0.063,0.453,0.104,0.701,0.104c0.326,0,0.637-0.046,0.92-0.139
			c0.281-0.096,0.529-0.215,0.752-0.346c0.221-0.135,0.402-0.262,0.563-0.396c0.152-0.134,0.268-0.234,0.342-0.311V153.378
			L269.41,153.378z"/>
		<path d="M279.066,149.349h-0.121c-0.363,0-0.721,0.036-1.068,0.102c-0.352,0.065-0.674,0.166-0.984,0.307
			c-0.311,0.134-0.582,0.304-0.832,0.494c-0.25,0.203-0.455,0.437-0.619,0.705v6.549h-1.533v-9.396h1.189l0.301,1.489h0.033
			c0.148-0.24,0.338-0.476,0.559-0.681c0.221-0.211,0.477-0.398,0.752-0.553c0.279-0.162,0.576-0.287,0.914-0.375
			c0.322-0.092,0.672-0.134,1.037-0.134c0.063,0,0.135,0,0.203,0.004c0.068,0.005,0.133,0.009,0.18,0.013v1.477H279.066
			L279.066,149.349z"/>
		<path d="M279.312,151.852h4.361v1.435h-4.361V151.852z"/>
		<path d="M294.019,157.501h-1.533v-6.041c0-0.405-0.043-0.762-0.133-1.047c-0.09-0.287-0.221-0.522-0.389-0.705
			c-0.17-0.184-0.375-0.318-0.602-0.405c-0.236-0.087-0.496-0.132-0.789-0.132c-0.549,0-1.045,0.147-1.494,0.438
			c-0.445,0.299-0.844,0.699-1.201,1.215v6.678h-1.535V148.1h1.189l0.297,1.308h0.033c0.174-0.22,0.355-0.418,0.563-0.604
			c0.201-0.192,0.422-0.356,0.67-0.493c0.246-0.145,0.518-0.25,0.818-0.329s0.619-0.118,0.969-0.118
			c0.697,0,1.281,0.166,1.738,0.502c0.461,0.336,0.818,0.793,1.066,1.373h0.045c0.412-0.589,0.891-1.047,1.426-1.379
			c0.535-0.33,1.162-0.496,1.875-0.496c0.326,0,0.674,0.045,1.051,0.135c0.367,0.096,0.709,0.266,1.016,0.51
			c0.311,0.246,0.576,0.587,0.771,1.021c0.213,0.438,0.309,0.998,0.309,1.684v6.291h-1.533v-6.043c0-0.406-0.043-0.76-0.133-1.047
			c-0.09-0.285-0.223-0.522-0.389-0.705c-0.17-0.185-0.369-0.317-0.602-0.405c-0.232-0.087-0.496-0.131-0.785-0.131
			c-0.553,0-1.049,0.147-1.502,0.438c-0.451,0.297-0.854,0.697-1.213,1.213L294.019,157.501L294.019,157.501z"/>
		<path d="M303.189,145.917v-1.713h1.535v1.713H303.189z M303.228,157.501v-9.4h1.535v9.4H303.228z"/>
		<path d="M308.927,150.608c0,0.257,0.057,0.472,0.168,0.638c0.107,0.162,0.256,0.297,0.439,0.397
			c0.178,0.104,0.4,0.187,0.637,0.252c0.242,0.065,0.49,0.125,0.752,0.179c0.355,0.078,0.689,0.166,1.01,0.26
			c0.313,0.097,0.605,0.234,0.875,0.434c0.266,0.191,0.482,0.448,0.65,0.771c0.164,0.33,0.24,0.752,0.24,1.276
			c0,0.476-0.088,0.897-0.277,1.265c-0.184,0.364-0.443,0.664-0.775,0.918c-0.336,0.248-0.742,0.439-1.209,0.567
			c-0.471,0.129-0.98,0.191-1.541,0.191c-0.342,0-0.658-0.022-0.932-0.056c-0.281-0.037-0.531-0.082-0.748-0.133
			c-0.215-0.058-0.396-0.115-0.549-0.171c-0.146-0.062-0.273-0.122-0.379-0.169v-1.286c0.395,0.156,0.773,0.285,1.158,0.38
			c0.385,0.092,0.805,0.135,1.264,0.135c0.363,0,0.691-0.034,0.986-0.101c0.291-0.062,0.541-0.157,0.75-0.292
			c0.213-0.131,0.375-0.292,0.484-0.482c0.109-0.196,0.168-0.424,0.168-0.674c0-0.267-0.053-0.488-0.152-0.66
			c-0.105-0.17-0.244-0.313-0.42-0.422c-0.174-0.115-0.379-0.209-0.604-0.279c-0.229-0.069-0.477-0.135-0.725-0.196
			c-0.328-0.073-0.666-0.161-1.012-0.261c-0.34-0.1-0.646-0.229-0.926-0.414c-0.277-0.18-0.504-0.416-0.674-0.729
			c-0.168-0.308-0.256-0.697-0.256-1.185c0-0.492,0.092-0.927,0.266-1.284c0.18-0.365,0.42-0.666,0.723-0.902
			c0.307-0.234,0.664-0.414,1.061-0.535c0.398-0.121,0.83-0.174,1.277-0.174c0.521,0,1.006,0.045,1.455,0.145
			c0.438,0.096,0.844,0.223,1.209,0.38v1.302c-0.393-0.148-0.779-0.273-1.184-0.369c-0.396-0.095-0.797-0.145-1.215-0.154
			c-0.354,0-0.654,0.041-0.91,0.115c-0.248,0.068-0.457,0.17-0.617,0.299c-0.16,0.133-0.273,0.281-0.35,0.459
			C308.964,150.199,308.927,150.397,308.927,150.608z"/>
		<path d="M317.119,150.608c0,0.257,0.051,0.472,0.164,0.638c0.107,0.162,0.256,0.297,0.438,0.397
			c0.184,0.104,0.4,0.187,0.641,0.252c0.242,0.065,0.49,0.125,0.75,0.179c0.355,0.078,0.689,0.166,1.012,0.26
			c0.311,0.097,0.604,0.234,0.873,0.434c0.262,0.191,0.484,0.448,0.648,0.771c0.164,0.33,0.248,0.752,0.248,1.276
			c0,0.476-0.094,0.897-0.281,1.265c-0.184,0.364-0.439,0.664-0.777,0.918c-0.336,0.248-0.742,0.439-1.205,0.567
			c-0.473,0.129-0.982,0.191-1.543,0.191c-0.342,0-0.656-0.022-0.932-0.056c-0.281-0.037-0.531-0.082-0.746-0.133
			c-0.219-0.058-0.398-0.115-0.545-0.171c-0.15-0.062-0.279-0.122-0.385-0.169v-1.286c0.395,0.156,0.771,0.285,1.158,0.38
			c0.387,0.092,0.803,0.135,1.266,0.135c0.365,0,0.688-0.034,0.982-0.101c0.295-0.062,0.539-0.157,0.752-0.292
			c0.209-0.131,0.375-0.292,0.486-0.482c0.113-0.196,0.168-0.424,0.168-0.674c0-0.267-0.049-0.488-0.156-0.66
			c-0.104-0.17-0.238-0.313-0.416-0.422c-0.172-0.115-0.377-0.209-0.604-0.279c-0.227-0.069-0.471-0.135-0.725-0.196
			c-0.326-0.073-0.666-0.161-1.008-0.261s-0.648-0.229-0.928-0.414c-0.277-0.18-0.502-0.416-0.672-0.729
			c-0.17-0.308-0.256-0.697-0.256-1.185c0-0.492,0.088-0.927,0.268-1.284c0.18-0.365,0.416-0.666,0.723-0.902
			c0.307-0.234,0.658-0.414,1.059-0.535c0.396-0.121,0.83-0.174,1.275-0.174c0.521,0,1.008,0.045,1.455,0.145
			c0.443,0.096,0.846,0.223,1.209,0.38v1.302c-0.391-0.148-0.779-0.273-1.178-0.369c-0.398-0.095-0.803-0.145-1.219-0.154
			c-0.354,0-0.66,0.041-0.91,0.115c-0.248,0.068-0.455,0.17-0.619,0.299c-0.154,0.133-0.275,0.281-0.35,0.459
			C317.158,150.203,317.119,150.397,317.119,150.608z"/>
		<path d="M84.597,172.078c0,0.396,0.081,0.715,0.236,0.967c0.158,0.25,0.369,0.461,0.636,0.627s0.573,0.304,0.927,0.4
			c0.354,0.107,0.717,0.209,1.1,0.301c0.514,0.131,1.019,0.267,1.516,0.416c0.496,0.146,0.938,0.356,1.326,0.629
			c0.389,0.266,0.701,0.609,0.939,1.039c0.24,0.43,0.359,0.981,0.359,1.648c0,0.688-0.132,1.28-0.393,1.778
			c-0.264,0.497-0.619,0.909-1.078,1.223c-0.459,0.318-1.004,0.56-1.627,0.716c-0.625,0.153-1.314,0.229-2.06,0.229
			c-0.344,0-0.694-0.021-1.054-0.063s-0.704-0.101-1.027-0.17c-0.324-0.074-0.621-0.158-0.884-0.244
			c-0.267-0.093-0.474-0.188-0.623-0.279v-1.473c0.239,0.121,0.504,0.223,0.802,0.322c0.299,0.1,0.604,0.188,0.922,0.253
			c0.315,0.068,0.635,0.12,0.959,0.161c0.322,0.04,0.625,0.057,0.91,0.057c0.463,0,0.9-0.043,1.319-0.119
			c0.421-0.078,0.789-0.215,1.103-0.398c0.317-0.184,0.568-0.436,0.754-0.753c0.187-0.318,0.275-0.718,0.275-1.198
			c0-0.4-0.081-0.722-0.242-0.98c-0.162-0.258-0.379-0.469-0.648-0.641c-0.27-0.17-0.583-0.31-0.934-0.408
			c-0.354-0.104-0.723-0.205-1.111-0.297c-0.518-0.119-1.02-0.253-1.51-0.4c-0.49-0.146-0.931-0.356-1.313-0.617
			c-0.388-0.268-0.698-0.602-0.931-1.018c-0.233-0.416-0.354-0.949-0.354-1.597c0-0.671,0.124-1.244,0.37-1.735
			c0.247-0.482,0.579-0.884,1.002-1.195c0.418-0.318,0.903-0.559,1.452-0.705c0.546-0.153,1.131-0.229,1.751-0.229
			c0.706,0,1.362,0.065,1.976,0.205c0.61,0.135,1.17,0.313,1.678,0.533v1.494c-0.547-0.229-1.111-0.419-1.697-0.571
			c-0.584-0.143-1.209-0.218-1.875-0.223c-0.502,0-0.936,0.057-1.307,0.162c-0.369,0.112-0.674,0.266-0.918,0.466
			c-0.246,0.204-0.428,0.449-0.545,0.736C84.658,171.412,84.597,171.727,84.597,172.078z"/>
		<path d="M98.02,182.057c-0.485,0-0.927-0.046-1.315-0.153c-0.39-0.106-0.731-0.254-1.024-0.445
			c-0.293-0.193-0.543-0.414-0.749-0.685c-0.204-0.267-0.365-0.563-0.484-0.876c-0.09-0.236-0.158-0.497-0.199-0.779
			c-0.039-0.287-0.06-0.59-0.06-0.931v-5.771h1.535v5.76c0,0.517,0.071,0.953,0.207,1.301c0.159,0.398,0.412,0.706,0.769,0.934
			c0.353,0.222,0.801,0.34,1.348,0.34c0.58,0,1.05-0.131,1.4-0.377c0.354-0.25,0.606-0.586,0.754-1.008
			c0.113-0.324,0.17-0.729,0.17-1.197v-5.76h1.535v5.782c0,0.31-0.017,0.61-0.055,0.886c-0.035,0.273-0.091,0.521-0.174,0.752
			c-0.119,0.318-0.283,0.621-0.486,0.896c-0.211,0.273-0.467,0.506-0.771,0.706c-0.304,0.202-0.655,0.353-1.054,0.461
			C98.971,182.005,98.522,182.057,98.02,182.057z"/>
		<path d="M109.93,173.664h-0.117c-0.364,0-0.721,0.033-1.069,0.1c-0.351,0.061-0.676,0.167-0.981,0.301
			c-0.308,0.137-0.584,0.307-0.831,0.501c-0.249,0.2-0.453,0.433-0.618,0.701v6.548h-1.534v-9.396h1.188l0.298,1.492h0.03
			c0.15-0.237,0.335-0.475,0.559-0.683c0.223-0.21,0.471-0.397,0.747-0.556c0.276-0.15,0.58-0.277,0.91-0.369
			c0.329-0.088,0.673-0.135,1.039-0.135c0.063,0,0.134,0,0.202,0.005c0.07,0.005,0.132,0.01,0.183,0.017L109.93,173.664
			L109.93,173.664z"/>
		<path d="M114.734,180.26c0.225-0.687,0.533-1.556,0.922-2.619l1.883-5.221h1.533l-3.551,9.395h-1.59l-3.553-9.395h1.533
			l1.869,5.221c0.371,1.029,0.676,1.904,0.916,2.619H114.734z"/>
		<path d="M125.382,180.722c0.506,0,0.972-0.043,1.39-0.121c0.419-0.084,0.837-0.204,1.253-0.354v1.277
			c-0.338,0.158-0.75,0.299-1.246,0.395s-1.027,0.139-1.593,0.139c-0.67,0-1.303-0.087-1.894-0.256
			c-0.59-0.171-1.1-0.449-1.532-0.831c-0.433-0.388-0.771-0.886-1.017-1.503c-0.242-0.614-0.365-1.359-0.365-2.23
			c0-0.854,0.121-1.6,0.355-2.236c0.235-0.625,0.553-1.152,0.947-1.576c0.396-0.42,0.85-0.741,1.363-0.946
			c0.513-0.212,1.05-0.317,1.607-0.317c0.527,0,1.02,0.093,1.475,0.267c0.459,0.179,0.855,0.448,1.191,0.827
			c0.336,0.375,0.6,0.859,0.795,1.453c0.192,0.594,0.291,1.31,0.291,2.14c0,0.078,0,0.147,0,0.206c0,0.053-0.002,0.184-0.009,0.382
			h-6.489c0,0.599,0.09,1.108,0.271,1.529c0.182,0.424,0.432,0.76,0.744,1.018c0.31,0.263,0.679,0.455,1.101,0.571
			C124.438,180.669,124.895,180.722,125.382,180.722z M124.574,173.483c-0.354,0-0.682,0.067-0.983,0.214
			c-0.308,0.135-0.57,0.323-0.798,0.563c-0.227,0.24-0.407,0.52-0.551,0.838c-0.141,0.32-0.228,0.661-0.261,1.021h4.808
			c0-0.369-0.047-0.715-0.143-1.03c-0.098-0.319-0.238-0.599-0.427-0.839c-0.187-0.24-0.419-0.428-0.69-0.562
			C125.251,173.551,124.935,173.483,124.574,173.483z"/>
		<path d="M131.058,170.23v-1.714h1.535v1.714H131.058z M131.098,181.813v-9.396h1.535v9.396H131.098L131.098,181.813z"/>
		<path d="M135.799,181.813v-14.325h1.534v14.325H135.799z"/>
		<path d="M140.498,181.813v-14.325h1.535v14.325H140.498z"/>
		<path d="M150.596,180.776h-0.041c-0.123,0.157-0.283,0.312-0.474,0.47c-0.191,0.16-0.412,0.299-0.664,0.416
			c-0.25,0.123-0.524,0.221-0.82,0.295c-0.298,0.069-0.613,0.107-0.95,0.107c-0.452,0-0.872-0.064-1.25-0.203
			c-0.379-0.135-0.706-0.33-0.978-0.593c-0.275-0.255-0.487-0.576-0.639-0.953c-0.15-0.377-0.226-0.802-0.226-1.278
			c0-0.469,0.085-0.883,0.251-1.258c0.17-0.365,0.404-0.674,0.708-0.936c0.304-0.258,0.666-0.455,1.092-0.59
			c0.425-0.141,0.896-0.211,1.41-0.211c0.485,0.004,0.938,0.045,1.356,0.127c0.416,0.084,0.783,0.186,1.107,0.305h0.04v-0.656
			c0-0.258-0.017-0.482-0.051-0.681c-0.032-0.199-0.09-0.375-0.166-0.522c-0.174-0.313-0.442-0.578-0.823-0.787
			c-0.373-0.209-0.882-0.311-1.521-0.311c-0.475,0-0.924,0.045-1.34,0.133c-0.42,0.09-0.834,0.215-1.254,0.37v-1.285
			c0.16-0.079,0.348-0.146,0.563-0.222c0.214-0.072,0.439-0.132,0.678-0.18c0.236-0.049,0.487-0.086,0.754-0.111
			c0.262-0.032,0.526-0.044,0.791-0.044c0.947,0,1.725,0.169,2.329,0.501c0.603,0.334,1.036,0.785,1.3,1.338
			c0.103,0.212,0.172,0.443,0.213,0.695c0.045,0.255,0.063,0.533,0.063,0.837v6.272h-1.282L150.596,180.776z M150.519,177.689
			c-0.283-0.078-0.619-0.152-1.005-0.229c-0.39-0.066-0.813-0.112-1.278-0.12c-0.65,0-1.158,0.137-1.525,0.415
			c-0.366,0.277-0.553,0.701-0.553,1.273c0,0.293,0.047,0.545,0.135,0.762c0.093,0.222,0.222,0.398,0.381,0.543
			c0.164,0.14,0.354,0.244,0.572,0.311c0.219,0.069,0.453,0.105,0.703,0.105c0.33,0,0.633-0.045,0.918-0.142
			c0.279-0.092,0.53-0.213,0.752-0.34c0.219-0.135,0.403-0.267,0.562-0.396c0.153-0.135,0.265-0.235,0.34-0.31L150.519,177.689
			L150.519,177.689z"/>
		<path d="M156.504,173.72h0.032c0.17-0.217,0.36-0.419,0.566-0.605c0.208-0.191,0.438-0.354,0.7-0.49
			c0.255-0.142,0.538-0.254,0.844-0.332c0.308-0.077,0.644-0.12,1.003-0.12c0.432,0,0.834,0.06,1.209,0.184
			c0.375,0.116,0.703,0.308,0.977,0.568c0.277,0.268,0.496,0.61,0.66,1.032c0.164,0.424,0.242,0.947,0.242,1.568v6.29h-1.533v-6.048
			c0-0.811-0.157-1.393-0.471-1.746s-0.771-0.535-1.373-0.535c-0.527,0-1.037,0.146-1.533,0.438
			c-0.492,0.298-0.922,0.696-1.276,1.212v6.68h-1.535v-9.398h1.188L156.504,173.72z"/>
		<path d="M169.738,172.167c0.455,0,0.889,0.047,1.305,0.145c0.418,0.092,0.771,0.229,1.07,0.396v1.281
			c-0.418-0.164-0.798-0.279-1.146-0.356c-0.352-0.08-0.706-0.122-1.066-0.122c-0.384,0-0.762,0.066-1.138,0.191
			c-0.379,0.121-0.712,0.328-1.013,0.619c-0.295,0.286-0.535,0.666-0.715,1.137c-0.182,0.474-0.272,1.057-0.272,1.752
			c0,0.505,0.069,0.98,0.204,1.404c0.133,0.43,0.338,0.797,0.604,1.112c0.268,0.31,0.604,0.558,1.006,0.731
			c0.401,0.174,0.867,0.261,1.393,0.261c0.385,0,0.768-0.042,1.158-0.125c0.392-0.078,0.769-0.2,1.138-0.351v1.275
			c-0.11,0.064-0.259,0.133-0.44,0.199c-0.181,0.063-0.377,0.123-0.6,0.17c-0.217,0.049-0.449,0.092-0.693,0.122
			c-0.242,0.03-0.486,0.046-0.732,0.046c-0.633,0-1.23-0.096-1.797-0.292c-0.563-0.188-1.055-0.481-1.477-0.876
			c-0.424-0.398-0.756-0.9-1-1.503c-0.242-0.606-0.365-1.329-0.365-2.159c0-0.618,0.063-1.184,0.19-1.668
			c0.13-0.494,0.308-0.932,0.53-1.309c0.223-0.381,0.486-0.693,0.787-0.959c0.301-0.262,0.619-0.482,0.962-0.646
			c0.34-0.171,0.69-0.292,1.054-0.372C169.044,172.208,169.395,172.167,169.738,172.167z"/>
		<path d="M179.048,180.722c0.506,0,0.972-0.043,1.388-0.121c0.421-0.084,0.835-0.204,1.252-0.354v1.277
			c-0.336,0.158-0.753,0.299-1.245,0.395c-0.494,0.096-1.025,0.139-1.594,0.139c-0.672,0-1.305-0.087-1.895-0.256
			c-0.59-0.171-1.101-0.449-1.535-0.831c-0.432-0.388-0.77-0.886-1.014-1.503c-0.244-0.614-0.367-1.359-0.367-2.23
			c0-0.854,0.119-1.6,0.356-2.236c0.236-0.625,0.554-1.152,0.946-1.576c0.398-0.42,0.848-0.741,1.359-0.946
			c0.516-0.212,1.053-0.317,1.61-0.317c0.526,0,1.019,0.093,1.474,0.267c0.459,0.179,0.854,0.448,1.189,0.827
			c0.336,0.375,0.6,0.859,0.793,1.453c0.195,0.594,0.291,1.31,0.291,2.14c0,0.078,0,0.147,0,0.206c0,0.053-0.002,0.184-0.008,0.382
			h-6.491c0,0.599,0.089,1.108,0.271,1.529c0.183,0.424,0.432,0.76,0.744,1.018c0.313,0.263,0.68,0.455,1.102,0.571
			C178.104,180.669,178.559,180.722,179.048,180.722z M178.236,173.483c-0.354,0-0.685,0.067-0.984,0.214
			c-0.305,0.135-0.568,0.323-0.795,0.563c-0.228,0.24-0.412,0.52-0.551,0.838c-0.14,0.32-0.228,0.661-0.262,1.021h4.805
			c0-0.369-0.047-0.715-0.143-1.03c-0.098-0.319-0.238-0.599-0.428-0.839c-0.186-0.24-0.416-0.428-0.688-0.562
			C178.916,173.551,178.597,173.483,178.236,173.483z"/>
		<path d="M190.535,181.813h-1.619v-13.235h3.672c0.545,0,1.051,0.031,1.514,0.101c0.471,0.062,0.896,0.162,1.283,0.31
			c0.789,0.277,1.393,0.706,1.801,1.271c0.404,0.563,0.611,1.259,0.611,2.081c0,0.67-0.135,1.268-0.398,1.776
			c-0.266,0.51-0.658,0.933-1.164,1.28c-0.506,0.341-1.123,0.603-1.85,0.775c-0.73,0.174-1.551,0.263-2.475,0.263
			c-0.445,0-0.904-0.021-1.373-0.061L190.535,181.813L190.535,181.813z M190.535,174.893c0.215,0.032,0.441,0.049,0.678,0.062
			c0.24,0.014,0.465,0.018,0.67,0.018c0.752,0,1.402-0.057,1.938-0.169c0.537-0.125,0.975-0.296,1.307-0.521
			c0.332-0.228,0.576-0.507,0.734-0.834c0.15-0.319,0.223-0.695,0.223-1.109c0-0.514-0.125-0.938-0.365-1.27
			c-0.254-0.328-0.598-0.578-1.059-0.752c-0.283-0.109-0.605-0.179-0.98-0.222c-0.365-0.044-0.795-0.063-1.285-0.063h-1.863
			L190.535,174.893L190.535,174.893z"/>
		<path d="M205.427,173.664h-0.119c-0.361,0-0.721,0.033-1.066,0.1c-0.352,0.061-0.674,0.167-0.984,0.301
			c-0.311,0.137-0.58,0.307-0.834,0.501c-0.24,0.2-0.453,0.433-0.615,0.701v6.548h-1.537v-9.396h1.189l0.301,1.492h0.031
			c0.15-0.237,0.338-0.475,0.563-0.683c0.219-0.21,0.471-0.397,0.744-0.556c0.279-0.15,0.58-0.277,0.914-0.369
			c0.328-0.088,0.676-0.135,1.037-0.135c0.064,0,0.135,0,0.205,0.005s0.133,0.01,0.184,0.017L205.427,173.664L205.427,173.664z"/>
		<path d="M215.435,177.126c0,0.736-0.104,1.412-0.313,2.012c-0.213,0.609-0.506,1.129-0.893,1.561
			c-0.391,0.428-0.854,0.765-1.404,1.002c-0.541,0.235-1.158,0.355-1.836,0.355c-0.695,0-1.322-0.12-1.875-0.355
			c-0.553-0.233-1.02-0.574-1.402-1.002c-0.391-0.432-0.682-0.953-0.887-1.561c-0.205-0.6-0.309-1.28-0.309-2.012
			c0-0.75,0.105-1.424,0.313-2.029c0.213-0.605,0.506-1.125,0.896-1.561c0.389-0.437,0.852-0.771,1.404-1.011
			c0.555-0.239,1.168-0.356,1.844-0.356c0.691,0,1.318,0.119,1.871,0.356c0.555,0.233,1.02,0.574,1.398,1.011
			c0.391,0.436,0.682,0.953,0.885,1.561C215.337,175.703,215.435,176.382,215.435,177.126z M213.839,177.126
			c0-0.581-0.07-1.104-0.217-1.551c-0.139-0.453-0.336-0.836-0.59-1.145c-0.254-0.313-0.561-0.555-0.908-0.715
			c-0.354-0.158-0.73-0.242-1.146-0.242c-0.414,0-0.801,0.084-1.15,0.242c-0.344,0.16-0.65,0.398-0.904,0.715
			c-0.252,0.309-0.453,0.691-0.59,1.145c-0.143,0.448-0.217,0.969-0.217,1.551c0,0.574,0.068,1.089,0.217,1.537
			c0.139,0.449,0.338,0.83,0.6,1.142c0.252,0.308,0.563,0.547,0.908,0.71c0.354,0.157,0.732,0.236,1.146,0.236
			c0.416,0,0.795-0.079,1.143-0.236c0.346-0.162,0.648-0.402,0.902-0.71c0.256-0.312,0.453-0.692,0.592-1.142
			C213.765,178.215,213.839,177.703,213.839,177.126z"/>
		<path d="M221.501,172.167c0.406,0.006,0.762,0.061,1.066,0.156c0.309,0.105,0.568,0.223,0.781,0.373
			c0.221,0.145,0.396,0.301,0.521,0.443c0.131,0.139,0.223,0.255,0.262,0.344h0.039l0.318-1.068h1.156v9.951
			c0,0.728-0.121,1.363-0.357,1.895c-0.23,0.539-0.57,0.988-0.998,1.342c-0.428,0.361-0.945,0.622-1.549,0.798
			c-0.602,0.179-1.273,0.267-2.004,0.267c-0.619,0-1.174-0.053-1.658-0.168c-0.486-0.106-0.871-0.236-1.146-0.391v-1.296
			c0.221,0.093,0.439,0.17,0.654,0.228c0.213,0.063,0.428,0.117,0.654,0.158c0.221,0.043,0.453,0.071,0.686,0.096
			c0.232,0.021,0.49,0.033,0.777,0.033c1.102,0,1.943-0.263,2.527-0.771c0.588-0.514,0.881-1.295,0.881-2.348v-1.26h-0.031
			c-0.336,0.365-0.73,0.648-1.176,0.832c-0.443,0.191-0.955,0.286-1.529,0.286c-0.266,0-0.549-0.028-0.85-0.092
			c-0.301-0.056-0.605-0.155-0.91-0.304c-0.305-0.141-0.592-0.327-0.867-0.565c-0.283-0.227-0.521-0.526-0.736-0.876
			c-0.217-0.354-0.381-0.771-0.51-1.256c-0.131-0.482-0.191-1.035-0.191-1.667c0-0.88,0.123-1.64,0.355-2.278
			c0.234-0.647,0.549-1.18,0.934-1.604c0.396-0.419,0.836-0.738,1.34-0.941C220.449,172.271,220.97,172.167,221.501,172.167z
			 M218.923,177.176c0,0.741,0.086,1.341,0.271,1.813c0.178,0.465,0.4,0.836,0.674,1.092c0.271,0.264,0.572,0.441,0.895,0.533
			c0.322,0.101,0.633,0.145,0.924,0.145c0.479,0,0.924-0.096,1.338-0.289c0.414-0.191,0.779-0.457,1.102-0.784v-4.914
			c-0.086-0.121-0.209-0.252-0.357-0.405c-0.15-0.146-0.326-0.291-0.529-0.422c-0.201-0.131-0.432-0.229-0.688-0.322
			c-0.256-0.088-0.535-0.135-0.842-0.135c-0.455,0-0.852,0.092-1.195,0.274c-0.348,0.179-0.641,0.433-0.873,0.753
			c-0.23,0.325-0.404,0.71-0.525,1.163C218.98,176.126,218.923,176.626,218.923,177.176z"/>
		<path d="M233.769,173.664h-0.119c-0.365,0-0.719,0.033-1.066,0.1c-0.35,0.061-0.678,0.167-0.982,0.301
			c-0.313,0.137-0.586,0.307-0.84,0.501c-0.246,0.2-0.453,0.433-0.617,0.701v6.548h-1.531v-9.396h1.186l0.301,1.492h0.033
			c0.148-0.237,0.336-0.475,0.563-0.683c0.221-0.21,0.475-0.397,0.748-0.556c0.277-0.15,0.576-0.277,0.912-0.369
			c0.324-0.088,0.674-0.135,1.033-0.135c0.066,0,0.135,0,0.207,0.005c0.068,0.005,0.135,0.01,0.182,0.017L233.769,173.664
			L233.769,173.664z"/>
		<path d="M240.904,180.776h-0.045c-0.125,0.157-0.283,0.312-0.475,0.47c-0.191,0.16-0.412,0.299-0.666,0.416
			c-0.248,0.123-0.523,0.221-0.822,0.295c-0.301,0.069-0.615,0.107-0.953,0.107c-0.451,0-0.867-0.064-1.248-0.203
			c-0.383-0.135-0.705-0.33-0.98-0.593c-0.275-0.255-0.484-0.576-0.639-0.953c-0.15-0.377-0.227-0.802-0.227-1.278
			c0-0.469,0.086-0.883,0.252-1.258c0.168-0.365,0.4-0.674,0.709-0.936c0.303-0.258,0.666-0.455,1.092-0.59
			c0.426-0.141,0.902-0.211,1.412-0.211c0.486,0.004,0.938,0.045,1.354,0.127c0.42,0.084,0.785,0.186,1.109,0.305h0.041v-0.656
			c0-0.258-0.021-0.482-0.045-0.681c-0.039-0.199-0.09-0.375-0.17-0.522c-0.17-0.313-0.447-0.578-0.82-0.787
			c-0.381-0.209-0.885-0.311-1.527-0.311c-0.479,0-0.924,0.045-1.342,0.133c-0.418,0.09-0.838,0.215-1.25,0.37v-1.285
			c0.154-0.079,0.34-0.146,0.563-0.222c0.217-0.069,0.436-0.132,0.672-0.18c0.234-0.049,0.484-0.086,0.752-0.111
			c0.264-0.032,0.525-0.044,0.791-0.044c0.947,0,1.729,0.169,2.33,0.501c0.602,0.334,1.035,0.785,1.299,1.338
			c0.096,0.212,0.166,0.443,0.213,0.695c0.047,0.255,0.063,0.533,0.063,0.837v6.272h-1.283L240.904,180.776z M240.82,177.689
			c-0.281-0.078-0.617-0.152-1.002-0.229c-0.395-0.066-0.818-0.112-1.283-0.12c-0.648,0-1.158,0.137-1.529,0.415
			c-0.371,0.277-0.553,0.701-0.553,1.273c0,0.293,0.045,0.545,0.135,0.762c0.092,0.222,0.223,0.398,0.379,0.543
			c0.16,0.14,0.355,0.244,0.574,0.311c0.221,0.069,0.453,0.105,0.707,0.105c0.322,0,0.631-0.045,0.918-0.142
			c0.281-0.092,0.531-0.213,0.752-0.34c0.223-0.135,0.404-0.267,0.566-0.396c0.146-0.135,0.268-0.235,0.334-0.31v-1.875
			L240.82,177.689L240.82,177.689z"/>
		<path d="M252.998,181.813h-1.531v-6.05c0-0.398-0.045-0.752-0.135-1.035c-0.092-0.292-0.219-0.521-0.389-0.709
			c-0.166-0.188-0.371-0.318-0.602-0.4c-0.232-0.094-0.49-0.136-0.787-0.136c-0.549,0-1.043,0.146-1.49,0.44
			c-0.449,0.296-0.852,0.693-1.209,1.209v6.681h-1.531v-9.397h1.188l0.303,1.302h0.027c0.17-0.218,0.361-0.419,0.563-0.604
			c0.205-0.193,0.426-0.354,0.672-0.492c0.244-0.141,0.52-0.252,0.818-0.332c0.301-0.078,0.617-0.121,0.969-0.121
			c0.697,0,1.281,0.172,1.738,0.507c0.461,0.335,0.816,0.793,1.066,1.372h0.043c0.416-0.586,0.896-1.047,1.426-1.377
			c0.537-0.328,1.164-0.502,1.877-0.502c0.324,0,0.678,0.048,1.053,0.142c0.363,0.091,0.707,0.261,1.018,0.51
			c0.311,0.245,0.572,0.587,0.771,1.021c0.207,0.434,0.311,1.003,0.311,1.683v6.291h-1.537v-6.049c0-0.4-0.045-0.753-0.135-1.036
			c-0.09-0.293-0.217-0.522-0.385-0.709c-0.17-0.19-0.375-0.321-0.604-0.403c-0.232-0.091-0.496-0.135-0.789-0.135
			c-0.549,0-1.047,0.146-1.498,0.438c-0.453,0.3-0.852,0.699-1.211,1.214v6.682h-0.01V181.813L252.998,181.813z"/>
		<path d="M269.783,181.813h-1.537v-6.05c0-0.398-0.043-0.752-0.133-1.035c-0.088-0.292-0.223-0.521-0.387-0.709
			c-0.166-0.188-0.371-0.318-0.604-0.4c-0.23-0.094-0.494-0.136-0.783-0.136c-0.555,0-1.049,0.146-1.496,0.44
			c-0.453,0.296-0.85,0.693-1.209,1.209v6.681h-1.529v-9.397h1.188l0.295,1.302h0.037c0.172-0.218,0.359-0.419,0.563-0.604
			c0.203-0.193,0.422-0.354,0.666-0.492c0.246-0.141,0.52-0.252,0.818-0.332c0.301-0.078,0.619-0.121,0.973-0.121
			c0.697,0,1.279,0.172,1.734,0.507c0.465,0.335,0.82,0.793,1.074,1.372h0.039c0.414-0.586,0.896-1.047,1.426-1.377
			c0.537-0.328,1.164-0.502,1.877-0.502c0.326,0,0.678,0.048,1.047,0.142c0.373,0.091,0.709,0.261,1.02,0.51
			c0.309,0.245,0.572,0.587,0.77,1.021c0.211,0.434,0.311,1.003,0.311,1.683v6.291h-1.533v-6.049c0-0.4-0.045-0.753-0.135-1.036
			c-0.09-0.293-0.223-0.522-0.389-0.709c-0.168-0.19-0.371-0.321-0.602-0.403c-0.23-0.091-0.492-0.135-0.787-0.135
			c-0.549,0-1.047,0.146-1.498,0.438c-0.453,0.3-0.854,0.699-1.211,1.214L269.783,181.813L269.783,181.813z"/>
		<path d="M283.357,180.722c0.502,0,0.973-0.043,1.387-0.121c0.416-0.084,0.838-0.204,1.254-0.354v1.277
			c-0.338,0.158-0.752,0.299-1.244,0.395c-0.494,0.096-1.025,0.139-1.6,0.139c-0.666,0-1.299-0.087-1.891-0.256
			c-0.592-0.171-1.105-0.449-1.537-0.831c-0.43-0.388-0.768-0.886-1.016-1.503c-0.244-0.614-0.367-1.359-0.367-2.23
			c0-0.854,0.119-1.6,0.355-2.236c0.234-0.625,0.557-1.152,0.945-1.576c0.4-0.42,0.848-0.741,1.363-0.946
			c0.516-0.212,1.051-0.317,1.611-0.317c0.525,0,1.016,0.093,1.471,0.267c0.459,0.179,0.85,0.448,1.191,0.827
			c0.334,0.375,0.596,0.859,0.797,1.453c0.191,0.594,0.289,1.31,0.289,2.14c0,0.078,0,0.147,0,0.206
			c0,0.053-0.008,0.184-0.016,0.382h-6.482c0,0.599,0.088,1.108,0.271,1.529c0.184,0.424,0.428,0.76,0.746,1.018
			c0.313,0.263,0.674,0.455,1.104,0.571C282.412,180.669,282.873,180.722,283.357,180.722z M282.544,173.483
			c-0.354,0-0.682,0.067-0.984,0.214c-0.311,0.135-0.572,0.323-0.799,0.563c-0.225,0.24-0.404,0.52-0.555,0.838
			c-0.135,0.32-0.221,0.661-0.258,1.021h4.813c0-0.369-0.049-0.715-0.145-1.03c-0.098-0.319-0.236-0.599-0.428-0.839
			c-0.189-0.24-0.416-0.428-0.689-0.562C283.23,173.551,282.906,173.483,282.544,173.483z"/>
	</g>
</g>
</svg>
