<?xml version="1.0" encoding="utf-8"?>
<!-- Generator: Adobe Illustrator 15.1.0, SVG Export Plug-In . SVG Version: 6.00 Build 0)  -->
<!DOCTYPE svg PUBLIC "-//W3C//DTD SVG 1.1//EN" "http://www.w3.org/Graphics/SVG/1.1/DTD/svg11.dtd">
<svg version="1.1" id="Layer_1" xmlns="http://www.w3.org/2000/svg" xmlns:xlink="http://www.w3.org/1999/xlink" x="0px" y="0px"
	 width="992.922px" height="283.465px" viewBox="0 0 992.922 283.465" enable-background="new 0 0 992.922 283.465"
	 xml:space="preserve">
<g>
	<path fill="#4EA8CF" d="M992.044,161.892c0.412-2.623,0.683-5.313,0.787-8.092c-1.816,0.802-3.266,2.195-3.266,4.198
		C989.565,159.714,990.638,160.99,992.044,161.892"/>
	<path fill="#4EA8CF" d="M946.474,211.455c2.959,0,5.357-2.244,5.357-5.008c0-2.766-2.398-5.008-5.357-5.008
		s-5.357,2.242-5.357,5.008C941.116,209.211,943.515,211.455,946.474,211.455"/>
	<path fill="#4EA8CF" d="M844.22,206.447c0,2.764,2.396,5.008,5.355,5.008c2.961,0,5.357-2.244,5.357-5.008
		c0-2.766-2.396-5.008-5.357-5.008C846.616,201.439,844.22,203.682,844.22,206.447"/>
	<path fill="#4EA8CF" d="M825.351,201.439c-0.881,0-1.524,0.522-2.258,0.873v2.805c2.192,0.97,4.748,1.624,7.128,2.43
		c0.11-0.397,0.489-0.669,0.489-1.1C830.71,203.682,828.311,201.439,825.351,201.439"/>
	<path fill="#4EA8CF" d="M771.547,206.447c0,0.808,0.554,1.396,0.917,2.072c2.908-1.622,5.77-3.297,8.397-5.227
		c-0.979-1.087-2.317-1.854-3.957-1.854C773.944,201.439,771.547,203.682,771.547,206.447"/>
	<path fill="#4EA8CF" d="M650.426,206.447c0,1.845,1.243,3.159,2.83,4.027c0.889,0.311,1.788,0.616,2.688,0.918
		c2.872-0.092,5.197-2.238,5.197-4.945c0-2.766-2.398-5.008-5.359-5.008C652.824,201.439,650.426,203.682,650.426,206.447"/>
	<path fill="#4EA8CF" d="M607.334,163.008c0.39,0,0.631-0.313,0.997-0.386c1.026-2.555,2.133-5.041,2.983-7.733
		c-0.984-1.107-2.321-1.898-3.98-1.898c-2.959,0-5.357,2.242-5.357,5.008S604.375,163.008,607.334,163.008"/>
	<path fill="#4EA8CF" d="M558.885,211.455c2.96,0,5.359-2.244,5.359-5.008c0-2.766-2.399-5.008-5.359-5.008
		c-2.957,0-5.356,2.242-5.356,5.008C553.528,209.211,555.928,211.455,558.885,211.455"/>
	<path fill="#4EA8CF" d="M456.633,206.447c0,0.292,0.278,0.469,0.331,0.748c2.171,1.317,4.471,2.45,6.772,3.583
		c2.001-0.725,3.61-2.203,3.61-4.331c0-2.766-2.397-5.008-5.356-5.008C459.03,201.439,456.633,203.682,456.633,206.447"/>
	<path fill="#4EA8CF" d="M434.539,178.579h-6.064c1.829,2.89,3.944,5.56,6.064,8.229V178.579z"/>
	<path fill="#4EA8CF" d="M418.898,157.998c0-0.568-0.458-0.943-0.645-1.453c0.188,0.549,0.361,1.109,0.557,1.653
		C418.813,158.121,418.898,158.077,418.898,157.998"/>
	<path fill="#4EA8CF" d="M335.511,206.447c0,2.764,2.399,5.008,5.357,5.008c2.959,0,5.358-2.244,5.358-5.008
		c0-2.766-2.399-5.008-5.358-5.008C337.91,201.439,335.511,203.682,335.511,206.447"/>
	<path fill="#4EA8CF" d="M219.747,201.439c-0.092,0-0.145,0.086-0.237,0.094v9.83c0.092,0.004,0.146,0.092,0.237,0.092
		c2.958,0,5.357-2.244,5.357-5.008C225.104,203.682,222.705,201.439,219.747,201.439"/>
	<path fill="#4EA8CF" d="M219.747,152.99c-0.092,0-0.145,0.088-0.237,0.092v9.832c0.092,0.004,0.146,0.094,0.237,0.094
		c2.958,0,5.357-2.244,5.357-5.01S222.705,152.99,219.747,152.99"/>
	<path fill="#4EA8CF" d="M219.747,104.541c-0.092,0-0.145,0.091-0.237,0.094v9.83c0.092,0.006,0.146,0.092,0.237,0.092
		c2.958,0,5.357-2.239,5.357-5.008C225.104,106.785,222.705,104.541,219.747,104.541"/>
	<path fill="#4EA8CF" d="M219.747,56.094c-0.092,0-0.145,0.086-0.237,0.092v9.832c0.092,0.005,0.146,0.092,0.237,0.092
		c2.958,0,5.357-2.244,5.357-5.008C225.104,58.336,222.705,56.094,219.747,56.094"/>
	<path fill="#4EA8CF" d="M141.717,206.447c0,1.506,0.782,2.753,1.91,3.673c2.896-1.659,5.333-3.763,7.879-5.763
		c-0.886-1.627-2.347-2.918-4.431-2.918C144.116,201.439,141.717,203.682,141.717,206.447"/>
	<path fill="#4EA8CF" d="M25.953,201.439c-0.715,0-1.207,0.471-1.832,0.708c2.128,1.835,4.507,3.402,6.898,4.96
		c0.04-0.248,0.292-0.402,0.292-0.66C31.311,203.682,28.912,201.439,25.953,201.439"/>
	<path fill="#4EA8CF" d="M1.729,152.99c-0.305,0-0.491,0.258-0.784,0.306c0.353,3.259,0.818,6.426,1.449,9.452
		c2.597-0.346,4.693-2.227,4.693-4.75C7.087,155.232,4.687,152.99,1.729,152.99"/>
	<path fill="#4EA8CF" d="M1.729,104.541c-0.674,0-1.134,0.458-1.729,0.672v8.677c0.595,0.211,1.055,0.667,1.729,0.667
		c2.958,0,5.358-2.239,5.358-5.008C7.087,106.785,4.687,104.541,1.729,104.541"/>
	<path fill="#4EA8CF" d="M1.729,56.094c-0.674,0-1.134,0.456-1.729,0.669v8.677c0.595,0.213,1.055,0.669,1.729,0.669
		c2.958,0,5.358-2.244,5.358-5.008C7.087,58.336,4.687,56.094,1.729,56.094"/>
	<path fill="#4EA8CF" d="M1.729,7.647C1.055,7.647,0.595,8.101,0,8.314v8.677c0.595,0.213,1.055,0.669,1.729,0.669
		c2.958,0,5.358-2.242,5.358-5.008S4.687,7.647,1.729,7.647"/>
	<path fill="#4EA8CF" d="M52.52,4.579c0.29,0.074,0.611,0.068,0.89,0.169V4.579H52.52z"/>
	<path fill="#4EA8CF" d="M50.177,17.661c1.263,0,2.318-0.568,3.233-1.252V8.897c-0.915-0.682-1.97-1.25-3.233-1.25
		c-2.958,0-5.356,2.24-5.356,5.006S47.219,17.661,50.177,17.661"/>
	<path fill="#4EA8CF" d="M50.177,66.11c1.263,0,2.318-0.57,3.233-1.252v-7.511c-0.915-0.684-1.97-1.252-3.233-1.252
		c-2.958,0-5.356,2.242-5.356,5.008C44.821,63.866,47.219,66.11,50.177,66.11"/>
	<path fill="#4EA8CF" d="M50.177,114.557c1.263,0,2.318-0.568,3.233-1.25v-7.513c-0.915-0.683-1.97-1.253-3.233-1.253
		c-2.958,0-5.356,2.244-5.356,5.008C44.821,112.317,47.219,114.557,50.177,114.557"/>
	<path fill="#4EA8CF" d="M123.709,153.323c-0.611,3.33-1.433,6.357-2.482,9.056c0.564,0.188,0.989,0.629,1.623,0.629
		c2.959,0,5.358-2.244,5.358-5.01C128.209,155.547,126.2,153.755,123.709,153.323"/>
	<path fill="#4EA8CF" d="M173.642,4.579c2.028,0.515,3.702,1.619,4.904,3.167V4.579H173.642z"/>
	<path fill="#4EA8CF" d="M171.299,7.647c-2.958,0-5.357,2.24-5.357,5.006s2.399,5.008,5.357,5.008c2.958,0,5.358-2.242,5.358-5.008
		S174.257,7.647,171.299,7.647"/>
	<path fill="#4EA8CF" d="M178.545,114.458c-1.655,2.131-4.213,3.608-7.247,3.608h3.228v6.033h4.019V114.458z"/>
	<path fill="#4EA8CF" d="M178.545,66.009c-1.655,2.133-4.213,3.608-7.247,3.608h3.228v6.032h4.019V66.009z"/>
	<path fill="#4EA8CF" d="M178.545,17.56c-1.655,2.132-4.213,3.61-7.247,3.61h3.228v6.032h4.019V17.56z"/>
	<path fill="#4EA8CF" d="M119.623,166.515h3.228c-1.105,0-2.133-0.252-3.113-0.586c-0.985,1.905-2.043,3.705-3.301,5.215
		c-0.518,0.624-1.424,0.837-1.994,1.403h5.181V166.515z"/>
	<path fill="#4EA8CF" d="M53.41,117.455c-1.009,0.362-2.084,0.611-3.233,0.611h3.228v6.033h0.005V117.455z"/>
	<path fill="#4EA8CF" d="M53.41,69.008c-1.009,0.36-2.084,0.609-3.233,0.609h3.228v6.032h0.005V69.008z"/>
	<path fill="#4EA8CF" d="M53.41,20.559c-1.009,0.362-2.084,0.611-3.233,0.611h3.228v6.032h0.005V20.559z"/>
	<path fill="#4EA8CF" d="M0,21.17h1.729c-0.612,0-1.148-0.219-1.729-0.326V21.17z"/>
	<path fill="#4EA8CF" d="M0,69.617h1.729c-0.612,0-1.148-0.217-1.729-0.326V69.617z"/>
	<path fill="#4EA8CF" d="M0,118.066h1.729c-0.612,0-1.148-0.22-1.729-0.326V118.066z"/>
	<path fill="#4EA8CF" d="M175.497,165.438c-1.273,0.631-2.658,1.077-4.198,1.077h3.228v2.652
		C174.875,167.942,175.197,166.701,175.497,165.438"/>
	<path fill="#4EA8CF" d="M117.493,206.447c0,2.764,2.399,5.008,5.357,5.008c2.959,0,5.358-2.244,5.358-5.008
		c0-2.766-2.399-5.008-5.358-5.008C119.893,201.439,117.493,203.682,117.493,206.447"/>
	<path fill="#4EA8CF" d="M93.269,206.447c0,2.764,2.399,5.008,5.358,5.008c2.958,0,5.355-2.244,5.355-5.008
		c0-2.766-2.397-5.008-5.355-5.008C95.668,201.439,93.269,203.682,93.269,206.447"/>
	<path fill="#4EA8CF" d="M69.045,206.447c0,2.764,2.397,5.008,5.357,5.008c2.959,0,5.356-2.244,5.356-5.008
		c0-2.766-2.397-5.008-5.356-5.008C71.442,201.439,69.045,203.682,69.045,206.447"/>
	<path fill="#4EA8CF" d="M44.821,206.447c0,2.764,2.398,5.008,5.356,5.008c2.96,0,5.357-2.244,5.357-5.008
		c0-2.766-2.397-5.008-5.357-5.008C47.219,201.439,44.821,203.682,44.821,206.447"/>
	<path fill="#4EA8CF" d="M20.597,61.102c0,2.764,2.397,5.008,5.355,5.008c2.959,0,5.358-2.244,5.358-5.008
		c0-2.766-2.399-5.008-5.358-5.008C22.994,56.094,20.597,58.336,20.597,61.102"/>
	<path fill="#4EA8CF" d="M20.597,109.549c0,2.769,2.397,5.008,5.355,5.008c2.959,0,5.358-2.239,5.358-5.008
		c0-2.764-2.399-5.008-5.358-5.008C22.994,104.541,20.597,106.785,20.597,109.549"/>
	<path fill="#4EA8CF" d="M20.597,157.998c0,2.766,2.397,5.01,5.355,5.01c2.959,0,5.358-2.244,5.358-5.01s-2.399-5.008-5.358-5.008
		C22.994,152.99,20.597,155.232,20.597,157.998"/>
	<path fill="#4EA8CF" d="M141.717,61.102c0,2.764,2.399,5.008,5.358,5.008c2.958,0,5.357-2.244,5.357-5.008
		c0-2.766-2.399-5.008-5.357-5.008C144.116,56.094,141.717,58.336,141.717,61.102"/>
	<path fill="#4EA8CF" d="M141.717,109.549c0,2.769,2.399,5.008,5.358,5.008c2.958,0,5.357-2.239,5.357-5.008
		c0-2.764-2.399-5.008-5.357-5.008C144.116,104.541,141.717,106.785,141.717,109.549"/>
	<path fill="#4EA8CF" d="M141.717,157.998c0,2.766,2.399,5.01,5.358,5.01c2.958,0,5.357-2.244,5.357-5.01s-2.399-5.008-5.357-5.008
		C144.116,152.99,141.717,155.232,141.717,157.998"/>
	<path fill="#4EA8CF" d="M171.299,52.585c3.033,0,5.592,1.477,7.247,3.608V33.234h-4.019v12.064h-3.228h-3.226V33.234h-6.454v-6.032
		h6.454V21.17h3.226c-5.032,0-9.111-3.814-9.111-8.517c0-3.926,2.902-7.089,6.77-8.074h-19.542c3.868,0.984,6.771,4.147,6.771,8.074
		c0,4.703-4.079,8.517-9.111,8.517h3.226v6.032h6.454v6.032h-6.454v12.064h-3.226h-3.227V33.234h-6.454v-6.032h6.454V21.17h3.227
		c-5.033,0-9.112-3.814-9.112-8.517c0-3.926,2.902-7.089,6.771-8.074h-19.542c3.868,0.984,6.77,4.147,6.77,8.074
		c0,3.947-2.93,7.119-6.827,8.085v0.432h0.941v6.032h6.455v6.032h-6.455v12.064h-0.941v7.719c3.897,0.965,6.827,4.14,6.827,8.084
		s-2.93,7.119-6.827,8.084v0.431h0.941v6.032h6.455v6.034h-6.455v12.064h-0.941v7.717c3.897,0.967,6.827,4.14,6.827,8.084
		c0,3.949-2.93,7.119-6.827,8.087v0.431h0.941v6.033h6.455v6.032h-6.455v12.063h-1.238c-0.134,2.568-0.194,5.243-0.494,7.569
		c4.292,0.689,7.618,4.025,7.618,8.233c0,4.704-4.079,8.517-9.111,8.517h3.226v6.032h6.455v6.032h-6.455v12.064h-3.226h-3.228
		v-12.064h-6.452v-5.138c-1.377,1.212-3.261,1.887-4.864,2.855v2.282h-3.89c-0.843,0.352-1.661,0.732-2.565,1.022v11.042h-3.226
		h-3.228v-10.022c-2.091,0.3-3.825,0.977-6.198,0.977c-4.483,0-7.976-1.016-11.572-1.926v10.972h-3.227h-3.228v-12.064h-6.452
		v-5.718c-0.859-0.827-2.168-1.191-2.904-2.146c-1.737-2.248-2.706-5.521-3.904-8.489c-1.583,2.518-4.388,4.288-7.738,4.288h3.228
		v6.032h6.454v6.032h-6.454v12.064h-3.228h-3.226v-12.064h-6.454v-6.032h6.454v-6.032h3.226c-5.03,0-9.109-3.813-9.109-8.517
		c0-4.702,4.079-8.517,9.109-8.517c1.745,0,3.283,0.583,4.668,1.377c-0.654-4.173-1.436-8.175-1.436-13.229v-7.498h-0.005v12.063
		h-3.228h-3.226v-12.063h-6.454V124.1h6.454v-6.033h3.226c-5.03,0-9.109-3.813-9.109-8.518c0-4.702,4.079-8.515,9.109-8.515
		c1.148,0,2.224,0.248,3.233,0.61V81.684h-0.005v12.064h-3.228h-3.226V81.684h-6.454v-6.034h6.454v-6.032h3.226
		c-5.03,0-9.109-3.811-9.109-8.515c0-4.705,4.079-8.517,9.109-8.517c1.148,0,2.224,0.25,3.233,0.611V33.234h-0.005v12.064h-3.228
		h-3.226V33.234h-6.454v-6.032h6.454V21.17h3.226c-5.03,0-9.109-3.814-9.109-8.517c0-3.926,2.9-7.089,6.768-8.074H28.295
		c3.867,0.984,6.769,4.147,6.769,8.074c0,4.703-4.079,8.517-9.112,8.517h3.229v6.032h6.453v6.032h-6.453v12.064h-3.229h-3.226
		V33.234h-6.453v-6.032h6.453V21.17h3.226c-5.03,0-9.111-3.814-9.111-8.517c0-3.926,2.902-7.089,6.771-8.074H4.072
		c3.866,0.984,6.768,4.147,6.768,8.074c0,4.703-4.079,8.517-9.111,8.517h3.228v6.032h6.453v6.032H4.957v12.064H1.729H0v7.612
		c0.581-0.106,1.117-0.326,1.729-0.326c5.032,0,9.111,3.813,9.111,8.517c0,4.704-4.079,8.515-9.111,8.515h3.228v6.032h6.453v6.034
		H4.957v12.064H1.729H0v7.611c0.581-0.106,1.117-0.325,1.729-0.325c5.032,0,9.111,3.813,9.111,8.515
		c0,4.705-4.079,8.518-9.111,8.518h3.228v6.033h6.453v6.032H4.957v12.063H1.729H0.111c0.108,2.562,0.375,4.991,0.563,7.486
		c0.361-0.042,0.68-0.2,1.055-0.2c5.032,0,9.111,3.814,9.111,8.517c0,4.189-3.296,7.511-7.557,8.225
		c0.024,0.098,0.048,0.195,0.075,0.292h1.598v6.032h6.453v6.032H7.431c3.471,7.86,7.91,14.917,13.842,20.734
		c1.389-0.798,2.931-1.382,4.68-1.382c5.033,0,9.112,3.812,9.112,8.516c0,1.07-0.266,2.076-0.652,3.02
		c3.902,2.222,8.079,4.154,12.539,5.791v-0.294h3.226c-5.03,0-9.109-3.814-9.109-8.517c0-4.704,4.079-8.516,9.109-8.516
		c5.032,0,9.111,3.812,9.111,8.516c0,4.702-4.079,8.517-9.111,8.517h3.228v2.376c5.507,1.576,11.26,2.894,17.542,3.656h0.228v-6.032
		h3.228c-5.032,0-9.111-3.814-9.111-8.517c0-4.704,4.079-8.516,9.111-8.516c5.033,0,9.112,3.812,9.112,8.516
		c0,4.702-4.079,8.517-9.112,8.517h3.227v6.032h6.453v0.86c1.673,0.052,3.143,0.316,4.864,0.318v-1.179h6.453v-6.032h3.228
		c-5.032,0-9.111-3.814-9.111-8.517c0-4.704,4.079-8.516,9.111-8.516s9.111,3.812,9.111,8.516c0,4.702-4.079,8.517-9.111,8.517
		h3.226v6.032h4.852c4.482-0.589,8.819-1.32,12.919-2.282v-3.75h3.228c-5.032,0-9.111-3.814-9.111-8.517
		c0-4.704,4.079-8.516,9.111-8.516s9.111,3.812,9.111,8.516c0,4.702-4.079,8.517-9.111,8.517h3.226v1.545
		c4.79-1.484,9.859-2.69,14.016-4.791c-1.265-1.46-2.129-3.244-2.129-5.271c0-4.704,4.079-8.516,9.112-8.516
		c3.263,0,5.995,1.692,7.604,4.104c0.402-0.356,0.923-0.596,1.315-0.96c4.938-4.625,8.762-10.153,12.079-16.09v-6.406h-6.454v-6.032
		h6.454v-6.032h3.226c-5.032,0-9.111-3.813-9.111-8.517c0-4.702,4.079-8.517,9.111-8.517c2.492,0,4.738,0.943,6.384,2.459
		c0.352-3.733,0.862-7.336,0.862-11.354v-10.454h-4.019v12.063h-3.228h-3.226v-12.063h-6.454V124.1h6.454v-6.033h3.226
		c-5.032,0-9.111-3.813-9.111-8.518c0-4.702,4.079-8.515,9.111-8.515c3.033,0,5.592,1.479,7.247,3.61V81.684h-4.019v12.064h-3.228
		h-3.226V81.684h-6.454v-6.034h6.454v-6.032h3.226c-5.032,0-9.111-3.811-9.111-8.515C162.188,56.397,166.267,52.585,171.299,52.585z
		 M35.634,178.579h-6.453v12.064h-3.229h-3.226v-12.064h-6.453v-6.032h6.453v-6.032h3.226c-5.03,0-9.111-3.813-9.111-8.517
		c0-4.702,4.081-8.517,9.111-8.517c5.033,0,9.112,3.814,9.112,8.517c0,4.704-4.079,8.517-9.112,8.517h3.229v6.032h6.453V178.579z
		 M35.634,130.132h-6.453v12.063h-3.229h-3.226v-12.063h-6.453V124.1h6.453v-6.033h3.226c-5.03,0-9.111-3.813-9.111-8.518
		c0-4.702,4.081-8.515,9.111-8.515c5.033,0,9.112,3.813,9.112,8.515c0,4.705-4.079,8.518-9.112,8.518h3.229v6.033h6.453V130.132z
		 M35.634,81.684h-6.453v12.064h-3.229h-3.226V81.684h-6.453v-6.034h6.453v-6.032h3.226c-5.03,0-9.111-3.811-9.111-8.515
		c0-4.705,4.081-8.517,9.111-8.517c5.033,0,9.112,3.813,9.112,8.517c0,4.704-4.079,8.515-9.112,8.515h3.229v6.032h6.453V81.684z
		 M156.754,178.579h-6.454v12.064h-3.226h-3.227v-12.064h-6.454v-6.032h6.454v-6.032h3.227c-5.033,0-9.112-3.813-9.112-8.517
		c0-4.702,4.079-8.517,9.112-8.517c5.032,0,9.111,3.814,9.111,8.517c0,4.704-4.079,8.517-9.111,8.517h3.226v6.032h6.454V178.579z
		 M156.754,130.132h-6.454v12.063h-3.226h-3.227v-12.063h-6.454V124.1h6.454v-6.033h3.227c-5.033,0-9.112-3.813-9.112-8.518
		c0-4.702,4.079-8.515,9.112-8.515c5.032,0,9.111,3.813,9.111,8.515c0,4.705-4.079,8.518-9.111,8.518h3.226v6.033h6.454V130.132z
		 M156.754,81.684h-6.454v12.064h-3.226h-3.227V81.684h-6.454v-6.034h6.454v-6.032h3.227c-5.033,0-9.112-3.811-9.112-8.515
		c0-4.705,4.079-8.517,9.112-8.517c5.032,0,9.111,3.813,9.111,8.517c0,4.704-4.079,8.515-9.111,8.515h3.226v6.032h6.454V81.684z"/>
	<path fill="#4EA8CF" d="M171.299,114.557c2.958,0,5.358-2.239,5.358-5.008c0-2.764-2.4-5.008-5.358-5.008
		c-2.958,0-5.357,2.244-5.357,5.008C165.941,112.317,168.34,114.557,171.299,114.557"/>
	<path fill="#4EA8CF" d="M171.299,66.11c2.958,0,5.358-2.244,5.358-5.008c0-2.766-2.4-5.008-5.358-5.008
		c-2.958,0-5.357,2.242-5.357,5.008C165.941,63.866,168.34,66.11,171.299,66.11"/>
	<path fill="#4EA8CF" d="M147.075,7.647c-2.959,0-5.358,2.24-5.358,5.006s2.399,5.008,5.358,5.008c2.958,0,5.357-2.242,5.357-5.008
		S150.033,7.647,147.075,7.647"/>
	<path fill="#4EA8CF" d="M125.135,8.53v8.247c1.714-0.835,3.074-2.19,3.074-4.124C128.209,10.722,126.849,9.367,125.135,8.53"/>
	<path fill="#4EA8CF" d="M128.209,61.102c0-1.933-1.36-3.289-3.074-4.125v8.246C126.849,64.39,128.209,63.033,128.209,61.102"/>
	<path fill="#4EA8CF" d="M128.209,109.549c0-1.931-1.36-3.288-3.074-4.121v8.246C126.849,112.838,128.209,111.482,128.209,109.549"
		/>
	<path fill="#4EA8CF" d="M50.177,163.008c2.96,0,5.357-2.244,5.357-5.01s-2.397-5.008-5.357-5.008c-2.958,0-5.356,2.242-5.356,5.008
		S47.219,163.008,50.177,163.008"/>
	<path fill="#4EA8CF" d="M25.953,7.647c-2.958,0-5.355,2.24-5.355,5.006s2.397,5.008,5.355,5.008c2.959,0,5.358-2.242,5.358-5.008
		S28.912,7.647,25.953,7.647"/>
	<path fill="#4EA8CF" d="M176.657,157.998c0-2.766-2.4-5.008-5.358-5.008c-2.958,0-5.357,2.242-5.357,5.008s2.399,5.01,5.357,5.01
		C174.257,163.008,176.657,160.764,176.657,157.998"/>
	<path fill="#4EA8CF" d="M219.747,7.647c-0.092,0-0.145,0.086-0.237,0.092v9.83c0.092,0.003,0.146,0.092,0.237,0.092
		c2.958,0,5.357-2.242,5.357-5.008S222.705,7.647,219.747,7.647"/>
	<path fill="#4EA8CF" d="M270.538,4.579c0.865,0.219,1.642,0.536,2.384,0.969V4.579H270.538z"/>
	<path fill="#4EA8CF" d="M272.921,14.08v-2.854c-0.712-1.984-2.363-3.579-4.725-3.579c-2.961,0-5.358,2.24-5.358,5.006
		s2.397,5.008,5.358,5.008C270.558,17.661,272.209,16.064,272.921,14.08"/>
	<path fill="#4EA8CF" d="M272.921,62.527v-2.851c-0.712-1.986-2.363-3.583-4.725-3.583c-2.961,0-5.358,2.242-5.358,5.008
		c0,2.764,2.397,5.008,5.358,5.008C270.558,66.11,272.209,64.512,272.921,62.527"/>
	<path fill="#4EA8CF" d="M340.868,7.647c-0.929,0-1.615,0.53-2.376,0.917l-2.964,4.125c0.024,2.746,2.397,4.971,5.34,4.971
		c2.959,0,5.358-2.242,5.358-5.008S343.828,7.647,340.868,7.647"/>
	<path fill="#4EA8CF" d="M389.316,17.661c2.958,0,5.358-2.242,5.358-5.008s-2.4-5.006-5.358-5.006s-5.358,2.24-5.358,5.006
		S386.358,17.661,389.316,17.661"/>
	<path fill="#4EA8CF" d="M394.675,206.447c0-2.766-2.4-5.008-5.358-5.008s-5.358,2.242-5.358,5.008c0,2.764,2.4,5.008,5.358,5.008
		S394.675,209.211,394.675,206.447"/>
	<path fill="#4EA8CF" d="M398.057,10.935l4.881-6.356h-11.278C394.925,5.411,397.347,7.814,398.057,10.935"/>
	<path fill="#4EA8CF" d="M390.341,20.977c-0.352,0.039-0.661,0.193-1.024,0.193h0.875L390.341,20.977z"/>
	<path fill="#4EA8CF" d="M272.921,68.205c-1.399,0.818-2.957,1.413-4.725,1.413h3.226v6.032h1.499V68.205z"/>
	<path fill="#4EA8CF" d="M272.921,19.757c-1.399,0.816-2.957,1.413-4.725,1.413h3.226v6.032h1.499V19.757z"/>
	<path fill="#4EA8CF" d="M219.509,21.17h0.237c-0.083,0-0.152-0.044-0.237-0.046V21.17z"/>
	<path fill="#4EA8CF" d="M219.509,69.617h0.237c-0.083,0-0.152-0.042-0.237-0.044V69.617z"/>
	<path fill="#4EA8CF" d="M219.509,118.066h0.237c-0.083,0-0.152-0.043-0.237-0.045V118.066z"/>
	<path fill="#4EA8CF" d="M219.509,166.515h0.237c-0.083,0-0.152-0.042-0.237-0.044V166.515z"/>
	<path fill="#4EA8CF" d="M219.509,214.964h0.237c-0.083,0-0.152-0.044-0.237-0.046V214.964z"/>
	<path fill="#4EA8CF" d="M272.921,213.552c-1.399,0.816-2.957,1.412-4.725,1.412h3.226v2.648h1.499V213.552z"/>
	<path fill="#4EA8CF" d="M272.921,165.103c-1.399,0.816-2.957,1.412-4.725,1.412h3.226v6.032h1.499V165.103z"/>
	<path fill="#4EA8CF" d="M339.637,214.964h1.231c-0.501,0-0.932-0.194-1.41-0.267L339.637,214.964z"/>
	<path fill="#4EA8CF" d="M359.735,206.447c0,2.764,2.399,5.008,5.358,5.008c2.958,0,5.357-2.244,5.357-5.008
		c0-2.766-2.399-5.008-5.357-5.008C362.134,201.439,359.735,203.682,359.735,206.447"/>
	<path fill="#4EA8CF" d="M311.287,157.998c0,2.766,2.399,5.01,5.358,5.01c2.958,0,5.355-2.244,5.355-5.01s-2.397-5.008-5.355-5.008
		C313.686,152.99,311.287,155.232,311.287,157.998"/>
	<path fill="#4EA8CF" d="M287.063,109.549c0,2.769,2.399,5.008,5.357,5.008c2.959,0,5.356-2.239,5.356-5.008
		c0-2.764-2.397-5.008-5.356-5.008C289.462,104.541,287.063,106.785,287.063,109.549"/>
	<path fill="#4EA8CF" d="M238.615,206.447c0,2.764,2.397,5.008,5.355,5.008c2.961,0,5.358-2.244,5.358-5.008
		c0-2.766-2.397-5.008-5.358-5.008C241.012,201.439,238.615,203.682,238.615,206.447"/>
	<path fill="#4EA8CF" d="M335.511,61.102c0,2.764,2.399,5.008,5.357,5.008c2.959,0,5.358-2.244,5.358-5.008
		c0-2.766-2.399-5.008-5.358-5.008C337.91,56.094,335.511,58.336,335.511,61.102"/>
	<path fill="#4EA8CF" d="M238.615,61.102c0,2.764,2.397,5.008,5.355,5.008c2.961,0,5.358-2.244,5.358-5.008
		c0-2.766-2.397-5.008-5.358-5.008C241.012,56.094,238.615,58.336,238.615,61.102"/>
	<path fill="#4EA8CF" d="M238.615,109.549c0,2.769,2.397,5.008,5.355,5.008c2.961,0,5.358-2.239,5.358-5.008
		c0-2.764-2.397-5.008-5.358-5.008C241.012,104.541,238.615,106.785,238.615,109.549"/>
	<path fill="#4EA8CF" d="M238.615,157.998c0,2.766,2.397,5.01,5.355,5.01c2.961,0,5.358-2.244,5.358-5.01s-2.397-5.008-5.358-5.008
		C241.012,152.99,238.615,155.232,238.615,157.998"/>
	<path fill="#4EA8CF" d="M262.838,109.549c0,2.769,2.397,5.008,5.358,5.008c2.958,0,5.355-2.239,5.355-5.008
		c0-2.764-2.397-5.008-5.355-5.008C265.236,104.541,262.838,106.785,262.838,109.549"/>
	<path fill="#4EA8CF" d="M311.287,61.102c0,2.764,2.399,5.008,5.358,5.008c2.958,0,5.355-2.244,5.355-5.008
		c0-2.766-2.397-5.008-5.355-5.008C313.686,56.094,311.287,58.336,311.287,61.102"/>
	<path fill="#4EA8CF" d="M311.287,109.549c0,2.769,2.399,5.008,5.358,5.008c2.958,0,5.355-2.239,5.355-5.008
		c0-2.764-2.397-5.008-5.355-5.008C313.686,104.541,311.287,106.785,311.287,109.549"/>
	<path fill="#4EA8CF" d="M335.511,157.998c0,2.766,2.399,5.01,5.357,5.01c2.959,0,5.358-2.244,5.358-5.01s-2.399-5.008-5.358-5.008
		C337.91,152.99,335.511,155.232,335.511,157.998"/>
	<path fill="#4EA8CF" d="M389.316,197.932c1.247,0,2.431,0.239,3.514,0.662l-5.501-7.95h-1.238v-1.791l-16.386-23.68
		c-1.373,0.775-2.891,1.342-4.612,1.342h3.226v6.032h6.454v6.032h-6.454v12.064h-3.226h-3.227v-12.064h-6.454v-6.032h6.454v-6.032
		h3.227c-5.033,0-9.112-3.813-9.112-8.517c0-2.895,1.646-5.326,4.007-6.865l-14.53-21.001h-1.364v12.063h-3.226h-3.226v-12.063
		h-6.454V124.1h6.454v-5.263l-1.518-2.194c-2.227-1.308-3.744-3.417-4.123-5.957l-5.013-7.244l10.654-13.865v-7.893h-6.454v-6.034
		h6.454v-6.032h3.226c-5.032,0-9.111-3.811-9.111-8.515c0-4.705,4.079-8.517,9.111-8.517s9.111,3.813,9.111,8.517
		c0,4.704-4.079,8.515-9.111,8.515h3.226v6.032h4.245l8.49-11.051c-0.521-1.07-0.848-2.24-0.848-3.496
		c0-4.705,4.079-8.517,9.112-8.517c0.299,0,0.552,0.133,0.843,0.158l14.989-19.509h-1.289v-6.032h5.923l0.532-0.691V21.17h3.226
		c-5.032,0-9.111-3.814-9.111-8.517c0-3.926,2.902-7.089,6.77-8.074h-19.542c3.869,0.984,6.771,4.147,6.771,8.074
		c0,4.703-4.079,8.517-9.111,8.517h3.226v6.032h6.454v6.032h-6.454v12.064h-3.226h-3.227V33.234h-6.454v-6.032h6.454V21.17h3.227
		c-5.033,0-9.112-3.814-9.112-8.517c0-3.926,2.902-7.089,6.769-8.074h-19.541c3.868,0.984,6.77,4.147,6.77,8.074
		c0,4.703-4.079,8.517-9.111,8.517h3.226v6.032h6.454v6.032h-6.454v12.064h-3.226h-3.226V33.234h-6.454v-6.032h6.454V21.17h3.226
		c-3.549,0-6.542-1.95-8.047-4.717l-7.727,10.75h1.229v6.032h-5.566l-0.887,1.232v10.833h-3.226h-3.229v-1.854l-12.072,16.793
		c0.034,0.299,0.188,0.557,0.188,0.864c0,3.866-2.811,7.001-6.589,8.039l-0.341,0.477h1.044v6.032h6.454v6.034h-6.454v12.064h-3.226
		h-3.228V81.684h-3.266l-13.006,18.091V81.684h-1.499v12.064h-3.226h-3.228V81.684h-6.455v-6.034h6.455v-6.032h3.228
		c-5.032,0-9.111-3.811-9.111-8.515c0-4.705,4.079-8.517,9.111-8.517c1.768,0,3.326,0.596,4.725,1.413V33.234h-1.499v12.064h-3.226
		h-3.228V33.234h-6.455v-6.032h6.455V21.17h3.228c-5.032,0-9.111-3.814-9.111-8.517c0-3.926,2.902-7.089,6.768-8.074h-19.54
		c3.868,0.984,6.769,4.147,6.769,8.074c0,4.703-4.079,8.517-9.112,8.517h3.229v6.032h6.454v6.032h-6.454v12.064h-3.229h-3.226
		V33.234h-6.454v-6.032h6.454V21.17h3.226c-5.03,0-9.109-3.814-9.109-8.517c0-3.926,2.9-7.089,6.769-8.074h-19.54
		c3.866,0.984,6.768,4.147,6.768,8.074c0,4.703-4.079,8.517-9.111,8.517h3.228v6.032h6.455v6.032h-6.455v12.064h-3.228h-0.237v7.332
		c0.085-0.003,0.155-0.046,0.237-0.046c5.032,0,9.111,3.813,9.111,8.517c0,4.704-4.079,8.515-9.111,8.515h3.228v6.032h6.455v6.034
		h-6.455v12.064h-3.228h-0.237v7.33c0.085-0.002,0.155-0.044,0.237-0.044c5.032,0,9.111,3.813,9.111,8.515
		c0,4.705-4.079,8.518-9.111,8.518h3.228v6.033h6.455v6.032h-6.455v12.063h-3.228h-0.237v7.332c0.085-0.002,0.155-0.046,0.237-0.046
		c5.032,0,9.111,3.814,9.111,8.517c0,4.704-4.079,8.517-9.111,8.517h3.228v6.032h6.455v6.032h-6.455v12.064h-3.228h-0.237v7.331
		c0.085-0.002,0.155-0.043,0.237-0.043c5.032,0,9.111,3.812,9.111,8.516c0,4.702-4.079,8.517-9.111,8.517h3.228v2.648h17.771v-2.648
		h3.226c-5.03,0-9.109-3.814-9.109-8.517c0-4.704,4.079-8.516,9.109-8.516c5.033,0,9.112,3.812,9.112,8.516
		c0,4.702-4.079,8.517-9.112,8.517h3.229v2.648h17.771v-2.648h3.228c-5.032,0-9.111-3.814-9.111-8.517
		c0-4.704,4.079-8.516,9.111-8.516c1.768,0,3.326,0.595,4.725,1.411v-20.764h-1.499v12.064h-3.226h-3.228v-12.064h-6.455v-6.032
		h6.455v-6.032h3.228c-5.032,0-9.111-3.813-9.111-8.517c0-4.702,4.079-8.517,9.111-8.517c1.768,0,3.326,0.596,4.725,1.412v-5.249
		l10.501-14.605l5.771,8.616v-9.523h-6.452V124.1h6.452v-6.033h3.228c-5.032,0-9.111-3.813-9.111-8.518
		c0-4.702,4.079-8.515,9.111-8.515c5.033,0,9.111,3.813,9.111,8.515c0,4.705-4.078,8.518-9.111,8.518h3.226v6.033h6.454v6.032
		h-6.454v12.063h-3.226h-1.526l5.517,8.236c3.006,1.393,5.12,4.22,5.12,7.566c0,0.021-0.013,0.037-0.013,0.057l9.707,14.492h2.191
		v-6.032h3.229c-5.032,0-9.111-3.813-9.111-8.517c0-4.702,4.079-8.517,9.111-8.517c5.032,0,9.111,3.814,9.111,8.517
		c0,4.704-4.079,8.517-9.111,8.517h3.226v6.032h6.453v6.032h-6.453v6.877l12.416,18.536c1.146-3.483,4.483-6.061,8.582-6.061
		c5.032,0,9.111,3.812,9.111,8.516c0,4.702-4.079,8.517-9.111,8.517h3.226v2.648h17.772v-2.648h3.227
		c-5.033,0-9.112-3.814-9.112-8.517c0-4.704,4.079-8.516,9.112-8.516c5.032,0,9.111,3.812,9.111,8.516
		c0,4.702-4.079,8.517-9.111,8.517h3.226v2.648h17.772v-2.648h3.226c-5.032,0-9.111-3.814-9.111-8.517
		C380.206,201.743,384.285,197.932,389.316,197.932z M253.652,178.579h-6.454v12.064h-3.229h-3.226v-12.064h-6.454v-6.032h6.454
		v-6.032h3.226c-5.03,0-9.109-3.813-9.109-8.517c0-4.702,4.079-8.517,9.109-8.517c5.033,0,9.112,3.814,9.112,8.517
		c0,4.704-4.079,8.517-9.112,8.517h3.229v6.032h6.454V178.579z M253.652,130.132h-6.454v12.063h-3.229h-3.226v-12.063h-6.454V124.1
		h6.454v-6.033h3.226c-5.03,0-9.109-3.813-9.109-8.518c0-4.702,4.079-8.515,9.109-8.515c5.033,0,9.112,3.813,9.112,8.515
		c0,4.705-4.079,8.518-9.112,8.518h3.229v6.033h6.454V130.132z M253.652,81.684h-6.454v12.064h-3.229h-3.226V81.684h-6.454v-6.034
		h6.454v-6.032h3.226c-5.03,0-9.109-3.811-9.109-8.515c0-4.705,4.079-8.517,9.109-8.517c5.033,0,9.112,3.813,9.112,8.517
		c0,4.704-4.079,8.515-9.112,8.515h3.229v6.032h6.454V81.684z M277.877,130.132h-6.455v12.063h-3.226h-3.228v-12.063h-6.455V124.1
		h6.455v-6.033h3.228c-5.032,0-9.111-3.813-9.111-8.518c0-4.702,4.079-8.515,9.111-8.515c5.03,0,9.111,3.813,9.111,8.515
		c0,4.705-4.081,8.518-9.111,8.518h3.226v6.033h6.455V130.132z M326.324,130.132h-6.453v12.063h-3.226h-3.229v-12.063h-6.451V124.1
		h6.451v-6.033h3.229c-5.032,0-9.111-3.813-9.111-8.518c0-4.702,4.079-8.515,9.111-8.515c5.032,0,9.111,3.813,9.111,8.515
		c0,4.705-4.079,8.518-9.111,8.518h3.226v6.033h6.453V130.132z M326.324,81.684h-6.453v12.064h-3.226h-3.229V81.684h-6.451v-6.034
		h6.451v-6.032h3.229c-5.032,0-9.111-3.811-9.111-8.515c0-4.705,4.079-8.517,9.111-8.517c5.032,0,9.111,3.813,9.111,8.517
		c0,4.704-4.079,8.515-9.111,8.515h3.226v6.032h6.453V81.684z M350.548,178.579h-6.454v12.064h-3.226h-3.226v-12.064h-6.454v-6.032
		h6.454v-6.032h3.226c-5.032,0-9.111-3.813-9.111-8.517c0-4.702,4.079-8.517,9.111-8.517s9.111,3.814,9.111,8.517
		c0,4.704-4.079,8.517-9.111,8.517h3.226v6.032h6.454V178.579z"/>
	<path fill="#4EA8CF" d="M392.542,217.612h13.449l-7.603-10.986c-0.107,4.615-4.107,8.338-9.071,8.338h3.226V217.612z"/>
	<path fill="#4EA8CF" d="M365.093,163.008c0.958,0,1.675-0.539,2.455-0.953l-5.466-7.898c-1.339,0.91-2.347,2.174-2.347,3.842
		C359.735,160.764,362.134,163.008,365.093,163.008"/>
	<path fill="#4EA8CF" d="M365.093,7.647c-2.959,0-5.358,2.24-5.358,5.006s2.399,5.008,5.358,5.008c2.958,0,5.357-2.242,5.357-5.008
		S368.051,7.647,365.093,7.647"/>
	<path fill="#4EA8CF" d="M243.97,7.647c-2.958,0-5.355,2.24-5.355,5.006s2.397,5.008,5.355,5.008c2.961,0,5.358-2.242,5.358-5.008
		S246.931,7.647,243.97,7.647"/>
	<path fill="#4EA8CF" d="M268.197,211.455c2.361,0,4.013-1.597,4.725-3.583v-2.853c-0.712-1.984-2.363-3.58-4.725-3.58
		c-2.961,0-5.358,2.242-5.358,5.008C262.838,209.211,265.236,211.455,268.197,211.455"/>
	<path fill="#4EA8CF" d="M268.197,163.008c2.361,0,4.013-1.599,4.725-3.583v-2.852c-0.712-1.986-2.363-3.583-4.725-3.583
		c-2.961,0-5.358,2.242-5.358,5.008S265.236,163.008,268.197,163.008"/>
	<path fill="#4EA8CF" d="M413.54,104.541c-0.829,0-1.423,0.51-2.124,0.824c-0.063,1.99-0.408,3.761-0.408,5.803
		c0,0.864,0.145,1.618,0.158,2.47c0.761,0.388,1.447,0.919,2.375,0.919c2.959,0,5.358-2.239,5.358-5.008
		C418.898,106.785,416.499,104.541,413.54,104.541"/>
	<path fill="#4EA8CF" d="M467.346,12.653c0-0.997-0.593-1.773-1.132-2.554c-2.987,1.397-5.903,2.895-8.68,4.592
		c0.875,1.654,2.347,2.97,4.455,2.97C464.949,17.661,467.346,15.419,467.346,12.653"/>
	<path fill="#4EA8CF" d="M564.244,12.653c0-0.975-0.592-1.727-1.105-2.494c-1.699-0.816-3.575-1.375-5.342-2.093
		c-2.362,0.522-4.269,2.218-4.269,4.586c0,2.766,2.399,5.008,5.356,5.008C561.845,17.661,564.244,15.419,564.244,12.653"/>
	<path fill="#4EA8CF" d="M586.335,27.202h0.727c-0.228-0.227-0.494-0.401-0.727-0.624V27.202z"/>
	<path fill="#4EA8CF" d="M607.334,66.11c1.299,0,2.402-0.57,3.327-1.289c-1.035-3.04-2.604-5.659-3.873-8.515
		c-2.661,0.291-4.812,2.229-4.812,4.796C601.977,63.866,604.375,66.11,607.334,66.11"/>
	<path fill="#4EA8CF" d="M611.571,68.514c-1.281,0.646-2.68,1.104-4.237,1.104h3.228v6.032h2.711
		C612.702,73.273,612.267,70.79,611.571,68.514"/>
	<path fill="#4EA8CF" d="M411.446,118.066h2.094c-0.751,0-1.42-0.239-2.119-0.399C411.427,117.801,411.441,117.93,411.446,118.066"
		/>
	<path fill="#4EA8CF" d="M601.977,109.549c0,2.769,2.398,5.008,5.357,5.008s5.357-2.239,5.357-5.008
		c0-2.764-2.398-5.008-5.357-5.008S601.977,106.785,601.977,109.549"/>
	<path fill="#4EA8CF" d="M529.306,206.447c0,2.764,2.397,5.008,5.356,5.008c2.96,0,5.355-2.244,5.355-5.008
		c0-2.766-2.396-5.008-5.355-5.008C531.703,201.439,529.306,203.682,529.306,206.447"/>
	<path fill="#4EA8CF" d="M505.081,206.447c0,2.764,2.397,5.008,5.357,5.008c2.959,0,5.356-2.244,5.356-5.008
		c0-2.766-2.397-5.008-5.356-5.008C507.479,201.439,505.081,203.682,505.081,206.447"/>
	<path fill="#4EA8CF" d="M480.856,206.447c0,2.764,2.399,5.008,5.358,5.008c2.958,0,5.355-2.244,5.355-5.008
		c0-2.766-2.397-5.008-5.355-5.008C483.255,201.439,480.856,203.682,480.856,206.447"/>
	<path fill="#4EA8CF" d="M432.408,157.998c0,2.766,2.397,5.01,5.356,5.01c2.958,0,5.357-2.244,5.357-5.01s-2.399-5.008-5.357-5.008
		C434.806,152.99,432.408,155.232,432.408,157.998"/>
	<path fill="#4EA8CF" d="M432.408,61.102c0,2.764,2.397,5.008,5.356,5.008c2.958,0,5.357-2.244,5.357-5.008
		c0-2.766-2.399-5.008-5.357-5.008C434.806,56.094,432.408,58.336,432.408,61.102"/>
	<path fill="#4EA8CF" d="M432.408,109.549c0,2.769,2.397,5.008,5.356,5.008c2.958,0,5.357-2.239,5.357-5.008
		c0-2.764-2.399-5.008-5.357-5.008C434.806,104.541,432.408,106.785,432.408,109.549"/>
	<path fill="#4EA8CF" d="M456.633,157.998c0,2.766,2.397,5.01,5.357,5.01c2.959,0,5.356-2.244,5.356-5.01s-2.397-5.008-5.356-5.008
		C459.03,152.99,456.633,155.232,456.633,157.998"/>
	<path fill="#4EA8CF" d="M480.856,12.653c0,2.766,2.399,5.008,5.358,5.008c2.958,0,5.355-2.242,5.355-5.008
		s-2.397-5.006-5.355-5.006C483.255,7.647,480.856,9.887,480.856,12.653"/>
	<path fill="#4EA8CF" d="M529.306,12.653c0,2.766,2.397,5.008,5.356,5.008c2.96,0,5.355-2.242,5.355-5.008s-2.396-5.006-5.355-5.006
		C531.703,7.647,529.306,9.887,529.306,12.653"/>
	<path fill="#4EA8CF" d="M505.081,12.653c0,2.766,2.397,5.008,5.357,5.008c2.959,0,5.356-2.242,5.356-5.008
		s-2.397-5.006-5.356-5.006C507.479,7.647,505.081,9.887,505.081,12.653"/>
	<path fill="#4EA8CF" d="M456.633,61.102c0,2.764,2.397,5.008,5.357,5.008c2.959,0,5.356-2.244,5.356-5.008
		c0-2.766-2.397-5.008-5.356-5.008C459.03,56.094,456.633,58.336,456.633,61.102"/>
	<path fill="#4EA8CF" d="M466.549,116.757c-1.359,0.758-2.862,1.31-4.559,1.31h3.227v6.033h1.729
		C466.757,121.752,466.633,119.289,466.549,116.757"/>
	<path fill="#4EA8CF" d="M555.659,69.617h3.226c-1.56,0-2.959-0.464-4.244-1.109c0.371,0.841,0.669,1.815,1.019,2.696V69.617z"/>
	<path fill="#4EA8CF" d="M466.25,111.168c0-1.299,0.179-2.362,0.207-3.622c-0.868-1.673-2.347-3.005-4.467-3.005
		c-2.96,0-5.357,2.244-5.357,5.008c0,2.769,2.397,5.008,5.357,5.008c1.962,0,3.368-1.152,4.302-2.624
		C466.29,111.655,466.25,111.445,466.25,111.168"/>
	<path fill="#4EA8CF" d="M562.097,105.784c0.057,1.805,0.292,3.353,0.292,5.24c0,0.82-0.104,1.421-0.112,2.222
		c1.153-0.918,1.968-2.167,1.968-3.697C564.244,107.956,563.338,106.702,562.097,105.784"/>
	<path fill="#4EA8CF" d="M553.528,61.102c0,2.764,2.399,5.008,5.356,5.008c2.96,0,5.359-2.244,5.359-5.008
		c0-2.766-2.399-5.008-5.359-5.008C555.928,56.094,553.528,58.336,553.528,61.102"/>
	<path fill="#4EA8CF" d="M553.528,157.998c0,2.766,2.399,5.01,5.356,5.01c2.96,0,5.359-2.244,5.359-5.01s-2.399-5.008-5.359-5.008
		C555.928,152.99,553.528,155.232,553.528,157.998"/>
	<path fill="#4EA8CF" d="M577.752,61.102c0,2.764,2.4,5.008,5.357,5.008c2.959,0,5.357-2.244,5.357-5.008
		c0-2.766-2.398-5.008-5.357-5.008C580.152,56.094,577.752,58.336,577.752,61.102"/>
	<path fill="#4EA8CF" d="M577.752,109.549c0,2.769,2.4,5.008,5.357,5.008c2.959,0,5.357-2.239,5.357-5.008
		c0-2.764-2.398-5.008-5.357-5.008C580.152,104.541,577.752,106.785,577.752,109.549"/>
	<path fill="#4EA8CF" d="M577.752,157.998c0,2.766,2.4,5.01,5.357,5.01c2.959,0,5.357-2.244,5.357-5.01s-2.398-5.008-5.357-5.008
		C580.152,152.99,577.752,155.232,577.752,157.998"/>
	<path fill="#4EA8CF" d="M592.791,178.579h-6.456v12.064h-3.226h-3.226v-12.064h-6.453v-6.032h6.453v-6.032h3.226
		c-5.031,0-9.11-3.813-9.11-8.517c0-4.702,4.079-8.517,9.11-8.517c5.032,0,9.111,3.814,9.111,8.517c0,4.704-4.079,8.517-9.111,8.517
		h3.226v6.032h6.456V178.579z"/>
	<path fill="#4EA8CF" d="M616.743,124.1c0.367-4.255,0.888-8.386,0.888-12.932c0-10.603-1.177-20.27-2.92-29.484h-4.149v12.064
		h-3.228h-3.226V81.684h-6.453v-6.034h6.453v-6.032h3.226c-5.031,0-9.11-3.811-9.11-8.515c0-4.021,3.043-7.233,7.051-8.129
		c-3.487-7.143-7.663-13.736-12.583-19.739h-6.356v12.064h-3.226h-3.226V33.234h-6.453v-6.032h6.453V21.17h0.175
		c-0.527-0.423-1.008-0.921-1.545-1.332c-1.06-0.596-1.937-1.357-2.657-2.29c-2.494-1.749-5.251-3.114-7.923-4.604
		c-0.173,4.559-4.127,8.225-9.049,8.225h3.228v6.032h6.454v6.032h-6.454v12.064h-3.228h-3.226V33.234h-6.453v-6.032h6.453V21.17
		h3.226c-5.031,0-9.11-3.814-9.11-8.517c0-2.582,1.297-4.818,3.236-6.38C541.41,2.268,528.61,0,514.247,0
		c-16.795,0-31.596,2.865-44.619,8.291c0.852,1.295,1.471,2.733,1.471,4.362c0,4.703-4.079,8.517-9.109,8.517h3.227v6.032h6.453
		v6.032h-6.453v12.064h-3.227h-3.228V33.234h-6.454v-6.032h6.454V21.17h3.228c-3.502,0-6.448-1.907-7.973-4.616
		c-4.491,3.038-8.489,6.784-12.405,10.648h5.834v6.032h-6.454v12.064h-3.228h-3.226V35.143c-5.19,6.684-9.639,13.95-13.043,22.032
		c0.676,1.19,1.157,2.483,1.157,3.927c0,3.371-2.14,6.225-5.181,7.604c-0.248,0.835-0.474,1.687-0.703,2.534v4.409h6.452v6.034
		h-6.452v12.064h-3.229h-0.915c-0.264,2.58-0.778,4.963-0.929,7.634c0.616-0.121,1.191-0.348,1.844-0.348
		c5.033,0,9.112,3.813,9.112,8.515c0,4.705-4.079,8.518-9.112,8.518h3.229v6.033h6.452v6.032h-6.452v12.063h-2.3
		c0.55,2.565,0.887,5.294,1.571,7.759c3.789,1.029,6.612,4.169,6.612,8.044c0,2.032-0.867,3.818-2.134,5.282
		c2.167,5.193,4.674,10.131,7.567,14.771v-5.505h6.454v-6.032h3.226c-5.032,0-9.111-3.813-9.111-8.517
		c0-4.702,4.079-8.517,9.111-8.517s9.111,3.814,9.111,8.517c0,4.704-4.079,8.517-9.111,8.517h3.228v6.032h6.454v6.032h-6.454v12.064
		h-3.228h-0.397c0.421,0.48,0.701,1.065,1.131,1.536c4.445,4.854,9.465,8.871,14.765,12.487c0.898-3.818,4.369-6.735,8.726-6.735
		c5.03,0,9.109,3.812,9.109,8.516c0,2.562-1.269,4.785-3.185,6.347c4.799,2.063,9.769,3.879,15.071,5.21v-3.04h3.229
		c-5.033,0-9.112-3.814-9.112-8.517c0-4.704,4.079-8.516,9.112-8.516c5.032,0,9.111,3.812,9.111,8.516
		c0,4.702-4.079,8.517-9.111,8.517h3.226v4.16c3.73,0.714,7.362,1.57,11.318,1.959v-0.087h6.451v-6.032h3.229
		c-5.032,0-9.111-3.814-9.111-8.517c0-4.704,4.079-8.516,9.111-8.516c5.031,0,9.11,3.812,9.11,8.516c0,4.702-4.079,8.517-9.11,8.517
		h3.226v6.032h6.453v0.695c1.593-0.179,3.24-0.275,4.866-0.414v-0.281h3.327c1.024-0.114,2.116-0.129,3.124-0.267v-5.766h3.228
		c-5.033,0-9.112-3.814-9.112-8.517c0-4.704,4.079-8.516,9.112-8.516c5.032,0,9.111,3.812,9.111,8.516
		c0,4.702-4.079,8.517-9.111,8.517h3.227v4.891c6.208-1.203,12.182-2.744,17.771-4.847v-0.044h0.127
		c0.352-0.134,0.721-0.244,1.072-0.383c-4.023-0.883-7.084-4.103-7.084-8.134c0-4.704,4.079-8.516,9.11-8.516
		c5.034,0,9.113,3.812,9.113,8.516c0,1.147-0.26,2.234-0.699,3.231c2.279-1.24,4.664-2.325,6.814-3.756
		c0.301-4.445,4.165-7.991,8.996-7.991c0.177,0,0.326,0.085,0.502,0.095c2.099-1.871,4.437-3.397,6.386-5.488
		c3.967-4.258,7.3-9.021,10.413-13.959h-2.755v-6.032h6.153c0.112-0.209,0.188-0.446,0.3-0.654v-5.378h2.448
		c0.02-0.044,0.042-0.09,0.063-0.134c-4.681-0.36-8.396-3.916-8.396-8.383c0-4.702,4.079-8.517,9.11-8.517
		c1.849,0,3.469,0.642,4.905,1.526c1.835-6.582,3.161-13.57,4.09-20.876h-5.768v12.063h-3.228h-3.226v-12.063h-6.453V124.1h6.453
		v-6.033h3.226c-5.031,0-9.11-3.813-9.11-8.518c0-4.702,4.079-8.515,9.11-8.515c5.032,0,9.111,3.813,9.111,8.515
		c0,4.705-4.079,8.518-9.111,8.518h3.228v6.033H616.743z M447.446,130.132h-6.454v12.063h-3.228h-3.226v-12.063h-6.454V124.1h6.454
		v-6.033h3.226c-5.032,0-9.111-3.813-9.111-8.518c0-4.702,4.079-8.515,9.111-8.515s9.111,3.813,9.111,8.515
		c0,4.705-4.079,8.518-9.111,8.518h3.228v6.033h6.454V130.132z M447.446,81.684h-6.454v12.064h-3.228h-3.226V81.684h-6.454v-6.034
		h6.454v-6.032h3.226c-5.032,0-9.111-3.811-9.111-8.515c0-4.705,4.079-8.517,9.111-8.517s9.111,3.813,9.111,8.517
		c0,4.704-4.079,8.515-9.111,8.515h3.228v6.032h6.454V81.684z M476.533,27.202h6.453V21.17h3.229c-5.033,0-9.112-3.814-9.112-8.517
		c0-4.704,4.079-8.515,9.112-8.515c5.032,0,9.111,3.811,9.111,8.515c0,4.703-4.079,8.517-9.111,8.517h3.226v6.032h6.453v6.032
		h-6.453v12.064h-3.226h-3.229V33.234h-6.453V27.202z M471.67,178.579h-6.453v12.064h-3.227h-3.228v-12.064h-6.454v-6.032h6.454
		v-6.032h3.228c-5.032,0-9.111-3.813-9.111-8.517c0-4.702,4.079-8.517,9.111-8.517c5.03,0,9.109,3.814,9.109,8.517
		c0,4.704-4.079,8.517-9.109,8.517h3.227v6.032h6.453V178.579z M568.566,81.684h-6.454v12.064h-1.004
		c0.274,2.582,0.589,5.106,0.752,7.847c3.554,1.164,6.138,4.239,6.138,7.954c0,3.652-2.484,6.709-5.94,7.92
		c-0.006,0.205-0.022,0.393-0.031,0.598h0.086v6.033h6.454v6.032h-6.454v12.063h-3.201c-0.104,0.375-0.137,0.898-0.247,1.261
		c-0.698,2.329-1.677,4.383-2.543,6.548c0.885-0.269,1.784-0.522,2.764-0.522c5.034,0,9.113,3.814,9.113,8.517
		c0,4.704-4.079,8.517-9.113,8.517h3.228v6.032h6.454v6.032h-6.454v12.064h-3.228h-3.226v-12.064h-6.453v-6.032h6.453v-6.032h3.226
		c-3.823,0-7.072-2.212-8.423-5.335c-0.82,1.302-1.495,2.748-2.398,3.971c-2.129,2.84-4.465,5.297-6.992,7.396h3.271v6.032h-6.453
		v12.064h-3.227h-3.228v-12.064h-0.927c-5.233,2.092-10.589,3.323-16.117,3.323c-0.247,0-0.482-0.071-0.727-0.075v8.816h-3.226
		h-3.229v-9.482c-3.687-0.603-7.326-1.51-10.873-3.049c-0.156-0.068-0.289-0.202-0.443-0.271v0.737h-6.453v12.064h-3.226h-3.229
		v-12.064h-6.453v-6.032h6.453v-4.763c-0.735-0.831-1.557-1.435-2.263-2.347c-0.305-0.397-0.524-0.924-0.819-1.334
		c-1.111-1.002-1.831-2.295-2.284-3.713c-2.97-4.86-5.592-10.232-7.503-16.647c-1.199-4.021-2.058-8.629-2.7-13.611h-2.199v12.063
		h-3.227h-3.228v-12.063h-6.454V124.1h6.454v-6.033h3.228c-5.032,0-9.111-3.813-9.111-8.518c0-4.702,4.079-8.515,9.111-8.515
		c1.786,0,3.354,0.604,4.762,1.435c0.429-7.619,1.38-14.563,2.886-20.785h-4.421v12.064h-3.227h-3.228V81.684h-6.454v-6.034h6.454
		v-6.032h3.228c-5.032,0-9.111-3.811-9.111-8.515c0-4.705,4.079-8.517,9.111-8.517c5.03,0,9.109,3.813,9.109,8.517
		c0,4.704-4.079,8.515-9.109,8.515h3.227v6.032h6.118c1.733-5.058,3.744-9.508,6.018-13.398c-0.061-0.392-0.25-0.741-0.25-1.149
		c0-4.096,3.155-7.354,7.277-8.171c3.928-4.044,7.936-7.314,12.1-9.133c3.313-1.445,6.946-2.288,10.73-2.841v-7.722h-6.451v-6.032
		h6.451V21.17h3.229c-5.032,0-9.111-3.814-9.111-8.517c0-4.704,4.079-8.515,9.111-8.515c5.031,0,9.11,3.811,9.11,8.515
		c0,4.703-4.079,8.517-9.11,8.517h3.226v6.032h6.453v6.032h-6.453v7.121c0.252-0.003,0.473-0.066,0.727-0.066
		c5.881,0,11.549,1.225,17.044,3.494V33.234h-6.451v-6.032h6.451V21.17h3.228c-5.033,0-9.112-3.814-9.112-8.517
		c0-4.704,4.079-8.515,9.112-8.515c5.032,0,9.111,3.811,9.111,8.515c0,4.703-4.079,8.517-9.111,8.517h3.227v6.032h6.453v6.032
		h-6.453v12.064h-3.227h-0.307c4.954,2.573,9.526,6.192,13.562,11.314c0.772,1.006,1.366,2.335,2.084,3.443
		c0.575-4.186,4.25-7.471,8.884-7.471c5.034,0,9.113,3.813,9.113,8.517c0,4.704-4.079,8.515-9.113,8.515h3.228v6.032h6.454V81.684z
		 M592.791,130.132h-6.456v12.063h-3.226h-3.226v-12.063h-6.453V124.1h6.453v-6.033h3.226c-5.031,0-9.11-3.813-9.11-8.518
		c0-4.702,4.079-8.515,9.11-8.515c5.032,0,9.111,3.813,9.111,8.515c0,4.705-4.079,8.518-9.111,8.518h3.226v6.033h6.456V130.132z
		 M592.791,81.684h-6.456v12.064h-3.226h-3.226V81.684h-6.453v-6.034h6.453v-6.032h3.226c-5.031,0-9.11-3.811-9.11-8.515
		c0-4.705,4.079-8.517,9.11-8.517c5.032,0,9.111,3.813,9.111,8.517c0,4.704-4.079,8.515-9.111,8.515h3.226v6.032h6.456V81.684z"/>
	<path fill="#4EA8CF" d="M685.363,12.653c0-1.605-0.92-2.86-2.178-3.777c-2.9,1.19-5.766,2.435-8.485,3.892
		c0.075,2.703,2.396,4.894,5.308,4.894C682.967,17.661,685.363,15.419,685.363,12.653"/>
	<path fill="#4EA8CF" d="M782.261,12.653c0-2.766-2.397-5.006-5.356-5.006c-2.96,0-5.357,2.24-5.357,5.006s2.397,5.008,5.357,5.008
		C779.863,17.661,782.261,15.419,782.261,12.653"/>
	<path fill="#4EA8CF" d="M796.326,13.911c0.431,1.364,1.315,2.313,2.663,2.922v-1.935C798.158,14.531,797.178,14.266,796.326,13.911
		"/>
	<path fill="#4EA8CF" d="M796.827,63.483h2.162v-6.562c-1.789,0.809-3.22,2.196-3.22,4.18
		C795.77,62.033,796.354,62.737,796.827,63.483"/>
	<path fill="#4EA8CF" d="M751.945,166.515h0.734c-0.254,0-0.468-0.115-0.714-0.134C751.953,166.421,751.958,166.475,751.945,166.515
		"/>
	<path fill="#4EA8CF" d="M806.127,164.93c-1.455,0.921-3.109,1.585-4.999,1.585h3.229v4.269
		C804.952,168.836,805.719,166.971,806.127,164.93"/>
	<path fill="#4EA8CF" d="M747.322,206.447c0,2.764,2.398,5.008,5.357,5.008s5.356-2.244,5.356-5.008
		c0-2.766-2.397-5.008-5.356-5.008S747.322,203.682,747.322,206.447"/>
	<path fill="#4EA8CF" d="M723.098,206.447c0,2.764,2.4,5.008,5.359,5.008c2.957,0,5.355-2.244,5.355-5.008
		c0-2.766-2.398-5.008-5.355-5.008C725.498,201.439,723.098,203.682,723.098,206.447"/>
	<path fill="#4EA8CF" d="M698.873,206.447c0,2.764,2.4,5.008,5.359,5.008c2.957,0,5.355-2.244,5.355-5.008
		c0-2.766-2.398-5.008-5.355-5.008C701.273,201.439,698.873,203.682,698.873,206.447"/>
	<path fill="#4EA8CF" d="M674.65,206.447c0,2.764,2.396,5.008,5.357,5.008c2.959,0,5.355-2.244,5.355-5.008
		c0-2.766-2.396-5.008-5.355-5.008C677.047,201.439,674.65,203.682,674.65,206.447"/>
	<path fill="#4EA8CF" d="M723.098,109.549c0,2.769,2.4,5.008,5.359,5.008c2.957,0,5.355-2.239,5.355-5.008
		c0-2.764-2.398-5.008-5.355-5.008C725.498,104.541,723.098,106.785,723.098,109.549"/>
	<path fill="#4EA8CF" d="M698.873,109.549c0,2.769,2.4,5.008,5.359,5.008c2.957,0,5.355-2.239,5.355-5.008
		c0-2.764-2.398-5.008-5.355-5.008C701.273,104.541,698.873,106.785,698.873,109.549"/>
	<path fill="#4EA8CF" d="M674.65,109.549c0,2.769,2.396,5.008,5.357,5.008c2.959,0,5.355-2.239,5.355-5.008
		c0-2.764-2.396-5.008-5.355-5.008C677.047,104.541,674.65,106.785,674.65,109.549"/>
	<path fill="#4EA8CF" d="M747.322,12.653c0,2.766,2.398,5.008,5.357,5.008s5.356-2.242,5.356-5.008s-2.397-5.006-5.356-5.006
		S747.322,9.887,747.322,12.653"/>
	<path fill="#4EA8CF" d="M723.098,12.653c0,2.766,2.4,5.008,5.359,5.008c2.957,0,5.355-2.242,5.355-5.008s-2.398-5.006-5.355-5.006
		C725.498,7.647,723.098,9.887,723.098,12.653"/>
	<path fill="#4EA8CF" d="M698.873,12.653c0,2.766,2.4,5.008,5.359,5.008c2.957,0,5.355-2.242,5.355-5.008s-2.398-5.006-5.355-5.006
		C701.273,7.647,698.873,9.887,698.873,12.653"/>
	<path fill="#4EA8CF" d="M650.426,61.102c0,2.764,2.398,5.008,5.355,5.008c2.961,0,5.359-2.244,5.359-5.008
		c0-2.766-2.398-5.008-5.359-5.008C652.824,56.094,650.426,58.336,650.426,61.102"/>
	<path fill="#4EA8CF" d="M674.65,61.102c0,2.764,2.396,5.008,5.357,5.008c2.959,0,5.355-2.244,5.355-5.008
		c0-2.766-2.396-5.008-5.355-5.008C677.047,56.094,674.65,58.336,674.65,61.102"/>
	<path fill="#4EA8CF" d="M747.322,109.549c0,2.769,2.398,5.008,5.357,5.008s5.356-2.239,5.356-5.008
		c0-2.764-2.397-5.008-5.356-5.008S747.322,106.785,747.322,109.549"/>
	<path fill="#4EA8CF" d="M771.547,157.998c0,2.766,2.397,5.01,5.357,5.01c2.959,0,5.356-2.244,5.356-5.01s-2.397-5.008-5.356-5.008
		C773.944,152.99,771.547,155.232,771.547,157.998"/>
	<path fill="#4EA8CF" d="M804.356,130.177v12.019h-3.229H797.9v-12.063h-6.453V124.1h6.453v-6.033h0.189
		c-0.134-0.193-0.192-0.445-0.329-0.635c-2.668-0.999-4.568-3.169-5.296-5.808c-2.217-2.231-5.065-4.155-7.729-6.171
		c0.741,1.234,1.278,2.582,1.278,4.096c0,4.705-4.079,8.518-9.11,8.518h3.226v6.033h6.453v6.032h-6.453v12.063h-3.226h-3.227
		v-12.063h-6.453V124.1h6.453v-6.033h3.227c-5.032,0-9.111-3.813-9.111-8.518c0-4.702,4.079-8.515,9.111-8.515
		c0.994,0,1.905,0.254,2.803,0.529c-4.672-2.901-9.94-5.517-16.054-7.722c-2.748-0.972-5.118-1.472-7.748-2.292v2.198h-3.226h-3.226
		v-4.107c-2.314-0.636-4.882-1.591-7.094-2.098c-3.427-0.787-7.115-1.624-10.678-2.439v8.645h-3.226h-3.229V83.631
		c-1.224-0.279-2.347-0.537-3.587-0.818c-3.078-0.716-5.208-1.512-7.729-2.273v1.145h-6.453v12.064h-3.226h-3.228V81.684h-6.454
		v-6.034h6.454v-0.528c-0.493-0.334-1.396-0.629-1.807-0.969c-3.873-3.196-5.808-7.517-5.808-12.962c0-3.678,1.214-7.001,3.65-9.977
		c2.14-2.612,4.778-4.431,7.627-5.915h-0.436h-3.228V33.234h-6.454v-6.032h6.454V21.17h3.228c-5.032,0-9.111-3.814-9.111-8.517
		c0-4.704,4.079-8.515,9.111-8.515c5.031,0,9.11,3.811,9.11,8.515c0,4.703-4.079,8.517-9.11,8.517h3.226v6.032h6.453v6.032h-6.453
		v10.687c3.448-1.453,6.828-2.691,10.003-3.253c2.297-0.405,5.11-0.453,7.767-0.609v-6.825h-6.452v-6.032h6.452V21.17h3.229
		c-5.034,0-9.113-3.814-9.113-8.517c0-4.704,4.079-8.515,9.113-8.515c5.031,0,9.11,3.811,9.11,8.515c0,4.703-4.079,8.517-9.11,8.517
		h3.226v6.032h6.453v6.032h-6.453v6.624c5.997,0.125,11.927,0.758,17.771,2.012v-8.636H743v-6.032h6.454V21.17h3.226
		c-5.032,0-9.111-3.814-9.111-8.517c0-4.704,4.079-8.515,9.111-8.515c5.031,0,9.11,3.811,9.11,8.515c0,4.703-4.079,8.517-9.11,8.517
		h3.226v6.032h6.455v6.032h-6.455v10.562c3.117,0.905,6.268,1.549,9.341,2.787c4.633,1.868,8.823,3.998,12.844,6.227
		c2.858,0.364,5.232,1.898,6.606,4.142c2.555,1.677,5.229,3.283,7.527,5.109c-0.041-0.329-0.208-0.618-0.208-0.958
		c0-3.995,3.005-7.195,6.974-8.114v-7.689H797.9V33.234h-6.453v-6.032h6.453V21.17h1.089v-0.403
		c-3.969-0.919-6.974-4.12-6.974-8.114c0-0.112,0.064-0.204,0.07-0.316c-2.126-0.805-4.416-1.499-6.625-2.247
		c0.283,0.82,0.554,1.655,0.554,2.563c0,4.703-4.079,8.517-9.11,8.517h3.226v6.032h6.453v6.032h-6.453v12.064h-3.226h-3.227V33.234
		h-6.453v-6.032h6.453V21.17h3.227c-5.032,0-9.111-3.814-9.111-8.517c0-2.748,1.482-5.076,3.64-6.633
		c-2.065-0.511-4.006-1.105-6.166-1.551c-12.553-2.571-25.176-3.858-37.871-3.858c-15.001,0-28.342,2.446-40.39,6.794
		c1.254,1.458,2.112,3.233,2.112,5.249c0,4.703-4.08,8.517-9.11,8.517h3.226v6.032h6.453v6.032h-6.453v12.064h-3.226h-3.228V33.234
		h-6.453v-6.032h6.453V21.17h3.228c-4.225,0-7.619-2.742-8.651-6.385c-2.43,1.44-4.98,2.707-7.259,4.371
		c-1.901,1.394-3.411,2.961-5.089,4.455v3.592h6.455v6.032h-6.455v12.064h-3.228h-3.226V33.234h-2.374
		c-5.322,7.297-8.881,15.386-10.317,24.43c0.502,1.056,0.806,2.207,0.806,3.438c0,1.771-0.716,3.325-1.707,4.689
		c-0.019,0.636-0.206,1.197-0.206,1.841c0,2.917,0.772,5.3,1.06,8.017h1.423v6.034h-0.627c1.599,8.235,4.102,15.846,8.524,22.126
		c1.664-1.683,4-2.775,6.645-2.775c5.032,0,9.111,3.813,9.111,8.515c0,2.636-1.354,4.899-3.362,6.461
		c4.085,2.934,8.618,5.674,13.909,8.09h1.341v-6.033h3.228c-5.032,0-9.111-3.813-9.111-8.518c0-4.702,4.079-8.515,9.111-8.515
		c5.03,0,9.11,3.813,9.11,8.515c0,4.705-4.08,8.518-9.11,8.518h3.226v6.033h6.453v5.218c3.715,1.068,7.443,2.124,11.318,3.081
		v-2.267h-6.454V124.1h6.454v-6.033h3.228c-5.032,0-9.111-3.813-9.111-8.518c0-4.702,4.079-8.515,9.111-8.515
		c5.031,0,9.11,3.813,9.11,8.515c0,4.705-4.079,8.518-9.11,8.518h3.226v6.033h6.453v6.032h-6.453v4.024
		c0.275,0.059,0.498,0.154,0.778,0.213c6.028,1.251,11.494,2.612,16.991,3.966v-8.203h-6.452V124.1h6.452v-6.033h3.229
		c-5.034,0-9.113-3.813-9.113-8.518c0-4.702,4.079-8.515,9.113-8.515c5.031,0,9.11,3.813,9.11,8.515c0,4.705-4.079,8.518-9.11,8.518
		h3.226v6.033h6.453v6.032h-6.453v9.746c5.756,1.528,10.747,3.926,14.913,7.232c1.116,0.887,1.69,2.03,2.511,3.059
		c1.098-0.439,2.304-0.688,3.573-0.688c5.031,0,9.11,3.814,9.11,8.517c0,4.704-4.079,8.517-9.11,8.517h3.226v6.032h6.455v6.032
		h-6.455v12.064h-3.226h-3.226v-12.064H743v-2.646c-1.199,0.754-2.076,1.867-3.424,2.452c-2.111,0.981-4.857,1.716-7.894,2.335
		v9.924h-3.226h-3.229v-8.879c-3.921,0.466-7.32,0.749-9.872,0.749c-2.594,0-5.271-0.556-7.897-0.776v8.906h-3.226h-3.228v-9.541
		c-4.092-0.62-8.223-1.462-12.385-2.523h-5.387v12.064h-3.226h-3.228v-12.064h-6.453v-6.032h1.824
		c-4.475-1.955-8.77-4.252-13.001-6.668c-1.044,0.392-2.172,0.636-3.369,0.636h3.228v6.032h6.455v6.032h-6.455v12.064h-3.228h-3.226
		v-12.064h-6.453v-6.032h6.453v-6.032h3.226c-5.03,0-9.109-3.813-9.109-8.517c0-0.16,0.089-0.296,0.1-0.454
		c-1.431-1.085-2.976-1.942-4.36-3.11h-2.637c0.544,1.093,0.896,2.281,0.896,3.564c0,2.54-1.245,4.754-3.133,6.315v8.233h3.702
		v6.032h-3.702v21.555c1.812,1.499,2.983,3.611,3.071,6.032c2.182,0.719,4.395,1.408,6.479,2.209
		c-0.164-0.637-0.416-1.244-0.416-1.928c0-4.704,4.079-8.516,9.109-8.516c5.032,0,9.111,3.812,9.111,8.516
		c0,2.797-1.536,5.16-3.765,6.713c3.722,1.144,6.957,2.707,10.854,3.7c1.496,0.379,3.229,0.571,4.799,0.892v-2.788h3.228
		c-5.032,0-9.111-3.814-9.111-8.517c0-4.704,4.079-8.516,9.111-8.516c5.03,0,9.11,3.812,9.11,8.516c0,4.702-4.08,8.517-9.11,8.517
		h3.226v3.993c5.655,0.846,11.544,1.508,17.771,1.903v-5.896h3.228c-5.032,0-9.111-3.814-9.111-8.517
		c0-4.704,4.079-8.516,9.111-8.516c5.031,0,9.11,3.812,9.11,8.516c0,4.702-4.079,8.517-9.11,8.517h3.226v6.032h6.453v0.526
		c0.39,0.002,0.712,0.059,1.104,0.059c1.33,0,2.467-0.215,3.761-0.25v-0.335h5.012c0.48-0.033,0.966-0.059,1.44-0.098v-5.935h3.229
		c-5.034,0-9.113-3.814-9.113-8.517c0-4.704,4.079-8.516,9.113-8.516c5.031,0,9.11,3.812,9.11,8.516c0,4.702-4.079,8.517-9.11,8.517
		h3.226v5.507c6.214-0.772,12.146-1.858,17.771-3.279v-2.228h3.226c-5.032,0-9.111-3.814-9.111-8.517
		c0-4.704,4.079-8.516,9.111-8.516c5.031,0,9.11,3.812,9.11,8.516c0,4.702-4.079,8.517-9.11,8.517h3.226v0.066
		c4.438-1.44,9.25-2.463,13.21-4.427c-0.765-1.249-1.322-2.615-1.322-4.156c0-4.704,4.079-8.516,9.111-8.516
		c2.806,0,5.221,1.255,6.893,3.118c5.922-4.802,10.386-10.332,14.104-16.236v-6.234h-6.453v-6.032h6.453v-6.032h3.228
		c-5.033,0-9.112-3.813-9.112-8.517c0-4.702,4.079-8.517,9.112-8.517c2.467,0,4.688,0.935,6.329,2.424
		c0.002-0.274,0.079-0.51,0.079-0.785C807.536,143.293,806.375,136.389,804.356,130.177z M665.464,81.684h-6.455v12.064h-3.228
		h-3.226V81.684h-6.453v-6.034h6.453v-6.032h3.226c-5.03,0-9.109-3.811-9.109-8.515c0-4.705,4.079-8.517,9.109-8.517
		c5.032,0,9.111,3.813,9.111,8.517c0,4.704-4.079,8.515-9.111,8.515h3.228v6.032h6.455V81.684z M689.687,81.684h-6.453v12.064
		h-3.226h-3.228V81.684h-6.453v-6.034h6.453v-6.032h3.228c-5.032,0-9.111-3.811-9.111-8.515c0-4.705,4.079-8.517,9.111-8.517
		c5.03,0,9.11,3.813,9.11,8.517c0,4.704-4.08,8.515-9.11,8.515h3.226v6.032h6.453V81.684z M762.36,130.132h-6.455v12.063h-3.226
		h-3.226v-12.063H743V124.1h6.454v-6.033h3.226c-5.032,0-9.111-3.813-9.111-8.518c0-4.702,4.079-8.515,9.111-8.515
		c5.031,0,9.11,3.813,9.11,8.515c0,4.705-4.079,8.518-9.11,8.518h3.226v6.033h6.455V130.132z M786.583,178.579h-6.453v12.064h-3.226
		h-3.227v-12.064h-6.453v-6.032h6.453v-6.032h3.227c-5.032,0-9.111-3.813-9.111-8.517c0-4.702,4.079-8.517,9.111-8.517
		c5.031,0,9.11,3.814,9.11,8.517c0,4.704-4.079,8.517-9.11,8.517h3.226v6.032h6.453V178.579z"/>
	<path fill="#4EA8CF" d="M776.904,114.557c2.959,0,5.356-2.239,5.356-5.008c0-2.764-2.397-5.008-5.356-5.008
		c-2.96,0-5.357,2.244-5.357,5.008C771.547,112.317,773.944,114.557,776.904,114.557"/>
	<path fill="#4EA8CF" d="M655.781,104.541c-1.778,0-3.134,0.94-4.106,2.19c1.99,2.38,4.229,4.653,6.819,6.777
		c1.491-0.891,2.646-2.183,2.646-3.96C661.141,106.785,658.742,104.541,655.781,104.541"/>
	<path fill="#4EA8CF" d="M749.454,170.887c-0.175,0.219-0.236,0.521-0.422,0.729c-0.354,0.399-0.923,0.556-1.3,0.931h1.722V170.887z
		"/>
	<path fill="#4EA8CF" d="M751.456,153.465c0.887,2.034,1.447,4.223,1.447,6.678c0,1.03-0.298,1.847-0.417,2.788
		c0.075,0.004,0.117,0.077,0.193,0.077c2.959,0,5.356-2.244,5.356-5.01s-2.397-5.008-5.356-5.008
		C752.201,152.99,751.896,153.356,751.456,153.465"/>
	<path fill="#4EA8CF" d="M806.485,157.998c0-2.766-2.399-5.008-5.357-5.008c-2.959,0-5.358,2.242-5.358,5.008s2.399,5.01,5.358,5.01
		C804.086,163.008,806.485,160.764,806.485,157.998"/>
	<path fill="#4EA8CF" d="M827.966,154.434h-4.873v7.697c0.733,0.353,1.377,0.877,2.258,0.877c2.96,0,5.359-2.244,5.359-5.01
		c0-0.938-0.585-1.653-1.066-2.405C829.108,155.16,828.494,154.881,827.966,154.434"/>
	<path fill="#4EA8CF" d="M825.585,56.184c-0.57,3.104-0.975,6.283-1.067,9.604c0.312,0.049,0.508,0.322,0.833,0.322
		c2.96,0,5.359-2.244,5.359-5.008C830.71,58.422,828.417,56.316,825.585,56.184"/>
	<path fill="#4EA8CF" d="M840.5,27.202h5.85v-5.225C844.296,23.673,842.262,25.376,840.5,27.202"/>
	<path fill="#4EA8CF" d="M879.157,12.653c0-2.766-2.396-5.006-5.355-5.006c-2.961,0-5.357,2.24-5.357,5.006s2.396,5.008,5.357,5.008
		C876.761,17.661,879.157,15.419,879.157,12.653"/>
	<path fill="#4EA8CF" d="M976.056,12.653c0-0.423-0.375-0.689-0.48-1.081c-2.589-0.94-5.063-1.959-7.807-2.792
		c-1.38,0.907-2.43,2.178-2.43,3.873c0,2.766,2.4,5.008,5.359,5.008C973.655,17.661,976.056,15.419,976.056,12.653"/>
	<path fill="#4EA8CF" d="M847.297,21.17h2.278c-0.66,0-1.243-0.227-1.866-0.353C847.563,20.931,847.44,21.054,847.297,21.17"/>
	<path fill="#4EA8CF" d="M824.575,69.617h0.775c-0.281,0-0.519-0.125-0.796-0.151C824.557,69.521,824.573,69.565,824.575,69.617"/>
	<path fill="#4EA8CF" d="M823.093,166.515h2.258c-0.8,0-1.517-0.244-2.258-0.427V166.515z"/>
	<path fill="#4EA8CF" d="M916.892,206.447c0,2.764,2.4,5.008,5.357,5.008c2.959,0,5.359-2.244,5.359-5.008
		c0-2.766-2.4-5.008-5.359-5.008C919.292,201.439,916.892,203.682,916.892,206.447"/>
	<path fill="#4EA8CF" d="M892.667,206.447c0,2.764,2.4,5.008,5.357,5.008c2.959,0,5.357-2.244,5.357-5.008
		c0-2.766-2.398-5.008-5.357-5.008C895.067,201.439,892.667,203.682,892.667,206.447"/>
	<path fill="#4EA8CF" d="M868.444,206.447c0,2.764,2.396,5.008,5.357,5.008c2.959,0,5.355-2.244,5.355-5.008
		c0-2.766-2.396-5.008-5.355-5.008C870.841,201.439,868.444,203.682,868.444,206.447"/>
	<path fill="#4EA8CF" d="M916.892,109.549c0,2.769,2.4,5.008,5.357,5.008c2.959,0,5.359-2.239,5.359-5.008
		c0-2.764-2.4-5.008-5.359-5.008C919.292,104.541,916.892,106.785,916.892,109.549"/>
	<path fill="#4EA8CF" d="M892.667,109.549c0,2.769,2.4,5.008,5.357,5.008c2.959,0,5.357-2.239,5.357-5.008
		c0-2.764-2.398-5.008-5.357-5.008C895.067,104.541,892.667,106.785,892.667,109.549"/>
	<path fill="#4EA8CF" d="M868.444,109.549c0,2.769,2.396,5.008,5.357,5.008c2.959,0,5.355-2.239,5.355-5.008
		c0-2.764-2.396-5.008-5.355-5.008C870.841,104.541,868.444,106.785,868.444,109.549"/>
	<path fill="#4EA8CF" d="M941.116,12.653c0,2.766,2.398,5.008,5.357,5.008s5.357-2.242,5.357-5.008s-2.398-5.006-5.357-5.006
		S941.116,9.887,941.116,12.653"/>
	<path fill="#4EA8CF" d="M916.892,12.653c0,2.766,2.4,5.008,5.357,5.008c2.959,0,5.359-2.242,5.359-5.008s-2.4-5.006-5.359-5.006
		C919.292,7.647,916.892,9.887,916.892,12.653"/>
	<path fill="#4EA8CF" d="M892.667,12.653c0,2.766,2.4,5.008,5.357,5.008c2.959,0,5.357-2.242,5.357-5.008s-2.398-5.006-5.357-5.006
		C895.067,7.647,892.667,9.887,892.667,12.653"/>
	<path fill="#4EA8CF" d="M844.22,61.102c0,2.764,2.396,5.008,5.355,5.008c2.961,0,5.357-2.244,5.357-5.008
		c0-2.766-2.396-5.008-5.357-5.008C846.616,56.094,844.22,58.336,844.22,61.102"/>
	<path fill="#4EA8CF" d="M941.116,109.549c0,2.769,2.398,5.008,5.357,5.008s5.357-2.239,5.357-5.008
		c0-2.764-2.398-5.008-5.357-5.008S941.116,106.785,941.116,109.549"/>
	<path fill="#4EA8CF" d="M965.339,157.998c0,2.766,2.4,5.01,5.359,5.01c2.957,0,5.357-2.244,5.357-5.01s-2.4-5.008-5.357-5.008
		C967.739,152.99,965.339,155.232,965.339,157.998"/>
	<path fill="#4EA8CF" d="M985.81,157.998c0-4.04,3.073-7.265,7.112-8.138c-0.044-2.815-0.808-5.054-1.109-7.665h-0.117v-0.803
		c-0.489-3.844-0.732-7.884-1.805-11.261h-4.649V124.1h1.526c-1.429-2.962-2.505-6.205-4.505-8.706
		c-0.824-1.028-2.196-1.791-3.117-2.771c-1.324,3.177-4.582,5.444-8.447,5.444h3.226v6.033h6.453v6.032h-6.453v12.063h-3.226h-3.226
		v-12.063h-6.456V124.1h6.456v-6.033h3.226c-5.032,0-9.111-3.813-9.111-8.518c0-3.22,1.988-5.924,4.812-7.371
		c-5.078-3.093-10.617-5.966-17.188-8.336c-0.115-0.039-0.208-0.056-0.32-0.094h-2.416h-3.226v-1.67
		c-5.255-1.694-10.549-3.436-15.333-4.535c-0.783-0.179-1.649-0.377-2.44-0.558v6.763h-3.226h-3.228v-8.236
		c-3.921-0.896-7.733-1.772-11.827-2.699c-1.526-0.355-2.448-0.764-3.838-1.129h-2.104v12.064h-3.228h-3.228V81.684h-6.451v-5.606
		c-1.137-0.649-2.775-1.25-3.592-1.925c-2.286-1.887-3.684-4.289-4.62-6.961c-1.639,1.489-3.864,2.426-6.332,2.426h3.226v6.032
		h6.454v6.034h-6.454v12.064h-3.226h-3.228V81.684h-6.455v-6.034h6.455v-6.032h3.228c-5.031,0-9.11-3.811-9.11-8.515
		c0-4.705,4.079-8.517,9.11-8.517c2.555,0,4.85,0.997,6.505,2.581c0.591-1.367,1.272-2.708,2.292-3.952
		c2.431-2.97,5.322-5.212,8.669-6.724c1.234-0.568,2.33-0.691,3.529-1.147V33.234h-6.451v-6.032h6.451V21.17h3.228
		c-5.031,0-9.11-3.814-9.11-8.517c0-4.704,4.079-8.515,9.11-8.515c5.034,0,9.113,3.811,9.113,8.515c0,4.703-4.079,8.517-9.113,8.517
		h3.228v6.032h6.453v6.032h-6.453v8.009c0.568-0.127,1.205-0.475,1.766-0.576c3.726-0.657,7.927-0.99,12.608-0.99
		c1.146,0,2.259,0.256,3.396,0.309v-6.753h-6.451v-6.032h6.451V21.17h3.228c-5.031,0-9.111-3.814-9.111-8.517
		c0-4.704,4.08-8.515,9.111-8.515c5.032,0,9.111,3.811,9.111,8.515c0,4.703-4.079,8.517-9.111,8.517h3.226v6.032h6.455v6.032h-6.455
		v7.338c5.99,0.771,11.925,1.933,17.773,3.755V33.234h-6.454v-6.032h6.454V21.17h3.226c-5.032,0-9.111-3.814-9.111-8.517
		c0-4.704,4.079-8.515,9.111-8.515c5.031,0,9.11,3.811,9.11,8.515c0,4.703-4.079,8.517-9.11,8.517h3.226v6.032h6.453v6.032h-6.453
		v12.064h-3.202c1.426,0.5,2.89,0.713,4.304,1.284c5.493,2.214,10.532,4.695,15.219,7.386c1.389-0.798,2.928-1.383,4.679-1.383
		c5.031,0,9.11,3.813,9.11,8.517c0,0.732-0.261,1.387-0.446,2.065c0.138,0.114,0.318,0.202,0.454,0.316h4.729V14.898
		c-1.512-0.666-3.262-1.169-4.836-1.793c-0.266,4.48-4.151,8.064-9.012,8.064h3.226v6.032h6.453v6.032h-6.453v12.064h-3.226h-3.226
		V33.234h-6.456v-6.032h6.456V21.17h3.226c-5.032,0-9.111-3.814-9.111-8.517c0-1.892,0.789-3.549,1.903-4.962
		c-4.126-1.14-8.215-2.308-12.669-3.222C938.27,1.898,925.647,0.61,912.952,0.61c-12.679,0-24.298,1.558-34.865,4.662
		c2.83,1.446,4.826,4.153,4.826,7.38c0,4.703-4.081,8.517-9.111,8.517h3.226v6.032h6.454v6.032h-6.454v12.064h-3.226h-3.228V33.234
		h-6.455v-6.032h6.455V21.17h3.228c-5.031,0-9.11-3.814-9.11-8.517c0-0.857,0.269-1.635,0.521-2.417
		c-2.421,1.109-4.543,2.654-6.851,3.928c-0.788,3.954-4.326,7.005-8.786,7.005h3.228v6.032h6.454v6.032h-6.454v12.064h-3.228h-3.226
		V33.234h-6.453v-5.315c-6.805,7.275-11.463,15.514-13.76,24.813c4.646,0.39,8.325,3.926,8.325,8.37
		c0,4.704-4.079,8.515-9.111,8.515h3.229v6.032h6.453v6.034h-6.453v9.539c1.723,4.756,3.603,9.405,6.488,13.359
		c1.408,1.933,3.674,3.5,5.464,5.269c-0.004-0.104-0.064-0.193-0.064-0.302c0-4.702,4.079-8.515,9.108-8.515
		c5.032,0,9.111,3.813,9.111,8.515c0,4.443-3.679,7.977-8.322,8.368c0.083,0.056,0.191,0.096,0.276,0.149h2.162v1.175
		c3.598,2.124,6.998,4.331,11.316,6.143V124.1h6.455v-6.033h3.228c-5.031,0-9.11-3.813-9.11-8.518c0-4.702,4.079-8.515,9.11-8.515
		c5.03,0,9.111,3.813,9.111,8.515c0,4.705-4.081,8.518-9.111,8.518h3.226v6.033h6.454v6.032h-5.253
		c5.06,1.501,10.005,3.083,15.563,4.237c0.356,0.074,0.651,0.16,1.006,0.234v-4.472h-6.451V124.1h6.451v-6.033h3.228
		c-5.031,0-9.11-3.813-9.11-8.518c0-4.702,4.079-8.515,9.11-8.515c5.034,0,9.113,3.813,9.113,8.515c0,4.705-4.079,8.518-9.113,8.518
		h3.228v6.033h6.453v6.032h-6.453v5.979c5.405,1.208,10.904,2.399,15.844,3.698c0.745,0.195,1.207,0.708,1.926,0.935v-10.612h-6.451
		V124.1h6.451v-6.033h3.228c-5.031,0-9.111-3.813-9.111-8.518c0-4.702,4.08-8.515,9.111-8.515c5.032,0,9.111,3.813,9.111,8.515
		c0,4.705-4.079,8.518-9.111,8.518h3.226v6.033h6.455v6.032h-6.455v12.063h-3.226h-0.231c3.567,1.429,7.301,2.666,10.133,4.915
		c3.163,2.515,4.743,5.782,5.528,9.428c0.766-3.979,4.316-7.057,8.795-7.057c5.031,0,9.11,3.814,9.11,8.517
		c0,4.704-4.079,8.517-9.11,8.517h3.226v6.032h6.453v6.032h-6.453v12.064h-3.226h-3.226v-12.064h-6.454v-6.032h6.454v-6.032h3.226
		c-3.665,0-6.777-2.05-8.225-4.965c-0.252,4.051-1.362,7.484-3.661,10.066c-0.725,0.817-1.843,1.188-2.658,1.904v5.059h-6.455
		v12.064h-3.226h-3.228v-10.258c-1.834,0.442-3.785,0.838-6.003,1.131c-4.855,0.647-8.746,0.962-11.767,0.981v8.146h-3.228h-3.228
		v-8.731c-5.839-0.379-11.773-1.351-17.77-2.717v11.448h-3.226h-3.228v-12.064h-6.455v-3.115c-0.254-0.094-0.498-0.121-0.754-0.217
		c-1.429-0.537-2.705-1.372-4.108-1.961v5.293h-6.454v12.064h-3.228h-3.226v-12.064h-6.453v-6.032h6.453v-5.418
		c-4.217-2.401-8.101-5.435-12.061-8.327c-0.454,4.308-4.21,7.713-8.938,7.713h3.229v6.032h6.453v6.032h-6.453v12.064h-3.229h-2.258
		v7.714c0.741-0.183,1.458-0.426,2.258-0.426c5.032,0,9.111,3.812,9.111,8.516c0,0.842-0.269,1.605-0.512,2.372
		c2.958,0.935,5.761,1.999,8.688,2.961c-1.295-1.471-2.172-3.28-2.172-5.333c0-4.704,4.079-8.516,9.108-8.516
		c5.032,0,9.111,3.812,9.111,8.516c0,4.191-3.3,7.517-7.564,8.225c0.298,0.086,0.554,0.207,0.855,0.292h0.825v0.281
		c1.667,0.462,3.035,1.181,4.736,1.615c4.046,1.027,8.483,1.749,13.035,2.378v-4.274h3.228c-5.031,0-9.11-3.814-9.11-8.517
		c0-4.704,4.079-8.516,9.11-8.516c5.03,0,9.111,3.812,9.111,8.516c0,4.702-4.081,8.517-9.111,8.517h3.226v5.01
		c3.98,0.401,7.95,0.808,12.168,1.022h5.602v-6.032h3.228c-5.031,0-9.11-3.814-9.11-8.517c0-4.704,4.079-8.516,9.11-8.516
		c5.034,0,9.113,3.812,9.113,8.516c0,4.702-4.079,8.517-9.113,8.517h3.228v6.032h6.453v0.021c3.796-0.274,7.701-0.429,11.316-0.897
		v-5.155h3.228c-5.031,0-9.111-3.814-9.111-8.517c0-4.704,4.08-8.516,9.111-8.516c5.032,0,9.111,3.812,9.111,8.516
		c0,4.702-4.079,8.517-9.111,8.517h3.226v4.35c6.563-1.19,12.804-2.733,18.563-4.81c-3.822-1.015-6.675-4.161-6.675-8.057
		c0-4.704,4.079-8.516,9.111-8.516c5.031,0,9.11,3.812,9.11,8.516c0,1.189-0.269,2.319-0.739,3.349
		c2.27-1.164,4.662-2.188,6.779-3.52c0.102-4.62,4.106-8.345,9.074-8.345c0.568,0,1.063,0.208,1.604,0.301
		c6.393-5.809,11.229-12.391,14.705-19.653h-1.766v-6.032h4.054c0.767-2.201,1.616-4.362,2.135-6.69
		C988.133,164.575,985.81,161.544,985.81,157.998z M859.257,81.684h-6.454v12.064h-3.228h-3.226V81.684h-6.453v-6.034h6.453v-6.032
		h3.226c-5.029,0-9.108-3.811-9.108-8.515c0-4.705,4.079-8.517,9.108-8.517c5.032,0,9.111,3.813,9.111,8.517
		c0,4.704-4.079,8.515-9.111,8.515h3.228v6.032h6.454V81.684z M956.152,130.132h-6.453v12.063h-3.226h-3.226v-12.063h-6.454V124.1
		h6.454v-6.033h3.226c-5.032,0-9.111-3.813-9.111-8.518c0-4.702,4.079-8.515,9.111-8.515c5.031,0,9.11,3.813,9.11,8.515
		c0,4.705-4.079,8.518-9.11,8.518h3.226v6.033h6.453V130.132z M980.377,178.579h-6.453v12.064h-3.226h-3.226v-12.064h-6.456v-6.032
		h6.456v-6.032h3.226c-5.032,0-9.111-3.813-9.111-8.517c0-4.702,4.079-8.517,9.111-8.517c5.031,0,9.11,3.814,9.11,8.517
		c0,4.704-4.079,8.517-9.11,8.517h3.226v6.032h6.453V178.579z"/>
	<path fill="#4EA8CF" d="M975.952,109.784c-1.872-1.702-3.503-3.523-5.705-5.066c-2.714,0.245-4.908,2.23-4.908,4.831
		c0,2.769,2.4,5.008,5.359,5.008C973.558,114.557,975.8,112.424,975.952,109.784"/>
	<path fill="#4EA8CF" d="M969.762,56.457c2.15,1.366,4.171,2.808,6.136,4.287c-0.227-2.569-2.391-4.649-5.199-4.649
		C970.332,56.094,970.105,56.392,969.762,56.457"/>
	<path fill="#4EA8CF" d="M878.999,61.46c-0.002-0.099-0.055-0.171-0.055-0.27c0-0.144,0.067-0.267,0.071-0.409
		c-0.202-2.591-2.389-4.688-5.214-4.688c-2.961,0-5.357,2.242-5.357,5.008c0,2.764,2.396,5.008,5.357,5.008
		C876.61,66.11,878.772,64.032,878.999,61.46"/>
	<path fill="#4EA8CF" d="M849.575,104.541c-2.959,0-5.355,2.244-5.355,5.008c0,2.769,2.396,5.008,5.355,5.008
		c2.961,0,5.357-2.239,5.357-5.008C854.933,106.785,852.536,104.541,849.575,104.541"/>
	<path fill="#4EA8CF" d="M852.803,172.547h4.905c-1.662-0.727-3.281-1.539-4.905-2.341V172.547z"/>
	<path fill="#4EA8CF" d="M946.474,152.99c-2.959,0-5.357,2.242-5.357,5.008s2.398,5.01,5.357,5.01s5.357-2.244,5.357-5.01
		S949.433,152.99,946.474,152.99"/>
	<path fill="#A23351" d="M588.467,157.998c0-2.766-2.398-5.008-5.357-5.008c-2.957,0-5.357,2.242-5.357,5.008s2.4,5.01,5.357,5.01
		C586.068,163.008,588.467,160.764,588.467,157.998 M583.109,166.515c-5.031,0-9.11-3.813-9.11-8.517
		c0-4.702,4.079-8.517,9.11-8.517c5.032,0,9.111,3.814,9.111,8.517C592.221,162.702,588.142,166.515,583.109,166.515
		 M579.884,166.515h3.226h3.226v6.032h6.456v6.032h-6.456v12.064h-3.226h-3.226v-12.064h-6.453v-6.032h6.453V166.515z"/>
	<path fill="#4EA8CF" d="M208.285,245.088h3.925v17.135c0,2.981-0.338,5.349-1.012,7.102c-0.675,1.752-1.892,3.18-3.651,4.277
		c-1.76,1.1-4.07,1.649-6.929,1.649c-2.779,0-5.051-0.478-6.818-1.437c-1.767-0.958-3.028-2.343-3.783-4.156
		c-0.756-1.814-1.133-4.292-1.133-7.436v-17.135h3.924v17.115c0,2.576,0.239,4.475,0.718,5.693c0.478,1.222,1.301,2.163,2.468,2.823
		c1.166,0.66,2.592,0.991,4.278,0.991c2.886,0,4.943-0.654,6.17-1.962c1.227-1.308,1.841-3.824,1.841-7.546V245.088z"/>
	<path fill="#4EA8CF" d="M218.582,274.745v-29.657h3.925v14.708l14.728-14.708h5.32l-12.441,12.017l12.988,17.641h-5.179
		l-10.56-15.011l-4.855,4.734v10.276H218.582z"/>
	<path fill="#4EA8CF" d="M256.695,260.301c0-4.923,1.322-8.775,3.965-11.561c2.643-2.786,6.055-4.178,10.236-4.178
		c2.737,0,5.206,0.654,7.404,1.962c2.198,1.308,3.874,3.132,5.027,5.472c1.153,2.341,1.73,4.995,1.73,7.961
		c0,3.007-0.607,5.698-1.821,8.072s-2.934,4.171-5.159,5.392c-2.225,1.22-4.626,1.83-7.202,1.83c-2.792,0-5.288-0.675-7.485-2.022
		c-2.199-1.349-3.864-3.189-4.997-5.523C257.261,265.371,256.695,262.903,256.695,260.301z M260.741,260.362
		c0,3.573,0.961,6.389,2.882,8.446c1.922,2.057,4.332,3.084,7.232,3.084c2.954,0,5.384-1.039,7.293-3.115
		c1.908-2.076,2.862-5.024,2.862-8.84c0-2.415-0.408-4.521-1.224-6.323c-0.816-1.799-2.01-3.196-3.581-4.186
		c-1.572-0.993-3.335-1.488-5.291-1.488c-2.779,0-5.168,0.955-7.171,2.864C261.742,252.711,260.741,255.898,260.741,260.362z"/>
	<path fill="#4EA8CF" d="M293.008,274.745h-3.378v-29.657h3.642v10.581c1.537-1.93,3.5-2.894,5.887-2.894
		c1.321,0,2.572,0.267,3.753,0.799c1.18,0.533,2.15,1.281,2.913,2.247c0.761,0.964,1.358,2.126,1.79,3.488
		c0.431,1.363,0.647,2.819,0.647,4.37c0,3.682-0.91,6.527-2.731,8.537s-4.005,3.014-6.555,3.014c-2.536,0-4.525-1.059-5.968-3.176
		V274.745z M292.967,263.842c0,2.576,0.351,4.438,1.052,5.583c1.146,1.874,2.697,2.813,4.653,2.813c1.591,0,2.966-0.692,4.127-2.075
		c1.159-1.381,1.74-3.44,1.74-6.179c0-2.805-0.557-4.876-1.669-6.211c-1.113-1.335-2.458-2.003-4.036-2.003
		c-1.592,0-2.967,0.691-4.127,2.074C293.547,259.226,292.967,261.225,292.967,263.842z"/>
	<path fill="#4EA8CF" d="M311.235,268.332l3.601-0.566c0.202,1.444,0.765,2.55,1.689,3.318c0.923,0.769,2.215,1.153,3.874,1.153
		c1.671,0,2.913-0.341,3.722-1.022c0.809-0.681,1.214-1.479,1.214-2.396c0-0.822-0.358-1.47-1.072-1.942
		c-0.5-0.323-1.74-0.735-3.722-1.234c-2.67-0.675-4.521-1.258-5.553-1.751c-1.032-0.49-1.814-1.173-2.347-2.041
		c-0.533-0.871-0.799-1.832-0.799-2.884c0-0.958,0.219-1.845,0.658-2.659c0.438-0.816,1.035-1.495,1.791-2.034
		c0.566-0.417,1.338-0.772,2.316-1.063c0.978-0.289,2.026-0.435,3.146-0.435c1.686,0,3.166,0.243,4.44,0.729
		s2.215,1.144,2.822,1.972c0.607,0.831,1.024,1.94,1.254,3.329l-3.561,0.485c-0.162-1.105-0.63-1.97-1.406-2.59
		c-0.776-0.62-1.871-0.931-3.288-0.931c-1.672,0-2.866,0.276-3.581,0.83c-0.715,0.553-1.072,1.2-1.072,1.941
		c0,0.473,0.148,0.897,0.445,1.274c0.296,0.392,0.761,0.716,1.396,0.972c0.364,0.134,1.436,0.444,3.216,0.931
		c2.576,0.688,4.373,1.25,5.391,1.688c1.018,0.439,1.817,1.076,2.397,1.913c0.579,0.837,0.87,1.874,0.87,3.115
		c0,1.214-0.354,2.357-1.063,3.428c-0.708,1.074-1.729,1.902-3.064,2.49c-1.335,0.585-2.846,0.879-4.532,0.879
		c-2.792,0-4.919-0.579-6.382-1.739C312.573,272.331,311.64,270.611,311.235,268.332z"/>
	<path fill="#4EA8CF" d="M341.357,271.488l0.526,3.217c-1.025,0.215-1.942,0.323-2.751,0.323c-1.322,0-2.347-0.209-3.075-0.627
		c-0.728-0.417-1.241-0.967-1.537-1.649c-0.297-0.681-0.445-2.113-0.445-4.298v-12.36h-2.67v-2.833h2.67v-5.32l3.621-2.185v7.505
		h3.662v2.833h-3.662v12.563c0,1.039,0.063,1.707,0.192,2.003c0.128,0.296,0.336,0.533,0.627,0.708
		c0.29,0.175,0.705,0.263,1.244,0.263C340.164,271.63,340.696,271.582,341.357,271.488z"/>
	<path fill="#4EA8CF" d="M359.625,267.827l3.763,0.465c-0.594,2.198-1.693,3.904-3.298,5.118c-1.605,1.214-3.655,1.82-6.15,1.82
		c-3.143,0-5.634-0.967-7.475-2.901c-1.841-1.937-2.762-4.651-2.762-8.144c0-3.614,0.931-6.42,2.792-8.416
		c1.861-1.995,4.275-2.994,7.242-2.994c2.873,0,5.219,0.979,7.04,2.934s2.731,4.706,2.731,8.254c0,0.215-0.007,0.539-0.02,0.971
		h-16.022c0.134,2.359,0.802,4.168,2.003,5.422c1.2,1.254,2.697,1.882,4.491,1.882c1.335,0,2.475-0.352,3.419-1.053
		C358.323,270.484,359.072,269.364,359.625,267.827z M347.669,261.939h11.996c-0.162-1.808-0.621-3.163-1.375-4.065
		c-1.161-1.403-2.664-2.104-4.511-2.104c-1.673,0-3.079,0.56-4.218,1.68C348.42,258.568,347.791,260.065,347.669,261.939z"/>
	<path fill="#4EA8CF" d="M375.91,271.488l0.526,3.217c-1.025,0.215-1.942,0.323-2.751,0.323c-1.322,0-2.347-0.209-3.075-0.627
		c-0.729-0.417-1.242-0.967-1.538-1.649c-0.297-0.681-0.445-2.113-0.445-4.298v-12.36h-2.67v-2.833h2.67v-5.32l3.621-2.185v7.505
		h3.662v2.833h-3.662v12.563c0,1.039,0.063,1.707,0.192,2.003c0.128,0.296,0.336,0.533,0.627,0.708
		c0.29,0.175,0.705,0.263,1.244,0.263C374.717,271.63,375.249,271.582,375.91,271.488z"/>
	<path fill="#4EA8CF" d="M379.43,274.745v-21.484h3.277v3.258c0.836-1.525,1.608-2.529,2.316-3.015s1.487-0.729,2.336-0.729
		c1.227,0,2.475,0.392,3.743,1.174l-1.254,3.378c-0.89-0.525-1.78-0.789-2.67-0.789c-0.796,0-1.511,0.239-2.145,0.718
		c-0.635,0.479-1.086,1.144-1.355,1.993c-0.405,1.295-0.607,2.711-0.607,4.249v11.247H379.43z"/>
	<path fill="#4EA8CF" d="M393.288,249.275v-4.188h3.641v4.188H393.288z M393.288,274.745v-21.484h3.641v21.484H393.288z"/>
	<path fill="#4EA8CF" d="M416.492,266.876l3.581,0.465c-0.392,2.469-1.393,4.399-3.004,5.797c-1.612,1.395-3.591,2.093-5.938,2.093
		c-2.941,0-5.304-0.959-7.091-2.883c-1.788-1.92-2.68-4.676-2.68-8.264c0-2.318,0.384-4.35,1.153-6.089
		c0.769-1.74,1.938-3.046,3.51-3.914c1.57-0.871,3.28-1.306,5.128-1.306c2.333,0,4.241,0.591,5.725,1.77
		c1.483,1.181,2.434,2.856,2.853,5.028l-3.54,0.546c-0.338-1.443-0.935-2.528-1.791-3.257c-0.857-0.729-1.892-1.093-3.105-1.093
		c-1.834,0-3.325,0.658-4.471,1.972c-1.146,1.316-1.72,3.396-1.72,6.242c0,2.886,0.553,4.983,1.659,6.291
		c1.105,1.308,2.549,1.963,4.329,1.963c1.429,0,2.623-0.438,3.581-1.315C415.628,270.045,416.235,268.696,416.492,266.876z"/>
	<path fill="#4EA8CF" d="M433.829,265.217l3.702-0.323c0.175,1.484,0.583,2.701,1.224,3.65c0.64,0.953,1.635,1.722,2.984,2.307
		c1.348,0.588,2.865,0.881,4.552,0.881c1.497,0,2.818-0.223,3.965-0.668c1.146-0.445,1.999-1.056,2.559-1.832
		c0.559-0.773,0.839-1.62,0.839-2.537c0-0.931-0.271-1.744-0.809-2.439c-0.54-0.693-1.43-1.276-2.67-1.749
		c-0.796-0.311-2.557-0.792-5.28-1.447c-2.725-0.652-4.632-1.271-5.725-1.85c-1.416-0.741-2.472-1.663-3.166-2.763
		c-0.695-1.098-1.042-2.328-1.042-3.69c0-1.497,0.425-2.896,1.274-4.199c0.85-1.3,2.09-2.288,3.722-2.963
		c1.631-0.675,3.446-1.012,5.442-1.012c2.198,0,4.137,0.355,5.816,1.062c1.679,0.71,2.97,1.751,3.875,3.127
		c0.903,1.375,1.388,2.933,1.457,4.673l-3.763,0.283c-0.202-1.874-0.887-3.29-2.053-4.248c-1.167-0.959-2.89-1.437-5.168-1.437
		c-2.375,0-4.104,0.434-5.189,1.306c-1.086,0.868-1.628,1.918-1.628,3.145c0,1.065,0.384,1.942,1.153,2.63
		c0.755,0.688,2.727,1.393,5.917,2.115c3.189,0.721,5.377,1.352,6.565,1.891c1.726,0.796,3,1.804,3.823,3.023
		c0.822,1.221,1.234,2.628,1.234,4.219c0,1.578-0.453,3.064-1.355,4.462c-0.904,1.394-2.203,2.48-3.895,3.255
		c-1.693,0.776-3.598,1.164-5.715,1.164c-2.684,0-4.934-0.392-6.747-1.173c-1.814-0.782-3.237-1.959-4.269-3.529
		C434.426,268.977,433.882,267.199,433.829,265.217z"/>
	<path fill="#4EA8CF" d="M476.413,274.745v-3.155c-1.673,2.428-3.945,3.641-6.817,3.641c-1.268,0-2.452-0.242-3.551-0.728
		c-1.1-0.485-1.915-1.097-2.448-1.832c-0.533-0.733-0.908-1.635-1.123-2.7c-0.149-0.715-0.223-1.848-0.223-3.398v-13.312h3.642
		v11.916c0,1.901,0.073,3.184,0.222,3.844c0.229,0.958,0.715,1.708,1.457,2.257c0.741,0.544,1.659,0.818,2.751,0.818
		s2.117-0.28,3.075-0.841c0.957-0.56,1.635-1.32,2.033-2.284c0.397-0.966,0.597-2.365,0.597-4.198v-11.512h3.641v21.484H476.413z"/>
	<path fill="#4EA8CF" d="M485.334,274.745v-21.484h3.277v3.258c0.836-1.525,1.608-2.529,2.316-3.015
		c0.708-0.485,1.487-0.729,2.336-0.729c1.227,0,2.475,0.392,3.742,1.174l-1.254,3.378c-0.89-0.525-1.78-0.789-2.67-0.789
		c-0.796,0-1.511,0.239-2.145,0.718c-0.634,0.479-1.086,1.144-1.355,1.993c-0.404,1.295-0.607,2.711-0.607,4.249v11.247H485.334z"/>
	<path fill="#4EA8CF" d="M505.14,274.745l-8.173-21.484h3.844l4.612,12.867c0.498,1.388,0.956,2.832,1.376,4.329
		c0.323-1.133,0.775-2.496,1.355-4.087l4.773-13.109h3.743l-8.133,21.484H505.14z"/>
	<path fill="#4EA8CF" d="M534.595,267.827l3.763,0.465c-0.594,2.198-1.692,3.904-3.298,5.118s-3.654,1.82-6.149,1.82
		c-3.144,0-5.634-0.967-7.477-2.901c-1.839-1.937-2.76-4.651-2.76-8.144c0-3.614,0.931-6.42,2.791-8.416
		c1.861-1.995,4.276-2.994,7.243-2.994c2.872,0,5.219,0.979,7.04,2.934c1.82,1.955,2.73,4.706,2.73,8.254
		c0,0.215-0.007,0.539-0.021,0.971h-16.021c0.134,2.359,0.802,4.168,2.003,5.422c1.198,1.254,2.695,1.882,4.49,1.882
		c1.336,0,2.476-0.352,3.419-1.053C533.292,270.484,534.041,269.364,534.595,267.827z M522.639,261.939h11.996
		c-0.162-1.808-0.621-3.163-1.375-4.065c-1.161-1.403-2.663-2.104-4.512-2.104c-1.672,0-3.079,0.56-4.217,1.68
		C523.391,258.568,522.76,260.065,522.639,261.939z"/>
	<path fill="#4EA8CF" d="M542.949,249.275v-4.188h3.642v4.188H542.949z M542.949,274.745v-21.484h3.642v21.484H542.949z"/>
	<path fill="#4EA8CF" d="M552.053,274.745v-29.657h3.642v29.657H552.053z"/>
	<path fill="#4EA8CF" d="M561.258,274.745v-29.657h3.642v29.657H561.258z"/>
	<path fill="#4EA8CF" d="M584.563,272.096c-1.348,1.146-2.646,1.955-3.896,2.428c-1.246,0.472-2.585,0.707-4.015,0.707
		c-2.359,0-4.175-0.577-5.441-1.729c-1.268-1.154-1.901-2.628-1.901-4.421c0-1.052,0.238-2.012,0.717-2.884
		c0.48-0.868,1.107-1.566,1.883-2.093c0.774-0.526,1.648-0.923,2.619-1.193c0.716-0.189,1.793-0.372,3.237-0.547
		c2.94-0.351,5.104-0.769,6.493-1.254c0.014-0.498,0.021-0.816,0.021-0.951c0-1.483-0.344-2.528-1.031-3.135
		c-0.931-0.822-2.314-1.234-4.147-1.234c-1.712,0-2.978,0.3-3.792,0.899c-0.817,0.602-1.42,1.662-1.812,3.187l-3.561-0.485
		c0.323-1.524,0.856-2.755,1.598-3.69c0.741-0.938,1.813-1.659,3.217-2.167c1.403-0.504,3.027-0.758,4.875-0.758
		c1.834,0,3.325,0.216,4.472,0.647c1.146,0.433,1.989,0.975,2.528,1.63c0.539,0.652,0.918,1.479,1.133,2.477
		c0.121,0.62,0.183,1.74,0.183,3.358v4.855c0,3.386,0.077,5.526,0.233,6.424c0.154,0.896,0.461,1.757,0.919,2.578h-3.803
		C584.914,273.989,584.671,273.106,584.563,272.096z M584.259,263.963c-1.322,0.539-3.305,0.999-5.947,1.376
		c-1.497,0.215-2.557,0.458-3.176,0.728c-0.62,0.271-1.101,0.664-1.437,1.183c-0.337,0.521-0.506,1.097-0.506,1.73
		c0,0.972,0.368,1.78,1.104,2.428c0.733,0.647,1.81,0.972,3.226,0.972c1.403,0,2.65-0.308,3.742-0.922
		c1.093-0.612,1.895-1.453,2.408-2.518c0.392-0.822,0.586-2.036,0.586-3.642V263.963z"/>
	<path fill="#4EA8CF" d="M593.585,274.745v-21.484h3.277v3.056c1.578-2.36,3.856-3.541,6.838-3.541c1.295,0,2.484,0.232,3.571,0.699
		c1.085,0.463,1.898,1.074,2.437,1.83c0.539,0.756,0.918,1.651,1.134,2.69c0.134,0.675,0.202,1.854,0.202,3.54v13.21h-3.642v-13.068
		c0-1.484-0.142-2.593-0.425-3.329c-0.283-0.733-0.785-1.32-1.508-1.758c-0.722-0.439-1.567-0.658-2.538-0.658
		c-1.551,0-2.89,0.493-4.017,1.477c-1.126,0.984-1.688,2.853-1.688,5.604v11.733H593.585z"/>
	<path fill="#4EA8CF" d="M630.646,266.876l3.581,0.465c-0.392,2.469-1.393,4.399-3.004,5.797c-1.612,1.395-3.592,2.093-5.938,2.093
		c-2.94,0-5.304-0.959-7.089-2.883c-1.788-1.92-2.682-4.676-2.682-8.264c0-2.318,0.384-4.35,1.153-6.089
		c0.769-1.74,1.938-3.046,3.511-3.914c1.57-0.871,3.278-1.306,5.127-1.306c2.334,0,4.241,0.591,5.726,1.77
		c1.483,1.181,2.435,2.856,2.853,5.028l-3.541,0.546c-0.336-1.443-0.934-2.528-1.789-3.257c-0.857-0.729-1.893-1.093-3.106-1.093
		c-1.833,0-3.325,0.658-4.471,1.972c-1.146,1.316-1.72,3.396-1.72,6.242c0,2.886,0.554,4.983,1.659,6.291s2.549,1.963,4.329,1.963
		c1.429,0,2.622-0.438,3.581-1.315C629.784,270.045,630.391,268.696,630.646,266.876z"/>
	<path fill="#4EA8CF" d="M652.05,267.827l3.763,0.465c-0.594,2.198-1.691,3.904-3.298,5.118c-1.605,1.214-3.653,1.82-6.149,1.82
		c-3.143,0-5.633-0.967-7.476-2.901c-1.84-1.937-2.761-4.651-2.761-8.144c0-3.614,0.931-6.42,2.792-8.416
		c1.861-1.995,4.275-2.994,7.242-2.994c2.872,0,5.219,0.979,7.04,2.934c1.82,1.955,2.73,4.706,2.73,8.254
		c0,0.215-0.007,0.539-0.02,0.971h-16.022c0.135,2.359,0.802,4.168,2.003,5.422s2.698,1.882,4.491,1.882
		c1.335,0,2.476-0.352,3.419-1.053C650.748,270.484,651.496,269.364,652.05,267.827z M640.094,261.939h11.996
		c-0.161-1.808-0.619-3.163-1.375-4.065c-1.161-1.403-2.663-2.104-4.512-2.104c-1.672,0-3.078,0.56-4.217,1.68
		C640.846,258.568,640.215,260.065,640.094,261.939z"/>
	<path fill="#4EA8CF" d="M671.025,265.217l3.702-0.323c0.175,1.484,0.583,2.701,1.223,3.65c0.643,0.953,1.638,1.722,2.985,2.307
		c1.348,0.588,2.865,0.881,4.552,0.881c1.497,0,2.819-0.223,3.965-0.668s1.999-1.056,2.561-1.832
		c0.559-0.773,0.838-1.62,0.838-2.537c0-0.931-0.27-1.744-0.809-2.439c-0.539-0.693-1.429-1.276-2.671-1.749
		c-0.796-0.311-2.556-0.792-5.279-1.447c-2.724-0.652-4.633-1.271-5.726-1.85c-1.416-0.741-2.472-1.663-3.167-2.763
		c-0.693-1.098-1.041-2.328-1.041-3.69c0-1.497,0.425-2.896,1.274-4.199c0.85-1.3,2.092-2.288,3.723-2.963s3.446-1.012,5.441-1.012
		c2.198,0,4.139,0.355,5.815,1.062c1.681,0.71,2.973,1.751,3.875,3.127c0.903,1.375,1.389,2.933,1.457,4.673l-3.763,0.283
		c-0.203-1.874-0.887-3.29-2.055-4.248c-1.166-0.959-2.889-1.437-5.168-1.437c-2.374,0-4.103,0.434-5.189,1.306
		c-1.085,0.868-1.628,1.918-1.628,3.145c0,1.065,0.385,1.942,1.153,2.63c0.756,0.688,2.728,1.393,5.918,2.115
		c3.189,0.721,5.378,1.352,6.563,1.891c1.728,0.796,3.002,1.804,3.824,3.023c0.821,1.221,1.233,2.628,1.233,4.219
		c0,1.578-0.452,3.064-1.355,4.462c-0.902,1.394-2.201,2.48-3.895,3.255c-1.692,0.776-3.598,1.164-5.715,1.164
		c-2.683,0-4.932-0.392-6.747-1.173c-1.813-0.782-3.237-1.959-4.267-3.529C671.621,268.977,671.079,267.199,671.025,265.217z"/>
	<path fill="#4EA8CF" d="M699.368,283.02l-0.405-3.419c0.797,0.215,1.49,0.323,2.084,0.323c0.81,0,1.457-0.134,1.942-0.404
		s0.883-0.647,1.193-1.133c0.229-0.364,0.6-1.267,1.112-2.711c0.068-0.202,0.175-0.498,0.324-0.89l-8.153-21.525h3.925l4.471,12.442
		c0.58,1.577,1.101,3.236,1.558,4.977c0.418-1.672,0.918-3.306,1.497-4.896l4.593-12.522h3.642l-8.173,21.849
		c-0.878,2.359-1.559,3.985-2.044,4.876c-0.647,1.2-1.389,2.08-2.225,2.639c-0.837,0.562-1.834,0.841-2.994,0.841
		C701.014,283.465,700.23,283.315,699.368,283.02z"/>
	<path fill="#4EA8CF" d="M718.789,268.332l3.601-0.566c0.202,1.444,0.765,2.55,1.69,3.318c0.923,0.769,2.214,1.153,3.873,1.153
		c1.671,0,2.913-0.341,3.722-1.022c0.81-0.681,1.214-1.479,1.214-2.396c0-0.822-0.356-1.47-1.072-1.942
		c-0.498-0.323-1.739-0.735-3.722-1.234c-2.671-0.675-4.522-1.258-5.553-1.751c-1.033-0.49-1.815-1.173-2.347-2.041
		c-0.533-0.871-0.8-1.832-0.8-2.884c0-0.958,0.219-1.845,0.656-2.659c0.439-0.816,1.036-1.495,1.792-2.034
		c0.566-0.417,1.339-0.772,2.316-1.063c0.977-0.289,2.025-0.435,3.146-0.435c1.687,0,3.167,0.243,4.439,0.729
		c1.276,0.485,2.216,1.144,2.823,1.972c0.606,0.831,1.024,1.94,1.254,3.329l-3.561,0.485c-0.162-1.105-0.631-1.97-1.407-2.59
		c-0.773-0.62-1.87-0.931-3.286-0.931c-1.672,0-2.865,0.276-3.581,0.83c-0.715,0.553-1.072,1.2-1.072,1.941
		c0,0.473,0.149,0.897,0.445,1.274c0.296,0.392,0.762,0.716,1.396,0.972c0.363,0.134,1.436,0.444,3.216,0.931
		c2.577,0.688,4.374,1.25,5.391,1.688c1.019,0.439,1.819,1.076,2.398,1.913s0.87,1.874,0.87,3.115c0,1.214-0.355,2.357-1.062,3.428
		c-0.71,1.074-1.73,1.902-3.065,2.49c-1.336,0.585-2.846,0.879-4.532,0.879c-2.791,0-4.919-0.579-6.383-1.739
		C720.128,272.331,719.193,270.611,718.789,268.332z"/>
	<path fill="#4EA8CF" d="M748.911,271.488l0.526,3.217c-1.024,0.215-1.942,0.323-2.752,0.323c-1.322,0-2.347-0.209-3.075-0.627
		c-0.728-0.417-1.241-0.967-1.537-1.649c-0.296-0.681-0.445-2.113-0.445-4.298v-12.36h-2.67v-2.833h2.67v-5.32l3.621-2.185v7.505
		h3.662v2.833h-3.662v12.563c0,1.039,0.064,1.707,0.193,2.003c0.127,0.296,0.337,0.533,0.625,0.708
		c0.291,0.175,0.707,0.263,1.245,0.263C747.718,271.63,748.251,271.582,748.911,271.488z"/>
	<path fill="#4EA8CF" d="M767.179,267.827l3.763,0.465c-0.594,2.198-1.691,3.904-3.298,5.118c-1.605,1.214-3.653,1.82-6.149,1.82
		c-3.143,0-5.635-0.967-7.474-2.901c-1.843-1.937-2.763-4.651-2.763-8.144c0-3.614,0.931-6.42,2.792-8.416
		c1.861-1.995,4.275-2.994,7.242-2.994c2.872,0,5.219,0.979,7.04,2.934c1.82,1.955,2.73,4.706,2.73,8.254
		c0,0.215-0.007,0.539-0.02,0.971h-16.022c0.135,2.359,0.802,4.168,2.003,5.422s2.698,1.882,4.491,1.882
		c1.335,0,2.476-0.352,3.419-1.053C765.877,270.484,766.625,269.364,767.179,267.827z M755.223,261.939h11.997
		c-0.162-1.808-0.62-3.163-1.376-4.065c-1.161-1.403-2.663-2.104-4.512-2.104c-1.672,0-3.078,0.56-4.219,1.68
		C755.975,258.568,755.345,260.065,755.223,261.939z"/>
	<path fill="#4EA8CF" d="M775.514,274.745v-21.484h3.257v3.015c0.675-1.052,1.57-1.897,2.69-2.54c1.12-0.64,2.395-0.96,3.823-0.96
		c1.591,0,2.896,0.331,3.914,0.991c1.019,0.66,1.738,1.586,2.155,2.771c1.699-2.508,3.912-3.763,6.636-3.763
		c2.131,0,3.77,0.591,4.916,1.77c1.146,1.181,1.719,2.998,1.719,5.453v14.747h-3.621v-13.533c0-1.457-0.117-2.505-0.354-3.147
		c-0.235-0.64-0.664-1.154-1.284-1.546c-0.619-0.392-1.348-0.587-2.185-0.587c-1.51,0-2.764,0.502-3.763,1.508
		c-0.998,1.004-1.497,2.611-1.497,4.824v12.481h-3.642v-13.958c0-1.619-0.296-2.833-0.89-3.642c-0.594-0.81-1.565-1.214-2.913-1.214
		c-1.024,0-1.972,0.271-2.844,0.81c-0.868,0.538-1.498,1.327-1.891,2.366c-0.392,1.039-0.586,2.536-0.586,4.491v11.146H775.514z"/>
	<rect y="259.663" fill="#4EA8CF" width="178.499" height="3.767"/>
	<rect x="814.423" y="259.663" fill="#4EA8CF" width="178.499" height="3.767"/>
</g>
</svg>
