<svg xmlns="http://www.w3.org/2000/svg" width="788.524" height="283.465" viewBox="-285.391 0 788.524 283.465"><g fill="#29338A"><path d="M-128.339 132.611c-1.507 0-4.111-.081-7.802-.269-3.694-.173-5.789-.979-6.29-2.397-.507-1.252-.424-3.021.253-5.337.667-2.31 1.087-3.911 1.257-4.799L-109.961 0h-42.541c-.167 0-4.49 3.972-12.959 11.9-8.476 7.936-18.083 17.155-28.819 27.669-13.258 13.018-23.327 23.444-30.207 31.284-7.887 9.086-16.947 20.413-27.182 33.954a1111.785 1111.785 0 0 0-23.656 32.08 966.584 966.584 0 0 1-10.066 14.174h87.406l-12.146 47.322h50.59c1.17-8.074 2.347-14.16 3.524-18.291 3.524-12.731 8.387-20.972 14.597-24.734 3.188-1.789 6.838-2.96 10.951-3.498 4.108-.537 8.431-.803 12.961-.803h2.771l5.28-18.449h-18.881v.003zm-45.423-75.925c-.757 2.851-1.309 4.986-1.641 6.412l-17.847 69.517h-48.345c-2.517 0-4.366-.807-5.537-2.405-.843-1.244 1.006-5.17 5.537-11.766 5.368-7.84 14.095-18.889 26.175-33.151 7.888-9.269 15.942-17.997 24.163-26.198 9.227-9.089 14.601-13.279 16.107-12.565 1.673.711 2.518 2.137 2.518 4.276 0 1.064-.38 3.027-1.13 5.88zM54.378 10.262L41.072 67.9H22.401c.43-1.793.822-3.812 1.176-6.054.359-2.242.54-5.082.54-8.52 0-7.922-1.286-14.132-3.86-18.616-3.577-6.274-9.585-9.421-18.027-9.421-10.875 0-22.393 7.462-34.555 22.382C-45.06 63.334-51.424 79.228-51.424 95.34c0 12.232 2.965 21.858 8.905 28.864 5.933 7.021 13.628 10.521 23.072 10.521 7.724 0 17.173-3.996 28.329-11.996 3.72-2.666 8.586-6.744 14.595-12.222l18.671 12.487c-2.72 2.677-5.367 5.28-7.945 7.812-7.156 6.249-14.876 11.158-23.176 14.727-12.164 5.351-24.752 8.024-37.772 8.024-18.885 0-34.631-4.923-47.216-14.775-14.021-11.045-21.031-26.27-21.031-45.678 0-26.124 10.871-47.396 32.621-63.816 20.6-15.524 45.929-23.29 75.971-23.29 6.866 0 15.594.672 26.183 2.016 3.579.455 8.441 1.205 14.595 2.248zM189.587 132.711c-4.584 4.484-8.438 7.773-11.586 9.866-9.874 6.73-19.465 10.09-28.763 10.09-11.733 0-17.951-9.379-18.662-28.144-.729-18.761-3.438-28.144-8.165-28.144-5.581 0-11.874 4.711-18.878 14.132-4.866 6.574-10.021 15.398-15.456 26.457-2.146 4.788-4.295 9.569-6.442 14.351H52.661l32.41-142.85h34.765l-17.813 75.353c-.716 3.289-1.068 5.379-1.068 6.273 0 1.202.287 1.797.858 1.797 8.155-8.969 16.029-16.742 23.607-23.32 8.297-7.323 15.519-10.991 21.679-10.991 10.585 0 16.169 11.211 16.735 33.643.572 22.422 2.935 34.386 7.087 35.882 1.139.301 2.002.449 2.574.449 2.717 0 5.793-1.047 9.23-3.141.566-.297 1.358-.82 2.362-1.57l4.5 9.867zM264.271 138.316c-5.723 3.14-10.369 5.456-13.955 6.949-11.013 4.788-19.96 7.175-26.824 7.175-7.444 0-14.055-3.027-19.851-9.081-5.789-6.055-8.689-12.969-8.689-20.745 0-10.316 2.43-23.918 7.296-40.815 1.577-5.527 3.996-12.929 7.3-22.198h34.127l-12.448 51.127c-.425 2.098-.647 4.343-.647 6.733 0 4.032.753 7.547 2.256 10.535 1.5 2.992 3.756 4.488 6.759 4.488 3.147 0 7.158-1.27 12.017-3.813 1.577-.75 3.721-2.02 6.437-3.813l6.222 13.458zm-8.159-117.281c0 6.875-2.352 12.555-7.076 17.042-4.729 4.481-10.666 6.723-17.82 6.723-4.866 0-9.266-1.758-13.191-5.27-3.943-3.512-5.909-7.812-5.909-12.894 0-5.683 2.476-10.723 7.398-15.14 4.943-4.41 10.56-6.613 16.848-6.613 5.156 0 9.732 1.493 13.735 4.481 4.014 3 6.015 6.882 6.015 11.671zM349.677 133.609c-5.142 4.335-9.432 7.55-12.869 9.644-10.589 6.426-20.742 9.637-30.471 9.637-9.885 0-17.891-2.468-24.052-7.395-7.15-5.676-10.723-13.979-10.723-24.894 0-5.23.502-10.238 1.507-15.022.283-1.192 1.566-6.129 3.861-14.801L300.095 6.68h34.559l-24.246 96.656c-.572 2.542-1.146 5.566-1.719 9.081-.572 3.52-.862 6.617-.862 9.305 0 4.039.721 7.289 2.149 9.757 1.43 2.469 3.862 3.699 7.3 3.699 4.148 0 9.082-2.609 14.811-7.847 1.854-1.648 4.29-4.262 7.296-7.852l10.294 14.13zM503.133 137.418c-5.012 3.338-9.011 5.85-12.024 7.519-9.432 5.156-17.162 7.73-23.175 7.73-9.148 0-15.953-3.459-20.381-10.387a3758.391 3758.391 0 0 1-8.59-22.803c-9.298 8.526-18.669 16.002-28.119 22.428-10.588 7.172-19.67 10.759-27.248 10.759-7.731 0-14.489-3.551-20.282-10.648-5.793-7.099-8.692-14.984-8.692-23.659 0-12.711 3.936-24.37 11.805-34.987 5.58-7.473 12.88-14.047 21.897-19.733 6.567-4.184 10.508-6.277 11.798-6.277l50.643 11.438 16.103-60.549h35.198l-22.754 93.965a202.804 202.804 0 0 0-2.037 8.406c-.644 2.918-.969 5.422-.969 7.512 0 4.636 1.648 8.151 4.934 10.542 1.581 1.047 3.66 1.57 6.228 1.57 3.006 0 6.295-.598 9.87-1.797 1.143-.293 2.717-.969 4.729-2.012l1.066 10.983zm-57.517-58.979c-.432-.445-1.577-.668-3.438-.668-9.152 0-19.03 2.914-29.615 8.745-13.735 7.477-20.597 16.969-20.597 28.477 0 4.636 1.182 8.042 3.54 10.206 2.353 2.168 5.394 3.25 9.121 3.25 4.007 0 8.269-1.082 12.773-3.25 4.506-2.164 8.113-4.824 10.833-7.961 5.152-5.824 9.445-12.335 12.883-19.507 3.427-7.183 5.143-12.64 5.143-16.378 0-1.195-.209-2.164-.643-2.914z"/></g><g fill="#B20933"><path d="M-119.979 215.627c0-.962-.412-1.237-1.756-1.438v-.492h16.319c0 1.694.067 3.409.205 5.1h-.688c-.412-2.758-1.583-3.169-3.096-3.169h-7.609v8.061h4.99c1.551-.106 1.963-.351 2.134-1.932h.688c-.103 1.136-.207 2.002-.207 2.791 0 .997.104 1.856.207 2.991h-.688c-.175-1.584-.587-1.824-2.134-1.924h-4.99v8.194c0 .962.414 1.237 1.756 1.439v.48c-.723 0-2.136-.205-3.443-.205s-2.72.205-3.444.205v-.48c1.344-.205 1.756-.481 1.756-1.439v-18.182zM-95.649 219.139c5.197 0 8.124 4.197 8.124 8.473 0 5.439-3.614 8.467-8.366 8.467-4.82 0-8.091-3.579-8.091-8.572-.001-4.786 3.512-8.368 8.333-8.368zm.238 15.012c3.338 0 4.921-2.928 4.921-5.892 0-3.027-1.375-7.193-5.301-7.193-2.27 0-5.232 1.514-5.232 5.821.003 3.508 1.793 7.264 5.612 7.264zM-83.337 222.51c0-1.167-.412-1.479-1.583-1.549v-.276c1.514-.445 3.407-1.1 4.647-1.553-.069.768-.106 1.932-.106 3.105v9.464c0 1.067.621 2.234 2.446 2.234 2.994 0 4.576-2.681 4.576-7.023v-4.406c0-1.167-.412-1.479-1.583-1.549v-.276c1.515-.445 3.409-1.1 4.647-1.552-.069.768-.104 1.931-.104 3.104v11.395c0 1.029.274 1.475 1.586 1.609v.481c-.656-.064-1.586-.206-2.376-.206-.587 0-1.756.142-2.375.206.069-.683.205-1.476.205-2.232v-.965h-.067c-.826 2.235-2.55 3.547-5.061 3.547-2.237 0-4.852-1.276-4.852-4.993v-8.565zM-64.452 222.51c0-1.167-.412-1.479-1.581-1.549v-.276c1.513-.445 3.407-1.1 4.645-1.553-.069.768-.101 1.932-.101 3.105h.069c.898-1.69 2.582-2.759 4.269-2.759.688 0 1.064.142 1.344.276.069.757.138 1.69.138 2.893-.829-.481-1.239-.831-2.238-.831-2.17 0-3.577 1.994-3.577 4.236v7.891c0 .827.895 1.209 1.856 1.305v.48c-1.169-.095-2.099-.205-3.338-.205-1.238 0-2.169.106-3.338.205v-.48c.964-.096 1.858-.481 1.858-1.305V222.51h-.006zM-28.281 233.423c-1.825 1.79-4.682 2.652-7.609 2.652-4.476 0-10.64-3.303-10.64-11.362 0-8.367 7.298-11.561 12.118-11.561 1.756 0 3.646.304 5.232 1.061.032 1.726.17 3.444.345 5.17h-.482c-.688-3.133-3.614-4.102-6.026-4.102-4.576 0-8.021 3.274-8.021 8.296 0 5.305 3.752 10.157 8.604 10.157 2.376 0 4.683-.962 6.61-2.235l-.131 1.924zM-17.518 219.139c5.201 0 8.122 4.197 8.122 8.473 0 5.439-3.614 8.467-8.365 8.467-4.82 0-8.09-3.579-8.09-8.572 0-4.786 3.513-8.368 8.333-8.368zm.239 15.012c3.338 0 4.921-2.928 4.921-5.892 0-3.027-1.375-7.193-5.301-7.193-2.271 0-5.234 1.514-5.234 5.821.004 3.508 1.793 7.264 5.614 7.264zM-5.205 222.51c0-1.167-.414-1.479-1.583-1.549v-.276c1.514-.445 3.407-1.1 4.645-1.553-.069.768-.101 1.932-.101 3.105v9.464c0 1.067.619 2.234 2.443 2.234 2.996 0 4.578-2.681 4.578-7.023v-4.406c0-1.167-.412-1.479-1.583-1.549v-.276c1.514-.445 3.407-1.1 4.647-1.552-.069.768-.106 1.931-.106 3.104v11.395c0 1.029.276 1.475 1.586 1.609v.481c-.654-.064-1.586-.206-2.375-.206-.587 0-1.756.142-2.377.206.069-.683.207-1.476.207-2.232v-.965h-.067c-.826 2.235-2.546 3.547-5.059 3.547-2.238 0-4.852-1.276-4.852-4.993v-8.565h-.003zM13.68 222.51c0-1.167-.412-1.479-1.583-1.549v-.276c1.514-.445 3.407-1.1 4.647-1.553a35.714 35.714 0 0 0-.106 2.763h.069c.898-1.69 2.55-2.763 4.408-2.763 3.305 0 5.508 1.932 5.508 6.065v8.438c0 1.028.274 1.475 1.586 1.608v.481c-.656-.063-1.586-.205-2.376-.205-.587 0-1.756.142-2.375.205.069-.683.205-1.475.205-2.231v-8.849c0-2.546-1.307-3.374-2.924-3.374-2.271 0-4.097 2.002-4.097 4.92v7.752c0 .827.898 1.209 1.862 1.305v.48c-1.168-.095-2.101-.205-3.338-.205-1.239 0-2.169.106-3.338.205v-.48c.962-.096 1.856-.481 1.856-1.305V222.51h-.004zM30.332 219.482h2.237v-2.716c1.309-.453 2.272-1.345 2.96-2.278v4.994h4.682v1.726h-4.682v10.256c0 1.588.274 2.893 1.86 2.893 1.064 0 2.065-.378 2.96-1.029l-.31 1.96c-1.031.48-2.132.792-3.27.792-3.131 0-4.201-1.344-4.201-4.304v-10.567h-2.237v-1.727zM43.991 222.375c0-.863-.377-1.068-1.514-1.309-.17-.035-.345-.07-.552-.103v-.275c1.79-.446 3.545-.998 5.201-1.549-.069 1.103-.173 2.372-.173 3.479v11.324c0 .827.895 1.209 1.862 1.305v.48c-1.17-.095-2.101-.205-3.338-.205-1.24 0-2.17.106-3.34.205v-.48c.964-.096 1.858-.481 1.858-1.305v-11.568h-.004zm1.549-9.606a2 2 0 0 1 0 4 2 2 0 0 1 0-4zM54.518 226.99c-.032 3.926 2.65 6.744 6.645 6.744 1.758 0 2.789-.312 5.577-2.271l-.239 2.235c-1.655 1.485-4.095 2.376-7.057 2.376-4.82 0-8.091-3.579-8.091-8.572 0-4.781 3.513-8.371 8.333-8.371 5.232 0 7.848 3.105 7.848 7.854H54.518v.005zm9.64-1.723c0-2.648-1.724-4.406-4.444-4.406-2.582 0-4.714 1.893-4.99 4.406h9.434zM70.38 231.294h.412c1.206 2.582 3.27 3.063 5.473 3.063 2.617 0 3.995-1.104 3.995-2.617 0-1.789-.859-2.101-4.923-2.928-3.238-.654-5.059-2.033-5.059-4.478 0-3.063 2.651-5.202 7.091-5.202 1.514 0 3.027.418 4.513.661v3.852H81.4c-.625-1.86-2.274-2.786-4.237-2.786-2.478 0-4.132 1.032-4.132 2.857 0 1.619 1.48 2.029 4.475 2.581 3.618.683 5.301 1.62 5.301 4.647 0 3.232-2.65 5.128-7.163 5.128-1.722 0-3.477-.41-4.99-1.203l-.274-3.575zM102.313 213.696c8.742 0 13.389 4.275 13.389 10.783 0 6.574-5.61 11.048-12.429 11.048H94.15v-.481c1.339-.205 1.752-.48 1.752-1.442v-17.973c0-.962-.414-1.237-1.752-1.439v-.495h8.163zm-3.03 19.903h4.82c3.512 0 8.226-3.168 8.226-8.473 0-3.919-1.892-9.5-11.326-9.5h-1.724v17.973h.004zM120.159 220.104c1.651-.693 3.44-.973 5.198-.973 3.756 0 6.508 1.588 6.508 5.991v8.127c0 1.139.134 1.931 1.414 1.994v.481c-.722-.063-1.414-.205-2.136-.205-.658 0-1.344.142-2.03.205v-3.265h-.074c-1.171 2.508-2.995 3.614-5.747 3.614-2.995 0-5.057-1.552-5.057-4.646 0-2.79 1.824-4.442 5.333-4.923l4.855-.65c.654-.106.689-.729.689-1.21 0-2.44-1.344-3.579-3.756-3.579-2.306 0-3.961.796-5.028 2.79h-.375l.206-3.751zm4.441 8.095c-2.412.407-3.405 1.408-3.405 3.063 0 1.885 1.305 2.681 3.095 2.681 3.274 0 4.646-3.474 4.646-5.814v-.689l-4.336.759zM134.708 219.482h2.235v-2.716c1.309-.453 2.277-1.345 2.96-2.278v4.994h4.683v1.726h-4.683v10.256c0 1.588.275 2.893 1.863 2.893 1.068 0 2.063-.378 2.957-1.029l-.312 1.96c-1.032.48-2.133.792-3.268.792-3.134 0-4.201-1.344-4.201-4.304v-10.567h-2.235v-1.727zM148.333 220.104c1.651-.693 3.441-.973 5.202-.973 3.749 0 6.5 1.588 6.5 5.991v8.127c0 1.139.142 1.931 1.419 1.994v.481c-.726-.063-1.419-.205-2.14-.205-.651 0-1.341.142-2.03.205v-3.265h-.07c-1.171 2.508-2.996 3.614-5.751 3.614-2.991 0-5.057-1.552-5.057-4.646 0-2.79 1.824-4.442 5.333-4.923l4.858-.65c.654-.106.687-.729.687-1.21 0-2.44-1.344-3.579-3.749-3.579-2.313 0-3.964.796-5.032 2.79h-.378l.208-3.751zm4.439 8.095c-2.412.407-3.405 1.408-3.405 3.063 0 1.885 1.305 2.681 3.094 2.681 3.271 0 4.647-3.474 4.647-5.814v-.689l-4.336.759zM165.118 213.633c0-.792-.311-.969-1.237-1.237-.237-.074-.484-.106-.796-.178v-.275c1.62-.445 3.926-1.068 5.167-1.549-.074 1.616-.174 3.239-.174 4.852v6.613h.1c1.344-1.828 3.479-2.727 5.651-2.727 4.024 0 7.639 2.964 7.639 8.233 0 4.371-3.13 8.707-8.155 8.707-2.582 0-4.788-.687-6.337-2.342l-1.655 1.995h-.446c.071-.962.241-1.959.241-2.921v-19.172h.002zm8.229 7.642c-3.405 0-5.266 2.546-5.266 6.433 0 4.445 1.786 6.443 4.82 6.443 3.614 0 5.403-3.204 5.403-6.443.001-4.576-2.344-6.433-4.957-6.433zM186.072 220.104c1.651-.693 3.441-.973 5.198-.973 3.756 0 6.508 1.588 6.508 5.991v8.127c0 1.139.134 1.931 1.414 1.994v.481c-.725-.063-1.414-.205-2.136-.205-.658 0-1.344.142-2.03.205v-3.265h-.074c-1.17 2.508-2.995 3.614-5.747 3.614-2.995 0-5.057-1.552-5.057-4.646 0-2.79 1.825-4.442 5.333-4.923l4.855-.65c.654-.106.689-.729.689-1.21 0-2.44-1.344-3.579-3.756-3.579-2.309 0-3.961.796-5.028 2.79h-.375l.206-3.751zm4.441 8.095c-2.411.407-3.405 1.408-3.405 3.063 0 1.885 1.305 2.681 3.095 2.681 3.271 0 4.646-3.474 4.646-5.814v-.689l-4.336.759zM201.244 231.294h.41c1.209 2.582 3.271 3.063 5.475 3.063 2.62 0 3.996-1.104 3.996-2.617 0-1.789-.856-2.101-4.923-2.928-3.236-.654-5.058-2.033-5.058-4.478 0-3.063 2.652-5.202 7.095-5.202 1.514 0 3.027.418 4.509.661v3.852h-.484c-.622-1.86-2.271-2.786-4.237-2.786-2.479 0-4.13 1.032-4.13 2.857 0 1.619 1.481 2.029 4.477 2.581 3.614.683 5.302 1.62 5.302 4.647 0 3.232-2.649 5.128-7.161 5.128-1.727 0-3.48-.41-4.994-1.203l-.277-3.575zM219.308 226.99c-.039 3.926 2.648 6.744 6.642 6.744 1.754 0 2.79-.312 5.58-2.271l-.24 2.235c-1.655 1.485-4.103 2.376-7.059 2.376-4.82 0-8.085-3.579-8.085-8.572 0-4.781 3.509-8.371 8.325-8.371 5.233 0 7.851 3.105 7.851 7.854h-13.014v.005zm9.637-1.723c0-2.648-1.723-4.406-4.445-4.406-2.582 0-4.718 1.893-4.986 4.406h9.431zM251.716 219.139c5.198 0 8.127 4.197 8.127 8.473 0 5.439-3.614 8.467-8.367 8.467-4.824 0-8.088-3.579-8.088-8.572.003-4.786 3.512-8.368 8.328-8.368zm.247 15.012c3.339 0 4.923-2.928 4.923-5.892 0-3.027-1.383-7.193-5.308-7.193-2.271 0-5.23 1.514-5.23 5.821 0 3.508 1.789 7.264 5.615 7.264zM264.031 221.208h-1.96v-.898c1.755-.205 2.034-.48 2.034-2.818 0-5.715 3.992-6.472 5.092-6.472.69 0 1.345.07 2.034.17l.142 2.482h-.351c-.138-.622-.895-.934-1.479-.934-1.86 0-2.55 1.45-2.55 2.617v4.134h3.791v1.726h-3.791v12.729c0 .827.898 1.209 1.86 1.305v.48c-1.167-.095-2.101-.205-3.338-.205-1.238 0-2.172.106-3.339.205v-.48c.966-.096 1.86-.481 1.86-1.305v-12.735h-.005zM298.31 233.423c-1.825 1.79-4.683 2.652-7.607 2.652-4.478 0-10.642-3.303-10.642-11.362 0-8.367 7.303-11.561 12.12-11.561 1.754 0 3.649.304 5.23 1.061.035 1.726.173 3.444.343 5.17h-.481c-.686-3.133-3.614-4.102-6.022-4.102-4.579 0-8.024 3.274-8.024 8.296 0 5.305 3.753 10.157 8.608 10.157 2.376 0 4.683-.962 6.606-2.235l-.131 1.924zM303.905 226.99c-.039 3.926 2.648 6.744 6.645 6.744 1.754 0 2.787-.312 5.577-2.271l-.237 2.235c-1.654 1.485-4.102 2.376-7.059 2.376-4.823 0-8.088-3.579-8.088-8.572 0-4.781 3.512-8.371 8.328-8.371 5.234 0 7.852 3.105 7.852 7.854h-13.018v.005zm9.639-1.723c0-2.648-1.722-4.406-4.445-4.406-2.581 0-4.718 1.893-4.986 4.406h9.431zM321.378 222.51c0-1.167-.41-1.479-1.585-1.549v-.276c1.521-.445 3.409-1.1 4.647-1.553-.071.768-.1 1.932-.1 3.105h.071c.895-1.69 2.582-2.759 4.269-2.759.683 0 1.071.142 1.34.276.071.757.139 1.69.139 2.893-.824-.481-1.241-.831-2.235-.831-2.175 0-3.583 1.994-3.583 4.236v7.891c0 .827.898 1.209 1.86 1.305v.48c-1.167-.095-2.097-.205-3.338-.205-1.238 0-2.172.106-3.339.205v-.48c.966-.096 1.86-.481 1.86-1.305V222.51h-.006zM334.003 226.99c-.035 3.926 2.652 6.744 6.648 6.744 1.751 0 2.787-.312 5.574-2.271l-.237 2.235c-1.651 1.485-4.099 2.376-7.059 2.376-4.82 0-8.088-3.579-8.088-8.572 0-4.781 3.515-8.371 8.332-8.371 5.233 0 7.851 3.105 7.851 7.854h-13.021v.005zm9.641-1.723c0-2.648-1.723-4.406-4.441-4.406-2.582 0-4.718 1.893-4.99 4.406h9.431zM351.481 213.633c0-.792-.312-.969-1.238-1.237-.24-.074-.484-.106-.792-.178v-.275c1.613-.445 3.922-1.068 5.163-1.549-.07 1.616-.173 3.239-.173 4.852v6.613h.103c1.344-1.828 3.479-2.727 5.647-2.727 4.028 0 7.643 2.964 7.643 8.233 0 4.371-3.133 8.707-8.162 8.707-2.582 0-4.781-.687-6.33-2.342l-1.655 1.995h-.445c.067-.962.24-1.959.24-2.921v-19.171h-.001zm8.233 7.642c-3.41 0-5.27 2.546-5.27 6.433 0 4.445 1.789 6.443 4.82 6.443 3.614 0 5.399-3.204 5.399-6.443.002-4.576-2.339-6.433-4.949-6.433zM372.265 222.51c0-1.167-.414-1.479-1.588-1.549v-.276c1.521-.445 3.409-1.1 4.646-1.553-.067.768-.099 1.932-.099 3.105h.07c.896-1.69 2.582-2.759 4.272-2.759.683 0 1.068.142 1.337.276.07.757.138 1.69.138 2.893-.824-.481-1.237-.831-2.231-.831-2.175 0-3.586 1.994-3.586 4.236v7.891c0 .827.898 1.209 1.863 1.305v.48c-1.17-.095-2.101-.205-3.338-.205-1.241 0-2.175.106-3.342.205v-.48c.965-.096 1.859-.481 1.859-1.305V222.51h-.001zM383.649 220.104c1.655-.693 3.444-.973 5.202-.973 3.752 0 6.504 1.588 6.504 5.991v8.127c0 1.139.138 1.931 1.414 1.994v.481c-.721-.063-1.414-.205-2.136-.205-.654 0-1.344.142-2.03.205v-3.265h-.07c-1.174 2.508-2.999 3.614-5.75 3.614-2.992 0-5.058-1.552-5.058-4.646 0-2.79 1.825-4.442 5.333-4.923l4.859-.65c.65-.106.686-.729.686-1.21 0-2.44-1.344-3.579-3.752-3.579-2.31 0-3.965.796-5.032 2.79h-.375l.205-3.751zm4.441 8.095c-2.408.407-3.401 1.408-3.401 3.063 0 1.885 1.305 2.681 3.094 2.681 3.271 0 4.644-3.474 4.644-5.814v-.689l-4.337.759zM400.642 213.633c0-.792-.308-.969-1.238-1.237-.236-.074-.484-.106-.796-.178v-.275c1.62-.445 3.926-1.068 5.167-1.549-.067 1.616-.173 3.239-.173 4.852v18.698c0 .827.898 1.209 1.86 1.305v.48c-1.167-.095-2.098-.205-3.339-.205-1.237 0-2.171.106-3.339.205v-.48c.962-.096 1.857-.481 1.857-1.305v-20.311zM418.639 215.627c0-.962-.417-1.237-1.754-1.438v-.492h10.121c4.541 0 6.776 2.621 6.776 6.443 0 4.194-3.269 6.883-7.919 6.883-.823 0-2.684-.312-3.299-.892-.106-.106-.213-.177-.213-.347 0-.173.174-.275.484-.275h2.065c3.236 0 5.712-1.79 5.712-5.033 0-4.406-3.063-5.054-7.71-5.054h-.898v18.383c0 .962.418 1.238 1.762 1.439v.481c-.729 0-2.14-.205-3.444-.205-1.309 0-2.724.205-3.445.205v-.481c1.345-.205 1.755-.48 1.755-1.439v-18.178h.007zM437.181 220.104c1.651-.693 3.44-.973 5.202-.973 3.748 0 6.503 1.588 6.503 5.991v8.127c0 1.139.139 1.931 1.415 1.994v.481c-.725-.063-1.415-.205-2.136-.205-.654 0-1.344.142-2.034.205v-3.265h-.07c-1.167 2.508-2.992 3.614-5.747 3.614-2.995 0-5.061-1.552-5.061-4.646 0-2.79 1.825-4.442 5.337-4.923l4.855-.65c.657-.106.686-.729.686-1.21 0-2.44-1.344-3.579-3.748-3.579-2.313 0-3.961.796-5.029 2.79h-.378l.205-3.751zm4.445 8.095c-2.412.407-3.409 1.408-3.409 3.063 0 1.885 1.309 2.681 3.098 2.681 3.268 0 4.647-3.474 4.647-5.814v-.689l-4.336.759zM454.173 213.633c0-.792-.308-.969-1.237-1.237-.24-.074-.481-.106-.792-.178v-.275c1.616-.445 3.926-1.068 5.163-1.549-.07 1.616-.17 3.239-.17 4.852v18.698c0 .827.892 1.209 1.856 1.305v.48c-1.17-.095-2.097-.205-3.342-.205-1.237 0-2.164.106-3.338.205v-.48c.965-.096 1.859-.481 1.859-1.305v-20.311h.001zM461.671 231.294h.41c1.209 2.582 3.271 3.063 5.475 3.063 2.62 0 3.996-1.104 3.996-2.617 0-1.789-.855-2.101-4.923-2.928-3.236-.654-5.058-2.033-5.058-4.478 0-3.063 2.652-5.202 7.095-5.202 1.514 0 3.027.418 4.505.661v3.852h-.48c-.622-1.86-2.271-2.786-4.236-2.786-2.479 0-4.131 1.032-4.131 2.857 0 1.619 1.481 2.029 4.477 2.581 3.615.683 5.302 1.62 5.302 4.647 0 3.232-2.649 5.128-7.161 5.128-1.727 0-3.48-.41-4.994-1.203l-.277-3.575zM477.048 220.755c-.237-.587-1.033-.756-1.585-.792v-.48c1.309.103 2.306.205 3.477.205 1.241 0 2.31-.096 3.271-.205v.48c-.623.106-1.588.177-1.588.998 0 .346.138.792 1.588 4.509l2.581 6.681h.071l1.272-3.714c2.102-6.062 2.342-6.818 2.342-7.2 0-.927-.654-1.163-1.443-1.273v-.48c.994.103 1.995.205 3.027.205.722 0 1.415-.1 2.136-.205v.48c-1.131.071-1.379.722-1.754 1.727L485.21 235.7c-.687 1.889-1.306 3.027-1.96 4.269-.622 1.171-2.242 2.204-3.479 2.204-.615 0-1.132-.071-1.62-.237l-.205-3.862h.379c.208.793.48 1.55 1.446 1.55.962.074 1.684-.375 2.271-1.273.686-1.068 1.135-1.825 1.135-2.479 0-.205-.622-1.549-1.927-4.816l-4.202-10.301zM496.287 231.673v.993c0 .934-.449 3.311-.997 4.478-.998 2.136-1.755 2.723-1.999 2.723-.208 0-.378-.105-.378-.311 0-.209.622-1.588.622-3.204 0-1.588-.311-3.134-.622-4.683h3.374v.004zM-117.263 254.78c1.377 0 2.789.205 4.166.205.999 0 1.963-.205 2.994-.205v.48c-1.307.035-1.756.347-1.756 1.005 0 .375.239 1.096.376 1.475l5.508 15.288h.069l4.921-14.804c.276-.863.449-1.514.449-1.931 0-.687-.926-.892-1.618-1.033v-.48c1.031 0 2.101.205 3.131.205.863 0 1.721-.205 2.582-.205v.48c-1.1.142-1.719.828-2.063 1.86l-6.746 19.896h-2.308l-7.575-20.208c-.308-.757-.587-1.407-2.134-1.549v-.48h.004zM-93.248 263.664c0-.863-.376-1.068-1.514-1.309-.171-.035-.345-.074-.552-.106v-.279c1.79-.445 3.545-.994 5.201-1.549-.069 1.104-.173 2.376-.173 3.479v11.324c0 .831.898 1.209 1.862 1.309v.48c-1.17-.099-2.101-.205-3.34-.205-1.238 0-2.167.103-3.338.205v-.48c.964-.1 1.858-.481 1.858-1.309v-11.561h-.004zm1.549-9.61a2 2 0 0 1 1.997 1.995 2 2 0 0 1-1.997 2.001 2 2 0 0 1-1.995-2.001 2 2 0 0 1 1.995-1.995zM-85.712 272.583h.412c1.206 2.581 3.271 3.063 5.473 3.063 2.617 0 3.995-1.104 3.995-2.617 0-1.789-.863-2.101-4.923-2.932-3.238-.65-5.059-2.03-5.059-4.474 0-3.066 2.651-5.202 7.091-5.202 1.514 0 3.033.417 4.513.657v3.855h-.481c-.619-1.86-2.271-2.787-4.233-2.787-2.481 0-4.132 1.029-4.132 2.854 0 1.619 1.482 2.033 4.476 2.585 3.614.683 5.301 1.616 5.301 4.644 0 3.235-2.651 5.128-7.158 5.128-1.724 0-3.478-.407-4.992-1.203l-.283-3.571zM-68.821 263.664c0-.863-.377-1.068-1.516-1.309-.169-.035-.343-.074-.55-.106v-.279c1.79-.445 3.545-.994 5.2-1.549-.069 1.104-.173 2.376-.173 3.479v11.324c0 .831.898 1.209 1.86 1.309v.48c-1.169-.099-2.099-.205-3.338-.205-1.238 0-2.169.103-3.338.205v-.48c.964-.1 1.858-.481 1.858-1.309v-11.561h-.003zm1.549-9.61a2 2 0 0 1 1.997 1.995c0 1.104-.895 2.001-1.997 2.001a1.999 1.999 0 0 1 0-3.996zM-53.095 260.421c5.197 0 8.124 4.201 8.124 8.474 0 5.438-3.614 8.466-8.366 8.466-4.82 0-8.09-3.575-8.09-8.568 0-4.786 3.512-8.372 8.332-8.372zm.239 15.019c3.338 0 4.921-2.932 4.921-5.892 0-3.027-1.375-7.193-5.301-7.193-2.27 0-5.232 1.514-5.232 5.817.003 3.508 1.793 7.268 5.612 7.268zM-40.749 263.795c0-1.164-.414-1.475-1.583-1.55v-.275a85.233 85.233 0 0 0 4.645-1.549c-.069.764-.101 1.931-.101 2.759h.069c.898-1.691 2.55-2.759 4.406-2.759 3.307 0 5.508 1.931 5.508 6.062v8.438c0 1.033.276 1.479 1.586 1.613v.48c-.654-.063-1.586-.205-2.375-.205-.587 0-1.758.142-2.377.205.069-.683.207-1.478.207-2.234v-8.845c0-2.547-1.307-3.378-2.926-3.378-2.271 0-4.095 2.005-4.095 4.923v7.745c0 .831.895 1.209 1.858 1.309v.48c-1.171-.099-2.101-.205-3.34-.205-1.238 0-2.168.103-3.338.205v-.48c.963-.1 1.858-.481 1.858-1.309v-11.43h-.002zM-12.915 256.711c0-.966-.414-1.241-1.758-1.45v-.48c.725 0 2.134.205 3.445.205 1.31 0 2.719-.205 3.888-.205v.48c-1.756.142-2.202.658-2.202 1.45v18.178H-3c3.168 0 4.095-.898 4.406-4.103h.621c-.175 2.002-.244 4.028-.276 6.026h-16.423v-.481c1.344-.208 1.758-.484 1.758-1.442v-18.178zM12.069 260.421c5.201 0 8.122 4.201 8.122 8.474 0 5.438-3.614 8.466-8.364 8.466-4.82 0-8.091-3.575-8.091-8.568-.001-4.786 3.513-8.372 8.333-8.372zm.239 15.019c3.338 0 4.921-2.932 4.921-5.892 0-3.027-1.375-7.193-5.301-7.193-2.27 0-5.232 1.514-5.232 5.817.003 3.508 1.79 7.268 5.612 7.268zM22.795 272.583h.412c1.206 2.581 3.271 3.063 5.473 3.063 2.619 0 3.995-1.104 3.995-2.617 0-1.789-.863-2.101-4.921-2.932-3.238-.65-5.059-2.03-5.059-4.474 0-3.066 2.65-5.202 7.091-5.202 1.514 0 3.031.417 4.511.657v3.855h-.481c-.619-1.86-2.271-2.787-4.233-2.787-2.477 0-4.132 1.029-4.132 2.854 0 1.619 1.482 2.033 4.476 2.585 3.614.683 5.303 1.616 5.303 4.644 0 3.235-2.652 5.128-7.16 5.128-1.724 0-3.476-.407-4.99-1.203l-.285-3.571zM37.864 272.583h.412c1.206 2.581 3.269 3.063 5.473 3.063 2.617 0 3.994-1.104 3.994-2.617 0-1.789-.863-2.101-4.923-2.932-3.237-.65-5.059-2.03-5.059-4.474 0-3.066 2.65-5.202 7.09-5.202 1.514 0 3.031.417 4.513.657v3.855h-.481c-.621-1.86-2.271-2.787-4.233-2.787-2.478 0-4.133 1.029-4.133 2.854 0 1.619 1.48 2.033 4.476 2.585 3.614.683 5.301 1.616 5.301 4.644 0 3.235-2.65 5.128-7.16 5.128-1.722 0-3.477-.407-4.99-1.203l-.28-3.571zM63.115 261.393c1.651-.693 3.441-.973 5.197-.973 3.752 0 6.507 1.588 6.507 5.99v8.127c0 1.136.138 1.928 1.413 1.995v.48c-.723-.063-1.413-.205-2.132-.205-.656 0-1.344.142-2.032.205v-3.268h-.069c-1.169 2.511-2.996 3.614-5.747 3.614-2.995 0-5.059-1.549-5.059-4.644 0-2.79 1.825-4.445 5.338-4.923l4.853-.65c.656-.106.688-.729.688-1.209 0-2.444-1.344-3.579-3.752-3.579-2.306 0-3.958.792-5.025 2.786h-.377l.197-3.746zm4.44 8.088c-2.412.41-3.407 1.407-3.407 3.063 0 1.889 1.307 2.681 3.096 2.681 3.27 0 4.647-3.473 4.647-5.811v-.693l-4.336.76zM79.936 263.795c0-1.164-.412-1.475-1.583-1.55v-.275A85.62 85.62 0 0 0 83 260.421c-.069.764-.101 1.931-.101 2.759h.07c.895-1.691 2.546-2.759 4.408-2.759 3.303 0 5.508 1.931 5.508 6.062v8.438c0 1.033.276 1.479 1.586 1.613v.48c-.656-.063-1.586-.205-2.375-.205-.583 0-1.754.142-2.373.205.069-.683.207-1.478.207-2.234v-8.845c0-2.547-1.309-3.378-2.927-3.378-2.274 0-4.099 2.005-4.099 4.923v7.745c0 .831.895 1.209 1.86 1.309v.48c-1.169-.099-2.101-.205-3.338-.205-1.242 0-2.173.103-3.339.205v-.48c.964-.1 1.857-.481 1.857-1.309v-11.43h-.008zM115.452 277.013c-.757-.063-1.553-.205-2.31-.205s-1.549.142-2.235.205v-2.716h-.07c-1.549 2.377-3.479 3.063-6.125 3.063-2.583 0-7.366-2.062-7.366-8.123 0-6.058 4.852-8.816 8.397-8.816 2.101 0 3.753.898 5.095 2.723h.07v-8.222c0-.796-.308-.973-1.239-1.242-.238-.07-.484-.103-.792-.177v-.275c1.614-.445 3.927-1.068 5.165-1.549-.074 1.619-.177 3.243-.177 4.852v18.91c0 .615.177.962 1.588 1.096v.476h-.001zm-14.939-7.985c0 3.444 2.274 6.412 5.476 6.412 2.792 0 4.921-2.005 4.921-6.412 0-4.852-2.619-6.472-5.201-6.472-2.237 0-5.196 1.309-5.196 6.472zM126.829 276.533c1.344-.205 1.754-.481 1.754-1.443v-18.383c0-.962-.41-1.237-1.754-1.446v-.48c.721 0 2.136.205 3.44.205 1.309 0 2.72-.205 3.445-.205v.48c-1.345.213-1.758.488-1.758 1.446v7.579h10.878v-7.579c0-.962-.41-1.237-1.751-1.446v-.48c.719 0 2.133.205 3.441.205s2.716-.205 3.444-.205v.48c-1.344.213-1.758.488-1.758 1.446v18.383c0 .966.414 1.241 1.758 1.443v.48c-.729 0-2.136-.205-3.444-.205s-2.723.205-3.441.205v-.48c1.341-.205 1.751-.481 1.751-1.443v-8.675h-10.878v8.675c0 .966.413 1.241 1.758 1.443v.48c-.726 0-2.137-.205-3.445-.205-1.305 0-2.72.205-3.44.205v-.48zM154.109 268.271c-.035 3.926 2.652 6.748 6.648 6.748 1.751 0 2.787-.312 5.573-2.271l-.24 2.235c-1.647 1.481-4.095 2.373-7.055 2.373-4.82 0-8.089-3.576-8.089-8.569 0-4.781 3.516-8.371 8.332-8.371 5.23 0 7.852 3.105 7.852 7.852h-13.021v.003zm9.641-1.719c0-2.652-1.726-4.406-4.442-4.406-2.581 0-4.718 1.893-4.993 4.406h9.435zM171.792 261.393c1.655-.693 3.44-.973 5.202-.973 3.752 0 6.504 1.588 6.504 5.99v8.127c0 1.136.138 1.928 1.414 1.995v.48c-.722-.063-1.414-.205-2.136-.205-.654 0-1.344.142-2.03.205v-3.268h-.07c-1.175 2.511-2.999 3.614-5.751 3.614-2.991 0-5.057-1.549-5.057-4.644 0-2.79 1.824-4.445 5.333-4.923l4.855-.65c.654-.106.689-.729.689-1.209 0-2.444-1.344-3.579-3.752-3.579-2.31 0-3.965.792-5.032 2.786h-.375l.206-3.746zm4.441 8.088c-2.408.41-3.401 1.407-3.401 3.063 0 1.889 1.305 2.681 3.094 2.681 3.271 0 4.644-3.473 4.644-5.811v-.693l-4.337.76zM188.618 263.795c0-1.164-.413-1.475-1.584-1.55v-.275a85.184 85.184 0 0 0 4.644-1.549c-.067.764-.103 1.931-.103 3.104h.074c.895-1.693 2.581-2.762 4.269-2.762.686 0 1.068.142 1.34.276.074.757.139 1.69.139 2.893-.828-.481-1.238-.828-2.235-.828-2.172 0-3.579 1.995-3.579 4.237v7.883c0 .831.892 1.209 1.86 1.309v.48c-1.171-.099-2.101-.205-3.339-.205-1.244 0-2.171.103-3.345.205v-.48c.969-.1 1.863-.481 1.863-1.309v-11.43h-.004zM200.077 263.664c0-.863-.382-1.068-1.518-1.309-.173-.035-.343-.074-.552-.106v-.279c1.793-.445 3.547-.994 5.202-1.549-.07 1.104-.17 2.376-.17 3.479v11.324c0 .831.892 1.209 1.857 1.309v.48c-1.171-.099-2.098-.205-3.343-.205-1.237 0-2.164.103-3.338.205v-.48c.965-.1 1.863-.481 1.863-1.309v-11.561h-.001zm1.545-9.61c1.1 0 1.998.898 1.998 1.995a2.002 2.002 0 0 1-1.998 2.001 2 2 0 0 1-1.998-2.001 2.004 2.004 0 0 1 1.998-1.995zM209.221 263.795c0-1.164-.417-1.475-1.587-1.55v-.275c1.517-.445 3.405-1.097 4.643-1.549a38.935 38.935 0 0 0-.099 2.759h.07c.898-1.691 2.547-2.759 4.407-2.759 3.303 0 5.51 1.931 5.51 6.062v8.438c0 1.033.275 1.479 1.584 1.613v.48c-.65-.063-1.584-.205-2.373-.205-.583 0-1.75.142-2.373.205.071-.683.205-1.478.205-2.234v-8.845c0-2.547-1.305-3.378-2.921-3.378-2.277 0-4.103 2.005-4.103 4.923v7.745c0 .831.895 1.209 1.86 1.309v.48c-1.167-.099-2.101-.205-3.339-.205-1.241 0-2.171.103-3.342.205v-.48c.966-.1 1.864-.481 1.864-1.309v-11.43h-.006zM229.004 270.061c-.965-1.097-1.584-2.476-1.584-3.954 0-2.554 1.889-5.687 6.401-5.687 1.032 0 2.065.105 3.069.216 1.033.131 2.065.272 3.098.272.616 0 1.238-.071 1.854-.213l-.406 1.727a4.924 4.924 0 0 1-1.38.208c-.618 0-1.206-.074-1.722-.24l-.071.074c1.033.927 1.62 2.271 1.62 3.71 0 2.762-1.896 5.51-6.685 5.51-1.131 0-2.199-.312-3.2-.863-1.379.97-1.687 1.344-1.687 2.002 0 .552.657 1.309 2.029 1.309h5.68c4.406 0 5.577 2.03 5.577 3.989 0 2.999-3.271 5.344-7.643 5.344-2.404 0-6.054-.521-6.054-3.586 0-.58.099-.927.41-1.578l2.234-1.004c-.169.453-.311.934-.311 1.45 0 2.029 1.863 3.197 3.822 3.197 1.893 0 4.785-.856 4.785-3.236 0-1.616-.962-1.825-2.546-1.825h-5.305c-2.922 0-5.093-.757-5.23-3.444 0-.517.038-1.068.244-1.514l3.001-1.864zm4.853-.099c2.065 0 2.857-1.69 2.857-3.44 0-1.998-.962-4.371-3.473-4.371-1.79 0-2.857 1.439-2.857 3.094 0 2.1.997 4.717 3.473 4.717zM254.05 256.711c0-.966-.414-1.241-1.754-1.45v-.48c.722 0 2.133.205 3.438.205 1.309 0 2.723-.205 3.89-.205v.48c-1.75.142-2.199.658-2.199 1.45v18.178h6.542c3.169 0 4.096-.898 4.407-4.103h.622c-.177 2.002-.24 4.028-.275 6.026H252.3v-.481c1.341-.208 1.751-.484 1.751-1.442v-18.178h-.001zM279.029 260.421c5.202 0 8.127 4.201 8.127 8.474 0 5.438-3.614 8.466-8.371 8.466-4.816 0-8.085-3.575-8.085-8.568.004-4.786 3.512-8.372 8.329-8.372zm.244 15.019c3.342 0 4.923-2.932 4.923-5.892 0-3.027-1.38-7.193-5.305-7.193-2.271 0-5.228 1.514-5.228 5.817.001 3.508 1.791 7.268 5.61 7.268zM289.758 272.583h.41c1.206 2.581 3.271 3.063 5.475 3.063 2.62 0 3.993-1.104 3.993-2.617 0-1.789-.856-2.101-4.92-2.932-3.235-.65-5.061-2.03-5.061-4.474 0-3.066 2.652-5.202 7.095-5.202 1.513 0 3.026.417 4.512.657v3.855h-.48c-.626-1.86-2.277-2.787-4.24-2.787-2.479 0-4.135 1.029-4.135 2.854 0 1.619 1.485 2.033 4.478 2.585 3.614.683 5.305 1.616 5.305 4.644 0 3.235-2.652 5.128-7.165 5.128-1.726 0-3.476-.407-4.993-1.203l-.274-3.571zM304.828 272.583h.41c1.202 2.581 3.268 3.063 5.475 3.063 2.617 0 3.996-1.104 3.996-2.617 0-1.789-.859-2.101-4.923-2.932-3.239-.65-5.058-2.03-5.058-4.474 0-3.066 2.649-5.202 7.095-5.202 1.514 0 3.027.417 4.505.657v3.855h-.48c-.622-1.86-2.274-2.787-4.236-2.787-2.483 0-4.131 1.029-4.131 2.854 0 1.619 1.479 2.033 4.477 2.585 3.615.683 5.298 1.616 5.298 4.644 0 3.235-2.648 5.128-7.161 5.128-1.723 0-3.477-.407-4.993-1.203l-.274-3.571zM330.114 263.664c0-.863-.379-1.068-1.514-1.309-.17-.035-.347-.074-.552-.106v-.279c1.793-.445 3.543-.994 5.198-1.549-.067 1.104-.17 2.376-.17 3.479v11.324c0 .831.898 1.209 1.86 1.309v.48c-1.171-.099-2.101-.205-3.338-.205-1.238 0-2.172.103-3.339.205v-.48c.962-.1 1.854-.481 1.854-1.309v-11.56h.001zm1.552-9.61a1.999 1.999 0 0 1 0 3.996 1.999 1.999 0 0 1 0-3.996zM339.266 263.795c0-1.164-.418-1.475-1.592-1.55v-.275c1.521-.445 3.409-1.097 4.647-1.549-.067.764-.1 1.931-.1 2.759h.071c.897-1.691 2.546-2.759 4.406-2.759 3.303 0 5.51 1.931 5.51 6.062v8.438c0 1.033.275 1.479 1.584 1.613v.48c-.65-.063-1.584-.205-2.373-.205-.583 0-1.75.142-2.373.205.071-.683.205-1.478.205-2.234v-8.845c0-2.547-1.305-3.378-2.924-3.378-2.274 0-4.1 2.005-4.1 4.923v7.745c0 .831.896 1.209 1.86 1.309v.48c-1.167-.099-2.101-.205-3.338-.205-1.241 0-2.172.103-3.343.205v-.48c.966-.1 1.864-.481 1.864-1.309v-11.43h-.004zM383.175 274.708c-1.829 1.79-4.683 2.649-7.611 2.649-4.477 0-10.638-3.304-10.638-11.359 0-8.367 7.3-11.564 12.116-11.564 1.754 0 3.65.304 5.234 1.061.035 1.729.17 3.444.34 5.174h-.481c-.687-3.133-3.614-4.102-6.02-4.102-4.583 0-8.027 3.271-8.027 8.296 0 5.305 3.752 10.157 8.607 10.157 2.377 0 4.683-.966 6.61-2.235l-.13 1.923zM387.398 254.922c0-.796-.315-.973-1.241-1.242-.237-.07-.485-.103-.793-.177v-.275c1.616-.445 3.922-1.068 5.164-1.549-.075 1.619-.174 3.243-.174 4.852v6.649h.071c.897-1.691 2.546-2.759 4.406-2.759 3.303 0 5.51 1.931 5.51 6.062v8.438c0 1.033.275 1.479 1.584 1.613v.48c-.65-.063-1.584-.205-2.373-.205-.583 0-1.754.142-2.373.205.071-.683.205-1.478.205-2.234v-8.845c0-2.547-1.305-3.378-2.924-3.378-2.274 0-4.1 2.005-4.1 4.923v7.745c0 .831.896 1.209 1.86 1.309v.48c-1.167-.099-2.101-.205-3.338-.205-1.241 0-2.172.103-3.343.205v-.48c.966-.1 1.864-.481 1.864-1.309v-20.303h-.005zM406.519 263.664c0-.863-.378-1.068-1.514-1.309-.169-.035-.343-.074-.548-.106v-.279c1.79-.445 3.544-.994 5.199-1.549-.071 1.104-.17 2.376-.17 3.479v11.324c0 .831.891 1.209 1.856 1.309v.48c-1.171-.099-2.098-.205-3.339-.205s-2.168.103-3.342.205v-.48c.966-.1 1.86-.481 1.86-1.309v-11.561h-.002zm1.553-9.61a1.998 1.998 0 1 1 0 3.996 2 2 0 0 1-1.998-2.001c0-1.096.898-1.995 1.998-1.995zM415.877 254.922c0-.796-.308-.973-1.238-1.242-.237-.07-.484-.103-.796-.177v-.275c1.62-.445 3.926-1.068 5.167-1.549-.067 1.619-.173 3.243-.173 4.852v18.694c0 .831.897 1.209 1.859 1.309v.48c-1.167-.099-2.097-.205-3.338-.205-1.238 0-2.172.103-3.339.205v-.48c.962-.1 1.857-.481 1.857-1.309v-20.303h.001zM441.626 277.013c-.757-.063-1.549-.205-2.306-.205s-1.553.142-2.242.205v-2.716h-.067c-1.549 2.377-3.48 3.063-6.129 3.063-2.582 0-7.363-2.062-7.363-8.123 0-6.058 4.853-8.816 8.396-8.816 2.101 0 3.752.898 5.096 2.723h.067v-8.222c0-.796-.305-.973-1.238-1.242-.236-.07-.484-.103-.792-.177v-.275c1.616-.445 3.926-1.068 5.163-1.549-.07 1.619-.173 3.243-.173 4.852v18.91c0 .615.173.962 1.588 1.096v.476zm-14.945-7.985c0 3.444 2.277 6.412 5.478 6.412 2.791 0 4.92-2.005 4.92-6.412 0-4.852-2.617-6.472-5.199-6.472-2.235 0-5.199 1.309-5.199 6.472zM445.841 263.795c0-1.164-.41-1.475-1.584-1.55v-.275c1.518-.445 3.409-1.097 4.647-1.549-.071.764-.1 1.931-.1 3.104h.071c.891-1.693 2.581-2.762 4.269-2.762.683 0 1.067.142 1.34.276.071.757.138 1.69.138 2.893-.823-.481-1.241-.828-2.234-.828-2.176 0-3.583 1.995-3.583 4.237v7.883c0 .831.895 1.209 1.86 1.309v.48c-1.167-.099-2.101-.205-3.339-.205-1.237 0-2.171.103-3.338.205v-.48c.962-.1 1.86-.481 1.86-1.309v-11.43h-.007zM458.502 268.271c-.035 3.926 2.652 6.748 6.648 6.748 1.751 0 2.787-.312 5.573-2.271l-.236 2.235c-1.651 1.481-4.099 2.373-7.059 2.373-4.82 0-8.088-3.576-8.088-8.569 0-4.781 3.515-8.371 8.331-8.371 5.234 0 7.852 3.105 7.852 7.852h-13.021v.003zm9.641-1.719c0-2.652-1.723-4.406-4.442-4.406-2.581 0-4.717 1.893-4.989 4.406h9.431zM476.015 263.795c0-1.164-.41-1.475-1.584-1.55v-.275a83.86 83.86 0 0 0 4.646-1.549c-.07.764-.103 1.931-.103 2.759h.074c.892-1.691 2.547-2.759 4.406-2.759 3.304 0 5.511 1.931 5.511 6.062v8.438c0 1.033.271 1.479 1.584 1.613v.48c-.658-.063-1.584-.205-2.377-.205-.58 0-1.754.142-2.369.205.067-.683.205-1.478.205-2.234v-8.845c0-2.547-1.309-3.378-2.928-3.378-2.271 0-4.096 2.005-4.096 4.923v7.745c0 .831.892 1.209 1.86 1.309v.48c-1.171-.099-2.101-.205-3.339-.205-1.244 0-2.175.103-3.346.205v-.48c.97-.1 1.86-.481 1.86-1.309v-11.43h-.004z"/></g></svg>