<svg xmlns="http://www.w3.org/2000/svg" width="653.761" height="212.598" viewBox="0 0 653.761 212.598"><path fill="#91CFCC" d="M106.3 212.598c58.706 0 106.298-47.595 106.298-106.3C212.598 47.592 165.008 0 106.3 0 47.59 0 0 47.592 0 106.298c0 58.705 47.593 106.3 106.3 106.3z"/><path fill="#FFF" d="M27.587 171.55S60.996 8.591 105.999 8.591c45.003 0 98.308 162.959 69.935 162.959-28.369 0-102.49-33.072-102.49-71.938 0-38.86 113.695-43.666 113.695-43.666L85.346 99.613l88.154 64.094-67.498-146.109L27.587 171.55z"/><g fill="#91CFCC"><path d="M229.743 169.094V43.49h63.701c27.202 0 40.805 16.351 40.805 49.064v29.026c0 31.674-13.465 47.513-40.395 47.513h-64.111v.001zm14.225-12.596h47.512c10.14 0 17.418-2.642 21.833-7.931 4.471-5.287 6.706-14.559 6.706-27.801V85.931c0-8.395-2.29-15.457-6.869-21.178-4.526-5.782-11.041-8.669-19.545-8.669h-49.637v100.414zM348.802 169.094V43.49h80.957v12.594h-66.73v41.54h63.865v12.596h-63.863v46.285h66.736v12.593h-80.966l.001-.004zM445.537 43.49h63.539c10.795 0 18.564 3.079 23.309 9.241 4.795 6.108 7.197 15.895 7.197 29.358 0 13.467-2.561 23.168-7.686 29.107-5.07 5.892-13.113 8.833-24.127 8.833h-48v49.063h-14.225V43.49h-.007zm14.232 12.591v51.354h38.188c11.662 0 19.139-1.553 22.404-4.659 3.322-3.108 4.992-9.841 4.992-20.197 0-10.852-1.336-17.962-4.008-21.343-2.615-3.438-8.018-5.152-16.191-5.152l-45.385-.003zM547.759 43.49h95.344v12.594h-40.561v113.01h-14.219V56.081h-40.561l-.003-12.591z"/></g><g fill="#91CFCC"><path d="M186.345 207.288l6.151-16.877h2.692l6.15 16.877h-1.965l-1.307-3.6h-8.392l-1.329 3.6h-2zm3.869-5.292h7.294l-3.624-9.995-3.67 9.995zM203.132 207.288V190.41h1.78v6.562c.505-1.056 1.803-1.581 3.889-1.581 1.516 0 2.651.389 3.406 1.144.761.753 1.142 2.389 1.142 4.914 0 2.26-.334 3.813-1 4.682-.666.85-1.851 1.281-3.548 1.281-1.083 0-1.913-.118-2.494-.351-.578-.233-1.043-.646-1.395-1.229v1.464h-1.78v-.008zm1.833-5.459c0 1.552.212 2.623.638 3.234.432.607 1.329.914 2.692.914 1.427 0 2.322-.324 2.679-.977.359-.664.538-1.838.538-3.531 0-1.938-.177-3.191-.527-3.764-.353-.577-1.259-.866-2.723-.866-1.243 0-2.105.242-2.58.735-.477.486-.714 1.607-.714 3.371V201.825h-.002l-.001.004zM216.083 207.288v-11.772h1.78v1.463c.293-.599.716-1.015 1.275-1.242.557-.221 1.363-.342 2.415-.342 1.618 0 2.754.308 3.406.916.659.598.988 1.629.988 3.087v7.896h-1.78v-7.96c0-.88-.179-1.515-.538-1.901-.357-.398-1.116-.59-2.272-.59-1.327 0-2.24.233-2.747.715-.498.478-.748 1.424-.748 2.844v6.896l-1.779-.01zM228.735 201.404c0-2.469.321-4.092.967-4.856.653-.764 2.084-1.156 4.294-1.156 2.277 0 3.709.423 4.297 1.267.593.838.889 2.437.889 4.79 0 2.505-.341 4.123-1.021 4.865-.674.735-2.063 1.103-4.164 1.103-2.401 0-3.88-.444-4.437-1.329-.55-.899-.825-2.46-.825-4.684zm1.837.03c0 2.012.157 3.272.472 3.777.321.504 1.304.755 2.944.755 1.559 0 2.508-.267 2.844-.804.344-.531.517-1.787.517-3.767 0-1.985-.162-3.234-.484-3.764-.321-.532-1.08-.802-2.272-.802h-.878c-1.618 0-2.549.343-2.79 1.027-.237.693-.353 1.881-.353 3.578zM241.7 195.516h1.779v1.404a2.176 2.176 0 0 1 1.121-1.154c.527-.25 1.237-.378 2.129-.378 2.168 0 3.253 1.096 3.253 3.271v.913h-1.692v-.775c0-.72-.143-1.221-.43-1.521-.284-.3-.795-.444-1.526-.444-.988 0-1.714.229-2.175.699-.453.465-.68 1.279-.68 2.438v7.309H241.7v-11.762zM251.805 195.516h1.78v1.988c.572-1.405 1.895-2.11 3.965-2.11 2.094 0 3.299.649 3.614 1.937.629-1.286 2.045-1.937 4.252-1.937 1.406 0 2.42.323 3.043.967.629.645.944 1.678.944 3.125v7.81h-1.779v-7.888c0-1.038-.202-1.729-.604-2.068-.399-.336-1.046-.502-1.933-.502-1.333 0-2.266.232-2.799.713-.527.479-.791 1.299-.791 2.469v7.271h-1.78v-8.012c0-.954-.176-1.606-.527-1.94-.353-.335-1.048-.502-2.088-.502-2.342 0-3.515 1.109-3.515 3.348v7.106h-1.78l-.002-11.775zM280.605 201.588v-2.311c0-1.032-.229-1.706-.693-1.993-.453-.303-1.322-.445-2.604-.445-1.187 0-1.984.133-2.394.397-.402.271-.604.751-.604 1.43v.242h-1.835c0-1.144.279-2.013.835-2.612.564-.6 1.922-.9 4.076-.9 1.881 0 3.186.285 3.912.843.726.557 1.086 1.573 1.086 3.058v7.996h-1.779v-1.282c-.411.648-.908 1.04-1.495 1.191-.587.143-1.393.222-2.417.222-1.699 0-2.889-.269-3.569-.808-.674-.528-1.011-1.44-1.011-2.722 0-1.476.397-2.488 1.186-3.033.644-.442 1.786-.665 3.428-.665 2.24-.015 3.532.455 3.878 1.392zm-6.657 2.055c0 .927.179 1.541.539 1.855.359.312 1.111.471 2.262.471h.396c1.157 0 2.013-.143 2.57-.436.557-.302.836-.889.836-1.762 0-.778-.194-1.332-.583-1.656-.381-.322-1.304-.49-2.769-.49-1.349 0-2.226.127-2.636.366-.408.224-.615.781-.615 1.652zM285.35 207.288V190.41h1.779v16.877l-1.779.001zM297.838 207.288V190.41h8.557c3.655 0 5.483 2.196 5.483 6.598v3.901c0 4.253-1.809 6.379-5.428 6.379h-8.612zm1.912-1.688h6.38c1.362 0 2.34-.356 2.933-1.069.6-.708.899-1.955.899-3.734v-4.677c0-1.127-.309-2.082-.922-2.852-.609-.774-1.485-1.165-2.626-1.165h-6.666l.002 13.497zM314.074 201.404c0-2.469.321-4.092.966-4.856.654-.764 2.083-1.156 4.295-1.156 2.277 0 3.709.423 4.296 1.267.593.838.889 2.437.889 4.79 0 2.505-.341 4.123-1.021 4.865-.673.735-2.062 1.103-4.163 1.103-2.401 0-3.879-.444-4.437-1.329-.552-.899-.825-2.46-.825-4.684zm1.834.03c0 2.012.157 3.272.472 3.777.321.504 1.304.755 2.945.755 1.558 0 2.508-.267 2.844-.804.344-.531.516-1.787.516-3.767 0-1.985-.161-3.234-.484-3.764-.321-.532-1.08-.802-2.272-.802h-.878c-1.618 0-2.549.343-2.792 1.027-.233.693-.351 1.881-.351 3.578zM328.978 197.15c.624-1.171 1.918-1.76 3.891-1.76 1.749 0 2.943.428 3.583 1.278.647.847.967 2.36.967 4.551 0 2.453-.334 4.104-1.002 4.939-.664.842-1.862 1.258-3.61 1.258-2.068 0-3.338-.525-3.821-1.582v6.556h-1.779v-16.87h1.779l-.008 1.63zm0 4.638c0 1.615.247 2.715.735 3.307.488.581 1.372.875 2.648.875 1.403 0 2.289-.294 2.658-.875.373-.592.563-1.848.563-3.766 0-1.869-.196-3.082-.577-3.647-.386-.568-1.25-.843-2.595-.843-1.247 0-2.126.211-2.635.637-.506.416-.769 1.384-.791 2.9v1.416h-.007v-.004h.001zM341.875 197.15c.625-1.171 1.918-1.76 3.888-1.76 1.749 0 2.949.428 3.585 1.278.646.847.97 2.36.97 4.551 0 2.453-.333 4.104-1.002 4.939-.663.842-1.864 1.258-3.61 1.258-2.068 0-3.34-.525-3.826-1.582v6.556h-1.78v-16.87h1.779l-.004 1.63zm0 4.638c0 1.615.245 2.715.736 3.307.489.581 1.375.875 2.649.875 1.405 0 2.293-.294 2.656-.875.375-.592.563-1.848.563-3.766 0-1.869-.194-3.082-.574-3.647-.389-.568-1.244-.843-2.596-.843-1.246 0-2.121.211-2.631.637-.507.416-.772 1.384-.797 2.9v.743l-.006.669zM353.044 207.288V190.41h1.781v16.877l-1.781.001zM359.335 201.773v1.092c0 1.156.188 1.964.561 2.429.375.454 1.195.677 2.471.677h.453c1.359 0 2.219-.123 2.578-.369.357-.249.539-.877.539-1.883h1.83v.342c0 1.285-.359 2.171-1.102 2.644-.723.475-1.959.707-3.705.707-2.191 0-3.654-.375-4.379-1.122-.727-.745-1.09-2.315-1.09-4.702 0-2.48.344-4.131 1.021-4.953.678-.828 2.086-1.242 4.23-1.242 1.969 0 3.299.354 3.986 1.056.688.694 1.031 2.033 1.031 4.017v1.313h-8.426v-.006zm0-1.438h6.598c-.051-1.375-.223-2.305-.527-2.779-.293-.485-1.137-.727-2.535-.727-1.445 0-2.379.188-2.813.561-.439.369-.676 1.347-.723 2.945zM370.343 195.516h1.779v1.404c.223-.521.59-.907 1.121-1.154.525-.25 1.234-.378 2.131-.378 2.172 0 3.246 1.096 3.246 3.271v.913h-1.688v-.775c0-.72-.141-1.221-.43-1.521-.285-.3-.793-.444-1.529-.444-.988 0-1.715.229-2.172.699-.457.465-.68 1.279-.68 2.438v7.309h-1.783l.005-11.762zM387.671 207.288V190.41h10.869v1.694h-8.961v5.579h8.578v1.695h-8.578v6.22h8.961v1.688l-10.869.002zM400.9 207.288v-11.772h1.783v1.463c.295-.599.719-1.015 1.275-1.242.561-.221 1.365-.342 2.42-.342 1.621 0 2.758.308 3.406.916.664.598.992 1.629.992 3.087v7.896h-1.781v-7.96c0-.88-.18-1.515-.539-1.901-.357-.398-1.113-.59-2.271-.59-1.32 0-2.24.233-2.748.715-.49.478-.748 1.424-.748 2.844v6.896l-1.789-.01zM412.253 195.516h1.578v-2.813h1.779v2.813h4.572v1.44h-4.572v7.438c0 .619.115 1.038.332 1.26.223.215.646.315 1.258.315.689 0 1.166-.121 1.42-.362.264-.25.396-.72.396-1.429v-1.168h1.693v.943c0 2.3-1.146 3.451-3.434 3.451-1.449 0-2.379-.251-2.801-.753-.428-.504-.643-1.395-.643-2.682v-7.03h-1.578v-1.423zM423.634 201.773v1.092c0 1.156.188 1.964.563 2.429.375.454 1.197.677 2.471.677h.453c1.361 0 2.223-.123 2.582-.369.355-.249.537-.877.537-1.883h1.83v.342c0 1.285-.361 2.171-1.102 2.644-.723.475-1.961.707-3.713.707-2.188 0-3.645-.375-4.373-1.122-.727-.744-1.086-2.315-1.086-4.702 0-2.48.342-4.131 1.021-4.953.68-.828 2.084-1.242 4.225-1.242 1.971 0 3.303.354 3.988 1.056.689.694 1.029 2.033 1.029 4.017v1.313h-8.426v-.006zm0-1.438h6.602c-.051-1.375-.225-2.305-.525-2.779-.299-.485-1.139-.727-2.539-.727-1.441 0-2.379.188-2.811.561-.442.369-.676 1.347-.727 2.945zM434.646 195.516h1.781v1.404a2.18 2.18 0 0 1 1.121-1.154c.521-.25 1.236-.378 2.131-.378 2.17 0 3.244 1.096 3.244 3.271v.913h-1.689v-.775c0-.72-.141-1.221-.428-1.521-.287-.3-.799-.444-1.529-.444-.992 0-1.717.229-2.172.699-.457.465-.682 1.279-.682 2.438v7.309h-1.779l.002-11.762zM452.884 201.588v-2.311c0-1.032-.232-1.706-.693-1.993-.453-.303-1.32-.445-2.605-.445-1.188 0-1.988.133-2.395.397-.4.271-.605.751-.605 1.43v.242h-1.836c0-1.144.283-2.013.844-2.612.566-.6 1.922-.9 4.074-.9 1.885 0 3.188.285 3.914.843.723.557 1.088 1.573 1.088 3.058v7.996h-1.783v-1.282c-.404.648-.908 1.04-1.492 1.191-.578.143-1.393.222-2.41.222-1.705 0-2.891-.269-3.582-.808-.668-.528-1.006-1.44-1.006-2.722 0-1.476.395-2.488 1.184-3.033.65-.442 1.789-.665 3.426-.665 2.239-.015 3.532.455 3.877 1.392zm-6.656 2.055c0 .927.182 1.541.539 1.855.357.312 1.111.471 2.262.471h.398c1.154 0 2.01-.143 2.57-.436.559-.302.836-.889.836-1.762 0-.778-.193-1.332-.576-1.656-.387-.322-1.303-.49-2.771-.49-1.35 0-2.227.127-2.631.366-.426.224-.627.781-.627 1.652zM457.626 207.288V190.41h1.781v16.877l-1.781.001zM469.994 190.412h8.537c1.453 0 2.494.415 3.133 1.245.65.824.967 2.137.967 3.943s-.338 3.112-1.025 3.912c-.686.789-1.764 1.187-3.24 1.187h-6.447v6.595h-1.908v-16.877l-.017-.005zm1.916 1.697v6.896h5.129c1.568 0 2.57-.207 3.01-.623.445-.414.664-1.321.664-2.712 0-1.461-.178-2.414-.537-2.869-.348-.465-1.074-.69-2.174-.69l-6.092-.002zM484.859 195.516h1.779v1.404a2.172 2.172 0 0 1 1.117-1.154c.529-.25 1.238-.378 2.133-.378 2.17 0 3.246 1.096 3.246 3.271v.913h-1.689v-.775c0-.72-.143-1.221-.432-1.521-.285-.3-.791-.444-1.523-.444-.992 0-1.719.229-2.174.699-.457.465-.678 1.279-.678 2.438v7.309h-1.779v-11.762zM496.492 201.773v1.092c0 1.156.188 1.964.561 2.429.383.454 1.199.677 2.471.677h.453c1.361 0 2.223-.123 2.578-.369.361-.249.545-.877.545-1.883h1.83v.342c0 1.285-.365 2.171-1.102 2.644-.727.475-1.965.707-3.711.707-2.191 0-3.65-.375-4.371-1.122-.729-.748-1.094-2.315-1.094-4.702 0-2.48.34-4.131 1.02-4.953.678-.828 2.09-1.242 4.227-1.242 1.975 0 3.307.354 3.994 1.056.686.694 1.023 2.033 1.023 4.017v1.313h-8.424v-.006zm0-1.438h6.598c-.049-1.375-.223-2.305-.521-2.779-.299-.485-1.143-.727-2.539-.727-1.441 0-2.377.188-2.813.561-.432.369-.673 1.347-.725 2.945zM509.087 203.543v.894c0 .66.252 1.078.756 1.26.504.186 1.547.274 3.123.274.973 0 1.656-.121 2.051-.368.4-.257.596-.763.596-1.521v-.361c0-1.004-.533-1.521-1.594-1.551l-.477-.031-2.793-.155c-2.268-.119-3.41-1.168-3.41-3.144 0-1.39.342-2.316 1.021-2.771.676-.452 2.037-.68 4.061-.68 1.678 0 2.875.188 3.584.563.721.375 1.096 1.106 1.119 2.185v.418h-1.834v-.39c0-.537-.146-.895-.461-1.068-.305-.175-.922-.26-1.854-.26h-1.08c-1.123 0-1.859.112-2.209.339-.34.223-.512.662-.512 1.291v.526c0 .89.457 1.366 1.373 1.43l3.02.21.781.045c2.061.126 3.086 1.163 3.086 3.113v.263c0 1.11-.311 1.951-.926 2.518-.607.567-1.93.846-3.965.846-1.961 0-3.33-.214-4.115-.63-.785-.413-1.182-1.137-1.182-2.163v-1.081h1.838v.006h.004l-.001-.007zM527.906 203.015h1.781v.668c0 1.497-.414 2.495-1.256 2.986-.826.483-2.041.739-3.656.739-2.314 0-3.789-.423-4.428-1.268-.637-.848-.955-2.42-.955-4.699 0-2.438.361-4.057 1.082-4.854.713-.799 2.086-1.197 4.125-1.197 1.795 0 3.059.29 3.787.855.734.568 1.102 1.504 1.102 2.822v.362h-1.783v-.398c0-.863-.189-1.452-.572-1.75-.387-.303-1.244-.445-2.586-.445-1.531 0-2.467.287-2.811.861-.338.571-.502 1.895-.502 3.953 0 2.026.23 3.252.711 3.677.48.423 1.459.64 2.947.64 1.275 0 2.086-.154 2.457-.461.371-.308.557-1.144.557-2.491zM531.873 195.516h1.781v1.404a2.172 2.172 0 0 1 1.117-1.154c.525-.25 1.238-.378 2.133-.378 2.17 0 3.248 1.096 3.248 3.271v.913h-1.689v-.775c0-.72-.143-1.221-.43-1.521-.285-.3-.793-.444-1.529-.444-.986 0-1.717.229-2.172.699-.455.465-.68 1.279-.68 2.438v7.309h-1.781l.002-11.762zM542.033 190.398h1.775v1.954h-1.775v-1.954zm0 5.118h1.775v11.772h-1.775v-11.772zM548.587 197.15c.625-1.171 1.918-1.76 3.893-1.76 1.75 0 2.947.428 3.586 1.278.645.847.963 2.36.963 4.551 0 2.453-.33 4.104-1.002 4.939-.66.842-1.863 1.258-3.611 1.258-2.066 0-3.338-.525-3.82-1.582v6.556h-1.777v-16.87h1.777v1.63h-.009zm0 4.638c0 1.615.248 2.715.738 3.307.492.581 1.375.875 2.646.875 1.406 0 2.295-.294 2.66-.875.381-.592.566-1.848.566-3.766 0-1.869-.195-3.082-.582-3.647-.383-.568-1.246-.843-2.59-.843-1.252 0-2.127.211-2.635.637-.502.416-.77 1.384-.795 2.9v.743l-.008.669zM558.091 195.516h1.58v-2.813h1.783v2.813h4.564v1.44h-4.564v7.438c0 .619.111 1.038.324 1.26.229.215.65.315 1.266.315.686 0 1.162-.121 1.416-.362.264-.25.4-.72.4-1.429v-1.168h1.689v.943c0 2.3-1.146 3.451-3.438 3.451-1.441 0-2.375-.251-2.799-.753-.426-.504-.639-1.395-.639-2.682v-7.03h-1.58l-.002-1.423zM568.001 190.398h1.777v1.954h-1.777v-1.954zm0 5.118h1.777v11.772h-1.777v-11.772zM572.472 201.404c0-2.469.313-4.092.971-4.856.65-.764 2.08-1.156 4.291-1.156 2.273 0 3.707.423 4.297 1.267.588.838.891 2.437.891 4.79 0 2.505-.342 4.123-1.023 4.865-.664.735-2.059 1.103-4.158 1.103-2.402 0-3.881-.444-4.441-1.329-.556-.899-.828-2.46-.828-4.684zm1.832.03c0 2.012.154 3.272.477 3.777.32.504 1.307.755 2.949.755 1.555 0 2.508-.267 2.844-.804.344-.531.518-1.787.518-3.767 0-1.985-.16-3.234-.486-3.764-.32-.532-1.08-.802-2.271-.802h-.875c-1.619 0-2.547.343-2.793 1.027-.246.693-.363 1.881-.363 3.578zM585.685 207.288v-11.772h1.775v1.463c.297-.599.721-1.015 1.277-1.242.563-.221 1.365-.342 2.42-.342 1.621 0 2.754.308 3.406.916.664.598.988 1.629.988 3.087v7.896h-1.777v-7.96c0-.88-.178-1.515-.539-1.901-.357-.398-1.111-.59-2.268-.59-1.326 0-2.246.233-2.746.715-.498.478-.756 1.424-.756 2.844v6.896l-1.78-.01z"/></g><g fill="#91CFCC"><path d="M605.144 188.523h14.229v1.882h-6.055v16.872h-2.127v-16.872h-6.055l.008-1.882zM620.876 194.186h1.982v1.562a2.44 2.44 0 0 1 1.242-1.284c.582-.274 1.375-.411 2.363-.411 2.41 0 3.609 1.209 3.609 3.638v1.017h-1.879v-.863c0-.801-.158-1.36-.48-1.683-.313-.337-.885-.499-1.697-.499-1.102 0-1.902.26-2.416.775-.502.516-.756 1.418-.756 2.712v8.125h-1.979l.011-13.089zM632.171 188.501h1.979v2.169h-1.979v-2.169zm0 5.685h1.979v13.084h-1.979v-13.084zM646.509 200.937v-2.565c0-1.15-.256-1.895-.766-2.219-.502-.337-1.465-.5-2.896-.5-1.313 0-2.201.149-2.662.451-.443.304-.664.834-.664 1.585v.271h-2.035c0-1.271.307-2.24.932-2.905.621-.664 2.133-1.003 4.523-1.003 2.088 0 3.541.311 4.35.937.805.62 1.205 1.751 1.205 3.398v8.889h-1.979v-1.431c-.457.714-1.016 1.156-1.66 1.315-.648.161-1.547.245-2.689.245-1.889 0-3.213-.3-3.955-.893-.756-.594-1.127-1.604-1.127-3.026 0-1.644.436-2.77 1.32-3.368.715-.495 1.988-.75 3.809-.75 2.47.003 3.91.528 4.294 1.569zm-7.4 2.281c0 1.022.201 1.716.598 2.063.398.353 1.232.528 2.52.528h.434c1.287 0 2.244-.166 2.861-.487.617-.332.926-.983.926-1.952 0-.865-.215-1.485-.646-1.843-.418-.366-1.449-.551-3.07-.551-1.5 0-2.477.133-2.934.401-.459.26-.689.874-.689 1.841zM651.777 207.27v-18.747h1.984v18.747h-1.984z"/></g></svg>