<svg xmlns="http://www.w3.org/2000/svg" width="933.894" height="283.717" viewBox="0 0 933.894 283.717"><g fill="#005DAA" stroke="#005DAA" stroke-width=".504" stroke-miterlimit="10"><path d="M18.307 267.205H4.87l-2.612 6.95a1.04 1.04 0 0 1-.969.675c-.084 0-.253-.042-.379-.042-.505-.21-.8-.843-.59-1.348l10.235-27.336c.169-.38.59-.632 1.011-.632.463 0 .884.253 1.011.632l10.235 27.336c.211.505-.042 1.138-.548 1.348-.168 0-.253.042-.379.042-.379 0-.8-.253-.969-.675l-2.609-6.95zm-12.679-2.063h11.92l-5.938-15.837-5.982 15.837zM27.398 270.533c.337-.421.968-.505 1.432-.127 1.432 1.053 3.706 2.402 6.318 2.402 1.601 0 2.991-.507 3.917-1.265 1.011-.673 1.558-1.601 1.558-2.526-.042-.97-.42-1.643-1.474-2.528-.884-.675-2.358-1.18-4.38-1.516l-.084-.042c-1.854-.337-3.497-.758-4.676-1.601-1.306-.759-2.232-2.107-2.232-3.708 0-1.643.926-3.074 2.232-4.044 1.222-.841 2.948-1.389 5.055-1.389 2.653 0 4.549 1.221 6.149 2.231.464.337.59.97.295 1.433-.295.463-.927.59-1.39.295-1.516-1.01-3.032-2.063-5.054-2.063-1.685 0-3.033.463-3.917 1.178-.843.675-1.306 1.517-1.306 2.358 0 .843.38 1.433 1.18 2.065.927.631 2.317 1.138 4.212 1.431h.085c1.979.295 3.58.885 5.013 1.685 1.348.885 2.316 2.486 2.316 4.213 0 1.726-.968 3.116-2.358 4.169-1.432 1.053-3.117 1.643-5.139 1.643-3.327-.042-5.939-1.601-7.624-2.948-.423-.377-.465-.925-.128-1.346zM47.611 270.533c.337-.421.968-.505 1.432-.127 1.432 1.053 3.706 2.402 6.318 2.402 1.601 0 2.991-.507 3.917-1.265 1.011-.673 1.558-1.601 1.558-2.526-.042-.97-.42-1.643-1.474-2.528-.884-.675-2.358-1.18-4.38-1.516l-.085-.042c-1.853-.337-3.496-.758-4.675-1.601-1.306-.759-2.232-2.107-2.232-3.708 0-1.643.926-3.074 2.232-4.044 1.222-.841 2.948-1.389 5.055-1.389 2.653 0 4.549 1.221 6.149 2.231.464.337.59.97.295 1.433-.295.463-.927.59-1.39.295-1.516-1.01-3.032-2.063-5.054-2.063-1.685 0-3.033.463-3.917 1.178-.843.675-1.306 1.517-1.306 2.358 0 .843.38 1.433 1.18 2.065.927.631 2.316 1.138 4.212 1.431h.085c1.98.295 3.58.885 5.013 1.685 1.348.885 2.316 2.486 2.316 4.213 0 1.726-.968 3.116-2.358 4.169-1.432 1.053-3.117 1.643-5.139 1.643-3.327-.042-5.939-1.601-7.624-2.948-.423-.377-.465-.925-.128-1.346zM68.203 264.552c0-5.729 4.465-10.361 10.024-10.361 5.308 0 9.52 4.212 9.941 9.603v.167c0 .548-.464.927-1.011.927H70.224c.21 4.507 3.749 7.919 8.002 7.919a7.76 7.76 0 0 0 6.655-3.75c.295-.505.927-.588 1.348-.336.464.336.631.926.337 1.431-1.769 2.823-4.844 4.676-8.341 4.676-5.557.002-10.022-4.632-10.022-10.276zm2.148-1.643h15.627c-.674-3.874-3.96-6.697-7.751-6.697-3.875 0-7.118 2.781-7.876 6.697zM93.805 270.533c.337-.421.968-.505 1.432-.127 1.432 1.053 3.706 2.402 6.318 2.402 1.601 0 2.991-.507 3.917-1.265 1.011-.673 1.558-1.601 1.558-2.526-.042-.97-.42-1.643-1.474-2.528-.884-.675-2.358-1.18-4.38-1.516l-.084-.042c-1.854-.337-3.497-.758-4.676-1.601-1.306-.759-2.232-2.107-2.232-3.708 0-1.643.926-3.074 2.232-4.044 1.222-.841 2.948-1.389 5.055-1.389 2.653 0 4.549 1.221 6.149 2.231.464.337.59.97.295 1.433-.295.463-.927.59-1.39.295-1.516-1.01-3.032-2.063-5.054-2.063-1.685 0-3.033.463-3.917 1.178-.843.675-1.306 1.517-1.306 2.358 0 .843.38 1.433 1.18 2.065.927.631 2.317 1.138 4.212 1.431h.085c1.979.295 3.58.885 5.013 1.685 1.348.885 2.316 2.486 2.316 4.213 0 1.726-.968 3.116-2.358 4.169-1.432 1.053-3.117 1.643-5.139 1.643-3.327-.042-5.939-1.601-7.624-2.948-.423-.377-.465-.925-.128-1.346zM114.019 270.533c.337-.421.968-.505 1.432-.127 1.432 1.053 3.706 2.402 6.318 2.402 1.6 0 2.991-.507 3.917-1.265 1.011-.673 1.558-1.601 1.558-2.526-.042-.97-.421-1.643-1.474-2.528-.884-.675-2.358-1.18-4.38-1.516l-.084-.042c-1.854-.337-3.497-.758-4.676-1.601-1.306-.759-2.232-2.107-2.232-3.708 0-1.643.926-3.074 2.232-4.044 1.222-.841 2.948-1.389 5.055-1.389 2.653 0 4.549 1.221 6.149 2.231.464.337.59.97.295 1.433-.295.463-.926.59-1.39.295-1.516-1.01-3.032-2.063-5.054-2.063-1.685 0-3.033.463-3.917 1.178-.843.675-1.306 1.517-1.306 2.358 0 .843.38 1.433 1.18 2.065.927.631 2.317 1.138 4.212 1.431h.085c1.98.295 3.58.885 5.013 1.685 1.348.885 2.316 2.486 2.316 4.213 0 1.726-.968 3.116-2.358 4.169-1.432 1.053-3.117 1.643-5.139 1.643-3.327-.042-5.939-1.601-7.624-2.948-.423-.377-.466-.925-.128-1.346zM136.126 248.462c0-.548.463-1.011 1.011-1.011.59 0 1.053.463 1.053 1.011v.968c0 .59-.463 1.095-1.053 1.095-.548 0-1.011-.505-1.011-1.095v-.968zm0 6.74a.998.998 0 0 1 1.011-1.011c.59 0 1.053.421 1.053 1.011v18.618c0 .548-.463 1.011-1.053 1.011a1.025 1.025 0 0 1-1.011-1.011v-18.618zM162.575 262.614a6.355 6.355 0 0 0-6.36-6.36c-3.496 0-6.318 2.864-6.403 6.36v11.373c-.042.168-.084.337-.21.463-.169.253-.464.38-.759.38h-.253a1.108 1.108 0 0 1-.674-.548c-.042-.042-.042-.085-.042-.127 0-.041-.042-.083-.042-.083v-18.829a.998.998 0 0 1 1.011-1.012c.548 0 .969.464.969 1.012v1.979a8.366 8.366 0 0 1 6.403-2.991c4.633 0 8.382 3.791 8.382 8.382v11.205a.998.998 0 0 1-1.011 1.011.997.997 0 0 1-1.01-1.011v-11.204zM191.589 273.187c0 5.349-4.339 9.688-9.73 9.688-1.516 0-2.948-.378-4.296-.968-.421-.295-.674-.885-.421-1.348.253-.548.843-.758 1.348-.464 1.054.507 2.107.759 3.37.759 4.297 0 7.708-3.413 7.708-7.667v-2.528c-1.727 2.486-4.549 4.044-7.708 4.044-5.392 0-9.688-4.59-9.688-10.276 0-5.561 4.296-10.235 9.688-10.235 3.159 0 5.982 1.601 7.708 4.044v-3.033c0-.548.464-1.011 1.053-1.011.506 0 .969.463.969 1.011v17.984zm-2.021-8.761c0-4.591-3.454-8.214-7.708-8.214-4.212 0-7.666 3.623-7.666 8.214 0 4.632 3.454 8.298 7.666 8.298 4.254 0 7.708-3.666 7.708-8.298zM221.021 255.202c0 .505-.505 1.011-1.011 1.011h-2.653v15.037c0 1.012 1.011 1.517 1.516 1.517.506 0 1.054.548 1.054 1.053 0 .505-.548 1.011-1.054 1.011-2.063 0-3.622-1.516-3.622-3.581v-15.037h-2.57c-1.011 0-1.011-.505-1.011-1.011 0-.505 0-1.011 1.011-1.011h2.57v-7.667c0-.505.506-1.01 1.011-1.01.548 0 1.095.505 1.095 1.01v7.667h2.653c.505 0 1.011.505 1.011 1.011zM244.9 262.319c0-3.622-2.948-6.065-6.571-6.065-3.58 0-6.528 2.443-6.528 6.065v11.625c0 .085-.042.127-.042.17-.042.083-.042.125-.084.168a.962.962 0 0 1-.632.505s-.042.042-.084.042H230.748c-.294 0-.589-.127-.8-.337a1.234 1.234 0 0 1-.168-.337c-.042-.125-.042-.21-.042-.336v-27.463c0-.548.464-1.012 1.011-1.012.59 0 1.054.465 1.054 1.012v10.866a8.526 8.526 0 0 1 6.528-3.032c4.76 0 8.635 3.369 8.635 8.128v11.5c0 .548-.463 1.011-1.053 1.011a1.025 1.025 0 0 1-1.011-1.011v-11.499zM253.991 264.552c0-5.729 4.465-10.361 10.025-10.361 5.307 0 9.519 4.212 9.94 9.603v.167c0 .548-.464.927-1.011.927h-16.932c.21 4.507 3.749 7.919 8.003 7.919a7.762 7.762 0 0 0 6.655-3.75c.295-.505.926-.588 1.348-.336.464.336.632.926.337 1.431-1.769 2.823-4.844 4.676-8.34 4.676-5.56.002-10.025-4.632-10.025-10.276zm2.148-1.643h15.627c-.674-3.874-3.96-6.697-7.75-6.697-3.876 0-7.119 2.781-7.877 6.697zM294.333 246.356c0-.548.464-1.012 1.011-1.012.589 0 1.053.465 1.053 1.012v27.463c0 .548-.464 1.011-1.053 1.011a1.025 1.025 0 0 1-1.011-1.011v-27.463zM335.861 262.614c-.084-3.496-2.864-6.402-6.403-6.402-3.496 0-6.36 2.906-6.36 6.402v11.372c0 .042-.042.085-.042.085v.083c-.085.254-.295.422-.505.548a1.115 1.115 0 0 1-.506.127H321.835c-.042 0-.084-.042-.084-.042-.085 0-.169-.085-.253-.125-.042 0-.084-.042-.126-.085l-.126-.127c-.041-.041-.041-.083-.084-.083 0-.042 0-.042-.042-.085 0 0 0-.042-.041-.085 0-.042 0-.083-.042-.125v-11.457c0-3.496-2.822-6.402-6.36-6.402-3.538 0-6.36 2.906-6.36 6.402v11.247a.906.906 0 0 1-.463.8c-.042.041-.169.125-.253.125-.042.042-.085.042-.169.042h-.252c-.38-.042-.716-.38-.843-.758v-18.87a.98.98 0 0 1 .969-.97c.589 0 1.011.422 1.011.97v1.979a8.24 8.24 0 0 1 6.36-2.948c3.201 0 5.939 1.77 7.371 4.381 1.474-2.611 4.255-4.381 7.413-4.381a8.377 8.377 0 0 1 8.382 8.382v11.247c0 .505-.421.968-1.011.968a.98.98 0 0 1-.969-.968v-11.247zM346.297 264.847v-9.646c0-.548.463-1.011 1.01-1.011.59 0 1.054.463 1.054 1.011v2.991c1.769-2.401 4.633-4.001 7.834-4.001 5.56 0 9.983 4.591 9.983 10.235 0 5.602-4.423 10.276-9.983 10.276-3.201 0-6.065-1.601-7.834-4.044v11.795c0 .548-.464 1.01-1.054 1.01-.548 0-1.01-.463-1.01-1.01v-17.606zm2.064-.421c0 4.549 3.58 8.213 7.834 8.255 4.381-.042 7.919-3.706 7.919-8.255 0-4.55-3.538-8.172-7.919-8.172-4.17 0-7.666 3.454-7.834 7.835v.337zM391.316 255.202v18.618c0 .548-.463 1.011-1.011 1.011-.548 0-1.01-.463-1.01-1.011v-3.076c-1.769 2.443-4.591 4.086-7.751 4.086-5.434 0-9.772-4.676-9.772-10.32s4.338-10.318 9.772-10.318c3.159 0 5.981 1.601 7.751 4.044v-3.033a.997.997 0 0 1 1.01-1.011.996.996 0 0 1 1.011 1.01zm-2.021 9.307c0-4.633-3.497-8.34-7.751-8.34-4.212 0-7.751 3.706-7.751 8.34s3.538 8.299 7.751 8.299c4.254.001 7.751-3.665 7.751-8.299zM398.512 264.467c0-5.727 4.718-10.276 10.614-10.276 2.443 0 4.76.841 6.571 2.274.421.295.506.927.126 1.39-.337.38-.927.505-1.39.168a8.477 8.477 0 0 0-5.308-1.853c-4.802 0-8.593 3.749-8.593 8.298 0 4.634 3.791 8.341 8.593 8.341a8.695 8.695 0 0 0 5.308-1.812c.463-.337 1.053-.21 1.39.169.38.463.295 1.095-.21 1.473-1.727 1.348-4.044 2.191-6.487 2.191-5.896 0-10.614-4.549-10.614-10.363zM431.15 255.202c0 .505-.505 1.011-1.011 1.011h-2.653v15.037c0 1.012 1.011 1.517 1.516 1.517.506 0 1.054.548 1.054 1.053 0 .505-.548 1.011-1.054 1.011-2.063 0-3.622-1.516-3.622-3.581v-15.037h-2.569c-1.01 0-1.01-.505-1.01-1.011 0-.505 0-1.011 1.01-1.011h2.569v-7.667c0-.505.506-1.01 1.011-1.01.548 0 1.095.505 1.095 1.01v7.667h2.653c.506 0 1.011.505 1.011 1.011zM462.06 254.191c5.433 0 9.772 4.717 9.772 10.318 0 5.604-4.339 10.32-9.772 10.32-5.391 0-9.772-4.717-9.772-10.32-.001-5.601 4.38-10.318 9.772-10.318zm0 18.618c4.212 0 7.751-3.708 7.751-8.299 0-4.591-3.539-8.34-7.751-8.34s-7.751 3.749-7.751 8.34c0 4.591 3.538 8.299 7.751 8.299zM487.116 246.44c0 .548-.465 1.012-1.012 1.012-1.431 0-2.189.294-2.611.8-.463.505-.843 1.516-.843 3.411v2.191h2.908c.588 0 1.053.463 1.053 1.011 0 .59-.464 1.053-1.053 1.053h-2.908v17.945c0 .548-.463 1.011-1.01 1.011-.59 0-1.053-.463-1.053-1.011v-17.945h-2.738c-.548 0-1.011-.463-1.011-1.053 0-.548.463-1.011 1.011-1.011h2.738v-2.191c.042-2.106.38-3.664 1.348-4.802 1.011-1.095 2.528-1.475 4.169-1.475.548.001 1.012.465 1.012 1.054zM506.189 246.356c0-.548.463-1.012 1.01-1.012H522.363c.59 0 1.01.465 1.01 1.012 0 .588-.42 1.053-1.01 1.053h-14.111v11.666h12.341c.548 0 1.012.465 1.012 1.055 0 .546-.464 1.01-1.012 1.01h-12.341v11.626h14.111c.59 0 1.01.463 1.01 1.053a.997.997 0 0 1-1.01 1.011H507.115a1.011 1.011 0 0 1-.926-1.011v-27.463zM547.925 255.202v18.618c0 .548-.463 1.011-1.01 1.011-.548 0-1.01-.463-1.01-1.011v-3.076c-1.77 2.443-4.591 4.086-7.751 4.086-5.432 0-9.771-4.676-9.771-10.32s4.339-10.318 9.771-10.318c3.16 0 5.981 1.601 7.751 4.044v-3.033a.997.997 0 0 1 1.01-1.011.996.996 0 0 1 1.01 1.01zm-2.021 9.307c0-4.633-3.496-8.34-7.751-8.34-4.212 0-7.75 3.706-7.75 8.34s3.538 8.299 7.75 8.299c4.255.001 7.751-3.665 7.751-8.299zM556.594 255.244c0-.59.465-1.012 1.055-1.012.505 0 .968.422.968 1.012v4.549c.085-.17.168-.337.295-.505 1.558-2.443 4.296-5.056 8.255-5.056a1 1 0 0 1 1.012 1.012c0 .548-.465 1.011-1.012 1.011-2.696 0-4.549 1.516-5.982 3.369-1.389 1.855-2.189 3.961-2.484 4.803-.085.168-.085.253-.085.336v9.057c0 .59-.463 1.011-.968 1.011-.59 0-1.055-.421-1.055-1.011v-18.576zM575.29 246.356c0-.548.464-1.012 1.012-1.012.589 0 1.053.465 1.053 1.012v27.463c0 .548-.464 1.011-1.053 1.011a1.025 1.025 0 0 1-1.012-1.011v-27.463zM586.407 255.159c0-.548.463-.968.968-.968.59 0 1.053.421 1.053.968v11.204c0 3.538 2.823 6.361 6.319 6.361 3.538 0 6.36-2.823 6.402-6.361v-11.204c0-.168.042-.38.17-.505 0-.042.041-.085.041-.127.042 0 .042-.042.085-.042.085-.126.253-.21.38-.253h.083c.042 0 .085-.041.127-.041h.252c.168.041.337.125.505.21.085.083.21.21.253.337a.8.8 0 0 1 .127.421V273.187c0 5.392-4.381 9.688-9.815 9.688-1.516 0-2.948-.378-4.254-.968-.463-.295-.675-.885-.422-1.348.254-.505.8-.632 1.307-.505a7.63 7.63 0 0 0 3.369.8c4.296 0 7.75-3.413 7.792-7.667v-1.348c-1.558 1.77-3.833 2.948-6.402 2.948-4.591-.042-8.34-3.791-8.34-8.425v-11.203zM624.474 269.311a.898.898 0 0 1 1.306-.125c2.191 1.768 5.854 3.833 9.688 3.791 2.569 0 4.886-.758 6.487-1.938 1.643-1.18 2.528-2.738 2.528-4.381 0-1.684-.8-2.948-2.402-4.044-1.601-1.053-3.959-1.853-6.823-2.401h-.085c-2.738-.505-5.139-1.263-6.95-2.486-1.811-1.178-3.033-2.948-3.033-5.139 0-2.231 1.222-4.169 3.076-5.517 1.853-1.348 4.339-2.148 7.118-2.148 3.876 0 6.782 1.896 9.099 3.411.42.295.546.843.253 1.306-.253.422-.843.548-1.265.253-2.316-1.516-4.844-3.116-8.087-3.116-2.401 0-4.549.715-6.022 1.77-1.475 1.094-2.318 2.526-2.318 4.042.042 1.475.717 2.57 2.191 3.581 1.475 1.01 3.666 1.728 6.319 2.233h.083c2.948.548 5.561 1.39 7.499 2.696 1.936 1.263 3.243 3.201 3.243 5.559 0 2.36-1.349 4.466-3.328 5.897-1.98 1.433-4.634 2.318-7.582 2.318-4.507-.042-8.425-2.318-10.868-4.254a.98.98 0 0 1-.127-1.308zM652.942 255.159a.997.997 0 0 1 1.01-1.011.998.998 0 0 1 1.012 1.011v11.246a6.383 6.383 0 0 0 6.317 6.404c3.538-.042 6.402-2.865 6.402-6.404v-11.246c0-.59.505-1.011 1.012-1.011.588 0 1.053.421 1.053 1.011v11.246c0 4.634-3.749 8.425-8.467 8.425-4.634 0-8.34-3.791-8.34-8.425v-11.246zM679.091 255.244c0-.59.465-1.012 1.055-1.012.505 0 .968.422.968 1.012v4.549c.085-.17.168-.337.295-.505 1.558-2.443 4.296-5.056 8.255-5.056a.998.998 0 0 1 1.01 1.012c0 .548-.463 1.011-1.01 1.011-2.696 0-4.549 1.516-5.982 3.369-1.389 1.855-2.189 3.961-2.484 4.803-.085.168-.085.253-.085.336v9.057c0 .59-.463 1.011-.968 1.011-.59 0-1.055-.421-1.055-1.011v-18.576zM715.523 273.187c0 5.349-4.339 9.688-9.73 9.688-1.517 0-2.948-.378-4.296-.968-.422-.295-.675-.885-.422-1.348.253-.548.843-.758 1.348-.464 1.053.507 2.106.759 3.371.759 4.296 0 7.708-3.413 7.708-7.667v-2.528c-1.728 2.486-4.549 4.044-7.708 4.044-5.392 0-9.688-4.59-9.688-10.276 0-5.561 4.296-10.235 9.688-10.235 3.159 0 5.98 1.601 7.708 4.044v-3.033c0-.548.463-1.011 1.053-1.011.505 0 .97.463.97 1.011v17.984zm-2.022-8.761c0-4.591-3.454-8.214-7.708-8.214-4.213 0-7.667 3.623-7.667 8.214 0 4.632 3.454 8.298 7.667 8.298 4.254 0 7.708-3.666 7.708-8.298zM725.244 248.462c0-.548.464-1.011 1.012-1.011.588 0 1.053.463 1.053 1.011v.968c0 .59-.464 1.095-1.053 1.095-.548 0-1.012-.505-1.012-1.095v-.968zm0 6.74a.998.998 0 0 1 1.012-1.011c.588 0 1.053.421 1.053 1.011v18.618c0 .548-.464 1.011-1.053 1.011a1.025 1.025 0 0 1-1.012-1.011v-18.618zM735.476 264.467c0-5.727 4.717-10.276 10.615-10.276 2.443 0 4.759.841 6.57 2.274.422.295.505.927.127 1.39-.337.38-.927.505-1.39.168a8.478 8.478 0 0 0-5.307-1.853c-4.803 0-8.594 3.749-8.594 8.298 0 4.634 3.791 8.341 8.594 8.341a8.692 8.692 0 0 0 5.307-1.812c.463-.337 1.053-.21 1.39.169.378.463.295 1.095-.212 1.473-1.726 1.348-4.042 2.191-6.485 2.191-5.898 0-10.615-4.549-10.615-10.363zM778.222 255.202v18.618c0 .548-.463 1.011-1.01 1.011-.548 0-1.01-.463-1.01-1.011v-3.076c-1.77 2.443-4.591 4.086-7.751 4.086-5.432 0-9.771-4.676-9.771-10.32s4.339-10.318 9.771-10.318c3.16 0 5.982 1.601 7.751 4.044v-3.033a.997.997 0 0 1 1.01-1.011.996.996 0 0 1 1.01 1.01zm-2.021 9.307c0-4.633-3.496-8.34-7.751-8.34-4.212 0-7.75 3.706-7.75 8.34s3.538 8.299 7.75 8.299c4.255.001 7.751-3.665 7.751-8.299zM787.777 246.356c0-.548.464-1.012 1.012-1.012.588 0 1.053.465 1.053 1.012v27.463c0 .548-.464 1.011-1.053 1.011a1.025 1.025 0 0 1-1.012-1.011v-27.463zM824.923 244.924c3.622 0 6.95 1.263 9.518 3.243.464.38.548 1.095.169 1.473-.337.507-1.011.548-1.433.212-2.274-1.77-5.139-2.865-8.255-2.865-7.372 0-13.269 5.771-13.269 12.974 0 7.034 5.897 12.806 13.269 12.806 3.116 0 5.981-1.012 8.17-2.865.507-.336 1.18-.253 1.475.253.42.38.337 1.138-.127 1.475-2.569 1.98-5.897 3.201-9.518 3.201-8.467 0-15.332-6.655-15.332-14.869.001-8.384 6.866-14.996 15.333-15.038zM860.126 255.202v18.618c0 .548-.463 1.011-1.01 1.011-.548 0-1.01-.463-1.01-1.011v-3.076c-1.77 2.443-4.591 4.086-7.75 4.086-5.434 0-9.773-4.676-9.773-10.32s4.339-10.318 9.773-10.318c3.159 0 5.98 1.601 7.75 4.044v-3.033a.997.997 0 0 1 1.01-1.011.996.996 0 0 1 1.01 1.01zm-2.021 9.307c0-4.633-3.496-8.34-7.75-8.34-4.213 0-7.751 3.706-7.751 8.34s3.538 8.299 7.751 8.299c4.254.001 7.75-3.665 7.75-8.299zM868.795 255.244c0-.59.464-1.012 1.054-1.012.505 0 .968.422.968 1.012v4.549c.085-.17.168-.337.295-.505 1.558-2.443 4.296-5.056 8.255-5.056a.998.998 0 0 1 1.01 1.012c0 .548-.463 1.011-1.01 1.011-2.696 0-4.549 1.516-5.982 3.369-1.389 1.855-2.189 3.961-2.484 4.803-.085.168-.085.253-.085.336v9.057c0 .59-.463 1.011-.968 1.011-.59 0-1.054-.421-1.054-1.011v-18.576zM883.619 264.552c0-5.729 4.464-10.361 10.025-10.361 5.307 0 9.518 4.212 9.94 9.603v.167c0 .548-.463.927-1.01.927H885.64c.212 4.507 3.75 7.919 8.004 7.919a7.76 7.76 0 0 0 6.655-3.75c.295-.505.927-.588 1.348-.336.463.336.632.926.337 1.431-1.77 2.823-4.844 4.676-8.34 4.676-5.561.002-10.025-4.632-10.025-10.276zm2.148-1.643h15.627c-.673-3.874-3.959-6.697-7.75-6.697-3.876 0-7.119 2.781-7.877 6.697z"/></g><g fill="#0096D6"><path d="M3.963 224.715h902.859M906.822 227.659H3.963a2.945 2.945 0 1 1 0-5.888h902.858a2.944 2.944 0 0 1 .001 5.888z"/></g><path fill="#005DAA" stroke="#005DAA" stroke-width="1.68" stroke-miterlimit="10" d="M101.173 153.499H28.829l-14.062 37.419c-.907 2.267-2.948 3.629-5.215 3.629-.453 0-1.36-.232-2.045-.232-2.719-1.13-4.301-4.535-3.174-7.254l55.11-147.192c.914-2.034 3.181-3.396 5.448-3.396 2.493 0 4.76 1.362 5.439 3.396l55.112 147.192c1.134 2.719-.228 6.124-2.948 7.254-.907 0-1.36.232-2.044.232-2.037 0-4.308-1.362-5.216-3.629l-14.061-37.419zm-68.265-11.115h64.185L65.111 57.109l-32.203 85.275zM167.489 41.916c0-2.944 2.493-5.444 5.446-5.444 3.174 0 5.668 2.5 5.668 5.444V189.78c0 2.953-2.493 5.453-5.668 5.453-2.952 0-5.446-2.5-5.446-5.453V41.916zM342.721 58.492l-50.802 70.53c-1.134 1.815-2.948 2.491-4.535 2.491h-.452c-2.048 0-3.629-.676-4.767-2.491l-50.799-70.31V189.12c0 2.952-2.493 5.451-5.446 5.451-3.174 0-5.668-2.5-5.668-5.451V42.156c0-1.815.908-3.396 2.271-4.301 0-.233.222-.233.455-.453 2.487-1.595 5.894-1.138 7.706 1.357L287.151 117l56.246-78.241c1.59-2.495 5.22-2.952 7.713-1.357.679.672 1.133 1.129 1.586 1.815.455.904.908 2.034.908 2.939v146.963c0 2.952-2.493 5.451-5.442 5.451-3.174 0-5.442-2.5-5.442-5.451V58.492zM395.251 41.916c0-2.944 2.493-5.444 5.439-5.444h81.648c3.171 0 5.439 2.5 5.439 5.444 0 3.172-2.267 5.672-5.439 5.672h-75.974v62.824h66.448c2.944 0 5.443 2.491 5.443 5.663 0 2.952-2.5 5.453-5.443 5.453h-66.448v62.589h75.974c3.171 0 5.439 2.49 5.439 5.663 0 2.953-2.267 5.453-5.439 5.453h-82.101a5.458 5.458 0 0 1-4.987-5.453V41.916z"/><path fill="#005DAA" d="M560.711 175.436h-.025c-22.418-.206-41.006-12.326-50.091-19.534-2.936-2.594-3.35-7.012-1.053-9.954 2.464-3.095 7.248-3.497 10.112-.944 4.594 3.699 21.423 16.08 40.529 16.08l.496-.003c10.312-.001 20.166-2.926 27.078-8.028 6.476-4.637 10.022-10.689 10.022-17.069 0-6.288-2.889-11.072-9.369-15.508-6.518-4.283-16.266-7.708-28.921-10.152l-.626-.049c-13.836-2.546-24.301-6.307-31.996-11.498-9.517-6.193-14.781-15.18-14.781-25.282 0-10.379 5.288-19.936 14.888-26.91 8.963-6.52 20.813-10.113 33.363-10.113 18.152 0 31.957 9.037 42.037 15.637 3.298 2.316 4.127 6.542 2.008 9.882-1.185 1.963-3.436 3.215-5.843 3.215a6.875 6.875 0 0 1-3.986-1.261c-9.492-6.203-20.345-13.302-34.216-13.302-9.407 0-18.528 2.664-25.031 7.31-5.817 4.323-9.043 9.856-9.043 15.542.155 5.459 2.682 9.508 8.437 13.456 5.74 3.93 14.717 7.091 26.674 9.397l.634.05c14.831 2.747 26.087 6.812 34.417 12.423 10.119 6.606 15.712 16.261 15.712 27.163 0 10.818-5.834 21.244-16.008 28.605-9.684 6.997-22.259 10.847-35.418 10.847z"/><path fill-rule="evenodd" clip-rule="evenodd" fill="#0096D6" d="M640.986 198.972c.417 1.164 1.977 1.153 3.394 1.726.479.231 1.251-.072.758-.592a1.628 1.628 0 0 1-.085-.11c-.229-.297.22-.058.574-.1.37-.05 1.348.99 1.629.89.337-.137.115-.797-.615-1.23-.215-.125-.191-.081.035-.056.072.006.165.008.275-.009.185-.027.168-.053.308.077.209.196.466.419.68.573.204.159.689.06.582-.198-.028-.055-.06-.1-.083-.143-.053-.083-.069-.096.025-.069.185.055.388.067.403-.093.057-.295-.62-.78-1.161-1.105a.63.63 0 0 1-.107-.082.704.704 0 0 0-.395-.193c-.105-.019-.163-.022-.263-.069-.394-.166-.797-.232-1.229-.112-.32.089-.301.05-.609-.11a3.42 3.42 0 0 0-.902-.328c-.373-.079-.406-.038-.362-.334.071-.494.002-1.001-.105-1.513-.064-.317-.05-.565-.036-.89.096-1.74.184-3.485-.392-5.288a11.443 11.443 0 0 1-.323-3.146c.017-.573.111-.967.262-1.506.497-1.768.3-3.377-.414-4.864-.413-.857-.573-.747.389-.545a6.12 6.12 0 0 0 1.593.149c1.138.064 1.79-.395 1.961-1.428.088-.533.005-.444.394-.788.229-.201.45-.494.587-.871.105-.282.049-.4.315-.567.301-.188.458-.213.634-.463.138-.202.041-.571-.036-.988-.039-.213-.078-.245.086-.381.979-.836.184-1.291-.267-2.137-.254-.634.323-1.136.752-1.864.852-1.831.038-3.223-.565-4.874-.935-2.573-3.276-4.896-8.032-4.966-6.444.188-9.432 5.471-6.149 12.274.532 1.847-3.297.6-6.564 4.142-1.848 1.426-2.785 1.193-6.173.959-10.654-.62-12.005 5.869-11.627 10.59 0 1.05-.541 1.825-1.043 2.52-.323.447-.297.148-.686-.17-1.332-1.097-3.678-1.632-6.744-1.77-.149-.008-.201-.011-.33-.086a3.419 3.419 0 0 0-.773-.334c-.111-.028-.122-.072-.196-.166-.852-1.092-2.227-1.175-4.127-.246-.334.165-.651.231-1.009.331-2.285.642-2.344 1.371-3.319 1.466-.45.033-.877.17-.89.626 0 .071.006.061-.044.11-.132.108-.201.273-.154.433.019.064.035.05-.011.099a.526.526 0 0 0-.13.567c.031.075.061.071-.008.116-.563.378-.322.949.311 1.119 1.633.54 3.441.416 5.423-.372 1.486-.533 4.786.659 7.069 1.483.65.235.458.14-.049.411-1.149.621-2.074 1.878-2.917 3.361-.218.383-.191.312-.61.383a1.912 1.912 0 0 0-.774.303c-.256.174-.22.182-.519.132-1.324-.22-1.787.741-1.2 1.324.731.684 1.681.692 2.373.695 1.626.033 3.177-.317 4.698-.844.786-.275 1.054-.121 1.867.112 3.927 1.131 7.838 2.219 11.32 2.263 1.985.169 3.283-.278 3.896-1.354 1.326-2.233 1.222-7.138.474-9.762-.122-.431-.303-.516.192-.417 1.309.272 2.023.202 3.229-.011.604-.11.632-.243.441.367-.989 3.145-1.368 7.177-.598 9.966.074.265.097.366.074.634-.113 1.357 1.71.676 2.941 1.444.552.347 1.191.275.907-.226-.055-.102-.052-.08.063-.077.907.013 1.809.248 2.244.347.224.017.361-.024.381-.166.011-.077-.011-.064.072-.041.373.121.665-.045.535-.264-.03-.052-.05-.05.016-.033.273.074.388-.165.248-.331-.541-.626-1.786-.962-2.446-1.034-.391-.042-.246-.008-.494-.278-.209-.228-.545-.422-.822-.56-.177-.089-.188-.052-.126-.238a7.79 7.79 0 0 0 .406-2.084c.047-.673.099-1.065.315-1.706a20.506 20.506 0 0 0 1.01-4.737c.036-.419-.063-.62.275-.858.171-.127.298-.284.38-.465.118-.27.096-.228.402-.3 1.042-.251 1.977-.612 2.671-1.098.502-.35.613-.428 1.219-.576 1.031-.248 1.911-.665 2.762-1.136.555-.303.435-.275.363.319-.132 1.109-.111 2.071.061 2.884.121.56.235 1.092.323 1.663.412 2.761.887 5.403 1.916 6.894zm-27.092-3.339a2.627 2.627 0 0 1-.532-.923c-.144-.428-.035-.471-.318-.085a5.435 5.435 0 0 1-.89.943c-.296.254-.292.204.083.163a5.816 5.816 0 0 1 1.569.045c.325.058.301.1.088-.143zM664.447 167.913c.296.497.045 1.326.166 2.139.05.384.734.33.83 0 .11-.249.151-.502.216-.783.162.168.282.323.595.475.408.184.617-.53.416-.943-.044-.089-.118-.17-.174-.253a2.605 2.605 0 0 0-.29-.367c-.11-.118-.094-.115-.044-.268.061-.204.086-.414.086-.634a1.11 1.11 0 0 1 .088-.516c.082-.245.112-.475.116-.714.006-.308-.023-.42.122-.686.135-.237.229-.485.297-.736.14-.504.234-.614.438-.067.209.551.152.766.526 1.329.671.86 1.392.331 1.293-.372-.094-.803-.444-1.23-.51-1.778-.047-1.726-.457-3.353-1.2-4.764-.24-.471.177-1.382.331-2.437.152-1.036.097-1.089.595-2.005.591-1.083 1.279-2.904 1.817-4.503 1.003-2.961.75-3.038.786.04.031 2.274.245 4.297.993 7.631 2.208 7.926-8.523 15.285-4.806 16.711.501.19.406.457.672.924 1.362 2.416 5.106 2.685 7.643 3.135 1.698.298 1.35.16.907 1.549-1.43 4.492.687 12.851-.562 15.939-.637 1.566-.176 3.623 1.048 4.146 2.625 1.213 5.285 1.404 7.789 2.865.806.494 1.483.347 1.624-.03.05-.14-.005-.173.151-.121.515.17.83-.078.846-.322.006-.125-.028-.119.115-.074.84.212 1.097-.337.819-.568-.06-.053-.055-.113.082-.082.417.097 1.023-.093.654-.57-.033-.041-.044-.056.033-.058.378-.041.83-.201.835-.717 0-.828-1.922-.621-3.18-1.353-1.324-.769-2.015-1.652-3.372-2.548-.808-.537-1.219-.91.176-1.301 2.052-.57 6.562.187 7.786-1.166.355-.499-.224-.998-.827-.943-.082.005-.173.042-.093-.055.202-.253-.078-.613-.519-.496-.085.025-.069-.003-.033-.047.217-.257.014-.601-.399-.543-.078.014-.061-.028-.061-.074.071-.22-.171-.378-.694-.328-.229.025-.607.143-.948.061-2.675-.643-3.998.293-3.785-.717.499-1.993 1.455-7.182 1.619-11.918 2.93-.044 4.888-.267 6.049-.56 2.037-.524.466-1.45 2.529-1.608 1.417-.105 3.465-.146 3.767-1.323.941-3.526 2.161-1.968 3.8-3.609 3.647-4.191-5.092-10.752-6.391-16.75-.331-6.911.967-6.577-.303-13.429 1.208 2.041 4.041 3.094 4.442 3.928.502 1.124 1.017 2.19 1.616 2.807.33.876.915 1.669 1.237 2.087.29.376.772-.028.678-.395-.071-.272-.267-.868-.207-1.189.1-.516.549-.314.954-.004.72.555 1.429 1.815 1.549 1.994.408.609.985.17.908-.253-.082-.459-.469-1.417-.813-2.038.598.154 1.679 1.887 1.789 2.038.359.479 1.055-.064.847-.563-.044-.105-.18-.786-1.44-2.032.841.461 1.142.85 1.762.93.353.039.545-.425.083-.78-1.145-.883-2.137-1.905-2.595-2.325-.637-.635-3.317-1.39-3.73-2.299-1.71-3.105-2.043-5.978-4.4-8.68-1.979-3.644.314-8.104-6.178-9.897 1.316-1.294 1.855-3.509 1.883-4.552.055-2.137-.708-4.988-.708-6.041.02-1.034.72-2.326.852-3.563.289-2.724.185-5.455-3.89-6.586-.775-.215-1.373-.463-2.118-.76-2.617-1.054-5.093-.67-7.604-.075-.339.079-.537.145-.502-.287.08-1.031.681-1.417.113-2.166-.86-1.065-2.449-.644-2.872.154-.317.661-.242 1.291.18 1.832.129.162.033.231-.093.14-.384-.268-.828-.67-1.368-1.28-1.516-1.688-3.744 1.61-2.926 2.68.364.483 1.389.585 2.608.632.111 0 .129.148-.01.15-1.307.024-3.039-.029-3.171 1.311-.082 1.351.446 2.542 1.216 2.303.774-.356 1.597-1.215 2.25-1.637.071-.046.14.006.077.085-.905.964-1.773 2.392-1.982 3.572-.356 1.997.254 3.672 1.033 5.34-1.367.609-.626 2.263-.042 3.607 1.2 2.678 1.739 2.979 2.179 2.821.709.516 1.105 1.567 1.022 2.709.003 1.725-4.284 4.505-6.749 6.416-3.027 1.881-4.202 10.083-6.302 15.125-1.332 3.502-1.508 8.416-1.142 11.793.268 1.549-.53 4.077-.234 5.713a15.677 15.677 0 0 0 1.334 3.427zM725.886 201.021c-.374 3.032 8.638 3.036 9.412-.097 1.331-5.126 3.642-6.782 2.708-9.865-.141-.465-.154-.69-.158-1.178a5.96 5.96 0 0 0-.1-1.044c-.14-.687-.173-.846.003-1.552l.634-2.525c.744-2.437 8.688-.496 9.463-2.346.764-1.679 1.122-4.016 1.346-6.333.187-1.955.444-3.553.923-5.456 1.136-4.525 2.089-9.856 2.614-14.535.303-2.707.209-2.624 1.279-.069 3.325 7.951 2.638 15.679 4.621 22.796.356 1.444 2.476 2.286 3.975 2.959.626.224.723.766.428 1.29-.177.413-.606.643-1.033 1.593-.482 1.078-.417 2.776-.336 4.494-.11 1.384.678 2.92 2.586 3.706 1.451.731 1.309 2.473 1.908 3.932.976 3.131 9.774 2.084 9.013-.995a.74.74 0 0 1-.022-.373c.614-3.546-2.71-6.611-4.499-10.091-.786-1.557-.984-2.222-.919-3.697.055-1.247 2.532-1.166 2.644-2.974.016-6.165.135-12.624-.985-18.913-.272-1.535-.439-2.941-.618-4.477a16.866 16.866 0 0 0-.34-1.932c-.463-1.986-.512-2.774-.367-4.82.238-3.342-.129-6.684-.311-10.026-.06-.487.744-.397.898-1.012.278-1.712-2.027-3.399-2.666-5.555-1.534-3.573-1.498-9.787-.927-12.081.532-1.77.578-3.465.516-5.395-.064-2.018-.185-1.826.777-.159.992 1.709 2.03 3.369 2.749 5.329 1.759 5.168 4.921 10.169 5.28 15.502.229 1.917-.577 2.248-.957 4.195-.364 1.266-.045 4.666-.045 6.349-.033.81 1.252.78 1.381.041.138-1.054.146-1.688.286-2.743.069-.628.406-.905.786-.475.62.918.976 1.308.585 2.353-.268.425-.791.443-.981.479-.381.057-.336.611.047.661.041.003.057.011-.006.028-.563.172-.494.598-.3.661.044.013.039.002 0 .029-.281.196-.259.588.05.561.019-.002.022 0 0 .012-.287.143-.34.667.26.655 1.417-.129 2.029-.426 2.724-1.067 1.044-1.105 1.508-1.866 1.654-2.598.107-.559.055-1.218.085-1.796.107-1.966-.028-3.951-1.04-6.003-.428-.866-.697-1.32-.86-2.29-.882-5.236-1.299-10.55-2.699-15.803-.438-2.451-1.756-4.666-2.541-7.063-.643-1.254 2.832-2.985 2.021-3.931-.226-.412-.45-.824-.673-1.237-1.227-4.225-3.6-10.659-6.063-12.914-2.059-2.097-4.754-1.618-6.637-3.872-1.166-1.46-2.016-2.167-3.262-2.542-1.083-.324-.995-.053-.235-.904 1.158-1.293 1.778-2.818 1.996-4.514.072-.542.047-.405.42-.73.576-.509.664-1.65.416-3.542-.108-.824.035-.89.424-1.62 3.694-6.922-4.244-12.036-10.424-10.392-.604.16-.861.176-1.48.167-1.646-.027-3.509.73-4.7 2.519-1.5 2.255-1.646 5.124-.951 7.318.173.549.221.727.171 1.306-.176 2.041.159 3.559.979 4.387.505.512.488.475.64 1.226.203.984.479 1.884.808 2.725.221.574.144.494-.538.621-1.072.199-2.175.662-3.256 1.696-1.632 1.56-1.757 1.464-3.937 2.22-3.622 1.26-6.531 4.172-8.826 11.508-.988 2.634-3.021 4.554-4.163 7.309-.545 1.097 2.551 1.434 2.081 2.809-1.05 3.423-2.526 8.08-3.121 11.793-.613 2.129-.78 8.826-1.249 14.119-.513 4.309-4.048 6.579-3.039 9.588.061.19.066.203.008.395-.282.94-.074 1.556.185 2.146.077.178.104.294.127.488.157 1.212.42 1.542.648 2.88.146.856 1.247.446 1.169-.306-.279-2.44.171-3.593 1.47-4.8.351-.327.322-.25.331.117.055 1.964.066 3.036 1.45 4.325.416.411 1.329.042 1.114-.477-.428-1.019-.62-1.928-.422-3.046.328-1.801.752-2.704 1.317-3.287.322-.333.962-.366.99.357.028.803.077 1.615.177 2.398.163 1.274 1.761.715 1.674-.211-.286-2.55.587-4.719-.496-6.799-.574-1.107-.753-1.076-.75-2.424.014-4.652.099-9.112 1.055-13.693.769-2.066 2.406-6.746 3.361-9.385.345-.95.132-.838.985-.57.359.115.704.144.989.115.138-.014.37-.009.403.357.377 3.97-.072 7.726.303 11.695-.56 3.931-.072 7.532-1.53 11.885-.453 1.46-.879 1.633-.912 2.171-.049.692 1.941.531 1.546 1.11-1.831 4.449-1.633 10.203-2.46 15.746-.039 1.138-2.12 1.007-1.588 1.98.51 1.771.428 2.591.565 4.85.523 5.264-2.09 10.761-2.406 16.36-.168 1.163 1.828.929 1.367 2.261-.22.797-.363 1.79-.546 2.693-.146.747-.133 1.108-.737 1.185-2.412.348-3.247 3.767-3.626 7.097-.069.53-.113.717-.394 1.163-1.16 1.85-1.921 3.651-1.691 5.442.017.151.014.235-.003.382zM794.918 47.865c-.077-2.892.417-5.859 2.035-8.976.948-1.703 1.348-4.413 1.497-7.577.654-8.205 5.112-11.142 9.92-11.917 2.694-1.093 5.694-.921 8.073.937.992.773 1.467 1.156 2.577 1.734 3.079 1.601 4.249 5.206 3.86 9.047 0 2.159.731 4.187 2.195 6.082 1.867 3.107.34 6.68-.948 8.824-2.101 2.709-2.318 4.822-.731 5.159 2.696.576 4.394 3.218 5.37 5.76 2.186 4.067 3.774 7.934 5.961 12 1.42 2.638 1.591 4.389 1.464 7.41-.259 6.094-.938 11.859-1.219 17.933-.02.39 0 .711.052 1.097.19 1.328.297 2.315-.003 3.492-.234.898-.174.841.276 1.678 1.836 3.419 1.133 5.215 4.598 13.23 1.061 1.982-6.412 1.964-6.815 4.734-1.353 9.402-4.273 16.209-5.439 19.955-.358 1.142-.402 2.086-.549 3.237-.18 1.398-.646 2.488-1.017 3.669-.38 1.211-.347 2.213-.385 3.47-.361 11.484-5.046 20.891-5.803 34.132-.08 2.575 1.91 6.162 3.118 9.572.628 2.65 2.269 3.339 2.917 4.213 1.277 1.564.384 2.781-2.089 2.84-.457.013-.355-.006-.061.298 3.287 3.452-1.288 3.782-8.072 3.094-2.57-.345-4.077-2.853-5.118-5.925-.148-.433-.138-.554-.16-.017-.036.742-.066 1.39-.104 2.132-.006.331-.993.292-.999-.002-.232-3.014.221-6.243-1.885-8.658-.987-1.133-1.219-1.924-1.164-2.853.122-1.075.65-2.812 1.296-4.091.521-1.025.705-1.618.815-2.807.805-8.594-2.528-22.484 3.482-31.647 1.28-1.847 1.837-3.954.794-6.631-2.509-7.825-5.909-15.63-10.838-23.579-.465-.746-2.449-.34-2.939-1.087-2.165-3.367-1.381-8.413-1.301-12.914.038-2.175-.155-2.376-1.568-3.971-4.726-5.336-7.656-9.981-10.714-16.53-.43-.92-.883-1.749-1.372-2.629-.662-1.203-1.101-2.497-.898-4.038.127-.983.259-1.939.38-2.93.391-3.205 1.714-6.54 3.132-9.888.747-1.763.943-2.205 1.316-4.026 1.1-5.374 2.286-10.71 6.399-11.971.847-.26.687-.15.664-1.065zm30.8 23.701c-.193 5.06-1.932 9.131.538 14.91.548 1.288 1.968 2.221 3.113 3.623 1.538 1.888 1.059 2.091.968-.639-.105-3.168-.096-6.911-.281-9.656-.121-1.761.028-4.191-.965-5.607-.562-.796-1.353-1.985-2.099-3.061-1.564-2.264-1.186-1.957-1.274.43zm-31.701 3.91c-.143.285-.286.57-.428.857-.926 1.848-.967 2.284-.209 4.226 1.2 3.065 2.098 6.043 3.83 8.945.46.85 1.149 1.245 1.185-.381.204-2.391.846-3.756.331-6.404-.424-2.185-1.346-4.256-2.732-7.06-1.095-2.21-.839-2.461-1.977-.183zM874.855 191.478c-1.44 1.916-2.004 3.782-1.571 5.569.099.411.091.362-.041.739-.174.505-.096 1.181.036 1.693 1.065 3.381 7.886 3.741 11.621 1.858 1.058-.573.828-1.88.739-2.617-.218-2.612 1.083-4.277.336-7.353-.262-.712.956-1.141 1.966-1.483 1.564-.532 2.366-1.668 2.021-2.751-.72-2.867-2.909-4.949-2.476-7.797.664-3.874.38-6.719-.686-10.43-1.134-3.454-1.687-6.724-1.188-9.67.866-2.829 1.423-6.636 1.613-11.615 1.241-7.53 2.815-15.117 5.3-22.873.191-.752.785-.435.846.762.281 5.99.621 11.918 2.034 16.771 2.57 5.154 2.851 7.978 2.371 12.664-.347 2.944-.055 5.522-.588 8.464-.73 4.036-1.91 8.152-3.603 13.179-1.641 5.682-.854 10.13 1.409 13.448.29.428.268.438.184.952-.367 2.142-.264 3.961 1.001 4.846 1.951 1.159 4.26 1.353 6.551 1.378 1.691.173.861 3.742 5.679 5.421 4.318 1.202 9.951.786 11.392-1.569.108-.182.022-.395.038-.555.193-1.95-1.373-3.651-3.223-5.031-.953-.709-2.23-1.158-3.043-1.864-.796-.684-1.797-1.585-2.394-2.518-.226-.358-.193-.502-.257-.898-.193-1.142-1.241-2.217-1.946-3.317-.29-.46-.331-.414.097-.701 4.88-3.3.868-8.633 2.186-14.813 3.207-9.418 2.142-18.997 3.611-28.494.819-3.727-.347-5.625-.242-8.758.982-13.389-.013-26.888-3.297-41.845a.627.627 0 0 1-.017-.197c.067-.962.023-1.976-.209-3.071-.052-.235.058-.272.058-.514-.013-4.635-2.627-21.194-1.605-23.675.06-.148.049-.127.152-.024.618.59 1.34.924 2.112 1.131.191.054.169.06.22.253 1.856 6.685 5.017 12.977 9.962 19.021.741 1.061.828 2.282-.508 3.855-1.222 1.617-.667 4.142-1.092 6.532-.148.902-.286 2.242-.138 2.955.188.77 1.996.479 2.506-.622.375-.671.614-1.706.636-2.73.006-.404.135-.566.549-.668 1.695-.431 2.175 1.121 1.836 3.44-.229 1.487-1.006 2.882-1.087 4.804-.035 1.033.628 1.292 1.386 1.113.136-.031.132-.066.136.074.053 1.356 1.213 1.401 2.02.774.089-.071.066-.06.118.035.366.62 1.139.875 1.684.328.518-.571.894-1.459 1.274-2.338.044-.105.024-.089.099-.033.246.181.689.065.81-.261 1.058-2.646 1.233-2.471 1.56-3.727.249-.972.009-2.069-.3-2.735-.861-2.569-1.875-5.142-4.149-7.938-.215-.265-.22-.3-.228-.642-.033-1.194-.237-2.412-.588-3.653-1.546-7.758-3.628-15.155-7.202-21.561-.243-.672.326-1.152 1.266-1.542 2.457-.708 2.534-1.902 1.944-3.233-2.647-6.144-6.096-12.285-9.644-18.432-1.116-2.457-3.101-4.583-5.677-6.477-3.031-2.025-7.893-3.711-12.5-5.445-.193-.073-.199-.075-.079-.242.534-.731.725-1.241.913-2.201.165-.831.505-1.606.632-2.43.049-.318.02-.319.282-.493.424-.282.727-.655.736-1.24.001-.367-.005-.511.118-.869.926-2.779 1.251-5.042-.254-5.739-.417-.192-.345-.127-.281-.615.538-4.092 1.296-7.719-2.947-10.122a5.537 5.537 0 0 1-.913-.638c-3.526-2.945-8.183-3.086-11.459-1.339a3.267 3.267 0 0 1-.758.308c-5.421 1.521-5.482 6.033-4.077 12.742.209.993.155.741-.764.867-2.324.318-2.112 2.515-.351 5.854.177.341.337.678.502 1.024.366.771.755 1.072 1.235 1.099.295.02.361-.05.389.269.009.11.009.177-.009.286-.019.162-.05.265-.282.456-.697.566-1.273 1.99-1.838 3.452-.425 1.093-.722 1.068-1.803 1.546-6.365 2.821-12.566 5.808-15.749 11.812-1.395 2.151-1.318 5.952-2.666 8.321-3.504 5.554-5.075 11.421-7.155 17.805-1.001 2.243 3.488 3.069 5.376 3.797.466.199.491.625.54 1.359.201 2.89-1.293 10.243-1.56 14.349-.125 3.213.527 12.711 2.081 19.526.237 1.027.182 1.365.049 2.387-.215 1.662-.19 3.63-.813 5.006-.692 1.356-.3 2.966-.482 6.662-.132 1.334.668 2.027 1.409 2.21.099.025.089.023.121.123.353 1.121.588 1.355 1.552 1.313.159-.005.141-.017.22.118.475.802 1.152.569 2.085 1.655.935 1.09 1.764.772 2.686.929.532.107.993.131 1.472.077.62-.024 1.28.546 1.547.651.642.315 1.142-.85.359-1.5-1.05-.904-1.473-2.048-2.244-2.839-.41-.42-.345-.322-.326-.917.036-.785-.171-1.365-.414-1.912-.147-.335-.212-.489-.193-.862.017-.379.063-.777-.044-1.209-.136-.563.221-1.102.428-1.252.436-.315.997-.077 1.225.183.582.76.598 1.952.901 2.882.356 1.091 1.007 1.89 1.938 2.338 1.089.288 1.365-.275 1.164-.944-.304-1.293-.246-2.686-.657-3.598-1.329-2.766-1.8-6.28-4.618-9.275-1.498-2.277-1.114-8.419-1.094-11.962-.119-3.671 1.037-5.884 1.428-10.489.093-1.085 1.061-13.837 1.979-13.757 1.563.135 2.244.23 3.656 0 .606-.1-.802 14.249-.954 14.892-.309 1.285-.573 2.336-.728 3.684-.121 1.049-.366 2.892-.348 4.444.075 6.783.251 11.299.279 11.84.201 3.716 1.409 7.344 1.839 10.848.078.647.119 1.284.103 1.907-.681 5.184-.987 10.306-.257 15.265.493 8.345 1.979 15.093 2.967 22.639 1.208 7.64-.88 14.834 1.674 22.327.071.212.017.323-.052.527-1.349 3.785-1.519 7.408.432 10.482.217.333.234.274-.008.594z"/></svg>