<svg xmlns="http://www.w3.org/2000/svg" width="327.4" height="283.5" viewBox="0 0 327.4 283.5"><g fill="#614776"><path d="M72.6 193.1c1.2 1.2 1.7 2.8 1.7 4.8v78.5c0 2-.6 3.6-1.8 4.8-1.2 1.2-2.7 1.9-4.6 1.9-2.2 0-3.9-.9-5.1-2.6l-50.3-66.4v62.3c0 2-.6 3.6-1.7 4.8-1.2 1.2-2.7 1.9-4.6 1.9-1.9 0-3.4-.6-4.5-1.8-1.1-1.2-1.7-2.8-1.7-4.9v-78.5c0-2 .6-3.6 1.8-4.8 1.2-1.2 2.7-1.9 4.6-1.9 2.2 0 3.9.9 5.1 2.6l50.3 66.5v-62.4c0-2 .6-3.6 1.7-4.8 1.1-1.2 2.6-1.9 4.5-1.9 2 0 3.5.7 4.6 1.9zM97.2 281.3c-1.2-1.2-1.8-2.8-1.8-4.9v-78.1c0-2 .6-3.5 1.7-4.7 1.2-1.2 2.8-1.7 4.8-1.7h31c9.6 0 17 2.4 22.3 7.1 5.3 4.7 8 11.4 8 20s-2.7 15.2-8 20c-5.3 4.8-12.8 7.2-22.3 7.2h-24.3v30.2c0 2.1-.6 3.7-1.7 4.9-1.2 1.2-2.8 1.8-4.9 1.8-2 0-3.6-.6-4.8-1.8zm34.3-45.7c12.7 0 19-5.5 19-16.6 0-11-6.3-16.4-19-16.4h-22.9v33h22.9zM180.9 280.7c-1.2-1.2-1.7-2.7-1.7-4.7v-77.7c0-2 .6-3.5 1.7-4.7 1.2-1.2 2.8-1.7 4.8-1.7H233c2 0 3.5.5 4.6 1.4 1.1.9 1.6 2.3 1.6 4 0 1.7-.5 3-1.6 3.9-1.1.9-2.6 1.3-4.6 1.3h-40.8V231h38.3c2 0 3.5.5 4.6 1.4 1.1.9 1.6 2.3 1.6 4 0 1.7-.5 3-1.6 4-1.1.9-2.6 1.4-4.6 1.4h-38.3v29.9H233c4.1 0 6.2 1.8 6.2 5.3 0 1.7-.5 3-1.6 4-1.1.9-2.6 1.4-4.6 1.4h-47.3c-2 0-3.6-.5-4.8-1.7zM263 274.1c-6.3-6.2-9.4-15.5-9.4-27.6v-48.6c0-2.1.6-3.7 1.8-4.9 1.2-1.2 2.8-1.8 4.8-1.8s3.6.6 4.8 1.8c1.2 1.2 1.8 2.8 1.8 4.9v49.5c0 8.3 2 14.6 6 18.9 4 4.3 9.9 6.4 17.8 6.4 7.8 0 13.7-2.1 17.7-6.4 4-4.3 6-10.6 6-18.9v-49.5c0-2 .6-3.6 1.8-4.8 1.2-1.2 2.8-1.9 4.8-1.9s3.6.6 4.8 1.8c1.2 1.2 1.8 2.8 1.8 4.9v48.6c0 12.1-3.1 21.3-9.4 27.6-6.3 6.3-15.4 9.4-27.4 9.4-12.2 0-21.4-3.2-27.7-9.4z"/></g><path fill="#614776" d="M184.1 44.7c0-24.7-20-44.7-44.7-44.7-24.7 0-44.7 20-44.7 44.7 0 24.7 20 44.7 44.7 44.7 24.7 0 44.7-20 44.7-44.7"/><path fill="#BE955B" d="M244.6 37.8c3.4-8.5-.8-18.1-9.3-21.5-8.5-3.4-18.1.8-21.5 9.3-3.4 8.5.8 18.1 9.3 21.5 8.5 3.4 18.2-.8 21.5-9.3M172.5 110.4c4.9.6 21.1 2.5 42.8-10.5 16.1-9.7 26.6-23.7 27.6-32.1 1-6.8-3.7-13-10.5-14-2.9-.4-5.3.1-8 1.6-8.4 4.4-10.5 19.9-18.3 31.5-11.7 17.1-26.2 17.7-33.2 18-1.5 0-2.8 1.2-2.8 2.8 0 1.4 1.1 2.6 2.4 2.7z"/><path fill="#614776" d="M240.2 89c-7.4 9-29.4 28.9-56.3 28.9s-40.1-13.5-60.2-21.8c-15.7-6.6-33.9.8-40.5 16.5-4.9 11.6-2.1 24.6 6 33.2 13.7 15 41.5 25.9 86.7 10.9 45.2-15 67.1-58.3 70.2-64 .9-1.7.1-3.8-1.6-4.6-1.4-.9-3.3-.4-4.3.9z"/></svg>