<svg xmlns="http://www.w3.org/2000/svg" width="873.282" height="283.465" viewBox="0 0 873.282 283.465"><path fill="#FFF" d="M13.78 141.732c0-70.552 58.517-127.95 130.442-127.95h303.809v255.899H144.222c-71.925.001-130.442-57.396-130.442-127.949z"/><path fill="#933961" d="M558.291 207.809V79.99c0-6.712 5.199-11.907 11.911-11.907h25.56c41.81 0 75.611 34.007 75.611 75.597 0 42.029-33.802 76.041-75.611 76.041h-25.56c-6.712 0-11.911-5.415-11.911-11.912zm24.042-12.136h13.428c28.602-.215 51.567-23.177 51.567-51.994 0-28.377-22.966-51.554-51.567-51.554h-13.428v103.548zM703.212 207.809V79.99c0-6.712 5.191-11.907 11.907-11.907h70.842c6.276 0 11.907 5.195 11.907 11.907 0 6.721-5.631 12.136-11.907 12.136h-58.706v39.643h50.469c6.501 0 11.92 5.63 11.92 11.912 0 6.721-5.419 12.136-11.92 12.136h-50.469v39.858h58.706c6.276 0 11.907 5.415 11.907 12.136 0 6.497-5.631 11.912-11.907 11.912h-70.195c-.431 0-.431-.215-.431-.215l-.216.215c-6.715-.002-11.907-5.417-11.907-11.914z"/><g fill="#933961"><path d="M729.054 0h-584.83C64.7 0 0 63.58 0 141.732s64.7 141.732 144.224 141.732h584.83c79.527 0 144.228-63.58 144.228-141.732S808.582 0 729.054 0zM13.782 141.732c0-70.552 58.517-127.95 130.442-127.95h303.812v255.899H144.224c-71.925.001-130.442-57.396-130.442-127.949z"/><path d="M161.883 183.973h-52.642l-10.618 28.162a12.148 12.148 0 0 1-11.261 7.586c-1.519 0-2.822-.215-4.114-.65-6.288-2.387-9.314-9.318-7.149-15.604L123.972 75.88c1.947-4.765 6.719-7.797 11.477-7.582 4.987-.215 9.529 2.817 11.49 7.582l47.873 127.586c2.164 6.286-.873 13.217-7.149 15.604-1.088.435-2.606.65-4.114.65-4.769 0-9.325-2.822-11.048-7.586l-10.618-28.161zM153 160.149l-17.552-46.574-17.54 46.574H153zM248.304 207.809c0 6.497-5.415 11.912-11.694 11.912-6.719 0-11.907-5.415-11.907-11.912V81.946v-.22c-.215-3.683 1.508-7.582 4.758-9.96 5.418-3.683 12.782-2.602 16.464 2.593l69.969 96.841V81.946c0-6.281 5.199-11.701 11.703-11.701 6.505 0 11.909 5.419 11.909 11.701v125.863c0 6.497-5.404 11.912-11.909 11.912-3.466 0-6.719-1.731-8.884-4.334-.431-.435-.87-.866-1.086-1.301l-69.322-96.181v89.904zM413.371 179.428c-9.099-9.318-14.729-22.966-14.729-37.695s5.631-28.377 14.729-37.906c9.099-9.749 21.234-15.384 35.091-15.384V63.749a72.33 72.33 0 0 0-53.073 23.177c-13.426 14.298-21.438 33.357-21.438 54.807 0 21.445 8.013 40.728 21.438 54.807 13.225 14.083 32.283 23.182 53.073 23.182v-24.693c-13.857-.002-25.993-5.857-35.091-15.601z"/></g><g fill="#FFF"><path d="M558.291 207.809V79.99c0-6.712 5.199-11.907 11.911-11.907h25.56c41.81 0 75.611 34.007 75.611 75.597 0 42.029-33.802 76.041-75.611 76.041h-25.56c-6.712 0-11.911-5.415-11.911-11.912zm24.042-12.136h13.428c28.602-.215 51.567-23.177 51.567-51.994 0-28.377-22.966-51.554-51.567-51.554h-13.428v103.548zM703.212 207.809V79.99c0-6.712 5.191-11.907 11.907-11.907h70.842c6.276 0 11.907 5.195 11.907 11.907 0 6.721-5.631 12.136-11.907 12.136h-58.706v39.643h50.469c6.501 0 11.92 5.63 11.92 11.912 0 6.721-5.419 12.136-11.92 12.136h-50.469v39.858h58.706c6.276 0 11.907 5.415 11.907 12.136 0 6.497-5.631 11.912-11.907 11.912h-70.195c-.431 0-.431-.215-.431-.215l-.216.215c-6.715-.002-11.907-5.417-11.907-11.914zM448.461 63.749c19.934 0 39.001 8.883 51.783 23.177 13.428 14.298 21.88 33.357 21.88 54.807 0 21.445-8.452 40.728-21.88 54.807-12.782 14.083-31.85 23.182-51.783 23.182m0-24.695c13.007 0 25.134-5.855 34.231-15.6 8.884-9.318 14.729-22.966 14.729-37.695s-5.846-28.377-14.729-37.906c-9.098-9.749-21.225-15.384-34.231-15.384"/></g></svg>