<svg xmlns="http://www.w3.org/2000/svg" width="854.196" height="283.465" viewBox="0 0 854.196 283.465"><path fill="#319BC6" d="M547.886 159.665c-8.146 4.164-15.34 7.028-21.584 8.591-6.244 1.56-13.624 2.341-22.132 2.341-20.576 0-37.701-6.735-51.383-20.206-13.688-13.471-20.533-30.373-20.533-50.7 0-22.228 7.257-40.686 21.765-55.381 14.513-14.695 32.7-22.043 54.559-22.043 6.92 0 13.276.504 19.064 1.515 5.785 1.011 11.735 2.679 17.858 5.004v23.79c-5.574-4.165-11.735-7.348-18.503-9.555a67.134 67.134 0 0 0-20.889-3.304c-14.331 0-26.249 5.39-35.769 16.162-9.522 10.779-14.28 24.282-14.28 40.508 0 16.283 4.483 29.818 13.451 40.594 8.971 10.776 20.187 16.166 33.657 16.166 9.063 0 17.094-1.32 24.104-3.968 7.01-2.641 14.252-7.066 21.724-13.272l-1.109 23.758zM602.26 126.725V40.084c-7.594.306-14.115.857-19.563 1.655-10.594 1.53-19.319 4.101-26.176 7.711l4.223-12.444 4.226-12.536h103.604l-3.399 11.893-3.489 11.895c-8.451-3.183-15.646-5.446-21.584-6.796a92.286 92.286 0 0 0-15.983-1.929v87.192c0 8.32.421 15.54 1.244 21.66.829 6.12 2.276 12.785 4.359 20.005H596.751c2.079-7.035 3.521-13.61 4.317-19.728.792-6.123 1.192-13.433 1.192-21.937zM689.238 126.696V66.167c0-8.999-.37-16.563-1.104-22.687s-2.054-12.457-3.948-19.011h31.869c-1.837 6.43-3.122 12.689-3.855 18.78-.737 6.095-1.104 13.732-1.104 22.917v60.529c0 9.06.366 16.653 1.104 22.776.733 6.123 2.047 12.431 3.947 18.917h-31.87c1.837-6.365 3.125-12.609 3.858-18.732.733-6.064 1.103-13.718 1.103-22.96zM853.087 159.665c-8.142 4.164-15.336 7.028-21.584 8.591-6.244 1.56-13.623 2.341-22.132 2.341-20.576 0-37.698-6.735-51.383-20.206-13.688-13.471-20.531-30.373-20.531-50.7 0-22.228 7.252-40.686 21.766-55.381s32.697-22.043 54.556-22.043c6.92 0 13.279.504 19.064 1.515s11.735 2.679 17.858 5.004v23.79c-5.574-4.165-11.735-7.348-18.503-9.555a67.13 67.13 0 0 0-20.889-3.304c-14.328 0-26.246 5.39-35.769 16.162-9.522 10.779-14.277 24.282-14.277 40.508 0 16.283 4.48 29.818 13.448 40.594 8.975 10.776 20.188 16.166 33.658 16.166 9.063 0 17.093-1.32 24.103-3.968 7.013-2.641 14.255-7.066 21.724-13.272l-1.109 23.758z"/><g fill="#319BC6"><path d="M42.933 226.463l12.927-33.664h4.8l13.777 33.664h-5.076l-3.926-10.198H51.36l-3.698 10.198h-4.729zm9.713-13.824h11.412l-3.513-9.322c-1.072-2.832-1.869-5.159-2.389-6.98a42.758 42.758 0 0 1-1.815 6.429l-3.695 9.873zM77.466 226.463v-24.387h3.72v3.467c1.791-2.679 4.377-4.019 7.761-4.019 1.47 0 2.821.265 4.053.791 1.231.529 2.154 1.225 2.767 2.079.612.858 1.041 1.875 1.285 3.056.153.765.229 2.104.229 4.018v14.995h-4.133v-14.835c0-1.685-.161-2.94-.482-3.776-.322-.836-.893-1.499-1.711-1.996-.819-.498-1.779-.746-2.881-.746-1.76 0-3.28.558-4.559 1.674-1.277 1.119-1.917 3.237-1.917 6.362v13.317h-4.132zM112.643 222.764l.598 3.651c-1.164.246-2.206.367-3.124.367-1.5 0-2.663-.236-3.49-.711-.826-.476-1.408-1.101-1.745-1.872-.336-.772-.505-2.398-.505-4.88v-14.028h-3.031v-3.215h3.031v-6.037l4.111-2.48v8.518h4.155v3.215h-4.155v14.258c0 1.181.072 1.939.218 2.274.145.335.381.605.711.804.329.2.8.296 1.413.296.46-.001 1.064-.052 1.813-.16zM116.708 197.551v-4.752h4.133v4.752h-4.133zm0 28.912v-24.387h4.133v24.387h-4.133zM125.479 219.183l4.087-.642c.229 1.637.869 2.89 1.918 3.764 1.047.874 2.515 1.308 4.396 1.308 1.899 0 3.307-.383 4.226-1.158.918-.771 1.377-1.681 1.377-2.72 0-.935-.405-1.668-1.216-2.207-.566-.363-1.976-.832-4.226-1.396-3.031-.766-5.131-1.429-6.303-1.99-1.17-.555-2.059-1.33-2.663-2.315a6.153 6.153 0 0 1-.907-3.271 6.29 6.29 0 0 1 .746-3.023 6.702 6.702 0 0 1 2.033-2.306c.643-.476 1.518-.877 2.628-1.206a12.55 12.55 0 0 1 3.572-.494c1.914 0 3.592.274 5.039.829 1.448.549 2.515 1.295 3.204 2.239.689.938 1.164 2.2 1.424 3.775l-4.041.549c-.185-1.254-.716-2.232-1.596-2.938s-2.124-1.056-3.731-1.056c-1.899 0-3.252.313-4.064.941-.812.628-1.216 1.361-1.216 2.203 0 .536.167 1.021.505 1.448.336.443.864.81 1.583 1.104.413.152 1.631.504 3.651 1.052 2.923.785 4.962 1.423 6.118 1.92 1.156.498 2.063 1.219 2.722 2.169.657.95.987 2.13.987 3.536 0 1.378-.402 2.676-1.206 3.895-.804 1.215-1.963 2.155-3.479 2.822-1.515.666-3.229.998-5.143.998-3.168 0-5.584-.657-7.244-1.975-1.661-1.317-2.722-3.269-3.181-5.855zM167.337 218.608l4.27.526c-.673 2.497-1.921 4.433-3.742 5.811-1.823 1.378-4.149 2.066-6.981 2.066-3.567 0-6.394-1.097-8.483-3.294-2.09-2.197-3.135-5.278-3.135-9.242 0-4.102 1.056-7.287 3.168-9.552 2.113-2.264 4.852-3.399 8.22-3.399 3.261 0 5.925 1.11 7.992 3.329 2.066 2.22 3.1 5.346 3.1 9.37 0 .242-.008.612-.024 1.104h-18.186c.153 2.679.911 4.726 2.274 6.151 1.362 1.426 3.062 2.134 5.098 2.134 1.515 0 2.808-.396 3.879-1.193 1.072-.794 1.922-2.066 2.55-3.811zm-13.571-6.68h13.618c-.185-2.055-.705-3.592-1.563-4.618-1.315-1.588-3.023-2.386-5.12-2.386-1.897 0-3.494.635-4.787 1.907-1.294 1.27-2.009 2.969-2.148 5.097zM176.798 235.807v-33.73h3.766v3.167c.887-1.237 1.89-2.169 3.007-2.787 1.118-.619 2.472-.932 4.064-.932 2.081 0 3.918.536 5.511 1.607 1.591 1.071 2.794 2.583 3.605 4.535.81 1.951 1.217 4.091 1.217 6.416 0 2.497-.448 4.745-1.344 6.742-.895 1.996-2.196 3.526-3.904 4.592-1.706 1.065-3.501 1.595-5.383 1.595-1.378 0-2.615-.29-3.709-.874-1.094-.58-1.995-1.313-2.698-2.2v11.869h-4.132zm3.742-21.399c0 3.139.635 5.453 1.906 6.955 1.271 1.503 2.81 2.249 4.616 2.249 1.837 0 3.409-.775 4.718-2.328 1.309-1.554 1.963-3.961 1.963-7.221 0-3.108-.64-5.434-1.917-6.983-1.279-1.544-2.805-2.315-4.581-2.315-1.76 0-3.318.822-4.672 2.469-1.355 1.645-2.033 4.037-2.033 7.174zM211.974 222.764l.598 3.651c-1.164.246-2.205.367-3.124.367-1.5 0-2.663-.236-3.491-.711-.826-.476-1.408-1.101-1.744-1.872-.336-.772-.505-2.398-.505-4.88v-14.028h-3.031v-3.215h3.031v-6.037l4.11-2.48v8.518h4.156v3.215h-4.156v14.258c0 1.181.072 1.939.219 2.274.145.335.381.605.711.804.329.2.801.296 1.413.296.459-.001 1.063-.052 1.813-.16zM216.038 197.551v-4.752h4.133v4.752h-4.133zm0 28.912v-24.387h4.133v24.387h-4.133zM242.375 217.527l4.064.529c-.445 2.8-1.58 4.994-3.409 6.579-1.831 1.585-4.076 2.376-6.74 2.376-3.337 0-6.02-1.091-8.047-3.272-2.028-2.181-3.042-5.307-3.042-9.379 0-2.631.437-4.937 1.309-6.91.872-1.978 2.2-3.457 3.983-4.446 1.783-.985 3.724-1.479 5.822-1.479 2.647 0 4.814.67 6.498 2.009 1.684 1.34 2.763 3.24 3.237 5.709l-4.019.618c-.382-1.639-1.06-2.87-2.031-3.699-.973-.822-2.148-1.237-3.525-1.237-2.081 0-3.773.746-5.074 2.239-1.301 1.492-1.952 3.853-1.952 7.083 0 3.274.628 5.657 1.883 7.14 1.255 1.486 2.893 2.227 4.913 2.227 1.623 0 2.977-.494 4.064-1.493 1.087-.996 1.775-2.527 2.066-4.594zM263.637 226.463v-33.664h14.925c3.001 0 5.281.304 6.844.906 1.561.605 2.808 1.674 3.742 3.205.933 1.53 1.4 3.224 1.4 5.073 0 2.389-.773 4.401-2.318 6.04-1.546 1.64-3.935 2.68-7.164 3.122 1.178.564 2.074 1.126 2.687 1.675 1.301 1.196 2.534 2.688 3.696 4.478l5.855 9.165h-5.602l-4.455-7.003c-1.301-2.021-2.373-3.568-3.214-4.641-.842-1.071-1.596-1.82-2.261-2.248a6.742 6.742 0 0 0-2.033-.899c-.505-.104-1.331-.159-2.479-.159h-5.166v14.95h-4.457zm4.455-18.809h9.575c2.035 0 3.627-.208 4.775-.632 1.148-.421 2.021-1.091 2.618-2.019a5.472 5.472 0 0 0 .895-3.021c0-1.591-.577-2.901-1.733-3.926-1.156-1.023-2.982-1.54-5.476-1.54h-10.655v11.138zM312.913 223.452c-1.531 1.302-3.004 2.22-4.42 2.756s-2.936.804-4.557.804c-2.679 0-4.739-.654-6.177-1.965-1.438-1.308-2.158-2.979-2.158-5.013 0-1.196.271-2.287.815-3.272a6.763 6.763 0 0 1 2.135-2.379 10.062 10.062 0 0 1 2.974-1.353c.812-.217 2.035-.421 3.674-.621 3.337-.399 5.793-.871 7.37-1.426.016-.564.024-.925.024-1.078 0-1.684-.391-2.87-1.172-3.559-1.056-.932-2.625-1.4-4.707-1.4-1.944 0-3.379.342-4.305 1.023-.926.68-1.61 1.885-2.055 3.617l-4.041-.556c.367-1.729.973-3.125 1.814-4.19.84-1.062 2.059-1.881 3.65-2.455 1.593-.574 3.436-.861 5.535-.861 2.081 0 3.772.246 5.074.733 1.301.491 2.258 1.11 2.87 1.85.612.743 1.042 1.681 1.285 2.813.139.704.208 1.977.208 3.813v5.511c0 3.84.087 6.27.265 7.29a9.17 9.17 0 0 0 1.044 2.928h-4.316c-.431-.86-.707-1.861-.829-3.01zm-.345-9.228c-1.5.612-3.75 1.132-6.75 1.563-1.7.242-2.902.517-3.605.822-.705.31-1.249.756-1.631 1.347a3.518 3.518 0 0 0-.574 1.964c0 1.101.418 2.019 1.252 2.756.834.733 2.055 1.1 3.663 1.1 1.591 0 3.007-.348 4.248-1.043 1.24-.698 2.151-1.651 2.733-2.86.443-.935.665-2.312.665-4.133v-1.516zM323.153 226.463v-24.387h3.718v3.467c1.792-2.679 4.379-4.019 7.762-4.019 1.47 0 2.819.265 4.053.791 1.231.529 2.153 1.225 2.765 2.079.612.858 1.043 1.875 1.289 3.056.153.765.229 2.104.229 4.018v14.995h-4.133v-14.835c0-1.685-.163-2.94-.484-3.776-.319-.836-.89-1.499-1.709-1.996-.82-.498-1.78-.746-2.883-.746-1.761 0-3.278.558-4.557 1.674-1.279 1.119-1.917 3.237-1.917 6.362v13.317h-4.133zM365.127 226.463v-3.08c-1.547 2.42-3.821 3.629-6.821 3.629a9.57 9.57 0 0 1-5.361-1.607c-1.63-1.071-2.893-2.567-3.789-4.49-.896-1.92-1.342-4.127-1.342-6.62 0-2.437.405-4.644 1.218-6.627.81-1.984 2.028-3.502 3.648-4.558 1.624-1.056 3.438-1.585 5.444-1.585 1.47 0 2.778.313 3.926.932 1.148.618 2.083 1.429 2.8 2.424V192.8h4.11v33.664h-3.833zm-13.065-12.169c0 3.118.657 5.453 1.974 7.003 1.317 1.543 2.87 2.315 4.663 2.315 1.805 0 3.339-.737 4.602-2.214 1.263-1.479 1.895-3.73 1.895-6.761 0-3.339-.641-5.788-1.926-7.348-1.288-1.563-2.87-2.344-4.755-2.344-1.837 0-3.371.75-4.602 2.248-1.236 1.503-1.851 3.87-1.851 7.101zM373.923 214.268c0-4.516 1.253-7.857 3.763-10.032 2.098-1.805 4.656-2.711 7.67-2.711 3.352 0 6.094 1.101 8.221 3.298 2.127 2.193 3.192 5.229 3.192 9.102 0 3.138-.472 5.606-1.413 7.405-.94 1.798-2.312 3.195-4.11 4.19-1.799.994-3.763 1.492-5.89 1.492-3.413 0-6.171-1.094-8.276-3.285-2.105-2.188-3.157-5.338-3.157-9.459zm4.248 0c0 3.126.679 5.463 2.041 7.017 1.365 1.553 3.077 2.328 5.144 2.328 2.05 0 3.76-.778 5.122-2.341s2.044-3.942 2.044-7.141c0-3.014-.686-5.3-2.057-6.854-1.368-1.553-3.071-2.331-5.109-2.331-2.067 0-3.779.775-5.144 2.318-1.362 1.548-2.041 3.882-2.041 7.004zM401.61 226.463v-24.387h3.696v3.422a8.7 8.7 0 0 1 3.055-2.883c1.269-.728 2.717-1.091 4.34-1.091 1.805 0 3.285.376 4.442 1.126 1.154.749 1.971 1.799 2.446 3.147 1.926-2.851 4.439-4.273 7.53-4.273 2.42 0 4.279.67 5.581 2.009 1.301 1.34 1.951 3.403 1.951 6.188v16.742h-4.11v-15.365c0-1.651-.134-2.841-.402-3.568-.268-.727-.753-1.311-1.458-1.757-.705-.443-1.531-.663-2.481-.663-1.713 0-3.138.567-4.271 1.709-1.132 1.142-1.7 2.966-1.7 5.476v14.169h-4.133V210.62c0-1.837-.335-3.215-1.011-4.134-.673-.918-1.773-1.377-3.304-1.377a6.017 6.017 0 0 0-3.228.918c-.988.612-1.703 1.505-2.146 2.686-.443 1.18-.667 2.876-.667 5.096v12.654h-4.13zM440.809 197.551v-4.752h4.134v4.752h-4.134zm0 28.912v-24.387h4.134v24.387h-4.134zM449.579 219.183l4.088-.642c.23 1.637.868 2.89 1.914 3.764 1.052.874 2.52 1.308 4.4 1.308 1.895 0 3.305-.383 4.223-1.158.919-.771 1.378-1.681 1.378-2.72 0-.935-.402-1.668-1.219-2.207-.561-.363-1.971-.832-4.222-1.396-3.03-.766-5.135-1.429-6.302-1.99-1.174-.555-2.061-1.33-2.666-2.315-.606-.988-.906-2.079-.906-3.271a6.29 6.29 0 0 1 .746-3.023 6.677 6.677 0 0 1 2.035-2.306c.638-.476 1.518-.877 2.628-1.206a12.518 12.518 0 0 1 3.571-.494c1.914 0 3.591.274 5.039.829 1.448.549 2.513 1.295 3.202 2.239.688.938 1.16 2.2 1.422 3.775l-4.037.549c-.186-1.254-.721-2.232-1.602-2.938-.88-.705-2.123-1.056-3.73-1.056-1.895 0-3.253.313-4.063.941-.81.628-1.218 1.361-1.218 2.203 0 .536.172 1.021.51 1.448.332.443.861.81 1.582 1.104.415.152 1.633.504 3.648 1.052 2.928.785 4.969 1.423 6.123 1.92 1.154.498 2.061 1.219 2.717 2.169.663.95.989 2.13.989 3.536 0 1.378-.402 2.676-1.206 3.895-.804 1.215-1.964 2.155-3.476 2.822-1.519.666-3.234.998-5.147.998-3.164 0-5.581-.657-7.239-1.975-1.664-1.317-2.723-3.269-3.182-5.855zM491.433 218.608l4.273.526c-.677 2.497-1.92 4.433-3.744 5.811-1.817 1.378-4.146 2.066-6.978 2.066-3.565 0-6.397-1.097-8.483-3.294-2.092-2.197-3.138-5.278-3.138-9.242 0-4.102 1.059-7.287 3.17-9.552 2.111-2.264 4.854-3.399 8.222-3.399 3.259 0 5.925 1.11 7.991 3.329 2.066 2.22 3.1 5.346 3.1 9.37 0 .242-.013.612-.025 1.104h-18.184c.153 2.679.912 4.726 2.271 6.151 1.365 1.426 3.062 2.134 5.096 2.134 1.519 0 2.813-.396 3.885-1.193 1.07-.794 1.919-2.066 2.544-3.811zm-13.567-6.68h13.617c-.185-2.055-.708-3.592-1.563-4.618-1.32-1.588-3.023-2.386-5.122-2.386-1.9 0-3.495.635-4.79 1.907-1.287 1.27-2.008 2.969-2.142 5.097zM516.716 226.463v-3.08c-1.544 2.42-3.821 3.629-6.818 3.629a9.579 9.579 0 0 1-5.364-1.607c-1.626-1.071-2.89-2.567-3.789-4.49-.893-1.92-1.339-4.127-1.339-6.62 0-2.437.401-4.644 1.218-6.627.811-1.984 2.028-3.502 3.648-4.558s3.438-1.585 5.44-1.585c1.474 0 2.781.313 3.93.932a8.212 8.212 0 0 1 2.8 2.424V192.8h4.107v33.664h-3.833zm-13.063-12.169c0 3.118.656 5.453 1.971 7.003 1.32 1.543 2.87 2.315 4.662 2.315 1.806 0 3.343-.737 4.605-2.214 1.263-1.479 1.895-3.73 1.895-6.761 0-3.339-.645-5.788-1.927-7.348-1.288-1.563-2.87-2.344-4.758-2.344-1.837 0-3.368.75-4.599 2.248-1.236 1.503-1.849 3.87-1.849 7.101zM564.66 214.657l4.458 1.129c-.938 3.658-2.614 6.448-5.045 8.368-2.424 1.92-5.39 2.883-8.897 2.883-3.623 0-6.576-.74-8.847-2.22-2.276-1.474-4.005-3.616-5.191-6.416s-1.779-5.811-1.779-9.025c0-3.502.669-6.563 2.009-9.172 1.339-2.608 3.246-4.592 5.715-5.944 2.475-1.358 5.198-2.034 8.164-2.034 3.367 0 6.199.857 8.496 2.57 2.296 1.716 3.896 4.126 4.803 7.232l-4.389 1.033c-.778-2.446-1.913-4.229-3.399-5.348-1.486-1.116-3.349-1.675-5.601-1.675-2.589 0-4.751.619-6.486 1.856-1.741 1.243-2.959 2.908-3.661 4.994a20.038 20.038 0 0 0-1.059 6.467c0 2.861.415 5.358 1.25 7.495.836 2.137 2.131 3.73 3.891 4.79a10.962 10.962 0 0 0 5.722 1.581c2.494 0 4.604-.721 6.333-2.155 1.734-1.44 2.901-3.574 3.513-6.409zM572.537 214.268c0-4.516 1.25-7.857 3.764-10.032 2.098-1.805 4.655-2.711 7.666-2.711 3.355 0 6.098 1.101 8.222 3.298 2.13 2.193 3.195 5.229 3.195 9.102 0 3.138-.472 5.606-1.416 7.405-.938 1.798-2.309 3.195-4.107 4.19-1.799.994-3.763 1.492-5.894 1.492-3.412 0-6.168-1.094-8.272-3.285-2.105-2.188-3.158-5.338-3.158-9.459zm4.248 0c0 3.126.676 5.463 2.041 7.017 1.365 1.553 3.074 2.328 5.141 2.328 2.054 0 3.763-.778 5.122-2.341 1.364-1.563 2.047-3.942 2.047-7.141 0-3.014-.688-5.3-2.06-6.854-1.365-1.553-3.068-2.331-5.109-2.331-2.066 0-3.775.775-5.141 2.318-1.365 1.548-2.041 3.882-2.041 7.004zM600.225 226.463v-24.387h3.719v3.467c1.792-2.679 4.382-4.019 7.762-4.019 1.474 0 2.819.265 4.057.791 1.231.529 2.149 1.225 2.762 2.079.612.858 1.046 1.875 1.289 3.056.152.765.229 2.104.229 4.018v14.995h-4.134v-14.835c0-1.685-.159-2.94-.484-3.776-.318-.836-.887-1.499-1.709-1.996-.816-.498-1.779-.746-2.883-.746-1.761 0-3.278.558-4.555 1.674-1.281 1.119-1.92 3.237-1.92 6.362v13.317h-4.133zM635.406 222.764l.594 3.651c-1.161.246-2.2.367-3.119.367-1.505 0-2.666-.236-3.495-.711-.823-.476-1.403-1.101-1.741-1.872-.338-.772-.504-2.398-.504-4.88v-14.028h-3.036v-3.215h3.036v-6.037l4.107-2.48v8.518h4.158v3.215h-4.158v14.258c0 1.181.07 1.939.217 2.274s.383.605.715.804c.325.2.797.296 1.409.296.459-.001 1.065-.052 1.817-.16zM639.399 226.463v-24.387h3.719v3.696c.95-1.729 1.824-2.87 2.628-3.419a4.568 4.568 0 0 1 2.653-.829c1.396 0 2.813.446 4.247 1.333l-1.422 3.833c-1.008-.596-2.021-.893-3.029-.893-.906 0-1.716.271-2.437.813-.721.545-1.231 1.298-1.537 2.261-.46 1.471-.689 3.077-.689 4.822v12.769h-4.133zM653.565 214.268c0-4.516 1.257-7.857 3.763-10.032 2.099-1.805 4.656-2.711 7.673-2.711 3.349 0 6.092 1.101 8.222 3.298 2.124 2.193 3.189 5.229 3.189 9.102 0 3.138-.473 5.606-1.41 7.405-.943 1.798-2.314 3.195-4.113 4.19-1.799.994-3.764 1.492-5.888 1.492-3.412 0-6.174-1.094-8.278-3.285-2.105-2.188-3.158-5.338-3.158-9.459zm4.248 0c0 3.126.683 5.463 2.041 7.017 1.364 1.553 3.08 2.328 5.146 2.328 2.048 0 3.757-.778 5.122-2.341 1.358-1.563 2.041-3.942 2.041-7.141 0-3.014-.683-5.3-2.054-6.854-1.371-1.553-3.074-2.331-5.109-2.331-2.066 0-3.782.775-5.146 2.318-1.358 1.548-2.041 3.882-2.041 7.004zM681.164 226.463v-33.664h4.133v33.664h-4.133zM691.611 226.463v-33.664h4.133v33.664h-4.133zM718.846 218.608l4.273.526c-.676 2.497-1.926 4.433-3.744 5.811-1.824 1.378-4.152 2.066-6.984 2.066-3.564 0-6.391-1.097-8.482-3.294-2.086-2.197-3.132-5.278-3.132-9.242 0-4.102 1.053-7.287 3.17-9.552 2.111-2.264 4.848-3.399 8.215-3.399 3.266 0 5.926 1.11 7.992 3.329 2.066 2.22 3.1 5.346 3.1 9.37 0 .242-.006.612-.019 1.104h-18.191c.153 2.679.912 4.726 2.277 6.151 1.358 1.426 3.062 2.134 5.097 2.134 1.518 0 2.806-.396 3.878-1.193 1.07-.794 1.925-2.066 2.55-3.811zm-13.573-6.68h13.617c-.186-2.055-.702-3.592-1.563-4.618-1.314-1.588-3.023-2.386-5.115-2.386-1.901 0-3.496.635-4.79 1.907-1.294 1.27-2.009 2.969-2.149 5.097zM744.129 226.463v-3.08c-1.55 2.42-3.82 3.629-6.824 3.629a9.56 9.56 0 0 1-5.358-1.607c-1.633-1.071-2.896-2.567-3.788-4.49-.899-1.92-1.346-4.127-1.346-6.62 0-2.437.408-4.644 1.218-6.627.811-1.984 2.028-3.502 3.648-4.558 1.626-1.056 3.438-1.585 5.447-1.585 1.467 0 2.774.313 3.922.932 1.148.618 2.086 1.429 2.801 2.424V192.8h4.113v33.664h-3.833zm-13.069-12.169c0 3.118.657 5.453 1.978 7.003 1.314 1.543 2.87 2.315 4.662 2.315 1.806 0 3.336-.737 4.599-2.214 1.264-1.479 1.895-3.73 1.895-6.761 0-3.339-.638-5.788-1.926-7.348-1.288-1.563-2.87-2.344-4.752-2.344-1.837 0-3.374.75-4.605 2.248-1.232 1.503-1.851 3.87-1.851 7.101zM775.765 226.463v-29.69H764.68v-3.974h26.68v3.974h-11.137v29.69h-4.458zM793.61 226.463v-24.387h3.719v3.696c.95-1.729 1.824-2.87 2.628-3.419a4.57 4.57 0 0 1 2.653-.829c1.391 0 2.807.446 4.248 1.333l-1.423 3.833c-1.014-.596-2.021-.893-3.036-.893-.899 0-1.709.271-2.43.813-.721.545-1.231 1.298-1.537 2.261-.459 1.471-.688 3.077-.688 4.822v12.769h-4.134zM809.333 197.551v-4.752h4.133v4.752h-4.133zm0 28.912v-24.387h4.133v24.387h-4.133zM835.675 223.452c-1.531 1.302-3.004 2.22-4.42 2.756s-2.94.804-4.561.804c-2.679 0-4.739-.654-6.174-1.965-1.442-1.308-2.163-2.979-2.163-5.013 0-1.196.274-2.287.816-3.272a6.778 6.778 0 0 1 2.137-2.379 10.044 10.044 0 0 1 2.973-1.353c.81-.217 2.034-.421 3.674-.621 3.336-.399 5.791-.871 7.373-1.426.013-.564.02-.925.02-1.078 0-1.684-.39-2.87-1.168-3.559-1.059-.932-2.627-1.4-4.707-1.4-1.945 0-3.38.342-4.305 1.023-.932.68-1.614 1.885-2.061 3.617l-4.037-.556c.363-1.729.97-3.125 1.812-4.19.842-1.062 2.06-1.881 3.654-2.455 1.589-.574 3.432-.861 5.53-.861 2.086 0 3.775.246 5.077.733 1.301.491 2.258 1.11 2.87 1.85.612.743 1.039 1.681 1.281 2.813.141.704.211 1.977.211 3.813v5.511c0 3.84.09 6.27.262 7.29a9.199 9.199 0 0 0 1.046 2.928h-4.318c-.427-.86-.701-1.861-.822-3.01zm-.345-9.228c-1.505.612-3.75 1.132-6.754 1.563-1.697.242-2.902.517-3.604.822-.701.31-1.25.756-1.633 1.347a3.525 3.525 0 0 0-.573 1.964c0 1.101.421 2.019 1.256 2.756.829.733 2.054 1.1 3.661 1.1 1.588 0 3.004-.348 4.248-1.043 1.237-.698 2.149-1.651 2.729-2.86.447-.935.67-2.312.67-4.133v-1.516zM845.822 226.463v-33.664h4.133v33.664h-4.133zM339.822 282.891v-21.169h-3.652v-3.215h3.652v-2.596c0-1.64.143-2.854.434-3.651.398-1.068 1.1-1.939 2.102-2.605 1.004-.667 2.408-.998 4.213-.998 1.164 0 2.449.137 3.858.411l-.619 3.606a14.005 14.005 0 0 0-2.437-.229c-1.253 0-2.143.269-2.663.804-.52.536-.781 1.537-.781 3.008v2.251h4.755v3.215h-4.755v21.169h-4.107zM350.362 270.699c0-4.517 1.253-7.861 3.763-10.036 2.099-1.806 4.656-2.708 7.67-2.708 3.352 0 6.094 1.101 8.221 3.295 2.127 2.197 3.192 5.229 3.192 9.104 0 3.138-.472 5.606-1.413 7.405-.941 1.798-2.312 3.195-4.111 4.19s-3.763 1.492-5.89 1.492c-3.413 0-6.171-1.094-8.276-3.285-2.103-2.186-3.156-5.34-3.156-9.457zm4.248 0c0 3.122.679 5.463 2.041 7.013 1.365 1.556 3.078 2.331 5.144 2.331 2.05 0 3.76-.781 5.122-2.341 1.362-1.563 2.044-3.941 2.044-7.141 0-3.017-.686-5.3-2.057-6.856-1.368-1.55-3.071-2.328-5.109-2.328-2.066 0-3.779.771-5.144 2.318-1.362 1.547-2.041 3.882-2.041 7.004zM378.008 282.891v-24.384h3.718v3.696c.95-1.731 1.824-2.87 2.628-3.422s1.69-.826 2.653-.826c1.394 0 2.81.443 4.248 1.33l-1.422 3.836c-1.011-.596-2.021-.896-3.033-.896-.902 0-1.712.274-2.433.816s-1.231 1.295-1.537 2.261c-.459 1.471-.689 3.077-.689 4.822v12.766h-4.133zM408.062 282.891V249.23h4.455v33.661h-4.455zM419.842 282.891v-24.384h3.719v3.467c1.792-2.679 4.378-4.019 7.762-4.019 1.47 0 2.819.265 4.053.791 1.231.529 2.153 1.222 2.766 2.079.613.858 1.041 1.875 1.29 3.052.152.766.229 2.105.229 4.019v14.995h-4.135v-14.832c0-1.685-.163-2.944-.484-3.779-.319-.832-.891-1.499-1.71-1.996-.819-.498-1.779-.747-2.883-.747-1.76 0-3.278.562-4.557 1.678s-1.917 3.237-1.917 6.359v13.317h-4.133zM444.343 275.613l4.082-.645c.229 1.64.874 2.893 1.92 3.767 1.046.87 2.513 1.308 4.395 1.308 1.9 0 3.31-.386 4.229-1.158.918-.771 1.378-1.681 1.378-2.723 0-.932-.408-1.665-1.219-2.204-.567-.366-1.978-.832-4.223-1.4-3.035-.765-5.134-1.429-6.308-1.986-1.167-.559-2.054-1.33-2.659-2.318-.606-.988-.906-2.079-.906-3.272 0-1.087.249-2.092.746-3.02a6.73 6.73 0 0 1 2.028-2.306c.645-.476 1.519-.877 2.628-1.206 1.11-.331 2.303-.494 3.572-.494 1.913 0 3.597.274 5.038.826 1.448.552 2.52 1.298 3.208 2.238.689.941 1.161 2.201 1.423 3.776l-4.044.552c-.185-1.253-.714-2.235-1.595-2.938-.88-.704-2.124-1.059-3.73-1.059-1.901 0-3.253.315-4.063.944-.81.625-1.218 1.361-1.218 2.203 0 .536.165 1.018.504 1.445.338.446.867.813 1.588 1.103.408.153 1.626.504 3.648 1.056 2.921.781 4.962 1.42 6.116 1.917 1.161.497 2.066 1.222 2.724 2.172.657.947.988 2.127.988 3.536 0 1.378-.401 2.673-1.205 3.892-.804 1.218-1.965 2.158-3.482 2.825-1.512.663-3.228.998-5.141.998-3.17 0-5.581-.66-7.246-1.974-1.659-1.317-2.717-3.269-3.176-5.855zM486.196 275.039l4.273.526c-.677 2.497-1.92 4.433-3.744 5.811-1.818 1.378-4.146 2.066-6.978 2.066-3.565 0-6.397-1.101-8.483-3.294-2.092-2.197-3.138-5.278-3.138-9.242 0-4.102 1.059-7.287 3.17-9.555 2.111-2.265 4.854-3.396 8.222-3.396 3.259 0 5.925 1.11 7.991 3.329 2.066 2.22 3.1 5.342 3.1 9.367 0 .245-.013.612-.025 1.104H472.4c.152 2.679.912 4.729 2.271 6.154 1.364 1.423 3.062 2.134 5.096 2.134 1.519 0 2.813-.398 3.885-1.192 1.071-.795 1.919-2.068 2.544-3.812zm-13.566-6.685h13.617c-.185-2.05-.708-3.587-1.563-4.614-1.32-1.592-3.023-2.389-5.122-2.389-1.9 0-3.495.638-4.79 1.907-1.288 1.27-2.008 2.972-2.142 5.096zM495.616 282.891v-24.384h3.719v3.696c.95-1.731 1.824-2.87 2.628-3.422s1.69-.826 2.653-.826c1.391 0 2.807.443 4.248 1.33l-1.423 3.836c-1.014-.596-2.021-.896-3.036-.896-.898 0-1.709.274-2.43.816s-1.231 1.295-1.537 2.261c-.459 1.471-.688 3.077-.688 4.822v12.766h-4.134zM520.345 279.194l.593 3.651c-1.16.243-2.2.367-3.118.367-1.506 0-2.666-.239-3.496-.711-.822-.476-1.402-1.101-1.741-1.872-.338-.775-.504-2.401-.504-4.88v-14.028h-3.035v-3.215h3.035v-6.04l4.108-2.481v8.521h4.158v3.215h-4.158v14.258c0 1.177.069 1.937.217 2.274.146.335.383.605.714.804.325.197.798.296 1.41.296.458.001 1.064-.053 1.817-.159zM524.407 253.981v-4.752h4.134v4.752h-4.134zm0 28.91v-24.384h4.134v24.384h-4.134zM533.292 270.699c0-4.517 1.257-7.861 3.764-10.036 2.099-1.806 4.656-2.708 7.673-2.708 3.349 0 6.091 1.101 8.222 3.295 2.124 2.197 3.188 5.229 3.188 9.104 0 3.138-.472 5.606-1.409 7.405-.944 1.798-2.315 3.195-4.114 4.19s-3.763 1.492-5.887 1.492c-3.412 0-6.174-1.094-8.279-3.285-2.105-2.186-3.158-5.34-3.158-9.457zm4.248 0c0 3.122.683 5.463 2.041 7.013 1.365 1.556 3.081 2.331 5.147 2.331 2.047 0 3.757-.781 5.121-2.341 1.359-1.563 2.041-3.941 2.041-7.141 0-3.017-.682-5.3-2.054-6.856-1.371-1.55-3.074-2.328-5.108-2.328-2.066 0-3.782.771-5.147 2.318-1.358 1.547-2.041 3.882-2.041 7.004zM560.986 282.891v-24.384h3.719v3.467c1.792-2.679 4.375-4.019 7.762-4.019 1.467 0 2.819.265 4.051.791 1.23.529 2.155 1.222 2.768 2.079.612.858 1.04 1.875 1.288 3.052.153.766.23 2.105.23 4.019v14.995h-4.134v-14.832c0-1.685-.166-2.944-.484-3.779-.319-.832-.893-1.499-1.709-1.996-.823-.498-1.78-.747-2.884-.747-1.76 0-3.278.562-4.56 1.678-1.276 1.116-1.914 3.237-1.914 6.359v13.317h-4.133zM598.662 270.699c0-4.517 1.257-7.861 3.763-10.036 2.099-1.806 4.656-2.708 7.674-2.708 3.348 0 6.091 1.101 8.221 3.295 2.124 2.197 3.189 5.229 3.189 9.104 0 3.138-.472 5.606-1.409 7.405-.944 1.798-2.315 3.195-4.114 4.19s-3.764 1.492-5.887 1.492c-3.413 0-6.175-1.094-8.279-3.285-2.105-2.186-3.158-5.34-3.158-9.457zm4.248 0c0 3.122.683 5.463 2.041 7.013 1.365 1.556 3.08 2.331 5.147 2.331 2.047 0 3.756-.781 5.121-2.341 1.358-1.563 2.041-3.941 2.041-7.141 0-3.017-.683-5.3-2.054-6.856-1.371-1.55-3.074-2.328-5.108-2.328-2.067 0-3.782.771-5.147 2.318-1.358 1.547-2.041 3.882-2.041 7.004zM627.345 282.891v-21.169h-3.654v-3.215h3.654v-2.596c0-1.64.141-2.854.434-3.651.396-1.068 1.097-1.939 2.099-2.605 1.008-.667 2.411-.998 4.216-.998 1.161 0 2.449.137 3.858.411l-.618 3.606a14.032 14.032 0 0 0-2.437-.229c-1.257 0-2.144.269-2.666.804-.517.536-.778 1.537-.778 3.008v2.251h4.752v3.215h-4.752v21.169h-4.108zM677.03 271.088l4.459 1.126c-.938 3.661-2.615 6.448-5.046 8.368-2.423 1.923-5.389 2.883-8.897 2.883-3.622 0-6.575-.74-8.846-2.217-2.277-1.477-4.006-3.616-5.192-6.416-1.187-2.804-1.779-5.811-1.779-9.025 0-3.505.67-6.563 2.009-9.172 1.34-2.611 3.247-4.592 5.715-5.947 2.475-1.355 5.198-2.031 8.164-2.031 3.368 0 6.2.857 8.496 2.57 2.296 1.716 3.896 4.126 4.803 7.232l-4.389 1.033c-.777-2.446-1.913-4.231-3.399-5.348s-3.349-1.678-5.6-1.678c-2.59 0-4.752.619-6.486 1.859-1.742 1.24-2.96 2.905-3.661 4.994a20.003 20.003 0 0 0-1.06 6.464c0 2.864.415 5.361 1.251 7.498.835 2.133 2.13 3.731 3.891 4.786a10.922 10.922 0 0 0 5.721 1.585c2.494 0 4.605-.721 6.334-2.158 1.733-1.437 2.9-3.571 3.512-6.406zM702.358 279.884c-1.531 1.301-3.004 2.219-4.42 2.755s-2.935.804-4.561.804c-2.679 0-4.732-.653-6.174-1.965-1.441-1.308-2.156-2.981-2.156-5.016 0-1.193.268-2.284.811-3.272.548-.988 1.256-1.779 2.137-2.376a10.112 10.112 0 0 1 2.972-1.355c.816-.214 2.041-.421 3.674-.618 3.342-.398 5.798-.874 7.373-1.426.013-.564.025-.925.025-1.078 0-1.684-.396-2.87-1.173-3.559-1.06-.935-2.628-1.4-4.708-1.4-1.945 0-3.38.338-4.305 1.021s-1.613 1.888-2.054 3.616l-4.044-.552c.37-1.729.976-3.125 1.817-4.19.843-1.062 2.054-1.881 3.648-2.455s3.438-.861 5.536-.861c2.08 0 3.77.246 5.071.733 1.301.491 2.258 1.106 2.87 1.85s1.039 1.681 1.288 2.813c.134.704.204 1.974.204 3.811v5.511c0 3.843.09 6.272.268 7.29a9.15 9.15 0 0 0 1.04 2.928h-4.312c-.431-.86-.706-1.862-.827-3.009zm-.344-9.233c-1.499.612-3.75 1.135-6.748 1.563-1.703.245-2.902.52-3.61.826-.701.309-1.243.756-1.626 1.342a3.533 3.533 0 0 0-.574 1.965c0 1.104.415 2.021 1.25 2.756.836.733 2.054 1.103 3.661 1.103 1.595 0 3.011-.351 4.248-1.046 1.244-.695 2.149-1.648 2.736-2.857.44-.935.663-2.312.663-4.133v-1.519zM721.62 279.194l.6 3.651c-1.167.243-2.207.367-3.125.367-1.499 0-2.666-.239-3.489-.711-.829-.476-1.409-1.101-1.747-1.872-.338-.775-.504-2.401-.504-4.88v-14.028h-3.03v-3.215h3.03v-6.04l4.107-2.481v8.521h4.158v3.215h-4.158v14.258c0 1.177.076 1.937.223 2.274.141.335.383.605.708.804.332.197.804.296 1.416.296.46.001 1.058-.053 1.811-.159zM725.664 282.891V249.23h4.133v12.077c1.927-2.235 4.363-3.352 7.303-3.352 1.806 0 3.375.354 4.708 1.068 1.326.711 2.283 1.696 2.857 2.95.573 1.253.86 3.077.86 5.463v15.454h-4.133v-15.454c0-2.066-.446-3.568-1.346-4.51-.893-.943-2.162-1.412-3.802-1.412a6.65 6.65 0 0 0-3.45.953c-1.084.635-1.85 1.496-2.309 2.583-.46 1.085-.689 2.587-.689 4.5v13.34h-4.132zM768.506 275.039l4.273.526c-.676 2.497-1.92 4.433-3.744 5.811-1.817 1.378-4.146 2.066-6.978 2.066-3.565 0-6.397-1.101-8.482-3.294-2.093-2.197-3.139-5.278-3.139-9.242 0-4.102 1.06-7.287 3.17-9.555 2.111-2.265 4.854-3.396 8.222-3.396 3.26 0 5.926 1.11 7.992 3.329 2.066 2.22 3.1 5.342 3.1 9.367 0 .245-.013.612-.025 1.104H754.71c.153 2.679.912 4.729 2.271 6.154 1.365 1.423 3.062 2.134 5.097 2.134 1.518 0 2.813-.398 3.884-1.192 1.071-.795 1.919-2.068 2.544-3.812zm-13.567-6.685h13.618c-.186-2.05-.708-3.587-1.563-4.614-1.32-1.592-3.022-2.389-5.121-2.389-1.9 0-3.495.638-4.79 1.907-1.288 1.27-2.009 2.972-2.144 5.096zM786.996 279.194l.594 3.651c-1.161.243-2.201.367-3.119.367-1.505 0-2.666-.239-3.495-.711-.823-.476-1.403-1.101-1.741-1.872-.338-.775-.504-2.401-.504-4.88v-14.028h-3.036v-3.215h3.036v-6.04l4.107-2.481v8.521h4.158v3.215h-4.158v14.258c0 1.177.07 1.937.217 2.274.146.335.383.605.715.804.325.197.797.296 1.409.296.459.001 1.065-.053 1.817-.159zM807.726 275.039l4.273.526c-.677 2.497-1.92 4.433-3.744 5.811-1.817 1.378-4.146 2.066-6.978 2.066-3.565 0-6.397-1.101-8.483-3.294-2.092-2.197-3.138-5.278-3.138-9.242 0-4.102 1.059-7.287 3.17-9.555 2.111-2.265 4.854-3.396 8.222-3.396 3.259 0 5.925 1.11 7.991 3.329 2.066 2.22 3.1 5.342 3.1 9.367 0 .245-.013.612-.025 1.104H793.93c.153 2.679.912 4.729 2.271 6.154 1.365 1.423 3.062 2.134 5.096 2.134 1.519 0 2.813-.398 3.885-1.192 1.07-.795 1.919-2.068 2.544-3.812zm-13.567-6.685h13.617c-.185-2.05-.708-3.587-1.563-4.614-1.32-1.592-3.023-2.389-5.122-2.389-1.9 0-3.495.638-4.79 1.907-1.287 1.27-2.008 2.972-2.142 5.096zM817.14 282.891v-24.384h3.719v3.696c.95-1.731 1.824-2.87 2.628-3.422a4.584 4.584 0 0 1 2.653-.826c1.396 0 2.813.443 4.247 1.33l-1.422 3.836c-1.008-.596-2.021-.896-3.029-.896-.906 0-1.716.274-2.437.816s-1.231 1.295-1.537 2.261c-.46 1.471-.689 3.077-.689 4.822v12.766h-4.133zM831.197 275.613l4.082-.645c.229 1.64.874 2.893 1.92 3.767 1.046.87 2.513 1.308 4.395 1.308 1.9 0 3.31-.386 4.229-1.158.918-.771 1.378-1.681 1.378-2.723 0-.932-.408-1.665-1.219-2.204-.567-.366-1.977-.832-4.222-1.4-3.036-.765-5.135-1.429-6.309-1.986-1.167-.559-2.054-1.33-2.659-2.318-.606-.988-.906-2.079-.906-3.272 0-1.087.249-2.092.746-3.02a6.73 6.73 0 0 1 2.028-2.306c.645-.476 1.519-.877 2.628-1.206 1.11-.331 2.303-.494 3.572-.494 1.913 0 3.597.274 5.038.826 1.448.552 2.52 1.298 3.209 2.238.688.941 1.16 2.201 1.422 3.776l-4.044.552c-.185-1.253-.714-2.235-1.595-2.938-.88-.704-2.123-1.059-3.73-1.059-1.901 0-3.253.315-4.063.944-.81.625-1.218 1.361-1.218 2.203 0 .536.166 1.018.504 1.445.338.446.867.813 1.588 1.103.408.153 1.627.504 3.648 1.056 2.921.781 4.962 1.42 6.116 1.917 1.161.497 2.066 1.222 2.724 2.172.657.947.988 2.127.988 3.536 0 1.378-.401 2.673-1.205 3.892-.804 1.218-1.965 2.158-3.482 2.825-1.512.663-3.228.998-5.141.998-3.17 0-5.581-.66-7.246-1.974-1.658-1.317-2.717-3.269-3.176-5.855z"/></g><path fill="#4277B0" d="M230.188 61.294l-18.731 43.442h37.553l-18.73-43.442zM376.809 140.651c-9.883-11.697-18.312-22.872-25.29-33.523l-3.763-5.788v24.521c0 9.063.367 16.656 1.104 22.779.684 5.712 1.895 11.593 3.594 17.62h48.797c-7.069-6.168-15.205-14.686-24.442-25.609z"/><path fill="#4277B0" d="M324.795 148.821c.734-6.123 1.104-13.776 1.104-22.961V75.767l.726.331-71.466-59.553-7.839 4.356L232.516 0 164.59 78.375l-33.962-17.419L80.99 92.308l-5.227-12.191L0 155.879v10.381h76.732l30.59-21.055 24.629 21.055h25.971c3.49-3.716 6.89-8.27 10.184-13.765 3.674-6.123 8.266-15.001 13.777-26.635l49.23-105.067h.068L280.41 125.86c5.695 12.064 10.348 21.156 13.961 27.279 3.202 5.428 6.354 9.762 9.462 13.12h17.45c1.643-5.915 2.828-11.729 3.512-17.438z"/><path fill="#4277B0" d="M261.504 134.222l-4.701-11.116H203.56l-.686 2.114c-3.674 8.512-6.491 16.866-8.45 25.075-1.725 7.221-2.356 12.54-1.899 15.965h76.968c.389-2.864.008-6.866-1.239-12.153-1.44-6.095-3.69-12.722-6.75-19.885z"/><path fill="#FFF" d="M325.898 125.86c0 9.185-.37 16.838-1.104 22.961-.684 5.709-1.869 11.522-3.511 17.438h31.17c-1.7-6.027-2.91-11.908-3.594-17.62-.737-6.123-1.104-13.716-1.104-22.779v-24.52l3.763 5.788c6.978 10.651 15.406 21.826 25.29 33.523 9.237 10.923 17.373 19.44 24.442 25.608h25.969c-9.781-10.792-17.58-19.725-23.349-26.757-5.999-7.318-11.481-14.618-16.437-21.908l-10.38-15.614c-5.319-3.329-6.707-4.063-14.628-9.127-2.099 1.161-14.695-5.062-14.664-7.125l-21.139-9.631-.726-.331v50.094z"/><g><path fill="#319BC6" d="M412.364 139.503c-5.999-7.318-11.481-14.618-16.44-21.908l-12.2-18.43c2.478-1.247 2.491-1.799 4.718-3.244 11.021-7.469 16.532-17.329 16.532-29.575 0-13.655-4.959-24.186-14.88-31.594-9.918-7.408-24.062-11.114-42.431-11.114h-26.819c1.896 6.55 3.216 12.891 3.95 19.014.734 6.123 1.104 13.684 1.104 22.687v10.429l21.858 9.956V37.507c9.733.431 17.636 3.001 23.695 7.715 6.493 5.144 9.736 11.907 9.736 20.298 0 9.185-3.428 16.593-10.285 22.225-5.941 4.963-8.477 5.109-8.477 5.109 7.922 5.064 9.309 5.798 14.628 9.127l10.38 15.614c4.956 7.29 10.438 14.59 16.437 21.908 5.769 7.032 13.568 15.965 23.349 26.757h8.49c-9.78-10.792-17.579-19.725-23.345-26.757z"/></g></svg>