<svg xmlns="http://www.w3.org/2000/svg" width="542.91" height="212.6" viewBox="0 0 542.91 212.6"><path fill="#2D649E" d="M179.557 181.164h-.027c-19.724-.185-36.082-10.851-44.077-17.188-2.704-2.396-3.089-6.464-.984-9.169 1.277-1.6 3.127-2.497 5.097-2.497 1.563 0 3.068.573 4.238 1.612 3.994 3.219 18.656 14.018 35.304 14.018l.417-.002c8.955 0 17.523-2.542 23.538-6.973 5.584-4.01 8.643-9.219 8.643-14.69 0-5.392-2.487-9.497-8.067-13.313-5.65-3.72-14.135-6.701-25.179-8.835l-.581-.048c-12.177-2.247-21.385-5.557-28.147-10.121-8.43-5.489-13.093-13.464-13.093-22.421 0-9.198 4.678-17.665 13.172-23.839 7.905-5.753 18.353-8.921 29.419-8.921 15.987 0 28.136 7.95 37.006 13.754 3.046 2.131 3.81 6.021 1.849 9.101-1.08 1.803-3.162 2.964-5.394 2.964a6.369 6.369 0 0 1-3.672-1.155c-8.27-5.41-17.727-11.599-29.791-11.599-8.173 0-16.096 2.31-21.736 6.336-5.007 3.72-7.79 8.475-7.79 13.355.134 4.653 2.302 8.121 7.25 11.514 4.986 3.423 12.795 6.174 23.208 8.177l.583.046c13.044 2.425 22.946 6.002 30.276 10.939 8.958 5.844 13.911 14.397 13.911 24.062 0 9.582-5.162 18.811-14.16 25.316-8.523 6.178-19.612 9.577-31.213 9.577zM299.71 181.002c-34.51 0-62.585-27.268-62.585-60.783 0-33.707 28.07-61.27 62.57-61.44 13.977 0 27.766 4.698 38.844 13.231 1.648 1.345 2.614 3.261 2.717 5.309.09 1.731-.482 3.391-1.571 4.601a6.685 6.685 0 0 1-5.406 2.739 6.864 6.864 0 0 1-4.271-1.489c-8.824-6.861-19.313-10.502-30.297-10.502-26.853 0-48.702 21.333-48.702 47.554 0 25.86 21.846 46.897 48.702 46.897 11.319 0 21.94-3.711 29.906-10.451l.266-.197a7.472 7.472 0 0 1 4.162-1.282c2.254 0 4.275 1.056 5.487 2.847 1.175 1.233 1.787 2.94 1.69 4.759-.105 2.08-1.137 4.021-2.75 5.198-10.867 8.367-24.656 13.009-38.762 13.009zM441.55 181.002c-2.768 0-5.434-1.835-6.486-4.459l-9.471-25.209h-48.23l-9.447 25.148c-1.105 2.768-3.65 4.52-6.511 4.52-.259 0-.635-.04-1.044-.106-.146-.021-.305-.053-.447-.06l-.521-.021-.591-.202c-1.702-.709-3.094-2.131-3.825-3.899-.705-1.715-.722-3.551-.044-5.171l39.855-106.435c1.112-2.51 3.771-4.199 6.606-4.199 3.127 0 5.821 1.794 6.711 4.467l39.788 106.267c.648 1.544.645 3.467-.045 5.175-.697 1.726-2.045 3.108-3.697 3.796l-.541.225h-.586c-.133 0-.23.027-.318.043-.378.067-.736.12-1.156.12zm-59.03-43.549h37.929L401.55 87.059l-19.03 50.394zM468.593 181.002c-3.717 0-6.857-3.143-6.857-6.858V67.278c0-3.489 2.818-6.564 6.289-6.854l1.063-.01h31.959c19.6 0 35.541 16.018 35.541 35.708 0 11.979-6.105 23.141-15.912 29.702 5.754 4.015 14.109 12.261 14.109 26.354 0 6.917.721 10.533 1.322 12.349.09.258.203.563.344.843 2.605.378 4.822 2.088 5.697 4.491l.102.344c.85 3.689-1.012 7.317-4.426 8.633l-.508.192h-.391a15.41 15.41 0 0 1-2.119.164h-.326c-3.156 0-7.633-2.146-9.992-6.856-2.359-4.528-3.424-10.759-3.424-20.16 0-6.121-2.592-10.895-8.16-15.023-4.504-3.195-10.115-4.906-11.977-5.191l-.484-.118a5.951 5.951 0 0 1-.471-.176h-24.355v42.474c0 3.779-3.151 6.858-7.024 6.858zm7.024-63.055h26.086c11.637-.289 21.168-10.078 21.168-21.821 0-12.032-9.789-21.822-21.82-21.822h-25.432v43.644h-.002zM60.671 182.391C26.834 182.391.184 155.123 0 120.31c.064-12.086 3.422-23.759 9.712-33.767a6.712 6.712 0 0 1 5.712-3.153c1.266 0 2.502.358 3.577 1.03a6.695 6.695 0 0 1 2.984 4.207 6.69 6.69 0 0 1-.863 5.083c-4.954 7.88-7.596 17.078-7.648 26.599.145 27.253 20.876 48.605 47.197 48.605 26.593 0 47.537-21.383 47.679-48.678-.143-27.253-21.084-48.605-47.679-48.605-7.631 0-14.877 1.781-21.541 5.294a6.734 6.734 0 0 1-9.101-2.819 6.696 6.696 0 0 1-.476-5.136 6.696 6.696 0 0 1 3.295-3.965c8.623-4.545 17.983-6.851 27.822-6.851 34.109 0 60.971 27.271 61.154 62.083-.183 34.858-27.043 62.154-61.153 62.154z"/><path fill="#9C2F33" d="M36.344 133.353c-1.941 0-3.638-1.341-4.19-3.208-.437-1.185-3.728-5.575-9.003-9.032a88.77 88.77 0 0 0-2.801-1.73c-6.11-3.683-14.477-8.728-14.4-19.722.094-13.425 8.812-20.446 17.376-20.446 5.012 0 9.584 2.217 13.049 6.152 3.463-3.774 8.063-5.947 13.005-5.947 8.551 0 17.252 6.914 17.342 20.131.078 10.616-7.889 15.571-13.705 19.187-1.219.759-2.369 1.473-3.369 2.184-4.891 3.466-8.559 7.892-9.073 9.196-.49 1.917-2.184 3.203-4.162 3.234-.023-.001-.045.001-.069.001z"/><g fill="#2D649E"><path d="M105.804 195.79c1.331 1.416 2.169 3.307 2.169 5.43a7.85 7.85 0 0 1-2.169 5.433c-1.268 1.396-3.155 2.298-5.129 2.298-2.061 0-3.95-.9-5.26-2.298-1.332-1.396-2.125-3.306-2.125-5.433 0-2.123.795-4.014 2.125-5.43a7.173 7.173 0 0 1 5.26-2.297c1.974 0 3.862.882 5.129 2.297zm-.278 5.429a5.56 5.56 0 0 0-1.46-3.755c-.9-.968-2.104-1.522-3.392-1.522-1.375 0-2.578.556-3.478 1.522-.901.946-1.46 2.295-1.46 3.755 0 1.458.559 2.813 1.46 3.736.902.964 2.104 1.544 3.478 1.544 1.287 0 2.489-.58 3.392-1.544.88-.923 1.46-2.278 1.46-3.736zM115.678 208.947c-2.449 0-4.466-2.017-4.466-4.464v-5.133c0-.599.516-1.135 1.136-1.135.644 0 1.138.536 1.138 1.135v5.133c0 1.226.965 2.188 2.19 2.188 1.244 0 2.231-.963 2.252-2.188v-5.133c0-.599.472-1.135 1.117-1.135.601 0 1.161.536 1.161 1.135v5.133c.001 2.447-2.061 4.464-4.528 4.464zM128.876 199.396c0 .645-.558 1.175-1.201 1.175h-.536v5.992c.666 0 1.181.536 1.181 1.201 0 .667-.515 1.181-1.181 1.181a2.388 2.388 0 0 1-2.382-2.382v-5.992h-.622c-.667 0-1.182-.53-1.182-1.175 0-.669.516-1.181 1.182-1.181h.622v-3.113c0-.668.537-1.182 1.201-1.182.665 0 1.181.515 1.181 1.182v3.113h.536c.643.001 1.201.514 1.201 1.181zM131.021 203.603c0-2.982 2.489-5.37 5.451-5.388 1.288 0 2.489.472 3.412 1.181.494.385.581 1.117.236 1.586-.429.52-1.117.603-1.61.218-.558-.405-1.246-.685-2.04-.685-1.739 0-3.178 1.438-3.178 3.088 0 1.652 1.439 3.069 3.178 3.069.774 0 1.481-.277 2.04-.688.472-.363 1.181-.275 1.61.237.345.472.258 1.159-.236 1.591-.923.662-2.124 1.137-3.412 1.137-2.962-.002-5.451-2.408-5.451-5.346zM144.156 207.382c-.923-.946-1.483-2.275-1.483-3.778 0-1.458.559-2.727 1.483-3.758.966-1.009 2.211-1.63 3.692-1.63 1.417 0 2.704.621 3.585 1.63.965 1.029 1.503 2.298 1.503 3.758 0 1.503-.536 2.832-1.503 3.778a4.741 4.741 0 0 1-3.585 1.632c-1.48-.003-2.725-.624-3.692-1.632zm.86-3.779c0 .923.279 1.674.771 2.275.539.517 1.246.794 2.062.794.751 0 1.438-.277 1.975-.794.536-.601.838-1.354.838-2.275 0-.88-.302-1.652-.838-2.23-.537-.474-1.224-.815-1.975-.815-.816 0-1.523.343-2.062.815-.494.577-.771 1.35-.771 2.23zM165.019 202.659V207.809c0 .621-.514 1.137-1.137 1.137-.601 0-1.158-.516-1.158-1.137v-5.087-.063c-.022-1.183-1.01-2.146-2.211-2.146-1.181 0-2.168.985-2.168 2.21v5.087c0 .04-.021.106-.021.149v.063c-.022.04-.022.088-.064.129v.106c-.193.386-.622.686-1.072.686-.087 0-.15-.02-.215-.02-.516-.129-.923-.561-.923-1.117v-5.086-3.351c0-.668.516-1.158 1.138-1.158.452 0 .858.234 1.03.644a4.516 4.516 0 0 1 2.297-.644c1.351 0 2.554.557 3.37 1.48.794-.925 2.017-1.48 3.372-1.48 2.469 0 4.464 2.017 4.464 4.509v5.087c0 .621-.516 1.137-1.137 1.137s-1.161-.516-1.161-1.137v-5.087c0-1.227-.987-2.21-2.167-2.21a2.235 2.235 0 0 0-2.237 2.149zM175.171 203.58c.02-2.919 2.297-5.364 5.236-5.364 2.792 0 5.001 2.082 5.173 4.981v.105c0 .042 0 .149-.021.195-.065.514-.516.856-1.117.856h-6.826c.107.491.345 1.053.729 1.418.451.515 1.311.898 2.06.964.774.065 1.697-.131 2.233-.537.452-.474 1.331-.407 1.61-.064.278.302.494.946 0 1.395-1.052.969-2.319 1.42-3.843 1.42-2.937-.021-5.214-2.449-5.234-5.369zm2.339-1.052h6.074c-.214-.855-1.308-2.126-3.178-2.273-1.823.083-2.724 1.395-2.896 2.273zM203.437 203.603v4.207c0 .621-.515 1.137-1.137 1.137-.558 0-.987-.408-1.116-.923a4.868 4.868 0 0 1-2.854.923 4.992 4.992 0 0 1-3.649-1.566c-.921-.986-1.46-2.316-1.46-3.777 0-1.482.539-2.811 1.46-3.781.923-.985 2.19-1.606 3.649-1.606 1.072 0 2.04.366 2.854.944.128-.535.558-.944 1.116-.944.623 0 1.137.514 1.137 1.158v4.228zm-2.275 0c0-.9-.322-1.675-.838-2.21a2.642 2.642 0 0 0-1.995-.88c-.774 0-1.503.297-1.998.88-.513.533-.814 1.31-.814 2.21 0 .882.301 1.652.814 2.212.494.535 1.226.837 1.998.837.75 0 1.481-.302 1.995-.837.516-.559.838-1.33.838-2.212zM210.628 197.506v.302h.643c.645 0 1.181.517 1.181 1.183 0 .643-.536 1.177-1.181 1.177h-.643v7.58c0 .645-.516 1.182-1.181 1.182s-1.181-.537-1.181-1.182v-7.58h-.559a1.193 1.193 0 0 1-1.201-1.177c0-.669.536-1.183 1.201-1.183h.559v-.302c0-.792.086-1.482.407-2.104a2.532 2.532 0 0 1 1.546-1.326 4.236 4.236 0 0 1 1.288-.176c.645 0 1.181.534 1.181 1.18 0 .666-.536 1.204-1.181 1.204-.28 0-.472.021-.558.063-.085.02-.107.04-.129.065-.021.002-.192.302-.192 1.094zM219.169 199.396c0 .645-.557 1.175-1.201 1.175h-.536v5.992c.665 0 1.181.536 1.181 1.201 0 .667-.516 1.181-1.181 1.181a2.388 2.388 0 0 1-2.382-2.382v-5.992h-.623c-.667 0-1.181-.53-1.181-1.175 0-.669.515-1.181 1.181-1.181h.623v-3.113c0-.668.536-1.182 1.201-1.182s1.181.515 1.181 1.182v3.113h.536c.643.001 1.201.514 1.201 1.181zM220.779 203.58c.02-2.919 2.297-5.364 5.237-5.364 2.791 0 5.002 2.082 5.173 4.981v.105c0 .042 0 .149-.02.195-.065.514-.516.856-1.117.856h-6.826c.106.491.344 1.053.729 1.418.452.515 1.31.898 2.062.964.773.065 1.697-.131 2.232-.537.452-.474 1.333-.407 1.611-.064.278.302.494.946 0 1.395-1.054.969-2.32 1.42-3.843 1.42-2.94-.021-5.217-2.449-5.238-5.369zm2.34-1.052h6.074c-.213-.855-1.308-2.126-3.178-2.273-1.824.083-2.725 1.395-2.896 2.273zM240.225 199.35c0 .604-.494 1.141-1.137 1.141-.494 0-.923.13-1.288.407-.408.259-.73.621-.987 1.028-.516.688-.774 1.505-.881 1.803v4.081c0 .621-.536 1.137-1.181 1.137a1.146 1.146 0 0 1-1.139-1.137v-8.46a1.13 1.13 0 0 1 1.139-1.117c.643 0 1.181.496 1.181 1.117v.152c.128-.152.3-.321.451-.432.708-.471 1.631-.855 2.705-.839a1.118 1.118 0 0 1 1.137 1.119zM247.886 205.879a1.116 1.116 0 0 1 1.61-.171c.558.473 1.523.963 2.362.943.579 0 1.117-.191 1.459-.405.301-.261.387-.473.387-.646a.333.333 0 0 0-.064-.219c-.022-.063-.106-.148-.28-.253-.301-.217-.945-.456-1.717-.603h-.022c-.665-.129-1.307-.302-1.867-.562-.579-.275-1.095-.663-1.481-1.239a2.623 2.623 0 0 1-.365-1.354c0-.987.558-1.825 1.268-2.364.75-.514 1.652-.792 2.64-.792 1.483 0 2.533.709 3.22 1.182.515.344.665 1.053.343 1.586a1.132 1.132 0 0 1-1.588.303c-.688-.451-1.289-.794-1.975-.794-.536 0-1.008.172-1.288.386-.28.191-.345.388-.345.495 0 .085 0 .105.044.173a.577.577 0 0 0 .236.212c.28.195.837.39 1.567.516l.022.024h.02c.709.13 1.374.321 1.997.622.58.256 1.158.666 1.523 1.269.258.426.407.922.407 1.417 0 1.051-.579 1.93-1.351 2.488a4.9 4.9 0 0 1-2.791.858c-1.674-.021-2.963-.794-3.821-1.479a1.151 1.151 0 0 1-.15-1.593zM257.674 203.58c.02-2.919 2.297-5.364 5.236-5.364 2.793 0 5.001 2.082 5.171 4.981v.105c0 .042 0 .149-.02.195-.064.514-.516.856-1.117.856h-6.826c.107.491.345 1.053.731 1.418.449.515 1.308.898 2.06.964.774.065 1.697-.131 2.233-.537.45-.474 1.331-.407 1.61-.064.278.302.494.946 0 1.395-1.052.969-2.319 1.42-3.845 1.42-2.936-.021-5.213-2.449-5.233-5.369zm2.34-1.052h6.076c-.215-.855-1.312-2.126-3.18-2.273-1.824.083-2.725 1.395-2.896 2.273zM272.287 193.921c.67 0 1.204.537 1.204 1.182v12.663c0 .645-.534 1.182-1.204 1.182a1.187 1.187 0 0 1-1.175-1.182v-12.663c0-.645.533-1.182 1.175-1.182zM275.982 203.58c.023-2.919 2.298-5.364 5.24-5.364 2.791 0 4.998 2.082 5.172 4.981v.105c0 .042 0 .149-.02.195-.065.514-.517.856-1.117.856h-6.826c.109.491.346 1.053.73 1.418.449.515 1.313.898 2.063.964.773.065 1.695-.131 2.232-.537.449-.474 1.327-.407 1.605-.064.279.302.497.946 0 1.395-1.051.969-2.316 1.42-3.84 1.42-2.942-.021-5.218-2.449-5.239-5.369zm2.339-1.052h6.079c-.217-.855-1.311-2.126-3.178-2.273-1.827.083-2.731 1.395-2.901 2.273zM288.515 203.603c0-2.982 2.492-5.37 5.451-5.388 1.289 0 2.492.472 3.418 1.181.49.385.58 1.117.236 1.586-.431.52-1.117.603-1.611.218-.558-.405-1.243-.685-2.039-.685-1.739 0-3.174 1.438-3.174 3.088 0 1.652 1.435 3.069 3.174 3.069.772 0 1.482-.277 2.039-.688.472-.363 1.182-.275 1.611.237.344.472.254 1.159-.236 1.591-.926.662-2.129 1.137-3.418 1.137-2.959-.002-5.451-2.408-5.451-5.346zM305.817 199.396c0 .645-.558 1.175-1.201 1.175h-.534v5.992c.668 0 1.18.536 1.18 1.201 0 .667-.514 1.181-1.18 1.181a2.39 2.39 0 0 1-2.384-2.382v-5.992h-.618a1.17 1.17 0 0 1-1.183-1.175c0-.669.517-1.181 1.183-1.181h.618v-3.113c0-.668.537-1.182 1.2-1.182.669 0 1.184.515 1.184 1.182v3.113h.534c.645.001 1.201.514 1.201 1.181zM311.378 195.533c0 .643-.494 1.181-1.162 1.181-.643 0-1.157-.538-1.157-1.181v-.454c0-.646.516-1.16 1.157-1.16.668 0 1.162.516 1.162 1.16v.454zm0 3.882v8.372c0 .646-.494 1.162-1.162 1.162a1.155 1.155 0 0 1-1.157-1.162v-8.372c0-.687.516-1.183 1.157-1.183.668.001 1.162.497 1.162 1.183zM323.009 199.93l-3.521 8.331a.393.393 0 0 1-.088.147c0 .023-.021.023-.021.023-.045.04-.086.106-.127.149 0 .022-.025.022-.025.022-.039.064-.083.086-.129.129 0 0-.02 0-.02.023-.045.041-.089.083-.154.106h-.039v.02a.365.365 0 0 0-.172.046h-.043c-.086.021-.152.021-.215.021-.043 0-.109 0-.191-.021h-.045c-.059-.024-.107-.046-.172-.046v-.02h-.041c-.064-.023-.106-.063-.194-.106 0-.023-.021-.023-.021-.023-.043-.043-.088-.063-.129-.129-.022 0-.022 0-.041-.022a.74.74 0 0 0-.107-.149c-.023 0-.023 0-.023-.023-.039-.02-.064-.083-.09-.147l-3.473-8.331c-.26-.58.021-1.201.619-1.458.515-.256 1.181.043 1.441.624l2.467 5.838 2.49-5.838c.237-.581.883-.881 1.438-.624.607.257.886.878.626 1.458zM325.087 203.58c.024-2.919 2.299-5.364 5.239-5.364 2.792 0 5 2.082 5.173 4.981v.105c0 .042 0 .149-.021.195-.063.514-.515.856-1.116.856h-6.822c.104.491.342 1.053.729 1.418.451.515 1.311.898 2.063.964.771.065 1.695-.131 2.231-.537.452-.474 1.33-.407 1.608-.064.277.302.494.946 0 1.395-1.053.969-2.318 1.42-3.844 1.42-2.939-.021-5.215-2.449-5.24-5.369zm2.34-1.052h6.08c-.219-.855-1.312-2.126-3.181-2.273-1.823.083-2.724 1.395-2.899 2.273zM343.525 203.58c.023-2.919 2.298-5.364 5.24-5.364 2.791 0 4.998 2.082 5.174 4.981v.105c0 .042 0 .149-.021.195-.064.514-.515.856-1.115.856h-6.824c.107.491.343 1.053.729 1.418.449.515 1.313.898 2.063.964.772.065 1.692-.131 2.231-.537.448-.474 1.328-.407 1.604-.064.278.302.497.946 0 1.395-1.05.969-2.313 1.42-3.841 1.42-2.941-.021-5.217-2.449-5.24-5.369zm2.34-1.052h6.078c-.218-.855-1.311-2.126-3.18-2.273-1.823.083-2.724 1.395-2.898 2.273zM365.891 203.603v4.207c0 .621-.515 1.137-1.134 1.137-.561 0-.986-.408-1.116-.923a4.879 4.879 0 0 1-2.856.923 4.986 4.986 0 0 1-3.648-1.566c-.924-.986-1.459-2.316-1.459-3.777 0-1.482.535-2.811 1.459-3.781.922-.985 2.19-1.606 3.648-1.606 1.07 0 2.04.366 2.856.944.13-.535.557-.944 1.116-.944.619 0 1.134.514 1.134 1.158v4.228zm-2.273 0c0-.9-.319-1.675-.836-2.21a2.651 2.651 0 0 0-1.998-.88c-.771 0-1.504.297-1.995.88-.517.533-.813 1.31-.813 2.21 0 .882.3 1.652.813 2.212.491.535 1.225.837 1.995.837.751 0 1.479-.302 1.998-.837.516-.559.836-1.33.836-2.212zM376.171 199.35c0 .604-.494 1.141-1.138 1.141-.495 0-.923.13-1.288.407a3.207 3.207 0 0 0-.986 1.028c-.516.688-.773 1.505-.883 1.803v4.081c0 .621-.537 1.137-1.181 1.137a1.146 1.146 0 0 1-1.137-1.137v-8.46c0-.621.516-1.117 1.137-1.117.644 0 1.181.496 1.181 1.117v.152c.131-.152.301-.321.449-.432.711-.471 1.631-.855 2.709-.839a1.118 1.118 0 0 1 1.137 1.119zM379.777 193.921c.665 0 1.202.537 1.202 1.182v12.663c0 .645-.537 1.182-1.202 1.182a1.193 1.193 0 0 1-1.182-1.182v-12.663a1.196 1.196 0 0 1 1.182-1.182zM392.743 199.35V207.467a5.09 5.09 0 0 1-5.132 5.13 5.114 5.114 0 0 1-2.212-.537c-.599-.26-.813-.923-.558-1.523.279-.516 1.012-.749 1.524-.473.408.193.815.302 1.243.302 1.27-.022 2.339-.839 2.686-1.955-.602.349-1.334.521-2.043.521-2.465 0-4.486-2.038-4.486-4.509v-5.068a1.14 1.14 0 0 1 1.117-1.135c.668 0 1.14.49 1.14 1.135v5.068c0 1.241 1.008 2.188 2.229 2.188 1.225 0 2.215-.945 2.215-2.188v-5.068c0-.645.473-1.135 1.111-1.135.631-.004 1.166.486 1.166 1.13zM401.882 203.603c0-2.982 2.492-5.37 5.455-5.388 1.287 0 2.492.472 3.414 1.181.492.385.58 1.117.238 1.586-.432.52-1.117.603-1.615.218a3.42 3.42 0 0 0-2.035-.685c-1.738 0-3.176 1.438-3.176 3.088 0 1.652 1.438 3.069 3.176 3.069.771 0 1.48-.277 2.035-.688.475-.363 1.184-.275 1.615.237.342.472.254 1.159-.238 1.591-.922.662-2.127 1.137-3.414 1.137-2.962-.002-5.455-2.408-5.455-5.346zM415.687 193.921c.664 0 1.199.537 1.199 1.182v12.663c0 .645-.535 1.182-1.199 1.182a1.192 1.192 0 0 1-1.182-1.182v-12.663a1.19 1.19 0 0 1 1.182-1.182zM420.152 207.382c-.926-.946-1.482-2.275-1.482-3.778 0-1.458.557-2.727 1.482-3.758.965-1.009 2.211-1.63 3.691-1.63 1.416 0 2.705.621 3.582 1.63.969 1.029 1.508 2.298 1.508 3.758 0 1.503-.539 2.832-1.508 3.778a4.737 4.737 0 0 1-3.582 1.632c-1.48-.003-2.726-.624-3.691-1.632zm.859-3.779c0 .923.275 1.674.771 2.275.537.517 1.246.794 2.061.794.752 0 1.439-.277 1.977-.794.535-.601.834-1.354.834-2.275 0-.88-.299-1.652-.834-2.23-.537-.474-1.225-.815-1.977-.815-.813 0-1.521.343-2.061.815-.495.577-.771 1.35-.771 2.23zM431.523 205.879a1.12 1.12 0 0 1 1.613-.171c.553.473 1.523.963 2.357.943.584 0 1.117-.191 1.463-.405.299-.261.389-.473.389-.646a.344.344 0 0 0-.066-.219c-.023-.063-.105-.148-.277-.253-.303-.217-.947-.456-1.721-.603h-.02c-.668-.129-1.311-.302-1.871-.562-.58-.275-1.094-.663-1.48-1.239a2.641 2.641 0 0 1-.363-1.354c0-.987.555-1.825 1.264-2.364.754-.514 1.656-.792 2.645-.792 1.48 0 2.531.709 3.217 1.182.518.344.67 1.053.344 1.586a1.134 1.134 0 0 1-1.59.303c-.686-.451-1.289-.794-1.975-.794-.535 0-1.012.172-1.285.386-.279.191-.346.388-.346.495 0 .085 0 .105.041.173a.617.617 0 0 0 .236.212c.283.195.838.39 1.572.516l.02.024h.021c.709.13 1.373.321 2 .622.576.256 1.158.666 1.521 1.269.254.426.406.922.406 1.417 0 1.051-.58 1.93-1.354 2.488a4.906 4.906 0 0 1-2.793.858c-1.67-.021-2.959-.794-3.818-1.479a1.157 1.157 0 0 1-.15-1.593zM446.314 208.947c-2.447 0-4.463-2.017-4.463-4.464v-5.133c0-.599.516-1.135 1.137-1.135.645 0 1.139.536 1.139 1.135v5.133c0 1.226.965 2.188 2.188 2.188 1.246 0 2.234-.963 2.258-2.188v-5.133c0-.599.473-1.135 1.115-1.135.6 0 1.158.536 1.158 1.135v5.133c-.001 2.447-2.063 4.464-4.532 4.464zM461.298 199.35c0 .604-.496 1.141-1.141 1.141-.494 0-.922.13-1.289.407-.406.259-.73.621-.984 1.028-.518.688-.773 1.505-.883 1.803v4.081c0 .621-.537 1.137-1.182 1.137a1.146 1.146 0 0 1-1.135-1.137v-8.46c0-.621.516-1.117 1.135-1.117.645 0 1.182.496 1.182 1.117v.152c.129-.152.303-.321.451-.432.709-.471 1.631-.855 2.705-.839.645.002 1.141.498 1.141 1.119zM461.744 203.58c.023-2.919 2.299-5.364 5.24-5.364 2.791 0 5 2.082 5.172 4.981v.105c0 .042 0 .149-.02.195-.063.514-.516.856-1.117.856h-6.822c.105.491.342 1.053.729 1.418.449.515 1.309.898 2.061.964.771.065 1.697-.131 2.232-.537.449-.474 1.33-.407 1.607-.064.277.302.496.946 0 1.395-1.051.969-2.316 1.42-3.844 1.42-2.938-.021-5.215-2.449-5.238-5.369zm2.339-1.052h6.078c-.215-.855-1.311-2.126-3.18-2.273-1.821.083-2.726 1.395-2.898 2.273zM481.923 207.382c-.926-.946-1.48-2.275-1.48-3.778 0-1.458.557-2.727 1.48-3.758.963-1.009 2.211-1.63 3.693-1.63 1.414 0 2.705.621 3.582 1.63.969 1.029 1.506 2.298 1.506 3.758 0 1.503-.537 2.832-1.506 3.778a4.74 4.74 0 0 1-3.582 1.632c-1.484-.003-2.73-.624-3.693-1.632zm.858-3.779c0 .923.277 1.674.773 2.275.535.517 1.244.794 2.061.794.752 0 1.438-.277 1.975-.794.537-.601.834-1.354.834-2.275 0-.88-.297-1.652-.834-2.23-.537-.474-1.223-.815-1.975-.815-.813 0-1.521.343-2.061.815-.494.577-.773 1.35-.773 2.23zM496.583 197.506v.302h.645a1.18 1.18 0 0 1 1.182 1.183 1.19 1.19 0 0 1-1.182 1.177h-.645v7.58c0 .645-.514 1.182-1.18 1.182a1.179 1.179 0 0 1-1.184-1.182v-7.58h-.557a1.192 1.192 0 0 1-1.203-1.177c0-.669.535-1.183 1.203-1.183h.557v-.302c0-.792.088-1.482.406-2.104a2.541 2.541 0 0 1 1.547-1.326c.432-.132.84-.176 1.289-.176.645 0 1.184.534 1.184 1.18a1.2 1.2 0 0 1-1.184 1.204c-.275 0-.471.021-.559.063-.084.02-.107.04-.125.065-.022.002-.194.302-.194 1.094zM511.458 203.108h-2.645v4.657a1.188 1.188 0 1 1-2.379 0v-12.663c0-.668.533-1.182 1.176-1.182h3.847a4.609 4.609 0 0 1 4.613 4.616c.004 2.511-2.059 4.572-4.612 4.572zm-2.642-2.381h2.645a2.22 2.22 0 0 0 2.229-2.189c-.021-1.243-.988-2.23-2.229-2.23h-2.645v4.419zM518.414 207.765v-12.663c0-.668.514-1.182 1.176-1.182h2.535c4.141 0 7.492 3.372 7.492 7.491 0 4.165-3.354 7.534-7.492 7.534h-2.535a1.173 1.173 0 0 1-1.176-1.18zm2.38-1.201h1.332a5.13 5.13 0 0 0 5.109-5.151 5.106 5.106 0 0 0-5.109-5.107h-1.332v10.258zM539.576 205.407h-5.217l-1.053 2.788a1.202 1.202 0 0 1-1.117.752c-.148 0-.277-.02-.406-.065a1.215 1.215 0 0 1-.709-1.542l4.744-12.646c.193-.472.668-.772 1.139-.75.492-.022.947.278 1.137.75l4.746 12.646c.213.621-.084 1.309-.707 1.542a1.086 1.086 0 0 1-.41.065c-.473 0-.922-.277-1.096-.752l-1.051-2.788zm-.881-2.363l-1.738-4.615-1.734 4.615h3.472z"/></g><g fill="#2D649E"><path d="M92.725 1.732c0-.937.796-1.732 1.734-1.732h11.263c6.931 0 12.562 5.632 12.562 12.636 0 3.972-1.95 7.508-4.837 9.819 5.705 1.948 9.892 7.292 9.892 13.646 0 8.013-6.499 14.438-14.438 14.438H94.387c-.938 0-1.661-.792-1.661-1.733l-.001-47.074zm12.997 19.857c4.983 0 9.024-4.044 9.024-8.954 0-5.054-4.043-9.098-9.024-9.098h-9.458v18.052h9.458zm3.178 25.412c5.992 0 10.83-4.838 10.901-10.901-.072-5.993-4.911-10.902-10.901-10.902H96.264v21.806H108.9v-.003zM164.488 16.894v31.911c0 .941-.794 1.733-1.732 1.733s-1.732-.792-1.732-1.733v-5.271c-3.031 4.187-7.869 7.004-13.284 7.004-9.313 0-16.75-8.014-16.75-17.688s7.437-17.688 16.75-17.688c5.416 0 10.253 2.743 13.284 6.931v-5.198c0-1.011.794-1.731 1.732-1.731s1.732.721 1.732 1.73zm-3.466 15.956c0-7.941-5.992-14.296-13.285-14.296-7.22 0-13.283 6.354-13.283 14.296s6.063 14.224 13.283 14.224c7.294.001 13.285-6.281 13.285-14.224zM179.5 33.644V1.732c0-.938.795-1.732 1.732-1.732 1.012 0 1.805.795 1.805 1.732v20.36c3.105-4.188 8.016-6.931 13.574-6.931 9.531 0 17.111 7.941 17.111 17.759 0 9.677-7.58 17.617-17.111 17.617-5.558 0-10.468-2.674-13.574-6.858v5.126c0 .941-.793 1.733-1.805 1.733a1.755 1.755 0 0 1-1.732-1.733V33.644zm3.538-.723c0 7.799 6.137 14.081 13.574 14.081 7.51 0 13.574-6.281 13.574-14.081 0-7.869-6.064-14.221-13.574-14.221-7.292 0-13.285 6.065-13.574 13.646v.575zM222.384 16.821c0-.938.794-1.659 1.661-1.659 1.012 0 1.804.723 1.804 1.659v19.206c0 6.066 4.837 10.902 10.831 10.902 6.063 0 10.901-4.836 10.974-10.902V16.821c0-.287.073-.648.289-.866 0-.071.071-.145.071-.218.073 0 .073-.07.145-.07.145-.217.433-.361.65-.434h.144c.071 0 .144-.072.215-.072h.432c.289.072.577.217.867.36.143.145.359.361.433.577.144.217.217.505.217.722V47.72c0 9.242-7.509 16.609-16.823 16.609-2.601 0-5.054-.651-7.292-1.66-.793-.507-1.156-1.519-.721-2.309.433-.869 1.372-1.083 2.238-.869a13.045 13.045 0 0 0 5.777 1.371c7.364 0 13.283-5.844 13.356-13.141v-2.307c-2.67 3.031-6.57 5.052-10.974 5.052-7.87-.071-14.295-6.497-14.295-14.438l.001-19.207z"/></g></svg>