<svg xmlns="http://www.w3.org/2000/svg" width="418.682" height="212.6" viewBox="0 0 418.682 212.6"><g fill="#00A297"><path d="M45.356 32.471c0 1.677-.141 3.424-.44 5.257-.936 5.352-4.271 9.497-8.149 12.626-3.629 3.21-9.574 6.178-13.458 7.528-.942.332-2.226.562-3.623.772-.991.25-2.311.605-3.214.905.353.47.827 1.048 1.31 1.599a95.75 95.75 0 0 0 2.345 2.583l.034.04c1.854-.858 5.842-1.592 7.83-2.347 8.813-3.375 17.85-9.545 19.251-18.181 1.123-7.014-.215-12.743-2.769-17.815.557 2.201.883 4.533.883 7.033zM53.245 115.603c1.801 5.381 3.048 10.513 3.75 15.501l.009.062.008 8.418-.006.061c-2.191 15.595-9.482 30.23-22.194 44.818-6.411 7.312-12.084 12.839-19.491 18.962l-1.779 1.672c-1.58 1.563-3.652 3.694-6.495 4.413-.54.715-.827 1.232.522 2.313 5.617 2.773 8.73-2.54 11.666-5.034 7.358-6.268 12.718-11.691 18.684-18.678 10.126-11.945 18.624-26.156 20.992-43.403v-8.094c-1.046-7.615-3.216-14.691-5.666-21.011z"/></g><path fill="#0070BA" d="M73.278 116.412c-1.537 0-2.847-.472-3.938-1.414-1.09-.941-1.634-2.271-1.634-4 0-1.559.557-2.845 1.675-3.854 1.114-1.012 2.415-1.514 3.897-1.514 1.426 0 2.692.458 3.795 1.374 1.104.919 1.652 2.25 1.652 3.996 0 1.698-.539 3.022-1.614 3.979-1.073.953-2.356 1.433-3.833 1.433zm5.45 11.381v31.851c0 2.205-.525 3.874-1.571 5.006-1.05 1.13-2.381 1.7-4 1.7-1.613 0-2.926-.578-3.935-1.735-1.01-1.158-1.513-2.813-1.513-4.967V128.12c0-2.175.503-3.822 1.513-4.918 1.01-1.108 2.322-1.656 3.935-1.656 1.618 0 2.949.552 4 1.656 1.046 1.094 1.571 2.631 1.571 4.591zM101.05 150.442v9.204c0 2.234-.525 3.908-1.571 5.024-1.05 1.114-2.384 1.676-3.999 1.676-1.588 0-2.892-.569-3.916-1.698-1.021-1.129-1.536-2.798-1.536-5.005v-30.68c0-4.948 1.79-7.425 5.366-7.425 1.831 0 3.149.576 3.957 1.731.808 1.156 1.25 2.866 1.332 5.125 1.318-2.261 2.669-3.969 4.056-5.125 1.386-1.155 3.234-1.731 5.551-1.731 2.313 0 4.563.576 6.742 1.731 2.177 1.156 3.27 2.692 3.27 4.603 0 1.349-.466 2.455-1.393 3.329-.931.872-1.933 1.309-3.008 1.309-.404 0-1.377-.246-2.925-.745-1.55-.502-2.915-.751-4.097-.751-1.616 0-2.934.42-3.957 1.272-1.022.853-1.815 2.105-2.381 3.771-.565 1.667-.956 3.654-1.171 5.959-.211 2.31-.32 5.113-.32 8.426zM127.919 122.505h1.208v-6.616c0-1.775.046-3.171.141-4.182.094-1.01.357-1.875.791-2.603.428-.753 1.049-1.369 1.857-1.837.807-.473 1.707-.706 2.702-.706 1.399 0 2.665.526 3.795 1.568a4.686 4.686 0 0 1 1.433 2.566c.205 1.01.305 2.438.305 4.297v7.507h4.035c1.561 0 2.752.371 3.574 1.107.821.742 1.229 1.688 1.229 2.848 0 1.479-.583 2.52-1.755 3.105-1.174.591-2.846.89-5.025.89h-2.057v20.263c0 1.725.06 3.051.182 3.979.121.927.443 1.683.969 2.261s1.375.867 2.564.867c.646 0 1.52-.115 2.621-.345 1.105-.226 1.964-.338 2.582-.338.888 0 1.688.354 2.406 1.067.713.715 1.069 1.595 1.069 2.644 0 1.778-.969 3.141-2.905 4.079-1.937.94-4.724 1.418-8.357 1.418-3.444 0-6.055-.578-7.833-1.734-1.775-1.159-2.94-2.759-3.491-4.805-.555-2.044-.831-4.78-.831-8.194v-21.147h-1.454c-1.588 0-2.798-.381-3.631-1.132-.837-.752-1.251-1.711-1.251-2.868s.438-2.103 1.312-2.845 2.146-1.114 3.815-1.114zM167.356 111.848v16.35c1.399-1.616 2.768-2.894 4.098-3.838a14.797 14.797 0 0 1 4.42-2.117c1.614-.477 3.352-.706 5.207-.706 2.796 0 5.277.587 7.447 1.772 2.166 1.188 3.865 2.906 5.104 5.172.78 1.317 1.307 2.792 1.574 4.42s.404 3.506.404 5.629v21.114c0 2.205-.504 3.874-1.514 5.005-1.013 1.131-2.348 1.701-4.019 1.701-3.634 0-5.449-2.239-5.449-6.701V141.04c0-3.524-.524-6.242-1.573-8.133-1.05-1.901-3.043-2.848-5.975-2.848-1.966 0-3.732.56-5.309 1.676-1.574 1.112-2.752 2.644-3.531 4.582-.594 1.639-.889 4.563-.889 8.755v14.571c0 2.18-.492 3.845-1.475 4.987-.982 1.144-2.347 1.719-4.097 1.719-3.634 0-5.449-2.237-5.449-6.701v-47.791c0-2.234.479-3.912 1.435-5.026.953-1.115 2.293-1.673 4.017-1.673 1.75 0 3.114.566 4.097 1.695.988 1.123 1.477 2.793 1.477 4.995zM216.69 127.712v1.334c2.07-2.556 4.22-4.435 6.456-5.63 2.238-1.196 4.763-1.796 7.589-1.796 3.393 0 6.511.873 9.363 2.619 2.853 1.75 5.104 4.305 6.763 7.668 1.654 3.365 2.481 7.347 2.481 11.947 0 3.39-.479 6.506-1.434 9.347-.953 2.84-2.266 5.222-3.938 7.146-1.674 1.924-3.638 3.402-5.913 4.439-2.272 1.035-4.715 1.549-7.325 1.549-3.146 0-5.791-.633-7.93-1.897-2.137-1.266-4.178-3.121-6.11-5.569v16.55c0 4.842-1.767 7.263-5.29 7.263-2.074 0-3.448-.623-4.119-1.877-.672-1.249-1.012-3.072-1.012-5.468V127.79c0-2.095.457-3.667 1.373-4.702.914-1.031 2.166-1.551 3.756-1.551 1.561 0 2.83.532 3.813 1.593.982 1.066 1.477 2.595 1.477 4.582zm21.593 16.027c0-2.904-.442-5.404-1.333-7.485-.883-2.084-2.116-3.685-3.688-4.801-1.57-1.116-3.319-1.678-5.229-1.678-3.045 0-5.607 1.197-7.688 3.589-2.087 2.398-3.131 5.923-3.131 10.583 0 4.385 1.032 7.793 3.109 10.233 2.072 2.437 4.643 3.651 7.706 3.651 1.828 0 3.522-.53 5.09-1.594 1.561-1.063 2.81-2.657 3.757-4.784.937-2.127 1.407-4.7 1.407-7.714zM258.187 159.646v-47.798c0-2.207.482-3.872 1.471-5.005.98-1.131 2.309-1.694 3.975-1.694s3.018.56 4.033 1.676c1.021 1.111 1.535 2.792 1.535 5.022v47.793c0 2.232-.514 3.906-1.549 5.021-1.037 1.116-2.377 1.679-4.02 1.679-1.619 0-2.926-.575-3.941-1.733-1.001-1.154-1.504-2.807-1.504-4.961zM308.438 160.129c-2.662 2.076-5.24 3.626-7.729 4.662-2.492 1.036-5.279 1.556-8.373 1.556-2.822 0-5.309-.564-7.449-1.68-2.141-1.116-3.787-2.629-4.941-4.546a11.76 11.76 0 0 1-1.736-6.217c0-3.012.955-5.583 2.869-7.709 1.908-2.125 4.535-3.553 7.869-4.279.697-.161 2.438-.524 5.207-1.095a254.2 254.2 0 0 0 7.127-1.551 138.473 138.473 0 0 0 6.436-1.717c-.133-2.905-.719-5.04-1.756-6.401-1.031-1.359-3.18-2.037-6.436-2.037-2.797 0-4.908.394-6.32 1.174-1.412.777-2.619 1.951-3.631 3.51-1.01 1.562-1.727 2.594-2.139 3.087-.418.497-1.314.753-2.688.753-1.236 0-2.303-.398-3.207-1.194-.904-.795-1.354-1.812-1.354-3.049 0-1.938.686-3.821 2.061-5.65 1.371-1.831 3.51-3.335 6.42-4.521 2.906-1.188 6.523-1.774 10.855-1.774 4.844 0 8.65.573 11.424 1.715 2.771 1.145 4.732 2.959 5.877 5.435 1.145 2.474 1.717 5.759 1.717 9.852 0 2.583-.008 4.775-.018 6.579-.02 1.803-.041 3.81-.063 6.016 0 2.071.34 4.231 1.025 6.479.686 2.247 1.029 3.692 1.029 4.34 0 1.131-.531 2.162-1.596 3.087-1.063.93-2.264 1.396-3.613 1.396-1.129 0-2.248-.532-3.348-1.598-1.106-1.062-2.28-2.603-3.519-4.623zm-.724-15.946c-1.613.594-3.959 1.218-7.043 1.881-3.086.659-5.213 1.141-6.404 1.454-1.186.309-2.313.916-3.389 1.814-1.078.904-1.617 2.164-1.617 3.773 0 1.669.631 3.086 1.9 4.259 1.266 1.17 2.916 1.756 4.963 1.756 2.178 0 4.195-.481 6.039-1.435 1.84-.952 3.195-2.184 4.055-3.691.996-1.668 1.492-4.412 1.492-8.235l.004-1.576zM369.235 152.701c0 1.374-.408 2.843-1.23 4.399-.82 1.559-2.074 3.047-3.758 4.464-1.682 1.41-3.799 2.547-6.355 3.41-2.555.858-5.438 1.29-8.637 1.29-6.805 0-12.121-1.987-15.943-5.957-3.824-3.972-5.729-9.288-5.729-15.966 0-4.52.871-8.516 2.621-11.987 1.746-3.475 4.281-6.157 7.588-8.054 3.314-1.9 7.268-2.846 11.867-2.846 2.854 0 5.467.413 7.848 1.25 2.383.836 4.398 1.908 6.063 3.232 1.648 1.316 2.918 2.721 3.793 4.216.871 1.492 1.309 2.883 1.309 4.177 0 1.32-.484 2.438-1.469 3.353-.984.916-2.176 1.373-3.576 1.373-.92 0-1.676-.231-2.279-.707-.604-.473-1.281-1.23-2.037-2.28-1.352-2.04-2.75-3.578-4.217-4.602-1.463-1.021-3.33-1.535-5.59-1.535-3.256 0-5.885 1.273-7.871 3.813-1.994 2.543-2.984 6.025-2.984 10.435 0 2.073.256 3.978.764 5.714.51 1.733 1.254 3.218 2.221 4.44a9.533 9.533 0 0 0 3.512 2.787c1.371.635 2.879.949 4.52.949 2.209 0 4.1-.511 5.672-1.537 1.57-1.019 2.969-2.584 4.18-4.68.668-1.237 1.396-2.207 2.178-2.906.773-.699 1.732-1.051 2.869-1.051 1.346 0 2.461.514 3.35 1.54.877 1.023 1.32 2.108 1.32 3.266zM409.601 146.648h-21.557c.023 2.502.531 4.71 1.514 6.62.982 1.906 2.285 3.352 3.912 4.317 1.635.968 3.426 1.453 5.391 1.453 1.316 0 2.525-.156 3.613-.465a11.64 11.64 0 0 0 3.168-1.456 25.025 25.025 0 0 0 2.826-2.115c.857-.753 1.979-1.778 3.348-3.067.57-.486 1.373-.728 2.426-.728 1.127 0 2.045.311 2.744.929.697.621 1.051 1.495 1.051 2.621 0 1-.396 2.162-1.176 3.497-.775 1.331-1.957 2.612-3.529 3.835-1.572 1.225-3.557 2.244-5.934 3.053-2.385.808-5.121 1.211-8.217 1.211-7.076 0-12.58-2.018-16.514-6.058-3.934-4.03-5.891-9.513-5.891-16.429 0-3.255.482-6.275 1.457-9.069.967-2.783 2.377-5.172 4.234-7.162 1.855-1.993 4.143-3.517 6.865-4.579 2.715-1.064 5.729-1.596 9.041-1.596 4.301 0 8 .907 11.082 2.724 3.082 1.814 5.389 4.165 6.922 7.044 1.535 2.879 2.303 5.812 2.303 8.805 0 2.77-.797 4.565-2.383 5.386-1.583.818-3.816 1.229-6.696 1.229zm-21.553-6.258h19.98c-.271-3.767-1.285-6.59-3.055-8.459-1.764-1.87-4.086-2.807-6.961-2.807-2.74 0-5 .948-6.76 2.845-1.765 1.902-2.831 4.71-3.204 8.421z"/><path fill="#8AB1DF" d="M70.775 189.581c-.357 0-.666-.112-.919-.326-.253-.22-.38-.528-.38-.929 0-.367.129-.665.389-.899.259-.232.563-.353.908-.353.329 0 .625.106.88.316.257.213.387.522.387.932 0 .396-.127.701-.374.926-.25.224-.549.333-.891.333zm1.265 2.648v7.404c0 .514-.123.903-.366 1.161-.245.263-.557.398-.931.398s-.678-.135-.915-.402c-.234-.27-.352-.654-.352-1.152v-7.334c0-.506.117-.891.352-1.146.234-.256.541-.388.915-.388.376 0 .688.135.931.388.243.257.366.615.366 1.071zM78.536 192.192v.309c.451-.596.942-1.031 1.478-1.309.534-.28 1.15-.418 1.846-.418.674 0 1.28.146 1.811.441.532.302.932.712 1.195 1.248.166.312.278.654.326 1.018.05.365.074.829.074 1.388v4.771c0 .512-.117.901-.353 1.163-.236.259-.54.396-.915.396-.385 0-.69-.133-.931-.404-.235-.27-.355-.653-.355-1.153v-4.271c0-.841-.117-1.49-.353-1.938-.232-.449-.706-.671-1.403-.671-.457 0-.872.135-1.248.406-.376.272-.65.648-.827 1.123-.125.382-.187 1.096-.187 2.14v3.21c0 .519-.121.908-.361 1.169a1.22 1.22 0 0 1-.934.394c-.37 0-.669-.132-.91-.403-.24-.271-.357-.654-.357-1.154v-7.402c0-.485.106-.853.319-1.097.213-.236.502-.362.872-.362.225 0 .43.05.61.16.181.104.327.266.436.478.113.204.167.461.167.768zM104.931 189.348H98.65v3.381h5.783c.425 0 .747.096.953.289.212.189.315.441.315.753 0 .309-.104.568-.311.764-.206.193-.525.297-.956.297H98.65v3.913h6.5c.437 0 .768.104.991.311.221.204.334.475.334.811 0 .327-.112.587-.334.793-.221.207-.555.308-.991.308h-7.575c-.605 0-1.044-.133-1.31-.398-.266-.272-.4-.706-.4-1.307v-10.344c0-.398.058-.728.177-.979s.306-.438.56-.554c.252-.115.576-.174.971-.174h7.36c.445 0 .773.099.991.296.219.201.323.454.323.773 0 .325-.109.587-.323.782-.219.188-.549.285-.993.285zM112.374 192.192v.309c.451-.596.944-1.031 1.48-1.309.533-.28 1.15-.418 1.844-.418.673 0 1.282.146 1.814.441.531.302.931.712 1.195 1.248.168.312.278.654.327 1.018.049.365.075.829.075 1.388v4.771c0 .512-.118.901-.353 1.163-.236.259-.54.396-.917.396-.38 0-.69-.133-.931-.404-.236-.27-.357-.653-.357-1.153v-4.271c0-.841-.117-1.49-.352-1.938-.232-.449-.704-.671-1.403-.671-.457 0-.872.135-1.248.406a2.343 2.343 0 0 0-.827 1.123c-.125.382-.187 1.096-.187 2.14v3.21c0 .519-.122.908-.362 1.169-.24.26-.553.394-.934.394-.37 0-.669-.132-.91-.403-.24-.271-.357-.654-.357-1.154v-7.402c0-.485.106-.853.319-1.097.212-.236.501-.362.871-.362.225 0 .427.05.611.16.181.104.327.266.438.478.108.204.164.461.164.768zM132.623 192.65v7.448c0 .849-.089 1.582-.272 2.192a3.552 3.552 0 0 1-.873 1.521c-.4.401-.928.696-1.574.893-.648.196-1.454.293-2.418.293-.881 0-1.67-.127-2.365-.37-.696-.244-1.229-.566-1.605-.954-.375-.396-.563-.793-.563-1.206 0-.309.105-.57.316-.763.215-.199.471-.298.771-.298.374 0 .703.166.983.498.136.17.281.34.428.512.145.171.311.314.486.442.18.122.396.214.643.271.249.058.54.093.863.093.666 0 1.181-.093 1.548-.278.368-.188.623-.443.767-.773.146-.332.234-.688.26-1.066.027-.379.045-.988.057-1.825-.396.552-.848.971-1.365 1.261-.518.289-1.131.429-1.846.429-.859 0-1.607-.219-2.252-.657-.641-.438-1.135-1.052-1.478-1.84-.345-.788-.517-1.698-.517-2.731 0-.766.104-1.463.313-2.082.213-.618.508-1.142.897-1.565a3.887 3.887 0 0 1 1.344-.963c.503-.218 1.063-.319 1.669-.319.729 0 1.359.135 1.891.414s1.023.717 1.483 1.309v-.353c0-.444.108-.788.326-1.029.222-.244.501-.365.844-.365.491 0 .823.159.987.485.17.304.252.772.252 1.376zm-7.426 3.251c0 1.039.223 1.823.68 2.354.455.532 1.04.798 1.759.798.424 0 .829-.116 1.205-.34.379-.227.688-.574.926-1.032.237-.461.358-1.02.358-1.676 0-1.047-.229-1.861-.69-2.438-.459-.582-1.065-.876-1.816-.876-.73 0-1.32.277-1.762.837-.44.557-.66 1.346-.66 2.373zM136.481 199.635v-11.113c0-.514.117-.9.342-1.162.228-.262.535-.4.927-.4.39 0 .7.134.937.396.237.258.356.649.356 1.168v11.118c0 .519-.121.91-.362 1.167-.24.262-.553.394-.931.394s-.681-.133-.918-.402c-.232-.28-.351-.663-.351-1.166zM149.709 199.749c-.621.483-1.22.841-1.801 1.085-.576.242-1.229.361-1.949.361-.656 0-1.234-.133-1.729-.395a2.789 2.789 0 0 1-1.552-2.503c0-.701.221-1.296.664-1.793.445-.497 1.055-.827 1.829-.997.163-.041.567-.125 1.21-.253a52.784 52.784 0 0 0 1.656-.36c.461-.11.958-.242 1.499-.399-.034-.672-.168-1.174-.409-1.487-.24-.313-.74-.476-1.499-.476-.651 0-1.142.092-1.465.273-.33.181-.61.452-.845.815a7.46 7.46 0 0 1-.497.718c-.099.119-.306.176-.625.176a1.1 1.1 0 0 1-.747-.277.896.896 0 0 1-.314-.708c0-.451.16-.889.482-1.315.316-.422.816-.774 1.492-1.048.675-.277 1.519-.41 2.525-.41 1.127 0 2.012.133 2.658.398s1.104.688 1.369 1.266c.266.575.398 1.341.398 2.29 0 .602 0 1.109-.004 1.535-.004.419-.008.887-.015 1.398 0 .482.081.982.24 1.508.157.521.237.856.237 1.012 0 .264-.123.502-.371.718a1.22 1.22 0 0 1-.84.323c-.265 0-.523-.128-.78-.369-.258-.259-.53-.616-.817-1.086zm-.17-3.708c-.378.134-.924.283-1.64.437-.717.15-1.211.267-1.488.337-.273.07-.538.217-.789.423-.249.212-.376.499-.376.878 0 .389.146.716.44.99.299.271.679.408 1.155.408.509 0 .976-.112 1.403-.335.429-.221.745-.509.943-.859.23-.39.35-1.024.35-1.913l.002-.366zM158.502 192.192v.309c.451-.596.944-1.031 1.48-1.309.533-.28 1.148-.418 1.843-.418.676 0 1.282.146 1.813.441.531.302.93.712 1.193 1.248.17.312.277.654.329 1.018.051.365.075.829.075 1.388v4.771c0 .512-.118.901-.354 1.163-.235.259-.54.396-.916.396-.383 0-.69-.133-.932-.404-.24-.27-.356-.653-.356-1.153v-4.271c0-.841-.119-1.49-.354-1.938-.234-.449-.704-.671-1.403-.671-.457 0-.874.135-1.248.406-.376.272-.651.648-.827 1.123-.127.382-.187 1.096-.187 2.14v3.21c0 .519-.124.908-.362 1.169-.24.26-.555.394-.934.394-.37 0-.672-.132-.909-.403-.238-.271-.356-.654-.356-1.154v-7.402c0-.485.105-.853.316-1.097.214-.236.503-.362.874-.362.226 0 .428.05.61.16.181.104.326.266.437.478.114.204.168.461.168.768zM176.346 199.731v-.252a6.318 6.318 0 0 1-1.019.962c-.336.248-.7.436-1.089.564a3.956 3.956 0 0 1-1.284.195 3.745 3.745 0 0 1-1.703-.394 4.063 4.063 0 0 1-1.358-1.11 5.136 5.136 0 0 1-.864-1.698 7.228 7.228 0 0 1-.298-2.113c0-1.604.395-2.854 1.177-3.745.78-.899 1.813-1.345 3.087-1.345.74 0 1.363.131 1.869.381.506.254 1.001.646 1.482 1.173v-3.787c0-.527.104-.923.313-1.193.21-.27.509-.402.897-.402.387 0 .687.131.895.371.21.245.314.61.314 1.097v11.3c0 .486-.115.854-.338 1.103-.226.245-.516.366-.875.366a1.13 1.13 0 0 1-.869-.383c-.222-.262-.337-.619-.337-1.09zm-5.043-3.764c0 .692.11 1.283.323 1.773.214.487.513.854.886 1.104.377.247.787.371 1.231.371.45 0 .862-.116 1.235-.354.371-.233.666-.591.891-1.079.221-.486.334-1.092.334-1.815 0-.684-.113-1.273-.334-1.761-.223-.488-.523-.866-.901-1.128a2.145 2.145 0 0 0-1.243-.389c-.473 0-.89.133-1.26.397-.372.267-.656.651-.859 1.146-.2.503-.303 1.076-.303 1.735zM193.128 195.075h-.976v4.422c0 .58-.133 1.014-.387 1.284-.256.274-.588.41-1.006.41-.443 0-.789-.144-1.033-.431-.242-.288-.365-.71-.365-1.27v-10.588c0-.602.134-1.033.404-1.304.268-.271.703-.401 1.305-.401h4.533c.625 0 1.16.027 1.604.08a4.1 4.1 0 0 1 1.199.321 3.41 3.41 0 0 1 1.146.777c.332.337.582.731.754 1.182.172.445.258.923.258 1.423 0 1.02-.291 1.843-.867 2.455-.578.613-1.456 1.049-2.635 1.306.494.264.968.652 1.418 1.162a11.84 11.84 0 0 1 1.207 1.639c.353.576.629 1.104.826 1.566.198.47.297.786.297.963a.985.985 0 0 1-.174.54 1.264 1.264 0 0 1-.476.424c-.2.104-.433.155-.695.155-.312 0-.577-.074-.789-.222a2.021 2.021 0 0 1-.549-.56c-.149-.222-.36-.557-.625-.994l-1.114-1.86c-.398-.682-.759-1.199-1.076-1.558-.315-.357-.638-.601-.959-.735-.319-.121-.732-.186-1.225-.186zm1.597-5.786h-2.57v3.782h2.496c.666 0 1.232-.056 1.689-.175s.807-.312 1.047-.589c.237-.28.36-.663.36-1.151 0-.385-.095-.72-.291-1.011a1.755 1.755 0 0 0-.81-.652c-.32-.133-.964-.204-1.921-.204zM211.225 196.617h-5.014c.006.579.125 1.099.353 1.542.23.438.531.775.912 1.002.379.223.797.339 1.256.339.306 0 .584-.04.838-.111.256-.07.5-.186.745-.337a6.17 6.17 0 0 0 .656-.488c.199-.178.458-.412.779-.714.133-.113.314-.168.564-.168.264 0 .479.072.636.221.164.137.246.343.246.606 0 .229-.089.499-.273.813-.18.31-.454.608-.82.894-.365.282-.825.52-1.38.706-.553.188-1.19.282-1.909.282-1.646 0-2.926-.47-3.842-1.407-.914-.938-1.371-2.213-1.371-3.82 0-.758.111-1.462.338-2.106a4.671 4.671 0 0 1 .983-1.667 4.273 4.273 0 0 1 1.597-1.066c.631-.246 1.334-.367 2.103-.367 1.002 0 1.861.21 2.575.633.72.423 1.256.97 1.612 1.639.358.665.537 1.354.537 2.047 0 .646-.188 1.064-.558 1.25-.376.181-.892.277-1.563.277zm-5.016-1.459h4.65c-.063-.877-.303-1.536-.707-1.97-.412-.433-.952-.653-1.622-.653-.64 0-1.165.221-1.573.665-.411.446-.659 1.096-.748 1.958zM225.267 197.844c0 .708-.171 1.312-.517 1.814-.342.503-.85.89-1.527 1.146-.667.261-1.488.393-2.451.393-.924 0-1.714-.139-2.362-.421-.66-.284-1.146-.634-1.459-1.058-.312-.423-.473-.844-.473-1.271 0-.282.102-.522.305-.722.201-.204.455-.309.757-.309.269 0 .479.066.62.2.144.133.281.314.412.555.264.456.574.798.939 1.021.367.224.865.337 1.499.337.514 0 .933-.117 1.268-.342.323-.224.486-.486.486-.784 0-.451-.17-.776-.51-.986-.34-.206-.904-.398-1.686-.589-.885-.22-1.603-.448-2.156-.689a3.614 3.614 0 0 1-1.33-.951c-.331-.396-.495-.88-.495-1.458 0-.51.152-.999.461-1.456.309-.456.756-.822 1.358-1.099.598-.27 1.319-.405 2.168-.405.662 0 1.258.068 1.785.211.531.134.975.316 1.324.553.357.228.625.486.81.767.188.283.277.56.277.829 0 .296-.1.536-.296.726-.201.189-.482.279-.842.279a1.03 1.03 0 0 1-.669-.221 4.336 4.336 0 0 1-.632-.676 2.294 2.294 0 0 0-.688-.603c-.264-.146-.619-.22-1.066-.22-.467 0-.848.096-1.158.295-.306.197-.457.443-.457.738 0 .271.112.485.337.664.224.175.528.313.909.428.383.112.909.248 1.577.41.795.195 1.447.425 1.95.695.502.271.887.585 1.146.95.256.358.386.78.386 1.249zM236.127 196.617h-5.012c.007.579.125 1.099.354 1.542.227.438.531.775.912 1.002.378.223.797.339 1.251.339.309 0 .588-.04.843-.111a2.8 2.8 0 0 0 .74-.337 6.07 6.07 0 0 0 .656-.488c.202-.178.462-.412.78-.714.133-.113.316-.168.563-.168.264 0 .482.072.642.221.159.137.241.343.241.606 0 .229-.092.499-.271.813-.182.31-.454.608-.82.894-.365.282-.827.52-1.38.706-.553.188-1.19.282-1.907.282-1.646 0-2.928-.47-3.844-1.407-.914-.938-1.371-2.213-1.371-3.82 0-.758.112-1.462.338-2.106a4.65 4.65 0 0 1 .984-1.667 4.273 4.273 0 0 1 1.597-1.066 5.781 5.781 0 0 1 2.099-.367c1.006 0 1.863.21 2.577.633.72.423 1.255.97 1.611 1.639.357.665.533 1.354.533 2.047 0 .646-.184 1.064-.551 1.25-.37.184-.896.277-1.565.277zm-5.012-1.459h4.649c-.062-.877-.303-1.536-.709-1.97-.407-.433-.948-.653-1.621-.653-.639 0-1.162.221-1.569.665-.415.446-.663 1.096-.75 1.958zM248.396 199.749c-.621.483-1.219.841-1.802 1.085-.576.24-1.226.361-1.947.361-.66 0-1.235-.133-1.729-.395a2.798 2.798 0 0 1-1.553-2.503c0-.701.221-1.296.666-1.793.445-.493 1.057-.827 1.828-.997.164-.041.571-.125 1.212-.253a52.525 52.525 0 0 0 1.654-.36c.462-.11.959-.242 1.502-.399-.036-.672-.171-1.174-.408-1.487-.239-.313-.739-.476-1.496-.476-.653 0-1.143.092-1.468.273a2.378 2.378 0 0 0-.843.815 7.1 7.1 0 0 1-.497.718c-.097.119-.307.176-.624.176-.284 0-.534-.093-.745-.277a.888.888 0 0 1-.314-.708c0-.451.159-.889.48-1.315.316-.422.818-.774 1.494-1.048.672-.277 1.519-.41 2.527-.41 1.127 0 2.01.133 2.655.398.647.266 1.103.688 1.37 1.266.264.575.397 1.341.397 2.29 0 .602-.003 1.109-.007 1.535-.002.419-.006.887-.013 1.398 0 .482.077.982.235 1.508.156.521.237.856.237 1.012 0 .264-.125.502-.372.718a1.214 1.214 0 0 1-.838.323c-.264 0-.523-.128-.78-.369-.263-.259-.533-.616-.821-1.086zm-.168-3.708c-.38.134-.926.283-1.639.437-.714.15-1.21.267-1.481.337a2.01 2.01 0 0 0-.789.423c-.25.21-.378.499-.378.878 0 .389.146.716.441.99.295.271.679.408 1.153.408a2.99 2.99 0 0 0 1.404-.335c.429-.221.747-.509.94-.859.229-.39.35-1.024.35-1.913l-.001-.366zM257.403 197.498v2.142c0 .518-.121.91-.365 1.167a1.222 1.222 0 0 1-.932.394c-.371 0-.67-.133-.911-.397-.233-.259-.355-.649-.355-1.161v-7.132c0-1.154.415-1.729 1.247-1.729.424 0 .738.134.924.404.188.265.291.665.311 1.191.311-.524.621-.923.943-1.191.322-.271.75-.404 1.287-.404.541 0 1.063.134 1.564.404.508.265.762.623.762 1.067 0 .312-.111.571-.326.775-.221.204-.449.306-.697.306-.094 0-.318-.056-.678-.172-.361-.115-.678-.175-.955-.175-.375 0-.68.099-.922.298-.232.197-.42.486-.555.878s-.223.85-.273 1.38a24.638 24.638 0 0 0-.069 1.955zM273.511 198.023c0 .317-.096.66-.287 1.02-.189.366-.482.709-.871 1.036-.395.33-.887.594-1.48.793-.594.2-1.266.308-2.006.308-1.584 0-2.82-.464-3.709-1.388-.893-.923-1.334-2.159-1.334-3.712 0-1.052.203-1.979.607-2.791a4.389 4.389 0 0 1 1.766-1.873c.77-.439 1.689-.662 2.76-.662.664 0 1.275.097 1.822.29.559.197 1.023.445 1.408.752.387.31.68.632.883.982.205.349.307.671.307.971 0 .309-.115.568-.342.779a1.165 1.165 0 0 1-.832.314.82.82 0 0 1-.531-.166 2.434 2.434 0 0 1-.477-.531c-.313-.478-.639-.833-.982-1.069-.336-.233-.771-.354-1.297-.354-.756 0-1.371.301-1.828.887-.467.592-.695 1.4-.695 2.433 0 .482.059.925.18 1.329.121.399.293.748.516 1.026.223.285.494.497.818.651.313.145.664.221 1.053.221.508 0 .949-.12 1.314-.357.367-.238.689-.602.973-1.091.156-.287.324-.512.506-.674a.967.967 0 0 1 .666-.243c.311 0 .572.119.777.36.213.236.315.491.315.759zM279.288 188.522v3.804c.324-.379.643-.672.951-.894a3.265 3.265 0 0 1 1.023-.49 4.26 4.26 0 0 1 1.211-.164c.654 0 1.23.136 1.73.411.504.275.898.677 1.188 1.196.184.312.311.655.367 1.027.063.378.094.814.094 1.309v4.912c0 .514-.115.901-.354 1.161-.232.263-.547.398-.932.398-.842 0-1.268-.518-1.268-1.557v-4.329c0-.819-.123-1.449-.365-1.891-.242-.446-.709-.662-1.389-.662-.459 0-.867.131-1.238.388a2.385 2.385 0 0 0-.82 1.068c-.139.383-.207 1.06-.207 2.034v3.392c0 .507-.113.894-.344 1.157-.225.267-.547.399-.949.399-.844 0-1.271-.52-1.271-1.56v-11.117c0-.518.115-.908.334-1.17.221-.261.535-.392.934-.392.4 0 .723.134.949.396.243.272.356.661.356 1.174zM301.778 195.602h-2.553v3.895c0 .56-.131.979-.395 1.27-.262.286-.594.43-.998.43-.416 0-.754-.14-1.016-.425-.262-.283-.387-.701-.387-1.251v-10.61c0-.613.137-1.053.42-1.313.285-.261.73-.396 1.344-.396h3.58c1.059 0 1.869.081 2.438.244a3.626 3.626 0 0 1 1.463.779c.41.365.721.81.932 1.334.219.526.314 1.112.314 1.771 0 1.399-.432 2.462-1.293 3.189-.851.721-2.138 1.083-3.849 1.083zm-.674-6.313h-1.881v4.206h1.881c.656 0 1.199-.068 1.645-.206.441-.138.775-.366 1.012-.677.229-.311.35-.722.35-1.229 0-.606-.18-1.101-.539-1.482-.399-.407-1.221-.612-2.468-.612zM313.165 197.498v2.142c0 .518-.125.91-.365 1.167a1.222 1.222 0 0 1-.932.394c-.371 0-.67-.133-.912-.397-.236-.259-.357-.649-.357-1.161v-7.132c0-1.154.414-1.729 1.25-1.729.426 0 .732.134.922.404.189.265.295.665.311 1.191.311-.524.621-.923.939-1.191.32-.271.754-.404 1.289-.404.541 0 1.064.134 1.566.404.506.265.758.623.758 1.067 0 .312-.107.571-.32.775-.221.204-.449.306-.699.306-.094 0-.318-.056-.68-.172-.361-.115-.676-.175-.951-.175-.377 0-.68.099-.924.298-.234.197-.422.486-.557.878-.133.392-.221.85-.271 1.38a25.246 25.246 0 0 0-.067 1.955zM329.444 195.987c0 .761-.121 1.467-.359 2.11a4.556 4.556 0 0 1-1.027 1.66 4.533 4.533 0 0 1-1.617 1.067c-.625.243-1.33.369-2.107.369s-1.473-.13-2.094-.379-1.16-.605-1.611-1.075a4.628 4.628 0 0 1-1.031-1.647 6.175 6.175 0 0 1-.354-2.105c0-.776.123-1.486.359-2.13a4.57 4.57 0 0 1 1.018-1.653 4.57 4.57 0 0 1 1.619-1.056 5.787 5.787 0 0 1 2.094-.371c.773 0 1.475.13 2.107.379s1.176.604 1.627 1.07.791 1.014 1.023 1.648c.238.636.353 1.34.353 2.113zm-2.574 0c0-1.046-.229-1.861-.688-2.439-.463-.582-1.078-.874-1.852-.874-.5 0-.941.134-1.328.395-.381.257-.672.641-.881 1.148-.207.507-.311 1.1-.311 1.772 0 .668.104 1.255.309 1.757.207.501.488.884.869 1.149.385.268.826.399 1.342.399.775 0 1.393-.296 1.854-.878.458-.589.686-1.399.686-2.429zM342.405 192.65v7.448c0 .849-.092 1.582-.273 2.192a3.57 3.57 0 0 1-.871 1.521c-.398.399-.928.696-1.57.893-.648.196-1.455.293-2.416.293-.887 0-1.674-.127-2.367-.37-.691-.244-1.229-.566-1.604-.954-.379-.396-.564-.793-.564-1.206 0-.309.104-.57.316-.763.213-.199.471-.298.766-.298.375 0 .705.166.984.498.137.17.281.34.428.512.146.171.311.314.488.442.18.122.396.214.646.271.246.058.541.093.859.093.666 0 1.182-.093 1.547-.278.369-.188.623-.443.771-.773.145-.332.229-.688.256-1.066s.045-.988.055-1.825c-.396.552-.85.971-1.367 1.261-.52.289-1.131.429-1.848.429-.854 0-1.605-.219-2.25-.657-.643-.438-1.131-1.052-1.477-1.84s-.516-1.698-.516-2.731c0-.766.107-1.463.311-2.082.209-.618.508-1.142.9-1.565a3.852 3.852 0 0 1 1.342-.963 4.213 4.213 0 0 1 1.67-.319c.727 0 1.355.135 1.889.414.531.279 1.023.717 1.48 1.309v-.353c0-.444.111-.788.328-1.029.221-.244.5-.365.842-.365.492 0 .824.159.984.485.183.304.261.772.261 1.376zm-7.426 3.251c0 1.039.227 1.823.682 2.354.453.532 1.037.798 1.76.798.424 0 .832-.116 1.203-.34.375-.227.686-.574.926-1.032.238-.457.357-1.02.357-1.676 0-1.047-.227-1.861-.688-2.438-.463-.582-1.066-.876-1.816-.876-.732 0-1.316.277-1.758.837-.443.557-.666 1.346-.666 2.373zM348.827 197.498v2.142c0 .518-.125.91-.365 1.167a1.22 1.22 0 0 1-.93.394c-.371 0-.67-.133-.914-.397-.236-.259-.357-.649-.357-1.161v-7.132c0-1.154.412-1.729 1.25-1.729.422 0 .734.134.92.404.193.265.295.665.313 1.191.311-.524.623-.923.941-1.191.32-.271.754-.404 1.289-.404.541 0 1.063.134 1.566.404.504.265.758.623.758 1.067 0 .312-.109.571-.326.775s-.445.306-.695.306c-.096 0-.318-.056-.68-.172a3.16 3.16 0 0 0-.949-.175c-.379 0-.684.099-.924.298-.234.197-.42.486-.555.878s-.221.85-.275 1.38a27.432 27.432 0 0 0-.067 1.955zM362.243 199.749c-.621.483-1.219.841-1.801 1.085-.578.242-1.229.361-1.949.361-.66 0-1.232-.133-1.729-.395a2.832 2.832 0 0 1-1.152-1.058 2.727 2.727 0 0 1-.398-1.445c0-.701.219-1.296.664-1.793s1.055-.827 1.832-.997c.156-.041.564-.125 1.205-.253.65-.133 1.197-.249 1.656-.36.463-.11.957-.242 1.498-.399-.035-.672-.166-1.174-.404-1.487-.24-.313-.744-.476-1.498-.476-.654 0-1.141.092-1.465.273a2.36 2.36 0 0 0-.842.815 7.51 7.51 0 0 1-.496.718c-.098.119-.309.176-.625.176-.289 0-.537-.093-.75-.277a.895.895 0 0 1-.311-.708c0-.451.154-.889.479-1.315.318-.422.82-.774 1.492-1.048.678-.277 1.518-.41 2.525-.41 1.127 0 2.01.133 2.658.398s1.102.688 1.367 1.266c.268.575.398 1.341.398 2.29 0 .602-.002 1.109-.004 1.535-.004.419-.012.887-.016 1.398 0 .482.076.982.236 1.508.158.521.24.856.24 1.012 0 .264-.129.502-.373.718a1.216 1.216 0 0 1-.842.323c-.264 0-.521-.128-.777-.369-.261-.259-.531-.616-.818-1.086zm-.172-3.708c-.375.134-.926.283-1.641.437-.719.15-1.209.267-1.482.337-.277.07-.541.217-.789.423-.25.212-.379.499-.379.878 0 .389.146.716.439.99.301.271.68.408 1.158.408.506 0 .977-.112 1.402-.335.428-.221.746-.509.939-.859.232-.39.35-1.024.35-1.913l.003-.366zM377.235 196.174v3.41c0 .54-.127.939-.371 1.209-.242.27-.568.402-.963.402-.393 0-.705-.134-.943-.402-.238-.27-.363-.669-.363-1.209v-4.082c0-.648-.021-1.146-.063-1.505-.045-.355-.16-.652-.359-.875-.193-.227-.496-.342-.922-.342-.838 0-1.389.289-1.652.861-.268.574-.4 1.399-.4 2.479v3.464c0 .531-.119.932-.361 1.203-.238.271-.559.408-.951.408-.387 0-.707-.137-.951-.408s-.369-.672-.369-1.203v-7.329c0-.483.109-.849.33-1.101.221-.249.514-.379.879-.379.352 0 .645.123.877.354.23.233.352.563.352.974v.241c.443-.53.922-.924 1.428-1.171a3.713 3.713 0 0 1 1.689-.379c.645 0 1.197.132 1.662.388.461.254.84.645 1.145 1.162.428-.524.895-.919 1.387-1.171a3.526 3.526 0 0 1 1.639-.379c.703 0 1.305.134 1.816.408.506.273.885.667 1.133 1.184.221.465.328 1.195.328 2.187v5.006c0 .535-.127.938-.367 1.207-.244.269-.572.404-.967.404-.393 0-.707-.138-.953-.408-.248-.273-.371-.673-.371-1.203v-4.311c0-.549-.027-.988-.068-1.322a1.528 1.528 0 0 0-.383-.837c-.209-.225-.52-.337-.938-.337a1.7 1.7 0 0 0-.959.301 2.07 2.07 0 0 0-.711.806c-.188.436-.28 1.199-.28 2.295zM395.778 196.174v3.41c0 .54-.125.939-.367 1.209s-.568.402-.971.402c-.387 0-.699-.134-.938-.402-.24-.268-.361-.669-.361-1.209v-4.082c0-.648-.025-1.146-.064-1.505-.045-.355-.162-.652-.357-.875-.193-.227-.5-.342-.924-.342-.838 0-1.389.289-1.654.861-.266.574-.398 1.399-.398 2.479v3.464c0 .531-.121.932-.361 1.203-.236.271-.559.408-.953.408-.391 0-.705-.137-.947-.408-.248-.271-.373-.672-.373-1.203v-7.329c0-.483.111-.849.33-1.101.221-.249.516-.379.877-.379.35 0 .645.123.879.354.234.233.352.563.352.974v.241c.443-.53.924-.924 1.426-1.171a3.728 3.728 0 0 1 1.691-.379c.645 0 1.199.132 1.66.388.465.254.842.645 1.145 1.162.432-.524.895-.919 1.385-1.171a3.55 3.55 0 0 1 1.645-.379c.701 0 1.303.134 1.811.408.51.273.891.667 1.137 1.184.223.465.33 1.195.33 2.187v5.006c0 .535-.125.938-.367 1.207-.244.269-.568.404-.967.404-.389 0-.705-.138-.951-.408-.248-.273-.371-.673-.371-1.203v-4.311c0-.549-.023-.988-.072-1.322a1.459 1.459 0 0 0-.381-.837c-.205-.225-.518-.337-.938-.337-.336 0-.656.101-.953.301a2.085 2.085 0 0 0-.717.806c-.191.436-.283 1.199-.283 2.295zM412.956 196.617h-5.01c.008.579.125 1.099.354 1.542.227.438.531.775.91 1.002.379.223.799.339 1.254.339.311 0 .584-.04.842-.111.248-.07.492-.186.736-.337a5.5 5.5 0 0 0 .66-.488c.203-.178.461-.412.777-.714.133-.113.316-.168.57-.168.26 0 .475.072.637.221.16.137.244.343.244.606 0 .229-.098.499-.277.813-.18.31-.455.608-.82.894-.367.282-.826.52-1.377.706-.557.188-1.191.282-1.908.282-1.645 0-2.926-.47-3.84-1.407-.918-.938-1.373-2.213-1.373-3.82 0-.758.113-1.462.336-2.106.227-.65.557-1.201.986-1.667a4.26 4.26 0 0 1 1.598-1.066c.631-.246 1.334-.367 2.105-.367 1 0 1.859.21 2.576.633s1.25.97 1.607 1.639a4.3 4.3 0 0 1 .537 2.047c0 .646-.189 1.064-.557 1.25-.374.181-.897.277-1.567.277zm-5.01-1.459h4.646c-.063-.877-.299-1.536-.707-1.97-.406-.433-.949-.653-1.621-.653-.639 0-1.162.221-1.57.665-.414.446-.662 1.096-.748 1.958z"/><path fill="#0070BA" d="M26.838.74l3.517 4.036c7.873 8.941 16.016 18.18 13.611 32.789C42.14 48.534 29 54.531 23.434 56.609l-3.691 1.036c-1.497.388-3.933 1.001-4.701 1.469.539 1.157 3.385 4.207 4.376 5.27l.757.838c11.055 12.257 20.782 23.717 27.938 39.856 4.19 9.468 6.784 18.028 7.928 26.158l.009 8.276c-2.162 15.383-9.344 29.83-21.966 44.322-6.382 7.275-12.003 12.757-19.428 18.897l-1.797 1.691c-2.547 2.547-6.046 6.036-11.304 3.5-1.038-.775-1.463-1.365-1.539-2.017-.106-.807.347-1.383.75-1.896l.397-.534.133-.186.241-.144c4.979-2.529 9.016-6.556 12.919-10.46l3.145-3.086c5.951-5.622 12.669-12.285 17.37-19.138 3.135-4.55 5.606-8.863 7.769-13.563 11.073-24.308-.404-49.367-11.989-66.101l-1.414-2.047c-3.297-4.798-7.028-10.232-11.795-15.641L13.82 69.36C7.091 62.839 2.454 58.006 4.16 55.21c1.218-1.996 4.93-2.508 8.855-3.058 1.919-.271 3.748-.517 4.928-.932 4.856-1.635 13.241-5.865 15.832-9.768 6.365-9.586-1.775-22.16-7.198-28.813-.009 0-.942-1.146-.942-1.146-3.144-3.807-5.702-7.132-5.085-9.393.143-.539.538-1.271 1.605-1.653 1.598-.529 2.702-.669 4.326.021l.202.088.155.184z"/></svg>