<svg xmlns="http://www.w3.org/2000/svg" width="151.748" height="212.6" viewBox="0 0 151.748 212.6"><linearGradient id="a" gradientUnits="userSpaceOnUse" x1="75.835" y1="212.718" x2="75.835" y2="-2.776" gradientTransform="matrix(1 0 0 -1 .04 211.664)"><stop offset=".25" stop-color="#66376d"/><stop offset=".486" stop-color="#fff"/><stop offset=".75" stop-color="#66376d"/></linearGradient><path fill="url(#a)" d="M67.871 48.25c-3.104-.135-10.994 1.417-14.14 1.972-4.825.851-9.628 1.906-14.348 3.223-8.057 2.245-15.983 5.333-22.585 10.583C2.985 75.01-.628 92.159.085 109.045c.699 16.542 8.876 30.648 19.522 42.874 11.02 12.65 27.188 18.021 39.958 28.461 6.813 6.247 10.996 11.77 16.013 20.345 1.862 2.956 2.812 7.015 4.293 11.872 1.619-1.754 2.813-4.739 3.331-6.662 1.056-3.939 1.683-7.812 3.558-11.521.822-1.627 2.146-3.526 3.373-4.855 4.831-5.222 10.271-8.835 16.058-12.953 6.41-4.563 15.287-11.459 21.186-16.732 6.52-5.828 9.563-9.844 14.757-16.877 10.232-13.852 11.736-34.37 7.152-50.646-2.366-8.402-6.072-17.182-11.386-24.125-5.521-7.221-12.53-13.777-19.024-20.104-3.117-3.039-7.405-7.017-9.31-11.063-1.853-3.407-2.328-4.986-2.295-8.905-.03-4.453.811-7.691 3.092-11.184 2.504-3.354 5.379-6.821 8.783-9.326A240.637 240.637 0 0 1 130.111.027c-7.729-.491-18.782 6.868-24.43 11.604-3.138 2.632-6.869 7.65-8.484 11.473C95.505 27.102 95.06 30 95.06 34.347c0 8.695 3.063 16.105 8.703 22.415 6.709 7.506 12.58 14.894 19.414 22.286 6.229 6.738 9.34 11.003 11.079 15.358 4.542 11.379 4.048 25.998.944 36.791-3.373 8.322-9.414 17.903-15.417 24.741-4.747 5.406-10.164 10.365-15.894 14.72-9.41 7.154-19.967 14.038-21.988 26.684-.036 1.875-.885 7.316-1.172 9.192-.582-6.851-1.266-7.558-2.119-9.674-1.311-3.251-3.229-6.22-5.342-8.998-4.62-6.078-10.024-11.557-15.455-16.9-10.699-10.528-22.203-20.846-30.942-33.137-7.147-10.051-10.984-22.131-11.33-34.513-.314-11.314 2.468-22.659 10.391-30.975 4.847-5.087 11.145-9.009 17.211-12.468a113.57 113.57 0 0 1 10.66-5.346c2.688-1.177 5.5-1.981 8.23-3.032 1.124-.507 5.134-2.195 5.838-3.241"/><path fill="#66376D" d="M58.506 144.605l-3.574 1.644-.137-.297c.831-.649 1.354-1.396 1.572-2.231a3.494 3.494 0 0 0-.206-2.41 3.376 3.376 0 0 0-1.371-1.519 3.588 3.588 0 0 0-1.995-.512c-.912.032-1.837.266-2.775.697-.923.424-1.709.926-2.36 1.507-.65.583-1.055 1.211-1.215 1.886-.159.676-.057 1.409.306 2.199a4.176 4.176 0 0 0 1.247 1.588c.532.41 1.283.754 2.252 1.032l-.89.409c-.87-.301-1.583-.702-2.142-1.203-.559-.5-1.031-1.17-1.416-2.007-.506-1.102-.734-2.18-.686-3.236a5.143 5.143 0 0 1 .992-2.851 5.831 5.831 0 0 1 2.319-1.909 6.04 6.04 0 0 1 3.153-.516 5.96 5.96 0 0 1 3.012 1.14 6.198 6.198 0 0 1 2.011 2.451c.334.727.528 1.563.584 2.514.033.551.077.891.135 1.018a.636.636 0 0 0 .373.338c.174.065.398.057.674-.025l.137.293zM72.547 156.747l-.417 4.603.226.021c.716.064 1.257-.112 1.62-.533.363-.422.628-1.065.797-1.938l.316.028-.536 5.92-.316-.029c-.009-.65-.102-1.189-.278-1.621-.176-.431-.4-.729-.67-.896-.271-.168-.677-.275-1.215-.324l-.289 3.186c-.056.621-.063 1.004-.025 1.148a.676.676 0 0 0 .265.367c.138.103.367.168.689.196l.675.063c1.056.095 1.924-.072 2.606-.504.68-.432 1.205-1.134 1.572-2.109l.31.027-.834 3.548-9.771-.887.028-.31.375.033c.328.03.597-.004.808-.104.151-.063.275-.188.371-.369.072-.129.134-.476.186-1.043l.674-7.437c.046-.511.06-.826.044-.945a.823.823 0 0 0-.268-.479c-.197-.175-.479-.277-.846-.313l-.376-.032.028-.31 9.461.856-.303 3.343-.316-.029c-.084-.83-.26-1.438-.52-1.817-.259-.383-.648-.683-1.167-.896-.302-.129-.881-.231-1.736-.31l-1.168-.104zM58.968 157.712l-3.275-2.313-1.027.629c-.34.21-.58.414-.718.608-.184.262-.214.524-.091.798.072.159.337.428.794.808l-.179.252-3.085-2.178.179-.252c.369.186.74.238 1.114.165.374-.074.967-.354 1.78-.838L63 150.33l.129.09-2.023 9.966c-.188.944-.247 1.586-.174 1.916.056.25.217.487.483.709l-.179.254-4.486-3.165.179-.252.185.13c.359.253.648.382.865.385a.447.447 0 0 0 .373-.208c.058-.081.104-.176.138-.282a7.84 7.84 0 0 0 .157-.657l.321-1.504zm.125-.67l.872-4.168-3.677 2.189 2.805 1.979zM87.972 154.474l1.452 3.494-.319.123c-.494-.824-1.141-1.394-1.938-1.701-.8-.312-1.542-.332-2.229-.066-.529.206-.896.512-1.097.915-.198.402-.228.79-.084 1.159.091.234.228.421.405.563.246.187.582.334 1.007.443.313.076.994.162 2.05.256 1.473.129 2.53.381 3.172.756a3.1 3.1 0 0 1 1.359 1.608c.344.884.293 1.778-.148 2.685-.441.903-1.193 1.563-2.254 1.975a4.617 4.617 0 0 1-.984.264c-.323.048-.744.063-1.264.052-.291-.009-.519.021-.68.082a.819.819 0 0 0-.367.321c-.111.164-.172.37-.183.619l-.29.112-1.548-3.998.288-.111c.664 1.036 1.438 1.723 2.318 2.059.881.338 1.699.36 2.453.067.584-.226.986-.563 1.209-1.015.225-.452.254-.89.09-1.312a1.561 1.561 0 0 0-.479-.647 2.548 2.548 0 0 0-.863-.433c-.354-.104-.938-.194-1.755-.268-1.146-.103-1.994-.236-2.545-.405-.551-.171-1.021-.415-1.403-.739a2.939 2.939 0 0 1-.865-1.228c-.326-.842-.295-1.681.095-2.513.39-.834 1.055-1.435 1.995-1.8a4.34 4.34 0 0 1 1.048-.262c.271-.031.61-.031 1.028 0 .416.033.693.021.836-.031a.447.447 0 0 0 .271-.248c.046-.113.041-.344-.014-.688l.233-.088zM107.526 142.353l3.125.59c.604.114.99.149 1.162.104a.834.834 0 0 0 .447-.318c.127-.17.239-.509.338-1.02l.303.058-1.077 5.708-.306-.059c.1-.516.117-.873.058-1.075a.849.849 0 0 0-.306-.457c-.137-.103-.51-.211-1.112-.324l-7.237-1.366c-.604-.114-.988-.149-1.158-.104a.82.82 0 0 0-.449.319c-.127.168-.239.508-.338 1.019l-.305-.058.979-5.182c.256-1.351.535-2.318.841-2.908a3.024 3.024 0 0 1 1.319-1.335c.578-.301 1.201-.387 1.877-.26.822.155 1.445.58 1.873 1.273.268.441.422 1.02.463 1.73l4.283-1.969c.557-.261.904-.45 1.055-.576.214-.191.354-.437.429-.729l.304.059-.662 3.511-5.763 2.637-.143.732zm-5.468-1.033l4.885.923.09-.469c.146-.762.183-1.346.113-1.75a1.732 1.732 0 0 0-.59-1.035c-.324-.285-.775-.481-1.363-.595-.852-.16-1.518-.08-1.996.241-.48.319-.805.922-.973 1.805l-.166.88zM101.827 154.845l-2.637 3.021.521 1.086c.173.358.353.617.532.775.24.209.502.268.783.172.166-.055.461-.29.884-.706l.233.203-2.481 2.845-.233-.203c.221-.348.313-.711.279-1.09-.036-.38-.255-.998-.652-1.856l-4.156-9.013.104-.121 9.704 3.035c.923.284 1.552.408 1.891.369.256-.029.508-.164.754-.408l.233.205-3.608 4.137-.232-.202.148-.17c.289-.332.444-.605.472-.821a.45.45 0 0 0-.169-.393 1.115 1.115 0 0 0-.268-.166c-.047-.023-.26-.1-.639-.225l-1.463-.474zm-.654-.193l-4.058-1.295 1.801 3.881 2.257-2.586z"/></svg>