<svg xmlns="http://www.w3.org/2000/svg" width="340.903" height="212.598" viewBox="0 0 340.903 212.598"><path fill="#398F3B" d="M13.217 183.74c-.865.443-1.635.749-2.303.916-.666.164-1.455.249-2.357.249-2.194 0-4.025-.721-5.481-2.157-1.46-1.438-2.19-3.237-2.19-5.406 0-2.37.774-4.338 2.322-5.903 1.55-1.569 3.491-2.353 5.819-2.353.737 0 1.416.056 2.032.159.616.113 1.252.288 1.905.537v2.537a6.697 6.697 0 0 0-1.973-1.019 7.252 7.252 0 0 0-2.228-.354c-1.529 0-2.8.576-3.814 1.729-1.014 1.152-1.522 2.591-1.522 4.317 0 1.734.478 3.182 1.435 4.331.957 1.147 2.154 1.726 3.589 1.726.963 0 1.82-.137 2.57-.422.749-.279 1.52-.752 2.317-1.416l-.121 2.529z"/><g fill="#398F3B"><path d="M15.02 183.411c-.895-.998-1.342-2.247-1.342-3.751 0-1.686.496-3.086 1.493-4.208.997-1.109 2.243-1.674 3.739-1.674 1.352 0 2.475.498 3.366 1.499.891 1.002 1.337 2.252 1.337 3.755 0 1.687-.496 3.086-1.489 4.198-.993 1.114-2.241 1.671-3.742 1.671-1.348.005-2.469-.493-3.362-1.49zm5.872-1.323c.336-.646.504-1.396.504-2.259 0-1.359-.327-2.445-.979-3.263-.655-.825-1.541-1.25-2.655-1.289-.577.234-1.031.679-1.37 1.327-.335.654-.501 1.407-.501 2.267 0 1.357.325 2.442.979 3.263.653.813 1.54 1.24 2.656 1.283.573-.241 1.028-.685 1.366-1.329zM24.993 181.556v-4.418c0-.578-.034-1.103-.097-1.555a11.408 11.408 0 0 0-.353-1.557h2.574v1.851l1.618-1.861c.549-.148 1.006-.222 1.371-.222.967 0 1.701.3 2.205.905.501.605.752 1.482.752 2.639v4.22c0 .887.03 1.554.083 2.012.055.455.155.821.302 1.104h-2.959c.17-.322.289-.719.353-1.177.063-.46.098-1.107.098-1.938v-3.931c0-.622-.143-1.084-.43-1.387-.289-.301-.731-.457-1.322-.457-.404 0-.934.149-1.588.453l-.483.219v5.102c0 .829.036 1.469.102 1.922.068.455.189.85.357 1.191h-3.032c.17-.324.287-.719.353-1.177.066-.456.096-1.103.096-1.938zM36.933 181.819c0 .181.11.338.334.468.221.127.493.193.823.193h2.292c.914 0 1.583.187 2.009.566.421.381.636.98.636 1.807 0 .919-.444 1.688-1.331 2.323-.889.635-1.978.944-3.263.944-1.306 0-2.285-.131-2.938-.39-.654-.255-.978-.646-.978-1.159 0-.261.13-.557.391-.874.262-.323.785-.843 1.567-1.55-.548-.045-.982-.136-1.303-.276-.438-.188-.657-.479-.657-.855 0-.294.117-.549.353-.775.234-.228.853-.685 1.86-1.374a3.66 3.66 0 0 1-1.059-.68c-.712-.657-1.067-1.475-1.067-2.458 0-1.122.355-2.062 1.067-2.806.71-.749 1.607-1.118 2.685-1.118.823 0 1.545.208 2.166.628h1.097c.425 0 .842-.021 1.248-.06.408-.042.697-.086.868-.134l-.226 1.685-1.725.013c.221.474.334 1.018.334 1.624 0 1.038-.357 1.904-1.074 2.593-.715.688-1.611 1.032-2.689 1.032-.274 0-.538-.021-.795-.065a1.27 1.27 0 0 0-.451.331.527.527 0 0 0-.174.367zm1.303-6.544c-.496 0-.895.179-1.197.534-.299.355-.45.833-.45 1.416 0 .673.185 1.251.552 1.729.37.48.814.724 1.329.724h-.011c.51 0 .917-.175 1.216-.522.3-.352.451-.823.451-1.416 0-.687-.18-1.271-.544-1.741-.361-.479-.808-.719-1.337-.719l-.009-.005zm-1.527 10.001c0 .389.159.667.485.85.325.183.825.274 1.505.274.744 0 1.295-.096 1.649-.287.355-.195.534-.489.534-.889a.925.925 0 0 0-.385-.776c-.255-.195-.599-.291-1.035-.291h-2.096a1.522 1.522 0 0 0-.466.495c-.129.221-.191.43-.191.624zM48.489 184.906c-1.47 0-2.677-.49-3.614-1.475-.939-.98-1.412-2.243-1.412-3.781 0-1.678.41-3.076 1.239-4.192.827-1.108 1.86-1.665 3.101-1.665h.019c1.214 0 2.149.416 2.806 1.264.657.842.984 2.046.984 3.604v.957h-5.896c.104.965.387 1.771.842 2.413.58.811 1.373 1.212 2.369 1.212.452 0 .896-.06 1.33-.18a4.638 4.638 0 0 0 1.188-.502l-.844 2.048a9.458 9.458 0 0 1-1.121.239c-.287.04-.614.058-.991.058zm1.384-6.771c-.006-.93-.18-1.638-.514-2.121-.334-.489-.829-.739-1.473-.739h.01c-.705 0-1.252.303-1.639.905-.308.481-.49 1.131-.559 1.955h4.175zM53.156 181.556v-4.418c0-.578-.034-1.103-.098-1.555a11.277 11.277 0 0 0-.354-1.557h2.575v1.851l1.616-1.861c.549-.148 1.006-.222 1.373-.222.967 0 1.701.3 2.205.905.502.605.752 1.482.752 2.639v4.22c0 .887.028 1.554.082 2.012.056.455.155.821.303 1.104h-2.96c.17-.322.287-.719.354-1.177.064-.46.098-1.107.098-1.938v-3.931c0-.622-.141-1.084-.432-1.387-.289-.303-.729-.457-1.32-.457-.404 0-.933.149-1.588.453l-.482.219v5.102c0 .829.035 1.469.102 1.922.068.455.188.85.357 1.191h-3.036c.17-.324.287-.719.354-1.177.065-.458.099-1.103.099-1.938zM63.26 181.556v-4.418c0-.576-.035-1.094-.099-1.551a11.28 11.28 0 0 0-.353-1.565h3.036a4.022 4.022 0 0 0-.356 1.197c-.066.457-.103 1.102-.103 1.92v4.418c0 .829.036 1.469.103 1.922.067.455.19.85.356 1.191h-3.036c.17-.323.287-.719.353-1.177.068-.455.099-1.102.099-1.937zm1.017-11.983c.398 0 .736.162 1.018.483.278.318.417.712.417 1.178s-.138.852-.417 1.172c-.277.319-.619.479-1.018.479-.4 0-.743-.155-1.02-.479-.277-.313-.414-.706-.414-1.172 0-.465.135-.854.414-1.178.28-.321.618-.483 1.02-.483zM70.126 184.906c-.84 0-1.448-.247-1.827-.746-.382-.493-.574-1.286-.574-2.379v-6.29h-1.509v-.004l3.618-3.816h.018v2.348h2.479v1.47h-2.479v5.395c0 .719.123 1.258.369 1.613.243.354.611.533 1.104.533.302 0 .576-.041.828-.108.25-.07.554-.201.906-.385l-.842 2.047c-.371.128-.697.21-.974.248a6.628 6.628 0 0 1-1.117.074z"/><path d="M75.998 184.906c-1.038 0-1.839-.221-2.4-.665-.562-.442-.842-1.081-.842-1.904 0-.549.2-1.063.594-1.546.396-.488.931-.866 1.601-1.146l3.136-1.295v-.967c0-.578-.179-1.048-.538-1.388-.36-.342-.842-.513-1.452-.513-.393 0-.77.063-1.137.2-.365.134-.763.353-1.201.661l.584-2.043c.418-.178.823-.31 1.215-.392a6.2 6.2 0 0 1 1.197-.124c1.15 0 2.012.301 2.592.902.575.601.867 1.499.867 2.698v4.171c0 .887.027 1.554.083 2.013.054.454.153.82.3 1.104h-2.509v-1.02l-1.655 1.235-.435.019zm2.087-1.849v-2.933h-2.743c-.066 0-.148.199-.251.594-.1.395-.151.727-.151.99 0 .509.164.882.49 1.135.322.248.815.378 1.467.378.404 0 .795-.058 1.164-.165l.024.001zM82.182 181.556v-8.425c0-.694-.031-1.269-.098-1.726a6.857 6.857 0 0 0-.354-1.392l1.519-.309 1.519-.311c-.17.487-.289 1.02-.357 1.615s-.102 1.404-.102 2.432v8.111c0 .829.033 1.469.102 1.922.068.455.188.849.357 1.191H81.732c.17-.324.287-.72.354-1.177.066-.451.096-1.096.096-1.931zM93.335 180.223l5.251-11.205h.006l5.252 11.205c.607 1.286 1.105 2.258 1.49 2.905.387.656.764 1.167 1.135 1.541h-3.808c.078-.308.04-.783-.113-1.438a13.27 13.27 0 0 0-.719-2.119l-.501-1.186h-5.679l-.072.221a16.375 16.375 0 0 0-.901 2.68c-.208.871-.266 1.486-.176 1.838h-3.847c.418-.414.826-.947 1.215-1.605.389-.649.879-1.599 1.467-2.837zm3.151-2.253h4.008l-1.997-4.639h-.011l-2 4.639zM107.398 181.556v-4.418c0-.578-.037-1.103-.101-1.555a10.976 10.976 0 0 0-.353-1.557H109.52v1.851l1.615-1.861c.549-.148 1.006-.222 1.371-.222.967 0 1.701.3 2.205.905.501.605.754 1.482.754 2.639v4.22c0 .887.028 1.554.084 2.012.053.455.152.821.299 1.104h-2.957c.168-.322.287-.719.353-1.177.062-.46.099-1.107.099-1.938v-3.931c0-.622-.145-1.084-.432-1.387-.287-.301-.729-.457-1.322-.457-.404 0-.934.149-1.588.453l-.482.219v5.102c0 .829.035 1.469.104 1.922.066.455.188.85.357 1.191h-3.04c.17-.324.289-.719.355-1.177.066-.456.103-1.103.103-1.938zM118.041 183.411c-.895-.998-1.342-2.247-1.342-3.751 0-1.686.496-3.086 1.492-4.208.998-1.109 2.244-1.674 3.74-1.674 1.353 0 2.471.498 3.365 1.499.891 1.002 1.338 2.252 1.338 3.755 0 1.687-.496 3.086-1.488 4.198-.994 1.114-2.241 1.671-3.742 1.671-1.349.005-2.47-.493-3.363-1.49zm5.87-1.323c.335-.646.504-1.396.504-2.259 0-1.359-.325-2.445-.978-3.263-.655-.825-1.541-1.25-2.655-1.289-.576.234-1.029.679-1.369 1.327-.336.654-.502 1.407-.502 2.267 0 1.357.325 2.442.979 3.263.653.813 1.537 1.24 2.655 1.283.575-.241 1.03-.685 1.366-1.329zM127.872 181.556v-4.418c0-.576-.035-1.094-.099-1.551a11.892 11.892 0 0 0-.353-1.565h2.576v2.047l1.329-1.644.48-.283c.455-.234.979-.353 1.563-.353.842 0 1.481.266 1.924.791.332.395.534.926.606 1.586l1.578-1.76.433-.243a3.025 3.025 0 0 1 1.463-.375c.825 0 1.452.256 1.884.771.432.518.648 1.272.648 2.263v4.734c0 .9.025 1.579.078 2.038.054.457.146.815.285 1.076h-2.936c.17-.324.287-.718.354-1.176.063-.457.098-1.105.098-1.938v-4.064c0-.576-.135-1.006-.4-1.284-.268-.282-.676-.423-1.227-.423-.51 0-1.074.177-1.689.52l-.511.313v4.936c0 .829.034 1.469.104 1.922.067.454.188.85.356 1.191h-3.043c.17-.324.287-.719.353-1.177.066-.457.099-1.104.099-1.938v-4.053c0-.58-.134-1.015-.399-1.29-.269-.282-.677-.423-1.231-.423-.47 0-1.043.184-1.728.542l-.471.242v4.99c0 .831.035 1.468.102 1.924.068.452.188.847.357 1.192h-3.034c.168-.325.286-.722.352-1.18.064-.458.099-1.105.099-1.94zM146.508 184.906c-1.039 0-1.839-.221-2.4-.665-.563-.442-.842-1.081-.842-1.904 0-.549.201-1.063.594-1.546.396-.488.931-.866 1.601-1.146l3.138-1.295v-.967c0-.578-.181-1.048-.537-1.388-.365-.342-.842-.513-1.455-.513-.394 0-.771.063-1.135.2-.367.134-.766.353-1.201.661l.584-2.043c.418-.178.824-.31 1.217-.392a6.2 6.2 0 0 1 1.197-.124c1.147 0 2.01.301 2.59.902.576.601.865 1.499.865 2.698v4.171c0 .887.03 1.554.086 2.013.053.454.152.82.299 1.104H148.6v-1.02l-1.654 1.235-.438.019zm2.088-1.849v-2.933h-2.742c-.066 0-.148.199-.25.594a4.034 4.034 0 0 0-.151.99c0 .509.164.882.489 1.135.324.248.818.378 1.467.378.404 0 .793-.058 1.167-.165l.02.001zM152.693 181.556v-8.425c0-.694-.035-1.269-.1-1.726a6.781 6.781 0 0 0-.351-1.392l1.519-.309 1.52-.311a7.26 7.26 0 0 0-.357 1.615c-.07.593-.104 1.404-.104 2.432v8.111c0 .829.033 1.469.104 1.922.066.455.188.849.357 1.191H152.242a3.69 3.69 0 0 0 .351-1.177c.07-.449.1-1.096.1-1.931zM164.182 177.138l-1.752 4.7c-.673 1.787-1.285 3.143-1.822 4.064-.543.931-1.133 1.635-1.773 2.117h-2.814a10.856 10.856 0 0 0 1.883-1.911c.533-.688 1.051-1.563 1.558-2.611l.285-.526v.005l-2.519-5.838c-.293-.684-.576-1.26-.854-1.717s-.621-.927-1.022-1.399H158.276c.037.229.115.504.221.835.115.325.298.799.55 1.412l1.841 4.591 1.541-4.591c.154-.467.256-.858.299-1.194a3.813 3.813 0 0 0-.016-1.053H165.782c-.311.403-.576.84-.814 1.293-.241.459-.501 1.063-.786 1.823zM172.686 180.223v-6.456c0-.959-.043-1.766-.123-2.42a12.81 12.81 0 0 0-.42-2.028h2.863c1.965 0 3.471.397 4.527 1.188 1.059.788 1.586 1.91 1.586 3.368 0 1.307-.586 2.356-1.76 3.153a8.8 8.8 0 0 1-1.215.649l1.107 1.662a34.19 34.19 0 0 0 1.752 2.338c.643.781 1.518 1.78 2.613 2.991h-2.732c-.789-.665-1.713-1.624-2.768-2.87-1.057-1.25-1.957-2.438-2.703-3.58l-.398-.613v2.612c0 .966.039 1.777.119 2.434.08.653.221 1.325.42 2.014h-3.402c.199-.676.33-1.346.408-1.991.087-.652.126-1.473.126-2.451zm2.332-3.186c1.014-.056 1.834-.353 2.469-.88.73-.602 1.098-1.388 1.098-2.368 0-.898-.348-1.618-1.039-2.169-.646-.504-1.486-.777-2.525-.824l-.003 6.241zM188.315 184.906c-1.469 0-2.676-.49-3.615-1.475-.936-.98-1.408-2.243-1.408-3.781 0-1.678.412-3.076 1.238-4.192.828-1.109 1.859-1.665 3.102-1.665h.021c1.211 0 2.15.416 2.805 1.264.654.842.982 2.046.982 3.604v.957h-5.891c.104.965.385 1.771.842 2.413.58.811 1.375 1.212 2.369 1.212.453 0 .895-.06 1.334-.18a4.564 4.564 0 0 0 1.186-.502l-.842 2.048a9.804 9.804 0 0 1-1.121.239c-.281.04-.625.058-1.002.058zm1.383-6.771c-.002-.93-.174-1.638-.51-2.121-.338-.489-.834-.739-1.473-.739h.008c-.703 0-1.25.303-1.637.905-.311.481-.492 1.131-.563 1.955h4.175zM194.793 181.819c0 .181.111.338.332.468.221.127.492.193.822.193h2.293c.916 0 1.582.187 2.008.566.418.381.639.98.639 1.807 0 .919-.445 1.688-1.334 2.323-.885.635-1.977.944-3.262.944-1.307 0-2.283-.131-2.938-.39-.658-.255-.982-.646-.982-1.159 0-.261.133-.557.396-.874.258-.323.781-.843 1.563-1.55-.549-.045-.982-.136-1.303-.276-.438-.188-.656-.479-.656-.855 0-.294.119-.549.355-.775.229-.228.846-.685 1.859-1.374a3.532 3.532 0 0 1-1.059-.68c-.713-.657-1.07-1.475-1.07-2.458 0-1.122.357-2.062 1.07-2.806.709-.746 1.605-1.118 2.686-1.118.826 0 1.547.208 2.168.628h1.1c.426 0 .842-.021 1.25-.06.404-.042.699-.086.865-.134l-.225 1.685-1.725.013c.221.474.33 1.018.33 1.624 0 1.038-.357 1.904-1.072 2.593-.719.688-1.615 1.032-2.691 1.032-.275 0-.541-.021-.793-.065-.18.078-.324.188-.451.331a.532.532 0 0 0-.175.367zm1.307-6.544c-.496 0-.898.179-1.197.534-.301.355-.449.833-.449 1.416 0 .673.184 1.251.561 1.729.365.483.811.724 1.326.724h-.016c.51 0 .92-.175 1.215-.522.303-.352.449-.823.449-1.416 0-.687-.18-1.271-.543-1.741-.361-.479-.809-.719-1.338-.719l-.008-.005zm-1.527 10.001c0 .389.156.667.486.85.32.183.824.274 1.502.274.746 0 1.295-.096 1.65-.287.354-.195.535-.489.535-.889a.923.923 0 0 0-.391-.776c-.25-.195-.596-.291-1.035-.291h-2.094c-.18.117-.336.287-.465.495-.128.221-.188.43-.188.624z"/><path d="M201.979 181.556v-4.418c0-.576-.033-1.094-.096-1.551a11.93 11.93 0 0 0-.355-1.565H204.567a4.05 4.05 0 0 0-.359 1.197c-.063.457-.102 1.102-.102 1.92v4.418c0 .829.039 1.469.102 1.922.07.455.191.85.359 1.191H201.528c.17-.323.287-.719.355-1.177.065-.455.096-1.102.096-1.937zm1.018-11.983c.398 0 .738.162 1.018.483.281.318.418.712.418 1.178s-.137.852-.418 1.172c-.277.313-.615.479-1.018.479s-.744-.155-1.018-.479c-.281-.313-.416-.706-.416-1.172 0-.465.133-.854.416-1.178a1.286 1.286 0 0 1 1.018-.483zM211.096 176.295c-.303-.353-.609-.608-.924-.773a2.224 2.224 0 0 0-1.043-.245c-.426 0-.775.113-1.059.334-.277.222-.42.498-.42.831 0 .327.094.626.287.885.184.26.533.588 1.043.99.867.67 1.48 1.263 1.83 1.774.344.498.516 1.042.516 1.638 0 .915-.314 1.673-.955 2.273-.635.605-1.441.91-2.406.91-.527 0-.98-.035-1.357-.097a9.81 9.81 0 0 1-1.385-.354v-2.542c.408.496.822.866 1.232 1.108a2.45 2.45 0 0 0 1.268.366c.418 0 .762-.125 1.035-.37.277-.245.412-.556.412-.929 0-.305-.113-.587-.328-.871-.221-.274-.639-.652-1.256-1.124-.779-.606-1.336-1.154-1.648-1.645a2.911 2.911 0 0 1-.477-1.62c0-.869.346-1.599 1.039-2.177.695-.576 1.568-.863 2.615-.863.391 0 .725.034 1.002.101.283.06.604.183.971.353l.008 2.047zM215.272 184.906c-.836 0-1.445-.247-1.824-.746-.385-.493-.576-1.286-.576-2.379v-6.29h-1.508v-.004l3.617-3.816h.014v2.348h2.48v1.47h-2.48v5.395c0 .719.129 1.258.371 1.613.242.354.607.533 1.104.533.305 0 .576-.041.832-.108.25-.07.555-.201.906-.385l-.842 2.047c-.373.128-.697.21-.975.248-.277.051-.65.074-1.119.074z"/><path d="M223.051 184.906c-1.467 0-2.676-.49-3.615-1.475-.936-.98-1.412-2.243-1.412-3.781 0-1.678.412-3.076 1.238-4.192.83-1.109 1.859-1.665 3.102-1.665h.021c1.213 0 2.154.416 2.805 1.264.658.842.984 2.046.984 3.604v.957h-5.891c.105.965.387 1.771.842 2.413.578.811 1.373 1.212 2.369 1.212.451 0 .896-.06 1.332-.18a4.659 4.659 0 0 0 1.191-.502l-.846 2.048a9.804 9.804 0 0 1-1.121.239 7.34 7.34 0 0 1-.999.058zm1.385-6.771c-.006-.93-.18-1.638-.514-2.121-.338-.489-.83-.739-1.477-.739h.01c-.701 0-1.25.303-1.637.905-.311.481-.492 1.131-.559 1.955h4.177zM227.762 181.556v-4.418c0-.576-.033-1.094-.1-1.551a10.714 10.714 0 0 0-.352-1.565h2.572v1.896l1.654-1.861c.488-.18.959-.266 1.41-.266.373 0 .688.067.947.221l-.43 2.289-.098-.07c-.396-.291-.871-.44-1.422-.44-.4 0-.932.153-1.588.454l-.479.215v5.104c0 .831.037 1.469.104 1.924.066.453.189.847.357 1.193H227.299c.17-.325.291-.722.352-1.18.084-.463.111-1.11.111-1.945zM242.94 175.49v6.067c0 .829.039 1.47.107 1.922.064.453.188.85.357 1.191h-3.041c.168-.324.285-.72.354-1.177.061-.457.1-1.104.1-1.938v-6.068h-1.154v-.034l.77-1.438h.387v-.85c0-1.206.313-2.15.945-2.818.635-.671 1.523-1.015 2.664-1.015.396 0 .752.029 1.061.072.313.045.625.133.947.249l-.498 2.105c-.277-.313-.535-.547-.785-.688a1.479 1.479 0 0 0-.77-.222c-.486 0-.844.146-1.084.445-.24.301-.359.748-.359 1.351v1.372h2.137v1.469l-2.138.005zM246.407 183.411c-.895-.998-1.346-2.247-1.346-3.751 0-1.686.496-3.086 1.492-4.208.998-1.109 2.246-1.674 3.736-1.674 1.355 0 2.479.498 3.365 1.499.895 1.002 1.342 2.252 1.342 3.755 0 1.687-.494 3.086-1.488 4.198-.994 1.114-2.24 1.671-3.744 1.671-1.346.005-2.463-.493-3.357-1.49zm5.873-1.323c.334-.646.498-1.396.498-2.259 0-1.359-.322-2.445-.975-3.263-.658-.825-1.545-1.25-2.656-1.289-.576.234-1.029.679-1.373 1.327-.336.654-.502 1.407-.502 2.267 0 1.357.326 2.442.98 3.263.654.813 1.539 1.24 2.654 1.283.579-.241 1.034-.685 1.374-1.329zM256.434 181.556v-4.418c0-.576-.037-1.094-.1-1.551a11.751 11.751 0 0 0-.354-1.565H258.556v1.896l1.652-1.861c.486-.18.959-.266 1.41-.266.375 0 .688.067.947.221l-.432 2.289-.1-.07c-.396-.291-.871-.44-1.418-.44-.402 0-.932.153-1.588.454l-.479.215v5.104c0 .831.037 1.469.104 1.924.068.453.188.847.357 1.193H255.971c.17-.325.287-.722.352-1.18.076-.463.111-1.11.111-1.945z"/></g><path fill="#398F3B" d="M3.042 206.698C1.605 205.17.886 203.26.886 200.952c0-2.233.765-4.091 2.298-5.566 1.531-1.478 3.451-2.219 5.755-2.219 2.175 0 3.98.764 5.417 2.292s2.158 3.441 2.158 5.748c0 2.229-.765 4.08-2.298 5.559-1.533 1.48-3.453 2.222-5.764 2.222-2.17-.001-3.97-.765-5.41-2.29zm9.499-1.156c.955-1.057 1.435-2.374 1.435-3.963 0-1.881-.525-3.441-1.573-4.688-1.049-1.241-2.364-1.864-3.951-1.864-1.439 0-2.634.527-3.59 1.581-.957 1.055-1.436 2.379-1.436 3.97 0 1.877.525 3.435 1.572 4.68 1.046 1.246 2.36 1.864 3.941 1.864 1.444.001 2.643-.526 3.602-1.58z"/><g fill="#398F3B"><path d="M19.089 205.637l1.481-2.271-1.328-2.146a22.366 22.366 0 0 0-1.291-1.853 9.853 9.853 0 0 0-1.205-1.262H20.048c.027.318.113.641.255.967.143.327.381.752.706 1.276l.757 1.211.78-1.211c.331-.509.572-.933.715-1.259a3.75 3.75 0 0 0 .274-.983h2.925a9.354 9.354 0 0 0-1.157 1.21c-.366.458-.812 1.093-1.341 1.903l-1.206 1.93 1.552 2.487c.568.9 1.021 1.578 1.367 2.038.343.459.666.815.966 1.077h-3.138a3.012 3.012 0 0 0-.253-.97c-.144-.322-.381-.75-.706-1.272l-.955-1.528-.967 1.528c-.319.502-.55.918-.691 1.25-.138.327-.221.66-.251.992h-3.002c.262-.222.574-.562.931-1.019.351-.457.845-1.154 1.48-2.095zM29.987 199.573v6.065c0 .829.034 1.468.102 1.924.068.453.188.846.357 1.189H27.41c.168-.322.287-.719.353-1.179.062-.457.098-1.104.098-1.937v-6.065h-1.157v-.034l.772-1.439h.385v-.853c0-1.204.314-2.149.948-2.818.636-.673 1.524-1.014 2.664-1.014.399 0 .752.025 1.063.074.31.045.625.132.946.25l-.5 2.104c-.274-.312-.536-.547-.782-.688a1.507 1.507 0 0 0-.773-.221c-.487 0-.844.146-1.083.441-.238.301-.357.753-.357 1.35v1.372h2.134v1.465h-2.134v.014zM33.451 207.491c-.895-.997-1.342-2.247-1.342-3.75 0-1.683.495-3.086 1.492-4.205.997-1.113 2.243-1.677 3.74-1.677 1.352 0 2.473.5 3.366 1.499.891 1.006 1.337 2.256 1.337 3.756 0 1.686-.496 3.08-1.488 4.198-.993 1.117-2.241 1.674-3.742 1.674-1.351.001-2.471-.498-3.363-1.495zm5.871-1.323c.336-.644.504-1.396.504-2.256 0-1.361-.328-2.449-.98-3.268-.655-.825-1.541-1.25-2.655-1.285-.576.231-1.031.675-1.369 1.326-.336.651-.502 1.403-.502 2.264 0 1.36.325 2.443.98 3.261.653.821 1.537 1.249 2.655 1.284.576-.241 1.029-.68 1.367-1.326zM43.477 205.637v-4.418c0-.576-.034-1.094-.098-1.551a11.608 11.608 0 0 0-.353-1.563H45.602v1.89l1.656-1.859c.487-.18.957-.267 1.412-.267.373 0 .688.072.948.22l-.431 2.292-.099-.066c-.399-.295-.872-.442-1.42-.442-.401 0-.931.153-1.588.453l-.479.219v5.104c0 .83.033 1.467.102 1.923.068.452.188.847.357 1.19h-3.037c.17-.322.287-.72.353-1.179.068-.466.101-1.113.101-1.946zM54.004 208.987c-1.313 0-2.352-.411-3.119-1.237-.768-.822-1.152-1.935-1.152-3.337 0-1.878.531-3.435 1.594-4.678 1.059-1.243 2.391-1.866 3.992-1.866.43 0 .834.058 1.201.176v-.833c0-.689-.031-1.268-.098-1.725a6.79 6.79 0 0 0-.354-1.39l1.49-.31 1.5-.311c-.158.432-.264.941-.324 1.539-.057.596-.088 1.431-.088 2.512v8.107c0 .832.035 1.47.102 1.922.068.457.188.848.357 1.192H56.521v-1.45l-1.262 1.43c-.495.179-.909.262-1.255.259zm.583-9.612c-.944 0-1.63.32-2.047.966s-.627 1.691-.627 3.146c0 1.162.253 2.081.759 2.77.504.682 1.189 1.021 2.053 1.021.418 0 .806-.078 1.164-.235l.627-.33v-6.719c-.491-.413-1.138-.619-1.929-.619zM65.605 200.374c-.301-.353-.605-.608-.92-.771a2.271 2.271 0 0 0-1.045-.242c-.424 0-.776.11-1.058.329-.282.222-.421.497-.421.836 0 .325.093.621.285.882.183.26.531.587 1.046.993.866.667 1.478 1.262 1.83 1.771.345.5.517 1.047.517 1.64 0 .915-.316 1.674-.955 2.274-.64.604-1.438.906-2.406.906-.528 0-.981-.037-1.358-.096a9.917 9.917 0 0 1-1.386-.357V206c.412.498.824.869 1.234 1.109.413.236.836.361 1.268.361.416 0 .763-.125 1.037-.37.277-.241.414-.559.414-.927 0-.303-.11-.592-.334-.871-.215-.274-.631-.655-1.252-1.125-.785-.606-1.336-1.157-1.651-1.645a2.912 2.912 0 0 1-.474-1.615c0-.875.349-1.604 1.041-2.18.695-.576 1.569-.867 2.621-.867.385 0 .717.035.998.103.281.061.604.184.971.354v2.047h-.002zM67.081 205.637v-8.427c0-.689-.034-1.267-.099-1.724a6.607 6.607 0 0 0-.353-1.391l1.519-.309 1.52-.311a7.256 7.256 0 0 0-.357 1.614c-.067.598-.104 1.406-.104 2.435v2.432l1.618-1.863c.549-.146 1.006-.223 1.372-.223.967 0 1.701.31 2.205.91.504.602.754 1.482.754 2.637v4.223c0 .89.027 1.559.08 2.012.057.455.156.823.303 1.104H72.58c.17-.322.289-.72.354-1.179.063-.457.1-1.108.1-1.938v-3.931c0-.618-.143-1.087-.432-1.385-.291-.302-.731-.46-1.322-.46-.404 0-.934.154-1.588.453l-.483.222v5.101c0 .831.036 1.468.104 1.924.065.453.188.848.356 1.19h-3.041c.17-.323.289-.72.354-1.179s.099-1.104.099-1.937zM77.254 205.637v-4.418c0-.576-.033-1.094-.098-1.551a11.18 11.18 0 0 0-.354-1.563h3.037a3.921 3.921 0 0 0-.354 1.196c-.066.46-.103 1.1-.103 1.918v4.418c0 .831.036 1.469.103 1.922.068.457.188.848.354 1.191H76.8c.17-.321.287-.718.354-1.176s.1-1.104.1-1.937zm1.016-11.981c.4 0 .74.157 1.02.479.277.321.418.715.418 1.177 0 .467-.139.854-.418 1.174-.277.314-.619.48-1.02.48-.398 0-.739-.159-1.018-.48-.277-.313-.417-.706-.417-1.174 0-.462.14-.854.417-1.177.278-.321.616-.479 1.018-.479zM81.534 205.637v-4.418c0-.576-.035-1.094-.101-1.551a11.164 11.164 0 0 0-.353-1.563h2.576v1.89l1.653-1.859c.49-.18.961-.267 1.412-.267.373 0 .689.072.95.22l-.432 2.292-.099-.066c-.399-.295-.871-.442-1.42-.442-.404 0-.933.153-1.586.453l-.479.219v5.104c0 .83.034 1.467.103 1.923.065.452.188.847.356 1.19H81.075c.17-.322.29-.72.354-1.179.073-.466.105-1.113.105-1.946zM92.625 208.987c-1.469 0-2.674-.492-3.613-1.476-.939-.981-1.412-2.244-1.412-3.783 0-1.676.412-3.069 1.239-4.189.825-1.109 1.86-1.669 3.101-1.669h.019c1.214 0 2.149.419 2.806 1.27.657.843.984 2.043.984 3.6v.961h-5.896c.106.965.391 1.77.842 2.408.582.811 1.373 1.217 2.371 1.217a5.09 5.09 0 0 0 1.332-.18 4.675 4.675 0 0 0 1.188-.506l-.844 2.049a8.74 8.74 0 0 1-1.12.24 7.847 7.847 0 0 1-.997.058zm1.387-6.769c-.007-.933-.177-1.64-.513-2.126-.335-.487-.83-.735-1.474-.735h.01c-.706 0-1.25.302-1.637.901-.312.483-.493 1.135-.563 1.96h4.177z"/></g><path fill="#398F3B" d="M96.137 212.599c.637-1.075 1.111-2.327 1.441-3.752.238-1.085.275-2.112.107-3.088h2.998a9.563 9.563 0 0 1-.826 3.073 18.375 18.375 0 0 1-2.321 3.766l-1.399.001z"/><g fill="#398F3B"><path d="M109.15 204.304v-6.454c0-.962-.039-1.769-.117-2.421a12.757 12.757 0 0 0-.422-2.03h3.324c1.588 0 2.847.364 3.772 1.088.931.729 1.397 1.707 1.397 2.94 0 1.123-.549 2.043-1.645 2.764a6.254 6.254 0 0 1-.706.396c.5.176.948.4 1.343.685 1.137.798 1.705 1.878 1.705 3.238 0 1.359-.559 2.407-1.672 3.145-1.111.737-2.699 1.104-4.755 1.104h-2.753c.197-.677.334-1.347.41-1.994.083-.66.119-1.478.119-2.461zm2.336-4.241h.098c.938 0 1.686-.245 2.238-.737.55-.488.826-1.15.826-1.991 0-.751-.27-1.349-.812-1.79-.542-.439-1.272-.661-2.194-.661h-.156v5.179zm0 7.198h.029c1.176 0 2.107-.261 2.797-.779.687-.523 1.031-1.229 1.031-2.127 0-.971-.354-1.748-1.068-2.323-.692-.558-1.623-.842-2.791-.861v6.092l.002-.002zM123.852 208.987c-1.467 0-2.674-.492-3.613-1.476-.938-.981-1.41-2.244-1.41-3.783 0-1.676.41-3.069 1.24-4.189.824-1.109 1.859-1.669 3.1-1.669h.02c1.211 0 2.148.419 2.804 1.27.659.843.987 2.043.987 3.6v.961h-5.896c.104.965.388 1.77.841 2.408.581.811 1.374 1.217 2.371 1.217.451 0 .895-.062 1.333-.18a4.644 4.644 0 0 0 1.188-.506l-.848 2.049a8.59 8.59 0 0 1-1.119.24 7.84 7.84 0 0 1-.998.058zm1.386-6.769c-.006-.933-.178-1.64-.516-2.126-.334-.487-.826-.735-1.474-.735h.011c-.705 0-1.252.302-1.639.901-.309.483-.491 1.135-.559 1.96h4.177zM128.574 205.637v-4.418c0-.576-.036-1.094-.1-1.551a11.197 11.197 0 0 0-.355-1.563H130.695v1.89l1.65-1.859a4.08 4.08 0 0 1 1.412-.267c.372 0 .689.072.95.22l-.431 2.292-.098-.066c-.399-.295-.873-.442-1.42-.442-.406 0-.935.153-1.589.453l-.479.219v5.104c0 .83.035 1.467.102 1.923.066.452.188.847.357 1.19h-3.04c.17-.322.289-.72.353-1.179.076-.466.112-1.113.112-1.946zM137.393 205.637c0 .831.035 1.469.102 1.922.068.457.188.847.357 1.191h-3.038c.17-.321.287-.718.354-1.177.066-.457.098-1.106.098-1.938v-8.426c0-.689-.031-1.268-.098-1.724a6.61 6.61 0 0 0-.354-1.391l1.519-.31 1.519-.31a7.37 7.37 0 0 0-.357 1.614c-.064.598-.102 1.406-.102 2.434v5.583h.004l1.783-2.763c.346-.53.584-.957.715-1.284.133-.329.19-.648.176-.954H143.532c-.594.511-1.098.993-1.506 1.452a17.482 17.482 0 0 0-1.283 1.663l-1.154 1.74 1.694 2.679c.549.859 1 1.521 1.353 1.98.352.457.705.84 1.059 1.134h-3.114c.014-.183-.03-.39-.128-.616a6.852 6.852 0 0 0-.529-.942l-2.526-4.078h-.002l-.003 2.521z"/><path d="M149.221 200.374c-.302-.353-.605-.608-.92-.771a2.26 2.26 0 0 0-1.046-.242c-.421 0-.772.11-1.057.329-.281.222-.418.497-.418.836 0 .325.096.621.284.882.184.26.531.587 1.045.993.869.667 1.475 1.262 1.828 1.771.346.5.519 1.047.519 1.64 0 .915-.313 1.674-.952 2.274-.64.604-1.443.906-2.41.906-.529 0-.979-.037-1.356-.096a9.848 9.848 0 0 1-1.386-.357V206c.412.498.824.869 1.234 1.109.412.236.835.361 1.268.361.414 0 .763-.125 1.037-.37a1.19 1.19 0 0 0 .41-.927c0-.303-.113-.592-.332-.871-.217-.274-.634-.655-1.254-1.125-.781-.606-1.332-1.157-1.654-1.645a2.91 2.91 0 0 1-.471-1.615c0-.875.348-1.604 1.041-2.18.695-.576 1.569-.867 2.615-.867.389 0 .721.035 1.003.103.281.061.601.184.968.354l.004 2.047zM150.693 205.637v-8.427c0-.689-.034-1.267-.1-1.724a6.672 6.672 0 0 0-.354-1.391l1.52-.309 1.518-.311a7.61 7.61 0 0 0-.356 1.614c-.065.598-.103 1.406-.103 2.435v2.432l1.619-1.863c.547-.146 1.004-.223 1.371-.223.967 0 1.703.31 2.205.91.502.603.752 1.482.752 2.637v4.223c0 .89.027 1.559.082 2.012.055.455.153.823.303 1.104h-2.958c.171-.322.293-.72.354-1.179.066-.457.1-1.108.1-1.938v-3.931c0-.618-.143-1.087-.428-1.385-.291-.3-.732-.46-1.324-.46-.403 0-.933.154-1.588.453l-.479.222v5.101c0 .831.036 1.468.103 1.924.067.453.19.848.358 1.19h-3.042c.17-.323.289-.72.354-1.179.064-.457.093-1.104.093-1.937zM160.869 205.637v-4.418c0-.576-.034-1.094-.1-1.551a11.18 11.18 0 0 0-.354-1.563h3.041c-.17.336-.291.737-.358 1.196-.066.46-.103 1.1-.103 1.918v4.418c0 .831.036 1.469.103 1.922.067.457.188.848.358 1.191h-3.041c.17-.321.289-.718.354-1.176.068-.457.1-1.104.1-1.937zm1.016-11.981c.399 0 .74.157 1.018.479.279.321.419.715.419 1.177 0 .467-.14.854-.419 1.174-.277.314-.618.48-1.018.48s-.742-.159-1.019-.48c-.278-.313-.417-.706-.417-1.174 0-.462.138-.854.417-1.177a1.295 1.295 0 0 1 1.019-.479zM165.146 205.637v-4.418c0-.576-.035-1.094-.101-1.551a11.024 11.024 0 0 0-.353-1.563H167.268v1.89l1.653-1.859c.489-.18.962-.267 1.41-.267.374 0 .689.072.951.22l-.432 2.292-.094-.066c-.4-.295-.871-.442-1.422-.442-.404 0-.934.153-1.586.453l-.482.219v5.104c0 .83.035 1.467.104 1.923.066.452.189.847.359 1.19h-3.043c.17-.322.293-.72.354-1.179.074-.466.106-1.113.106-1.946zM176.243 208.987c-1.467 0-2.676-.492-3.613-1.476-.939-.981-1.414-2.244-1.414-3.783 0-1.676.414-3.069 1.238-4.189.828-1.109 1.859-1.669 3.102-1.669h.021c1.215 0 2.148.419 2.807 1.27.654.843.982 2.043.982 3.6v.961h-5.893c.104.965.387 1.77.842 2.408.576.811 1.373 1.217 2.371 1.217.451 0 .896-.062 1.334-.18a4.646 4.646 0 0 0 1.184-.506l-.84 2.049a8.947 8.947 0 0 1-1.123.24 7.875 7.875 0 0 1-.998.058zm1.382-6.769c-.012-.933-.182-1.64-.516-2.126-.332-.487-.83-.735-1.469-.735h.008c-.705 0-1.252.302-1.639.901-.307.483-.486 1.135-.559 1.96h4.175zM187.147 199.033c0-.89.314-1.632.953-2.217.637-.594 1.436-.893 2.395-.893.957 0 1.758.275 2.393.824.637.55.945 1.237.945 2.067 0 .708-.193 1.312-.576 1.814a3.702 3.702 0 0 1-.748.706l.629.319c.691.359 1.27.702 1.721 1.027l1.422 1.045c.238-.693.439-1.582.594-2.668.143-1.035.221-2.099.221-3.19a6.667 6.667 0 0 0-1.109.121c-.439.07-.795.162-1.057.274v-2.038H201.71v2.038c-.27-.111-.627-.203-1.068-.281a7.452 7.452 0 0 0-1.234-.113h-.363c.039.951-.029 1.986-.203 3.083-.229 1.488-.59 2.792-1.08 3.909l1.188.938c.518.409 1.107.793 1.758 1.146.646.354 1.197.589 1.645.706l-2.037 1.204c-.367-.084-.783-.246-1.262-.487a7.341 7.341 0 0 1-1.229-.782l-1.184-.949a7.984 7.984 0 0 1-1.717 1.333c-1.188.672-2.408 1.015-3.678 1.015-1.504 0-2.754-.39-3.748-1.151-.998-.767-1.492-1.729-1.492-2.885 0-.975.313-1.807.957-2.499a5.469 5.469 0 0 1 1.441-1.058l-.313-.265c-.632-.563-.944-1.266-.944-2.093zm4.262 8.081c.82 0 1.66-.252 2.518-.764a6.691 6.691 0 0 0 1.191-.901l-1.646-1.233a9.06 9.06 0 0 0-1.422-.833 39.753 39.753 0 0 1-1.832-.919 5.093 5.093 0 0 0-1.133.738c-.568.516-.848 1.125-.848 1.831 0 .593.305 1.093.912 1.488.588.397 1.342.593 2.26.593zm-2.305-8.13c0 .399.135.731.4.99.268.26.604.396 1.01.396.475 0 .83-.124 1.063-.364.229-.237.35-.607.35-1.102 0-.344-.133-.635-.398-.865-.27-.228-.604-.347-1.014-.347-.4 0-.746.129-1.012.372-.268.24-.399.546-.399.92zM209.586 204.304v-6.454c0-.962-.039-1.769-.117-2.421a13.085 13.085 0 0 0-.42-2.03h3.322c1.588 0 2.852.364 3.775 1.088.932.729 1.393 1.707 1.393 2.94 0 1.123-.547 2.043-1.643 2.764a5.987 5.987 0 0 1-.705.396c.504.176.949.4 1.346.685 1.135.798 1.707 1.878 1.707 3.238 0 1.359-.561 2.407-1.67 3.145-1.111.737-2.703 1.104-4.754 1.104H209.064c.197-.677.334-1.347.412-1.994.073-.66.11-1.478.11-2.461zm2.331-4.241h.1c.938 0 1.689-.245 2.244-.737.551-.488.828-1.15.828-1.991 0-.751-.271-1.349-.814-1.79-.543-.439-1.277-.661-2.195-.661h-.16v5.181l-.003-.002zm0 7.198h.033c1.18 0 2.107-.261 2.795-.779.688-.523 1.031-1.229 1.031-2.127 0-.971-.355-1.748-1.066-2.323-.691-.558-1.625-.842-2.793-.861v6.09zM221.879 201.213v3.962c0 .614.135 1.07.424 1.366.285.304.717.446 1.295.446.469 0 1.016-.128 1.662-.38l.354-.137v-5.259c0-.577-.035-1.101-.098-1.549-.064-.46-.184-.977-.354-1.557H228.201c-.172.341-.291.74-.357 1.197s-.105 1.102-.105 1.917v4.419c0 .83.037 1.467.105 1.923.066.453.188.847.357 1.189H225.723v-1.813l-1.676 1.813c-.607.155-1.064.234-1.373.234-.959 0-1.689-.253-2.182-.762-.492-.505-.748-1.25-.748-2.222v-4.787c0-.576-.037-1.091-.098-1.549a11.626 11.626 0 0 0-.354-1.563h3.041c-.174.34-.293.738-.365 1.197-.057.454-.089 1.094-.089 1.915zM236.471 208.684a9.17 9.17 0 0 1-1.176.241 7.867 7.867 0 0 1-1.053.061c-1.41 0-2.588-.498-3.518-1.492-.938-.991-1.408-2.238-1.408-3.741 0-1.685.518-3.089 1.557-4.208 1.035-1.115 2.342-1.683 3.896-1.683.416 0 .781.021 1.1.045.311.035.738.096 1.283.196l-.107 2.453c-.393-.422-.779-.732-1.17-.922a2.905 2.905 0 0 0-1.281-.285c-.936 0-1.686.354-2.234 1.063-.555.708-.828 1.664-.828 2.878 0 1.233.289 2.214.875 2.94.578.727 1.371 1.089 2.361 1.089.338 0 .689-.047 1.057-.146.365-.104.855-.28 1.479-.537l-.833 2.048zM240.784 205.637c0 .831.037 1.469.102 1.922.07.457.193.847.365 1.191h-3.043c.172-.321.287-.718.354-1.177.063-.457.098-1.106.098-1.938v-8.426c0-.689-.035-1.268-.098-1.724a6.735 6.735 0 0 0-.354-1.391l1.52-.31 1.523-.31a7.361 7.361 0 0 0-.365 1.614 23.96 23.96 0 0 0-.102 2.434v5.583h.004l1.789-2.763c.342-.53.578-.957.715-1.284.133-.329.189-.648.176-.954H246.929c-.59.511-1.1.993-1.504 1.452a16.4 16.4 0 0 0-1.285 1.663l-1.154 1.74 1.693 2.679a33.254 33.254 0 0 0 1.354 1.98c.355.457.705.84 1.059 1.134h-3.11c.018-.183-.033-.39-.131-.616s-.273-.547-.529-.942l-2.525-4.078h-.002l-.011 2.521zM247.704 205.637v-4.418c0-.576-.031-1.094-.098-1.551a10.638 10.638 0 0 0-.354-1.563h3.04a4.036 4.036 0 0 0-.355 1.196c-.064.46-.104 1.1-.104 1.918v4.418c0 .831.037 1.469.104 1.922.066.457.191.848.355 1.191h-3.04c.172-.321.293-.718.354-1.176.07-.457.098-1.104.098-1.937zm1.019-11.981c.396 0 .738.157 1.016.479.281.321.418.715.418 1.177 0 .467-.137.854-.418 1.174-.275.314-.615.48-1.016.48-.404 0-.744-.159-1.021-.48-.277-.313-.41-.706-.41-1.174 0-.462.133-.854.41-1.177.283-.321.615-.479 1.021-.479zM251.934 205.637v-4.418c0-.578-.035-1.103-.098-1.555-.066-.46-.186-.977-.354-1.557h2.57v1.851l1.617-1.863c.553-.146 1.01-.223 1.371-.223.967 0 1.703.31 2.203.91.5.603.752 1.482.752 2.637v4.223c0 .89.031 1.559.084 2.012.057.453.154.823.299 1.104h-2.954c.172-.322.293-.72.354-1.179.064-.457.1-1.108.1-1.938v-3.931c0-.618-.139-1.087-.434-1.385-.285-.306-.727-.46-1.318-.46-.4 0-.932.154-1.584.453l-.488.22v5.103c0 .831.043 1.468.105 1.924.068.453.188.847.359 1.19H251.479c.168-.323.285-.72.354-1.179.068-.458.101-1.106.101-1.939z"/></g><path fill="#398F3B" d="M263.866 205.899c0 .183.115.34.332.47.223.127.496.193.828.193h2.289c.918 0 1.584.187 2.006.568.424.382.643.98.643 1.803 0 .921-.445 1.688-1.336 2.328-.885.632-1.977.942-3.26.942-1.309 0-2.285-.13-2.938-.388-.66-.262-.982-.647-.982-1.162 0-.261.131-.556.395-.876.26-.322.781-.843 1.563-1.549-.545-.045-.979-.134-1.299-.275-.438-.19-.66-.479-.66-.86 0-.289.121-.547.355-.771.229-.229.848-.687 1.859-1.373a3.63 3.63 0 0 1-1.059-.682c-.711-.656-1.07-1.474-1.07-2.457 0-1.121.359-2.062 1.07-2.808.709-.747 1.607-1.117 2.686-1.117.824 0 1.547.213 2.166.628h1.104c.422 0 .84-.022 1.246-.059.406-.04.701-.084.865-.134l-.221 1.687-1.725.01c.221.479.326 1.017.326 1.63 0 1.035-.357 1.905-1.07 2.592-.717.685-1.613 1.029-2.691 1.029-.273 0-.543-.023-.793-.066a1.293 1.293 0 0 0-.449.332.502.502 0 0 0-.18.365zm1.306-6.542c-.498 0-.898.176-1.197.531-.303.356-.451.832-.451 1.417 0 .672.184 1.25.557 1.729.367.479.811.718 1.326.718h-.012c.506 0 .916-.174 1.213-.521.301-.353.451-.822.451-1.416 0-.686-.18-1.267-.545-1.743-.361-.479-.809-.714-1.34-.714l-.002-.001zm-1.533 10.001c0 .387.162.671.486.85.322.183.828.277 1.506.277.748 0 1.291-.1 1.646-.295.357-.191.537-.486.537-.885a.926.926 0 0 0-.385-.775c-.254-.196-.604-.294-1.039-.294h-2.096a1.688 1.688 0 0 0-.465.5c-.123.216-.19.424-.19.622z"/><g fill="#398F3B"><path d="M270.987 205.637v-8.427c0-.689-.031-1.267-.098-1.724a6.432 6.432 0 0 0-.354-1.391l1.52-.309 1.518-.311a7.372 7.372 0 0 0-.355 1.614 23.648 23.648 0 0 0-.104 2.435v2.432l1.617-1.863c.551-.146 1.008-.223 1.373-.223.969 0 1.703.31 2.205.91.504.603.752 1.482.752 2.637v4.223c0 .89.035 1.559.084 2.012.057.455.156.823.307 1.104h-2.957c.168-.322.291-.72.352-1.179.063-.457.102-1.108.102-1.938v-3.931c0-.618-.143-1.087-.432-1.385-.293-.306-.73-.46-1.322-.46-.402 0-.932.154-1.588.453l-.482.222v5.101c0 .831.037 1.468.105 1.924a3.9 3.9 0 0 0 .357 1.19h-3.041c.172-.323.291-.72.352-1.179.061-.457.089-1.104.089-1.937zM283.633 208.987c-1.039 0-1.838-.225-2.398-.667-.566-.444-.842-1.076-.842-1.898 0-.553.201-1.066.592-1.55.396-.486.934-.864 1.602-1.147l3.137-1.29v-.967c0-.581-.178-1.045-.539-1.388-.355-.343-.842-.514-1.451-.514-.395 0-.77.064-1.135.202-.369.134-.764.353-1.203.663l.584-2.043a6.118 6.118 0 0 1 2.412-.518c1.152 0 2.012.307 2.592.903.576.6.865 1.495.865 2.698v4.174c0 .888.033 1.558.086 2.011.049.454.15.823.301 1.104h-2.51v-1.02l-1.654 1.233-.439.014zm2.086-1.852v-2.933h-2.742c-.064 0-.146.201-.246.592a4.053 4.053 0 0 0-.154.999c0 .497.164.875.488 1.13.324.25.82.378 1.467.378a4 4 0 0 0 1.164-.166h.023zM289.68 205.637v-4.418c0-.576-.035-1.094-.1-1.551s-.184-.979-.352-1.563h2.574v2.046l1.33-1.64.482-.29c.457-.229.98-.354 1.563-.354.842 0 1.479.267 1.924.793.332.397.535.925.607 1.586l1.578-1.759.43-.246a3.046 3.046 0 0 1 1.463-.373c.828 0 1.455.257 1.885.773.432.518.654 1.27.654 2.261v4.734c0 .9.023 1.577.074 2.038.051.459.146.815.289 1.076h-2.934c.168-.321.285-.718.348-1.175.064-.459.104-1.108.104-1.939v-4.064c0-.576-.135-1.006-.4-1.284-.27-.287-.68-.424-1.229-.424-.506 0-1.074.176-1.688.521l-.508.311v4.934c0 .831.035 1.468.104 1.928.068.452.188.846.357 1.189h-3.042c.172-.325.289-.723.354-1.179.064-.457.102-1.108.102-1.939v-4.054c0-.577-.133-1.017-.4-1.286-.266-.287-.678-.424-1.229-.424-.473 0-1.047.184-1.729.54l-.477.245v4.987c0 .831.039 1.469.105 1.922.066.457.188.848.357 1.191H289.238c.168-.321.285-.718.35-1.176s.092-1.104.092-1.937zM310.756 200.374c-.303-.353-.607-.608-.92-.771a2.28 2.28 0 0 0-1.045-.242c-.426 0-.775.11-1.061.329-.279.222-.418.497-.418.836 0 .325.094.621.289.882.18.26.531.587 1.043.993.863.667 1.477 1.262 1.826 1.771.346.5.52 1.047.52 1.64 0 .915-.318 1.674-.957 2.274-.635.604-1.439.91-2.406.91-.527 0-.98-.034-1.355-.096a9.523 9.523 0 0 1-1.391-.357v-2.535c.412.495.826.866 1.236 1.106.408.236.834.362 1.268.362.418 0 .764-.126 1.039-.37a1.19 1.19 0 0 0 .406-.927c0-.303-.111-.592-.328-.872-.219-.273-.637-.654-1.256-1.124-.779-.606-1.334-1.154-1.648-1.645a2.903 2.903 0 0 1-.477-1.614c0-.877.35-1.604 1.039-2.181.697-.576 1.57-.867 2.619-.867.389 0 .723.035 1 .103.281.06.604.183.971.353l.006 2.042zM312.235 205.637v-8.427c0-.689-.035-1.267-.098-1.724a7.14 7.14 0 0 0-.354-1.391l1.518-.309 1.521-.311a7.254 7.254 0 0 0-.359 1.614c-.066.593-.105 1.406-.105 2.435v2.432l1.617-1.863c.553-.146 1.012-.223 1.375-.223.965 0 1.703.31 2.201.91.502.603.752 1.482.752 2.637v4.223c0 .89.029 1.559.084 2.012.055.455.154.823.299 1.104h-2.952c.168-.322.287-.72.352-1.179.063-.457.1-1.108.1-1.938v-3.931c0-.618-.143-1.087-.432-1.385-.287-.306-.73-.46-1.324-.46-.4 0-.93.154-1.586.453l-.482.222v5.101c0 .831.037 1.468.105 1.924.068.453.186.848.357 1.19H311.786c.164-.323.287-.72.354-1.179.062-.457.095-1.104.095-1.937zM322.409 205.637v-4.418c0-.576-.037-1.094-.096-1.551a11.8 11.8 0 0 0-.355-1.563H324.997c-.172.336-.287.737-.357 1.196-.066.46-.104 1.1-.104 1.918v4.418c0 .831.035 1.469.104 1.922.07.457.186.848.357 1.191H321.958c.17-.321.289-.718.355-1.176.059-.457.096-1.104.096-1.937zm1.011-11.981c.398 0 .74.157 1.018.479.279.319.416.715.416 1.177 0 .467-.135.854-.416 1.174-.279.314-.619.48-1.018.48-.4 0-.742-.159-1.02-.48-.275-.313-.418-.706-.418-1.174 0-.462.139-.854.418-1.177.28-.321.624-.479 1.02-.479zM326.686 205.637v-4.418c0-.576-.037-1.094-.098-1.551a11.943 11.943 0 0 0-.354-1.563h2.574v1.89l1.656-1.859c.486-.18.959-.267 1.408-.267.375 0 .688.072.945.22l-.432 2.292-.098-.066c-.396-.295-.869-.442-1.42-.442-.398 0-.932.153-1.586.453l-.482.219v5.104c0 .83.037 1.467.104 1.923.07.452.188.847.359 1.19h-3.037c.166-.322.285-.72.352-1.179.07-.464.109-1.113.109-1.946zM337.778 208.987c-1.469 0-2.678-.492-3.617-1.476-.938-.981-1.406-2.244-1.406-3.783 0-1.676.41-3.069 1.238-4.189.83-1.109 1.859-1.669 3.104-1.669h.02c1.209 0 2.148.419 2.805 1.27.656.843.982 2.043.982 3.6v.961h-5.891c.102.965.385 1.77.842 2.408.578.811 1.373 1.217 2.369 1.217a5.09 5.09 0 0 0 1.332-.18 4.614 4.614 0 0 0 1.188-.506l-.842 2.049c-.467.126-.84.204-1.119.24a8.099 8.099 0 0 1-1.005.058zm1.385-6.769c-.004-.933-.18-1.64-.512-2.126-.336-.487-.828-.735-1.471-.735h.008c-.705 0-1.252.302-1.639.901-.313.483-.488 1.135-.561 1.96h4.175z"/></g><path fill="#398F3B" d="M.453.457v154.161h163.899V.457H.453"/><path fill="none" stroke="#FFF" stroke-width=".429" d="M.453.457v154.161h163.899V.457z"/><path fill="#FFF" d="M85.749 0s-20.89 5.046-38.963 17.295C30.241 27.709 24.04 32.29 12.836 44.182 4.953 52.552 0 58.93 0 58.93v33.916s16.498 18.44 33.148 25.562c16.651 7.125 22.168 7.615 38.472 8.26 8.948-.472 16.147-1.642 22.544-3.455 15.988-3.323 45.678-17.505 53.943-23.451 7.84-5.632 16.699-11.671 16.699-11.671V75.475c-6.961 12.572-23.021 23.452-30.088 27.842-7.068 4.386-8.277 4.976-19.347 10.143-7.104 2.848-14.584 4.915-23.438 6.721-8.855 1.815-15.254.815-21.951-1.4-9.646-4.194-18.307-12.134-20.607-21.345-2.331-9.309-2.186-20.834.257-28.435 4.394-9.307 4.964-10.856 11.634-20.163C69.229 37.72 87.096 20.55 99.75 13.535 112.4 6.521 130.775.014 130.775.014H85.748"/><g><g fill="#FFF"><path d="M124.548 48.428l2.468-.522-2.806 9.461c-1.118 3.766-2.179 8.106-3.178 13.019-.55 2.668-.823 4.388-.823 5.162s.311 1.16.934 1.16c.399 0 1.033-.261 1.905-.783 1.548-.928 3.029-2.073 4.451-3.442l1.197 1.46c-2.843 2.596-4.662 4.164-5.462 4.717-1.594 1.098-3.116 1.904-4.563 2.433-.947.346-1.869.52-2.768.52-.651 0-1.135-.146-1.461-.447-.324-.302-.486-.734-.486-1.308 0-.374.1-.886.301-1.538l1.495-5.09c-2.146 2.567-4.7 4.774-7.666 6.622-1.817 1.143-3.493 1.722-5.009 1.722-1.45 0-2.559-.509-3.329-1.536-1.048-1.372-1.571-3.164-1.571-5.386 0-2.638.705-5.584 2.113-8.824a32.74 32.74 0 0 1 5.668-8.825c2.371-2.643 4.862-4.588 7.482-5.836 2.021-.944 4.615-1.419 7.779-1.419.797 0 1.609.049 2.433.149l.896-1.469zm-4.634 5.725c-1.346-.276-2.48-.413-3.408-.413-2.244 0-4.203.619-5.871 1.853-1.672 1.234-3.224 3.455-4.654 6.655-1.437 3.208-2.153 6.406-2.153 9.6 0 1.693.288 2.915.86 3.665.574.752 1.322 1.123 2.246 1.123 1.722 0 3.566-.932 5.535-2.791 1.969-1.861 3.414-4.533 4.34-8.021l3.105-11.671zM143.489 80.523h-5.572l2.617-10.061a348.778 348.778 0 0 0 3.327-14.063c.224-1.097.334-1.782.334-2.057 0-.6-.273-.896-.822-.896-.376 0-.947.256-1.723.767-.771.507-2.17 1.773-4.188 3.795l-1.158-1.307c2.392-2.569 4.778-4.498 7.158-5.782 2.381-1.283 4.207-1.925 5.479-1.925.449 0 .804.108 1.068.317a.997.997 0 0 1 .391.803c0 .325-.162 1.192-.487 2.595l-1.63 6.731c2.525-3.982 5.369-7.387 8.548-10.218 1.524-1.353 2.793-2.026 3.819-2.026.752 0 1.375.24 1.875.729.5.486.752 1.054.752 1.702 0 .672-.241 1.246-.729 1.721-.485.476-1.7 1.036-3.644 1.686-1.844.623-3.344 1.373-4.504 2.245-1.158.871-2.43 2.208-3.812 4.003-1.379 1.798-2.348 3.363-2.899 4.696-.549 1.332-1.383 4.43-2.51 9.293l-1.69 7.252z"/></g><g fill="#398F3B"><path d="M183.452 49.065c2.443 0 4.475.976 6.098 2.92 1.621 1.943 2.43 4.652 2.43 8.113 0 5.536-1.943 10.502-5.834 14.903-3.883 4.402-8.004 6.602-12.342 6.602-2.672 0-4.823-.873-6.454-2.617-1.631-1.739-2.447-4.121-2.447-7.142 0-5.237 1.496-10.07 4.486-14.513 3.768-5.51 8.453-8.266 14.063-8.266zm-3.18 2.802c-2.121 0-4.172 1.515-6.154 4.547-1.988 3.027-2.973 7.214-2.973 12.545 0 3.237.609 5.8 1.832 7.664.896 1.374 2.088 2.063 3.59 2.063 2.094 0 4.008-1.298 5.725-3.892 2.189-3.365 3.289-7.541 3.289-12.532 0-3.741-.506-6.409-1.516-8.007-1.01-1.588-2.275-2.388-3.793-2.388zM212.262 55.612c2.018-2.221 4.014-3.85 5.969-4.883 1.959-1.031 3.68-1.55 5.18-1.55 1.746 0 3.146.697 4.191 2.096 1.045 1.393 1.57 3.5 1.57 6.321 0 4.09-.961 8.091-2.877 12.003-1.92 3.918-4.299 6.894-7.129 8.938-2.83 2.043-5.594 3.064-8.283 3.064-2.295 0-4.121-.671-5.496-2.018-1.373-1.347-2.063-3.091-2.063-5.236 0-1.721.336-4.116 1.018-7.185l4.412-19.787c1.072-4.836 2.418-8.522 4.033-11.053 1.623-2.53 3.758-4.551 6.4-6.062 2.639-1.508 5.148-2.26 7.514-2.26 1.42 0 2.463.245 3.129.73.662.488.988 1.142.988 1.963 0 .752-.301 1.372-.896 1.871-.596.498-1.449.751-2.543.751-.822 0-2.246-.187-4.268-.563-.896-.172-1.695-.259-2.393-.259-1.25 0-2.26.669-3.035 2.018-.576 1.046-1.363 3.705-2.354 7.966l-3.067 13.135zm7.369-2.284c-1.221 0-2.678.736-4.359 2.206-1.682 1.468-3.271 4.073-4.768 7.797-1.492 3.729-2.246 7.389-2.246 10.979 0 1.347.432 2.474 1.289 3.384.855.913 1.863 1.367 3.012 1.367 2.768 0 5.234-2.188 7.402-6.563 2.17-4.379 3.252-8.73 3.252-13.068 0-1.972-.41-3.581-1.232-4.829-.564-.85-1.354-1.273-2.35-1.273zM249.793 55.612c2.016-2.221 4.006-3.85 5.965-4.883 1.959-1.031 3.686-1.55 5.184-1.55 1.746 0 3.145.697 4.189 2.096 1.049 1.393 1.57 3.5 1.57 6.321 0 4.09-.961 8.091-2.879 12.003-1.918 3.918-4.297 6.894-7.127 8.938-2.83 2.043-5.596 3.064-8.283 3.064-2.291 0-4.119-.671-5.498-2.018-1.371-1.347-2.059-3.091-2.059-5.236 0-1.721.336-4.116 1.016-7.185l4.408-19.787c1.076-4.836 2.422-8.522 4.039-11.053 1.619-2.53 3.756-4.551 6.396-6.062 2.643-1.508 5.148-2.26 7.518-2.26 1.42 0 2.459.245 3.125.73.662.488.992 1.142.992 1.963 0 .752-.303 1.372-.904 1.871-.594.498-1.441.751-2.539.751-.828 0-2.25-.187-4.266-.563-.902-.172-1.701-.259-2.398-.259-1.248 0-2.26.669-3.031 2.018-.576 1.046-1.359 3.705-2.354 7.966l-3.064 13.135zm7.366-2.284c-1.221 0-2.676.736-4.355 2.206-1.686 1.468-3.273 4.073-4.77 7.797-1.494 3.729-2.244 7.389-2.244 10.979 0 1.347.43 2.474 1.283 3.384.859.913 1.865 1.367 3.014 1.367 2.771 0 5.234-2.188 7.402-6.563 2.172-4.379 3.252-8.73 3.252-13.068 0-1.972-.406-3.581-1.229-4.829-.572-.85-1.357-1.273-2.353-1.273z"/></g></g></svg>