<svg xmlns="http://www.w3.org/2000/svg" width="835.816" height="283.464" viewBox="0 0 835.816 283.464"><g fill="#61853F"><path d="M412.811 120.604l36.361 11.533c-5.571 20.271-14.842 35.32-27.806 45.165-12.966 9.836-29.415 14.759-49.343 14.759-24.665 0-44.935-8.431-60.813-25.276-15.879-16.853-23.816-39.882-23.816-69.105 0-30.917 7.983-54.924 23.946-72.021C327.303 8.553 348.287 0 374.3 0c22.719 0 41.173 6.718 55.367 20.147 8.438 7.941 14.774 19.336 19.002 34.203l-37.124 8.866c-2.197-9.622-6.775-17.227-13.743-22.798-6.971-5.572-15.438-8.362-25.402-8.362-13.769 0-24.936 4.937-33.507 14.82-8.576 9.883-12.86 25.887-12.86 48.015 0 23.479 4.223 40.206 12.669 50.165 8.445 9.966 19.424 14.949 32.938 14.949 9.967 0 18.538-3.164 25.719-9.499 7.174-6.337 12.325-16.297 15.452-29.902zM481.228 3.172h68.536c15.455 0 27.232 1.185 35.342 3.546 10.9 3.21 20.224 8.912 27.997 17.105 7.773 8.186 13.682 18.222 17.74 30.083 4.051 11.871 6.075 26.5 6.075 43.895 0 15.286-1.895 28.467-5.701 39.526-4.639 13.514-11.274 24.45-19.888 32.813-6.504 6.336-15.286 11.273-26.346 14.82-8.284 2.621-19.345 3.928-33.193 3.928h-70.563V3.172zm37.497 31.412v123.014h27.998c10.47 0 18.03-.589 22.677-1.773 6.076-1.521 11.128-4.097 15.142-7.728 4.004-3.631 7.283-9.607 9.813-17.924 2.538-8.323 3.799-19.654 3.799-34.015s-1.261-25.383-3.799-33.064c-2.529-7.69-6.084-13.682-10.639-17.993-4.563-4.302-10.349-7.222-17.357-8.745-5.236-1.176-15.501-1.773-30.787-1.773h-16.847zM668.845 188.888V3.172h78.923c19.849 0 34.272 1.666 43.268 5.006 8.988 3.332 16.188 9.263 21.599 17.793 5.405 8.538 8.104 18.29 8.104 29.266 0 13.933-4.098 25.444-12.283 34.523-8.194 9.081-20.446 14.798-36.741 17.167 8.11 4.731 14.797 9.922 20.078 15.58 5.273 5.657 12.397 15.707 21.349 30.153l22.677 36.228h-44.85l-27.11-40.408c-9.624-14.446-16.211-23.541-19.758-27.302-3.555-3.758-7.308-6.333-11.282-7.73-3.966-1.393-10.257-2.087-18.87-2.087h-7.604v77.527h-37.5zm37.497-107.176h27.744c17.991 0 29.221-.757 33.699-2.277 4.478-1.521 7.979-4.135 10.516-7.856 2.531-3.716 3.799-8.363 3.799-13.935 0-6.251-1.666-11.296-5.006-15.141-3.332-3.836-8.041-6.267-14.125-7.284-3.041-.42-12.159-.635-27.362-.635h-29.265v47.128z"/></g><g fill="#61853F"><path d="M550.688 228.197l3.149.795c-.657 2.591-1.851 4.563-3.562 5.924-1.721 1.354-3.814 2.032-6.298 2.032-2.562 0-4.651-.519-6.26-1.566-1.605-1.039-2.828-2.552-3.669-4.539-.842-1.98-1.262-4.104-1.262-6.383 0-2.477.475-4.639 1.422-6.488.947-1.842 2.297-3.248 4.043-4.204 1.751-.955 3.676-1.437 5.778-1.437 2.382 0 4.384.604 6.008 1.819 1.624 1.215 2.755 2.92 3.394 5.112l-3.104.734c-.55-1.735-1.352-2.997-2.399-3.783-1.055-.796-2.373-1.185-3.967-1.185-1.827 0-3.354.435-4.585 1.313s-2.096 2.057-2.593 3.531a14.282 14.282 0 0 0-.749 4.57c0 2.025.299 3.792.888 5.306.589 1.513 1.505 2.637 2.751 3.386s2.595 1.123 4.043 1.123c1.766 0 3.265-.512 4.486-1.529 1.226-1.015 2.052-2.528 2.486-4.531zM558.05 236.543v-23.809h2.92v8.545c1.367-1.582 3.087-2.369 5.166-2.369 1.276 0 2.384.244 3.328.75.944.503 1.617 1.199 2.021 2.087.406.894.611 2.178.611 3.867v10.929h-2.927v-10.929c0-1.461-.313-2.522-.947-3.188-.635-.672-1.529-1.001-2.691-1.001-.863 0-1.681.222-2.441.674-.765.45-1.312 1.062-1.632 1.826-.328.771-.488 1.834-.488 3.188v9.431h-2.92zM577.26 216.098v-3.363h2.924v3.363h-2.924zm0 20.445V219.3h2.924v17.243h-2.924zM585.267 236.543v-23.809h2.927v23.809h-2.927zM604.61 236.543v-2.171c-1.092 1.705-2.698 2.562-4.822 2.562a6.769 6.769 0 0 1-3.791-1.131c-1.153-.765-2.048-1.819-2.683-3.18-.631-1.361-.947-2.92-.947-4.687 0-1.719.286-3.286.863-4.685.573-1.406 1.429-2.477 2.58-3.226 1.149-.749 2.43-1.116 3.848-1.116 1.039 0 1.964.214 2.778.657a5.797 5.797 0 0 1 1.982 1.712v-8.545h2.905v23.809h-2.713zm-9.239-8.606c0 2.21.466 3.86 1.397 4.953.934 1.094 2.03 1.644 3.295 1.644 1.279 0 2.365-.527 3.257-1.567.894-1.046 1.345-2.644 1.345-4.783 0-2.362-.459-4.098-1.369-5.198-.909-1.107-2.028-1.659-3.361-1.659-1.301 0-2.386.536-3.257 1.591-.872 1.06-1.307 2.734-1.307 5.019zM622.933 236.543v-23.809h8.2c1.856 0 3.268.114 4.242.345 1.364.313 2.529.879 3.492 1.705 1.254 1.062 2.194 2.415 2.816 4.065.624 1.651.937 3.539.937 5.664 0 1.804-.214 3.408-.634 4.807-.421 1.392-.964 2.554-1.628 3.463-.657.917-1.38 1.635-2.164 2.162-.786.527-1.733.926-2.843 1.193-1.112.274-2.385.404-3.828.404h-8.59zm3.152-2.805h5.087c1.566 0 2.797-.145 3.691-.442.895-.29 1.604-.703 2.136-1.23.745-.749 1.329-1.75 1.747-3.012.415-1.261.626-2.797.626-4.594 0-2.492-.413-4.401-1.23-5.739s-1.811-2.232-2.981-2.69c-.84-.322-2.2-.482-4.073-.482h-5.002v18.189zM659.092 230.996l3.019.366c-.474 1.766-1.36 3.141-2.645 4.111-1.292.979-2.935 1.461-4.938 1.461-2.526 0-4.524-.772-6.003-2.331-1.479-1.553-2.221-3.73-2.221-6.536 0-2.904.749-5.15 2.247-6.756 1.49-1.604 3.432-2.4 5.81-2.4 2.307 0 4.194.78 5.655 2.354 1.459 1.567 2.193 3.777 2.193 6.627 0 .169-.007.429-.016.78h-12.862c.105 1.896.642 3.34 1.604 4.349.963 1.01 2.164 1.514 3.608 1.514 1.069 0 1.987-.282 2.744-.849.757-.559 1.361-1.46 1.805-2.69zm-9.6-4.733h9.63c-.13-1.452-.496-2.536-1.104-3.263-.93-1.123-2.136-1.689-3.619-1.689-1.345 0-2.477.451-3.39 1.345-.913.902-1.418 2.102-1.517 3.607zM677.737 234.418c-1.081.917-2.125 1.567-3.127 1.949a9.105 9.105 0 0 1-3.221.566c-1.896 0-3.355-.459-4.372-1.384-1.016-.934-1.529-2.109-1.529-3.555 0-.84.195-1.612.582-2.315a4.754 4.754 0 0 1 1.505-1.673 6.987 6.987 0 0 1 2.105-.964c.573-.152 1.441-.298 2.599-.436 2.358-.283 4.101-.619 5.217-1.009.008-.397.015-.657.015-.765 0-1.192-.274-2.025-.832-2.516-.741-.664-1.854-.993-3.325-.993-1.375 0-2.393.246-3.05.728-.652.48-1.138 1.329-1.452 2.553l-2.858-.391c.26-1.223.688-2.209 1.283-2.958.598-.756 1.457-1.338 2.584-1.742 1.125-.406 2.431-.604 3.913-.604 1.477 0 2.668.169 3.593.521.918.344 1.593.778 2.025 1.306.436.521.738 1.187.91 1.988.099.497.145 1.398.145 2.698v3.897c0 2.714.065 4.433.191 5.151.123.727.367 1.414.738 2.071h-3.055c-.304-.601-.496-1.312-.584-2.123zm-.241-6.527c-1.062.429-2.655.795-4.777 1.101-1.199.176-2.052.367-2.553.589-.497.215-.879.527-1.153.947a2.502 2.502 0 0 0-.405 1.393c0 .778.298 1.429.886 1.949.589.519 1.453.778 2.591.778 1.125 0 2.126-.251 3.005-.741.879-.496 1.521-1.169 1.934-2.025.313-.657.474-1.635.474-2.92v-1.071zM692.064 233.929l.42 2.584c-.825.176-1.56.259-2.208.259-1.063 0-1.885-.167-2.47-.503-.584-.337-.993-.78-1.234-1.323-.24-.549-.355-1.696-.355-3.454v-9.92h-2.147V219.3h2.147v-4.271l2.904-1.758v6.029h2.943v2.271h-2.943v10.088c0 .833.055 1.368.153 1.605.106.237.275.429.504.565.237.145.566.215 1.002.215a9.31 9.31 0 0 0 1.284-.115zM695.618 236.543v-23.809h2.927v8.545c1.361-1.582 3.08-2.369 5.159-2.369 1.28 0 2.393.244 3.333.75.94.503 1.616 1.199 2.021 2.087.408.894.608 2.178.608 3.867v10.929h-2.92v-10.929c0-1.461-.321-2.522-.952-3.188-.635-.672-1.533-1.001-2.687-1.001-.868 0-1.682.222-2.445.674-.765.45-1.308 1.062-1.637 1.826-.321.771-.481 1.834-.481 3.188v9.431h-2.926zM725.182 236.543v-23.809h10.555c2.121 0 3.737.215 4.839.642 1.108.429 1.987 1.186 2.647 2.263.661 1.086.99 2.285.99 3.593 0 1.689-.547 3.111-1.639 4.273-1.094 1.153-2.782 1.895-5.068 2.208.834.397 1.468.795 1.899 1.185.921.849 1.793 1.903 2.615 3.164l4.142 6.481h-3.959l-3.157-4.952c-.917-1.431-1.673-2.522-2.27-3.278-.596-.758-1.132-1.292-1.601-1.591a4.614 4.614 0 0 0-1.437-.635c-.356-.075-.945-.114-1.756-.114h-3.653v10.57h-3.147zm3.148-13.298h6.771c1.441 0 2.568-.152 3.379-.451s1.431-.771 1.851-1.429a3.822 3.822 0 0 0 .635-2.133c0-1.123-.406-2.048-1.224-2.774-.817-.726-2.109-1.093-3.876-1.093h-7.536v7.88zM761.283 230.996l3.023.366c-.477 1.766-1.36 3.141-2.652 4.111-1.283.979-2.931 1.461-4.937 1.461-2.522 0-4.521-.772-6.001-2.331-1.475-1.553-2.217-3.73-2.217-6.536 0-2.904.749-5.15 2.241-6.756 1.497-1.604 3.435-2.4 5.815-2.4 2.308 0 4.188.78 5.656 2.354 1.459 1.567 2.19 3.777 2.19 6.627 0 .169-.005.429-.02.78h-12.863c.11 1.896.649 3.34 1.611 4.349.964 1.01 2.164 1.514 3.605 1.514 1.072 0 1.986-.282 2.747-.849.76-.559 1.361-1.46 1.802-2.69zm-9.595-4.733h9.63c-.13-1.452-.501-2.536-1.107-3.263-.93-1.123-2.138-1.689-3.623-1.689-1.338 0-2.47.451-3.386 1.345-.914.902-1.422 2.102-1.514 3.607zM773.467 236.543l-6.561-17.243h3.087l3.7 10.326a49.064 49.064 0 0 1 1.107 3.479c.261-.91.619-2.004 1.085-3.28l3.838-10.524h3.004l-6.532 17.243h-2.728zM786.021 216.098v-3.363h2.927v3.363h-2.927zm0 20.445V219.3h2.927v17.243h-2.927zM805.901 230.996l3.021.366c-.477 1.766-1.355 3.141-2.647 4.111-1.288.979-2.936 1.461-4.938 1.461-2.522 0-4.524-.772-6-2.331-1.479-1.553-2.216-3.73-2.216-6.536 0-2.904.748-5.15 2.239-6.756 1.498-1.604 3.432-2.4 5.816-2.4 2.308 0 4.188.78 5.648 2.354 1.467 1.567 2.193 3.777 2.193 6.627 0 .169-.004.429-.016.78h-12.862c.105 1.896.645 3.34 1.608 4.349.963 1.01 2.166 1.514 3.604 1.514 1.074 0 1.986-.282 2.744-.849.762-.559 1.363-1.46 1.806-2.69zm-9.599-4.733h9.633c-.13-1.452-.499-2.536-1.104-3.263-.933-1.123-2.14-1.689-3.623-1.689-1.342 0-2.469.451-3.386 1.345-.918.902-1.422 2.102-1.52 3.607zM816.479 236.543l-5.282-17.243h3.023l2.748 9.952 1.02 3.707c.042-.184.341-1.377.891-3.562l2.748-10.098h3.008l2.579 10.006.859 3.294.994-3.333 2.954-9.967h2.839l-5.388 17.243h-3.038l-2.748-10.325-.664-2.943-3.494 13.269h-3.049zM358.435 276.464v-23.809h8.201c1.854 0 3.266.107 4.24.336 1.365.313 2.528.888 3.491 1.705 1.257 1.062 2.195 2.422 2.818 4.073.623 1.65.935 3.531.935 5.656 0 1.811-.21 3.408-.635 4.807-.42 1.399-.962 2.554-1.624 3.47-.659.918-1.382 1.637-2.167 2.155-.785.527-1.733.926-2.843 1.2-1.11.268-2.384.406-3.825.406h-8.591zm3.15-2.812h5.085c1.568 0 2.801-.146 3.693-.437.894-.291 1.605-.703 2.136-1.238.747-.742 1.33-1.75 1.747-3.012.417-1.261.625-2.789.625-4.586 0-2.491-.409-4.402-1.227-5.739-.817-1.338-1.812-2.24-2.98-2.69-.845-.328-2.204-.488-4.076-.488h-5.003v18.19zM394.037 274.331c-1.083.926-2.125 1.575-3.126 1.949a8.947 8.947 0 0 1-3.225.573c-1.894 0-3.35-.466-4.368-1.391-1.019-.925-1.527-2.109-1.527-3.546 0-.849.193-1.62.577-2.316s.886-1.261 1.509-1.681a7.046 7.046 0 0 1 2.104-.956c.573-.153 1.441-.299 2.599-.443 2.359-.283 4.098-.611 5.212-1.002.012-.404.018-.657.018-.763 0-1.193-.277-2.034-.828-2.522-.749-.657-1.857-.986-3.331-.986-1.375 0-2.391.237-3.045.719-.656.48-1.139 1.338-1.455 2.56l-2.858-.39c.26-1.223.688-2.208 1.284-2.966.596-.749 1.456-1.329 2.583-1.735 1.125-.404 2.43-.611 3.914-.611 1.473 0 2.668.176 3.588.521.921.344 1.598.78 2.031 1.308.434.527.736 1.191.91 1.986.098.505.147 1.399.147 2.698v3.897c0 2.721.061 4.441.185 5.159.125.719.371 1.406.74 2.072h-3.054c-.303-.612-.498-1.316-.584-2.134zm-.245-6.526c-1.061.435-2.652.802-4.772 1.107-1.204.167-2.052.367-2.551.58a2.537 2.537 0 0 0-1.152.949c-.271.42-.407.886-.407 1.391 0 .779.294 1.429.885 1.949.59.519 1.454.779 2.591.779 1.125 0 2.129-.245 3.003-.742.879-.488 1.523-1.162 1.934-2.018.314-.665.47-1.636.47-2.927v-1.068zM408.362 273.85l.422 2.583c-.824.168-1.559.26-2.209.26-1.06 0-1.884-.167-2.469-.504-.584-.336-.995-.779-1.234-1.331-.239-.542-.357-1.696-.357-3.447v-9.92h-2.144v-2.277h2.144v-4.272l2.907-1.751v6.023h2.94v2.277h-2.94v10.082c0 .833.052 1.367.155 1.611.104.237.271.422.504.566.233.139.566.214.999.214.325 0 .751-.038 1.282-.114zM423.175 274.331c-1.081.926-2.125 1.575-3.127 1.949a8.933 8.933 0 0 1-3.221.573c-1.898 0-3.354-.466-4.373-1.391-1.018-.925-1.527-2.109-1.527-3.546 0-.849.193-1.62.578-2.316a4.765 4.765 0 0 1 1.51-1.681 7.046 7.046 0 0 1 2.104-.956c.573-.153 1.44-.299 2.598-.443 2.358-.283 4.101-.611 5.217-1.002.008-.404.015-.657.015-.763 0-1.193-.274-2.034-.832-2.522-.741-.657-1.854-.986-3.325-.986-1.375 0-2.392.237-3.049.719-.654.48-1.137 1.338-1.45 2.56l-2.858-.39c.259-1.223.686-2.208 1.282-2.966.596-.749 1.456-1.329 2.581-1.735 1.126-.404 2.433-.611 3.915-.611 1.475 0 2.668.176 3.593.521.916.344 1.593.78 2.025 1.308.436.527.738 1.191.91 1.986.099.505.145 1.399.145 2.698v3.897c0 2.721.064 4.441.191 5.159a6.46 6.46 0 0 0 .738 2.072h-3.055c-.306-.612-.497-1.316-.585-2.134zm-.241-6.526c-1.062.435-2.656.802-4.777 1.107-1.2.167-2.052.367-2.553.58-.497.215-.88.536-1.152.949-.27.42-.405.886-.405 1.391 0 .779.294 1.429.885 1.949.589.519 1.452.779 2.59.779 1.125 0 2.125-.245 3.004-.742.879-.488 1.522-1.162 1.935-2.018.313-.665.474-1.636.474-2.927v-1.068zM433.81 276.464h-2.709v-23.809h2.924v8.491c1.233-1.551 2.813-2.324 4.723-2.324 1.063 0 2.067.215 3.016.643a6.167 6.167 0 0 1 2.338 1.804c.611.772 1.09 1.704 1.441 2.798a11.62 11.62 0 0 1 .52 3.508c0 2.957-.734 5.244-2.193 6.855-1.464 1.612-3.217 2.423-5.267 2.423-2.032 0-3.63-.848-4.792-2.553v2.164zm-.032-8.759c0 2.071.283 3.562.849 4.486.918 1.507 2.164 2.255 3.73 2.255 1.28 0 2.384-.55 3.317-1.666.932-1.107 1.398-2.76 1.398-4.96 0-2.247-.451-3.914-1.346-4.984-.89-1.07-1.971-1.604-3.24-1.604-1.276 0-2.377.55-3.31 1.659-.93 1.115-1.398 2.719-1.398 4.814zM461.569 274.331c-1.081.926-2.125 1.575-3.125 1.949a8.953 8.953 0 0 1-3.226.573c-1.892 0-3.349-.466-4.365-1.391-1.021-.925-1.528-2.109-1.528-3.546 0-.849.191-1.62.576-2.316.387-.696.888-1.261 1.51-1.681a7.04 7.04 0 0 1 2.103-.956c.573-.153 1.444-.299 2.599-.443 2.362-.283 4.101-.611 5.213-1.002.015-.404.02-.657.02-.763 0-1.193-.279-2.034-.83-2.522-.748-.657-1.857-.986-3.328-.986-1.377 0-2.39.237-3.047.719-.656.48-1.138 1.338-1.452 2.56l-2.858-.39c.261-1.223.688-2.208 1.285-2.966.596-.749 1.452-1.329 2.584-1.735 1.123-.404 2.43-.611 3.913-.611 1.471 0 2.667.176 3.584.521.925.344 1.598.78 2.032 1.308.437.527.734 1.191.91 1.986.101.505.145 1.399.145 2.698v3.897c0 2.721.062 4.441.188 5.159.126.719.37 1.406.736 2.072h-3.049c-.306-.612-.502-1.316-.59-2.134zm-.244-6.526c-1.06.435-2.652.802-4.769 1.107-1.208.167-2.057.367-2.554.58a2.57 2.57 0 0 0-1.154.949 2.55 2.55 0 0 0-.405 1.391c0 .779.295 1.429.888 1.949.587.519 1.451.779 2.591.779 1.123 0 2.124-.245 3.004-.742.879-.488 1.521-1.162 1.934-2.018.313-.665.466-1.636.466-2.927v-1.068zM468.342 271.312l2.896-.45c.16 1.153.611 2.041 1.354 2.66.74.618 1.78.924 3.109.924 1.347 0 2.34-.275 2.99-.818.648-.549.974-1.191.974-1.925 0-.658-.286-1.178-.859-1.56-.402-.26-1.399-.589-2.988-.986-2.148-.543-3.632-1.016-4.46-1.406-.83-.397-1.457-.947-1.885-1.644a4.33 4.33 0 0 1-.643-2.315c0-.765.176-1.475.527-2.132s.833-1.2 1.438-1.637c.459-.336 1.078-.618 1.861-.849a8.728 8.728 0 0 1 2.526-.352c1.353 0 2.54.2 3.565.589 1.02.39 1.776.917 2.266 1.582.49.666.822 1.552 1.009 2.668l-2.858.391c-.13-.888-.508-1.584-1.132-2.08-.622-.497-1.505-.741-2.637-.741-1.345 0-2.305.222-2.876.666-.574.441-.861.962-.861 1.558 0 .376.119.719.36 1.024.237.313.61.573 1.116.779.294.107 1.153.352 2.582.742 2.071.559 3.513 1.009 4.33 1.36s1.457.864 1.923 1.536c.466.666.703 1.498.703 2.5 0 .97-.288 1.888-.856 2.751-.565.864-1.392 1.529-2.461 1.995-1.07.473-2.285.71-3.639.71-2.239 0-3.947-.466-5.12-1.397-1.177-.933-1.926-2.308-2.254-4.143zM498.654 270.908l3.02.374c-.475 1.766-1.361 3.135-2.646 4.112-1.292.971-2.935 1.459-4.937 1.459-2.527 0-4.524-.779-6.005-2.331-1.479-1.551-2.22-3.737-2.22-6.534 0-2.905.749-5.159 2.248-6.757 1.489-1.605 3.432-2.408 5.808-2.408 2.309 0 4.196.789 5.657 2.355 1.459 1.573 2.192 3.783 2.192 6.627 0 .176-.008.435-.015.778h-12.864c.107 1.896.643 3.348 1.605 4.356.963 1.002 2.162 1.506 3.607 1.506 1.07 0 1.987-.282 2.744-.84.759-.565 1.363-1.46 1.806-2.697zm-9.599-4.724h9.631c-.131-1.453-.498-2.545-1.105-3.264-.929-1.131-2.136-1.689-3.618-1.689-1.345 0-2.477.443-3.391 1.345-.914.894-1.418 2.102-1.517 3.608zM516.355 276.464v-23.809h8.202c1.849 0 3.263.107 4.241.336 1.36.313 2.526.888 3.493 1.705 1.253 1.062 2.193 2.422 2.813 4.073.626 1.65.936 3.531.936 5.656 0 1.811-.209 3.408-.63 4.807-.429 1.399-.967 2.554-1.628 3.47-.657.918-1.383 1.637-2.167 2.155-.782.527-1.731.926-2.843 1.2-1.112.268-2.385.406-3.826.406h-8.591zm3.149-2.812h5.084c1.574 0 2.805-.146 3.698-.437.895-.291 1.606-.703 2.134-1.238.749-.742 1.329-1.75 1.749-3.012.413-1.261.624-2.789.624-4.586 0-2.491-.409-4.402-1.228-5.739-.818-1.338-1.812-2.24-2.98-2.69-.841-.328-2.201-.488-4.073-.488h-5.008v18.19zM552.513 270.908l3.021.374c-.478 1.766-1.36 3.135-2.652 4.112-1.283.971-2.931 1.459-4.938 1.459-2.521 0-4.52-.779-6-2.331-1.475-1.551-2.215-3.737-2.215-6.534 0-2.905.749-5.159 2.238-6.757 1.499-1.605 3.436-2.408 5.816-2.408 2.309 0 4.188.789 5.656 2.355 1.46 1.573 2.189 3.783 2.189 6.627 0 .176-.004.435-.02.778h-12.862c.11 1.896.648 3.348 1.612 4.356.963 1.002 2.163 1.506 3.604 1.506 1.074 0 1.987-.282 2.747-.84.76-.565 1.359-1.46 1.804-2.697zm-9.598-4.724h9.631c-.13-1.453-.501-2.545-1.107-3.264-.93-1.131-2.137-1.689-3.623-1.689-1.338 0-2.47.443-3.387 1.345-.913.894-1.421 2.102-1.514 3.608zM564.691 276.464l-6.559-17.251h3.085l3.702 10.334c.402 1.107.769 2.27 1.105 3.47.259-.91.622-2.002 1.088-3.278l3.829-10.525h3.008l-6.53 17.251h-2.728zM589.043 270.908l3.019.374c-.475 1.766-1.361 3.135-2.645 4.112-1.292.971-2.936 1.459-4.938 1.459-2.526 0-4.525-.779-6.005-2.331-1.479-1.551-2.22-3.737-2.22-6.534 0-2.905.75-5.159 2.248-6.757 1.49-1.605 3.431-2.408 5.808-2.408 2.309 0 4.196.789 5.655 2.355 1.461 1.573 2.195 3.783 2.195 6.627 0 .176-.009.435-.016.778H579.28c.107 1.896.644 3.348 1.605 4.356.963 1.002 2.163 1.506 3.608 1.506 1.069 0 1.986-.282 2.744-.84.758-.565 1.362-1.46 1.806-2.697zm-9.602-4.724h9.631c-.13-1.453-.497-2.545-1.104-3.264-.93-1.131-2.138-1.689-3.619-1.689-1.347 0-2.477.443-3.39 1.345-.913.894-1.417 2.102-1.518 3.608zM596.364 276.464v-23.809h2.927v23.809h-2.927zM603.435 267.834c0-3.195.886-5.556 2.659-7.093 1.482-1.276 3.295-1.919 5.427-1.919 2.369 0 4.311.78 5.816 2.332 1.507 1.551 2.254 3.699 2.254 6.443 0 2.216-.332 3.959-.997 5.234-.668 1.27-1.635 2.263-2.907 2.966s-2.661 1.055-4.166 1.055c-2.415 0-4.364-.779-5.855-2.322-1.491-1.551-2.231-3.783-2.231-6.696zm3.003 0c0 2.209.481 3.868 1.443 4.969.964 1.093 2.18 1.643 3.639 1.643 1.452 0 2.66-.55 3.623-1.65.963-1.108 1.444-2.791 1.444-5.052 0-2.134-.486-3.753-1.453-4.854-.969-1.094-2.173-1.644-3.614-1.644-1.459 0-2.675.543-3.639 1.635-.961 1.094-1.443 2.744-1.443 4.953zM623.719 283.076v-23.862h2.668v2.239c.626-.872 1.334-1.536 2.125-1.973.791-.435 1.75-.657 2.873-.657 1.475 0 2.775.383 3.898 1.141 1.127.756 1.979 1.826 2.553 3.201.573 1.384.855 2.896.855 4.54 0 1.766-.313 3.354-.947 4.77s-1.552 2.499-2.76 3.248c-1.207.757-2.477 1.131-3.81 1.131-.974 0-1.851-.206-2.626-.619a5.966 5.966 0 0 1-1.902-1.559v8.4h-2.927zm2.648-15.142c0 2.225.447 3.859 1.349 4.922.898 1.063 1.988 1.59 3.265 1.59 1.299 0 2.411-.55 3.34-1.643.925-1.101 1.383-2.806 1.383-5.114 0-2.193-.451-3.844-1.352-4.938-.903-1.092-1.988-1.635-3.241-1.635-1.246 0-2.347.58-3.307 1.742-.958 1.163-1.437 2.859-1.437 5.076zM642.918 276.464v-17.251h2.615v2.422a6.09 6.09 0 0 1 2.162-2.039c.895-.514 1.918-.773 3.064-.773 1.281 0 2.327.269 3.146.796.817.534 1.394 1.276 1.729 2.224 1.362-2.011 3.138-3.02 5.328-3.02 1.709 0 3.027.475 3.944 1.422.921.949 1.384 2.408 1.384 4.379v11.841h-2.913v-10.869c0-1.169-.091-2.011-.282-2.522-.188-.52-.531-.932-1.032-1.246-.496-.313-1.081-.466-1.751-.466-1.215 0-2.224.397-3.021 1.208-.8.803-1.204 2.094-1.204 3.874v10.021h-2.92v-11.206c0-1.299-.241-2.276-.719-2.927-.474-.649-1.254-.971-2.338-.971-.821 0-1.583.215-2.278.65-.703.428-1.208 1.062-1.521 1.895-.313.834-.475 2.034-.475 3.607v8.951h-2.918zM683.134 270.908l3.022.374c-.479 1.766-1.361 3.135-2.653 4.112-1.283.971-2.931 1.459-4.938 1.459-2.521 0-4.52-.779-5.998-2.331-1.477-1.551-2.217-3.737-2.217-6.534 0-2.905.749-5.159 2.238-6.757 1.499-1.605 3.437-2.408 5.816-2.408 2.309 0 4.189.789 5.656 2.355 1.46 1.573 2.189 3.783 2.189 6.627 0 .176-.004.435-.02.778h-12.862c.11 1.896.65 3.348 1.612 4.356.963 1.002 2.163 1.506 3.604 1.506 1.074 0 1.987-.282 2.749-.84.758-.565 1.357-1.46 1.802-2.697zm-9.598-4.724h9.631c-.13-1.453-.5-2.545-1.107-3.264-.93-1.131-2.137-1.689-3.623-1.689-1.338 0-2.469.443-3.387 1.345-.913.894-1.421 2.102-1.514 3.608zM690.521 276.464v-17.251h2.628v2.453c1.27-1.895 3.101-2.844 5.497-2.844 1.039 0 1.993.185 2.865.559.872.375 1.521.863 1.957 1.476.432.603.734 1.321.91 2.154.105.543.16 1.491.16 2.845v10.608h-2.924V265.97c0-1.192-.11-2.079-.341-2.676-.229-.589-.635-1.055-1.211-1.406-.577-.352-1.257-.527-2.036-.527-1.246 0-2.324.391-3.226 1.185-.903.788-1.354 2.285-1.354 4.495v9.424h-2.925zM716.103 273.85l.424 2.583c-.822.168-1.56.26-2.21.26-1.058 0-1.884-.167-2.468-.504-.585-.336-.998-.779-1.234-1.331-.237-.542-.359-1.696-.359-3.447v-9.92h-2.14v-2.277h2.14v-4.272l2.912-1.751v6.023h2.936v2.277h-2.936v10.082c0 .833.046 1.367.152 1.611.1.237.268.422.505.566.229.139.564.214.993.214.328 0 .757-.038 1.285-.114zM729.974 276.464v-23.809h8.981c1.582 0 2.789.068 3.623.222 1.169.198 2.147.564 2.934 1.116.796.542 1.431 1.313 1.911 2.3.481.979.726 2.063.726 3.248 0 2.019-.648 3.737-1.934 5.137-1.292 1.406-3.618 2.102-6.985 2.102h-6.105v9.685h-3.151zm3.15-12.489h6.152c2.041 0 3.484-.382 4.341-1.14.855-.756 1.284-1.826 1.284-3.202 0-.993-.253-1.85-.757-2.553a3.545 3.545 0 0 0-1.992-1.406c-.53-.145-1.509-.213-2.938-.213h-6.091v8.514zM752.453 276.464v-17.251h2.629v2.613c.673-1.222 1.291-2.025 1.861-2.415a3.261 3.261 0 0 1 1.877-.589c.984 0 1.986.314 3.003.94l-1.01 2.714c-.71-.42-1.429-.635-2.14-.635-.643 0-1.216.191-1.724.582-.508.382-.872.916-1.089 1.597-.321 1.04-.488 2.178-.488 3.408v9.035h-2.919zM763.168 267.834c0-3.195.891-5.556 2.668-7.093 1.482-1.276 3.289-1.919 5.423-1.919 2.373 0 4.307.78 5.812 2.332 1.507 1.551 2.263 3.699 2.263 6.443 0 2.216-.336 3.959-1.001 5.234a7.076 7.076 0 0 1-2.908 2.966c-1.271.703-2.66 1.055-4.165 1.055-2.415 0-4.368-.779-5.855-2.322-1.487-1.551-2.237-3.783-2.237-6.696zm3.004 0c0 2.209.485 3.868 1.448 4.969.963 1.093 2.175 1.643 3.639 1.643 1.448 0 2.656-.55 3.618-1.65.967-1.108 1.448-2.791 1.448-5.052 0-2.134-.485-3.753-1.455-4.854-.967-1.094-2.171-1.644-3.611-1.644-1.464 0-2.676.543-3.639 1.635-.963 1.094-1.448 2.744-1.448 4.953zM779.738 283.152l.551-2.484c.589.153 1.048.229 1.384.229.596 0 1.039-.198 1.329-.596.291-.389.439-1.384.439-2.957v-18.13h2.923v18.191c0 2.124-.274 3.599-.824 4.432-.707 1.086-1.876 1.628-3.509 1.628a8.446 8.446 0 0 1-2.293-.313zm3.703-27.104v-3.393h2.923v3.393h-2.923zM803.355 270.908l3.019.374c-.473 1.766-1.36 3.135-2.644 4.112-1.292.971-2.936 1.459-4.938 1.459-2.526 0-4.525-.779-6.004-2.331-1.479-1.551-2.22-3.737-2.22-6.534 0-2.905.749-5.159 2.246-6.757 1.491-1.605 3.432-2.408 5.81-2.408 2.309 0 4.196.789 5.655 2.355 1.461 1.573 2.194 3.783 2.194 6.627 0 .176-.008.435-.015.778h-12.864c.107 1.896.642 3.348 1.605 4.356.963 1.002 2.162 1.506 3.607 1.506 1.07 0 1.986-.282 2.743-.84.76-.565 1.364-1.46 1.806-2.697zm-9.599-4.724h9.63c-.13-1.453-.496-2.545-1.104-3.264-.929-1.131-2.137-1.689-3.62-1.689-1.345 0-2.477.443-3.389 1.345-.914.894-1.419 2.102-1.517 3.608zM822.001 270.143l2.878.374c-.316 1.979-1.123 3.532-2.415 4.655-1.292 1.116-2.882 1.681-4.77 1.681-2.357 0-4.257-.771-5.69-2.315-1.433-1.543-2.151-3.753-2.151-6.634 0-1.865.306-3.493.925-4.893.619-1.391 1.56-2.445 2.821-3.141a8.378 8.378 0 0 1 4.115-1.048c1.872 0 3.405.475 4.597 1.422 1.192.949 1.953 2.294 2.289 4.036l-2.839.436c-.274-1.154-.753-2.026-1.441-2.613-.688-.582-1.516-.872-2.495-.872-1.468 0-2.668.527-3.584 1.582-.925 1.055-1.384 2.721-1.384 5.007 0 2.316.443 4.004 1.329 5.052.892 1.055 2.05 1.574 3.478 1.574 1.147 0 2.109-.352 2.874-1.055.773-.703 1.256-1.789 1.463-3.248zM834.456 273.85l.424 2.583c-.821.168-1.56.26-2.209.26-1.058 0-1.884-.167-2.469-.504-.584-.336-.997-.779-1.234-1.331-.237-.542-.358-1.696-.358-3.447v-9.92h-2.14v-2.277h2.14v-4.272l2.911-1.751v6.023h2.936v2.277h-2.936v10.082c0 .833.047 1.367.154 1.611.099.237.266.422.503.566.229.139.566.214.993.214.33 0 .758-.038 1.285-.114z"/></g><path fill="#A5BA84" d="M68.945 68.944h68.945V0H0v137.894h68.945z"/><path fill="#61853F" d="M81.027 81.033h113.727V194.76H81.027z"/><path fill="#A5BA84" d="M206.835 137.894v68.945h-74.952v68.945h137.889v-137.89z"/></svg>