<svg xmlns="http://www.w3.org/2000/svg" width="497.506" height="283.465" viewBox="0 0 497.506 283.465"><path fill="#3272AF" d="M0 0h497.506v283.465H0z"/><g fill="#FFF"><path d="M103.524 237.413c-3.957 1.921-11.646 3.843-21.481 3.843-22.159 0-40.023-14.357-40.023-43.527 0-27.812 17.298-45.11 42.51-45.11 10.288 0 16.282 2.148 18.995 3.506l-2.487 7.914c-3.958-1.924-9.497-3.506-16.28-3.506-19.559 0-32.9 13.115-32.9 36.856 0 22.611 12.209 35.953 32.334 35.953 6.558 0 13.002-1.469 17.298-3.504l2.034 7.575zM170.68 202.477c0-20.917-13.002-25.55-20.578-25.55-7.573 0-15.036 4.183-19.105 10.967h-.227v-38.329h-9.384v90.447h9.384v-37.874c0-11.307 9.045-17.297 16.282-17.297 10.626 0 14.244 8.703 14.244 18.768v36.403h9.384v-37.535zM217.71 176.927c-15.714 0-28.83 11.645-28.83 32.673 0 19.897 12.209 31.77 28.037 31.77 13.684 0 28.83-9.724 28.83-32.675 0-18.882-11.19-31.768-28.037-31.768zm-.565 57.093c-11.079 0-18.654-11.079-18.654-24.759 0-11.872 5.54-24.986 18.882-24.986 13.452 0 18.766 13.791 18.766 24.759-.001 13.906-7.8 24.986-18.994 24.986zM264.518 178.396h9.383v61.616h-9.383zM336.983 230.516c-3.051 1.357-7.236 3.053-13.339 3.053-12.438 0-21.37-9.383-21.37-24.308 0-13.228 7.464-24.647 21.709-24.647 5.991 0 10.061 1.696 12.662 3.167l2.373-7.577c-2.373-1.242-7.914-3.276-14.81-3.276-18.995 0-31.543 13.904-31.543 32.899 0 18.882 11.646 31.43 29.281 31.43 7.916 0 14.019-2.148 16.732-3.504l-1.695-7.237zM393.965 203.27h-32.673c.903-8.48 5.88-19.221 17.184-19.221 12.097 0 15.602 10.852 15.489 19.221m9.271 1.807c0-10.74-4.863-28.15-23.855-28.15-16.62 0-27.474 13.906-27.474 33.238 0 18.429 10.74 31.093 28.717 31.093 9.383 0 15.828-2.15 19.336-3.847l-1.812-6.782c-3.843 1.582-8.48 3.165-16.167 3.165-11.079 0-20.801-6.443-20.916-23.518h41.943a60.97 60.97 0 0 0 .228-5.199M453.319 180.657c-3.28-2.035-8.253-3.73-14.134-3.73-12.437 0-20.123 7.914-20.123 17.523 0 7.462 5.315 13.228 15.717 17.411 8.137 3.278 11.418 6.445 11.418 12.209 0 5.54-4.07 9.949-12.325 9.949-5.313 0-10.626-2.261-13.906-4.182l-2.6 7.234c4.184 2.487 10.064 4.184 16.167 4.184 13.457 0 21.821-7.236 21.821-18.202 0-9.271-5.766-14.471-15.715-18.543-7.914-3.392-11.42-5.879-11.42-11.19 0-4.977 3.618-9.159 10.401-9.159 5.541 0 9.725 2.148 11.984 3.619l2.715-7.123zM455.354 89.676c0-10.551-4.316-23.884-19.569-23.884-12.565 0-22.64 9.975-22.64 27.818 0 14.963 9.02 25.801 23.407 25.801 9.306 0 14.485-2.589 15.924-3.452l-1.149-2.591c-2.782 1.344-6.619 3.263-14.294 3.263-12.95 0-20.527-9.209-20.432-25.325h38.657c.096-.48.096-.958.096-1.63zm-38.369-1.343c.959-8.536 6.428-19.856 18.418-19.856 13.813 0 16.306 14.101 16.21 19.856h-34.628zM401.444 113.273c-2.78 1.248-6.714 3.358-13.235 3.358-12.472 0-21.393-9.688-21.393-23.79 0-12.661 7.864-24.267 22.445-24.267 5.756 0 9.785 2.013 12.183 3.452l1.535-2.493c-3.069-2.494-9.306-3.741-13.62-3.741-14.774 0-25.996 10.838-25.996 27.434 0 15.252 9.688 26.186 24.268 26.186 7.676 0 13.047-2.589 15.157-3.643l-1.344-2.496zM348.397 106.176V85.839c0-8.729-2.397-20.047-16.88-20.047-3.935 0-9.499 1.15-14.294 4.508l1.343 2.493c3.739-2.685 8.347-4.124 12.662-4.124 13.813 0 13.813 12.564 13.813 18.415-21.298-.287-31.466 7.005-31.466 18.61 0 6.619 4.509 13.813 14.872 13.813 8.44 0 14.193-4.988 16.594-8.92h.19l.768 7.769h3.165c-.671-4.123-.767-8.152-.767-12.18zm-3.451-3.741c0 4.219-4.509 14.292-16.689 14.292-5.664 0-11.225-3.645-11.225-11.607 0-13.718 17.937-15.252 27.914-15.061v12.376zM294.97 42.098h3.356v76.261h-3.356zM257.175 65.792c-7.481 0-15.25 3.836-19.279 11.414h-.191l-.289-10.264h-3.454c.289 4.893.385 9.881.385 16.307v56.403h3.358v-30.311h.191c3.742 6.427 10.84 10.168 18.13 10.168 12.278 0 23.405-9.114 23.405-27.722 0-14.868-8.728-25.995-22.256-25.995zm-.958 50.935c-9.017 0-18.513-7.577-18.513-18.608V88.046c0-8.153 7.194-19.472 19.185-19.472 11.896 0 19.088 10.455 19.088 23.404 0 14.102-7.289 24.749-19.76 24.749zM220.628 87.181c0-19.758-13.14-21.389-17.745-21.389-4.317 0-12.757 1.726-17.841 10.838h-.191V42.098h-3.357v76.259h3.357V86.894c0-9.975 8.632-18.224 17.456-18.224 11.225 0 14.966 9.399 14.966 18.896v30.792h3.355V87.181zM149.166 66.942h-8.92v2.974h8.92v34.246c0 6.042.768 15.25 11.223 15.25 2.974 0 4.988-.574 6.62-1.246l-.767-2.495c-1.249.48-2.976.96-5.661.96-5.563 0-8.058-4.797-8.058-11.318V69.916h15.157v-2.974h-15.157V56.007l-3.357 1.534v9.401zM134.874 66.079c-.671-.191-1.246-.287-1.918-.287-7.291 0-12.566 5.563-14.677 11.894h-.288l-.191-10.744h-3.166c.288 4.989.384 10.456.384 15.157v36.258h3.357V89.58c0-11.511 5.946-20.719 14.293-20.719.864 0 1.344.096 2.206.191v-2.973zM96.506 66.942h3.357v51.417h-3.357zM101.589 52.17c0-2.11-1.343-3.836-3.357-3.836-2.014 0-3.453 1.822-3.453 3.836 0 2.013 1.343 3.837 3.357 3.837 2.015 0 3.453-1.535 3.453-3.837M65.426 79.797v-.385c7.098-2.397 12.565-8.631 12.565-16.115 0-8.729-4.22-17.937-22.445-17.937-4.99 0-9.593.669-13.526 1.63v71.271c2.686.191 6.619.576 11.705.576 9.687 0 17.361-1.919 22.06-7.003 2.687-2.78 5.086-7.097 5.086-13.524 0-12.279-9.786-17.268-15.445-18.513zm-20.049-30.6c1.727-.385 4.508-.961 9.499-.961 11.318 0 19.567 4.125 19.567 14.963v.098c0 8.347-6.906 15.061-17.648 15.061H45.377V49.197zm9.306 66.858c-3.934 0-6.812-.095-9.306-.767v-34.15h9.69c11.415 0 22.253 4.988 22.253 17.46 0 13.045-11.031 17.457-22.637 17.457zM274.992 140.941v29.338l14.669-14.668zM263.421 140.945l-14.668 14.666 14.668 14.666z"/></g></svg>