<svg xmlns="http://www.w3.org/2000/svg" width="923.982" height="212.6" viewBox="0 0 923.982 212.6"><path fill="#4E3E7F" d="M923.983 156.739c0 30.073-24.381 54.451-54.451 54.451H288.415c-30.073 0-54.455-24.378-54.455-54.451V55.853c0-30.072 24.379-54.451 54.455-54.451h581.117c30.074 0 54.451 24.378 54.451 54.451v100.886z"/><g fill="#FFF"><path d="M290.543 45.521h8.948l17.832 46.358h-9.172l-3.627-9.548h-18.915l-3.771 9.548h-9.169l17.874-46.358zm4.53 12.29l-6.218 15.916h12.403l-6.185-15.916zM324.491 57.591h8.604v3.515c1.95-1.645 3.719-2.791 5.302-3.433a12.796 12.796 0 0 1 4.861-.962c3.399 0 6.285 1.188 8.655 3.561 1.994 2.019 2.989 5.003 2.989 8.952v22.66h-8.507V76.867c0-4.094-.187-6.81-.551-8.153-.364-1.343-1.006-2.365-1.917-3.069-.914-.702-2.038-1.055-3.381-1.055-1.74 0-3.233.582-4.479 1.748-1.248 1.164-2.113 2.773-2.596 4.833-.251 1.068-.375 3.389-.375 6.955v13.756h-8.604l-.001-34.291zM389.822 57.591h8.604V91.88h-8.604v-3.625c-1.68 1.596-3.364 2.748-5.051 3.452-1.69.705-3.521 1.058-5.493 1.058-4.428 0-8.259-1.716-11.489-5.152-3.232-3.437-4.848-7.708-4.848-12.81 0-5.294 1.561-9.633 4.689-13.018 3.127-3.386 6.924-5.075 11.395-5.075 2.058 0 3.985.388 5.791 1.164 1.805.778 3.474 1.942 5.004 3.5l.002-3.783zm-9.045 7.058c-2.659 0-4.867.94-6.626 2.822-1.76 1.881-2.64 4.292-2.64 7.23 0 2.963.895 5.398 2.687 7.313 1.789 1.907 3.992 2.869 6.609 2.869 2.703 0 4.942-.939 6.723-2.819 1.78-1.879 2.67-4.346 2.67-7.391 0-2.983-.892-5.399-2.67-7.25-1.779-1.847-4.028-2.774-6.753-2.774zM407.471 44.354h8.604V91.88h-8.604V44.354zM421.376 57.591h8.793l8.906 21.517 9.829-21.517h8.816l-21.474 46.832h-8.886l7.05-15.101-13.034-31.731zM484.901 62.383l-5.33 5.327c-2.164-2.143-4.129-3.215-5.893-3.215-.967 0-1.723.207-2.27.613-.541.412-.816.921-.816 1.528 0 .462.176.885.52 1.276.35.393 1.203.92 2.568 1.591l3.148 1.577c3.322 1.642 5.598 3.311 6.844 5.011 1.238 1.704 1.854 3.698 1.854 5.987 0 3.045-1.121 5.589-3.354 7.625-2.234 2.037-5.24 3.057-8.998 3.057-5.002 0-8.996-1.955-11.978-5.86l5.294-5.766a12.256 12.256 0 0 0 3.545 2.851c1.355.727 2.557 1.089 3.607 1.089 1.133 0 2.049-.274 2.744-.821.693-.546 1.039-1.175 1.039-1.89 0-1.324-1.25-2.617-3.75-3.879l-2.902-1.448c-5.541-2.795-8.316-6.295-8.316-10.499 0-2.71 1.044-5.026 3.136-6.952 2.09-1.92 4.764-2.88 8.02-2.88 2.229 0 4.322.484 6.287 1.463 1.97.982 3.636 2.384 5.001 4.215zM496.952 43.472c1.51 0 2.805.547 3.885 1.64 1.078 1.094 1.619 2.418 1.619 3.974 0 1.532-.535 2.842-1.605 3.923-1.066 1.082-2.346 1.623-3.832 1.623-1.531 0-2.834-.548-3.912-1.65-1.076-1.104-1.621-2.439-1.621-4.02 0-1.515.535-2.807 1.604-3.877 1.067-1.077 2.356-1.613 3.862-1.613zm-4.301 14.119h8.6V91.88h-8.6V57.591zM531.349 62.383l-5.326 5.327c-2.166-2.143-4.127-3.215-5.895-3.215-.967 0-1.723.207-2.268.613-.549.412-.818.921-.818 1.528 0 .462.17.885.52 1.276.348.391 1.199.92 2.566 1.591l3.152 1.577c3.316 1.642 5.598 3.311 6.836 5.011 1.238 1.704 1.861 3.698 1.861 5.987 0 3.045-1.125 5.589-3.357 7.625-2.234 2.037-5.238 3.057-8.996 3.057-5.008 0-8.992-1.955-11.98-5.86l5.297-5.766a12.229 12.229 0 0 0 3.545 2.851c1.357.727 2.555 1.089 3.609 1.089 1.131 0 2.043-.274 2.738-.821.693-.546 1.039-1.175 1.039-1.89 0-1.324-1.252-2.617-3.746-3.879l-2.902-1.448c-5.541-2.795-8.318-6.295-8.318-10.499 0-2.71 1.047-5.026 3.137-6.952 2.096-1.92 4.766-2.88 8.021-2.88 2.23 0 4.32.484 6.287 1.463 1.968.982 3.63 2.384 4.998 4.215zM575.503 56.711c3.236 0 6.277.808 9.125 2.425 2.846 1.618 5.066 3.814 6.67 6.588a17.771 17.771 0 0 1 2.395 8.981c0 3.235-.807 6.262-2.414 9.08-1.605 2.814-3.799 5.015-6.57 6.602s-5.83 2.381-9.168 2.381c-4.922 0-9.117-1.751-12.594-5.248-3.475-3.499-5.215-7.748-5.215-12.751 0-5.354 1.965-9.821 5.896-13.394 3.437-3.11 7.396-4.664 11.875-4.664zm.141 8.097c-2.674 0-4.898.935-6.682 2.791-1.777 1.86-2.666 4.237-2.666 7.138 0 2.984.877 5.4 2.633 7.249 1.762 1.852 3.979 2.775 6.682 2.775 2.691 0 4.936-.937 6.721-2.804 1.789-1.869 2.689-4.278 2.689-7.219 0-2.938-.883-5.329-2.641-7.167-1.752-1.843-4-2.763-6.736-2.763zM597.911 57.591h3.055c.025-4.494.1-7.153.225-7.973.229-1.893 1.021-3.393 2.377-4.496 1.352-1.103 3.268-1.651 5.75-1.651 1.789 0 3.803.409 6.051 1.229v6.554c-1.242-.354-2.258-.534-3.055-.534-1.008 0-1.744.211-2.207.627-.34.315-.504.967-.504 1.956l-.033 4.287h5.453v7.279h-5.453v27.007h-8.604V64.87h-3.053v-7.279h-.002zM684.259 53.67l-6.17 5.883c-4.199-4.435-8.922-6.654-14.17-6.654-4.43 0-8.164 1.515-11.199 4.543-3.027 3.027-4.551 6.76-4.551 11.199 0 3.091.678 5.836 2.018 8.234 1.342 2.396 3.242 4.281 5.699 5.648 2.459 1.366 5.186 2.048 8.188 2.048 2.563 0 4.902-.479 7.021-1.436s4.447-2.698 6.99-5.222l5.98 6.241c-3.426 3.342-6.666 5.659-9.709 6.952-3.047 1.29-6.521 1.938-10.43 1.938-7.209 0-13.105-2.286-17.695-6.854-4.59-4.566-6.887-10.426-6.887-17.568 0-4.624 1.045-8.729 3.137-12.322 2.088-3.591 5.08-6.481 8.98-8.667s8.094-3.277 12.59-3.277c3.826 0 7.506.809 11.047 2.425 3.548 1.61 6.598 3.909 9.161 6.889zM708.431 56.711c3.234 0 6.275.808 9.121 2.425 2.848 1.618 5.068 3.814 6.67 6.588a17.711 17.711 0 0 1 2.395 8.981 18.05 18.05 0 0 1-2.408 9.08c-1.607 2.814-3.801 5.015-6.576 6.602-2.771 1.587-5.83 2.381-9.168 2.381-4.916 0-9.111-1.751-12.586-5.248-3.479-3.499-5.219-7.748-5.219-12.751 0-5.354 1.965-9.821 5.896-13.394 3.439-3.11 7.4-4.664 11.875-4.664zm.14 8.097c-2.67 0-4.898.935-6.678 2.791-1.781 1.86-2.668 4.237-2.668 7.138 0 2.984.875 5.4 2.631 7.249 1.762 1.852 3.982 2.775 6.686 2.775 2.688 0 4.932-.937 6.719-2.804 1.787-1.869 2.686-4.278 2.686-7.219 0-2.938-.879-5.329-2.639-7.167-1.752-1.843-3.998-2.763-6.737-2.763zM734.964 44.354h8.543v16.704c1.68-1.451 3.371-2.536 5.078-3.262 1.701-.727 3.42-1.086 5.166-1.086 3.4 0 6.271 1.178 8.604 3.526 1.992 2.039 2.996 5.033 2.996 8.983v22.66h-8.477V76.847c0-3.973-.191-6.661-.57-8.069-.379-1.405-1.025-2.457-1.938-3.147-.912-.694-2.047-1.042-3.387-1.042-1.744 0-3.24.578-4.496 1.731-1.252 1.154-2.111 2.731-2.598 4.729-.256 1.029-.383 3.385-.383 7.059v13.771h-8.543l.005-47.525zM791.062 56.711c3.23 0 6.277.808 9.125 2.425 2.846 1.618 5.068 3.814 6.666 6.588a17.712 17.712 0 0 1 2.396 8.981c0 3.235-.809 6.262-2.414 9.08-1.604 2.814-3.795 5.015-6.568 6.602-2.775 1.588-5.83 2.381-9.172 2.381-4.92 0-9.111-1.751-12.59-5.248-3.479-3.499-5.215-7.748-5.215-12.751 0-5.354 1.965-9.821 5.895-13.394 3.443-3.11 7.402-4.664 11.877-4.664zm.144 8.097c-2.678 0-4.902.935-6.686 2.791-1.773 1.86-2.664 4.237-2.664 7.138 0 2.984.879 5.4 2.633 7.249 1.76 1.852 3.979 2.775 6.68 2.775 2.695 0 4.938-.937 6.725-2.804 1.785-1.869 2.686-4.278 2.686-7.219 0-2.938-.881-5.329-2.637-7.167-1.756-1.843-4.003-2.763-6.737-2.763zM815.55 57.591h7.373v4.317c.801-1.702 1.857-2.995 3.184-3.875a7.685 7.685 0 0 1 4.354-1.325c1.113 0 2.277.294 3.5.881l-2.682 7.406c-1.01-.502-1.84-.753-2.492-.753-1.32 0-2.439.816-3.355 2.458-.912 1.639-1.373 4.854-1.373 9.644l.033 1.67v13.865h-8.539V57.591h-.003zM840.536 44.955h8.611v12.639h5.098V65h-5.098v26.881h-8.611V64.999h-4.41v-7.406h4.41V44.955zM881.13 62.383l-5.33 5.327c-2.164-2.143-4.125-3.215-5.891-3.215-.971 0-1.725.207-2.271.613-.549.412-.818.921-.818 1.528 0 .462.174.885.52 1.276.35.391 1.203.92 2.57 1.591l3.15 1.577c3.318 1.642 5.596 3.311 6.832 5.011 1.24 1.704 1.861 3.698 1.861 5.987 0 3.045-1.121 5.589-3.359 7.625-2.232 2.037-5.234 3.057-8.994 3.057-5.006 0-8.988-1.955-11.975-5.86l5.293-5.766a12.137 12.137 0 0 0 3.545 2.851c1.354.727 2.555 1.089 3.609 1.089 1.133 0 2.043-.274 2.736-.821.695-.546 1.041-1.175 1.041-1.89 0-1.324-1.252-2.617-3.748-3.879l-2.9-1.448c-5.545-2.795-8.318-6.295-8.318-10.499 0-2.71 1.047-5.026 3.139-6.952 2.094-1.92 4.762-2.88 8.023-2.88 2.225 0 4.314.484 6.283 1.463 1.973.982 3.633 2.384 5.002 4.215z"/><g><path d="M312.357 128.885h8.604v34.289h-8.604v-3.625c-1.679 1.594-3.364 2.747-5.051 3.45-1.69.703-3.521 1.057-5.493 1.057-4.429 0-8.257-1.715-11.489-5.15-3.233-3.437-4.851-7.708-4.851-12.811 0-5.295 1.563-9.631 4.692-13.019 3.128-3.383 6.924-5.075 11.396-5.075 2.055 0 3.986.39 5.791 1.165 1.805.777 3.474 1.942 5.004 3.5l.001-3.781zm-9.042 7.058c-2.659 0-4.87.94-6.629 2.819-1.759 1.882-2.639 4.295-2.639 7.232 0 2.963.896 5.399 2.684 7.311 1.791 1.911 3.993 2.872 6.613 2.872 2.702 0 4.944-.939 6.723-2.819 1.779-1.879 2.669-4.344 2.669-7.391 0-2.983-.891-5.401-2.669-7.25-1.78-1.851-4.03-2.774-6.752-2.774zM330.951 128.885h8.604v3.515c1.95-1.646 3.719-2.789 5.302-3.43a12.83 12.83 0 0 1 4.863-.966c3.399 0 6.285 1.188 8.654 3.561 1.995 2.019 2.99 5.002 2.99 8.951v22.664h-8.508v-15.018c0-4.097-.185-6.813-.549-8.153-.366-1.343-1.006-2.364-1.917-3.069-.914-.703-2.041-1.055-3.381-1.055-1.738 0-3.233.582-4.48 1.747-1.247 1.166-2.112 2.777-2.595 4.831-.252 1.066-.375 3.391-.375 6.955v13.757h-8.604v-34.29h-.004zM396.284 115.647h8.604v47.524h-8.604v-3.627c-1.68 1.596-3.364 2.748-5.051 3.453-1.691.703-3.521 1.056-5.493 1.056-4.429 0-8.258-1.714-11.49-5.15-3.231-3.437-4.847-7.708-4.847-12.81 0-5.295 1.563-9.632 4.689-13.02 3.125-3.386 6.924-5.075 11.396-5.075 2.058 0 3.985.39 5.791 1.166 1.805.776 3.474 1.942 5.007 3.498v-17.016h-.002zm-9.045 20.296c-2.659 0-4.869.94-6.626 2.819-1.76 1.882-2.64 4.295-2.64 7.232 0 2.963.895 5.399 2.687 7.311 1.789 1.911 3.992 2.872 6.609 2.872 2.703 0 4.943-.939 6.722-2.819 1.779-1.879 2.669-4.344 2.669-7.391 0-2.983-.891-5.401-2.669-7.25-1.782-1.851-4.031-2.774-6.752-2.774zM450.613 116.812h9.347c5.123 0 8.768.458 10.939 1.372 2.174.914 3.92 2.433 5.242 4.555 1.324 2.122 1.982 4.632 1.982 7.532 0 3.047-.73 5.596-2.189 7.644-1.461 2.05-3.662 3.597-6.604 4.649l10.982 20.61h-9.645l-10.426-19.633h-.809v19.633h-8.823v-46.362h.004zm8.823 18.121h2.766c2.807 0 4.74-.368 5.797-1.106 1.061-.741 1.59-1.96 1.59-3.668 0-1.01-.266-1.894-.789-2.642a4.374 4.374 0 0 0-2.104-1.609c-.879-.329-2.488-.489-4.839-.489h-2.419v9.515h-.002v-.001zM503.901 128.002c3.236 0 6.275.808 9.125 2.425 2.852 1.617 5.072 3.814 6.668 6.588a17.716 17.716 0 0 1 2.396 8.982c0 3.235-.807 6.262-2.416 9.08-1.605 2.813-3.795 5.014-6.566 6.602-2.771 1.584-5.832 2.376-9.174 2.376-4.916 0-9.111-1.749-12.59-5.246-3.475-3.5-5.207-7.747-5.207-12.749 0-5.357 1.961-9.822 5.889-13.394 3.44-3.111 7.401-4.664 11.875-4.664zm.143 8.096c-2.676 0-4.896.932-6.68 2.789-1.777 1.861-2.672 4.239-2.672 7.139 0 2.986.883 5.401 2.643 7.25 1.754 1.85 3.977 2.774 6.674 2.774 2.691 0 4.934-.938 6.729-2.806 1.785-1.869 2.684-4.276 2.684-7.217 0-2.942-.877-5.332-2.631-7.168-1.765-1.841-4.011-2.761-6.747-2.761zM530.378 128.885h8.697v16.516c0 3.216.225 5.449.666 6.694.441 1.253 1.15 2.225 2.137 2.916.979.691 2.18 1.041 3.611 1.041 1.436 0 2.646-.345 3.654-1.024 1-.684 1.74-1.687 2.229-3.01.355-.987.535-3.101.535-6.337v-16.796h8.607v14.525c0 5.986-.48 10.086-1.418 12.292-1.158 2.688-2.859 4.755-5.104 6.191-2.254 1.439-5.107 2.158-8.572 2.158-3.768 0-6.807-.84-9.129-2.522-2.318-1.681-3.953-4.023-4.896-7.023-.676-2.081-1.006-5.861-1.006-11.347v-14.273l-.011-.001zM571.474 116.245h8.6v12.639h5.105v7.405h-5.105v26.882h-8.6V136.29h-4.414v-7.404h4.414v-12.641zM594.429 114.762c1.51 0 2.801.551 3.881 1.642 1.076 1.091 1.619 2.418 1.619 3.973 0 1.535-.535 2.841-1.605 3.921-1.064 1.084-2.346 1.627-3.834 1.627-1.527 0-2.834-.552-3.91-1.654-1.078-1.104-1.619-2.44-1.619-4.018 0-1.516.533-2.806 1.598-3.878 1.073-1.074 2.362-1.613 3.87-1.613zm-4.297 14.123h8.6v34.289h-8.6v-34.289zM607.843 128.885h8.604v3.515c1.949-1.646 3.713-2.789 5.295-3.43a12.835 12.835 0 0 1 4.867-.966c3.398 0 6.283 1.188 8.652 3.561 1.99 2.019 2.988 5.002 2.988 8.951v22.664h-8.512v-15.018c0-4.097-.178-6.813-.549-8.153-.371-1.343-1.008-2.364-1.914-3.069-.916-.703-2.041-1.055-3.381-1.055-1.74 0-3.234.582-4.484 1.747-1.248 1.166-2.105 2.777-2.592 4.831-.252 1.066-.379 3.391-.379 6.955v13.757h-8.604v-34.292l.009.002zM682.208 148.515h-27.639c.398 2.438 1.463 4.376 3.201 5.814 1.73 1.439 3.943 2.159 6.635 2.159 3.213 0 5.979-1.121 8.285-3.37l7.248 3.402c-1.811 2.563-3.971 4.461-6.494 5.689-2.521 1.228-5.514 1.844-8.979 1.844-5.381 0-9.766-1.698-13.146-5.087-3.385-3.397-5.076-7.646-5.076-12.751 0-5.229 1.689-9.575 5.063-13.031 3.369-3.456 7.598-5.185 12.684-5.185 5.4 0 9.793 1.729 13.17 5.185 3.387 3.456 5.078 8.021 5.078 13.692l-.03 1.639zm-8.604-6.773c-.566-1.908-1.688-3.466-3.359-4.665-1.67-1.196-3.609-1.798-5.822-1.798-2.398 0-4.498.676-6.314 2.021-1.135.844-2.184 2.322-3.152 4.442h18.647zM725.642 116.812h10.451c6.74 0 11.746.835 15.021 2.506 3.271 1.669 5.977 4.385 8.096 8.146 2.121 3.764 3.18 8.152 3.18 13.173 0 3.572-.592 6.855-1.777 9.851-1.191 2.994-2.822 5.478-4.914 7.455-2.092 1.973-4.354 3.336-6.785 4.099-2.436.756-6.654 1.135-12.652 1.135h-10.617l-.003-46.365zm8.761 8.507v29.249h4.1c4.031 0 6.955-.464 8.779-1.391 1.816-.924 3.303-2.48 4.457-4.67 1.154-2.188 1.73-4.881 1.73-8.076 0-4.92-1.373-8.738-4.129-11.453-2.479-2.438-6.457-3.661-11.941-3.661l-2.996.002zM796.456 128.885h8.605v34.289h-8.605v-3.625c-1.684 1.594-3.365 2.747-5.053 3.45-1.689.703-3.523 1.057-5.492 1.057-4.432 0-8.262-1.715-11.492-5.15-3.232-3.437-4.846-7.708-4.846-12.811 0-5.295 1.563-9.631 4.689-13.019 3.129-3.383 6.928-5.075 11.396-5.075 2.059 0 3.986.39 5.793 1.165 1.801.777 3.473 1.942 5.006 3.5l-.001-3.781zm-9.045 7.058c-2.658 0-4.867.94-6.627 2.819-1.762 1.882-2.639 4.295-2.639 7.232 0 2.963.896 5.399 2.688 7.311 1.785 1.911 3.992 2.872 6.607 2.872 2.701 0 4.945-.939 6.725-2.819 1.779-1.879 2.67-4.344 2.67-7.391 0-2.983-.891-5.401-2.668-7.25-1.779-1.851-4.033-2.774-6.756-2.774zM816.087 116.245h8.604v12.639h5.104v7.405h-5.104v26.882h-8.604V136.29h-4.414v-7.404h4.414v-12.641zM860.999 128.885h8.604v34.289h-8.604v-3.625c-1.684 1.594-3.365 2.747-5.055 3.45s-3.521 1.057-5.494 1.057c-4.428 0-8.258-1.715-11.488-5.15-3.232-3.437-4.846-7.708-4.846-12.811 0-5.295 1.563-9.631 4.689-13.019 3.129-3.383 6.928-5.075 11.396-5.075 2.059 0 3.986.39 5.795 1.165 1.801.777 3.471 1.942 5.004 3.5l-.001-3.781zm-9.047 7.058c-2.658 0-4.867.94-6.623 2.819-1.766 1.882-2.641 4.295-2.641 7.232 0 2.963.896 5.399 2.682 7.311 1.789 1.911 3.996 2.872 6.609 2.872 2.705 0 4.945-.939 6.725-2.819 1.779-1.879 2.672-4.344 2.672-7.391 0-2.983-.891-5.401-2.672-7.25-1.779-1.851-4.031-2.774-6.752-2.774z"/></g></g><path fill="#8C3B7D" d="M156.742 212.597H55.858C25.06 212.597 0 187.538 0 156.739V55.853C0 25.053 25.06 0 55.858 0h100.883c30.802 0 55.858 25.058 55.858 55.854V156.74c0 30.799-25.057 55.857-55.857 55.857zM55.858 2.808c-29.25 0-53.048 23.795-53.048 53.045v100.886c0 29.253 23.798 53.046 53.048 53.046h100.883c29.253 0 53.048-23.793 53.048-53.046V55.853c0-29.25-23.797-53.045-53.048-53.045H55.858z"/><path fill="#4E3E7F" d="M194.43 108.421c-16.052 31.934-49.831 76.82-114.199 82.17 0 0-68.08 6.148-59.189-41.169 0 0 7.293-34.903 52.713-13.382 0 0 64.862 32.585 115.212-31.142 0 0 2.106-2.983 4.666-1.219.002-.001 2.328 1.666.797 4.742z"/><path fill="#8C3B7D" d="M87.138 124.929c41.29 3.706 52.896-30.25 52.896-30.25 7.147-18.94 27.704-16.695 27.704-16.695 28.989 5.563-7.598 38.766-7.598 38.766-26.252 21.264-56.237 17.475-74.521 11.93 0 0-2.29-.552-2.035-2.341.001-.001.099-2.162 3.554-1.41zM185.86 43.198c2.419 12.009-5.363 23.711-17.368 26.125-11.986 2.426-23.694-5.349-26.115-17.366-2.416-11.999 5.358-23.699 17.357-26.114 12.006-2.416 23.711 5.348 26.126 17.355z"/><path fill="#4E3E7F" d="M132.258 59.719c4.956 24.574-10.96 48.487-35.504 53.44-24.545 4.947-48.462-10.956-53.418-35.53-4.945-24.54 10.963-48.457 35.5-53.4 24.544-4.942 48.473 10.945 53.422 35.49z"/><path fill="#FFF" d="M58.654 136.787c-8.829-2.786-17.646-1.326-21.314 1.46 4.366-1.419 12.175-1.77 20.687.864 8.459 2.318 15.669 6.048 20.29 6.582-4.099-1.881-10.686-6.415-19.663-8.906zM171.269 82.124c-3.729-1.585-7.486-.833-9.136.008 2.011.367 5.08.452 8.378 1.857 3.426 1.13 4.7 3.711 4.851 5.836 1.359-1.542.128-6.493-4.093-7.701zM175.022 31.551c-5.583-3.657-11.784-3.071-14.595-1.943 3.134.054 8.524.351 13.509 3.59 4.926 3.332 7.286 8.191 8.544 11.06-.04-3.029-1.91-8.975-7.458-12.707zM110.08 34.997c-11.405-7.628-24.251-6.656-30.088-4.312 6.384-.311 17.838.238 28.203 7.162 10.399 6.856 15.349 17.189 17.524 23.21-.089-6.291-4.181-18.51-15.639-26.06z"/><path opacity=".25" fill="#FFF" d="M720.755 1.403l-85.732 199.093-64.561-171.845a2.704 2.704 0 0 0-1.846-1.656 2.67 2.67 0 0 0-2.416.553l-68.916 58.527-53.175-84.672h-6.352l56.621 90.16a2.668 2.668 0 0 0 1.863 1.229 2.606 2.606 0 0 0 2.148-.609l68.375-58.06 65.563 174.518a2.709 2.709 0 0 0 2.455 1.744c.977-.009 2.102-.617 2.531-1.628L726.606 1.404l-5.851-.001zM923.983 115.842l-23.43 49.599-36.639-65.42c-.5-.898-1.494-1.373-2.502-1.373a2.694 2.694 0 0 0-2.324 1.655l-44.961 108.422L737.499 1.403h-5.729l77.539 209.788h9.619l43.006-103.707 36.479 65.138c.488.875 1.318 1.509 2.438 1.374a2.674 2.674 0 0 0 2.338-1.537l20.795-44.023v-12.594h-.001z"/><g opacity=".25" fill="#FFF"><path d="M544.294 1.403L478.147 181.18l-25.926-30.119a2.72 2.72 0 0 0-2.223-.926 2.668 2.668 0 0 0-2.073 1.222l-22.658 35.107-70.178-149.56a2.696 2.696 0 0 0-2.41-1.549c-.921.083-1.98.576-2.438 1.501L287.393 164.01l-22.752-37.777a2.69 2.69 0 0 0-3.689-.917 2.691 2.691 0 0 0-.916 3.69l25.288 41.986c.506.843 1.434 1.389 2.419 1.299a2.703 2.703 0 0 0 2.3-1.494l62.547-126.55 69.87 148.896a2.692 2.692 0 0 0 2.256 1.543c.061.003.121.006.182.006.908 0 1.761-.461 2.258-1.229l23.337-36.163 26.566 30.859a2.662 2.662 0 0 0 2.516.888 2.674 2.674 0 0 0 2.045-1.717L550.022 1.404l-5.728-.001zM783.265 1.403l-87.092 175.439L630.722 1.403h-5.736l68.324 183.135a2.698 2.698 0 0 0 2.379 1.745c1.025-.017 2.076-.535 2.547-1.49L788.552 2.859c.23-.473.27-.967.219-1.457l-5.506.001z"/></g></svg>