<svg xmlns="http://www.w3.org/2000/svg" width="253.5" height="283.5" viewBox="0 0 253.5 283.5"><g fill="#BE955B"><path d="M7.9 282c-1.7-1-2.9-2.3-3.8-4.1-.9-1.8-1.3-3.9-1.3-6.4 0-2.4.4-4.6 1.3-6.4s2.2-3.2 3.8-4.1c1.7-1 3.6-1.4 5.8-1.4 1.5 0 2.8.2 4.1.7 1.3.5 2.4 1.1 3.4 2 .4.3.6.8.6 1.3 0 .4-.1.7-.3 1-.2.3-.5.4-.8.4-.4 0-.7-.1-1.1-.4-1.1-.8-2-1.4-2.9-1.7-.9-.3-1.9-.5-3-.5-2.4 0-4.3.8-5.6 2.4s-2 3.8-2 6.8.7 5.2 2 6.8c1.3 1.6 3.2 2.4 5.6 2.4 1.1 0 2-.2 2.9-.5s1.9-.9 3-1.7c.4-.3.8-.4 1.1-.4.3 0 .6.1.8.4.2.3.3.6.3 1 0 .6-.2 1-.6 1.3-1 .9-2.1 1.5-3.4 2s-2.7.7-4.1.7c-2.2-.1-4.1-.6-5.8-1.6zM25.3 283c-.3-.3-.5-.7-.5-1.2v-20.5c0-.5.2-.9.5-1.2.3-.3.7-.4 1.2-.4s.9.1 1.2.4c.3.3.5.7.5 1.2v20.5c0 .5-.2.9-.5 1.2-.3.3-.7.4-1.2.4s-.8-.2-1.2-.4zM32.3 262.9c-.4-.4-.6-.8-.6-1.4s.2-1 .6-1.4c.4-.3.9-.5 1.5-.5s1.1.2 1.5.5.6.8.6 1.4-.2 1-.6 1.4-.9.5-1.5.5c-.7 0-1.2-.2-1.5-.5zm.3 20.1c-.3-.3-.5-.7-.5-1.2v-13.5c0-.5.2-.9.5-1.2.3-.3.7-.4 1.2-.4s.9.1 1.2.4.5.7.5 1.2v13.5c0 .5-.2.9-.5 1.2-.3.3-.7.4-1.2.4s-.9-.2-1.2-.4zM53.9 273.1v8.6c0 .5-.1.9-.4 1.2-.3.3-.7.4-1.2.4s-.9-.1-1.2-.4-.4-.7-.4-1.2v-8.5c0-1.4-.3-2.4-.8-3s-1.4-1-2.5-1c-1.3 0-2.4.4-3.3 1.3-.8.8-1.2 2-1.2 3.4v7.8c0 .5-.1.9-.4 1.2-.3.3-.7.4-1.2.4s-.9-.1-1.2-.4-.5-.7-.5-1.2v-13.5c0-.5.2-.8.5-1.1.3-.3.7-.4 1.2-.4s.9.1 1.2.4.4.7.4 1.1v1.4c.5-1 1.3-1.7 2.2-2.2s2-.8 3.2-.8c3.6 0 5.6 2.2 5.6 6.5zM57.8 262.9c-.4-.4-.6-.8-.6-1.4s.2-1 .6-1.4c.4-.3.9-.5 1.5-.5s1.1.2 1.5.5.6.8.6 1.4-.2 1-.6 1.4-.9.5-1.5.5-1.1-.2-1.5-.5zm.3 20.1c-.3-.3-.5-.7-.5-1.2v-13.5c0-.5.2-.9.5-1.2.3-.3.7-.4 1.2-.4s.9.1 1.2.4.5.7.5 1.2v13.5c0 .5-.2.9-.5 1.2-.3.3-.7.4-1.2.4-.4 0-.8-.2-1.2-.4zM67.7 282.4c-1.2-.7-2.1-1.7-2.8-2.9s-1-2.7-1-4.4c0-1.7.3-3.2 1-4.4.7-1.3 1.6-2.3 2.8-3s2.6-1.1 4.2-1.1c.8 0 1.7.1 2.5.4.9.2 1.6.6 2.3 1 .7.5 1.1 1.1 1.1 1.7 0 .4-.1.7-.3.9-.2.3-.5.4-.8.4-.2 0-.4 0-.6-.1s-.5-.2-.8-.4c-.6-.4-1.1-.6-1.5-.8-.5-.2-1-.3-1.7-.3-1.5 0-2.7.5-3.5 1.5s-1.2 2.4-1.2 4.2c0 1.8.4 3.2 1.2 4.2.8 1 2 1.5 3.5 1.5.7 0 1.3-.1 1.8-.3.5-.2 1-.5 1.6-.8.2-.2.5-.3.7-.4s.5-.2.7-.2c.3 0 .6.1.8.4.2.3.3.6.3.9s-.1.6-.3.8c-.2.3-.4.5-.8.8-.7.4-1.4.8-2.3 1s-1.8.4-2.7.4c-1.7 0-3-.3-4.2-1zM91.7 268.2c1 1.1 1.6 2.7 1.6 4.9v8.6c0 .5-.1.9-.4 1.2-.3.3-.7.4-1.2.4s-.9-.1-1.2-.4c-.3-.3-.4-.7-.4-1.2v-1.2c-.4.9-1 1.6-1.9 2.1-.8.5-1.8.7-2.9.7s-2-.2-2.9-.6-1.6-1-2.1-1.8-.7-1.6-.7-2.6c0-1.2.3-2.1.9-2.8.6-.7 1.6-1.2 3-1.4 1.4-.3 3.3-.4 5.8-.4h.7v-1c0-1.2-.3-2.1-.8-2.7s-1.3-.8-2.5-.8c-.8 0-1.5.1-2.2.3-.7.2-1.4.5-2.3.9-.6.3-1 .5-1.3.5s-.6-.1-.8-.4c-.2-.2-.3-.6-.3-.9s.1-.6.3-.9c.2-.3.5-.5.9-.7.8-.4 1.7-.8 2.7-1 1-.3 2-.4 3-.4 2.4 0 4 .5 5 1.6zm-2.8 11.5c.8-.8 1.2-1.9 1.2-3.2v-.9h-.6c-1.7 0-3.1.1-4 .2-.9.2-1.6.4-2 .8s-.6.9-.6 1.6c0 .8.3 1.4.9 2 .6.5 1.3.8 2.2.8 1.1-.1 2.1-.5 2.9-1.3zM97.6 283c-.3-.3-.5-.7-.5-1.2v-20.5c0-.5.2-.9.5-1.2.3-.3.7-.4 1.2-.4s.9.1 1.2.4c.3.3.5.7.5 1.2v20.5c0 .5-.2.9-.5 1.2-.3.3-.7.4-1.2.4s-.9-.2-1.2-.4zM118.7 282.9c-.3-.3-.5-.7-.5-1.2v-19h-6.6c-1.1 0-1.6-.5-1.6-1.4 0-.5.1-.8.4-1.1.3-.2.7-.4 1.2-.4h16.7c.5 0 .9.1 1.2.4.3.2.4.6.4 1.1 0 1-.5 1.4-1.6 1.4h-6.6v19c0 .5-.2.9-.5 1.2-.3.3-.7.5-1.3.5-.4 0-.8-.2-1.2-.5zM139.1 268c0 .5-.1.9-.4 1.1-.2.2-.7.4-1.3.4l-1 .1c-1.4.1-2.4.6-3.1 1.5-.7.8-1 1.9-1 3.1v7.6c0 .5-.2.9-.5 1.2-.3.3-.7.4-1.2.4s-.9-.1-1.2-.4-.5-.7-.5-1.2v-13.5c0-.5.2-.9.5-1.2.3-.3.7-.4 1.2-.4.4 0 .8.1 1.1.4s.4.7.4 1.1v1.6c.4-1 1.1-1.7 1.9-2.2.8-.5 1.8-.8 2.9-.9h.5c1.1-.1 1.7.4 1.7 1.3zM140.5 262.9c-.4-.4-.6-.8-.6-1.4s.2-1 .6-1.4c.4-.3.9-.5 1.5-.5s1.1.2 1.5.5.6.8.6 1.4-.2 1-.6 1.4c-.4.4-.9.5-1.5.5-.7 0-1.2-.2-1.5-.5zm.3 20.1c-.3-.3-.5-.7-.5-1.2v-13.5c0-.5.2-.9.5-1.2.3-.3.7-.4 1.2-.4s.9.1 1.2.4.5.7.5 1.2v13.5c0 .5-.2.9-.5 1.2-.3.3-.7.4-1.2.4s-.9-.2-1.2-.4zM159.1 268.2c1.1 1.1 1.6 2.7 1.6 4.9v8.6c0 .5-.1.9-.4 1.2-.3.3-.7.4-1.2.4s-.9-.1-1.2-.4-.4-.7-.4-1.2v-1.2c-.4.9-1 1.6-1.9 2.1-.8.5-1.8.7-2.9.7-1.1 0-2-.2-2.9-.6s-1.6-1-2.1-1.8-.7-1.6-.7-2.6c0-1.2.3-2.1.9-2.8.6-.7 1.6-1.2 3-1.4 1.4-.3 3.3-.4 5.8-.4h.8v-1c0-1.2-.3-2.1-.8-2.7s-1.3-.8-2.5-.8c-.8 0-1.5.1-2.2.3-.7.2-1.4.5-2.3.9-.6.3-1 .5-1.3.5s-.6-.1-.8-.4c-.2-.2-.3-.6-.3-.9s.1-.6.3-.9.5-.5.9-.7c.8-.4 1.7-.8 2.7-1 1-.3 2-.4 3-.4 2.3 0 3.9.5 4.9 1.6zm-2.8 11.5c.8-.8 1.2-1.9 1.2-3.2v-.9h-.6c-1.7 0-3.1.1-4 .2-.9.2-1.6.4-2 .8s-.6.9-.6 1.6c0 .8.3 1.4.9 2 .6.5 1.3.8 2.2.8 1.1-.1 2.1-.5 2.9-1.3zM165 283c-.3-.3-.5-.7-.5-1.2v-20.5c0-.5.2-.9.5-1.2.3-.3.7-.4 1.2-.4s.9.1 1.2.4.5.7.5 1.2v20.5c0 .5-.2.9-.5 1.2-.3.3-.7.4-1.2.4s-.9-.2-1.2-.4zM171.8 282c-.4-.2-.7-.5-.8-.8s-.2-.6-.2-.9c0-.4.1-.7.3-.9.2-.2.5-.4.8-.4s.7.2 1.4.5c.7.4 1.3.6 1.9.9.6.2 1.4.3 2.4.3 1.1 0 1.9-.2 2.5-.6s.9-.9.9-1.6c0-.4-.1-.8-.3-1.1-.2-.3-.6-.5-1.2-.7-.6-.2-1.4-.4-2.6-.7-1.9-.4-3.3-1-4.2-1.7s-1.3-1.7-1.3-2.9c0-1 .3-1.8.8-2.6.6-.8 1.3-1.4 2.3-1.8s2.1-.6 3.3-.6c.9 0 1.7.1 2.6.3.8.2 1.6.6 2.2 1 .7.5 1.1 1.1 1.1 1.7 0 .4-.1.7-.3.9-.2.2-.5.4-.7.4s-.4 0-.6-.1c-.2-.1-.5-.2-.8-.4-.6-.4-1.2-.6-1.7-.8-.5-.2-1.2-.3-1.9-.3-.9 0-1.7.2-2.2.6-.6.4-.8.9-.8 1.6 0 .6.3 1.1.8 1.4s1.5.7 2.9 1c1.5.3 2.6.7 3.5 1.1.8.4 1.4.9 1.8 1.5.4.6.5 1.3.5 2.2 0 1.4-.6 2.6-1.8 3.5s-2.8 1.3-4.8 1.3c-2.5.1-4.3-.3-5.8-1.3zM197.5 281c-1.6-1.6-2.4-4-2.4-7.1v-12.5c0-.5.2-.9.5-1.3.3-.3.7-.5 1.2-.5s.9.2 1.2.5.5.7.5 1.3v12.8c0 2.1.5 3.8 1.5 4.9s2.6 1.7 4.6 1.7 3.5-.6 4.6-1.7c1-1.1 1.6-2.7 1.6-4.9v-12.8c0-.5.2-.9.5-1.2.3-.3.7-.5 1.2-.5s.9.2 1.2.5.5.7.5 1.3V274c0 3.1-.8 5.5-2.4 7.1-1.6 1.6-4 2.4-7.1 2.4-3.2 0-5.6-.8-7.2-2.5zM232.7 273.1v8.6c0 .5-.1.9-.4 1.2-.3.3-.7.4-1.2.4s-.9-.1-1.2-.4-.4-.7-.4-1.2v-8.5c0-1.4-.3-2.4-.8-3s-1.4-1-2.5-1c-1.4 0-2.4.4-3.3 1.3-.8.8-1.2 2-1.2 3.4v7.8c0 .5-.1.9-.4 1.2-.3.3-.7.4-1.2.4s-.9-.1-1.2-.4-.5-.7-.5-1.2v-13.5c0-.5.2-.8.5-1.1.3-.3.7-.4 1.2-.4s.9.1 1.2.4.4.7.4 1.1v1.4c.5-1 1.3-1.7 2.2-2.2 1-.5 2-.8 3.2-.8 3.7 0 5.6 2.2 5.6 6.5zM236.7 262.9c-.4-.4-.6-.8-.6-1.4s.2-1 .6-1.4c.4-.3.9-.5 1.5-.5s1.1.2 1.5.5.6.8.6 1.4-.2 1-.6 1.4c-.4.4-.9.5-1.5.5s-1.2-.2-1.5-.5zm.3 20.1c-.3-.3-.5-.7-.5-1.2v-13.5c0-.5.2-.9.5-1.2.3-.3.7-.4 1.2-.4s.9.1 1.2.4.5.7.5 1.2v13.5c0 .5-.2.9-.5 1.2-.3.3-.7.4-1.2.4s-.9-.2-1.2-.4zM252.7 281.2c.2.2.3.5.3.9s-.2.8-.5 1-.8.3-1.5.3l-.9-.1c-1.8-.1-3.1-.7-4-1.6-.9-1-1.3-2.4-1.3-4.3v-7.8h-2c-1 0-1.5-.4-1.5-1.3 0-.4.1-.7.4-.9.3-.2.6-.3 1.1-.3h2v-3.4c0-.5.1-.9.4-1.2.3-.3.7-.4 1.2-.4s.9.1 1.2.4.5.7.5 1.2v3.4h3.3c.5 0 .8.1 1.1.3.3.2.4.5.4.9s-.1.7-.4 1c-.3.2-.6.3-1.1.3h-3.3v8c0 1 .2 1.8.6 2.3.4.5 1.1.8 2 .8l.9.1c.6.1.9.2 1.1.4z"/></g><path fill="#BE955B" d="M0 239.4c0-1.3 1.1-2.4 2.4-2.4h248.7c1.3 0 2.4 1.1 2.4 2.4 0 1.3-1.1 2.4-2.4 2.4H2.4c-1.3 0-2.4-1.1-2.4-2.4"/><path fill="#614776" d="M56.6 148.8c.9 1 1.3 2.2 1.3 3.7V213c0 1.5-.5 2.8-1.4 3.7-.9 1-2.1 1.4-3.6 1.4-1.7 0-3-.7-4-2L10.2 165v48c0 1.5-.4 2.8-1.3 3.7-.9 1-2.1 1.4-3.5 1.4-1.5 0-2.6-.5-3.5-1.4s-1.3-2.2-1.3-3.8v-60.5c0-1.5.5-2.8 1.4-3.7.9-1 2.1-1.4 3.6-1.4 1.7 0 3 .7 4 2l38.8 51.3v-48.1c0-1.5.4-2.8 1.3-3.7.9-1 2-1.4 3.5-1.4 1.3 0 2.5.5 3.4 1.4M75.5 216.8c-.9-.9-1.4-2.2-1.4-3.8v-60.2c0-1.5.4-2.7 1.3-3.6.9-.9 2.1-1.3 3.7-1.3H103c7.4 0 13.1 1.8 17.2 5.4 4.1 3.6 6.1 8.8 6.1 15.4s-2 11.7-6.1 15.4-9.8 5.5-17.2 5.5H84.3V213c0 1.6-.4 2.8-1.3 3.8-.9.9-2.2 1.4-3.8 1.4-1.5 0-2.8-.5-3.7-1.4m26.5-35.3c9.8 0 14.6-4.3 14.6-12.8 0-8.4-4.9-12.7-14.6-12.7H84.3v25.4H102v.1zM140 216.3c-.9-.9-1.3-2.1-1.3-3.6v-59.9c0-1.5.4-2.7 1.3-3.6.9-.9 2.1-1.3 3.7-1.3h36.4c1.5 0 2.7.4 3.5 1.1.8.7 1.2 1.7 1.2 3.1 0 1.3-.4 2.3-1.2 3s-2 1-3.5 1h-31.5v22h29.5c1.5 0 2.7.4 3.5 1.1.8.7 1.2 1.7 1.2 3.1 0 1.3-.4 2.3-1.2 3.1-.8.7-2 1.1-3.5 1.1h-29.5v23.1h31.5c3.2 0 4.8 1.4 4.8 4.1 0 1.3-.4 2.3-1.2 3.1-.8.7-2 1.1-3.5 1.1h-36.4c-1.7-.2-2.9-.7-3.8-1.6M203.3 211.2c-4.8-4.8-7.2-11.9-7.2-21.3v-37.4c0-1.6.5-2.8 1.4-3.8.9-.9 2.1-1.4 3.7-1.4 1.5 0 2.7.5 3.7 1.4.9.9 1.4 2.2 1.4 3.8v38.1c0 6.4 1.5 11.3 4.6 14.6s7.6 4.9 13.7 4.9c6 0 10.6-1.6 13.7-4.9 3.1-3.3 4.7-8.1 4.7-14.6v-38.1c0-1.5.5-2.8 1.4-3.7.9-1 2.1-1.4 3.7-1.4 1.5 0 2.7.5 3.7 1.4.9.9 1.4 2.2 1.4 3.8V190c0 9.3-2.4 16.4-7.3 21.2-4.9 4.9-11.9 7.3-21.1 7.3-9.6-.1-16.7-2.5-21.5-7.3M142.5 34.5c0-19-15.4-34.5-34.5-34.5S73.6 15.4 73.6 34.5c0 19 15.4 34.5 34.5 34.5s34.4-15.5 34.4-34.5"/><path fill="#BE955B" d="M189.1 29.2c2.6-6.6-.6-14-7.2-16.6-6.6-2.6-14 .6-16.6 7.2s.6 14 7.2 16.6c6.6 2.5 14-.7 16.6-7.2M133.6 85.1c3.8.5 16.2 2 33-8.1 12.4-7.4 20.5-18.3 21.3-24.7.7-5.2-2.9-10.1-8.1-10.8-2.2-.3-4.1.1-6.1 1.2-6.5 3.4-8.1 15.3-14.1 24.3-9 13.2-20.2 13.7-25.6 13.9-1.2 0-2.1 1-2.1 2.1-.2 1.1.6 2 1.7 2.1"/><path fill="#614776" d="M185.7 68.6c-5.7 7-22.7 22.3-43.4 22.3S111.4 80.4 95.9 74c-12.1-5.1-26.1.6-31.2 12.7-3.8 9-1.6 18.9 4.6 25.6 10.6 11.6 32 20 66.8 8.4s51.7-44.9 54.1-49.3c.7-1.3.1-2.9-1.2-3.6-1.1-.6-2.5-.2-3.3.8"/></svg>