<svg xmlns="http://www.w3.org/2000/svg" width="968.946" height="283.465" viewBox="0 0 968.946 283.465"><radialGradient id="a" cx="841.361" cy="108.533" r="67.832" gradientUnits="userSpaceOnUse"><stop offset="0" stop-color="#fff"/><stop offset=".149" stop-color="#d9e7d9"/><stop offset=".573" stop-color="#6aa874"/><stop offset=".865" stop-color="#008740"/><stop offset="1" stop-color="#007d32"/></radialGradient><path fill="url(#a)" d="M773.527 108.533c.004 37.463 30.375 67.832 67.84 67.832 37.46 0 67.827-30.369 67.827-67.832 0-37.464-30.372-67.832-67.831-67.832-37.464-.003-67.836 30.368-67.836 67.832z"/><radialGradient id="b" cx="737.279" cy="108.105" r="67.833" gradientUnits="userSpaceOnUse"><stop offset="0" stop-color="#fff"/><stop offset=".084" stop-color="#f5f9ec"/><stop offset=".343" stop-color="#d7e5ac"/><stop offset=".573" stop-color="#bdd573"/><stop offset=".766" stop-color="#a8c947"/><stop offset=".914" stop-color="#9ac32c"/><stop offset="1" stop-color="#95c11f"/></radialGradient><path fill="url(#b)" d="M669.448 108.106c0 37.463 30.371 67.832 67.828 67.832 37.467 0 67.838-30.368 67.835-67.832 0-37.464-30.371-67.835-67.835-67.835-37.461 0-67.828 30.372-67.828 67.835z"/><path fill="#95C11F" d="M94.947 137.854c0 1.064-.265 2.596-.799 4.593-.599 2.53-.964 4.059-1.098 4.593-.2 2.396-.665 5.891-1.398 10.483-.334 1.198-1.198 1.797-2.596 1.797-.665 0-1.932-.134-3.793-.399-8.187-1.198-20.866-1.797-38.039-1.797-4.857 0-12.181.135-21.965.399-9.784.265-17.106.399-21.965.399-2.196 0-3.294-.964-3.294-2.896 0-7.453.417-18.652 1.25-33.594.831-14.945 1.247-26.144 1.247-33.598 0-7.588-.399-21.73-1.198-42.431C1.164 40.077.799 32.124.2 21.541l-.1-1.397c-.066-1.532.799-2.296 2.596-2.296 4.658 0 11.646.134 20.966.399 9.319.265 16.308.399 20.966.399 4.458 0 11.134-.134 20.016-.399 8.889-.265 15.561-.399 20.02-.399 3.129 0 4.827.964 5.091 2.895 1.398 8.786 2.097 14.243 2.097 16.374 0 1.532-.733 2.296-2.196 2.296-5.657 0-14.229-.317-25.707-.951-11.485-.63-20.12-.946-25.91-.946-5.457 0-8.903.733-10.335 2.196-1.429 1.463-2.145 5.092-2.145 10.883v14.876c0 4.059.1 6.424.299 7.088.599 2.063 2.331 3.095 5.191 3.095.799 0 1.932-.035 3.395-.1h3.395c13.044 0 24.76-.234 35.143-.699 4.06-.134 8.852-.464 14.377-.998 1.397-.135 2.097.464 2.097 1.797 0 2.131-.251 5.391-.748 9.784-.503 4.393-.75 7.688-.75 9.884 0 1.198-.999 1.797-2.995 1.797-.799 0-3.76-.234-8.885-.699-3.729-.399-12.115-.599-25.16-.599-10.982 0-17.937.134-20.866.399-2.662.2-4.193 1.597-4.593 4.193.066-.465.1 2.096.1 7.688v14.776c0 6.923 1.063 11.248 3.194 12.979 1.663 1.398 5.826 2.097 12.48 2.097l10.982-.1c4.658 0 17.737-.798 39.237-2.396l1.498-.1c1.332-.133 1.997.701 1.997 2.497zM178.632 84.314l-.1.898c-.6 2.331-1.398 5.756-2.396 10.284-.2 2.196-.633 5.391-1.298 9.584-.134.599-2.031.998-5.69 1.198-2.531.135-6.125.135-10.783 0-5.99-.134-8.786-.2-8.386-.2-4.127 0-10.249.383-18.371 1.147-8.121.768-14.211 1.149-18.27 1.149-1.797 0-2.696-1.098-2.696-3.294 0-3.061 1.931-9.419 5.791-19.069.334-.933 1.264-1.397 2.796-1.397 2.331 0 5.756.083 10.283.248 4.527.168 7.953.251 10.284.251 4.059 0 10.184-.417 18.37-1.25 8.187-.83 14.312-1.246 18.371-1.246 1.462 0 2.16.564 2.095 1.697z"/><path fill="#007D32" d="M292.039 39.414c0 1.263-.699 1.897-2.097 1.897-5.191 0-13.712-.3-25.559-.899-11.048-.534-19.568-.733-25.559-.599l-7.289.1c-4.658.066-7.123.166-7.388.3-1.332.534-1.997 2.63-1.997 6.29v24.061c0 4.527.964 6.789 2.896 6.789 6.455 0 16.191-.3 29.201-.899 13.013-.599 22.75-.898 29.204-.898 1.398 0 2.097.533 2.097 1.597 0 1.133-.083 2.813-.248 5.043-.168 2.227-.251 3.908-.251 5.041 0 1.198.065 3.012.199 5.439.135 2.43.2 4.245.2 5.443 0 .799-.699 1.198-2.097 1.198-4.592 0-11.564-.134-20.918-.399-9.351-.266-16.356-.399-21.014-.399-8.586 0-13.443.065-14.576.2-2.996.333-4.493 1.563-4.493 3.694 0 5.99.166 14.976.5 26.957.334 11.98.499 20.966.499 26.957 0 1.997-.799 2.995-2.396 2.995-1.333 0-3.312-.151-5.939-.448-2.63-.302-4.644-.45-6.042-.45-1.133 0-2.861.1-5.191.299-2.331.2-4.059.3-5.191.3-1.663 0-2.496-.733-2.496-2.197 0-7.388.316-18.504.95-33.346.63-14.841.947-25.958.947-33.346 0-6.854-.699-29.153-2.097-66.892v-1.297c-.065-1.398.764-2.197 2.496-2.396.534 0 4.758.1 12.679.3 10.449.2 20.133.234 29.053.1 12.046-.135 27.39-.799 46.025-1.997 2.531-.2 3.959.898 4.293 3.294-.065 1.797.065 4.527.399 8.187.8 5.123 1.2 8.449 1.2 9.981zM367.134 65.372c0 7.323-.499 13.978-1.498 19.968-.2 1.532-.864 2.296-1.997 2.296-1.397 0-3.512-.148-6.338-.451-2.83-.296-4.978-.448-6.441-.448-8.387 0-13.744 2.361-16.074 7.088-1.397 2.861-2.097 8.82-2.097 17.871v10.982c0 3.729.148 9.385.451 16.973.296 7.587.448 13.244.448 16.972 0 1.797-.764 2.695-2.296 2.695-2.062 0-5.191-.034-9.385-.1-4.193-.066-7.322-.1-9.385-.1-1.532 0-2.296-.833-2.296-2.496 0-5.392.083-13.513.248-24.361.168-10.848.251-19.003.251-24.46 0-16.439-1.532-29.652-4.593-39.636-.134-.534-.2-.933-.2-1.198 0-.798.434-1.363 1.298-1.697 2.461-.265 5.925-.665 10.383-1.198 7.188-1.333 10.518-1.997 9.984-1.997 1.063 0 1.763 1.962 2.097 5.891.333 3.928.933 5.891 1.797 5.891.134 0 .299-.066.499-.2l8.187-5.191c2.996-1.798 6.056-3.13 9.186-3.994 2.596-.799 5.925-1.198 9.983-1.198 5.193.001 7.788.7 7.788 2.098zM467.794 103.21c0 4.927-2.133 8.221-6.392 9.884-2.861 1.063-23.462 3.03-61.8 5.891.864 5.856 4.094 10.848 9.685 14.976 5.326 3.928 11.048 5.891 17.172 5.891 10.518 0 20.167-3.395 28.953-10.184l3.195-2.596c.533 0 .881.065 1.047.2.168.134 1.415 2.448 3.746 6.937 2.331 4.496 3.493 6.906 3.493 7.24 0 .399-.53 1.164-1.596 2.296-9.785 10.383-22.33 15.575-37.64 15.575-15.44 0-27.755-4.609-36.94-13.826-9.185-9.22-13.778-21.517-13.778-36.892 0-13.712 4.393-25.659 13.179-35.842 9.25-10.583 20.601-15.874 34.045-15.874 12.514 0 22.963 4.592 31.349 13.777 8.187 8.92 12.282 19.768 12.282 32.547zm-23.763-6.089c0-5.526-2.179-10.417-6.541-14.676-4.358-4.259-9.268-6.39-14.725-6.39-6.125 0-11.564 2.461-16.321 7.388-4.762 4.926-7.141 10.448-7.141 16.573 0 1.398 1.198 2.097 3.594 2.097 9.85 0 21.631-.999 35.343-2.995 3.86-.534 5.791-1.199 5.791-1.997zM571.447 103.21c0 4.927-2.134 8.221-6.389 9.884-2.865 1.063-23.466 3.03-61.804 5.891.867 5.856 4.097 10.848 9.688 14.976 5.321 3.928 11.044 5.891 17.172 5.891 10.515 0 20.167-3.395 28.953-10.184 1.061-.864 2.128-1.732 3.194-2.596.531 0 .882.065 1.047.2.166.134 1.412 2.448 3.746 6.937 2.327 4.496 3.49 6.906 3.49 7.24 0 .399-.529 1.164-1.598 2.296-9.783 10.383-22.328 15.575-37.635 15.575-15.444 0-27.756-4.609-36.94-13.826-9.186-9.22-13.778-21.517-13.778-36.892 0-13.712 4.393-25.659 13.179-35.842 9.247-10.583 20.601-15.874 34.041-15.874 12.519 0 22.963 4.592 31.35 13.777 8.188 8.92 12.284 19.768 12.284 32.547zm-23.761-6.089c0-5.526-2.183-10.417-6.541-14.676s-9.267-6.39-14.728-6.39c-6.122 0-11.562 2.461-16.319 7.388-4.765 4.926-7.14 10.448-7.14 16.573 0 1.398 1.198 2.097 3.595 2.097 9.847 0 21.626-.999 35.342-2.995 3.856-.534 5.791-1.199 5.791-1.997zM663.12 146.441c-1.067 4.727-1.666 7.653-1.797 8.786-.269 2.331-.868 3.494-1.797 3.494-2.334 0-5.46-.134-9.386-.399-4.461-.334-7.553-.534-9.289-.599-4.454-.134-10.844-.2-19.168-.2-6.451 0-13.613.265-21.462.799-9.854.665-14.08.998-12.684.998-1.396 0-2.292-.599-2.691-1.797-.937-3.195-1.397-6.923-1.397-11.182 0-.599.034-1.449.097-2.544a44.04 44.04 0 0 0 .103-2.448c0-.933.716-2.048 2.147-3.343 1.427-1.301 8.532-8.837 21.311-22.615 6.459-6.724 15.61-17.072 27.46-31.05h-44.032c-1.061 0-1.598-.699-1.598-2.097 0-1.932.42-4.81 1.253-8.638.827-3.825 1.246-6.672 1.246-8.535 0-.798.93-1.198 2.796-1.198 3.725 0 9.281.165 16.669.499 7.389.334 12.945.499 16.677.499 18.233 0 28.52.135 30.847.399 1.667.2 2.499.899 2.499 2.097 0 10.049-.399 15.709-1.197 16.973-.667.933-6.424 7.488-17.275 19.668-6.989 7.922-17.538 19.703-31.646 35.343 22.164-.599 39.336-.899 51.517-.899 1.527.002 1.796 3.596.797 7.989zM779.181 103.21c0 4.927-2.127 8.221-6.39 9.884-2.857 1.063-23.458 3.03-61.796 5.891.86 5.856 4.09 10.848 9.68 14.976 5.329 3.928 11.052 5.891 17.173 5.891 10.521 0 20.168-3.395 28.953-10.184 1.067-.864 2.134-1.732 3.194-2.596.538 0 .882.065 1.055.2.165.134 1.411 2.448 3.738 6.937 2.334 4.496 3.497 6.906 3.497 7.24 0 .399-.536 1.164-1.597 2.296-9.784 10.383-22.33 15.575-37.644 15.575-15.437 0-27.754-4.609-36.939-13.826-9.185-9.22-13.777-21.517-13.777-36.892 0-13.712 4.393-25.659 13.178-35.842 9.254-10.583 20.603-15.874 34.049-15.874 12.511 0 22.963 4.592 31.35 13.777 8.186 8.92 12.276 19.768 12.276 32.547zm-23.762-6.089c0-5.526-2.175-10.417-6.534-14.676-4.365-4.259-9.274-6.39-14.728-6.39-6.128 0-11.567 2.461-16.325 7.388-4.759 4.926-7.141 10.448-7.141 16.573 0 1.398 1.197 2.097 3.595 2.097 9.853 0 21.634-.999 35.343-2.995 3.862-.534 5.79-1.199 5.79-1.997z"/><path fill="#007D32" d="M811.64 241.16c79.697 0 145.513-59.283 155.851-136.152.934 6.919 1.456 13.97 1.456 21.152 0 86.876-70.427 157.305-157.307 157.305-86.882 0-157.309-70.428-157.309-157.305 0-7.182.526-14.232 1.456-21.152 10.338 76.869 76.152 136.152 155.853 136.152z"/><path fill="#95C11F" d="M936.217 0c15.864 24.207 24.377 52.517 24.377 82.133 0 40.135-15.63 77.869-44.013 106.25-28.376 28.38-66.109 44.009-106.244 44.009-29.649 0-57.984-8.527-82.208-24.424 16.797 5.633 34.516 8.585 52.351 8.585 43.881 0 85.135-17.087 116.16-48.113C941.563 123.517 955.41 57.653 936.217 0"/></svg>