<svg xmlns="http://www.w3.org/2000/svg" width="323.42" height="283.465" viewBox="0 0 323.42 283.465"><path fill="#748797" d="M17.791 143.667c5.873-9.5 14.854-14.509 26.6-14.509 19.171 0 26.425 11.399 26.425 33.68v34.37c0 7.257 1.036 10.883 8.809 11.918v2.765c-4.836-.691-8.463-1.211-11.053-1.211-1.728 0-4.491.347-8.464 1.211 1.037-6.737 1.556-12.783 1.556-17.963v-31.09c0-17.79-4.319-26.427-19.344-26.427-16.582 0-24.354 9.674-24.354 28.846v31.951c0 7.257 1.036 10.883 8.809 11.918v2.765c-6.392-.864-10.881-1.211-13.3-1.211-2.417 0-7.081.347-13.472 1.211v-2.765c7.772-1.035 8.809-4.661 8.809-11.918v-52.16c0-5.7-1.209-7.081-5.354-7.427l-3.282-.346v-2.591c5.699-.863 11.745-3.282 18.654-7.082-.522 6.737-1.039 12.091-1.039 16.065zM97.757 146.602c7.427-11.571 16.926-17.443 28.671-17.443 19.863 0 35.408 16.927 35.408 42.66 0 23.146-15.891 40.935-36.271 40.935-11.053 0-20.554-5.526-27.808-16.407v31.09c0 7.253 1.037 10.707 8.809 11.918v2.762c-5.873-.688-10.191-1.208-13.3-1.208-3.108 0-7.6.52-13.472 1.208v-2.762c7.772-1.211 8.809-4.665 8.809-11.918v-82.388c0-5.7-1.209-7.081-5.354-7.427l-3.282-.346v-2.591c5.526-.69 11.572-3.282 18.827-7.082-.52 5.873-1.037 12.09-1.037 18.999zm-.173 24.181c0 22.282 12.782 35.063 26.944 35.063 13.991 0 26.945-12.78 26.945-31.955 0-23.144-12.091-37.652-27.982-37.652-12.781-.001-25.907 12.782-25.907 34.544zM176.862 167.503v4.146c0 17.614 13.99 34.197 33.508 34.197 8.635 0 16.753-4.146 24.525-12.265l-1.038 10.019c-7.772 6.564-16.926 10.018-26.252 10.018-23.317 0-41.107-18.652-41.107-43.007 0-24.009 16.926-42.145 37.653-42.145 20.553 0 34.197 13.991 34.197 36.271v2.766h-61.486zm51.469-6.392c0-15.372-11.572-26.254-24.007-26.254-13.817 0-25.044 10.19-27.116 26.6h51.123v-.346zM301.562 196.52c-5.872 10.707-14.68 16.233-26.598 16.233-18.137 0-26.425-10.361-26.425-30.917v-36.788c0-6.736-1.729-7.6-8.638-7.772v-2.418c5.7-.863 11.572-3.455 18.479-7.255-.688 3.109-.688 6.736-.688 10.882V180.11c0 17.099 4.835 25.39 19.171 25.39 16.064 0 24.353-10.534 24.353-31.608v-28.843c0-6.736-1.554-7.6-8.462-7.772v-2.418c5.7-.863 11.572-3.455 18.479-7.255-.861 4.665-1.034 10.019-1.034 16.064v53.541c0 7.257 1.034 10.883 8.807 11.918v2.765c-3.8-1.038-7.426-1.211-11.053-1.211-2.938 0-5.354.347-7.6 1.211.863-4.32 1.036-9.5 1.209-15.372z"/><g><path fill="#A4AA9A" d="M118.089 250.353c.996-.134 1.427-.536 1.427-1.398v-13.228c0-.269-.027-.51-.027-.697 0-.782-.404-1.134-1.4-1.295v-.54c1.023.138 1.831.191 2.396.191.512 0 1.186-.054 1.94-.164l9.211 13.794v-11.262c0-1.399-.188-1.831-1.59-2.046v-.514c.917.11 1.697.191 2.371.191.647 0 1.427-.054 2.316-.191v.514c-1.347.215-1.454.7-1.454 1.992v15.112h-1.858l-10.263-15.273v12.714c0 1.402.134 1.885 1.643 2.1v.54c-.917-.134-1.725-.215-2.397-.215-.782 0-1.536.081-2.316.215v-.54zM148.203 250.893a7.567 7.567 0 0 0-1.804-.215c-.431 0-.998.054-1.724.161l.081-2.425c-1.024 1.724-2.666 2.667-4.606 2.667-2.398 0-4.068-1.59-4.068-3.663 0-1.321.62-2.451 1.67-3.099.944-.591 2.398-.671 4.256-.916 1.75-.241 2.585-.402 2.585-1.804 0-1.426-1.077-2.479-2.936-2.479-1.992 0-3.448.996-3.851 2.559h-.54c.163-1.05.243-1.965.243-2.666v-.296c1.427-.646 2.8-.942 4.256-.942 3.528 0 5.118 1.536 5.118 4.739v6.467c0 .889.431 1.371 1.32 1.371v.541zm-9.698-3.744c0 1.238.996 2.261 2.425 2.261 2.155 0 3.744-1.644 3.744-4.417v-.808c-3.88.782-6.169.701-6.169 2.964zM152.89 234.382c-.511.728-1.105 1.184-1.886 1.426v2.29h-1.617v1.375h1.617v7.569c0 2.747 1.105 4.065 3.448 4.065.889 0 1.724-.241 2.532-.728l.081-1.641c-.7.456-1.32.698-1.966.698-1.455 0-1.831-.942-1.831-2.613v-7.352h3.528v-1.375h-3.528v-3.716h-.378zM158.41 250.353c1.186-.161 1.32-.751 1.32-1.938v-7.918c0-1.05-.215-1.241-1.293-1.295v-.456c1.132-.134 2.317-.54 3.664-1.131-.107.836-.134 1.697-.134 2.586v8.214c0 1.214.162 1.805 1.345 1.938v.514c-.914-.135-1.749-.215-2.477-.215-.619 0-1.427.08-2.425.215v-.514zm2.318-17.561c.809 0 1.508.701 1.508 1.59 0 .835-.673 1.509-1.562 1.509-.808 0-1.482-.674-1.482-1.536 0-.808.647-1.563 1.536-1.563zM164.821 244.51c0-4.041 2.882-6.814 6.493-6.814 3.582 0 6.463 2.773 6.463 6.678 0 4.015-2.881 6.815-6.489 6.815-3.585-.001-6.467-2.748-6.467-6.679zm6.815 5.333c2.076 0 3.8-1.912 3.8-4.578 0-3.88-2.022-6.225-4.447-6.225-2.072 0-3.823 1.942-3.823 4.608 0 3.851 2.045 6.195 4.47 6.195zM184.189 250.299v.567c-1.05-.135-1.831-.215-2.424-.215-.621 0-1.429.08-2.425.215v-.567c.996-.054 1.321-.482 1.321-1.532v-7.842c0-1.13 0-1.398-1.321-1.56v-.54c.942-.134 2.075-.62 3.501-1.237a29.37 29.37 0 0 0-.161 3.123c.513-1.751 2.073-2.854 4.041-2.854 3.149 0 4.257 1.938 4.257 5.926v4.984c0 1.05.321 1.479 1.317 1.532v.567c-.728-.135-1.398-.215-2.046-.215-.379 0-.915 0-1.643.134.08-.861.134-1.697.134-2.505V242.676c0-2.126-.647-3.122-2.237-3.122-1.237 0-2.448.7-3.068 1.831-.513.915-.54 1.911-.54 3.099v4.284c0 1.048.298 1.477 1.294 1.531zM205.873 250.893a7.57 7.57 0 0 0-1.805-.215c-.433 0-.996.054-1.724.161l.08-2.425c-1.023 1.724-2.666 2.667-4.604 2.667-2.398 0-4.068-1.59-4.068-3.663 0-1.321.62-2.451 1.67-3.099.942-.591 2.398-.671 4.256-.916 1.751-.241 2.586-.402 2.586-1.804 0-1.426-1.076-2.479-2.938-2.479-1.992 0-3.448.996-3.851 2.559h-.54c.161-1.05.245-1.965.245-2.666v-.296c1.426-.646 2.8-.942 4.256-.942 3.528 0 5.118 1.536 5.118 4.739v6.467c0 .889.429 1.371 1.318 1.371v.541zm-9.697-3.744c0 1.238.996 2.261 2.425 2.261 2.153 0 3.743-1.644 3.743-4.417v-.808c-3.881.782-6.168.701-6.168 2.964zM207.354 250.866c.97-.135 1.778-.215 2.398-.215.725 0 1.56.08 2.476.215v-.514c-1.211-.161-1.318-.751-1.318-1.938v-14.948c0-.808.026-1.696.134-2.586-1.318.564-2.532.996-3.689 1.131v.486c1.077.054 1.318.215 1.318 1.265v14.652c0 1.188-.107 1.777-1.318 1.938v.514zM220.552 250.353c1.294-.215 1.455-.671 1.455-1.885v-12.795c0-1.211-.188-1.696-1.455-1.911v-.514h6.358c4.766 0 7.19 1.942 7.19 5.47 0 2.854-2.236 5.092-5.631 5.092-1.67 0-2.747-.379-2.747-.755 0-.161.215-.295.621-.295.321 0 .566.026.781.026 2.827 0 4.417-1.59 4.417-3.907 0-2.639-1.831-4.014-5.523-4.014h-1.533v13.603c0 1.295.241 1.697 1.533 1.885v.54c-1.05-.134-1.966-.215-2.774-.215-.889 0-1.777.081-2.692.215v-.54zM236.333 244.186c.057 3.179 2.075 5.252 4.85 5.252 1.509 0 2.827-.591 4.041-1.805l-.269 1.969a7.208 7.208 0 0 1-4.394 1.533c-3.77 0-6.65-2.936-6.65-6.842 0-3.771 2.72-6.544 6.222-6.544 3.286 0 5.574 2.287 5.574 5.953 0 .161-.027.322-.027.483h-9.347zm3.665-5.039c-1.831 0-3.367 1.402-3.639 3.72h6.952c-.054-2.237-1.562-3.72-3.313-3.72zM247.162 250.353c1.184-.161 1.321-.751 1.321-1.938v-7.918c0-1.05-.218-1.241-1.295-1.295v-.456c1.157-.134 2.345-.54 3.609-1.131-.081.809-.107 1.778-.107 2.828.942-1.644 2.29-2.532 3.716-2.532.299 0 .567.054.835.161l.245 2.559h-.325c-.376-.376-.809-.647-1.426-.647-1.751 0-3.019 1.563-3.019 4.474v3.958c0 1.214.188 1.831 1.429 1.938v.514c-.969-.135-1.777-.215-2.505-.215-.701 0-1.509.08-2.479.215v-.515zM256.077 250.353c1.187-.161 1.32-.751 1.32-1.938v-7.918c0-1.05-.214-1.241-1.294-1.295v-.456c1.134-.134 2.317-.54 3.665-1.131-.106.836-.134 1.697-.134 2.586v8.214c0 1.214.161 1.805 1.345 1.938v.514c-.915-.135-1.75-.215-2.479-.215-.62 0-1.425.08-2.424.215v-.514zm2.317-17.561c.808 0 1.509.701 1.509 1.59 0 .835-.674 1.509-1.563 1.509-.809 0-1.482-.674-1.482-1.536 0-.808.646-1.563 1.536-1.563zM265.99 248.767v-3.639-.645c0-1.188.027-2.184.537-3.099a3.551 3.551 0 0 1 3.072-1.831c1.589 0 2.236.996 2.236 3.122V248.279c0 .808-.054 1.644-.134 2.505.725-.134 1.265-.134 1.641-.134.646 0 1.32.08 2.049.215v-.567c-.996-.054-1.321-.482-1.321-1.532v-4.984c0-3.987-1.104-5.926-4.256-5.926-1.966 0-3.528 1.104-4.039 2.854 0-1.077.054-2.127.161-3.123-1.429.617-2.559 1.104-3.501 1.237v.54c1.318.161 1.318.43 1.318 1.56v7.842c0 1.05-.322 1.479-1.318 1.532v.567c.996-.135 1.805-.215 2.425-.215.59 0 1.372.08 2.422.215v-.567c-.996-.053-1.292-.482-1.292-1.531zM288.967 250.893a7.588 7.588 0 0 0-1.805-.215c-.433 0-.999.054-1.724.161l.08-2.425c-1.025 1.724-2.669 2.667-4.607 2.667-2.398 0-4.068-1.59-4.068-3.663 0-1.321.62-2.451 1.67-3.099.945-.591 2.398-.671 4.256-.916 1.751-.241 2.586-.402 2.586-1.804 0-1.426-1.076-2.479-2.935-2.479-1.992 0-3.447.996-3.854 2.559h-.536c.16-1.05.241-1.965.241-2.666v-.296c1.429-.646 2.801-.942 4.256-.942 3.528 0 5.118 1.536 5.118 4.739v6.467c0 .889.433 1.371 1.321 1.371v.541zm-9.699-3.744c0 1.238.996 2.261 2.425 2.261 2.156 0 3.746-1.644 3.746-4.417v-.808c-3.881.782-6.171.701-6.171 2.964zM293.653 234.382c-.514.728-1.104 1.184-1.885 1.426v2.29h-1.617v1.375h1.617v7.569c0 2.747 1.104 4.065 3.447 4.065.889 0 1.724-.241 2.532-.728l.08-1.641c-.7.456-1.321.698-1.965.698-1.456 0-1.831-.942-1.831-2.613v-7.352h3.528v-1.375h-3.528v-3.716h-.378zM311.216 250.353c-.892 0-1.321-.482-1.321-1.371v-6.467c0-3.203-1.59-4.739-5.118-4.739-1.455 0-2.827.296-4.256.942v.296c0 .701-.08 1.616-.241 2.666h.537c.405-1.563 1.86-2.559 3.853-2.559 1.858 0 2.936 1.053 2.936 2.479 0 1.401-.836 1.563-2.586 1.804-1.858.245-3.313.325-4.256.916-1.05.647-1.671 1.777-1.671 3.099 0 2.073 1.671 3.663 4.068 3.663 1.938 0 3.582-.943 4.605-2.667l-.081 2.425c.728-.107 1.295-.161 1.724-.161.647 0 1.268.081 1.808.215v-.541zm-3.531-6.167v.808c0 2.773-1.587 4.417-3.743 4.417-1.429 0-2.425-1.022-2.425-2.261 0-2.264 2.291-2.183 6.168-2.964zM312.696 250.353c1.214-.161 1.321-.751 1.321-1.938v-14.652c0-1.05-.245-1.211-1.321-1.265v-.486c1.16-.135 2.371-.566 3.692-1.131a21.2 21.2 0 0 0-.138 2.586v14.948c0 1.188.11 1.777 1.321 1.938v.514c-.915-.135-1.75-.215-2.479-.215-.62 0-1.429.08-2.397.215v-.514zM130.964 260.759c0 1.398.134 2.693.322 3.904h-.512c-.35-2.181-1.104-2.291-3.097-2.291h-5.683v5.927h3.743c1.293 0 1.779-.107 1.994-1.453h.485c-.081.809-.161 1.533-.161 2.234s.027 1.455.134 2.264h-.458c-.215-1.349-.701-1.482-1.994-1.482h-3.743v6.815h5.871c2.479 0 3.206-.403 3.61-2.908h.511c-.27 1.426-.404 2.935-.431 4.551h-13.496v-.539c1.292-.215 1.455-.672 1.455-1.886v-12.714c0-1.211-.189-1.697-1.455-1.912v-.51h12.905zM137.913 282.683v.567c-1.024-.135-1.833-.215-2.425-.215-.647 0-1.454.08-2.425.215v-.567c.998-.054 1.32-.482 1.32-1.535v-12.715c0-1.157-.027-1.398-1.32-1.56v-.54c1.079-.188 2.237-.62 3.501-1.237a23.779 23.779 0 0 0-.161 2.692c.889-1.563 2.478-2.451 4.363-2.451 3.664 0 6.142 2.505 6.142 6.547 0 3.77-2.667 6.678-6.169 6.678-1.965 0-3.34-.671-4.121-1.992v4.578c.002 1.052.298 1.481 1.295 1.535zm2.316-5.628c2.532 0 4.256-1.968 4.256-5.091 0-3.126-1.697-5.091-4.337-5.091-2.398 0-3.61 1.697-3.61 5.091s1.186 5.091 3.691 5.091zM148.498 277.863c1.186-.164 1.32-.755 1.32-1.941v-7.919c0-1.05-.215-1.237-1.293-1.294v-.456c1.132-.135 2.317-.54 3.664-1.131-.107.835-.134 1.697-.134 2.586v8.214c0 1.214.161 1.805 1.347 1.941v.51c-.916-.134-1.751-.215-2.479-.215-.619 0-1.427.081-2.425.215v-.51zm2.317-17.563c.808 0 1.508.7 1.508 1.59 0 .835-.673 1.509-1.562 1.509-.808 0-1.482-.674-1.482-1.536 0-.809.648-1.563 1.536-1.563zM167.004 261.376v14.572c0 1.295.161 1.832 1.398 1.915v.51c-.835-.107-1.506-.188-1.992-.188s-1.05.054-1.751.188c.107-.7.135-1.509.188-2.479-.996 1.725-2.532 2.64-4.256 2.64-3.205 0-5.629-2.72-5.629-6.57 0-3.826 2.452-6.547 5.792-6.547 1.644 0 2.937.675 3.986 2.073v-5.333c0-1.455-.135-1.938-1.455-1.938h-.107v-.459c1.268-.215 2.585-.698 3.96-1.372-.08.888-.134 1.884-.134 2.988zm-9.59 10.451c0 3.099 1.644 5.117 3.691 5.117 2.02 0 3.689-1.885 3.689-5.034 0-3.179-1.616-4.983-3.663-4.983-2.02 0-3.717 1.831-3.717 4.9zM172.203 271.692c.054 3.18 2.073 5.252 4.847 5.252 1.509 0 2.83-.59 4.041-1.804l-.269 1.968a7.203 7.203 0 0 1-4.39 1.533c-3.773 0-6.654-2.935-6.654-6.842 0-3.77 2.721-6.543 6.222-6.543 3.287 0 5.577 2.287 5.577 5.952 0 .161-.026.322-.026.483h-9.348zm3.663-5.037c-1.832 0-3.367 1.401-3.636 3.719h6.949c-.054-2.236-1.563-3.719-3.313-3.719zM183.029 277.863c1.188-.164 1.321-.755 1.321-1.941v-7.919c0-1.05-.214-1.237-1.294-1.294v-.456c1.16-.135 2.344-.54 3.608-1.131-.08.97-.107 1.885-.134 2.666.781-1.535 2.21-2.425 3.8-2.425 1.805 0 3.042.943 3.501 2.613.781-1.67 2.234-2.586 4.015-2.586 2.287 0 3.743 1.509 3.743 4.068 0 .188.026.51.026 1.022v4.632c0 1.697.161 2.613 1.318 2.75v.51c-.805-.134-1.506-.215-2.1-.215-.402 0-.942.054-1.644.188.161-1.375.215-2.452.215-3.126v-4.118c0-2.64-.536-3.935-2.395-3.935-1.969 0-2.938 1.429-2.938 4.229v4.524c0 1.214.134 1.831 1.401 1.941v.51c-1.05-.134-1.858-.215-2.451-.215-.647 0-1.456.081-2.452.215v-.51c1.211-.164 1.321-.755 1.321-1.941v-4.873c0-2.56-.433-3.881-2.371-3.881-1.969 0-2.938 1.429-2.938 4.229v4.524c0 1.214.164 1.805 1.348 1.941v.51c-.915-.134-1.75-.215-2.479-.215-.62 0-1.428.081-2.425.215v-.506zM204.444 277.863c1.187-.164 1.321-.755 1.321-1.941v-7.919c0-1.05-.215-1.237-1.295-1.294v-.456c1.134-.135 2.317-.54 3.666-1.131-.11.835-.138 1.697-.138 2.586v8.214c0 1.214.164 1.805 1.348 1.941v.51c-.915-.134-1.75-.215-2.478-.215-.621 0-1.429.081-2.425.215v-.51zm2.317-17.563c.808 0 1.509.7 1.509 1.59 0 .835-.674 1.509-1.563 1.509-.809 0-1.482-.674-1.482-1.536 0-.809.648-1.563 1.536-1.563zM210.856 272.018c0-4.041 2.881-6.814 6.489-6.814 3.582 0 6.467 2.773 6.467 6.681 0 4.011-2.885 6.814-6.493 6.814-3.582-.001-6.463-2.751-6.463-6.681zm6.814 5.333c2.073 0 3.797-1.912 3.797-4.578 0-3.881-2.019-6.225-4.443-6.225-2.076 0-3.827 1.941-3.827 4.607 0 3.851 2.049 6.196 4.473 6.196zM225.375 277.863c1.211-.164 1.318-.755 1.318-1.941v-14.653c0-1.05-.241-1.211-1.318-1.265v-.485c1.157-.135 2.368-.567 3.689-1.131a21.774 21.774 0 0 0-.135 2.586v14.948c0 1.187.107 1.777 1.318 1.941v.51c-.915-.134-1.75-.215-2.479-.215-.617 0-1.425.081-2.395.215v-.51zM231.757 272.018c0-4.041 2.881-6.814 6.492-6.814 3.582 0 6.464 2.773 6.464 6.681 0 4.011-2.882 6.814-6.49 6.814-3.585-.001-6.466-2.751-6.466-6.681zm6.815 5.333c2.073 0 3.797-1.912 3.797-4.578 0-3.881-2.02-6.225-4.443-6.225-2.073 0-3.824 1.941-3.824 4.607-.001 3.851 2.045 6.196 4.47 6.196zM258.504 267.034c-.457.08-.782.08-.943.08-.51 0-1.05-.026-1.616-.161.835.781 1.241 1.617 1.241 2.693 0 2.479-2.237 4.632-5.226 4.632-1.053 0-1.941-.269-2.83-.809-.698.486-1.077.809-1.077 1.321 0 1.157 1.375 1.375 4.095 1.429 4.042.081 6.303.51 6.303 3.016 0 2.371-2.342 4.229-6.275 4.229-3.045 0-4.742-1.349-4.742-3.072 0-.402.137-.778.352-1.185l2.207-.835c-.295.514-.43.97-.43 1.429 0 1.372 1.157 2.371 2.989 2.371 2.075 0 3.447-1.106 3.447-2.344 0-1.241-1.13-1.617-3.257-1.617h-1.106c-1.59 0-2.854-.026-3.877-.432-1.106-.457-1.805-1.399-1.805-2.56 0-.241.027-.563.107-.889 1.05-.456 1.858-.889 2.371-1.345-.835-.889-1.268-1.938-1.268-3.072 0-2.72 2.13-4.632 5.333-4.632 1.375 0 2.776.51 4.554.51.698 0 1.318-.054 1.912-.188l-.459 1.431zm-9.183 2.398c0 2.02 1.452 3.475 3.069 3.475 1.429 0 2.666-1.214 2.666-2.911 0-1.911-1.345-3.394-2.988-3.394-1.483 0-2.747 1.106-2.747 2.83z"/><path fill="#A4AA9A" d="M259.852 268.164c-.459-1.237-.835-1.911-1.724-2.072v-.54c.754.134 1.59.188 2.505.188.835 0 1.644-.054 2.479-.188v.513c-.835.081-1.214.322-1.214.835 0 .188.054.457.161.809l2.723 7.865 2.613-7.865c.107-.325.161-.62.161-.862 0-.513-.379-.728-1.241-.781v-.513c.701.107 1.429.161 2.13.161.7 0 1.345-.027 2.046-.161v.513c-.862.135-1.211.781-1.616 1.938l-3.743 10.749c-1.077 3.069-1.912 4.659-3.961 4.659-.537 0-.996-.135-1.426-.46a23.972 23.972 0 0 0-.244-2.8h.485c.135.808.594 1.24 1.292 1.24.889 0 1.616-.594 1.915-1.509l.482-1.429-3.823-10.29zM280.377 260.92c.916 0 1.777-.054 2.693-.218v.54c-1.268.188-1.429.647-1.429 1.885v8.189c0 3.797.835 5.712 4.122 5.712 3.26 0 4.121-1.915 4.121-5.712V263.1c0-1.237-.164-1.67-1.455-1.885v-.513c.942.137 1.831.19 2.693.19.915 0 1.805-.054 2.693-.19v.513c-1.318.215-1.453.675-1.453 1.885v8.217c0 5.038-1.753 7.353-6.6 7.353-4.903 0-6.627-2.314-6.627-7.353v-8.189c0-1.185-.107-1.67-1.456-1.885v-.54a18.33 18.33 0 0 0 2.698.217zM300.038 277.807v.566c-1.05-.134-1.831-.215-2.421-.215-.621 0-1.429.081-2.425.215v-.566c.996-.054 1.317-.483 1.317-1.533v-7.841c0-1.13 0-1.398-1.317-1.56v-.54c.942-.134 2.072-.62 3.501-1.237a29.365 29.365 0 0 0-.161 3.122c.51-1.751 2.073-2.854 4.038-2.854 3.152 0 4.256 1.939 4.256 5.927v4.983c0 1.05.325 1.479 1.321 1.533v.566c-.728-.134-1.401-.215-2.046-.215-.379 0-.918 0-1.643.135.08-.862.134-1.697.134-2.506v-5.6c0-2.13-.647-3.126-2.237-3.126a3.545 3.545 0 0 0-3.068 1.831c-.513.916-.54 1.912-.54 3.1V276.275c0 1.048.295 1.478 1.291 1.532zM309.683 277.863c1.185-.164 1.318-.755 1.318-1.941v-7.919c0-1.05-.215-1.237-1.291-1.294v-.456c1.13-.135 2.314-.54 3.662-1.131-.107.835-.134 1.697-.134 2.586v8.214c0 1.214.161 1.805 1.345 1.941v.51c-.915-.134-1.751-.215-2.476-.215-.62 0-1.429.081-2.425.215v-.51zm2.315-17.563c.809 0 1.51.7 1.51 1.59 0 .835-.675 1.509-1.563 1.509-.808 0-1.479-.674-1.479-1.536-.002-.809.643-1.563 1.532-1.563zM319.621 261.89v3.716h3.528v1.375h-3.528v7.352c0 1.67.379 2.612 1.832 2.612.646 0 1.268-.241 1.968-.697l-.08 1.644c-.809.482-1.644.725-2.532.725-2.345 0-3.448-1.318-3.448-4.065v-7.569h-1.616v-1.375h1.616v-2.288c.779-.244 1.372-.7 1.886-1.428h.374z"/></g><g><path fill="#748797" d="M169.916 72.722c29.55 2.652 37.859-21.652 37.859-21.652 5.118-13.559 19.834-11.948 19.834-11.948 20.746 3.979-5.44 27.746-5.44 27.746-18.79 15.223-40.252 12.509-53.345 8.539 0 0-1.635-.394-1.455-1.676 0-.001.071-1.548 2.547-1.009z"/><path fill="#798B9B" d="M227.501 39.702c20.036 3.912-5.715 27.215-5.715 27.215-18.808 15.169-39.816 12.388-52.954 8.482 0 0-1.607-.39-1.429-1.671 0 0 .102-1.491 2.577-.951 29.551 2.651 38.012-21.395 38.012-21.395 5.211-13.5 19.509-11.68 19.509-11.68z"/><path fill="#7E909F" d="M227.394 40.282c19.326 3.846-5.989 26.686-5.989 26.686-18.822 15.112-39.378 12.266-52.566 8.422 0 0-1.577-.382-1.398-1.664 0 0 .131-1.432 2.606-.893 29.551 2.651 38.164-21.138 38.164-21.138 5.302-13.442 19.183-11.413 19.183-11.413z"/><path fill="#8294A4" d="M227.29 40.862c18.616 3.779-6.267 26.155-6.267 26.155-18.84 15.059-38.942 12.144-52.176 8.366 0 0-1.554-.378-1.371-1.658 0 0 .163-1.375 2.636-.837 29.554 2.651 38.316-20.879 38.316-20.879 5.396-13.384 18.862-11.147 18.862-11.147z"/><path fill="#8799A8" d="M227.182 41.442c17.906 3.713-6.541 25.624-6.541 25.624-18.855 15.005-38.504 12.022-51.784 8.31 0 0-1.527-.371-1.346-1.652 0 0 .194-1.318 2.666-.78 29.554 2.652 38.469-20.62 38.469-20.62 5.487-13.328 18.536-10.882 18.536-10.882z"/><path fill="#8C9DAC" d="M227.075 42.023c17.197 3.645-6.815 25.093-6.815 25.093-18.873 14.948-38.068 11.9-51.396 8.25 0 0-1.497-.365-1.315-1.646 0 0 .224-1.259 2.696-.724 29.553 2.655 38.617-20.361 38.617-20.361 5.582-13.266 18.213-10.612 18.213-10.612z"/><path fill="#91A2B1" d="M226.967 42.604c16.487 3.579-7.09 24.563-7.09 24.563-18.888 14.895-37.63 11.779-51.006 8.192 0 0-1.471-.359-1.289-1.64 0 0 .254-1.202 2.727-.667 29.554 2.654 38.77-20.104 38.77-20.104 5.675-13.208 17.888-10.344 17.888-10.344z"/><path fill="#97A6B5" d="M226.863 43.184c15.777 3.512-7.367 24.031-7.367 24.031-18.905 14.841-37.194 11.657-50.615 8.137 0 0-1.446-.355-1.262-1.635 0 0 .286-1.146 2.756-.61 29.557 2.655 38.922-19.845 38.922-19.845 5.767-13.15 17.566-10.078 17.566-10.078z"/><path fill="#9CABBA" d="M226.755 43.764c15.067 3.446-7.641 23.502-7.641 23.502-18.921 14.784-36.757 11.535-50.229 8.077 0 0-1.417-.348-1.231-1.629 0 0 .315-1.086 2.785-.552 29.557 2.654 39.074-19.588 39.074-19.588 5.862-13.091 17.242-9.81 17.242-9.81z"/><path fill="#A2B0BE" d="M170.505 73.217c29.557 2.655 39.226-19.329 39.226-19.329 5.953-13.033 16.917-9.544 16.917-9.544 14.357 3.379-7.915 22.971-7.915 22.971-18.939 14.731-36.321 11.414-49.838 8.021 0 0-1.39-.343-1.205-1.623 0-.001.347-1.029 2.815-.496z"/><path fill="#A2B0BE" d="M170.505 73.217c29.557 2.655 39.226-19.329 39.226-19.329 5.953-13.033 16.917-9.544 16.917-9.544 14.357 3.379-7.915 22.971-7.915 22.971-18.939 14.731-36.321 11.414-49.838 8.021 0 0-1.39-.343-1.205-1.623 0-.001.347-1.029 2.815-.496z"/><path fill="#A9B7C4" d="M226.317 45.01c13.743 3.27-6.791 21.466-7.823 22.358-18.154 14.234-35.896 11.295-49.273 7.973 0 0-1.452-.342-1.285-1.579 0 0 .328-.95 2.785-.44 28.969 2.546 38.803-18.455 38.951-18.695 5.81-12.417 16.076-9.772 16.645-9.617z"/><path fill="#B1BDCA" d="M225.989 45.677c13.129 3.16-5.673 19.96-7.733 21.745-17.367 13.736-35.474 11.176-48.707 7.927 0 0-1.518-.342-1.369-1.536 0 0 .311-.873 2.756-.385 28.385 2.437 38.379-17.585 38.677-18.063 5.669-11.8 15.237-9.997 16.376-9.688z"/><path fill="#B8C4CF" d="M225.658 46.344c12.515 3.051-4.548 18.455-7.644 21.131-16.58 13.24-35.048 11.059-48.141 7.88 0 0-1.584-.34-1.452-1.493 0 0 .292-.795 2.729-.329 27.797 2.327 37.955-16.711 38.405-17.43 5.524-11.182 14.394-10.223 16.103-9.759z"/><path fill="#C1CBD5" d="M225.327 47.01c11.9 2.941-3.427 16.95-7.552 20.518-15.795 12.744-34.623 10.939-47.576 7.833 0 0-1.646-.34-1.533-1.45 0 0 .274-.716 2.699-.273 27.209 2.218 37.531-15.84 38.131-16.797 5.383-10.565 13.555-10.45 15.831-9.831z"/><path fill="#C9D2DB" d="M224.999 47.675c11.286 2.833-2.306 15.446-7.462 19.907-15.008 12.246-34.2 10.82-47.01 7.785 0 0-1.712-.337-1.616-1.406 0 0 .256-.638 2.669-.219 26.625 2.11 37.108-14.966 37.856-16.165 5.24-9.944 12.715-10.673 15.563-9.902z"/><path fill="#D2DAE2" d="M224.667 48.342c10.672 2.723-1.184 13.94-7.369 19.294-14.224 11.749-33.777 10.701-46.446 7.739 0 0-1.774-.337-1.697-1.364 0 0 .238-.56 2.64-.163 26.037 2 36.685-14.095 37.582-15.532 5.099-9.327 11.875-10.9 15.29-9.974z"/><path fill="#DBE1E8" d="M224.336 49.009c10.058 2.614-.06 12.436-7.28 18.679-13.436 11.255-33.35 10.585-45.879 7.693 0 0-1.841-.335-1.781-1.321 0 0 .221-.481 2.613-.107 25.449 1.892 36.261-13.221 37.311-14.898 4.954-8.71 11.032-11.127 15.016-10.046z"/><path fill="#E4E9EE" d="M224.008 49.675c9.442 2.504 1.059 10.93-7.19 18.066-12.648 10.757-32.927 10.466-45.313 7.647 0 0-1.906-.336-1.864-1.278 0 0 .202-.404 2.583-.052 24.864 1.782 35.837-12.351 37.036-14.267 4.814-8.091 10.195-11.351 14.748-10.116z"/><path fill="#EEF1F4" d="M172.438 74.163c24.278 1.673 35.414-11.477 36.763-13.634 4.671-7.474 9.353-11.577 14.477-10.188 8.828 2.395 2.184 9.425-7.098 17.453-11.864 10.26-32.504 10.347-44.75 7.6 0 0-1.968-.334-1.944-1.234-.001 0 .185-.325 2.552.003z"/><path fill="#FFF" d="M230.131 42.086c-2.672-1.136-5.356-.599-6.543.003 1.449.263 3.645.319 6 1.328 2.452.808 3.364 2.663 3.478 4.181.967-1.101.09-4.647-2.935-5.512z"/><path fill="#748797" d="M228.151 32.924c8.59-1.73 14.161-10.102 12.426-18.703-1.73-8.589-10.105-14.152-18.694-12.422-7.689 1.548-12.911 8.417-12.696 15.997.023-7.058 4.995-13.365 12.183-14.813 8.217-1.655 16.222 3.664 17.877 11.88 1.655 8.217-3.665 16.22-11.882 17.875a15.08 15.08 0 0 1-8.565-.783 15.768 15.768 0 0 0 9.351.969z"/><path fill="#748797" d="M227.364 32.739c8.217-1.655 13.537-9.659 11.882-17.875-1.655-8.216-9.66-13.536-17.877-11.88-7.188 1.448-12.159 7.754-12.183 14.813.026.892.083 1.79.265 2.694.01.046.03.087.042.133-1.491-8.102 3.761-15.936 11.867-17.568 8.19-1.651 16.168 3.652 17.82 11.842 1.649 8.191-3.653 16.169-11.843 17.819-3.01.607-5.983.259-8.632-.81.033.014.06.036.093.051a15.1 15.1 0 0 0 8.566.781z"/><path fill="#758898" d="M227.337 32.715c8.189-1.649 13.492-9.627 11.843-17.819-1.652-8.19-9.63-13.493-17.82-11.842-8.106 1.633-13.358 9.466-11.867 17.568.009.042.027.079.036.121-1.551-8.114 3.704-15.982 11.819-17.616 8.166-1.645 16.117 3.64 17.764 11.805 1.644 8.165-3.642 16.116-11.805 17.761-3.03.61-6.027.258-8.688-.832.029.013.057.031.086.044a15.025 15.025 0 0 0 8.632.81z"/><path fill="#768999" d="M227.307 32.693c8.163-1.645 13.448-9.596 11.805-17.761-1.646-8.165-9.598-13.45-17.764-11.805-8.115 1.634-13.37 9.502-11.819 17.616.012.05.035.097.048.147-1.635-8.132 3.633-16.053 11.766-17.69 8.136-1.639 16.063 3.628 17.701 11.766 1.641 8.138-3.627 16.065-11.766 17.704a14.936 14.936 0 0 1-8.858-.918c.068.033.131.077.2.109a15.014 15.014 0 0 0 8.687.832z"/><path fill="#778A9A" d="M227.278 32.67c8.139-1.639 13.406-9.566 11.766-17.704-1.638-8.138-9.565-13.405-17.701-11.766-8.133 1.637-13.4 9.559-11.766 17.69.218.959.495 1.889.87 2.762a15.139 15.139 0 0 1-.841-2.733c-1.634-8.111 3.615-16.012 11.728-17.646s16.013 3.616 17.645 11.729c1.634 8.111-3.615 16.012-11.728 17.646-3.99.804-7.922-.073-11.089-2.121.713.478 1.477.867 2.258 1.225a14.928 14.928 0 0 0 8.858.918z"/><path fill="#788B9B" d="M227.25 32.648c8.112-1.634 13.361-9.535 11.728-17.646-1.632-8.112-9.532-13.363-17.645-11.729s-13.361 9.535-11.728 17.646c.191.956.486 1.864.841 2.733.016.034.039.061.054.096a14.847 14.847 0 0 1-.867-2.813c-1.632-8.086 3.603-15.961 11.688-17.589 8.085-1.628 15.959 3.606 17.587 11.69 1.632 8.085-3.603 15.96-11.688 17.589a14.892 14.892 0 0 1-11.131-2.156c.026.017.048.041.071.058 3.169 2.048 7.1 2.925 11.09 2.121z"/><path fill="#798C9C" d="M227.221 32.625c8.085-1.628 13.319-9.503 11.688-17.589-1.628-8.084-9.502-13.318-17.587-11.69-8.086 1.628-13.32 9.503-11.688 17.589.196.982.495 1.92.867 2.813a15.9 15.9 0 0 0 1.411 2.575 14.849 14.849 0 0 1-2.249-5.375c-1.625-8.059 3.591-15.907 11.649-17.531 8.059-1.624 15.909 3.594 17.531 11.653 1.626 8.059-3.591 15.907-11.649 17.531-4.608.929-9.108-.432-12.455-3.23.444.377.874.771 1.352 1.098a14.88 14.88 0 0 0 11.13 2.156z"/><path fill="#7A8D9C" d="M227.194 32.602c8.059-1.624 13.275-9.472 11.649-17.531-1.622-8.059-9.473-13.276-17.531-11.653-8.059 1.624-13.274 9.473-11.649 17.531a14.849 14.849 0 0 0 2.249 5.375c.018.024.042.043.057.067a14.764 14.764 0 0 1-2.278-5.425c-1.62-8.032 3.579-15.856 11.613-17.475 8.032-1.618 15.855 3.582 17.472 11.614 1.619 8.032-3.579 15.856-11.614 17.475-5.017 1.011-9.952-.64-13.347-3.979.287.285.621.509.925.771 3.345 2.797 7.845 4.159 12.454 3.23z"/><path fill="#7B8D9D" d="M227.161 32.58c8.035-1.618 13.233-9.443 11.614-17.475-1.616-8.032-9.439-13.232-17.472-11.614-8.034 1.618-13.233 9.442-11.613 17.475a14.779 14.779 0 0 0 2.278 5.425 16.021 16.021 0 0 0 1.846 2.21c3.394 3.338 8.33 4.989 13.347 3.979z"/><circle fill="#7B8D9D" cx="224.214" cy="18.061" r="14.786"/><circle fill="#7C8E9E" cx="224.214" cy="18.061" r="14.786"/><circle fill="#7C8E9E" cx="224.194" cy="18.086" r="14.738"/><circle fill="#7D8F9F" cx="224.194" cy="18.086" r="14.738"/><circle fill="#7D8F9F" cx="224.176" cy="18.111" r="14.69"/><circle fill="#7E90A0" cx="224.175" cy="18.111" r="14.689"/><circle fill="#7E90A0" cx="224.158" cy="18.135" r="14.64"/><circle fill="#7F91A1" cx="224.158" cy="18.135" r="14.64"/><circle fill="#7F91A1" cx="224.137" cy="18.161" r="14.592"/><circle fill="#8092A2" cx="224.137" cy="18.16" r="14.592"/><circle fill="#8092A2" cx="224.119" cy="18.186" r="14.543"/><circle fill="#8193A3" cx="224.119" cy="18.186" r="14.543"/><circle fill="#8193A3" cx="224.098" cy="18.211" r="14.494"/><circle fill="#8294A4" cx="224.098" cy="18.211" r="14.494"/><circle fill="#8294A4" cx="224.08" cy="18.237" r="14.446"/><circle fill="#8395A5" cx="224.08" cy="18.237" r="14.445"/><circle fill="#8395A5" cx="224.063" cy="18.26" r="14.396"/><circle fill="#8596A6" cx="224.062" cy="18.26" r="14.397"/><circle fill="#8596A6" cx="224.042" cy="18.286" r="14.348"/><circle fill="#8697A6" cx="224.042" cy="18.286" r="14.348"/><circle fill="#8697A6" cx="224.023" cy="18.311" r="14.3"/><circle fill="#8798A7" cx="224.023" cy="18.311" r="14.3"/><circle fill="#8798A7" cx="224.002" cy="18.337" r="14.251"/><circle fill="#8899A8" cx="224.002" cy="18.336" r="14.25"/><circle fill="#8899A8" cx="223.985" cy="18.362" r="14.202"/><circle fill="#899AA9" cx="223.984" cy="18.362" r="14.202"/><circle fill="#899AA9" cx="223.967" cy="18.386" r="14.153"/><circle fill="#8A9BAA" cx="223.967" cy="18.386" r="14.153"/><circle fill="#8A9BAA" cx="223.946" cy="18.411" r="14.104"/><circle fill="#8B9CAB" cx="223.946" cy="18.411" r="14.104"/><circle fill="#8B9CAB" cx="223.928" cy="18.436" r="14.056"/><circle fill="#8C9DAC" cx="223.928" cy="18.437" r="14.056"/><circle fill="#8C9DAC" cx="223.907" cy="18.462" r="14.008"/><circle fill="#8D9EAD" cx="223.907" cy="18.462" r="14.007"/><circle fill="#8D9EAD" cx="223.889" cy="18.487" r="13.958"/><circle fill="#8E9FAE" cx="223.889" cy="18.487" r="13.959"/><circle fill="#8E9FAE" cx="223.872" cy="18.511" r="13.91"/><circle fill="#8FA0AF" cx="223.872" cy="18.511" r="13.91"/><circle fill="#8FA0AF" cx="223.851" cy="18.536" r="13.86"/><circle fill="#90A1B0" cx="223.851" cy="18.536" r="13.861"/><circle fill="#90A1B0" cx="223.833" cy="18.562" r="13.811"/><circle fill="#91A2B1" cx="223.833" cy="18.562" r="13.812"/><circle fill="#91A2B1" cx="223.812" cy="18.587" r="13.762"/><circle fill="#93A3B2" cx="223.812" cy="18.587" r="13.764"/><circle fill="#93A3B2" cx="223.793" cy="18.613" r="13.714"/><circle fill="#94A4B3" cx="223.794" cy="18.613" r="13.715"/><circle fill="#94A4B3" cx="223.776" cy="18.636" r="13.665"/><circle fill="#95A5B3" cx="223.776" cy="18.636" r="13.667"/><circle fill="#95A5B3" cx="223.755" cy="18.662" r="13.616"/><circle fill="#96A6B4" cx="223.755" cy="18.662" r="13.618"/><path fill="#96A6B4" d="M226.416 31.987c-7.343 1.479-14.498-3.274-15.98-10.621-1.479-7.346 3.278-14.501 10.624-15.98 7.343-1.479 14.498 3.275 15.979 10.621 1.479 7.346-3.278 14.501-10.623 15.98z"/><path fill="#97A7B5" d="M237.039 16.007c-1.481-7.346-8.637-12.1-15.979-10.621-7.346 1.479-12.104 8.634-10.624 15.98 1.482 7.346 8.638 12.1 15.98 10.621 7.345-1.479 12.102-8.634 10.623-15.98z"/><circle fill="#97A7B5" cx="223.716" cy="18.712" r="13.519"/><circle fill="#98A8B6" cx="223.716" cy="18.712" r="13.52"/><circle fill="#98A8B6" cx="223.698" cy="18.738" r="13.47"/><circle fill="#99A9B7" cx="223.698" cy="18.738" r="13.469"/><path fill="#99A9B7" d="M226.332 31.919c-7.268 1.464-14.346-3.241-15.807-10.506-1.465-7.267 3.239-14.344 10.504-15.809 7.269-1.464 14.346 3.24 15.808 10.506 1.463 7.267-3.24 14.345-10.505 15.809z"/><path fill="#9BAAB8" d="M236.836 16.11c-1.462-7.266-8.539-11.97-15.808-10.506-7.265 1.464-11.969 8.542-10.504 15.809 1.461 7.265 8.539 11.97 15.807 10.506 7.266-1.464 11.969-8.542 10.505-15.809z"/><circle fill="#9BAAB8" cx="223.66" cy="18.787" r="13.373"/><circle fill="#9CABB9" cx="223.66" cy="18.787" r="13.372"/><path fill="#9CABB9" d="M226.272 31.874c-7.211 1.453-14.238-3.217-15.69-10.43-1.456-7.215 3.215-14.24 10.43-15.694 7.212-1.453 14.238 3.217 15.69 10.43 1.456 7.215-3.215 14.24-10.43 15.694z"/><circle fill="#9DACBA" cx="223.642" cy="18.812" r="13.323"/><circle fill="#9DACBA" cx="223.621" cy="18.838" r="13.275"/><circle fill="#9EADBB" cx="223.621" cy="18.838" r="13.274"/><circle fill="#9EADBB" cx="223.603" cy="18.863" r="13.227"/><circle fill="#9FAEBC" cx="223.603" cy="18.863" r="13.225"/><circle fill="#9FAEBC" cx="223.585" cy="18.887" r="13.179"/><circle fill="#A1AFBD" cx="223.585" cy="18.887" r="13.177"/><circle fill="#A1AFBD" cx="223.564" cy="18.912" r="13.128"/><circle fill="#A2B0BE" cx="223.564" cy="18.912" r="13.128"/><circle fill="#A2B0BE" cx="223.546" cy="18.938" r="13.079"/><circle fill="#A3B1BF" cx="223.546" cy="18.938" r="13.079"/><circle fill="#A3B1BF" cx="223.525" cy="18.963" r="13.031"/><circle fill="#A4B2C0" cx="223.525" cy="18.963" r="13.031"/><circle fill="#A4B2C0" cx="223.508" cy="18.988" r="12.982"/><circle fill="#A6B4C1" cx="223.508" cy="18.988" r="12.982"/><path fill="#A6B4C1" d="M226.04 31.69c-7 1.411-13.82-3.121-15.231-10.124-1.411-7.002 3.123-13.822 10.126-15.233 6.999-1.411 13.82 3.121 15.231 10.124 1.41 7.003-3.124 13.823-10.126 15.233z"/><circle fill="#A7B5C2" cx="223.487" cy="19.012" r="12.933"/><circle fill="#A7B5C2" cx="223.469" cy="19.038" r="12.885"/><circle fill="#A8B6C3" cx="223.469" cy="19.038" r="12.884"/><circle fill="#A8B6C3" cx="223.451" cy="19.063" r="12.836"/><circle fill="#A9B7C4" cx="223.451" cy="19.063" r="12.836"/><circle fill="#A9B7C4" cx="223.43" cy="19.088" r="12.787"/><circle fill="#ABB8C5" cx="223.43" cy="19.088" r="12.787"/><circle fill="#ABB8C5" cx="223.412" cy="19.114" r="12.739"/><circle fill="#ACB9C6" cx="223.412" cy="19.114" r="12.739"/><circle fill="#ACB9C6" cx="223.391" cy="19.137" r="12.69"/><circle fill="#ADBAC7" cx="223.392" cy="19.137" r="12.69"/><circle fill="#ADBAC7" cx="223.374" cy="19.163" r="12.641"/><circle fill="#AEBBC8" cx="223.373" cy="19.163" r="12.641"/><circle fill="#AEBBC8" cx="223.355" cy="19.188" r="12.593"/><circle fill="#B0BCC9" cx="223.355" cy="19.188" r="12.592"/><circle fill="#B0BCC9" cx="223.334" cy="19.213" r="12.544"/><circle fill="#B1BECA" cx="223.334" cy="19.213" r="12.544"/><circle fill="#B1BECA" cx="223.316" cy="19.239" r="12.495"/><circle fill="#B2BFCB" cx="223.317" cy="19.239" r="12.495"/><circle fill="#B2BFCB" cx="223.296" cy="19.263" r="12.446"/><circle fill="#B4C0CC" cx="223.296" cy="19.263" r="12.447"/><circle fill="#B4C0CC" cx="223.278" cy="19.288" r="12.398"/><circle fill="#B5C1CD" cx="223.278" cy="19.288" r="12.398"/><path fill="#B5C1CD" d="M225.7 31.418c-6.687 1.348-13.197-2.979-14.546-9.667-1.345-6.685 2.982-13.196 9.666-14.542 6.688-1.348 13.198 2.979 14.546 9.666 1.345 6.686-2.983 13.196-9.666 14.543z"/><circle fill="#B6C2CE" cx="223.26" cy="19.313" r="12.349"/><path fill="#B6C2CE" d="M225.667 31.396c-6.656 1.342-13.144-2.969-14.485-9.627-1.343-6.659 2.971-13.146 9.63-14.486 6.657-1.342 13.145 2.969 14.486 9.627 1.341 6.658-2.971 13.145-9.631 14.486z"/><circle fill="#B8C3CF" cx="223.239" cy="19.339" r="12.3"/><circle fill="#B8C3CF" cx="223.221" cy="19.364" r="12.25"/><circle fill="#B9C5D0" cx="223.221" cy="19.364" r="12.252"/><circle fill="#B9C5D0" cx="223.2" cy="19.388" r="12.201"/><circle fill="#BAC6D1" cx="223.2" cy="19.388" r="12.203"/><circle fill="#BAC6D1" cx="223.183" cy="19.413" r="12.153"/><circle fill="#BCC7D2" cx="223.182" cy="19.413" r="12.155"/><circle fill="#BCC7D2" cx="223.165" cy="19.438" r="12.104"/><circle fill="#BDC8D3" cx="223.165" cy="19.439" r="12.106"/><circle fill="#BDC8D3" cx="223.165" cy="19.439" r="12.055"/><circle fill="#BDC8D3" cx="223.165" cy="19.439" r="12.057"/><circle fill="#BDC8D3" cx="223.099" cy="19.525" r="11.891"/><circle fill="#BFC9D4" cx="223.099" cy="19.525" r="11.89"/><circle fill="#BFC9D4" cx="223.034" cy="19.61" r="11.726"/><circle fill="#C0CBD5" cx="223.033" cy="19.61" r="11.726"/><circle fill="#C0CBD5" cx="222.968" cy="19.697" r="11.561"/><circle fill="#C2CCD6" cx="222.968" cy="19.697" r="11.561"/><circle fill="#C2CCD6" cx="222.902" cy="19.783" r="11.397"/><path fill="#C3CDD7" d="M220.65 8.611c-6.167 1.244-10.164 7.253-8.92 13.422 1.243 6.171 7.253 10.165 13.424 8.922 6.168-1.244 10.164-7.253 8.921-13.423-1.244-6.17-7.254-10.163-13.425-8.921z"/><circle fill="#C3CDD7" cx="222.836" cy="19.87" r="11.231"/><circle fill="#C5CED8" cx="222.836" cy="19.87" r="11.231"/><circle fill="#C5CED8" cx="222.771" cy="19.955" r="11.067"/><path fill="#C6D0D9" d="M220.584 9.106c-5.991 1.206-9.869 7.043-8.661 13.035 1.205 5.992 7.042 9.869 13.033 8.663 5.992-1.206 9.869-7.043 8.661-13.035-1.203-5.992-7.04-9.87-13.033-8.663z"/><circle fill="#C6D0D9" cx="222.706" cy="20.041" r="10.903"/><circle fill="#C7D1DA" cx="222.706" cy="20.041" r="10.903"/><circle fill="#C7D1DA" cx="222.64" cy="20.128" r="10.737"/><circle fill="#C9D2DB" cx="222.64" cy="20.128" r="10.737"/><circle fill="#C9D2DB" cx="222.574" cy="20.213" r="10.572"/><circle fill="#CAD3DD" cx="222.574" cy="20.213" r="10.572"/><circle fill="#CAD3DD" cx="222.508" cy="20.299" r="10.408"/><circle fill="#CCD5DE" cx="222.508" cy="20.299" r="10.408"/><circle fill="#CCD5DE" cx="222.443" cy="20.386" r="10.242"/><circle fill="#CED6DF" cx="222.443" cy="20.386" r="10.242"/><circle fill="#CED6DF" cx="222.377" cy="20.471" r="10.078"/><circle fill="#CFD7E0" cx="222.377" cy="20.471" r="10.078"/><circle fill="#CFD7E0" cx="222.312" cy="20.557" r="9.913"/><circle fill="#D1D9E1" cx="222.312" cy="20.557" r="9.913"/><circle fill="#D1D9E1" cx="222.246" cy="20.644" r="9.748"/><circle fill="#D2DAE2" cx="222.246" cy="20.644" r="9.748"/><circle fill="#D2DAE2" cx="222.18" cy="20.729" r="9.584"/><circle fill="#D4DBE3" cx="222.18" cy="20.729" r="9.584"/><circle fill="#D4DBE3" cx="222.115" cy="20.815" r="9.418"/><path fill="#D5DDE4" d="M220.253 11.583c-5.097 1.026-8.398 5.994-7.372 11.092a9.42 9.42 0 0 0 18.467-3.719 9.418 9.418 0 0 0-11.095-7.373z"/><circle fill="#D5DDE4" cx="222.049" cy="20.901" r="9.254"/><circle fill="#D7DEE5" cx="222.049" cy="20.901" r="9.254"/><circle fill="#D7DEE5" cx="221.983" cy="20.988" r="9.089"/><circle fill="#D9DFE6" cx="221.983" cy="20.988" r="9.089"/><circle fill="#D9DFE6" cx="221.917" cy="21.073" r="8.924"/><circle fill="#DAE1E7" cx="221.917" cy="21.073" r="8.924"/><circle fill="#DAE1E7" cx="221.853" cy="21.159" r="8.759"/><circle fill="#DCE2E8" cx="221.853" cy="21.159" r="8.759"/><circle fill="#DCE2E8" cx="221.787" cy="21.246" r="8.595"/><circle fill="#DDE3E9" cx="221.787" cy="21.246" r="8.595"/><circle fill="#DDE3E9" cx="221.721" cy="21.331" r="8.429"/><path fill="#DFE5EB" d="M220.057 13.068c-4.563.919-7.52 5.364-6.601 9.927a8.43 8.43 0 0 0 9.929 6.599 8.431 8.431 0 0 0 6.601-9.927c-.922-4.565-5.366-7.519-9.929-6.599z"/><circle fill="#DFE5EB" cx="221.655" cy="21.417" r="8.265"/><path fill="#E1E6EC" d="M220.024 13.315a8.265 8.265 0 1 0 3.262 16.204 8.267 8.267 0 0 0 6.473-9.735 8.268 8.268 0 0 0-9.735-6.469z"/><path fill="#E1E6EC" d="M223.188 29.445a8.099 8.099 0 0 1-9.537-6.341 8.1 8.1 0 0 1 15.878-3.2 8.097 8.097 0 0 1-6.341 9.541z"/><path fill="#E2E7ED" d="M219.991 13.563a8.096 8.096 0 0 0-6.34 9.541 8.099 8.099 0 1 0 15.878-3.2 8.1 8.1 0 0 0-9.538-6.341z"/><circle fill="#E2E7ED" cx="221.524" cy="21.589" r="7.934"/><circle fill="#E4E9EE" cx="221.524" cy="21.589" r="7.934"/><circle fill="#E4E9EE" cx="221.458" cy="21.676" r="7.771"/><circle fill="#E6EAEF" cx="221.458" cy="21.676" r="7.771"/><circle fill="#E6EAEF" cx="221.393" cy="21.762" r="7.606"/><circle fill="#E7ECF0" cx="221.393" cy="21.762" r="7.606"/><circle fill="#E7ECF0" cx="221.327" cy="21.848" r="7.44"/><path fill="#E9EDF1" d="M219.857 14.555a7.441 7.441 0 0 0 2.941 14.588 7.442 7.442 0 1 0-2.941-14.588z"/><circle fill="#E9EDF1" cx="221.262" cy="21.933" r="7.276"/><circle fill="#EBEEF2" cx="221.262" cy="21.933" r="7.276"/><circle fill="#EBEEF2" cx="221.196" cy="22.02" r="7.112"/><circle fill="#ECF0F3" cx="221.196" cy="22.02" r="7.112"/><circle fill="#ECF0F3" cx="221.13" cy="22.106" r="6.946"/><circle fill="#EEF1F4" cx="221.13" cy="22.106" r="6.946"/><circle fill="#EEF1F4" cx="221.13" cy="22.106" r="6.781"/><circle fill="#EEF1F4" cx="221.13" cy="22.106" r="6.781"/><circle fill="#EEF1F4" cx="220.922" cy="22.378" r="6.296"/><g><circle fill="#F0F3F5" cx="220.922" cy="22.378" r="6.296"/></g><g><circle fill="#F0F3F5" cx="220.716" cy="22.651" r="5.812"/></g><g><circle fill="#F2F4F7" cx="220.716" cy="22.651" r="5.812"/></g><g><circle fill="#F2F4F7" cx="220.507" cy="22.922" r="5.329"/></g><g><circle fill="#F4F6F8" cx="220.507" cy="22.922" r="5.329"/></g><g><circle fill="#F4F6F8" cx="220.298" cy="23.195" r="4.844"/></g><g><circle fill="#F5F7F9" cx="220.298" cy="23.195" r="4.844"/></g><g><circle fill="#F5F7F9" cx="220.093" cy="23.466" r="4.36"/></g><g><circle fill="#F7F9FA" cx="220.093" cy="23.466" r="4.36"/></g><g><circle fill="#F7F9FA" cx="219.884" cy="23.74" r="3.875"/></g><g><circle fill="#F9FAFC" cx="219.884" cy="23.74" r="3.875"/></g><g><circle fill="#F9FAFC" cx="219.678" cy="24.011" r="3.391"/></g><g><circle fill="#FBFCFD" cx="219.678" cy="24.011" r="3.391"/></g><g><circle fill="#FBFCFD" cx="219.469" cy="24.284" r="2.907"/></g><g><circle fill="#FDFDFE" cx="219.469" cy="24.284" r="2.907"/></g><g><path fill="#FDFDFE" d="M219.741 26.929a2.423 2.423 0 1 1-.955-4.75 2.423 2.423 0 0 1 .955 4.75z"/></g><g><circle fill="#FFF" cx="219.264" cy="24.555" r="2.421"/></g><g><path fill="#FFF" d="M232.822 5.885c-4.003-2.616-8.44-2.195-10.45-1.39 2.242.039 6.102.244 9.669 2.568 3.525 2.386 5.213 5.866 6.12 7.918-.036-2.168-1.372-6.421-5.339-9.096z"/></g></g><g><path fill="#A4AA9A" d="M246.714 60.905c-11.488 22.861-35.671 54.991-81.744 58.814 0 0-48.735 4.402-42.369-29.464 0 0 5.219-24.987 37.729-9.582 0 0 46.438 23.325 82.472-22.288 0 0 1.509-2.142 3.34-.871-.001.001 1.664 1.19.572 3.391z"/><path fill="#A8AE9E" d="M245.667 58.362s1.574 1.151.482 3.353c-11.501 22.291-35.206 54.135-81.279 57.958 0 0-48.424 4.396-42.017-29.184 0 0 5.2-24.432 37.709-9.026 0 0 45.92 22.91 81.611-22.102.001 0 1.663-2.269 3.494-.999z"/><path fill="#ACB1A2" d="M245.194 59.211s1.483 1.111.393 3.313c-11.515 21.721-34.743 53.279-80.815 57.103 0 0-48.113 4.388-41.665-28.904 0 0 5.181-23.874 37.69-8.47 0 0 45.403 22.495 80.751-21.914-.001-.001 1.816-2.399 3.646-1.128z"/><path fill="#AFB5A6" d="M244.719 60.059s1.393 1.073.303 3.274c-11.528 21.15-34.278 52.422-80.35 56.246 0 0-47.803 4.381-41.313-28.624 0 0 5.162-23.318 37.67-7.913 0 0 44.886 22.078 79.891-21.729 0 0 1.97-2.525 3.799-1.254z"/><path fill="#B3B8AA" d="M244.246 60.906s1.302 1.035.213 3.236c-11.542 20.58-33.815 51.565-79.886 55.39 0 0-47.492 4.374-40.961-28.345 0 0 5.143-22.762 37.651-7.356 0 0 44.37 21.663 79.031-21.542-.001 0 2.123-2.653 3.952-1.383z"/><path fill="#B7BCAF" d="M243.772 61.755s1.211.995.122 3.196c-11.555 20.01-33.351 50.71-79.421 54.533 0 0-47.181 4.367-40.609-28.063 0 0 5.123-22.205 37.632-6.801 0 0 43.852 21.248 78.17-21.354.001 0 2.278-2.782 4.106-1.511z"/><path fill="#BBBFB3" d="M243.298 62.603s1.12.957.032 3.158c-11.568 19.439-32.888 49.854-78.957 53.677 0 0-46.87 4.36-40.257-27.784 0 0 5.104-21.648 37.613-6.244 0 0 43.335 20.833 77.31-21.168.001-.001 2.432-2.91 4.259-1.639z"/><path fill="#BEC3B7" d="M242.824 63.45s1.029.919-.058 3.12c-11.582 18.869-32.423 48.996-78.491 52.82 0 0-46.56 4.354-39.906-27.504 0 0 5.084-21.093 37.593-5.688 0 0 42.818 20.416 76.45-20.982.001.001 2.586-3.036 4.412-1.766z"/><path fill="#C2C6BB" d="M242.35 64.299s.938.879-.147 3.08c-11.596 18.299-31.96 48.141-78.027 51.965 0 0-46.249 4.346-39.554-27.225 0 0 5.065-20.535 37.574-5.131 0 0 42.302 20.001 75.59-20.795 0 0 2.739-3.165 4.564-1.894z"/><path fill="#C6CABF" d="M241.638 68.188c-11.608 17.729-31.495 47.284-77.563 51.108 0 0-45.938 4.339-39.202-26.944 0 0 5.046-19.979 37.555-4.575 0 0 41.784 19.586 74.729-20.608 0 0 2.893-3.293 4.718-2.022.001-.001.849.84-.237 3.041z"/><g><path fill="#C6CABF" d="M241.638 68.188c-11.608 17.729-31.495 47.284-77.563 51.108 0 0-45.938 4.339-39.202-26.944 0 0 5.046-19.979 37.555-4.575 0 0 41.784 19.586 74.729-20.608 0 0 2.893-3.293 4.718-2.022.001-.001.849.84-.237 3.041z"/><path fill="#CBCFC5" d="M240.711 66.785s.739.987-.451 3.208c-12.087 17.695-31.579 45.243-75.771 49.058 0 0-45.948 4.241-39.073-26.209 0 0 4.958-19.221 37.022-4.184 0 0 41.059 18.816 73.57-19.784 0 0 2.884-3.346 4.703-2.089z"/><path fill="#D0D4CB" d="M239.546 68.425s.631 1.133-.664 3.373c-12.565 17.662-31.663 43.203-73.979 47.006 0 0-45.959 4.145-38.945-25.473 0 0 4.869-18.463 36.489-3.793 0 0 40.334 18.049 72.411-18.96 0 0 2.875-3.397 4.688-2.153z"/><path fill="#D6D9D1" d="M238.381 70.063s.523 1.278-.877 3.539c-13.044 17.629-31.748 41.162-72.188 44.955 0 0-45.969 4.047-38.815-24.736 0 0 4.78-17.705 35.954-3.402 0 0 39.609 17.279 71.252-18.136 0 0 2.867-3.45 4.674-2.22z"/><path fill="#DBDED7" d="M237.216 71.703s.415 1.424-1.09 3.704c-13.522 17.596-31.832 39.122-70.396 42.903 0 0-45.979 3.95-38.688-24 0 0 4.691-16.946 35.421-3.011 0 0 38.885 16.511 70.093-17.313 0 .001 2.859-3.501 4.66-2.283z"/><path fill="#E0E2DC" d="M236.05 73.342s.308 1.57-1.302 3.871c-14 17.563-31.916 37.08-68.605 40.852 0 0-45.99 3.854-38.559-23.265 0 0 4.603-16.188 34.888-2.62 0 0 38.159 15.742 68.934-16.487 0-.001 2.849-3.555 4.644-2.351z"/><path fill="#E5E7E2" d="M234.885 74.981s.199 1.716-1.515 4.036c-14.479 17.529-32 35.04-66.813 38.8 0 0-46 3.757-38.431-22.528 0 0 4.514-15.43 34.354-2.229 0 0 37.435 14.974 67.774-15.664.001 0 2.842-3.606 4.631-2.415z"/><path fill="#EBECE8" d="M233.72 76.62s.092 1.861-1.728 4.202c-14.957 17.496-32.085 32.999-65.022 36.749 0 0-46.01 3.659-38.301-21.792 0 0 4.424-14.672 33.82-1.838 0 0 36.71 14.204 66.615-14.84 0 .001 2.833-3.659 4.616-2.481z"/><path fill="#F0F1EE" d="M232.555 78.26s-.017 2.007-1.94 4.367c-15.436 17.463-32.169 30.959-63.23 34.697 0 0-46.021 3.563-38.173-21.056 0 0 4.336-13.914 33.287-1.447 0 0 35.985 13.437 65.456-14.016-.001.001 2.823-3.71 4.6-2.545z"/><path fill="#F5F6F4" d="M229.237 84.432c-15.914 17.43-32.253 28.918-61.439 32.646 0 0-46.031 3.465-38.044-20.32 0 0 4.247-13.155 32.753-1.056 0 0 35.26 12.667 64.297-13.191 0 0 2.815-3.764 4.587-2.612-.001-.001-.126 2.153-2.154 4.533z"/></g><g><path fill="#FFF" d="M149.527 81.21c-6.323-1.992-12.634-.948-15.258 1.047 3.125-1.014 8.715-1.262 14.805.618 6.061 1.661 11.214 4.327 14.524 4.718-2.934-1.348-7.647-4.596-14.071-6.383z"/></g><g><path fill="#A4AA9A" d="M176.792 64.3c17.573-3.54 28.96-20.663 25.417-38.25C198.666 8.483 181.54-2.892 163.974.645c-16.63 3.351-27.701 18.875-25.83 35.421-1.311-15.501 9.169-29.86 24.786-33.005 16.807-3.387 33.174 7.492 36.563 24.298 3.385 16.807-7.495 33.175-24.299 36.56-6.063 1.222-12.061.563-17.422-1.537a32.283 32.283 0 0 0 19.02 1.918z"/><path fill="#A4AA9A" d="M175.194 63.918c16.804-3.385 27.684-19.753 24.299-36.56C196.104 10.552 179.737-.327 162.93 3.06c-15.616 3.145-26.097 17.504-24.786 33.005.105.932.229 1.866.419 2.802.018.085.046.166.064.25-3.035-16.545 7.723-32.533 24.279-35.868 16.737-3.373 33.037 7.462 36.41 24.199 3.37 16.736-7.463 33.037-24.2 36.409a30.759 30.759 0 0 1-17.802-1.694c.155.067.303.15.458.217a30.863 30.863 0 0 0 17.422 1.538z"/><path fill="#A5AB9B" d="M175.117 63.858c16.737-3.372 27.57-19.673 24.2-36.409-3.373-16.736-19.673-27.572-36.41-24.199-16.556 3.334-27.314 19.322-24.279 35.868.216 1.03.47 2.043.777 3.029a30.948 30.948 0 0 1-.623-2.447c-3.357-16.667 7.432-32.901 24.098-36.26 16.669-3.356 32.903 7.433 36.261 24.1 3.358 16.667-7.432 32.901-24.098 36.259-7.141 1.438-14.189.266-20.192-2.838a33.17 33.17 0 0 0 2.464 1.202 30.75 30.75 0 0 0 17.802 1.695z"/><path fill="#A6AC9C" d="M175.042 63.8c16.666-3.358 27.456-19.592 24.098-36.259-3.357-16.667-19.592-27.457-36.261-24.1-16.666 3.358-27.455 19.592-24.098 36.26.168.835.392 1.643.623 2.447.062.198.146.383.21.579a31.617 31.617 0 0 1-.759-2.984c-3.343-16.597 7.401-32.764 24-36.109 16.598-3.343 32.766 7.401 36.108 24 3.344 16.598-7.402 32.765-24 36.109-8.106 1.633-16.098-.112-22.555-4.241a32.183 32.183 0 0 0 2.441 1.461c6.004 3.102 13.053 4.274 20.193 2.837z"/><path fill="#A7AD9D" d="M174.964 63.742c16.598-3.345 27.344-19.512 24-36.109-3.343-16.599-19.511-27.343-36.108-24-16.599 3.345-27.344 19.512-24 36.109a31.54 31.54 0 0 0 .759 2.984c.333.999.706 1.976 1.126 2.922a30.631 30.631 0 0 1-1.808-5.866c-3.33-16.529 7.37-32.628 23.898-35.958 16.529-3.33 32.629 7.37 35.96 23.9 3.328 16.529-7.369 32.628-23.898 35.958-8.24 1.659-16.375-.17-22.873-4.468.133.091.255.196.389.286 6.458 4.13 14.449 5.875 22.555 4.242z"/><path fill="#A8AE9E" d="M174.893 63.683c16.529-3.33 27.227-19.43 23.898-35.958-3.331-16.531-19.431-27.23-35.96-23.9-16.529 3.33-27.228 19.43-23.898 35.958a30.56 30.56 0 0 0 1.808 5.866 32.25 32.25 0 0 0 2.869 5.175 30.273 30.273 0 0 1-4.602-11.001c-3.315-16.458 7.34-32.491 23.8-35.808 16.46-3.315 32.491 7.34 35.808 23.8 3.316 16.459-7.34 32.491-23.8 35.808-10.23 2.061-20.293-1.283-27.242-8.058a32.495 32.495 0 0 0 4.447 3.649c6.497 4.299 14.632 6.128 22.872 4.469z"/><path fill="#A9AF9F" d="M174.816 63.623c16.46-3.317 27.116-19.349 23.8-35.808C195.3 11.355 179.268.7 162.808 4.015c-16.46 3.316-27.115 19.349-23.8 35.808a30.273 30.273 0 0 0 4.602 11.001 32.214 32.214 0 0 0 3.964 4.742c6.948 6.774 17.011 10.118 27.242 8.057z"/><circle fill="#A9AF9F" cx="168.761" cy="33.884" r="30.275"/><circle fill="#AAB0A0" cx="168.761" cy="33.884" r="30.275"/><path fill="#AAB0A0" d="M139.157 39.904c-3.288-16.321 7.277-32.22 23.599-35.508 16.322-3.288 32.219 7.277 35.509 23.599 3.286 16.322-7.277 32.22-23.601 35.508-16.321 3.289-32.219-7.277-35.507-23.599z"/><circle fill="#ABB1A1" cx="168.71" cy="33.95" r="30.148"/><circle fill="#ABB1A1" cx="168.659" cy="34.017" r="30.02"/><circle fill="#ACB2A3" cx="168.659" cy="34.017" r="30.019"/><circle fill="#ACB2A3" cx="168.608" cy="34.083" r="29.892"/><circle fill="#ADB3A4" cx="168.609" cy="34.083" r="29.892"/><circle fill="#ADB3A4" cx="168.562" cy="34.148" r="29.764"/><circle fill="#AEB4A5" cx="168.561" cy="34.148" r="29.764"/><circle fill="#AEB4A5" cx="168.511" cy="34.214" r="29.636"/><circle fill="#AFB5A6" cx="168.51" cy="34.214" r="29.636"/><circle fill="#AFB5A6" cx="168.46" cy="34.28" r="29.508"/><circle fill="#B0B6A7" cx="168.46" cy="34.28" r="29.508"/><circle fill="#B0B6A7" cx="168.41" cy="34.345" r="29.38"/><circle fill="#B1B7A8" cx="168.409" cy="34.345" r="29.381"/><circle fill="#B1B7A8" cx="168.358" cy="34.412" r="29.253"/><circle fill="#B2B8A9" cx="168.358" cy="34.412" r="29.253"/><circle fill="#B2B8A9" cx="168.309" cy="34.478" r="29.125"/><circle fill="#B4B9AA" cx="168.308" cy="34.478" r="29.125"/><circle fill="#B4B9AA" cx="168.26" cy="34.543" r="28.997"/><circle fill="#B5B9AB" cx="168.26" cy="34.543" r="28.997"/><circle fill="#B5B9AB" cx="168.209" cy="34.609" r="28.87"/><circle fill="#B6BAAC" cx="168.209" cy="34.609" r="28.87"/><circle fill="#B6BAAC" cx="168.158" cy="34.675" r="28.743"/><circle fill="#B7BBAD" cx="168.158" cy="34.675" r="28.743"/><circle fill="#B7BBAD" cx="168.108" cy="34.742" r="28.616"/><circle fill="#B8BCAF" cx="168.107" cy="34.742" r="28.615"/><circle fill="#B8BCAF" cx="168.057" cy="34.807" r="28.487"/><path fill="#B9BDB0" d="M195.982 29.181c-3.107-15.422-18.127-25.406-33.551-22.3-15.423 3.108-25.407 18.129-22.3 33.553 3.107 15.423 18.129 25.406 33.551 22.3 15.426-3.108 25.408-18.129 22.3-33.553z"/><circle fill="#B9BDB0" cx="168.007" cy="34.873" r="28.36"/><circle fill="#BABEB1" cx="168.006" cy="34.873" r="28.359"/><circle fill="#BABEB1" cx="167.957" cy="34.938" r="28.232"/><circle fill="#BBBFB2" cx="167.955" cy="34.938" r="28.231"/><circle fill="#BBBFB2" cx="167.908" cy="35.004" r="28.104"/><circle fill="#BCC0B3" cx="167.907" cy="35.004" r="28.104"/><circle fill="#BCC0B3" cx="167.858" cy="35.07" r="27.976"/><circle fill="#BDC1B4" cx="167.857" cy="35.07" r="27.976"/><circle fill="#BDC1B4" cx="167.807" cy="35.137" r="27.849"/><circle fill="#BEC2B5" cx="167.806" cy="35.137" r="27.848"/><path fill="#BEC2B5" d="M173.232 62.377c-15.009 3.024-29.626-6.69-32.651-21.7-3.024-15.008 6.691-29.625 21.701-32.649 15.006-3.024 29.626 6.691 32.65 21.7 3.022 15.008-6.692 29.626-21.7 32.649z"/><circle fill="#BFC4B7" cx="167.757" cy="35.202" r="27.721"/><circle fill="#BFC4B7" cx="167.705" cy="35.268" r="27.593"/><path fill="#C0C5B8" d="M194.756 29.819c-3.013-14.939-17.561-24.61-32.5-21.601-14.939 3.009-24.61 17.561-21.601 32.499 3.009 14.939 17.561 24.61 32.498 21.6 14.94-3.008 24.613-17.56 21.603-32.498z"/><circle fill="#C0C5B8" cx="167.654" cy="35.333" r="27.465"/><circle fill="#C1C6B9" cx="167.655" cy="35.334" r="27.466"/><circle fill="#C1C6B9" cx="167.606" cy="35.399" r="27.337"/><circle fill="#C2C7BA" cx="167.608" cy="35.399" r="27.339"/><circle fill="#C2C7BA" cx="167.556" cy="35.467" r="27.21"/><circle fill="#C3C8BB" cx="167.557" cy="35.467" r="27.211"/><circle fill="#C3C8BB" cx="167.505" cy="35.532" r="27.082"/><circle fill="#C4C9BD" cx="167.506" cy="35.532" r="27.083"/><circle fill="#C4C9BD" cx="167.455" cy="35.598" r="26.955"/><circle fill="#C5CABE" cx="167.455" cy="35.598" r="26.955"/><circle fill="#C5CABE" cx="167.403" cy="35.663" r="26.826"/><circle fill="#C7CBBF" cx="167.405" cy="35.663" r="26.827"/><circle fill="#C7CBBF" cx="167.354" cy="35.729" r="26.7"/><circle fill="#C8CCC0" cx="167.354" cy="35.729" r="26.7"/><circle fill="#C8CCC0" cx="167.304" cy="35.795" r="26.573"/><path fill="#C9CDC1" d="M193.352 30.547c-2.899-14.386-16.911-23.699-31.297-20.801-14.386 2.899-23.699 16.911-20.802 31.296 2.899 14.387 16.911 23.699 31.299 20.802 14.384-2.9 23.698-16.911 20.8-31.297z"/><circle fill="#C9CDC1" cx="167.255" cy="35.862" r="26.444"/><circle fill="#CACEC3" cx="167.255" cy="35.862" r="26.444"/><circle fill="#CACEC3" cx="167.205" cy="35.927" r="26.317"/><circle fill="#CBCFC4" cx="167.204" cy="35.927" r="26.317"/><circle fill="#CBCFC4" cx="167.153" cy="35.993" r="26.189"/><circle fill="#CCD0C5" cx="167.154" cy="35.993" r="26.189"/><circle fill="#CCD0C5" cx="167.103" cy="36.059" r="26.061"/><circle fill="#CDD1C6" cx="167.103" cy="36.058" r="26.062"/><circle fill="#CDD1C6" cx="167.052" cy="36.124" r="25.933"/><circle fill="#CED2C8" cx="167.052" cy="36.124" r="25.934"/><circle fill="#CED2C8" cx="167.001" cy="36.191" r="25.805"/><circle fill="#CFD3C9" cx="167.001" cy="36.191" r="25.805"/><circle fill="#CFD3C9" cx="166.953" cy="36.257" r="25.678"/><circle fill="#D1D4CA" cx="166.954" cy="36.257" r="25.678"/><circle fill="#D1D4CA" cx="166.903" cy="36.322" r="25.55"/><circle fill="#D2D5CB" cx="166.903" cy="36.322" r="25.55"/><circle fill="#D2D5CB" cx="166.851" cy="36.388" r="25.422"/><circle fill="#D3D6CD" cx="166.852" cy="36.388" r="25.422"/><circle fill="#D3D6CD" cx="166.802" cy="36.454" r="25.295"/><circle fill="#D4D7CE" cx="166.802" cy="36.454" r="25.295"/><circle fill="#D4D7CE" cx="166.751" cy="36.519" r="25.167"/><circle fill="#D5D8CF" cx="166.751" cy="36.519" r="25.167"/><circle fill="#D5D8CF" cx="166.7" cy="36.586" r="25.039"/><circle fill="#D6D9D0" cx="166.7" cy="36.586" r="25.039"/><circle fill="#D6D9D0" cx="166.653" cy="36.652" r="24.911"/><circle fill="#D7DAD2" cx="166.652" cy="36.652" r="24.911"/><circle fill="#D7DAD2" cx="166.602" cy="36.718" r="24.783"/><circle fill="#D8DCD3" cx="166.602" cy="36.718" r="24.783"/><circle fill="#D8DCD3" cx="166.602" cy="36.718" r="24.658"/><circle fill="#D8DCD3" cx="166.601" cy="36.718" r="24.657"/><circle fill="#D8DCD3" cx="166.429" cy="36.944" r="24.225"/><circle fill="#DADDD4" cx="166.429" cy="36.944" r="24.225"/><circle fill="#DADDD4" cx="166.254" cy="37.173" r="23.793"/><circle fill="#DBDED6" cx="166.254" cy="37.173" r="23.793"/><circle fill="#DBDED6" cx="166.08" cy="37.399" r="23.363"/><circle fill="#DCDFD7" cx="166.08" cy="37.399" r="23.363"/><circle fill="#DCDFD7" cx="165.906" cy="37.627" r="22.931"/><circle fill="#DDE0D8" cx="165.906" cy="37.627" r="22.931"/><circle fill="#DDE0D8" cx="165.734" cy="37.854" r="22.499"/><circle fill="#DEE1DA" cx="165.734" cy="37.854" r="22.499"/><circle fill="#DEE1DA" cx="165.56" cy="38.082" r="22.068"/><circle fill="#E0E2DB" cx="165.56" cy="38.082" r="22.068"/><circle fill="#E0E2DB" cx="165.388" cy="38.309" r="21.636"/><circle fill="#E1E3DC" cx="165.388" cy="38.309" r="21.636"/><circle fill="#E1E3DC" cx="165.215" cy="38.536" r="21.204"/><circle fill="#E2E4DE" cx="165.215" cy="38.536" r="21.204"/><circle fill="#E2E4DE" cx="165.043" cy="38.764" r="20.774"/><circle fill="#E3E6DF" cx="165.043" cy="38.764" r="20.774"/><circle fill="#E3E6DF" cx="164.869" cy="38.99" r="20.342"/><circle fill="#E4E7E0" cx="164.869" cy="38.99" r="20.342"/><circle fill="#E4E7E0" cx="164.695" cy="39.218" r="19.909"/><path fill="#E6E8E2" d="M160.764 19.701c-10.779 2.171-17.758 12.669-15.585 23.45 2.171 10.779 12.669 17.757 23.448 15.584 10.782-2.171 17.758-12.669 15.587-23.449-2.172-10.779-12.671-17.758-23.45-15.585z"/><circle fill="#E6E8E2" cx="164.52" cy="39.445" r="19.479"/><circle fill="#E7E9E3" cx="164.52" cy="39.445" r="19.479"/><circle fill="#E7E9E3" cx="164.346" cy="39.672" r="19.047"/><circle fill="#E8EAE4" cx="164.346" cy="39.672" r="19.047"/><circle fill="#E8EAE4" cx="164.175" cy="39.9" r="18.615"/><circle fill="#E9EBE6" cx="164.175" cy="39.9" r="18.615"/><circle fill="#E9EBE6" cx="164.001" cy="40.127" r="18.185"/><circle fill="#EBECE7" cx="164.001" cy="40.127" r="18.185"/><circle fill="#EBECE7" cx="163.829" cy="40.355" r="17.753"/><circle fill="#ECEDE9" cx="163.829" cy="40.355" r="17.753"/><circle fill="#ECEDE9" cx="163.655" cy="40.581" r="17.32"/><circle fill="#EDEEEA" cx="163.655" cy="40.581" r="17.32"/><circle fill="#EDEEEA" cx="163.481" cy="40.808" r="16.89"/><circle fill="#EEF0EB" cx="163.481" cy="40.808" r="16.89"/><circle fill="#EEF0EB" cx="163.309" cy="41.036" r="16.458"/><circle fill="#EFF1ED" cx="163.309" cy="41.036" r="16.458"/><circle fill="#EFF1ED" cx="163.135" cy="41.263" r="16.027"/><path fill="#F1F2EE" d="M159.97 25.551c-8.676 1.749-14.293 10.2-12.546 18.877 1.75 8.676 10.2 14.294 18.876 12.546 8.68-1.749 14.295-10.2 12.548-18.877-1.748-8.676-10.2-14.293-18.878-12.546z"/><circle fill="#F1F2EE" cx="162.961" cy="41.491" r="15.595"/><circle fill="#F2F3F0" cx="162.961" cy="41.491" r="15.595"/><circle fill="#F2F3F0" cx="162.787" cy="41.718" r="15.163"/><circle fill="#F3F4F1" cx="162.787" cy="41.718" r="15.163"/><circle fill="#F3F4F1" cx="162.615" cy="41.946" r="14.733"/><circle fill="#F4F5F3" cx="162.615" cy="41.946" r="14.733"/><circle fill="#F4F5F3" cx="162.441" cy="42.172" r="14.301"/><circle fill="#F5F6F4" cx="162.441" cy="42.172" r="14.301"/><circle fill="#F5F6F4" cx="162.44" cy="42.173" r="13.869"/><path fill="#F5F6F4" d="M159.702 28.577c-7.508 1.512-12.37 8.827-10.856 16.335 1.512 7.508 8.827 12.37 16.333 10.856 7.51-1.513 12.371-8.827 10.859-16.335-1.515-7.508-8.828-12.37-16.336-10.856z"/><circle fill="#F5F6F4" cx="161.895" cy="42.889" r="12.631"/><circle fill="#F7F8F6" cx="161.895" cy="42.889" r="12.631"/><circle fill="#F7F8F6" cx="161.351" cy="43.604" r="11.392"/><circle fill="#F8F9F7" cx="161.351" cy="43.604" r="11.392"/><circle fill="#F8F9F7" cx="160.805" cy="44.32" r="10.154"/><circle fill="#FAFAF9" cx="160.805" cy="44.32" r="10.154"/><circle fill="#FAFAF9" cx="160.26" cy="45.036" r="8.916"/><circle fill="#FBFBFA" cx="160.26" cy="45.036" r="8.916"/><circle fill="#FBFBFA" cx="159.714" cy="45.752" r="7.678"/><circle fill="#FCFDFC" cx="159.714" cy="45.752" r="7.678"/><circle fill="#FCFDFC" cx="159.168" cy="46.466" r="6.439"/><circle fill="#FEFEFD" cx="159.168" cy="46.466" r="6.439"/><circle fill="#FEFEFD" cx="158.622" cy="47.182" r="5.201"/><circle fill="#FFF" cx="158.622" cy="47.182" r="5.201"/></g><g><path fill="#FFF" d="M186.336 8.351c-8.166-5.458-17.357-4.766-21.539-3.083 4.575-.224 12.771.17 20.186 5.121 7.444 4.909 10.987 12.312 12.544 16.619-.06-4.505-2.988-13.253-11.191-18.657z"/></g></g></svg>