<svg xmlns="http://www.w3.org/2000/svg" width="570.2" height="283.5" viewBox="0 0 570.2 283.5"><g fill="#009490"><path d="M280 40.3h-37.6v20.3H277c2.6 0 4.5.6 5.7 1.7 1.3 1.1 1.9 2.7 1.9 4.5 0 1.9-.6 3.4-1.9 4.6-1.2 1.2-3.2 1.8-5.7 1.8h-34.7v23.5h38.9c2.6 0 4.6.6 5.9 1.8 1.3 1.2 2 2.8 2 4.9 0 2-.7 3.5-2 4.8-1.3 1.2-3.3 1.8-5.9 1.8h-45.4c-3.6 0-6.3-.8-7.8-2.4-1.6-1.6-2.4-4.2-2.4-7.8v-62c0-2.4.4-4.4 1.1-5.9.7-1.5 1.8-2.6 3.3-3.3 1.5-.7 3.5-1 5.8-1H280c2.7 0 4.6.6 5.9 1.8 1.3 1.2 1.9 2.7 1.9 4.6 0 2-.6 3.5-1.9 4.7-1.3 1-3.2 1.6-5.9 1.6zM365.2 85.2c0 5-1.3 9.5-3.9 13.4-2.6 4-6.3 7.1-11.3 9.3-5 2.3-10.8 3.4-17.6 3.4-8.1 0-14.9-1.5-20.1-4.6-3.8-2.2-6.8-5.2-9.1-8.9s-3.5-7.3-3.5-10.8c0-2 .7-3.8 2.1-5.2 1.4-1.4 3.2-2.2 5.4-2.2 1.8 0 3.3.6 4.5 1.7 1.2 1.1 2.3 2.8 3.1 5 1 2.6 2.2 4.8 3.4 6.6 1.2 1.8 2.9 3.2 5.1 4.4 2.2 1.1 5.1 1.7 8.7 1.7 5 0 9-1.2 12.1-3.5 3.1-2.3 4.6-5.2 4.6-8.6 0-2.7-.8-5-2.5-6.7-1.7-1.7-3.8-3-6.5-3.9-2.6-.9-6.2-1.9-10.6-2.9-5.9-1.4-10.9-3-14.9-4.9-4-1.9-7.2-4.4-9.5-7.6-2.3-3.2-3.5-7.2-3.5-12 0-4.5 1.2-8.6 3.7-12.1s6.1-6.2 10.7-8.1c4.7-1.9 10.2-2.8 16.5-2.8 5.1 0 9.4.6 13.1 1.9 3.7 1.3 6.8 2.9 9.2 5 2.4 2.1 4.2 4.3 5.3 6.6 1.1 2.3 1.7 4.5 1.7 6.7 0 2-.7 3.8-2.1 5.4-1.4 1.6-3.2 2.4-5.3 2.4-1.9 0-3.4-.5-4.4-1.4-1-1-2.1-2.5-3.2-4.7-1.5-3.1-3.3-5.5-5.4-7.3-2.1-1.7-5.5-2.6-10.1-2.6-4.3 0-7.8.9-10.4 2.8-2.6 1.9-4 4.2-4 6.8 0 1.7.5 3.1 1.4 4.3.9 1.2 2.1 2.2 3.7 3.1 1.6.9 3.2 1.5 4.8 2 1.6.5 4.3 1.2 8 2.1 4.7 1.1 8.9 2.3 12.6 3.6 3.8 1.3 7 2.9 9.6 4.8 2.6 1.9 4.7 4.2 6.2 7.1 1.7 3 2.4 6.5 2.4 10.7zM407.2 97.5L394 44.9v56.9c0 3.2-.7 5.5-2.1 7.1-1.4 1.6-3.3 2.4-5.6 2.4s-4.1-.8-5.5-2.3c-1.4-1.6-2.1-3.9-2.1-7.1V36.6c0-3.6.9-6 2.8-7.3 1.9-1.3 4.4-1.9 7.6-1.9h5.2c3.1 0 5.4.3 6.8.8 1.4.6 2.4 1.6 3.1 3 .7 1.5 1.4 3.8 2.3 7.1l12 45.2 12-45.2c.9-3.3 1.6-5.7 2.3-7.1.7-1.5 1.7-2.5 3.1-3 1.4-.6 3.7-.8 6.8-.8h5.2c3.2 0 5.7.6 7.6 1.9 1.9 1.3 2.8 3.7 2.8 7.3v65.3c0 3.2-.7 5.5-2.1 7.1-1.4 1.6-3.3 2.4-5.7 2.4-2.2 0-4-.8-5.5-2.4-1.4-1.6-2.1-3.9-2.1-7.1v-57l-13.2 52.6c-.9 3.4-1.6 5.9-2.1 7.5-.5 1.6-1.5 3-3 4.4-1.5 1.3-3.5 2-6.1 2-2 0-3.6-.4-5-1.3-1.4-.8-2.4-1.9-3.2-3.2-.8-1.3-1.3-2.8-1.8-4.4-.4-1.6-.8-3.3-1.3-5zM482.1 41.7c-2.1 0-4-.7-5.5-2s-2.3-3.2-2.3-5.6c0-2.2.8-4 2.3-5.4 1.6-1.4 3.4-2.1 5.4-2.1 2 0 3.8.6 5.3 1.9 1.5 1.3 2.3 3.1 2.3 5.6 0 2.4-.8 4.2-2.3 5.5-1.4 1.5-3.2 2.1-5.2 2.1zm7.6 15.9V102c0 3.1-.7 5.4-2.2 7-1.5 1.6-3.3 2.4-5.6 2.4s-4.1-.8-5.5-2.4c-1.4-1.6-2.1-3.9-2.1-6.9V58c0-3 .7-5.3 2.1-6.9 1.4-1.5 3.2-2.3 5.5-2.3s4.1.8 5.6 2.3c1.4 1.6 2.2 3.8 2.2 6.5zM561 40.3h-37.6v20.3H558c2.6 0 4.5.6 5.7 1.7 1.3 1.1 1.9 2.7 1.9 4.5 0 1.9-.6 3.4-1.9 4.6-1.2 1.2-3.2 1.8-5.7 1.8h-34.7v23.5h38.9c2.6 0 4.6.6 5.9 1.8 1.3 1.2 2 2.8 2 4.9 0 2-.7 3.5-2 4.8-1.3 1.2-3.3 1.8-5.9 1.8h-45.4c-3.6 0-6.3-.8-7.8-2.4-1.6-1.6-2.4-4.2-2.4-7.8v-62c0-2.4.4-4.4 1.1-5.9.7-1.5 1.8-2.6 3.3-3.3 1.5-.7 3.5-1 5.8-1H561c2.7 0 4.6.6 5.9 1.8 1.3 1.2 1.9 2.7 1.9 4.6 0 2-.6 3.5-1.9 4.7-1.3 1-3.3 1.6-5.9 1.6z"/><g><path d="M312.9 132.6h-8.6v4.6h7.9c.6 0 1 .1 1.3.4.3.3.4.6.4 1s-.1.8-.4 1c-.3.3-.7.4-1.3.4h-7.9v5.4h8.9c.6 0 1.1.1 1.4.4.3.3.5.6.5 1.1 0 .4-.2.8-.5 1.1-.3.3-.8.4-1.4.4h-10.4c-.8 0-1.4-.2-1.8-.6-.4-.4-.5-1-.5-1.8v-14c0-.5.1-1 .2-1.3.2-.3.4-.6.8-.8.3-.2.8-.2 1.3-.2h10.1c.6 0 1.1.1 1.4.4.3.3.4.6.4 1.1 0 .4-.1.8-.4 1.1-.4.1-.8.3-1.4.3zM320.9 136.5v.4c.6-.8 1.3-1.4 2-1.8.7-.4 1.6-.6 2.5-.6.9 0 1.7.2 2.5.6.7.4 1.3 1 1.6 1.7.2.4.4.9.4 1.4.1.5.1 1.1.1 1.9v6.5c0 .7-.2 1.2-.5 1.6-.3.4-.7.5-1.3.5-.5 0-.9-.2-1.3-.6-.3-.4-.5-.9-.5-1.6v-5.8c0-1.2-.2-2-.5-2.6-.3-.6-1-.9-1.9-.9-.6 0-1.2.2-1.7.6-.5.4-.9.9-1.1 1.5-.2.5-.3 1.5-.3 2.9v4.4c0 .7-.2 1.2-.5 1.6-.3.4-.8.5-1.3.5s-.9-.2-1.2-.6c-.3-.4-.5-.9-.5-1.6v-10.1c0-.7.1-1.2.4-1.5.3-.3.7-.5 1.2-.5.3 0 .6.1.8.2.2.1.4.4.6.7.5.4.5.7.5 1.2zM337.1 131.4v5.2c.4-.5.9-.9 1.3-1.2.4-.3.9-.5 1.4-.7.5-.1 1.1-.2 1.7-.2.9 0 1.7.2 2.4.6.7.4 1.2.9 1.6 1.6.2.4.4.9.5 1.4.1.5.1 1.1.1 1.8v6.7c0 .7-.2 1.2-.5 1.6s-.7.5-1.3.5c-1.2 0-1.7-.7-1.7-2.1v-5.9c0-1.1-.2-2-.5-2.6-.3-.6-1-.9-1.9-.9-.6 0-1.2.2-1.7.5-.5.4-.9.8-1.1 1.5-.2.5-.3 1.4-.3 2.8v4.6c0 .7-.2 1.2-.5 1.6-.3.4-.7.5-1.3.5-1.2 0-1.7-.7-1.7-2.1v-15.2c0-.7.2-1.2.5-1.6.3-.4.7-.5 1.3-.5.6 0 1 .2 1.3.5s.4.9.4 1.6zM358.4 146.8c-.8.7-1.7 1.2-2.5 1.5-.8.3-1.7.5-2.7.5-.9 0-1.7-.2-2.4-.5-.7-.4-1.2-.8-1.6-1.4-.4-.6-.6-1.3-.6-2 0-1 .3-1.8.9-2.5.6-.7 1.4-1.1 2.5-1.4.2-.1.8-.2 1.7-.3s1.6-.3 2.3-.5c.6-.1 1.3-.3 2-.5 0-.9-.2-1.6-.6-2-.3-.4-1-.6-2-.6-.9 0-1.6.1-2 .4-.4.2-.8.6-1.2 1.1-.3.5-.5.8-.7 1-.1.2-.4.2-.9.2-.4 0-.7-.1-1-.4-.3-.3-.4-.6-.4-1 0-.6.2-1.2.7-1.8.4-.6 1.1-1.1 2-1.4.9-.4 2.1-.6 3.5-.6 1.5 0 2.8.2 3.6.5.9.4 1.5.9 1.9 1.7.4.8.5 1.8.5 3.1v4c0 .7.1 1.3.3 2.1.2.7.3 1.2.3 1.4 0 .4-.2.7-.5 1-.3.3-.7.4-1.1.4-.4 0-.7-.2-1.1-.5-.2-.4-.5-.9-.9-1.5zm-.3-5.1c-.5.2-1.3.4-2.2.6-1 .2-1.7.4-2 .5-.4.1-.7.3-1.1.6-.3.3-.5.7-.5 1.2s.2 1 .6 1.4c.4.4.9.6 1.6.6.7 0 1.3-.2 1.9-.5.6-.3 1-.7 1.3-1.2.3-.5.5-1.4.5-2.6v-.6zM368.3 136.5v.4c.6-.8 1.3-1.4 2-1.8.7-.4 1.6-.6 2.5-.6.9 0 1.7.2 2.5.6.7.4 1.3 1 1.6 1.7.2.4.4.9.4 1.4.1.5.1 1.1.1 1.9v6.5c0 .7-.2 1.2-.5 1.6s-.7.5-1.3.5c-.5 0-.9-.2-1.3-.6-.3-.4-.5-.9-.5-1.6v-5.8c0-1.2-.2-2-.5-2.6-.3-.6-1-.9-1.9-.9-.6 0-1.2.2-1.7.6-.5.4-.9.9-1.1 1.5-.2.5-.3 1.5-.3 2.9v4.4c0 .7-.2 1.2-.5 1.6-.3.4-.8.5-1.3.5s-.9-.2-1.2-.6c-.3-.4-.5-.9-.5-1.6v-10.1c0-.7.1-1.2.4-1.5.3-.3.7-.5 1.2-.5.3 0 .6.1.8.2.2.1.4.4.6.7.4.4.5.7.5 1.2zM393.6 144.4c0 .4-.1.9-.4 1.4-.3.5-.7 1-1.2 1.4-.5.4-1.2.8-2 1.1-.8.3-1.7.4-2.7.4-2.2 0-3.9-.6-5.1-1.9-1.2-1.3-1.8-3-1.8-5.1 0-1.4.3-2.7.8-3.8.6-1.1 1.4-2 2.4-2.6 1.1-.6 2.3-.9 3.8-.9.9 0 1.7.1 2.5.4.8.3 1.4.6 1.9 1s.9.9 1.2 1.3c.3.5.4.9.4 1.3s-.2.8-.5 1.1c-.3.3-.7.4-1.1.4-.3 0-.5-.1-.7-.2-.2-.1-.4-.4-.6-.7-.4-.6-.9-1.1-1.3-1.5-.5-.3-1.1-.5-1.8-.5-1 0-1.9.4-2.5 1.2-.6.8-.9 1.9-.9 3.3 0 .7.1 1.3.2 1.8.2.6.4 1 .7 1.4.3.4.7.7 1.1.9.4.2.9.3 1.4.3.7 0 1.3-.2 1.8-.5s.9-.8 1.3-1.5c.2-.4.4-.7.7-.9.2-.2.6-.3.9-.3.4 0 .8.2 1.1.5.2.5.4.9.4 1.2zM398.4 132.9c-.5 0-.9-.1-1.3-.4-.3-.3-.5-.7-.5-1.3 0-.5.2-.9.5-1.2.4-.3.8-.5 1.2-.5.5 0 .9.1 1.2.4.4.3.5.7.5 1.3 0 .5-.2 1-.5 1.3-.2.2-.6.4-1.1.4zm1.7 3.6v10.1c0 .7-.2 1.2-.5 1.6-.3.4-.8.5-1.3.5s-.9-.2-1.3-.6c-.3-.4-.5-.9-.5-1.6v-10c0-.7.2-1.2.5-1.6.3-.4.7-.5 1.3-.5.5 0 .9.2 1.3.5.4.5.5 1 .5 1.6zM406.9 136.5v.4c.6-.8 1.3-1.4 2-1.8.7-.4 1.6-.6 2.5-.6.9 0 1.7.2 2.5.6.7.4 1.3 1 1.6 1.7.2.4.4.9.4 1.4.1.5.1 1.1.1 1.9v6.5c0 .7-.2 1.2-.5 1.6-.3.4-.7.5-1.3.5-.5 0-.9-.2-1.3-.6-.3-.4-.5-.9-.5-1.6v-5.8c0-1.2-.2-2-.5-2.6-.3-.6-1-.9-1.9-.9-.6 0-1.2.2-1.7.6-.5.4-.9.9-1.1 1.5-.2.5-.3 1.5-.3 2.9v4.4c0 .7-.2 1.2-.5 1.6-.3.4-.8.5-1.3.5s-.9-.2-1.2-.6c-.3-.4-.5-.9-.5-1.6v-10.1c0-.7.1-1.2.4-1.5.3-.3.7-.5 1.2-.5.3 0 .6.1.8.2.2.1.4.4.6.7.4.4.5.7.5 1.2zM432.5 137.1v10.2c0 1.2-.1 2.2-.4 3-.2.8-.6 1.5-1.2 2.1-.5.5-1.3 1-2.1 1.2-.9.3-2 .4-3.3.4-1.2 0-2.3-.2-3.2-.5-.9-.3-1.7-.8-2.2-1.3-.5-.5-.8-1.1-.8-1.6 0-.4.1-.8.4-1 .3-.3.6-.4 1.1-.4.5 0 1 .2 1.3.7.2.2.4.5.6.7.2.2.4.4.7.6.2.2.5.3.9.4.3.1.7.1 1.2.1.9 0 1.6-.1 2.1-.4.5-.3.9-.6 1.1-1.1.2-.5.3-.9.4-1.5 0-.5.1-1.3.1-2.5-.5.8-1.2 1.3-1.9 1.7-.7.4-1.5.6-2.5.6-1.2 0-2.2-.3-3.1-.9-.9-.6-1.6-1.4-2-2.5-.5-1.1-.7-2.3-.7-3.7 0-1.1.1-2 .4-2.8.3-.8.7-1.6 1.2-2.1.5-.6 1.1-1 1.8-1.3.7-.3 1.5-.4 2.3-.4 1 0 1.9.2 2.6.6.7.4 1.4 1 2 1.8v-.5c0-.6.1-1.1.4-1.4.3-.3.7-.5 1.2-.5.7 0 1.1.2 1.3.7.2.1.3.8.3 1.6zm-10.2 4.4c0 1.4.3 2.5.9 3.2.6.7 1.4 1.1 2.4 1.1.6 0 1.1-.2 1.6-.5s.9-.8 1.3-1.4c.3-.6.5-1.4.5-2.3 0-1.4-.3-2.5-.9-3.3-.6-.8-1.5-1.2-2.5-1.2s-1.8.4-2.4 1.1c-.6.8-.9 1.9-.9 3.3zM442.8 134.8h.4v-2.1-1.3c0-.3.1-.6.3-.8.1-.2.3-.4.6-.6.3-.1.5-.2.9-.2s.8.2 1.2.5c.2.2.4.5.5.8.1.3.1.8.1 1.4v2.4h1.3c.5 0 .9.1 1.1.4.3.2.4.5.4.9 0 .5-.2.8-.6 1-.4.2-.9.3-1.6.3h-.7v6.4c0 .5 0 1 .1 1.3 0 .3.1.5.3.7.2.2.4.3.8.3.2 0 .5 0 .8-.1.4-.1.6-.1.8-.1.3 0 .5.1.8.3.2.2.3.5.3.8 0 .6-.3 1-.9 1.3-.6.3-1.5.4-2.7.4-1.1 0-1.9-.2-2.5-.6-.6-.4-.9-.9-1.1-1.5-.2-.7-.3-1.5-.3-2.6v-6.7h-.5c-.5 0-.9-.1-1.2-.4-.3-.2-.4-.5-.4-.9s.1-.7.4-.9c.5-.2.9-.4 1.4-.4zM455.3 131.4v5.2c.4-.5.9-.9 1.3-1.2.4-.3.9-.5 1.4-.7.5-.1 1.1-.2 1.7-.2.9 0 1.7.2 2.4.6.7.4 1.2.9 1.6 1.6.2.4.4.9.5 1.4.1.5.1 1.1.1 1.8v6.7c0 .7-.2 1.2-.5 1.6-.3.4-.7.5-1.3.5-1.2 0-1.7-.7-1.7-2.1v-5.9c0-1.1-.2-2-.5-2.6-.3-.6-1-.9-1.9-.9-.6 0-1.2.2-1.7.5-.5.4-.9.8-1.1 1.5-.2.5-.3 1.4-.3 2.8v4.6c0 .7-.2 1.2-.5 1.6-.3.4-.7.5-1.3.5-1.2 0-1.7-.7-1.7-2.1v-15.2c0-.7.2-1.2.5-1.6.3-.4.7-.5 1.3-.5.6 0 1 .2 1.3.5.3.4.4.9.4 1.6zM477.6 142.5h-6.9c0 .8.2 1.5.5 2.1.3.6.7 1.1 1.2 1.4.5.3 1.1.5 1.7.5.4 0 .8 0 1.1-.1.3-.1.7-.3 1-.5.3-.2.6-.4.9-.7.3-.2.6-.6 1.1-1 .2-.2.4-.2.8-.2s.6.1.9.3c.2.2.3.5.3.8 0 .3-.1.7-.4 1.1-.2.4-.6.8-1.1 1.2-.5.4-1.1.7-1.9 1-.8.3-1.6.4-2.6.4-2.2 0-4-.6-5.2-1.9-1.2-1.3-1.9-3-1.9-5.2 0-1 .2-2 .5-2.9.3-.9.8-1.6 1.3-2.3s1.3-1.1 2.2-1.5c.9-.3 1.8-.5 2.9-.5 1.4 0 2.5.3 3.5.9 1 .6 1.7 1.3 2.2 2.2.5.9.7 1.8.7 2.8 0 .9-.3 1.5-.8 1.7s-1.1.4-2 .4zm-6.9-2h6.4c-.1-1.2-.4-2.1-1-2.7-.6-.6-1.3-.9-2.2-.9-.9 0-1.6.3-2.1.9-.6.6-1 1.5-1.1 2.7zM504.5 142.8c0 1.1-.3 2.2-.9 3.1-.6.9-1.4 1.6-2.6 2.1-1.1.5-2.5.8-4 .8-1.9 0-3.4-.4-4.6-1.1-.9-.5-1.6-1.2-2.1-2s-.8-1.7-.8-2.5c0-.5.2-.9.5-1.2.3-.3.7-.5 1.2-.5.4 0 .7.1 1 .4.3.3.5.6.7 1.1.2.6.5 1.1.8 1.5s.7.7 1.2 1c.5.3 1.2.4 2 .4 1.1 0 2-.3 2.8-.8s1.1-1.2 1.1-2c0-.6-.2-1.1-.6-1.5-.4-.4-.9-.7-1.5-.9-.6-.2-1.4-.4-2.4-.7-1.4-.3-2.5-.7-3.4-1.1-.9-.4-1.6-1-2.2-1.7-.5-.7-.8-1.6-.8-2.7 0-1 .3-2 .8-2.8.6-.8 1.4-1.4 2.5-1.9s2.3-.6 3.8-.6c1.2 0 2.2.1 3 .4.8.3 1.5.7 2.1 1.1.6.5 1 1 1.2 1.5.3.5.4 1 .4 1.5s-.2.9-.5 1.2c-.3.4-.7.5-1.2.5-.4 0-.8-.1-1-.3-.2-.2-.5-.6-.7-1.1-.3-.7-.8-1.3-1.2-1.7-.5-.4-1.3-.6-2.3-.6-1 0-1.8.2-2.4.6s-.9 1-.9 1.6c0 .4.1.7.3 1 .2.3.5.5.8.7.4.2.7.4 1.1.5.4.1 1 .3 1.8.5 1.1.2 2 .5 2.9.8.9.3 1.6.7 2.2 1.1.6.4 1.1 1 1.4 1.6.3 1 .5 1.8.5 2.7zM516.4 146.8c-.8.7-1.7 1.2-2.5 1.5-.8.3-1.7.5-2.7.5-.9 0-1.7-.2-2.4-.5-.7-.4-1.2-.8-1.6-1.4-.4-.6-.6-1.3-.6-2 0-1 .3-1.8.9-2.5s1.4-1.1 2.5-1.4c.2-.1.8-.2 1.7-.3.9-.2 1.6-.3 2.3-.5.6-.1 1.3-.3 2-.5 0-.9-.2-1.6-.6-2-.3-.4-1-.6-2-.6-.9 0-1.6.1-2 .4-.4.2-.8.6-1.2 1.1s-.5.8-.7 1c-.1.2-.4.2-.9.2-.4 0-.7-.1-1-.4-.3-.3-.4-.6-.4-1 0-.6.2-1.2.7-1.8s1.1-1.1 2-1.4c.9-.4 2.1-.6 3.5-.6 1.5 0 2.7.2 3.6.5.9.4 1.5.9 1.9 1.7.4.8.5 1.8.5 3.1v4c0 .7.1 1.3.3 2.1.2.7.3 1.2.3 1.4 0 .4-.2.7-.5 1-.3.3-.7.4-1.1.4-.4 0-.7-.2-1.1-.5-.2-.4-.6-.9-.9-1.5zm-.3-5.1c-.5.2-1.3.4-2.2.6-1 .2-1.7.4-2 .5-.4.1-.7.3-1.1.6-.3.3-.5.7-.5 1.2s.2 1 .6 1.4c.4.4.9.6 1.6.6.7 0 1.3-.2 1.9-.5.6-.3 1-.7 1.3-1.2.3-.5.5-1.4.5-2.6v-.6zM522.8 134.8h.8v-1.1c0-1.1.1-2 .4-2.6.3-.6.7-1.1 1.4-1.4.7-.3 1.6-.4 2.7-.4 2 0 3.1.5 3.1 1.5 0 .3-.1.6-.3.8-.2.2-.5.3-.8.3-.1 0-.4 0-.7-.1-.3-.1-.6-.1-.8-.1-.6 0-1 .2-1.2.6-.2.4-.3.9-.3 1.6v.8h.9c1.3 0 2 .4 2 1.2 0 .6-.2.9-.5 1.1-.4.2-.8.2-1.5.2h-.9v9.3c0 .7-.2 1.2-.5 1.6-.3.4-.8.5-1.3.5s-.9-.2-1.2-.5c-.3-.4-.5-.9-.5-1.6v-9.3h-1c-.5 0-.9-.1-1.2-.4-.3-.2-.4-.5-.4-.9.1-.6.7-1.1 1.8-1.1zM541.3 142.5h-6.9c0 .8.2 1.5.5 2.1.3.6.7 1.1 1.2 1.4.5.3 1.1.5 1.7.5.4 0 .8 0 1.1-.1.3-.1.7-.3 1-.5.3-.2.6-.4.9-.7.3-.2.6-.6 1.1-1 .2-.2.4-.2.8-.2s.6.1.9.3c.2.2.3.5.3.8 0 .3-.1.7-.4 1.1-.2.4-.6.8-1.1 1.2-.5.4-1.1.7-1.9 1-.8.3-1.6.4-2.6.4-2.2 0-4-.6-5.2-1.9-1.2-1.3-1.9-3-1.9-5.2 0-1 .2-2 .5-2.9.3-.9.8-1.6 1.3-2.3.6-.6 1.3-1.1 2.2-1.5.9-.3 1.8-.5 2.9-.5 1.4 0 2.5.3 3.5.9 1 .6 1.7 1.3 2.2 2.2.5.9.7 1.8.7 2.8 0 .9-.3 1.5-.8 1.7-.4.3-1.1.4-2 .4zm-6.9-2h6.4c-.1-1.2-.4-2.1-1-2.7-.6-.6-1.3-.9-2.2-.9-.9 0-1.6.3-2.1.9-.6.6-.9 1.5-1.1 2.7zM547.3 134.8h.4v-2.1-1.3c0-.3.1-.6.2-.8.1-.2.3-.4.6-.6.3-.1.5-.2.9-.2s.8.2 1.2.5c.2.2.4.5.5.8.1.3.1.8.1 1.4v2.4h1.3c.5 0 .9.1 1.1.4.3.2.4.5.4.9 0 .5-.2.8-.6 1-.4.2-.9.3-1.6.3h-.7v6.4c0 .5 0 1 .1 1.3 0 .3.1.5.3.7.2.2.4.3.8.3.2 0 .5 0 .8-.1s.6-.1.8-.1c.3 0 .5.1.8.3.2.2.3.5.3.8 0 .6-.3 1-.9 1.3-.6.3-1.5.4-2.7.4-1.1 0-1.9-.2-2.5-.6-.6-.4-.9-.9-1.1-1.5-.2-.7-.3-1.5-.3-2.6v-6.7h-.5c-.5 0-.9-.1-1.2-.4-.3-.2-.4-.5-.4-.9s.1-.7.4-.9c.6-.2 1-.4 1.5-.4z"/><path d="M559.7 149.2l.3-.8-4.3-10.9c-.3-.6-.4-1.1-.4-1.4 0-.3.1-.6.2-.8.2-.3.4-.5.6-.6.3-.2.5-.2.8-.2.5 0 .9.2 1.1.5s.5.8.7 1.4l3 8.6 2.8-8c.2-.6.4-1.2.6-1.5.2-.4.4-.6.6-.7s.5-.2.9-.2c.3 0 .5.1.8.2.2.1.4.3.6.6.1.2.2.5.2.8 0 .2-.1.4-.2.7l-.3.9-4.6 12c-.4 1.1-.8 1.9-1.2 2.5s-.9 1.1-1.5 1.4c-.6.3-1.5.5-2.5.5s-1.8-.1-2.3-.3c-.5-.2-.8-.6-.8-1.2 0-.4.1-.7.4-.9.2-.2.6-.3 1.1-.3.2 0 .4 0 .6.1.2.1.4.1.6.1.4 0 .7-.1.9-.2.2-.1.4-.3.6-.6.2-.7.4-1.1.7-1.7zM313.3 173.2c0 1-.2 2-.5 2.9s-.8 1.6-1.4 2.3c-.6.6-1.4 1.1-2.2 1.5-.9.3-1.8.5-2.9.5-1.1 0-2-.2-2.9-.5s-1.6-.8-2.2-1.5c-.6-.6-1.1-1.4-1.4-2.3-.3-.9-.5-1.8-.5-2.9 0-1.1.2-2 .5-2.9.3-.9.8-1.6 1.4-2.3.6-.6 1.3-1.1 2.2-1.4.9-.3 1.8-.5 2.9-.5 1.1 0 2 .2 2.9.5.9.3 1.6.8 2.2 1.5.6.6 1.1 1.4 1.4 2.3.4.8.5 1.7.5 2.8zm-3.5 0c0-1.4-.3-2.5-.9-3.3-.6-.8-1.5-1.2-2.5-1.2-.7 0-1.3.2-1.8.5-.5.4-.9.9-1.2 1.6-.3.7-.4 1.5-.4 2.4 0 .9.1 1.7.4 2.4.3.7.7 1.2 1.2 1.6.5.4 1.1.5 1.8.5 1.1 0 1.9-.4 2.5-1.2.6-.8.9-1.9.9-3.3zM315.8 166.4h.8v-1.1c0-1.1.1-2 .4-2.6.3-.6.7-1.1 1.4-1.4.7-.3 1.6-.4 2.7-.4 2 0 3.1.5 3.1 1.5 0 .3-.1.6-.3.8-.2.2-.5.3-.8.3-.1 0-.4 0-.7-.1-.3-.1-.6-.1-.8-.1-.6 0-1 .2-1.2.6-.2.4-.3.9-.3 1.6v.8h.9c1.3 0 2 .4 2 1.2 0 .6-.2.9-.5 1.1-.4.2-.8.2-1.5.2h-.9v9.3c0 .7-.2 1.2-.5 1.6-.3.4-.8.5-1.3.5s-.9-.2-1.2-.5c-.3-.4-.5-.9-.5-1.6v-9.3h-1c-.5 0-.9-.1-1.2-.4-.3-.2-.4-.5-.4-.9.1-.7.7-1.1 1.8-1.1zM341 177.2l-3-12v13c0 .7-.2 1.3-.5 1.6-.3.4-.7.5-1.3.5-.5 0-.9-.2-1.3-.5-.3-.4-.5-.9-.5-1.6v-14.9c0-.8.2-1.4.6-1.7.4-.3 1-.4 1.7-.4h1.2c.7 0 1.2.1 1.5.2.3.1.6.4.7.7.2.3.3.9.5 1.6l2.7 10.3 2.7-10.3c.2-.8.4-1.3.5-1.6.2-.3.4-.6.7-.7.3-.1.8-.2 1.5-.2h1.2c.7 0 1.3.1 1.7.4.4.3.6.8.6 1.7v14.9c0 .7-.2 1.3-.5 1.6-.3.4-.8.5-1.3.5s-.9-.2-1.2-.5c-.3-.4-.5-.9-.5-1.6v-13l-3 12c-.2.8-.4 1.3-.5 1.7-.1.4-.4.7-.7 1-.3.3-.8.4-1.4.4-.4 0-.8-.1-1.1-.3-.3-.2-.5-.4-.7-.7-.2-.3-.3-.6-.4-1 .3-.4.2-.8.1-1.1zM358 164.4c-.5 0-.9-.1-1.3-.4-.3-.3-.5-.7-.5-1.3 0-.5.2-.9.5-1.2.4-.3.8-.5 1.2-.5.5 0 .9.1 1.2.4.4.3.5.7.5 1.3 0 .5-.2 1-.5 1.3s-.6.4-1.1.4zm1.8 3.7v10.1c0 .7-.2 1.2-.5 1.6-.3.4-.8.5-1.3.5s-.9-.2-1.3-.6c-.3-.4-.5-.9-.5-1.6v-10c0-.7.2-1.2.5-1.6.3-.4.7-.5 1.3-.5.5 0 .9.2 1.3.5.3.4.5.9.5 1.6zM373 178.3v-.3c-.5.5-.9 1-1.4 1.3-.5.3-1 .6-1.5.8-.5.2-1.1.3-1.8.3-.8 0-1.6-.2-2.3-.5-.7-.4-1.3-.9-1.9-1.5-.5-.7-.9-1.4-1.2-2.3-.3-.9-.4-1.9-.4-2.9 0-2.2.5-3.9 1.6-5.1 1.1-1.2 2.5-1.8 4.2-1.8 1 0 1.9.2 2.6.5.7.3 1.4.9 2 1.6V163c0-.7.1-1.3.4-1.6.3-.4.7-.6 1.2-.6s.9.2 1.2.5c.3.3.4.8.4 1.5v15.4c0 .7-.2 1.2-.5 1.5-.3.3-.7.5-1.2.5s-.9-.2-1.2-.5c-.1-.3-.2-.8-.2-1.4zm-6.9-5.1c0 .9.1 1.8.4 2.4.3.7.7 1.2 1.2 1.5.5.3 1.1.5 1.7.5.6 0 1.2-.2 1.7-.5s.9-.8 1.2-1.5.5-1.5.5-2.5c0-.9-.2-1.7-.5-2.4s-.7-1.2-1.2-1.5c-.5-.4-1.1-.5-1.7-.5-.6 0-1.2.2-1.7.5-.5.4-.9.9-1.2 1.6-.3.7-.4 1.5-.4 2.4zM382 168.2l2.3 7.8 2.1-7.3c.2-.8.4-1.3.5-1.6.1-.3.3-.5.6-.8.3-.3.7-.4 1.2-.4s.9.1 1.2.4c.3.3.5.5.6.8.1.3.3.8.5 1.5l2.1 7.3 2.3-7.8c.2-.6.3-1 .4-1.2.1-.3.3-.5.5-.7.2-.2.5-.3 1-.3.4 0 .8.1 1.1.4.3.3.5.6.5 1s-.1.9-.4 1.6l-2.9 8.4c-.2.7-.4 1.2-.6 1.5-.1.3-.4.6-.6.8-.3.2-.7.4-1.2.4s-.9-.1-1.3-.4c-.3-.3-.5-.6-.7-1-.1-.4-.3-.9-.5-1.5l-2-6.8-1.9 6.8c-.3 1-.5 1.7-.8 2.1-.3.5-.8.7-1.6.7-.4 0-.7-.1-1-.2-.3-.1-.5-.4-.7-.6-.2-.3-.3-.6-.5-1-.1-.4-.2-.7-.3-.9l-2.8-8.4c-.3-.8-.4-1.3-.4-1.6 0-.4.1-.7.4-1 .3-.3.7-.4 1.1-.4.6 0 1 .2 1.2.5.1.6.4 1.2.6 1.9zM402.9 164.4c-.5 0-.9-.1-1.3-.4-.3-.3-.5-.7-.5-1.3 0-.5.2-.9.5-1.2.4-.3.8-.5 1.2-.5.5 0 .9.1 1.2.4.4.3.5.7.5 1.3 0 .5-.2 1-.5 1.3s-.6.4-1.1.4zm1.8 3.7v10.1c0 .7-.2 1.2-.5 1.6-.3.4-.8.5-1.3.5s-.9-.2-1.3-.6c-.3-.4-.5-.9-.5-1.6v-10c0-.7.2-1.2.5-1.6.3-.4.7-.5 1.3-.5.5 0 .9.2 1.3.5.3.4.5.9.5 1.6zM408 166.4h.8v-1.1c0-1.1.1-2 .4-2.6.3-.6.7-1.1 1.4-1.4.7-.3 1.6-.4 2.7-.4 2 0 3.1.5 3.1 1.5 0 .3-.1.6-.3.8-.2.2-.5.3-.8.3-.1 0-.4 0-.7-.1-.3-.1-.6-.1-.8-.1-.6 0-1 .2-1.2.6-.2.4-.3.9-.3 1.6v.8h.9c1.3 0 2 .4 2 1.2 0 .6-.2.9-.5 1.1-.4.2-.8.2-1.5.2h-.9v9.3c0 .7-.2 1.2-.5 1.6-.3.4-.8.5-1.3.5s-.9-.2-1.2-.5c-.3-.4-.5-.9-.5-1.6v-9.3h-1c-.5 0-.9-.1-1.2-.4-.3-.2-.4-.5-.4-.9.1-.7.6-1.1 1.8-1.1zM426.5 174h-6.9c0 .8.2 1.5.5 2.1.3.6.7 1.1 1.2 1.4.5.3 1.1.5 1.7.5.4 0 .8 0 1.1-.1.3-.1.7-.3 1-.5s.6-.4.9-.7.6-.6 1.1-1c.2-.2.4-.2.8-.2s.6.1.9.3c.2.2.3.5.3.8 0 .3-.1.7-.4 1.1-.2.4-.6.8-1.1 1.2s-1.1.7-1.9 1c-.8.3-1.6.4-2.6.4-2.3 0-4-.6-5.2-1.9-1.2-1.3-1.9-3-1.9-5.2 0-1 .2-2 .5-2.9.3-.9.8-1.6 1.3-2.3.6-.6 1.3-1.1 2.2-1.5.9-.3 1.8-.5 2.9-.5 1.4 0 2.5.3 3.5.9 1 .6 1.7 1.3 2.2 2.2.5.9.7 1.8.7 2.8 0 .9-.3 1.5-.8 1.7-.4.3-1.1.4-2 .4zm-6.9-1.9h6.4c-.1-1.2-.4-2.1-1-2.7-.6-.6-1.3-.9-2.2-.9-.9 0-1.6.3-2.1.9-.6.6-1 1.5-1.1 2.7zM435.8 175.3v2.9c0 .7-.2 1.2-.5 1.6-.3.4-.8.5-1.3.5s-.9-.2-1.2-.5c-.3-.4-.5-.9-.5-1.6v-9.8c0-1.6.6-2.4 1.7-2.4.6 0 1 .2 1.3.6.3.4.4.9.4 1.6.4-.7.8-1.3 1.3-1.6.4-.4 1-.6 1.8-.6.7 0 1.4.2 2.1.6.7.4 1 .9 1 1.5 0 .4-.1.8-.4 1.1-.3.3-.6.4-1 .4-.1 0-.4-.1-.9-.2s-.9-.2-1.3-.2c-.5 0-.9.1-1.3.4-.3.3-.6.7-.8 1.2-.2.5-.3 1.2-.4 1.9v2.6zM447.1 180.7l.3-.8-4.3-10.9c-.3-.6-.4-1.1-.4-1.4 0-.3.1-.6.2-.8.2-.3.4-.5.6-.6.3-.2.5-.2.8-.2.5 0 .9.2 1.1.5.3.3.5.8.7 1.4l3 8.6 2.8-8c.2-.6.4-1.2.6-1.5.2-.4.4-.6.6-.7.2-.1.5-.2.9-.2.3 0 .5.1.8.2.2.1.4.3.6.6.1.2.2.5.2.8 0 .2-.1.4-.2.7l-.3.9-4.6 12c-.4 1.1-.8 1.9-1.2 2.5-.4.6-.9 1.1-1.5 1.4-.6.3-1.5.5-2.5.5s-1.8-.1-2.3-.3c-.5-.2-.8-.6-.8-1.2 0-.4.1-.7.4-.9.2-.2.6-.3 1.1-.3.2 0 .4 0 .6.1.2.1.4.1.6.1.4 0 .7-.1.9-.2.2-.1.4-.3.6-.6.2-.6.4-1.1.7-1.7zM462.7 174.7h-4.1c-.6 0-1.1-.1-1.4-.4-.3-.3-.5-.7-.5-1.1 0-.5.2-.8.5-1.1.3-.3.8-.4 1.4-.4h4.1c.6 0 1.1.1 1.4.4.3.3.5.7.5 1.1 0 .5-.2.8-.5 1.1-.3.3-.8.4-1.4.4zM470.8 163.2v13.7h7.7c.6 0 1.1.1 1.4.4.3.3.5.7.5 1.1 0 .5-.2.8-.5 1.1-.3.3-.8.4-1.4.4h-9.2c-.8 0-1.4-.2-1.8-.6-.4-.4-.5-1-.5-1.8V163c0-.8.2-1.3.5-1.7.3-.4.8-.6 1.4-.6.6 0 1 .2 1.4.6.3.5.5 1.1.5 1.9zM492.5 174h-6.9c0 .8.2 1.5.5 2.1.3.6.7 1.1 1.2 1.4.5.3 1.1.5 1.7.5.4 0 .8 0 1.1-.1.3-.1.7-.3 1-.5.3-.2.6-.4.9-.7s.6-.6 1.1-1c.2-.2.4-.2.8-.2s.6.1.9.3c.2.2.3.5.3.8 0 .3-.1.7-.4 1.1-.2.4-.6.8-1.1 1.2-.5.4-1.1.7-1.9 1-.8.3-1.6.4-2.6.4-2.2 0-4-.6-5.2-1.9-1.2-1.3-1.9-3-1.9-5.2 0-1 .2-2 .5-2.9.3-.9.8-1.6 1.3-2.3s1.3-1.1 2.2-1.5c.9-.3 1.8-.5 2.9-.5 1.4 0 2.5.3 3.5.9 1 .6 1.7 1.3 2.2 2.2.5.9.7 1.8.7 2.8 0 .9-.3 1.5-.8 1.7-.4.3-1.1.4-2 .4zm-6.9-1.9h6.4c-.1-1.2-.4-2.1-1-2.7-.6-.6-1.3-.9-2.2-.9-.9 0-1.6.3-2.1.9-.6.6-1 1.5-1.1 2.7zM507.9 178.3v-.3c-.5.5-.9 1-1.4 1.3-.5.3-1 .6-1.5.8-.5.2-1.1.3-1.8.3-.8 0-1.6-.2-2.3-.5-.7-.4-1.3-.9-1.9-1.5-.5-.7-.9-1.4-1.2-2.3-.3-.9-.4-1.9-.4-2.9 0-2.2.5-3.9 1.6-5.1 1.1-1.2 2.5-1.8 4.2-1.8 1 0 1.9.2 2.6.5.7.3 1.4.9 2 1.6V163c0-.7.1-1.3.4-1.6.3-.4.7-.6 1.2-.6s.9.2 1.2.5c.3.3.4.8.4 1.5v15.4c0 .7-.2 1.2-.5 1.5-.3.3-.7.5-1.2.5s-.9-.2-1.2-.5c0-.3-.2-.8-.2-1.4zm-6.9-5.1c0 .9.1 1.8.4 2.4.3.7.7 1.2 1.2 1.5.5.3 1.1.5 1.7.5.6 0 1.2-.2 1.7-.5s.9-.8 1.2-1.5c.3-.7.5-1.5.5-2.5 0-.9-.2-1.7-.5-2.4s-.7-1.2-1.2-1.5c-.5-.4-1.1-.5-1.7-.5-.6 0-1.2.2-1.7.5-.5.4-.9.9-1.2 1.6-.2.7-.4 1.5-.4 2.4zM308.5 211.5h-5.7c-.8 0-1.4-.2-1.8-.6-.4-.4-.5-1-.5-1.8V195c0-.8.2-1.4.5-1.8.4-.4 1-.5 1.8-.5h6.1c.9 0 1.7.1 2.3.2.7.1 1.2.3 1.8.6.4.3.8.6 1.2 1 .3.4.6.9.8 1.3.2.5.3 1 .3 1.6 0 1.9-.9 3.3-2.8 4.1 2.5.8 3.7 2.3 3.7 4.6 0 1.1-.3 2-.8 2.8-.5.8-1.3 1.5-2.2 1.9-.6.2-1.2.4-2 .5-.8.2-1.7.2-2.7.2zm-4.2-15.9v4.9h3.5c.9 0 1.7-.1 2.2-.3.5-.2.9-.5 1.2-1 .2-.4.3-.8.3-1.2 0-.9-.3-1.6-1-1.9-.7-.3-1.7-.5-3.1-.5h-3.1zm3.9 7.6h-4v5.5h4.1c2.6 0 3.9-.9 3.9-2.8 0-1-.3-1.6-1-2.1-.7-.4-1.6-.6-3-.6zM320.9 196c-.5 0-.9-.1-1.3-.4-.3-.3-.5-.7-.5-1.3 0-.5.2-.9.5-1.2.4-.3.8-.5 1.2-.5.5 0 .9.1 1.2.4.4.3.5.7.5 1.3 0 .5-.2 1-.5 1.3-.2.2-.6.4-1.1.4zm1.7 3.6v10.1c0 .7-.2 1.2-.5 1.6-.3.4-.8.5-1.3.5s-.9-.2-1.3-.6c-.3-.4-.5-.9-.5-1.6v-10c0-.7.2-1.2.5-1.6.3-.4.7-.5 1.3-.5.5 0 .9.2 1.3.5.4.5.5 1 .5 1.6zM329.7 206.8v2.9c0 .7-.2 1.2-.5 1.6-.3.4-.8.5-1.3.5s-.9-.2-1.2-.5c-.3-.4-.5-.9-.5-1.6V200c0-1.6.6-2.4 1.7-2.4.6 0 1 .2 1.3.6.3.4.4.9.4 1.6.4-.7.8-1.3 1.3-1.6.4-.4 1-.6 1.8-.6.7 0 1.4.2 2.1.6.7.4 1 .9 1 1.5 0 .4-.1.8-.4 1.1-.3.3-.6.4-1 .4-.1 0-.4-.1-.9-.2-.5-.2-.9-.2-1.3-.2-.5 0-.9.1-1.3.4-.3.3-.6.7-.8 1.2-.2.5-.3 1.2-.4 1.9.1.5 0 1.4 0 2.5zM338.3 197.9h.4v-2.1-1.3c0-.3.1-.6.3-.8.1-.2.3-.4.6-.6.3-.1.5-.2.9-.2s.8.2 1.2.5c.2.2.4.5.5.8.1.3.1.8.1 1.4v2.4h1.3c.5 0 .9.1 1.1.4s.4.5.4.9c0 .5-.2.8-.6 1-.4.2-.9.3-1.6.3h-.7v6.4c0 .5 0 1 .1 1.3 0 .3.1.5.3.7.2.2.4.3.8.3.2 0 .5 0 .8-.1.4-.1.6-.1.8-.1.3 0 .5.1.8.3.2.2.3.5.3.8 0 .6-.3 1-.9 1.3-.6.3-1.5.4-2.7.4-1.1 0-1.9-.2-2.5-.6-.6-.4-.9-.9-1.1-1.5-.2-.6-.3-1.5-.3-2.6v-6.7h-.5c-.5 0-.9-.1-1.2-.4-.3-.2-.4-.5-.4-.9s.1-.7.4-.9c.4-.3.8-.4 1.4-.4zM350.8 194.5v5.2c.4-.5.9-.9 1.3-1.2.4-.3.9-.5 1.4-.7.5-.1 1.1-.2 1.7-.2.9 0 1.7.2 2.4.6.7.4 1.2.9 1.6 1.6.2.4.4.9.5 1.4.1.5.1 1.1.1 1.8v6.7c0 .7-.2 1.2-.5 1.6-.3.4-.7.5-1.3.5-1.2 0-1.7-.7-1.7-2.1v-5.9c0-1.1-.2-2-.5-2.6-.3-.6-1-.9-1.9-.9-.6 0-1.2.2-1.7.5-.5.4-.9.8-1.1 1.5-.2.5-.3 1.5-.3 2.8v4.6c0 .7-.2 1.2-.5 1.6-.3.4-.7.5-1.3.5-1.2 0-1.7-.7-1.7-2.1v-15.2c0-.7.2-1.2.5-1.6.3-.4.7-.5 1.3-.5.6 0 1 .2 1.3.5.3.4.4.9.4 1.6zM382.5 195.6h-8.6v4.6h7.9c.6 0 1 .1 1.3.4.3.3.4.6.4 1s-.1.8-.4 1c-.3.3-.7.4-1.3.4h-7.9v5.4h8.9c.6 0 1.1.1 1.4.4.3.3.5.6.5 1.1 0 .4-.2.8-.5 1.1s-.8.4-1.4.4h-10.4c-.8 0-1.4-.2-1.8-.6-.4-.4-.5-1-.5-1.8v-14c0-.5.1-1 .2-1.3.2-.3.4-.6.8-.8.3-.2.8-.2 1.3-.2h10.1c.6 0 1.1.1 1.4.4.3.3.4.6.4 1.1 0 .4-.1.8-.4 1.1-.4.2-.8.3-1.4.3zM390.5 199.5v.4c.6-.8 1.3-1.4 2-1.8.7-.4 1.6-.6 2.5-.6.9 0 1.7.2 2.5.6.7.4 1.3 1 1.6 1.7.2.4.4.9.4 1.4.1.5.1 1.1.1 1.9v6.5c0 .7-.2 1.2-.5 1.6s-.7.5-1.3.5c-.5 0-.9-.2-1.3-.6-.3-.4-.5-.9-.5-1.6v-5.8c0-1.2-.2-2-.5-2.6-.3-.6-1-.9-1.9-.9-.6 0-1.2.2-1.7.6-.5.4-.9.9-1.1 1.5-.2.5-.3 1.5-.3 2.9v4.4c0 .7-.2 1.2-.5 1.6-.3.4-.8.5-1.3.5s-.9-.2-1.2-.6c-.3-.4-.5-.9-.5-1.6v-10.1c0-.7.1-1.2.4-1.5.3-.3.7-.5 1.2-.5.3 0 .6.1.8.2.2.1.4.4.6.7.5.5.5.8.5 1.2zM412.8 214.7v-4.9c-.7.7-1.4 1.2-2.1 1.5-.7.4-1.5.5-2.4.5-1.1 0-2.1-.3-3-.9-.9-.6-1.6-1.4-2.1-2.5s-.8-2.3-.8-3.8.3-2.8.8-3.8c.5-1.1 1.2-1.9 2.1-2.4.9-.6 1.9-.8 3-.8.9 0 1.8.2 2.5.6s1.4 1 1.9 1.8v-.4c0-.6.2-1.1.5-1.5s.7-.5 1.2-.5.9.2 1.2.5c.3.3.5.8.5 1.5v15.1c0 1.6-.6 2.3-1.7 2.3-.7 0-1.1-.2-1.3-.6-.2-.4-.3-1-.3-1.7zm-6.8-10c0 .9.2 1.8.5 2.4.3.7.7 1.2 1.2 1.5.5.3 1 .5 1.6.5.6 0 1.2-.2 1.7-.5s.9-.8 1.3-1.5c.3-.7.5-1.5.5-2.5 0-.7-.1-1.3-.3-1.9-.2-.6-.4-1-.8-1.4-.3-.4-.7-.7-1.1-.8-.4-.2-.8-.3-1.3-.3-.9 0-1.7.4-2.3 1.2-.7.8-1 1.9-1 3.3zM428.8 209.9v-.4c-.4.5-.9 1-1.3 1.3-.5.4-1 .6-1.5.8-.5.2-1.2.3-1.9.3-.8 0-1.6-.2-2.3-.5-.7-.4-1.2-.8-1.6-1.5-.4-.7-.7-1.8-.7-3.2v-6.9c0-.7.2-1.2.5-1.6.3-.3.7-.5 1.3-.5.5 0 1 .2 1.3.5.3.4.5.9.5 1.6v5.6c0 .8.1 1.5.2 2 .1.6.4 1 .7 1.3.4.3.8.5 1.4.5.6 0 1.1-.2 1.7-.5s.9-.8 1.1-1.4c.2-.5.3-1.6.3-3.3v-4.3c0-.7.2-1.2.5-1.6.3-.4.7-.5 1.3-.5s.9.2 1.3.5c.3.3.5.9.5 1.6v10.2c0 .7-.2 1.2-.5 1.5s-.7.5-1.2.5-.9-.2-1.2-.5c-.3-.4-.4-.9-.4-1.5zM437.3 196c-.5 0-.9-.1-1.3-.4-.3-.3-.5-.7-.5-1.3 0-.5.2-.9.5-1.2.4-.3.8-.5 1.2-.5.5 0 .9.1 1.2.4.4.3.5.7.5 1.3 0 .5-.2 1-.5 1.3-.2.2-.6.4-1.1.4zm1.7 3.6v10.1c0 .7-.2 1.2-.5 1.6-.3.4-.8.5-1.3.5s-.9-.2-1.3-.6c-.3-.4-.5-.9-.5-1.6v-10c0-.7.2-1.2.5-1.6.3-.4.7-.5 1.3-.5.5 0 .9.2 1.3.5.4.5.5 1 .5 1.6zM446.1 206.8v2.9c0 .7-.2 1.2-.5 1.6-.3.4-.8.5-1.3.5s-.9-.2-1.2-.5c-.3-.4-.5-.9-.5-1.6V200c0-1.6.6-2.4 1.7-2.4.6 0 1 .2 1.3.6.3.4.4.9.4 1.6.4-.7.8-1.3 1.3-1.6.4-.4 1-.6 1.8-.6.7 0 1.4.2 2.1.6.7.4 1 .9 1 1.5 0 .4-.1.8-.4 1.1-.3.3-.6.4-1 .4-.1 0-.4-.1-.9-.2-.5-.2-.9-.2-1.3-.2-.5 0-.9.1-1.3.4-.3.3-.6.7-.8 1.2-.2.5-.3 1.2-.4 1.9.1.5 0 1.4 0 2.5zM457.4 212.3l.3-.8-4.3-10.9c-.3-.6-.4-1.1-.4-1.4 0-.3.1-.6.2-.8.2-.3.4-.5.6-.6.3-.2.6-.2.8-.2.5 0 .9.2 1.1.5s.5.8.7 1.4l3 8.6 2.8-8c.2-.6.4-1.2.6-1.5.2-.4.4-.6.6-.7.2-.1.5-.2.9-.2.3 0 .5.1.8.2.2.1.4.3.6.6s.2.5.2.8c0 .2-.1.4-.2.7l-.3.9-4.6 12c-.4 1.1-.8 1.9-1.2 2.5-.4.6-.9 1.1-1.5 1.4-.6.3-1.5.5-2.5.5s-1.8-.1-2.3-.3c-.5-.2-.8-.6-.8-1.2 0-.4.1-.7.4-.9.2-.2.6-.3 1.1-.3.2 0 .4 0 .6.1.2.1.4.1.6.1.4 0 .7-.1.9-.2.2-.1.4-.3.6-.6.2-.7.5-1.1.7-1.7z"/></g></g><path fill="#009490" d="M90.6 155.6c-1.3 2.7-2.4 5.1-3.2 7.7-.4 1.3-.8 2.6-1 4.1-.2 1.5-.5 3.1-.6 4.9-.1 1-.2 2.4-.3 4.3 0 .9 0 1.9-.1 3v3c0 1.1.1 2.2.1 3.4 0 1.1.1 2.3.2 3.5.1 1.2.1 2.4.3 3.6.5 4.8 1.3 9.8 2.4 14.8 1.2 5 2.7 10.2 4.5 15.2 3.7 10.1 8.9 20.1 15.5 28.8 6.5 8.7 14.3 16.3 22.8 21.6 4.2 2.7 8.5 4.8 12.7 6.4 4.2 1.6 8.4 2.5 12.3 3.2 7.8 1.1 14.2.5 18.6-.1 2.2-.3 3.9-.7 5.1-1 .6-.1 1-.2 1.3-.3.3-.1.4-.1.4-.1s.6-.2 1.7-.5c.6-.2 1.3-.3 2.1-.6s1.7-.6 2.8-1c4.2-1.5 10-4.1 16.6-8.1 3.2-2.1 6.7-4.5 10.1-7.3 1.8-1.4 3.4-2.9 5.2-4.5 1.7-1.6 3.4-3.3 5.1-5.1 1.7-1.8 3.3-3.7 5-5.6 1.6-2 3.2-4 4.8-6.1 3.1-4.2 6.1-8.7 8.7-13.4 2.6-4.7 5.1-9.7 7.2-14.7 2.1-5.1 3.8-10.2 5.3-15.4.4-1.3.7-2.6 1-3.9.2-.7.3-1.3.5-2l.4-1.9c.5-2.5 1.2-4.9 1.9-7.3.7-2.4 1.4-4.7 2.3-7 .4-1.1.8-2.2 1.3-3.3.2-.5.5-1.1.7-1.6.2-.5.4-.9.6-1.4 1.9-4.1 3.8-7.3 4.9-8.7 1.9-2.7 3.5-4.7 5.2-6.5 1.7-1.8 3.4-3.4 6.1-4.8-3-.1-5.8.8-8.2 2.2-2.5 1.4-4.7 3.5-6.9 6.6-1.2 1.6-3.3 5.1-5.3 9.4-.2.5-.4 1-.6 1.4-.2.6-.5 1.1-.7 1.7-.5 1.1-.9 2.3-1.3 3.5-.9 2.4-1.6 4.8-2.4 7.3-.7 2.5-1.4 5-1.9 7.6-.1.7-.3 1.3-.4 2-.1.6-.3 1.2-.4 1.8-.3 1.2-.6 2.5-1 3.7-1.4 5-3.1 10-5.1 14.9-2 4.9-4.4 9.6-6.9 14.2s-5.4 8.9-8.4 13c-1.5 2-3.1 4-4.6 5.9-1.6 1.8-3.2 3.7-4.8 5.4-1.6 1.7-3.3 3.3-4.9 4.9-1.7 1.5-3.3 3-5 4.3-3.3 2.7-6.6 5-9.6 7-6.2 3.9-11.7 6.3-15.7 7.7-1 .3-1.9.6-2.6.9-.8.2-1.4.4-2 .6-1.1.3-1.6.5-1.6.5s-.1 0-.4.1c-.3.1-.7.2-1.2.3-1.1.2-2.7.6-4.7.9-4.1.6-10.1 1.1-17.2.1-3.6-.6-7.4-1.5-11.3-2.9-3.9-1.5-7.9-3.5-11.8-6-7.9-5-15.3-12.1-21.5-20.4-6.3-8.3-11.2-17.9-14.8-27.6-1.8-4.9-3.2-9.8-4.3-14.7-1.1-4.9-1.8-9.7-2.3-14.3-.1-1.2-.2-2.3-.3-3.4-.1-1.1-.2-2.2-.2-3.3 0-1.1-.1-2.2-.1-3.3v-1.6-1.2-2.9c.1-1.7.2-3.2.2-4.1.1-1.7.3-3.3.3-4.7 0-1.4.1-2.8.1-4.1-.6-3.2-.6-5.7-.7-8.7z"/><path fill="#7FC9C7" d="M139.9 237.9c1.1 1.1 1.8 2.2 2.7 3.3.8 1.1 1.6 2.1 2.5 3.1.9 1 1.9 2 3 3 1.2 1 2.6 2 4.4 2.9 1 .4 2.6 1.2 4.9 1.2 1.2 0 2.3-.2 3.5-.5.3-.1.5-.2.8-.2.4-.1.7-.3 1-.4.7-.3 1.3-.6 2-1 1.3-.8 2.5-1.7 3.6-2.8.3-.3.5-.6.8-.9.2-.4.5-.7.7-1.1.5-.8.8-1.8 1-2.9.1-.6.2-1.2.3-1.9 0-.3.1-.6.1-.9l.3-.9c.6-2.4 1.7-4.6 3.4-6.2 1.6-1.6 3.7-2.8 5.9-3.4 1.1-.3 2.2-.5 3.3-.6.3 0 .5-.1.8-.1h1.4c.1 0 .1-.1.2-.1l.4-.2.6-.3c.3-.2.6-.3 1-.5 1.4-.8 2.7-1.9 3.6-3.4.9-1.5 1.2-3.4 1-5-.1-.8-.3-1.5-.5-2.2-.1-.4-.3-.7-.4-1-.1-.2-.2-.3-.3-.5-.1-.3-.3-.5-.5-.7-1.1-1.3-2.1-2-3-2.7-1-.7-1.9-1.3-2.9-1.8-.5-.3-.9-.5-1.4-.8-.4-.2-.9-.5-1.3-.7-1.6-1-3.2-1.9-4.5-2.7-1.4-.8-2.6-1.6-3.7-2.2-.3-.2-.5-.3-.8-.5-.1-.1-.2-.1-.4-.2l-.5-.3c-.2-.1-.5-.3-.7-.4-.8-.6-.9-1-.7-.7 0 0-.1-.1 0 0 0 0-.1-.1 0 0-.8-1.1-.8-2.4-.3-3.7.4-1.3 1.2-2.7 1.9-4.1.3-.7.6-1.4.8-2.2.1-.4.2-.8.2-1.2v-.6-.5c0-1.2-.1-2.1-.1-2.8-.1-1.5 0-2.2 0-2.7 0-.2.1-.4.1-.4v-.1-.1c.1-.1-.1 0 .4-.9.2-.4.5-.9.8-1.5.1-.1.2-.3.3-.4 0-.1.1-.2.1-.2-.1-.1-.2-.1-.2-.2-.3-.2-.7-.4-1.1-.7-.9-.5-1.6-1.2-1.7-1.4-.3-.3-.6-.8-.9-1.3-.1-.1-.2-.3-.4-.7-.1-.2-.2-.4-.3-.7-.1-.3-.1-.6-.1-.7h-.1l-.3-.1c-.1 0-.3-.1-.5-.1h-.1c-.2-.1 1.8.6.9.3v-.2l.1-.2c.1-.2.2-.4.3-.7.2-.4.6-.8 1.3-1.3.4-.2.8-.5 1.2-.7.2-.1.5-.2.8-.3.1-.1.3-.1.4-.2h.1c.3-.1-.4.1-.3.1h.2l.3-.1c.9-.2 1.8-.8 2.7-1.4.8-.7 1.5-1.4 2.1-2.3.5-.8 1.1-1.9 1.5-3.1.2-.6.4-1.3.6-2.1 0-.2.1-.4.1-.7 0-.2 0-.3.1-.5 0-.3.1-.7.1-1 .5-2.8 1.1-6.2 2.4-9.6.3-.8.7-1.7 1.1-2.4l.2-.3.1-.1.5-.6c.3-.4.6-.8 1-1.2 1.3-1.6 2.7-3.1 4.3-4.4 1.6-1.3 3.4-2.5 5.4-3.5 2-1 4.1-1.9 6.1-2.4 1-.3 2.2-.4 3.2-.6 1.1-.1 2.2-.2 3.3-.2 2.2-.1 4.4.1 6.6.4 1.1.2 2.1.4 3.2.6.9.2 1.7.5 2.6.7.8.3 1.6.5 2.3.8.8.2 1.4.6 2.1.8.6.3 1.3.6 1.8.8 1.1.6 2 1.1 2.6 1.4 1.4.9 2.7 1.6 3.9 2.4 1.2.8 2.3 1.4 3.4 2.1 1.1.7 2.2 1.3 3.3 2.1 1.1.7 2.2 1.5 3.5 2.3-.7-1.3-1.4-2.5-2.2-3.7-.8-1.1-1.6-2.2-2.5-3.2-.9-1.1-2-2-3.1-3-.6-.5-1.2-.9-1.9-1.4-.7-.5-1.4-1-2.2-1.4-.7-.4-1.7-.9-2.9-1.6-.6-.3-1.3-.6-2-.9-.7-.3-1.5-.7-2.3-.9-.8-.3-1.7-.6-2.6-.9-.9-.3-1.9-.5-2.9-.8-1.2-.3-2.4-.5-3.5-.7-2.4-.3-4.9-.6-7.4-.5-1.3 0-2.5.1-3.8.2-1.3.2-2.5.4-3.8.7-.6.1-1.3.3-1.9.5l-.9.3-.9.3c-1.2.4-2.3 1-3.4 1.5-2.2 1.1-4.4 2.5-6.3 4.1-1.9 1.6-3.5 3.3-4.9 5-.3.4-.7.9-1 1.3l-.5.6c-.1.1-.3.4-.4.6l-.2.4c-.6 1-1 2-1.4 3-1.5 4-2.2 7.5-2.7 10.5-.1.4-.1.7-.2 1.1 0 .2 0 .4-.1.5 0 0 0 .2-.1.3-.1.5-.3 1-.4 1.5-.3.9-.7 1.6-1 2.1-.4.5-.8.9-1.1 1.3-.4.3-.8.5-1.2.6-.2.1-.4.1-.6.2-.2.1-.3.1-.5.2-.3.1-.7.3-1 .4-.6.3-1.2.6-1.8 1-1.1.7-2.1 1.7-2.7 2.8-.3.5-.5 1-.7 1.5l-.2.6c-.1.4-.2.7-.2 1 0 1.2.2 1.8.3 2.4.2.5.3.9.5 1.2.3.6.5.9.6 1.1.5.8.9 1.5 1.4 2 .6.7.7.7.6.7-.1.3-.1.4-.1.5v.4c0 .2-.1.4-.1.8-.1.7-.1 1.9 0 3.5 0 .8.1 1.7.1 2.6v.5c0 .2 0 .3-.1.6-.1.4-.3.9-.6 1.5-.5 1.1-1.4 2.5-2.1 4.6-.3 1-.6 2.3-.5 3.7.1 1.4.5 2.9 1.5 4.1l.1.1.1.1c-.2-.3-.2-.3 0 0s.7.9 1.5 1.5c.4.3.9.7 1.6 1 .2.1 0 0 .1.1s.2.1.4.2.5.3.8.5c1 .6 2.3 1.4 3.7 2.2 1.4.8 2.9 1.8 4.6 2.8.4.2.9.5 1.3.7.4.2.8.5 1.3.7.9.5 1.7 1 2.5 1.6.8.6 1.7 1.3 2 1.7 0 .1.1.2.1.3.1.2.2.4.2.6l.3 1.2c.1.8-.1 1.5-.4 2.1-.4.6-1 1.2-1.9 1.7l-.6.3-.2.1c-.1 0 0 0 0 0h-.6c-.4 0-.7 0-1 .1-1.4.1-2.8.4-4.2.8-2.8.8-5.7 2.3-7.9 4.6-2.3 2.3-3.8 5.3-4.5 8.2l-.3 1.1c-.1.4-.1.8-.2 1.1-.1.7-.2 1.5-.3 2.2-.1.5-.5 1.4-1.3 2.1-.7.8-1.6 1.5-2.6 2-.5.3-1 .5-1.5.7-.2.1-.5.2-.7.3l-.5.2c-.8.2-1.5.3-2.1.3-1.3 0-2.4-.5-3.1-.8-1.4-.6-2.6-1.4-3.8-2.1-1.2-.8-2.3-1.5-3.4-2.2-1.1-.7-2.2-1.4-3.4-2-1-.4-2.3-1.1-3.7-1.6z"/><path fill="#009490" d="M155.1 7.8c-2.2-2.1-4.3-3.7-6.8-4.9-2.5-1.3-5.3-2.2-9-2.6-1.3-.1-3.3-.4-7.6-.2-2.5.1-5.4.5-8.4 1.2-3.1.7-6.4 1.7-9.6 3.1-6.6 2.7-13 7-18.2 11.6-5.3 4.6-9.3 9.6-11.9 13.4-.6 1-1.2 1.8-1.7 2.6s-.9 1.5-1.2 2c-.3.6-.6 1-.8 1.3-.2.3-.3.5-.3.5s-.3.5-.8 1.5-1.3 2.4-2.1 4.2c-1.7 3.6-3.7 8.7-5.2 14.7s-2.2 12.9-1.8 19.5c.3 6.7 1.9 13.1 3.9 18.1 2.2 5.3 4.2 8.2 5.3 9.7 2.2 3 4.4 5.1 6.7 6.6s4.7 2.6 7.6 3.5c-2.2-2.2-3.7-4.1-5.3-6-1.6-2-3.2-4-5.2-6.8-.9-1.4-2.8-4-4.7-8.8-1.8-4.6-3.3-10.4-3.6-16.6-.3-6.2.3-12.6 1.7-18.2 1.3-5.6 3.3-10.4 4.8-13.8.8-1.7 1.5-3 2-3.9.5-.9.8-1.4.8-1.4s.1-.1.2-.4c.2-.3.4-.7.7-1.2.3-.5.7-1.2 1.2-1.9s1-1.5 1.6-2.4c2.5-3.5 6.3-8.2 11.2-12.6 4.9-4.3 10.9-8.3 17-10.8 3-1.3 6-2.2 8.9-2.9 2.8-.6 5.4-.9 7.7-1.1 3.8-.2 5.7.1 6.8.1 3.3.4 5.9.8 8.4 1.2 2.3.4 4.8.9 7.7 1.7zM177.8 22.4c1.5 2.6 2.3 5 3.1 7.3.7 2.4 1.4 4.9 2.1 8.2.1.4.2 1 .3 1.6.1.7.2 1.4.3 2.2.1.8.1 1.8.1 2.8V46c0 .5-.1 1-.1 1.6 0 .5 0 1.1-.1 1.6s-.1 1.1-.2 1.7c-.1 1.1-.3 2.3-.5 3.4-.3 1.2-.5 2.3-.8 3.5-.6 2.4-1.3 4.9-2 7.4s-1.6 5-2.3 7.8c-.4 1.4-.7 2.9-.8 4.4 0 .8 0 1.6.1 2.4.1.8.3 1.6.5 2.3.8 2.9 2 5.3 3.2 7.7.6 1.2 1.2 2.3 1.8 3.5l.5.8c.1.1 0 0 0 .1s.1.2.1.3c.1.4.2.8.2 1.1 0 .7-.2 1.3-.6 1.9-.4.6-1 1-1.9 1.4-.8.4-1.7.8-2.5 1.1-.9.3-1.7.5-2.8.8-.5.1-1.1.4-1.7.7-.6.3-1.2.8-1.7 1.3s-.8 1.1-1 1.6c-.2.5-.4.9-.5 1.4-.3.9-.4 1.9-.4 2.6 0 .7 0 1.2-.1 1.6-.1.8-.3 1.5-.4 1.9-.2.5-.3.7-.3.7s-.1.1-.2.5c-.2.4-.4.9-.9 1.9-.5.9-1.3 2.2-2.6 3.8-.6.8-1.4 1.7-2.3 2.7l-.6.6-.2.2-.1.3-.2.5c-.1.4-.3.8-.4 1.2-.3.7-.5 1.5-.8 2.3-.3.8-.7 1.9-1.2 3.3-.1.2-.1.4-.2.5l-.1.3-.1.1-.2.2c-.5.5-1.2.9-1.9 1.3-1.4.7-3.2 1.1-5 .7-.9-.1-1.9-.6-2.9-1-.5-.3-.9-.6-1.4-.9-.5-.3-1-.8-1.6-1.1-4.3-3.2-8.7-6.8-12.8-10.4-.5-.5-1-.9-1.5-1.4l-.9-.8c-.6-.5-.9-.6-1.3-.8-1.5-.7-3-1.2-4.7-1.3-1.6-.1-3.3.1-4.8.7-.4.1-.7.3-1.1.5-.3.2-.7.3-1 .5l-.9.6-.4.3-.4.4c-.6.6-1.2 1.1-1.6 1.7-.4.6-.9 1.1-1.2 1.6l-.9 1.5c-.3.5-.5 1-.7 1.4-.4.9-.7 1.7-.9 2.4-.1.3-.2.7-.3 1-.1.3-.1.6-.2.8-.8 4-.1 7.2 1.1 9.8 1.2 2.6 2.9 4.8 5.2 6.7-1.2-2.8-1.7-5.2-2-7.6-.3-2.4-.4-4.9.2-7.9 0-.2.1-.4.1-.6.1-.2.2-.5.2-.7.2-.5.3-1.2.7-1.8.2-.3.3-.7.5-1.1.2-.4.5-.8.7-1.2.2-.4.6-.8.9-1.2.3-.4.7-.8 1.1-1.2 1.3-1.3 3.1-2 5-1.8 1 .1 2 .4 3 .8.2.1.5.3.4.2l.7.6c.5.5 1 .9 1.6 1.4 4.2 3.7 8.7 7.4 13.1 10.6.6.4 1.1.8 1.7 1.2.6.4 1.2.8 1.9 1.2 1.3.7 2.7 1.3 4.2 1.5 1.4.3 2.9.3 4.3.1 1.4-.2 2.6-.7 3.7-1.2 1.1-.6 2-1.2 2.8-1.9l.3-.3.4-.3c.3-.3.6-.6.7-1 .2-.5.3-1 .5-1.4.5-1.4.9-2.5 1.2-3.3.3-.8.6-1.6.8-2.3.1-.3.2-.7.4-1l.1-.2c1-1.1 1.8-2.1 2.6-3 1.4-1.8 2.3-3.3 3-4.4.6-1.1 1-1.9 1.1-2.3.2-.5.3-.6.3-.6l.3-.9c.2-.6.5-1.6.6-2.9.1-.7.1-1.4.1-1.9 0-.6.1-1 .2-1.5.1-.2.2-.6.3-.8.1-.2.2-.4.3-.5.1-.1.2-.2.4-.3.2-.1.5-.2.9-.3.8-.2 1.8-.4 2.9-.8 1.1-.3 2.2-.8 3.3-1.4 1.1-.6 2.4-1.4 3.4-2.7 1-1.3 1.6-3.1 1.6-4.7 0-.8-.1-1.7-.4-2.4-.1-.2-.1-.4-.2-.6-.1-.2-.3-.6-.4-.7l-.4-.8c-.6-1.1-1.2-2.1-1.7-3.3-1.1-2.2-2.2-4.6-2.8-6.8-.6-2.1-.4-4.3.3-6.7.7-2.5 1.6-5.1 2.3-7.6.8-2.6 1.5-5.1 2.1-7.6.3-1.2.6-2.6.8-3.8.3-1.2.4-2.5.6-3.7.1-.6.2-1.2.2-1.8 0-.6.1-1.2.1-1.8 0-.6.1-1.2.1-1.7v-.9-.7c-.1-1.1 0-2.1-.2-3.1-.1-.9-.2-1.8-.3-2.5-.1-.7-.3-1.4-.3-1.9-.8-3.7-2-6.4-3.6-8.8-1.6-2.7-3.5-4.6-6.1-6.2z"/><path fill="#7FC9C7" d="M170.6 20c.1.8-.3 1.7-.9 2.1-.6.5-1.2.8-1.9 1.1-1.4.5-2.9.8-4.4 1-3 .4-5.9.6-8.9.9-3 .2-6.1.5-9.5.9-1.7.2-3.5.4-5.5.8-2.2.4-4.2 1.1-6.4 1.7-.7.3-1.6.6-2.6 1-.5.2-1.1.4-1.7.7-.6.3-1.2.6-1.9 1-2.7 1.3-6.3 3.6-10.2 7.5-3.7 3.6-7.5 9.5-9.8 16.1-2.5 6.5-4 13.5-5.3 19.8-.6 3.2-1.2 5.9-1.8 8.5-.7 2.5-1.3 4.8-2 6.6-.6 1.9-1.2 3.3-1.7 4.3-.4 1-.7 1.6-.7 1.6s-.9 1.8-2.5 4.6-4.2 6.4-7.9 9.8c-3.6 3.3-8.3 6.2-13.4 8.2-5.1 1.9-10.4 3.1-14.9 3.5-5.8.8-10.3.3-13.9-.4-3.6-.6-6.1-1.6-7.9-2.3-7-2.7-12.5-5.8-17.9-8.5-5.4-2.8-10.8-5.5-17.3-8.6 4.3 5.7 8 10.5 12.6 15 2.3 2.2 4.8 4.4 7.9 6.5 3 2.1 6.5 4 10.8 5.7 2.1.8 5.2 2 9.7 2.8 4.4.9 10.4 1.4 17.2.5 5.1-.5 11.4-1.8 17.5-4.2 6.2-2.3 12.2-6 16.8-10.3 4.6-4.3 7.9-8.9 9.8-12.3 1.9-3.4 2.9-5.6 2.9-5.6s.3-.7.8-1.8c.5-1.2 1.3-2.9 2-5 .8-2.1 1.5-4.7 2.3-7.5.7-2.8 1.4-6.1 2-9 1.2-6.1 2.7-12.6 4.8-18.1 2-5.5 4.9-9.8 7.5-12.4 2.8-2.8 5.3-4.5 7.4-5.5.5-.3 1-.5 1.4-.8.5-.2.9-.4 1.3-.5.8-.3 1.5-.6 2-.8 1.8-.5 3.5-1.2 5-1.6 1.8-.4 3.5-.9 5.1-1.3 3.4-.9 6.5-1.9 9.5-3 3-1.2 5.9-2.5 8.7-4.4 1.4-.9 2.8-1.9 4.1-3.3.6-.7 1.2-1.5 1.6-2.4.8-.7.7-1.7.2-2.6z"/></svg>