<svg id="Layer_1" xmlns="http://www.w3.org/2000/svg" viewBox="0 0 283.5 77.9"><style>.st0{fill:#2b3383}.st1{fill:#613392}.st2{fill:#fff}</style><path class="st0" d="M10.6 34.9c2.5 0 4.6.2 6.3.6 1.8.4 3.5 1.1 5.4 2l1.8-3.9 1.8-3.9H0C.6 31.9 1.1 34 1.3 36s.4 4.5.4 7.5v19.9c0 3-.1 5.5-.4 7.6C1 73.1.6 75 0 77.1h10.5c-.6-2.1-1.1-4.2-1.3-6.2s-.4-4.5-.4-7.5v-7.9c2.5 0 4.5.2 6.2.6 1.7.4 3.2 1 4.8 2l2.2-3.8 2.2-3.8H8.9V34.9h1.7zM54.5 60.7l-3.4-5.1c1.4-.6 2.6-1.2 3.8-2 3.6-2.5 5.4-5.7 5.4-9.7 0-4.5-1.6-8-4.9-10.4s-7.9-3.7-14-3.7h-8.9c.6 2.2 1.1 4.2 1.3 6.3.2 2 .4 4.5.4 7.5v19.9c0 3-.1 5.5-.4 7.6-.2 2-.7 4.1-1.3 6.2H43c-.6-2.1-1.1-4.2-1.3-6.2-.2-2-.4-4.5-.4-7.5v-8.1l1.2 1.9c2.3 3.5 5.1 7.2 8.3 11 3.3 3.9 6.1 6.8 8.5 8.9H68c-3.4-3.8-6.1-6.8-8.1-9.2-2-2.6-3.8-5-5.4-7.4zm-5.4-9.8c-2 1.6-4.5 2.5-7.6 2.7V34.3c3.2.1 5.8 1 7.8 2.5 2.1 1.7 3.2 3.9 3.2 6.7-.1 3.1-1.2 5.5-3.4 7.4zM138.9 49.5c-2.6-1.6-4.4-3.1-5.4-4.3-1-1.2-1.5-2.6-1.5-4.2 0-1.8.6-3.3 1.9-4.5 1.3-1.2 2.9-1.8 4.9-1.8 1.7 0 3.2.3 4.7 1 1.4.7 2.8 1.8 4.2 3.3v-8.2c-1.2-.6-2.5-1.1-3.8-1.4s-2.9-.5-4.6-.5c-4.3 0-7.8 1.2-10.7 3.7-2.8 2.5-4.2 5.6-4.2 9.3 0 2.7.8 5.1 2.3 7.1 1.6 2.1 4.2 4.3 8.1 6.7 2.7 1.7 4.5 3.2 5.5 4.5 1 1.4 1.6 2.9 1.6 4.7 0 2-.8 3.7-2.3 5-1.5 1.3-3.5 2-5.8 2-1.9 0-3.6-.4-5.1-1.3-1.5-.9-3.1-2.2-4.5-4v8.9c2 .8 3.7 1.4 5.2 1.7 1.5.3 3.3.5 5.4.5 4.2 0 7.7-1.3 10.5-3.9 2.8-2.6 4.2-5.9 4.2-9.8 0-2.9-.8-5.4-2.4-7.6-1.6-2.2-4.3-4.4-8.2-6.9zM156.3 29.7l-1.4 4.1-1.4 4.1c2.3-1.2 5.1-2 8.6-2.5 1.8-.3 3.9-.4 6.4-.5v28.5c0 2.8-.1 5.2-.4 7.2-.3 2-.7 4.2-1.4 6.5h10.8c-.7-2.4-1.2-4.6-1.4-6.6-.3-2-.4-4.4-.4-7.1V34.7c1.8.1 3.5.3 5.3.6 2 .4 4.3 1.2 7.1 2.2l1.1-3.9 1.1-3.9h-18.2-15.8zM94.1 29c-7.1 0-13 2.3-17.8 6.9-4.7 4.6-7.1 10.3-7.1 17.2 0 7.1 2.2 13 6.7 17.7 4.4 4.7 10 7.1 16.7 7.1 7.1 0 13.1-2.3 17.8-6.9 4.7-4.6 7.1-10.3 7.1-17.2 0-7.1-2.2-13-6.7-17.8-4.5-4.6-10-7-16.7-7z"/><path class="st1" d="M243.2 63.4V45.6l-3.6 5.8-3.6-5.7v17.8c0 3-.1 5.6-.4 7.6-.2 2-.7 4.1-1.3 6.2h10.5c-.6-2.1-1.1-4.2-1.3-6.2-.2-2.2-.3-4.7-.3-7.7z"/><path class="st1" d="M273.6 71c-2.8.5-6.3.8-10.6.9V55.5h.3c2.5 0 4.6.2 6.2.6 1.7.4 3.2 1 4.8 2l2.2-3.8 2.2-3.8h-15.6V34.9h1.9c2.5 0 4.6.2 6.4.6 1.8.4 3.5 1.1 5.4 2l1.8-3.9 1.8-3.9h-26.5l-2.8-1.5 3.5-.9-.2-.9-4.4 1.2-1.6-.9 2.8-.7-.2-.9-3.7 1-1.6-.9 5.9-1.6-.2-.9-6.7 1.8-3.8-2.2 3.8-2.2 6.7 1.8.2-.9-5.9-1.6 1.6-.9 3.7 1 .2-.9-2.8-.7 1.6-.9 4.5 1.2.2-.9-3.6-1 2.8-1.6 1.8.3 2.7-.7-2.7-.4.6-.4 2.6-2.3-3.3 1.1-.6.3 1-2.6-2 2-.7 1.7-2.8 1.6.9-3.5-.9-.2-1.2 4.4-1.6.9.7-2.8-.9-.2-1 3.7-1.6.9 1.6-5.9-.9-.2-1.8 6.7-3.8 2.2v-4.4l4.9-4.9-.6-.7-4.3 4.3v-1.8l2.9-2.8-.7-.6-2 2.1v-1.8l3.3-3.3-.6-.8-2.7 2.7V6.1l1.1-1.4.7-2.7-1.7 2.2v-.7l-.7-3.5-.7 3.4v.7l-1.7-2.2.7 2.7L239 6v3.2l-2.6-2.6-.6.6 3.2 3.2v1.8l-2-2-.6.6 2.7 2.7v1.8l-4.3-4.3-.6.6 4.9 4.9v4.4l-3.8-2.2-1.8-6.7-.9.2 1.6 5.9-1.6-.9-1-3.7-.9.2.8 2.8-1.6-.9-1.2-4.5-.9.2 1 3.6-2.8-1.6-.7-1.7-2-2 1 2.6-.6-.3-3.3-1.1 2.6 2.3.6.4-2.7.4 2.7.7 1.8-.3 2.8 1.6-3.5.9.2.9 4.4-1.2 1.6.9-2.8.7.2.9 3.7-1 1.6.9-5.9 1.6.2.9 6.7-1.8 3.8 2.2-1.2.7-2.6 1.5-6.7-1.8-.2.9 5.9 1.6-1.6.9-3.7-1-.2.9 2.8.7-1.6.9-4.5-1.2-.2.9 3.6 1-2.6 1.5h-30.4l-1.4 4.1-1.4 4.1c2.3-1.2 5.1-2 8.6-2.5 1.8-.3 3.9-.4 6.4-.5V63c0 2.8-.1 5.2-.4 7.2-.3 2-.7 4.2-1.4 6.5h10.8c-.7-2.4-1.2-4.6-1.4-6.6-.3-2-.4-4.4-.4-7.1V34.7c1.8.1 3.5.3 5.3.6 2 .4 4.3 1.2 7.1 2.2l1-3.4 1.9-5.6 1.6-.9-.7 2.8.9.2 1-3.7 1.6-.9-1.6 5.9.9.2 1.8-6.7 3.8-2.2v4.4l-4.9 4.9.6.7 4.3-4.3v1.8l-2.7 2.7.7.6 2-2.1v1.8l-3.3 3.3.7.6 2.7-2.7v3.2l-1.1 1.4-.7 2.7 1.7-2.2v.7l.7 3.4.7-3.4V40l1.7 2.2-.7-2.7-1.1-1.4v-3.2l2.6 2.6.6-.6-3.2-3.2v-1.8l2 2 .6-.6-2.7-2.7v-1.8l4.3 4.3.6-.6-4.9-4.9v-4.4l1.2.7 2.6 1.5 1.8 6.7.9-.2-1.6-5.9 1.6.9 1 3.7.9-.2-.8-2.8 1.6.9 1.2 4.5.9-.2-1-3.6 3.6 2.1c.5 1.6 1.1 3.2 1.3 4.7.2 2 .4 4.5.4 7.5v19.9c0 3-.1 5.5-.4 7.6-.2 2-.7 4.1-1.3 6.2h25.2l2-4.8 2-4.8c-3 1.6-6.2 2.7-9.9 3.4z"/><path class="st2" d="M93.2 69l-.5 2.5.7 3.3.7-3.3-.6-2.5h.1l.5 1.8 1.6 2.1-.7-2.5-1.1-1.4v-3.1l2.5 2.4.6-.6-3.1-3.1v-1.8l2 2 .6-.6-2.6-2.6v-1.8l4.2 4.2.6-.7-4.8-4.7v-4.2l1.2.6 2.5 1.5 1.7 6.5.8-.2-1.5-5.7 1.6.9.9 3.6.8-.2-.7-2.7 1.6.9 1.1 4.3.7-.2-.8-3.5 2.6 1.6.6 1.6 1.9 1.9-1-2.5-1.3-1.3v-.1l2 1.8 3.1 1.1-2.5-2.3-2.4-.8v-.1l1.9.6 2.6-.4-2.6-.7-1.7.2-2.6-1.6 3.3-.8-.2-.9-4.2 1.1-1.5-.9 2.7-.7-.2-.8-3.6.9-1.5-.9 5.5-1.5-.1-.8-6.5 1.7-3.6-2.2 1.1-.6 2.6-1.4 6.4 1.8.2-.8-5.5-1.6 1.5-.9 3.5 1 .3-.8-2.7-.8 1.6-.9 4.2 1.3.2-.9-3.4-1 2.7-1.5 1.7.3 2.6-.6-2.6-.4-1.9.4 2.5-.8L112 43l-3.2 1-2 1.7 1.4-1.4 1-2.4-1.9 1.8-.7 1.7-2.6 1.5.9-3.4-.8-.2-1.2 4.2-1.5.8.7-2.6-.8-.3-1 3.5-1.6.9 1.6-5.6-.8-.2-1.8 6.4-3.8 2.1v-4.3l4.8-4.7-.6-.7-4.2 4.2v-1.8l2.6-2.6-.6-.6-2 2v-1.8l3.2-3.2-.6-.6-2.6 2.5v-3.1l1.1-1.4.7-2.5-1.6 2.1-.5 1.8h-.1l.5-2.5-.6-3.3-.7 3.3.5 2.5-.5-1.8-1.7-2.1.7 2.5 1.1 1.4v3.1l-2.5-2.4-.6.6 3.1 3.1V44l-1.9-2-.6.6 2.5 2.6V47l-4.1-4.2-.6.7 4.7 4.7v4.2l-1.1-.6-2.5-1.5-1.7-6.5-.8.2 1.4 5.7-1.5-.9-.9-3.6-.9.2.7 2.7-1.5-.9-1.1-4.3-.9.2.9 3.5-2.7-1.6-.6-1.6-1.8-1.9.9 2.4 1.4 1.4-.1.1-1.9-1.8-3.1-1.1 2.4 2.3 2.5.8v.1l-1.9-.6-2.6.4 2.5.7 1.8-.2 2.7 1.6-3.4.8.2.9 4.2-1.1 1.6.9-2.7.7.2.8 3.5-.9 1.6.9-5.7 1.5.2.8 6.5-1.7 3.7 2.2-1.2.6-2.5 1.4-6.5-1.8-.2.8 5.6 1.6-1.6.9-3.5-1-.2.8 2.7.8-1.6.9-4.3-1.3-.3.9 3.5 1-2.7 1.5-1.7-.3-2.6.6 2.6.4 1.9-.4-2.5.8-2.5 2.2 3.2-1 1.9-1.7h.1l-1.4 1.4-1.1 2.4 2-1.8.6-1.7 2.8-1.5-1 3.4.8.2 1.2-4.2 1.6-.8-.8 2.6.9.3 1-3.5L88 57l-1.6 5.6.9.2 1.8-6.4 3.7-2.1v4.3l-4.7 4.7.6.7 4.1-4.2v1.8l-2.6 2.6.7.6 1.9-2v1.8l-3.1 3.2.6.6 2.5-2.5V69l-1.1 1.4-.7 2.5 1.7-2.1z"/></svg>