<svg xmlns="http://www.w3.org/2000/svg" width="328.341" height="283.464" viewBox="0 0 328.341 283.464"><path fill="#345424" d="M40.317 222.73c-14.286-41.135 35.399-95.763 110.982-122.01 38.066-13.221 75.435-16.716 104.983-11.676-29.832-20.118-85.555-22.248-142.853-2.349-75.581 26.248-125.268 80.874-110.98 122.009 7.089 20.42 28.612 33.674 57.73 38.64-9.517-6.419-16.407-14.663-19.862-24.614z"/><path fill="#8B9F78" d="M302.719 163.599c-4.994-14.39-19.13-24.086-37.974-28.165 6.266 4.679 10.889 10.569 13.324 17.585 10.063 28.979-20.727 65.993-68.775 82.684-24.191 8.401-48.139 10.039-67.246 5.901 19.618 14.65 55.48 17.326 91.901 4.685 48.047-16.693 78.835-53.709 68.77-82.69z"/><path fill="#345424" d="M103.22 49.293c-3.941 24.563-19.913 42.424-35.668 39.894-15.76-2.528-25.335-24.491-21.392-49.053C50.102 15.572 66.068-2.29 81.831.238c15.757 2.529 25.331 24.493 21.389 49.055z"/><path fill="#8B9F78" d="M286.911 275.926c-14.354-10.002-20.366-26.187-13.428-36.132 6.936-9.95 24.192-9.902 38.548.104 14.351 10.002 20.365 26.183 13.425 36.135-6.935 9.953-24.191 9.9-38.545-.107z"/><text transform="translate(49.452 211.376)" fill="#345424" font-family="'PerpetuaTitlingMT-Light'" font-size="60.771">GRACES</text></svg>