<svg xmlns="http://www.w3.org/2000/svg" width="268.489" height="212.598" viewBox="0 0 268.489 212.598"><radialGradient id="a" cx="-334.07" cy="-608.467" r="13.342" gradientTransform="translate(3481.445 6204.05) scale(10.021)" gradientUnits="userSpaceOnUse"><stop offset="0" stop-color="#4b2a00"/><stop offset=".022" stop-color="#4b2a00"/><stop offset=".063" stop-color="#4f2e00"/><stop offset=".379" stop-color="#6e4b2d"/><stop offset=".651" stop-color="#876448"/><stop offset=".868" stop-color="#98775b"/><stop offset="1" stop-color="#9e7e63"/></radialGradient><path fill="url(#a)" d="M260.366 7.083c-3.625-1.957-9.963-2.264-13.139-2.317-42.178-.619-75.248 29.449-95.797 55.624-4.152 5.283-7.357 12.616-11.111 17.057-.52.613-2.021-.061-2.021-.061s-.271-10.032-3.863-11.59c-10.319-2.081-13.545 9.546-13.545 9.546s-1.332.216-1.502-.175c-5.797-17.156-40.104-57.794-66.845-68.86C43.901 2.727 32.791.044 23.071 0h-.523c-3.066.012-5.984.299-8.634.901C8.754 2.079 4.241 9.368 3.101 14.04c-.754 3.037-.979 8.136-.771 10.045.532 4.883 4.922 8.486 5.406 14.68.401 5.104-2.884 7.796-.771 13.906-4.421 3.752-2.597 9.218-3.861 16.224C2.399 72.733.03 74.694 0 77.084v.087c.004.07.004.145.009.221.465 6.471 8.459 9.912 8.5 16.227 5.254 3.501 12.896 4.615 21.631 4.637-4.553 4.974-10.621 8.438-13.906 14.675-2.053 14.546-4.12 32.468 5.41 40.945-.166 4.802 2.574 6.693 3.09 10.813 6.539 1.958 7.119 9.88 10.813 14.684 5.977 1.231 9.252 5.172 10.817 10.814 8.491 1.038 11.68 7.376 16.226 12.358 5.836-.948 8.266 1.604 10.449 4.152 1.917 2.233 3.65 4.474 7.32 4.349 4.962-.164 8.642-7.365 11.586-11.589 3.597-5.161 7.377-9.99 9.271-14.678 3.008.409 5.182-2.449 6.953-4.641 4.34-5.333 8.529-12.258 10.817-19.31 1.726-5.323 1.489-12.115 5.079-16.587.314-.239.285-1.015.972-1.021.685-.01.522.758.576 1.233 1.209 9.967-1.966 37.699 11.139 24.869.488-8.622-.902-19.129.557-26.789.063-.35.967-.142 1.098.257 3.084 9.337.645 20.808 3.76 29.624 1.545 4.369 5.51 6.448 5.404 10.815 10.713 3.318 9.908 29.886 23.174 29.357 6.928-.276 6.482-9.454 17.771-6.954 2.818-2.585 5.846-4.964 7.723-8.497 2.545-.547 4.938-1.248 7.725-1.546 4.008-4.492 6.295-10.713 13.91-11.589 2.199-2.762 1.697-6.573 4.635-10.047 2.006-2.377 5.977-2.762 7.729-5.408 1.135-1.699.584-5.511 2.316-8.5 1.752-3.017 5.619-4.447 6.18-7.726.783-4.521 3.039-13.393 3.088-15.454.082-3.119-2.305-7.396-2.316-11.586 0-2.153 1.129-4.492.771-6.181-1.402-6.512-9.119-9.672-10.816-14.679 7.311.793 15.348 1.795 20.861-1.545 3.264-1.978 3.057-5.099 5.41-8.498 2.67-3.855 6.354-5.43 6.953-10.047.277-2.171-2.283-5.149-2.318-8.496-.033-2.74 1.773-4.805 1.547-6.954-.393-3.71-3.318-6.971-3.861-10.044 2.518-2.917 1.641-10.61.771-14.678 2.287-5.061 8.16-9.873 9.271-14.681 1.634-7.067-1.97-19.291-7.729-22.393z"/><path fill="#FFF" d="M70.981 125.929v1.354H43.937v-1.354h1.717c1.498 0 2.703-.271 3.619-.81.66-.359 1.168-.98 1.524-1.854.281-.621.415-2.242.415-4.869v-34.12c0-2.678-.134-4.351-.415-5.021-.282-.67-.844-1.254-1.698-1.758-.849-.5-1.996-.752-3.445-.752h-1.717v-1.354h27.041v1.353h-1.703c-1.489 0-2.691.271-3.598.81-.658.362-1.176.98-1.553 1.856-.277.617-.415 2.241-.415 4.867v34.124c0 2.679.146 4.351.437 5.021.291.668.855 1.257 1.707 1.757.842.499 1.988.753 3.425.753l1.703-.003zM105.329 127.284H74.794v-.842c9.401-11.133 15.102-18.621 17.096-22.47 1.994-3.846 2.998-7.602 2.998-11.27 0-2.677-.836-4.9-2.496-6.669-1.66-1.773-3.69-2.655-6.096-2.655-3.938 0-6.988 1.96-9.162 5.88l-1.416-.495c1.375-4.899 3.467-8.524 6.275-10.872 2.802-2.347 6.044-3.522 9.716-3.522 2.627 0 5.026.61 7.194 1.834a13.285 13.285 0 0 1 5.09 5.023c1.222 2.126 1.834 4.12 1.834 5.98 0 3.389-.941 6.829-2.834 10.319-2.581 4.713-8.21 11.289-16.893 19.719h11.217c2.757 0 4.549-.115 5.377-.345.83-.229 1.513-.616 2.048-1.161.536-.544 1.239-1.696 2.104-3.452h1.363l-2.88 14.998zM186.147 74.235l.453 17.253h-1.547c-.742-4.314-2.559-7.786-5.455-10.414-2.893-2.626-6.025-3.94-9.393-3.94-2.604 0-4.662.695-6.184 2.078-1.52 1.388-2.273 2.982-2.273 4.792 0 1.146.266 2.162.803 3.053.742 1.196 1.926 2.378 3.559 3.548 1.199.842 3.965 2.327 8.299 4.463 6.068 2.979 10.156 5.792 12.273 8.438 2.088 2.651 3.137 5.679 3.137 9.092 0 4.331-1.689 8.053-5.08 11.171-3.385 3.123-7.68 4.685-12.889 4.685-1.641 0-3.188-.17-4.645-.502-1.459-.333-3.279-.961-5.479-1.887-1.229-.515-2.242-.768-3.031-.768-.666 0-1.371.26-2.104.78-.744.519-1.346 1.307-1.809 2.375h-1.35v-19.573h1.35c1.131 5.479 3.293 9.667 6.51 12.545 3.205 2.879 6.664 4.322 10.371 4.322 2.861 0 5.146-.778 6.85-2.333 1.699-1.55 2.545-3.358 2.545-5.415 0-1.22-.324-2.404-.971-3.55-.658-1.146-1.641-2.232-2.969-3.264-1.324-1.025-3.672-2.371-7.037-4.026-4.719-2.312-8.107-4.286-10.172-5.914-2.059-1.628-3.645-3.451-4.748-5.459-1.105-2.012-1.656-4.227-1.656-6.647 0-4.125 1.516-7.638 4.539-10.542 3.031-2.9 6.848-4.353 11.455-4.353 1.678 0 3.309.205 4.881.61 1.195.305 2.648.865 4.373 1.694 1.715.824 2.92 1.237 3.604 1.237.662 0 1.186-.204 1.564-.611.379-.405.736-1.383 1.066-2.932h1.164v-.004h-.008v-.002h.004zM225.456 127.284h-30.529v-.842c9.396-11.133 15.1-18.621 17.092-22.47 1.996-3.846 2.992-7.602 2.992-11.27 0-2.677-.832-4.9-2.49-6.669-1.66-1.773-3.695-2.655-6.096-2.655-3.941 0-6.992 1.96-9.164 5.88l-1.418-.495c1.379-4.899 3.473-8.524 6.273-10.872 2.803-2.347 6.045-3.522 9.717-3.522 2.623 0 5.023.61 7.195 1.834a13.331 13.331 0 0 1 5.092 5.023c1.221 2.126 1.836 4.12 1.836 5.98 0 3.389-.947 6.829-2.838 10.319-2.578 4.713-8.207 11.289-16.891 19.719h11.209c2.762 0 4.557-.115 5.383-.345.83-.229 1.512-.616 2.047-1.161.535-.544 1.236-1.696 2.105-3.452h1.361l-2.876 14.998z"/></svg>