<svg xmlns="http://www.w3.org/2000/svg" width="765.937" height="283.465" viewBox="0 0 765.937 283.465"><path fill="#1E2171" d="M406.083 0c-40.349 0-73.058 32.653-73.058 72.931 0 40.28 32.709 72.933 73.058 72.933 40.348 0 73.057-32.653 73.057-72.933C479.14 32.653 446.431 0 406.083 0zm41.386 121.549a3.191 3.191 0 0 0-4.416-.518 3.177 3.177 0 0 0-.636 4.397 63.852 63.852 0 0 1-8.952 5.177 3.193 3.193 0 0 0-4.143-1.661 3.18 3.18 0 0 0-1.749 4.098 63.527 63.527 0 0 1-9.999 2.659 3.185 3.185 0 0 0-3.565-2.66 3.182 3.182 0 0 0-2.753 3.482 64.575 64.575 0 0 1-5.172.226c-1.744 0-3.466-.089-5.174-.226a3.18 3.18 0 0 0-2.754-3.482 3.186 3.186 0 0 0-3.564 2.66 63.65 63.65 0 0 1-9.998-2.658 3.182 3.182 0 0 0-1.75-4.098 3.195 3.195 0 0 0-4.143 1.661 63.933 63.933 0 0 1-8.951-5.176 3.177 3.177 0 0 0-.637-4.397 3.19 3.19 0 0 0-4.416.518 64.32 64.32 0 0 1-7.314-7.301 3.185 3.185 0 0 0 .521-4.41 3.195 3.195 0 0 0-4.407-.635 63.742 63.742 0 0 1-5.186-8.937 3.181 3.181 0 0 0 1.664-4.134 3.192 3.192 0 0 0-4.105-1.749 63.325 63.325 0 0 1-2.663-9.979 3.186 3.186 0 0 0 2.666-3.557 3.19 3.19 0 0 0-3.49-2.752 64.38 64.38 0 0 1-.226-5.165 64.3 64.3 0 0 1 .226-5.161 3.192 3.192 0 0 0 3.49-2.751 3.19 3.19 0 0 0-2.666-3.56 63.229 63.229 0 0 1 2.663-9.98 3.183 3.183 0 1 0 2.44-5.882 63.627 63.627 0 0 1 5.185-8.936 3.197 3.197 0 0 0 4.408-.635 3.184 3.184 0 0 0-.521-4.41 64.256 64.256 0 0 1 7.315-7.302 3.195 3.195 0 0 0 4.415.52 3.18 3.18 0 0 0 .638-4.399 63.933 63.933 0 0 1 8.951-5.176 3.196 3.196 0 0 0 4.143 1.662 3.184 3.184 0 0 0 1.75-4.098 63.484 63.484 0 0 1 9.998-2.658 3.19 3.19 0 0 0 3.564 2.66 3.183 3.183 0 0 0 2.754-3.483 64.625 64.625 0 0 1 5.174-.226c1.743 0 3.465.089 5.172.226a3.185 3.185 0 0 0 2.753 3.483 3.188 3.188 0 0 0 3.565-2.66 63.593 63.593 0 0 1 9.998 2.658 3.183 3.183 0 0 0 1.749 4.098 3.196 3.196 0 0 0 4.143-1.662 63.852 63.852 0 0 1 8.952 5.177 3.178 3.178 0 0 0 .636 4.398 3.196 3.196 0 0 0 4.416-.519 64.166 64.166 0 0 1 7.314 7.302 3.183 3.183 0 0 0-.521 4.409 3.197 3.197 0 0 0 4.407.636 63.684 63.684 0 0 1 5.185 8.936 3.185 3.185 0 0 0-1.666 4.134 3.193 3.193 0 0 0 4.106 1.747 63.229 63.229 0 0 1 2.663 9.98 3.186 3.186 0 0 0-2.664 3.559 3.19 3.19 0 0 0 3.488 2.751 64.3 64.3 0 0 1 .226 5.161c0 1.741-.09 3.459-.226 5.165a3.187 3.187 0 0 0-3.488 2.751 3.185 3.185 0 0 0 2.664 3.556 63.294 63.294 0 0 1-2.662 9.979 3.196 3.196 0 0 0-4.107 1.749 3.185 3.185 0 0 0 1.666 4.134 63.695 63.695 0 0 1-5.185 8.937 3.196 3.196 0 0 0-4.407.635 3.183 3.183 0 0 0 .52 4.409 63.914 63.914 0 0 1-7.312 7.303z"/><g fill="#1E2171"><path d="M391.399 93.944l-17.278 34.253 21.074-32.066 2.84-6.626h-1.855v-1.931zM408.322 75.179c.64-.635.923-1.323.923-2.236 0-.561-.142-1.076-.445-1.62a2.636 2.636 0 0 0-1.106-1.093c-.553-.299-1.069-.437-1.616-.437-.539 0-1.049.14-1.608.439-.484.26-.821.594-1.1 1.089-.306.548-.448 1.063-.448 1.622 0 .909.285 1.599.926 2.238.641.642 1.327.927 2.23.927.911-.001 1.6-.286 2.244-.929zM402.44 89.505h-2.075l-3.018 7.516-7.808 37.551 12.044-36.418.857-5.97z"/><path d="M398.878 87.537l1.392-3.249c.6.307 1.225.572 1.876.782l-.99 2.466h1.951l.305-2.127c.655.139 1.33.216 2.018.251l-.942 7.839h3.191l-.942-7.839a12.99 12.99 0 0 0 2.017-.25l.305 2.126h1.95l-.99-2.466c.651-.21 1.276-.475 1.876-.782l1.392 3.248h.686v-2.643l-.498-.664h-5.75v-3.095c1.708-.314 3.198-1.136 4.442-2.446 1.525-1.606 2.296-3.544 2.296-5.759a8.43 8.43 0 0 0-1.096-4.145 7.942 7.942 0 0 0-3.12-3.123c-1.314-.731-2.713-1.103-4.155-1.103-1.454 0-2.855.37-4.162 1.095a7.924 7.924 0 0 0-3.12 3.121c-.734 1.314-1.104 2.714-1.104 4.154 0 1.486.389 2.91 1.156 4.234.772 1.336 1.831 2.371 3.147 3.07.828.447 1.635.749 2.406.906v3.091h-5.723l-.537.715v2.592h.723zm3.573-10.964c-1.009-1.007-1.504-2.197-1.504-3.631 0-.895.231-1.741.702-2.582a4.593 4.593 0 0 1 1.887-1.865c.844-.452 1.672-.672 2.542-.672.876 0 1.712.22 2.554.672a4.611 4.611 0 0 1 1.887 1.865c.472.841.7 1.687.7 2.582 0 1.434-.49 2.623-1.504 3.631-1.01 1.013-2.202 1.504-3.637 1.504-1.43.001-2.612-.49-3.627-1.504zM415.947 87.523v1.982h-1.817l2.839 6.626 21.076 32.066-17.279-34.253zM407.724 95.472h-3.473l-.359 2.984 2.191 38.291 2.192-38.291-.358-2.984z"/><path d="M430.216 81.651l37.614 7.797-36.481-12.024-12.763-1.827c.139-.653.216-1.328.251-2.014l12.816 1.535 38.355-2.188-38.355-2.188-12.816 1.536a12.818 12.818 0 0 0-.251-2.014l12.763-1.827 36.481-12.023-37.614 7.798L418.245 69a12.609 12.609 0 0 0-.784-1.873l11.861-5.063 32.123-21.041-34.315 17.25-10.323 7.721a12.789 12.789 0 0 0-1.242-1.604l10.149-7.961 25.57-28.623-28.671 25.526-7.973 10.133a12.87 12.87 0 0 0-1.61-1.242l7.736-10.307 17.278-34.254-21.075 32.067-5.074 11.841a12.691 12.691 0 0 0-1.877-.782l4.797-11.949 7.812-37.551-12.046 36.417-1.83 12.743a12.726 12.726 0 0 0-2.016-.25l1.538-12.796-2.192-38.289-2.191 38.289 1.54 12.798c-.687.035-1.363.112-2.018.251l-1.83-12.743-12.043-36.418 7.808 37.551 4.8 11.949c-.651.21-1.276.475-1.877.782l-5.074-11.842-21.074-32.067L391.4 51.917l7.736 10.308c-.571.37-1.106.788-1.609 1.241l-7.974-10.134-28.671-25.526 25.571 28.623L396.6 64.39a12.883 12.883 0 0 0-1.242 1.604l-10.323-7.721-34.314-17.251 32.122 21.041 11.861 5.063a12.609 12.609 0 0 0-.784 1.873l-11.97-4.788-37.615-7.798 36.48 12.023 12.765 1.827a12.833 12.833 0 0 0-.251 2.014l-12.816-1.536-38.356 2.188 38.356 2.188 12.816-1.535c.035.686.112 1.361.251 2.014l-12.765 1.827-36.48 12.024 37.615-7.797 11.97-4.79c.211.65.476 1.273.784 1.873l-11.861 5.065-32.122 21.041 34.314-17.248 10.323-7.724c.371.569.788 1.103 1.243 1.605l-10.15 7.96-25.571 28.622 28.671-25.527 6.628-8.422v-1.849h5.464a13.56 13.56 0 0 1-.564-.285c-1.645-.876-2.969-2.163-3.929-3.823a10.291 10.291 0 0 1-1.419-5.22c0-1.783.456-3.503 1.352-5.112a9.885 9.885 0 0 1 3.887-3.887c1.609-.89 3.33-1.342 5.122-1.342 1.781 0 3.503.454 5.119 1.352a9.855 9.855 0 0 1 3.877 3.885 10.337 10.337 0 0 1 1.348 5.104c0 2.739-.953 5.133-2.836 7.111a10.23 10.23 0 0 1-3.005 2.217h5.352v1.799l6.667 8.471 28.671 25.527-25.57-28.622-10.15-7.96a12.9 12.9 0 0 0 1.243-1.605l10.323 7.724 34.315 17.248-32.123-21.041-11.86-5.065c.308-.6.573-1.224.784-1.873l11.969 4.792z"/><path d="M411.799 89.505h-2.1v2.492l.884 6.157 12.045 36.418-7.812-37.551z"/></g><path fill="#1E2171" d="M10.478 139.625c-.84-.45-1.677-.672-2.554-.672-.869 0-1.699.222-2.542.672a4.586 4.586 0 0 0-1.887 1.867c-.359.642-.534 1.296-.617 1.966h10.107c-.082-.67-.257-1.325-.617-1.966a4.623 4.623 0 0 0-1.89-1.867zM37.547 118.753v3.093h6.21v-8.367a8.234 8.234 0 0 1-1.769 2.825c-1.245 1.312-2.733 2.131-4.441 2.449zM41.04 110.559c0-.893-.227-1.741-.697-2.582a4.63 4.63 0 0 0-1.89-1.865c-.84-.45-1.677-.672-2.554-.672-.869 0-1.698.222-2.542.672a4.593 4.593 0 0 0-1.887 1.865c-.47.841-.699 1.689-.699 2.582 0 1.436.493 2.624 1.504 3.633 1.014 1.011 2.198 1.502 3.625 1.502 1.436 0 2.627-.492 3.638-1.502 1.013-1.01 1.502-2.198 1.502-3.633zM41.04 77.045c0-.894-.227-1.741-.697-2.582a4.61 4.61 0 0 0-1.89-1.864c-.84-.453-1.677-.674-2.554-.674-.869 0-1.698.221-2.542.674a4.59 4.59 0 0 0-1.887 1.864c-.47.841-.699 1.688-.699 2.582 0 1.435.493 2.623 1.504 3.632 1.014 1.011 2.198 1.501 3.625 1.501 1.436 0 2.627-.489 3.638-1.501 1.013-1.008 1.502-2.197 1.502-3.632zM37.547 85.239v3.093h6.21v-8.369a8.236 8.236 0 0 1-1.769 2.828c-1.245 1.311-2.733 2.13-4.441 2.448zM41.04 43.531c0-.893-.227-1.741-.697-2.583a4.613 4.613 0 0 0-1.89-1.863c-.84-.453-1.677-.675-2.554-.675-.869 0-1.698.221-2.542.675a4.588 4.588 0 0 0-1.887 1.863c-.47.842-.699 1.689-.699 2.583 0 1.434.493 2.623 1.504 3.631 1.014 1.013 2.198 1.504 3.625 1.504 1.436 0 2.627-.491 3.638-1.504 1.013-1.007 1.502-2.197 1.502-3.631zM37.547 51.723v3.095h6.21v-8.367a8.243 8.243 0 0 1-1.769 2.825c-1.245 1.312-2.733 2.132-4.441 2.447z"/><path fill="#1E2171" d="M37.547 24.611v5.965h-3.311v-5.965h-6.259v-3.306h6.259v-3.092c-.771-.158-1.577-.459-2.406-.904-1.315-.7-2.375-1.735-3.148-3.071a8.354 8.354 0 0 1-1.155-4.233c0-1.442.37-2.84 1.103-4.155a7.946 7.946 0 0 1 3.121-3.121c.222-.123.449-.221.676-.324H11.404c.231.104.462.206.688.331a7.94 7.94 0 0 1 3.119 3.123c.728 1.309 1.095 2.703 1.095 4.145 0 2.215-.772 4.152-2.294 5.757-1.245 1.313-2.733 2.133-4.441 2.448v3.095h6.245v3.306H9.571v5.965H6.259V24.61H.001v-3.306h6.258v-3.092c-.77-.158-1.576-.459-2.406-.904-1.315-.7-2.375-1.735-3.147-3.071A8.753 8.753 0 0 1 0 12.639v28.243c.172-.515.38-1.027.655-1.519a7.937 7.937 0 0 1 3.12-3.121 8.507 8.507 0 0 1 4.163-1.095c1.443 0 2.841.372 4.155 1.102a7.952 7.952 0 0 1 3.119 3.123 8.444 8.444 0 0 1 1.095 4.145c0 2.215-.772 4.153-2.294 5.758-1.245 1.311-2.733 2.132-4.441 2.447v3.095h6.245v3.306H9.571v5.965H6.259v-5.965H.001v-3.306h6.258v-3.091c-.77-.157-1.576-.46-2.406-.905-1.315-.7-2.375-1.735-3.147-3.071A8.744 8.744 0 0 1 0 46.153v28.243c.172-.515.38-1.025.655-1.519a7.943 7.943 0 0 1 3.12-3.121 8.507 8.507 0 0 1 4.163-1.095c1.443 0 2.841.372 4.155 1.102a7.952 7.952 0 0 1 3.119 3.123 8.444 8.444 0 0 1 1.095 4.145c0 2.215-.772 4.152-2.294 5.759-1.245 1.311-2.733 2.13-4.441 2.448v3.093h6.245v3.306H9.571v5.967H6.259v-5.967H.001v-3.306h6.258v-3.089c-.77-.158-1.576-.462-2.406-.905-1.315-.701-2.375-1.738-3.147-3.072A8.814 8.814 0 0 1 0 79.667v28.244c.172-.516.38-1.027.655-1.52a7.928 7.928 0 0 1 3.12-3.12 8.495 8.495 0 0 1 4.163-1.094c1.443 0 2.841.37 4.155 1.101a7.94 7.94 0 0 1 3.119 3.123 8.444 8.444 0 0 1 1.095 4.145c0 2.215-.772 4.153-2.294 5.759-1.245 1.312-2.733 2.13-4.441 2.448v3.093h6.245v3.305H9.571v5.967H6.259v-5.967H.001v-3.305h6.258v-3.09c-.77-.16-1.576-.462-2.406-.905-1.315-.701-2.375-1.737-3.147-3.072a8.75 8.75 0 0 1-.707-1.598v28.244c.172-.516.38-1.024.655-1.52a7.934 7.934 0 0 1 3.12-3.12 8.495 8.495 0 0 1 4.163-1.094c1.443 0 2.841.37 4.155 1.102a7.93 7.93 0 0 1 3.119 3.122 8.472 8.472 0 0 1 1.057 3.544h11.297a8.512 8.512 0 0 1 1.064-3.554 7.943 7.943 0 0 1 3.121-3.12 8.49 8.49 0 0 1 4.161-1.094c1.444 0 2.841.37 4.157 1.102a7.921 7.921 0 0 1 3.118 3.122c.23.416.411.839.57 1.271v-16.035h-6.21v5.967h-3.311v-5.967h-6.259v-3.305h6.259v-3.09c-.771-.16-1.577-.462-2.406-.905-1.315-.701-2.375-1.737-3.148-3.072a8.354 8.354 0 0 1-1.155-4.233c0-1.44.37-2.839 1.103-4.155a7.937 7.937 0 0 1 3.121-3.12 8.49 8.49 0 0 1 4.161-1.094c1.444 0 2.841.37 4.157 1.101a7.93 7.93 0 0 1 3.118 3.123c.23.413.411.839.57 1.271V91.637h-6.21v5.967h-3.311v-5.967h-6.259v-3.306h6.259v-3.089c-.771-.158-1.577-.462-2.406-.905-1.315-.701-2.375-1.738-3.148-3.072-.766-1.325-1.155-2.747-1.155-4.233 0-1.441.37-2.84 1.103-4.155a7.952 7.952 0 0 1 3.121-3.121 8.502 8.502 0 0 1 4.161-1.095c1.444 0 2.841.372 4.157 1.102a7.943 7.943 0 0 1 3.118 3.123c.23.414.411.84.57 1.27V58.124h-6.21v5.965h-3.311v-5.965h-6.259v-3.306h6.259v-3.091c-.771-.157-1.577-.46-2.406-.905-1.315-.7-2.375-1.735-3.148-3.071a8.357 8.357 0 0 1-1.155-4.234c0-1.44.37-2.84 1.103-4.154a7.946 7.946 0 0 1 3.121-3.121 8.502 8.502 0 0 1 4.161-1.095c1.444 0 2.841.372 4.157 1.102a7.943 7.943 0 0 1 3.118 3.123c.23.414.411.84.57 1.27V24.611h-6.209z"/><path fill="#1E2171" d="M40.343 141.492a4.623 4.623 0 0 0-1.89-1.867c-.84-.45-1.677-.672-2.554-.672-.869 0-1.698.222-2.542.672a4.592 4.592 0 0 0-1.887 1.867c-.359.642-.534 1.296-.617 1.966H40.96c-.083-.67-.258-1.324-.617-1.966zM40.069 2.736a7.93 7.93 0 0 1 3.118 3.123c.23.413.411.84.57 1.27V2.405H39.38c.231.104.462.206.689.331zM37.547 18.209v3.095h6.21v-8.367a8.216 8.216 0 0 1-1.769 2.823c-1.245 1.314-2.733 2.134-4.441 2.449zM31.469 7.435c-.47.841-.699 1.688-.699 2.583 0 1.434.493 2.623 1.504 3.632 1.014 1.011 2.198 1.503 3.625 1.503 1.436 0 2.627-.492 3.638-1.503 1.014-1.008 1.503-2.198 1.503-3.632 0-.894-.227-1.741-.697-2.583a4.622 4.622 0 0 0-1.89-1.864c-.84-.453-1.677-.674-2.554-.674-.869 0-1.698.22-2.542.674a4.6 4.6 0 0 0-1.888 1.864zM.655 5.849a7.937 7.937 0 0 1 3.12-3.121c.223-.123.45-.221.677-.324H0v4.963a8.84 8.84 0 0 1 .655-1.518zM7.924 115.694c1.436 0 2.627-.492 3.638-1.502 1.014-1.01 1.503-2.198 1.503-3.633 0-.893-.227-1.741-.698-2.582a4.622 4.622 0 0 0-1.889-1.865c-.84-.45-1.677-.672-2.554-.672-.869 0-1.699.222-2.542.672a4.587 4.587 0 0 0-1.887 1.865c-.47.841-.699 1.689-.699 2.582 0 1.436.493 2.624 1.504 3.633 1.012 1.01 2.196 1.502 3.624 1.502zM7.924 82.178c1.436 0 2.627-.489 3.638-1.501 1.014-1.009 1.503-2.198 1.503-3.632 0-.894-.227-1.741-.698-2.582a4.601 4.601 0 0 0-1.889-1.864c-.84-.453-1.677-.674-2.554-.674-.869 0-1.699.221-2.542.674a4.585 4.585 0 0 0-1.887 1.864c-.47.841-.699 1.688-.699 2.582 0 1.435.493 2.623 1.504 3.632 1.012 1.012 2.196 1.501 3.624 1.501zM7.924 48.666c1.436 0 2.627-.491 3.638-1.504 1.014-1.008 1.503-2.197 1.503-3.631 0-.893-.227-1.741-.698-2.583a4.605 4.605 0 0 0-1.889-1.863c-.84-.453-1.677-.675-2.554-.675-.869 0-1.699.221-2.542.675a4.583 4.583 0 0 0-1.887 1.863c-.47.842-.699 1.689-.699 2.583 0 1.434.493 2.623 1.504 3.631 1.012 1.013 2.196 1.504 3.624 1.504zM3.494 7.435c-.47.841-.699 1.688-.699 2.583 0 1.434.493 2.623 1.504 3.632 1.014 1.011 2.198 1.503 3.625 1.503 1.436 0 2.627-.492 3.638-1.503 1.014-1.008 1.503-2.198 1.503-3.632 0-.894-.227-1.741-.698-2.583a4.614 4.614 0 0 0-1.889-1.864c-.84-.453-1.677-.674-2.554-.674-.869 0-1.699.22-2.542.674a4.587 4.587 0 0 0-1.888 1.864zM119.569 71.957a5.328 5.328 0 0 0-2.285.642 4.59 4.59 0 0 0-1.887 1.864c-.47.841-.699 1.688-.699 2.582 0 .079.018.15.02.227.433-.821.896-1.583 1.422-2.224a15.232 15.232 0 0 1 3.429-3.091zM123.463 47.162c.972-.965 1.448-2.105 1.488-3.46-2.264 1.243-4.519 2.81-6.76 4.689a5.073 5.073 0 0 0 1.635.275c1.436 0 2.627-.491 3.637-1.504zM178.331 139.625c-.84-.45-1.678-.672-2.555-.672-.869 0-1.698.222-2.542.672a4.59 4.59 0 0 0-1.886 1.867c-.359.642-.535 1.296-.618 1.966h9.986v-.77a5.485 5.485 0 0 0-.495-1.196 4.617 4.617 0 0 0-1.89-1.867zM94.404 139.625c-.84-.45-1.678-.672-2.554-.672-.87 0-1.699.222-2.542.672a4.586 4.586 0 0 0-1.887 1.867c-.359.642-.534 1.296-.618 1.966H96.91c-.082-.67-.257-1.325-.617-1.966a4.609 4.609 0 0 0-1.889-1.867zM86.72 43.531c0 1.434.494 2.623 1.505 3.631 1.013 1.013 2.197 1.504 3.625 1.504 1.436 0 2.627-.491 3.638-1.504 1.014-1.008 1.503-2.197 1.503-3.631 0-.779-.207-1.519-.563-2.255h-9.143c-.356.736-.565 1.476-.565 2.255zM145.523 38.979c-.087.043-.175.058-.264.106a4.58 4.58 0 0 0-1.886 1.863c-.471.842-.7 1.689-.7 2.583 0 1.434.493 2.623 1.504 3.631 1.014 1.013 2.198 1.504 3.625 1.504 1.436 0 2.627-.491 3.637-1.504 1.014-1.008 1.504-2.197 1.504-3.631 0-.893-.228-1.741-.698-2.583a4.614 4.614 0 0 0-1.759-1.769 50.043 50.043 0 0 0-4.468-.212c-.168 0-.328.01-.495.012zM178.331 72.599c-.84-.453-1.678-.674-2.555-.674-.869 0-1.698.221-2.542.674a4.588 4.588 0 0 0-1.886 1.864c-.471.841-.7 1.688-.7 2.582 0 1.435.494 2.623 1.505 3.632 1.013 1.011 2.197 1.501 3.625 1.501 1.437 0 2.628-.489 3.638-1.501a4.907 4.907 0 0 0 1.298-2.219c0-1.04-.051-2.021-.088-3.018-.111-.327-.224-.655-.404-.978a4.616 4.616 0 0 0-1.891-1.863zM180.715 83.796a7.921 7.921 0 0 1-3.29 1.443v3.093h3.29v-4.536zM178.331 106.112c-.84-.45-1.678-.672-2.555-.672-.869 0-1.698.222-2.542.672a4.59 4.59 0 0 0-1.886 1.865c-.471.841-.7 1.689-.7 2.582 0 1.436.494 2.624 1.505 3.633 1.013 1.011 2.197 1.502 3.625 1.502 1.437 0 2.628-.492 3.638-1.502a4.926 4.926 0 0 0 1.3-2.225v-2.792a5.54 5.54 0 0 0-.495-1.198 4.612 4.612 0 0 0-1.89-1.865zM180.715 117.31a7.907 7.907 0 0 1-3.29 1.442v3.093h3.29v-4.535zM150.355 139.625c-.839-.45-1.677-.672-2.554-.672-.87 0-1.698.222-2.542.672a4.584 4.584 0 0 0-1.886 1.867c-.36.642-.535 1.296-.618 1.966h10.107c-.082-.67-.257-1.325-.616-1.966a4.625 4.625 0 0 0-1.891-1.867zM140.924 81.774c.238 1.651.371 3.469.371 5.493v1.065h4.843v-3.089c-.771-.158-1.576-.462-2.406-.905-1.138-.608-2.072-1.478-2.808-2.564zM147.801 82.178c1.436 0 2.627-.489 3.637-1.501 1.014-1.009 1.504-2.198 1.504-3.632 0-.894-.228-1.741-.698-2.582a4.604 4.604 0 0 0-1.89-1.864c-.839-.453-1.677-.674-2.554-.674-.87 0-1.698.221-2.542.674a4.583 4.583 0 0 0-1.886 1.864c-.471.841-.7 1.688-.7 2.582 0 1.435.493 2.623 1.504 3.632 1.013 1.012 2.197 1.501 3.625 1.501z"/><path fill="#1E2171" d="M140.532 72.877a7.952 7.952 0 0 1 3.121-3.121 8.502 8.502 0 0 1 4.161-1.095c1.444 0 2.842.372 4.157 1.102a7.943 7.943 0 0 1 3.118 3.123 8.433 8.433 0 0 1 1.095 4.145c0 2.215-.771 4.152-2.294 5.759-1.245 1.311-2.733 2.13-4.44 2.448v3.093h6.245v3.306h-6.245v5.967h-3.312v-5.967h-4.843v13.638a7.885 7.885 0 0 1 2.358-2.005 8.49 8.49 0 0 1 4.161-1.094c1.444 0 2.842.37 4.157 1.101a7.93 7.93 0 0 1 3.118 3.123 8.433 8.433 0 0 1 1.095 4.145c0 2.215-.771 4.153-2.294 5.759-1.245 1.312-2.733 2.13-4.44 2.448v3.093h6.245v3.305h-6.245v5.967h-3.312v-5.967h-4.843v13.638a7.885 7.885 0 0 1 2.358-2.005 8.49 8.49 0 0 1 4.161-1.094c1.444 0 2.842.37 4.157 1.102a7.921 7.921 0 0 1 3.118 3.122 8.442 8.442 0 0 1 1.056 3.544h11.299a8.54 8.54 0 0 1 1.063-3.554 7.943 7.943 0 0 1 3.121-3.12 8.492 8.492 0 0 1 4.163-1.094c1.443 0 2.841.37 4.155 1.102.271.15.521.321.769.498v-12.14h-3.29v5.967h-3.312v-5.967h-6.258v-3.305h6.258v-3.09c-.771-.16-1.576-.462-2.406-.905-1.315-.701-2.375-1.737-3.148-3.072a8.363 8.363 0 0 1-1.154-4.233c0-1.44.37-2.839 1.101-4.155a7.937 7.937 0 0 1 3.121-3.12 8.492 8.492 0 0 1 4.163-1.094c1.443 0 2.841.37 4.155 1.101.271.149.521.322.769.499v-12.14h-3.29v5.967h-3.312v-5.967h-6.258v-3.306h6.258V85.24c-.771-.158-1.576-.462-2.406-.905-1.315-.701-2.375-1.738-3.148-3.072-.765-1.325-1.154-2.747-1.154-4.233 0-1.441.37-2.84 1.101-4.155a7.952 7.952 0 0 1 3.121-3.121 8.504 8.504 0 0 1 4.163-1.095c1.443 0 2.841.372 4.155 1.102.098.054.181.122.276.179-.512-4.389-1.446-8.295-2.797-11.726v5.873h-3.312v-5.965h-6.258v-3.306h6.258v-2.904c-.051-.075-.095-.156-.147-.229a8.956 8.956 0 0 1-2.259-.862c-1.315-.7-2.375-1.735-3.148-3.071a8.579 8.579 0 0 1-.953-2.493c-3.503-2.572-7.588-4.351-12.255-5.337.543 1.149.832 2.354.832 3.597 0 2.215-.771 4.153-2.294 5.758-1.245 1.311-2.733 2.132-4.44 2.447v3.095h6.245v3.306h-6.245v5.965h-3.312v-5.965h-6.258v-3.306h6.258v-3.091c-.771-.157-1.576-.46-2.406-.905-1.315-.7-2.375-1.735-3.148-3.071a8.367 8.367 0 0 1-1.155-4.234c0-1.44.371-2.84 1.102-4.154.03-.054.068-.1.099-.151-4.656.421-8.837 1.412-12.543 2.968.072.442.121.886.121 1.337 0 2.215-.771 4.153-2.294 5.758-1.245 1.311-2.733 2.132-4.441 2.447v3.095h6.245v3.306h-6.245v5.965h-3.311v-5.965H111.9v-3.306h6.259v-3.091c-.771-.157-1.577-.46-2.406-.905-.061-.032-.114-.075-.172-.108-2.202 2.098-4.395 4.49-6.577 7.207V41.276h-9.088c.205.732.315 1.48.315 2.242 0 2.215-.772 4.153-2.294 5.758-1.245 1.311-2.734 2.132-4.441 2.447v3.095h6.245v3.306h-6.245v5.965h-3.312v-5.965h-6.259v-3.306h6.259v-3.091c-.77-.157-1.576-.46-2.406-.905-1.315-.7-2.375-1.735-3.147-3.071a8.357 8.357 0 0 1-1.155-4.234c0-.762.11-1.51.316-2.242H72.479v102.182h11.038a8.527 8.527 0 0 1 1.064-3.554 7.934 7.934 0 0 1 3.12-3.12 8.492 8.492 0 0 1 4.163-1.094c1.443 0 2.841.37 4.155 1.102a7.93 7.93 0 0 1 3.119 3.122 8.472 8.472 0 0 1 1.057 3.544h11.297c.035-.47.099-.938.213-1.396V112.53a8.244 8.244 0 0 1-.251-1.986c0-.676.089-1.342.251-1.998v-14.16c0-1.881.077-3.612.197-5.261v-.796h.054c.212-2.427.567-4.572 1.052-6.469-.135-.195-.277-.385-.399-.597-.766-1.325-1.155-2.747-1.155-4.233 0-1.441.37-2.84 1.102-4.155a7.943 7.943 0 0 1 3.12-3.121c1.31-.725 2.709-1.095 4.162-1.095 1.444 0 2.841.372 4.156 1.102.124.069.232.154.35.227a16.57 16.57 0 0 1 3.36-.331c4.304 0 7.646 1.332 10.024 3.993.681.764 1.254 1.699 1.74 2.772a8.53 8.53 0 0 1 1.064-3.545zm-40.788 48.969v3.305h-6.245v5.967h-3.312v-5.967h-6.259v-3.305h6.259v-3.09c-.77-.16-1.576-.462-2.406-.905-1.315-.701-2.375-1.737-3.147-3.072a8.354 8.354 0 0 1-1.155-4.233c0-1.44.37-2.839 1.102-4.155a7.928 7.928 0 0 1 3.12-3.12 8.492 8.492 0 0 1 4.163-1.094c1.443 0 2.841.37 4.155 1.101a7.94 7.94 0 0 1 3.119 3.123 8.444 8.444 0 0 1 1.095 4.145c0 2.215-.772 4.153-2.294 5.759-1.245 1.312-2.734 2.13-4.441 2.448v3.093h6.246zM97.94 82.791c-1.245 1.311-2.734 2.13-4.441 2.448v3.093h6.245v3.306h-6.245v5.967h-3.312v-5.967h-6.259v-3.306h6.259v-3.089c-.77-.158-1.576-.462-2.406-.905-1.315-.701-2.375-1.738-3.147-3.072-.766-1.325-1.155-2.747-1.155-4.233 0-1.441.37-2.84 1.102-4.155a7.943 7.943 0 0 1 3.12-3.121 8.504 8.504 0 0 1 4.163-1.095c1.443 0 2.841.372 4.155 1.102a7.952 7.952 0 0 1 3.119 3.123 8.444 8.444 0 0 1 1.095 4.145c.001 2.215-.77 4.152-2.293 5.759z"/><path fill="#1E2171" d="M141.295 115.81v6.036h4.843v-3.09c-.771-.16-1.576-.462-2.406-.905a7.741 7.741 0 0 1-2.437-2.041zM94.404 72.599c-.84-.453-1.678-.674-2.554-.674-.87 0-1.699.221-2.542.674a4.585 4.585 0 0 0-1.887 1.864c-.47.841-.7 1.688-.7 2.582 0 1.435.494 2.623 1.505 3.632 1.013 1.011 2.197 1.501 3.625 1.501 1.436 0 2.627-.489 3.638-1.501 1.014-1.009 1.503-2.198 1.503-3.632 0-.894-.227-1.741-.698-2.582a4.604 4.604 0 0 0-1.89-1.864zM96.991 110.559c0-.893-.227-1.741-.698-2.582a4.628 4.628 0 0 0-1.889-1.865c-.84-.45-1.678-.672-2.554-.672-.87 0-1.699.222-2.542.672a4.587 4.587 0 0 0-1.887 1.865c-.47.841-.7 1.689-.7 2.582 0 1.436.494 2.624 1.505 3.633 1.013 1.011 2.197 1.502 3.625 1.502 1.436 0 2.627-.492 3.638-1.502 1.013-1.01 1.502-2.198 1.502-3.633zM147.801 115.694c1.436 0 2.627-.492 3.637-1.502 1.014-1.01 1.504-2.198 1.504-3.633 0-.893-.228-1.741-.698-2.582a4.624 4.624 0 0 0-1.89-1.865c-.839-.45-1.677-.672-2.554-.672-.87 0-1.698.222-2.542.672a4.585 4.585 0 0 0-1.886 1.865c-.471.841-.7 1.689-.7 2.582 0 1.436.493 2.624 1.504 3.633 1.013 1.01 2.197 1.502 3.625 1.502zM226.599 43.531c0 1.434.493 2.623 1.503 3.631 1.014 1.013 2.198 1.504 3.626 1.504 1.436 0 2.627-.491 3.638-1.504 1.014-1.008 1.503-2.197 1.503-3.631 0-.893-.227-1.741-.697-2.583-.313-.557-.733-.987-1.205-1.362a40.338 40.338 0 0 0-7.976 2.105c-.234.601-.392 1.208-.392 1.84zM208.894 110.559c0-.893-.227-1.741-.697-2.582a4.63 4.63 0 0 0-1.89-1.865c-.84-.45-1.677-.672-2.554-.672-.869 0-1.699.222-2.542.672-.22.117-.389.281-.58.425a65.637 65.637 0 0 0 2.441 9.095c.224.027.445.062.681.062 1.436 0 2.627-.492 3.638-1.502 1.014-1.01 1.503-2.198 1.503-3.633zM259.704 48.666c1.437 0 2.628-.491 3.638-1.504a4.898 4.898 0 0 0 1.283-2.164c-1.788-1.128-3.638-2.144-5.599-2.952a38.04 38.04 0 0 0-3.62-1.27c-.038.063-.093.108-.13.172-.471.842-.7 1.689-.7 2.583 0 1.434.493 2.623 1.503 3.631 1.013 1.013 2.197 1.504 3.625 1.504zM259.704 138.953c-.869 0-1.698.222-2.542.672a4.59 4.59 0 0 0-1.886 1.867 5.177 5.177 0 0 0-.691 2.504 37.587 37.587 0 0 0 6.513-2.654c.63-.333 1.275-.729 1.925-1.156-.24-.2-.476-.404-.765-.56-.84-.451-1.677-.673-2.554-.673zM202.089 85.243c-.77-.158-1.576-.462-2.406-.905-.063-.035-.119-.079-.182-.114a92.946 92.946 0 0 0-.189 4.108h2.776v-3.089zM207.39 80.678c1.014-1.009 1.503-2.198 1.503-3.632 0-.894-.227-1.741-.697-2.582a4.61 4.61 0 0 0-1.89-1.864c-.84-.453-1.677-.674-2.554-.674-.839 0-1.642.217-2.455.639a67.758 67.758 0 0 0-1.417 7.819c.086.096.152.2.247.294 1.014 1.011 2.198 1.501 3.626 1.501 1.436-.001 2.627-.49 3.637-1.501zM310.526 43.531c0 1.36.46 2.49 1.364 3.464v-6.927a4.771 4.771 0 0 0-.665.88c-.471.842-.699 1.69-.699 2.583zM283.25 7.435c-.47.841-.7 1.688-.7 2.583 0 1.434.494 2.623 1.505 3.632 1.013 1.011 2.197 1.503 3.625 1.503 1.436 0 2.627-.492 3.638-1.503 1.014-1.008 1.503-2.198 1.503-3.632 0-.894-.227-1.741-.698-2.583a4.614 4.614 0 0 0-1.889-1.864c-.84-.453-1.677-.674-2.554-.674-.87 0-1.699.22-2.542.674a4.587 4.587 0 0 0-1.888 1.864zM310.526 10.018c0 1.359.46 2.49 1.364 3.464V6.554a4.713 4.713 0 0 0-.665.881c-.471.841-.699 1.688-.699 2.583zM310.526 77.045c0 1.36.46 2.49 1.364 3.465v-6.929a4.786 4.786 0 0 0-.665.882c-.471.841-.699 1.688-.699 2.582zM310.608 143.458h1.282v-2.848a4.687 4.687 0 0 0-.665.882c-.359.642-.534 1.296-.617 1.966zM310.526 110.559c0 1.36.46 2.491 1.364 3.465v-6.927a4.738 4.738 0 0 0-.665.88c-.471.841-.699 1.688-.699 2.582zM234.282 139.625c-.84-.45-1.677-.672-2.554-.672-.869 0-1.698.222-2.542.672a4.592 4.592 0 0 0-1.887 1.867 5.347 5.347 0 0 0-.568 1.593c3.069 1.183 6.381 1.979 9.941 2.375.117-.437.197-.894.197-1.387 0-.894-.227-1.742-.697-2.581a4.623 4.623 0 0 0-1.89-1.867zM234.282 106.112c-.84-.45-1.677-.672-2.554-.672-.869 0-1.698.222-2.542.672a4.593 4.593 0 0 0-1.887 1.865c-.47.841-.699 1.689-.699 2.582 0 1.436.493 2.624 1.503 3.633 1.014 1.011 2.198 1.502 3.626 1.502 1.436 0 2.627-.492 3.638-1.502 1.014-1.01 1.503-2.198 1.503-3.633 0-.893-.227-1.741-.697-2.582a4.627 4.627 0 0 0-1.891-1.865z"/><path fill="#1E2171" d="M279.347 143.458a8.527 8.527 0 0 1 1.064-3.554 7.934 7.934 0 0 1 3.12-3.12 8.491 8.491 0 0 1 4.162-1.094c1.444 0 2.841.37 4.156 1.102a7.93 7.93 0 0 1 3.119 3.122 8.456 8.456 0 0 1 1.056 3.544h11.298a8.527 8.527 0 0 1 1.064-3.554 7.945 7.945 0 0 1 3.119-3.12c.128-.069.257-.119.384-.183v-11.45h-4.157v-3.305h4.157v-3.858c-.102-.048-.2-.081-.302-.137-1.316-.701-2.376-1.737-3.149-3.072a8.354 8.354 0 0 1-1.155-4.233c0-1.44.37-2.839 1.102-4.155a7.938 7.938 0 0 1 3.119-3.12c.128-.069.257-.119.384-.183v-11.45h-4.157v-3.306h4.157v-3.858c-.102-.05-.2-.083-.302-.137-1.316-.701-2.376-1.738-3.149-3.072-.766-1.325-1.155-2.747-1.155-4.233 0-1.441.37-2.84 1.102-4.155a7.954 7.954 0 0 1 3.119-3.121c.128-.069.257-.119.384-.183V58.124h-4.157v-3.306h4.157v-3.856c-.102-.05-.2-.084-.302-.14-1.316-.7-2.376-1.735-3.149-3.071a8.357 8.357 0 0 1-1.155-4.234c0-1.44.37-2.84 1.102-4.154a7.947 7.947 0 0 1 3.119-3.121c.128-.069.257-.12.384-.183V24.611h-4.157v-3.306h4.157v-3.857c-.102-.049-.2-.082-.302-.139-1.316-.7-2.376-1.735-3.149-3.071a8.354 8.354 0 0 1-1.155-4.233c0-1.442.37-2.84 1.102-4.155a7.947 7.947 0 0 1 3.119-3.121c.128-.069.257-.119.384-.183v-.141h-20.729c.231.104.462.206.688.331a7.94 7.94 0 0 1 3.119 3.123c.728 1.309 1.095 2.703 1.095 4.145 0 2.215-.771 4.152-2.294 5.757-1.245 1.313-2.734 2.133-4.441 2.448v3.095h6.245v3.306h-6.245v5.965h-3.312V24.61h-6.259v-3.306h6.259v-3.092c-.77-.158-1.576-.459-2.406-.904-1.315-.7-2.375-1.735-3.147-3.071a8.354 8.354 0 0 1-1.155-4.233c0-1.442.37-2.84 1.103-4.155a7.937 7.937 0 0 1 3.12-3.121c.221-.123.45-.221.677-.324h-11.931v48.878c-1.538-1.637-3.192-3.067-4.91-4.378-.38.851-.89 1.65-1.574 2.371-1.245 1.311-2.733 2.132-4.44 2.447v3.095h6.245v3.306h-6.245v5.965h-3.312v-5.965h-6.259v-3.306h6.259v-3.091c-.771-.157-1.576-.46-2.406-.905-1.315-.7-2.375-1.735-3.148-3.071a8.367 8.367 0 0 1-1.155-4.234c0-1.22.282-2.407.808-3.541a46.903 46.903 0 0 0-9.741-1.01c-1.207 0-2.374.079-3.54.162.05.085.111.157.158.244a8.433 8.433 0 0 1 1.095 4.145c0 2.215-.772 4.153-2.294 5.758-1.245 1.311-2.733 2.132-4.441 2.447v3.095h6.246v3.306h-6.246v5.965h-3.311v-5.965h-6.259v-3.306h6.259v-3.091c-.771-.157-1.577-.46-2.406-.905-1.315-.7-2.375-1.735-3.148-3.071a8.357 8.357 0 0 1-1.155-4.234c0-.079.012-.158.015-.237-4.4 2.209-8.403 5.227-11.96 9.156-.68.752-1.291 1.572-1.913 2.381h2.147v3.306h-4.435a42.41 42.41 0 0 0-1.81 3.182v2.783h-1.356a50.804 50.804 0 0 0-1.746 4.716c.483-.085.97-.145 1.468-.145 1.444 0 2.841.372 4.156 1.102a7.952 7.952 0 0 1 3.119 3.123 8.444 8.444 0 0 1 1.095 4.145c0 2.215-.772 4.152-2.294 5.759-1.245 1.311-2.733 2.13-4.441 2.448v3.093h6.245v3.306h-6.245V97.6h-3.312v-5.967h-2.858c.014 3.965.296 7.77.818 11.421 1.181-.576 2.426-.882 3.718-.882 1.444 0 2.841.37 4.156 1.101a7.94 7.94 0 0 1 3.119 3.123 8.444 8.444 0 0 1 1.095 4.145c0 2.215-.772 4.153-2.294 5.759-1.245 1.312-2.733 2.13-4.441 2.448v2.712c.061.129.131.252.193.382h6.052v3.305h-4.324c.909 1.623 1.871 3.213 2.934 4.74 3.662 5.268 8.143 9.224 13.436 11.869a8.868 8.868 0 0 1 .767-1.855 7.943 7.943 0 0 1 3.121-3.12 8.49 8.49 0 0 1 4.161-1.094c1.444 0 2.841.37 4.157 1.102a7.921 7.921 0 0 1 3.118 3.122 8.439 8.439 0 0 1 1.095 4.145c0 .57-.055 1.121-.157 1.655.742.03 1.49.054 2.252.054 3.196 0 6.251-.327 9.175-.955-.022-.251-.049-.499-.049-.753 0-1.439.371-2.839 1.103-4.155a7.943 7.943 0 0 1 3.121-3.12 8.49 8.49 0 0 1 4.161-1.094c1.444 0 2.842.37 4.157 1.102a7.991 7.991 0 0 1 1.843 1.412c2.962-2.406 6.109-5.682 9.452-9.853v15.107h4.181zm-41.53-27.154c-1.245 1.312-2.733 2.13-4.441 2.448v3.093h6.246v3.305h-6.246v5.967h-3.311v-5.967h-6.259v-3.305h6.259v-3.09c-.771-.16-1.577-.462-2.406-.905-1.315-.701-2.375-1.737-3.148-3.072a8.354 8.354 0 0 1-1.155-4.233c0-1.44.37-2.839 1.103-4.155a7.937 7.937 0 0 1 3.121-3.12 8.49 8.49 0 0 1 4.161-1.094c1.444 0 2.841.37 4.157 1.101a7.93 7.93 0 0 1 3.118 3.123 8.433 8.433 0 0 1 1.095 4.145c.001 2.216-.771 4.154-2.294 5.759zm30.268-5.795l.002.037c0 2.215-.771 4.153-2.294 5.759-1.245 1.312-2.733 2.13-4.44 2.448v3.093h6.245v3.305h-6.245v5.967h-3.312v-5.967h-6.259v-3.305h6.259v-3.09c-.771-.16-1.576-.462-2.406-.905a7.81 7.81 0 0 1-1.172-.786c-4.442-.153-8.194-2.069-11.244-5.792-3.181-3.881-4.771-9.99-4.771-18.328 0-.452.021-.868.029-1.307h-5.1v5.967h-3.311v-5.967h-6.259v-3.306h6.259v-3.089c-.771-.158-1.577-.462-2.406-.905-1.315-.701-2.375-1.738-3.148-3.072-.766-1.325-1.155-2.747-1.155-4.233 0-1.441.37-2.84 1.103-4.155a7.952 7.952 0 0 1 3.121-3.121 8.502 8.502 0 0 1 4.161-1.095c1.444 0 2.841.372 4.157 1.102a7.943 7.943 0 0 1 3.118 3.123 8.433 8.433 0 0 1 1.095 4.145c0 2.215-.772 4.152-2.294 5.759-1.245 1.311-2.733 2.13-4.441 2.448v3.093h5.245c.461-6.514 1.933-11.346 4.453-14.438 3.084-3.784 6.906-5.677 11.469-5.677 1.49 0 2.897.18 4.241.503.308-.035.619-.06.933-.06 1.444 0 2.842.372 4.157 1.102a7.943 7.943 0 0 1 3.118 3.123c.268.479.468.974.638 1.472 3.285 3.948 4.936 9.847 4.936 17.719-.001 8.354-1.508 14.478-4.482 18.433zm12.326-71.145a7.937 7.937 0 0 1 3.12-3.121 8.503 8.503 0 0 1 4.162-1.095c1.444 0 2.841.372 4.156 1.102a7.952 7.952 0 0 1 3.119 3.123 8.444 8.444 0 0 1 1.095 4.145c0 2.215-.771 4.153-2.294 5.758-1.245 1.311-2.734 2.132-4.441 2.447v3.095h6.245v3.306h-6.245v5.965h-3.312v-5.965h-6.259v-3.306h6.259v-3.091c-.77-.157-1.576-.46-2.406-.905-1.315-.7-2.375-1.735-3.147-3.071a8.357 8.357 0 0 1-1.155-4.234c0-1.44.37-2.839 1.103-4.153zm0 33.513a7.943 7.943 0 0 1 3.12-3.121 8.503 8.503 0 0 1 4.162-1.095c1.444 0 2.841.372 4.156 1.102a7.952 7.952 0 0 1 3.119 3.123 8.444 8.444 0 0 1 1.095 4.145c0 2.215-.771 4.152-2.294 5.759-1.245 1.311-2.734 2.13-4.441 2.448v3.093h6.245v3.306h-6.245v5.967h-3.312v-5.967h-6.259v-3.306h6.259v-3.089c-.77-.158-1.576-.462-2.406-.905-1.315-.701-2.375-1.738-3.147-3.072-.766-1.325-1.155-2.747-1.155-4.233 0-1.441.37-2.84 1.103-4.155zm0 33.514a7.928 7.928 0 0 1 3.12-3.12 8.491 8.491 0 0 1 4.162-1.094c1.444 0 2.841.37 4.156 1.101a7.94 7.94 0 0 1 3.119 3.123 8.444 8.444 0 0 1 1.095 4.145c0 2.215-.771 4.153-2.294 5.759-1.245 1.312-2.734 2.13-4.441 2.448v3.093h6.245v3.305h-6.245v5.967h-3.312v-5.967h-6.259v-3.305h6.259v-3.09c-.77-.16-1.576-.462-2.406-.905-1.315-.701-2.375-1.737-3.147-3.072a8.354 8.354 0 0 1-1.155-4.233c0-1.441.37-2.84 1.103-4.155z"/><path fill="#1E2171" d="M287.68 115.694c1.436 0 2.627-.492 3.638-1.502 1.014-1.01 1.503-2.198 1.503-3.633 0-.893-.227-1.741-.698-2.582a4.622 4.622 0 0 0-1.889-1.865c-.84-.45-1.677-.672-2.554-.672-.87 0-1.699.222-2.542.672a4.587 4.587 0 0 0-1.887 1.865c-.47.841-.7 1.689-.7 2.582 0 1.436.494 2.624 1.505 3.633 1.011 1.01 2.195 1.502 3.624 1.502zM290.234 139.625c-.84-.45-1.677-.672-2.554-.672-.87 0-1.699.222-2.542.672a4.586 4.586 0 0 0-1.887 1.867c-.359.642-.534 1.296-.618 1.966h10.108c-.082-.67-.257-1.325-.617-1.966a4.63 4.63 0 0 0-1.89-1.867zM287.68 82.178c1.436 0 2.627-.489 3.638-1.501 1.014-1.009 1.503-2.198 1.503-3.632 0-.894-.227-1.741-.698-2.582a4.601 4.601 0 0 0-1.889-1.864c-.84-.453-1.677-.674-2.554-.674-.87 0-1.699.221-2.542.674a4.585 4.585 0 0 0-1.887 1.864c-.47.841-.7 1.688-.7 2.582 0 1.435.494 2.623 1.505 3.632 1.011 1.012 2.195 1.501 3.624 1.501zM287.68 48.666c1.436 0 2.627-.491 3.638-1.504 1.014-1.008 1.503-2.197 1.503-3.631 0-.893-.227-1.741-.698-2.583a4.605 4.605 0 0 0-1.889-1.863c-.84-.453-1.677-.675-2.554-.675-.87 0-1.699.221-2.542.675a4.583 4.583 0 0 0-1.887 1.863c-.47.842-.7 1.689-.7 2.583 0 1.434.494 2.623 1.505 3.631 1.011 1.013 2.195 1.504 3.624 1.504zM236.869 77.045c0-.894-.227-1.741-.697-2.582a4.61 4.61 0 0 0-1.89-1.864c-.84-.453-1.677-.674-2.554-.674-.869 0-1.698.221-2.542.674a4.59 4.59 0 0 0-1.887 1.864c-.47.841-.699 1.688-.699 2.582 0 1.435.493 2.623 1.503 3.632 1.014 1.011 2.198 1.501 3.626 1.501 1.436 0 2.627-.489 3.638-1.501 1.013-1.008 1.502-2.197 1.502-3.632zM506.471 21.305h3.348v-3.092a8.036 8.036 0 0 1-.949-.276 35.543 35.543 0 0 0-2.05 2.798c-.126.188-.23.381-.349.57zM515.119 13.649a4.849 4.849 0 0 0 1.439-2.914 39.878 39.878 0 0 0-5.179 4.408c.034.002.065.009.1.009 1.438 0 2.631-.492 3.64-1.503zM509.818 130.812v-5.661h-4.68c1.406 1.982 2.979 3.862 4.68 5.661zM572.574 144.073c0-.894-.227-1.742-.697-2.581a4.633 4.633 0 0 0-1.889-1.867c-.842-.45-1.678-.672-2.556-.672-.869 0-1.696.222-2.541.672a4.605 4.605 0 0 0-1.89 1.867c-.47.839-.697 1.687-.697 2.581 0 .635.112 1.213.308 1.758 3.419-.044 6.69-.216 9.808-.515.093-.396.154-.804.154-1.243zM592.863 139.625a4.618 4.618 0 0 0-1.856 1.828 56.035 56.035 0 0 0 3.854-1.508c.601-.263 1.173-.557 1.755-.836a5.123 5.123 0 0 0-1.208-.156c-.871 0-1.699.222-2.545.672zM619.89 80.787a39.699 39.699 0 0 0-1.577-3.105 4.835 4.835 0 0 0 1.446 2.995c.042.043.089.07.131.11zM535.027 7.435c-.471.841-.702 1.688-.702 2.583 0 1.434.494 2.623 1.505 3.632 1.012 1.011 2.198 1.503 3.626 1.503 1.436 0 2.626-.492 3.637-1.503 1.013-1.008 1.502-2.198 1.502-3.632 0-.894-.227-1.741-.697-2.583a4.604 4.604 0 0 0-1.89-1.864c-.839-.453-1.678-.674-2.553-.674-.87 0-1.7.22-2.544.674a4.584 4.584 0 0 0-1.884 1.864zM620.841 106.112a4.618 4.618 0 0 0-1.89 1.865c-.47.841-.697 1.689-.697 2.582 0 1.436.493 2.624 1.504 3.633.112.114.239.198.359.299a43.917 43.917 0 0 0 2.564-8.958c-.618.088-1.227.25-1.84.579zM618.763 42.046c-.019-.16-.054-.302-.073-.462-.066.16-.146.318-.197.478l.27-.016zM600.548 110.559c0-.893-.229-1.741-.699-2.582a4.618 4.618 0 0 0-1.89-1.865c-.839-.45-1.676-.672-2.553-.672-.87 0-1.698.222-2.544.672a4.578 4.578 0 0 0-1.883 1.865c-.472.841-.704 1.689-.704 2.582 0 1.436.494 2.624 1.504 3.633 1.013 1.011 2.198 1.502 3.627 1.502 1.436 0 2.626-.492 3.637-1.502 1.014-1.01 1.505-2.198 1.505-3.633zM592.863 5.571a4.575 4.575 0 0 0-1.883 1.864c-.472.841-.704 1.688-.704 2.583 0 1.434.494 2.623 1.504 3.632 1.013 1.011 2.198 1.503 3.627 1.503 1.436 0 2.626-.492 3.637-1.503 1.013-1.008 1.504-2.198 1.504-3.632 0-.291-.062-.569-.112-.85a45.12 45.12 0 0 0-7.159-3.762c-.14.061-.275.092-.414.165zM542.009 139.625c-.839-.45-1.678-.672-2.553-.672-.87 0-1.7.222-2.544.672a4.576 4.576 0 0 0-1.885 1.867c-.35.622-.521 1.256-.609 1.903a98.327 98.327 0 0 0 10.093 1.632c.055-.306.085-.622.085-.953 0-.894-.227-1.742-.697-2.581a4.608 4.608 0 0 0-1.89-1.868zM516.623 43.531c0-.893-.227-1.741-.699-2.583a4.6 4.6 0 0 0-1.887-1.863c-.842-.453-1.678-.675-2.558-.675-.867 0-1.695.221-2.541.675a4.609 4.609 0 0 0-1.888 1.863c-.472.842-.699 1.689-.699 2.583 0 1.434.495 2.623 1.504 3.631 1.013 1.013 2.198 1.504 3.623 1.504 1.439 0 2.631-.491 3.64-1.504 1.014-1.007 1.505-2.197 1.505-3.631zM599.849 40.949a4.601 4.601 0 0 0-1.89-1.863c-.839-.453-1.676-.675-2.553-.675-.87 0-1.698.221-2.544.675a4.573 4.573 0 0 0-1.883 1.863c-.472.842-.704 1.689-.704 2.583 0 .062.016.118.016.18l10.203-.597a5.184 5.184 0 0 0-.645-2.166zM572.574 77.045c0-.894-.227-1.741-.697-2.582a4.62 4.62 0 0 0-1.889-1.864c-.842-.453-1.678-.674-2.556-.674-.869 0-1.696.221-2.541.674a4.604 4.604 0 0 0-1.89 1.864c-.47.841-.697 1.688-.697 2.582 0 1.435.493 2.623 1.502 3.632 1.015 1.011 2.197 1.501 3.625 1.501 1.437 0 2.629-.489 3.638-1.501 1.015-1.008 1.505-2.197 1.505-3.632zM536.912 39.085a4.572 4.572 0 0 0-1.885 1.863c-.471.842-.702 1.689-.702 2.583 0 1.434.494 2.623 1.505 3.631 1.012 1.013 2.198 1.504 3.626 1.504 1.436 0 2.626-.491 3.637-1.504.951-.946 1.426-2.062 1.479-3.382-.17-.129-.359-.256-.505-.387-1.678-1.419-2.664-2.987-3.014-4.692-.524-.172-1.054-.29-1.598-.29-.868 0-1.699.221-2.543.674zM572.574 10.018c0-.894-.227-1.741-.697-2.583a4.631 4.631 0 0 0-1.889-1.864c-.842-.453-1.678-.674-2.556-.674-.869 0-1.696.22-2.541.674a4.604 4.604 0 0 0-1.89 1.864c-.47.841-.697 1.688-.697 2.583 0 1.434.493 2.623 1.502 3.632 1.015 1.011 2.197 1.503 3.625 1.503 1.437 0 2.629-.492 3.638-1.503 1.015-1.009 1.505-2.198 1.505-3.632zM535.027 107.976c-.471.841-.702 1.689-.702 2.582 0 1.436.494 2.624 1.505 3.633 1.012 1.011 2.198 1.502 3.626 1.502 1.436 0 2.626-.492 3.637-1.502a4.862 4.862 0 0 0 1.306-2.25 23.472 23.472 0 0 1-2.162-2.351c-.925-1.185-1.737-2.564-2.456-4.109-.111-.008-.215-.043-.324-.043-.87 0-1.7.222-2.544.672a4.6 4.6 0 0 0-1.886 1.866zM597.96 72.599c-.839-.453-1.676-.674-2.553-.674-.87 0-1.698.221-2.544.674a4.575 4.575 0 0 0-1.883 1.864c-.472.841-.704 1.688-.704 2.582 0 1.435.494 2.623 1.504 3.632 1.013 1.011 2.198 1.501 3.627 1.501 1.436 0 2.626-.489 3.637-1.501 1.013-1.009 1.504-2.198 1.504-3.632 0-.894-.229-1.741-.699-2.582a4.596 4.596 0 0 0-1.889-1.864z"/><path fill="#1E2171" d="M615.46 121.846h.859a48.596 48.596 0 0 0 2.441-4.343 7.911 7.911 0 0 1-2.594-2.724 8.38 8.38 0 0 1-1.152-4.233c0-1.44.37-2.839 1.101-4.155a7.949 7.949 0 0 1 3.118-3.12 8.507 8.507 0 0 1 3.906-1.076c.147-1.514.251-3.04.251-4.59h-1.67v-5.967h-6.26v-3.306h6.26V85.72l-.162-.526a9.028 9.028 0 0 1-2.244-.857c-1.314-.701-2.375-1.738-3.149-3.072-.763-1.325-1.152-2.747-1.152-4.233 0-1.137.238-2.246.693-3.307-3.76-4.929-9.072-9.162-15.977-12.676a60.784 60.784 0 0 0-2.675-1.266v4.307h-3.312v-5.702l-.672-.263h-5.585v-2.002c-4.846-1.612-10.505-3.217-16.975-4.816a7.916 7.916 0 0 1-1.431.417v3.095h6.247v3.306h-6.247v5.965h-3.311v-5.965h-6.262v-3.306h6.262v-3.091c-.77-.157-1.577-.46-2.406-.905a7.701 7.701 0 0 1-2.121-1.679 384.94 384.94 0 0 0-2.525-.554c-4.8-.998-8.504-2.047-11.114-3.145a8.1 8.1 0 0 1-2.059 3.832c-1.246 1.311-2.733 2.132-4.441 2.447v3.095h6.244v3.306h-6.244v5.965h-3.313v-5.965h-6.255v-3.306h6.255v-3.091c-.77-.157-1.575-.46-2.406-.905-1.314-.7-2.374-1.735-3.145-3.071a8.358 8.358 0 0 1-1.156-4.234c0-1.44.37-2.84 1.102-4.154a7.929 7.929 0 0 1 3.122-3.121 8.498 8.498 0 0 1 4.16-1.095c.551 0 1.092.071 1.623.18.451-2.225 1.662-4.173 3.65-5.837 2.571-2.149 6.393-3.223 11.469-3.223 3.66 0 6.836.519 9.558 1.535v-3.191h-6.262v-3.306h6.262v-3.092c-.77-.158-1.577-.459-2.406-.904-1.314-.7-2.375-1.735-3.149-3.071a8.363 8.363 0 0 1-1.154-4.233c0-1.442.37-2.84 1.103-4.155a7.945 7.945 0 0 1 3.118-3.121c1.312-.725 2.711-1.095 4.165-1.095 1.44 0 2.84.372 4.156 1.102a7.943 7.943 0 0 1 3.118 3.123 8.43 8.43 0 0 1 1.095 4.145c0 2.215-.771 4.152-2.295 5.757-1.244 1.313-2.733 2.133-4.441 2.448v3.095h6.247v3.306h-6.247v4.818c.572.361 1.123.744 1.639 1.168 3.502 2.886 5.799 7.505 6.89 13.854l9.453-.552c-.007-.127-.027-.252-.027-.381 0-1.44.37-2.84 1.102-4.154a7.934 7.934 0 0 1 3.124-3.121 8.483 8.483 0 0 1 4.158-1.095c1.447 0 2.843.372 4.157 1.102a7.943 7.943 0 0 1 3.118 3.123 8.385 8.385 0 0 1 1.057 3.551l11.366-.665a8.65 8.65 0 0 1 .998-2.896 7.889 7.889 0 0 1 1.859-2.233c-2.201-11.199-6.994-19.719-14.319-25.631-.274 1.599-.992 3.031-2.159 4.261-1.246 1.313-2.733 2.133-4.441 2.448v3.095h6.246v3.306h-6.246v5.965h-3.312v-5.965h-6.257v-3.306h6.257v-3.092c-.772-.158-1.577-.459-2.406-.904-1.316-.7-2.374-1.735-3.147-3.071-.766-1.323-1.156-2.747-1.156-4.233 0-1.442.37-2.84 1.102-4.155a8.088 8.088 0 0 1 1.423-1.854C581.588 1.337 571.923 0 560.549 0c-7.949 0-14.954.559-21.077 1.634 1.443 0 2.841.372 4.153 1.102a7.937 7.937 0 0 1 3.118 3.123c.728 1.309 1.096 2.703 1.096 4.145 0 2.215-.772 4.152-2.294 5.757-1.246 1.313-2.733 2.133-4.441 2.448v3.095h6.244v3.306h-6.244v5.965h-3.313V24.61h-6.255v-3.306h6.255v-3.092c-.77-.158-1.575-.459-2.406-.904-1.314-.7-2.374-1.735-3.145-3.071-.766-1.323-1.156-2.747-1.156-4.233 0-1.442.37-2.84 1.102-4.155a7.929 7.929 0 0 1 3.122-3.121 8.777 8.777 0 0 1 1.127-.519c-3.968.858-7.513 1.963-10.63 3.324a54.45 54.45 0 0 0-6.068 3.105c.073.451.128.905.128 1.366 0 2.215-.771 4.152-2.295 5.757-1.245 1.313-2.733 2.133-4.441 2.448v3.095h6.247v3.306h-6.247v5.965h-3.311V24.61h-5.227c-2.708 5.299-4.087 10.852-4.087 16.665 0 5.487 1.021 10.486 3.053 15.004v-1.462h6.262v-3.091c-.772-.157-1.577-.46-2.406-.905-1.316-.7-2.375-1.735-3.151-3.071a8.384 8.384 0 0 1-1.152-4.234c0-1.44.37-2.84 1.101-4.154a7.963 7.963 0 0 1 3.12-3.121 8.515 8.515 0 0 1 4.163-1.095c1.442 0 2.843.372 4.156 1.102a7.955 7.955 0 0 1 3.12 3.123 8.444 8.444 0 0 1 1.095 4.145c0 2.215-.771 4.153-2.295 5.758-1.245 1.311-2.733 2.132-4.441 2.447v3.095h6.247v3.306h-6.247v5.965h-3.311v-5.965h-5.305c2.019 3.82 4.766 7.295 8.327 10.381.142.123.3.245.443.369a8.695 8.695 0 0 1 2.367.889 7.912 7.912 0 0 1 3.053 3.026c3.571 2.229 7.778 4.293 12.628 6.192a8.254 8.254 0 0 1-.247-1.949c0-1.441.37-2.84 1.102-4.155a7.935 7.935 0 0 1 3.122-3.121 8.498 8.498 0 0 1 4.16-1.095c1.447 0 2.841.372 4.157 1.102a7.95 7.95 0 0 1 3.118 3.123c.728 1.309 1.096 2.704 1.096 4.145 0 2.215-.772 4.152-2.294 5.759-.216.227-.449.42-.681.616 2.839.778 5.808 1.522 8.937 2.225 4.014.882 7.49 1.782 10.501 2.7h1.465V85.24c-.77-.158-1.577-.462-2.406-.905-1.314-.701-2.375-1.738-3.149-3.072-.765-1.325-1.154-2.747-1.154-4.233 0-1.441.37-2.84 1.103-4.155a7.951 7.951 0 0 1 3.118-3.121c1.312-.725 2.711-1.095 4.165-1.095 1.44 0 2.84.372 4.156 1.102a7.956 7.956 0 0 1 3.118 3.123 8.433 8.433 0 0 1 1.095 4.145c0 2.215-.771 4.152-2.295 5.759-1.244 1.311-2.733 2.13-4.441 2.448v3.093h6.247v3.306h-2.448c1.369.715 2.467 1.439 3.284 2.173 3.213 2.887 4.819 6.159 4.819 9.813 0 3.851-1.684 7.233-5.058 10.151-.393.342-.809.658-1.24.957a8.944 8.944 0 0 1-1.162 1.574c-1.244 1.312-2.733 2.13-4.441 2.448v3.093h6.247v3.305h-6.247v5.967h-3.311v-5.967h-6.262v-3.305h6.262v-3.09c-.617-.125-1.256-.372-1.913-.68-.754.048-1.537.075-2.344.075-5.74 0-10.548-1.379-14.469-4.075a8.321 8.321 0 0 1-1.499 2.228c-1.246 1.312-2.733 2.13-4.441 2.448v3.093h6.244v3.305h-6.244v5.967h-3.313v-5.967h-6.255v-3.305h6.255v-3.09c-.77-.16-1.575-.462-2.406-.905-1.314-.701-2.374-1.737-3.145-3.072-.766-1.323-1.156-2.747-1.156-4.233 0-1.44.37-2.839 1.102-4.155a7.92 7.92 0 0 1 3.122-3.12 8.534 8.534 0 0 1 3.209-1.033c-.777-2.367-1.374-5.036-1.774-8.043l-23.614 1.476v1.934h-3.311v-1.726l-14.615.913c.843 9.857 3.661 18.487 8.353 25.946v-.891h6.262v-3.09c-.772-.16-1.577-.462-2.406-.905-1.316-.701-2.375-1.737-3.151-3.072a8.38 8.38 0 0 1-1.152-4.233c0-1.44.37-2.839 1.101-4.155a7.954 7.954 0 0 1 3.12-3.12 8.503 8.503 0 0 1 4.163-1.094c1.442 0 2.843.37 4.156 1.101a7.942 7.942 0 0 1 3.12 3.123 8.444 8.444 0 0 1 1.095 4.145c0 2.215-.771 4.153-2.295 5.759-1.245 1.312-2.733 2.13-4.441 2.448v3.093h6.247v3.305h-6.247v5.967h-3.033c.281.293.532.603.816.89 4.789 4.778 11.57 8.312 20.314 10.614a8.552 8.552 0 0 1 .96-2.718 7.926 7.926 0 0 1 3.122-3.12 8.487 8.487 0 0 1 4.16-1.094c1.447 0 2.841.37 4.157 1.102a7.928 7.928 0 0 1 3.118 3.122c.728 1.309 1.096 2.706 1.096 4.145 0 .441-.054.861-.112 1.281 3.623.307 7.483.471 11.542.505a8.318 8.318 0 0 1-.208-1.785c0-1.439.37-2.839 1.103-4.155a7.942 7.942 0 0 1 3.118-3.12 8.51 8.51 0 0 1 4.165-1.094c1.44 0 2.84.37 4.156 1.102a7.934 7.934 0 0 1 3.118 3.122 8.439 8.439 0 0 1 1.095 4.145c0 .31-.05.601-.081.898 4.091-.528 7.899-1.293 11.435-2.29a8.61 8.61 0 0 1 .967-2.762 7.931 7.931 0 0 1 3.124-3.12 8.47 8.47 0 0 1 4.158-1.094c1.447 0 2.843.37 4.157 1.102.227.127.435.273.643.418 6.246-3.604 11.327-8.286 15.241-14.051v-1.313zm-12.159 0v3.305h-6.246v5.967h-3.312v-5.967h-6.257v-3.305h6.257v-3.09c-.772-.16-1.577-.462-2.406-.905-1.316-.701-2.374-1.737-3.147-3.072-.766-1.323-1.156-2.747-1.156-4.233 0-1.44.37-2.839 1.102-4.155a7.925 7.925 0 0 1 3.124-3.12 8.47 8.47 0 0 1 4.158-1.094c1.447 0 2.843.37 4.157 1.101a7.93 7.93 0 0 1 3.118 3.123 8.434 8.434 0 0 1 1.096 4.145c0 2.215-.77 4.153-2.294 5.759-1.246 1.312-2.733 2.13-4.441 2.448v3.093h6.247zm-1.805-39.055c-1.246 1.311-2.733 2.13-4.441 2.448v3.093h6.246v3.306h-6.246v5.967h-3.312v-5.967h-6.257v-3.306h6.257v-3.089c-.772-.158-1.577-.462-2.406-.905-1.316-.701-2.374-1.738-3.147-3.072-.766-1.325-1.156-2.747-1.156-4.233 0-1.441.37-2.84 1.102-4.155a7.94 7.94 0 0 1 3.124-3.121 8.483 8.483 0 0 1 4.158-1.095c1.447 0 2.843.372 4.157 1.102a7.943 7.943 0 0 1 3.118 3.123 8.434 8.434 0 0 1 1.096 4.145c.001 2.215-.769 4.152-2.293 5.759z"/><path fill="#1E2171" d="M543.094 80.678c1.013-1.009 1.502-2.198 1.502-3.632 0-.894-.227-1.741-.697-2.582a4.592 4.592 0 0 0-1.89-1.864c-.839-.453-1.678-.674-2.553-.674-.87 0-1.7.221-2.544.674a4.574 4.574 0 0 0-1.885 1.864c-.471.841-.702 1.688-.702 2.582 0 1.406.482 2.571 1.451 3.569 1.472.506 2.983 1.005 4.559 1.487 1.05-.166 1.963-.629 2.759-1.424zM516.623 110.559c0-.893-.227-1.741-.699-2.582a4.617 4.617 0 0 0-1.887-1.865c-.842-.45-1.678-.672-2.558-.672-.867 0-1.695.222-2.541.672a4.613 4.613 0 0 0-1.888 1.865c-.472.841-.699 1.689-.699 2.582 0 1.436.495 2.624 1.504 3.633 1.013 1.011 2.198 1.502 3.623 1.502 1.439 0 2.631-.492 3.64-1.502 1.014-1.01 1.505-2.198 1.505-3.633zM651.36 48.666c1.433 0 2.626-.491 3.635-1.504 1.015-1.008 1.504-2.197 1.504-3.631 0-.893-.227-1.741-.697-2.583a4.625 4.625 0 0 0-1.89-1.863c-.842-.453-1.678-.675-2.553-.675-.872 0-1.7.221-2.544.675a4.56 4.56 0 0 0-1.885 1.863c-.471.842-.702 1.689-.702 2.583 0 1.434.494 2.623 1.503 3.631 1.015 1.013 2.199 1.504 3.629 1.504zM712.226 145.55c.135-.465.224-.95.224-1.477 0-.894-.228-1.742-.697-2.581a4.617 4.617 0 0 0-1.89-1.867c-.839-.45-1.678-.672-2.552-.672-.87 0-1.7.222-2.544.672a4.576 4.576 0 0 0-1.885 1.867c-.471.839-.702 1.687-.702 2.581 0 .643.116 1.231.316 1.78.3.002.59.011.89.011 3.074 0 6.007-.114 8.84-.314zM681.888 139.625c-.839-.45-1.675-.672-2.555-.672-.867 0-1.695.222-2.541.672a4.629 4.629 0 0 0-1.89 1.867 5.628 5.628 0 0 0-.528 1.287c3.105.791 6.455 1.428 10.043 1.914.023-.203.057-.404.057-.619 0-.894-.227-1.742-.697-2.581a4.593 4.593 0 0 0-1.889-1.868zM647.061 58.124c.775 1.462 1.635 2.883 2.633 4.237v-4.237h-2.633zM649.694 127.79v-2.639h-2.008c.639.9 1.311 1.778 2.008 2.639zM644.143 47.752a8.672 8.672 0 0 1-.826-1.934 35.236 35.236 0 0 0 2.225 9.001h4.152v-3.091c-.77-.157-1.577-.46-2.406-.905-1.315-.7-2.374-1.736-3.145-3.071zM674.902 7.435c-.47.841-.697 1.688-.697 2.583 0 1.434.493 2.623 1.504 3.632 1.013 1.011 2.198 1.503 3.623 1.503 1.439 0 2.629-.492 3.64-1.503 1.013-1.008 1.502-2.198 1.502-3.632 0-.894-.227-1.741-.697-2.583a4.598 4.598 0 0 0-1.89-1.864c-.839-.453-1.675-.674-2.555-.674-.867 0-1.695.22-2.541.674a4.637 4.637 0 0 0-1.889 1.864zM764.909 88.201v.131h.031c-.008-.044-.02-.087-.031-.131zM758.832 40.949a5.672 5.672 0 0 0-.528 1.272l3.007-.174c-.128-1.038-.316-2.009-.485-3.006-.034.019-.069.025-.108.044a4.583 4.583 0 0 0-1.886 1.864zM763.026 82.157a38.869 38.869 0 0 0-2.725-5.474 31.675 31.675 0 0 0-1.473-2.218c-.467.841-.698 1.689-.698 2.58 0 1.435.494 2.623 1.505 3.632.955.954 2.07 1.428 3.391 1.48zM760.717 106.112a4.588 4.588 0 0 0-1.885 1.865c-.471.841-.702 1.689-.702 2.582 0 1.436.494 2.624 1.505 3.633.751.747 1.594 1.206 2.559 1.398a43.985 43.985 0 0 0 2.976-9.736c-.628-.249-1.255-.414-1.909-.414-.87 0-1.698.221-2.544.672zM732.745 5.571a4.604 4.604 0 0 0-1.89 1.864c-.47.841-.697 1.688-.697 2.583 0 1.434.493 2.623 1.502 3.632 1.015 1.011 2.198 1.503 3.625 1.503 1.437 0 2.629-.492 3.638-1.503 1.015-1.008 1.504-2.198 1.504-3.632 0-.894-.227-1.741-.699-2.583-.066-.112-.153-.19-.224-.296a48.524 48.524 0 0 0-4.819-2.163 5.383 5.383 0 0 0-1.94.595zM649.694 20.272c-.104.156-.223.304-.327.462-.123.189-.227.381-.347.57h.674v-1.032zM682.973 80.678c1.013-1.009 1.502-2.198 1.502-3.632 0-.894-.227-1.741-.697-2.582a4.586 4.586 0 0 0-1.89-1.864c-.839-.453-1.675-.674-2.555-.674-.867 0-1.695.221-2.541.674a4.628 4.628 0 0 0-1.89 1.864c-.47.841-.697 1.688-.697 2.582 0 .838.189 1.587.532 2.271 2.148.819 4.427 1.606 6.813 2.363a5.192 5.192 0 0 0 1.423-1.002zM712.45 77.045c0-.894-.228-1.741-.697-2.582a4.604 4.604 0 0 0-1.89-1.864c-.839-.453-1.678-.674-2.552-.674-.87 0-1.7.221-2.544.674a4.574 4.574 0 0 0-1.885 1.864c-.471.841-.702 1.688-.702 2.582 0 1.435.494 2.623 1.502 3.632 1.015 1.011 2.198 1.501 3.629 1.501 1.436 0 2.626-.489 3.637-1.501 1.013-1.008 1.502-2.197 1.502-3.632zM681.888 106.112c-.839-.45-1.675-.672-2.555-.672-.867 0-1.695.222-2.541.672a4.63 4.63 0 0 0-1.89 1.865c-.47.841-.697 1.689-.697 2.582 0 1.436.493 2.624 1.504 3.633 1.013 1.011 2.198 1.502 3.623 1.502 1.439 0 2.629-.492 3.64-1.502 1.013-1.01 1.502-2.198 1.502-3.633 0-.729-.192-1.428-.508-2.12a21.8 21.8 0 0 1-.678-1.109c-.388-.486-.831-.912-1.4-1.218zM735.285 138.953c-.869 0-1.697.222-2.541.672a4.605 4.605 0 0 0-1.89 1.867c-.177.318-.288.643-.4.967a58.533 58.533 0 0 0 6.953-2.514c.183-.079.348-.169.525-.251-.034-.019-.057-.05-.092-.069-.841-.45-1.676-.672-2.555-.672zM712.45 10.018c0-.894-.228-1.741-.697-2.583a4.616 4.616 0 0 0-1.89-1.864c-.839-.453-1.678-.674-2.552-.674-.87 0-1.7.22-2.544.674a4.574 4.574 0 0 0-1.885 1.864c-.471.841-.702 1.688-.702 2.583 0 1.434.494 2.623 1.502 3.632 1.015 1.011 2.198 1.503 3.629 1.503 1.436 0 2.626-.492 3.637-1.503 1.013-1.009 1.502-2.198 1.502-3.632zM681.888 39.085c-.839-.453-1.675-.675-2.555-.675-.867 0-1.695.221-2.541.675a4.625 4.625 0 0 0-1.89 1.863c-.47.842-.697 1.689-.697 2.583 0 1.434.493 2.623 1.504 3.631 1.013 1.013 2.198 1.504 3.623 1.504 1.439 0 2.629-.491 3.64-1.504 1.013-1.008 1.502-2.197 1.502-3.631 0-.893-.227-1.741-.697-2.583a4.593 4.593 0 0 0-1.889-1.863zM739.729 40.949a4.603 4.603 0 0 0-1.888-1.863c-.841-.453-1.677-.675-2.555-.675-.869 0-1.697.221-2.541.675a4.601 4.601 0 0 0-1.89 1.863c-.47.842-.697 1.689-.697 2.583 0 .116.023.222.031.333l10.205-.597a5.185 5.185 0 0 0-.665-2.319zM656.499 110.559c0-.893-.227-1.741-.697-2.582a4.642 4.642 0 0 0-1.89-1.865c-.842-.45-1.678-.672-2.553-.672-.872 0-1.7.222-2.544.672a4.565 4.565 0 0 0-1.885 1.865c-.471.841-.702 1.689-.702 2.582 0 1.436.494 2.624 1.503 3.633 1.014 1.011 2.198 1.502 3.628 1.502 1.433 0 2.626-.492 3.635-1.502 1.016-1.01 1.505-2.198 1.505-3.633zM737.841 72.599c-.841-.453-1.677-.674-2.555-.674-.869 0-1.697.221-2.541.674a4.604 4.604 0 0 0-1.89 1.864c-.47.841-.697 1.688-.697 2.582 0 1.435.493 2.623 1.502 3.632 1.015 1.011 2.198 1.501 3.625 1.501 1.437 0 2.629-.489 3.638-1.501 1.015-1.009 1.504-2.198 1.504-3.632 0-.894-.227-1.741-.699-2.582a4.597 4.597 0 0 0-1.887-1.864zM740.427 110.559c0-.893-.227-1.741-.699-2.582a4.62 4.62 0 0 0-1.888-1.865c-.841-.45-1.677-.672-2.555-.672-.869 0-1.697.222-2.541.672a4.606 4.606 0 0 0-1.89 1.865c-.47.841-.697 1.689-.697 2.582 0 1.436.493 2.624 1.502 3.633 1.015 1.011 2.198 1.502 3.625 1.502 1.437 0 2.629-.492 3.638-1.502 1.016-1.01 1.505-2.198 1.505-3.633z"/><path fill="#1E2171" d="M755.34 125.151v-3.305h3.526a48.525 48.525 0 0 0 1.917-3.328 9.795 9.795 0 0 1-1.591-.667c-1.316-.701-2.374-1.737-3.147-3.072-.766-1.323-1.156-2.747-1.156-4.233 0-1.44.37-2.839 1.102-4.155a7.925 7.925 0 0 1 3.124-3.12 8.473 8.473 0 0 1 4.158-1.094c.811 0 1.6.128 2.375.358.173-1.634.289-3.288.289-4.971a44.52 44.52 0 0 0-.397-5.926h-.631v5.967h-3.312v-5.967h-6.257v-3.306h6.257v-3.089c-.772-.158-1.577-.462-2.406-.905-1.316-.701-2.374-1.738-3.147-3.072-.766-1.325-1.156-2.747-1.156-4.233 0-1.441.37-2.84 1.102-4.155.212-.377.45-.725.715-1.056-3.629-4.121-8.425-7.718-14.427-10.772-1.581-.805-3.366-1.606-5.345-2.407v5.448h-3.311v-5.965h-6.262V55.26c-4.672-1.464-10.008-2.925-16.025-4.38a7.856 7.856 0 0 1-2.379.843v3.095h6.244v3.306h-6.244v5.965h-3.313v-5.965h-6.255v-3.306h6.255v-3.091c-.77-.157-1.575-.46-2.406-.905a7.818 7.818 0 0 1-2.69-2.392c-6.229-1.333-10.532-2.755-12.888-4.263-.139 1.94-.868 3.666-2.236 5.109-1.245 1.311-2.733 2.132-4.441 2.447v3.095h6.247v3.306h-6.247v5.965h-3.311v-5.965h-6.262v-3.306h6.262v-3.091c-.772-.157-1.577-.46-2.406-.905-1.316-.7-2.375-1.735-3.151-3.071a8.384 8.384 0 0 1-1.152-4.234c0-1.44.37-2.84 1.101-4.154a7.963 7.963 0 0 1 3.12-3.121 8.515 8.515 0 0 1 4.163-1.095c1.439 0 2.835.372 4.145 1.099.274-2.613 1.535-4.864 3.798-6.756 2.571-2.149 6.391-3.223 11.468-3.223 2.526 0 4.812.253 6.886.737v-2.393h-6.255v-3.306h6.255v-3.092c-.77-.158-1.575-.459-2.406-.904-1.314-.7-2.375-1.735-3.145-3.071-.766-1.323-1.157-2.747-1.157-4.233 0-1.442.372-2.84 1.104-4.155a7.929 7.929 0 0 1 3.122-3.121 8.493 8.493 0 0 1 4.16-1.095c1.447 0 2.841.372 4.157 1.102a7.943 7.943 0 0 1 3.118 3.123 8.44 8.44 0 0 1 1.094 4.145c0 2.215-.77 4.152-2.294 5.757-1.244 1.313-2.733 2.133-4.439 2.448v3.095h6.244v3.306h-6.244v3.437c1.606.665 3.049 1.51 4.308 2.549 3.502 2.886 5.799 7.505 6.889 13.854l6.793-.396c-.011-.179-.034-.356-.034-.538 0-1.44.37-2.84 1.103-4.154a7.945 7.945 0 0 1 3.118-3.121 8.517 8.517 0 0 1 4.165-1.095c1.44 0 2.841.372 4.154 1.102a7.955 7.955 0 0 1 3.12 3.123 8.44 8.44 0 0 1 1.063 3.706l11.328-.662a8.581 8.581 0 0 1 1.024-3.054 7.934 7.934 0 0 1 3.124-3.121c.358-.199.72-.363 1.094-.509-.897-4.077-2.162-7.777-3.767-11.122h-1.101v-2.186c-2.78-5.022-6.409-9.162-10.943-12.37-.239-.169-.512-.31-.754-.474.007.141.027.282.027.424 0 2.215-.771 4.152-2.295 5.757-1.243 1.313-2.733 2.133-4.441 2.448v3.095h6.247v3.306h-6.247v5.965h-3.311v-5.965h-6.262v-3.306h6.262v-3.092c-.77-.158-1.577-.459-2.406-.904-1.316-.7-2.375-1.735-3.149-3.071a8.363 8.363 0 0 1-1.154-4.233c0-1.442.37-2.84 1.103-4.155a7.978 7.978 0 0 1 2.092-2.438C722.531 1.162 713.557 0 703.097 0c-8.392 0-15.728.622-22.082 1.82a8.705 8.705 0 0 1 2.49.916 7.917 7.917 0 0 1 3.118 3.123 8.421 8.421 0 0 1 1.096 4.145c0 2.215-.771 4.152-2.295 5.757-1.245 1.313-2.733 2.133-4.441 2.448v3.095h6.247v3.306h-6.247v5.965h-3.311V24.61h-6.262v-3.306h6.262v-3.092c-.772-.158-1.577-.459-2.406-.904-1.316-.7-2.375-1.735-3.151-3.071a8.38 8.38 0 0 1-1.152-4.233c0-1.442.37-2.84 1.101-4.155a7.99 7.99 0 0 1 2.009-2.363c-2.032.609-3.963 1.278-5.72 2.046-3.182 1.387-6.057 2.97-8.637 4.749-.066 2.095-.813 3.944-2.271 5.48-1.244 1.313-2.733 2.133-4.441 2.448v3.095h6.246v3.306h-6.246v5.965h-3.312V24.61h-2.555c-2.706 5.299-4.087 10.852-4.087 16.665 0 .328.039.636.046.956a8.556 8.556 0 0 1 .992-2.869 7.916 7.916 0 0 1 3.122-3.121 8.493 8.493 0 0 1 4.16-1.095c1.445 0 2.841.372 4.155 1.102a7.961 7.961 0 0 1 3.12 3.123 8.443 8.443 0 0 1 1.094 4.145c0 2.215-.77 4.153-2.294 5.758-1.244 1.311-2.733 2.132-4.441 2.447v3.095h6.246v3.306h-6.246v5.965h-1.915c1.291 1.539 2.694 3.026 4.297 4.415 3.933 3.429 9.149 6.528 15.626 9.301-.023-.256-.05-.512-.05-.774 0-1.441.37-2.84 1.101-4.155a7.97 7.97 0 0 1 3.12-3.121 8.515 8.515 0 0 1 4.163-1.095c1.442 0 2.843.372 4.156 1.102a7.93 7.93 0 0 1 3.118 3.123 8.424 8.424 0 0 1 1.096 4.145c0 2.215-.771 4.152-2.295 5.759-.015.017-.034.029-.05.046 3.435.988 7.086 1.92 10.975 2.795 3.494.766 6.562 1.549 9.295 2.344v-2.733c-.77-.158-1.575-.462-2.406-.905-1.314-.701-2.375-1.738-3.145-3.072-.766-1.325-1.157-2.747-1.157-4.233 0-1.441.372-2.84 1.104-4.155a7.935 7.935 0 0 1 3.122-3.121 8.493 8.493 0 0 1 4.16-1.095c1.447 0 2.841.372 4.157 1.102a7.956 7.956 0 0 1 3.118 3.123 8.443 8.443 0 0 1 1.094 4.145c0 2.215-.77 4.152-2.294 5.759-1.244 1.311-2.733 2.13-4.439 2.448v3.093h6.244v3.199c1.465.75 2.653 1.508 3.509 2.279 3.211 2.887 4.819 6.159 4.819 9.813 0 3.851-1.685 7.233-5.058 10.151-1.597 1.38-3.521 2.422-5.752 3.149-1.098.944-2.352 1.568-3.762 1.83v3.093h6.244v3.305h-6.244v5.967h-3.313v-5.967h-6.255v-3.305h6.255v-3.09c-.566-.117-1.159-.341-1.76-.612-6.728-.035-12.18-1.955-16.389-5.719a8.109 8.109 0 0 1-2.071 3.879c-1.245 1.312-2.733 2.13-4.441 2.448v3.093h6.247v3.305h-6.247v5.967h-3.311v-5.967h-6.262v-3.305h6.262v-3.09c-.772-.16-1.577-.462-2.406-.905-1.316-.701-2.375-1.737-3.151-3.072a8.38 8.38 0 0 1-1.152-4.233c0-1.44.37-2.839 1.101-4.155a7.954 7.954 0 0 1 3.12-3.12 8.503 8.503 0 0 1 4.163-1.094c.598 0 1.184.079 1.762.204a39.406 39.406 0 0 1-1.241-4.777h-2.198v-3.307l-24.667 1.54v1.767h-3.312v-1.558l-11.943.745c.813 9.464 3.437 17.801 7.798 25.054h4.145v-3.09c-.77-.16-1.577-.462-2.406-.905-1.316-.701-2.374-1.737-3.145-3.072a8.336 8.336 0 0 1-1.157-4.233c0-1.44.37-2.839 1.104-4.155a7.907 7.907 0 0 1 3.122-3.12 8.48 8.48 0 0 1 4.16-1.094c1.445 0 2.841.37 4.155 1.101a7.948 7.948 0 0 1 3.12 3.123 8.443 8.443 0 0 1 1.094 4.145c0 2.215-.77 4.153-2.294 5.759-1.244 1.312-2.733 2.13-4.441 2.448v3.093h6.246v3.305h-6.246v5.967h-.362c.281.293.532.603.818.89 4.317 4.308 10.258 7.596 17.788 9.896a8.86 8.86 0 0 1 .816-2 7.96 7.96 0 0 1 3.12-3.12 8.503 8.503 0 0 1 4.163-1.094c1.442 0 2.843.37 4.156 1.102a7.908 7.908 0 0 1 3.118 3.122 8.43 8.43 0 0 1 1.096 4.145c0 .352-.055.686-.092 1.023 3.611.384 7.444.632 11.516.73a8.357 8.357 0 0 1-.206-1.753c0-1.439.372-2.839 1.104-4.155a7.926 7.926 0 0 1 3.122-3.12 8.48 8.48 0 0 1 4.16-1.094c1.447 0 2.841.37 4.157 1.102a7.934 7.934 0 0 1 3.118 3.122 8.449 8.449 0 0 1 1.094 4.145c0 .412-.054.803-.104 1.195 4.04-.41 7.843-1.029 11.37-1.872a8.53 8.53 0 0 1 1.06-3.477 7.942 7.942 0 0 1 3.118-3.12 8.505 8.505 0 0 1 4.165-1.094c1.44 0 2.841.37 4.154 1.102.649.36 1.227.799 1.74 1.305 6.219-3.311 11.354-7.624 15.397-12.947h-1.247zm-12.159-3.305v3.305h-6.247v5.967h-3.311v-5.967h-6.262v-3.305h6.262v-3.09c-.77-.16-1.577-.462-2.406-.905-1.316-.701-2.375-1.737-3.149-3.072a8.363 8.363 0 0 1-1.154-4.233c0-1.44.37-2.839 1.103-4.155a7.936 7.936 0 0 1 3.118-3.12 8.505 8.505 0 0 1 4.165-1.094c1.44 0 2.841.37 4.154 1.101a7.942 7.942 0 0 1 3.12 3.123 8.444 8.444 0 0 1 1.095 4.145c0 2.215-.771 4.153-2.295 5.759-1.243 1.312-2.733 2.13-4.441 2.448v3.093h6.248zm-1.806-39.055c-1.243 1.311-2.733 2.13-4.441 2.448v3.093h6.247v3.306h-6.247v5.967h-3.311v-5.967h-6.262v-3.306h6.262v-3.089c-.77-.158-1.577-.462-2.406-.905-1.316-.701-2.375-1.738-3.149-3.072-.765-1.325-1.154-2.747-1.154-4.233 0-1.441.37-2.84 1.103-4.155a7.951 7.951 0 0 1 3.118-3.121 8.517 8.517 0 0 1 4.165-1.095c1.44 0 2.841.372 4.154 1.102a7.955 7.955 0 0 1 3.12 3.123 8.444 8.444 0 0 1 1.095 4.145c.001 2.215-.77 4.152-2.294 5.759z"/><g fill="#1E2171"><path d="M142.373 195.021v-21.248h2.816v21.248h-2.816zM149.821 195.021V179.63h2.352v2.19c1.133-1.693 2.768-2.539 4.907-2.539.93 0 1.783.165 2.563.499.779.333 1.362.772 1.75 1.311.387.544.658 1.185.813 1.927.096.485.144 1.33.144 2.536v9.467h-2.613v-9.364c0-1.061-.102-1.855-.305-2.384-.203-.524-.564-.946-1.082-1.26-.518-.313-1.126-.47-1.823-.47-1.111 0-2.073.352-2.881 1.056-.809.706-1.213 2.045-1.213 4.015v8.408h-2.612zM176.361 195.021v-1.94c-.978 1.524-2.414 2.286-4.312 2.286a6.056 6.056 0 0 1-3.39-1.013c-1.029-.676-1.83-1.622-2.394-2.833-.568-1.214-.85-2.606-.85-4.182 0-1.536.256-2.93.769-4.183.514-1.25 1.283-2.21 2.308-2.878 1.027-.664 2.174-.998 3.442-.998.929 0 1.757.197 2.483.585.726.391 1.316.9 1.772 1.532v-7.625h2.598v21.248h-2.426zm-8.261-7.681c0 1.97.416 3.448 1.248 4.42.833.976 1.815 1.464 2.948 1.464 1.142 0 2.112-.466 2.911-1.398.798-.932 1.198-2.354 1.198-4.268 0-2.107-.406-3.652-1.22-4.638-.813-.986-1.814-1.479-3.005-1.479-1.161 0-2.133.474-2.912 1.422-.779.947-1.168 2.435-1.168 4.477zM182.909 176.776v-3.003h2.615v3.003h-2.615zm0 18.245V179.63h2.615v15.391h-2.615zM199.563 193.124c-.968.823-1.899 1.401-2.795 1.739a8.137 8.137 0 0 1-2.881.505c-1.694 0-2.996-.412-3.906-1.236-.909-.828-1.365-1.884-1.365-3.169 0-.754.171-1.44.515-2.066a4.261 4.261 0 0 1 1.351-1.499 6.435 6.435 0 0 1 1.879-.857c.515-.133 1.288-.262 2.324-.389 2.11-.25 3.663-.553 4.66-.901.01-.354.014-.582.014-.68 0-1.059-.246-1.81-.74-2.246-.668-.588-1.66-.885-2.976-.885-1.23 0-2.138.216-2.722.643-.588.432-1.02 1.191-1.301 2.284l-2.554-.345c.232-1.094.613-1.978 1.147-2.646.532-.674 1.302-1.191 2.307-1.555 1.006-.358 2.174-.541 3.499-.541 1.316 0 2.387.154 3.21.462.822.31 1.427.699 1.815 1.168.386.47.658 1.061.812 1.777.088.444.131 1.244.131 2.404v3.479c0 2.427.055 3.96.167 4.603.111.642.331 1.258.661 1.847h-2.73c-.27-.54-.444-1.174-.522-1.896zm-.218-5.828c-.949.387-2.371.717-4.268.986-1.073.156-1.834.33-2.279.52-.446.197-.789.478-1.03.85a2.224 2.224 0 0 0-.363 1.236c0 .697.263 1.278.791 1.742.527.464 1.298.695 2.315.695 1.006 0 1.902-.218 2.686-.659.784-.439 1.36-1.038 1.727-1.803.282-.589.421-1.458.421-2.608v-.959zM206.039 195.021V179.63h2.352v2.19c1.133-1.693 2.769-2.539 4.907-2.539.929 0 1.782.165 2.563.499.779.333 1.362.772 1.749 1.311.388.544.659 1.185.814 1.927.096.485.144 1.33.144 2.536v9.467h-2.613v-9.364c0-1.061-.102-1.855-.305-2.384-.202-.524-.564-.946-1.082-1.26-.519-.313-1.125-.47-1.822-.47-1.114 0-2.075.352-2.883 1.056-.809.706-1.213 2.045-1.213 4.015v8.408h-2.611zM230.315 184.672c0-3.526.95-6.289 2.846-8.282 1.898-1.997 4.346-2.995 7.347-2.995 1.965 0 3.736.473 5.314 1.408 1.577.937 2.78 2.244 3.608 3.92.826 1.678 1.242 3.579 1.242 5.705 0 2.153-.436 4.083-1.307 5.78-.871 1.703-2.105 2.989-3.703 3.865a10.61 10.61 0 0 1-5.169 1.31c-2.003 0-3.795-.482-5.372-1.447a9.322 9.322 0 0 1-3.586-3.96 11.95 11.95 0 0 1-1.22-5.304zm2.903.045c0 2.562.69 4.576 2.07 6.054 1.379 1.47 3.11 2.208 5.191 2.208 2.119 0 3.864-.743 5.235-2.229 1.368-1.49 2.053-3.602 2.053-6.337 0-1.73-.293-3.239-.878-4.532-.586-1.287-1.442-2.29-2.568-2.997-1.129-.71-2.394-1.069-3.798-1.069-1.993 0-3.71.686-5.146 2.053-1.44 1.367-2.159 3.652-2.159 6.849zM256.377 195.021h-2.424v-21.248h2.614v7.583c1.103-1.383 2.512-2.075 4.225-2.075a6.55 6.55 0 0 1 2.695.57c.845.383 1.542.916 2.089 1.612.546.687.975 1.521 1.284 2.502.311.974.465 2.018.465 3.128 0 2.635-.653 4.679-1.96 6.116-1.307 1.44-2.874 2.159-4.704 2.159-1.819 0-3.247-.757-4.283-2.274v1.927zm-.029-7.81c0 1.845.251 3.178.753 4 .824 1.342 1.938 2.013 3.341 2.013 1.142 0 2.129-.495 2.961-1.485.833-.988 1.25-2.467 1.25-4.428 0-2.013-.401-3.494-1.198-4.449-.799-.96-1.764-1.435-2.897-1.435-1.143 0-2.131.493-2.962 1.485-.832.99-1.248 2.423-1.248 4.299zM269.459 190.426l2.584-.406c.145 1.038.549 1.83 1.212 2.377.663.555 1.59.828 2.781.828 1.199 0 2.091-.242 2.671-.733.581-.487.871-1.058.871-1.715 0-.591-.256-1.055-.77-1.392-.357-.233-1.248-.528-2.671-.882-1.917-.485-3.245-.903-3.986-1.256-.74-.353-1.302-.842-1.685-1.464a3.882 3.882 0 0 1-.572-2.064c0-.69.157-1.323.472-1.905a4.171 4.171 0 0 1 1.285-1.458c.406-.301.96-.555 1.662-.761a7.9 7.9 0 0 1 2.258-.313c1.21 0 2.271.176 3.187.522.914.347 1.59.818 2.026 1.412.435.597.735 1.39.9 2.386l-2.555.349c-.117-.795-.453-1.414-1.009-1.858-.557-.443-1.343-.665-2.359-.665-1.2 0-2.057.198-2.571.592-.513.398-.769.863-.769 1.391 0 .342.107.647.318.914.213.281.548.512 1.003.697.261.097 1.031.318 2.309.665 1.849.495 3.139.898 3.87 1.212.731.315 1.304.77 1.72 1.371.417.597.625 1.342.625 2.23 0 .871-.253 1.69-.764 2.456-.507.77-1.241 1.362-2.198 1.783-.959.42-2.043.63-3.253.63-2.004 0-3.532-.414-4.58-1.244-1.053-.834-1.722-2.064-2.012-3.699zM291.077 192.687l.378 2.306c-.736.154-1.394.233-1.974.233-.949 0-1.684-.153-2.208-.451-.521-.298-.889-.691-1.103-1.181-.213-.487-.319-1.513-.319-3.08v-8.856h-1.917v-2.028h1.917v-3.815l2.598-1.564v5.38h2.628v2.028h-2.628v9c0 .746.045 1.223.138 1.435.092.213.243.382.452.508.207.126.505.188.893.188.289 0 .672-.034 1.145-.103zM304.188 190.064l2.701.335c-.427 1.574-1.218 2.797-2.367 3.668-1.152.868-2.622 1.302-4.414 1.302-2.255 0-4.043-.693-5.365-2.078-1.322-1.387-1.982-3.332-1.982-5.836 0-2.587.668-4.598 2.004-6.027 1.336-1.431 3.068-2.146 5.197-2.146 2.062 0 3.747.701 5.052 2.101 1.307 1.403 1.96 3.373 1.96 5.913 0 .153-.005.387-.014.693h-11.5c.097 1.695.577 2.989 1.438 3.887.861.9 1.936 1.348 3.222 1.348.959 0 1.778-.25 2.455-.754.68-.503 1.217-1.303 1.613-2.406zm-8.58-4.217h8.609c-.116-1.294-.446-2.265-.986-2.914-.833-1.005-1.912-1.506-3.239-1.506-1.2 0-2.21.402-3.027 1.204-.818.801-1.271 1.874-1.357 3.216zM315.877 192.687l.377 2.306c-.735.154-1.394.233-1.973.233-.949 0-1.685-.153-2.207-.451-.523-.298-.891-.691-1.103-1.181-.213-.487-.319-1.513-.319-3.08v-8.856h-1.917v-2.028h1.917v-3.815l2.598-1.564v5.38h2.628v2.028h-2.628v9c0 .746.045 1.223.137 1.435.092.213.243.382.452.508.208.126.506.188.893.188a8.34 8.34 0 0 0 1.145-.103zM318.403 195.021V179.63h2.352v2.331c.601-1.09 1.154-1.81 1.661-2.157a2.92 2.92 0 0 1 1.679-.522c.881 0 1.776.281 2.686.839l-.9 2.419c-.639-.373-1.278-.564-1.916-.564a2.49 2.49 0 0 0-1.539.514c-.455.345-.78.818-.974 1.429-.291.926-.436 1.943-.436 3.043v8.059h-2.613zM328.349 176.776v-3.003h2.613v3.003h-2.613zm0 18.245V179.63h2.613v15.391h-2.613zM345.002 189.384l2.569.331c-.28 1.77-.998 3.154-2.155 4.157-1.158.998-2.577 1.497-4.262 1.497-2.111 0-3.807-.688-5.089-2.064-1.283-1.377-1.923-3.349-1.923-5.919 0-1.664.276-3.118.827-4.366.553-1.243 1.391-2.181 2.518-2.802a7.498 7.498 0 0 1 3.681-.935c1.675 0 3.044.422 4.109 1.268 1.064.848 1.747 2.045 2.046 3.602l-2.541.393c-.242-1.033-.67-1.813-1.286-2.334-.614-.522-1.357-.782-2.229-.782-1.316 0-2.385.47-3.208 1.412-.823.944-1.234 2.431-1.234 4.472 0 2.069.397 3.571 1.191 4.508.792.937 1.829 1.405 3.106 1.405 1.026 0 1.883-.313 2.57-.943.692-.628 1.126-1.594 1.31-2.9zM357.445 188.197l2.657-.235c.125 1.065.417 1.935.878 2.615.46.683 1.174 1.234 2.141 1.652.968.422 2.057.631 3.268.631 1.074 0 2.022-.158 2.846-.478.822-.318 1.434-.753 1.837-1.312a3.04 3.04 0 0 0 .603-1.819 2.78 2.78 0 0 0-.581-1.748c-.386-.496-1.026-.913-1.917-1.25-.571-.222-1.836-.57-3.79-1.038-1.955-.468-3.325-.912-4.108-1.326-1.017-.531-1.775-1.19-2.273-1.979-.498-.786-.748-1.668-.748-2.643 0-1.074.306-2.076.914-3.008.611-.934 1.5-1.639 2.671-2.124 1.172-.481 2.473-.724 3.907-.724 1.578 0 2.969.254 4.173.761 1.206.508 2.133 1.254 2.78 2.24.649.985.998 2.101 1.046 3.346l-2.7.206c-.146-1.343-.637-2.36-1.473-3.045-.838-.684-2.075-1.029-3.71-1.029-1.703 0-2.946.311-3.724.937-.78.62-1.169 1.373-1.169 2.253 0 .761.276 1.39.827 1.884.543.493 1.958.996 4.248 1.513 2.287.517 3.859.969 4.711 1.356 1.238.57 2.153 1.293 2.744 2.167.592.875.886 1.88.886 3.021 0 1.129-.324 2.197-.973 3.196-.648.999-1.581 1.78-2.796 2.332-1.214.557-2.581.834-4.103.834-1.924 0-3.54-.281-4.841-.842-1.302-.557-2.324-1.402-3.062-2.529-.741-1.124-1.132-2.397-1.169-3.815zM388.007 195.021v-2.261c-1.2 1.74-2.83 2.608-4.892 2.608a6.25 6.25 0 0 1-2.548-.52c-.791-.349-1.375-.784-1.757-1.312-.383-.524-.651-1.173-.806-1.936-.107-.512-.16-1.323-.16-2.434v-9.536h2.614v8.537c0 1.363.053 2.28.16 2.754.164.687.512 1.223 1.045 1.616.533.388 1.19.587 1.975.587.782 0 1.52-.202 2.205-.603.687-.4 1.174-.948 1.462-1.637.283-.693.427-1.693.427-3.01v-8.244h2.614v15.391h-2.339zM394.409 195.021V179.63h2.354v2.331c.599-1.09 1.152-1.81 1.66-2.157a2.917 2.917 0 0 1 1.678-.522c.882 0 1.778.281 2.687.839l-.9 2.419c-.64-.373-1.279-.564-1.917-.564a2.5 2.5 0 0 0-1.541.514c-.454.345-.778.818-.973 1.429-.29.926-.435 1.943-.435 3.043v8.059h-2.613zM408.626 195.021l-5.866-15.391h2.758l3.311 9.216c.359.996.688 2.03.986 3.103.233-.813.557-1.789.974-2.928l3.424-9.391h2.688l-5.837 15.391h-2.438zM429.763 190.064l2.704.335c-.427 1.574-1.218 2.797-2.369 3.668-1.152.868-2.624 1.302-4.413 1.302-2.256 0-4.045-.693-5.364-2.078-1.324-1.387-1.984-3.332-1.984-5.836 0-2.587.668-4.598 2.004-6.027 1.335-1.431 3.068-2.146 5.197-2.146 2.064 0 3.746.701 5.052 2.101 1.305 1.403 1.961 3.373 1.961 5.913 0 .153-.004.387-.014.693h-11.501c.099 1.695.579 2.989 1.439 3.887.859.9 1.936 1.348 3.222 1.348.96 0 1.776-.25 2.454-.754.68-.503 1.217-1.303 1.612-2.406zm-8.579-4.217h8.609c-.117-1.294-.445-2.265-.987-2.914-.83-1.005-1.913-1.506-3.238-1.506-1.2 0-2.21.402-3.028 1.204-.817.801-1.269 1.874-1.356 3.216zM435.761 176.776v-3.003h2.614v3.003h-2.614zm0 18.245V179.63h2.614v15.391h-2.614zM442.294 195.021v-21.248h2.614v21.248h-2.614zM448.9 195.021v-21.248h2.615v21.248H448.9zM465.627 193.124c-.967.823-1.899 1.401-2.795 1.739a8.139 8.139 0 0 1-2.882.505c-1.695 0-2.995-.412-3.906-1.236-.909-.828-1.365-1.884-1.365-3.169 0-.754.172-1.44.516-2.066a4.252 4.252 0 0 1 1.351-1.499 6.465 6.465 0 0 1 1.88-.857c.512-.133 1.287-.262 2.323-.389 2.111-.25 3.663-.553 4.661-.901.01-.354.014-.582.014-.68 0-1.059-.247-1.81-.74-2.246-.667-.588-1.662-.885-2.978-.885-1.227 0-2.136.216-2.722.643-.585.432-1.019 1.191-1.298 2.284l-2.555-.345c.231-1.094.612-1.978 1.147-2.646.532-.674 1.301-1.191 2.308-1.555 1.008-.358 2.171-.541 3.5-.541 1.316 0 2.386.154 3.206.462.825.31 1.429.699 1.815 1.168.387.47.656 1.061.813 1.777.089.444.133 1.244.133 2.404v3.479c0 2.427.054 3.96.165 4.603.114.642.335 1.258.663 1.847h-2.729c-.271-.54-.449-1.174-.525-1.896zm-.218-5.828c-.948.387-2.372.717-4.268.986-1.075.156-1.836.33-2.281.52-.447.197-.79.478-1.031.85a2.224 2.224 0 0 0-.363 1.236c0 .697.263 1.278.791 1.742.53.464 1.3.695 2.317.695 1.008 0 1.902-.218 2.685-.659.786-.439 1.362-1.038 1.73-1.803.277-.589.42-1.458.42-2.608v-.959zM472.1 195.021V179.63h2.356v2.19c1.131-1.693 2.768-2.539 4.905-2.539.93 0 1.785.165 2.562.499.78.333 1.364.772 1.751 1.311.387.544.658 1.185.813 1.927.096.485.144 1.33.144 2.536v9.467h-2.614v-9.364c0-1.061-.102-1.855-.302-2.384a2.528 2.528 0 0 0-1.083-1.26c-.52-.313-1.125-.47-1.822-.47-1.115 0-2.074.352-2.881 1.056-.811.706-1.216 2.045-1.216 4.015v8.408H472.1zM498.699 189.384l2.571.331c-.279 1.77-.998 3.154-2.157 4.157-1.156.998-2.576 1.497-4.258 1.497-2.112 0-3.81-.688-5.091-2.064-1.279-1.377-1.924-3.349-1.924-5.919 0-1.664.277-3.118.828-4.366.551-1.243 1.39-2.181 2.519-2.802a7.5 7.5 0 0 1 3.681-.935c1.676 0 3.045.422 4.109 1.268 1.065.848 1.749 2.045 2.048 3.602l-2.54.393c-.243-1.033-.67-1.813-1.285-2.334-.617-.522-1.358-.782-2.228-.782-1.317 0-2.387.47-3.209 1.412-.825.944-1.235 2.431-1.235 4.472 0 2.069.397 3.571 1.191 4.508.795.937 1.83 1.405 3.108 1.405 1.025 0 1.88-.313 2.572-.943.682-.628 1.119-1.594 1.3-2.9zM514.064 190.064l2.698.335c-.425 1.574-1.213 2.797-2.365 3.668-1.152.868-2.623 1.302-4.414 1.302-2.255 0-4.045-.693-5.362-2.078-1.323-1.387-1.984-3.332-1.984-5.836 0-2.587.668-4.598 2.005-6.027 1.335-1.431 3.067-2.146 5.197-2.146 2.063 0 3.744.701 5.052 2.101 1.306 1.403 1.963 3.373 1.963 5.913 0 .153-.006.387-.015.693h-11.501c.096 1.695.576 2.989 1.435 3.887.865.9 1.938 1.348 3.227 1.348.957 0 1.776-.25 2.454-.754.673-.503 1.21-1.303 1.61-2.406zm-8.583-4.217h8.612c-.117-1.294-.447-2.265-.99-2.914-.83-1.005-1.911-1.506-3.236-1.506-1.2 0-2.211.402-3.028 1.204-.817.801-1.27 1.874-1.358 3.216zM527.681 188.197l2.658-.235c.125 1.065.416 1.935.878 2.615.459.683 1.173 1.234 2.142 1.652.966.422 2.057.631 3.265.631 1.076 0 2.027-.158 2.847-.478.825-.318 1.437-.753 1.838-1.312.4-.555.601-1.161.601-1.819 0-.666-.193-1.248-.581-1.748-.386-.496-1.026-.913-1.916-1.25-.57-.222-1.834-.57-3.789-1.038-1.955-.468-3.325-.912-4.11-1.326-1.015-.531-1.774-1.19-2.271-1.979a4.831 4.831 0 0 1-.75-2.643c0-1.074.306-2.076.915-3.008.61-.934 1.502-1.639 2.671-2.124 1.173-.481 2.473-.724 3.906-.724 1.58 0 2.971.254 4.174.761 1.206.508 2.132 1.254 2.781 2.24.649.985.998 2.101 1.046 3.346l-2.7.206c-.147-1.343-.638-2.36-1.474-3.045-.838-.684-2.075-1.029-3.712-1.029-1.702 0-2.943.311-3.723.937-.78.62-1.169 1.373-1.169 2.253 0 .761.277 1.39.826 1.884.542.493 1.961.996 4.249 1.513 2.288.517 3.858.969 4.711 1.356 1.239.57 2.153 1.293 2.745 2.167.589.875.884 1.88.884 3.021 0 1.129-.324 2.197-.973 3.196-.645.999-1.579 1.78-2.793 2.332-1.218.557-2.583.834-4.102.834-1.929 0-3.541-.281-4.843-.842-1.304-.557-2.322-1.402-3.064-2.529-.737-1.124-1.128-2.397-1.167-3.815zM548.024 200.95l-.29-2.448c.57.153 1.067.229 1.492.229.581 0 1.048-.094 1.395-.288a2.38 2.38 0 0 0 .859-.814c.164-.26.429-.907.797-1.938.046-.148.124-.362.235-.642l-5.853-15.42h2.816l3.211 8.916a39.348 39.348 0 0 1 1.115 3.561 34.64 34.64 0 0 1 1.077-3.506l3.293-8.971h2.614l-5.864 15.653c-.629 1.69-1.12 2.855-1.466 3.49-.464.862-.996 1.495-1.599 1.895-.599.399-1.316.599-2.149.599-.504.001-1.064-.104-1.683-.316zM561.961 190.426l2.585-.406c.146 1.038.549 1.83 1.211 2.377.665.555 1.591.828 2.782.828 1.202 0 2.091-.242 2.671-.733.582-.487.873-1.058.873-1.715 0-.591-.258-1.055-.772-1.392-.357-.233-1.246-.528-2.672-.882-1.917-.485-3.243-.903-3.983-1.256-.743-.353-1.304-.842-1.685-1.464a3.856 3.856 0 0 1-.572-2.064c0-.69.156-1.323.472-1.905a4.167 4.167 0 0 1 1.28-1.458c.409-.301.963-.555 1.664-.761a7.918 7.918 0 0 1 2.26-.313c1.209 0 2.271.176 3.186.522.914.347 1.59.818 2.026 1.412.435.597.736 1.39.901 2.386l-2.557.349c-.116-.795-.453-1.414-1.008-1.858-.556-.443-1.342-.665-2.359-.665-1.2 0-2.059.198-2.569.592-.514.398-.771.863-.771 1.391 0 .342.106.647.32.914.212.281.547.512 1 .697.263.097 1.032.318 2.308.665 1.849.495 3.14.898 3.872 1.212.728.315 1.304.77 1.72 1.371.418.597.624 1.342.624 2.23 0 .871-.254 1.69-.765 2.456-.507.77-1.238 1.362-2.198 1.783-.959.42-2.041.63-3.253.63-2.002 0-3.53-.414-4.58-1.244-1.049-.834-1.72-2.064-2.011-3.699zM583.582 192.687l.375 2.306c-.736.154-1.394.233-1.974.233-.95 0-1.685-.153-2.208-.451-.522-.298-.889-.691-1.104-1.181-.214-.487-.317-1.513-.317-3.08v-8.856h-1.917v-2.028h1.917v-3.815l2.598-1.564v5.38h2.629v2.028h-2.629v9c0 .746.046 1.223.137 1.435.091.213.244.382.452.508.206.126.505.188.892.188a8.39 8.39 0 0 0 1.149-.103zM596.692 190.064l2.701.335c-.426 1.574-1.214 2.797-2.37 3.668-1.147.868-2.619 1.302-4.413 1.302-2.253 0-4.04-.693-5.364-2.078-1.321-1.387-1.981-3.332-1.981-5.836 0-2.587.666-4.598 2.003-6.027 1.337-1.431 3.068-2.146 5.199-2.146 2.061 0 3.746.701 5.052 2.101 1.305 1.403 1.961 3.373 1.961 5.913 0 .153-.005.387-.016.693h-11.501c.097 1.695.578 2.989 1.439 3.887.861.9 1.937 1.348 3.224 1.348.962 0 1.778-.25 2.452-.754.68-.503 1.218-1.303 1.614-2.406zm-8.58-4.217h8.609c-.117-1.294-.445-2.265-.987-2.914-.832-1.005-1.911-1.506-3.24-1.506-1.197 0-2.209.402-3.024 1.204-.819.801-1.274 1.874-1.358 3.216zM602.673 195.021V179.63h2.338v2.162a5.505 5.505 0 0 1 1.93-1.822c.805-.457 1.719-.688 2.743-.688 1.145 0 2.08.239 2.814.709a3.82 3.82 0 0 1 1.543 1.986c1.22-1.797 2.806-2.695 4.763-2.695 1.529 0 2.706.422 3.528 1.268.823.848 1.233 2.149 1.233 3.906v10.566h-2.599v-9.698c0-1.044-.084-1.791-.252-2.253a2.209 2.209 0 0 0-.922-1.109c-.447-.277-.969-.418-1.57-.418-1.084 0-1.982.358-2.699 1.081-.718.716-1.077 1.872-1.077 3.455v8.943h-2.614v-10.001c0-1.159-.212-2.031-.637-2.61-.426-.577-1.125-.868-2.092-.868-.736 0-1.414.194-2.038.578-.626.387-1.079.953-1.356 1.697-.283.746-.422 1.817-.422 3.219v7.985h-2.614zM.001 185.936h128.692v2.791H.001zM637.248 185.936h128.689v2.791H637.248z"/></g><g fill="#C80850"><path stroke="#C80850" stroke-width=".75" stroke-miterlimit="10" d="M246.953 263.366h-27.509c-2.713 4.826-4.602 8.612-5.67 11.358-1.068 2.746-1.602 5.103-1.602 7.073l-.051.666c-.78.083-1.347.131-1.703.146-.356.013-.686.02-.992.02-2.204 0-3.882-.367-5.034-1.102-1.153-.735-1.729-1.81-1.729-3.225s3.288-7.53 9.865-18.347c6.576-10.817 12.322-20.871 17.238-30.162a24.136 24.136 0 0 0-1.754-1.851 53.177 53.177 0 0 0-2.009-1.81c1.254-1.276 2.398-2.205 3.432-2.787 1.034-.582 2.076-.874 3.127-.874 1.457 0 2.873.769 4.246 2.309 1.373 1.538 2.975 4.153 4.805 7.842 1.593 3.19 3.779 7.641 6.559 13.355 9.424 19.387 15.983 30.523 19.678 33.407-1.289 1.165-2.475 1.997-3.559 2.496a8.064 8.064 0 0 1-3.407.749c-3.424 0-7.305-4.771-11.644-14.311a631.527 631.527 0 0 1-2.287-4.952zm-13.119-26.834l-2.441 4.66a8850.22 8850.22 0 0 1-8.593 16.475h21.407a395.24 395.24 0 0 0-5.187-10.963 403.688 403.688 0 0 0-5.186-10.172z"/><path d="M321.916 261.67c1.041.948 1.562 2.225 1.562 3.834 0 3.504-1.516 6.344-4.544 8.52-4.544 3.124-10.792 5.634-18.745 7.526-6.439 1.513-11.409 2.13-14.911 1.846-2.083-.191-4.615-1.469-7.597-3.835-2.982-2.365-4.473-4.26-4.473-5.68 0-.472.235-.802.71-.994 2.649-.756 6.106-1.136 10.367-1.136 1.988 0 4.686.096 8.094.285 3.408.19 5.727.284 6.958.284 1.229 0 2.223-.047 2.982-.142 3.029-.472 6.057-.945 9.088-1.42 3.976-.756 5.915-1.704 5.822-2.84-.095-1.609-2.747-2.698-7.952-3.266-1.231-.092-5.445-.284-12.639-.568a462.856 462.856 0 0 0-11.36-.142c-4.072-.377-7.291-1.75-9.657-4.118a2.315 2.315 0 0 1-.71-1.704c0-1.513 1.087-3.409 3.266-5.68a33.775 33.775 0 0 1 6.532-5.113c9.466-3.408 16.992-5.112 22.579-5.112 1.136 0 2.272.048 3.408.141 7.005.759 10.743 2.225 11.219 4.403.377 1.42-.096 2.911-1.42 4.473-1.327 1.562-2.51 2.439-3.55 2.627-3.788-2.081-8.663-3.124-14.627-3.124-7.859 0-14.864 1.562-21.017 4.685-.19.285-.284.569-.284.852 0 1.136.615 1.729 1.846 1.775 1.229.049 2.461.071 3.692.071 2.461 0 5.94-.284 10.437-.852 4.495-.568 7.786-.852 9.869-.852 5.871.002 10.888 1.755 15.055 5.256zM379.285 261.67c1.041.948 1.562 2.225 1.562 3.834 0 3.504-1.516 6.344-4.544 8.52-4.544 3.124-10.792 5.634-18.745 7.526-6.439 1.513-11.409 2.13-14.911 1.846-2.083-.191-4.615-1.469-7.597-3.835-2.982-2.365-4.473-4.26-4.473-5.68 0-.472.235-.802.71-.994 2.649-.756 6.106-1.136 10.367-1.136 1.988 0 4.686.096 8.094.285 3.408.19 5.727.284 6.958.284 1.229 0 2.223-.047 2.982-.142 3.029-.472 6.057-.945 9.088-1.42 3.976-.756 5.915-1.704 5.822-2.84-.095-1.609-2.747-2.698-7.952-3.266-1.231-.092-5.445-.284-12.639-.568a462.856 462.856 0 0 0-11.36-.142c-4.072-.377-7.291-1.75-9.657-4.118a2.315 2.315 0 0 1-.71-1.704c0-1.513 1.087-3.409 3.266-5.68a33.775 33.775 0 0 1 6.532-5.113c9.466-3.408 16.992-5.112 22.579-5.112 1.136 0 2.272.048 3.408.141 7.005.759 10.743 2.225 11.219 4.403.377 1.42-.096 2.911-1.42 4.473-1.327 1.562-2.51 2.439-3.55 2.627-3.788-2.081-8.663-3.124-14.627-3.124-7.859 0-14.864 1.562-21.017 4.685-.19.285-.284.569-.284.852 0 1.136.615 1.729 1.846 1.775 1.229.049 2.461.071 3.692.071 2.461 0 5.94-.284 10.437-.852 4.495-.568 7.786-.852 9.869-.852 5.871.002 10.888 1.755 15.055 5.256zM437.221 254.002c-1.231 4.26-1.468 11.268-.71 21.017-.758 1.42-2.037 2.414-3.834 2.982a59.835 59.835 0 0 1-4.402 1.561c-1.136-.377-1.705-1.324-1.705-2.84v-1.135c.093-.473.142-.803.142-.995 0-1.704-.617-2.84-1.846-3.408-9.372 6.155-17.467 9.23-24.282 9.23-3.883 0-7.171-1.092-9.87-3.279-2.698-2.186-4.047-5.561-4.047-10.124 0-1.902.284-3.613.851-5.135 5.774-10.93 17.751-16.063 35.928-15.401 2.84.095 5.94 1.018 9.302 2.769 3.36 1.754 4.85 3.338 4.473 4.758zm-10.65 2.982c-.474-.945-1.894-1.42-4.26-1.42-4.451 0-8.804.948-13.064 2.84-2.84.948-5.658 2.58-8.449 4.899-2.794 2.321-4 3.812-3.621 4.474.189.474 1.989.568 5.396.284 3.313-.189 6.011-.569 8.094-1.136a417.228 417.228 0 0 0 10.509-2.414c3.691-1.421 5.488-3.928 5.395-7.527zM557.071 265.221c2.272.284 3.409 1.184 3.409 2.698 0 1.895-1.515 4.214-4.544 6.959-3.031 2.747-5.396 4.238-7.1 4.473-1.705.238-3.266.355-4.686.355-3.504 0-8.143-1.371-13.917-4.118-1.327-.662-4.355-3.927-9.088-9.799-4.735-5.869-7.433-8.804-8.095-8.804-.852.19-2.296 1.799-4.33 4.828-2.038 3.031-2.96 5.255-2.77 6.675.093.284.71 1.562 1.846 3.834.852 1.515 1.279 2.698 1.279 3.55 0 .568-.142 1.089-.426 1.562-1.136 1.231-2.747 1.846-4.829 1.846-2.083 0-4.213-.519-6.389-1.561-2.84-1.797-6.439-5.916-10.793-12.355-4.072-5.869-6.344-8.804-6.816-8.804-.759 0-2.13 1.989-4.118 5.964-2.652 5.113-4.782 8.712-6.39 10.793-3.031 3.976-6.249 5.964-9.657 5.964-1.42 0-2.84-.33-4.26-.994-.948-.377-2.154-4.26-3.621-11.644-1.469-7.384-3.528-11.549-6.177-12.497-2.272-.756-3.409-1.94-3.409-3.55 0-.661.189-1.182.569-1.562 1.324-1.42 3.454-2.13 6.39-2.13 1.04 0 2.982.191 5.822.569 2.461.284 4.403 1.799 5.823 4.544.851 1.611 1.609 4.072 2.272 7.384.662 2.652 1.183 4.072 1.562 4.26.284.095 1.704-1.371 4.26-4.402 3.313-3.881 6.057-6.816 8.236-8.805 3.692-3.124 6.863-4.685 9.514-4.685 2.933 0 6.2 2.367 9.798 7.1 3.596 4.734 5.539 7.1 5.823 7.1.284 0 2.531-2.366 6.745-7.1 4.211-4.734 6.98-7.1 8.307-7.1 4.545.479 9.23 3.359 14.059 8.638 5.964 6.623 9.798 10.415 11.502 11.373.946.577 2.272.863 3.976.863 1.513 0 3.501-.26 5.964-.781 2.46-.522 3.88-.735 4.259-.641z"/></g><path fill="#C80850" d="M403.425 94.484v-5.963h-6.257v-5.276h6.257v-1.344a10.72 10.72 0 0 1-1.885-.799c-1.477-.786-2.665-1.947-3.536-3.446-.851-1.477-1.285-3.068-1.285-4.727 0-1.614.412-3.173 1.227-4.633a8.934 8.934 0 0 1 3.504-3.505 9.47 9.47 0 0 1 4.642-1.218c1.612 0 3.17.413 4.636 1.228a8.906 8.906 0 0 1 3.502 3.506 9.388 9.388 0 0 1 1.219 4.622c0 2.477-.863 4.644-2.567 6.435-1.187 1.256-2.589 2.111-4.169 2.552v1.329h6.247v5.276h-6.247v5.963h-5.288zm2.653-25.676c-.699 0-1.377.183-2.077.556a3.59 3.59 0 0 0-1.492 1.476c-.387.693-.574 1.38-.574 2.103 0 1.176.385 2.108 1.213 2.935.832.826 1.761 1.213 2.93 1.213 1.179 0 2.113-.385 2.937-1.211.83-.826 1.216-1.759 1.216-2.937 0-.725-.187-1.412-.572-2.101-.37-.658-.843-1.13-1.497-1.477-.694-.377-1.375-.557-2.084-.557z"/></svg>