<svg xmlns="http://www.w3.org/2000/svg" width="768.586" height="212.598" viewBox="0 0 768.586 212.598"><path fill="#FFF" d="M613.764 2.492c22.178 0 40.15 17.977 40.15 40.152v127.441c0 22.175-17.973 40.149-40.15 40.149H42.513c-22.175 0-40.15-17.976-40.15-40.149V42.645c0-22.176 17.975-40.152 40.15-40.152h571.251v-.001z"/><g fill="#354080"><path d="M44.865 35.804v57.207h-5.449V35.804h5.449zM60.811 51.665v7.132h.159c.961-2.509 2.67-4.524 5.128-6.051 2.459-1.523 5.156-2.283 8.092-2.283 2.884 0 5.301.372 7.252 1.12 1.949.748 3.512 1.803 4.687 3.164 1.174 1.364 2.002 3.032 2.483 5.007.48 1.977.719 4.192.719 6.649v26.6h-5.047V67.21c0-1.764-.161-3.407-.483-4.928-.318-1.521-.88-2.841-1.682-3.964-.8-1.122-1.884-2.002-3.247-2.643-1.363-.644-3.057-.963-5.087-.963-2.029 0-3.833.359-5.406 1.081-1.578.723-2.91 1.711-4.006 2.966-1.098 1.254-1.95 2.751-2.564 4.489-.616 1.736-.951 3.617-1 5.649V93.01h-5.05V51.666l5.052-.001zM102.588 79.35c.509 1.951 1.322 3.696 2.446 5.247 1.12 1.548 2.534 2.83 4.245 3.846 1.712 1.015 3.766 1.522 6.171 1.522 3.683 0 6.569-.962 8.651-2.886 2.083-1.921 3.527-4.484 4.326-7.69h5.05c-1.069 4.702-3.032 8.332-5.892 10.895-2.857 2.563-6.905 3.847-12.134 3.847-3.261 0-6.079-.574-8.453-1.723-2.38-1.149-4.316-2.726-5.81-4.728-1.495-2.005-2.604-4.328-3.325-6.968-.72-2.646-1.081-5.438-1.081-8.374 0-2.724.361-5.396 1.081-8.013.723-2.615 1.83-4.955 3.325-7.012 1.494-2.056 3.43-3.712 5.81-4.967 2.375-1.254 5.192-1.884 8.453-1.884 3.308 0 6.139.669 8.493 2.004 2.348 1.334 4.258 3.085 5.728 5.249 1.466 2.164 2.523 4.648 3.166 7.45.64 2.807.905 5.646.799 8.532h-31.811c0 1.819.253 3.703.762 5.653zm24.996-15.426c-.615-1.761-1.48-3.321-2.604-4.687a12.969 12.969 0 0 0-4.086-3.285c-1.604-.829-3.417-1.24-5.446-1.24-2.084 0-3.928.411-5.533 1.24-1.601.832-2.966 1.923-4.084 3.285-1.123 1.365-2.015 2.936-2.685 4.729a23.28 23.28 0 0 0-1.323 5.489h26.76a18.145 18.145 0 0 0-.999-5.531zM171.771 108.231V85.156h-.162c-.532 1.498-1.293 2.805-2.281 3.93a13.793 13.793 0 0 1-3.406 2.804 16.034 16.034 0 0 1-4.126 1.684 18.374 18.374 0 0 1-4.525.563c-3.153 0-5.889-.575-8.213-1.724-2.324-1.149-4.258-2.726-5.806-4.728-1.55-2.005-2.7-4.328-3.447-6.968-.749-2.646-1.123-5.438-1.123-8.374 0-2.936.375-5.729 1.123-8.372.749-2.646 1.897-4.968 3.447-6.97 1.55-2.004 3.484-3.59 5.806-4.766 2.324-1.174 5.061-1.762 8.213-1.762 1.496 0 3.004.216 4.525.64a17.658 17.658 0 0 1 4.287 1.845 16.924 16.924 0 0 1 3.567 2.844 11.305 11.305 0 0 1 2.363 3.725h.16v-7.85h4.647v56.564h-5.047l-.002-.01zM144.49 78.705c.509 2.111 1.31 3.994 2.402 5.649a13.286 13.286 0 0 0 4.208 4.048c1.709 1.042 3.766 1.563 6.169 1.563 2.667 0 4.928-.522 6.77-1.563 1.841-1.044 3.335-2.395 4.487-4.048 1.148-1.655 1.975-3.538 2.483-5.649.508-2.107.762-4.229.762-6.37 0-2.134-.254-4.26-.762-6.371-.509-2.111-1.335-3.994-2.483-5.648-1.15-1.656-2.644-3.004-4.487-4.044-1.842-1.046-4.1-1.562-6.77-1.562-2.403 0-4.464.519-6.169 1.562a13.272 13.272 0 0 0-4.208 4.044c-1.095 1.654-1.897 3.538-2.402 5.648a27.051 27.051 0 0 0 0 12.741zM215.278 93.011v-7.452h-.161c-1.334 2.778-3.271 4.902-5.809 6.373-2.536 1.468-5.353 2.202-8.45 2.202-2.618 0-4.847-.359-6.691-1.083-1.843-.72-3.337-1.749-4.485-3.083-1.15-1.335-1.992-2.965-2.527-4.887-.536-1.923-.802-4.113-.802-6.572V51.666h5.05v26.923c.104 3.738.973 6.568 2.604 8.492 1.628 1.925 4.446 2.886 8.454 2.886 2.187 0 4.058-.468 5.606-1.406a11.936 11.936 0 0 0 3.848-3.724c1.015-1.549 1.763-3.323 2.243-5.329.479-2.005.72-4.048.72-6.13V51.665h5.047v41.344h-4.646l-.001.002zM230.5 58.077c.851-1.762 2.014-3.203 3.485-4.329 1.471-1.121 3.192-1.95 5.169-2.484 1.975-.531 4.165-.799 6.569-.799 1.815 0 3.63.176 5.449.521 1.813.346 3.443 1 4.885 1.963 1.444.962 2.615 2.309 3.525 4.045.908 1.737 1.363 3.994 1.363 6.772v21.952c0 2.03.989 3.044 2.966 3.044.587 0 1.122-.104 1.603-.319v4.245a23.39 23.39 0 0 1-1.563.243 14.82 14.82 0 0 1-1.722.082c-1.284 0-2.313-.175-3.084-.522-.776-.348-1.375-.841-1.803-1.479-.43-.641-.708-1.405-.841-2.286a19.373 19.373 0 0 1-.202-2.926h-.16c-.913 1.336-1.829 2.523-2.764 3.566a13.83 13.83 0 0 1-3.127 2.606c-1.15.693-2.456 1.226-3.928 1.599-1.466.372-3.218.563-5.249.563-1.919 0-3.725-.229-5.406-.683-1.684-.451-3.153-1.173-4.406-2.165-1.258-.986-2.246-2.241-2.967-3.765-.721-1.523-1.082-3.324-1.082-5.407 0-2.885.643-5.139 1.923-6.772 1.282-1.629 2.975-2.869 5.09-3.726 2.107-.852 4.483-1.454 7.131-1.803a606.95 606.95 0 0 1 8.052-1c1.065-.104 2-.241 2.802-.4.802-.16 1.467-.44 2.003-.839.531-.401.945-.948 1.239-1.641.296-.693.44-1.598.44-2.723 0-1.711-.279-3.111-.842-4.209-.562-1.094-1.333-1.962-2.323-2.605-.986-.64-2.134-1.08-3.443-1.318a23.12 23.12 0 0 0-4.206-.36c-3.207 0-5.825.761-7.854 2.282-2.029 1.523-3.097 3.966-3.203 7.333h-5.05c.169-2.412.674-4.493 1.531-6.256zm25.238 12.338c-.321.588-.936 1.017-1.843 1.283-.911.268-1.71.455-2.404.563-2.137.372-4.34.708-6.608 1-2.273.294-4.341.731-6.21 1.32-1.871.587-3.406 1.427-4.606 2.521-1.201 1.098-1.803 2.662-1.803 4.688 0 1.285.25 2.417.759 3.406a8.243 8.243 0 0 0 2.042 2.564 8.769 8.769 0 0 0 2.966 1.641 10.85 10.85 0 0 0 3.443.563c1.924 0 3.765-.293 5.53-.884 1.762-.587 3.297-1.44 4.609-2.563 1.308-1.123 2.347-2.486 3.125-4.087.772-1.6 1.158-3.416 1.158-5.446v-6.573h-.16.002v.004zM276.167 35.804v57.207h-5.045V35.804h5.045zM290.989 35.804v8.093h-5.045v-8.093h5.045zm0 15.861v41.344h-5.045V51.665h5.045zM317.11 51.665v4.248h-8.414v27.882c0 1.656.225 2.952.681 3.887.453.937 1.589 1.455 3.407 1.561 1.442 0 2.88-.082 4.327-.239v4.245c-.752 0-1.499.027-2.248.081-.748.051-1.494.082-2.242.082-3.365 0-5.714-.654-7.05-1.963-1.335-1.312-1.978-3.728-1.924-7.251V55.914h-7.21v-4.248h7.21V39.25h5.05v12.416l8.413-.001zM329.527 35.804v8.093h-5.047v-8.093h5.047zm0 15.861v41.344h-5.047V51.665h5.047zM342.947 79.35c.508 1.951 1.322 3.696 2.445 5.247 1.118 1.548 2.535 2.83 4.244 3.846 1.712 1.015 3.766 1.522 6.172 1.522 3.683 0 6.569-.962 8.65-2.886 2.082-1.921 3.525-4.484 4.327-7.69h5.047c-1.071 4.702-3.032 8.332-5.889 10.895-2.859 2.563-6.905 3.847-12.137 3.847-3.262 0-6.079-.574-8.456-1.723-2.376-1.149-4.313-2.726-5.809-4.728-1.494-2.005-2.604-4.328-3.324-6.968-.719-2.646-1.08-5.438-1.08-8.374 0-2.724.361-5.396 1.08-8.013.723-2.615 1.831-4.955 3.324-7.012 1.496-2.056 3.432-3.712 5.809-4.967 2.375-1.254 5.192-1.884 8.456-1.884 3.31 0 6.14.669 8.49 2.004 2.349 1.334 4.261 3.085 5.728 5.249 1.467 2.164 2.524 4.648 3.166 7.45.641 2.807.907 5.646.802 8.532H342.18c.003 1.819.257 3.703.767 5.653zm24.998-15.426c-.615-1.761-1.482-3.321-2.604-4.687a12.98 12.98 0 0 0-4.089-3.285c-1.601-.829-3.417-1.24-5.446-1.24-2.084 0-3.928.411-5.533 1.24a12.894 12.894 0 0 0-4.084 3.285c-1.124 1.365-2.018 2.936-2.688 4.729a23.277 23.277 0 0 0-1.322 5.489h26.761a18.081 18.081 0 0 0-.995-5.531zM404.6 59.719a8.177 8.177 0 0 0-2.36-2.842 9.924 9.924 0 0 0-3.407-1.644c-1.282-.35-2.646-.519-4.088-.519a16.61 16.61 0 0 0-3.407.359c-1.148.242-2.2.642-3.163 1.203a6.842 6.842 0 0 0-2.323 2.203c-.59.908-.88 2.029-.88 3.363 0 1.122.279 2.07.84 2.842a7.452 7.452 0 0 0 2.125 1.963c.85.537 1.787.976 2.802 1.322 1.014.35 1.949.629 2.804.842l6.729 1.521c1.441.215 2.874.604 4.286 1.162 1.415.563 2.674 1.293 3.766 2.201a10.767 10.767 0 0 1 2.686 3.365c.69 1.338 1.039 2.917 1.039 4.729 0 2.242-.505 4.154-1.521 5.729a12.407 12.407 0 0 1-3.887 3.846c-1.576.987-3.354 1.695-5.328 2.122a27.258 27.258 0 0 1-5.849.644c-4.861 0-8.804-1.148-11.819-3.447-3.019-2.294-4.741-5.98-5.168-11.056h5.047c.214 3.416 1.457 5.996 3.723 7.73 2.272 1.738 5.089 2.607 8.456 2.607 1.227 0 2.499-.135 3.803-.4a12.22 12.22 0 0 0 3.648-1.362c1.117-.643 2.043-1.458 2.765-2.446.725-.989 1.081-2.203 1.081-3.644 0-1.231-.252-2.258-.762-3.09a6.562 6.562 0 0 0-2.042-2.079c-.853-.563-1.828-1.03-2.926-1.407a37.714 37.714 0 0 0-3.323-.958l-6.491-1.441a36.64 36.64 0 0 1-4.562-1.482c-1.388-.563-2.607-1.254-3.646-2.083a8.768 8.768 0 0 1-2.445-3.044c-.585-1.202-.881-2.686-.881-4.448 0-2.077.467-3.869 1.401-5.364a10.93 10.93 0 0 1 3.648-3.604c1.492-.908 3.165-1.579 5.006-2.005a24.379 24.379 0 0 1 5.489-.641c2.08 0 4.018.269 5.806.8 1.79.535 3.363 1.363 4.728 2.485 1.362 1.123 2.444 2.511 3.246 4.168.802 1.651 1.253 3.604 1.364 5.847h-5.049c-.053-1.549-.374-2.897-.961-4.047zM446.74 35.804v8.093h-5.044v-8.093h5.044zm0 15.861v41.344h-5.044V51.665h5.044zM461.405 51.665v7.132h.156c.963-2.509 2.671-4.524 5.129-6.051 2.458-1.524 5.154-2.283 8.094-2.283 2.885 0 5.303.372 7.254 1.12 1.945.748 3.514 1.803 4.684 3.164 1.176 1.364 2.006 3.032 2.488 5.007.475 1.977.721 4.192.721 6.649v26.6h-5.051V67.21c0-1.764-.154-3.407-.479-4.928-.322-1.52-.881-2.841-1.682-3.964-.803-1.122-1.885-2.002-3.246-2.643-1.367-.644-3.057-.963-5.088-.963-2.033 0-3.834.359-5.41 1.081-1.574.723-2.91 1.711-4.005 2.966-1.098 1.254-1.952 2.751-2.564 4.489-.613 1.736-.945 3.617-.999 5.649V93.01h-5.048V51.666l5.046-.001zM44.865 121.646v57.206h-5.449v-57.206h5.449zM60.811 137.51v7.13h.159c.961-2.507 2.67-4.524 5.128-6.052 2.459-1.521 5.156-2.283 8.092-2.283 2.884 0 5.301.373 7.252 1.122 1.949.749 3.512 1.804 4.687 3.165 1.174 1.363 2.002 3.032 2.483 5.008.481 1.975.719 4.194.719 6.646v26.604h-5.047v-25.799c0-1.764-.161-3.408-.483-4.928-.318-1.523-.88-2.842-1.682-3.964-.8-1.122-1.884-2.002-3.247-2.643-1.363-.645-3.057-.964-5.087-.964-2.029 0-3.833.36-5.406 1.079-1.578.725-2.91 1.713-4.006 2.966-1.098 1.256-1.95 2.754-2.564 4.491-.616 1.734-.951 3.615-1 5.646v24.115h-5.05v-41.342h5.052v.003zM106.635 141.757v37.098h-5.049v-37.098h-7.053v-4.247h7.053v-3.766c0-1.763.131-3.392.399-4.887.269-1.493.774-2.776 1.522-3.846.749-1.07 1.775-1.896 3.087-2.484 1.305-.587 2.976-.88 5.006-.88.749 0 1.442.025 2.083.081.641.053 1.361.133 2.164.242v4.324c-.696-.104-1.335-.198-1.923-.28a13.052 13.052 0 0 0-1.764-.123c-1.391 0-2.457.214-3.204.643-.75.428-1.297 1.002-1.642 1.724-.348.722-.547 1.562-.602 2.521a57.175 57.175 0 0 0-.079 3.127v3.604h8.171v4.247h-8.169zM120.656 143.921c.853-1.764 2.014-3.203 3.482-4.328 1.47-1.122 3.193-1.949 5.17-2.486 1.976-.529 4.167-.799 6.569-.799 1.814 0 3.632.176 5.449.521 1.814.35 3.444 1 4.886 1.962 1.443.965 2.617 2.313 3.525 4.046.907 1.739 1.363 3.994 1.363 6.772v21.952c0 2.03.987 3.044 2.963 3.044a3.9 3.9 0 0 0 1.604-.318v4.244c-.587.111-1.108.188-1.563.242-.454.056-1.029.081-1.721.081-1.285 0-2.314-.172-3.085-.521-.775-.35-1.375-.839-1.802-1.479-.43-.638-.708-1.402-.842-2.286-.134-.881-.2-1.854-.2-2.927h-.16a34.573 34.573 0 0 1-2.765 3.57 13.706 13.706 0 0 1-3.125 2.604c-1.153.696-2.457 1.225-3.927 1.604-1.47.37-3.219.563-5.249.563-1.921 0-3.725-.229-5.406-.684-1.684-.451-3.153-1.174-4.405-2.164-1.256-.985-2.246-2.244-2.969-3.766-.719-1.522-1.079-3.325-1.079-5.407 0-2.885.64-5.142 1.924-6.771 1.282-1.631 2.977-2.871 5.09-3.729 2.106-.852 4.484-1.453 7.129-1.803 2.643-.349 5.327-.68 8.053-1a28.445 28.445 0 0 0 2.804-.401c.799-.161 1.466-.438 2.002-.842.532-.399.947-.943 1.239-1.641.293-.693.44-1.602.44-2.724 0-1.708-.279-3.11-.839-4.209-.561-1.093-1.335-1.962-2.324-2.604-.986-.639-2.134-1.079-3.443-1.318-1.309-.243-2.711-.359-4.205-.359-3.206 0-5.826.762-7.851 2.286-2.033 1.521-3.1 3.961-3.204 7.331h-5.05c.16-2.41.665-4.496 1.522-6.256zm25.238 12.339c-.321.587-.936 1.016-1.845 1.282a19.15 19.15 0 0 1-2.403.561c-2.137.373-4.34.709-6.608 1.001-2.272.296-4.341.733-6.21 1.32-1.868.588-3.406 1.427-4.607 2.523-1.202 1.102-1.802 2.659-1.802 4.688 0 1.283.25 2.418.759 3.407a8.224 8.224 0 0 0 2.045 2.562 8.81 8.81 0 0 0 2.963 1.643c1.123.373 2.271.563 3.444.563a17.34 17.34 0 0 0 5.527-.884c1.765-.587 3.298-1.441 4.609-2.563 1.309-1.122 2.349-2.486 3.125-4.085.773-1.6 1.159-3.416 1.159-5.447v-6.577h-.156v.006zM166.164 137.51v7.13h.16c.961-2.507 2.67-4.524 5.128-6.052 2.456-1.521 5.156-2.283 8.092-2.283 2.885 0 5.303.373 7.252 1.122 1.95.749 3.512 1.804 4.688 3.165 1.173 1.363 2.002 3.032 2.485 5.008.48 1.975.719 4.194.719 6.646v26.604h-5.047v-25.799c0-1.764-.161-3.408-.483-4.928-.319-1.523-.88-2.842-1.682-3.964-.802-1.122-1.884-2.002-3.246-2.643-1.363-.645-3.058-.964-5.089-.964-2.033 0-3.833.36-5.407 1.079-1.576.725-2.91 1.713-4.005 2.966-1.098 1.256-1.952 2.754-2.564 4.491-.615 1.734-.951 3.615-1.001 5.646v24.115h-5.049v-41.342h5.049v.003zM220.645 137.51v4.247h-8.413v27.881c0 1.659.225 2.952.68 3.888.453.938 1.589 1.455 3.406 1.563a39.22 39.22 0 0 0 4.327-.242v4.247c-.751 0-1.498.026-2.246.083-.749.05-1.494.078-2.242.078-3.365 0-5.718-.656-7.052-1.963-1.333-1.313-1.977-3.725-1.924-7.253v-28.28h-7.208v-4.247h7.208v-12.419h5.05v12.419l8.414-.002zM259.023 121.646l19.788 50.155 19.71-50.155h8.013v57.206h-5.449v-49.431h-.16l-19.55 49.434h-5.128l-19.627-49.434h-.16v49.434h-5.448v-57.209h8.011zM342.785 138.071c2.433 1.178 4.473 2.751 6.132 4.729 1.651 1.978 2.908 4.287 3.764 6.933.853 2.643 1.282 5.46 1.282 8.453 0 2.988-.427 5.81-1.282 8.453-.854 2.643-2.11 4.955-3.764 6.93-1.659 1.975-3.699 3.538-6.132 4.688-2.433 1.147-5.222 1.725-8.372 1.725-3.15 0-5.942-.576-8.372-1.725-2.434-1.149-4.475-2.714-6.131-4.688-1.656-1.975-2.91-4.287-3.765-6.93-.852-2.645-1.282-5.461-1.282-8.453 0-2.993.427-5.812 1.282-8.453.855-2.646 2.109-4.955 3.765-6.933 1.654-1.975 3.697-3.551 6.131-4.729 2.43-1.173 5.219-1.763 8.372-1.763 3.154 0 5.942.59 8.372 1.763zm-14.701 4.005a13.972 13.972 0 0 0-4.528 4.007c-1.2 1.657-2.108 3.541-2.723 5.646a22.999 22.999 0 0 0 0 12.901c.615 2.109 1.523 3.993 2.723 5.65a13.966 13.966 0 0 0 4.528 4.004c1.816 1.018 3.928 1.524 6.329 1.524 2.405 0 4.514-.511 6.332-1.524a13.81 13.81 0 0 0 4.525-4.004c1.202-1.657 2.111-3.541 2.726-5.65a23.021 23.021 0 0 0 0-12.901c-.615-2.105-1.523-3.989-2.726-5.646a13.921 13.921 0 0 0-4.525-4.007c-1.815-1.014-3.927-1.521-6.332-1.521-2.402-.001-4.513.509-6.329 1.521zM366.144 137.51v9.695h.16c1.283-3.365 3.272-5.956 5.971-7.771 2.695-1.813 5.915-2.644 9.654-2.484v5.049c-2.296-.105-4.382.201-6.251.924-1.868.722-3.484 1.748-4.846 3.084-1.361 1.337-2.417 2.926-3.163 4.769-.75 1.841-1.122 3.861-1.122 6.047v22.033H361.5v-41.345l4.644-.001zM403.159 137.51v4.247h-8.415v27.881c0 1.659.226 2.952.678 3.888.456.938 1.59 1.455 3.41 1.563 1.439 0 2.88-.082 4.327-.242v4.247c-.752 0-1.498.026-2.244.083a33.6 33.6 0 0 1-2.245.078c-3.361 0-5.717-.656-7.048-1.963-1.337-1.313-1.978-3.725-1.922-7.253v-28.28h-7.212v-4.247h7.212v-12.419h5.046v12.419l8.413-.002zM411.489 143.921c.851-1.764 2.013-3.203 3.485-4.328 1.471-1.122 3.191-1.949 5.17-2.486 1.972-.529 4.166-.799 6.567-.799 1.816 0 3.633.176 5.45.521 1.813.35 3.442 1 4.885 1.962 1.444.965 2.614 2.313 3.522 4.046.908 1.739 1.364 3.994 1.364 6.772v21.952c0 2.03.987 3.044 2.966 3.044.588 0 1.122-.104 1.604-.318v4.244c-.588.111-1.105.188-1.563.242-.456.056-1.028.081-1.72.081-1.286 0-2.314-.172-3.089-.521s-1.372-.839-1.803-1.479c-.429-.638-.706-1.402-.843-2.286a19.525 19.525 0 0 1-.201-2.927h-.158a34.435 34.435 0 0 1-2.765 3.57 13.716 13.716 0 0 1-3.127 2.604c-1.15.696-2.456 1.225-3.927 1.604-1.468.37-3.218.563-5.25.563-1.917 0-3.726-.229-5.404-.684-1.685-.451-3.154-1.174-4.405-2.164-1.259-.985-2.247-2.244-2.968-3.766-.725-1.522-1.082-3.325-1.082-5.407 0-2.885.642-5.142 1.923-6.771 1.279-1.631 2.976-2.871 5.088-3.729 2.105-.852 4.483-1.453 7.132-1.803 2.641-.349 5.325-.68 8.047-1a28.425 28.425 0 0 0 2.805-.401c.802-.161 1.47-.438 2.005-.842.53-.399.945-.943 1.24-1.641.295-.693.438-1.602.438-2.724 0-1.708-.276-3.11-.84-4.209-.562-1.093-1.334-1.962-2.324-2.604-.988-.639-2.134-1.079-3.444-1.318-1.307-.243-2.708-.359-4.203-.359-3.208 0-5.825.762-7.854 2.286-2.031 1.521-3.099 3.961-3.205 7.331h-5.048c.17-2.41.672-4.496 1.532-6.256zm25.238 12.339c-.32.587-.937 1.016-1.844 1.282-.91.269-1.713.451-2.405.561-2.138.373-4.338.709-6.607 1.001-2.271.296-4.337.733-6.209 1.32-1.871.588-3.409 1.427-4.605 2.523-1.203 1.102-1.803 2.659-1.803 4.688 0 1.283.247 2.418.76 3.407a8.147 8.147 0 0 0 2.043 2.562c.852.725 1.843 1.27 2.965 1.643s2.27.563 3.444.563c1.925 0 3.766-.296 5.53-.884 1.757-.587 3.296-1.441 4.604-2.563 1.31-1.122 2.348-2.486 3.127-4.085.773-1.6 1.157-3.416 1.157-5.447v-6.577h-.159v.006h.002zM457.156 121.646v57.206h-5.046v-57.206h5.046zM471.977 121.646v8.095h-5.046v-8.095h5.046zm0 15.864v41.345h-5.046V137.51h5.046zM498.094 137.51v4.247h-8.412v27.881c0 1.659.225 2.952.68 3.888.457.938 1.594 1.455 3.41 1.563 1.439 0 2.879-.082 4.322-.242v4.247c-.744 0-1.492.026-2.244.083-.746.05-1.49.078-2.24.078-3.365 0-5.717-.656-7.051-1.963-1.336-1.313-1.982-3.725-1.922-7.253v-28.28h-7.211v-4.247h7.211v-12.419h5.047v12.419l8.41-.002zM506.108 137.51l13.621 35.257 12.738-35.257h5.045l-17.945 47.594c-.746 1.763-1.439 3.218-2.078 4.367-.643 1.149-1.352 2.056-2.123 2.727a7.121 7.121 0 0 1-2.729 1.439c-1.037.295-2.363.44-3.965.44-1.016-.053-1.801-.094-2.359-.117a4.786 4.786 0 0 1-1.48-.287v-4.246c.588.104 1.156.202 1.721.28s1.133.121 1.727.121c1.121 0 2.045-.16 2.76-.48a5.843 5.843 0 0 0 1.891-1.322c.533-.56.988-1.243 1.361-2.042.375-.802.775-1.683 1.205-2.643l1.76-4.647-16.504-41.184h5.354z"/></g><path fill="#354080" d="M627.797 205.144a37.556 37.556 0 0 1-14.033 2.73H42.514c-20.836 0-37.788-16.95-37.788-37.788V42.643c0-20.837 16.952-37.79 37.788-37.79h571.254c4.959 0 9.688.985 14.031 2.732V2.56C623.401 1.017 618.69.13 613.768.13H42.513C19.072.132 0 19.203 0 42.643v127.44c0 23.441 19.071 42.516 42.513 42.516h571.253c4.924 0 9.631-.89 14.033-2.433v-5.022h-.002z"/><path fill="#354080" d="M767.928 107.74c-20.32 40.432-63.096 97.268-144.592 104.042 0 0-86.211 7.787-74.953-52.127 0 0 9.242-44.192 66.746-16.946 0 0 82.127 41.26 145.875-39.43 0 0 2.676-3.777 5.91-1.543.006.001 2.952 2.112 1.014 6.004z"/><path fill="#9799C6" d="M632.077 128.647c52.285 4.688 66.979-38.304 66.979-38.304 9.049-23.979 35.08-21.14 35.08-21.14 36.709 7.046-9.619 49.08-9.619 49.08-33.242 26.929-71.207 22.13-94.361 15.105 0 0-2.887-.703-2.57-2.966-.005.005.116-2.731 4.491-1.775zM757.077 25.161c3.064 15.205-6.787 30.02-21.992 33.078-15.178 3.066-30-6.775-33.066-21.989-3.057-15.197 6.783-30.011 21.979-33.065 15.196-3.06 30.018 6.775 33.079 21.976z"/><path fill="#354080" d="M689.208 46.076c6.275 31.114-13.871 61.395-44.951 67.666-31.074 6.26-61.361-13.872-67.639-44.986-6.256-31.068 13.877-61.354 44.953-67.614 31.07-6.26 61.373 13.857 67.637 44.934z"/><path fill="#FFF" d="M596.01 143.656c-11.176-3.522-22.336-1.679-26.982 1.855 5.531-1.8 15.416-2.239 26.191 1.092 10.715 2.934 19.836 7.662 25.695 8.337-5.195-2.387-13.535-8.124-24.904-11.284zM738.6 74.448c-4.721-2.011-9.477-1.054-11.564.009 2.549.465 6.43.568 10.604 2.356 4.34 1.424 5.959 4.692 6.152 7.388 1.716-1.96.156-8.222-5.192-9.753zM743.35 10.409c-7.066-4.632-14.922-3.886-18.479-2.458 3.961.071 10.791.441 17.105 4.546 6.236 4.225 9.227 10.374 10.814 14.003-.043-3.833-2.409-11.362-9.44-16.091zM661.131 14.775c-14.445-9.66-30.709-8.43-38.104-5.461 8.09-.394 22.592.305 35.707 9.067 13.17 8.682 19.439 21.765 22.191 29.389-.106-7.964-5.292-23.435-19.794-32.995z"/></svg>