<svg xmlns="http://www.w3.org/2000/svg" width="571.197" height="212.598" viewBox="0 0 571.197 212.598"><path fill="#FFEC96" d="M282.134 123.091c0 2.348-1.188 3.521-3.563 3.521h-19.999c-1.831 0-2.925-.21-3.289-.625-.365-.416-.548-1.467-.548-3.144V23.49h-21.222c-2.757 0-4.135-1.252-4.135-3.765V7.682c0-2.512 1.371-3.768 4.121-3.768h44.784c2.563 0 3.849 1.255 3.849 3.771l.002 115.406zM407.12 123.084c0 2.355-1.285 3.533-3.861 3.533h-18.822c-2.236 0-3.35-1.182-3.35-3.533V42.126c0-14.127-5.383-21.188-16.146-21.188-8.713 0-18.025 4.374-27.934 13.117v89.029c0 2.355-1.201 3.533-3.609 3.533h-18.822c-2.408 0-3.607-1.18-3.607-3.528V37.257c0-9.733-1.641-18.031-4.936-24.918-1.027-2.184-.686-3.694 1.023-4.533l17.23-7.555A4.983 4.983 0 0 1 325.829 0c1.199 0 2.486 1.434 3.855 4.299 1.031 1.851 2.742 6.146 5.146 12.88 7.885-6.153 13.799-10.244 17.75-12.301C359.094 1.633 365.951.01 373.154.01c12.004 0 20.662 2.943 25.975 8.823 5.313 5.889 7.975 15.809 7.975 29.761v84.491l.016-.001zM466.634 123.091c0 2.348-1.191 3.521-3.564 3.521h-19.998c-1.828 0-2.926-.21-3.289-.625-.365-.416-.545-1.467-.545-3.144V23.49h-21.221c-2.76 0-4.135-1.252-4.135-3.765V7.682c0-2.512 1.375-3.768 4.121-3.768h44.781c2.564 0 3.854 1.255 3.854 3.771v115.406h-.004zM571.198 92.091c0 11.409-3.943 20.644-11.844 27.689-7.893 7.048-18.266 10.579-31.105 10.579-15.961 0-30.193-3.598-42.684-10.8-1.564-.842-2.352-1.512-2.352-2.012-.176-.332.084-1.34.785-3.016l5.465-13.064c.691-1.675 2.344-1.842 4.945-.503 12.488 5.991 23.424 8.988 32.791 8.988 5.373 0 9.709-1.467 13.016-4.399 3.299-2.937 4.943-6.758 4.943-11.446 0-3.689-1.301-6.625-3.908-8.81-1.91-1.676-6.688-4.446-14.336-8.3-6.254-3.016-14.594-7.298-25.023-12.83-9.729-5.701-14.59-14.421-14.59-26.161 0-11.068 4.033-20.165 12.107-27.295C507.478 3.58 517.855.017 530.533.017c12.328 0 23.693 2.774 34.113 8.323 2.26 1.178 2.777 3.109 1.561 5.796l-5.465 11.099c-1.045 2.014-2.781 2.439-5.207 1.266-9.715-4.264-17.881-6.396-24.48-6.396-12.152.167-18.223 5.115-18.223 14.848 0 3.528 1.209 6.466 3.65 8.818 1.902 2.009 5.988 4.62 12.248 7.806l25.803 13.088c11.109 6.028 16.665 15.177 16.665 27.426z"/><path fill="#124395" d="M262.607 168.284c0 .399-.212.598-.635.598h-8.907c-.26 0-.425-.039-.496-.107-.069-.07-.105-.231-.105-.489v-1.693c0-.282.03-.452.087-.51.06-.06.229-.089.512-.089h2.507V147.49h-2.507c-.281 0-.453-.034-.512-.09-.057-.059-.087-.226-.087-.51v-1.695c0-.258.036-.425.105-.491.071-.064.236-.107.496-.107h8.907c.423 0 .635.204.635.6v1.694c0 .257-.036.423-.105.491-.071.064-.247.107-.532.107h-2.511v18.503h2.511c.423 0 .636.202.636.599l.001 1.693zM278.947 168.389c0 .324-.176.489-.532.489h-2.583c-.306 0-.459-.164-.459-.489v-11.396c0-1.989-.744-2.972-2.228-2.972-1.204 0-2.487.614-3.854 1.839v12.533c0 .327-.166.488-.495.488h-2.583c-.33 0-.495-.161-.495-.488v-12.075c0-1.372-.228-2.53-.681-3.5-.14-.311-.094-.517.141-.638l2.372-1.063a.525.525 0 0 1 .213-.044c.164 0 .342.208.532.601.142.263.378.861.708 1.806 1.086-.857 1.9-1.435 2.441-1.724a6.142 6.142 0 0 1 2.832-.683c1.652 0 2.845.414 3.577 1.238.73.835 1.096 2.229 1.096 4.19l-.002 11.888zM293.235 167.685c.092.354-.014.595-.318.747a9.975 9.975 0 0 1-4.252.93c-1.748 0-2.973-.5-3.682-1.488-.586-.831-.886-2.108-.886-3.855v-9.625h-2.437c-.213 0-.358-.032-.44-.087-.084-.063-.123-.215-.123-.445v-1.709c0-.228.045-.382.141-.443a.893.893 0 0 1 .424-.087h2.436v-4.635c0-.307.146-.487.463-.528l2.404-.463c.283-.047.459-.059.531-.04.119.044.176.201.176.464v5.19h4.684c.355 0 .486.22.393.641l-.393 1.665c-.068.311-.248.463-.531.463h-4.146v9.279c0 .926.072 1.545.217 1.843.23.492.746.746 1.529.746.635 0 1.535-.234 2.693-.723.334-.142.545-.024.639.35l.478 1.81zM307.987 159.851c0 .519-.016.842-.035.955-.07.228-.252.349-.535.349h-9.83c.121 3.479 1.551 5.209 4.287 5.209a6.85 6.85 0 0 0 2.547-.462c.027 0 .617-.272 1.773-.82.188-.1.344-.024.459.217l.814 1.771c.168.354.047.654-.352.884-1.557.967-3.42 1.452-5.594 1.452-2.4 0-4.277-.794-5.609-2.384-1.334-1.595-1.998-3.832-1.998-6.711 0-2.805.666-5.051 1.996-6.724 1.332-1.675 3.123-2.521 5.359-2.521 2.17 0 3.836.754 4.994 2.267 1.144 1.52 1.724 3.687 1.724 6.518zm-3.785-1.415c-.072-3.118-1.125-4.679-3.17-4.679-2.063 0-3.209 1.561-3.449 4.679h6.619zM320.671 152.139l-.922 2.243c-.121.282-.264.396-.426.345-.707-.157-1.15-.238-1.311-.238-.832 0-1.871.719-3.121 2.157v11.751c0 .327-.164.488-.494.488h-2.545c-.354 0-.533-.161-.533-.488v-10.724c0-1.932-.23-3.41-.703-4.419-.217-.479-.313-.724-.313-.751 0-.136.084-.243.248-.313l2.158-.988a.892.892 0 0 1 .314-.067c.229 0 .516.378.842 1.125a6.06 6.06 0 0 1 .533 1.697c.898-1.005 1.537-1.646 1.906-1.953.783-.583 1.623-.869 2.52-.869.666 0 1.213.13 1.664.387.24.126.298.337.183.617zM335.833 168.389c0 .324-.18.489-.535.489h-2.586c-.303 0-.461-.164-.461-.489v-11.396c0-1.989-.748-2.972-2.229-2.972-1.197 0-2.486.614-3.854 1.839v12.533c0 .327-.168.488-.494.488h-2.588c-.33 0-.49-.161-.49-.488v-12.075c0-1.372-.223-2.53-.674-3.5-.141-.311-.098-.517.135-.638l2.375-1.063a.508.508 0 0 1 .215-.044c.168 0 .344.208.531.601.139.263.381.861.707 1.806 1.094-.857 1.902-1.435 2.441-1.724a6.154 6.154 0 0 1 2.832-.683c1.65 0 2.844.414 3.578 1.238.73.835 1.104 2.229 1.104 4.19v11.885h-.008v.003zM352.46 167.58c.174.307.145.504-.063.599l-2.16 1.064a.856.856 0 0 1-.357.111c-.186 0-.385-.189-.582-.555-.197-.37-.402-.91-.617-1.615-1.441 1.444-3.031 2.17-4.781 2.17-1.539 0-2.754-.465-3.668-1.388-.908-.924-1.361-2.164-1.361-3.727 0-2.391 1.021-4.063 3.078-5.035 1.443-.686 3.5-1.042 6.193-1.068v-1.138c0-1.086-.211-1.846-.621-2.28-.41-.44-1.137-.662-2.17-.662-1.063 0-2.42.341-4.072 1.02-.332.141-.541.083-.637-.178l-.572-1.726a.929.929 0 0 1-.064-.313c0-.283.229-.52.707-.707a13.132 13.132 0 0 1 5.063-1.021c3.895 0 5.838 1.78 5.838 5.349v6.931c-.004 1.694.282 3.084.846 4.169zm-4.313-2.619v-4.242c-1.65.021-2.889.187-3.713.496-1.371.493-2.051 1.43-2.051 2.782 0 .76.223 1.394.688 1.907a2.21 2.21 0 0 0 1.715.761c1.08.004 2.205-.562 3.361-1.704zM366.044 167.685c.1.354-.012.595-.313.747-1.324.613-2.74.93-4.254.93-1.746 0-2.977-.5-3.688-1.488-.584-.831-.883-2.108-.883-3.855v-9.625h-2.439c-.215 0-.355-.032-.439-.087-.082-.063-.129-.215-.129-.445v-1.709c0-.228.047-.382.137-.443a.923.923 0 0 1 .426-.087h2.438v-4.635c0-.307.148-.487.463-.528l2.408-.463c.283-.047.457-.059.531-.04.117.044.176.201.176.464v5.19h4.684c.354 0 .486.22.391.641l-.391 1.665c-.066.311-.248.463-.531.463h-4.15v9.279c0 .926.072 1.545.223 1.843.23.492.744.746 1.523.746.637 0 1.541-.234 2.693-.723.332-.142.547-.024.641.35l.483 1.81zM373.165 168.389c0 .329-.15.489-.465.489h-2.578c-.23 0-.379-.03-.424-.095-.047-.054-.07-.206-.07-.437v-13.979h-2.721c-.354 0-.531-.179-.531-.531v-1.702c0-.354.178-.531.531-.531h5.758c.328 0 .496.178.496.531v16.252l.004.003zm.568-22.477c0 .706-.24 1.297-.723 1.788-.488.484-1.08.724-1.787.724a2.413 2.413 0 0 1-1.768-.724 2.413 2.413 0 0 1-.75-1.788c0-.683.25-1.272.75-1.769.49-.492 1.082-.746 1.768-.746.678 0 1.271.24 1.766.746.496.495.744 1.087.744 1.769zM391.495 160.207c0 2.862-.668 5.104-2.002 6.744-1.33 1.64-3.148 2.458-5.463 2.458s-4.111-.798-5.381-2.404c-1.273-1.604-1.912-3.853-1.912-6.723 0-2.883.668-5.133 1.988-6.763 1.322-1.631 3.148-2.441 5.486-2.441 2.287 0 4.072.806 5.359 2.409 1.281 1.602 1.925 3.848 1.925 6.72zm-3.83-.064c0-4.117-1.184-6.167-3.535-6.167-2.373 0-3.57 2.057-3.57 6.167 0 4.255 1.191 6.382 3.57 6.382 2.357-.005 3.535-2.129 3.535-6.382zM408.288 168.389c0 .324-.182.489-.531.489h-2.584c-.311 0-.463-.164-.463-.489v-11.396c0-1.989-.746-2.972-2.23-2.972-1.199 0-2.486.614-3.854 1.839v12.533c0 .327-.166.488-.494.488h-2.588c-.328 0-.486-.161-.486-.488v-12.075c0-1.372-.225-2.53-.684-3.5-.137-.311-.09-.517.143-.638l2.365-1.063a.523.523 0 0 1 .217-.044c.168 0 .342.208.533.601.141.263.383.861.709 1.806 1.082-.857 1.902-1.435 2.439-1.724a6.131 6.131 0 0 1 2.828-.683c1.654 0 2.846.414 3.58 1.238.73.835 1.104 2.229 1.104 4.19l-.004 11.888zM424.915 167.58c.164.307.141.504-.064.599l-2.16 1.064c-.143.071-.262.111-.355.111-.184 0-.385-.189-.58-.555-.203-.37-.406-.91-.619-1.615-1.439 1.444-3.037 2.17-4.781 2.17-1.535 0-2.758-.465-3.666-1.388-.912-.924-1.367-2.164-1.367-3.727 0-2.391 1.027-4.063 3.084-5.035 1.434-.686 3.498-1.042 6.195-1.068v-1.138c0-1.086-.211-1.846-.621-2.28-.414-.44-1.143-.662-2.172-.662-1.066 0-2.422.341-4.068 1.02-.334.141-.547.083-.641-.178l-.57-1.726a1.013 1.013 0 0 1-.07-.313c0-.283.234-.52.711-.707a13.12 13.12 0 0 1 5.063-1.021c3.895 0 5.838 1.78 5.838 5.349v6.931c-.005 1.694.279 3.084.843 4.169zm-4.312-2.619v-4.242c-1.648.021-2.887.187-3.713.496-1.373.493-2.053 1.43-2.053 2.782 0 .76.227 1.394.688 1.907a2.224 2.224 0 0 0 1.719.761c1.083.004 2.204-.562 3.359-1.704zM435.925 168.112c.092.327.021.545-.223.64-.893.399-1.904.599-3.043.599-1.533 0-2.604-.423-3.221-1.271-.541-.736-.813-1.855-.813-3.37v-1.481-18.835c0-.312.146-.496.457-.571l2.637-.57c.352-.064.52.095.52.493v20.938c0 1.018.4 1.519 1.197 1.519.447 0 .867-.096 1.27-.297.33-.163.531-.119.6.139l.619 2.067zM459.45 168.28c0 .4-.201.603-.6.603h-2.125c-.324 0-.578-.165-.748-.492l-7.148-14.513c-.521-1.032-1.064-2.434-1.635-4.176.141 1.575.219 2.879.219 3.892v14.688c0 .4-.219.603-.641.603h-2.119c-.398 0-.602-.203-.602-.603v-23.085c0-.398.199-.602.602-.602h2.545c.332 0 .57.152.707.466l6.723 13.497c.568 1.132 1.107 2.524 1.635 4.179a47.898 47.898 0 0 1-.137-3.761v-13.773c0-.259.041-.421.109-.491.066-.066.23-.107.492-.107h2.117c.258 0 .424.041.492.107.068.07.105.232.105.491v23.079l.009-.002zM476.968 159.851c0 .519-.016.842-.037.955-.07.228-.25.349-.533.349h-9.836c.117 3.479 1.549 5.209 4.287 5.209.898 0 1.748-.144 2.549-.462.025 0 .615-.272 1.768-.82.193-.1.344-.024.463.217l.818 1.771c.164.354.043.654-.354.884-1.555.967-3.422 1.452-5.596 1.452-2.402 0-4.275-.794-5.607-2.384-1.338-1.595-1.996-3.832-1.996-6.711 0-2.805.664-5.051 1.994-6.724 1.326-1.675 3.127-2.521 5.357-2.521 2.17 0 3.834.754 4.99 2.267 1.151 1.518 1.733 3.687 1.733 6.518zm-3.785-1.415c-.074-3.118-1.131-4.679-3.166-4.679-2.066 0-3.211 1.561-3.453 4.679h6.619zM493.571 160.207c0 2.862-.664 5.104-1.996 6.744-1.334 1.64-3.158 2.458-5.469 2.458-2.313 0-4.109-.798-5.379-2.404-1.277-1.604-1.91-3.853-1.91-6.723 0-2.883.666-5.133 1.988-6.763 1.316-1.629 3.145-2.441 5.486-2.441 2.287 0 4.074.806 5.359 2.409 1.283 1.602 1.921 3.848 1.921 6.72zm-3.828-.064c0-4.117-1.18-6.167-3.531-6.167-2.379 0-3.572 2.057-3.572 6.167 0 4.255 1.191 6.382 3.572 6.382 2.351-.005 3.531-2.129 3.531-6.382zM510.364 168.389c0 .324-.176.489-.529.489h-2.588c-.311 0-.457-.164-.457-.489v-11.396c0-1.989-.748-2.972-2.232-2.972-1.199 0-2.484.614-3.854 1.839v12.533c0 .327-.166.488-.494.488h-2.582c-.34 0-.494-.161-.494-.488v-12.075c0-1.372-.223-2.53-.682-3.5-.139-.311-.094-.517.143-.638l2.369-1.063a.52.52 0 0 1 .215-.044c.166 0 .344.208.531.601.143.263.385.861.709 1.806 1.086-.857 1.902-1.435 2.438-1.724a6.144 6.144 0 0 1 2.834-.683c1.648 0 2.846.414 3.578 1.238.732.835 1.1 2.229 1.1 4.19l-.005 11.888zM526.995 167.58c.168.307.143.504-.064.599l-2.158 1.064a.873.873 0 0 1-.357.111c-.184 0-.383-.189-.582-.555-.203-.37-.404-.91-.623-1.615-1.436 1.444-3.035 2.17-4.775 2.17-1.543 0-2.762-.465-3.668-1.388-.908-.925-1.363-2.164-1.363-3.727 0-2.391 1.023-4.063 3.078-5.035 1.438-.686 3.5-1.042 6.195-1.068v-1.138c0-1.086-.211-1.846-.625-2.28-.408-.44-1.139-.662-2.172-.662-1.064 0-2.424.341-4.072 1.02-.326.141-.545.083-.639-.178l-.566-1.726a.89.89 0 0 1-.066-.313c0-.283.229-.52.707-.707a13.163 13.163 0 0 1 5.064-1.021c3.895 0 5.842 1.78 5.842 5.349v6.931c-.002 1.694.28 3.084.844 4.169zm-4.31-2.619v-4.242c-1.652.021-2.889.187-3.719.496-1.371.493-2.049 1.43-2.049 2.782 0 .76.225 1.394.688 1.907a2.214 2.214 0 0 0 1.717.761c1.085.004 2.206-.562 3.363-1.704zM540.581 167.685c.094.354-.016.595-.313.747-1.324.613-2.744.93-4.252.93-1.748 0-2.977-.5-3.686-1.488-.588-.831-.887-2.108-.887-3.855v-9.625h-2.438c-.215 0-.355-.032-.439-.087-.082-.063-.129-.215-.129-.445v-1.709c0-.228.047-.382.141-.443a.887.887 0 0 1 .422-.087h2.438v-4.635c0-.307.152-.487.465-.528l2.4-.463c.281-.047.463-.059.539-.04.115.044.174.201.174.464v5.19h4.684c.354 0 .486.22.385.641l-.385 1.665c-.07.311-.252.463-.537.463h-4.145v9.279c0 .926.068 1.545.215 1.843.232.492.748.746 1.525.746.643 0 1.543-.234 2.697-.723.332-.142.543-.024.643.35l.483 1.81zM555.466 167.58c.162.307.137.504-.076.599l-2.158 1.064a.841.841 0 0 1-.355.111c-.188 0-.387-.189-.582-.555-.205-.37-.404-.91-.617-1.615-1.441 1.444-3.039 2.17-4.781 2.17-1.539 0-2.754-.465-3.668-1.388-.908-.924-1.363-2.164-1.363-3.727 0-2.391 1.021-4.063 3.078-5.035 1.441-.686 3.5-1.042 6.195-1.068v-1.138c0-1.086-.213-1.846-.623-2.28-.408-.44-1.135-.662-2.174-.662-1.063 0-2.412.341-4.068 1.02-.33.141-.543.083-.635-.178l-.572-1.726a.848.848 0 0 1-.066-.313c0-.283.23-.52.705-.707a13.173 13.173 0 0 1 5.066-1.021c3.895 0 5.836 1.78 5.836 5.349v6.931c.002 1.694.284 3.084.858 4.169zm-4.322-2.619v-4.242c-1.646.021-2.887.187-3.709.496-1.373.493-2.055 1.43-2.055 2.782 0 .76.223 1.394.691 1.907.455.508 1.023.761 1.715.761 1.078.004 2.201-.562 3.358-1.704zM566.46 168.112c.096.327.023.545-.215.64-.896.399-1.91.599-3.047.599-1.535 0-2.604-.423-3.219-1.271-.545-.736-.813-1.855-.813-3.37v-1.481-18.835c0-.312.146-.496.455-.571l2.635-.57c.348-.064.523.095.523.493v20.938c0 1.018.398 1.519 1.195 1.519.443 0 .871-.096 1.271-.297.328-.163.531-.119.6.139l.615 2.067zM262.607 204.362c0 .399-.212.595-.635.595h-8.907c-.26 0-.425-.038-.496-.107-.069-.07-.105-.229-.105-.486v-1.697c0-.281.03-.453.087-.508.06-.06.229-.089.512-.089h2.507v-18.503h-2.507c-.281 0-.453-.03-.512-.091-.057-.059-.087-.226-.087-.507v-1.694c0-.261.036-.425.105-.489.071-.069.236-.107.496-.107h8.907c.423 0 .635.201.635.598v1.694c0 .257-.036.421-.105.492-.071.065-.247.104-.532.104h-2.511v18.503h2.511c.423 0 .636.203.636.597l.001 1.695zM287.507 204.467c0 .329-.18.49-.531.49h-2.55c-.326 0-.492-.158-.492-.486v-11.625c0-1.784-.635-2.676-1.91-2.676-.898 0-2.006.511-3.324 1.555v12.779c0 .309-.166.465-.493.465h-2.508c-.353 0-.53-.166-.53-.491v-11.472c0-1.882-.65-2.816-1.951-2.816-.972 0-2.071.504-3.302 1.513v12.774c0 .328-.166.494-.493.494h-2.509c-.352 0-.528-.166-.528-.494v-12.315c0-1.249-.143-2.2-.425-2.865-.292-.64-.292-1.021 0-1.131l2.158-.887a.662.662 0 0 1 .283-.064c.213 0 .484.407.814 1.232.14.327.246.665.318 1.021 1.816-1.506 3.514-2.261 5.094-2.261 1.722 0 2.936.753 3.644 2.261 1.908-1.506 3.68-2.261 5.31-2.261 1.58 0 2.665.545 3.254 1.629.447.827.668 2.081.668 3.777v11.854h.003zM313.981 204.467c0 .329-.176.49-.531.49h-2.545c-.334 0-.49-.158-.49-.486v-11.625c0-1.784-.641-2.676-1.91-2.676-.898 0-1.996.511-3.322 1.555v12.779c0 .309-.16.465-.492.465h-2.512c-.352 0-.527-.166-.527-.491v-11.472c0-1.882-.652-2.816-1.953-2.816-.973 0-2.072.504-3.299 1.513v12.774c0 .328-.166.494-.494.494H293.4c-.352 0-.531-.166-.531-.494v-12.315c0-1.249-.141-2.2-.426-2.865-.289-.64-.289-1.021 0-1.131l2.16-.887a.667.667 0 0 1 .285-.064c.211 0 .484.407.813 1.232.143.327.252.665.314 1.021 1.814-1.506 3.514-2.261 5.096-2.261 1.723 0 2.936.753 3.645 2.261 1.91-1.506 3.678-2.261 5.309-2.261 1.58 0 2.668.545 3.252 1.629.455.827.67 2.081.67 3.777v11.859l-.006-.005zM332.909 203.907c.191.305.154.501-.105.589l-2.262.852a.61.61 0 0 1-.281.069c-.232 0-.465-.187-.672-.573-.166-.312-.344-.793-.531-1.459-1.604 1.352-3.291 2.023-5.064 2.023-1.836 0-3.172-.517-4-1.549-.707-.919-1.063-2.331-1.063-4.231v-11.252c0-.282.15-.465.465-.53l2.482-.595c.447-.126.666.023.666.421v11.131c0 1.37.18 2.313.516 2.843.342.528.945.79 1.818.79 1.256 0 2.482-.521 3.68-1.551v-12.516c0-.282.148-.461.463-.525l2.48-.598c.42-.095.637.045.637.421v12.685c.002 1.523.259 2.706.771 3.555zM350.87 204.467c0 .329-.174.49-.531.49h-2.584c-.309 0-.459-.161-.459-.491v-11.395c0-1.989-.746-2.97-2.229-2.97-1.205 0-2.488.61-3.854 1.836v12.534c0 .329-.164.495-.494.495h-2.582c-.328 0-.494-.166-.494-.495V192.4c0-1.373-.221-2.532-.674-3.503-.143-.31-.096-.52.137-.636l2.373-1.063a.627.627 0 0 1 .213-.036c.168 0 .344.2.535.596.135.263.377.863.705 1.808 1.086-.858 1.904-1.438 2.438-1.724a6.199 6.199 0 0 1 2.834-.678c1.652 0 2.848.411 3.576 1.234.74.835 1.107 2.229 1.107 4.188l-.017 11.881zM369.62 196.287c0 2.856-.666 5.099-1.998 6.743-1.332 1.64-3.15 2.461-5.469 2.461-2.316 0-4.107-.805-5.375-2.412-1.281-1.6-1.914-3.851-1.914-6.724 0-2.879.666-5.135 1.986-6.761 1.318-1.63 3.145-2.438 5.482-2.438 2.293 0 4.078.803 5.363 2.404 1.279 1.607 1.925 3.852 1.925 6.727zm-3.832-.07c0-4.116-1.18-6.166-3.531-6.166-2.381 0-3.57 2.057-3.57 6.166 0 4.258 1.188 6.383 3.57 6.383 2.359 0 3.531-2.125 3.531-6.383zM383.497 203.762c.096.356-.014.604-.314.748a9.971 9.971 0 0 1-4.258.927c-1.748 0-2.969-.496-3.682-1.485-.586-.828-.885-2.113-.885-3.854v-9.626h-2.436c-.219 0-.357-.029-.439-.096-.084-.052-.129-.207-.129-.437v-1.706c0-.23.045-.386.139-.445.094-.055.23-.087.426-.087h2.438v-4.636c0-.307.148-.487.459-.531l2.406-.457c.285-.044.463-.062.531-.042.119.044.18.204.18.461v5.198h4.684c.35 0 .486.213.393.637l-.393 1.667c-.07.312-.25.465-.535.465h-4.146v9.284c0 .919.063 1.535.213 1.836.234.489.748.747 1.531.747.635 0 1.535-.237 2.695-.729.326-.142.543-.021.639.349l.483 1.812zM399.96 204.467c0 .329-.182.49-.537.49h-2.59c-.33 0-.492-.189-.492-.568V193.1c0-1.091-.164-1.852-.498-2.301-.324-.448-.896-.67-1.689-.67-1.152 0-2.439.609-3.855 1.838v12.489c0 .329-.16.489-.488.489h-2.559c-.381 0-.568-.157-.568-.489v-23.979c0-.312.16-.493.496-.57l2.439-.492c.453-.096.672.044.672.421v9.55c1.602-1.485 3.322-2.231 5.166-2.231 1.699 0 2.896.514 3.607 1.553.588.828.891 2.122.891 3.892v11.867h.006-.001zM418.038 195.93c0 .515-.012.84-.035.949-.068.229-.246.351-.537.351h-9.826c.117 3.482 1.547 5.21 4.281 5.21.896 0 1.746-.148 2.547-.464.027 0 .617-.271 1.775-.816.188-.099.338-.024.457.218l.816 1.77c.166.354.047.647-.354.885-1.555.967-3.42 1.454-5.592 1.454-2.4 0-4.281-.798-5.617-2.394-1.328-1.589-1.996-3.827-1.996-6.701 0-2.806.666-5.051 1.996-6.724 1.332-1.675 3.127-2.521 5.359-2.521 2.168 0 3.84.754 4.992 2.263 1.158 1.522 1.734 3.691 1.734 6.52zm-3.785-1.415c-.068-3.123-1.125-4.678-3.166-4.678-2.066 0-3.211 1.556-3.449 4.678h6.615zM431.429 188.21l-.916 2.24c-.125.281-.262.4-.426.352-.711-.161-1.148-.242-1.313-.242-.826 0-1.869.72-3.119 2.156v11.753c0 .33-.162.493-.494.493h-2.549c-.354 0-.527-.163-.527-.493v-10.718c0-1.934-.23-3.408-.707-4.421-.217-.473-.311-.722-.311-.749 0-.139.082-.242.248-.311l2.16-.992a.839.839 0 0 1 .314-.066c.232 0 .516.379.848 1.127.258.542.436 1.106.525 1.696.902-1.002 1.537-1.646 1.908-1.958.787-.578 1.625-.867 2.523-.867.664 0 1.213.13 1.66.384.24.133.293.34.176.616zM446.022 203.66c.16.303.139.505-.07.597l-2.16 1.066c-.141.063-.262.104-.354.104-.189 0-.385-.183-.586-.548-.193-.375-.396-.909-.617-1.623-1.443 1.45-3.031 2.167-4.779 2.167-1.535 0-2.754-.465-3.668-1.383-.908-.926-1.363-2.167-1.363-3.726 0-2.387 1.021-4.068 3.08-5.04 1.439-.681 3.504-1.038 6.195-1.065v-1.135c0-1.088-.209-1.848-.621-2.283-.41-.437-1.137-.665-2.168-.665-1.064 0-2.426.344-4.074 1.021-.332.139-.545.083-.639-.18l-.57-1.729a.861.861 0 0 1-.068-.314c0-.285.236-.513.709-.705a13.088 13.088 0 0 1 5.063-1.021c3.896 0 5.838 1.781 5.838 5.345v6.943c-.001 1.698.282 3.088.852 4.174zm-4.324-2.621v-4.247c-1.643.029-2.887.191-3.709.499-1.369.5-2.055 1.432-2.055 2.785 0 .765.223 1.396.688 1.907.465.508 1.029.764 1.717.764 1.09.001 2.205-.566 3.359-1.708zM464.378 195.973c0 3.064-.533 5.424-1.594 7.058-1.063 1.64-2.596 2.461-4.6 2.461-1.295 0-2.598-.409-3.893-1.24v7.01c0 .281-.143.46-.426.528l-2.584.639c-.381.096-.568-.07-.568-.493V192.61c0-1.249-.207-2.292-.609-3.113-.189-.401-.283-.667-.283-.784 0-.135.068-.248.215-.307l2.303-1.179a.895.895 0 0 1 .314-.063c.143 0 .342.23.6.706.236.382.41.801.531 1.274 1.652-1.319 3.236-1.983 4.742-1.983 3.905-.005 5.852 2.933 5.852 8.812zm-3.678.183c0-2.126-.225-3.661-.691-4.604-.461-.945-1.219-1.419-2.279-1.419-.936 0-2.082.508-3.422 1.523v9.879c1.174.705 2.24 1.063 3.18 1.063 1.201 0 2.041-.483 2.512-1.434.464-.956.7-2.622.7-5.008zM481.144 188.638l-4.107 14.63c-.283 1.019-.572 2.025-.844 3.043a23.277 23.277 0 0 1-1.137 3.145c-.941 2.089-2.527 3.145-4.777 3.145-1.578 0-3.02-.424-4.316-1.275-.283-.188-.367-.39-.246-.594l.992-2.009c.096-.191.27-.204.533-.042 1.064.661 2 .987 2.832.987 1.275 0 2.203-.95 2.793-2.869l.57-1.836h-1.42c-.311 0-.506-.131-.604-.392l-5.52-15.819c-.143-.421-.043-.665.313-.745l2.658-.535c.4-.066.648.062.746.392l3.432 11.044c.186.615.541 2.064 1.066 4.353.135-.798.365-1.993.666-3.571l2.9-11.794c.094-.354.268-.496.527-.426l2.727.673c.216.05.282.22.216.495zM504.048 198.313c0 2.151-.701 3.869-2.086 5.173-1.393 1.297-3.232 1.944-5.529 1.944-2.383 0-4.564-.531-6.555-1.595-.352-.188-.463-.485-.311-.889l.885-2.303c.045-.143.139-.222.283-.222.072 0 .309.106.705.314 1.77.926 3.451 1.382 5.025 1.382 1.156 0 2.078-.306 2.75-.935.668-.625 1.012-1.465 1.012-2.524 0-1.084-.273-1.912-.816-2.481-.547-.564-1.803-1.376-3.773-2.438-1.965-1.063-3.311-1.933-4.016-2.612-1.154-1.158-1.73-2.6-1.73-4.314 0-1.988.678-3.578 2.031-4.779 1.363-1.197 3.146-1.809 5.361-1.809 2.266 0 4.264.529 5.98 1.59.311.191.4.41.283.67l-.924 2.118c-.141.311-.471.316-.994.04-1.58-.825-3.02-1.23-4.313-1.23-2.361 0-3.537 1.009-3.537 3.006 0 .829.213 1.475.635 1.951.424.469 1.313 1.069 2.658 1.81 2.549 1.365 4.168 2.381 4.852 3.048 1.413 1.312 2.124 3.012 2.124 5.085zM517.61 203.762c.09.356-.018.604-.316.748a9.97 9.97 0 0 1-4.252.927c-1.75 0-2.977-.496-3.689-1.485-.584-.828-.883-2.113-.883-3.854v-9.626h-2.438c-.217 0-.357-.029-.441-.096-.082-.052-.127-.207-.127-.437v-1.706c0-.23.045-.386.139-.445.096-.055.23-.087.424-.087h2.438v-4.636c0-.307.148-.487.465-.531l2.402-.457c.287-.044.463-.062.531-.042.121.044.18.204.18.461v5.198h4.686c.35 0 .482.213.391.637l-.391 1.667c-.07.312-.246.465-.533.465h-4.152v9.284c0 .919.068 1.535.223 1.836.23.489.746.747 1.523.747.641 0 1.535-.237 2.697-.729.33-.142.545-.021.635.349l.488 1.812zM533.921 203.907c.188.305.148.501-.105.589l-2.262.852a.612.612 0 0 1-.287.069c-.232 0-.463-.187-.668-.573-.164-.312-.344-.793-.529-1.459-1.605 1.352-3.291 2.023-5.064 2.023-1.838 0-3.172-.517-3.998-1.549-.707-.919-1.064-2.331-1.064-4.231v-11.252c0-.282.15-.465.465-.53l2.479-.595c.451-.126.674.023.674.421v11.131c0 1.37.17 2.313.514 2.843.34.528.945.79 1.82.79 1.248 0 2.479-.521 3.676-1.551v-12.516c0-.282.152-.461.463-.525l2.479-.598c.422-.095.639.045.639.421v12.685c-.006 1.523.252 2.706.768 3.555zM551.71 204.209l-2.268 1.067a.915.915 0 0 1-.309.065c-.398 0-.77-.647-1.104-1.938-1.768 1.395-3.467 2.087-5.096 2.087-1.768 0-3.152-.792-4.16-2.372-1.006-1.579-1.502-3.765-1.502-6.545 0-3.351.705-5.83 2.121-7.437 1.158-1.321 2.609-1.982 4.359-1.982 1.131 0 2.359.366 3.682 1.098v-7.783c0-.329.135-.521.391-.569l2.547-.528c.426-.099.637.054.637.459v20.138c0 1.537.219 2.68.633 3.432.189.353.283.546.283.567-.003.087-.073.17-.214.241zm-4.275-3.278v-9.911c-1.086-.584-2.115-.885-3.08-.885-1.232 0-2.105.471-2.623 1.396-.52.931-.781 2.498-.781 4.689 0 2.262.23 3.893.693 4.866.463.979 1.236 1.465 2.32 1.465 1.203.006 2.363-.538 3.471-1.62zM569.097 188.638l-4.111 14.63c-.275 1.019-.568 2.025-.84 3.043-.34 1.154-.709 2.202-1.133 3.145-.945 2.089-2.537 3.145-4.783 3.145-1.582 0-3.02-.424-4.318-1.275-.281-.188-.365-.39-.244-.594l.994-2.009c.092-.191.264-.204.527-.042 1.061.661 2.002.987 2.834.987 1.279 0 2.205-.95 2.789-2.869l.57-1.836h-1.414c-.307 0-.504-.131-.6-.392l-5.525-15.819c-.141-.421-.037-.665.318-.745l2.65-.535c.4-.066.652.062.75.392l3.422 11.044c.188.615.547 2.064 1.064 4.353.141-.798.371-1.993.67-3.571l2.9-11.794c.098-.354.27-.496.533-.426l2.725.673c.222.05.286.22.222.495z"/><path fill="#4E69AE" d="M92.512 83.159c2.632 3.851 1.359 7.989 2.69 11.833 2.396 6.915 11.461 10.736 9.143 19.902-15.865 3.31-21.444-18.177-19.9-32.271 2.795-.475 6.014-.965 8.067.536zm-3.765 3.765c-4.476 9.61-.555 24.356 9.681 25.816a13.045 13.045 0 0 1 2.151-2.154c-3.539-6.063-9.024-13.599-10.219-23.667-.537.005-1.075.005-1.613.005z"/><path fill="#97A1D2" d="M31.196 118.658c.182-1.076-.11-1.681-1.076-1.616 1.884-8.517 8.415-12.379 15.598-15.596-.509-11.256 2.659-17.439 11.832-15.599 5.241 1.057 10.415 6.857 9.143 11.835-.525 2.055-3.548 2.972-4.302 4.841-2.171 5.371.853 11.391-2.151 17.212-2.806-5.747-5.865-13.088-12.371-12.369-6.481.707-7.038 14.133-16.673 11.292zm17.749-29.044c-3.737 8.22.002 19.555 8.606 20.438 3.23-6.307 4.522-26.869-8.606-20.438zm-16.673 26.892c1.422 1.029 4.939.56 6.455 0 1.021-3.565 6.142-7.498 2.689-10.756-4.403 2.232-9.552 3.717-9.144 10.756z"/><path fill="#4E69AE" d="M57.551 110.051c-8.603-.877-12.343-12.216-8.606-20.438 13.128-6.43 11.836 14.132 8.606 20.438zm-2.151-3.765c.147-5.166-1.073-8.967-2.689-12.37-6.083.941-1.667 13.108 2.689 12.37z"/><path fill="#D7D8EE" d="M118.329 93.377v2.689c-.946 1.458-4.432 1.458-5.378 0-1.046-4.157 3.569-4.401 5.378-2.689zm-3.765 3.229h2.152c1.388-1.547.046-3.625-1.614-3.765-.812.759-1.698 2.611-.538 3.765z"/><path fill="#0C4396" d="M52.711 93.916c1.616 3.406 2.836 7.205 2.689 12.37-4.356.738-8.772-11.429-2.689-12.37zM36.574 110.051c1.338-.083 1.666.844 2.69 1.077 1.054 4.806-6.004 7.382-5.916 2.151 1.271 1.23.852-2.749 3.226-3.228z"/><path fill="#97A1D2" d="M27.431 121.884c1.166-.093.242 1.91.538 2.688-.436-.103-.536-.538-1.075-.538v2.688c-8.189 7.05-9.586 20.894-21.514 24.203-.621-.707-1.223-6.715-.538-3.766 1.199-5.075.714-11.836 3.765-15.063 7.353-1.607 10.659-7.271 16.673-10.222 1.211.097 1.928 2.406 2.151.01zm-18.287 12.37c-1.057 2.636-2.563 7.327-1.075 10.756h3.765c4.29-7.185 10.089-12.856 13.984-20.438-6.565.166-9.767 8.091-16.674 9.682z"/><path fill="#0C4396" d="M7.53 6.782h181.795V193.958c-1.171-.454-11.354-1.366-12.908-5.379-1.879-4.852 4.411-11.575 3.765-16.673-.645-5.083-6.605-9.324-11.296-10.225-8.784-1.675-18.402 4.273-25.816 5.382-4.811-3.609-.968-10.44 0-16.136 1.521-8.982 1.142-17.824 4.302-23.666 2.696-4.24 5.377-10.736 2.151-15.6-2.32-3.5-8.359-4.722-11.833-5.916-4.766-1.639-8.75-2.792-10.757-6.994-2.195-4.6.276-14.343-1.075-19.36-2.209-8.2-11.448-15.567-17.749-16.674-13.753-2.405-20.222 6.691-30.12 7.528-3.37.285-10.953-1.238-15.06-3.228-.355-.172-.255-1.437-.538-1.614-.51-.316-1.654.338-2.151 0-4.966-3.346-11.133-14.95-14.521-20.439-1.688-2.73-2.4-5.725-3.765-8.064-3.92-6.728-10.167-10.09-15.598-15.063-6.4-5.848-12.647-10.169-18.826-15.055z"/><path fill="#4E69AE" d="M4.304 6.782H7.532c6.178 4.886 12.426 9.206 18.826 15.061 5.434 4.974 11.68 8.334 15.598 15.063 1.365 2.343 2.078 5.333 3.765 8.067 3.389 5.489 9.556 17.091 14.521 20.438.498.338 1.641-.315 2.151 0 .283.179.182 1.441.538 1.614 4.107 1.988 11.691 3.512 15.06 3.227 9.898-.837 16.367-9.938 30.12-7.528 6.301 1.107 15.543 8.474 17.749 16.677 1.352 5.019-1.12 14.759 1.075 19.358 2.007 4.204 5.991 5.352 10.757 6.996 3.473 1.191 9.513 2.419 11.833 5.913 3.226 4.863.544 11.36-2.151 15.6-3.161 5.838-2.78 14.68-4.302 23.666-.968 5.693-4.811 12.531 0 16.136 7.412-1.11 17.031-7.057 25.817-5.38 4.689.896 10.651 5.14 11.295 10.223.646 5.097-5.645 11.821-3.765 16.673 1.553 4.018 11.737 4.925 12.908 5.379v2.689c-4.919-1.895-11.186-2.442-15.059-5.379-3-8.906 6.314-12.483 3.227-21.516-7.228-10.23-24.59-3.711-33.885.538-6.493-5.916-2.473-18.141-.538-31.194.927-6.255 1.958-11.441 3.227-16.137.664-2.45 3.185-5.563 2.69-8.067-1.01-5.107-11.706-6.003-16.135-8.605-2.656-1.559-6.587-5.621-7.53-8.605-1.548-4.895.823-9.79 0-15.6-1.079-7.604-9.345-16.944-16.674-18.286-14.027-2.566-21.958 6.531-30.12 7.529-5.852.708-9.229-2.384-15.598-3.228-8.152-5.017-12.564-13.324-17.211-21.515-5.035-8.872-9.614-14.916-16.674-20.976-7.849-6.74-15.518-14.217-24.743-18.831zM41.416 105.75c3.455 3.253-1.667 7.191-2.689 10.756-1.516.56-5.032 1.029-6.455 0-.408-7.039 4.741-8.524 9.144-10.756zm-8.068 7.528c-.087 5.23 6.971 2.653 5.916-2.151-1.024-.231-1.352-1.16-2.69-1.077-2.374.48-1.955 4.459-3.226 3.228z"/><path fill="#97A1D2" d="M79.604 74.014h1.076c2.826 2.655 6.599 1.232 9.681 2.689 6.159 2.911 5.151 9.13 6.992 16.137 1.952 7.416 11.442 13.88 9.144 22.053a4.83 4.83 0 0 0-2.151 2.149H98.43c-2.2-2.428-5.077-2.509-6.992-4.298-5.181-4.852-5.136-12.345-7.53-19.362-1.9-5.569-7.191-6.374-9.681-10.755 1.605-2.906 5.712-5.478 5.377-8.613zm4.84 8.607c-1.543 14.097 4.033 35.579 19.9 32.271 2.318-9.166-6.747-12.988-9.143-19.902-1.331-3.844-.058-7.982-2.69-11.833-2.052-1.499-5.271-1.009-8.067-.536zM115.102 92.842c1.662.14 3.004 2.217 1.614 3.765h-2.152c-1.16-1.155-.274-3.007.538-3.765z"/><path fill="#0C4396" d="M90.361 86.924c1.197 10.066 6.681 17.602 10.219 23.666-.8.632-1.518 1.354-2.151 2.154-10.236-1.463-14.157-16.208-9.681-25.816.537-.004 1.075-.004 1.613-.004z"/><path fill="#4E69AE" d="M25.818 124.573c-3.895 7.578-9.694 13.255-13.984 20.438H8.069c-1.489-3.421.019-8.121 1.075-10.755 6.907-1.593 10.109-9.518 16.674-9.683z"/><g><path fill="#97A1D2" d="M189.326 196.647c-4.919-1.895-11.186-2.442-15.059-5.382-3-8.901 6.314-12.479 3.227-21.515-7.228-10.229-24.59-3.712-33.885.542-6.493-5.917-2.473-18.142-.538-31.195.927-6.255 1.958-11.441 3.227-16.137.664-2.45 3.185-5.563 2.69-8.066-1.01-5.112-11.706-6.004-16.135-8.607-2.655-1.558-6.587-5.621-7.53-8.604-1.548-4.895.823-9.79 0-15.6-1.079-7.604-9.345-16.945-16.674-18.288-14.026-2.567-21.958 6.533-30.12 7.53-5.852.708-9.229-2.385-15.598-3.226-8.152-5.018-12.564-13.327-17.211-21.519-5.034-8.871-9.613-14.915-16.673-20.973-7.844-6.733-15.515-14.214-24.741-18.826h-.539c7.646 5.804 19.214 12.341 25.28 21.514 2.897.15 3.02 3.08 5.917 3.228 11.412 17.817 18.119 40.33 45.718 41.953.953-.099-.127-.809-.538-.541 9.071-5.966 26.697-13.724 37.65-3.228 2.568 2.46 5.893 7.705 6.455 12.37.507 4.243-1.67 7.604-1.076 12.369 1.586 12.731 15.334 15.7 23.127 20.442-.965 12.086-6.021 32.166-6.992 45.18-.381 5.106.635 8.284 2.688 11.836 11.319.666 26.908-12.75 33.348 1.072-1.796 6.678-6.518 16.479-1.076 22.59 5.781-1.027 11.971 4.01 15.06 2.052v-.974h-.002v.003z"/></g><g><path fill="#D7D8EE" d="M174.266 195.57c-5.443-6.114-.721-15.916 1.075-22.59-6.439-13.823-22.028-.403-33.347-1.072-2.053-3.554-3.069-6.729-2.688-11.832.971-13.017 6.027-33.091 6.992-45.181-7.793-4.739-21.542-7.709-23.128-20.44-.593-4.771 1.586-8.131 1.076-12.37-.562-4.663-3.889-9.906-6.455-12.369-10.952-10.496-28.579-2.742-37.651 3.228.411-.27 1.491.442.539.538-27.599-1.627-34.306-24.14-45.718-41.953-2.897-.148-3.019-3.078-5.916-3.228C22.978 19.125 11.41 12.589 3.766 6.785H.5c-.234.152-.427.328-.5.537 18.688 8.205 30.994 22.789 42.491 38.188 2.778 9.435 13.268 22.021 23.667 25.816 3.501 1.274 6.921.152 7.53 3.229.872 4.402-6.484 6.149-10.22 8.064-10.122-3.479-20.893 3.447-18.826 17.213-7.738 3.916-14.246 9.061-16.673 18.289-6.79 5.402-14.129 10.254-23.128 13.444.425 8.568-3.829 16.112-1.614 23.128 12.269-.82 12.533-11.985 18.826-16.674.899-4.74 2.914-9.093 5.916-10.219.166-2.167 1.163-3.5 1.614-5.381 8.31-3.407 13.168-6.685 16.673-12.907 9.826-3.278 10.794 10.396 11.833 19.362 7.108-1.141 4.77-11.724 5.378-19.362 2.608-6.357 7.798-10.13 7.529-19.36 2.39-2.228 5.724-1.259 9.144-.538 3.992 5.175 3.648 14.902 8.068 20.978 4.08 5.609 12.888 9.266 18.826 6.447 3.078-6.438-2.242-11.974-2.689-18.288-5.78-2.824-3.633-13.577-6.455-19.359-2.61-3.847-8.453-4.458-10.757-8.607 12.564-10.536 34.372-4.656 36.036 11.834.501 4.959-2.135 9.427-.538 15.6 2.655 2.724 4.359 6.396 6.455 9.681-1.322.65-1.044 2.9-2.689 3.229-3.361-1.394-10.949-2.056-10.22 4.84 1.646 1.939 4.824 2.349 6.455 4.299-.671 8.425 3.402 14.31 10.757 10.224.888-3.211 2.539-5.919 2.151-9.145-.4-3.343-4.334-5.341-3.228-8.067 3.626-1.465 8.561.396 11.295 1.614 1.921 12.977-6.224 36.986-5.379 49.481 1.424 21.035 21.085.88 32.272 9.144.453 5.414-2.664 7.176-2.689 11.296-.089 14.086 12.615 13.408 20.439 18.289a1.532 1.532 0 0 0 1.075-.667v-4.817c-3.088 1.959-9.278-3.075-15.059-2.05zM27.969 124.573c-.436-.103-.536-.538-1.075-.538v2.688c-8.189 7.049-9.586 20.894-21.514 24.203-.621-.707-1.223-6.715-.538-3.766 1.199-5.075.714-11.835 3.765-15.062 7.353-1.608 10.659-7.271 16.673-10.223 1.212.088 1.928 2.397 2.151 0 1.165-.083.243 1.919.538 2.698zm38.726-26.891c-.525 2.051-3.548 2.972-4.302 4.841-2.171 5.37.852 11.39-2.151 17.211-2.806-5.746-5.865-13.087-12.371-12.369-6.482.708-7.04 14.137-16.673 11.291.182-1.077-.11-1.681-1.076-1.616 1.884-8.517 8.415-12.379 15.598-15.595-.509-11.256 2.66-17.44 11.832-15.599 5.24 1.058 10.414 6.86 9.143 11.836zm23.666-20.978c6.159 2.911 5.151 9.13 6.992 16.137 1.952 7.416 11.442 13.88 9.144 22.053a4.83 4.83 0 0 0-2.151 2.149H98.43c-2.2-2.428-5.077-2.509-6.992-4.298-5.181-4.852-5.136-12.345-7.53-19.362-1.9-5.569-7.191-6.374-9.681-10.756 1.607-2.903 5.714-5.475 5.379-8.608h1.076c2.823 2.651 6.594 1.23 9.679 2.685z"/></g></svg>