<svg xmlns="http://www.w3.org/2000/svg" width="336.4" height="283.5" viewBox="0 0 336.4 283.5"><path fill="#F8B3A4" d="M321.6 283.5H14.7c-8.1 0-14.7-6.6-14.7-14.7v-254C0 6.6 6.6 0 14.7 0h306.9c8.1 0 14.7 6.6 14.7 14.7v254c.1 8.2-6.5 14.7-14.7 14.8zM14.7 6.2c-4.7 0-8.6 3.8-8.6 8.6v254c0 4.7 3.8 8.6 8.6 8.6h306.9c4.7 0 8.6-3.8 8.6-8.6v-254c0-4.7-3.8-8.6-8.6-8.6H14.7z"/><path fill="#F8B3A4" d="M318.6 62.8c0 .6-.3 1.1-.7 1.5-.5.4-1.1.7-1.7.7-.7 0-1.3-.3-1.8-.7l-6.5-6.2c-2 2.2-4.5 3.9-7.3 5.1-2.7 1.2-5.6 1.7-8.6 1.7-2.8.1-5.6-.4-8.3-1.4-2.2-.8-4.2-2.3-5.6-4.1-1.4-1.8-2.1-4-2-6.2 0-2.8 1-5.5 2.9-7.5 2.5-2.7 5.5-4.8 8.8-6.5-1.7-1.6-3.3-3.4-4.5-5.3-1-1.5-1.5-3.3-1.5-5.1-.1-2.8 1.2-5.6 3.5-7.3 2.5-1.8 5.6-2.7 8.7-2.6 2.9-.2 5.8.7 8.1 2.4 2 1.6 3.1 4.1 3 6.7 0 2.3-.8 4.5-2.4 6.2-2.2 2.3-4.7 4.2-7.4 5.6l11.9 11.4c1.7-3.5 2.7-7.3 2.8-11.1 0-.7.3-1.3.8-1.8.5-.4 1.1-.6 1.8-.6s1.3.2 1.8.7c.5.5.7 1.2.6 1.8-.3 5.1-1.8 10-4.4 14.4l7.2 6.8c.5.3.8.8.8 1.4zm-19.7-3.5c2.2-1 4.1-2.5 5.6-4.3l-13.7-12.8c-2.7 1.3-5.1 3.1-7.2 5.3-1.3 1.6-2 3.5-2 5.5-.1 2.2 1 4.4 2.9 5.7 2.3 1.5 5 2.2 7.6 2 2.5 0 4.7-.5 6.8-1.4zm-9.8-34.9c-1.3 1.1-2 2.6-1.9 4.3 0 1.3.4 2.7 1.2 3.8 1.1 1.6 2.4 3 3.8 4.2 2.2-1.2 4.3-2.7 6.2-4.4 1.1-1.1 1.8-2.6 1.8-4.1.1-1.5-.6-2.9-1.7-3.9-1.2-1-2.8-1.6-4.4-1.5-1.8-.1-3.6.5-5 1.6z"/><path fill="#216092" d="M18.5 63.8c-.5-.5-.8-1.1-.7-1.8V21.5c0-.7.2-1.4.7-1.9.5-.5 1.3-.8 2-.7H33c7.3 0 13 2 16.9 5.9s6 9.6 6 16.9c0 7.3-2 12.9-6 16.9-4 4-9.6 6-16.9 6H20.4c-.7 0-1.4-.3-1.9-.8zM32.7 60c11.8 0 17.7-6.1 17.7-18.3s-5.9-18.3-17.7-18.2H23V60h9.7zM64.9 24.7c-.7-.6-1-1.5-1-2.4 0-.9.3-1.7 1-2.3 1.5-1.2 3.5-1.2 5 0 .7.6 1 1.4 1 2.3 0 .9-.3 1.8-1 2.4a4.2 4.2 0 0 1-5 0zm.6 39.5c-.5-.5-.8-1.2-.7-1.9V35c0-.7.2-1.4.7-1.9.5-.5 1.2-.7 1.9-.7s1.4.2 1.9.7c.5.5.7 1.2.7 1.9v27.3c.1.7-.2 1.4-.7 1.9-.5.4-1.2.7-1.9.7s-1.4-.3-1.9-.7zM104.5 44.7v17.6c0 .7-.2 1.4-.7 1.9-.5.5-1.2.7-1.8.7-1.3.1-2.5-.9-2.6-2.3v-3.4c-.8 1.8-2.1 3.3-3.8 4.3-1.8 1-3.8 1.6-5.8 1.5-1.9 0-3.9-.4-5.6-1.2-1.6-.8-3-1.9-4-3.4-1-1.4-1.5-3.1-1.5-4.8-.1-2 .5-4 1.8-5.5 1.2-1.3 3.2-2.3 6-2.8 3.8-.7 7.6-1 11.5-.9h1.4v-2.1c0-2.6-.5-4.5-1.6-5.7s-2.8-1.8-5.2-1.8c-3.1.1-6.2.9-8.9 2.4-.7.6-1.6.9-2.5 1.1-.5 0-1-.2-1.3-.6-.4-.4-.6-.9-.5-1.5 0-.6.2-1.1.5-1.6.5-.6 1.1-1 1.8-1.4 1.6-.9 3.4-1.6 5.2-2 1.9-.5 3.8-.7 5.7-.7 8-.3 11.9 3.9 11.9 12.2zm-7.6 13.5c1.7-1.8 2.6-4.3 2.5-6.8v-1.9h-1.2c-2.9-.1-5.8.1-8.7.5-1.5.1-3 .7-4.2 1.6-.9.9-1.3 2.1-1.3 3.3 0 1.6.6 3.1 1.8 4.2 1.3 1.1 2.9 1.7 4.6 1.7 2.5.1 4.8-.8 6.5-2.6zM137.3 34.2c2.2 1.4 3.9 3.4 4.9 5.7 1.2 2.7 1.8 5.6 1.7 8.5.1 3-.5 5.9-1.7 8.6-1.1 2.4-2.8 4.4-4.9 5.8-2.2 1.4-4.7 2.1-7.3 2.1-2.3.1-4.5-.5-6.4-1.6-1.8-1.1-3.3-2.7-4.2-4.6v3.5c0 .7-.2 1.4-.7 1.9-.5.5-1.2.8-1.9.7-.7 0-1.4-.2-1.9-.7-.5-.5-.7-1.2-.7-1.9V21.1c0-.7.2-1.3.7-1.8 1.1-.9 2.7-.9 3.8 0 .5.5.7 1.2.7 1.9v17.3c.9-1.9 2.3-3.5 4.2-4.6 2-1.1 4.2-1.7 6.4-1.6 2.5-.1 5.1.6 7.3 1.9zM136 57.4c1.7-2.1 2.5-5.1 2.5-9s-.8-6.7-2.5-8.7c-1.7-2.1-4.4-3.3-7.1-3.1-2.7-.2-5.4 1-7.1 3.1-1.7 2.1-2.5 5-2.5 8.9 0 3.8.8 6.8 2.5 8.9 3.5 3.9 9.6 4.2 13.5.7.2-.3.5-.5.7-.8zM177.4 57.8c.4.4.5.9.5 1.5 0 1.1-.8 2.1-2.3 3-1.5.9-3.2 1.6-4.9 2-1.6.4-3.3.7-5.1.7-4.9 0-8.7-1.4-11.6-4.3-2.8-2.9-4.2-6.9-4.2-12-.1-3 .6-5.9 1.9-8.6 1.2-2.4 3-4.4 5.2-5.7 2.3-1.4 5-2.1 7.7-2.1 3.7-.2 7.3 1.3 9.8 4 2.4 2.7 3.6 6.3 3.6 10.9.1.7-.1 1.3-.5 1.9-.4.4-1.1.6-1.7.6H155c.4 7.4 3.9 11.1 10.6 11.1 1.5 0 2.9-.2 4.3-.7 1.3-.5 2.6-1.1 3.9-1.8.7-.5 1.5-.8 2.3-1 .5-.1 1 .1 1.3.5zm-19.2-18.9c-1.8 2-2.8 4.6-2.9 7.3h18.3c-.1-3.2-.9-5.6-2.4-7.3-1.6-1.8-4-2.7-6.3-2.5-2.5-.2-5 .7-6.7 2.5zM202.5 62.8c0 .7-.3 1.3-.8 1.7-.7.4-1.6.6-2.4.4l-1.8-.1c-3.4-.3-6-1.3-7.6-3.1s-2.5-4.5-2.5-8.2V37.2h-4.3c-.6 0-1.2-.2-1.7-.5-.4-.4-.6-.9-.6-1.5s.2-1.1.6-1.5c.5-.4 1.1-.6 1.7-.6h4.3v-7.3c0-.7.2-1.4.7-1.9.5-.5 1.2-.7 1.9-.7s1.4.2 1.9.7c.5.5.8 1.2.7 1.9V33h7.2c.6 0 1.2.2 1.6.6.4.4.6 1 .6 1.5 0 .6-.2 1.1-.6 1.5-.5.4-1.1.6-1.6.5h-7.2v16.5c0 2.4.5 4.1 1.5 5.2 1.2 1.1 2.7 1.8 4.4 1.8l1.8.1c1.4.1 2.2.8 2.2 2.1zM233.3 57.8c.4.4.5.9.5 1.5 0 1.1-.8 2.1-2.3 3-1.5.9-3.2 1.6-4.9 2-1.6.4-3.3.7-5 .7-4.9 0-8.7-1.4-11.6-4.3-2.8-2.9-4.2-6.9-4.2-12-.1-3 .6-5.9 1.9-8.6 1.2-2.4 3-4.4 5.3-5.7 2.3-1.4 5-2.1 7.7-2.1 3.7-.2 7.3 1.3 9.8 4 2.4 2.7 3.6 6.3 3.6 10.9.1.7-.1 1.3-.5 1.9-.4.4-1.1.6-1.7.6H211c.4 7.4 3.9 11.1 10.6 11.1 1.5 0 2.9-.2 4.3-.7 1.3-.5 2.6-1.1 3.9-1.8.7-.5 1.5-.8 2.3-1 .4-.1.9.1 1.2.5zm-19.2-18.9c-1.8 2-2.9 4.6-3 7.3h18.3c-.1-3.2-.9-5.6-2.4-7.3-1.6-1.8-4-2.7-6.3-2.5-2.5-.2-4.8.8-6.6 2.5zM246.7 64.3c-1.7-.4-3.3-1.1-4.8-2-.6-.4-1.2-.9-1.6-1.5-.3-.5-.5-1.1-.5-1.7 0-.5.2-1 .5-1.4.3-.4.8-.6 1.3-.5.8.1 1.6.5 2.3 1 1.2.7 2.5 1.3 3.9 1.8 1.5.5 3.1.7 4.8.7 1.9.1 3.8-.3 5.4-1.2 1.2-.7 2-2.1 1.9-3.6 0-.8-.2-1.6-.7-2.3-.7-.7-1.5-1.2-2.5-1.5-1.7-.6-3.4-1.1-5.1-1.4-3.8-.8-6.5-1.9-8.2-3.3-1.6-1.4-2.6-3.5-2.5-5.6 0-1.8.5-3.5 1.6-4.9 1.1-1.5 2.6-2.7 4.3-3.4 2-.8 4.1-1.3 6.3-1.2 1.7 0 3.3.2 4.9.7 1.5.4 2.9 1.1 4.2 1.9 1.5 1 2.2 2.1 2.2 3.2 0 .5-.2 1-.5 1.4-.3.4-.8.6-1.2.6-.9-.1-1.7-.5-2.3-1.1-1.1-.7-2.2-1.3-3.4-1.8-1.3-.5-2.6-.7-4-.7-1.7-.1-3.5.4-4.9 1.4-1.2.8-1.9 2.2-1.8 3.6 0 .8.2 1.6.7 2.3.6.7 1.4 1.3 2.3 1.6 1.5.6 3 1 4.6 1.3 2.3.5 4.6 1.2 6.8 2.1 2.9 1.1 4.8 4 4.5 7.1 0 2.6-1.2 5.1-3.4 6.6-2.7 1.8-5.9 2.7-9.1 2.5-2.2 0-4.1-.2-6-.7zM18.4 121.1c-.5-.5-.8-1.3-.7-2V78.4c0-.7.2-1.4.7-1.9.5-.5 1.3-.7 2-.7h15.3c4.8 0 8.5 1.2 11.2 3.5 2.7 2.3 4 5.6 4 9.9 0 4.3-1.3 7.6-4 10s-6.4 3.6-11.1 3.6H23v16.3c0 .7-.2 1.5-.7 2-.5.5-1.2.8-1.9.7-.8.1-1.5-.2-2-.7zm16.9-22.7c6.9 0 10.4-3 10.4-9.1s-3.5-9.1-10.4-9H23v18.1h12.3zM76.3 91.5c0 .6-.2 1.2-.6 1.7-.6.5-1.3.7-2 .8l-2 .2c-2.5.1-4.8 1.2-6.4 3.1-1.4 1.8-2.1 4-2.1 6.3v15.7c.1.7-.2 1.5-.7 2-1.1.9-2.7.9-3.8 0-.5-.5-.8-1.2-.7-1.9V91.9c0-.7.3-1.4.8-1.9s1.2-.7 1.9-.7c1.3 0 2.4 1 2.5 2.3V95.4c.8-1.8 2.2-3.3 3.8-4.3 1.7-1 3.7-1.6 5.7-1.7l.9-.1c1.8-.1 2.7.6 2.7 2.2zM105.9 114.7c.4.4.5.9.5 1.5 0 1.1-.8 2.1-2.3 3-1.5.9-3.2 1.6-4.9 2-1.6.4-3.3.7-5 .7-4.9 0-8.7-1.4-11.6-4.3s-4.2-6.9-4.2-12c-.1-3 .6-5.9 1.9-8.6 1.2-2.4 3-4.4 5.3-5.8 2.3-1.4 5-2.1 7.7-2.1 3.7-.2 7.3 1.3 9.8 4 2.4 2.7 3.6 6.3 3.6 10.9.1.7-.1 1.3-.5 1.9-.5.4-1.1.6-1.7.6H83.6c.4 7.4 3.9 11.1 10.6 11.1 1.5 0 2.9-.2 4.3-.7 1.3-.5 2.6-1.1 3.9-1.8.7-.5 1.5-.8 2.3-1 .4 0 .9.3 1.2.6zM86.7 95.8c-1.8 2-2.9 4.6-3 7.3H102c-.1-3.2-.9-5.6-2.4-7.3-1.6-1.8-4-2.7-6.3-2.6-2.5 0-4.9.9-6.6 2.6zM141.9 90c.5.5.8 1.2.7 1.9v27.4c0 4.7-1.2 8.3-3.6 10.7-2.4 2.4-6 3.6-10.7 3.6-4 .2-8-.8-11.5-2.7-1.6-.9-2.3-1.9-2.3-3 0-.5.1-1.1.5-1.5.3-.4.8-.6 1.3-.6.8.1 1.6.4 2.3.9 1.4.7 2.9 1.4 4.5 1.9 1.7.5 3.5.7 5.2.7 3.1 0 5.4-.8 6.9-2.4 1.6-1.6 2.3-4 2.3-7.1v-5.6c-.9 2-2.3 3.6-4.2 4.7-2 1.1-4.3 1.7-6.6 1.6-2.6 0-5.1-.6-7.3-1.9-2.2-1.3-3.9-3.2-5-5.5-2.4-5.2-2.4-11.2 0-16.4 1.1-2.3 2.8-4.2 5-5.5 2.2-1.3 4.8-2 7.3-1.9 2.3-.1 4.5.5 6.5 1.6 1.8 1.1 3.3 2.7 4.2 4.6V92c0-.7.2-1.4.7-1.9.5-.5 1.2-.8 1.9-.7.6-.1 1.3.1 1.9.6zm-7.2 23.1c1.7-2 2.6-4.8 2.6-8.3s-.9-6.3-2.6-8.3c-1.8-2-4.4-3.1-7.2-3-2.7-.1-5.4 1-7.2 3-1.7 2-2.6 4.8-2.6 8.3 0 3.5.9 6.3 2.6 8.3 1.8 2 4.5 3.1 7.2 3 2.8.2 5.4-.9 7.2-3zM179.5 101.7v17.5c.1 1.3-.8 2.5-2.1 2.6h-.5c-.7 0-1.4-.2-1.9-.7-.5-.5-.8-1.2-.7-1.9V102c0-2.9-.6-5.1-1.7-6.4s-3-2-5.5-2c-2.6-.1-5.1.8-6.9 2.7-1.8 2-2.7 4.5-2.6 7.2v15.8c.1 1.3-.8 2.5-2.1 2.6h-.5c-.7 0-1.4-.2-1.9-.7-.5-.5-.8-1.2-.7-1.9V91.9c0-.7.2-1.4.7-1.9.5-.5 1.2-.7 1.9-.7s1.4.2 1.8.7c.5.5.7 1.1.7 1.8v3.3c1-1.9 2.5-3.4 4.3-4.4 1.9-1 4.1-1.6 6.3-1.5 7.6 0 11.4 4.1 11.4 12.5zM213.8 101.6v17.6c0 .7-.2 1.4-.7 1.9-.5.5-1.2.7-1.8.7-1.3.1-2.5-.9-2.6-2.3v-3.4c-.8 1.8-2.1 3.3-3.8 4.3-1.8 1-3.8 1.6-5.8 1.5-1.9 0-3.9-.4-5.6-1.2-1.6-.8-3-1.9-4.1-3.4-1-1.4-1.5-3.1-1.5-4.8-.1-2 .5-4 1.8-5.5 1.2-1.3 3.2-2.3 5.9-2.8 3.8-.7 7.7-1 11.5-.9h1.4V101c0-2.6-.5-4.5-1.6-5.7-1.1-1.2-2.8-1.8-5.1-1.8-3.1.1-6.2.9-8.9 2.4-.7.6-1.6.9-2.5 1.1-.5 0-1-.2-1.3-.6-.4-.4-.5-.9-.5-1.5s.2-1.1.6-1.6c.5-.6 1.1-1 1.7-1.4 1.6-.9 3.4-1.6 5.1-2 1.9-.5 3.8-.7 5.7-.8 8.1.1 12.1 4.2 12.1 12.5zm-7.7 13.6c1.7-1.8 2.6-4.3 2.5-6.8v-1.9h-1.2c-2.9-.1-5.8.1-8.7.5-1.5.1-3 .7-4.2 1.6-.9.9-1.3 2.1-1.3 3.3 0 1.6.6 3.1 1.8 4.2 1.3 1.1 2.9 1.7 4.6 1.7 2.6.1 4.9-.9 6.5-2.6zM250.5 101.7v17.5c.1 1.3-.8 2.5-2.1 2.6h-.5c-.7 0-1.4-.2-1.9-.7-.5-.5-.8-1.2-.7-1.9V102c0-2.9-.6-5.1-1.7-6.4s-3-2-5.5-2c-2.6-.1-5.1.8-6.9 2.7-1.8 1.9-2.7 4.5-2.6 7.2v15.8c.1 1.3-.8 2.5-2.1 2.6h-.5c-.7 0-1.4-.2-1.9-.7-.5-.5-.8-1.2-.7-1.9V91.9c0-.7.2-1.4.7-1.9.5-.5 1.2-.7 1.9-.7s1.4.2 1.9.7c.5.5.7 1.1.7 1.8v3.3c1-1.9 2.5-3.4 4.3-4.4 2-1 4.1-1.6 6.4-1.5 7.5 0 11.2 4.1 11.2 12.5zM265.3 119.9c-2.3-1.3-4.1-3.3-5.2-5.7-2.5-5.5-2.5-11.7.1-17.2 1.2-2.4 3-4.4 5.3-5.8 2.4-1.4 5.1-2.1 7.9-2.1 1.7 0 3.3.2 4.9.7 1.5.4 2.9 1.1 4.2 2 .6.4 1.2.9 1.7 1.5.3.5.5 1.1.5 1.7 0 .5-.1 1.1-.5 1.5-.3.4-.8.6-1.3.6-.3 0-.7-.1-1-.3-.3-.1-.6-.3-.9-.5-.2-.1-.3-.2-.5-.3-1-.7-2.1-1.3-3.2-1.8-1.2-.5-2.4-.7-3.7-.7-2.8-.1-5.5 1-7.4 3.2-1.7 2.1-2.6 5.1-2.6 8.9s.9 6.7 2.6 8.8c1.8 2.1 4.6 3.3 7.4 3.1 1.3 0 2.6-.2 3.8-.7 1.1-.5 2.2-1.1 3.2-1.8.5-.3.9-.6 1.4-.8.3-.2.7-.3 1.1-.3.5 0 .9.2 1.2.6.3.4.5 1 .5 1.5s-.2 1.1-.5 1.5c-.5.6-1 1.1-1.7 1.5-1.3.9-2.8 1.6-4.4 2-1.7.5-3.4.7-5.1.7-2.7.3-5.4-.4-7.8-1.8zM316.1 89.4c.6 0 1.3.2 1.8.6.5.4.8 1 .8 1.6 0 .3-.1.7-.3 1l-18.2 39.3c-.2.5-.5.8-.9 1.1-.4.2-.8.4-1.3.4-.6 0-1.2-.2-1.7-.6-.5-.4-.8-1-.8-1.6 0-.3.1-.7.3-1l4.5-9.8-12.8-27.7c-.2-.3-.3-.6-.3-1 0-.7.3-1.3.9-1.7.5-.5 1.2-.7 1.9-.7.4 0 .9.1 1.3.4.4.3.7.6.9 1.1l10.8 24.3L313.8 91c.4-1 1.3-1.6 2.3-1.6z"/><path fill="#E96852" d="M142.4 261.4c-7.7-2.3-13.8-5.5-18.3-9.6-2.1-1.6-3.2-4.1-3.2-6.8 0-1.8.5-3.6 1.7-5 .9-1.3 2.4-2 4-2.1 2.1.2 4 .9 5.7 2.1 9.8 7.2 21.8 11.1 34 10.9 8.9 0 15.8-1.7 20.6-4.9 4.8-3.3 7.2-8 7.2-14.2 0-4.8-2.2-8.5-6.7-10.9-4.5-2.4-11.6-4.7-21.4-6.9-7.9-1.5-15.6-3.8-23.1-6.8-5.5-2.2-10.4-5.7-14.1-10.3-3.4-4.4-5.1-9.9-5.1-16.6-.1-6.4 1.9-12.7 5.6-17.9 4-5.4 9.4-9.7 15.7-12.2 7.3-3 15.1-4.5 22.9-4.4 7.4-.1 14.9 1 21.9 3.3 6.3 2 12.2 5.3 17.1 9.8 2.1 1.6 3.3 4.1 3.4 6.8 0 1.8-.6 3.6-1.8 4.9-1 1.3-2.5 2.1-4.1 2.1-1.5 0-3.3-.7-5.5-2.1-4.4-3.4-9.3-6.2-14.5-8.3-5.2-1.8-10.7-2.7-16.3-2.6-8.6 0-15.3 1.7-20.1 5.2-4.7 3.3-7.4 8.7-7.2 14.4 0 5.3 2.1 9.3 6.4 12s11.1 5.2 20.4 7.3c8.1 1.7 16.1 4 23.9 6.8 5.6 2 10.6 5.4 14.6 9.7 3.6 4.1 5.4 9.4 5.4 15.9.1 6.3-1.9 12.5-5.6 17.6-4.1 5.3-9.5 9.4-15.8 11.8-7.4 2.9-15.4 4.4-23.4 4.2-8.3.3-16.4-.9-24.3-3.2z"/><path fill="#216092" d="M26.5 247.2c4.9 0 8.9 3.9 8.9 8.7s-3.9 8.9-8.7 8.9c-4.9 0-8.9-3.9-8.9-8.7v-.1c-.1-4.8 3.8-8.8 8.7-8.8"/><path fill="#E96852" d="M95.8 155.1c-6.9-6.1-16.6-9.2-29.2-9.2H26.3c-2.3-.1-4.6.7-6.3 2.3-1.6 1.6-2.4 3.8-2.3 6.1v88.9c5.2-3.6 12-3.7 17.3-.2v-26.2h31.6c12.5 0 22.2-3.1 29.2-9.4s10.4-15 10.4-26.1c0-11.3-3.5-20-10.4-26.2zm-31 47.8H35v-43.1h29.8c16.5 0 24.8 7.1 24.8 21.4 0 14.5-8.3 21.7-24.8 21.7z"/><path fill="#216092" d="M238.9 247.2c4.9 0 8.9 3.9 8.9 8.7 0 4.9-3.9 8.9-8.7 8.9-4.9 0-8.9-3.9-8.9-8.7v-.1c0-4.8 3.9-8.8 8.7-8.8"/><path fill="#E96852" d="M308.3 155.1c-6.9-6.1-16.6-9.2-29.2-9.2h-40.4c-2.3-.1-4.6.7-6.3 2.3-1.6 1.6-2.4 3.8-2.3 6.1v88.9c5.2-3.6 12-3.7 17.3-.2v-26.2h31.7c12.5 0 22.2-3.1 29.2-9.4s10.4-15 10.4-26.1c-.1-11.3-3.5-20-10.4-26.2zm-31 47.8h-29.8v-43.1h29.8c16.5 0 24.8 7.1 24.8 21.4 0 14.5-8.3 21.7-24.8 21.7z"/></svg>