<svg xmlns="http://www.w3.org/2000/svg" width="1328.829" height="215.156" viewBox="0 0 1328.829 215.156"><g fill="#133478"><path d="M270.862 58.046h8.329v75.273h32.056v8.04h-40.383l-.002-83.313zM325.884 54.363c1.806 0 3.348.646 4.623 1.926 1.279 1.282 1.917 2.833 1.917 4.642 0 1.781-.639 3.309-1.917 4.589-1.277 1.286-2.819 1.925-4.623 1.925-1.77 0-3.29-.637-4.565-1.925-1.279-1.281-1.917-2.809-1.917-4.589 0-1.813.638-3.358 1.917-4.642 1.275-1.279 2.799-1.926 4.565-1.926zm-3.938 25.376h7.93v61.615h-7.93V79.739zM377.34 86.478l-5.097 5.269c-4.243-4.118-8.384-6.175-12.434-6.175-2.575 0-4.783.85-6.618 2.552-1.836 1.699-2.753 3.677-2.753 5.946 0 2.001.758 3.906 2.269 5.723 1.516 1.851 4.695 4.021 9.538 6.51 5.902 3.058 9.914 6.003 12.031 8.838 2.081 2.874 3.12 6.098 3.12 9.688 0 5.063-1.774 9.347-5.332 12.857-3.554 3.505-7.998 5.269-13.331 5.269-3.555 0-6.947-.781-10.18-2.321-3.234-1.55-5.911-3.68-8.025-6.401l4.983-5.663c4.052 4.565 8.345 6.854 12.888 6.854 3.178 0 5.885-1.018 8.117-3.055 2.232-2.041 3.35-4.438 3.35-7.195 0-2.267-.738-4.286-2.213-6.066-1.478-1.73-4.807-3.924-9.992-6.563-5.564-2.872-9.347-5.705-11.352-8.5-2.008-2.791-3.01-5.984-3.01-9.569 0-4.679 1.597-8.568 4.793-11.667 3.196-3.097 7.233-4.647 12.114-4.647 5.674-.01 11.387 2.763 17.134 8.316zM398.296 56.853h7.93v22.884h12.572v6.857h-12.572v54.774h-7.93V86.59h-10.817v-6.854h10.817V56.853zM482.573 120.913l6.684 3.512c-2.192 4.303-4.724 7.777-7.595 10.416a30.16 30.16 0 0 1-9.694 6.034c-3.591 1.375-7.657 2.069-12.188 2.069-10.054 0-17.911-3.295-23.583-9.881-5.668-6.586-8.502-14.037-8.502-22.347 0-7.817 2.399-14.781 7.197-20.902 6.083-7.775 14.229-11.667 24.435-11.667 10.505 0 18.896 3.985 25.167 11.953 4.46 5.626 6.728 12.651 6.802 21.066h-55.45c.149 7.16 2.438 13.027 6.862 17.604 4.424 4.576 9.887 6.865 16.387 6.865 3.136 0 6.188-.547 9.156-1.637 2.966-1.089 5.493-2.537 7.571-4.34 2.083-1.803 4.334-4.721 6.751-8.745zm0-16.595c-1.061-4.229-2.598-7.606-4.621-10.137-2.022-2.532-4.698-4.568-8.022-6.122a24.594 24.594 0 0 0-10.489-2.324c-6.051 0-11.25 1.949-15.594 5.835-3.176 2.831-5.578 7.078-7.203 12.743l45.929.005zM506.075 79.739h7.927v11.04c3.171-4.225 6.684-7.394 10.537-9.488 3.853-2.094 8.042-3.144 12.572-3.144 4.608 0 8.695 1.17 12.263 3.509 3.567 2.345 6.202 5.493 7.9 9.458 1.698 3.959 2.552 10.143 2.552 18.52v31.711H551.9v-29.384c0-7.102-.294-11.839-.883-14.221-.921-4.075-2.685-7.14-5.288-9.2-2.605-2.059-6.004-3.09-10.194-3.09-4.796 0-9.093 1.589-12.89 4.76-3.794 3.171-6.297 7.101-7.503 11.782-.755 3.055-1.133 8.642-1.133 16.766v22.592h-7.927V79.737l-.007.002zM579.566 54.363c1.806 0 3.345.646 4.621 1.926 1.279 1.282 1.919 2.833 1.919 4.642 0 1.781-.643 3.309-1.919 4.589-1.278 1.286-2.815 1.925-4.621 1.925-1.768 0-3.292-.637-4.565-1.925-1.279-1.281-1.917-2.809-1.917-4.589 0-1.813.638-3.358 1.917-4.642 1.273-1.279 2.797-1.926 4.565-1.926zm-3.938 25.376h7.929v61.615h-7.929V79.739zM600.04 79.739h7.926v11.04c3.171-4.225 6.684-7.394 10.534-9.488 3.855-2.094 8.043-3.144 12.574-3.144 4.606 0 8.693 1.17 12.267 3.509 3.566 2.345 6.201 5.493 7.901 9.458 1.699 3.959 2.546 10.143 2.546 18.52v31.711h-7.926v-29.384c0-7.102-.292-11.839-.883-14.221-.923-4.075-2.684-7.14-5.288-9.2-2.606-2.059-6-3.09-10.195-3.09-4.795 0-9.093 1.589-12.89 4.76-3.794 3.171-6.297 7.101-7.504 11.782-.753 3.055-1.133 8.642-1.133 16.766v22.592h-7.926l-.003-61.611zM723.903 79.739h7.93v49.108c0 8.646-.756 14.971-2.266 18.976-2.082 5.663-5.684 10.021-10.82 13.081-5.133 3.058-11.303 4.592-18.518 4.592-5.287 0-10.035-.75-14.242-2.245-4.207-1.499-7.639-3.5-10.283-6.021-2.637-2.518-5.076-6.204-7.311-11.047h8.615c2.338 4.075 5.367 7.101 9.074 9.068 3.705 1.964 8.297 2.938 13.773 2.938 5.416 0 9.973-1.009 13.695-3.019 3.725-2.015 6.387-4.546 7.971-7.592 1.584-3.048 2.379-7.965 2.379-14.758v-3.173c-2.984 3.771-6.646 6.673-10.941 8.694-4.313 2.021-8.887 3.028-13.723 3.028-5.666 0-11.004-1.409-15.988-4.224-4.988-2.809-8.846-6.597-11.561-11.355-2.721-4.753-4.082-9.984-4.082-15.688 0-5.701 1.414-11.019 4.246-15.943 2.838-4.922 6.758-8.821 11.768-11.693 5.012-2.87 10.293-4.303 15.848-4.303 4.609 0 8.904.956 12.902 2.858 3.984 1.909 7.83 5.055 11.531 9.437v-10.72h.003zm-23.393 6.059c-4.49 0-8.658 1.084-12.518 3.26-3.867 2.169-6.869 5.17-9.064 8.998-2.189 3.836-3.295 7.979-3.295 12.433 0 6.76 2.273 12.351 6.801 16.768 4.529 4.417 10.4 6.628 17.609 6.628 7.299 0 13.164-2.188 17.59-6.566 4.439-4.385 6.66-10.144 6.66-17.274 0-4.646-1.016-8.791-3.059-12.436-2.039-3.642-4.924-6.516-8.664-8.635-3.736-2.121-7.755-3.176-12.06-3.176zM787.848 56.853h7.93v22.884h12.566v6.857h-12.566v54.774h-7.93V86.59h-10.82v-6.854h10.82V56.853zM849.411 78.152c9.492 0 17.367 3.434 23.604 10.311 5.68 6.273 8.516 13.687 8.516 22.259 0 8.613-2.994 16.139-8.982 22.574-6.01 6.438-13.705 9.656-23.133 9.656-9.453 0-17.178-3.22-23.17-9.656-5.998-6.437-8.992-13.961-8.992-22.574 0-8.528 2.838-15.933 8.506-22.198 6.235-6.917 14.121-10.372 23.651-10.372zm-.028 7.757c-6.594 0-12.26 2.436-16.99 7.309-4.74 4.875-7.119 10.766-7.119 17.674 0 4.459 1.088 8.614 3.244 12.459 2.154 3.854 5.074 6.826 8.75 8.919 3.68 2.097 7.709 3.146 12.104 3.146 4.396 0 8.428-1.056 12.104-3.146 3.68-2.097 6.596-5.073 8.76-8.919 2.156-3.854 3.23-8.002 3.23-12.459 0-6.909-2.375-12.801-7.129-17.674-4.751-4.872-10.397-7.309-16.954-7.309zM929.553 58.046h16.6c9.516 0 15.932.417 19.256 1.248 4.758 1.17 8.646 3.581 11.668 7.217 3.023 3.649 4.529 8.225 4.529 13.733 0 5.55-1.465 10.135-4.416 13.734-2.947 3.605-7.002 6.03-12.184 7.28-3.773.908-10.832 1.359-21.182 1.359h-5.947v38.738h-8.332V58.046h.008zm8.324 8.152v28.264l14.105.168c5.705 0 9.877-.518 12.521-1.554 2.646-1.035 4.719-2.706 6.225-5.028 1.521-2.317 2.273-4.91 2.273-7.775 0-2.789-.756-5.342-2.273-7.658-1.506-2.319-3.492-3.967-5.979-4.948-2.467-.98-6.518-1.468-12.146-1.468h-14.726v-.001zM1058.35 79.739v61.615h-7.816V130.77c-3.326 4.042-7.055 7.079-11.188 9.118-4.135 2.04-8.654 3.053-13.57 3.053-8.725 0-16.166-3.154-22.352-9.481-6.168-6.322-9.252-14.018-9.252-23.08 0-8.873 3.115-16.457 9.346-22.769 6.23-6.301 13.727-9.453 22.484-9.453 5.061 0 9.643 1.073 13.736 3.229 4.098 2.152 7.693 5.379 10.785 9.688V79.753l7.827-.014zm-31.683 6.059c-4.418 0-8.49 1.084-12.227 3.251-3.73 2.173-6.703 5.216-8.902 9.137-2.209 3.922-3.322 8.068-3.322 12.441 0 4.341 1.113 8.493 3.34 12.444 2.227 3.959 5.211 7.046 8.965 9.254 3.754 2.206 7.781 3.311 12.086 3.311 4.338 0 8.455-1.095 12.334-3.279 3.885-2.188 6.871-5.147 8.969-8.889 2.096-3.731 3.143-7.938 3.143-12.616 0-7.129-2.348-13.085-7.043-17.877-4.709-4.784-10.486-7.177-17.343-7.177zM1073.19 79.739h8.1v9.003c2.424-3.547 4.973-6.198 7.648-7.962 2.688-1.754 5.477-2.632 8.379-2.632 2.195 0 4.535.701 7.025 2.096l-4.133 6.687c-1.658-.713-3.055-1.076-4.193-1.076-2.641 0-5.186 1.084-7.646 3.254-2.449 2.173-4.326 5.543-5.607 10.108-.982 3.511-1.473 10.614-1.473 21.302v20.841h-8.1V79.739zM1162.956 120.913l6.691 3.512c-2.191 4.303-4.725 7.777-7.6 10.416-2.877 2.646-6.098 4.652-9.693 6.034-3.594 1.375-7.656 2.069-12.188 2.069-10.055 0-17.912-3.295-23.59-9.881-5.666-6.589-8.498-14.037-8.498-22.347 0-7.817 2.4-14.781 7.197-20.902 6.088-7.775 14.232-11.667 24.428-11.667 10.512 0 18.904 3.985 25.186 11.953 4.451 5.626 6.729 12.651 6.805 21.066h-55.451c.148 7.16 2.439 13.027 6.865 17.604 4.422 4.576 9.891 6.865 16.389 6.865 3.139 0 6.186-.547 9.162-1.637 2.967-1.089 5.486-2.537 7.572-4.34 2.072-1.803 4.303-4.721 6.725-8.745zm0-16.595c-1.053-4.229-2.598-7.606-4.623-10.137-2.006-2.532-4.695-4.568-8.018-6.122a24.598 24.598 0 0 0-10.496-2.324c-6.037 0-11.238 1.949-15.59 5.835-3.18 2.831-5.578 7.078-7.207 12.743l45.934.005zM1186.463 79.739h7.932v11.04c3.168-4.225 6.688-7.394 10.531-9.488 3.854-2.094 8.039-3.144 12.574-3.144 4.609 0 8.689 1.17 12.264 3.509 3.57 2.343 6.203 5.493 7.9 9.458 1.703 3.959 2.545 10.143 2.545 18.52v31.711h-7.922v-29.384c0-7.102-.297-11.839-.881-14.221-.926-4.075-2.686-7.14-5.291-9.2-2.605-2.059-5.996-3.09-10.195-3.09-4.797 0-9.092 1.589-12.896 4.76-3.797 3.171-6.285 7.101-7.498 11.782-.752 3.055-1.127 8.642-1.127 16.766v22.592h-7.939V79.74h.003v-.001zM1264.112 56.853h7.926v22.884h12.574v6.857h-12.574v54.774h-7.926V86.59h-10.816v-6.854h10.816V56.853zM1327.489 86.478l-5.092 5.269c-4.238-4.118-8.387-6.175-12.432-6.175-2.574 0-4.793.85-6.611 2.552-1.838 1.699-2.76 3.677-2.76 5.946 0 2.001.756 3.906 2.27 5.723 1.516 1.851 4.697 4.021 9.537 6.51 5.893 3.058 9.912 6.003 12.029 8.838 2.08 2.874 3.119 6.098 3.119 9.688 0 5.063-1.775 9.347-5.328 12.857-3.563 3.505-8.006 5.269-13.334 5.269-3.553 0-6.943-.781-10.188-2.321-3.234-1.55-5.91-3.68-8.027-6.401l4.984-5.663c4.055 4.565 8.35 6.854 12.898 6.854 3.178 0 5.887-1.018 8.113-3.055 2.23-2.041 3.344-4.438 3.344-7.195 0-2.267-.738-4.286-2.209-6.066-1.477-1.73-4.807-3.924-9.986-6.563-5.561-2.872-9.35-5.705-11.355-8.5-2.004-2.791-3.012-5.984-3.012-9.569 0-4.679 1.605-8.568 4.797-11.667 3.203-3.097 7.236-4.647 12.115-4.647 5.671-.01 11.38 2.763 17.128 8.316z"/></g><linearGradient id="a" gradientUnits="userSpaceOnUse" x1="-39.574" y1="150.284" x2="193.509" y2="150.284" gradientTransform="translate(35.818 -67.4) scale(.9051)"><stop offset=".2" stop-color="#0092d4"/><stop offset=".8" stop-color="#133478"/></linearGradient><path fill="url(#a)" stroke="#FFF" stroke-width="2.557" stroke-linecap="round" stroke-linejoin="round" stroke-miterlimit="10" d="M210.963 105.475C210.963 47.217 163.735 0 105.48 0S0 47.217 0 105.475c0 0 5.418-12.802 24.023-11.636 12.216-24.424 26.146-8.338 26.146-8.338s16.594-15.385 24.156-.848c25.009-6.39 30.242 27.071 30.242 27.071s20.065 31.545 29.36 15.267c14.012-24.741-22.773-60.485-22.773-60.485s36.083 33.94 22.773 60.485c13.521 23.903 25.225-1.484 25.225-1.484s6.456-43.188-39.174-78.769c48.913 37.312 38.459 84.235 38.459 84.235s22.018 17.528 27.831-16.195c-2.494-58.45-47.109-81.065-47.109-81.065s43.186 20.067 46.935 81.99c1.747.001 19.164 9.127 24.869-10.228z"/><linearGradient id="b" gradientUnits="userSpaceOnUse" x1="-39.574" y1="233.421" x2="193.509" y2="233.421" gradientTransform="translate(35.818 -67.4) scale(.9051)"><stop offset=".2" stop-color="#133478"/><stop offset=".8" stop-color="#0092d4"/></linearGradient><path fill="url(#b)" stroke="#FFF" stroke-width="2.557" stroke-linecap="round" stroke-linejoin="round" stroke-miterlimit="10" d="M0 107.128c0 58.25 47.225 105.471 105.48 105.471s105.483-47.221 105.483-105.471c0 0-5.419 12.799-24.023 11.634-12.217 24.422-28.499 12.21-28.499 12.21s-17.443 12.79-25.006-1.744c-25.004 6.401-33.623-30.24-33.623-30.24s-13.48-29.65-22.78-13.37c-14.005 24.729 22.78 60.478 22.78 60.478s-36.092-33.939-22.78-60.48c-13.518-23.902-26.168.581-26.168.581s-10.267 42.034 40.119 79.675c-48.91-37.313-40.119-79.675-40.119-79.675s-20.354-22.1-26.167 11.635c2.494 58.443 47.105 81.063 47.105 81.063S28.617 158.83 24.871 96.899C23.12 96.896 5.708 87.776 0 107.128z"/></svg>