<svg xmlns="http://www.w3.org/2000/svg" width="1156" height="284.7" viewBox="0 0 1156 284.7"><radialGradient id="a" cx="743.89" cy="136.536" r="45.201" gradientTransform="translate(-986.756 -244.64) scale(2.7117)" gradientUnits="userSpaceOnUse"><stop offset="0" stop-color="#fff"/><stop offset=".149" stop-color="#fef9f9"/><stop offset=".345" stop-color="#fce9ea"/><stop offset=".566" stop-color="#f9cecf"/><stop offset=".805" stop-color="#f4a8ab"/><stop offset="1" stop-color="#ef8488"/></radialGradient><circle fill-rule="evenodd" clip-rule="evenodd" fill="url(#a)" cx="1030.4" cy="125.6" r="122.6"/><path fill="#E40646" d="M186.7 154.6c-3.8 2.4-7.9 3.6-12.1 3.6s-7.5-1.3-9.9-3.8c-2.3-2.5-3.8-6.8-4.4-12.8L152.9 28l-45.1 120.3c-1.6 4.5-4.7 6.8-9.4 6.8s-7.8-2.3-9.4-6.8L44.7 28l-7.4 113c-.4 6.1-1.6 10.5-3.6 13.3-2 2.8-5.2 4.1-9.8 4.1-4.5 0-8.6-1.8-12.3-5.5 2.8-2.4 4.5-6.7 4.9-13L25.4 20v-2.3c0-4.7-1.1-8.4-3.4-11.1C28.1 3 34.5 1.2 41.1 1.2c6.7 0 11.8 1.8 15.5 5.5 3.7 3.7 6.8 9.5 9.4 17.4l34.2 92.4 35.3-92c2.8-8.8 6.4-14.9 10.7-18.3 4.3-3.4 9.5-5.1 15.4-5.1 6 0 11.5 1.3 16.6 3.8-2.3 3.1-3.4 7-3.4 11.7v2.3l8.3 120.5c.3 7.5 1.5 12.5 3.6 15.2zM298.5 81.1v54c0 7.9 3.5 12.6 10.6 14-3.5 6.2-9 9.4-16.4 9.4-9.5 0-14.9-5.3-16.4-15.9-8.2 10.6-19.2 15.9-32.9 15.9-9.1 0-16.4-2.4-22.1-7.2-5.7-4.8-8.5-11.5-8.5-20 0-10.5 5.4-18.9 16.2-25.4 10.8-6.4 26.5-10 47.2-10.5V80.5c0-7.6-1.4-13.3-4.1-16.9-2.8-3.6-7-5.4-12.8-5.4-5.7 0-10.1 1.2-13.1 3.7s-4.5 5.5-4.5 8.9c0 3.5 1 6.3 3 8.4-3.5 3.1-7.7 4.7-12.3 4.7s-8.3-1.2-10.9-3.5c-2.6-2.3-3.9-5.6-3.9-9.7 0-7.1 4.1-13 12.3-17.9 8.2-4.8 18.2-7.2 29.9-7.2s21.1 3 28.2 9.1c6.9 6.1 10.5 14.9 10.5 26.4zm-61.7 47.8c0 9.1 5 13.6 14.9 13.6s18.1-4.2 24.4-12.5v-24c-13.5.7-23.4 3.2-29.8 7.3-6.3 4.2-9.5 9.4-9.5 15.6zM413 81.1v54c0 7.9 3.5 12.6 10.6 14-3.5 6.2-9 9.4-16.4 9.4-9.5 0-14.9-5.3-16.4-15.9-8.2 10.6-19.2 15.9-32.9 15.9-9.1 0-16.4-2.4-22.1-7.2-5.7-4.8-8.5-11.5-8.5-20 0-10.5 5.4-18.9 16.2-25.4 10.8-6.4 26.5-10 47.2-10.5V80.5c0-7.6-1.4-13.3-4.1-16.9-2.8-3.6-7-5.4-12.8-5.4-5.7 0-10.1 1.2-13.1 3.7s-4.5 5.5-4.5 8.9c0 3.5 1 6.3 3 8.4-3.5 3.1-7.7 4.7-12.3 4.7s-8.3-1.2-10.9-3.5c-2.6-2.3-3.9-5.6-3.9-9.7 0-7.1 4.1-13 12.3-17.9 8.2-4.8 18.2-7.2 29.9-7.2s21.1 3 28.2 9.1c7 6.1 10.5 14.9 10.5 26.4zm-61.6 47.8c0 9.1 5 13.6 14.9 13.6s18.1-4.2 24.4-12.5v-24c-13.5.7-23.4 3.2-29.8 7.3-6.3 4.2-9.5 9.4-9.5 15.6zM472.7 63.3v64.4c0 5.1 1 8.7 2.9 10.9 1.9 2.2 5.1 3.3 9.5 3.3 8.6 0 16.6-3.6 23.8-10.8 3.1.6 4.7 3.1 4.7 7.7 0 4.5-3.2 9-9.7 13.3-6.4 4.3-14.4 6.5-23.8 6.5s-16.7-2.4-21.9-7.3-7.8-12.1-7.8-21.8V63.3c-5.8-.1-10.1-1.1-12.8-2.9-2.7-1.8-4-4.1-4-6.9 0-2.8 1.1-5 3.2-6.6 4 .6 7.7.9 11.3.9h2.3v-14c0-5.1-2-8.5-5.9-10.2 3.4-5 7.9-7.4 13.4-7.4 9.9 0 14.9 6 14.9 17.9v13.8h34.4c.8 1.3 1.3 2.5 1.3 3.8 0 7.8-11 11.7-33.2 11.7h-2.6z"/><path fill="#253A8E" d="M661.7 18.8v122c0 5.2 1.9 8.6 5.7 10.2-3.7 5-8.2 7.4-13.6 7.4-9.6 0-14.5-5.9-14.5-17.9V87.3h-77.8v53.6c0 5.1 1.9 8.5 5.7 10.2-3.4 5-7.9 7.4-13.6 7.4-9.6 0-14.5-5.9-14.5-17.9v-122c0-5-1.9-8.3-5.7-10 3.3-5 7.7-7.4 13.4-7.4 9.8 0 14.7 5.9 14.7 17.6v52.7h77.8V18.6c0-5-1.9-8.3-5.7-10 3.3-5 7.7-7.4 13.4-7.4 9.8 0 14.7 5.9 14.7 17.6zM799 158.5c-4.8 0-8.8-1.2-12-3.5-3.2-2.3-7-6.8-11.4-13.3l-32.1-46.8h-17.4v45.9c0 5.1 2 8.5 5.9 10.2-3.7 5-8.3 7.4-13.8 7.4-9.6 0-14.5-5.9-14.5-17.9V21.4c0-5.1-1.9-8.5-5.7-10.2 4-5.5 9.8-8.3 17.6-8.3h34.2c16.7 0 30.4 4.1 41.1 12.2 10.7 8.1 16 19.4 16 33.9 0 11.5-3.5 21-10.4 28.5s-16.2 12.6-27.8 15.3l31.9 43.6c4.1 5.7 9 9.1 14.7 10.2-3.8 7.9-9.3 11.9-16.3 11.9zM726.1 19.9v58.2h23c11.3 0 19.9-2.5 25.8-7.5 5.9-5 8.8-12.1 8.8-21.4 0-9.2-2.9-16.4-8.8-21.6-5.9-5.2-14.5-7.8-25.8-7.8h-23zM863.8 18.8v122c0 5.1 1.9 8.5 5.7 10.2-3.4 5-7.9 7.4-13.6 7.4-9.6 0-14.5-5.9-14.5-17.9v-122c0-5-1.9-8.3-5.7-10 3.3-5 7.7-7.4 13.4-7.4 9.8.1 14.7 6 14.7 17.7z"/><g fill="#253A8E"><path d="M1.7 225.3v-35.1h7L17 215c.8 2.3 1.3 4 1.7 5.2.4-1.3 1-3.2 1.9-5.6l8.4-24.4h6.2v35.1h-4.5v-29.4l-10.2 29.4h-4.2L6.2 195.4v29.9H1.7zM59.2 222.1c-1.6 1.4-3.1 2.3-4.6 2.9-1.5.6-3.1.8-4.7.8-2.8 0-4.9-.7-6.4-2-1.5-1.4-2.2-3.1-2.2-5.2 0-1.2.3-2.4.8-3.4.6-1 1.3-1.9 2.2-2.5.9-.6 1.9-1.1 3.1-1.4.8-.2 2.1-.4 3.8-.6 3.5-.4 6-.9 7.7-1.5v-1.1c0-1.8-.4-3-1.2-3.7-1.1-1-2.7-1.5-4.9-1.5-2 0-3.5.4-4.5 1.1-1 .7-1.7 2-2.1 3.8l-4.2-.6c.4-1.8 1-3.3 1.9-4.4.9-1.1 2.1-2 3.8-2.6 1.7-.6 3.6-.9 5.8-.9 2.2 0 3.9.3 5.3.8s2.4 1.2 3 1.9c.6.8 1.1 1.7 1.3 2.9.1.7.2 2.1.2 4v5.7c0 4 .1 6.5.3 7.6.2 1.1.5 2.1 1.1 3h-4.5c-.6-.8-.9-1.9-1-3.1zm-.4-9.6c-1.6.6-3.9 1.2-7 1.6-1.8.3-3 .5-3.8.9-.7.3-1.3.8-1.7 1.4-.4.6-.6 1.3-.6 2 0 1.1.4 2.1 1.3 2.9.9.8 2.1 1.1 3.8 1.1 1.7 0 3.1-.4 4.4-1.1 1.3-.7 2.2-1.7 2.8-3 .5-1 .7-2.4.7-4.3v-1.5zM79.8 221.4l.6 3.8c-1.2.3-2.3.4-3.3.4-1.6 0-2.8-.2-3.6-.7-.9-.5-1.5-1.1-1.8-1.9-.4-.8-.5-2.5-.5-5.1v-14.6H68V200h3.2v-6.3l4.3-2.6v8.9h4.3v3.3h-4.3v14.9c0 1.2.1 2 .2 2.4.2.3.4.6.7.8.3.2.8.3 1.5.3.5-.1 1.1-.2 1.9-.3zM101.9 217.1l4.4.6c-.7 2.6-2 4.6-3.9 6.1-1.9 1.4-4.3 2.2-7.3 2.2-3.7 0-6.7-1.1-8.8-3.4-2.2-2.3-3.3-5.5-3.3-9.6 0-4.3 1.1-7.6 3.3-10 2.2-2.4 5.1-3.5 8.6-3.5 3.4 0 6.2 1.2 8.3 3.5 2.2 2.3 3.2 5.6 3.2 9.8v1.1H87.5c.2 2.8.9 4.9 2.4 6.4 1.4 1.5 3.2 2.2 5.3 2.2 1.6 0 2.9-.4 4-1.2 1.1-1.1 2-2.4 2.7-4.2zm-14.2-7h14.2c-.2-2.1-.7-3.7-1.6-4.8-1.4-1.7-3.2-2.5-5.3-2.5-2 0-3.6.7-5 2s-2.1 3.1-2.3 5.3zM112.2 225.3v-25.4h3.9v3.9c1-1.8 1.9-3 2.7-3.6.8-.6 1.8-.9 2.8-.9 1.5 0 2.9.5 4.4 1.4l-1.5 4c-1.1-.6-2.1-.9-3.2-.9-.9 0-1.8.3-2.5.8-.7.6-1.3 1.4-1.6 2.4-.5 1.5-.7 3.2-.7 5v13.3h-4.3zM129 225.3v-25.4h3.9v3.6c1.9-2.8 4.6-4.2 8.1-4.2 1.5 0 2.9.3 4.2.8 1.3.6 2.2 1.3 2.9 2.2.6.9 1.1 2 1.3 3.2.2.8.2 2.2.2 4.2v15.6h-4.3v-15.5c0-1.8-.2-3.1-.5-3.9-.3-.9-.9-1.6-1.8-2.1s-1.9-.8-3-.8c-1.8 0-3.4.6-4.7 1.7-1.3 1.2-2 3.4-2 6.6v13.9H129zM173.3 222.1c-1.6 1.4-3.1 2.3-4.6 2.9-1.5.6-3.1.8-4.7.8-2.8 0-4.9-.7-6.4-2-1.5-1.4-2.2-3.1-2.2-5.2 0-1.2.3-2.4.8-3.4.6-1 1.3-1.9 2.2-2.5.9-.6 1.9-1.1 3.1-1.4.8-.2 2.1-.4 3.8-.6 3.5-.4 6-.9 7.7-1.5v-1.1c0-1.8-.4-3-1.2-3.7-1.1-1-2.7-1.5-4.9-1.5-2 0-3.5.4-4.5 1.1-1 .7-1.7 2-2.1 3.8l-4.2-.6c.4-1.8 1-3.3 1.9-4.4.9-1.1 2.1-2 3.8-2.6 1.7-.6 3.6-.9 5.8-.9 2.2 0 3.9.3 5.3.8s2.4 1.2 3 1.9c.6.8 1.1 1.7 1.3 2.9.1.7.2 2.1.2 4v5.7c0 4 .1 6.5.3 7.6.2 1.1.5 2.1 1.1 3h-4.5c-.5-.8-.8-1.9-1-3.1zm-.3-9.6c-1.6.6-3.9 1.2-7 1.6-1.8.3-3 .5-3.8.9-.7.3-1.3.8-1.7 1.4-.4.6-.6 1.3-.6 2 0 1.1.4 2.1 1.3 2.9.9.8 2.1 1.1 3.8 1.1 1.7 0 3.1-.4 4.4-1.1 1.3-.7 2.2-1.7 2.8-3 .5-1 .7-2.4.7-4.3v-1.5zM184.4 225.3v-35.1h4.3v35.1h-4.3zM226.6 222.1c-1.6 1.4-3.1 2.3-4.6 2.9-1.5.6-3.1.8-4.7.8-2.8 0-4.9-.7-6.4-2-1.5-1.4-2.2-3.1-2.2-5.2 0-1.2.3-2.4.8-3.4.6-1 1.3-1.9 2.2-2.5.9-.6 1.9-1.1 3.1-1.4.8-.2 2.1-.4 3.8-.6 3.5-.4 6-.9 7.7-1.5v-1.1c0-1.8-.4-3-1.2-3.7-1.1-1-2.7-1.5-4.9-1.5-2 0-3.5.4-4.5 1.1-1 .7-1.7 2-2.1 3.8l-4.2-.6c.4-1.8 1-3.3 1.9-4.4.9-1.1 2.1-2 3.8-2.6 1.7-.6 3.6-.9 5.8-.9 2.2 0 3.9.3 5.3.8s2.4 1.2 3 1.9c.6.8 1.1 1.7 1.3 2.9.1.7.2 2.1.2 4v5.7c0 4 .1 6.5.3 7.6.2 1.1.5 2.1 1.1 3h-4.5c-.6-.8-.9-1.9-1-3.1zm-.4-9.6c-1.6.6-3.9 1.2-7 1.6-1.8.3-3 .5-3.8.9-.7.3-1.3.8-1.7 1.4-.4.6-.6 1.3-.6 2 0 1.1.4 2.1 1.3 2.9.9.8 2.1 1.1 3.8 1.1 1.7 0 3.1-.4 4.4-1.1 1.3-.7 2.2-1.7 2.8-3 .5-1 .7-2.4.7-4.3v-1.5zM237.7 225.3v-25.4h3.9v3.6c1.9-2.8 4.6-4.2 8.1-4.2 1.5 0 2.9.3 4.2.8 1.3.6 2.2 1.3 2.9 2.2s1.1 2 1.3 3.2c.2.8.2 2.2.2 4.2v15.6H254v-15.5c0-1.8-.2-3.1-.5-3.9-.3-.9-.9-1.6-1.8-2.1s-1.9-.8-3-.8c-1.8 0-3.4.6-4.7 1.7-1.3 1.2-2 3.4-2 6.6v13.9h-4.3zM282 225.3v-3.2c-1.6 2.5-4 3.8-7.1 3.8-2 0-3.9-.6-5.6-1.7-1.7-1.1-3-2.7-3.9-4.7-.9-2-1.4-4.3-1.4-6.9 0-2.5.4-4.8 1.3-6.9.8-2.1 2.1-3.6 3.8-4.7 1.7-1.1 3.6-1.7 5.7-1.7 1.5 0 2.9.3 4.1 1 1.2.6 2.2 1.5 2.9 2.5v-12.6h4.3v35.1H282zm-13.7-12.7c0 3.3.7 5.7 2.1 7.3 1.4 1.6 3 2.4 4.9 2.4 1.9 0 3.5-.8 4.8-2.3 1.3-1.5 2-3.9 2-7 0-3.5-.7-6-2-7.7-1.3-1.6-3-2.4-5-2.4-1.9 0-3.5.8-4.8 2.3-1.3 1.6-2 4-2 7.4zM307.3 235v-35.1h3.9v3.3c.9-1.3 2-2.3 3.1-2.9 1.2-.6 2.6-1 4.2-1 2.2 0 4.1.6 5.7 1.7 1.7 1.1 2.9 2.7 3.8 4.7.8 2 1.3 4.3 1.3 6.7 0 2.6-.5 4.9-1.4 7-.9 2.1-2.3 3.7-4.1 4.8-1.8 1.1-3.6 1.7-5.6 1.7-1.4 0-2.7-.3-3.9-.9-1.1-.6-2.1-1.4-2.8-2.3V235h-4.2zm3.9-22.3c0 3.3.7 5.7 2 7.3 1.3 1.6 2.9 2.3 4.8 2.3s3.6-.8 4.9-2.4c1.4-1.6 2-4.1 2-7.5 0-3.2-.7-5.7-2-7.3-1.3-1.6-2.9-2.4-4.8-2.4-1.8 0-3.5.9-4.9 2.6-1.3 1.7-2 4.1-2 7.4zM352.5 217.1l4.4.6c-.7 2.6-2 4.6-3.9 6.1-1.9 1.4-4.3 2.2-7.3 2.2-3.7 0-6.7-1.1-8.8-3.4-2.2-2.3-3.3-5.5-3.3-9.6 0-4.3 1.1-7.6 3.3-10 2.2-2.4 5.1-3.5 8.6-3.5 3.4 0 6.2 1.2 8.3 3.5 2.2 2.3 3.2 5.6 3.2 9.8v1.1h-18.9c.2 2.8.9 4.9 2.4 6.4 1.4 1.5 3.2 2.2 5.3 2.2 1.6 0 2.9-.4 4-1.2 1.1-1.1 2-2.4 2.7-4.2zm-14.2-7h14.2c-.2-2.1-.7-3.7-1.6-4.8-1.4-1.7-3.2-2.5-5.3-2.5-2 0-3.6.7-5 2s-2.1 3.1-2.3 5.3zM362.8 225.3v-25.4h3.9v3.9c1-1.8 1.9-3 2.7-3.6.8-.6 1.8-.9 2.8-.9 1.5 0 2.9.5 4.4 1.4l-1.5 4c-1.1-.6-2.1-.9-3.2-.9-.9 0-1.8.3-2.5.8-.7.6-1.3 1.4-1.6 2.4-.5 1.5-.7 3.2-.7 5v13.3h-4.3zM379.6 195.2v-5h4.3v5h-4.3zm0 30.1v-25.4h4.3v25.4h-4.3zM391 225.3v-25.4h3.9v3.6c1.9-2.8 4.6-4.2 8.1-4.2 1.5 0 2.9.3 4.2.8s2.2 1.3 2.9 2.2 1.1 2 1.3 3.2c.2.8.2 2.2.2 4.2v15.6h-4.3v-15.5c0-1.8-.2-3.1-.5-3.9-.3-.9-.9-1.6-1.8-2.1s-1.9-.8-3-.8c-1.8 0-3.4.6-4.7 1.7-1.3 1.2-2 3.4-2 6.6v13.9H391zM435.3 222.1c-1.6 1.4-3.1 2.3-4.6 2.9-1.5.6-3.1.8-4.7.8-2.8 0-4.9-.7-6.4-2-1.5-1.4-2.2-3.1-2.2-5.2 0-1.2.3-2.4.8-3.4.6-1 1.3-1.9 2.2-2.5.9-.6 1.9-1.1 3.1-1.4.8-.2 2.1-.4 3.8-.6 3.5-.4 6-.9 7.7-1.5v-1.1c0-1.8-.4-3-1.2-3.7-1.1-1-2.7-1.5-4.9-1.5-2 0-3.5.4-4.5 1.1-1 .7-1.7 2-2.1 3.8l-4.2-.6c.4-1.8 1-3.3 1.9-4.4.9-1.1 2.1-2 3.8-2.6 1.7-.6 3.6-.9 5.8-.9 2.2 0 3.9.3 5.3.8s2.4 1.2 3 1.9c.6.8 1.1 1.7 1.3 2.9.1.7.2 2.1.2 4v5.7c0 4 .1 6.5.3 7.6.2 1.1.5 2.1 1.1 3h-4.5c-.6-.8-.9-1.9-1-3.1zm-.3-9.6c-1.6.6-3.9 1.2-7 1.6-1.8.3-3 .5-3.8.9-.7.3-1.3.8-1.7 1.4-.4.6-.6 1.3-.6 2 0 1.1.4 2.1 1.3 2.9.9.8 2.1 1.1 3.8 1.1 1.7 0 3.1-.4 4.4-1.1 1.3-.7 2.2-1.7 2.8-3 .5-1 .7-2.4.7-4.3v-1.5zM455.9 221.4l.6 3.8c-1.2.3-2.3.4-3.3.4-1.6 0-2.8-.2-3.6-.7-.9-.5-1.5-1.1-1.8-1.9-.4-.8-.5-2.5-.5-5.1v-14.6h-3.2V200h3.2v-6.3l4.3-2.6v8.9h4.3v3.3h-4.3v14.9c0 1.2.1 2 .2 2.4.1.3.4.6.7.8.3.2.8.3 1.5.3.5-.1 1.1-.2 1.9-.3zM477.2 222.1c-1.6 1.4-3.1 2.3-4.6 2.9-1.5.6-3.1.8-4.7.8-2.8 0-4.9-.7-6.4-2-1.5-1.4-2.2-3.1-2.2-5.2 0-1.2.3-2.4.8-3.4.6-1 1.3-1.9 2.2-2.5.9-.6 2-1.1 3.1-1.4.8-.2 2.1-.4 3.8-.6 3.5-.4 6-.9 7.7-1.5v-1.1c0-1.8-.4-3-1.2-3.7-1.1-1-2.7-1.5-4.9-1.5-2 0-3.5.4-4.5 1.1-1 .7-1.7 2-2.1 3.8l-4.2-.6c.4-1.8 1-3.3 1.9-4.4.9-1.1 2.1-2 3.8-2.6 1.7-.6 3.6-.9 5.8-.9 2.2 0 3.9.3 5.3.8s2.4 1.2 3 1.9c.6.8 1.1 1.7 1.3 2.9.1.7.2 2.1.2 4v5.7c0 4 .1 6.5.3 7.6.2 1.1.5 2.1 1.1 3H478c-.4-.8-.7-1.9-.8-3.1zm-.4-9.6c-1.6.6-3.9 1.2-7 1.6-1.8.3-3 .5-3.8.9-.7.3-1.3.8-1.7 1.4-.4.6-.6 1.3-.6 2 0 1.1.4 2.1 1.3 2.9.9.8 2.1 1.1 3.8 1.1 1.7 0 3.1-.4 4.4-1.1 1.3-.7 2.2-1.7 2.8-3 .5-1 .7-2.4.7-4.3v-1.5zM488.2 225.3v-35.1h4.3v35.1h-4.3zM514.5 225.3v-35.1h4.6v14.4h18.2v-14.4h4.6v35.1h-4.6v-16.5h-18.2v16.5h-4.6zM567.1 217.1l4.5.6c-.7 2.6-2 4.6-3.9 6.1-1.9 1.4-4.3 2.2-7.3 2.2-3.7 0-6.7-1.1-8.8-3.4-2.2-2.3-3.3-5.5-3.3-9.6 0-4.3 1.1-7.6 3.3-10 2.2-2.4 5.1-3.5 8.6-3.5 3.4 0 6.2 1.2 8.3 3.5 2.2 2.3 3.2 5.6 3.2 9.8v1.1h-18.9c.2 2.8.9 4.9 2.4 6.4 1.4 1.5 3.2 2.2 5.3 2.2 1.6 0 2.9-.4 4-1.2 1-1.1 1.9-2.4 2.6-4.2zm-14.2-7h14.2c-.2-2.1-.7-3.7-1.6-4.8-1.4-1.7-3.2-2.5-5.3-2.5-2 0-3.6.7-5 2s-2.1 3.1-2.3 5.3zM594 222.1c-1.6 1.4-3.1 2.3-4.6 2.9s-3.1.8-4.7.8c-2.8 0-4.9-.7-6.4-2-1.5-1.4-2.2-3.1-2.2-5.2 0-1.2.3-2.4.8-3.4.6-1 1.3-1.9 2.2-2.5.9-.6 2-1.1 3.1-1.4.8-.2 2.1-.4 3.8-.6 3.5-.4 6-.9 7.7-1.5v-1.1c0-1.8-.4-3-1.2-3.7-1.1-1-2.7-1.5-4.9-1.5-2 0-3.5.4-4.5 1.1-1 .7-1.7 2-2.1 3.8l-4.2-.6c.4-1.8 1-3.3 1.9-4.4.9-1.1 2.1-2 3.8-2.6 1.7-.6 3.6-.9 5.8-.9 2.2 0 3.9.3 5.3.8s2.4 1.2 3 1.9c.6.8 1.1 1.7 1.3 2.9.1.7.2 2.1.2 4v5.7c0 4 .1 6.5.3 7.6.2 1.1.5 2.1 1.1 3H595c-.6-.8-.9-1.9-1-3.1zm-.3-9.6c-1.6.6-3.9 1.2-7 1.6-1.8.3-3 .5-3.8.9-.7.3-1.3.8-1.7 1.4-.4.6-.6 1.3-.6 2 0 1.1.4 2.1 1.3 2.9.9.8 2.1 1.1 3.8 1.1 1.7 0 3.1-.4 4.4-1.1 1.3-.7 2.2-1.7 2.8-3 .5-1 .7-2.4.7-4.3v-1.5zM605.1 225.3v-35.1h4.3v35.1h-4.3zM625.9 221.4l.6 3.8c-1.2.3-2.3.4-3.3.4-1.6 0-2.8-.2-3.6-.7-.9-.5-1.5-1.1-1.8-1.9-.4-.8-.5-2.5-.5-5.1v-14.6h-3.2V200h3.2v-6.3l4.3-2.6v8.9h4.3v3.3h-4.3v14.9c0 1.2.1 2 .2 2.4.1.3.4.6.7.8.3.2.8.3 1.5.3.5-.1 1.2-.2 1.9-.3zM630.6 225.3v-35.1h4.3v12.6c2-2.3 4.5-3.5 7.6-3.5 1.9 0 3.5.4 4.9 1.1 1.4.7 2.4 1.8 3 3.1.6 1.3.9 3.2.9 5.7v16.1H647v-16.1c0-2.2-.5-3.7-1.4-4.7-.9-1-2.3-1.5-4-1.5-1.3 0-2.5.3-3.6 1s-1.9 1.6-2.4 2.7-.7 2.7-.7 4.7v13.9h-4.3zM673.1 225.3v-35.1h15.6c3.1 0 5.5.3 7.1.9s2.9 1.7 3.9 3.3c1 1.6 1.5 3.4 1.5 5.3 0 2.5-.8 4.6-2.4 6.3-1.6 1.7-4.1 2.8-7.5 3.3 1.2.6 2.2 1.2 2.8 1.7 1.4 1.2 2.6 2.8 3.9 4.7l6.1 9.5h-5.8l-4.6-7.3c-1.4-2.1-2.5-3.7-3.3-4.8-.9-1.1-1.7-1.9-2.4-2.3s-1.4-.8-2.1-.9c-.5-.1-1.4-.2-2.6-.2h-5.4v15.6h-4.8zm4.7-19.6h10c2.1 0 3.8-.2 5-.7 1.2-.4 2.1-1.1 2.7-2.1.6-1 .9-2 .9-3.1 0-1.7-.6-3-1.8-4.1-1.2-1.1-3.1-1.6-5.7-1.6h-11.1v11.6zM725.8 217.1l4.5.6c-.7 2.6-2 4.6-3.9 6.1-1.9 1.4-4.3 2.2-7.3 2.2-3.7 0-6.7-1.1-8.8-3.4s-3.3-5.5-3.3-9.6c0-4.3 1.1-7.6 3.3-10 2.2-2.4 5.1-3.5 8.6-3.5 3.4 0 6.2 1.2 8.3 3.5 2.2 2.3 3.2 5.6 3.2 9.8v1.1h-18.9c.2 2.8.9 4.9 2.4 6.4 1.4 1.5 3.2 2.2 5.3 2.2 1.6 0 2.9-.4 4-1.2 1-1.1 1.9-2.4 2.6-4.2zm-14.2-7h14.2c-.2-2.1-.7-3.7-1.6-4.8-1.4-1.7-3.2-2.5-5.3-2.5-2 0-3.6.7-5 2s-2.1 3.1-2.3 5.3zM734.4 217.7l4.3-.7c.2 1.7.9 3 2 3.9 1.1.9 2.6 1.4 4.6 1.4 2 0 3.4-.4 4.4-1.2 1-.8 1.4-1.7 1.4-2.8 0-1-.4-1.7-1.3-2.3-.6-.4-2.1-.9-4.4-1.5-3.2-.8-5.3-1.5-6.6-2.1-1.2-.6-2.1-1.4-2.8-2.4-.6-1-.9-2.2-.9-3.4 0-1.1.3-2.2.8-3.1.5-1 1.2-1.8 2.1-2.4.7-.5 1.6-.9 2.7-1.3 1.2-.3 2.4-.5 3.7-.5 2 0 3.7.3 5.3.9 1.5.6 2.6 1.4 3.3 2.3.7 1 1.2 2.3 1.5 3.9l-4.2.6c-.2-1.3-.7-2.3-1.7-3.1-.9-.7-2.2-1.1-3.9-1.1-2 0-3.4.3-4.2 1-.8.7-1.3 1.4-1.3 2.3 0 .6.2 1.1.5 1.5.4.5.9.8 1.6 1.1.4.2 1.7.5 3.8 1.1 3 .8 5.2 1.5 6.4 2 1.2.5 2.1 1.3 2.8 2.3.7 1 1 2.2 1 3.7 0 1.4-.4 2.8-1.3 4.1-.8 1.3-2 2.2-3.6 2.9-1.6.7-3.4 1-5.4 1-3.3 0-5.8-.7-7.5-2.1-1.5-1.3-2.6-3.3-3.1-6zM778.5 217.1l4.5.6c-.7 2.6-2 4.6-3.9 6.1-1.9 1.4-4.3 2.2-7.3 2.2-3.7 0-6.7-1.1-8.8-3.4s-3.3-5.5-3.3-9.6c0-4.3 1.1-7.6 3.3-10 2.2-2.4 5.1-3.5 8.6-3.5 3.4 0 6.2 1.2 8.3 3.5 2.2 2.3 3.2 5.6 3.2 9.8v1.1h-18.9c.2 2.8.9 4.9 2.4 6.4 1.4 1.5 3.2 2.2 5.3 2.2 1.6 0 2.9-.4 4-1.2 1.1-1.1 1.9-2.4 2.6-4.2zm-14.1-7h14.2c-.2-2.1-.7-3.7-1.6-4.8-1.4-1.7-3.2-2.5-5.3-2.5-2 0-3.6.7-5 2s-2.2 3.1-2.3 5.3zM805.4 222.1c-1.6 1.4-3.1 2.3-4.6 2.9-1.5.6-3.1.8-4.7.8-2.8 0-4.9-.7-6.4-2-1.5-1.4-2.2-3.1-2.2-5.2 0-1.2.3-2.4.8-3.4.6-1 1.3-1.9 2.2-2.5.9-.6 2-1.1 3.1-1.4.8-.2 2.1-.4 3.8-.6 3.5-.4 6-.9 7.7-1.5v-1.1c0-1.8-.4-3-1.2-3.7-1.1-1-2.7-1.5-4.9-1.5-2 0-3.5.4-4.5 1.1-1 .7-1.7 2-2.1 3.8l-4.2-.6c.4-1.8 1-3.3 1.9-4.4.9-1.1 2.1-2 3.8-2.6 1.7-.6 3.6-.9 5.8-.9 2.2 0 3.9.3 5.3.8s2.4 1.2 3 1.9c.6.8 1.1 1.7 1.3 2.9.1.7.2 2.1.2 4v5.7c0 4 .1 6.5.3 7.6.2 1.1.5 2.1 1.1 3h-4.5c-.6-.8-.8-1.9-1-3.1zm-.3-9.6c-1.6.6-3.9 1.2-7 1.6-1.8.3-3 .5-3.8.9-.7.3-1.3.8-1.7 1.4-.4.6-.6 1.3-.6 2 0 1.1.4 2.1 1.3 2.9.9.8 2.1 1.1 3.8 1.1 1.7 0 3.1-.4 4.4-1.1 1.3-.7 2.2-1.7 2.8-3 .5-1 .7-2.4.7-4.3v-1.5zM816.5 225.3v-25.4h3.9v3.9c1-1.8 1.9-3 2.7-3.6.8-.6 1.8-.9 2.8-.9 1.5 0 2.9.5 4.4 1.4l-1.5 4c-1.1-.6-2.1-.9-3.2-.9-.9 0-1.8.3-2.5.8-.7.6-1.3 1.4-1.6 2.4-.5 1.5-.7 3.2-.7 5v13.3h-4.3zM850 216l4.2.6c-.5 2.9-1.6 5.2-3.6 6.9-1.9 1.6-4.2 2.5-7 2.5-3.5 0-6.3-1.1-8.4-3.4-2.1-2.3-3.2-5.5-3.2-9.8 0-2.7.5-5.1 1.4-7.2.9-2.1 2.3-3.6 4.2-4.6 1.9-1 3.9-1.5 6.1-1.5 2.8 0 5 .7 6.8 2.1 1.8 1.4 2.9 3.4 3.4 5.9l-4.2.6c-.4-1.7-1.1-3-2.1-3.9-1-.9-2.2-1.3-3.7-1.3-2.2 0-3.9.8-5.3 2.3-1.4 1.6-2 4-2 7.4 0 3.4.7 5.9 2 7.4s3 2.3 5.1 2.3c1.7 0 3.1-.5 4.2-1.6 1.1-1 1.8-2.6 2.1-4.7zM858.4 225.3v-35.1h4.3v12.6c2-2.3 4.5-3.5 7.6-3.5 1.9 0 3.5.4 4.9 1.1 1.4.7 2.4 1.8 3 3.1.6 1.3.9 3.2.9 5.7v16.1h-4.3v-16.1c0-2.2-.5-3.7-1.4-4.7-.9-1-2.3-1.5-4-1.5-1.3 0-2.5.3-3.6 1s-1.9 1.6-2.4 2.7-.7 2.7-.7 4.7v13.9h-4.3zM17.9 274.8l4.2.6c-.5 2.9-1.6 5.2-3.6 6.9-1.9 1.6-4.2 2.5-7 2.5-3.5 0-6.3-1.1-8.4-3.4-2-2.4-3.1-5.7-3.1-9.9 0-2.7.5-5.1 1.4-7.2.9-2.1 2.3-3.6 4.2-4.6 1.9-1 3.9-1.5 6.1-1.5 2.8 0 5 .7 6.8 2.1 1.8 1.4 2.9 3.4 3.4 5.9l-4.2.6c-.4-1.7-1.1-3-2.1-3.9-1-.9-2.2-1.3-3.7-1.3-2.2 0-3.9.8-5.3 2.3-1.4 1.6-2 4-2 7.4 0 3.4.7 5.9 2 7.4s3 2.3 5.1 2.3c1.7 0 3.1-.5 4.2-1.6 1-.9 1.7-2.5 2-4.6zM24.7 271.4c0-4.7 1.3-8.2 3.9-10.5 2.2-1.9 4.8-2.8 8-2.8 3.5 0 6.3 1.1 8.6 3.4 2.2 2.3 3.3 5.5 3.3 9.5 0 3.3-.5 5.8-1.5 7.7-1 1.9-2.4 3.3-4.3 4.4-1.9 1-3.9 1.6-6.1 1.6-3.6 0-6.4-1.1-8.6-3.4-2.2-2.3-3.3-5.6-3.3-9.9zm4.4 0c0 3.3.7 5.7 2.1 7.3 1.4 1.6 3.2 2.4 5.4 2.4 2.1 0 3.9-.8 5.3-2.4 1.4-1.6 2.1-4.1 2.1-7.4 0-3.1-.7-5.5-2.1-7.1-1.4-1.6-3.2-2.4-5.3-2.4-2.2 0-3.9.8-5.4 2.4-1.4 1.5-2.1 3.9-2.1 7.2zM54 284.1V249h4.3v35.1H54zM65.3 284.1V249h4.3v35.1h-4.3zM93.4 280.9c-1.6 1.4-3.1 2.3-4.6 2.9-1.5.6-3.1.8-4.7.8-2.8 0-4.9-.7-6.4-2-1.5-1.4-2.2-3.1-2.2-5.2 0-1.2.3-2.4.8-3.4.6-1 1.3-1.9 2.2-2.5.9-.6 1.9-1.1 3.1-1.4.8-.2 2.1-.4 3.8-.6 3.5-.4 6-.9 7.7-1.5v-1.1c0-1.8-.4-3-1.2-3.7-1.1-1-2.7-1.5-4.9-1.5-2 0-3.5.4-4.5 1.1-1 .7-1.7 2-2.1 3.8l-4.2-.6c.4-1.8 1-3.3 1.9-4.4.9-1.1 2.1-2 3.8-2.6 1.7-.6 3.6-.9 5.8-.9 2.2 0 3.9.3 5.3.8s2.4 1.2 3 1.9c.6.8 1.1 1.7 1.3 2.9.1.7.2 2.1.2 4v5.7c0 4 .1 6.5.3 7.6.2 1.1.5 2.1 1.1 3h-4.5c-.6-.8-.9-1.9-1-3.1zm-.4-9.6c-1.6.6-3.9 1.2-7 1.6-1.8.3-3 .5-3.8.9-.7.3-1.3.8-1.7 1.4-.4.6-.6 1.3-.6 2 0 1.1.4 2.1 1.3 2.9.9.8 2.1 1.1 3.8 1.1 1.7 0 3.1-.4 4.4-1.1 1.3-.7 2.2-1.7 2.8-3 .5-1 .7-2.4.7-4.3v-1.5zM108.5 284.1h-4V249h4.3v12.5c1.8-2.3 4.1-3.4 7-3.4 1.6 0 3 .3 4.4.9 1.4.6 2.5 1.5 3.4 2.7.9 1.1 1.6 2.5 2.1 4.1.5 1.6.8 3.3.8 5.2 0 4.4-1.1 7.7-3.2 10.1-2.2 2.4-4.7 3.6-7.8 3.6-3 0-5.4-1.3-7.1-3.8v3.2zm0-12.9c0 3 .4 5.2 1.2 6.6 1.4 2.2 3.2 3.3 5.5 3.3 1.9 0 3.5-.8 4.9-2.5 1.4-1.6 2.1-4.1 2.1-7.3 0-3.3-.7-5.8-2-7.3-1.3-1.6-2.9-2.4-4.8-2.4s-3.5.8-4.9 2.5c-1.3 1.6-2 4-2 7.1zM130.7 271.4c0-4.7 1.3-8.2 3.9-10.5 2.2-1.9 4.8-2.8 8-2.8 3.5 0 6.3 1.1 8.6 3.4 2.2 2.3 3.3 5.5 3.3 9.5 0 3.3-.5 5.8-1.5 7.7-1 1.9-2.4 3.3-4.3 4.4-1.9 1-3.9 1.6-6.1 1.6-3.6 0-6.4-1.1-8.6-3.4-2.2-2.3-3.3-5.6-3.3-9.9zm4.4 0c0 3.3.7 5.7 2.1 7.3 1.4 1.6 3.2 2.4 5.4 2.4 2.1 0 3.9-.8 5.3-2.4 1.4-1.6 2.1-4.1 2.1-7.4 0-3.1-.7-5.5-2.1-7.1-1.4-1.6-3.2-2.4-5.3-2.4-2.2 0-3.9.8-5.4 2.4-1.4 1.5-2.1 3.9-2.1 7.2zM160 284.1v-25.4h3.9v3.9c1-1.8 1.9-3 2.7-3.6.8-.6 1.8-.9 2.8-.9 1.5 0 2.9.5 4.4 1.4l-1.5 4c-1.1-.6-2.1-.9-3.2-.9-.9 0-1.8.3-2.5.8-.7.6-1.3 1.4-1.6 2.4-.5 1.5-.7 3.2-.7 5v13.3H160zM193.4 280.9c-1.6 1.4-3.1 2.3-4.6 2.9-1.5.6-3.1.8-4.7.8-2.8 0-4.9-.7-6.4-2-1.5-1.4-2.2-3.1-2.2-5.2 0-1.2.3-2.4.8-3.4.6-1 1.3-1.9 2.2-2.5.9-.6 1.9-1.1 3.1-1.4.8-.2 2.1-.4 3.8-.6 3.5-.4 6-.9 7.7-1.5v-1.1c0-1.8-.4-3-1.2-3.7-1.1-1-2.7-1.5-4.9-1.5-2 0-3.5.4-4.5 1.1-1 .7-1.7 2-2.1 3.8l-4.2-.6c.4-1.8 1-3.3 1.9-4.4.9-1.1 2.1-2 3.8-2.6 1.7-.6 3.6-.9 5.8-.9 2.2 0 3.9.3 5.3.8s2.4 1.2 3 1.9c.6.8 1.1 1.7 1.3 2.9.1.7.2 2.1.2 4v5.7c0 4 .1 6.5.3 7.6.2 1.1.5 2.1 1.1 3h-4.5c-.6-.8-.9-1.9-1-3.1zm-.3-9.6c-1.6.6-3.9 1.2-7 1.6-1.8.3-3 .5-3.8.9-.7.3-1.3.8-1.7 1.4s-.6 1.3-.6 2c0 1.1.4 2.1 1.3 2.9.9.8 2.1 1.1 3.8 1.1 1.7 0 3.1-.4 4.4-1.1 1.3-.7 2.2-1.7 2.8-3 .5-1 .7-2.4.7-4.3v-1.5zM214 280.2l.6 3.8c-1.2.3-2.3.4-3.3.4-1.6 0-2.8-.2-3.6-.7-.9-.5-1.5-1.1-1.8-1.9-.4-.8-.5-2.5-.5-5.1V262h-3.2v-3.3h3.2v-6.3l4.3-2.6v8.9h4.3v3.3h-4.3v14.9c0 1.2.1 2 .2 2.4.2.3.4.6.7.8.3.2.8.3 1.5.3.5 0 1.1-.1 1.9-.2zM218.7 254v-5h4.3v5h-4.3zm0 30.1v-25.4h4.3v25.4h-4.3zM228.5 271.4c0-4.7 1.3-8.2 3.9-10.5 2.2-1.9 4.8-2.8 8-2.8 3.5 0 6.3 1.1 8.6 3.4 2.2 2.3 3.3 5.5 3.3 9.5 0 3.3-.5 5.8-1.5 7.7-1 1.9-2.4 3.3-4.3 4.4-1.9 1-3.9 1.6-6.1 1.6-3.6 0-6.4-1.1-8.6-3.4-2.2-2.3-3.3-5.6-3.3-9.9zm4.4 0c0 3.3.7 5.7 2.1 7.3 1.4 1.6 3.2 2.4 5.4 2.4 2.1 0 3.9-.8 5.3-2.4 1.4-1.6 2.1-4.1 2.1-7.4 0-3.1-.7-5.5-2.1-7.1-1.4-1.6-3.2-2.4-5.3-2.4-2.2 0-3.9.8-5.4 2.4-1.4 1.5-2.1 3.9-2.1 7.2zM257.8 284.1v-25.4h3.9v3.6c1.9-2.8 4.6-4.2 8.1-4.2 1.5 0 2.9.3 4.2.8 1.3.6 2.2 1.3 2.9 2.2.6.9 1.1 2 1.3 3.2.2.8.2 2.2.2 4.2v15.6h-4.3v-15.5c0-1.8-.2-3.1-.5-3.9-.3-.9-.9-1.6-1.8-2.1s-1.9-.8-3-.8c-1.8 0-3.4.6-4.7 1.7-1.3 1.2-2 3.4-2 6.6V284h-4.3zM301 284.1V249h4.6v35.1H301zM313.8 284.1v-25.4h3.9v3.6c1.9-2.8 4.6-4.2 8.1-4.2 1.5 0 2.9.3 4.2.8 1.3.6 2.2 1.3 2.9 2.2.6.9 1.1 2 1.3 3.2.2.8.2 2.2.2 4.2v15.6h-4.3v-15.5c0-1.8-.2-3.1-.5-3.9-.3-.9-.9-1.6-1.8-2.1s-1.9-.8-3-.8c-1.8 0-3.4.6-4.7 1.7-1.3 1.2-2 3.4-2 6.6V284h-4.3zM358 284.1v-3.2c-1.6 2.5-4 3.8-7.1 3.8-2 0-3.9-.6-5.6-1.7-1.7-1.1-3-2.7-3.9-4.7-.9-2-1.4-4.3-1.4-6.9 0-2.5.4-4.8 1.3-6.9.8-2.1 2.1-3.6 3.8-4.7 1.7-1.1 3.6-1.7 5.7-1.7 1.5 0 2.9.3 4.1 1 1.2.6 2.2 1.5 2.9 2.5V249h4.3v35.1H358zm-13.6-12.7c0 3.3.7 5.7 2.1 7.3 1.4 1.6 3 2.4 4.9 2.4 1.9 0 3.5-.8 4.8-2.3 1.3-1.5 2-3.9 2-7 0-3.5-.7-6-2-7.7-1.3-1.6-3-2.4-5-2.4-1.9 0-3.5.8-4.8 2.3-1.4 1.6-2 4-2 7.4zM369.3 254v-5h4.3v5h-4.3zm0 30.1v-25.4h4.3v25.4h-4.3zM397.2 280.9c-1.6 1.4-3.1 2.3-4.6 2.9-1.5.6-3.1.8-4.7.8-2.8 0-4.9-.7-6.4-2-1.5-1.4-2.2-3.1-2.2-5.2 0-1.2.3-2.4.8-3.4.6-1 1.3-1.9 2.2-2.5.9-.6 1.9-1.1 3.1-1.4.8-.2 2.1-.4 3.8-.6 3.5-.4 6-.9 7.7-1.5v-1.1c0-1.8-.4-3-1.2-3.7-1.1-1-2.7-1.5-4.9-1.5-2 0-3.5.4-4.5 1.1-1 .7-1.7 2-2.1 3.8l-4.2-.6c.4-1.8 1-3.3 1.9-4.4.9-1.1 2.1-2 3.8-2.6 1.7-.6 3.6-.9 5.8-.9 2.2 0 3.9.3 5.3.8s2.4 1.2 3 1.9c.6.8 1.1 1.7 1.3 2.9.1.7.2 2.1.2 4v5.7c0 4 .1 6.5.3 7.6.2 1.1.5 2.1 1.1 3h-4.5c-.6-.8-.9-1.9-1-3.1zm-.4-9.6c-1.6.6-3.9 1.2-7 1.6-1.8.3-3 .5-3.8.9s-1.3.8-1.7 1.4-.6 1.3-.6 2c0 1.1.4 2.1 1.3 2.9.9.8 2.1 1.1 3.8 1.1 1.7 0 3.1-.4 4.4-1.1 1.3-.7 2.2-1.7 2.8-3 .5-1 .7-2.4.7-4.3v-1.5z"/></g><g fill="#E84B5E"><path d="M1032.4 3l-2.3 2.1c-.9.9-1.8 1.7-2.7 2.7-7.1 8.5-16.1 24.6-14.5 51.1 1.4 24.4 4.4 31.1 2 39.4-2.3 8.3-14.4 21.8-14.4 21.8s-5.6 7.4 2.1 13.9c7.7 6.5 13.3 5 14.5 11.3 1.3 6.3-1.7 7 .4 16s8.4 18.1 8.4 18.1l2.5 15.4s8.3 14.6 25.7 6.4 33.5-18.3 33.5-18.3 3.4-1.5 7.8-1.2l13.9 38c26.7-22.6 43.6-56.2 43.6-93.9 0-66.9-53.7-121.5-120.5-122.8zM980.5 228.5c-8.7-11-8.4-18.8-8.4-18.8 2.7-2.3 7-4.6 7-4.6l10.4-6.7s3.8-1.7 3.8-6c0-4.4-3.9-7.6-4-11.3-.1-3.7.6-7.1-1.2-9.6 2.7-1.6 4.8-6.3 4.1-8-.7-2.1-2-3.8-6.4-5.3-5.5-1.1-6.7-8.4-6.7-8.4s-1.5-10.6-5.2-16.4c-4.2-5.2-8.5-9.8-18.3-13.2-9.6-3.3-31.1-2.9-48.2 16.5 4.8 56.1 47.2 101.4 101.9 110.6.1-.1-20.1-7.8-28.8-18.8z"/></g><path fill-rule="evenodd" clip-rule="evenodd" fill="#FFF" fill-opacity=".25" d="M1124.1 43.7c.1.2 15.5 20.8 14.5 22.8-.1.3-.3.6-.4.9-.3.8 1.4 5.3 1.2 6.1-.4 1.9 4.8 6.6 4.9 8.4 0 .4.5 2.1.1 3.4-.3 1-1.4 1.6-1.9 1.3-.7-.3-.8-2.1-1.7-4.2-.8-1.9-2.3-1.4-4.1-5.5-.3-.7-1 1-1.6 1-.6 0-.9-1.9-1.2-2.2-.3-.2-.8 1.1-.8 1.2 0 .4.3 1.3.1 2.2-.2.9-1.1 1.6-.8 2.3.2.4.4.9.7 1.3.1.2 4.9-.6 5-.3.5.8.1 2.7-.5 5-.3 1.2.8 1.9 1.5 2.7 2.5 3.1 4.7 6.8 5.2 8.7.2.6.2 2.7.2 3.4 0 .6-.6 2.3-.5 2.9.6 4.5-.6 6.4-1.6 10.5-.5 2-5.9 6.6-6.1 7.1-.3 1 0 3.5-.2 4.5-.4 1.4-.9 2.8-1.8 3.3-.3.1-1.6.1-1.6-.2 0-.5-.2-1.7.1-2.7.3-1.3 1.1-1.5.9-3.6-.2-2.1-2.8.9-2.9.9-1.4 1.5-2.9 6.8.9 11 .7.8 1.6.5 2 1.3 1.4 2.7.7 6.1 1 7.8.3 1.7-3.3 4.1-5.9 8.8-.2.4-1.2.4-1.6 0-.3-.3.1-1.8-.3-2.3-.6-1-1.7-1.7-2.4-2.6-.9-1.1-2.4-3.2-2.9-3.3-.8-.2-1.7 2-1.9 3.5 0 .5-.3.9-.4 1.4-.2 2.2-.1 4.7 0 5.5.2 1.4.2 2.5 5.1 6.6.8.7-.1 6.3.3 8.3.1.6-1.3 2.5-1.2 3 .1.4.1 1.3.8 1.7.8.4 2.4.4 2.5.8.6 1.6.3 2.6-1.2 4.6-.4.5.1 1.7 0 2.5 0 .4 1.9.8 4.1.3.5-.1.7-.7 1.3-.9.9-.2 2.2-.2 3-.5 1.6-.5 1.3.9 1.7.7 1.5-.7 3.3-1.3 4.8-2.3 3.8-2.5 1.4 1.3 1.3 1.9-.4 2.5-2.7 2.2-2.4 1.2.1-.3-.6.2-1.3.2-.4 0-.5.6-.6.6-.9 0-1.2.6-2.1.6-.8 0-2.4-.1-3.1.4-.7.5-2.3.9-3.5.9-1.8-.1-.8.9-4.3.4-1.6-.2-.4-.9-1.7-1.6-2.2-1.2-4.2-3.4-5.4-5.4-.5-.9.6-2 .1-3-1.7-3.1-5.2-6.4-6.8-9.8-.2-.5-.9-1.4-1-2 0-.3-.4-1.6.3-1.1.9.6 2.5-.5 4.3 1 1.7 1.4 1.6 1.9 2 2.1.8.4 2.1.6 2-.3 0-.7 1.1-.9 1.1-1.6-.1-1 .8-1.4.2-3.1-.4-1-2.5-3.1-3.2-4.1-.4-.5.1-1.6.1-2.2 0-1.4-.1-2.5-.2-4.1-.3-3.5-.2-6.7-.5-9.2-.2-1.2-.9-2.6-.9-3.2-.1-.7-1.5-.3-1.7.5-.1.5-1.1.4-1.3.7-.3.4-.5.5-1.1.4-.3-.1-.8.1-.9 0-.4-.3-.5-1.4-.3-2.8.1-.9-.2-1.9-.3-2.6-.1-.5-.5-1-.9-1.7-.3-.6-.4-1.4-.8-1.9-.2-.3-.6-.2-.8-.5-.5-.6-.5-1.4-.8-1.9-.2-.3-.7-.6-.8-.7-.4-.6-.7-1.7-1.3-2.1-.8-.5-1.2 0-2 .6-.4.3-.8.9-1.8.9-2.4.1-3.6 1.3-4.8 2.4-.4.4-.6 1-1 1.5-.6.6-1.9 1.2-2.7 2.1-.6.6-.6 1.5-1.3 2.1-1 1-2.3 1.8-2.9 2.7-1.3 1.9-5.1 3.1-5.4 5.1-.2 1.3-1.1 6.1-1.5 9.1-.2 1.2-.8 1.8-.5 2.2 4.3 6.1 3.3 8.6 2.6 9.3-1 1-2.6.6-3.3.1-.8-.6-.5-3.3-1.7-4.1-.8-.6-2.8.1-3.7-.3-1.7-.7-2.3-2.3-2.8-4.4-.9-3.8-2-5.2-3.3-11.7-.3-1.4-1.2-1.7-1.6-3.3-.5-2.3-.1-5.7-.3-8.5-.1-1.3-1.4-1.9-5.2-2.7-2.1-.5-3.2-3.2-3.8-5.8-.5-2.2-1.3-4.4-3.9-5.5-2.9-1.2-8.2.5-11.2-.7-2.5-1.1-5-2.2-7.3-3.4-1.7-.9 1.6-2.9-5.1-2.8-.7 0-6.2-2.2-6.9-4.8-1.3-5-2.8-5.7-4.5-5.2-1.9.5-1.5 2.6-.6 5.3.4 1.1 1.5 2 1.6 3.6.2 3.9 2.5 5.4 4 6.4.7.5 2.1.8 3.4 0 2.6-1.7 5.9-4.3 6.1-2.6.2 2.2-1.2 3.1.2 4.3 2.5 2.1 3.8 3 4.5 4.1 1.2 1.9-3.7 6.8-4.1 7.1-2.1 1.8-6.9 4.1-7.2 4.1-12.6 1.9-2.7.7-8.3 2.6-1 .3-2.3.6-3.9.6-1.4 0-2.7 1.4-4.1 1.6-4.2.6-8.4.4-10 .1-.3-.1-1.6-.9-1.4-2 .4-3.4.1-8.8.1-10.3 0-.5-1.4-.7-1.4-1.6-.4-4.4-1.5-5.3-2.2-6.5-1-1.6.5-6-.8-7.6-2.1-2.7-.7-7.3-2.5-12.1-.3-.9-2.5-.6-2.7-.3-.5.9-.5.9-.3 5.4.3 9.2 1.6 8.7 1.4 9.7-.7 3.6-.4 7.5.3 8.4 2 2.9 1 6.6 1.9 8.3 2.5 4.8 4 6.2 4.8 7.8.6 1.3.3 2.6 1 3.7 1.7 2.6-.7 2.3 3 2.6 10.1.9 14.4-1.7 14 1-.7 4.4-2.5 5.1-5.2 9.1-1.4 2.1-5.4 7.2-8.9 8.3-3.3 1-11.8 4.5-13.9 7.6-.8 1.2-4.1 3.2-3.7 4.5.7 2.2-1.1 7.5 1 10.4.3.5.9.3 1.1.9.6 2.4 0 6.6-.2 8.3-.3 1.9-3.9 3.5-6 3.5-.9 0-1.7.6-2.7 1-1.4.6-2.8 1-2.6 1.5.9 2.5 1.9 4.9 1.4 6.4-.3.8-3 .4-3.4 1.1-.3.6.4 2.6 0 3-3.7 3.8-5.5 4.5-7.1 4.1-3.8-.8-12-4.7-13.6-9-.7-1.8-2.4-4.2-3.8-5.9-2.6-3.2-5.1-8.1-6.3-12.9-.8-3.2-3.2-5.4-4.4-8.4-.8-2.1-1.2-5.5-.1-8.3 1.6-4 .6-10.3-1.2-14.9-.8-2.2-.6-5-1.4-6.8-.9-2.3-2.6-3.5-1.9-6.1 4.4-16.1-1.2-11.5-2-16.2-.4-2.8-.7-6.5-3.3-6.5-4.9-.1-4.6-.9-4.8-1.9-.7-3.6-3.5-2-3.6-3.7-.8-12-.2-23.5 4.3-31.4 2.5-4.3 4.3-9.7 7.8-13.3 1.3-1.3 2.6-2.7 4.4-4.1 1.6-1.2 3.1-1 4.1-2.1 2.4-2.7 3.9-5.6 5.6-5.8 2.7-.3 3.8-.9 5.7-1.6.5-.2 2.1 2.1 1.8 2.7-.3.5 3.4-.6 4.8-.1.8.3 9.9 5.4 9.7 6.3-.4 1.7-4.8 5-4.8 6.8 0 2.4 3.7 2.3 3.1 4.5-1.9 6.7 3.7 8.3 6.3 3.8.6-1 2.2-1.3 3.5-.4.7.5 1.1 2 1.8 2.7 7.8 8.3 7.1 4.5 9.9 6 1.8 1 6 2.6 7.1 1 1.6-2.3 4.7-3.9 6-7.6.2-.4.7-1.5-.6-1.7-.9-.2-3.6.6-4.3-.1-.3-.3-.8-1.1-1.6-1.6s-1.9 0-3.1-.7c-.9-.5-1.6-1.2-2.6-1.8-.6-.3-.5-4.1.1-6.5 0-.1.9-1.8 1.5-1.8.5.1 1.7-1.1 2.6-.9.4.1 2.1-.9 2.5-.6.4.4.7 1 1.1 1.4.5.5 1.7.9 2.2.6.3-.2 1.2.1 2.1 0 1.2-.1 2.4-.7 3-.5.3.1.3.4.5.6.9.5 1.6 1.1 2.4 2.2.8 1 2.3 2 3.2 2.6 1.4.9 3.8.2 5 .1.9-.1 2.3-1.9 1.8-3.6-.4-1.3-2.6-2.5-2.9-3.4-.2-.5-1.1-1.4-1-2.3 0-.2-.7-.7-.4-.9 3.4-2 3.1-3.5 2-3.5-.4 0-2.5-.3-3.1-.2-.7.2-1.2 1.1-1.8 1.6-.3.2.5 1.5.2 1.7-.5.3-1.5.3-2 .4-.3.1-.7.4-.9.4-.8-.3-.9-1.9-.9-3 0-.5 2.1-.3 1.1-1.2-.5-.4-2.7-.9-3.3-1-1.9-.3-6.7 4.1-8.2 6.3-.2.3-.6 1-1 1.1-.6.1-1.6.8-2.1.9-1.4.3-3.3.3-3.3.2-1.3-.6-2.2-.6-3.4 3.1-.1.4.2 1.6-.1 2.3-.1.2-.8-1.2-1-1.1-.2.1 0 1.7-.2 1.8-.1.2-.7-1.4-.9-1.3-.4.1.1 1.8-.2 2-.5.2-.7-1-1.2-1-.6 0-1.4 1.1-1.6.6-.1-.2.1-1.1.1-1.4 0-.2-.7 0-.7-.2.1-.8 1.4-1.7 2.1-3.2.3-.6.1-1.3.5-2 .2-.3-.6-1.4-.5-1.7.1-.4.1-1.8 1-2.2.8-.4.6-1.8.4-2.1-.6-1-.3-8.1-1.9-8.8-.6-.3-2 2.8-2.8 6.4-.3 1.3 1.5 4.5 1.2 5.6-.5 1.5-3.5 2.5-3.9 2.5-.2 0-1-.8-1.6-.4-.2.1.3.9 0 1.1-.7.8-2.1 1.4-2.4 1.3-1.1-.2-1.8-1.1-2.1-3.6-.1-.6 4.2.8 4 .3-.1-.2-.2-.8.3-1.1.6-.5 2-.8 1.8-1.1-.5-.7.4-4.3-.4-4.9-.3-.2-.5.1-.8-.1-.5-.3-.6-.9-.3-2.5.1-.4 1.7-1.7 1.7-2 0-.4.5-1.8.1-1.8-.8-.1-2.1-.1-3.5-.1-.5 0-1.6-1.3-2.1-1.3-.9 0-2.5.6-3.4 2-.4.6-3.2-.6-3.7-.2-1.3 1-4.2 4.6-5.6 4.8-1.2.2-2.3.5-3.1-.1-.2-.2.1-.7-.4-.9-.3-.1-1.1.2-1.2 0-.1-.1-.2-.4-.1-.7.1-.3-.1-.7-.1-1 0-.6.3-1 .3-1.2-.1-.5-.2-.3-.4-.2-.2.1-.5.1-.5.1-.2-1.8 1.3-3.1 2.7-4.5 1-1 1.5-2.2 2.9-3 1.1-.6 2.8-3 4-3.5 1.3-.6 3.3 1.6 4.2 3.9.4 1 1.6-1.7 2.6-2.7.7-.6 2.3-1.6 3.2-3.2.5-.9.2-2.8.7-3.1 1.4-1 1.5.8 2.8.3 1.5-.6 6.3.3 7.8-.3.9-.3 2.3-1.7 3.1-2 1.3-.5 3.7.5 4.8.1 1.9-.8 3-2.6 4-3.3 1.8-1.2 3.6 0 3.9.7 0 .1-4 2.8-4.8 3.7-.6.7 1.6.7 1.8 1.1.2.5-1.3 1.3-.3 1.5.8.1 2.8-.2 4-.2.3 0 .2 1.1.5 1 1.3-.8 2.6-.5 3.6-.6.4-.1 2.6-2.5 3.1-2.6.6-.1 1.3.2 2 .1.4-.1-.3 1.8.1 1.8.5-.1.8.4 1.1 0 .5-.5.8-1.6 1.7-2.1.2-.1-2-.5-1.8-.6.3-.1.2-.9.6-1 .8-.2 2.5 0 3.4-.1.5 0 1.3 1.8 1.7 1.8.8-.1 2-.1 2.6-.5 1-.7 1-1.9 1-2 0-.1-.9-.1-2.4.2-.8.1-2.2.1-2.6 0-.3-.1.1-.4-.2-.6-.5-.3-1.1-.1-1.5-.4-.6-.4-1.1-1.1-1-1.2.3-.7 3-1.6 4.2-2.5.4-.3.8-.9 1.8-1.2.8-.2 2.2-.1 3-.5 1.2-.5 2.6-1.5 2.8-1.9 1-2 .1-1-1.4-.3-.5.2-1.3 0-1.7.2-.4.2-1.6 1.5-2 1.6-.6.2-2.4-.5-3-.3-.9.3-1.8 1.2-2.6 1.3-.6.1-1.7 1.4-2.3 1.5-.5 0-.8.9-1.2 2-.3 1-1.1.6-1.6.6-.5-.1-2.9.6-6.2 3.5-.2.1-1.3-.5-1.9-.3-.5.1-.4 1.1-.9 1.1-1.1 0-2.1-.5-2.1-.9 0-.3.6-.9 1.2-1.4.6-.4 1.2-.7 1.4-1.2.2-.5 2.4-2.2 2.6-2.8.1-.2-.7-.7-1.6-.6-.4.1-.9.9-1.3.8-.7-.1-1.4-.7-1.4-.9 1-3 5.3-5.9 5.4-6.2.1-.4 4.9.1 5.7-.3.6-.3 2.9-.7 3.7-1 1.2-.4 3.4-1.2 5.2-1.7.3-.1.5-1.5.9-1.5.7-.1 1.1.7 1.9.6 1.5-.3 3.2-.6 5-.3.4.1.5.9 1.1.8.5-.1 1.5-1 1.9-1 1.7.2 3.4 1.1 5.2 1.3.4 0-.8 2.2-.4 2.2.8 0 2.2 2 3 2 .3 0 0 1.9.3 1.9.5 0 .7.5 1.2.4.1 0 .5 1.1-.5 1.8-.6.4-2.1.5-3 .6-.5.1-2.8-2.9-3.2-2.7-.9.5-1.2 4.3-1.1 4.5 0 .1 1 .5 1.6.4.2 0 0-1.1.3-1.2.5-.1 1.3.1 2 0 .1 0-.2.6 0 .8.3.3 1.1.3 1.3.3.5-.1.6-1.4 1.1-1.5 1.4-.6 2.7-.4 2.8-.4.5 0 1.8-3 2.3-3 .7 0 2.1.1.9 3-.2.5.7.5 1.2.5.5-.1.8-1.6 1.2-1.7 1.4-.2 4.4-.7 6.3-.2.8.2.8 1.9 1.4 1.8.9-.1 1.7-.3 2.6-.5.3-.1-.6-2.4-.3-2.4.9-.2 4.3 2.5 5.3 2.3.2-.1.7-1 .8-1.9.1-.6-.2-1.4-.1-1.5.4-1 .9-2.1 1.8-2.3.7-.2 1.9.2 1.8 4.5 0 .8-.6 5.7 2.4 5.9.6 0 .2-1.8.6-2.9.2-.4 2.6 1.8 2.8 1.3.2-.5.7-2.7-1.4-2.4-.6.1-1.3-.7-2.4-.6-.6.1-1-3.9-.9-4.3.1-.5 1.3.3 2 0 .6-.2.8-.8 1.3-1.2.7-.5 1.9-.5 2-.6.2-.2.1-.7 0-1.3-.1-.2 1.4-.6 2.7-1.7.8-.7 2.2-.1 2.2-.3-.3-.9.6-2-5.6-2.1-.7 0-1.2-.4-1.5-.8-.7-1.1-.4-2.6 0-2.8 1.3-.5 2.9.6 4.6 1.2.8.3 1.7.3 2.5.6.7.3 1.6 1.4 2.3 1.8.9.5 2.9-.3 3.7.2 2.1 1.1 3 3.2 4.7 3.5.8.2 1.8-.2 2.6-.2.3 0-.3-1-.1-1 1.1-.2 3.1.5 3.9.2.2-.1 1.4 1.2 1.6 1.2.7-.3-.5-1.6-.4-2.2-.6-.5 30 21.1 31.9 24.9z"/><circle fill-rule="evenodd" clip-rule="evenodd" fill="none" stroke="#EF8488" stroke-width="6.059" stroke-miterlimit="10" cx="1030.4" cy="125.6" r="122.6"/></svg>