<svg xmlns="http://www.w3.org/2000/svg" width="655.836" height="212.599" viewBox="0 0 655.836 212.599"><g fill="#6A3B77"><path d="M254.73 109.828l-2.165-8.603v9.322c0 .515-.115.903-.346 1.162-.229.256-.535.385-.916.385-.369 0-.669-.129-.903-.382-.232-.255-.349-.644-.349-1.165V99.863c0-.59.153-.987.46-1.192.307-.207.721-.31 1.244-.31h.847c.51 0 .88.046 1.109.138a.927.927 0 0 1 .512.499c.111.238.237.628.378 1.168l1.962 7.394 1.962-7.394c.141-.54.267-.93.377-1.168.11-.24.28-.405.511-.499.23-.092.6-.138 1.109-.138h.848c.521 0 .937.103 1.243.31.307.205.46.602.46 1.192v10.684c0 .515-.115.903-.345 1.162-.231.256-.539.385-.926.385-.362 0-.66-.129-.894-.385-.233-.259-.35-.647-.35-1.162v-9.322l-2.165 8.603c-.141.559-.256.969-.345 1.229-.089.264-.253.5-.494.715-.239.214-.571.322-.994.322-.319 0-.589-.068-.811-.207a1.489 1.489 0 0 1-.515-.529 3.043 3.043 0 0 1-.291-.715c-.067-.262-.14-.532-.213-.815zM275.31 106.982a5.98 5.98 0 0 1-.35 2.072 4.565 4.565 0 0 1-1.014 1.631 4.496 4.496 0 0 1-1.583 1.045c-.614.243-1.305.363-2.073.363-.761 0-1.445-.122-2.054-.369a4.514 4.514 0 0 1-1.579-1.055 4.514 4.514 0 0 1-1.014-1.62 5.91 5.91 0 0 1-.346-2.067c0-.762.117-1.458.35-2.09a4.525 4.525 0 0 1 1.004-1.62c.435-.45.964-.793 1.583-1.039a5.605 5.605 0 0 1 2.054-.362c.762 0 1.453.122 2.073.369a4.522 4.522 0 0 1 1.593 1.048c.442.455.778.995 1.009 1.62a5.97 5.97 0 0 1 .347 2.074zm-2.524 0c0-1.025-.226-1.823-.677-2.395-.452-.57-1.058-.857-1.819-.857-.491 0-.923.128-1.299.383-.374.255-.663.632-.865 1.127-.203.499-.304 1.079-.304 1.742 0 .655.1 1.23.299 1.723.199.491.485.866.857 1.128.372.261.809.392 1.312.392.762 0 1.368-.288 1.819-.861.451-.575.677-1.368.677-2.382zM277.616 102.092h.277v-1.51c0-.405.011-.724.032-.954.021-.23.081-.428.179-.593.099-.173.239-.312.424-.418a1.229 1.229 0 0 1 1.482.198c.173.158.281.354.328.583.045.23.068.559.068.98v1.714h.921c.357 0 .628.085.816.253.187.17.28.385.28.648 0 .338-.133.575-.401.71-.266.135-.648.202-1.146.202h-.47v4.624c0 .393.014.695.042.907.027.214.1.384.221.515.12.132.314.199.584.199.147 0 .348-.027.599-.077.251-.054.448-.08.59-.08.203 0 .385.081.548.245a.824.824 0 0 1 .244.602c0 .405-.221.717-.664.932-.442.214-1.078.322-1.906.322-.786 0-1.382-.131-1.787-.396a1.84 1.84 0 0 1-.796-1.095c-.126-.469-.188-1.092-.188-1.871v-4.827h-.332c-.361 0-.638-.085-.828-.256a.843.843 0 0 1-.286-.655c0-.264.1-.479.3-.648.198-.169.489-.254.869-.254zM286.784 99.661v3.729c.32-.368.631-.66.935-.875.303-.215.64-.375 1.008-.483.369-.106.765-.16 1.188-.16.638 0 1.205.135 1.699.405.495.269.883.664 1.166 1.179.177.3.297.637.359 1.008.062.372.092.8.092 1.284v4.817c0 .504-.115.886-.346 1.145-.229.256-.535.385-.916.385-.829 0-1.243-.509-1.243-1.529v-4.245c0-.804-.12-1.422-.359-1.855-.24-.434-.694-.65-1.364-.65-.448 0-.852.128-1.21.383-.36.253-.628.602-.807 1.043-.135.375-.203 1.042-.203 2v3.323c0 .497-.112.877-.336 1.137-.224.262-.536.393-.935.393-.829 0-1.243-.509-1.243-1.529V99.661c0-.51.108-.893.326-1.148.218-.255.524-.382.917-.382.399 0 .711.13.935.389.225.256.337.636.337 1.141zM302.924 107.6h-4.918c.007.572.122 1.075.345 1.51.225.436.522.766.895.985.371.222.781.332 1.229.332.301 0 .576-.035.824-.106.249-.068.49-.181.724-.33.233-.152.448-.313.644-.484.197-.173.452-.404.765-.699.128-.111.313-.167.553-.167.257 0 .467.071.626.212.159.142.239.342.239.6 0 .227-.089.492-.267.795-.177.306-.447.598-.806.877-.359.279-.81.51-1.354.695-.542.184-1.168.275-1.874.275-1.615 0-2.871-.461-3.767-1.381-.897-.922-1.345-2.17-1.345-3.749 0-.744.111-1.434.332-2.067.221-.637.543-1.18.967-1.635a4.2 4.2 0 0 1 1.566-1.047 5.631 5.631 0 0 1 2.063-.364c.983 0 1.826.208 2.529.622.703.415 1.229.95 1.579 1.608.35.655.525 1.325.525 2.005 0 .633-.181 1.043-.543 1.231-.364.186-.874.282-1.531.282zm-4.918-1.428h4.559c-.062-.86-.293-1.503-.696-1.93-.402-.427-.932-.639-1.588-.639-.626 0-1.141.215-1.543.648-.402.433-.646 1.073-.732 1.921zM309.8 108.467v2.098c0 .511-.12.893-.359 1.147a1.202 1.202 0 0 1-.912.382c-.362 0-.66-.129-.894-.385-.232-.259-.35-.641-.35-1.145v-6.999c0-1.13.408-1.694 1.225-1.694.417 0 .719.13.903.395.184.265.286.654.304 1.169.301-.515.609-.904.926-1.169.316-.265.738-.395 1.266-.395s1.041.13 1.538.395c.498.265.746.614.746 1.05 0 .305-.105.56-.318.759-.211.2-.44.301-.685.301-.092 0-.315-.057-.667-.171a3.129 3.129 0 0 0-.935-.17c-.369 0-.669.097-.903.29s-.414.48-.543.862a5.99 5.99 0 0 0-.267 1.357c-.05.527-.075 1.165-.075 1.923zM323.849 108.807c0 .693-.168 1.287-.506 1.781-.338.494-.836.869-1.497 1.124-.66.253-1.463.382-2.408.382-.902 0-1.677-.139-2.321-.414-.645-.276-1.121-.623-1.428-1.037-.307-.414-.46-.831-.46-1.248 0-.275.099-.512.294-.709.197-.195.445-.293.746-.293.265 0 .467.063.609.191.141.131.276.311.405.546.258.446.566.782.926 1.001.358.223.848.332 1.468.332.503 0 .916-.111 1.239-.334.322-.226.483-.48.483-.771 0-.441-.167-.765-.502-.965-.335-.205-.886-.396-1.653-.582-.865-.215-1.57-.439-2.114-.676-.542-.235-.978-.547-1.303-.936-.325-.385-.489-.862-.489-1.427 0-.503.15-.98.452-1.427.301-.45.744-.807 1.331-1.073.586-.267 1.293-.4 2.122-.4a6.97 6.97 0 0 1 1.754.202c.519.135.952.317 1.299.543.347.227.611.479.792.755.181.277.271.545.271.81a.94.94 0 0 1-.29.71c-.194.185-.468.275-.824.275-.258 0-.478-.074-.659-.222a4.383 4.383 0 0 1-.621-.662 2.275 2.275 0 0 0-.673-.59c-.257-.147-.607-.222-1.05-.222-.454 0-.831.098-1.133.292-.301.193-.451.435-.451.724 0 .263.11.479.332.648.221.168.518.31.894.42.374.11.89.245 1.547.405.78.19 1.417.417 1.91.68.495.265.869.577 1.124.935.256.361.384.771.384 1.232zM337.387 110.677c-.607.472-1.197.827-1.764 1.062-.568.236-1.204.355-1.911.355-.645 0-1.212-.129-1.699-.382a2.81 2.81 0 0 1-1.128-1.035 2.688 2.688 0 0 1-.396-1.421c0-.687.219-1.271.654-1.758.436-.485 1.033-.811 1.796-.976.159-.038.556-.12 1.188-.25a48.65 48.65 0 0 0 1.626-.355c.45-.107.939-.237 1.469-.39-.032-.664-.164-1.15-.4-1.46s-.727-.463-1.471-.463c-.637 0-1.118.087-1.44.265a2.32 2.32 0 0 0-.829.802c-.23.357-.394.59-.489.705-.095.114-.298.17-.611.17-.282 0-.527-.09-.732-.272a.888.888 0 0 1-.309-.697c0-.442.156-.87.47-1.289.313-.417.801-.762 1.465-1.032.663-.269 1.488-.405 2.477-.405 1.105 0 1.974.13 2.607.392.632.262 1.078.673 1.339 1.238.263.565.394 1.313.394 2.247 0 .59-.004 1.09-.007 1.501-.002.412-.007.869-.014 1.373 0 .471.08.965.235 1.479.156.512.234.843.234.99 0 .258-.121.492-.363.703a1.217 1.217 0 0 1-.823.318c-.258 0-.514-.12-.765-.363-.253-.243-.52-.594-.803-1.052zm-.165-3.639c-.369.136-.904.279-1.609.428a38.01 38.01 0 0 0-1.458.332 1.94 1.94 0 0 0-.773.415c-.246.205-.369.492-.369.86 0 .38.145.705.433.972.289.267.666.4 1.133.4.497 0 .957-.109 1.377-.327s.729-.499.926-.842c.229-.382.342-1.007.342-1.879v-.359zM344.713 103.262v.303c.441-.583.925-1.01 1.45-1.284.526-.275 1.128-.41 1.811-.41.663 0 1.255.145 1.776.432.521.288.912.697 1.17 1.225.165.307.273.638.324.995.048.355.073.81.073 1.363v4.677c0 .504-.117.886-.346 1.145-.229.256-.529.385-.898.385-.375 0-.68-.131-.913-.396-.231-.265-.349-.642-.349-1.134v-4.19c0-.828-.116-1.462-.345-1.902-.23-.438-.688-.658-1.377-.658-.448 0-.857.133-1.226.401a2.301 2.301 0 0 0-.81 1.099c-.124.377-.186 1.077-.186 2.1v3.15c0 .511-.118.893-.354 1.147a1.205 1.205 0 0 1-.918.382c-.362 0-.66-.131-.892-.396-.233-.265-.351-.642-.351-1.134v-7.266c0-.479.104-.839.313-1.074.208-.237.493-.354.855-.354.222 0 .421.05.598.155.179.105.322.262.431.472.11.212.164.465.164.767zM360.898 110.656v-.248c-.336.387-.67.701-1 .943a3.72 3.72 0 0 1-1.068.554 4.023 4.023 0 0 1-1.255.188 3.723 3.723 0 0 1-1.672-.382 3.907 3.907 0 0 1-1.332-1.092 4.983 4.983 0 0 1-.851-1.667 7.05 7.05 0 0 1-.292-2.072c0-1.572.386-2.795 1.154-3.674.765-.878 1.776-1.319 3.028-1.319.724 0 1.336.125 1.834.374.497.249.981.632 1.453 1.147v-3.71c0-.515.104-.907.311-1.17.203-.263.498-.397.878-.397.382 0 .674.122.881.364.205.243.31.602.31 1.073v11.088c0 .479-.111.839-.331 1.079a1.122 1.122 0 0 1-.859.358 1.09 1.09 0 0 1-.85-.373c-.225-.248-.339-.602-.339-1.064zm-4.944-3.692c0 .682.105 1.26.317 1.741.213.479.502.84.87 1.082s.771.363 1.207.363c.443 0 .845-.113 1.21-.346.366-.23.658-.582.877-1.059.218-.477.325-1.072.325-1.782 0-.668-.107-1.245-.325-1.727-.219-.482-.514-.85-.886-1.105a2.106 2.106 0 0 0-1.22-.382c-.46 0-.87.13-1.233.392-.363.26-.644.633-.846 1.124-.197.487-.296 1.054-.296 1.699zM376.813 111.863h-4.126c-.595 0-1.021-.133-1.275-.4-.255-.266-.383-.693-.383-1.275v-10.149c0-.595.13-1.023.392-1.285.26-.26.682-.392 1.267-.392h4.374c.646 0 1.204.04 1.677.122.472.078.896.231 1.271.458a3.337 3.337 0 0 1 1.409 1.69c.131.354.195.727.195 1.12 0 1.351-.677 2.339-2.027 2.966 1.774.563 2.662 1.664 2.662 3.297 0 .755-.193 1.435-.581 2.04a3.48 3.48 0 0 1-1.563 1.339 5.458 5.458 0 0 1-1.421.363c-.536.071-1.159.106-1.871.106zm-3.048-11.448v3.49h2.505c.681 0 1.207-.065 1.579-.191.371-.13.656-.375.854-.737.153-.258.229-.547.229-.867 0-.68-.243-1.133-.729-1.358-.484-.223-1.225-.336-2.219-.336h-2.219zm2.845 5.452h-2.846v3.942h2.938c1.847 0 2.772-.667 2.772-1.999 0-.682-.242-1.175-.721-1.481s-1.191-.462-2.143-.462zM390.964 110.677c-.61.472-1.196.827-1.764 1.062-.568.236-1.207.355-1.912.355-.645 0-1.212-.129-1.698-.382a2.808 2.808 0 0 1-1.13-1.035 2.697 2.697 0 0 1-.396-1.421c0-.687.219-1.271.653-1.758.437-.485 1.035-.811 1.797-.976.16-.038.556-.12 1.188-.25a48.218 48.218 0 0 0 1.627-.355c.45-.107.939-.237 1.467-.39-.028-.664-.162-1.15-.398-1.46-.237-.31-.727-.463-1.471-.463-.638 0-1.118.087-1.44.265-.323.178-.6.445-.828.802-.231.357-.395.59-.49.705-.095.114-.298.17-.611.17-.282 0-.527-.09-.732-.272a.884.884 0 0 1-.308-.697c0-.442.156-.87.47-1.289.312-.417.8-.762 1.464-1.032.661-.269 1.488-.405 2.477-.405 1.105 0 1.974.13 2.605.392.634.262 1.08.673 1.342 1.238.261.565.391 1.313.391 2.247 0 .59-.002 1.09-.004 1.501l-.013 1.373c0 .471.078.965.233 1.479.158.512.234.843.234.99 0 .258-.121.492-.363.703a1.211 1.211 0 0 1-.825.318c-.258 0-.512-.12-.763-.363-.253-.243-.52-.594-.802-1.052zm-.168-3.639c-.368.136-.903.279-1.605.428-.703.15-1.19.261-1.46.332a1.94 1.94 0 0 0-.773.415c-.245.205-.369.492-.369.86 0 .38.146.705.434.972.289.267.667.4 1.132.4.499 0 .957-.109 1.377-.327.422-.218.729-.499.926-.842.227-.382.34-1.007.34-1.879v-.359zM398.325 99.568v3.841c.474-.492.955-.867 1.447-1.127.491-.263 1.1-.394 1.823-.394.835 0 1.567.199 2.197.595.629.395 1.117.969 1.465 1.722.348.751.521 1.645.521 2.675 0 .762-.097 1.461-.292 2.096a4.915 4.915 0 0 1-.842 1.653 3.803 3.803 0 0 1-1.34 1.082 3.95 3.95 0 0 1-1.737.382c-.385 0-.748-.045-1.09-.139a3.199 3.199 0 0 1-.87-.363 3.992 3.992 0 0 1-.612-.465c-.17-.158-.392-.4-.67-.719v.248c0 .474-.113.83-.34 1.074a1.13 1.13 0 0 1-.865.363c-.355 0-.64-.12-.852-.363-.212-.244-.317-.601-.317-1.074V99.678c0-.509.103-.894.308-1.155.204-.262.493-.392.861-.392.387 0 .686.125.894.374s.311.603.311 1.063zm.122 7.47c0 1 .227 1.771.685 2.307.459.538 1.059.806 1.801.806.632 0 1.179-.273 1.635-.824.459-.549.688-1.337.688-2.362 0-.664-.096-1.235-.287-1.714-.19-.478-.458-.848-.81-1.108a1.987 1.987 0 0 0-1.226-.392c-.479 0-.905.13-1.28.392-.373.26-.669.637-.884 1.132-.215.493-.322 1.081-.322 1.763zM409.235 100.702c-.35 0-.649-.108-.898-.324-.248-.213-.373-.518-.373-.912 0-.355.128-.648.383-.878a1.29 1.29 0 0 1 .889-.347c.325 0 .613.105.865.315.252.208.379.513.379.91 0 .387-.124.69-.369.907a1.275 1.275 0 0 1-.876.329zm1.244 2.597v7.266c0 .504-.12.886-.358 1.145a1.203 1.203 0 0 1-.914.385c-.368 0-.667-.131-.898-.396-.229-.265-.345-.642-.345-1.134v-7.192c0-.497.116-.872.345-1.124.231-.252.53-.377.898-.377.369 0 .672.125.914.377.238.251.358.6.358 1.05zM420.265 107.6h-4.92c.007.572.122 1.075.346 1.51.223.436.523.766.894.985.371.222.781.332 1.229.332.302 0 .576-.035.825-.106.25-.068.489-.181.723-.33.233-.152.449-.313.646-.484.196-.173.452-.404.764-.699.13-.111.313-.167.553-.167.259 0 .467.071.627.212.16.142.238.342.238.6 0 .227-.088.492-.267.795-.178.306-.446.598-.805.877-.36.279-.811.51-1.355.695-.542.184-1.167.275-1.874.275-1.615 0-2.87-.461-3.767-1.381-.897-.922-1.344-2.17-1.344-3.749 0-.744.11-1.434.332-2.067.22-.637.541-1.18.967-1.635a4.168 4.168 0 0 1 1.564-1.047 5.635 5.635 0 0 1 2.063-.364c.983 0 1.827.208 2.528.622.704.415 1.229.95 1.581 1.608.348.655.524 1.325.524 2.005 0 .633-.182 1.043-.545 1.231-.362.186-.873.282-1.527.282zm-4.92-1.428h4.56c-.062-.86-.294-1.503-.695-1.93-.403-.427-.932-.639-1.589-.639-.626 0-1.14.215-1.543.648-.403.433-.646 1.073-.733 1.921zM432.738 108.807c0 .693-.169 1.287-.507 1.781-.337.494-.835.869-1.497 1.124-.66.253-1.462.382-2.409.382-.899 0-1.673-.139-2.32-.414-.644-.276-1.118-.623-1.427-1.037-.307-.414-.46-.831-.46-1.248 0-.275.099-.512.295-.709.197-.195.445-.293.745-.293.266 0 .467.063.608.191.141.131.275.311.405.546.259.446.566.782.925 1.001.36.223.851.332 1.471.332.503 0 .915-.111 1.238-.334.322-.226.483-.48.483-.771 0-.441-.168-.765-.502-.965-.335-.205-.885-.396-1.653-.582-.866-.215-1.57-.439-2.113-.676-.544-.235-.979-.547-1.304-.936-.325-.385-.488-.862-.488-1.427 0-.503.149-.98.451-1.427.302-.45.745-.807 1.332-1.073.585-.267 1.294-.4 2.122-.4.65 0 1.235.067 1.754.202.519.135.952.317 1.3.543.347.227.61.479.792.755s.271.545.271.81a.94.94 0 0 1-.29.71c-.194.185-.47.275-.825.275-.258 0-.477-.074-.658-.222a4.332 4.332 0 0 1-.622-.662 2.28 2.28 0 0 0-.671-.59c-.259-.147-.608-.222-1.051-.222-.455 0-.832.098-1.134.292-.3.193-.449.435-.449.724a.78.78 0 0 0 .33.648c.222.168.52.31.893.42.376.11.893.245 1.548.405.779.19 1.416.417 1.911.68.494.265.869.577 1.124.935.255.361.382.771.382 1.232zM435.322 103.244c0-.437.135-.773.41-1.014.272-.24.603-.358.989-.358.374 0 .697.12.968.362.27.245.404.579.404 1.01 0 .342-.146.66-.441.948-.295.289-.615.432-.957.432-.377 0-.698-.137-.969-.415a1.337 1.337 0 0 1-.404-.965zm1.4 8.85a1.42 1.42 0 0 1-.984-.369c-.278-.244-.415-.59-.415-1.031 0-.373.131-.697.395-.967.266-.269.59-.405.979-.405.385 0 .715.134.988.401s.41.59.41.971c0 .437-.137.778-.41 1.027-.275.25-.594.373-.963.373zM449.881 106.087h-.957v4.339c0 .571-.126.991-.378 1.262s-.58.405-.985.405c-.437 0-.773-.141-1.014-.424-.238-.283-.358-.697-.358-1.243v-10.389c0-.59.132-1.015.396-1.28.265-.265.69-.396 1.28-.396h4.449c.613 0 1.139.028 1.573.078.437.053.83.158 1.181.318.423.178.797.434 1.123.765.325.33.572.717.74 1.155.168.44.253.903.253 1.395 0 1.007-.283 1.812-.85 2.414-.568.6-1.431 1.028-2.584 1.28.485.256.948.638 1.391 1.142.441.502.835 1.038 1.184 1.606.347.567.616 1.08.81 1.539.193.457.29.771.29.943a.975.975 0 0 1-.17.53 1.195 1.195 0 0 1-.467.413 1.444 1.444 0 0 1-.68.152c-.307 0-.565-.072-.773-.215a2.106 2.106 0 0 1-.54-.549c-.15-.222-.354-.547-.612-.977l-1.095-1.824c-.394-.67-.745-1.178-1.056-1.528-.31-.35-.625-.59-.943-.718-.319-.126-.723-.193-1.208-.193zm1.565-5.672h-2.522v3.712h2.449c.657 0 1.21-.057 1.657-.17.45-.113.79-.307 1.026-.58.237-.273.357-.65.357-1.128 0-.374-.097-.704-.287-.99a1.729 1.729 0 0 0-.792-.64c-.317-.136-.947-.204-1.888-.204zM466.354 107.6h-4.92c.007.572.122 1.075.346 1.51.223.436.523.766.894.985.371.222.781.332 1.229.332.302 0 .576-.035.825-.106.25-.068.489-.181.722-.33.234-.152.45-.313.646-.484.195-.173.45-.404.764-.699.13-.111.313-.167.553-.167.257 0 .466.071.626.212.159.142.239.342.239.6 0 .227-.09.492-.267.795-.178.306-.446.598-.805.877-.36.279-.812.51-1.355.695-.543.184-1.167.275-1.875.275-1.614 0-2.869-.461-3.766-1.381-.897-.922-1.346-2.17-1.346-3.749 0-.744.112-1.434.332-2.067.222-.637.543-1.18.969-1.635a4.172 4.172 0 0 1 1.563-1.047 5.643 5.643 0 0 1 2.063-.364c.983 0 1.827.208 2.528.622.704.415 1.229.95 1.581 1.608.348.655.523 1.325.523 2.005 0 .633-.181 1.043-.544 1.231-.359.186-.87.282-1.525.282zm-4.919-1.428h4.56c-.062-.86-.294-1.503-.697-1.93-.401-.427-.93-.639-1.587-.639-.627 0-1.142.215-1.543.648-.403.433-.648 1.073-.733 1.921zM477.619 110.656v-.248c-.337.387-.67.701-.998.943a3.786 3.786 0 0 1-1.068.554 4.036 4.036 0 0 1-1.257.188 3.733 3.733 0 0 1-1.673-.382 3.882 3.882 0 0 1-1.33-1.092 4.967 4.967 0 0 1-.852-1.667 7.117 7.117 0 0 1-.29-2.072c0-1.572.384-2.795 1.151-3.674s1.777-1.319 3.029-1.319c.724 0 1.335.125 1.834.374.495.249.981.632 1.453 1.147v-3.71c0-.515.104-.907.309-1.17.207-.263.5-.397.88-.397.382 0 .676.122.881.364.205.243.308.602.308 1.073v11.088c0 .479-.109.839-.331 1.079a1.118 1.118 0 0 1-.857.358c-.343 0-.627-.123-.852-.373-.224-.248-.337-.602-.337-1.064zm-4.944-3.692c0 .682.105 1.26.317 1.741.211.479.501.84.87 1.082.368.242.77.363 1.207.363.441 0 .847-.113 1.212-.346.364-.23.654-.582.873-1.059s.328-1.072.328-1.782c0-.668-.109-1.245-.328-1.727s-.512-.85-.884-1.105a2.109 2.109 0 0 0-1.22-.382c-.46 0-.872.13-1.233.392-.364.26-.644.633-.844 1.124-.2.487-.298 1.054-.298 1.699zM489.22 110.677v-.323c-.3.38-.617.699-.948.958-.332.257-.693.45-1.087.575s-.841.189-1.344.189c-.61 0-1.153-.127-1.636-.378a2.772 2.772 0 0 1-1.12-1.042c-.312-.533-.47-1.3-.47-2.302v-4.982c0-.503.115-.88.342-1.128.227-.249.528-.372.901-.372.382 0 .688.125.922.377.233.251.351.626.351 1.124v4.025c0 .582.05 1.072.146 1.468.099.396.275.706.53.932.255.223.6.334 1.037.334.423 0 .821-.125 1.196-.376.374-.252.646-.58.82-.985.14-.358.212-1.137.212-2.34v-3.057c0-.497.115-.872.35-1.124.233-.252.537-.377.912-.377.373 0 .675.124.901.372.228.248.341.625.341 1.128v7.284c0 .479-.108.839-.327 1.079-.219.238-.498.358-.842.358s-.628-.123-.854-.373c-.222-.249-.333-.598-.333-1.044zM503.289 108.981c0 .312-.094.646-.282 1.003-.187.357-.473.695-.856 1.018-.384.323-.867.583-1.448.779a6.221 6.221 0 0 1-1.974.295c-1.553 0-2.766-.453-3.638-1.359-.87-.905-1.307-2.121-1.307-3.643 0-1.032.2-1.943.598-2.734a4.293 4.293 0 0 1 1.73-1.838c.757-.434 1.659-.65 2.709-.65.652 0 1.247.097 1.792.287.542.19 1.004.435 1.382.736.377.3.665.622.865.962.2.342.299.659.299.954 0 .3-.112.555-.335.765a1.158 1.158 0 0 1-.817.312.828.828 0 0 1-.52-.16 2.583 2.583 0 0 1-.464-.52c-.309-.469-.629-.819-.964-1.052-.333-.231-.758-.348-1.274-.348-.744 0-1.343.289-1.796.87-.455.58-.682 1.374-.682 2.38 0 .474.059.907.174 1.304.118.395.286.732.508 1.013.22.278.487.492.802.636.312.143.655.217 1.03.217.504 0 .936-.117 1.295-.351.358-.235.676-.59.954-1.068.151-.282.318-.503.495-.663a.944.944 0 0 1 .655-.24c.307 0 .56.116.765.35.201.232.304.481.304.745zM506.921 100.702a1.32 1.32 0 0 1-.898-.324c-.248-.213-.373-.518-.373-.912 0-.355.127-.648.382-.878s.552-.347.89-.347c.325 0 .613.105.865.315.252.208.379.513.379.91 0 .387-.124.69-.369.907a1.282 1.282 0 0 1-.876.329zm1.244 2.597v7.266c0 .504-.122.886-.36 1.145-.24.256-.543.385-.912.385-.368 0-.667-.131-.898-.396-.229-.265-.345-.642-.345-1.134v-7.192c0-.497.115-.872.345-1.124.231-.252.53-.377.898-.377.369 0 .672.125.912.377.238.251.36.6.36 1.05zM513.214 103.262v.303c.441-.583.927-1.01 1.45-1.284.527-.275 1.129-.41 1.813-.41.661 0 1.255.145 1.776.432.521.288.912.697 1.171 1.225.163.307.271.638.321.995.048.355.073.81.073 1.363v4.677c0 .504-.115.886-.347 1.145a1.147 1.147 0 0 1-.896.385c-.375 0-.679-.131-.912-.396s-.35-.642-.35-1.134v-4.19c0-.828-.115-1.462-.346-1.902-.229-.438-.69-.658-1.377-.658-.448 0-.856.133-1.225.401a2.303 2.303 0 0 0-.811 1.099c-.123.377-.185 1.077-.185 2.1v3.15c0 .511-.117.893-.354 1.147a1.204 1.204 0 0 1-.917.382c-.363 0-.66-.131-.894-.396s-.351-.642-.351-1.134v-7.266c0-.479.104-.839.313-1.074.209-.237.494-.354.857-.354.22 0 .42.05.597.155.178.105.321.262.43.472.11.212.164.465.164.767zM531.759 103.714v7.303c0 .835-.088 1.552-.267 2.155-.179.602-.464 1.097-.855 1.492-.395.394-.908.684-1.543.875-.637.19-1.428.285-2.372.285-.865 0-1.639-.12-2.32-.365-.683-.241-1.207-.555-1.576-.938-.368-.385-.552-.778-.552-1.184 0-.307.104-.557.313-.75.21-.193.461-.29.757-.29.368 0 .689.162.965.488.135.165.275.332.42.5.146.17.304.313.479.436.175.118.387.208.632.265.245.061.528.089.847.089.65 0 1.155-.091 1.516-.272.358-.182.609-.433.755-.76.144-.325.229-.674.253-1.045.023-.372.042-.969.056-1.79-.387.539-.834.951-1.341 1.232-.507.282-1.109.424-1.81.424-.842 0-1.577-.215-2.206-.645-.63-.429-1.111-1.031-1.45-1.806-.338-.773-.507-1.667-.507-2.679 0-.757.104-1.437.309-2.045.207-.607.5-1.12.879-1.539a3.775 3.775 0 0 1 1.318-.944 4.151 4.151 0 0 1 1.639-.318c.713 0 1.33.139 1.852.412.522.271 1.007.7 1.454 1.283v-.34c0-.437.108-.773.323-1.014a1.06 1.06 0 0 1 .828-.358c.485 0 .809.157.969.474.155.317.235.772.235 1.369zm-7.284 3.185c0 1.021.222 1.79.666 2.312.445.521 1.022.782 1.728.782.418 0 .812-.11 1.184-.335.371-.225.675-.563.906-1.014.233-.45.353-.998.353-1.644 0-1.027-.228-1.824-.677-2.396-.454-.57-1.047-.855-1.784-.855-.719 0-1.294.271-1.727.818-.433.549-.649 1.326-.649 2.332zM543.226 106.087h-.958v4.339c0 .571-.125.991-.379 1.262-.251.271-.578.405-.984.405-.436 0-.773-.141-1.014-.424-.238-.283-.358-.697-.358-1.243v-10.389c0-.59.132-1.015.395-1.28.266-.265.692-.396 1.28-.396h4.449c.613 0 1.139.028 1.575.078.437.053.829.158 1.179.318a3.423 3.423 0 0 1 1.865 1.92c.168.44.254.903.254 1.395 0 1.007-.284 1.812-.853 2.414-.568.6-1.43 1.028-2.583 1.28.484.256.948.638 1.39 1.142.441.502.837 1.038 1.184 1.606.347.567.617 1.08.811 1.539.194.457.29.771.29.943a.975.975 0 0 1-.17.53 1.206 1.206 0 0 1-.466.413 1.453 1.453 0 0 1-.68.152c-.309 0-.565-.072-.773-.215a2.075 2.075 0 0 1-.54-.549c-.15-.222-.355-.547-.612-.977l-1.097-1.824c-.394-.67-.745-1.178-1.055-1.528-.311-.35-.625-.59-.944-.718-.32-.126-.723-.193-1.206-.193zm1.563-5.672h-2.521v3.712h2.448c.657 0 1.211-.057 1.657-.17.45-.113.792-.307 1.028-.58.237-.273.355-.65.355-1.128 0-.374-.097-.704-.287-.99a1.714 1.714 0 0 0-.792-.64c-.318-.136-.946-.204-1.888-.204zM554.383 100.702c-.352 0-.65-.108-.898-.324-.25-.213-.375-.518-.375-.912 0-.355.128-.648.384-.878a1.29 1.29 0 0 1 .89-.347c.323 0 .613.105.863.315.252.208.379.513.379.91 0 .387-.124.69-.368.907a1.278 1.278 0 0 1-.875.329zm1.242 2.597v7.266c0 .504-.12.886-.358 1.145-.24.256-.544.385-.912.385s-.668-.131-.898-.396-.347-.642-.347-1.134v-7.192c0-.497.116-.872.347-1.124.23-.252.53-.377.898-.377s.672.125.912.377c.238.251.358.6.358 1.05zM566.486 108.807c0 .693-.168 1.287-.507 1.781-.336.494-.836.869-1.496 1.124-.66.253-1.462.382-2.409.382-.9 0-1.674-.139-2.32-.414-.644-.276-1.118-.623-1.427-1.037-.307-.414-.46-.831-.46-1.248 0-.275.097-.512.295-.709.196-.195.445-.293.745-.293.265 0 .467.063.608.191.14.131.274.311.405.546.258.446.564.782.925 1.001.358.223.851.332 1.471.332.503 0 .915-.111 1.238-.334.321-.226.483-.48.483-.771 0-.441-.169-.765-.502-.965-.335-.205-.887-.396-1.653-.582-.867-.215-1.57-.439-2.114-.676-.543-.235-.979-.547-1.304-.936-.324-.385-.488-.862-.488-1.427 0-.503.15-.98.45-1.427.302-.45.747-.807 1.332-1.073.587-.267 1.294-.4 2.124-.4.649 0 1.235.067 1.753.202.519.135.952.317 1.299.543.349.227.612.479.794.755.18.277.271.545.271.81a.944.944 0 0 1-.29.71c-.195.185-.47.275-.825.275a1 1 0 0 1-.658-.222 4.332 4.332 0 0 1-.622-.662 2.284 2.284 0 0 0-.672-.59c-.258-.147-.608-.222-1.05-.222-.455 0-.832.098-1.134.292-.3.193-.452.435-.452.724 0 .263.112.479.332.648.222.168.519.31.894.42s.891.245 1.547.405c.78.19 1.417.417 1.912.68.493.265.868.577 1.123.935.256.361.382.771.382 1.232zM575.064 110.943l-2.219-3.647-1.363 1.288v2c0 .484-.127.857-.382 1.117-.255.262-.547.393-.878.393-.389 0-.692-.129-.914-.385-.22-.259-.33-.641-.33-1.145v-10.72c0-.559.107-.983.322-1.275.215-.292.521-.438.922-.438.385 0 .691.134.92.397.227.263.34.655.34 1.17v6.096l2.829-2.965c.349-.369.616-.62.8-.755a1.11 1.11 0 0 1 .674-.202c.312 0 .573.099.781.298.209.2.313.45.313.75 0 .368-.342.86-1.021 1.474l-1.335 1.225 2.578 4.053c.188.301.327.529.409.687a.956.956 0 0 1 .125.444c0 .4-.108.716-.327.945-.219.23-.505.346-.86.346-.309 0-.545-.084-.71-.248-.167-.166-.389-.467-.674-.903zM584.849 102.092h.274v-1.51c0-.405.012-.724.033-.954.022-.23.08-.428.179-.593.099-.173.24-.312.425-.418a1.2 1.2 0 0 1 .617-.162c.318 0 .606.118.865.36.172.158.28.354.326.583.047.23.07.559.07.98v1.714h.922c.355 0 .627.085.813.253.187.17.282.385.282.648 0 .338-.134.575-.402.71-.267.135-.648.202-1.146.202h-.469v4.624c0 .393.014.695.042.907.026.214.1.384.22.515.12.132.315.199.585.199.148 0 .347-.027.599-.077.252-.054.448-.08.59-.08.202 0 .386.081.549.245a.827.827 0 0 1 .243.602c0 .405-.222.717-.663.932-.442.214-1.079.322-1.905.322-.787 0-1.384-.131-1.789-.396s-.67-.63-.797-1.095c-.125-.469-.188-1.092-.188-1.871v-4.827h-.331c-.362 0-.639-.085-.829-.256a.85.85 0 0 1-.286-.655c0-.264.102-.479.302-.648.197-.169.487-.254.869-.254zM594.015 99.661v3.729c.318-.368.63-.66.936-.875.304-.215.64-.375 1.009-.483a4.27 4.27 0 0 1 1.188-.16c.638 0 1.203.135 1.698.405.493.269.882.664 1.165 1.179.177.3.299.637.358 1.008.062.372.094.8.094 1.284v4.817c0 .504-.115.886-.347 1.145-.23.256-.535.385-.915.385-.83 0-1.244-.509-1.244-1.529v-4.245c0-.804-.12-1.422-.359-1.855s-.694-.65-1.364-.65c-.446 0-.852.128-1.21.383a2.29 2.29 0 0 0-.806 1.043c-.135.375-.203 1.042-.203 2v3.323c0 .497-.111.877-.335 1.137-.225.262-.537.393-.936.393-.83 0-1.243-.509-1.243-1.529V99.661c0-.51.108-.893.327-1.148.218-.255.523-.382.916-.382.398 0 .711.13.936.389.223.256.335.636.335 1.141zM605.634 108.467v2.098c0 .511-.118.893-.36 1.147a1.198 1.198 0 0 1-.91.382c-.363 0-.662-.129-.896-.385-.231-.259-.348-.641-.348-1.145v-6.999c0-1.13.408-1.694 1.225-1.694.417 0 .717.13.902.395.184.265.285.654.305 1.169.3-.515.608-.904.925-1.169.315-.265.739-.395 1.266-.395.528 0 1.042.13 1.539.395.496.265.745.614.745 1.05 0 .305-.105.56-.317.759-.211.2-.441.301-.687.301-.092 0-.313-.057-.667-.171a3.129 3.129 0 0 0-.935-.17c-.369 0-.669.097-.904.29-.233.193-.413.48-.543.862a6.16 6.16 0 0 0-.267 1.357c-.05.527-.073 1.165-.073 1.923zM621 106.982c0 .748-.117 1.439-.353 2.072a4.542 4.542 0 0 1-1.01 1.631 4.532 4.532 0 0 1-1.585 1.045c-.615.243-1.306.363-2.072.363-.762 0-1.447-.122-2.054-.369a4.509 4.509 0 0 1-1.58-1.055 4.496 4.496 0 0 1-1.012-1.62c-.232-.624-.347-1.312-.347-2.067 0-.762.116-1.458.35-2.09a4.513 4.513 0 0 1 1.005-1.62c.436-.45.964-.793 1.584-1.039.62-.242 1.304-.362 2.054-.362.76 0 1.452.122 2.072.369.62.245 1.15.595 1.594 1.048a4.59 4.59 0 0 1 1.008 1.62 5.97 5.97 0 0 1 .346 2.074zm-2.524 0c0-1.025-.227-1.823-.677-2.395-.451-.57-1.059-.857-1.818-.857-.492 0-.924.128-1.301.383-.373.255-.663.632-.863 1.127-.205.499-.305 1.079-.305 1.742 0 .655.1 1.23.298 1.723.2.491.487.866.859 1.128.37.261.808.392 1.312.392.76 0 1.367-.288 1.818-.861.45-.575.677-1.368.677-2.382zM629.698 110.677v-.323a5.66 5.66 0 0 1-.947.958c-.332.257-.695.45-1.089.575-.392.125-.84.189-1.343.189-.608 0-1.154-.127-1.636-.378s-.855-.601-1.118-1.042c-.313-.533-.471-1.3-.471-2.302v-4.982c0-.503.113-.88.341-1.128.227-.249.528-.372.903-.372.382 0 .687.125.92.377.235.251.35.626.35 1.124v4.025c0 .582.051 1.072.148 1.468.097.396.275.706.53.932.255.223.599.334 1.035.334a2.11 2.11 0 0 0 1.197-.376c.375-.252.648-.58.82-.985.142-.358.211-1.137.211-2.34v-3.057c0-.497.117-.872.351-1.124.233-.252.536-.377.912-.377.375 0 .675.124.901.372.229.248.342.625.342 1.128v7.284c0 .479-.11.839-.328 1.079a1.09 1.09 0 0 1-.841.358c-.345 0-.63-.123-.854-.373-.22-.249-.334-.598-.334-1.044zM643.997 103.714v7.303c0 .835-.089 1.552-.267 2.155-.179.602-.464 1.097-.855 1.492-.395.394-.908.684-1.543.875-.638.19-1.428.285-2.373.285-.864 0-1.638-.12-2.32-.365-.682-.241-1.206-.555-1.575-.938-.368-.385-.552-.778-.552-1.184 0-.307.104-.557.313-.75.21-.193.461-.29.756-.29.369 0 .69.162.966.488.135.165.274.332.42.5.145.17.304.313.479.436.175.118.387.208.632.265.245.061.528.089.847.089.65 0 1.157-.091 1.516-.272s.609-.433.755-.76c.144-.325.229-.674.253-1.045.023-.372.042-.969.056-1.79-.387.539-.834.951-1.341 1.232-.507.282-1.11.424-1.811.424-.842 0-1.576-.215-2.205-.645-.628-.429-1.111-1.031-1.45-1.806-.338-.773-.507-1.667-.507-2.679 0-.757.104-1.437.309-2.045.207-.607.5-1.12.878-1.539a3.797 3.797 0 0 1 1.319-.944 4.148 4.148 0 0 1 1.639-.318c.713 0 1.33.139 1.852.412.521.271 1.007.7 1.454 1.283v-.34c0-.437.108-.773.323-1.014a1.06 1.06 0 0 1 .828-.358c.485 0 .809.157.969.474.155.317.235.772.235 1.369zm-7.285 3.185c0 1.021.222 1.79.667 2.312s1.022.782 1.728.782c.418 0 .812-.11 1.184-.335.371-.225.675-.563.906-1.014.233-.45.352-.998.352-1.644 0-1.027-.227-1.824-.677-2.396-.451-.57-1.047-.855-1.783-.855-.719 0-1.294.271-1.727.818s-.65 1.326-.65 2.332zM649.166 99.661v3.729c.32-.368.632-.66.936-.875a3.377 3.377 0 0 1 1.01-.483 4.28 4.28 0 0 1 1.188-.16c.638 0 1.203.135 1.698.405.495.269.884.664 1.167 1.179.177.3.297.637.358 1.008.06.372.092.8.092 1.284v4.817c0 .504-.115.886-.346 1.145-.229.256-.536.385-.916.385-.83 0-1.244-.509-1.244-1.529v-4.245c0-.804-.118-1.422-.36-1.855-.238-.434-.691-.65-1.361-.65-.448 0-.852.128-1.21.383-.36.253-.629.602-.808 1.043-.135.375-.203 1.042-.203 2v3.323c0 .497-.111.877-.335 1.137-.224.262-.535.393-.935.393-.829 0-1.242-.509-1.242-1.529V99.661c0-.51.106-.893.325-1.148.218-.255.524-.382.917-.382.399 0 .711.13.935.389.223.256.334.636.334 1.141zM227.674 134.855l-.645-1.694h-5.489l-.644 1.73c-.252.677-.468 1.132-.646 1.369-.177.234-.469.354-.875.354-.343 0-.647-.127-.912-.377-.264-.253-.396-.538-.396-.856 0-.186.031-.377.092-.572.062-.194.163-.47.304-.818l3.454-8.768c.099-.252.216-.556.355-.907.138-.354.285-.648.442-.882.156-.231.363-.422.617-.566.255-.144.569-.215.944-.215.38 0 .699.071.953.215.255.145.461.331.618.559.156.227.289.47.396.731s.244.61.41 1.045l3.527 8.714c.276.663.414 1.145.414 1.444 0 .313-.13.603-.392.862a1.281 1.281 0 0 1-.943.392 1.21 1.21 0 0 1-.553-.116 1.136 1.136 0 0 1-.387-.313 2.848 2.848 0 0 1-.336-.608 31.1 31.1 0 0 1-.308-.723zm-5.416-3.748h4.034l-2.035-5.572-1.999 5.572zM238.957 135.196v-.321c-.302.38-.618.7-.949.959a3.538 3.538 0 0 1-1.087.574 4.432 4.432 0 0 1-1.345.188c-.607 0-1.152-.126-1.634-.378s-.855-.599-1.119-1.04c-.313-.534-.469-1.301-.469-2.303v-4.983c0-.502.113-.879.341-1.127.228-.25.527-.374.902-.374.38 0 .688.127.921.379.232.252.349.627.349 1.122v4.025c0 .582.049 1.073.147 1.47.098.397.275.705.53.929.254.224.601.337 1.036.337a2.12 2.12 0 0 0 1.197-.377c.375-.252.648-.58.82-.985.141-.356.212-1.137.212-2.34v-3.059c0-.495.117-.87.35-1.122.232-.252.537-.379.912-.379.374 0 .675.124.903.374.227.248.34.625.34 1.127v7.286c0 .479-.108.838-.327 1.076-.218.24-.499.36-.843.36-.343 0-.627-.125-.852-.375-.224-.244-.335-.593-.335-1.043zM250.708 135.179v-.25c-.337.388-.67.703-.999.943a3.677 3.677 0 0 1-1.069.554 4.002 4.002 0 0 1-1.257.189 3.71 3.71 0 0 1-1.672-.383c-.512-.256-.955-.617-1.33-1.091s-.659-1.028-.852-1.667-.29-1.328-.29-2.072c0-1.571.384-2.797 1.151-3.674.768-.878 1.778-1.318 3.03-1.318.724 0 1.335.125 1.833.375.497.245.982.629 1.454 1.144v-3.711c0-.515.104-.904.309-1.168.207-.266.499-.396.88-.396.38 0 .673.121.88.363.205.243.308.6.308 1.073v11.089c0 .479-.11.838-.331 1.076-.222.24-.507.36-.856.36-.344 0-.628-.125-.852-.375-.225-.245-.337-.601-.337-1.061zm-4.945-3.693c0 .68.106 1.26.317 1.74.212.479.502.838.871 1.082.369.241.771.363 1.207.363.442 0 .846-.113 1.211-.347.365-.229.657-.582.875-1.057.218-.476.328-1.07.328-1.782 0-.67-.109-1.245-.328-1.729-.218-.482-.513-.851-.884-1.105a2.116 2.116 0 0 0-1.22-.382c-.46 0-.873.13-1.234.394-.362.26-.643.634-.843 1.122-.201.487-.3 1.054-.3 1.701zM256.879 125.224c-.35 0-.649-.108-.898-.323-.249-.216-.373-.519-.373-.912 0-.356.127-.65.381-.879.255-.229.552-.347.89-.347.325 0 .614.105.866.313.251.209.378.514.378.912 0 .389-.123.69-.369.906-.246.219-.538.33-.875.33zm1.244 2.594v7.269c0 .502-.12.884-.359 1.142-.24.259-.543.387-.912.387-.368 0-.667-.132-.898-.396-.229-.264-.345-.641-.345-1.132v-7.194c0-.495.116-.87.345-1.122.231-.252.53-.379.898-.379.369 0 .672.127.912.379.238.25.359.598.359 1.046zM260.858 126.613h.276v-1.51c0-.405.011-.726.032-.954.022-.229.081-.428.179-.595a1.194 1.194 0 0 1 1.041-.578c.319 0 .608.118.866.358.172.16.28.354.327.585.046.229.069.557.069.98v1.713h.921c.356 0 .627.084.815.254a.833.833 0 0 1 .281.648c0 .337-.133.573-.401.708-.267.137-.649.205-1.147.205h-.469v4.621c0 .395.013.696.042.907a.918.918 0 0 0 .221.517c.12.133.314.198.584.198.147 0 .348-.027.599-.077a2.92 2.92 0 0 1 .589-.08.76.76 0 0 1 .548.244.823.823 0 0 1 .244.603c0 .407-.221.717-.664.931-.442.215-1.077.323-1.906.323-.786 0-1.381-.132-1.787-.396a1.836 1.836 0 0 1-.796-1.096c-.125-.467-.188-1.09-.188-1.868v-4.826h-.332c-.361 0-.638-.087-.828-.258a.85.85 0 0 1-.286-.655c0-.264.1-.48.3-.648.199-.17.489-.254.87-.254zM275.492 133.328c0 .693-.168 1.287-.507 1.782-.337.493-.837.866-1.497 1.122-.659.255-1.462.383-2.408.383-.903 0-1.676-.139-2.321-.413-.645-.278-1.12-.624-1.427-1.039-.307-.413-.461-.83-.461-1.246 0-.277.098-.513.295-.709.196-.198.445-.295.746-.295.264 0 .466.063.607.193.141.128.277.31.405.543.258.449.566.784.926 1.004.358.222.849.332 1.469.332.504 0 .916-.113 1.239-.337.322-.224.483-.48.483-.769 0-.441-.167-.766-.502-.967-.335-.203-.886-.396-1.653-.58-.866-.215-1.57-.441-2.114-.677-.542-.236-.978-.549-1.304-.936-.325-.387-.487-.863-.487-1.429 0-.503.15-.977.451-1.427.302-.448.745-.807 1.331-1.071.586-.267 1.294-.402 2.123-.402a6.88 6.88 0 0 1 1.754.204c.519.135.952.314 1.299.543.346.227.61.479.792.754.181.278.271.546.271.81 0 .29-.097.527-.289.71-.194.186-.468.277-.825.277a1 1 0 0 1-.658-.222 4.382 4.382 0 0 1-.622-.662 2.252 2.252 0 0 0-.671-.59c-.259-.147-.609-.222-1.05-.222-.455 0-.832.097-1.133.29-.301.194-.452.437-.452.724 0 .265.111.479.332.649.221.169.519.309.894.419.375.109.891.245 1.547.404.78.192 1.417.419 1.911.683.495.263.87.575 1.124.935.255.362.382.77.382 1.232zM288.69 135.196c-.608.473-1.196.827-1.764 1.064a4.982 4.982 0 0 1-1.911.354c-.646 0-1.212-.128-1.7-.383a2.811 2.811 0 0 1-1.128-1.036 2.684 2.684 0 0 1-.396-1.418c0-.688.218-1.273.654-1.761.436-.483 1.034-.81 1.796-.974.159-.036.555-.121 1.188-.25a51.896 51.896 0 0 0 1.626-.353c.45-.108.941-.239 1.469-.393-.031-.663-.164-1.149-.4-1.46-.237-.312-.727-.465-1.47-.465-.638 0-1.119.088-1.441.267-.323.179-.6.445-.83.802-.23.355-.393.59-.488.703s-.299.17-.613.17c-.282 0-.526-.09-.732-.271a.882.882 0 0 1-.308-.695c0-.441.157-.871.469-1.288.313-.417.802-.762 1.464-1.032.664-.269 1.49-.404 2.478-.404 1.105 0 1.974.13 2.606.392.632.26 1.079.673 1.339 1.238.262.565.392 1.313.392 2.247a199.594 199.594 0 0 1-.018 2.872c0 .474.078.967.234 1.48.158.514.236.842.236.988 0 .259-.122.493-.364.705a1.21 1.21 0 0 1-.824.318c-.257 0-.513-.121-.764-.363-.251-.241-.517-.593-.8-1.054zm-.166-3.636c-.369.135-.904.278-1.608.429-.703.149-1.189.26-1.459.331-.27.07-.527.209-.773.414-.246.206-.368.493-.368.861 0 .379.144.705.433.972.288.267.666.398 1.132.398.498 0 .957-.106 1.378-.325.42-.218.729-.498.925-.843.228-.381.341-1.007.341-1.879v-.358zM295.827 127.782v.305c.443-.583.926-1.012 1.45-1.285.526-.271 1.129-.41 1.811-.41.664 0 1.255.146 1.778.432.522.29.912.699 1.169 1.228.166.307.273.638.322.993.049.356.074.812.074 1.363v4.68c0 .502-.114.884-.346 1.142-.229.259-.528.387-.896.387-.375 0-.68-.132-.912-.396-.233-.264-.35-.641-.35-1.132v-4.19c0-.831-.115-1.464-.346-1.9-.23-.44-.688-.662-1.377-.662-.448 0-.856.133-1.225.403a2.306 2.306 0 0 0-.811 1.099c-.122.375-.184 1.075-.184 2.101v3.15c0 .508-.118.89-.354 1.146-.237.255-.542.383-.917.383-.362 0-.66-.132-.893-.396-.233-.264-.35-.641-.35-1.132v-7.269c0-.478.104-.835.313-1.071.209-.237.495-.355.857-.355.221 0 .421.054.599.157.178.104.321.262.428.47s.16.459.16.759zM311.825 135.179v-.25a6.16 6.16 0 0 1-1 .943 3.672 3.672 0 0 1-1.068.554 4.007 4.007 0 0 1-1.257.189 3.706 3.706 0 0 1-1.672-.383c-.512-.256-.956-.617-1.331-1.091s-.659-1.028-.852-1.667a7.093 7.093 0 0 1-.29-2.072c0-1.571.383-2.797 1.151-3.674.768-.878 1.778-1.318 3.03-1.318.725 0 1.336.125 1.833.375.498.245.982.629 1.455 1.144v-3.711c0-.515.104-.904.308-1.168.206-.266.5-.396.88-.396s.673.121.879.363c.206.243.308.6.308 1.073v11.089c0 .479-.11.838-.332 1.076a1.11 1.11 0 0 1-.856.36c-.344 0-.627-.125-.852-.375-.221-.245-.334-.601-.334-1.061zm-4.946-3.693c0 .68.106 1.26.317 1.74.212.479.502.838.871 1.082.368.241.771.363 1.206.363a2.2 2.2 0 0 0 1.212-.347c.365-.229.657-.582.874-1.057.219-.476.328-1.07.328-1.782 0-.67-.109-1.245-.328-1.729-.217-.482-.512-.851-.884-1.105a2.114 2.114 0 0 0-1.22-.382c-.46 0-.872.13-1.233.394-.363.26-.644.634-.843 1.122-.2.487-.3 1.054-.3 1.701zM333.118 132.121c0 .431-.105.896-.317 1.394-.211.502-.545.992-.999 1.474-.454.483-1.034.875-1.741 1.177-.705.3-1.528.45-2.468.45-.711 0-1.36-.068-1.943-.203a5.404 5.404 0 0 1-1.588-.63 5.349 5.349 0 0 1-1.313-1.129 6.682 6.682 0 0 1-.912-1.422c-.252-.526-.441-1.085-.567-1.682s-.188-1.229-.188-1.897c0-1.087.158-2.061.475-2.919a6.253 6.253 0 0 1 1.357-2.207 5.963 5.963 0 0 1 2.073-1.396 6.712 6.712 0 0 1 2.532-.478c1.094 0 2.066.218 2.92.654.854.436 1.508.974 1.962 1.615.454.643.681 1.249.681 1.819 0 .313-.109.59-.331.828-.221.24-.488.358-.801.358-.35 0-.612-.082-.788-.247-.175-.166-.369-.453-.585-.858-.355-.668-.774-1.168-1.258-1.5-.48-.332-1.075-.497-1.78-.497-1.125 0-2.019.427-2.685 1.28-.667.854-.999 2.067-.999 3.638 0 1.05.146 1.924.442 2.62.295.697.711 1.219 1.252 1.563.54.342 1.173.515 1.897.515.786 0 1.45-.194 1.994-.583.543-.392.953-.964 1.23-1.719.116-.356.26-.646.432-.872.172-.224.448-.335.829-.335.325 0 .604.113.838.34s.349.511.349.849zM344.816 131.503c0 .75-.117 1.44-.353 2.073a4.51 4.51 0 0 1-1.012 1.631c-.441.453-.97.802-1.583 1.045-.615.242-1.308.363-2.072.363-.762 0-1.447-.121-2.054-.368a4.561 4.561 0 0 1-1.58-1.056 4.51 4.51 0 0 1-1.014-1.62 5.93 5.93 0 0 1-.346-2.068c0-.761.117-1.457.351-2.091a4.522 4.522 0 0 1 1.005-1.62c.436-.45.964-.793 1.584-1.035.618-.245 1.304-.365 2.054-.365.76 0 1.452.124 2.072.369.62.244 1.149.597 1.593 1.05a4.56 4.56 0 0 1 1.009 1.62 6 6 0 0 1 .346 2.072zm-2.526 0c0-1.023-.225-1.822-.675-2.394-.451-.57-1.059-.857-1.818-.857a2.26 2.26 0 0 0-1.301.384c-.373.255-.663.63-.863 1.127-.205.498-.305 1.076-.305 1.74 0 .656.1 1.233.298 1.724.2.49.485.866.857 1.127.371.262.81.392 1.313.392.76 0 1.367-.287 1.818-.862.451-.572.676-1.366.676-2.381zM349.08 127.782v.305c.441-.583.925-1.012 1.448-1.285.528-.271 1.131-.41 1.813-.41.661 0 1.255.146 1.776.432.522.29.914.699 1.171 1.228.165.307.273.638.321.993.05.356.073.812.073 1.363v4.68c0 .502-.113.884-.347 1.142-.229.259-.526.387-.895.387-.377 0-.681-.132-.912-.396-.233-.264-.352-.641-.352-1.132v-4.19c0-.831-.113-1.464-.346-1.9-.229-.44-.688-.662-1.377-.662-.446 0-.854.133-1.224.403-.368.267-.64.632-.81 1.099-.123.375-.186 1.075-.186 2.101v3.15c0 .508-.118.89-.353 1.146a1.202 1.202 0 0 1-.919.383c-.361 0-.66-.132-.894-.396-.231-.264-.35-.641-.35-1.132v-7.269c0-.478.103-.835.313-1.071.21-.237.494-.355.856-.355.22 0 .422.054.599.157.177.104.321.262.43.47.11.204.165.459.165.759zM357.986 126.613h.599v-.755c0-.785.099-1.412.299-1.874a1.9 1.9 0 0 1 1.013-1.015c.476-.212 1.127-.316 1.957-.316 1.468 0 2.201.359 2.201 1.076a.851.851 0 0 1-.23.601.717.717 0 0 1-.543.246c-.097 0-.268-.017-.506-.053a4.122 4.122 0 0 0-.609-.057c-.454 0-.745.133-.874.401-.128.267-.195.65-.195 1.146v.6h.619c.958 0 1.437.287 1.437.865 0 .412-.128.672-.383.782-.256.111-.605.168-1.054.168h-.619v6.658c0 .497-.116.877-.353 1.137a1.178 1.178 0 0 1-.916.392 1.15 1.15 0 0 1-.89-.392c-.236-.26-.354-.64-.354-1.137v-6.658h-.691c-.375 0-.664-.085-.865-.255a.815.815 0 0 1-.304-.658c0-.6.42-.902 1.261-.902zM365.741 125.224c-.352 0-.65-.108-.898-.323-.25-.216-.373-.519-.373-.912 0-.356.126-.65.382-.879.255-.229.552-.347.89-.347.325 0 .613.105.863.313.254.209.379.514.379.912 0 .389-.124.69-.368.906-.246.219-.538.33-.875.33zm1.242 2.594v7.269c0 .502-.12.884-.358 1.142-.24.259-.544.387-.912.387s-.667-.132-.898-.396c-.23-.264-.345-.641-.345-1.132v-7.194c0-.495.114-.87.345-1.122.231-.252.53-.379.898-.379s.672.127.912.379c.238.25.358.598.358 1.046zM376.468 135.179v-.25c-.336.388-.67.703-.998.943a3.697 3.697 0 0 1-1.068.554 4.007 4.007 0 0 1-1.257.189 3.703 3.703 0 0 1-1.672-.383 3.884 3.884 0 0 1-1.331-1.091c-.373-.474-.658-1.028-.852-1.667s-.29-1.328-.29-2.072c0-1.571.384-2.797 1.152-3.674.767-.878 1.776-1.318 3.028-1.318.726 0 1.336.125 1.834.375.497.245.981.629 1.453 1.144v-3.711c0-.515.104-.904.311-1.168.205-.266.498-.396.878-.396.382 0 .676.121.881.363.206.243.31.6.31 1.073v11.089c0 .479-.111.838-.331 1.076-.222.24-.509.36-.859.36-.343 0-.626-.125-.85-.375-.225-.245-.339-.601-.339-1.061zm-4.944-3.693c0 .68.106 1.26.316 1.74.213.479.502.838.87 1.082.368.241.771.363 1.207.363a2.2 2.2 0 0 0 1.212-.347c.365-.229.656-.582.873-1.057.219-.476.328-1.07.328-1.782 0-.67-.109-1.245-.328-1.729-.217-.482-.512-.851-.884-1.105a2.116 2.116 0 0 0-1.22-.382c-.46 0-.872.13-1.233.394-.363.26-.644.634-.844 1.122-.199.487-.297 1.054-.297 1.701zM388.387 132.121h-4.919c.009.57.122 1.073.347 1.511.224.437.521.765.894.984.372.222.78.332 1.229.332.302 0 .577-.036.825-.106s.49-.18.722-.332c.233-.149.45-.31.646-.481.195-.174.45-.405.764-.7.129-.11.313-.167.552-.167.259 0 .467.07.627.212s.24.34.24.599c0 .229-.09.493-.267.795-.179.307-.448.597-.808.877s-.81.512-1.354.695c-.543.185-1.168.276-1.875.276-1.613 0-2.869-.46-3.766-1.382-.896-.92-1.345-2.17-1.345-3.747 0-.744.111-1.434.331-2.069.222-.635.544-1.18.969-1.635a4.208 4.208 0 0 1 1.563-1.045c.62-.242 1.309-.363 2.063-.363.983 0 1.825.206 2.529.62.703.416 1.229.953 1.58 1.608.349.656.523 1.326.523 2.009 0 .632-.182 1.041-.543 1.229-.36.187-.87.28-1.527.28zm-4.919-1.429h4.561c-.062-.858-.293-1.502-.696-1.93-.402-.426-.931-.639-1.589-.639-.625 0-1.141.217-1.542.65-.404.431-.647 1.073-.734 1.919zM394.861 127.782v.305c.441-.583.927-1.012 1.452-1.285.525-.271 1.127-.41 1.811-.41.663 0 1.255.146 1.776.432.522.29.912.699 1.171 1.228.163.307.271.638.321.993.05.356.073.812.073 1.363v4.68c0 .502-.115.884-.345 1.142-.23.259-.528.387-.897.387-.376 0-.68-.132-.913-.396-.233-.264-.35-.641-.35-1.132v-4.19c0-.831-.115-1.464-.346-1.9-.229-.44-.688-.662-1.377-.662-.448 0-.856.133-1.225.403a2.293 2.293 0 0 0-.811 1.099c-.123.375-.185 1.075-.185 2.101v3.15c0 .508-.117.89-.354 1.146a1.198 1.198 0 0 1-.917.383c-.363 0-.66-.132-.892-.396-.235-.264-.353-.641-.353-1.132v-7.269c0-.478.105-.835.313-1.071.209-.237.494-.355.857-.355.22 0 .42.054.599.157.178.104.319.262.428.47s.164.459.164.759zM404.109 126.613h.277v-1.51c0-.405.012-.726.031-.954.021-.229.082-.428.179-.595a1.204 1.204 0 0 1 1.042-.578c.318 0 .608.118.866.358.17.16.28.354.327.585.045.229.07.557.07.98v1.713h.92c.354 0 .628.084.814.254a.83.83 0 0 1 .28.648c0 .337-.133.573-.399.708-.268.137-.65.205-1.147.205h-.468v4.621c0 .395.011.696.039.907a.92.92 0 0 0 .223.517c.118.133.314.198.585.198.146 0 .345-.027.598-.077a2.91 2.91 0 0 1 .589-.08c.203 0 .385.082.549.244a.818.818 0 0 1 .243.603c0 .407-.22.717-.662.931-.443.215-1.078.323-1.907.323-.785 0-1.382-.132-1.786-.396a1.834 1.834 0 0 1-.797-1.096c-.127-.467-.188-1.09-.188-1.868v-4.826h-.332c-.363 0-.639-.087-.828-.258a.854.854 0 0 1-.287-.655c0-.264.1-.48.3-.648.199-.17.488-.254.869-.254zM411.92 125.224c-.353 0-.65-.108-.899-.323-.248-.216-.373-.519-.373-.912 0-.356.127-.65.382-.879.255-.229.552-.347.891-.347.324 0 .613.105.864.313.252.209.379.514.379.912 0 .389-.123.69-.368.906-.246.219-.538.33-.876.33zm1.243 2.594v7.269c0 .502-.122.884-.358 1.142a1.194 1.194 0 0 1-.914.387c-.368 0-.666-.132-.898-.396-.228-.264-.345-.641-.345-1.132v-7.194c0-.495.117-.87.345-1.122.232-.252.53-.379.898-.379.369 0 .672.127.914.379.236.25.358.598.358 1.046zM422.116 135.196c-.61.473-1.197.827-1.764 1.064a4.984 4.984 0 0 1-1.912.354c-.645 0-1.212-.128-1.698-.383a2.833 2.833 0 0 1-1.131-1.036 2.692 2.692 0 0 1-.395-1.418c0-.688.219-1.273.653-1.761.437-.483 1.035-.81 1.797-.974.16-.036.556-.121 1.187-.25a50.204 50.204 0 0 0 1.627-.353c.45-.108.94-.239 1.469-.393-.029-.663-.163-1.149-.399-1.46-.237-.312-.728-.465-1.471-.465-.639 0-1.118.088-1.44.267-.323.179-.6.445-.828.802-.231.355-.396.59-.49.703-.094.113-.298.17-.611.17a1.07 1.07 0 0 1-.732-.271.883.883 0 0 1-.309-.695c0-.441.157-.871.471-1.288s.8-.762 1.464-1.032c.663-.269 1.488-.404 2.477-.404 1.105 0 1.974.13 2.607.392.633.26 1.078.673 1.34 1.238.261.565.391 1.313.391 2.247 0 .588-.002 1.09-.004 1.502l-.013 1.37c0 .474.078.967.233 1.48.158.514.234.842.234.988 0 .259-.121.493-.363.705a1.206 1.206 0 0 1-.825.318c-.257 0-.512-.121-.764-.363-.252-.241-.519-.593-.801-1.054zm-.167-3.636c-.368.135-.905.278-1.606.429-.704.149-1.188.26-1.46.331-.271.07-.529.209-.774.414-.244.206-.368.493-.368.861 0 .379.146.705.434.972s.667.398 1.132.398c.498 0 .957-.106 1.379-.325.42-.218.727-.498.925-.843.227-.381.34-1.007.34-1.879v-.358zM426.967 135.087v-10.905c0-.504.113-.884.339-1.142.224-.259.524-.387.906-.387.381 0 .688.126.921.381.233.256.35.639.35 1.147v10.905c0 .508-.118.89-.354 1.146-.236.255-.543.383-.917.383-.368 0-.668-.132-.898-.396-.23-.264-.347-.641-.347-1.132zM445.867 124.991h-6.161v3.316h5.673c.418 0 .729.093.935.281s.309.436.309.74a.999.999 0 0 1-.302.752c-.205.191-.517.29-.941.29h-5.673v3.841h6.373c.43 0 .753.1.972.298.218.2.328.465.328.797 0 .32-.11.58-.328.778-.219.2-.542.301-.972.301h-7.432c-.595 0-1.025-.134-1.285-.397-.262-.263-.392-.691-.392-1.28V124.56c0-.394.059-.713.177-.963.115-.25.298-.429.547-.544.248-.113.566-.17.953-.17h7.22c.437 0 .76.095.974.292.21.191.316.445.316.759 0 .319-.106.574-.316.768-.215.193-.538.289-.975.289zM451.658 127.782v.305c.443-.583.927-1.012 1.452-1.285.524-.271 1.127-.41 1.81-.41.664 0 1.256.146 1.777.432.521.29.912.699 1.17 1.228.165.307.272.638.322.993.05.356.073.812.073 1.363v4.68c0 .502-.115.884-.345 1.142-.23.259-.529.387-.897.387-.375 0-.679-.132-.913-.396-.233-.264-.351-.641-.351-1.132v-4.19c0-.831-.113-1.464-.345-1.9-.23-.44-.688-.662-1.375-.662-.45 0-.858.133-1.228.403a2.298 2.298 0 0 0-.81 1.099c-.123.375-.184 1.075-.184 2.101v3.15c0 .508-.118.89-.355 1.146-.236.255-.541.383-.916.383-.362 0-.66-.132-.893-.396-.233-.264-.352-.641-.352-1.132v-7.269c0-.478.105-.835.315-1.071.208-.237.491-.355.855-.355.222 0 .421.054.598.157.179.104.322.262.429.47.111.204.163.459.163.759zM467.657 138.669v-3.546a5.63 5.63 0 0 1-1.515 1.109 3.935 3.935 0 0 1-1.744.383c-.781 0-1.49-.205-2.134-.618-.642-.41-1.144-1.002-1.51-1.771-.365-.771-.549-1.679-.549-2.724 0-1.068.186-1.983.554-2.749.368-.765.88-1.345 1.533-1.745a4.113 4.113 0 0 1 2.179-.599c.676 0 1.279.139 1.814.42.533.278.991.704 1.371 1.275v-.304c0-.461.11-.81.332-1.052.22-.238.507-.358.856-.358.351 0 .637.118.857.355.222.236.332.587.332 1.055v10.867c0 1.117-.397 1.676-1.189 1.676-.491 0-.812-.15-.961-.45-.149-.299-.226-.707-.226-1.224zm-4.927-7.183c0 .673.109 1.255.328 1.745.218.486.503.851.86 1.085.356.237.74.355 1.151.355.447 0 .86-.118 1.233-.355.374-.234.676-.597.902-1.082.227-.484.34-1.083.34-1.795 0-.504-.065-.959-.196-1.363a2.943 2.943 0 0 0-.54-1.007 2.202 2.202 0 0 0-.782-.603 2.295 2.295 0 0 0-.938-.196c-.677 0-1.237.28-1.686.839-.447.558-.672 1.35-.672 2.377zM479.088 135.196v-.321c-.302.38-.617.7-.948.959a3.515 3.515 0 0 1-1.089.574c-.392.125-.84.188-1.344.188-.608 0-1.151-.126-1.633-.378a2.77 2.77 0 0 1-1.121-1.04c-.313-.534-.47-1.301-.47-2.303v-4.983c0-.502.115-.879.342-1.127.227-.25.528-.374.901-.374.382 0 .688.127.922.379.233.252.351.627.351 1.122v4.025c0 .582.048 1.073.146 1.47.099.397.275.705.53.929s.599.337 1.035.337c.424 0 .823-.127 1.197-.377.375-.252.648-.58.821-.985.14-.356.21-1.137.21-2.34v-3.059c0-.495.117-.87.351-1.122s.536-.379.913-.379c.373 0 .674.124.9.374.229.248.342.625.342 1.127v7.286c0 .479-.108.838-.327 1.076-.218.24-.498.36-.842.36-.345 0-.63-.125-.854-.375-.222-.244-.333-.593-.333-1.043zM485.223 125.224c-.352 0-.65-.108-.898-.323-.249-.216-.374-.519-.374-.912 0-.356.127-.65.382-.879.255-.229.552-.347.891-.347.325 0 .613.105.865.313.251.209.378.514.378.912 0 .389-.123.69-.368.906-.246.219-.54.33-.876.33zm1.243 2.594v7.269c0 .502-.122.884-.358 1.142a1.192 1.192 0 0 1-.913.387c-.369 0-.667-.132-.898-.396-.229-.264-.346-.641-.346-1.132v-7.194c0-.495.117-.87.346-1.122.231-.252.529-.379.898-.379.368 0 .672.127.913.379.236.25.358.598.358 1.046zM491.559 132.986v2.101c0 .508-.12.89-.36 1.146a1.194 1.194 0 0 1-.912.383c-.363 0-.659-.128-.893-.387-.233-.258-.349-.64-.349-1.142v-7c0-1.13.406-1.695 1.224-1.695.418 0 .718.132.901.396.186.265.285.655.306 1.17.3-.515.609-.905.925-1.17.316-.264.738-.396 1.265-.396.529 0 1.042.132 1.539.396.498.265.747.615.747 1.052 0 .307-.105.56-.318.76-.212.198-.44.299-.686.299-.093 0-.314-.057-.668-.172a3.118 3.118 0 0 0-.936-.17c-.368 0-.668.097-.901.292-.233.193-.414.479-.544.859a6.043 6.043 0 0 0-.267 1.359 20.77 20.77 0 0 0-.073 1.919zM498.595 125.224c-.35 0-.65-.108-.896-.323-.25-.216-.375-.519-.375-.912 0-.356.128-.65.383-.879a1.29 1.29 0 0 1 .889-.347c.325 0 .615.105.865.313.252.209.378.514.378.912 0 .389-.123.69-.368.906-.246.219-.537.33-.876.33zm1.243 2.594v7.269c0 .502-.12.884-.358 1.142-.241.259-.545.387-.913.387s-.667-.132-.896-.396c-.23-.264-.347-.641-.347-1.132v-7.194c0-.495.116-.87.347-1.122.229-.252.528-.379.896-.379s.672.127.913.379c.238.25.358.598.358 1.046zM509.453 132.121h-4.919c.007.57.122 1.073.345 1.511.226.437.523.765.896.984.37.222.78.332 1.229.332.302 0 .575-.036.823-.106.25-.07.49-.18.724-.332.233-.149.448-.31.646-.481.196-.174.451-.405.763-.7.131-.11.313-.167.554-.167.259 0 .467.07.627.212s.238.34.238.599c0 .229-.088.493-.265.795-.181.307-.449.597-.808.877-.359.28-.81.512-1.354.695-.542.185-1.167.276-1.874.276-1.613 0-2.87-.46-3.768-1.382-.896-.92-1.344-2.17-1.344-3.747 0-.744.11-1.434.332-2.069.22-.635.542-1.18.967-1.635a4.216 4.216 0 0 1 1.565-1.045c.62-.242 1.309-.363 2.063-.363.983 0 1.826.206 2.528.62.703.416 1.229.953 1.58 1.608.349.656.525 1.326.525 2.009 0 .632-.182 1.041-.545 1.229-.361.187-.871.28-1.528.28zm-4.919-1.429h4.559c-.06-.858-.293-1.502-.694-1.93-.403-.426-.933-.639-1.589-.639-.627 0-1.141.217-1.544.65-.402.431-.645 1.073-.732 1.919zM521.739 133.328c0 .693-.169 1.287-.507 1.782-.337.493-.836.866-1.497 1.122-.66.255-1.462.383-2.409.383-.9 0-1.674-.139-2.32-.413-.644-.278-1.118-.624-1.427-1.039-.307-.413-.46-.83-.46-1.246 0-.277.098-.513.295-.709.196-.198.445-.295.745-.295.265 0 .467.063.608.193.142.128.275.31.405.543.258.449.566.784.927 1.004.358.222.849.332 1.469.332.503 0 .915-.113 1.238-.337.321-.224.483-.48.483-.769 0-.441-.168-.766-.502-.967-.335-.203-.885-.396-1.653-.58-.865-.215-1.57-.441-2.114-.677-.543-.236-.979-.549-1.303-.936-.325-.387-.489-.863-.489-1.429 0-.503.15-.977.452-1.427.302-.448.745-.807 1.332-1.071.585-.267 1.294-.402 2.122-.402.65 0 1.235.067 1.754.204.518.135.951.314 1.3.543.347.227.61.479.792.754.182.278.271.546.271.81 0 .29-.099.527-.29.71-.195.186-.47.277-.825.277a1 1 0 0 1-.658-.222 4.332 4.332 0 0 1-.622-.662 2.243 2.243 0 0 0-.672-.59c-.258-.147-.608-.222-1.05-.222-.455 0-.832.097-1.134.29-.3.194-.45.437-.45.724 0 .265.11.479.33.649.222.169.521.309.894.419.375.109.892.245 1.547.404.782.192 1.417.419 1.912.683.493.263.868.575 1.124.935.255.362.382.77.382 1.232zM534.937 135.196c-.608.473-1.195.827-1.764 1.064a4.98 4.98 0 0 1-1.912.354c-.644 0-1.211-.128-1.699-.383a2.818 2.818 0 0 1-1.128-1.036 2.684 2.684 0 0 1-.396-1.418c0-.688.219-1.273.652-1.761.437-.483 1.036-.81 1.797-.974.16-.036.555-.121 1.188-.25a51.15 51.15 0 0 0 1.625-.353c.452-.108.941-.239 1.469-.393-.03-.663-.163-1.149-.4-1.46-.236-.312-.727-.465-1.469-.465-.64 0-1.12.088-1.441.267a2.333 2.333 0 0 0-.828.802c-.23.355-.394.59-.489.703-.095.113-.298.17-.611.17-.282 0-.528-.09-.733-.271a.881.881 0 0 1-.307-.695c0-.441.154-.871.468-1.288s.801-.762 1.464-1.032c.664-.269 1.49-.404 2.479-.404 1.105 0 1.974.13 2.605.392.634.26 1.08.673 1.341 1.238.26.565.392 1.313.392 2.247 0 .588-.002 1.09-.005 1.502-.004.41-.007.868-.014 1.37 0 .474.078.967.235 1.48.156.514.234.842.234.988 0 .259-.121.493-.364.705a1.207 1.207 0 0 1-.824.318c-.258 0-.512-.121-.763-.363-.255-.241-.521-.593-.802-1.054zm-.167-3.636c-.368.135-.903.278-1.607.429-.703.149-1.188.26-1.458.331-.271.07-.528.209-.775.414-.245.206-.368.493-.368.861 0 .379.145.705.435.972.287.267.665.398 1.132.398a2.94 2.94 0 0 0 1.377-.325c.42-.218.729-.498.926-.843.227-.381.34-1.007.34-1.879v-.358zM548.807 133.502c0 .313-.093.648-.279 1.005-.188.354-.474.695-.859 1.017-.383.323-.866.582-1.448.778-.583.197-1.242.295-1.972.295-1.554 0-2.768-.451-3.638-1.358-.872-.905-1.309-2.12-1.309-3.643 0-1.031.2-1.943.599-2.735.4-.792.977-1.405 1.731-1.838.756-.434 1.657-.648 2.709-.648.65 0 1.247.095 1.791.286.543.19 1.003.436 1.382.737.376.3.665.62.865.96.199.343.3.66.3.955 0 .3-.113.555-.337.764a1.154 1.154 0 0 1-.815.313.82.82 0 0 1-.52-.162 2.511 2.511 0 0 1-.466-.521c-.308-.467-.628-.816-.961-1.05-.336-.231-.761-.35-1.275-.35-.745 0-1.342.291-1.797.871-.455.579-.683 1.374-.683 2.381 0 .472.059.906.176 1.304.116.394.285.733.507 1.012.22.28.486.491.802.635a2.43 2.43 0 0 0 1.031.219c.502 0 .934-.118 1.294-.352.358-.233.675-.591.953-1.069.153-.281.318-.503.495-.663a.955.955 0 0 1 .655-.238c.307 0 .562.117.766.349.201.233.303.48.303.746zM553.496 132.986v2.101c0 .508-.12.89-.36 1.146a1.194 1.194 0 0 1-.911.383 1.15 1.15 0 0 1-.894-.387c-.233-.258-.349-.64-.349-1.142v-7c0-1.13.406-1.695 1.224-1.695.418 0 .718.132.903.396.184.265.283.655.304 1.17.3-.515.609-.905.925-1.17.316-.264.738-.396 1.266-.396a3.24 3.24 0 0 1 1.538.396c.498.265.747.615.747 1.052 0 .307-.105.56-.318.76-.21.198-.44.299-.686.299-.092 0-.314-.057-.668-.172a3.113 3.113 0 0 0-.936-.17c-.368 0-.668.097-.901.292-.233.193-.414.479-.544.859a6.157 6.157 0 0 0-.267 1.359 21.129 21.129 0 0 0-.073 1.919zM568.674 131.503c0 .75-.118 1.44-.352 2.073a4.552 4.552 0 0 1-1.012 1.631 4.505 4.505 0 0 1-1.584 1.045c-.615.242-1.306.363-2.074.363-.76 0-1.446-.121-2.052-.368a4.55 4.55 0 0 1-2.594-2.676 5.954 5.954 0 0 1-.345-2.068c0-.761.115-1.457.35-2.091a4.52 4.52 0 0 1 1.004-1.62 4.38 4.38 0 0 1 1.585-1.035c.619-.245 1.304-.365 2.052-.365.763 0 1.452.124 2.074.369.618.244 1.15.597 1.592 1.05s.778.995 1.009 1.62c.23.627.347 1.318.347 2.072zm-2.526 0c0-1.023-.226-1.822-.675-2.394-.454-.57-1.059-.857-1.821-.857-.491 0-.923.129-1.298.384s-.664.63-.865 1.127c-.203.498-.304 1.076-.304 1.74 0 .656.099 1.233.299 1.724s.484.866.856 1.127c.372.262.809.392 1.312.392.763 0 1.367-.287 1.821-.862.45-.572.675-1.366.675-2.381zM578.747 133.328c0 .693-.168 1.287-.507 1.782-.337.493-.837.866-1.497 1.122-.66.255-1.462.383-2.408.383-.9 0-1.674-.139-2.32-.413-.644-.278-1.119-.624-1.427-1.039-.308-.413-.461-.83-.461-1.246 0-.277.099-.513.295-.709.197-.198.445-.295.746-.295.265 0 .466.063.608.193.14.128.274.31.404.543.259.449.567.784.926 1.004.358.222.85.332 1.47.332.504 0 .915-.113 1.239-.337.321-.224.483-.48.483-.769 0-.441-.169-.766-.502-.967-.335-.203-.887-.396-1.654-.58-.866-.215-1.57-.441-2.113-.677-.543-.236-.979-.549-1.304-.936s-.488-.863-.488-1.429c0-.503.15-.977.45-1.427.304-.448.747-.807 1.332-1.071.587-.267 1.295-.402 2.123-.402.65 0 1.235.067 1.754.204.519.135.952.314 1.301.543.347.227.609.479.791.754.181.278.272.546.272.81 0 .29-.099.527-.29.71-.195.186-.471.277-.825.277a.999.999 0 0 1-.659-.222 4.333 4.333 0 0 1-.621-.662 2.255 2.255 0 0 0-.672-.59c-.259-.147-.608-.222-1.051-.222-.455 0-.831.097-1.133.29-.301.194-.452.437-.452.724 0 .265.112.479.332.649.222.169.519.309.894.419.375.109.892.245 1.547.404.78.192 1.417.419 1.912.683.493.263.868.575 1.123.935.255.362.382.77.382 1.232zM588.973 133.328c0 .693-.169 1.287-.507 1.782-.339.493-.837.866-1.497 1.122-.66.255-1.462.383-2.409.383-.901 0-1.675-.139-2.32-.413-.644-.278-1.12-.624-1.427-1.039-.309-.413-.462-.83-.462-1.246 0-.277.099-.513.295-.709.197-.198.445-.295.745-.295.266 0 .469.063.61.193.14.128.275.31.405.543.258.449.565.784.925 1.004.358.222.849.332 1.469.332.504 0 .917-.113 1.238-.337.322-.224.483-.48.483-.769 0-.441-.166-.766-.501-.967-.334-.203-.886-.396-1.654-.58-.865-.215-1.568-.441-2.113-.677-.542-.236-.977-.549-1.304-.936-.323-.387-.486-.863-.486-1.429 0-.503.149-.977.449-1.427.302-.448.745-.807 1.332-1.071.587-.267 1.294-.402 2.122-.402a6.89 6.89 0 0 1 1.756.204c.519.135.951.314 1.298.543.348.227.61.479.792.754.182.278.272.546.272.81 0 .29-.098.527-.291.71-.193.186-.468.277-.823.277-.258 0-.479-.073-.66-.222a4.285 4.285 0 0 1-.62-.662 2.259 2.259 0 0 0-.673-.59c-.257-.147-.607-.222-1.051-.222-.453 0-.831.097-1.133.29-.301.194-.45.437-.45.724a.78.78 0 0 0 .331.649c.222.169.519.309.893.419.376.109.892.245 1.548.404.78.192 1.417.419 1.911.683.495.263.868.575 1.123.935.255.362.384.77.384 1.232zM595.952 126.613h.276v-1.51c0-.405.012-.726.031-.954.022-.229.082-.428.179-.595a1.204 1.204 0 0 1 1.042-.578c.318 0 .608.118.865.358.172.16.281.354.328.585.045.229.068.557.068.98v1.713h.922c.355 0 .629.084.815.254.187.168.28.385.28.648 0 .337-.134.573-.402.708-.265.137-.648.205-1.145.205h-.471v4.621c0 .395.014.696.042.907.026.213.1.385.222.517.118.133.313.198.585.198.146 0 .345-.027.597-.077.254-.055.448-.08.59-.08a.76.76 0 0 1 .549.244.818.818 0 0 1 .243.603c0 .407-.22.717-.663.931-.442.215-1.077.323-1.905.323-.787 0-1.382-.132-1.789-.396a1.835 1.835 0 0 1-.795-1.096c-.127-.467-.188-1.09-.188-1.868v-4.826h-.332c-.363 0-.64-.087-.828-.258a.854.854 0 0 1-.287-.655c0-.264.101-.48.301-.648.199-.17.488-.254.87-.254zM604.95 124.182v3.73c.32-.368.632-.66.936-.875a3.382 3.382 0 0 1 1.01-.485c.368-.106.764-.16 1.187-.16.639 0 1.204.136 1.699.405.495.271.883.663 1.167 1.179.177.302.296.637.358 1.009.06.371.091.8.091 1.286v4.816c0 .502-.114.884-.347 1.142-.228.259-.535.387-.915.387-.83 0-1.243-.51-1.243-1.528v-4.248c0-.803-.118-1.422-.36-1.854-.238-.432-.693-.65-1.363-.65a2.03 2.03 0 0 0-1.209.384 2.31 2.31 0 0 0-.807 1.045c-.135.375-.203 1.04-.203 1.998v3.326c0 .497-.111.877-.335 1.137-.224.262-.535.392-.936.392-.828 0-1.243-.51-1.243-1.528v-10.905c0-.509.108-.892.326-1.147.219-.255.523-.381.917-.381.4 0 .712.128.936.387.223.254.334.634.334 1.138zM620.903 132.121h-4.92c.009.57.122 1.073.347 1.511.224.437.522.765.894.984.372.222.78.332 1.229.332.302 0 .577-.036.825-.106.249-.07.49-.18.722-.332.233-.149.45-.31.647-.481.194-.174.45-.405.764-.7.128-.11.313-.167.552-.167.258 0 .466.07.626.212s.24.34.24.599c0 .229-.09.493-.267.795-.179.307-.448.597-.807.877-.36.28-.811.512-1.354.695-.544.185-1.169.276-1.876.276-1.613 0-2.868-.46-3.766-1.382-.896-.92-1.345-2.17-1.345-3.747 0-.744.111-1.434.332-2.069.222-.635.543-1.18.968-1.635a4.208 4.208 0 0 1 1.563-1.045c.62-.242 1.309-.363 2.064-.363.983 0 1.825.206 2.528.62.703.416 1.229.953 1.58 1.608.349.656.523 1.326.523 2.009 0 .632-.182 1.041-.543 1.229-.36.187-.869.28-1.526.28zm-4.92-1.429h4.562c-.063-.858-.294-1.502-.697-1.93-.401-.426-.93-.639-1.589-.639-.625 0-1.14.217-1.542.65-.404.431-.647 1.073-.734 1.919zM630.001 130.803v-6.493c0-.552.125-.965.374-1.243.248-.275.574-.413.979-.413.426 0 .762.138 1.009.413.25.278.375.691.375 1.243v6.642c0 .755.083 1.385.252 1.892.168.507.468.9.898 1.179.429.282 1.031.42 1.806.42 1.068 0 1.823-.283 2.265-.854.442-.566.664-1.429.664-2.58v-6.698c0-.557.123-.974.368-1.247.245-.272.573-.409.983-.409.413 0 .747.137 1.002.409.255.273.382.69.382 1.247v6.493c0 1.057-.104 1.938-.309 2.644a4.071 4.071 0 0 1-1.165 1.86 4.517 4.517 0 0 1-1.714.995c-.651.209-1.412.313-2.285.313-1.037 0-1.929-.111-2.679-.337-.75-.225-1.36-.569-1.832-1.04-.474-.472-.82-1.071-1.042-1.805-.219-.736-.331-1.611-.331-2.631zM647.069 124.31v4.734l5.367-5.6c.259-.27.479-.468.659-.598.182-.129.423-.193.723-.193.393 0 .712.116.954.345.241.229.363.51.363.842 0 .4-.207.797-.617 1.188l-3.323 3.15 3.83 5.489c.271.38.472.714.607 1 .137.284.203.563.203.834 0 .3-.118.56-.355.781-.236.222-.557.332-.962.332-.382 0-.691-.082-.93-.243a2.1 2.1 0 0 1-.608-.65 51.28 51.28 0 0 1-.442-.736l-3.231-4.973-2.237 2.146v2.79c0 .565-.132.983-.389 1.255-.258.275-.59.412-.995.412-.231 0-.457-.063-.672-.185a1.267 1.267 0 0 1-.496-.497 1.635 1.635 0 0 1-.159-.601 14.115 14.115 0 0 1-.026-.983v-10.04c0-.552.122-.965.365-1.243.241-.275.571-.413.988-.413.412 0 .745.137 1 .409.254.274.383.691.383 1.248z"/></g><path fill="#6A3B77" stroke="#6A3B77" stroke-miterlimit="10" d="M177.722 72.771l-7.575-30.105v32.621c0 1.805-.403 3.159-1.209 4.061-.806.904-1.875 1.355-3.208 1.355-1.289 0-2.342-.447-3.159-1.339-.817-.892-1.225-2.25-1.225-4.077V37.896c0-2.064.537-3.456 1.612-4.174 1.074-.72 2.525-1.08 4.352-1.08h2.966c1.783 0 3.079.16 3.885.483.805.322 1.402.902 1.789 1.74.387.839.827 2.202 1.322 4.093l6.866 25.886 6.865-25.886c.495-1.891.936-3.254 1.322-4.093.387-.838.983-1.418 1.789-1.74.807-.323 2.1-.483 3.885-.483h2.965c1.826 0 3.277.36 4.352 1.08 1.075.719 1.612 2.11 1.612 4.174v37.392c0 1.805-.403 3.159-1.209 4.061-.805.904-1.885 1.355-3.24 1.355-1.268 0-2.311-.452-3.126-1.355-.817-.902-1.225-2.255-1.225-4.061V42.667l-7.575 30.105c-.495 1.957-.897 3.391-1.209 4.304-.312.914-.886 1.747-1.725 2.499-.837.752-1.998 1.129-3.48 1.129-1.119 0-2.063-.242-2.837-.725a5.249 5.249 0 0 1-1.806-1.854 10.498 10.498 0 0 1-1.015-2.5c-.249-.913-.502-1.863-.759-2.854zM241.559 79.896h-14.442c-2.084 0-3.572-.467-4.464-1.4-.893-.936-1.338-2.424-1.338-4.468V38.507c0-2.084.456-3.584 1.37-4.498.913-.912 2.391-1.369 4.432-1.369h15.312c2.256 0 4.211.139 5.866.418 1.655.278 3.138.817 4.449 1.612a11.673 11.673 0 0 1 2.966 2.529 11.18 11.18 0 0 1 1.966 3.387c.452 1.235.677 2.541.677 3.916 0 4.728-2.364 8.187-7.092 10.378 6.211 1.977 9.317 5.826 9.317 11.542 0 2.642-.678 5.022-2.031 7.138a12.187 12.187 0 0 1-5.481 4.691c-1.439.602-3.095 1.027-4.963 1.274-1.871.248-4.052.371-6.544.371zm-10.671-40.067v12.217h8.768c2.386 0 4.228-.227 5.529-.679 1.3-.45 2.293-1.31 2.981-2.579.537-.902.806-1.91.806-3.029 0-2.386-.849-3.971-2.546-4.756-1.698-.784-4.288-1.175-7.769-1.175h-7.769zm9.961 19.084h-9.961v13.796h10.284c6.468 0 9.702-2.333 9.702-6.995 0-2.386-.837-4.116-2.513-5.191-1.677-1.074-4.181-1.61-7.512-1.61zM286.343 59.686h-3.353v15.183c0 1.997-.44 3.471-1.321 4.416-.881.945-2.031 1.419-3.45 1.419-1.526 0-2.708-.497-3.545-1.484-.838-.988-1.258-2.438-1.258-4.351V38.507c0-2.064.462-3.558 1.387-4.481.922-.923 2.417-1.385 4.479-1.385h15.57c2.148 0 3.986.09 5.512.273 1.525.184 2.901.553 4.126 1.112a11.948 11.948 0 0 1 3.932 2.676 11.722 11.722 0 0 1 2.596 4.045c.591 1.537.886 3.164.886 4.884 0 3.524-.993 6.339-2.981 8.445-1.989 2.107-5.002 3.601-9.042 4.479 1.698.905 3.32 2.237 4.867 3.999a40.42 40.42 0 0 1 4.143 5.626c1.213 1.985 2.16 3.781 2.837 5.381.676 1.601 1.015 2.704 1.015 3.304 0 .624-.199 1.242-.597 1.854a4.162 4.162 0 0 1-1.627 1.45c-.689.355-1.483.534-2.386.534-1.075 0-1.978-.252-2.708-.759a7.277 7.277 0 0 1-1.886-1.917c-.526-.773-1.241-1.912-2.144-3.417l-3.836-6.383c-1.375-2.342-2.605-4.126-3.69-5.351-1.085-1.225-2.187-2.063-3.305-2.516-1.115-.449-2.523-.674-4.221-.674zm5.481-19.857h-8.833V52.82h8.576c2.299 0 4.232-.198 5.802-.597 1.567-.397 2.766-1.074 3.594-2.031.827-.957 1.241-2.273 1.241-3.949 0-1.31-.333-2.465-1-3.466-.667-.999-1.59-1.745-2.772-2.24-1.118-.471-3.321-.708-6.608-.708zM338.446 59.686h-3.353v15.183c0 1.997-.439 3.471-1.321 4.416-.88.945-2.03 1.419-3.448 1.419-1.525 0-2.708-.497-3.545-1.484-.839-.988-1.258-2.438-1.258-4.351V38.507c0-2.064.462-3.558 1.387-4.481.923-.923 2.417-1.385 4.48-1.385h15.568c2.15 0 3.987.09 5.515.273 1.523.184 2.9.553 4.126 1.112a11.979 11.979 0 0 1 3.932 2.676 11.688 11.688 0 0 1 2.594 4.045c.592 1.537.888 3.164.888 4.884 0 3.524-.994 6.339-2.98 8.445-1.989 2.107-5.005 3.601-9.044 4.479 1.697.905 3.322 2.237 4.869 3.999a40.325 40.325 0 0 1 4.141 5.626c1.216 1.985 2.161 3.781 2.838 5.381.677 1.601 1.015 2.704 1.015 3.304 0 .624-.198 1.242-.595 1.854a4.175 4.175 0 0 1-1.629 1.45c-.688.355-1.483.534-2.386.534-1.075 0-1.977-.252-2.708-.759-.73-.503-1.359-1.144-1.886-1.917s-1.24-1.912-2.142-3.417l-3.838-6.383c-1.375-2.342-2.605-4.126-3.69-5.351s-2.188-2.063-3.304-2.516c-1.12-.449-2.526-.674-4.226-.674zm5.482-19.857h-8.834V52.82h8.575c2.301 0 4.232-.198 5.803-.597 1.567-.397 2.766-1.074 3.594-2.031.827-.957 1.24-2.273 1.24-3.949 0-1.31-.331-2.465-.998-3.466-.667-.999-1.591-1.745-2.772-2.24-1.118-.471-3.321-.708-6.608-.708zM407.926 74.545l-2.258-5.931h-19.211l-2.256 6.061c-.884 2.364-1.634 3.959-2.257 4.786-.624.829-1.644 1.242-3.063 1.242-1.205 0-2.269-.442-3.19-1.322-.925-.88-1.389-1.88-1.389-2.999 0-.645.108-1.311.323-1.997.215-.688.568-1.646 1.065-2.871l12.087-30.687 1.242-3.176c.481-1.235.998-2.26 1.547-3.079a6.288 6.288 0 0 1 2.158-1.98c.893-.505 1.992-.758 3.305-.758 1.332 0 2.445.253 3.335.758a6.402 6.402 0 0 1 2.162 1.95 13.75 13.75 0 0 1 1.386 2.561c.375.916.854 2.134 1.434 3.659l12.347 30.495c.967 2.321 1.449 4.007 1.449 5.061 0 1.095-.455 2.101-1.369 3.014-.913.914-2.016 1.371-3.306 1.371-.752 0-1.396-.135-1.932-.403a3.987 3.987 0 0 1-1.355-1.095c-.365-.463-.757-1.172-1.175-2.129-.419-.955-.779-1.801-1.079-2.531zm-18.955-13.119h14.119l-7.125-19.502-6.994 19.502zM470.053 64.972c0 1.505-.371 3.132-1.111 4.883-.742 1.752-1.907 3.472-3.497 5.158-1.593 1.688-3.623 3.059-6.093 4.11-2.473 1.054-5.352 1.581-8.639 1.581-2.494 0-4.761-.238-6.803-.71s-3.896-1.208-5.562-2.207c-1.663-1-3.195-2.315-4.592-3.949a23.437 23.437 0 0 1-3.192-4.981 26.097 26.097 0 0 1-1.982-5.883c-.439-2.085-.661-4.297-.661-6.64 0-3.806.555-7.211 1.662-10.218 1.104-3.009 2.691-5.583 4.754-7.721a20.75 20.75 0 0 1 7.251-4.883c2.773-1.117 5.728-1.677 8.866-1.677 3.824 0 7.23.763 10.217 2.289 2.987 1.525 5.278 3.412 6.866 5.656 1.591 2.247 2.388 4.369 2.388 6.368 0 1.095-.387 2.063-1.16 2.9-.775.838-1.711 1.257-2.806 1.257-1.226 0-2.144-.288-2.757-.87-.612-.58-1.296-1.579-2.046-2.999-1.247-2.34-2.714-4.092-4.4-5.252-1.688-1.16-3.766-1.74-6.238-1.74-3.932 0-7.064 1.494-9.395 4.481-2.332 2.985-3.499 7.231-3.499 12.732 0 3.676.517 6.733 1.547 9.17 1.032 2.44 2.492 4.263 4.384 5.464 1.893 1.204 4.106 1.806 6.642 1.806 2.75 0 5.077-.682 6.978-2.047 1.902-1.365 3.338-3.367 4.305-6.013.408-1.245.913-2.26 1.515-3.044.603-.785 1.567-1.178 2.9-1.178 1.141 0 2.117.398 2.935 1.193.813.793 1.223 1.782 1.223 2.964zM514.419 40.022h-21.563v11.604h19.856c1.461 0 2.553.327 3.272.984.719.655 1.078 1.52 1.078 2.594 0 1.075-.353 1.952-1.063 2.627-.708.677-1.805 1.017-3.287 1.017h-19.856V72.29h22.308c1.503 0 2.637.348 3.4 1.048.762.697 1.144 1.625 1.144 2.787 0 1.117-.382 2.025-1.144 2.724-.764.697-1.897 1.047-3.4 1.047h-26.015c-2.086 0-3.584-.461-4.496-1.385-.915-.923-1.37-2.418-1.37-4.482V38.507c0-1.375.203-2.499.611-3.369s1.049-1.503 1.919-1.902c.87-.397 1.982-.595 3.336-.595h25.271c1.527 0 2.661.337 3.402 1.014.742.678 1.112 1.565 1.112 2.66 0 1.119-.37 2.016-1.112 2.691-.742.677-1.876 1.016-3.403 1.016zM542.896 66.616h-10.187c-1.547 0-2.724-.36-3.529-1.081-.807-.718-1.208-1.648-1.208-2.787 0-1.16.39-2.1 1.175-2.82s1.973-1.08 3.563-1.08h10.187c1.589 0 2.777.36 3.563 1.08.783.72 1.176 1.66 1.176 2.82 0 1.139-.387 2.069-1.161 2.787-.776.72-1.969 1.081-3.579 1.081z"/><path fill="#A385AE" stroke="#A385AE" stroke-miterlimit="10" d="M558.607 60.361V37.637c0-1.934.433-3.386 1.303-4.353s2.016-1.45 3.435-1.45c1.481 0 2.658.483 3.528 1.45s1.306 2.419 1.306 4.353v23.241c0 2.644.297 4.851.887 6.625.592 1.773 1.639 3.149 3.144 4.125 1.502.979 3.609 1.467 6.318 1.467 3.738 0 6.383-.994 7.93-2.982 1.547-1.987 2.32-5.002 2.32-9.042V37.637c0-1.956.43-3.413 1.29-4.369.858-.955 2.007-1.434 3.449-1.434 1.438 0 2.605.479 3.497 1.434.891.957 1.337 2.414 1.337 4.369v22.724c0 3.699-.36 6.781-1.08 9.253-.719 2.471-2.079 4.641-4.077 6.511a15.834 15.834 0 0 1-5.995 3.48c-2.278.732-4.943 1.097-7.994 1.097-3.633 0-6.76-.394-9.382-1.177-2.62-.785-4.759-1.999-6.414-3.644-1.655-1.644-2.869-3.749-3.643-6.316-.774-2.566-1.159-5.635-1.159-9.204zM622.957 37.637v16.568l18.795-19.599c.899-.945 1.67-1.644 2.304-2.095.633-.452 1.477-.677 2.53-.677 1.373 0 2.485.403 3.336 1.208.85.805 1.273 1.789 1.273 2.951 0 1.396-.721 2.782-2.161 4.157l-11.637 11.025 13.411 19.211c.944 1.332 1.655 2.497 2.127 3.498.472 1 .708 1.972.708 2.917 0 1.052-.413 1.967-1.24 2.741-.828.773-1.95 1.16-3.369 1.16-1.331 0-2.417-.287-3.255-.855-.837-.568-1.547-1.327-2.127-2.272s-1.098-1.805-1.547-2.579L630.79 57.591l-7.833 7.511v9.767c0 1.977-.45 3.442-1.354 4.401-.902.955-2.063 1.434-3.481 1.434a4.675 4.675 0 0 1-2.354-.645 4.514 4.514 0 0 1-1.742-1.742c-.3-.6-.481-1.298-.547-2.094-.064-.797-.095-1.945-.095-3.451V37.637c0-1.934.424-3.386 1.272-4.353.848-.967 2.003-1.45 3.465-1.45 1.44 0 2.605.479 3.498 1.434.891.957 1.338 2.414 1.338 4.369z"/><path fill="#6A3B77" d="M114.128 7.425c-3.794-3.688-8.187-5.928-13.097-6.914-4.917-.954-10.482-.669-16.789 1.677-2.578.962-7.05 2.954-11.869 6.523-3.055 2.191-6.984 5.837-9.751 9.233-2.805 3.369-4.58 6.325-4.586 6.317.008.004-1.629 2.443-3.348 5.938-1.746 3.479-3.43 8.063-4.31 11.815-2.143 8.578-1.622 16.033-1.048 19.622 1.023 6.652 3.485 11.65 6.713 15.48 3.253 3.807 7.348 6.554 12.417 8.071-3.756-3.734-5.789-7.412-7.479-11.231-1.637-3.853-2.943-7.969-3.745-13.468-.44-2.961-.883-9.196.957-16.56.761-3.213 2.2-7.176 3.702-10.202 1.479-3.04 2.892-5.177 2.882-5.179.006.008 1.57-2.555 4.007-5.455 2.405-2.927 5.785-6.042 8.371-7.917 4.096-3.042 7.819-4.707 9.938-5.523 5.191-1.978 9.422-2.841 13.584-3.289 4.158-.384 8.362-.4 13.451 1.062zM66.635 116.162c-2.377 4.721-3.927 9.006-4.884 13.67-.928 4.665-1.265 9.752-.522 16.13.31 2.614.968 7.22 2.474 12.814 2.096 7.831 5.772 17.091 11.444 25.661 5.611 8.573 13.285 16.397 21.819 21.36 4.235 2.504 8.638 4.278 12.786 5.344 4.152 1.085 8.011 1.426 11.209 1.457 6.422-.017 10.216-1.054 10.212-1.005-.013-.023 3.301-.525 8.436-2.397 5.124-1.863 11.973-5.317 18.689-10.632 6.749-5.264 13.313-12.332 18.622-20.186 5.34-7.839 9.396-16.439 12.034-24.327a103.667 103.667 0 0 0 2.733-9.705c.685-3.577 1.465-6.26 1.981-8.017 1.698-5.601 3.178-9.863 4.833-13.761.842-1.941 1.745-3.789 2.948-5.556 1.212-1.742 2.741-3.47 5.125-4.645-2.66-.098-5.245.83-7.402 2.142-2.172 1.325-4.006 3.015-5.614 4.91-3.198 3.82-5.608 8.458-7.531 14.581a84.847 84.847 0 0 0-2.201 8.688 97.02 97.02 0 0 1-2.496 8.795c-2.431 7.26-6.17 15.185-11.068 22.381-4.867 7.21-10.86 13.655-16.922 18.392-6.04 4.784-12.073 7.814-16.504 9.435-4.444 1.626-7.241 2.048-7.233 2.069.006-.038-3.238.83-8.579.837-2.661-.033-5.84-.315-9.264-1.216-3.425-.883-7.109-2.363-10.724-4.506-7.278-4.23-14.113-11.132-19.168-18.866-5.112-7.725-8.48-16.18-10.401-23.327a86.747 86.747 0 0 1-2.306-11.695c-.735-5.813-1.123-10.393-1.555-14.821-.402-4.431-.856-8.719-.971-14.004z"/><path fill="#A385AE" d="M102.922 176.779c1.769 1.934 2.938 4.007 4.479 5.881 1.541 1.854 3.176 3.759 6.095 4.975 1.434.608 3.45.771 5.038.455 1.634-.29 3.134-.874 4.585-1.749 1.429-.937 2.894-1.957 4.127-4.289a6.99 6.99 0 0 0 .667-2.237c.053-.415.092-.745.132-.955.088-.537.21-1.108.364-1.637.525-1.775 1.718-4.424 5.694-5.413.36-.09.742-.161 1.135-.217l.594-.063c.211-.032.266.013.981-.07l.865-.135c.292-.045.588-.075.864-.222 1.291-.549 2.007-.987 2.93-1.726.872-.705 1.787-1.799 2.334-3.046.56-1.222.769-2.703.668-3.947a9.405 9.405 0 0 0-.306-1.79 10.415 10.415 0 0 0-.646-1.756 6.306 6.306 0 0 0-1.184-1.75 11.655 11.655 0 0 0-1.291-1.186 23.802 23.802 0 0 0-2.125-1.498 42.096 42.096 0 0 0-2.057-1.219l-1.045-.565c.018.021-.442-.262-.711-.421l-3.761-2.263-1.817-1.092-.446-.267-.221-.134-.014-.008c.124.062-1.093-.544-.574-.287l.006.002.011.005.023.01.022.011.012.005.005.001c-.386.886.872-1.979-.863 1.985l.092-.216.395-.857.387-.783c.093-.17.039-.07.052-.101l-.003-.003-.012-.005c-.011-.01-.022-.012-.034-.023l-.073-.054c-.134-.133-.106-.108-.122-.163-.015-.081-.041-.25.076-.611.189-.747 1.041-2.044 1.72-3.771.333-.867.597-1.909.61-2.944l.007-.344-.003-.173-.008-.354-.027-.672-.058-1.068-.026-.981c.004-.126.003-.275.016-.386.003-.06.007-.123.022-.196l.017-.112c.04-.08-.03-.253-.053-.381l-.672-2.848-.326-1.318c-.16-.471-.205-1.379-.605-1.591a3.445 3.445 0 0 1-.487-.81 2.2 2.2 0 0 1-.092-.25l-.009-.03c-.001-.005-.006-.014-.001-.007.008.004-.18.045-.263.061-.445.068-.869.135-1.283.156l-.587.004c-.166.005-.407-.065-.517-.063a1.076 1.076 0 0 1-.205-.045l-.103-.036-.051-.023c1.296.403-2.919-.91 2.904.901l.002-.005.004-.014.068-.204.021-.044.133-.115c.164-.118.482-.303.889-.479l.32-.135.159-.063c.012-.001.002-.006.034-.012a8.193 8.193 0 0 0 1.488-.573 8.891 8.891 0 0 0 2.832-2.277c1.448-1.793 2.109-3.582 2.533-5.492l.341-2.212c.107-.632.227-1.262.361-1.884.266-1.243.589-2.452.968-3.547.189-.546.393-1.062.606-1.522.107-.23.216-.445.325-.644.078-.128-.078.095.217-.29.766-.986 1.485-1.843 2.203-2.58 2.309-2.419 5.09-3.812 7.662-4.762 2.194-.771 4.473-.915 5.873-.944 5.304-.04 9.519.966 13.509 2.247 3.985 1.343 7.86 3.08 12.205 6.097-2.413-4.691-5.424-8.396-9.499-11.297-4.079-2.835-9.307-5.022-16.316-5.035-1.919.051-4.76.112-8.483 1.376-1.68.617-3.434 1.365-5.301 2.46a25.513 25.513 0 0 0-5.415 4.246c-1.002 1.028-1.93 2.145-2.783 3.241-.114.132-.691.872-.914 1.343-.213.388-.407.773-.584 1.156a24.326 24.326 0 0 0-.909 2.275 38.243 38.243 0 0 0-1.23 4.493c-.16.746-.301 1.492-.427 2.242l-.286 1.933c-.156.804-.553 1.658-.833 1.964-.14.173-.225.215-.266.241-.013.002-.019.014-.034.014-.012.007.053-.014-.324.09-.128.03-.284.104-.425.155l-.294.118-.572.241c-.767.346-1.57.757-2.407 1.372-.83.607-1.728 1.529-2.301 2.553a8.878 8.878 0 0 0-.694 1.555c-.057.202-.04.044-.243.874-.076.347-.069.493-.093.751-.018.24-.019.462-.006.622.098 1.438.432 2.219.749 3.001.407.941.925 1.769 1.443 2.447.175.213.092.109.118.14l.012.008c.003.007-.005.018-.004.025l-.04.311c-.026.18-.041.364-.053.543-.03.363-.031.648-.035.913.004 1.011.044 1.429.039 1.439l.053 1.045.019.469.006.303.002.174.001.045v.017c.171-.019-.382.045.383-.04H122.952l-.092.002c-.334-.023-.276-.023-.274.017-.019.057-.038.142-.094.285-.169.614-1.066 1.809-1.903 4.269-.392 1.233-.626 2.879-.256 4.614.338 1.761 1.425 3.521 2.817 4.657h.001c.476.394.961.73 1.559 1.047l.245.122.15.07.113.048.037.017.02.007.009.003c.52.259-.696-.347-.571-.283l.014.009.221.133.445.269 1.814 1.096 3.758 2.267c.348.2.484.316 1.138.665l.851.46c.569.318 1.132.65 1.658.985.523.332 1.024.679 1.404.983.2.157.349.306.3.257l.005.009c-.027-.067.052.131.078.238.033.116.047.217.052.285.001.149-.002.076-.004.103-.011.002.034-.012-.122.122-.106.1-.526.339-.416.273l-.003.002h-.006l-.702.041a18.57 18.57 0 0 0-3.03.497c-3.437.818-6.464 2.769-8.324 5.026-1.891 2.253-2.686 4.488-3.122 6.014a18.677 18.677 0 0 0-.541 2.751l-.072.678-.02.269-.009.134-.005.066v.009c2.93.366.807.102 1.458.183l-.02-.001-.039-.002a3.932 3.932 0 0 1-.689-.146c-.144-.038-.251-.09-.411-.144l-.217-.088c-.01-.007.002-.002-.003.001.007.175-.586.966-1.218 1.473a8.943 8.943 0 0 1-2.062 1.314c-.71.301-1.081.45-1.842.434-1.497-.045-3.492-.901-5.47-1.92-2.016-.996-4.122-2.381-6.64-3.28zM125.524 16.418c.074.596-.192 1.179-.614 1.554-.415.383-.898.602-1.413.8-1.026.38-2.124.579-3.204.745-2.173.317-4.333.464-6.554.65-2.225.181-4.513.373-7.023.666a71.759 71.759 0 0 0-4.024.57c-1.619.284-3.125.733-4.731 1.285a35.296 35.296 0 0 0-5.26 2.344c-2.112 1.168-4.54 2.828-6.792 5.154-3.195 3.196-5.919 7.949-7.622 12.863-1.75 4.925-2.804 9.987-3.697 14.476-1.503 8.689-4.341 14.518-4.35 14.522-.006-.005-.564 1.276-1.703 3.25-1.146 1.963-2.931 4.59-5.505 7.022-2.55 2.451-5.921 4.645-9.683 6.143-3.748 1.526-7.832 2.382-11.511 2.813-7.409 1.04-13.146-.851-15.977-1.927-5.178-2.02-9.171-4.275-13.159-6.302A367.588 367.588 0 0 0 0 76.749c3.165 4.224 5.859 7.74 9.256 11.041 3.408 3.25 7.46 6.483 13.712 9.006a41.07 41.07 0 0 0 7.756 2.215c3.382.633 7.707.843 12.061.253 4.178-.488 8.966-1.468 13.576-3.344 4.615-1.835 8.957-4.65 12.204-7.792 3.284-3.12 5.494-6.412 6.882-8.801 1.378-2.405 2.029-3.92 2.037-3.915-.015-.003.857-1.743 1.914-4.678 1.069-2.899 2.231-7.138 3.067-11.652.872-4.37 1.897-9.129 3.397-13.322 1.477-4.213 3.553-7.698 5.812-9.973 3.216-3.317 6.894-4.801 8.982-5.58 1.29-.458 2.559-.887 3.656-1.155l3.779-.942c2.479-.649 4.786-1.37 6.997-2.238 2.208-.875 4.342-1.869 6.438-3.204 1.041-.678 2.086-1.426 3.018-2.428.914-.942 1.8-2.495.98-3.822z"/><path fill="#6A3B77" d="M130.822 18.14c1.341 2.266 1.945 4.542 2.354 6.674.386 2.146.498 4.198.459 6.266-.044 2.069-.245 4.16-.611 6.411a57.55 57.55 0 0 1-.697 3.514c-.278 1.205-.634 2.496-1.029 3.967a143.695 143.695 0 0 1-1.373 4.778l-1.018 3.289c-.36 1.228-.816 2.605-1.066 4.5-.162 1.293-.165 2.819.187 4.384.325 1.44.782 2.655 1.28 3.863a48.025 48.025 0 0 0 1.647 3.5l.913 1.7.562.987.002.016v.012V72l.281.124v-.001h-.001l-.034-.016-.127-.077-.098-.067c.002 0 .003.001-.002.003.002.007-.03.03-.063.064-.103.086-.165.138-.541.339a9.184 9.184 0 0 1-1.912.75c-.708.239-1.615.29-3.258 1.087-.809.413-1.665 1.131-2.2 1.864a7.667 7.667 0 0 0-1.022 1.892 9.916 9.916 0 0 0-.633 2.688c-.086 1.491-.051 1.511-.066 1.577-.046.1.114.486-.704 2.23-.382.793-1.004 1.805-1.829 2.893a28.449 28.449 0 0 1-1.371 1.667l-.515.563c-.31.308-.484.711-.727 1.053-.244.354-.465.725-.585 1.162l-.271.756-.16.445-.161.446-1.091 3.031-.012.012a4.169 4.169 0 0 1-.297.208 4.442 4.442 0 0 1-.408.234c-1.105.53-1.998.499-3.16.011a6.292 6.292 0 0 1-.836-.443c-.28-.174-.539-.357-.959-.665l-2.192-1.645a151.322 151.322 0 0 1-3.886-3.09l-3.135-2.636-2.482-2.185c-.287-.249-.621-.43-.946-.615l-.5-.256-.382-.175a11.706 11.706 0 0 0-1.541-.549 10.91 10.91 0 0 0-3.242-.411c-2.22.036-4.372.932-5.85 2.13-1.501 1.2-2.455 2.583-3.146 3.896a15.765 15.765 0 0 0-1.435 4.027 13.614 13.614 0 0 0 .753 7.952 15.495 15.495 0 0 0 4.64 6.16c-2.036-4.898-1.557-9.215.171-12.267.854-1.516 2.205-3.197 3.338-3.751.574-.289 1.013-.365 1.575-.325.281.023.605.084.958.203.176.059.358.133.532.215l.127.063c.008.005-.002.001.003.004l.006.009 2.178 1.934 3.273 2.775a150.378 150.378 0 0 0 4.091 3.267l2.339 1.76c.363.267.906.662 1.474 1.013.568.349 1.17.687 1.839.974 1.357.604 3.021 1.057 4.813 1.057 1.79.014 3.633-.447 5.209-1.251.394-.202.779-.418 1.146-.658.402-.268.642-.424 1.161-.846.928-.755 1.789-1.61 2.099-2.788l.291-.73.152-.423.301-.843.597-1.667.159-.447.159-.445.185-.521.359-.402a36.408 36.408 0 0 0 1.766-2.161c1.078-1.436 1.974-2.865 2.636-4.244.646-1.345 1.067-2.604 1.269-3.65.199-1.039.192-1.598.201-1.589l.053-1.32c.02-.174.029-.248.143-.554.019-.117.164-.001-.347-.256-.371-.199-.588-.327-.765-.465-.307-.213-.201-.308.218.48.07.125.134.253.192.383.03.074.206.446.158.343-.005-.001.026-.009.051-.019l.34-.101 1.322-.348a17.354 17.354 0 0 0 3.509-1.377c1.159-.587 2.954-1.784 3.974-3.792 1.02-1.949 1.12-4.279.421-6.379a7.56 7.56 0 0 0-.329-.834c-.104-.249-.338-.599-.361-.654l-.411-.726-.792-1.482a40.929 40.929 0 0 1-1.37-2.91c-.39-.927-.706-1.835-.85-2.494-.124-.533-.134-1.085-.064-1.678.099-.857.428-2.007.771-3.141l1.008-3.296a130.317 130.317 0 0 0 1.421-5.065c.387-1.496.746-3.021.984-4.538.237-1.5.365-2.951.397-4.355.058-2.809-.277-5.431-.966-7.873-.692-2.44-1.737-4.706-3.152-6.767-1.427-2.04-3.191-3.956-5.466-5.341z"/></svg>