<svg xmlns="http://www.w3.org/2000/svg" width="959.661" height="283.464" viewBox="0 0 959.661 283.464"><path fill="#78B5D7" d="M86.705 174.828h14.539v108.637H85.618v-84.537l-33.399 42h-2.875l-33.79-42v84.537H0V174.828h14.73l36.095 44.618 35.88-44.618z"/><path fill="#0077AD" d="M127.561 174.828h15.556v108.637h-15.556V174.828z"/><path fill="#78B5D7" d="M255.28 174.828h14.778v108.637h-13.374l-72.631-83.671v83.671h-14.619V174.828h12.594l73.252 84.375v-84.375z"/><path fill="#0077AD" d="M296.378 174.828h15.55v108.637h-15.55V174.828zM330.34 283.464V58.319h76.016c30.664 0 54.926 4.6 72.787 13.799 17.866 9.199 32.068 22.734 42.606 40.589 10.544 17.866 15.816 37.341 15.816 58.424 0 15.067-2.905 29.485-8.715 43.258-5.811 13.772-14.089 25.876-24.854 36.313-10.975 10.759-23.725 18.882-38.25 24.369-8.5 3.335-16.3 5.563-23.402 6.692-7.101 1.13-20.658 1.7-40.67 1.7H330.34zm72.626-196.418h-40.348v167.69h41.316c16.139 0 28.679-1.097 37.604-3.313 8.93-2.195 16.381-5.003 22.352-8.393 5.972-3.39 11.432-7.553 16.381-12.503 15.929-16.139 23.886-36.528 23.886-61.172 0-24.209-8.177-43.947-24.532-59.23-6.02-5.697-12.933-10.377-20.739-14.041-7.795-3.653-15.197-6.074-22.191-7.263-6.987-1.177-18.236-1.775-33.729-1.775zM566.81 58.319h127.822v28.728h-95.543V155.8h92.315v28.889h-92.315v70.049h98.608v28.728H566.81V58.319zM914.359 57.996h39.009l-90.201 108.746 96.494 116.723h-38.98l-76.801-93.467-77.499 93.467h-39.444l97.039-116.739-90.1-108.729h39.396l70.77 86.113 70.317-86.114zM89.664 152.125l-27.146-47.011 27.146-47.018h54.297l27.145 47.018-27.145 47.011z"/><path fill="#78B5D7" d="M183.114 94.032l-27.152-47.019L183.114 0h54.287l27.145 47.013-27.145 47.019z"/><path fill="#0077AD" d="M276.546 152.125l-27.144-47.011 27.144-47.018h54.302l27.147 47.018-27.147 47.011z"/></svg>