<svg xmlns="http://www.w3.org/2000/svg" width="1832.416" height="283.465" viewBox="0 -35.432 1832.416 283.465"><path d="M1232.229-35.432c-5.639 0-10.097 1.642-13.396 4.939-3.896 3.897-5.85 9.84-5.85 17.812v10.012h-11.055v6.371h11.055v56.042h7.802V3.703h20.026v-6.371h-20.026V-12.68c0-6.065 1.211-10.313 3.639-12.743 2.08-2.08 4.945-3.119 8.583-3.119 3.557 0 6.638.867 9.234 2.602l3.119-5.463c-3.204-2.688-7.585-4.029-13.131-4.029m-52.333 82.952c-3.602 4.592-8.564 6.893-14.893 6.893-5.894 0-10.769-2.406-14.628-7.221-3.856-4.809-5.781-11.108-5.781-18.914 0-7.799 1.836-14.042 5.521-18.724 3.688-4.681 8.604-7.021 14.761-7.021 5.896 0 10.773 2.45 14.622 7.344 3.862 4.902 5.797 11.207 5.797 18.917-.001 7.896-1.808 14.135-5.399 18.726m5.849-42.844c-5.07-5.933-11.856-8.901-20.346-8.901-8.933 0-15.977 2.969-21.133 8.901-5.164 5.943-7.739 13.897-7.739 23.866 0 9.963 2.575 17.917 7.739 23.855 5.153 5.939 11.984 8.906 20.479 8.906 8.752 0 15.71-2.919 20.864-8.773 5.158-5.85 7.739-13.677 7.739-23.472.003-10.314-2.533-18.441-7.603-24.382m-93.551 47.526c-1.041.349-2.041.698-2.986 1.039-2.172.611-4.25.913-6.247.913-4.594 0-7.495-1.43-8.711-4.286-.695-1.568-1.042-5.159-1.042-10.797V3.703h20.025v-6.371h-20.025v-17.68h-7.794v17.68h-10.93v6.371h10.93v36.929c0 4.504.166 7.667.513 9.491.433 2.779 1.477 4.987 3.122 6.633 2.948 2.947 7.24 4.419 12.875 4.419 4.248 0 8.362-1 12.349-2.987l-2.079-5.986zm-48.76-30.033c0-5.287-.216-9.062-.647-11.314-.779-3.985-2.469-7.282-5.07-9.878-3.472-3.474-8.284-5.203-14.438-5.203-7.195 0-14.036 2.035-20.542 6.105v-4.548h-7.411v62.413h7.802V8.777c.693-.695 2.773-1.734 6.237-3.124 4.683-1.991 8.977-2.991 12.875-2.991 4.158 0 7.411 1.172 9.75 3.513 1.646 1.646 2.734 3.987 3.258 7.017.255 1.823.388 5.203.388 10.146v36.407h7.799V22.169zM935.905 23.47c.344-6.416 2.427-11.529 6.245-15.348 3.805-3.813 8.494-5.721 14.036-5.721 5.552 0 9.844 2.345 12.877 7.022 2.425 3.902 3.638 8.583 3.638 14.047h-36.796zM973.74 3.573c-4.416-5.198-10.312-7.799-17.679-7.799-8.672 0-15.583 3.013-20.742 9.035-5.159 6.026-7.739 14.065-7.739 24.121 0 9.622 2.58 17.378 7.739 23.271 5.159 5.897 12.203 8.844 21.13 8.844 5.372 0 10.664-1 15.861-2.991 3.732-1.561 5.854-2.685 6.373-3.38l-3.511-5.987c-6.758 3.385-12.786 5.076-18.078 5.076-6.841 0-12.138-2.164-15.856-6.5-3.731-4.336-5.594-10.061-5.594-17.167h44.731c0-.518.039-1.302.125-2.34.089-1.041.133-1.646.133-1.819 0-9.444-2.297-16.903-6.893-22.364m-59.936 23.144c0-7.282-.218-12.224-.651-14.827-.781-4.415-2.602-8.056-5.459-10.914-3.473-3.474-8.11-5.203-13.915-5.203-7.198 0-14.737 2.424-22.624 7.282-3.47-4.858-8.627-7.282-15.471-7.282-6.421 0-13.003 2.035-19.768 6.105V-2.67h-7.412v62.413h7.801V8.777c5.985-3.987 12.177-5.987 18.593-5.987 3.903 0 6.938 1.088 9.104 3.252 1.562 1.562 2.559 3.991 2.993 7.283.26 1.906.393 5.981.393 12.224v34.195h7.801V23.47c0-8.238-.39-13.18-1.174-14.826 6.503-3.813 12.831-5.721 18.988-5.721 4.073 0 7.19 1.083 9.36 3.251 2.424 2.424 3.644 7.889 3.644 16.384v37.186h7.801V26.717h-.004zM811.863 52.202c-1.041.349-2.037.698-2.989 1.039-2.169.611-4.25.913-6.242.913-4.595 0-7.5-1.43-8.714-4.286-.693-1.568-1.037-5.159-1.037-10.797V3.703h20.021v-6.371H792.88v-17.68h-7.8v17.68h-10.924v6.371h10.924v36.929c0 4.504.171 7.667.516 9.491.437 2.779 1.479 4.987 3.121 6.633 2.949 2.947 7.242 4.419 12.878 4.419 4.244 0 8.36-1 12.348-2.987l-2.08-5.986zm-51.621-56.56c-7.714 0-14.302 3.296-19.762 9.883v-8.194h-7.411v62.413h7.801V13.715a69.32 69.32 0 0 1 2.212-3.124 21.384 21.384 0 0 1 6.11-5.066c3.203-1.822 6.761-2.734 10.661-2.734 1.561 0 3.25.134 5.07.389l1.822-6.5a20.432 20.432 0 0 0-6.503-1.038m-69.693 58.511c-4.595 0-8.106-1.212-10.535-3.642-2.164-2.168-3.247-4.938-3.247-8.323 0-9.445 9.233-14.17 27.695-14.17h3.513v21.063c-7.279 3.381-13.091 5.072-17.426 5.072m25.226-34.585c0-4.419-.218-7.627-.652-9.623-.607-3.292-2.033-6.065-4.289-8.323-3.987-3.987-9.618-5.98-16.902-5.98-5.46 0-10.574 1-15.341 2.99-3.121 1.302-5.159 2.43-6.111 3.38l3.248 5.465c5.81-3.293 11.577-4.942 17.293-4.942 5.551 0 9.497 1.211 11.836 3.641 2.079 2.168 3.12 6.544 3.12 13.132v2.34h-3.253c-24.011 0-36.012 6.805-36.012 20.414 0 5.638 1.837 10.207 5.521 13.72 3.685 3.504 8.518 5.266 14.499 5.266 4.592 0 9.232-.956 13.914-2.859 1.993-1.043 3.985-2.083 5.979-3.124v4.681h7.152V19.568h-.002zM643.81 46.679c-4.119 4.982-9.559 7.473-16.32 7.473-4.507 0-9.277-1.385-14.304-4.164V8.775c4.854-4.08 10.445-6.115 16.773-6.115 5.897 0 10.707 2.251 14.435 6.761 3.725 4.507 5.589 10.36 5.589 17.556-.001 8.146-2.062 14.717-6.173 19.702m6.695-42.26c-5.027-5.766-11.616-8.646-19.768-8.646-6.758 0-12.739 1.946-17.94 5.849V-2.67h-7.411v90.111h7.799V57.533c3.727 2.345 8.452 3.513 14.174 3.513 9.014 0 16.38-3.142 22.104-9.428 5.722-6.283 8.582-14.414 8.582-24.379-.002-9.446-2.516-17.056-7.54-22.82M545.962 23.47c.35-6.416 2.43-11.529 6.244-15.348 3.816-3.813 8.495-5.721 14.045-5.721 5.544 0 9.834 2.345 12.871 7.022 2.423 3.902 3.642 8.583 3.642 14.047h-36.802zm37.839-19.897c-4.422-5.198-10.315-7.799-17.683-7.799-8.672 0-15.583 3.013-20.741 9.035-5.156 6.026-7.733 14.065-7.733 24.121 0 9.622 2.577 17.378 7.733 23.271 5.157 5.897 12.199 8.844 21.13 8.844 5.374 0 10.661-1 15.862-2.991 3.727-1.561 5.853-2.685 6.374-3.38l-3.512-5.987c-6.762 3.385-12.789 5.076-18.071 5.076-6.852 0-12.138-2.164-15.864-6.5-3.73-4.336-5.593-10.061-5.593-17.167h44.73c0-.518.043-1.302.133-2.34.083-1.041.127-1.646.127-1.819 0-9.444-2.297-16.903-6.892-22.364m-77.104 40.179c-3.901 3.902-8.582 6.503-14.041 7.799-3.819.867-9.451 1.301-16.902 1.301H463.92v-72.944h8.581c9.445 0 16.255.474 20.415 1.434 5.199 1.124 9.622 3.508 13.261 7.146 6.851 6.853 10.276 15.914 10.276 27.178-.001 12.219-3.255 21.586-9.756 28.086m5.722-59.941c-4.508-4.509-10.23-7.544-17.163-9.105-5.118-1.125-12.79-1.691-23.017-1.691h-16.643v86.729h19.635c9.189 0 16.08-.561 20.673-1.69 6.326-1.561 11.833-4.681 16.514-9.367 8.322-8.316 12.48-19.241 12.48-32.761.002-13.091-4.157-23.794-12.479-32.115M379.534 54.153c-5.895 0-10.729-2.257-14.498-6.766-3.77-4.5-5.659-10.353-5.659-17.552 0-8.146 2.084-14.716 6.246-19.698 4.158-4.98 9.62-7.477 16.38-7.477 4.595 0 9.32 1.389 14.175 4.164v41.217c-5.811 4.072-11.357 6.112-16.644 6.112m24.573-88.027h-7.929V-.718c-3.9-2.34-8.629-3.508-14.175-3.508-9.014 0-16.38 3.141-22.105 9.424-5.723 6.286-8.581 14.41-8.581 24.381 0 9.445 2.514 17.052 7.543 22.816 5.024 5.765 11.656 8.649 19.893 8.649 7.194 0 13.26-1.996 18.203-5.981v4.681h7.148v-93.618h.003zm-67.481 0h-7.8v93.618h7.8v-93.618zM269.402 23.47c.349-6.416 2.429-11.529 6.242-15.348 3.816-3.813 8.495-5.721 14.045-5.721 5.545 0 9.834 2.345 12.871 7.022 2.424 3.902 3.642 8.583 3.642 14.047h-36.8zm37.839-19.897c-4.422-5.198-10.315-7.799-17.683-7.799-8.667 0-15.583 3.013-20.74 9.035-5.158 6.026-7.734 14.065-7.734 24.121 0 9.622 2.578 17.378 7.734 23.271 5.157 5.897 12.199 8.844 21.13 8.844 5.374 0 10.661-1 15.861-2.991 3.729-1.561 5.854-2.685 6.374-3.38l-3.511-5.987c-6.765 3.385-12.788 5.076-18.07 5.076-6.852 0-12.138-2.164-15.865-6.5-3.73-4.336-5.592-10.061-5.592-17.167h44.73c0-.518.041-1.302.133-2.34.081-1.041.125-1.646.125-1.819-.002-9.444-2.298-16.903-6.892-22.364m-60.85-6.242h-7.8v62.413h7.8V-2.669zm-.195-24.767c-1-.996-2.232-1.496-3.705-1.496-1.391 0-2.602.5-3.643 1.496-1.043.996-1.557 2.229-1.557 3.703 0 1.389.514 2.602 1.557 3.641 1.041 1.04 2.252 1.561 3.643 1.561 1.473 0 2.705-.522 3.705-1.561.994-1.039 1.496-2.251 1.496-3.641-.001-1.474-.502-2.708-1.496-3.703m-29.19-7.996c-5.637 0-10.098 1.642-13.392 4.939-3.9 3.897-5.853 9.84-5.853 17.812v10.012h-11.05v6.371h11.05v56.042h7.802V3.703h20.025v-6.371h-20.025V-12.68c0-6.065 1.215-10.313 3.642-12.743 2.08-2.08 4.939-3.119 8.581-3.119 3.554 0 6.632.867 9.234 2.602l3.117-5.463c-3.208-2.688-7.584-4.029-13.131-4.029m-47.067 0c-5.635 0-10.099 1.642-13.392 4.939-3.9 3.897-5.854 9.84-5.854 17.812v10.012h-11.051v6.371h11.051v56.042h7.803V3.703h20.025v-6.371h-20.025V-12.68c0-6.065 1.215-10.313 3.642-12.743 2.08-2.08 4.938-3.119 8.582-3.119 3.551 0 6.632.867 9.23 2.602l3.122-5.463c-3.212-2.688-7.588-4.029-13.133-4.029M127.551-2.669h-7.8v50.711a226.212 226.212 0 0 0-6.501 3.248c-4.508 1.907-8.715 2.863-12.613 2.863-3.986 0-7.217-1.234-9.688-3.703-2.469-2.469-3.705-7.783-3.705-15.932V-2.668h-7.803V32.96c0 5.81.134 9.663.391 11.57.779 4.596 2.513 8.238 5.201 10.923 3.723 3.729 8.75 5.592 15.083 5.592 7.28 0 14.043-2.081 20.281-6.244v4.943h7.155V-2.669zM60.068-26.985h-7.669l.259 75.16-43.556-75.16H0v86.729h7.669l-.262-74.505 43.172 74.505h9.491v-86.729h-.002zM1832.416 107.448h-13.256v59.835h-69.767v-59.835h-13.25v138.097h13.25v-67.078h69.767v67.078h13.256V107.448zm-120.712 0h-96.892v11.181h41.822v126.916h13.247V118.629h41.822v-11.181h.001zm-88.198 126.504h-59.418V107.448h-13.25v138.097h72.668v-11.593zm-177.226-39.34l26.091-73.29 26.289 73.29h-52.38zm33.953-87.164h-14.906l-50.312 138.097h13.252L1442.348 206h60.249l14.08 39.545h14.078l-50.522-138.097zm-80.744 126.504h-61.493v-55.281h56.113v-10.972h-56.113v-49.07h59.843v-11.181h-72.885v138.097h74.535v-11.593zm-110.144-126.504h-13.255v59.835h-69.768v-59.835h-13.25v138.097h13.25v-67.078h69.768v67.078h13.255V107.448zm-181.576 0h-12.216l.414 119.67-69.358-119.67h-14.494v138.097h12.216l-.411-118.639 68.735 118.639h15.114V107.448zM956.113 219.875c-8.484 11.175-19.908 16.768-34.268 16.768-13.662 0-24.947-5.69-33.852-17.083-8.901-11.384-13.351-25.908-13.351-43.583 0-17.94 4.245-32.364 12.731-43.27 8.491-10.901 19.775-16.354 33.849-16.354 13.944 0 25.364 5.453 34.27 16.354 8.901 10.905 13.354 25.056 13.354 42.441.001 18.637-4.246 33.548-12.733 44.727m9.831-95.039c-11.315-13.246-25.742-19.875-43.271-19.875-18.355 0-33.297 6.766-44.821 20.295-11.526 13.525-17.289 30.987-17.289 52.379 0 20.427 5.724 37.27 17.185 50.522 11.457 13.247 25.883 19.875 43.272 19.875 18.356 0 33.262-6.695 44.721-20.085 11.455-13.388 17.185-30.713 17.185-51.971-.001-20.837-5.665-37.884-16.982-51.14m-134.572-17.388h-13.251v138.101h13.251V107.448zm-37.684 0h-96.895v11.181h41.82v126.916h13.251V118.629h41.821v-11.181h.003zm-171.019 87.164l26.088-73.29 26.294 73.29h-52.382zm33.956-87.164h-14.91l-50.312 138.097h13.251L618.738 206h60.247l14.08 39.545h14.082l-50.522-138.097zm-84.059 126.504h-59.42V107.448h-13.247v138.097h72.667v-11.593zM466.358 107.448h-13.044v73.09c0 15.595-.35 25.674-1.038 30.228-1.107 6.764-3.934 12.418-8.491 16.975-5.935 5.938-14.217 8.902-24.845 8.902-11.594 0-20.636-3.239-27.121-9.734-4.004-4-6.559-8.969-7.662-14.906-.693-3.446-1.038-9.175-1.038-17.183v-87.373h-13.042v74.741c0 15.047.417 25.055 1.241 30.024 1.517 9.247 5.105 16.707 10.769 22.36 8.971 8.973 21.05 13.461 36.23 13.461s27.126-4.352 35.82-13.043c6.074-6.07 9.799-14.561 11.18-25.469.688-4.968 1.038-16.839 1.038-35.615v-66.458h.003zm-144.519 62.321c-3.723 3.726-8.901 6.074-15.524 7.039-3.729.553-10.907.826-21.536.826h-11.384v-59.423h17.185c8.281 0 14.144.278 17.596.832 6.077.828 10.698 2.832 13.872 6.004 5.659 5.664 8.491 12.972 8.491 21.945-.001 9.389-2.903 16.982-8.7 22.777m10.768-51.557c-4.557-4.552-10.561-7.587-18.013-9.109-5.11-1.102-12.699-1.654-22.774-1.654h-31.469v138.097h13.042V188.4h12.213c12.972 0 21.67-.411 26.087-1.238 8.417-1.518 15.458-5.104 21.12-10.764 7.313-7.319 10.975-17.052 10.975-29.195.003-11.873-3.728-21.535-11.181-28.991M204.343 219.875c-8.485 11.175-19.911 16.768-34.263 16.768-13.665 0-24.949-5.69-33.852-17.083-8.904-11.384-13.357-25.908-13.357-43.583 0-17.94 4.246-32.364 12.736-43.27 8.491-10.901 19.771-16.354 33.853-16.354 13.939 0 25.361 5.453 34.265 16.354 8.901 10.905 13.354 25.056 13.354 42.441.001 18.637-4.245 33.548-12.736 44.727m9.837-95.039c-11.321-13.246-25.745-19.875-43.27-19.875-18.362 0-33.305 6.766-44.826 20.295-11.529 13.525-17.288 30.987-17.288 52.379 0 20.427 5.727 37.27 17.184 50.522 11.452 13.247 25.878 19.875 43.27 19.875 18.36 0 33.265-6.695 44.722-20.085 11.458-13.388 17.184-30.713 17.184-51.971-.001-20.837-5.659-37.884-16.976-51.14M64.905 169.769c-3.73 3.726-8.907 6.074-15.532 7.039-3.723.553-10.904.826-21.533.826H16.456v-59.423H33.64c8.28 0 14.142.278 17.595.832 6.075.828 10.696 2.832 13.874 6.004 5.659 5.664 8.491 12.972 8.491 21.945-.001 9.389-2.902 16.982-8.695 22.777m10.763-51.557c-4.553-4.552-10.56-7.587-18.013-9.109-5.105-1.102-12.698-1.654-22.774-1.654H3.411v138.097h13.045V188.4h12.213c12.97 0 21.67-.411 26.085-1.238 8.419-1.518 15.458-5.104 21.123-10.764 7.313-7.319 10.972-17.052 10.972-29.195.001-11.873-3.728-21.535-11.181-28.991"/></svg>