<svg xmlns="http://www.w3.org/2000/svg" width="363.8" height="69.9" viewBox="0 0 363.8 69.9"><path fill="#B51A82" d="M180.1 10.3C173.3 3.4 165 0 155.5 0c-9.6 0-17.8 3.4-24.7 10.3-6.8 6.8-10.2 15.1-10.2 24.7s3.4 17.8 10.2 24.6c6.9 6.9 15.1 10.3 24.7 10.3s17.8-3.4 24.6-10.3c6.9-6.9 10.3-15.1 10.3-24.6 0-9.6-3.4-17.8-10.3-24.7zm-24.7 53.5c-15.9 0-28.8-12.9-28.8-28.8s12.9-28.8 28.8-28.8 28.8 12.9 28.8 28.8c0 15.8-12.9 28.8-28.8 28.8z"/><g fill="#009590"><path d="M208.3 52.5c0 1-.4 1.9-1.1 2.6-.7.7-1.6 1.1-2.6 1.1s-1.9-.4-2.6-1.1c-.7-.7-1.1-1.6-1.1-2.6s.4-1.9 1.1-2.6c.7-.7 1.6-1.1 2.6-1.1s1.9.4 2.6 1.1c.8.7 1.1 1.5 1.1 2.6zm-1 0a2.732 2.732 0 0 0-2.7-2.7 2.732 2.732 0 0 0-2.7 2.7 2.732 2.732 0 0 0 2.7 2.7c.7 0 1.4-.3 1.9-.8.6-.6.8-1.2.8-1.9zM215.8 52.9c0 .9-.3 1.6-1 2.3-.6.6-1.4.9-2.3.9-.9 0-1.7-.3-2.3-1v2.3c0 .1 0 .2-.1.3-.1.1-.2.2-.3.2s-.2-.1-.3-.2c-.1-.1-.1-.2-.1-.3v-7.3c0-.1 0-.2.1-.3.1-.1.2-.2.3-.2s.2.1.3.2c.1.1.1.2.1.3v.5c.6-.7 1.4-1 2.3-1 .9 0 1.6.3 2.3 1 .6.7 1 1.4 1 2.3zm-1 0c0-.6-.2-1.1-.7-1.6-.4-.4-1-.7-1.6-.7-.6 0-1.2.2-1.6.7-.4.4-.7 1-.7 1.6 0 .6.2 1.1.7 1.6.4.4 1 .7 1.6.7.6 0 1.1-.2 1.6-.7.4-.4.7-1 .7-1.6zM220.1 55.7c0 .1-.1.2-.2.3s-.2.1-.3.1h-2c-.1 0-.2 0-.3-.1-.1-.1-.1-.2-.1-.3v-5h-1c-.1 0-.1-.1-.2-.1 0 0-.1-.1-.1-.2v-.2c0-.1 0-.2.1-.3.1-.1.2-.2.3-.2h.8v-.4-.2c0-.1.1-.1.1-.2 0 0 .1-.1.2-.1h.2c.1 0 .2 0 .3.1.1.1.1.2.1.3v.4h.8c.1 0 .2.1.3.2.1.1.2.2.2.3 0 .1-.1.2-.2.3-.1.1-.2.1-.3.1h-.8V55h1.5c.1 0 .2.1.3.2s.3.3.3.5zM221.7 55.7v.2c0 .1-.1.1-.1.2 0 0-.1.1-.2.1h-.2c-.1 0-.2 0-.3-.1s-.1-.2-.1-.3v-5.5c0-.1 0-.2.1-.3.1-.1.2-.2.3-.2s.2.1.3.2c.1.1.1.2.1.3v5.4zM231.6 55.7c0 .1-.1.2-.2.3-.1.1-.2.1-.3.1h-.2c-.1 0-.1-.1-.2-.1 0 0-.1-.1-.1-.2V52c0-.4-.1-.7-.4-1-.3-.3-.6-.4-1-.4s-.7.1-1 .4c-.3.3-.4.6-.4 1V55.8c0 .1-.1.1-.1.2 0 0-.1.1-.2.1h-.4c-.1 0-.1-.1-.2-.1 0 0-.1-.1-.1-.2V52c0-.4-.1-.7-.4-1-.3-.3-.6-.4-1-.4s-.7.1-1 .4c-.3.3-.4.6-.4 1V55.8c0 .1-.1.1-.1.2 0 0-.1.1-.2.1h-.2c-.1 0-.2 0-.3-.1s-.1-.2-.1-.3v-5.5c0-.1 0-.2.1-.3.1-.1.2-.2.3-.2.1 0 .3.1.4.2.1.1.1.2.1.4.4-.4.9-.5 1.4-.5.4 0 .8.1 1.1.3.3.2.6.5.8.8.2-.4.5-.6.8-.8.4-.2.7-.3 1.1-.3.7 0 1.2.2 1.7.7.5.5.7 1 .7 1.7v3.5zM233.7 55.7v.2c0 .1-.1.1-.1.2 0 0-.1.1-.2.1h-.2c-.1 0-.2 0-.3-.1s-.1-.2-.1-.3v-5.5c0-.1 0-.2.1-.3.1-.1.2-.2.3-.2.1 0 .2.1.3.2.1.1.1.2.1.3v5.4zM238.3 54.3c0 .5-.2.9-.5 1.3-.4.4-.8.5-1.3.5-.3 0-.7-.1-.9-.2-.3-.2-.5-.4-.7-.7 0-.1-.1-.2-.1-.2v-.2c0-.1.1-.1.1-.2 0 0 .1-.1.2-.1h.2c.1 0 .3.1.5.3.2.2.4.3.7.3.2 0 .4-.1.6-.3s.3-.4.3-.6c0-.2-.1-.4-.3-.6s-.4-.3-.6-.3c-.5 0-.9-.2-1.3-.5-.4-.4-.5-.8-.5-1.3s.2-.9.5-1.3c.4-.4.8-.6 1.3-.6.3 0 .6.1.9.3.3.2.5.4.7.7 0 .1.1.2.1.2 0 .1 0 .2-.1.3s-.2.1-.3.1c-.1 0-.3-.1-.5-.3-.2-.2-.4-.3-.7-.3-.2 0-.4.1-.6.3-.2.2-.3.4-.3.6 0 .2.1.4.3.6.2.2.4.3.6.3.5 0 .9.2 1.3.5.2.4.4.9.4 1.4zM240.2 55.7v.2c0 .1-.1.1-.1.2 0 0-.1.1-.2.1h-.2c-.1 0-.2 0-.3-.1-.1-.1-.1-.2-.1-.3v-5.5c0-.1 0-.2.1-.3.1-.1.2-.2.3-.2s.2.1.3.2c.1.1.1.2.1.3v5.4zM247.8 55.7v.2c0 .1-.1.1-.1.2 0 0-.1.1-.2.1h-.2c-.1 0-.3 0-.3-.1s-.1-.2-.1-.3v-2.7c0-.6-.2-1.1-.7-1.6-.4-.4-1-.7-1.6-.7-.6 0-1.2.2-1.6.7-.4.4-.7 1-.7 1.6V56c0 .1-.1.1-.1.2 0 0-.1.1-.2.1h-.2c-.1 0-.2 0-.3-.1s-.1-.2-.1-.3v-5.5c0-.1 0-.2.1-.3.1-.1.2-.2.3-.2.1 0 .2.1.3.2.1.1.1.2.1.3v.5c.6-.7 1.4-1 2.3-1 .9 0 1.6.3 2.2 1 .6.6.9 1.4.9 2.3v2.5zM255.1 57.4v.2c0 .1-.1.1-.1.2 0 0-.1.1-.2.1H250.9c-.1 0-.2-.1-.3-.2-.1-.1-.1-.2-.1-.3v-.2c0-.1.1-.1.1-.2 0 0 .1-.1.2-.1H254.2v-1.8c-.6.7-1.4 1-2.3 1-.9 0-1.7-.3-2.3-.9-.6-.6-.9-1.4-.9-2.3s.3-1.6.9-2.3c.6-.6 1.4-1 2.3-1 .9 0 1.6.3 2.3 1v-.5c0-.1 0-.2.1-.3.1-.1.2-.2.3-.2h.2c.1 0 .1.1.2.1 0 0 .1.1.1.2v7.5zm-1-4.5c0-.6-.2-1.1-.7-1.6-.4-.4-1-.7-1.6-.7s-1.1.2-1.6.7c-.4.4-.7 1-.7 1.6 0 .6.2 1.1.7 1.6.4.4 1 .7 1.6.7.6 0 1.1-.2 1.6-.7.5-.4.7-1 .7-1.6zM261.2 55.7v.2c0 .1-.1.1-.1.2 0 0-.1.1-.2.1h-.2c-.1 0-.2 0-.3-.1-.1-.1-.1-.2-.1-.3v-6.4-.2c0-.1.1-.1.1-.2 0 0 .1-.1.2-.1h.2c.1 0 .2 0 .3.1.1.1.1.2.1.3v6.4zM268.8 55.7v.2c0 .1-.1.1-.1.2 0 0-.1.1-.2.1h-.2c-.1 0-.3 0-.3-.1s-.1-.2-.1-.3v-.5c-.6.7-1.4 1-2.3 1-.9 0-1.6-.3-2.2-1-.6-.6-.9-1.4-.9-2.3v-2.7c0-.1 0-.2.1-.3.1-.1.2-.2.3-.2.1 0 .2.1.3.2.1.1.1.2.1.3V53c0 .6.2 1.1.7 1.6.4.4 1 .7 1.6.7.6 0 1.1-.2 1.6-.7.4-.4.7-1 .7-1.6v-2.7c0-.1 0-.2.1-.3.1-.1.2-.2.3-.2.1 0 .2.1.3.2.1.1.1.2.1.3v5.4zM278.7 55.7c0 .1-.1.2-.2.3-.1.1-.2.1-.3.1h-.2c-.1 0-.1-.1-.2-.1 0 0-.1-.1-.1-.2V52c0-.4-.1-.7-.4-1-.3-.3-.6-.4-1-.4s-.7.1-1 .4c-.3.3-.4.6-.4 1V55.8c0 .1-.1.1-.1.2 0 0-.1.1-.2.1h-.4c-.1 0-.1-.1-.2-.1 0 0-.1-.1-.1-.2V52c0-.4-.1-.7-.4-1-.3-.3-.6-.4-1-.4s-.7.1-1 .4c-.3.3-.4.6-.4 1V55.8c0 .1-.1.1-.1.2 0 0-.1.1-.2.1h-.2c-.1 0-.2 0-.3-.1-.1-.1-.1-.2-.1-.3v-5.5c0-.1 0-.2.1-.3.1-.1.2-.2.3-.2.1 0 .3.1.4.2.1.1.1.2.1.4.4-.4.9-.5 1.4-.5.4 0 .8.1 1.1.3.3.2.6.5.8.8.2-.4.5-.6.8-.8.4-.2.7-.3 1.1-.3.7 0 1.2.2 1.7.7.5.5.7 1 .7 1.7v3.5zM286.4 52.9c0 .9-.3 1.6-1 2.3-.6.6-1.4.9-2.3.9-.9 0-1.7-.3-2.3-1v.7c0 .1-.1.1-.1.2 0 0-.1.1-.2.1h-.2c-.1 0-.2 0-.3-.1s-.1-.2-.1-.3v-6.4-.2c0-.1.1-.1.1-.2 0 0 .1-.1.2-.1h.2c.1 0 .2 0 .3.1.1.1.1.2.1.3v1.4c.6-.7 1.4-1 2.3-1 .9 0 1.6.3 2.3 1 .6.7 1 1.4 1 2.3zm-1 0c0-.6-.2-1.1-.7-1.6-.4-.4-1-.7-1.6-.7-.6 0-1.2.2-1.6.7-.4.4-.7 1-.7 1.6 0 .6.2 1.1.7 1.6.4.4 1 .7 1.6.7.6 0 1.1-.2 1.6-.7.5-.4.7-1 .7-1.6zM293.4 55.7v.2c0 .1-.1.1-.1.2 0 0-.1.1-.2.1h-.4c-.1 0-.1-.1-.2-.1 0 0-.1-.1-.1-.2v-.7c-.6.7-1.4 1-2.3 1-.9 0-1.7-.3-2.3-.9-.6-.6-.9-1.4-.9-2.3s.3-1.6.9-2.3c.6-.6 1.4-1 2.3-1 .9 0 1.6.3 2.3 1v-.5c0-.1 0-.2.1-.3.1-.1.2-.2.3-.2h.2c.1 0 .1.1.2.1 0 0 .1.1.1.2v5.7zm-1-2.8c0-.6-.2-1.1-.7-1.6-.4-.4-1-.7-1.6-.7s-1.1.2-1.6.7c-.4.4-.7 1-.7 1.6 0 .6.2 1.1.7 1.6.4.4 1 .7 1.6.7.6 0 1.1-.2 1.6-.7.5-.4.7-1 .7-1.6zM298.3 50.2c0 .1-.1.2-.2.3-.1.1-.2.1-.3.1-.6 0-1.2.2-1.6.7-.4.4-.7 1-.7 1.6V55.8c0 .1-.1.1-.1.2 0 0-.1.1-.2.1h-.2c-.1 0-.2 0-.3-.1-.1-.1-.1-.2-.1-.3v-5.5c0-.1 0-.2.1-.3.1-.1.2-.2.3-.2.1 0 .2.1.3.2.1.1.1.2.1.3v.5c.6-.7 1.3-1 2.3-1 .1 0 .2.1.3.2.3 0 .3.1.3.3zM309.7 52.9c0 .9-.3 1.6-1 2.3-.6.6-1.4.9-2.3.9-.9 0-1.7-.3-2.3-1v2.3c0 .1 0 .2-.1.3-.1.1-.2.2-.3.2-.1 0-.2-.1-.3-.2-.1-.1-.1-.2-.1-.3v-7.3c0-.1 0-.2.1-.3.1-.1.2-.2.3-.2.1 0 .2.1.3.2.1.1.1.2.1.3v.5c.6-.7 1.4-1 2.3-1 .9 0 1.6.3 2.3 1 .7.7 1 1.4 1 2.3zm-1 0c0-.6-.2-1.1-.7-1.6-.4-.4-1-.7-1.6-.7-.6 0-1.2.2-1.6.7-.4.4-.7 1-.7 1.6 0 .6.2 1.1.7 1.6.4.4 1 .7 1.6.7.6 0 1.1-.2 1.6-.7.5-.4.7-1 .7-1.6zM317 55.7v.2c0 .1-.1.1-.1.2 0 0-.1.1-.2.1h-.2c-.1 0-.3 0-.3-.1s-.1-.2-.1-.3v-.5c-.6.7-1.4 1-2.3 1-.9 0-1.6-.3-2.2-1-.6-.6-.9-1.4-.9-2.3v-2.7c0-.1 0-.2.1-.3.1-.1.2-.2.3-.2.1 0 .2.1.3.2.1.1.1.2.1.3V53c0 .6.2 1.1.7 1.6.4.4 1 .7 1.6.7.6 0 1.1-.2 1.6-.7.4-.4.7-1 .7-1.6v-2.7c0-.1 0-.2.1-.3.1-.1.2-.2.3-.2.1 0 .2.1.3.2.1.1.1.2.1.3v5.4zM324.6 55.7v.2c0 .1-.1.1-.1.2 0 0-.1.1-.2.1h-.2c-.1 0-.3 0-.3-.1s-.1-.2-.1-.3v-2.7c0-.6-.2-1.1-.7-1.6-.4-.4-1-.7-1.6-.7-.6 0-1.2.2-1.6.7-.4.4-.7 1-.7 1.6V56c0 .1-.1.1-.1.2 0 0-.1.1-.2.1h-.2c-.1 0-.2 0-.3-.1-.1-.1-.1-.2-.1-.3v-5.5c0-.1 0-.2.1-.3.1-.1.2-.2.3-.2.1 0 .2.1.3.2.1.1.1.2.1.3v.5c.6-.7 1.4-1 2.3-1 .9 0 1.6.3 2.2 1 .6.6.9 1.4.9 2.3v2.5zM331.1 51c0 .1-.1.2-.2.3-.1.1-.2.1-.3.1h-.2c-.1 0-.1-.1-.2-.1s-.1-.1-.1-.1l-.1-.1c-.4-.3-.8-.4-1.3-.4-.6 0-1.1.2-1.6.7-.4.4-.7 1-.7 1.6 0 .6.2 1.1.7 1.6.4.4 1 .7 1.6.7.5 0 1-.1 1.3-.4l.1-.1.1-.1c.1-.1.2-.1.3-.1h.2c.1 0 .1.1.2.1 0 0 .1.1.1.2v.2c0 .2-.2.4-.5.6-.6.4-1.3.6-1.9.6-.9 0-1.7-.3-2.3-.9-.6-.6-.9-1.4-.9-2.3s.3-1.6.9-2.3c.6-.6 1.4-1 2.3-1 .7 0 1.3.2 1.9.6.4.2.6.4.6.6zM335.9 55.7c0 .1-.1.2-.2.3-.1.1-.2.1-.3.1h-2c-.1 0-.2 0-.3-.1-.1-.1-.1-.2-.1-.3v-5h-1c-.1 0-.1-.1-.2-.1 0 0-.1-.1-.1-.2v-.2c0-.1 0-.2.1-.3.1-.1.2-.2.3-.2h.8v-.4-.2c0-.1.1-.1.1-.2 0 0 .1-.1.2-.1h.2c.1 0 .2 0 .3.1.1.1.1.2.1.3v.4h.8c.1 0 .2.1.3.2.1.1.2.2.2.3 0 .1-.1.2-.2.3-.1.1-.2.1-.3.1h-.8V55h1.5c.1 0 .2.1.3.2.2.2.3.3.3.5zM342.6 55.7v.2c0 .1-.1.1-.1.2 0 0-.1.1-.2.1h-.2c-.1 0-.3 0-.3-.1-.1-.1-.1-.2-.1-.3v-.5c-.6.7-1.4 1-2.3 1-.9 0-1.6-.3-2.2-1-.6-.6-.9-1.4-.9-2.3v-2.7c0-.1 0-.2.1-.3.1-.1.2-.2.3-.2.1 0 .2.1.3.2.1.1.1.2.1.3V53c0 .6.2 1.1.7 1.6.4.4 1 .7 1.6.7.6 0 1.1-.2 1.6-.7.4-.4.7-1 .7-1.6v-2.7c0-.1 0-.2.1-.3.1-.1.2-.2.3-.2.1 0 .2.1.3.2.1.1.1.2.1.3v5.4zM347.5 50.2c0 .1-.1.2-.2.3-.1.1-.2.1-.3.1-.6 0-1.2.2-1.6.7-.4.4-.7 1-.7 1.6V55.8c0 .1-.1.1-.1.2 0 0-.1.1-.2.1h-.2c-.1 0-.2 0-.3-.1-.1-.1-.1-.2-.1-.3v-5.5c0-.1 0-.2.1-.3.1-.1.2-.2.3-.2s.2.1.3.2c.1.1.1.2.1.3v.5c.6-.7 1.3-1 2.3-1 .1 0 .2.1.3.2.3 0 .3.1.3.3zM353.3 51c0 .1-.1.3-.1.4l-3.5 3.5c.4.2.8.3 1.2.3.5 0 1-.1 1.3-.4l.1-.1.1-.1c.1-.1.2-.1.3-.1h.2c.1 0 .1.1.2.1 0 0 .1.1.1.2v.2c0 .2-.2.4-.5.6-.6.4-1.3.6-1.9.6-.9 0-1.7-.3-2.3-.9-.6-.6-.9-1.4-.9-2.3s.3-1.6.9-2.3c.6-.6 1.4-1 2.3-1 .6 0 1.3.2 1.9.6.4.2.6.5.6.7zm-1.2 0c-.4-.3-.8-.4-1.3-.4-.6 0-1.1.2-1.6.7-.4.4-.7 1-.7 1.6 0 .5.1.9.4 1.2l3.2-3.1zM357.7 54.3c0 .5-.2.9-.5 1.3-.4.4-.8.5-1.3.5-.3 0-.7-.1-.9-.2-.3-.2-.5-.4-.7-.7 0-.1-.1-.2-.1-.2v-.2c0-.1.1-.1.1-.2 0 0 .1-.1.2-.1h.2c.1 0 .3.1.5.3.2.2.4.3.7.3.2 0 .4-.1.6-.3s.3-.4.3-.6c0-.2-.1-.4-.3-.6s-.4-.3-.6-.3c-.5 0-.9-.2-1.3-.5-.4-.4-.5-.8-.5-1.3s.2-.9.5-1.3c.4-.4.8-.6 1.3-.6.3 0 .6.1.9.3.3.2.5.4.7.7 0 .1.1.2.1.2 0 .1 0 .2-.1.3-.1.1-.2.1-.3.1-.1 0-.3-.1-.5-.3-.2-.2-.4-.3-.7-.3-.2 0-.4.1-.6.3-.2.2-.3.4-.3.6 0 .2.1.4.3.6.2.2.4.3.6.3.5 0 .9.2 1.3.5.2.4.4.9.4 1.4zM202.2 68.6v.2c0 .1-.1.1-.1.2 0 0-.1.1-.2.1h-.2c-.1 0-.2 0-.3-.1-.1-.1-.1-.2-.1-.3v-5.5c0-.1 0-.2.1-.3.1-.1.2-.2.3-.2s.2.1.3.2c.1.1.1.2.1.3v5.4zM209.8 68.6v.2c0 .1-.1.1-.1.2 0 0-.1.1-.2.1h-.2c-.1 0-.3 0-.3-.1-.1-.1-.1-.2-.1-.3V66c0-.6-.2-1.1-.7-1.6-.4-.4-1-.7-1.6-.7-.6 0-1.2.2-1.6.7-.4.4-.7 1-.7 1.6V68.9c0 .1-.1.1-.1.2 0 0-.1.1-.2.1h-.2c-.1 0-.2 0-.3-.1-.1-.1-.1-.2-.1-.3v-5.5c0-.1 0-.2.1-.3.1-.1.2-.2.3-.2s.2.1.3.2c.1.1.1.2.1.3v.5c.6-.7 1.4-1 2.3-1 .9 0 1.6.3 2.2 1 .6.6.9 1.4.9 2.3v2.5zM221.4 68.6v.2c0 .1-.1.1-.1.2 0 0-.1.1-.2.1h-.2c-.1 0-.3 0-.3-.1-.1-.1-.1-.2-.1-.3V66c0-.6-.2-1.1-.7-1.6-.4-.4-1-.7-1.6-.7-.6 0-1.2.2-1.6.7-.4.4-.7 1-.7 1.6V68.9c0 .1-.1.1-.1.2 0 0-.1.1-.2.1h-.2c-.1 0-.2 0-.3-.1-.1-.1-.1-.2-.1-.3v-5.5c0-.1 0-.2.1-.3.1-.1.2-.2.3-.2s.2.1.3.2c.1.1.1.2.1.3v.5c.6-.7 1.4-1 2.3-1 .9 0 1.6.3 2.2 1 .6.6.9 1.4.9 2.3v2.5zM227.9 63.9c0 .1-.1.3-.1.4l-3.5 3.5c.4.2.8.3 1.2.3.5 0 1-.1 1.3-.4l.1-.1.1-.1c.1-.1.2-.1.3-.1h.2c.1 0 .1.1.2.1 0 0 .1.1.1.2v.2c0 .2-.2.4-.5.6-.6.4-1.3.6-1.9.6-.9 0-1.7-.3-2.3-.9-.6-.6-.9-1.4-.9-2.3 0-.9.3-1.6.9-2.3.6-.6 1.4-1 2.3-1 .6 0 1.3.2 1.9.6.4.3.6.5.6.7zm-1.2.1c-.4-.3-.8-.4-1.3-.4-.6 0-1.1.2-1.6.7-.4.4-.7 1-.7 1.6 0 .5.1.9.4 1.2l3.2-3.1zM237 63.1v.2l-2.4 5.4v.1c-.1.2-.2.3-.5.3-.2 0-.4-.1-.4-.3v-.1l-.9-1.9-.9 1.9v.1c-.1.2-.2.3-.5.3-.2 0-.4-.1-.4-.3v-.1l-2.4-5.4v-.2c0-.1 0-.2.1-.3.1-.1.2-.2.3-.2.2 0 .4.1.4.3l2 4.5.8-1.8-1-2.2v-.2c0-.1 0-.2.1-.3.1-.1.2-.2.3-.2.2 0 .4.1.4.3l.6 1.4.6-1.4c.1-.2.2-.3.4-.3.1 0 .2.1.3.2.1.1.2.2.2.3v.2l-1 2.2.8 1.8 2-4.5c.1-.2.2-.3.4-.3.1 0 .2.1.3.2.3.1.4.2.4.3zM244.1 65.9c0 .9-.3 1.6-1 2.3-.6.6-1.4.9-2.3.9-.9 0-1.7-.3-2.3-1v.7c0 .1-.1.1-.1.2 0 0-.1.1-.2.1h-.2c-.1 0-.2 0-.3-.1-.1-.1-.1-.2-.1-.3v-6.4-.2c0-.1.1-.1.1-.2 0 0 .1-.1.2-.1h.2c.1 0 .2 0 .3.1.1.1.1.2.1.3v1.4c.6-.7 1.4-1 2.3-1 .9 0 1.6.3 2.3 1 .7.6 1 1.4 1 2.3zm-1 0c0-.6-.2-1.1-.7-1.6-.4-.4-1-.7-1.6-.7-.6 0-1.2.2-1.6.7-.4.4-.7 1-.7 1.6 0 .6.2 1.1.7 1.6.4.4 1 .7 1.6.7.6 0 1.1-.2 1.6-.7.5-.5.7-1 .7-1.6zM251.1 65.9c0 .9-.3 1.6-1 2.3-.6.6-1.4.9-2.3.9s-1.7-.3-2.3-.9c-.6-.6-.9-1.4-.9-2.3 0-.9.3-1.6.9-2.3.6-.6 1.4-1 2.3-1s1.6.3 2.3 1c.7.6 1 1.4 1 2.3zm-1 0c0-.6-.2-1.1-.7-1.6-.4-.4-1-.7-1.6-.7-.6 0-1.1.2-1.6.7-.4.4-.7 1-.7 1.6 0 .6.2 1.1.7 1.6.4.4 1 .7 1.6.7.6 0 1.1-.2 1.6-.7.5-.5.7-1 .7-1.6zM255.7 63.1c0 .1-.1.2-.2.3-.1.1-.2.1-.3.1-.6 0-1.2.2-1.6.7-.4.4-.7 1-.7 1.6V68.7c0 .1-.1.1-.1.2 0 0-.1.1-.2.1h-.2c-.1 0-.2 0-.3-.1-.1-.1-.1-.2-.1-.3v-5.5c0-.1 0-.2.1-.3.1-.1.2-.2.3-.2s.2.1.3.2c.1.1.1.2.1.3v.5c.6-.7 1.3-1 2.3-1 .1 0 .2.1.3.2.3.1.3.2.3.3zM262.9 68.6v.2c0 .1-.1.1-.1.2 0 0-.1.1-.2.1h-.2c-.1 0-.3 0-.3-.1-.1-.1-.1-.2-.1-.3V66c0-.6-.2-1.1-.7-1.6-.4-.4-1-.7-1.6-.7-.6 0-1.2.2-1.6.7-.4.4-.7 1-.7 1.6V68.9c0 .1-.1.1-.1.2 0 0-.1.1-.2.1h-.2c-.1 0-.2 0-.3-.1-.1-.1-.1-.2-.1-.3v-5.5c0-.1 0-.2.1-.3.1-.1.2-.2.3-.2.1 0 .2.1.3.2.1.1.1.2.1.3v.5c.6-.7 1.4-1 2.3-1 .9 0 1.6.3 2.2 1 .6.6.9 1.4.9 2.3v2.5zM267.4 67.2c0 .5-.2.9-.5 1.3s-.8.5-1.3.5c-.3 0-.7-.1-.9-.2-.3-.2-.5-.4-.7-.7 0-.1-.1-.2-.1-.2v-.2c0-.1.1-.1.1-.2 0 0 .1-.1.2-.1h.2c.1 0 .3.1.5.3.2.2.4.3.7.3.2 0 .4-.1.6-.3s.3-.4.3-.6c0-.2-.1-.4-.3-.6s-.4-.3-.6-.3c-.5 0-.9-.2-1.3-.5-.4-.4-.5-.8-.5-1.3s.2-.9.5-1.3c.4-.4.8-.6 1.3-.6.3 0 .6.1.9.3.3.2.5.4.7.7 0 .1.1.2.1.2 0 .1 0 .2-.1.3-.1.1-.2.1-.3.1-.1 0-.3-.1-.5-.3-.2-.2-.4-.3-.7-.3-.2 0-.4.1-.6.3-.2.2-.3.4-.3.6 0 .2.1.4.3.6s.4.3.6.3c.5 0 .9.2 1.3.5.2.5.4.9.4 1.4z"/></g><path fill="#009590" d="M214.3 26.8c-3.6 0-6.8-1.3-9.4-3.9-2.6-2.6-3.9-5.8-3.9-9.4 0-3.6 1.3-6.8 3.9-9.4 2.6-2.6 5.8-3.9 9.4-3.9 2.7 0 5.4.9 8 2.7 1.4 1 2.1 1.8 2.1 2.6 0 .3-.1.5-.2.7-.1.2-.2.4-.4.6-.2.2-.4.3-.6.4-.7.3-1.5.2-2.1-.4-.4-.3-.7-.6-1-.9-1.5-1.3-3.5-1.9-5.7-1.9-2.6 0-4.9 1-6.8 2.8-1.9 1.9-2.8 4.1-2.8 6.7 0 2.6 1 4.9 2.8 6.8 1.9 1.9 4.2 2.8 6.8 2.8 2.3 0 4.2-.6 5.8-1.9.3-.3.6-.6 1-.9.6-.6 1.4-.7 2.1-.4.2.1.4.2.6.4.2.2.3.4.4.6.1.2.2.5.2.7 0 .8-.7 1.7-2.1 2.6-2.7 1.7-5.4 2.6-8.1 2.6zM254.4 26.8h-14.9c-.5 0-1-.2-1.3-.6-.4-.4-.6-.8-.6-1.3v-23c0-.3.1-.5.2-.7.1-.2.2-.4.4-.6.2-.2.4-.3.6-.4.5-.2 1-.2 1.5 0 .2.1.4.2.6.4.2.2.3.4.4.6.1.2.2.5.2.7V23h13c.5 0 1 .2 1.3.6.4.4.6.8.6 1.3s-.2 1-.6 1.3c-.4.4-.9.6-1.4.6zM286.4 26.8h-14.9c-.5 0-1-.2-1.3-.6-.4-.4-.6-.8-.6-1.3v-23c0-.3.1-.5.2-.7.1-.2.2-.4.4-.6.2-.2.4-.3.6-.4.2-.1.5-.2.7-.2h14.9c.3 0 .5.1.7.2.2.1.4.2.6.4.2.2.3.4.4.6.1.2.2.5.2.7 0 .5-.2 1-.6 1.3-.4.4-.8.6-1.3.6h-13v7.7h9.8c.5 0 .9.2 1.3.6.4.4.6.8.6 1.3 0 .2-.1.5-.2.7-.1.2-.2.4-.4.6-.2.2-.4.3-.6.4-.2.1-.5.2-.7.2h-9.8V23h13c.5 0 1 .2 1.3.6.4.4.6.8.6 1.3s-.2 1-.6 1.3c-.3.4-.8.6-1.3.6zM324 24.1l-9.3-22.8c-.4-1.1-1.2-1.4-1.8-1.4-.6 0-1.3.2-1.8 1.4l-9.3 22.8c-.1.2-.1.4-.1.7 0 .5.2 1 .5 1.3.4.4.8.6 1.3.6.9 0 1.5-.4 1.8-1.2l2.1-5.3h10.9l2.2 5.3c.3.8.9 1.2 1.8 1.2.5 0 1-.2 1.3-.6.4-.4.5-.8.5-1.3 0-.2-.1-.4-.1-.7zm-15-7.6l3.9-9.6 3.9 9.6H309zM351.6 18c1.7-.6 3.1-1.6 4.2-3.1 1.3-1.7 1.9-3.6 1.9-5.6 0-2.5-.9-4.7-2.7-6.5-1.8-1.8-4-2.7-6.5-2.7h-11.1V25c0 .5.2 1 .6 1.3.7.7 1.9.7 2.7 0 .4-.4.6-.8.6-1.3v-6.4h5.6l7.7 7.7c.4.4.8.5 1.3.5.3 0 .5-.1.7-.2.2-.1.4-.2.6-.4.2-.2.3-.4.4-.6.1-.2.2-.5.2-.7 0-.5-.2-1-.5-1.3l-5.7-5.6zm-10.4-3.3V3.8h7.3c1.5 0 2.8.5 3.8 1.6 1.1 1.1 1.6 2.3 1.6 3.8s-.5 2.8-1.6 3.9-2.3 1.6-3.8 1.6h-7.3z"/><path fill="#B51A82" d="M155.4 27.6c4.1 0 7.3 3.3 7.3 7.4 0 4.1-3.3 7.3-7.3 7.3-4.1 0-7.4-3.3-7.4-7.3.1-4.1 3.3-7.4 7.4-7.4"/><path fill="#009590" d="M360.6 31.8h-191c.2 1 .4 2.1.4 3.2s-.1 2.1-.4 3.1h191c1.7 0 3.1-1.4 3.1-3.2s-1.3-3.1-3.1-3.1zM73.5 69.1c-.8 0-1.5-.3-2.2-.9-.6-.6-.9-1.3-.9-2.2V3.9c0-.4.1-.7.2-1.1.2-.4.4-.7.7-1 .3-.3.6-.5 1-.7.4-.2.7-.3 1.1-.3h45.4c.4 0 .8.1 1.1.3.4.2.7.4 1 .7.3.3.5.6.7 1 .2.4.3.7.3 1.1 0 .8-.3 1.5-.9 2.2-.6.6-1.3.9-2.2.9H76.5v55.9h42.2c.8 0 1.5.3 2.2.9.6.6.9 1.3.9 2.2 0 .8-.3 1.5-.9 2.2-.6.6-1.3.9-2.2.9H73.5z"/><path fill="#B51A82" d="M56.4 69.1c-.9 0-1.8-.5-2.7-1.5l-47.5-55V66c0 .8-.3 1.5-.9 2.2-.6.6-1.3.9-2.2.9-.8 0-1.5-.3-2.2-.9-.6-.7-.9-1.4-.9-2.2V3.9c0-.4.1-.7.2-1.1.2-.4.4-.7.7-1 .3-.3.6-.5 1-.7.4-.2.7-.3 1.1-.3 1 0 1.7.3 2.2.8l48.1 55.7V3.9c0-.4.1-.7.2-1.1.2-.4.4-.7.7-1 .3-.3.6-.5 1-.7.4-.2.7-.3 1.1-.3.4 0 .8.1 1.1.3.4.2.7.4 1 .7.3.3.5.6.7 1 .2.4.3.7.3 1.1V66c0 .8-.3 1.5-.9 2.2-.5.6-1.2.9-2.1.9z"/><path fill="#009590" d="M140.9 35c0-1.1.1-2.1.4-3.1h-51c-1.7 0-3.2 1.4-3.2 3.2s1.4 3.2 3.2 3.2h50.9c-.2-1.2-.3-2.3-.3-3.3z"/></svg>