<svg xmlns="http://www.w3.org/2000/svg" width="441.145" height="212.596" viewBox="0 0 441.145 212.596"><path fill="#588EC6" d="M239.766 6.624c-15.615-5.82-31.19-7.86-45.04-5.901-32.819 4.648-53.445 30.568-52.546 66.033.685 26.888 11.423 51.062 29.464 66.334 15.02 12.71 33.904 18.207 53.18 15.477 19.439-2.754 39.357-9.77 56.082-19.754 17.725-10.583 30.131-23.57 34.939-36.578 10.599-28.684-22.106-65.485-76.079-85.611zm68.25 76.096c-7.996 21.639-44.502 43.432-81.527 48.677-37.031 5.247-67.956-26.242-69.078-70.331-1.119-44.089 35.381-65.885 81.529-48.679 46.146 17.207 77.07 48.694 69.076 70.333z"/><path fill="#588EC6" d="M289.442 74.728c-11.297 22.476-35.068 54.06-80.365 57.825 0 0-47.913 4.33-41.653-28.97 0 0 5.133-24.563 37.096-9.418 0 0 45.651 22.932 81.079-21.913 0 0 1.486-2.104 3.289-.858-.003-.002 1.632 1.169.554 3.334z"/><path fill="#605D59" d="M213.936 86.347c29.057 2.604 37.225-21.29 37.225-21.29 5.033-13.328 19.498-11.749 19.498-11.749 20.396 3.915-5.35 27.281-5.35 27.281-18.471 14.967-39.574 12.301-52.441 8.396 0 0-1.608-.392-1.433-1.647.001-.002.067-1.523 2.501-.991zM283.409 28.834c1.707 8.447-3.77 16.686-12.219 18.382-8.438 1.705-16.674-3.767-18.377-12.22-1.705-8.445 3.766-16.682 12.213-18.381s16.685 3.766 18.383 12.219z"/><path fill="#588EC6" d="M245.692 40.459c3.484 17.291-7.713 34.123-24.985 37.604-17.273 3.479-34.104-7.711-37.592-25.003-3.479-17.27 7.713-34.102 24.979-37.578 17.27-3.478 34.114 7.703 37.598 24.977z"/><path fill="#FFF" d="M193.891 94.689c-6.211-1.956-12.416-.932-15 1.031 3.074-1 8.567-1.244 14.561.604 5.953 1.634 11.027 4.256 14.279 4.636-2.885-1.323-7.52-4.518-13.84-6.271zM273.143 56.223c-2.625-1.113-5.268-.587-6.432.005 1.416.26 3.578.317 5.895 1.309 2.414.792 3.314 2.609 3.414 4.106.955-1.084.092-4.57-2.877-5.42zM275.782 20.633c-3.928-2.573-8.291-2.161-10.27-1.371 2.203.042 6 .244 9.51 2.528 3.465 2.346 5.125 5.765 6.01 7.78-.03-2.125-1.346-6.31-5.25-8.937zM230.083 23.059c-8.027-5.371-17.067-4.687-21.174-3.038 4.49-.218 12.557.169 19.848 5.04 7.316 4.825 10.803 12.098 12.332 16.337-.063-4.426-2.944-13.026-11.006-18.339z"/><g><path fill="#605D59" d="M0 204.408v-27.866h9.602c2.167 0 3.821.135 4.96.398 1.596.368 2.959 1.033 4.086 1.996 1.469 1.24 2.57 2.827 3.3 4.765.727 1.93 1.093 4.142 1.093 6.622 0 2.118-.247 3.992-.742 5.628-.495 1.634-1.127 2.984-1.901 4.058-.773 1.07-1.62 1.914-2.538 2.529-.919.612-2.028 1.078-3.325 1.396-1.298.316-2.792.478-4.478.478H0v-.004zm3.689-3.287h5.949c1.839 0 3.279-.173 4.324-.513 1.046-.345 1.879-.823 2.5-1.443.876-.877 1.556-2.053 2.043-3.53.487-1.478.731-3.266.731-5.369 0-2.914-.479-5.154-1.436-6.719-.957-1.565-2.119-2.612-3.489-3.146-.989-.381-2.579-.57-4.771-.57H3.687v21.29h.002zM41.5 197.906l3.536.438c-.556 2.063-1.59 3.67-3.1 4.812-1.507 1.14-3.436 1.712-5.779 1.712-2.953 0-5.293-.911-7.025-2.729-1.73-1.816-2.596-4.368-2.596-7.651 0-3.396.874-6.03 2.624-7.907 1.75-1.878 4.018-2.813 6.806-2.813 2.7 0 4.904.918 6.614 2.755 1.712 1.839 2.568 4.426 2.568 7.758 0 .2-.006.508-.019.911H30.073c.127 2.218.753 3.915 1.882 5.094 1.127 1.181 2.534 1.77 4.22 1.77 1.254 0 2.326-.328 3.212-.988.886-.665 1.592-1.714 2.113-3.162zm-11.236-5.529h11.271c-.151-1.697-.582-2.971-1.292-3.821-1.091-1.317-2.502-1.977-4.24-1.977-1.571 0-2.891.525-3.962 1.576-1.071 1.054-1.662 2.461-1.777 4.222zM49.254 204.408v-27.866h3.421v27.866h-3.421zM58.001 180.475v-3.937h3.42v3.937h-3.42zm0 23.933V184.22h3.42v20.188h-3.42zM72.238 204.408l-7.681-20.188h3.613l4.335 12.09c.47 1.309.898 2.661 1.292 4.068a58.718 58.718 0 0 1 1.273-3.84l4.486-12.318h3.517l-7.644 20.189h-3.191v-.001zM99.917 197.906l3.536.438c-.556 2.063-1.59 3.67-3.1 4.812-1.508 1.14-3.434 1.712-5.778 1.712-2.954 0-5.294-.911-7.024-2.729-1.729-1.816-2.594-4.368-2.594-7.651 0-3.396.874-6.03 2.623-7.907 1.748-1.876 4.018-2.813 6.806-2.813 2.7 0 4.904.918 6.616 2.755 1.712 1.839 2.566 4.426 2.566 7.758 0 .2-.007.508-.02.911H88.493c.127 2.218.753 3.915 1.882 5.094 1.127 1.181 2.534 1.77 4.22 1.77 1.254 0 2.326-.328 3.212-.988.886-.665 1.589-1.714 2.11-3.162zm-11.235-5.529h11.271c-.153-1.697-.583-2.971-1.292-3.821-1.091-1.317-2.502-1.977-4.239-1.977-1.571 0-2.892.525-3.963 1.576-1.072 1.051-1.663 2.461-1.777 4.222zM107.711 204.408V184.22h3.081v3.059c.787-1.434 1.512-2.376 2.177-2.834a3.819 3.819 0 0 1 2.196-.686c1.152 0 2.326.368 3.517 1.104l-1.178 3.174c-.837-.493-1.673-.742-2.509-.742-.748 0-1.418.228-2.015.674-.595.45-1.021 1.074-1.273 1.873-.381 1.217-.57 2.548-.57 3.994v10.566h-3.425l-.001.006zM120.561 212.183l-.381-3.214c.749.202 1.401.305 1.958.305.761 0 1.369-.127 1.824-.379a3.12 3.12 0 0 0 1.123-1.065c.215-.343.563-1.19 1.046-2.55.064-.189.166-.47.304-.836l-7.662-20.229h3.689l4.201 11.688a52.155 52.155 0 0 1 1.463 4.677c.393-1.57.861-3.104 1.407-4.601l4.316-11.77h3.421l-7.679 20.53c-.825 2.218-1.463 3.744-1.92 4.583-.607 1.126-1.305 1.954-2.089 2.479-.787.525-1.725.788-2.813.788-.66.013-1.396-.126-2.208-.406zM149.723 194.315c0-3.737 1.041-6.51 3.119-8.308 1.734-1.498 3.852-2.243 6.348-2.243 2.777 0 5.045.911 6.806 2.729 1.76 1.816 2.644 4.33 2.644 7.536 0 2.599-.39 4.643-1.17 6.13a8.288 8.288 0 0 1-3.402 3.47c-1.487.825-3.114 1.238-4.875 1.238-2.825 0-5.11-.907-6.854-2.722-1.743-1.812-2.616-4.423-2.616-7.83zm3.518 0c0 2.584.563 4.521 1.69 5.81 1.127 1.285 2.547 1.928 4.26 1.928 1.699 0 3.109-.646 4.238-1.938 1.127-1.292 1.69-3.262 1.69-5.911 0-2.496-.567-4.389-1.701-5.675-1.133-1.285-2.542-1.93-4.229-1.93-1.711 0-3.131.64-4.258 1.921-1.126 1.277-1.69 3.209-1.69 5.795zM173.467 204.408v-17.524h-3.021v-2.661h3.021v-2.146c0-1.356.12-2.362.36-3.021.33-.885.91-1.607 1.737-2.156.83-.551 1.994-.827 3.49-.827.961 0 2.027.11 3.192.343l-.515 2.983a11.311 11.311 0 0 0-2.016-.188c-1.039 0-1.773.222-2.205.665-.433.443-.646 1.273-.646 2.489v1.861h3.936v2.66h-3.936v17.525h-3.398v-.003z"/><path fill="#588EC6" d="M194.684 204.408v-27.866h3.783l14.637 21.88v-21.88h3.537v27.866h-3.785l-14.639-21.898v21.898h-3.533zM236.219 197.906l3.535.438c-.561 2.063-1.59 3.67-3.102 4.812-1.508 1.14-3.434 1.712-5.777 1.712-2.953 0-5.293-.911-7.025-2.729-1.73-1.816-2.594-4.368-2.594-7.651 0-3.396.877-6.03 2.621-7.907 1.75-1.876 4.02-2.813 6.809-2.813 2.699 0 4.904.918 6.615 2.755 1.713 1.839 2.564 4.426 2.564 7.758 0 .2-.006.508-.018.911H224.79c.127 2.218.752 3.915 1.881 5.094 1.127 1.181 2.535 1.77 4.221 1.77 1.254 0 2.326-.328 3.213-.988.89-.665 1.593-1.714 2.114-3.162zm-11.236-5.529h11.271c-.152-1.697-.582-2.971-1.291-3.821-1.092-1.317-2.504-1.977-4.24-1.977-1.57 0-2.893.525-3.963 1.576-1.07 1.054-1.66 2.461-1.777 4.222zM242.776 194.315c0-3.737 1.039-6.51 3.115-8.308 1.74-1.498 3.855-2.243 6.35-2.243 2.777 0 5.045.911 6.809 2.729 1.76 1.817 2.643 4.33 2.643 7.536 0 2.599-.391 4.643-1.17 6.13a8.271 8.271 0 0 1-3.4 3.47c-1.49.825-3.115 1.238-4.879 1.238-2.824 0-5.105-.907-6.852-2.722-1.745-1.812-2.616-4.423-2.616-7.83zm3.519 0c0 2.584.563 4.521 1.689 5.81 1.129 1.285 2.549 1.928 4.258 1.928 1.697 0 3.111-.646 4.238-1.938 1.129-1.292 1.693-3.262 1.693-5.911 0-2.496-.568-4.389-1.701-5.675-1.133-1.285-2.545-1.93-4.23-1.93-1.713 0-3.129.64-4.258 1.921-1.126 1.277-1.689 3.209-1.689 5.795zM265.704 204.408V184.22h3.078v2.868c1.482-2.217 3.625-3.326 6.428-3.326 1.217 0 2.334.22 3.354.657 1.021.438 1.783 1.009 2.293 1.72.508.709.859 1.553 1.064 2.527.127.634.188 1.74.188 3.323v12.415h-3.42v-12.276c0-1.394-.135-2.438-.4-3.129-.266-.689-.736-1.24-1.412-1.653-.682-.411-1.475-.617-2.389-.617-1.459 0-2.715.462-3.773 1.39-1.059.925-1.588 2.681-1.588 5.266v11.023h-3.423zM300.532 201.92c-1.27 1.078-2.486 1.837-3.662 2.281-1.172.441-2.43.665-3.77.665-2.217 0-3.922-.542-5.111-1.627-1.191-1.085-1.789-2.468-1.789-4.153 0-.988.227-1.893.674-2.708.451-.815 1.039-1.473 1.771-1.965a8.368 8.368 0 0 1 2.461-1.124c.67-.177 1.684-.35 3.041-.513 2.762-.328 4.797-.726 6.104-1.18.014-.471.018-.767.018-.892 0-1.396-.322-2.378-.969-2.948-.877-.773-2.176-1.157-3.896-1.157-1.609 0-2.799.279-3.563.844-.77.565-1.334 1.563-1.701 2.996l-3.346-.457c.303-1.432.803-2.586 1.5-3.471.695-.881 1.707-1.559 3.02-2.034 1.316-.476 2.844-.713 4.582-.713 1.723 0 3.125.201 4.201.607 1.078.406 1.869.917 2.377 1.529.51.615.863 1.392 1.066 2.329.113.582.17 1.634.17 3.154v4.563c0 3.181.072 5.194.221 6.035a7.63 7.63 0 0 0 .865 2.426h-3.574c-.364-.708-.591-1.536-.69-2.487zm-.283-7.644c-1.244.507-3.105.938-5.594 1.293-1.404.2-2.396.432-2.98.686-.584.253-1.035.624-1.354 1.11a2.948 2.948 0 0 0-.477 1.627c0 .911.346 1.674 1.033 2.281.693.606 1.701.91 3.031.91 1.318 0 2.49-.288 3.518-.864 1.029-.575 1.779-1.363 2.264-2.365.365-.772.551-1.913.551-3.424v-1.253l.008-.001zM316.479 201.348l.494 3.022c-.965.202-1.826.304-2.584.304-1.244 0-2.207-.196-2.891-.589-.686-.393-1.164-.911-1.443-1.549-.279-.641-.42-1.987-.42-4.039v-11.616h-2.51v-2.664h2.51v-5l3.404-2.054v7.054h3.441v2.661h-3.441v11.807c0 .976.061 1.604.182 1.882.121.276.316.499.59.665.271.165.662.246 1.168.246.377.003.877-.042 1.5-.13zM333 201.92c-1.271 1.078-2.486 1.837-3.658 2.281a10.644 10.644 0 0 1-3.773.665c-2.219 0-3.924-.542-5.115-1.627s-1.785-2.468-1.785-4.153c0-.988.225-1.893.676-2.708a5.569 5.569 0 0 1 1.768-1.965 8.415 8.415 0 0 1 2.463-1.124c.674-.177 1.689-.35 3.043-.513 2.764-.328 4.799-.726 6.104-1.18.012-.471.018-.767.018-.892 0-1.396-.322-2.378-.971-2.948-.875-.773-2.172-1.157-3.896-1.157-1.607 0-2.797.279-3.564.844-.77.565-1.336 1.563-1.701 2.996l-3.348-.457c.303-1.432.805-2.586 1.504-3.471.695-.881 1.705-1.559 3.021-2.034 1.316-.477 2.846-.713 4.582-.713 1.725 0 3.123.201 4.199.607 1.078.406 1.869.917 2.377 1.529.508.615.861 1.392 1.066 2.329.109.582.17 1.634.17 3.154v4.563c0 3.181.074 5.194.219 6.035.146.844.436 1.649.865 2.426h-3.572c-.363-.708-.592-1.536-.692-2.487zm-.285-7.644c-1.242.507-3.105.938-5.59 1.293-1.406.2-2.4.432-2.984.686-.58.253-1.033.624-1.35 1.11a2.935 2.935 0 0 0-.48 1.627c0 .911.348 1.674 1.039 2.281.691.606 1.699.91 3.031.91 1.318 0 2.49-.288 3.516-.864 1.027-.575 1.781-1.363 2.262-2.365.369-.772.555-1.913.555-3.424v-1.253l.001-.001zM341.401 204.408v-27.866h3.42v27.866h-3.42zM381.266 194.636l3.688.934c-.77 3.028-2.162 5.338-4.172 6.93-2.006 1.591-4.463 2.387-7.363 2.387-3.004 0-5.445-.611-7.328-1.836-1.881-1.221-3.314-2.993-4.297-5.313-.98-2.319-1.477-4.811-1.477-7.473 0-2.9.559-5.434 1.664-7.594s2.689-3.802 4.734-4.925c2.045-1.121 4.299-1.684 6.758-1.684 2.789 0 5.133.708 7.033 2.128 1.9 1.419 3.225 3.414 3.973 5.987l-3.631.854c-.646-2.026-1.584-3.505-2.813-4.43s-2.777-1.389-4.639-1.389c-2.146 0-3.936.514-5.371 1.541-1.438 1.027-2.451 2.403-3.033 4.137a16.711 16.711 0 0 0-.875 5.351c0 2.368.348 4.438 1.035 6.207.691 1.771 1.768 3.09 3.225 3.966a9.051 9.051 0 0 0 4.734 1.313c2.066 0 3.814-.599 5.248-1.786 1.433-1.191 2.401-2.958 2.907-5.305zM402.233 201.92c-1.268 1.078-2.482 1.837-3.66 2.281-1.17.441-2.43.665-3.77.665-2.217 0-3.922-.542-5.113-1.627-1.188-1.085-1.785-2.468-1.785-4.153 0-.988.227-1.893.674-2.708s1.039-1.473 1.77-1.965a8.391 8.391 0 0 1 2.461-1.124c.674-.177 1.688-.35 3.043-.513 2.764-.328 4.797-.726 6.105-1.18.014-.471.02-.767.02-.892 0-1.396-.324-2.378-.969-2.948-.877-.773-2.176-1.157-3.9-1.157-1.607 0-2.797.279-3.564.844-.766.565-1.332 1.563-1.699 2.996l-3.348-.457c.303-1.432.807-2.586 1.502-3.471.697-.881 1.705-1.559 3.021-2.034 1.32-.478 2.846-.713 4.584-.713 1.723 0 3.123.201 4.201.607s1.867.917 2.377 1.529c.508.615.859 1.392 1.063 2.329.113.582.174 1.634.174 3.154v4.563c0 3.181.07 5.194.219 6.035.143.844.434 1.649.865 2.426h-3.574c-.367-.708-.592-1.536-.697-2.487zm-.285-7.644c-1.238.507-3.104.938-5.588 1.293-1.408.2-2.4.432-2.98.686-.584.253-1.035.624-1.354 1.11a2.943 2.943 0 0 0-.479 1.627c0 .911.346 1.674 1.035 2.281.691.606 1.699.91 3.031.91 1.318 0 2.49-.288 3.518-.864 1.025-.575 1.781-1.363 2.262-2.365.367-.772.553-1.913.553-3.424l.002-1.254zM410.676 204.408V184.22h3.078v3.059c.787-1.434 1.512-2.376 2.178-2.834a3.809 3.809 0 0 1 2.195-.686c1.15 0 2.328.368 3.516 1.104l-1.176 3.174c-.838-.493-1.674-.742-2.512-.742-.75 0-1.422.228-2.02.674-.596.45-1.02 1.074-1.27 1.873-.385 1.217-.57 2.548-.57 3.994v10.566h-3.422l.003.006zM437.5 197.906l3.531.438c-.559 2.063-1.592 3.67-3.1 4.812-1.508 1.14-3.438 1.712-5.777 1.712-2.953 0-5.295-.911-7.023-2.729-1.73-1.816-2.596-4.368-2.596-7.651 0-3.396.873-6.03 2.623-7.907 1.75-1.878 4.021-2.813 6.809-2.813 2.701 0 4.902.918 6.615 2.755 1.709 1.839 2.563 4.426 2.563 7.758 0 .2-.008.508-.018.911h-15.059c.129 2.218.754 3.915 1.881 5.094 1.129 1.181 2.535 1.77 4.223 1.77 1.254 0 2.326-.328 3.211-.988.891-.665 1.594-1.714 2.117-3.162zm-11.236-5.529h11.27c-.148-1.697-.582-2.971-1.293-3.821-1.09-1.317-2.502-1.977-4.236-1.977-1.57 0-2.895.525-3.967 1.576-1.067 1.054-1.659 2.461-1.774 4.222z"/></g></svg>