<svg xmlns="http://www.w3.org/2000/svg" width="307.708" height="212.6" viewBox="0 0 307.708 212.6"><path fill="#80388D" d="M142.929 193.807l-44.404-25.641v-27.678l39.068 22.556v-18.663l-39.068-22.553V99.174l42.516 24.544v-18.793L82.208 70.961V177.54l60.721 35.061v-18.794zM68.663 63.14l-15.547-8.975v69.657L21.181 35.728 3.5 25.519v106.58l15.638 9.029V69.817l32.811 90.253 16.714 9.649V63.14zM299.427 28.278l-64.949 37.719v18.907l24.041-13.957v88.306l16.795-9.756V61.184l24.113-14.002V28.278zm-89.226 101.561c-1.484-.033-9.348 1.798-23.584 5.483-8.457 2.228-12.682.308-12.682-5.768.07-4.422 1.777-8.798 5.109-13.121 2.744-3.482 5.891-6.254 9.443-8.325 4.078-2.366 7.563-3.089 10.451-2.171 3.262 1.006 5.082 4.093 5.449 9.266l16.006-9.297c-.377-11.134-3.889-17.952-10.564-20.454-5.857-2.271-12.975-.979-21.35 3.882-5.482 3.188-10.563 7.484-15.232 12.88-4.893 5.626-8.541 11.647-10.943 18.067-2.41 6.424-3.656 12.888-3.729 19.389-.072 12.673 4.041 19.227 12.354 19.672 1.707.105 9.492-1.638 23.363-5.215 8.377-2.186 12.533-.073 12.459 6.333 0 4.077-1.617 8.298-4.84 12.654-3.232 4.364-6.992 7.789-11.297 10.29-4.674 2.715-8.563 3.54-11.684 2.479-3.564-1.105-5.42-4.481-5.561-10.144l-16.141 9.373c.588 23.421 12.455 28.508 35.604 15.266 5.189-3.016 10.129-7.274 14.803-12.777 4.967-5.972 8.82-12.388 11.566-19.26 2.443-6.298 3.676-13.127 3.676-20.492.007-11.839-4.225-17.844-12.676-18.01"/><linearGradient id="a" gradientUnits="userSpaceOnUse" x1="-295.979" y1="-610.458" x2="-295.979" y2="-616.138" gradientTransform="translate(5160.417 10422.099) scale(16.9152)"><stop offset="0" stop-color="#e1d9d5"/><stop offset="1" stop-color="#80388d"/></linearGradient><path fill="url(#a)" d="M153.853 96.069C193.107 36.025 307.708 0 307.708 0S193.107 0 153.853 36.022C114.601 0 0 0 0 0s114.601 36.025 153.853 96.069"/></svg>