<svg version="1.1" id="typefaces" xmlns="http://www.w3.org/2000/svg" x="0" y="0" width="693.2" height="283.5" viewBox="0 0 693.2 283.5" xml:space="preserve"><style>.st0{fill:#6d6e71}.st8{fill:#ed1c24}.st9{fill:#f6d809}.st10{fill:#00aeef}.st11{fill:#00a651}.st12{fill:#58595b}</style><g id="Strapline"><path class="st0" d="M2.2 243v-20.5H5l10.8 16.1v-16.1h2.6V243h-2.8L4.8 226.9V243H2.2zM33 238.2l2.6.3c-.4 1.5-1.2 2.7-2.3 3.5-1.1.8-2.5 1.3-4.3 1.3-2.2 0-3.9-.7-5.2-2-1.3-1.3-1.9-3.2-1.9-5.6 0-2.5.6-4.4 1.9-5.8 1.3-1.4 3-2.1 5-2.1s3.6.7 4.9 2c1.3 1.4 1.9 3.3 1.9 5.7v.7h-11c.1 1.6.6 2.9 1.4 3.8.8.9 1.9 1.3 3.1 1.3.9 0 1.7-.2 2.4-.7.6-.5 1.1-1.3 1.5-2.4zm-8.3-4H33c-.1-1.2-.4-2.2-1-2.8-.8-1-1.8-1.5-3.1-1.5-1.2 0-2.1.4-2.9 1.2-.8.7-1.2 1.8-1.3 3.1zM37.3 243l5.4-7.7-5-7.1h3.1l2.3 3.5c.4.7.8 1.2 1 1.7.4-.6.8-1.2 1.1-1.6l2.5-3.5h3l-5.1 7 5.5 7.9H48l-3.1-4.6-.8-1.2-3.9 5.9h-2.9zM59 240.8l.4 2.2c-.7.2-1.3.2-1.9.2-.9 0-1.6-.1-2.1-.4-.5-.3-.9-.7-1.1-1.1-.2-.5-.3-1.5-.3-3v-8.6h-1.8v-2H54v-3.7l2.5-1.5v5.2H59v2h-2.5v8.7c0 .7 0 1.2.1 1.4.1.2.2.4.4.5.2.1.5.2.9.2.3 0 .6-.1 1.1-.1zM68.8 238.6l2.5-.4c.1 1 .5 1.8 1.2 2.3.6.5 1.5.8 2.7.8 1.2 0 2-.2 2.6-.7.6-.5.8-1 .8-1.7 0-.6-.2-1-.7-1.3-.3-.2-1.2-.5-2.6-.9-1.8-.5-3.1-.9-3.8-1.2-.7-.3-1.3-.8-1.6-1.4-.4-.6-.6-1.3-.6-2s.2-1.3.5-1.8c.3-.6.7-1 1.2-1.4.4-.3.9-.5 1.6-.7.7-.2 1.4-.3 2.2-.3 1.2 0 2.2.2 3.1.5.9.3 1.5.8 2 1.4.4.6.7 1.3.9 2.3l-2.5.3c-.1-.8-.4-1.4-1-1.8-.5-.4-1.3-.6-2.3-.6-1.2 0-2 .2-2.5.6-.5.4-.7.8-.7 1.3 0 .3.1.6.3.9.2.3.5.5 1 .7.3.1 1 .3 2.2.6 1.8.5 3 .9 3.7 1.2.7.3 1.3.7 1.7 1.3.4.6.6 1.3.6 2.2 0 .8-.2 1.6-.7 2.4-.5.7-1.2 1.3-2.1 1.7-.9.4-2 .6-3.1.6-1.9 0-3.4-.4-4.4-1.2-1.3-.9-1.9-2.1-2.2-3.7zM89.8 240.8l.4 2.2c-.7.2-1.3.2-1.9.2-.9 0-1.6-.1-2.1-.4-.5-.3-.9-.7-1.1-1.1-.2-.5-.3-1.5-.3-3v-8.6H83v-2h1.8v-3.7l2.5-1.5v5.2h2.5v2h-2.5v8.7c0 .7 0 1.2.1 1.4.1.2.2.4.4.5.2.1.5.2.9.2.3 0 .7-.1 1.1-.1zM102.2 241.2c-.9.8-1.8 1.4-2.7 1.7-.9.3-1.8.5-2.8.5-1.6 0-2.9-.4-3.8-1.2-.9-.8-1.3-1.8-1.3-3.1 0-.7.2-1.4.5-2 .3-.6.8-1.1 1.3-1.4.5-.4 1.1-.6 1.8-.8.5-.1 1.2-.3 2.2-.4 2-.2 3.5-.5 4.5-.9v-.7c0-1-.2-1.7-.7-2.2-.6-.6-1.6-.9-2.9-.9-1.2 0-2.1.2-2.6.6-.6.4-1 1.2-1.3 2.2l-2.5-.3c.2-1.1.6-1.9 1.1-2.6.5-.6 1.3-1.1 2.2-1.5 1-.3 2.1-.5 3.4-.5 1.3 0 2.3.2 3.1.4.8.3 1.4.7 1.7 1.1.4.5.6 1 .8 1.7.1.4.1 1.2.1 2.3v3.4c0 2.3.1 3.8.2 4.4.1.6.3 1.2.6 1.8h-2.6c0-.3-.2-.9-.3-1.6zm-.2-5.6c-.9.4-2.3.7-4.1 1-1 .2-1.8.3-2.2.5-.4.2-.8.5-1 .8-.2.4-.4.8-.4 1.2 0 .7.3 1.2.8 1.7.5.4 1.3.7 2.2.7 1 0 1.8-.2 2.6-.6.8-.4 1.3-1 1.7-1.7.3-.6.4-1.4.4-2.5v-1.1zM108.2 244.3l2.4.4c.1.8.4 1.3.9 1.7.6.5 1.5.7 2.6.7 1.2 0 2.1-.2 2.7-.7.6-.5 1.1-1.1 1.3-2 .1-.5.2-1.6.2-3.2-1.1 1.3-2.5 1.9-4.1 1.9-2 0-3.6-.7-4.7-2.2-1.1-1.5-1.7-3.2-1.7-5.3 0-1.4.3-2.7.8-3.9.5-1.2 1.3-2.1 2.2-2.8 1-.7 2.1-1 3.4-1 1.8 0 3.2.7 4.3 2.1v-1.8h2.3V241c0 2.3-.2 4-.7 4.9-.5 1-1.2 1.7-2.2 2.3-1 .6-2.3.8-3.8.8-1.8 0-3.2-.4-4.3-1.2-1.1-.7-1.6-1.9-1.6-3.5zm2.1-9c0 1.9.4 3.4 1.2 4.3.8.9 1.7 1.3 2.9 1.3s2.1-.4 2.9-1.3c.8-.9 1.2-2.3 1.2-4.2 0-1.8-.4-3.2-1.2-4.1-.8-.9-1.8-1.4-2.9-1.4-1.1 0-2.1.5-2.9 1.4-.8.9-1.2 2.2-1.2 4zM135 238.2l2.6.3c-.4 1.5-1.2 2.7-2.3 3.5-1.1.8-2.5 1.3-4.3 1.3-2.2 0-3.9-.7-5.2-2-1.3-1.3-1.9-3.2-1.9-5.6 0-2.5.6-4.4 1.9-5.8 1.3-1.4 3-2.1 5-2.1s3.6.7 4.9 2c1.3 1.4 1.9 3.3 1.9 5.7v.7h-11.1c.1 1.6.6 2.9 1.4 3.8.8.9 1.9 1.3 3.1 1.3.9 0 1.7-.2 2.4-.7.7-.5 1.2-1.3 1.6-2.4zm-8.3-4h8.3c-.1-1.2-.4-2.2-1-2.8-.8-1-1.8-1.5-3.1-1.5-1.2 0-2.1.4-2.9 1.2-.8.7-1.2 1.8-1.3 3.1zM149.1 225.4v-2.9h2.5v2.9h-2.5zm0 17.6v-14.9h2.5V243h-2.5zM155.7 243v-14.9h2.3v2.1c1.1-1.6 2.7-2.5 4.7-2.5.9 0 1.7.2 2.5.5s1.3.7 1.7 1.3c.4.5.6 1.1.8 1.9.1.5.1 1.3.1 2.4v9.1h-2.5v-9c0-1-.1-1.8-.3-2.3-.2-.5-.5-.9-1-1.2-.5-.3-1.1-.5-1.8-.5-1.1 0-2 .3-2.8 1-.8.7-1.2 2-1.2 3.9v8.1h-2.5zM180.4 243v-20.5h14.8v2.4h-12.1v6.3h11.4v2.4h-11.4v7h12.6v2.4h-15.3zM203.4 243l-5.7-14.9h2.7l3.2 8.9c.3 1 .7 2 1 3 .2-.8.5-1.7.9-2.8l3.3-9.1h2.6l-5.6 14.9h-2.4zM213.9 225.4v-2.9h2.5v2.9h-2.5zm0 17.6v-14.9h2.5V243h-2.5zM230.1 243v-1.9c-.9 1.5-2.3 2.2-4.2 2.2-1.2 0-2.3-.3-3.3-1s-1.8-1.6-2.3-2.7c-.5-1.2-.8-2.5-.8-4s.2-2.8.7-4c.5-1.2 1.2-2.1 2.2-2.8 1-.6 2.1-1 3.3-1 .9 0 1.7.2 2.4.6.7.4 1.3.9 1.7 1.5v-7.4h2.5V243h-2.2zm-8-7.4c0 1.9.4 3.3 1.2 4.3.8.9 1.7 1.4 2.8 1.4 1.1 0 2-.5 2.8-1.4.8-.9 1.2-2.3 1.2-4.1 0-2-.4-3.5-1.2-4.5-.8-1-1.7-1.4-2.9-1.4-1.1 0-2.1.5-2.8 1.4-.7.9-1.1 2.3-1.1 4.3zM246.7 238.2l2.6.3c-.4 1.5-1.2 2.7-2.3 3.5-1.1.8-2.5 1.3-4.3 1.3-2.2 0-3.9-.7-5.2-2-1.3-1.3-1.9-3.2-1.9-5.6 0-2.5.6-4.4 1.9-5.8 1.3-1.4 3-2.1 5-2.1s3.6.7 4.9 2c1.3 1.4 1.9 3.3 1.9 5.7v.7h-11.1c.1 1.6.6 2.9 1.4 3.8.8.9 1.9 1.3 3.1 1.3.9 0 1.7-.2 2.4-.7.7-.5 1.3-1.3 1.6-2.4zm-8.2-4h8.3c-.1-1.2-.4-2.2-1-2.8-.8-1-1.8-1.5-3.1-1.5-1.2 0-2.1.4-2.9 1.2-.8.7-1.2 1.8-1.3 3.1zM252.7 243v-14.9h2.3v2.1c1.1-1.6 2.7-2.5 4.7-2.5.9 0 1.7.2 2.5.5s1.3.7 1.7 1.3c.4.5.6 1.1.8 1.9.1.5.1 1.3.1 2.4v9.1h-2.5v-9c0-1-.1-1.8-.3-2.3-.2-.5-.5-.9-1-1.2-.5-.3-1.1-.5-1.8-.5-1.1 0-2 .3-2.8 1-.8.7-1.2 2-1.2 3.9v8.1h-2.5zM278.6 237.6l2.5.3c-.3 1.7-1 3-2.1 4s-2.5 1.4-4.1 1.4c-2 0-3.7-.7-4.9-2-1.2-1.3-1.9-3.2-1.9-5.7 0-1.6.3-3 .8-4.2.5-1.2 1.3-2.1 2.4-2.7 1.1-.6 2.3-.9 3.5-.9 1.6 0 2.9.4 4 1.2 1 .8 1.7 2 2 3.5l-2.4.4c-.2-1-.6-1.8-1.2-2.3-.6-.5-1.3-.8-2.1-.8-1.3 0-2.3.5-3.1 1.4-.8.9-1.2 2.3-1.2 4.3s.4 3.4 1.1 4.4c.8.9 1.8 1.4 3 1.4 1 0 1.8-.3 2.5-.9.6-.6 1-1.6 1.2-2.8zM293.6 238.2l2.6.3c-.4 1.5-1.2 2.7-2.3 3.5-1.1.8-2.5 1.3-4.3 1.3-2.2 0-3.9-.7-5.2-2-1.3-1.3-1.9-3.2-1.9-5.6 0-2.5.6-4.4 1.9-5.8 1.3-1.4 3-2.1 5-2.1s3.6.7 4.9 2c1.3 1.4 1.9 3.3 1.9 5.7v.7h-11.1c.1 1.6.6 2.9 1.4 3.8.8.9 1.9 1.3 3.1 1.3.9 0 1.7-.2 2.4-.7.7-.5 1.2-1.3 1.6-2.4zm-8.3-4h8.3c-.1-1.2-.4-2.2-1-2.8-.8-1-1.8-1.5-3.1-1.5-1.2 0-2.1.4-2.9 1.2-.8.7-1.2 1.8-1.3 3.1zM298.6 236.9v-2.5h7.7v2.5h-7.7zM311.6 243h-2.3v-20.5h2.5v7.3c1.1-1.3 2.4-2 4.1-2 .9 0 1.8.2 2.6.6.8.4 1.5.9 2 1.6.5.7.9 1.5 1.2 2.4.3.9.4 1.9.4 3 0 2.5-.6 4.5-1.9 5.9-1.3 1.4-2.8 2.1-4.5 2.1-1.8 0-3.1-.7-4.1-2.2v1.8zm0-7.5c0 1.8.2 3.1.7 3.9.8 1.3 1.9 1.9 3.2 1.9 1.1 0 2.1-.5 2.9-1.4.8-1 1.2-2.4 1.2-4.3s-.4-3.4-1.2-4.3c-.8-.9-1.7-1.4-2.8-1.4-1.1 0-2.1.5-2.9 1.4-.7 1-1.1 2.4-1.1 4.2zM335.1 241.2c-.9.8-1.8 1.4-2.7 1.7-.9.3-1.8.5-2.8.5-1.6 0-2.9-.4-3.8-1.2-.9-.8-1.3-1.8-1.3-3.1 0-.7.2-1.4.5-2 .3-.6.8-1.1 1.3-1.4.5-.4 1.1-.6 1.8-.8.5-.1 1.2-.3 2.2-.4 2-.2 3.5-.5 4.5-.9v-.7c0-1-.2-1.7-.7-2.2-.6-.6-1.6-.9-2.9-.9-1.2 0-2.1.2-2.6.6s-1 1.2-1.3 2.2l-2.5-.3c.2-1.1.6-1.9 1.1-2.6.5-.6 1.3-1.1 2.2-1.5 1-.3 2.1-.5 3.4-.5 1.3 0 2.3.2 3.1.4.8.3 1.4.7 1.7 1.1.4.5.6 1 .8 1.7.1.4.1 1.2.1 2.3v3.4c0 2.3.1 3.8.2 4.4.1.6.3 1.2.6 1.8h-2.6c0-.3-.2-.9-.3-1.6zm-.2-5.6c-.9.4-2.3.7-4.1 1-1 .2-1.8.3-2.2.5-.4.2-.8.5-1 .8-.2.4-.3.8-.3 1.2 0 .7.3 1.2.8 1.7.5.4 1.3.7 2.2.7 1 0 1.8-.2 2.6-.6.8-.4 1.3-1 1.7-1.7.3-.6.4-1.4.4-2.5v-1.1zM340.6 238.6l2.5-.4c.1 1 .5 1.8 1.2 2.3.6.5 1.5.8 2.7.8 1.2 0 2-.2 2.6-.7.6-.5.8-1 .8-1.7 0-.6-.2-1-.7-1.3-.3-.2-1.2-.5-2.6-.9-1.8-.5-3.1-.9-3.8-1.2-.7-.3-1.3-.8-1.6-1.4-.4-.6-.6-1.3-.6-2s.2-1.3.5-1.8c.3-.6.7-1 1.2-1.4.4-.3.9-.5 1.6-.7.7-.2 1.4-.3 2.2-.3 1.2 0 2.2.2 3.1.5.9.3 1.5.8 2 1.4.4.6.7 1.3.9 2.3l-2.5.3c-.1-.8-.4-1.4-1-1.8-.5-.4-1.3-.6-2.3-.6-1.2 0-2 .2-2.5.6-.5.4-.7.8-.7 1.3 0 .3.1.6.3.9.2.3.5.5 1 .7.3.1 1 .3 2.2.6 1.8.5 3 .9 3.7 1.2.7.3 1.3.7 1.7 1.3.4.6.6 1.3.6 2.2 0 .8-.2 1.6-.7 2.4-.5.7-1.2 1.3-2.1 1.7-.9.4-2 .6-3.1.6-1.9 0-3.4-.4-4.4-1.2-1.3-.9-1.9-2.1-2.2-3.7zM366.3 238.2l2.6.3c-.4 1.5-1.2 2.7-2.3 3.5-1.1.8-2.5 1.3-4.3 1.3-2.2 0-3.9-.7-5.2-2-1.3-1.3-1.9-3.2-1.9-5.6 0-2.5.6-4.4 1.9-5.8 1.3-1.4 3-2.1 5-2.1s3.6.7 4.9 2c1.3 1.4 1.9 3.3 1.9 5.7v.7h-11.1c.1 1.6.6 2.9 1.4 3.8.8.9 1.9 1.3 3.1 1.3.9 0 1.7-.2 2.4-.7.7-.5 1.2-1.3 1.6-2.4zm-8.3-4h8.3c-.1-1.2-.4-2.2-1-2.8-.8-1-1.8-1.5-3.1-1.5-1.2 0-2.1.4-2.9 1.2-.8.7-1.2 1.8-1.3 3.1zM381.9 243v-1.9c-.9 1.5-2.3 2.2-4.2 2.2-1.2 0-2.3-.3-3.3-1s-1.8-1.6-2.3-2.7c-.5-1.2-.8-2.5-.8-4s.2-2.8.7-4c.5-1.2 1.2-2.1 2.2-2.8 1-.6 2.1-1 3.3-1 .9 0 1.7.2 2.4.6.7.4 1.3.9 1.7 1.5v-7.4h2.5V243h-2.2zm-8-7.4c0 1.9.4 3.3 1.2 4.3.8.9 1.7 1.4 2.8 1.4 1.1 0 2-.5 2.8-1.4.8-.9 1.2-2.3 1.2-4.1 0-2-.4-3.5-1.2-4.5-.8-1-1.7-1.4-2.9-1.4-1.1 0-2.1.5-2.8 1.4-.7.9-1.1 2.3-1.1 4.3zM396.6 248.7v-20.6h2.3v1.9c.5-.8 1.2-1.3 1.8-1.7.7-.4 1.5-.6 2.5-.6 1.3 0 2.4.3 3.4 1s1.7 1.6 2.2 2.8c.5 1.2.7 2.5.7 3.9 0 1.5-.3 2.9-.8 4.1-.5 1.2-1.3 2.2-2.4 2.8-1 .6-2.1 1-3.3 1-.8 0-1.6-.2-2.3-.5-.7-.4-1.2-.8-1.6-1.3v7.2h-2.5zm2.3-13c0 1.9.4 3.3 1.2 4.2.8.9 1.7 1.4 2.8 1.4 1.1 0 2.1-.5 2.9-1.4.8-.9 1.2-2.4 1.2-4.4 0-1.9-.4-3.3-1.2-4.3-.8-.9-1.7-1.4-2.8-1.4-1.1 0-2 .5-2.8 1.5-.9 1-1.3 2.5-1.3 4.4zM422.4 241.2c-.9.8-1.8 1.4-2.7 1.7-.9.3-1.8.5-2.8.5-1.6 0-2.9-.4-3.8-1.2-.9-.8-1.3-1.8-1.3-3.1 0-.7.2-1.4.5-2 .3-.6.8-1.1 1.3-1.4.5-.4 1.1-.6 1.8-.8.5-.1 1.2-.3 2.2-.4 2-.2 3.5-.5 4.5-.9v-.7c0-1-.2-1.7-.7-2.2-.6-.6-1.6-.9-2.9-.9-1.2 0-2.1.2-2.6.6-.6.4-1 1.2-1.3 2.2l-2.5-.3c.2-1.1.6-1.9 1.1-2.6.5-.6 1.3-1.1 2.2-1.5 1-.3 2.1-.5 3.4-.5 1.3 0 2.3.2 3.1.4.8.3 1.4.7 1.8 1.1.4.5.6 1 .8 1.7.1.4.1 1.2.1 2.3v3.4c0 2.3.1 3.8.2 4.4.1.6.3 1.2.6 1.8h-2.6c-.1-.3-.3-.9-.4-1.6zm-.2-5.6c-.9.4-2.3.7-4.1 1-1 .2-1.8.3-2.2.5-.4.2-.8.5-1 .8-.2.4-.4.8-.4 1.2 0 .7.3 1.2.8 1.7.5.4 1.3.7 2.2.7 1 0 1.8-.2 2.6-.6.8-.4 1.3-1 1.7-1.7.3-.6.4-1.4.4-2.5v-1.1zM439 238.2l2.6.3c-.4 1.5-1.2 2.7-2.3 3.5-1.1.8-2.5 1.3-4.3 1.3-2.2 0-3.9-.7-5.2-2-1.3-1.3-1.9-3.2-1.9-5.6 0-2.5.6-4.4 1.9-5.8 1.3-1.4 3-2.1 5-2.1s3.6.7 4.9 2c1.3 1.4 1.9 3.3 1.9 5.7v.7h-11.1c.1 1.6.6 2.9 1.4 3.8.8.9 1.9 1.3 3.1 1.3.9 0 1.7-.2 2.4-.7.7-.5 1.3-1.3 1.6-2.4zm-8.2-4h8.3c-.1-1.2-.4-2.2-1-2.8-.8-1-1.8-1.5-3.1-1.5-1.2 0-2.1.4-2.9 1.2-.8.7-1.2 1.8-1.3 3.1zM454.7 243v-1.9c-.9 1.5-2.3 2.2-4.2 2.2-1.2 0-2.3-.3-3.3-1s-1.8-1.6-2.3-2.7c-.5-1.2-.8-2.5-.8-4s.2-2.8.7-4c.5-1.2 1.2-2.1 2.2-2.8 1-.6 2.1-1 3.3-1 .9 0 1.7.2 2.4.6.7.4 1.3.9 1.7 1.5v-7.4h2.5V243h-2.2zm-8-7.4c0 1.9.4 3.3 1.2 4.3.8.9 1.7 1.4 2.8 1.4 1.1 0 2-.5 2.8-1.4.8-.9 1.2-2.3 1.2-4.1 0-2-.4-3.5-1.2-4.5-.8-1-1.7-1.4-2.9-1.4-1.1 0-2.1.5-2.8 1.4-.7.9-1.1 2.3-1.1 4.3zM461.2 225.4v-2.9h2.5v2.9h-2.5zm0 17.6v-14.9h2.5V243h-2.5zM477.4 241.2c-.9.8-1.8 1.4-2.7 1.7-.9.3-1.8.5-2.8.5-1.6 0-2.9-.4-3.8-1.2-.9-.8-1.3-1.8-1.3-3.1 0-.7.2-1.4.5-2 .3-.6.8-1.1 1.3-1.4.5-.4 1.1-.6 1.8-.8.5-.1 1.2-.3 2.2-.4 2-.2 3.5-.5 4.5-.9v-.7c0-1-.2-1.7-.7-2.2-.6-.6-1.6-.9-2.9-.9-1.2 0-2.1.2-2.6.6s-1 1.2-1.3 2.2l-2.5-.3c.2-1.1.6-1.9 1.1-2.6.5-.6 1.3-1.1 2.2-1.5 1-.3 2.1-.5 3.4-.5 1.3 0 2.3.2 3.1.4.8.3 1.4.7 1.7 1.1.4.5.6 1 .8 1.7.1.4.1 1.2.1 2.3v3.4c0 2.3.1 3.8.2 4.4.1.6.3 1.2.6 1.8h-2.6c0-.3-.2-.9-.3-1.6zm-.2-5.6c-.9.4-2.3.7-4.1 1-1 .2-1.8.3-2.2.5-.4.2-.8.5-1 .8-.2.4-.3.8-.3 1.2 0 .7.3 1.2.8 1.7.5.4 1.3.7 2.2.7 1 0 1.8-.2 2.6-.6.8-.4 1.3-1 1.7-1.7.3-.6.4-1.4.4-2.5v-1.1zM489.4 240.8l.4 2.2c-.7.2-1.3.2-1.9.2-.9 0-1.6-.1-2.1-.4-.5-.3-.9-.7-1.1-1.1-.2-.5-.3-1.5-.3-3v-8.6h-1.8v-2h1.8v-3.7l2.5-1.5v5.2h2.5v2h-2.5v8.7c0 .7 0 1.2.1 1.4.1.2.2.4.4.5.2.1.5.2.9.2.3 0 .6-.1 1.1-.1zM492 243v-14.9h2.3v2.3c.6-1.1 1.1-1.7 1.6-2.1.5-.3 1-.5 1.6-.5.8 0 1.7.3 2.6.8l-.9 2.3c-.6-.4-1.2-.5-1.8-.5-.5 0-1 .2-1.5.5-.4.3-.8.8-.9 1.4-.3.9-.4 1.9-.4 2.9v7.8H492zM501.8 225.4v-2.9h2.5v2.9h-2.5zm0 17.6v-14.9h2.5V243h-2.5zM518.1 237.6l2.5.3c-.3 1.7-1 3-2.1 4s-2.5 1.4-4.1 1.4c-2 0-3.7-.7-4.9-2-1.2-1.3-1.9-3.2-1.9-5.7 0-1.6.3-3 .8-4.2.5-1.2 1.3-2.1 2.4-2.7 1.1-.6 2.3-.9 3.5-.9 1.6 0 2.9.4 4 1.2 1 .8 1.7 2 2 3.5l-2.5.4c-.2-1-.6-1.8-1.2-2.3-.6-.5-1.3-.8-2.1-.8-1.3 0-2.3.5-3.1 1.4-.8.9-1.2 2.3-1.2 4.3s.4 3.4 1.2 4.4c.8.9 1.8 1.4 3 1.4 1 0 1.8-.3 2.5-.9.6-.6 1-1.6 1.2-2.8zM.9 273l2.5-.4c.1 1 .5 1.8 1.2 2.3.6.5 1.5.8 2.7.8 1.2 0 2-.2 2.6-.7.6-.5.8-1 .8-1.7 0-.6-.2-1-.7-1.3-.3-.2-1.2-.5-2.6-.9-1.8-.5-3.1-.9-3.8-1.2-.7-.3-1.3-.8-1.6-1.4-.4-.6-.6-1.3-.6-2s.2-1.3.5-1.8c.3-.6.7-1 1.2-1.4.4-.3.9-.5 1.6-.7.7-.2 1.4-.3 2.2-.3 1.2 0 2.2.2 3.1.5.9.3 1.5.8 2 1.4.4.6.7 1.3.9 2.3l-2.5.3c-.1-.8-.4-1.4-1-1.8-.5-.4-1.3-.6-2.3-.6-1.2 0-2 .2-2.5.6-.5.4-.7.8-.7 1.3 0 .3.1.6.3.9.2.3.5.5 1 .7.3.1 1 .3 2.2.6 1.8.5 3 .9 3.7 1.2.7.3 1.3.7 1.7 1.3.4.6.6 1.3.6 2.2 0 .8-.2 1.6-.7 2.4-.5.7-1.2 1.3-2.1 1.7-.9.4-2 .6-3.1.6-1.9 0-3.4-.4-4.4-1.2-1.3-.9-1.9-2.1-2.2-3.7zM26.2 277.4v-2.2c-1.2 1.7-2.7 2.5-4.7 2.5-.9 0-1.7-.2-2.5-.5s-1.3-.8-1.7-1.3c-.4-.5-.6-1.1-.8-1.9-.1-.5-.2-1.3-.2-2.4v-9.2h2.5v8.2c0 1.3.1 2.2.2 2.7.2.7.5 1.2 1 1.6.5.4 1.1.6 1.9.6.8 0 1.5-.2 2.1-.6.7-.4 1.1-.9 1.4-1.6.3-.7.4-1.6.4-2.9v-8h2.5v14.9h-2.1zM32.5 277.4v-14.9h2.3v2.3c.6-1.1 1.1-1.8 1.6-2.1.5-.3 1-.5 1.6-.5.8 0 1.7.3 2.6.8l-.9 2.3c-.6-.4-1.2-.5-1.8-.5-.6 0-1 .2-1.5.5-.4.3-.8.8-.9 1.4-.3.9-.4 1.9-.4 2.9v7.8h-2.6zM41.9 278.7l2.4.4c.1.8.4 1.3.9 1.7.6.5 1.5.7 2.6.7 1.2 0 2.1-.2 2.7-.7.6-.5 1.1-1.1 1.3-2 .1-.5.2-1.6.2-3.2-1.1 1.3-2.5 1.9-4.1 1.9-2 0-3.6-.7-4.7-2.2-1.1-1.5-1.7-3.2-1.7-5.3 0-1.4.3-2.7.8-3.9.5-1.2 1.3-2.1 2.2-2.8 1-.7 2.1-1 3.4-1 1.8 0 3.2.7 4.3 2.1v-1.8h2.3v12.9c0 2.3-.2 4-.7 4.9-.5 1-1.2 1.7-2.2 2.3-1 .6-2.3.8-3.8.8-1.8 0-3.2-.4-4.3-1.2-1.2-.8-1.7-2-1.6-3.6zm2-9c0 1.9.4 3.4 1.2 4.3.8.9 1.7 1.3 2.9 1.3s2.1-.4 2.9-1.3c.8-.9 1.2-2.3 1.2-4.2 0-1.8-.4-3.2-1.2-4.1-.8-.9-1.8-1.4-2.9-1.4-1.1 0-2.1.5-2.9 1.4-.8.9-1.2 2.2-1.2 4zM58.5 259.8v-2.9H61v2.9h-2.5zm0 17.6v-14.9H61v14.9h-2.5zM74.7 272l2.5.3c-.3 1.7-1 3-2.1 4s-2.5 1.4-4.1 1.4c-2 0-3.7-.7-4.9-2-1.2-1.3-1.9-3.2-1.9-5.7 0-1.6.3-3 .8-4.2.5-1.2 1.3-2.1 2.4-2.7 1.1-.6 2.3-.9 3.5-.9 1.6 0 2.9.4 4 1.2 1 .8 1.7 2 2 3.5l-2.4.4c-.2-1-.6-1.7-1.2-2.3-.6-.5-1.3-.8-2.1-.8-1.3 0-2.3.5-3.1 1.4-.8.9-1.2 2.3-1.2 4.3s.4 3.4 1.1 4.4c.8.9 1.8 1.4 3 1.4 1 0 1.8-.3 2.5-.9.6-.6 1.1-1.6 1.2-2.8zM89.3 275.6c-.9.8-1.8 1.4-2.7 1.7-.9.3-1.8.5-2.8.5-1.6 0-2.9-.4-3.8-1.2-.9-.8-1.3-1.8-1.3-3.1 0-.7.2-1.4.5-2 .3-.6.8-1.1 1.3-1.4.5-.4 1.1-.6 1.8-.8.5-.1 1.2-.3 2.2-.4 2-.2 3.5-.5 4.5-.9v-.7c0-1-.2-1.8-.7-2.2-.6-.6-1.6-.9-2.9-.9-1.2 0-2.1.2-2.6.6-.6.4-1 1.2-1.3 2.2l-2.5-.3c.2-1.1.6-1.9 1.1-2.6s1.3-1.1 2.2-1.5c1-.3 2.1-.5 3.4-.5 1.3 0 2.3.2 3.1.4.8.3 1.4.7 1.7 1.1.4.5.6 1 .8 1.7.1.4.1 1.2.1 2.3v3.4c0 2.3.1 3.8.2 4.4.1.6.3 1.2.6 1.8h-2.6c-.1-.3-.3-.9-.3-1.6zm-.2-5.6c-.9.4-2.3.7-4.1 1-1 .1-1.8.3-2.2.5-.4.2-.8.5-1 .8-.2.4-.4.8-.4 1.2 0 .7.3 1.2.8 1.7.5.4 1.3.7 2.2.7 1 0 1.8-.2 2.6-.6.8-.4 1.3-1 1.7-1.7.3-.6.4-1.4.4-2.5V270zM95.7 277.4v-20.5h2.5v20.5h-2.5zM115.5 277.4v-18.1h-6.8v-2.4H125v2.4h-6.8v18.1h-2.7zM126.6 277.4v-14.9h2.3v2.3c.6-1.1 1.1-1.8 1.6-2.1.5-.3 1-.5 1.6-.5.8 0 1.7.3 2.6.8l-.9 2.3c-.6-.4-1.2-.5-1.8-.5-.6 0-1 .2-1.5.5-.4.3-.8.8-.9 1.4-.3.9-.4 1.9-.4 2.9v7.8h-2.6zM146.5 272.6l2.6.3c-.4 1.5-1.2 2.7-2.3 3.5-1.1.8-2.5 1.3-4.3 1.3-2.2 0-3.9-.7-5.2-2-1.3-1.3-1.9-3.2-1.9-5.6 0-2.5.6-4.4 1.9-5.8 1.3-1.4 3-2.1 5-2.1s3.6.7 4.9 2c1.3 1.4 1.9 3.3 1.9 5.7v.7H138c.1 1.6.6 2.9 1.4 3.8.8.9 1.9 1.3 3.1 1.3.9 0 1.7-.2 2.4-.7.7-.5 1.2-1.3 1.6-2.4zm-8.3-4h8.3c-.1-1.3-.4-2.2-1-2.8-.8-1-1.8-1.5-3.1-1.5-1.2 0-2.1.4-2.9 1.2-.7.7-1.2 1.8-1.3 3.1zM162.2 275.6c-.9.8-1.8 1.4-2.7 1.7-.9.3-1.8.5-2.8.5-1.6 0-2.9-.4-3.8-1.2-.9-.8-1.3-1.8-1.3-3.1 0-.7.2-1.4.5-2 .3-.6.8-1.1 1.3-1.4.5-.4 1.1-.6 1.8-.8.5-.1 1.2-.3 2.2-.4 2-.2 3.5-.5 4.5-.9v-.7c0-1-.2-1.8-.7-2.2-.6-.6-1.6-.9-2.9-.9-1.2 0-2.1.2-2.6.6-.6.4-1 1.2-1.3 2.2l-2.5-.3c.2-1.1.6-1.9 1.1-2.6.5-.6 1.3-1.1 2.2-1.5 1-.3 2.1-.5 3.4-.5 1.3 0 2.3.2 3.1.4.8.3 1.4.7 1.7 1.1.4.5.6 1 .8 1.7.1.4.1 1.2.1 2.3v3.4c0 2.3.1 3.8.2 4.4.1.6.3 1.2.6 1.8h-2.6c-.1-.3-.2-.9-.3-1.6zm-.2-5.6c-.9.4-2.3.7-4.1 1-1 .1-1.8.3-2.2.5-.4.2-.8.5-1 .8-.2.4-.4.8-.4 1.2 0 .7.3 1.2.8 1.7.5.4 1.3.7 2.2.7 1 0 1.8-.2 2.6-.6.8-.4 1.3-1 1.7-1.7.3-.6.4-1.4.4-2.5V270zM174.1 275.2l.4 2.2c-.7.2-1.3.2-1.9.2-.9 0-1.6-.1-2.1-.4-.5-.3-.9-.7-1.1-1.1-.2-.5-.3-1.5-.3-3v-8.6h-1.8v-2h1.8v-3.7l2.5-1.5v5.2h2.5v2h-2.5v8.7c0 .7 0 1.2.1 1.4.1.2.2.4.4.5.2.1.5.2.9.2.3 0 .7-.1 1.1-.1zM176.8 277.4v-14.9h2.3v2.1c.5-.7 1.1-1.3 1.9-1.8.8-.4 1.7-.7 2.6-.7 1.1 0 2 .2 2.7.7.7.5 1.2 1.1 1.5 1.9 1.2-1.7 2.7-2.6 4.6-2.6 1.5 0 2.6.4 3.4 1.2.8.8 1.2 2.1 1.2 3.8v10.2h-2.5v-9.4c0-1-.1-1.7-.2-2.2-.2-.4-.5-.8-.9-1.1-.4-.3-.9-.4-1.5-.4-1 0-1.9.3-2.6 1-.7.7-1 1.8-1 3.3v8.6h-2.5v-9.7c0-1.1-.2-2-.6-2.5-.4-.6-1.1-.8-2-.8-.7 0-1.4.2-2 .6-.6.4-1 .9-1.3 1.6-.3.7-.4 1.8-.4 3.1v7.7h-2.7zM211 272.6l2.6.3c-.4 1.5-1.2 2.7-2.3 3.5-1.1.8-2.5 1.3-4.3 1.3-2.2 0-3.9-.7-5.2-2-1.3-1.3-1.9-3.2-1.9-5.6 0-2.5.6-4.4 1.9-5.8 1.3-1.4 3-2.1 5-2.1s3.6.7 4.9 2c1.3 1.4 1.9 3.3 1.9 5.7v.7h-11.1c.1 1.6.6 2.9 1.4 3.8.8.9 1.9 1.3 3.1 1.3.9 0 1.7-.2 2.4-.7.7-.5 1.3-1.3 1.6-2.4zm-8.2-4h8.3c-.1-1.3-.4-2.2-1-2.8-.8-1-1.8-1.5-3.1-1.5-1.2 0-2.1.4-2.9 1.2-.8.7-1.2 1.8-1.3 3.1zM217 277.4v-14.9h2.3v2.1c1.1-1.6 2.7-2.4 4.7-2.4.9 0 1.7.2 2.5.5s1.3.7 1.7 1.3c.4.5.6 1.1.8 1.9.1.5.1 1.3.1 2.5v9.1h-2.5v-9c0-1-.1-1.8-.3-2.3-.2-.5-.5-.9-1-1.2-.5-.3-1.1-.5-1.8-.5-1.1 0-2 .3-2.8 1-.8.7-1.2 2-1.2 3.9v8.1H217zM238.7 275.2l.4 2.2c-.7.2-1.3.2-1.9.2-.9 0-1.6-.1-2.1-.4-.5-.3-.9-.7-1.1-1.1-.2-.5-.3-1.5-.3-3v-8.6h-1.8v-2h1.8v-3.7l2.5-1.5v5.2h2.5v2h-2.5v8.7c0 .7 0 1.2.1 1.4.1.2.2.4.4.5.2.1.5.2.9.2.2 0 .6-.1 1.1-.1zM248.9 270.8l2.6-.2c.1 1 .4 1.9.8 2.5.4.7 1.1 1.2 2.1 1.6.9.4 2 .6 3.1.6 1 0 2-.2 2.7-.5.8-.3 1.4-.7 1.8-1.3.4-.5.6-1.1.6-1.8 0-.6-.2-1.2-.6-1.7-.4-.5-1-.9-1.8-1.2-.6-.2-1.8-.5-3.7-1-1.9-.5-3.2-.9-4-1.3-1-.5-1.7-1.2-2.2-1.9-.5-.8-.7-1.6-.7-2.6s.3-2 .9-2.9c.6-.9 1.4-1.6 2.6-2 1.1-.5 2.4-.7 3.8-.7 1.5 0 2.9.2 4 .7 1.2.5 2.1 1.2 2.7 2.2.6 1 1 2 1 3.2l-2.6.2c-.1-1.3-.6-2.3-1.4-2.9-.8-.7-2-1-3.6-1s-2.8.3-3.6.9c-.8.6-1.1 1.3-1.1 2.2 0 .7.3 1.3.8 1.8s1.9 1 4.1 1.5c2.2.5 3.7.9 4.5 1.3 1.2.5 2.1 1.2 2.6 2.1s.9 1.8.9 2.9c0 1.1-.3 2.1-.9 3.1-.6 1-1.5 1.7-2.7 2.3-1.2.5-2.5.8-4 .8-1.9 0-3.4-.3-4.7-.8-1.3-.5-2.2-1.4-3-2.4-.6-1.1-1-2.3-1-3.7zM274.3 275.2l.4 2.2c-.7.2-1.3.2-1.9.2-.9 0-1.6-.1-2.1-.4-.5-.3-.9-.7-1.1-1.1-.2-.5-.3-1.5-.3-3v-8.6h-1.8v-2h1.8v-3.7l2.5-1.5v5.2h2.5v2h-2.5v8.7c0 .7 0 1.2.1 1.4.1.2.2.4.4.5.2.1.5.2.9.2.3 0 .7-.1 1.1-.1zM277 277.4v-14.9h2.3v2.3c.6-1.1 1.1-1.8 1.6-2.1.5-.3 1-.5 1.6-.5.8 0 1.7.3 2.6.8l-.9 2.3c-.6-.4-1.2-.5-1.8-.5-.6 0-1 .2-1.5.5-.4.3-.8.8-.9 1.4-.3.9-.4 1.9-.4 2.9v7.8H277zM296.4 275.6c-.9.8-1.8 1.4-2.7 1.7-.9.3-1.8.5-2.8.5-1.6 0-2.9-.4-3.8-1.2-.9-.8-1.3-1.8-1.3-3.1 0-.7.2-1.4.5-2 .3-.6.8-1.1 1.3-1.4.5-.4 1.1-.6 1.8-.8.5-.1 1.2-.3 2.2-.4 2-.2 3.5-.5 4.5-.9v-.7c0-1-.2-1.8-.7-2.2-.6-.6-1.6-.9-2.9-.9-1.2 0-2.1.2-2.6.6-.6.4-1 1.2-1.3 2.2l-2.5-.3c.2-1.1.6-1.9 1.1-2.6.5-.6 1.3-1.1 2.2-1.5 1-.3 2.1-.5 3.4-.5 1.3 0 2.3.2 3.1.4.8.3 1.4.7 1.7 1.1.4.5.6 1 .8 1.7.1.4.1 1.2.1 2.3v3.4c0 2.3.1 3.8.2 4.4.1.6.3 1.2.6 1.8h-2.6c0-.3-.2-.9-.3-1.6zm-.2-5.6c-.9.4-2.3.7-4.1 1-1 .1-1.8.3-2.2.5-.4.2-.8.5-1 .8-.2.4-.4.8-.4 1.2 0 .7.3 1.2.8 1.7.5.4 1.3.7 2.2.7 1 0 1.8-.2 2.6-.6.8-.4 1.3-1 1.7-1.7.3-.6.4-1.4.4-2.5V270zM308.4 275.2l.4 2.2c-.7.2-1.3.2-1.9.2-.9 0-1.6-.1-2.1-.4-.5-.3-.9-.7-1.1-1.1-.2-.5-.3-1.5-.3-3v-8.6h-1.8v-2h1.8v-3.7l2.5-1.5v5.2h2.5v2h-2.5v8.7c0 .7 0 1.2.1 1.4.1.2.2.4.4.5.2.1.5.2.9.2.3 0 .6-.1 1.1-.1zM321.2 272.6l2.6.3c-.4 1.5-1.2 2.7-2.3 3.5-1.1.8-2.5 1.3-4.3 1.3-2.2 0-3.9-.7-5.2-2-1.3-1.3-1.9-3.2-1.9-5.6 0-2.5.6-4.4 1.9-5.8 1.3-1.4 3-2.1 5-2.1s3.6.7 4.9 2c1.3 1.4 1.9 3.3 1.9 5.7v.7h-11.1c.1 1.6.6 2.9 1.4 3.8.8.9 1.9 1.3 3.1 1.3.9 0 1.7-.2 2.4-.7.7-.5 1.2-1.3 1.6-2.4zm-8.3-4h8.3c-.1-1.3-.4-2.2-1-2.8-.8-1-1.8-1.5-3.1-1.5-1.2 0-2.1.4-2.9 1.2-.7.7-1.2 1.8-1.3 3.1zM326.7 278.7l2.5.4c.1.8.4 1.3.9 1.7.6.5 1.5.7 2.6.7 1.2 0 2.1-.2 2.7-.7.6-.5 1.1-1.1 1.3-2 .1-.5.2-1.6.2-3.2-1.1 1.3-2.5 1.9-4.1 1.9-2 0-3.6-.7-4.7-2.2-1.1-1.5-1.7-3.2-1.7-5.3 0-1.4.3-2.7.8-3.9.5-1.2 1.3-2.1 2.2-2.8 1-.7 2.1-1 3.4-1 1.8 0 3.2.7 4.3 2.1v-1.8h2.3v12.9c0 2.3-.2 4-.7 4.9-.5 1-1.2 1.7-2.2 2.3-1 .6-2.3.8-3.8.8-1.8 0-3.2-.4-4.3-1.2-1.2-.8-1.7-2-1.7-3.6zm2.1-9c0 1.9.4 3.4 1.2 4.3.8.9 1.7 1.3 2.9 1.3s2.1-.4 2.9-1.3c.8-.9 1.2-2.3 1.2-4.2 0-1.8-.4-3.2-1.2-4.1-.8-.9-1.8-1.4-2.9-1.4-1.1 0-2.1.5-2.9 1.4-.8.9-1.2 2.2-1.2 4zM343.3 259.8v-2.9h2.5v2.9h-2.5zm0 17.6v-14.9h2.5v14.9h-2.5zM360.1 272.6l2.6.3c-.4 1.5-1.2 2.7-2.3 3.5-1.1.8-2.5 1.3-4.3 1.3-2.2 0-3.9-.7-5.2-2-1.3-1.3-1.9-3.2-1.9-5.6 0-2.5.6-4.4 1.9-5.8 1.3-1.4 3-2.1 5-2.1s3.6.7 4.9 2c1.3 1.4 1.9 3.3 1.9 5.7v.7h-11.1c.1 1.6.6 2.9 1.4 3.8.8.9 1.9 1.3 3.1 1.3.9 0 1.7-.2 2.4-.7.7-.5 1.2-1.3 1.6-2.4zm-8.3-4h8.3c-.1-1.3-.4-2.2-1-2.8-.8-1-1.8-1.5-3.1-1.5-1.2 0-2.1.4-2.9 1.2-.8.7-1.2 1.8-1.3 3.1zM365 273l2.5-.4c.1 1 .5 1.8 1.2 2.3.6.5 1.5.8 2.7.8 1.2 0 2-.2 2.6-.7.6-.5.8-1 .8-1.7 0-.6-.2-1-.7-1.3-.3-.2-1.2-.5-2.6-.9-1.8-.5-3.1-.9-3.8-1.2-.7-.3-1.3-.8-1.6-1.4-.4-.6-.6-1.3-.6-2s.2-1.3.5-1.8.7-1 1.2-1.4c.4-.3.9-.5 1.6-.7.7-.2 1.4-.3 2.2-.3 1.2 0 2.2.2 3.1.5.9.3 1.5.8 2 1.4.4.6.7 1.3.9 2.3l-2.5.3c-.1-.8-.4-1.4-1-1.8-.5-.4-1.3-.6-2.3-.6-1.2 0-2 .2-2.5.6-.5.4-.7.8-.7 1.3 0 .3.1.6.3.9.2.3.5.5 1 .7.3.1 1 .3 2.2.6 1.8.5 3 .9 3.7 1.2.7.3 1.3.7 1.7 1.3.4.6.6 1.3.6 2.2 0 .8-.2 1.6-.7 2.4-.5.7-1.2 1.3-2.1 1.7-.9.4-2 .6-3.1.6-1.9 0-3.4-.4-4.4-1.2-1.2-.9-1.9-2.1-2.2-3.7z"/></g><g id="Horizontal_Waves"><linearGradient id="SVGID_1_" gradientUnits="userSpaceOnUse" x1="28.029" y1="109.917" x2="687.999" y2="109.917"><stop offset=".15" stop-color="#fff"/><stop offset="1" stop-color="#f6d809"/></linearGradient><path d="M206.4 79c49 0 98.5 10.7 160.5 34.6 46.1 17.8 97.3 34.2 158.5 33.2 47.5-.8 98.4-11.8 160.4-34.6 2.7-1 2.3-3.6 2.2-4.1-.3-1.5-1.5-3.1-3.6-2.4-60.9 22.4-116 33.7-168.5 34.6-56.1 1-104-17-154.8-36-6.1-2.3-12.2-4.6-18.4-6.9C298.6 81.2 251.6 73 203 73c-56.5 0-114.6 11-172.7 32.8-2.7 1-2.3 3.7-2.2 4.2.2 1.2 1 2.6 2.4 2.6.4 0 .7-.1 1.2-.2C86.3 91.8 140 81 195.8 79.2c3.5-.1 7.1-.2 10.6-.2z" fill="url(#SVGID_1_)"/><g id="Hoizontal_Waves"><linearGradient id="SVGID_2_" gradientUnits="userSpaceOnUse" x1="25.423" y1="73.428" x2="685.393" y2="73.428"><stop offset=".15" stop-color="#fff"/><stop offset="1" stop-color="#00aeef"/></linearGradient><path d="M203.8 42.5c49 0 98.5 10.7 160.5 34.6 46.1 17.8 97.3 34.2 158.5 33.2 47.5-.8 98.4-11.8 160.4-34.6 2.7-1 2.3-3.6 2.2-4.1-.3-1.5-1.5-3.1-3.6-2.4-60.9 22.4-116 33.7-168.5 34.6-56.1 1-104-17-154.8-36-6.1-2.3-12.2-4.6-18.4-6.9C296 44.7 249 36.5 200.4 36.5c-56.5 0-114.6 11-172.7 32.8-2.7 1-2.3 3.7-2.2 4.2.2 1.2 1 2.6 2.4 2.6.4 0 .7-.1 1.2-.2 54.6-20.5 108.3-31.3 164.1-33.1 3.5-.2 7.1-.3 10.6-.3z" fill="url(#SVGID_2_)"/><linearGradient id="SVGID_3_" gradientUnits="userSpaceOnUse" x1="34.4" y1="162.687" x2="693.904" y2="162.687"><stop offset=".15" stop-color="#fff"/><stop offset="1" stop-color="#ed1c24"/></linearGradient><path d="M693.1 144.6c-.3-1.5-1.5-3.1-3.6-2.4-60.9 22.4-116 33.7-168.5 34.6-4.3.1-8.6 0-12.9-.1-1.5 1.3-3 2.6-4.6 3.8-.9.7-1.9 1.3-2.9 1.9 9.7.7 19.6 1.1 29.9.9 47.5-.8 98.4-11.8 160.4-34.6 2.7-1 2.3-3.6 2.2-4.1z" fill="url(#SVGID_3_)"/><linearGradient id="SVGID_4_" gradientUnits="userSpaceOnUse" x1="33.945" y1="134.903" x2="693.042" y2="134.903"><stop offset=".15" stop-color="#fff"/><stop offset="1" stop-color="#ed1c24"/></linearGradient><path d="M402.2 154c-11.9-4.2-23.9-8.7-36-13.2-6.1-2.3-12.2-4.6-18.4-6.9-44.1-16.3-91.1-24.5-139.7-24.5-56.5 0-114.6 11-172.7 32.8-2.7 1-2.3 3.7-2.2 4.2.2 1.2 1 2.6 2.4 2.6.4 0 .7-.1 1.2-.2 54.6-20.5 108.3-31.3 164.1-33.1 3.6-.1 7.1-.2 10.6-.2 49 0 98.5 10.7 160.5 34.6 9.1 3.5 18.3 6.9 27.8 10.2.4-2.3 1.2-4.4 2.4-6.3z" fill="url(#SVGID_4_)"/><g><linearGradient id="SVGID_5_" gradientUnits="userSpaceOnUse" x1="23.574" y1="53.217" x2="683.585" y2="53.217"><stop offset=".15" stop-color="#fff"/><stop offset="1" stop-color="#00a651"/></linearGradient><path d="M682.7 35.1c-.3-1.5-1.5-3.1-3.6-2.4C619.8 54.6 566 65.8 514.7 67.3c-.3 1.2-.8 2.3-1.5 3.4-.8 1.3-1.9 2.4-3.1 3.2 3.3 0 6.6.1 10 0 47.5-.9 98.4-11.9 160.4-34.6 2.6-1 2.3-3.7 2.2-4.2z" fill="url(#SVGID_5_)"/><linearGradient id="SVGID_6_" gradientUnits="userSpaceOnUse" x1="22.098" y1="20.764" x2="683.319" y2="20.764"><stop offset=".15" stop-color="#fff"/><stop offset="1" stop-color="#00a651"/></linearGradient><path d="M363.9 41.5c2.3-2.1 5.2-3.5 8.4-4-5.5-2-11-4.1-16.5-6.2-6.1-2.3-12.2-4.6-18.4-6.9C293.4 8.2 246.4 0 197.8 0 141.3 0 83.2 11 25.1 32.8c-2.7 1-2.3 3.7-2.2 4.2.2 1.2 1 2.6 2.4 2.6.4 0 .7-.1 1.2-.2C81.1 18.8 134.8 8 190.6 6.2c3.6-.1 7.1-.2 10.6-.2 49 0 98.5 10.7 160.5 34.6.7.4 1.4.6 2.2.9z" fill="url(#SVGID_6_)"/><linearGradient id="SVGID_7_" gradientUnits="userSpaceOnUse" x1="23.574" y1="51.322" x2="681.972" y2="51.322"><stop offset=".15" stop-color="#fff"/><stop offset="1" stop-color="#00a651"/></linearGradient><path d="M421 54c-11-3.2-21.9-6.8-32.8-10.7 2 2.4 3.4 5.3 3.9 8.5 7.9 2.7 16 5.2 24.2 7.6 1.4-1.9 3-3.7 4.7-5.4z" fill="url(#SVGID_7_)"/></g></g></g><g id="Vertical_Waves"><path class="st8" d="M656.2 176.7c12-28.4 5.2-57.1-2.1-85.7-6-23.4-4.6-44.2 1.8-67.4.9-3.4 6.2-1.9 5.3 1.5-3.8 13.8-6.3 27.3-6 41.7.3 15.3 6.5 31 9.8 46 5 22.8 5.2 45.1-4 66.8-1.5 3.1-6.2.3-4.8-2.9z"/><path class="st9" d="M621.4 181.9c12-28.4 5.2-57.1-2.1-85.7-6-23.4-4.6-44.2 1.8-67.4.9-3.4 6.2-1.9 5.3 1.5-3.8 13.8-6.3 27.3-6 41.7.3 15.3 6.5 31 9.8 46 5 22.8 5.2 45.1-4 66.8-1.4 3.1-6.1.3-4.8-2.9z"/><path class="st10" d="M586.7 189.7c12-28.4 5.2-57.1-2.1-85.7-6-23.4-4.6-44.2 1.8-67.4.9-3.4 6.2-1.9 5.3 1.5-3.8 13.8-6.3 27.3-6 41.7.3 15.3 6.5 31 9.8 46 5 22.8 5.2 45.1-4 66.8-1.5 3.1-6.2.3-4.8-2.9z"/><path class="st11" d="M551.9 194.9c12-28.4 5.2-57.1-2.1-85.7-6-23.4-4.6-44.2 1.8-67.4.9-3.4 6.2-1.9 5.3 1.5-3.8 13.8-6.3 27.3-6 41.7.3 15.3 6.5 31 9.8 46 5 22.8 5.2 45.1-4 66.8-1.4 3.1-6.1.3-4.8-2.9z"/></g><g id="NETS"><path class="st8" d="M11.8 169.4c6.5 0 11.8 5.3 11.8 11.8 0 6.5-5.3 11.8-11.8 11.8C5.3 193 0 187.7 0 181.2c0-6.5 5.3-11.8 11.8-11.8"/><path class="st12" d="M102.1 44.6c-6.4 0-11.6 5.4-11.6 11.6v88.6L21.1 48.7c-3.7-5.2-11-6.2-16.3-2.6-3.3 2.4-5 6.3-4.8 9.9v113c3.1-2.9 7.2-4.7 11.7-4.7 4.5 0 8.6 1.8 11.7 4.7V92l68.8 95.4c.2.4.6.9 1.1 1.3 2.1 2.6 5.4 4.3 8.8 4.3 6.4 0 11.8-5.4 11.8-11.8v-125c.1-6.2-5.3-11.6-11.8-11.6z"/><path class="st9" d="M239.6 169.1c6.6 0 11.9 5.3 11.9 11.9 0 6.6-5.3 11.9-11.9 11.9-6.6 0-11.9-5.4-11.9-11.9-.1-6.6 5.3-11.9 11.9-11.9"/><path class="st12" d="M222.4 181c0-4.6 1.9-8.8 4.9-11.9h-45.8v-39.5h50.1c6.4 0 11.8-5.4 11.8-12 0-6.2-5.4-11.8-11.8-11.8h-50.1V66.3h58.3c6.2 0 11.8-5.4 11.8-12 0-6.7-5.6-11.8-11.8-11.8h-70.4c-6.7 0-11.8 5.2-11.8 11.8v126.8c0 6.4 5.2 11.8 11.8 11.8l.2-.2s0 .2.4.2h57.2c-2.9-3-4.8-7.3-4.8-11.9z"/><g><path class="st11" d="M416.2 174.9c-6.6 0-11.9-5.4-11.9-12s5.4-11.9 11.9-11.9c6.6 0 11.9 5.4 11.9 11.9 0 6.6-5.3 12-11.9 12z"/><path class="st12" d="M516.9 128.9c-4.9-8-12.7-13.5-21.5-17.8-8.6-4.1-18.7-6.9-29.7-9h-.4c-11.6-2.2-21.3-5.6-26.9-9.5-2.8-1.9-4.7-3.9-5.8-5.6-1.1-1.7-1.5-3.4-1.5-6 0-4.5 2.4-9.2 8.2-13.5 5.8-4.3 14.4-7.3 24.1-7.3 13.1 0 23.6 6.4 34.6 13.8 5.2 3.4 12 1.9 15.3-3.2 3.4-4.9 1.9-11.8-3-15.3-11-7.1-26.2-17.2-46.9-17.2-14 0-27.1 4.1-37.2 11.4C416.3 57 409 68.2 409 81.1c0 6.5 1.7 12.5 4.9 17.6 4.7 7.5 11.8 12.9 20 16.8 8.2 3.9 17.6 6.4 27.7 8.4h.4c12.7 2.4 23.2 6 29.4 10.1 3.2 2.1 5.2 4.3 6.5 6.4 1.3 2.2 1.9 4.1 1.9 6.9 0 5.4-2.8 10.8-9.2 15.5-6.4 4.7-16.1 8-26.9 8-10.5.1-21.6-4.1-30.5-9.3.1.5.1 1.1.1 1.7 0 7.9-5.4 14.6-12.7 16.6 11.6 7 26.4 13.1 43.1 13.2 13.9 0 26.7-3.8 36.9-10.3 1-.6 2-1.3 2.9-1.9 1.6-1.2 3.1-2.4 4.6-3.8 8.3-7.6 13.9-17.9 13.9-29.6 0-6.9-1.9-13.4-5.1-18.5z"/></g><g><path class="st10" d="M375.2 42.5c6.6 0 11.9 5.4 11.9 11.9 0 6.6-5.3 12-11.9 12-6.6 0-11.9-5.4-11.9-12-.1-6.6 5.3-11.9 11.9-11.9"/><path class="st12" d="M358 54.4c0-4.6 1.9-8.9 4.9-11.9h-79.4c-6.7 0-11.8 5.2-11.8 11.8 0 6.5 5.2 12 11.8 12h34v114.8c0 6.7 5.4 11.8 11.8 11.8 6.7 0 11.8-5.2 11.8-11.8V66.3h21.8c-3-3.1-4.9-7.2-4.9-11.9z"/></g></g></svg>