<svg xmlns="http://www.w3.org/2000/svg" width="841.886" height="388.269" viewBox="0.445 1190.775 841.886 388.269"><path fill="#DD4814" d="M837.409 1291.188a136.348 136.348 0 0 1 4.314 49.171c-.609-2.966-1.288-5.928-2.099-8.886-20.059-72.774-95.296-115.517-168.069-95.462-56.287 15.5-94.584 64.03-99.783 118.884-14.383-69.912 27.76-139.951 97.572-159.177 72.769-20.047 148.019 22.69 168.065 95.47z"/><path fill="#EB9172" d="M835.414 1426.612a136.482 136.482 0 0 1-19.977 45.139c.893-2.893 1.733-5.814 2.448-8.792 17.595-73.406-27.642-147.186-101.041-164.777-56.777-13.615-113.741 10.382-144.797 55.897 21.175-68.169 91.904-109.135 162.318-92.25 73.407 17.603 118.654 91.371 101.049 164.783z"/><path fill="#F5C8B8" d="M762.408 1550.465a136.372 136.372 0 0 1-40.243 28.579c2.247-2.023 4.456-4.101 6.599-6.308 52.656-54.092 51.488-140.623-2.604-193.266-41.837-40.734-103.071-49.227-153.026-25.975 53.05-47.765 134.775-46.814 186.673 3.688 54.083 52.652 55.257 139.19 2.601 193.282z"/><path fill="#DD4814" d="M.445 1351.573h26.16c15 0 25.119.658 30.357 1.965 7.499 1.846 13.629 5.639 18.392 11.383 4.762 5.748 7.143 12.962 7.143 21.652 0 8.75-2.322 15.97-6.964 21.65-4.643 5.686-11.041 9.511-19.196 11.475-5.952 1.428-17.084 2.143-33.393 2.143H13.57v61.07H.445v-131.338zm13.125 12.857v44.555l22.232.268c8.986 0 15.565-.814 19.731-2.448 4.165-1.636 7.44-4.278 9.821-7.932 2.38-3.653 3.571-7.735 3.571-12.255 0-4.395-1.191-8.417-3.571-12.072-2.381-3.65-5.522-6.251-9.42-7.795-3.898-1.546-10.282-2.32-19.152-2.32H13.57zM106.693 1348.27h12.5v54.911c5.058-6.665 10.625-11.652 16.696-14.956 6.071-3.302 12.647-4.955 19.732-4.955 7.261 0 13.705 1.846 19.33 5.536 5.625 3.693 9.777 8.648 12.455 14.866 2.679 6.22 4.019 15.97 4.019 29.24v49.999h-12.5v-46.339c0-11.19-.446-18.66-1.34-22.409-1.549-6.431-4.361-11.263-8.438-14.51-4.077-3.244-9.418-4.865-16.026-4.865-7.56 0-14.33 2.5-20.312 7.499-5.982 5-9.925 11.193-11.83 18.571-1.191 4.764-1.786 13.571-1.786 26.428v35.625h-12.5V1348.27zM264.191 1383.27c14.966 0 27.368 5.417 37.208 16.25 8.943 9.882 13.416 21.578 13.416 35.088 0 13.571-4.728 25.434-14.177 35.581-9.451 10.148-21.602 15.222-36.447 15.222-14.908 0-27.087-5.073-36.537-15.222-9.452-10.147-14.177-22.01-14.177-35.581 0-13.449 4.471-25.118 13.416-34.998 9.84-10.894 22.272-16.34 37.298-16.34zm-.045 12.231c-10.394 0-19.325 3.839-26.791 11.519-7.467 7.679-11.2 16.964-11.2 27.857 0 7.022 1.702 13.571 5.107 19.642 3.404 6.071 8.003 10.759 13.799 14.063 5.793 3.304 12.154 4.955 19.084 4.955 6.928 0 13.29-1.651 19.085-4.955 5.793-3.304 10.392-7.991 13.797-14.063 3.404-6.07 5.108-12.619 5.108-19.642 0-10.894-3.748-20.179-11.246-27.857-7.494-7.68-16.41-11.519-26.743-11.519zM419.725 1450.68l10.537 5.536c-3.457 6.785-7.45 12.264-11.977 16.428-4.529 4.166-9.622 7.336-15.281 9.509-5.663 2.173-12.066 3.258-19.215 3.258-15.848 0-28.239-5.189-37.176-15.579-8.938-10.386-13.405-22.128-13.405-35.224 0-12.319 3.782-23.304 11.349-32.945 9.591-12.263 22.431-18.393 38.517-18.393 16.563 0 29.788 6.283 39.679 18.84 7.028 8.87 10.605 19.941 10.724 33.213h-87.41c.237 11.285 3.843 20.536 10.815 27.748 6.973 7.217 15.585 10.823 25.835 10.823 4.946 0 9.757-.858 14.437-2.58 4.678-1.716 8.654-4.003 11.934-6.847 3.275-2.845 6.822-7.441 10.637-13.787zm0-26.16c-1.671-6.665-4.098-11.994-7.287-15.982-3.189-3.986-7.405-7.2-12.648-9.643-5.247-2.439-10.759-3.661-16.538-3.661-9.536 0-17.732 3.069-24.584 9.197-5.005 4.464-8.791 11.159-11.353 20.089h72.41zM456.779 1385.769h12.499v17.412c5.001-6.665 10.536-11.652 16.607-14.956 6.071-3.302 12.679-4.955 19.821-4.955 7.262 0 13.705 1.846 19.329 5.536 5.626 3.693 9.778 8.66 12.455 14.91 2.679 6.251 4.019 15.982 4.019 29.196v49.999H529.01v-46.339c0-11.19-.467-18.66-1.395-22.409-1.449-6.431-4.226-11.263-8.334-14.51-4.106-3.244-9.463-4.865-16.07-4.865-7.56 0-14.336 2.5-20.316 7.499-5.983 5-9.928 11.193-11.831 18.571-1.19 4.821-1.786 13.631-1.786 26.428v35.625h-12.499v-97.142zM572.625 1345.771c2.843 0 5.273 1.015 7.286 3.036 2.014 2.023 3.026 4.464 3.026 7.32 0 2.8-1.013 5.211-3.026 7.233-2.013 2.023-4.443 3.034-7.286 3.034-2.788 0-5.188-1.011-7.202-3.034-2.015-2.022-3.021-4.434-3.021-7.233 0-2.856 1.007-5.297 3.021-7.32 2.014-2.022 4.414-3.036 7.202-3.036zm-6.205 39.998h12.499v97.143H566.42v-97.143zM593.834 1385.772h14.998l25.725 35.839 25.675-35.839h15.029l-33.146 46.135 84.405 115.768h-15.224l-76.762-105.609-29.266 40.848H590.35l36.763-51.006-33.279-46.136z"/></svg>