<svg xmlns="http://www.w3.org/2000/svg" width="830.603" height="283.465" viewBox="0 -35.432 830.603 283.465"><path fill="#328953" d="M236.598-33.749c-48.5 8.552-92.462 39.825-95.452 91.963-8.04 2.953-13.786 10.656-13.786 19.723 0 11.614 9.415 21.03 21.028 21.03s21.032-9.417 21.032-21.03c0-9.047-5.725-16.736-13.738-19.703.053-.064.116-.127.117-.194.449-24.047 9.822-45.619 26.356-62.981 8.207-8.617 18.303-15.23 28.917-20.467 3.057-1.509 6.253-2.758 9.466-3.912-5.822 2.119 5.277-1.147 8.071-1.551 7.018-1.01 14.139-1.004 21.201-.668 45.792 2.185 85.993 35.86 93.403 80.433 1.439-.603 3.883-1.163 3.766-2.799-.391-5.496 5.092-6.681 9.672-8.297-12.465-51.175-67.584-80.801-120.053-71.547zM62.292 114.781c31.929 0 45.771 15.37 46.412 35.755 1.162 32.181-33.332 50.142-59.954 32.671l-.021-1.765c-.117-.13 22.479 2.249 28.961-21.284.892-3.297 1.307-7.673 1.15-11.219-.523-15.911-9.086-26.291-24.021-26.291H42.37v109.166c.122 6.504 5.421 11.735 11.943 11.735h2.371l.028 1.866H0l.029-1.866H2.39c6.531 0 11.832-5.236 11.96-11.735V127.385c0-6.295-5.695-10.753-11.915-10.753H.094l-.029-1.854 62.227.003zM177.979 245.409h-56.692l.028-1.867h2.361c6.531 0 11.831-5.234 11.954-11.731V128.284c-.161-6.465-5.445-11.659-11.951-11.659h-2.359l-.031-1.864h56.687l-.028 1.864h-2.361c-6.49 0-11.768 5.173-11.95 11.618V231.81c.122 6.497 5.421 11.731 11.953 11.731h2.361l.028 1.868zM307.429 143.723l-1.883-.026v-2.195c.021-11.378-7.224-18.761-18.675-19.05h-25.069v109.506c.201 6.434 5.469 11.591 11.95 11.591h2.361l.028 1.864h-56.716l.028-1.864h2.361c6.428 0 11.663-5.074 11.944-11.434V122.452h-25.093c-11.449.291-18.696 7.673-18.672 19.05v2.195l-1.886.026v-32.525c3.445 1.451 14.089 3.298 22.12 3.393H285.3c8.028-.095 18.674-1.941 22.117-3.393l.012 32.525zM442.645 190.946l1.805 32.121c-8.361 13.813-24.26 24.966-52.441 24.966-45.826-.188-75.71-25.515-75.71-68.115 0-41.745 28.838-67.743 76.241-67.743 19.872 0 35.824 4.618 46.402 10.109l.367 32.019h-1.555c-6.802-24.502-22.824-34.259-43.345-34.271-29.604 0-47.69 22.801-47.69 59.463 0 36.946 17.497 59.934 45.285 60.68 28.717-.032 43.273-12.535 49.084-49.228h1.557zM549.236 245.409l.034-1.864h2.359c6.481 0 11.752-5.157 11.95-11.591v-47.638h-60.508v47.495c.123 6.5 5.42 11.734 11.951 11.734h2.364l.028 1.865H460.72l.029-1.865h2.364c6.531 0 11.831-5.234 11.95-11.734V128.364c-.158-6.466-5.442-11.735-11.95-11.735h-2.359l-.031-1.863h56.685l-.025 1.863h-2.362c-6.492 0-11.766 5.289-11.95 11.735v48.086h60.507v-48.086c-.244-6.392-5.494-11.738-11.95-11.738h-2.359l-.028-1.863h56.685l-.029 1.863h-2.359c-6.531 0-11.83 5.236-11.95 11.737v103.448c.12 6.498 5.417 11.732 11.95 11.732h2.359l.034 1.867h-56.692v-.001zM718.027 245.412H621.4l.031-1.864h2.359c6.533 0 11.833-5.234 11.958-11.734V127.769c-.428-6.222-5.597-11.14-11.933-11.14h-2.359l-.028-1.854h71.546c8.042-.073 18.803-1.934 22.276-3.394v32.627l-1.886-.027v-2.195c.023-11.228-7.036-18.565-18.229-19.033h-31.401v54.297h24.739c9.167-.176 15.857-6.906 15.826-15.994v-1.615l1.822-.025v43.128l-1.822-.023v-1.616c.025-9.013-6.55-15.701-15.589-15.984h-24.977v52.517h24.5c18.641 0 30.742-11.584 36.526-30.103h1.864l-8.596 38.077zM813.787 178.442c11.091 7.206 17.547 16.99 16.75 30.943-1.133 24.309-19.461 38.633-49.305 38.633-16.737 0-32.417-4.31-39.229-11.326-3.086-7.803-.461-23.541 4.422-31.68h1.643c-1.5 19.455 12.802 35.506 35.192 35.142 16.224-.294 25.794-9.289 25.786-20.98.008-7.567-4.888-12.617-14.919-19.273l-32.521-21.575c-12.841-8.523-19.221-19.888-17.859-33.488 1.586-19.322 15.745-32.673 39.286-32.673 6.006 0 16.891.835 25.417 1.914h11.721l-2.445 27.431h-1.799c-.029-12.955-10.523-21.479-26.308-21.479-14.695 0-23.974 7.928-24.424 17.948-.456 7.347 5.185 12.266 13.002 17.35l35.59 23.113z"/><path fill="#328953" d="M310.39 5.699c-1.126-1.276-2.686-1.98-4.083-2.234-2.439-.384-4.433.043-6.238.753-.315.124-.219-.15-.623-.395a27.359 27.359 0 0 0-2.371-1.211 32.556 32.556 0 0 0-4.088-1.517c-2.348-.672-3.804-.889-3.803-.892-.002.005-.613-.126-1.724-.264-1.099-.103-2.707-.365-4.876-.156-2.008.193-4.258.626-6.668 1.383-1.201.377-2.43.832-3.667 1.384-.617.28-1.239.575-1.859.903l-1.276.718c-.003.002-.007.005-.012.002l-.512-.194a11.96 11.96 0 0 0-3.274-.64c-2.217-.151-5.098.544-6.858 2.835a7.187 7.187 0 0 0-1.427 3.652c-.148 1.293.119 2.616.516 3.602.82 2.012 1.964 3.339 2.989 4.473l.458.469c.037.914.105 1.779.236 2.563.229 1.597.599 2.882.907 3.788 1.539 4.452 4.009 7.185 6.381 9.301 2.408 2.142 5.102 3.704 8.33 5.128a77.451 77.451 0 0 1-5.347-7.695c-1.548-2.526-3.15-5.035-4.272-8.419a16.313 16.313 0 0 1-.672-2.888c-.102-.606-.149-1.278-.177-2.001l-.01-.554-.005-.282-.001-.037v-.002l-.809-1.96-.001-.002-.006-.006-.014-.015-.056-.056-.113-.112-.863-.885c-.805-.865-1.567-1.875-1.915-2.767-.17-.458-.207-.75-.176-1.074.035-.401.167-.685.331-.917.314-.44 1.129-.811 2.312-.745.58.028 1.204.149 1.791.352.067-.016 1.153.505 1.854.895.788.794 1.465-.095 2.179-.512 1.346-.913 1.449-.91 2.043-1.246.504-.27 1.021-.515 1.535-.75a28.538 28.538 0 0 1 3.09-1.17c2.018-.638 3.966-1.015 5.542-1.164 1.42-.154 2.777.038 3.715.129.93.112 1.449.224 1.45.219 0 0 1.229.19 3.214.759.983.301 2.153.703 3.395 1.268.624.277 1.253.608 1.892.97.308.19.632.377.939.586l.459.319.06.041.028.021.006.004c1.783.118 1.601.104 2.891.188l.341-.172c1.172-.579 2.804-.905 3.832-.7 1.026.245 1.333.616 1.458 1.614.078.831-.59 2.184-1.691 3.409-.266.31-.563.614-.864.924l-.48.473-.06.06c-.332.45-.805 1.023-.818 1.844l-.001.009-.001.02-.003.041-.011.16-.02.315a21.514 21.514 0 0 1-.266 2.429c-.758 4.828-3.258 8.066-4.56 9.69-2.479 2.975-4.547 5.381-6.49 7.517-.996 1.078-2.013 2.179-3.063 3.233-1.085 1.017-2.167 2.177-3.851 2.712 1.795.337 3.545-.255 5.059-.788a28.653 28.653 0 0 0 4.318-2.086c2.825-1.701 5.36-3.875 8.186-7.198a29.358 29.358 0 0 0 3.052-4.434 24.083 24.083 0 0 0 2.679-7.755c.137-.82.242-1.667.304-2.527.01-.156.602-.66.972-1.088 1.404-1.66 3.097-3.953 3.006-7.23-.094-1.567-.634-3.128-1.775-4.415z"/><path fill="#328953" d="M302.886 97.824l-.056-.522c-.085-.689-.119-1.348-.289-2.019-.308-1.1-.779-2.542-2.723-4.1-.486-.387-1.095-.758-1.755-1.121l-1.857-.948c-.659-.334-1.249-.69-1.588-1.004.007-.016-.036-.19-.378-1.215-.384-1.009-.854-1.949-1.347-2.846-.986-1.781-2.074-3.425-2.894-5.052-.415-.814-.77-1.616-1.001-2.4-.23-.73-.394-1.634-.529-2.584-.266-1.862-.379-3.781-.451-5.629-.125-3.706-.131-7.157-.292-9.688l-.061-.965-.104-1.206c-.079-.959-.196-1.751-.281-2.406-.207-1.268-.336-1.947-.34-1.938-.003.038-.443-2.41-1.583-5.112-.277-.669-.599-1.474-1.032-1.705-.367-.793-1.162 1.677-1.139-.518-.045-.272-.063-.667-.135-.849l-.293-.26c-.103-.065-.195-.224-.308-.219l-.438.742c-.149.277-.292.441-.451.817l-.483 1.279c-.331.831-.646 1.805-.97 2.76a46.424 46.424 0 0 1-2.088 5.117c-.832 1.685-1.053 2.056-1.529 2.89-.112.195-.245.388-.361.583-.427.466-.854.93-1.287 1.392-2.017 2.154-4.169 4.319-7.009 7.099a127.07 127.07 0 0 1-6.139 5.513l-3.065 2.598c-.078.09-.239.143-.247.267l.001.381.004.771-.006 1.608-.067 1.167c-.11 1.586-.377 3.263-.494 5.228-.105 1.926-.026 4.348 1.248 6.648.625 1.123 1.508 2.091 2.412 2.819l.682.52.476.327.028.019c.039.016.057.049.002.039l-8.411.001c-1.368-.004-.944.008-1.021-.009l-1.064-1.539a119.74 119.74 0 0 1-3.077-4.682c-1.944-3.137-3.619-6.34-4.833-9.655-.164-.41-.291-.831-.438-1.247l-.253-.773-.389-1.289-.39-1.285c-.279-.277-.848-.265-1.258-.409l-2.223-.535a85.35 85.35 0 0 1-5.121-1.45c-3.363-1.062-6.617-2.296-9.766-3.582 0 0-1.869-.753-2.344-.973-.474-.22-.284-.526-.284-.526s-.021-.057 1.238-3.28c1.335-3.43.391-.832.391-.832.357-.902 1.031-2.548.831-2.135l-.21-.672c-.217-.62-.41-1.088-.715-1.699-.448-.912-1.108-1.865-1.845-2.772a9.695 9.695 0 0 1-.384-.422l-.73-.746-.504-.496-.777-.68-.52-.444c.098-.032-1.447 1.512-1.447 1.512-.042.037.004.46.001.671l.055 1.561.109 3.104.108 3.077.055 1.53s-.001.444-.009.481c0 0-.545 1.259-.805 1.777l-.377-.173-.404-.185c-.088-.005.039.25.051.373l.234.928c-.809 1.453-1.568 2.501-1.775 2.834l-1.714 2.421c-2.154 2.919-3.385 4.785-3.359 4.762l-5.543 8.625a39.154 39.154 0 0 1-1.86 2.522c-.338.419-.695.833-1.068 1.229l-.283.297-.07.076c.994 2.039-2.248-4.538 2.222 4.574h.022l.045-.004.183-.013c.246-.021.495-.049.719-.037.445-.028.957.085 1.173.124l.026.013a.1.1 0 0 1 .032.052c.006.018-.036.004-.052.008h-3.62l-8.499-.002-.667-8.863c-.3-3.949-.588-7.97-.716-12.014-.272-8.065.247-16.324 2.62-23.957 2.306-7.615 6.679-14.383 12.643-18.677 5.922-4.37 13.023-6.3 19.547-6.931a62.85 62.85 0 0 1 2.436-.189l1.593-.067 1.415-.027 2.555.021 3.89.162c4.421.065 7.76-.677 10.756-1.626 3.002-.975 5.68-2.238 8.881-3.762-7.103-.387-16.154.017-19.493.029l-3.882-.187-2.752-.03-1.534.027-1.731.073c-.877.053-1.765.119-2.666.205-7.14.694-15.25 2.821-22.213 7.948-7.016 5.043-12.073 13.002-14.603 21.434-2.625 8.453-3.136 17.354-2.855 25.724.134 4.197.43 8.288.732 12.256l.45 5.861.209 2.859.184 2.745.093 1.402.045.699c.04.081-.056.309.095.272h.35l13.114-.002h2.552c.481-.014.701.031 1.389-.033l2.062-.195 4.036-.383c1.132-.243 3.412.222 2.141-1.442-.957-2.304-1.658-4.566-3.526-6.465-.676-.676-1.528-1.201-2.438-1.615.257-.358.513-.716.748-1.059V88.3l5.586-8.699c.013-.033 1.036-1.595 3.227-4.566l.9-1.271.596 2.521 1.293 5.513c1.302 5.452 3.145 9.995 4.453 12.134a20.633 20.633 0 0 0 1.853 2.721l.507.6.714.762.893.897c.156.125.271.341.458.383l.621-.017c1.965-.042 2.341-.123 3.231-.207l2.337-.299c3.059-.451 5.949-1.111 9.391-1.969-3.443-.855-6.332-1.517-9.391-1.968l-2.337-.298c-.706-.087-1.971-.162-1.702-.22-.032-.02-.032-.094-.032-.119l.004-.022-.176-.228-.345-.483c-.46-.66-.915-1.383-1.362-2.182-1.021-1.707-2.625-5.564-3.878-10.801l-1.272-5.4-.085-.366-.006-.016-.015-.037c-.009-.023.019-.001.014-.008l.024.016.022.013-.002.001.467.182 1.028.387c2.833 1.057 6.301 2.12 8.721 2.809 1.263.365 1.646.47 1.743.496-.022-.006-.044-.008.009.013.001.006.001.009.002-.005 0 .095-.04.434-.073.623-.063.444-.154.845-.247 1.192-.424 1.69-1.181 3.394-1.533 5.5-.373 2.168.079 4.547 1.502 6.245 1.463 1.688 3.195 2.171 4.633 2.646 1.47.469 2.932.855 4.289 2.03-1.344-3.392-5.186-5.011-5.661-6.877-.287-.853-.284-1.862.098-3 .317-1.057.979-2.444 1.565-4.251 1.212 2.792 2.673 5.478 4.26 8.038a126.01 126.01 0 0 0 3.216 4.895l2.203 3.177.404.582c.049.132.152.16.285.137h3.646l5.723.001c.993-.016 1.809.034 2.942-.035l4.21-.51 4.189-.507 2.085-.251.521-.065c.135.016.108-.056.046-.143l-.119-.23-.446-.866c-.585-1.086-.927-1.945-1.659-2.886-.706-.919-1.845-1.929-3.434-2.868l-2.356-1.387-.664-.435-.406-.31c-.51-.412-.854-.818-1.11-1.267-.504-.877-.666-2.169-.569-3.721.085-1.542.355-3.298.485-5.115.086-1.469.096-1.826.092-1.889l.417-.355c.233.625.486 1.213.754 1.755 1.035 2.134 2.12 3.625 2.82 4.589 2.629 3.495 4.985 5.612 6.972 7.735 1.041 1.095 2.104 2.206 3.311 3.281 1.212 1.049 2.572 2.166 4.263 2.779-1.185-1.316-1.794-2.762-2.441-4.137-.623-1.391-1.195-2.764-1.908-4.178-1.464-2.939-3.58-5.525-5.865-8.645-.608-.853-1.505-2.119-2.292-3.758a15.116 15.116 0 0 1-.73-1.831l1.161-1.065c2.503-2.337 5.242-5.197 7.627-8.398a50.637 50.637 0 0 0 3.279-4.959 52.904 52.904 0 0 0 1.051-1.913l.032-.069c.029-.163.056.031.052.001l.072 1.15c.147 2.352.146 5.69.27 9.578.073 1.944.188 4.029.493 6.193.153 1.061.337 2.188.714 3.414.354 1.182.837 2.256 1.344 3.252 1.016 2 2.141 3.69 2.982 5.223.417.759.767 1.472 1.015 2.119.101.326.181.491.397 1.362l.137.521c.1.166.253.323.375.482.268.31.518.618.849.917 1.04.939 2.009 1.432 2.812 1.853l.276.14.015.004.054.032c.055.046.172.111.13.228-.018.059-.079.133-.213.22l-2.292.298c-3.059.451-5.948 1.111-9.391 1.968 3.442.858 6.332 1.518 9.391 1.969.774.108 1.519.223 2.36.289a76.734 76.734 0 0 0 3.544-.309l3.953-.494 1.053-.15.268-.038c.022-.062-.015-.169-.015-.249z"/><g fill="#328953"><path d="M278.244 31.897c.078.944-.208 2.004 0 3.027.849 4.105 8.368 4.12 10.728 1.789 1.108-1.099.892-2.535.959-4.402.047-1.319.551-2.663.551-3.985 0-2.479-.801-4.628-1.375-6.878.979 2.749-.024 8.177-.135 10.863-.036.826.235 1.598.135 2.202-.337 2.079-2.403 2.011-4.67 1.648-.37-.138-.147-.866-.416-1.101.012.468.045.96-.276 1.101-.868.276-2.211.076-3.3.138-1.64-.638-1.046-2.598-1.237-4.676-.278-3.055-.928-7.315-.139-10.176-1.473 3.583-1.109 6.883-.825 10.45zM266.282 10.858c-.108.034-.159.121-.139.277.715 2.037 2.528 2.974 2.752 5.5 2.192-2.196-.007-5.734-2.613-5.777zM300.932 16.637c-.24-2.457 2.071-3.508 2.613-5.634-2.571-.604-5.217 3.721-2.613 5.634zM273.845 17.873c.118 2.285 3.376 1.813 3.851.137-.735-1.029-3.154-1.682-3.851-.137zM294.332 17.873c-.282-1.601-3.217-.883-3.851.137.495 1.975 4.204 1.877 3.851-.137z"/><path d="M280.032 30.932c-.463 5.055 9.202 4.772 8.113-.409-.369-1.751-2.733-2.177-4.814-1.927-2.153.256-3.189 1.143-3.299 2.336z"/></g><g fill="#8CBB94"><path d="M357.714 61.711a51.68 51.68 0 0 1-3.473-5.003c-1.005-1.643-2.045-3.276-2.775-5.475a10.85 10.85 0 0 1-.438-1.877 10.627 10.627 0 0 1-.116-1.301l-.007-.359-.004-.187-.002-.022v-.003l-.527-1.273-.004-.004-.008-.009-.037-.036-.074-.072-.561-.576c-.524-.561-1.02-1.219-1.244-1.795-.111-.298-.135-.484-.113-.699.023-.262.107-.444.215-.595.205-.286.732-.527 1.502-.483.377.017.783.098 1.164.228.041-.011.75.328 1.203.583.512.519.951-.061 1.416-.332.875-.594.942-.592 1.328-.811.329-.173.665-.333.998-.487.672-.3 1.351-.554 2.01-.759a17.977 17.977 0 0 1 3.606-.763c1.882-.13 3.405.255 3.353.223 0 0 .799.123 2.086.494.641.194 1.398.457 2.205.824.407.181.816.395 1.232.63l.61.383.3.206.039.027.02.013.004.002c.838.056-1.869-.12 1.881.125l.008-.002.07-.035.142-.072c.761-.376 1.825-.596 2.481-.452.666.147.881.413.956 1.043.051.54-.387 1.424-1.102 2.223-.179.209-.329.367-.647.691-.52.417-.73.941-.75 1.405-.146 1.151-.143 1.424-.244 1.982-.488 3.137-2.114 5.239-2.961 6.295-1.613 1.934-2.957 3.5-4.219 4.887a72.422 72.422 0 0 1-1.993 2.102c-.707.662-1.409 1.413-2.503 1.76 1.167.22 2.305-.166 3.287-.51a18.537 18.537 0 0 0 2.808-1.355c1.836-1.107 3.481-2.521 5.32-4.68.956-1.148 3.099-3.917 3.726-7.923.098-.57.193-1.495.185-1.521.01-.154.013-.159.014-.147l.634-.684c.908-1.081 2.006-2.566 1.953-4.695-.057-1.023-.41-2.035-1.152-2.868-.73-.824-1.742-1.285-2.648-1.445-1.585-.262-2.877.018-4.047.478l-.415-.256a18.351 18.351 0 0 0-1.542-.788 21.328 21.328 0 0 0-2.657-.987c-1.526-.438-2.474-.578-2.474-.581-.046.047-1.49-.431-4.293-.267a21.473 21.473 0 0 0-4.329.901c-.78.246-1.579.54-2.383.899-.399.181-.806.371-1.208.585l-.829.466-.007.001-.335-.129a7.835 7.835 0 0 0-2.128-.413c-1.439-.099-3.312.352-4.457 1.841a4.678 4.678 0 0 0-.928 2.373c-.097.838.076 1.701.333 2.341.532 1.309 1.277 2.17 1.944 2.907l.295.28a14 14 0 0 0 .156 1.691c.15 1.035.39 1.87.59 2.459 1 2.893 2.604 4.668 4.143 6.047 1.572 1.4 3.324 2.4 5.417 3.336z"/><path d="M358.622 56.997c.048.613-.137 1.302 0 1.966.552 2.667 5.438 2.677 6.974 1.162.72-.708.58-1.646.623-2.858.03-.859.359-1.73.359-2.592 0-1.611-.522-3.009-.896-4.469.635 1.787-.013 5.313-.086 7.061-.023.534.153 1.035.086 1.43-.222 1.352-1.56 1.309-3.035 1.074-.24-.091-.096-.563-.27-.715.004.302.028.624-.178.715-.567.177-1.441.048-2.145.085-1.066-.412-.685-1.688-.806-3.034-.183-1.988-.603-4.758-.089-6.616-.958 2.326-.718 4.47-.537 6.791zM350.849 43.321c-.072.021-.105.077-.092.182.469 1.324 1.645 1.934 1.789 3.574 1.429-1.428-.004-3.729-1.697-3.756zM373.369 47.077c-.156-1.595 1.348-2.28 1.7-3.667-1.669-.388-3.393 2.423-1.7 3.667zM355.765 47.88c.076 1.484 2.194 1.18 2.502.09-.477-.67-2.052-1.091-2.502-.09zM369.082 47.88c-.183-1.04-2.093-.577-2.502.09.319 1.283 2.731 1.219 2.502-.09z"/><path d="M359.786 56.37c-.302 3.285 5.983 3.103 5.273-.264-.237-1.14-1.774-1.416-3.126-1.254-1.402.164-2.074.741-2.147 1.518zM374.672 99.867l-.049-.344c-.075-.463-.118-.892-.228-1.326-.188-.712-.488-1.657-1.77-2.664-.29-.258-.722-.487-1.13-.731l-1.2-.616c-.422-.211-.833-.469-1.022-.646-.034-.033.058.124-.255-.797a14.716 14.716 0 0 0-.875-1.85c-.641-1.159-1.348-2.227-1.879-3.284-.575-1.106-.818-1.954-.994-3.241-.173-1.209-.244-2.459-.293-3.66-.084-2.405-.087-4.654-.193-6.295-.077-.995-.152-2.098-.313-2.951-.131-.823-.193-1.293-.205-1.275-.02.066-.285-1.557-1.025-3.315l-.309-.602-.166-.322c-.029-.051-.056-.117-.086-.157l-.111.055c-.277.053-.703.622-.803-.168l-.266-.776c-.048-.109-.082-.316-.144-.349l-.294.637c-.396.897-.807 1.631-1.232 2.934l-.646 1.806-.692 1.499c-.56 1.231-.712 1.407-1.013 1.967-.094.16-.215.314-.312.473-1.53 1.691-3.143 3.248-5.314 5.423a77.632 77.632 0 0 1-2.876 2.627l-2.264 1.935-.586.493c-.154.188-.511.28-.416.585.002.245.023 1.745-.047 2.37-.073 1.602-.566 3.373-.202 5.729.202 1.154.8 2.448 1.712 3.311.422.418.951.827 1.324 1.06l.009.002c.013.004.039.03.009.023l-2.645.001h-3.5l-.264-.381c-2.196-3.151-4.193-6.295-5.458-9.645-.166-.416-.308-.837-.45-1.256l-.642-2.098-2.487-.604-1.302-.353a64.474 64.474 0 0 1-5.052-1.658l-2.602-1.009-.621-.251c-.004-.003-.015-.004-.012-.008.001.002.008-.026.003.001.178-.489.287-1.196.316-1.67.096-.887.065-2.197-.231-3.182v-.001c-.576-2.025-3.346-5.013-3.346-5.013-1.138.448-1.673 1.484-2.344 2.581l.008.01.019.021.475.59c.153.228.283.459.386.695.2.469.297.954.312 1.459.012 1.078-.322 2.172-.779 3.206l-.207-.094c-.065-.012.022.163.027.238l.037.146c-.396.84-.854 1.642-1.279 2.34l-3.588 5.375c-.012-.026-1.146 1.873-3.088 4.82h-.001c-.348.506-2.073 2.62-2.073 2.62l-.044.047-.023.025a1749.47 1749.47 0 0 0 1.499 3.055h-.521l-5.998-.001c-.01.002-.008-.005-.01-.014l-.096-1.351-.29-3.8c-.195-2.56-.392-5.172-.492-7.806-.221-5.25.068-10.634 1.529-15.652 1.417-5.006 4.178-9.509 8.025-12.403 3.822-2.934 8.456-4.267 12.727-4.726l2.853-.192c.322-.008 2.63-.015 2.63-.015l2.571.103c5.768-.029 8.615-1.595 12.765-3.501-4.617-.25-7.701.06-12.671.02l-4.392-.138c-.328-.008-2.386.087-2.386.087l-1.748.147c-4.682.5-9.99 1.979-14.488 5.428-4.526 3.402-7.704 8.681-9.256 14.206-1.613 5.541-1.892 11.337-1.664 16.77.103 2.723.305 5.373.502 7.943l.289 3.788.164 2.36s.117 2.15.176 2.249h1.355l7.899-.001 1.635-.001c.184.02.781-.057 1.183-.09l1.316-.126 2.573-.244.629-.061c.188-.031.532.03.331-.237l-.455-1.13c-.566-1.433-1.145-2.912-2.463-4.013-.328-.295-.753-.529-1.185-.716.153-.216.34-.452.479-.657h.002c2.086-3.168 3.109-4.902 3.139-4.901 0 0 1.929-2.917 3.122-4.728l.442 1.826.84 3.578c.838 3.545 2.055 6.495 2.896 7.886.378.64.767 1.237 1.21 1.766.252.32.332.414.773.865l.584.609c.104.083.174.237.302.256l.405-.016c1.281-.038 1.528-.084 2.105-.142l1.52-.195c1.99-.293 3.867-.723 6.105-1.279-2.237-.556-4.115-.984-6.105-1.279l-1.52-.194c-.459-.056-1.277-.104-1.104-.143-.025-.017-.006-.046-.002-.058.041.035-.255-.328-.354-.5-.307-.417-.59-.899-.888-1.414-.659-1.113-1.712-3.61-2.522-7.021l-.827-3.502c-.084-.355-.059-.236-.071-.279-.006-.017.012-.002.008-.005l.016.009.015.009-.013-.005.313.12.668.254c1.84.688 4.094 1.378 5.667 1.826l.966.276.176.05.002.008v-.004c.002.06-.025.281-.047.405-.042.288-.1.548-.16.775-.275 1.099-.766 2.207-.995 3.575-.235 1.409.05 2.959.979 4.056 2.038 2.126 4.031 1.477 5.797 3.045-.877-2.205-3.373-3.258-3.674-4.474-.194-.549-.184-1.213.058-1.948.208-.695.646-1.61 1.03-2.81 1.409 3.256 3.322 6.276 5.284 9.092.179.176.837 1.397 1.447 1.896h5.203c1.026-.02 1.791.047 3.023-.047l4.316-.496 2.143-.246s.594-.143.553-.22l-.613-1.087c-.559-1.01-.998-1.88-2.444-2.895-.718-.494-1.555-.944-2.346-1.436-.415-.255-.604-.431-.84-.65-.425-.414-.613-.856-.747-1.466-.237-1.236.116-3 .25-4.832l.043-.695.017-.541v-.002l.005-.007.269-.23c.152.406.315.791.491 1.142.673 1.388 1.377 2.358 1.832 2.984 1.707 2.272 3.242 3.649 4.533 5.027 1.361 1.366 2.73 3.034 4.92 3.941-1.451-1.766-1.854-3.593-2.826-5.405-.954-1.911-2.328-3.587-3.813-5.618-.395-.556-.978-1.377-1.488-2.444a9.314 9.314 0 0 1-.486-1.19c-.064-.195.766-.691.766-.691 1.625-1.521 3.407-3.377 4.954-5.458 1.209-1.509 2.654-4.134 2.86-4.537.005.018.009.042.008.031l.049.744c.096 1.531.095 3.696.179 6.225.05 1.266.12 2.616.319 4.025.147 1.337.648 3.109 1.333 4.332.66 1.299 1.392 2.398 1.938 3.396.271.492.497.956.658 1.376.101.152.231 1.495 1.13 2.11.698.642 1.312.944 1.839 1.226l.194.095.033.021c.035.029.112.072.084.147-.012.039-.052.086-.139.144l-1.491.194c-1.99.294-3.869.723-6.105 1.279 2.236.556 4.115.985 6.105 1.278.501.072.987.145 1.531.189a50.693 50.693 0 0 0 2.318-.195l2.588-.313.689-.094.176-.025c.025-.041-.001-.111-.004-.164z"/></g></svg>