<svg xmlns="http://www.w3.org/2000/svg" width="605.885" height="283.465" viewBox="0 0 605.885 283.465"><g fill="#36499B"><path d="M307.876 134.868c0 1.203-.31 2.287-.931 3.246-.62.961-1.528 1.712-2.723 2.255-1.196.543-2.613.815-4.252.815-1.965 0-3.587-.371-4.864-1.114a6.491 6.491 0 0 1-2.208-2.139c-.566-.892-.848-1.759-.848-2.601 0-.489.169-.909.51-1.257.338-.348.772-.524 1.297-.524.426 0 .785.136 1.079.408.295.272.546.674.755 1.21.253.632.527 1.163.821 1.588.295.427.709.778 1.244 1.055.535.274 1.236.413 2.106.413 1.196 0 2.166-.277 2.915-.835.746-.556 1.12-1.252 1.12-2.085 0-.662-.201-1.198-.604-1.611-.404-.413-.924-.726-1.564-.944-.637-.217-1.492-.45-2.56-.694-1.431-.333-2.629-.726-3.593-1.173-.966-.45-1.73-1.06-2.297-1.835-.566-.773-.848-1.737-.848-2.888 0-1.094.299-2.07.897-2.92.598-.852 1.462-1.507 2.595-1.964s2.464-.687 3.994-.687c1.223 0 2.28.153 3.172.457.893.301 1.633.706 2.222 1.208.589.504 1.019 1.03 1.291 1.583.272.551.408 1.092.408 1.615 0 .482-.17.914-.509 1.299a1.632 1.632 0 0 1-1.271.576c-.462 0-.813-.114-1.053-.346-.24-.23-.5-.61-.781-1.134-.362-.753-.797-1.339-1.304-1.759-.508-.422-1.323-.632-2.445-.632-1.041 0-1.882.227-2.52.687-.64.457-.958 1.005-.958 1.65 0 .398.109.741.326 1.033.217.289.516.538.897.746.38.21.766.373 1.155.489.389.119 1.033.291 1.929.516a30.79 30.79 0 0 1 3.049.869c.911.319 1.685.702 2.324 1.156a4.75 4.75 0 0 1 1.494 1.719c.354.694.533 1.544.533 2.549zM320.758 139.092v-.474a8.299 8.299 0 0 1-1.401 1.413 5.21 5.21 0 0 1-1.603.85c-.578.185-1.24.277-1.984.277-.895 0-1.699-.185-2.411-.556-.71-.373-1.261-.884-1.65-1.536-.462-.788-.693-1.919-.693-3.396v-7.349c0-.744.168-1.297.503-1.665.335-.366.779-.551 1.331-.551.562 0 1.014.185 1.359.558.345.371.516.924.516 1.657v5.936c0 .862.073 1.583.217 2.169.143.583.405 1.04.781 1.371s.884.497 1.529.497a3.1 3.1 0 0 0 1.766-.558 3.246 3.246 0 0 0 1.208-1.452c.21-.526.314-1.677.314-3.451v-4.51c0-.734.17-1.287.516-1.657.343-.373.793-.558 1.344-.558.553 0 .998.185 1.331.551.336.368.504.921.504 1.665v10.745c0 .706-.161 1.238-.482 1.591-.324.353-.736.529-1.245.529-.506 0-.926-.183-1.255-.548-.33-.372-.495-.886-.495-1.548zM331.436 128.184v.447c.699-.86 1.423-1.492 2.174-1.895.753-.403 1.603-.605 2.554-.605 1.141 0 2.193.294 3.154.884.958.588 1.717 1.448 2.275 2.581.556 1.131.835 2.473.835 4.021 0 1.141-.161 2.189-.482 3.145-.321.956-.763 1.756-1.324 2.406a5.814 5.814 0 0 1-1.991 1.494 5.893 5.893 0 0 1-2.468.521c-1.06 0-1.949-.212-2.668-.637-.721-.427-1.408-1.052-2.06-1.875v5.57c0 1.63-.593 2.445-1.779 2.445-.699 0-1.161-.21-1.386-.632-.227-.42-.341-1.035-.341-1.84V128.21c0-.706.156-1.235.462-1.583.309-.348.729-.524 1.265-.524.524 0 .953.18 1.284.538.331.357.496.871.496 1.543zm7.27 5.392c0-.978-.151-1.818-.45-2.52s-.711-1.24-1.242-1.615a2.96 2.96 0 0 0-1.759-.566c-1.025 0-1.887.403-2.589 1.21-.702.805-1.052 1.991-1.052 3.559 0 1.475.348 2.623 1.045 3.443.699.82 1.564 1.23 2.596 1.23.615 0 1.186-.18 1.712-.536.524-.358.946-.897 1.262-1.611.319-.714.477-1.579.477-2.594zM348.912 128.184v.447c.697-.86 1.42-1.492 2.174-1.895.751-.403 1.601-.605 2.554-.605 1.141 0 2.191.294 3.152.884.958.588 1.717 1.448 2.275 2.581.556 1.131.835 2.473.835 4.021 0 1.141-.161 2.189-.482 3.145-.321.956-.763 1.756-1.324 2.406a5.814 5.814 0 0 1-1.991 1.494 5.89 5.89 0 0 1-2.465.521c-1.062 0-1.951-.212-2.67-.637-.721-.427-1.406-1.052-2.058-1.875v5.57c0 1.63-.595 2.445-1.781 2.445-.697 0-1.159-.21-1.386-.632-.227-.42-.341-1.035-.341-1.84V128.21c0-.706.156-1.235.464-1.583.306-.348.729-.524 1.262-.524.526 0 .953.18 1.284.538.333.357.498.871.498 1.543zm7.268 5.392c0-.978-.148-1.818-.45-2.52-.296-.702-.711-1.24-1.242-1.615a2.96 2.96 0 0 0-1.759-.566c-1.023 0-1.887.403-2.589 1.21-.702.805-1.052 1.991-1.052 3.559 0 1.475.348 2.623 1.045 3.443.699.82 1.564 1.23 2.596 1.23.615 0 1.186-.18 1.712-.536.526-.358.946-.897 1.265-1.611.316-.714.474-1.579.474-2.594zM376.845 133.645c0 1.104-.17 2.124-.514 3.056a6.794 6.794 0 0 1-1.497 2.406 6.604 6.604 0 0 1-2.337 1.541c-.904.358-1.924.536-3.056.536-1.124 0-2.132-.18-3.031-.543a6.727 6.727 0 0 1-2.329-1.554 6.747 6.747 0 0 1-1.494-2.391c-.338-.921-.509-1.937-.509-3.051 0-1.124.173-2.151.516-3.085a6.717 6.717 0 0 1 1.48-2.391 6.542 6.542 0 0 1 2.337-1.527c.916-.358 1.927-.538 3.031-.538 1.124 0 2.142.183 3.056.543a6.666 6.666 0 0 1 2.352 1.549 6.685 6.685 0 0 1 1.487 2.391c.34.924.508 1.944.508 3.058zm-3.72 0c0-1.514-.333-2.69-1-3.532-.664-.842-1.559-1.265-2.683-1.265-.724 0-1.364.188-1.914.566-.553.375-.978.929-1.28 1.662-.296.734-.447 1.591-.447 2.569 0 .968.148 1.816.442 2.539.294.726.714 1.28 1.262 1.665s1.193.578 1.937.578c1.124 0 2.018-.425 2.683-1.27.666-.847 1-2.017 1-3.512zM383.532 135.831v3.098c0 .753-.178 1.317-.529 1.692-.356.375-.803.563-1.346.563-.534 0-.973-.19-1.317-.571-.346-.38-.519-.941-.519-1.685v-10.325c0-1.665.603-2.5 1.808-2.5.615 0 1.06.195 1.331.585.272.388.422.963.447 1.724.445-.761.899-1.336 1.366-1.724.467-.39 1.089-.585 1.87-.585.778 0 1.534.195 2.268.585.734.388 1.102.904 1.102 1.549 0 .452-.158.825-.469 1.121-.314.294-.65.44-1.013.44-.136 0-.464-.084-.986-.249-.521-.168-.981-.252-1.378-.252-.543 0-.988.143-1.331.427-.343.287-.613.709-.8 1.27-.193.563-.324 1.23-.395 2.006a31.232 31.232 0 0 0-.109 2.831zM392.664 126.43h.408v-2.228c0-.598.015-1.065.047-1.406.032-.338.121-.632.267-.877a1.67 1.67 0 0 1 .622-.618c.272-.158.576-.237.911-.237.472 0 .897.175 1.277.529.254.237.415.524.482.865.069.338.101.82.101 1.445v2.527h1.359c.526 0 .926.126 1.203.375.277.247.415.568.415.956 0 .499-.198.847-.59 1.047-.395.198-.958.299-1.692.299h-.694v6.82c0 .578.022 1.025.062 1.339.042.311.151.566.326.761.178.193.464.291.862.291.217 0 .514-.04.884-.116.371-.077.662-.116.87-.116.299 0 .568.121.808.361.24.24.361.536.361.889 0 .598-.326 1.055-.978 1.373-.652.316-1.588.474-2.814.474-1.158 0-2.035-.195-2.633-.583a2.711 2.711 0 0 1-1.176-1.618c-.185-.687-.279-1.608-.279-2.757v-7.119h-.489c-.534 0-.941-.128-1.223-.38a1.24 1.24 0 0 1-.42-.966c0-.388.146-.709.44-.956.292-.248.722-.374 1.283-.374zM404.266 124.38c-.514 0-.956-.158-1.324-.477-.366-.316-.548-.766-.548-1.344 0-.526.188-.958.563-1.297a1.888 1.888 0 0 1 1.309-.511c.482 0 .907.156 1.28.462.371.309.556.756.556 1.346 0 .571-.18 1.015-.543 1.339a1.89 1.89 0 0 1-1.293.482zm1.835 3.831v10.718c0 .744-.175 1.304-.531 1.685-.351.38-.8.571-1.344.571s-.986-.195-1.324-.583c-.341-.39-.509-.946-.509-1.672v-10.61c0-.734.168-1.287.509-1.657.338-.373.781-.558 1.324-.558s.993.185 1.344.558c.356.37.531.886.531 1.548zM413.386 128.157v.447c.652-.86 1.364-1.492 2.139-1.895.773-.403 1.665-.605 2.668-.605.978 0 1.853.212 2.623.64a4.045 4.045 0 0 1 1.724 1.806c.247.455.405.944.477 1.467.072.526.109 1.196.109 2.011v6.902c0 .744-.17 1.304-.509 1.685-.341.38-.783.571-1.326.571-.551 0-1-.195-1.344-.583-.343-.39-.516-.946-.516-1.672v-6.18c0-1.223-.17-2.159-.509-2.806-.341-.647-1.018-.971-2.033-.971-.66 0-1.262.198-1.806.59-.543.395-.941.936-1.196 1.623-.18.553-.272 1.586-.272 3.098v4.646c0 .753-.175 1.317-.524 1.692-.348.375-.798.563-1.351.563a1.69 1.69 0 0 1-1.319-.583c-.343-.39-.514-.946-.514-1.672v-10.718c0-.706.153-1.235.459-1.583.309-.348.731-.524 1.265-.524.326 0 .62.077.884.232.262.153.472.385.63.692.159.306.241.682.241 1.127zM440.548 128.821v10.775c0 1.23-.133 2.29-.395 3.179-.262.887-.684 1.62-1.265 2.201-.578.578-1.336 1.01-2.275 1.289-.936.282-2.102.422-3.498.422-1.277 0-2.418-.18-3.424-.536-1.005-.358-1.781-.82-2.324-1.386-.543-.568-.815-1.149-.815-1.746 0-.455.156-.823.464-1.107.306-.287.677-.43 1.112-.43.543 0 1.02.24 1.428.721.2.245.405.492.618.741.212.247.45.462.706.637.259.178.568.309.931.395.363.084.778.128 1.25.128.961 0 1.704-.133 2.236-.4.529-.269.902-.642 1.114-1.121a4.56 4.56 0 0 0 .373-1.541c.037-.548.064-1.43.082-2.643-.571.795-1.23 1.403-1.976 1.821-.748.415-1.638.625-2.67.625-1.24 0-2.324-.319-3.253-.951-.929-.635-1.643-1.522-2.142-2.663-.496-1.141-.746-2.46-.746-3.955 0-1.114.151-2.119.454-3.016.304-.897.736-1.653 1.299-2.268a5.543 5.543 0 0 1 1.941-1.393 6.133 6.133 0 0 1 2.418-.469c1.05 0 1.961.203 2.73.605.771.403 1.487 1.035 2.149 1.895v-.501c0-.645.158-1.141.474-1.494.316-.353.724-.531 1.223-.531.716 0 1.191.235 1.425.702.237.464.356 1.138.356 2.015zm-10.748 4.701c0 1.504.329 2.641.986 3.411.657.768 1.504 1.154 2.547 1.154a3.34 3.34 0 0 0 1.746-.494c.548-.331.993-.83 1.339-1.494.343-.667.514-1.475.514-2.426 0-1.514-.331-2.69-.998-3.532-.664-.842-1.541-1.265-2.628-1.265-1.06 0-1.909.403-2.547 1.21-.64.805-.959 1.951-.959 3.436zM455.045 122.843v5.504c.472-.543.931-.973 1.378-1.292.45-.316.944-.553 1.487-.711a6.15 6.15 0 0 1 1.754-.24c.941 0 1.779.2 2.507.598.729.4 1.302.978 1.717 1.739.264.445.44.941.531 1.49.091.546.136 1.178.136 1.895v7.104c0 .744-.17 1.304-.509 1.685-.341.38-.79.571-1.354.571-1.22 0-1.833-.751-1.833-2.255v-6.262c0-1.188-.178-2.1-.529-2.737-.356-.64-1.025-.958-2.011-.958-.662 0-1.257.188-1.788.563-.529.375-.926.889-1.188 1.541-.2.553-.299 1.536-.299 2.949v4.903c0 .734-.165 1.294-.496 1.68-.331.383-.79.576-1.378.576-1.223 0-1.835-.751-1.835-2.255v-16.086c0-.751.163-1.314.484-1.69.321-.378.771-.566 1.351-.566.588 0 1.047.19 1.378.571s.497.942.497 1.683zM470.182 124.38c-.514 0-.956-.158-1.324-.477-.366-.316-.548-.766-.548-1.344 0-.526.188-.958.563-1.297a1.888 1.888 0 0 1 1.309-.511c.482 0 .907.156 1.28.462.371.309.556.756.556 1.346 0 .571-.18 1.015-.543 1.339a1.89 1.89 0 0 1-1.293.482zm1.835 3.831v10.718c0 .744-.175 1.304-.531 1.685-.351.38-.8.571-1.344.571s-.986-.195-1.324-.583c-.341-.39-.509-.946-.509-1.672v-10.61c0-.734.168-1.287.509-1.657.338-.373.781-.558 1.324-.558s.993.185 1.344.558c.356.37.531.886.531 1.548zM489.573 128.821v10.775c0 1.23-.133 2.29-.395 3.179-.262.887-.684 1.62-1.265 2.201-.578.578-1.336 1.01-2.275 1.289-.936.282-2.102.422-3.498.422-1.277 0-2.418-.18-3.424-.536-1.005-.358-1.781-.82-2.324-1.386-.543-.568-.815-1.149-.815-1.746 0-.455.156-.823.464-1.107.306-.287.677-.43 1.112-.43.543 0 1.02.24 1.428.721.2.245.405.492.618.741.212.247.45.462.706.637.259.178.568.309.931.395.363.084.778.128 1.25.128.961 0 1.704-.133 2.235-.4.529-.269.902-.642 1.114-1.121a4.56 4.56 0 0 0 .373-1.541c.037-.548.064-1.43.082-2.643-.571.795-1.23 1.403-1.976 1.821-.748.415-1.638.625-2.67.625-1.24 0-2.324-.319-3.253-.951-.929-.635-1.643-1.522-2.142-2.663-.496-1.141-.746-2.46-.746-3.955 0-1.114.151-2.119.454-3.016.304-.897.736-1.653 1.299-2.268a5.538 5.538 0 0 1 1.942-1.393 6.133 6.133 0 0 1 2.418-.469c1.05 0 1.961.203 2.73.605.771.403 1.487 1.035 2.149 1.895v-.501c0-.645.158-1.141.474-1.494.316-.353.724-.531 1.223-.531.716 0 1.191.235 1.425.702.237.464.356 1.138.356 2.015zm-10.748 4.701c0 1.504.329 2.641.986 3.411.657.768 1.504 1.154 2.547 1.154a3.34 3.34 0 0 0 1.746-.494c.548-.331.993-.83 1.339-1.494.343-.667.514-1.475.514-2.426 0-1.514-.331-2.69-.998-3.532-.664-.842-1.541-1.265-2.628-1.265-1.06 0-1.909.403-2.547 1.21-.64.805-.959 1.951-.959 3.436zM497.033 122.843v5.504c.472-.543.931-.973 1.378-1.292.45-.316.944-.553 1.487-.711a6.15 6.15 0 0 1 1.754-.24c.941 0 1.779.2 2.507.598.729.4 1.302.978 1.717 1.739.264.445.44.941.531 1.49.091.546.136 1.178.136 1.895v7.104c0 .744-.17 1.304-.509 1.685-.341.38-.79.571-1.354.571-1.22 0-1.833-.751-1.833-2.255v-6.262c0-1.188-.178-2.1-.529-2.737-.356-.64-1.025-.958-2.011-.958-.662 0-1.257.188-1.788.563-.529.375-.926.889-1.188 1.541-.2.553-.299 1.536-.299 2.949v4.903c0 .734-.165 1.294-.496 1.68-.331.383-.79.576-1.378.576-1.223 0-1.835-.751-1.835-2.255v-16.086c0-.751.163-1.314.484-1.69.321-.378.771-.566 1.351-.566.588 0 1.047.19 1.378.571.331.379.497.942.497 1.683zM527.497 144.215v-5.232c-.716.716-1.462 1.262-2.235 1.638-.776.375-1.633.563-2.576.563a5.725 5.725 0 0 1-3.145-.909c-.946-.608-1.69-1.48-2.228-2.616-.538-1.136-.808-2.475-.808-4.014 0-1.576.272-2.927.815-4.056.543-1.126 1.297-1.986 2.263-2.574.963-.59 2.035-.884 3.211-.884.998 0 1.89.207 2.678.62.788.41 1.462 1.037 2.026 1.88v-.447c0-.679.163-1.196.489-1.549.326-.353.746-.531 1.262-.531s.936.175 1.262.524c.326.348.489.867.489 1.556v16.031c0 1.648-.583 2.473-1.751 2.473-.724 0-1.198-.222-1.42-.667-.223-.443-.332-1.045-.332-1.806zm-7.27-10.597c0 .995.161 1.855.482 2.574.321.721.746 1.255 1.27 1.603a3.023 3.023 0 0 0 1.699.524c.662 0 1.267-.175 1.821-.524.553-.348.995-.882 1.331-1.596.336-.716.504-1.598.504-2.65 0-.741-.099-1.413-.294-2.011-.195-.598-.459-1.092-.793-1.487a3.257 3.257 0 0 0-2.542-1.176c-.995 0-1.825.413-2.487 1.238-.66.822-.991 1.991-.991 3.505zM544.437 139.092v-.474a8.299 8.299 0 0 1-1.401 1.413 5.222 5.222 0 0 1-1.601.85c-.58.185-1.242.277-1.986.277-.894 0-1.699-.185-2.411-.556a4.084 4.084 0 0 1-1.65-1.536c-.462-.788-.692-1.919-.692-3.396v-7.349c0-.744.165-1.297.501-1.665.336-.366.778-.551 1.331-.551.561 0 1.015.185 1.359.558.343.371.516.924.516 1.657v5.936c0 .862.072 1.583.217 2.169.146.583.405 1.04.781 1.371.375.331.887.497 1.529.497a3.1 3.1 0 0 0 1.766-.558 3.234 3.234 0 0 0 1.208-1.452c.21-.526.314-1.677.314-3.451v-4.51c0-.734.173-1.287.516-1.657.343-.373.793-.558 1.344-.558.553 0 .998.185 1.334.551.333.368.501.921.501 1.665v10.745c0 .706-.161 1.238-.482 1.591-.321.353-.736.529-1.245.529-.506 0-.924-.183-1.255-.548-.328-.372-.494-.886-.494-1.548zM561.069 139.092c-.894.699-1.764 1.22-2.601 1.571-.837.348-1.776.521-2.818.521-.951 0-1.786-.188-2.507-.563-.719-.375-1.275-.884-1.662-1.529a3.955 3.955 0 0 1-.585-2.092c0-1.013.321-1.88.966-2.594.642-.716 1.524-1.196 2.648-1.44.235-.054.82-.178 1.754-.368.931-.19 1.732-.363 2.396-.521a51.612 51.612 0 0 0 2.169-.578c-.047-.978-.245-1.697-.593-2.154-.348-.457-1.07-.687-2.166-.687-.941 0-1.65.131-2.127.395-.474.262-.882.657-1.223 1.181-.338.526-.578.872-.719 1.04-.141.168-.442.252-.904.252-.417 0-.776-.133-1.079-.4a1.31 1.31 0 0 1-.457-1.028c0-.652.232-1.284.694-1.902.462-.615 1.183-1.121 2.161-1.522.978-.398 2.196-.598 3.653-.598 1.63 0 2.912.193 3.846.578.931.385 1.591.993 1.976 1.828.385.832.578 1.937.578 3.315 0 .869-.003 1.608-.007 2.213-.005.608-.012 1.282-.022 2.026 0 .697.116 1.423.348 2.181.23.756.346 1.242.346 1.46 0 .38-.178.726-.536 1.04a1.803 1.803 0 0 1-1.215.467c-.38 0-.758-.178-1.129-.536-.373-.358-.768-.877-1.185-1.556zm-.242-5.365c-.543.198-1.334.41-2.371.632-1.037.22-1.756.383-2.154.489-.398.104-.778.306-1.141.61s-.543.726-.543 1.27c0 .563.212 1.04.637 1.435.427.393.983.59 1.672.59.734 0 1.41-.161 2.03-.482.62-.324 1.077-.736 1.366-1.245.336-.561.504-1.485.504-2.771v-.528zM568.314 138.929v-16.086c0-.741.163-1.304.494-1.685s.778-.571 1.339-.571 1.015.188 1.359.566c.343.375.516.939.516 1.69v16.086c0 .753-.175 1.317-.524 1.692-.348.375-.798.563-1.351.563-.543 0-.986-.195-1.324-.583-.341-.39-.509-.946-.509-1.672zM577.809 124.38c-.514 0-.956-.158-1.324-.477-.366-.316-.548-.766-.548-1.344 0-.526.188-.958.563-1.297a1.888 1.888 0 0 1 1.309-.511c.482 0 .907.156 1.28.462.371.309.556.756.556 1.346 0 .571-.18 1.015-.543 1.339a1.89 1.89 0 0 1-1.293.482zm1.835 3.831v10.718c0 .744-.175 1.304-.531 1.685-.351.38-.8.571-1.344.571-.543 0-.986-.195-1.324-.583-.341-.39-.509-.946-.509-1.672v-10.61c0-.734.168-1.287.509-1.657.338-.373.781-.558 1.324-.558s.993.185 1.344.558c.356.37.531.886.531 1.548zM583.764 126.43h.408v-2.228c0-.598.015-1.065.047-1.406.032-.338.121-.632.267-.877a1.67 1.67 0 0 1 .622-.618c.272-.158.576-.237.911-.237.472 0 .897.175 1.277.529.254.237.415.524.482.865.069.338.101.82.101 1.445v2.527h1.359c.526 0 .926.126 1.203.375.277.247.415.568.415.956 0 .499-.198.847-.59 1.047-.395.198-.958.299-1.692.299h-.694v6.82c0 .578.022 1.025.062 1.339.042.311.151.566.326.761.178.193.464.291.862.291.217 0 .514-.04.884-.116.37-.077.662-.116.87-.116.299 0 .568.121.808.361.24.24.361.536.361.889 0 .598-.326 1.055-.978 1.373-.652.316-1.588.474-2.814.474-1.158 0-2.035-.195-2.633-.583a2.715 2.715 0 0 1-1.176-1.618c-.185-.687-.279-1.608-.279-2.757v-7.119h-.489c-.534 0-.941-.128-1.223-.38a1.24 1.24 0 0 1-.42-.966c0-.388.146-.709.44-.956.293-.248.723-.374 1.283-.374z"/><path d="M596.918 141.646l.338-.827-4.565-11.494c-.282-.662-.422-1.141-.422-1.44 0-.319.084-.613.247-.884.163-.272.385-.489.672-.652.284-.163.581-.245.889-.245.534 0 .939.17 1.21.511.272.338.511.825.719 1.46l3.14 9.13 2.974-8.492c.235-.687.45-1.228.637-1.615.193-.39.393-.652.605-.788.212-.136.514-.205.904-.205.282 0 .551.077.808.225.259.151.457.351.598.605.141.252.212.521.212.8a18.98 18.98 0 0 1-.178.734c-.082.319-.18.64-.299.966l-4.837 12.662c-.417 1.114-.825 1.988-1.223 2.621a4.025 4.025 0 0 1-1.583 1.462c-.657.338-1.541.509-2.655.509-1.087 0-1.902-.119-2.445-.353-.543-.237-.815-.667-.815-1.292 0-.425.128-.753.388-.983.257-.232.64-.348 1.149-.348.198 0 .393.027.583.082.235.054.44.082.613.082.425 0 .761-.062 1.003-.19.247-.126.464-.346.66-.657.194-.317.419-.776.673-1.384zM292.483 172.318v-16.086c0-.741.165-1.304.495-1.685.331-.38.777-.571 1.339-.571.562 0 1.014.188 1.359.566.345.375.516.939.516 1.69v16.086c0 .753-.174 1.317-.524 1.692-.348.375-.799.563-1.351.563-.543 0-.986-.195-1.324-.583-.341-.39-.51-.946-.51-1.672zM313.992 167.034c0 1.104-.172 2.124-.516 3.056a6.774 6.774 0 0 1-1.494 2.406c-.652.669-1.431 1.183-2.337 1.541s-1.924.536-3.057.536c-1.123 0-2.133-.18-3.03-.543a6.707 6.707 0 0 1-2.331-1.554 6.76 6.76 0 0 1-1.494-2.391c-.338-.921-.509-1.937-.509-3.051 0-1.124.172-2.152.516-3.085.345-.931.837-1.729 1.481-2.391a6.516 6.516 0 0 1 2.337-1.527c.915-.358 1.924-.538 3.03-.538 1.123 0 2.142.183 3.057.543a6.658 6.658 0 0 1 2.35 1.549 6.685 6.685 0 0 1 1.487 2.391c.341.924.51 1.944.51 3.058zm-3.723 0c0-1.514-.332-2.69-.999-3.532-.664-.842-1.56-1.265-2.683-1.265-.725 0-1.363.188-1.916.566-.552.375-.978.929-1.277 1.662-.299.734-.448 1.591-.448 2.569 0 .968.147 1.816.442 2.539.294.726.715 1.28 1.262 1.665.548.385 1.194.578 1.937.578 1.123 0 2.018-.425 2.683-1.27.667-.847.999-2.017.999-3.512zM330.295 169.981c0 .462-.138.956-.415 1.482-.274.524-.697 1.025-1.262 1.502-.566.474-1.28.857-2.139 1.146-.862.291-1.83.435-2.907.435-2.292 0-4.081-.667-5.368-2.003-1.284-1.336-1.929-3.127-1.929-5.373 0-1.522.294-2.868.884-4.036a6.345 6.345 0 0 1 2.554-2.71c1.114-.637 2.445-.958 3.994-.958.958 0 1.84.141 2.641.422.803.279 1.482.642 2.038 1.087.558.442.983.916 1.277 1.42.296.501.442.971.442 1.406 0 .442-.165.82-.496 1.126a1.691 1.691 0 0 1-1.201.462c-.309 0-.566-.079-.768-.237-.205-.158-.432-.415-.687-.768-.452-.687-.926-1.203-1.42-1.549-.492-.343-1.119-.516-1.88-.516-1.097 0-1.979.43-2.65 1.284-.669.857-1.005 2.026-1.005 3.513 0 .697.086 1.339.259 1.922.17.585.42 1.082.746 1.494.326.413.721.724 1.183.939.462.212.968.319 1.522.319.741 0 1.378-.173 1.907-.516.531-.346 1-.869 1.408-1.576.225-.417.469-.744.734-.978.262-.237.583-.353.963-.353.454 0 .83.17 1.129.516.298.342.446.71.446 1.098zM342.987 172.481c-.894.699-1.764 1.22-2.601 1.571-.837.348-1.779.521-2.818.521-.951 0-1.786-.188-2.507-.563-.719-.375-1.275-.884-1.665-1.529a3.971 3.971 0 0 1-.583-2.092c0-1.013.321-1.88.963-2.594.645-.716 1.527-1.196 2.65-1.44.235-.054.82-.178 1.751-.368.934-.19 1.734-.363 2.399-.521a51.612 51.612 0 0 0 2.169-.578c-.047-.978-.245-1.697-.593-2.154-.348-.457-1.07-.687-2.166-.687-.944 0-1.65.131-2.127.395-.474.262-.882.657-1.223 1.181-.338.526-.581.872-.719 1.04-.141.168-.442.252-.904.252-.417 0-.778-.133-1.079-.4a1.31 1.31 0 0 1-.457-1.028c0-.652.232-1.284.694-1.902.462-.615 1.181-1.121 2.159-1.522.978-.398 2.196-.598 3.656-.598 1.63 0 2.912.193 3.846.578.931.385 1.591.993 1.976 1.828.385.832.578 1.937.578 3.315a277.533 277.533 0 0 1-.029 4.239c0 .697.116 1.423.348 2.181.23.756.346 1.242.346 1.46 0 .38-.178.726-.536 1.04a1.803 1.803 0 0 1-1.215.467c-.38 0-.758-.178-1.129-.536-.372-.358-.767-.877-1.184-1.556zm-.242-5.365c-.543.198-1.334.41-2.371.632-1.037.22-1.756.383-2.154.489-.4.104-.781.306-1.141.61-.363.304-.543.726-.543 1.27 0 .563.212 1.04.637 1.435.427.393.983.59 1.672.59.734 0 1.41-.161 2.03-.482.62-.324 1.077-.736 1.366-1.245.336-.561.504-1.485.504-2.772v-.527zM350.232 172.318v-16.086c0-.741.163-1.304.494-1.685.331-.38.778-.571 1.339-.571.561 0 1.015.188 1.359.566.343.375.516.939.516 1.69v16.086c0 .753-.175 1.317-.524 1.692-.348.375-.798.563-1.351.563-.543 0-.986-.195-1.324-.583-.341-.39-.509-.946-.509-1.672zM368.318 161.573v.447c.697-.86 1.42-1.492 2.174-1.895.751-.403 1.601-.605 2.554-.605 1.141 0 2.191.294 3.152.884.958.588 1.717 1.448 2.275 2.581.556 1.131.835 2.473.835 4.021 0 1.141-.161 2.189-.482 3.145-.321.956-.763 1.756-1.324 2.406a5.814 5.814 0 0 1-1.991 1.494 5.89 5.89 0 0 1-2.465.521c-1.062 0-1.951-.212-2.67-.637-.721-.427-1.406-1.052-2.058-1.875v5.57c0 1.63-.595 2.445-1.781 2.445-.697 0-1.158-.21-1.386-.632-.227-.42-.341-1.035-.341-1.84V161.6c0-.706.156-1.235.464-1.583.306-.348.729-.524 1.262-.524.526 0 .954.18 1.285.538.331.356.497.87.497 1.542zm7.267 5.392c0-.978-.148-1.818-.45-2.52-.296-.702-.711-1.24-1.242-1.615a2.96 2.96 0 0 0-1.759-.566c-1.023 0-1.887.403-2.589 1.21-.702.805-1.052 1.991-1.052 3.559 0 1.475.348 2.623 1.045 3.443.699.82 1.564 1.23 2.596 1.23.615 0 1.186-.18 1.712-.536.526-.358.946-.897 1.265-1.611.316-.714.474-1.579.474-2.594zM392.718 167.943h-7.252c.007.842.178 1.586.509 2.228.331.645.768 1.129 1.317 1.455a3.487 3.487 0 0 0 1.816.489c.442 0 .847-.052 1.215-.156a4.12 4.12 0 0 0 1.067-.489c.343-.222.66-.462.949-.714.291-.254.667-.598 1.129-1.033.19-.163.462-.245.815-.245.38 0 .689.104.924.311.235.21.353.504.353.884 0 .333-.131.726-.395 1.176-.262.447-.657.877-1.188 1.289-.529.413-1.196.753-1.996 1.025-.803.272-1.724.408-2.764.408-2.384 0-4.236-.679-5.558-2.038s-1.984-3.201-1.984-5.528c0-1.097.163-2.112.489-3.051a6.771 6.771 0 0 1 1.425-2.411 6.146 6.146 0 0 1 2.312-1.541c.914-.358 1.927-.538 3.043-.538 1.448 0 2.69.306 3.727.919 1.037.61 1.816 1.401 2.329 2.369.519.971.776 1.956.776 2.962 0 .934-.267 1.539-.8 1.816-.536.275-1.287.413-2.258.413zm-7.252-2.104h6.724c-.091-1.27-.432-2.218-1.025-2.846-.593-.63-1.376-.946-2.344-.946-.924 0-1.682.321-2.275.958-.594.64-.954 1.584-1.08 2.834zM402.665 169.22v3.098c0 .753-.178 1.317-.529 1.692-.356.375-.803.563-1.346.563-.534 0-.973-.19-1.317-.571-.346-.38-.519-.941-.519-1.685v-10.325c0-1.665.603-2.5 1.808-2.5.615 0 1.06.195 1.331.585.272.388.422.963.447 1.724.445-.761.899-1.336 1.366-1.724.467-.39 1.089-.585 1.87-.585.778 0 1.534.195 2.268.585.734.388 1.102.904 1.102 1.549 0 .452-.158.825-.469 1.121-.314.294-.65.44-1.013.44-.136 0-.464-.084-.986-.249-.521-.168-.981-.252-1.378-.252-.543 0-.988.143-1.331.427-.343.287-.613.709-.8 1.27-.193.563-.324 1.23-.395 2.006a31.232 31.232 0 0 0-.109 2.831zM413.129 157.769c-.514 0-.956-.158-1.324-.477-.366-.316-.548-.766-.548-1.344 0-.526.188-.958.563-1.297a1.888 1.888 0 0 1 1.309-.511c.482 0 .907.156 1.28.462.371.309.556.756.556 1.346 0 .571-.18 1.015-.543 1.339a1.89 1.89 0 0 1-1.293.482zm1.835 3.831v10.718c0 .744-.175 1.304-.531 1.685-.351.38-.8.571-1.344.571-.543 0-.986-.195-1.324-.583-.341-.39-.509-.946-.509-1.672V161.71c0-.734.168-1.287.509-1.657.338-.373.781-.558 1.324-.558s.993.185 1.344.558c.356.369.531.885.531 1.547zM422.249 161.546v.447c.652-.86 1.364-1.492 2.139-1.895.773-.403 1.665-.605 2.668-.605.978 0 1.853.212 2.623.64a4.045 4.045 0 0 1 1.724 1.806c.247.454.405.944.477 1.467.072.526.109 1.196.109 2.011v6.902c0 .744-.17 1.304-.509 1.685-.341.38-.783.571-1.326.571-.551 0-1-.195-1.344-.583-.343-.39-.516-.946-.516-1.672v-6.18c0-1.223-.17-2.159-.509-2.806-.341-.647-1.018-.971-2.033-.971-.66 0-1.262.198-1.806.59-.543.395-.941.936-1.196 1.623-.18.553-.272 1.586-.272 3.098v4.646c0 .753-.175 1.317-.524 1.692-.348.375-.798.563-1.351.563a1.69 1.69 0 0 1-1.319-.583c-.343-.39-.514-.946-.514-1.672V161.6c0-.706.153-1.235.459-1.583.309-.348.731-.524 1.265-.524.326 0 .62.077.884.232.262.153.472.385.63.692.159.308.241.684.241 1.129zM445.14 172.481c-.894.699-1.764 1.22-2.601 1.571-.837.348-1.776.521-2.818.521-.951 0-1.786-.188-2.507-.563-.719-.375-1.275-.884-1.662-1.529a3.955 3.955 0 0 1-.585-2.092c0-1.013.321-1.88.966-2.594.642-.716 1.524-1.196 2.648-1.44.235-.054.82-.178 1.754-.368.931-.19 1.732-.363 2.396-.521a51.612 51.612 0 0 0 2.169-.578c-.047-.978-.245-1.697-.593-2.154-.348-.457-1.07-.687-2.166-.687-.941 0-1.65.131-2.127.395-.474.262-.882.657-1.223 1.181-.338.526-.578.872-.719 1.04-.141.168-.442.252-.904.252-.417 0-.776-.133-1.079-.4a1.31 1.31 0 0 1-.457-1.028c0-.652.232-1.284.694-1.902.462-.615 1.183-1.121 2.161-1.522.978-.398 2.196-.598 3.653-.598 1.63 0 2.912.193 3.846.578.931.385 1.591.993 1.976 1.828.385.832.578 1.937.578 3.315a277.533 277.533 0 0 1-.029 4.239c0 .697.116 1.423.348 2.181.23.756.346 1.242.346 1.46 0 .38-.178.726-.536 1.04a1.803 1.803 0 0 1-1.215.467c-.38 0-.758-.178-1.129-.536-.373-.358-.768-.877-1.185-1.556zm-.242-5.365c-.543.198-1.334.41-2.371.632-1.037.22-1.756.383-2.154.489a2.925 2.925 0 0 0-1.141.61c-.363.304-.543.726-.543 1.27 0 .563.212 1.04.637 1.435.427.393.983.59 1.672.59.734 0 1.41-.161 2.03-.482.62-.324 1.077-.736 1.366-1.245.336-.561.504-1.485.504-2.772v-.527zM451.895 159.819h.408v-2.228c0-.598.015-1.065.047-1.406.032-.338.121-.632.267-.877a1.67 1.67 0 0 1 .622-.618c.272-.158.576-.237.911-.237.472 0 .897.175 1.277.529.254.237.415.524.482.865.069.338.101.82.101 1.445v2.527h1.359c.526 0 .926.126 1.203.375.277.247.415.568.415.956 0 .499-.198.847-.59 1.047-.395.198-.958.299-1.692.299h-.694v6.82c0 .578.022 1.025.062 1.339.042.311.151.566.326.761.178.193.464.291.862.291.217 0 .514-.04.884-.116.371-.077.662-.116.87-.116.299 0 .568.121.808.361.24.24.361.536.361.889 0 .598-.326 1.055-.978 1.373-.652.316-1.588.474-2.814.474-1.158 0-2.035-.195-2.633-.583a2.711 2.711 0 0 1-1.176-1.618c-.185-.687-.279-1.608-.279-2.757v-7.119h-.489c-.534 0-.941-.128-1.223-.38a1.24 1.24 0 0 1-.42-.966c0-.388.146-.709.44-.956.293-.248.723-.374 1.283-.374zM470.997 172.481c-.894.699-1.764 1.22-2.601 1.571-.837.348-1.776.521-2.818.521-.951 0-1.786-.188-2.507-.563-.719-.375-1.275-.884-1.662-1.529a3.955 3.955 0 0 1-.585-2.092c0-1.013.321-1.88.966-2.594.642-.716 1.524-1.196 2.648-1.44.235-.054.82-.178 1.754-.368.931-.19 1.732-.363 2.396-.521a51.612 51.612 0 0 0 2.169-.578c-.047-.978-.245-1.697-.593-2.154-.348-.457-1.07-.687-2.166-.687-.941 0-1.65.131-2.127.395-.474.262-.882.657-1.223 1.181-.338.526-.578.872-.719 1.04s-.442.252-.904.252c-.417 0-.776-.133-1.079-.4a1.31 1.31 0 0 1-.457-1.028c0-.652.232-1.284.694-1.902.462-.615 1.183-1.121 2.161-1.522.978-.398 2.196-.598 3.653-.598 1.63 0 2.912.193 3.846.578.931.385 1.591.993 1.976 1.828.385.832.578 1.937.578 3.315a277.533 277.533 0 0 1-.029 4.239c0 .697.116 1.423.348 2.181.23.756.346 1.242.346 1.46 0 .38-.178.726-.536 1.04a1.803 1.803 0 0 1-1.215.467c-.38 0-.758-.178-1.129-.536s-.767-.877-1.185-1.556zm-.242-5.365c-.543.198-1.334.41-2.371.632-1.037.22-1.756.383-2.154.489a2.925 2.925 0 0 0-1.141.61c-.363.304-.543.726-.543 1.27 0 .563.212 1.04.637 1.435.427.393.983.59 1.672.59.734 0 1.41-.161 2.03-.482.62-.324 1.077-.736 1.366-1.245.336-.561.504-1.485.504-2.772v-.527zM478.245 172.318v-16.086c0-.741.163-1.304.494-1.685.331-.38.778-.571 1.339-.571s1.015.188 1.359.566c.343.375.516.939.516 1.69v16.086c0 .753-.175 1.317-.524 1.692-.348.375-.798.563-1.351.563-.543 0-.986-.195-1.324-.583-.341-.39-.509-.946-.509-1.672zM496.588 169.22v3.098c0 .753-.178 1.317-.529 1.692-.356.375-.803.563-1.346.563-.534 0-.973-.19-1.317-.571-.346-.38-.519-.941-.519-1.685v-10.325c0-1.665.603-2.5 1.808-2.5.615 0 1.06.195 1.331.585.272.388.422.963.447 1.724.445-.761.899-1.336 1.366-1.724.467-.39 1.089-.585 1.87-.585.778 0 1.534.195 2.268.585.734.388 1.102.904 1.102 1.549 0 .452-.158.825-.469 1.121-.314.294-.65.44-1.013.44-.136 0-.464-.084-.986-.249-.521-.168-.981-.252-1.378-.252-.543 0-.988.143-1.331.427-.343.287-.613.709-.8 1.27-.193.563-.324 1.23-.395 2.006a31.232 31.232 0 0 0-.109 2.831zM514.832 167.943h-7.252c.007.842.178 1.586.509 2.228.331.645.768 1.129 1.317 1.455a3.487 3.487 0 0 0 1.816.489c.442 0 .847-.052 1.215-.156a4.12 4.12 0 0 0 1.067-.489c.343-.222.66-.462.949-.714.292-.254.667-.598 1.129-1.033.19-.163.462-.245.815-.245.38 0 .689.104.924.311.235.21.353.504.353.884 0 .333-.131.726-.395 1.176-.262.447-.657.877-1.188 1.289-.529.413-1.196.753-1.996 1.025-.803.272-1.724.408-2.764.408-2.384 0-4.236-.679-5.558-2.038s-1.984-3.201-1.984-5.528c0-1.097.163-2.112.489-3.051a6.771 6.771 0 0 1 1.425-2.411 6.146 6.146 0 0 1 2.312-1.541c.914-.358 1.927-.538 3.043-.538 1.448 0 2.69.306 3.727.919 1.037.61 1.816 1.401 2.329 2.369.519.971.776 1.956.776 2.962 0 .934-.267 1.539-.8 1.816-.536.275-1.287.413-2.258.413zm-7.252-2.104h6.724c-.091-1.27-.432-2.218-1.025-2.846-.593-.63-1.376-.946-2.344-.946-.924 0-1.682.321-2.275.958-.593.64-.954 1.584-1.08 2.834zM523.028 161.802l3.001 8.423 3.236-8.789c.252-.706.501-1.208.746-1.502.245-.294.615-.442 1.114-.442.472 0 .872.158 1.203.477.331.316.494.684.494 1.099 0 .163-.027.353-.086.571a5.503 5.503 0 0 1-.205.613l-.264.652-3.559 8.831c-.099.252-.23.576-.388.963-.158.39-.333.724-.529 1a2.127 2.127 0 0 1-.721.645c-.284.153-.63.23-1.04.23-.524 0-.944-.119-1.255-.358a2.47 2.47 0 0 1-.694-.788c-.148-.287-.4-.85-.753-1.692l-3.532-8.737a43.653 43.653 0 0 0-.252-.652 5.848 5.848 0 0 1-.217-.664 2.386 2.386 0 0 1-.089-.585c0-.252.079-.504.232-.753.153-.249.366-.452.637-.61.272-.161.568-.24.884-.24.615 0 1.04.178 1.27.531.231.352.486.945.767 1.777zM537.444 157.769c-.514 0-.956-.158-1.324-.477-.366-.316-.548-.766-.548-1.344 0-.526.188-.958.563-1.297a1.888 1.888 0 0 1 1.309-.511c.482 0 .907.156 1.28.462.371.309.556.756.556 1.346 0 .571-.18 1.015-.543 1.339a1.89 1.89 0 0 1-1.293.482zm1.835 3.831v10.718c0 .744-.175 1.304-.531 1.685-.351.38-.8.571-1.344.571-.543 0-.986-.195-1.324-.583-.341-.39-.509-.946-.509-1.672V161.71c0-.734.168-1.287.509-1.657.338-.373.781-.558 1.324-.558s.993.185 1.344.558c.356.369.531.885.531 1.547zM553.545 167.943h-7.252c.007.842.178 1.586.509 2.228.331.645.768 1.129 1.317 1.455a3.487 3.487 0 0 0 1.816.489c.442 0 .847-.052 1.215-.156a4.12 4.12 0 0 0 1.067-.489c.343-.222.659-.462.948-.714.292-.254.667-.598 1.129-1.033.19-.163.462-.245.815-.245.38 0 .689.104.924.311.235.21.353.504.353.884 0 .333-.131.726-.395 1.176-.262.447-.657.877-1.188 1.289-.529.413-1.196.753-1.996 1.025-.803.272-1.724.408-2.764.408-2.384 0-4.236-.679-5.558-2.038s-1.984-3.201-1.984-5.528c0-1.097.163-2.112.489-3.051a6.771 6.771 0 0 1 1.425-2.411 6.146 6.146 0 0 1 2.312-1.541c.914-.358 1.927-.538 3.043-.538 1.448 0 2.69.306 3.727.919 1.037.61 1.816 1.401 2.329 2.369.519.971.776 1.956.776 2.962 0 .934-.267 1.539-.8 1.816-.536.275-1.287.413-2.257.413zm-7.253-2.104h6.724c-.091-1.27-.432-2.218-1.025-2.846-.593-.63-1.376-.946-2.344-.946-.924 0-1.682.321-2.275.958-.593.64-.954 1.584-1.08 2.834zM561.753 161.802l2.421 8.287 2.198-7.702c.237-.808.41-1.356.524-1.65.114-.296.326-.576.64-.842.311-.269.739-.403 1.282-.403.553 0 .986.133 1.299.403.311.267.531.556.657.869.128.311.304.852.531 1.623l2.201 7.702 2.445-8.287c.163-.598.294-1.03.395-1.297.099-.267.267-.501.501-.706.235-.203.576-.306 1.02-.306.442 0 .828.156 1.154.462.326.309.489.672.489 1.087 0 .38-.141.956-.422 1.727l-3.028 8.885a26.04 26.04 0 0 1-.613 1.63 2.457 2.457 0 0 1-.684.897c-.314.262-.741.393-1.284.393-.561 0-1.003-.141-1.324-.42-.321-.282-.561-.625-.714-1.033s-.321-.939-.504-1.591l-2.119-7.228-2.05 7.228c-.272 1.005-.566 1.764-.884 2.277-.316.511-.872.766-1.67.766-.408 0-.753-.079-1.04-.237a2.036 2.036 0 0 1-.714-.679 5.214 5.214 0 0 1-.501-1.045 53.703 53.703 0 0 1-.338-.958l-3.004-8.885c-.299-.835-.45-1.408-.45-1.727 0-.398.161-.756.477-1.072a1.58 1.58 0 0 1 1.168-.477c.615 0 1.033.175 1.25.524s.449.943.691 1.785zM594.09 169.724c0 1.023-.25 1.9-.746 2.628-.499.729-1.235 1.282-2.208 1.657-.973.375-2.159.563-3.552.563-1.334 0-2.475-.203-3.424-.61-.953-.408-1.655-.916-2.107-1.529-.452-.61-.679-1.225-.679-1.84 0-.408.146-.756.435-1.047.289-.289.657-.435 1.102-.435.388 0 .687.096.894.287.21.19.41.457.598.8.38.662.837 1.156 1.366 1.482.531.326 1.252.489 2.166.489.744 0 1.354-.165 1.828-.497.477-.331.714-.709.714-1.134 0-.652-.247-1.129-.741-1.428-.494-.299-1.307-.583-2.438-.855-1.277-.319-2.317-.65-3.117-.998-.803-.351-1.443-.81-1.922-1.381-.482-.571-.721-1.272-.721-2.105 0-.744.222-1.445.667-2.107.442-.66 1.097-1.188 1.961-1.581.865-.395 1.909-.593 3.132-.593.961 0 1.823.101 2.589.299.766.2 1.403.467 1.914.803.511.333.902.706 1.168 1.114.267.408.4.805.4 1.196 0 .425-.141.773-.427 1.045-.284.272-.689.408-1.215.408-.38 0-.704-.109-.971-.326s-.573-.543-.919-.978a3.332 3.332 0 0 0-.991-.869c-.38-.217-.897-.326-1.549-.326-.669 0-1.228.143-1.67.43-.445.284-.667.64-.667 1.065 0 .39.163.709.489.958.326.249.766.455 1.319.618a49.82 49.82 0 0 0 2.282.598c1.149.282 2.09.618 2.818 1.005.729.39 1.282.85 1.657 1.381.377.529.565 1.134.565 1.813z"/></g><path fill="#36499B" d="M152.207 9.859c-5.063-4.924-10.934-7.897-17.481-9.189-6.556-1.254-13.965-.875-22.394 2.217-2.719 1.258-7.61 2.72-15.823 8.716-3.383 2.531-8.781 7.197-12.61 11.868-1.916 2.319-3.544 4.537-4.709 6.15l-1.741 2.721-1.484 2.301-3.191 5.909c-2.204 4.824-4.61 10.862-5.528 15.424l-.6 2.393-.397 2.32c-.233 1.513-.528 2.936-.665 4.308-.188 2.756-.524 5.192-.421 7.379-.097 4.356.423 7.565.626 9.76 1.406 8.869 4.685 15.524 8.973 20.639 4.317 5.088 9.773 8.768 16.539 10.792-5.014-4.979-7.719-9.901-9.953-15.005-2.167-5.149-3.903-10.629-5.013-17.952-.13-1.832-.571-4.476-.468-8.147-.1-1.828.221-3.903.365-6.233.115-1.164.382-2.38.577-3.669l.334-1.98.524-2.051c.78-3.904 2.875-9.118 4.744-13.314l2.747-5.15 1.284-2.005 1.524-2.359c1.023-1.389 2.445-3.304 4.105-5.304 3.327-4.026 7.964-7.99 10.815-10.181 6.977-5.114 11.007-6.281 13.253-7.376 6.936-2.597 12.566-3.751 18.119-4.366 5.542-.536 11.158-.57 17.949 1.384zM88.868 154.876c-3.168 6.297-5.222 12.014-6.49 18.233-1.234 6.222-1.679 13.004-.702 21.509.362 2.869.852 7.591 3.286 17.091 2.405 8.811 6.617 20.492 13.729 31.83 6.989 11.355 16.97 22.265 28.427 29.518 5.687 3.655 11.715 6.336 17.474 7.988 5.761 1.659 11.203 2.361 15.745 2.412 4.546.068 8.219-.276 10.721-.659l2.885-.453.994-.209 3.229-.709a92.915 92.915 0 0 0 8.608-2.689c3.54-1.394 7.702-3.223 12.089-5.708a102.61 102.61 0 0 0 13.508-9.287c9.091-7.325 17.764-16.992 24.583-27.394 6.816-10.409 11.888-21.426 15.018-30.944 2.054-6.156 3.379-11.365 4.156-15.344a114.862 114.862 0 0 1 2.158-8.282c2.263-7.471 4.242-13.15 6.443-18.353 1.12-2.595 2.335-5.043 3.937-7.401 1.6-2.359 3.665-4.593 6.829-6.208-3.528-.085-7.008 1.089-9.863 2.867-2.895 1.766-5.359 4.012-7.497 6.541-4.257 5.099-7.48 11.28-10.041 19.446a116.77 116.77 0 0 0-2.417 9.08c-.769 3.883-1.967 8.513-3.872 14.23-2.885 8.761-7.566 18.909-13.816 28.47-6.255 9.552-14.184 18.379-22.361 24.978a92.075 92.075 0 0 1-12.05 8.312c-3.878 2.2-7.512 3.795-10.584 5.017a82.523 82.523 0 0 1-7.405 2.325l-2.748.605-.845.179-2.438.375c-2.114.325-5.194.598-8.972.542-7.527-.068-17.939-2.383-27.724-8.768-9.819-6.22-18.752-15.883-25.058-26.15-6.426-10.239-10.284-20.911-12.497-28.948-2.231-8.674-2.701-12.984-3.055-15.601-.967-7.753-1.487-13.857-2.068-19.763-.543-5.907-1.163-11.629-1.316-18.678z"/><path fill="#36499B" d="M137.26 235.718c2.359 2.586 3.919 5.342 5.978 7.842 2.048 2.473 4.244 5.009 8.137 6.623 1.912.813 4.569 1.031 6.709.616 2.181-.386 4.173-1.176 6.116-2.335.962-.61 1.918-1.274 2.846-2.18.936-.938 1.836-1.876 2.683-3.6.395-.83.66-1.719.8-2.65l.262-1.437.191-1.2c.089-.373.214-.704.311-1.067a6.704 6.704 0 0 1 .583-1.618c.215-.639.64-1.214 1.076-1.94l.882-1.008c.393-.286.703-.707 1.215-.988.916-.662 2.156-1.296 3.812-1.689.456-.098.933-.212 1.456-.275.26-.05.525-.061.799-.09.323-.05.32.015 1.356-.102l1.147-.18c.419-.05.836-.123 1.137-.305l1.405-.637c.415-.21.726-.423 1.094-.645.698-.394 1.435-1.023 2.134-1.655 1.412-1.37 2.655-3.401 3.08-5.567.452-2.185.189-4.206-.313-5.905-.14-.426-.267-.833-.447-1.253a12.59 12.59 0 0 0-.718-1.485c-.537-.886-1.328-1.742-1.993-2.351-2.25-1.964-3.982-2.918-5.553-3.863a60.138 60.138 0 0 0-2.108-1.165c-.497-.263-.1-.042-.515-.287l-.632-.379-7.841-4.715-.34-.204-.161-.097-.769-.384.033.013.064.027.008.004c1.038-2.362-1.406 3.226-1.147 2.632l.032-.077.065-.153.133-.304.521-1.105c.152-.331.318-.659.48-.953l-.01-.006s-.022-.016-.034-.021l-.129-.093c-.051-.044-.053-.047.003.009-.22-.249-.134-.086-.178-.339-.014-.22.053-.677.398-1.443.637-1.486 2.01-3.599 2.571-6.098.297-1.238.279-2.709.261-3.071l-.052-1.309-.042-.769-.024-.455-.031-.797a10.05 10.05 0 0 1 .023-1.162l.025-.157.011-.083c.02-.081.058-.22.005-.335l-.357-1.481-.619-2.568-.16-.665-.275-1.144-.249-1.034c-.061-.165-.069-.489-.192-.598l-.36-.389c-.097-.105-.077-.108-.192-.256l-.19-.298-.129-.23c-.075-.164.025.048-.005-.01l.007.008-.001.005-.014.014c.109-.078.281-.18.488-.29.207-.11.459-.231.752-.355l.466-.189.123-.048.062-.025.015-.006.008-.003.004-.002-.666.201.081-.022.658-.192c1.765-.512 3.582-1.616 4.923-3.038l.001-.001c2.086-2.201 3.342-4.928 4.008-8.047.228-1.218.192-1.376.303-1.997l.272-1.632c.201-1.105.44-2.227.713-3.331.542-2.191 1.265-4.359 2.07-5.871.329-.563-.073.022.478-.705l1-1.245a31.954 31.954 0 0 1 1.848-2.079 23.29 23.29 0 0 1 5.501-4.216 29.22 29.22 0 0 1 2.76-1.355c.885-.383 1.849-.768 2.504-.955 2.912-.93 5.591-1.051 7.286-1.074 3.52-.065 6.714.311 9.66.85 2.962.513 5.682 1.263 8.344 2.15 5.305 1.807 10.481 4.099 16.294 8.107-3.238-6.243-7.264-11.16-12.687-15.043-2.717-1.926-5.808-3.584-9.41-4.759a37.66 37.66 0 0 0-12.344-1.959c-2.32.045-5.653.075-10.411 1.536-1.265.388-2.286.805-3.489 1.316a39.954 39.954 0 0 0-3.731 1.827 34.007 34.007 0 0 0-7.966 6.092 42.141 42.141 0 0 0-2.434 2.724l-1.179 1.465-.775.997c-.341.544-.558.984-.735 1.297-1.471 2.818-2.312 5.596-3 8.317a65.066 65.066 0 0 0-.853 4.009l-.321 1.949c-.092.553-.204 1.567-.207 1.47-.264 1.357-.922 2.494-1.212 2.742-.209.21-.249.198-.332.227 0 0-.018.011-.026.021l-.003.004-.696.212-.026.01-.102.04-.202.079-.796.326a19.99 19.99 0 0 0-1.56.745c-.514.275-1.019.571-1.523.922a12.22 12.22 0 0 0-1.668 1.371 10.603 10.603 0 0 0-2.146 2.979c-.986 1.994-1.155 3.773-.963 5.132.182 1.366.559 2.342.841 3.046.152.407.467 1.016.564 1.212l.391.699.578.905.482.665c.276.34.127.154.167.204h.001l.001-.001-.097.76c-.114 1.277-.077 1.994-.07 2.486l.042 1.058.026.496.037.729c.04.466.045 1.771.034 1.495-.004.285-.604 1.361-1.951 4.178-.607 1.39-1.399 3.517-1.282 6.23.031 2.659 1.485 6.025 3.991 8.019l.001.001c-.662-.583-.634-.559-.068-.054.289.245.719.59 1.322.975.31.194.636.391 1.098.616l.203.095.117.053.106.045.054.022c-.339-.169.778.386-.757-.378l.003.001.005.003.161.097.339.205 7.834 4.727.63.382c.046.047.963.561 1.041.587l1.731.963c1.223.704 2.829 1.728 3.69 2.506.101.084.023.019.044.035l-.019-.039c.039.074.063.19.1.278.11.383.086.629.08.609-.013.005.044-.073-.069.08-.125.066-.167.178-.405.286l-.247.168h.006c.238-.004-.566.009-.999.061-.487.047-.961.083-1.41.16-.905.118-1.747.306-2.546.492-5.862 1.415-9.835 4.848-11.936 7.733-.999 1.497-1.796 2.8-2.241 3.977a15.45 15.45 0 0 0-1.062 2.996c-.167.625-.356 1.257-.478 1.855l-.23 1.719-.104.844-.049.418-.033.259-.024.182.044-.297h.001l.001.001c.022.011-.002.012.033.033.081-.033-.198.435-.472.769-.284.381-.71.767-1.123 1.14-.867.725-1.857 1.354-2.747 1.754-.929.39-1.45.594-2.463.564-1.993-.057-4.651-1.184-7.291-2.549-2.684-1.322-5.5-3.168-8.854-4.367zM167.404 21.853c.091.801-.293 1.639-.84 2.089-.546.472-1.185.797-1.872 1.052-1.363.51-2.834.769-4.271.994-2.898.422-5.781.617-8.741.866-2.967.241-6.018.498-9.368.888-1.684.201-3.41.417-5.369.761-2.182.361-4.144 1.079-6.308 1.716l-2.55 1.024-1.62.666-1.858.96c-2.674 1.32-6.163 3.511-10.017 7.387-3.585 3.572-7.341 9.344-9.662 15.766-2.46 6.409-3.972 13.283-5.214 19.472a188.218 188.218 0 0 1-1.807 8.331c-.669 2.465-1.285 4.685-1.961 6.474-.581 1.839-1.22 3.234-1.634 4.216l-.643 1.526s-.849 1.776-2.413 4.546a42.537 42.537 0 0 1-7.71 9.585c-3.535 3.285-8.158 6.124-13.132 8.014-4.965 1.903-10.171 3.015-14.621 3.469-5.715.74-10.072.317-13.593-.344-3.495-.634-5.992-1.599-7.706-2.219-6.902-2.697-12.237-5.676-17.554-8.385a473.759 473.759 0 0 0-16.939-8.393c4.221 5.634 7.823 10.315 12.349 14.722 2.273 2.189 4.758 4.324 7.731 6.351 2.93 2.069 6.414 3.971 10.566 5.641 2.07.776 5.114 1.962 9.511 2.789 4.325.858 10.194 1.368 16.913.489 5.031-.517 11.141-1.777 17.212-4.111 6.074-2.305 12.006-5.934 16.511-10.145a53.141 53.141 0 0 0 9.65-12.033c1.9-3.362 2.89-5.485 2.89-5.485l.766-1.789c.491-1.152 1.24-2.808 1.917-4.903.783-2.077 1.492-4.579 2.247-7.354a197.085 197.085 0 0 0 1.95-8.869c1.208-6.006 2.665-12.393 4.739-17.751 1.984-5.438 4.788-9.571 7.326-12.142 2.759-2.765 5.231-4.377 7.291-5.382l1.397-.741 1.273-.522 1.997-.829c1.758-.519 3.423-1.212 4.878-1.543l5.037-1.256c3.305-.865 6.382-1.828 9.331-2.985 2.947-1.168 5.792-2.492 8.587-4.272 1.387-.908 2.783-1.897 4.025-3.24.613-.662 1.189-1.452 1.532-2.365.349-.929.271-1.904-.223-2.736z" opacity=".5"/><path fill="#36499B" d="M174.469 24.149c1.784 3.028 2.581 6.068 3.128 8.909.514 2.863.638 5.605.608 8.356-.026 2.757-.39 5.553-.803 8.549-.345 1.502-.511 3.058-.96 4.685l-.6 2.505-.74 2.789c-.358 1.3-.813 3.003-1.555 5.47l-1.351 4.384c-.504 1.771-1.254 3.717-1.697 6.914a17.99 17.99 0 0 0-.118 3.038c.015 1.019.261 2.411.51 3.396.531 2.092 1.255 3.87 2.001 5.571a70.713 70.713 0 0 0 2.278 4.635l1.07 1.94.396.684v-.005c-.222.073.816-.362-1.37.783-.879.409-1.664.652-2.807.943l-1.037.277a14.12 14.12 0 0 0-1.6.552c-1.014.419-1.907.968-2.64 1.624-2.896 2.689-3.323 6.43-3.415 7.826l-.057 1.642s-.01.208-.061.528c-.057.318-.184.88-.641 1.935-.421.974-1.151 2.295-2.319 3.895a35.51 35.51 0 0 1-2.052 2.557l-.747.82-.741.769-.381.389c-.096.149-.133.337-.203.505l-1.073 2.984-1.449 4.014-.205.57c-.038.106-.01.027-.019.05l.003-.008s.015-.01-.007-.001c-.178.148-.387.266-.58.397-1.65.956-3.039.871-4.575.212-1.446-.62-3.978-2.656-5.881-4.094a207.953 207.953 0 0 1-5.187-4.154l-3.905-3.299a4983.119 4983.119 0 0 1-2.998-2.643c-.373-.352-.84-.571-1.267-.834a13.6 13.6 0 0 0-1.175-.572 14.255 14.255 0 0 0-2.06-.733 14.162 14.162 0 0 0-4.321-.548c-2.959.058-5.821 1.236-7.781 2.832-1.057.769-1.774 1.671-2.533 2.529-.588.891-1.287 1.769-1.672 2.654-.903 1.746-1.564 3.538-1.92 5.382-.74 3.676-.377 7.406.99 10.596 1.325 3.202 3.427 6.001 6.177 8.219-2.696-6.541-2.075-12.29.255-16.357 1.148-1.995 2.903-4.286 4.434-4.978.763-.397 1.355-.49 2.101-.449a4.73 4.73 0 0 1 1.276.27c.232.065.48.176.706.282.106.043.287.145.177.087l-.003.004 2.61 2.324 4.078 3.472a210.111 210.111 0 0 0 5.453 4.386l3.322 2.516.898.661 1.189.786c.795.555 1.752 1.033 2.749 1.493 1.794.765 4.14 1.476 6.803 1.402 2.652-.049 5.365-.921 7.574-2.241.546-.343 1.085-.686 1.586-1.082a15.902 15.902 0 0 0 1.908-1.72c.275-.318.615-.595.793-.97.165-.383.35-.75.495-1.138l.602-1.683 1.434-4.02.39-1.091.077-.215-.001.002v-.001l.646-.725a46.078 46.078 0 0 0 2.657-3.328c1.546-2.131 2.692-4.137 3.461-5.925.746-1.705 1.191-3.308 1.368-4.441.176-1.134.182-1.646.182-1.646l.061-1.61c.068-.632.058-.368.057-.419l-.002.004-.002.002.68-.177c1.2-.297 2.941-.793 4.606-1.574.879-.413 1.569-.745 2.69-1.498a11.338 11.338 0 0 0 3.022-2.971c1.858-2.592 2.374-6.252 1.257-9.587a9.577 9.577 0 0 0-.633-1.521l-.523-.902-.926-1.689a61.909 61.909 0 0 1-1.929-3.932c-.602-1.353-1.145-2.769-1.408-3.838-.128-.596-.19-.773-.204-1.273a7.313 7.313 0 0 1 .042-1.259c.173-1.461.793-3.396 1.288-5.044l1.368-4.486c.774-2.607 1.248-4.426 1.612-5.805.258-1.029.507-1.992.721-3.008l.562-3.055c.384-1.976.423-3.952.558-5.799.001-3.759-.349-7.24-1.301-10.501-1.891-6.43-5.48-12.28-11.474-16.151z"/><g fill="#36499B"><path d="M261.358 62.004h-18.842v28.753c0 4.11-.971 7.228-2.91 9.352-1.942 2.124-4.389 3.186-7.344 3.186-3.095 0-5.59-1.05-7.485-3.152-1.892-2.1-2.838-5.182-2.838-9.248V12.609c0-4.527 1.037-7.76 3.117-9.699C227.133.97 230.436 0 234.961 0h26.396c7.806 0 13.811.6 18.015 1.801 4.155 1.155 7.746 3.073 10.772 5.751 3.023 2.679 5.323 5.958 6.894 9.837 1.569 3.881 2.354 8.245 2.354 13.094 0 10.347-3.186 18.186-9.559 23.521-6.375 5.333-15.865 8-28.475 8zm-4.987-46.554h-13.855v31.037h13.855c4.849 0 8.902-.508 12.158-1.524 3.256-1.015 5.738-2.678 7.447-4.988 1.709-2.308 2.564-5.334 2.564-9.075 0-4.48-1.317-8.129-3.95-10.946-2.954-3.004-9.028-4.504-18.219-4.504zM347.025 86.254l-16.281-64.708v70.113c0 3.878-.867 6.788-2.599 8.727-1.732 1.942-4.031 2.91-6.894 2.91-2.772 0-5.034-.958-6.788-2.875-1.756-1.914-2.633-4.837-2.633-8.762V11.292c0-4.434 1.154-7.424 3.463-8.972S320.721 0 324.648 0h6.373c3.834 0 6.618.346 8.349 1.039 1.732.693 3.014 1.94 3.844 3.741.832 1.802 1.779 4.735 2.841 8.799l14.757 55.631 14.757-55.631c1.062-4.063 2.011-6.997 2.841-8.799.832-1.801 2.114-3.048 3.846-3.741S386.768 0 390.604 0h6.373c3.925 0 7.042.773 9.352 2.321 2.31 1.548 3.466 4.538 3.466 8.972v80.366c0 3.878-.867 6.788-2.599 8.727-1.732 1.942-4.053 2.91-6.963 2.91-2.725 0-4.965-.968-6.719-2.91-1.756-1.939-2.633-4.849-2.633-8.727V21.546L374.6 86.254c-1.065 4.202-1.929 7.287-2.599 9.248-.669 1.964-1.904 3.752-3.708 5.37-1.801 1.615-4.296 2.423-7.482 2.423-2.401 0-4.434-.519-6.096-1.559-1.662-1.037-2.957-2.366-3.878-3.982-.926-1.618-1.653-3.406-2.184-5.37a701.932 701.932 0 0 1-1.628-6.13zM457.261 58.126h-7.205v32.631c0 4.296-.946 7.46-2.838 9.49-1.895 2.033-4.365 3.048-7.415 3.048-3.278 0-5.817-1.062-7.62-3.186-1.801-2.124-2.702-5.242-2.702-9.352V12.609c0-4.434.993-7.644 2.979-9.63C434.444.993 437.655 0 442.089 0h33.463c4.617 0 8.566.196 11.847.588 3.278.394 6.235 1.191 8.868 2.391a25.719 25.719 0 0 1 8.453 5.751c2.448 2.494 4.305 5.392 5.575 8.694 1.272 3.304 1.907 6.802 1.907 10.497 0 7.575-2.137 13.625-6.41 18.151-4.271 4.527-10.75 7.738-19.433 9.63 3.648 1.939 7.136 4.804 10.461 8.591a86.922 86.922 0 0 1 8.902 12.089c2.611 4.273 4.644 8.129 6.099 11.57 1.455 3.441 2.181 5.81 2.181 7.102 0 1.339-.427 2.668-1.282 3.984-.855 1.314-2.021 2.354-3.498 3.117-1.48.761-3.186 1.141-5.128 1.141-2.31 0-4.249-.543-5.82-1.628s-2.92-2.458-4.051-4.12c-1.134-1.665-2.668-4.11-4.609-7.344l-8.243-13.719c-2.957-5.034-5.602-8.868-7.934-11.501-2.332-2.631-4.698-4.434-7.099-5.402-2.403-.972-5.429-1.456-9.077-1.456zm11.777-42.676h-18.983v27.92h18.43c4.943 0 9.098-.427 12.472-1.282 3.369-.855 5.946-2.31 7.724-4.365 1.776-2.055 2.668-4.885 2.668-8.487 0-2.816-.719-5.3-2.149-7.448-1.433-2.148-3.419-3.752-5.958-4.814-2.401-1.016-7.137-1.524-14.204-1.524zM595.352 16.974h-22.446v73.783c0 4.249-.946 7.403-2.841 9.456-1.895 2.055-4.343 3.083-7.344 3.083-3.048 0-5.531-1.037-7.447-3.117-1.917-2.077-2.875-5.217-2.875-9.421V16.974h-22.446c-3.51 0-6.121-.773-7.828-2.321-1.709-1.548-2.564-3.592-2.564-6.132 0-2.632.889-4.711 2.668-6.235C524.004.762 526.58 0 529.952 0h65.4c3.557 0 6.203.786 7.934 2.355 1.732 1.571 2.599 3.626 2.599 6.165 0 2.541-.879 4.585-2.633 6.132-1.757 1.548-4.39 2.322-7.9 2.322z"/></g></svg>