<svg xmlns="http://www.w3.org/2000/svg" width="508.758" height="283.464" viewBox="0 0 508.758 283.464"><g fill="#1D1D1B"><path d="M.06 273.186V200.47v-37.879c0-5.521 4.568-10.09 10.089-10.09 5.329 0 9.707 3.619 10.47 7.806 7.042-4.569 16.178-7.806 25.887-7.806 25.316 0 46.065 21.7 46.065 47.78 0 26.076-20.749 47.206-46.065 47.206-9.517 0-18.655-2.854-25.507-7.804v33.502c0 5.33-4.758 10.279-10.85 10.279-5.521 0-10.089-4.949-10.089-10.278zm20.939-72.905c0 7.422 2.475 14.657 7.424 19.034 4.758 5.331 11.04 7.995 18.083 7.995 6.471 0 12.944-2.664 17.893-7.995 4.378-4.376 7.423-11.612 7.423-19.034 0-7.424-3.045-14.277-7.423-19.225-4.949-5.14-11.422-7.806-17.893-7.806-7.043 0-13.324 2.666-18.083 7.806-4.95 4.948-7.424 11.801-7.424 19.225zM120.16 233.781c-8.185-8.375-13.134-20.176-13.134-33.5 0-12.945 4.949-24.176 13.134-33.312 8.566-8.946 19.605-14.468 32.739-14.468 12.563 0 23.985 5.522 31.788 14.468 8.566 9.135 13.326 20.367 13.326 33.312 0 13.324-4.76 25.125-13.326 33.5-7.803 8.948-19.225 14.468-31.788 14.468-13.134.001-24.173-5.52-32.739-14.468zm7.613-33.5c0 8.184 2.475 14.846 6.853 20.177 4.76 4.568 11.041 7.042 18.273 7.042 6.662 0 12.754-2.475 17.512-7.042 4.76-5.331 7.425-11.994 7.425-20.177 0-7.806-2.665-14.658-7.425-19.796-4.758-4.188-10.85-7.235-17.512-7.235-7.232 0-13.514 3.048-18.273 7.235-4.378 5.139-6.853 11.99-6.853 19.796zM216.088 273.186V200.47v-37.879c0-5.521 4.567-10.09 10.089-10.09 5.327 0 9.706 3.619 10.469 7.806 7.041-4.569 16.179-7.806 25.888-7.806 25.316 0 46.065 21.7 46.065 47.78 0 26.076-20.749 47.206-46.065 47.206-9.518 0-18.655-2.854-25.508-7.804v33.502c0 5.33-4.758 10.279-10.849 10.279-5.521 0-10.089-4.949-10.089-10.278zm20.938-72.905c0 7.422 2.474 14.657 7.424 19.034 4.759 5.331 11.04 7.995 18.084 7.995 6.472 0 12.943-2.664 17.893-7.995 4.378-4.376 7.424-11.612 7.424-19.034 0-7.424-3.046-14.277-7.424-19.225-4.949-5.14-11.421-7.806-17.893-7.806-7.044 0-13.325 2.666-18.084 7.806-4.95 4.948-7.424 11.801-7.424 19.225zM327.433 273.186V200.47v-37.879c0-5.521 4.565-10.09 10.086-10.09 5.329 0 9.708 3.619 10.47 7.806 7.04-4.569 16.18-7.806 25.89-7.806 25.315 0 46.063 21.7 46.063 47.78 0 26.076-20.747 47.206-46.063 47.206-9.518 0-18.658-2.854-25.508-7.804v33.502c0 5.33-4.762 10.279-10.852 10.279-5.52 0-10.086-4.949-10.086-10.278zm20.938-72.905c0 7.422 2.471 14.657 7.425 19.034 4.756 5.331 11.036 7.995 18.083 7.995 6.471 0 12.94-2.664 17.892-7.995 4.379-4.376 7.424-11.612 7.424-19.034 0-7.424-3.045-14.277-7.424-19.225-4.951-5.14-11.421-7.806-17.892-7.806-7.047 0-13.327 2.666-18.083 7.806-4.955 4.948-7.425 11.801-7.425 19.225zM453.622 163.162V237.4c0 5.709-4.374 10.276-10.276 10.276a10.235 10.235 0 0 1-10.279-10.276v-74.238c0-6.091 4.569-10.47 10.279-10.47 5.902 0 10.276 4.379 10.276 10.47z"/></g><path fill="#FFD300" d="M451.961 38.132c13.215-2.331 25.818 6.496 28.148 19.712a24.39 24.39 0 0 1 .366 4.315c12.006-.536 22.839 7.897 24.98 20.052 2.144 12.154-5.152 23.782-16.618 27.386a24.34 24.34 0 0 1 1.134 4.182c2.33 13.217-6.493 25.818-19.71 28.148-10.033 1.771-19.707-2.894-24.807-11.022a24.173 24.173 0 0 1-12.162 5.988c-13.217 2.33-25.82-6.494-28.15-19.71-1.181-6.697.508-13.233 4.178-18.359-5.202-3.562-9.023-9.129-10.206-15.826-2.328-13.217 6.496-25.818 19.713-28.15a24.172 24.172 0 0 1 13.716 1.571c2.187-9.131 9.584-16.551 19.418-18.287z"/><g fill="#1D1D1B"><path d="M452.646 36.891c-1.32.339.797.419-.839.367.136-.269.372-.493.839-.367z"/><path d="M447.524 38.525c-1.745 1.483-3.856 2.566-5.904 4.003-2.031 1.409-3.968 3.201-4.9 5.354-.25.479-.628-.63-1.156.512-.386 1.169-.886 2.426-1.402 3.77-.536 1.364-1.08 2.984-1.531 4.422a49.212 49.212 0 0 0-4.088-1.766 34.665 34.665 0 0 0-4.039-1.197l.357-.221c-1.087-.261-2.402.547-3.509.514-.022-.165.345-.256.068-.462-.252.499-2.023.416-2.434.88-.47-.123-.492-.5-1.111-.599l-.519.681c-.713.865-1.721 1.102-2.83 1.415-1.105.292-2.33.642-3.214 1.528.036-.169.199-.373-.028-.393-3.04 2.476-6.654 5.618-8.576 9.415-.086-.245-.31-.574-.628-.475.388.494-.157 1.675-.513 2.742-.792.21-.271 1.963-.969 3.067l-.096-.147c.319 1.09-.754 1.287-.19 2.222l-.59.5c.756.557-.681 1.309-.323 2.176l.179-.008c.124.758-.3 1.123-.187 1.828l-.102.065c.201 1.628-.143 2.609.51 2.512-.495.623-.357-1.561-1.068-.61 1.002 5.435 3.141 10.755 6.912 14.745.222.641.459.972.386 1.251.478.31 1.602 1.296 2.414 1.473-.16-.118-.081.395.109.562.22.281.553.394.959.506.084.232.214.491-.394 1.093.051-.404-.159-.483-.53-.346.119.719-.716 1.958-1.039 3.04-.026-.202.031-.474-.172-.53-.021 1.333-1.034 1.981-1.055 3.121l-.224-.505c-1 1.5.583.731-.098 2.057-.028-.374-.205-.294-.339-.4.266 1.512-.321 3.621-.161 5.006-.049-.084-.154-.07-.154-.07-.021 1.471-.211 3.047.295 4.627-.079.608-.97-.075-.575 1.492.717-.184.904 2.556 1.542 1.439.175 1.296.664 3.374 1.292 4.056-.525-.422-.574 1-1.111-.001-.034.33-.036.651-.053.984-.343.019-.299-.862-.538-.443.274.534 1.322 1.905 1.508 2.397.965.693 2.227.979 3.336 2.184-.737-.412-.363.891-.813.562.888.304 1.775.545 2.661.719.413.347-.352.529.372.918.107-.178.447-.042.731-.009.077.232 1.837 1.237 1.607 1.985.024.391-.821-.403-.483.18.854.581 1.025.405 1.909.916l-.036.097c.528.462 1.897.662 1.444-.044-.393-.239-.059.485-.557-.03.626-.164 1.679.26 2.595.608-.355-.015-.398.186-.611.33 1.467-.012 2.826.248 4.284.327.108-.344-.672.506-.841.266 1.754.984 3.883.031 5.376.767-.258.064-.126-.513-.111-.412.884.044.861.583 1.444.354.073.304.739-.122 1.325-.289.284-.252.172.133-.352.221.859-.278 4-1.29 5.914-1.618-.094-.177.813-1.121 1.197-1.284l.044.505c.49.099 1.303-.682 1.555-.362.274-.482-.451.075-1.185.564-.733.496-1.467.935-.944.492.481.245 1.311-1.418 1.334-.72.396-.208.724-.528 1.055-.814.167-.141.34-.266.526-.37.191-.108.354-.133.75-.271-.086.037-.171.133-.254.253a.553.553 0 0 0-.015.274c.073.149.104.354.567.026 1.456-1.113.323-.484 1.514-1.602l.751-.88c.017-.615 1.415-1.132.815-1.302.113.179.762-.5 1.322-1 .357.54.645 1.086.481 1.49l-.314.625c.423.567.94.245 1.473.551.043.163.12.489.047.557.258-.455.564.065.938.627.37.605.772 1.182 1.363 1.313.622 1.215 2.042 2.042 2.126 2.851.869.336 1.692.514 2.417 1.208-.215-.027-.457-.153-.611-.021.382.57.648.456 1.217.607-.187.058.829 1.096 1.366 1.685.937.116.845-.475 1.048-.718.406 1.181 2.457.31 3.172 1.324-.317.05-1.359.094-.709.512.579 1.108 1.753-.245 2.939.375l-.201-.799c.5.576 1.888-.226 1.692.53.439-.227 1.504.317 1.374-.427 2.138.697 4.9-.801 6.465.086.261-.21 1.03-.316.762-.631-.601-.246-.587.492-.847.277.254-.104.252-.315.25-.42.666-.024 1.187-.142.782.634 1.58-.082 1.008-1.663 2.743-2.182.061.307.245.36.696.051.22-.318.431-.629.622-.96 1.063-.507.944.224 1.253.655.5-.439 1.175-.889 1.167-1.384.343.018.688.022 1.03.013-.75.007.223-.584.363-.888l-.146.3c.242.094.709-.537.949-.839-.295-.17-.937.26-1.313.457.104-.381.504-.696.634-1.176.246.461 1.002-.47 1.363-.828.479-.364.092-.791.209-.909.212.158.628-.704.632-.123-.063.209-.485.19-.514.593.39-.171.726.151.969-.69.161-.642-.892-.483.037-1.199-.073.311.059.474.066.77.287-.234.571-.477.84-.733l-.36-.295c.18-.055.157.049.246.028-.22-.521.74-1.471.357-1.953.216-.479.793-.843 1.061-1.288l-.006.105c.51-.458.662-1.319.532-1.914l.088.06c.162-.303.318-1.103.173-1.578.54-.734 1.783.151 1.426-.944.181-.901-.593-1.524-.933-1.223.569-1.515-.104-3.279.524-4.732-.201-.212-.297-.066-.449-.512a7.73 7.73 0 0 0-.162-1.497c-.049-.249-.094-.5-.165-.742l-.318-1.22c-.575-1.77-1.235-3.609-1.445-4.931a15.732 15.732 0 0 1 1.544-.236c-.853.496.466.331.756.511.395-.568 1.376-.031 1.006-.655-.471-.279-.542-.465-1.832-.195 1.066-.491 2.582-1.065 3.891-1.637l.701-.307.476-.188c.3-.113.576-.171.784-.191-.421.029-.234-.233-.056-.494.261.629 1.187.174 1.667-.466l-.157-.395.643.041c.16-.279-.276-.862.54-1.029.13.095.271.192.449.188.384-.778.741-1.911 1.544-2.297l.898-.136c.197-.317.272-1.022-.242-.631 1.179-.883 1.694-1.673 2.39-1.791.29-2.799 1.453-5.973 1.865-8.773l.292.123c.374-.725-.469-.452-.213-.951.269.277.675-.53.981.11.416-1.106-.435-1.476-.573-2.175-.402-.107.265.572-.248.431-.134-.113.289-1.511-.341-1.64.222-.284.677-.111.931.026-.11-.22-.218-.437-.344-.65.643-.932 1.4 1.838 2.202.907l-.134-.672c.594-.715.821 1.791.935.025-.355-.755-1.309-1.261-1.501-.59-.35-1.468-1.494-.502-1.715-2.004.276-.482.313 1.184.743.816.366-.819-.54-1.399-.534-2.055-.049.754-.788.305-1.004-.089.053-.809.695.325.439-.741-.374-.082-.953-.915-.902-.042-.872-.101-.152-1.115-.949-1.417.378-.55 1.613.555 1.418-.673-.41.365-1.275-1.048-1.734-.142-.043-.472.305-.707.749-.543 0-.772-1.599-.95-.792-1.663l-.583.085c.043-.265-.002-.583.063-1.038-.32-.518-1.7-1.084-1.021-1.55-.181-.104-1.028-1.15-1.122-.377.259.844.937.462.598 1.3.156-.849-.799-.864-1.254-1.058l.188-.27c-.276-.123-.665-.635-1.036-.502.278.016.357-.211.252-.425l-.543.146c-.987-.561.4-.821-.54-1.436.301.08.597.173.892.276-.187-.068-.179-.67-.705-.903-.442.202-1.083.393-1.426.566-.596-.209.077-.575-.679-.546.316.001.64.004.957.029.192-.045.006-.929-.729-1.397-.559-.175-1.585-.046-1.002.599-.346-.215-.728-.725-.276-.847-.904-.336-.126.467-.967.326-.145-.414-.886-1.258-1.333-1.892.369-.124.739-.228 1.117-.324l-.549-.256c.968-.229-.192-.58.47-.979-.366-.251-.931-.265-1.378-.24.793 1.345-1.741.847-1.668 1.862-1.52-.171-.406-2.462-2.358-1.394.219.284-.656.83.352.753-.462-.155-.669.067-.878.224-.262.16-.315.293-1.066.03.438-.054.339-.165.375-.276-.034-.118-.038-.244-.247-.391-.165-.143-.293-.288-.229-.418.014-.133.438-.234.702-.338-.119.283.667.325.874.276-.357-.408.244-.912-.816-1.056-.772-.031-2.32-.036-2.276.445-.154.525 1.711-.012.838.497-2.45.122-2.288-.635-3.928.311 1.561-.094 1.681.445 1.475.806l-2.163.259.644-.362c-1.965-.131-1.926.225-2.682.456-.104-.146-.181-.541-.171-1.589l.65-1.972c.378.203.217 1.845.268 2.782.604-.034 1.063-.15 1.197-.517-.258-.001-.5.01-.728.03-.098-1.138-.427-1.57-.258-3.192.092.335.128.837.224 1.143.008-.333.323-.888.534-1.535.205-.663.311-1.354-.167-2.375-.442-1.1-.382-.25-.739-.19-.065-.403-.104-.519-.146-.665-.042-.147-.102-.28-.15-.401a8.699 8.699 0 0 0-.296-.633c-.208-.366-.391-.666-.539-1.099.735-.012-.421-1.589.573-.821-.203.579.303 2.576 1.036 3 .187-.168.282-.181.337-.098a.54.54 0 0 1 .056.186l.046.445c.088.641.065 1.573.513 1.617-.096-1.967.638-1.973 1.164-2.32-.013-.371-.309-.677-.438-.87-.527-.048-.429.406-.938.524-.1-1.403-.794-2.629-1.497-3.161.081-.507.607-.555.843-.047-.672-1.528-1.365-3.142-2.062-4.575-.167 1.28-1.1-1.367-1.313-.401.314.784.13 1.676-.407 1.497-.207-.442.319-.178.364-.445-.701-.286.059-1.233-.884-1.335 1.04 1.019.993-.349 1.678-.507-.937-.694.417-.234-.25-1.128l-3.054-2.227c-.683-1.537-2.996-2.479-4.169-3.102-.453-.646.329-1.041-.321-1.539-.841-.427.254 1.02-.826.092l.185-.074c-.421-.047-2.166-1.507-2.912-.617l.669-.606c-.224-.156-.512-.069-.741-.059.072-.247-.15-.568.316-.594-.679-.8-1.813-.467-2.738-.632l.489.591c-1.632.003-2.615-.602-4.188-.536l.071-.459c-.317.08-.632.143-.943.241.244-.442-.636-.748-1.127-.354a24.09 24.09 0 0 1 2.531-1.08c.683.312-.805.514-.39.994.343.395 1.785.426 2.09.04-.555-.141-.599-.029-1.05.088-.124-.655.739-.557 1.237-.899-.307-.026-.72-.274-.809-.074.634-.236 1.266-.215 2.268-.017-.724.108.284.463-.011.591.189-.541 1.201-.515 2.365.014.646.869 2.388.363 3.667 1.187a6.255 6.255 0 0 1-2.523.286c.707.594.925.338 1.6.976.564-.208 1.134-.67 2.316-.32l-.154.399c1.023.36 1.373-.175 2.468.712 1.841 1.546 3.604 3.249 4.716 4.688l-.278.323c1.368.18 2.292 2.462 3.271 3.455.805 2.181 2.465 4.507 2.064 5.881.199.573.398 1.138.549 1.708.175.571.303 1.193.388 1.472.171.712.278 1.363.321 2.016.504-.047.985-.066 1.469-.048.538.034.784.054 1.807.229-.269.16-.533.342-.791.516.809-.361.439.412 1.171.435-.758-.632 1.115-.46 1.729-.689 1.75.891 4.184 1.22 5.939 1.646l-.131.409c1.925.082 3.41 1.799 4.948 3.263.079.296.121.834.611 1.225 1.309.283 1.725.744 3.178 1.781.837.965 1.896 2.768 2.285 4.013 1.607 1.805 2.64 4.083 3.282 6.452.653 2.378.938 4.847 1.168 7.388l-.508.349c.461 2.445-.017 5.237-.904 7.732-.898 2.512-2.192 4.714-3.147 6.606l-.485-.807c-.904.922-1.553 2.487-.886 2.617-1.002.864-1.92 2.762-3.032 2.81-1.097.777-.982 1.381-1.824 2.162l-2.808 1.575-1.217.7c-.297.178-.31.216-.494.341l.205-.033c-.04-.185-.209-.503-.481-.439-.148.342-1.52.339-.089.859a2.072 2.072 0 0 0-.257-.011c-.077.259.199.75.355 1.127.34 1.291.569 2.878.238 4.104.264-.241.357.433.545.718.053 2.479-.813 4.928-.823 6.902-.229.341-.307-.699-.577.242-.041.588.348.101.317.841-.588 4.04-3.523 7.218-5.639 9.957-1.796 2.603-4.261 4.847-7.042 6.486-2.781 1.646-5.827 2.751-8.814 3.359l.029-.213c-1.916 1.207-4.759-.187-6.366.894-.479-.194-1.847-.212-1.452-.571-1.717.424-4.364-1.137-6.74-1.283.197.089.33.091.592.088-2.061-1.167-4.216-1.489-6.116-3.169.259.058.679.242.844.105-.587-.792-2.363-.521-2.207-1.626-.431-.318-.605.155-.32.339a56.315 56.315 0 0 1-3.599-3.393l-1.19-1.196c-.271.324-.524.612-.756.855l-.169.174-.081.082c-.039.028.028-.007-.021.026l-.177.122c-.47.328-.953.632-1.442.924-3.922 1.255-.898-1.324-3.499.593-.305-.083-.04.418-.152.245-1.074.681-2.113-.437-2.761.265.485.495-.453.469-.395.822-2.484.147-2.988-.384-4.84.23l.124-.323c-2.192 1.041-4.782.385-6.851 1.005-6.313-1.108-12.128-4.327-16.356-9.049-4.263-4.697-6.835-10.932-7.099-17.357a29.93 29.93 0 0 1 1.277-9.259 27.979 27.979 0 0 1 1.707-4.342l.146-.31.081-.141-.145-.099-.064-.054-.272-.261a26.632 26.632 0 0 1-3.155-3.637c-1.873-2.62-3.316-5.584-4.106-8.734.019-3.105-.032-3.225-.699-6.419.139.122.186.32.297.097-.709-.12-.156-2.259-.778-2.577.256-4.703 1.237-9.068 3.601-13.34-.303.717.017 1.307.398.497.016-.348.061-.686.098-1.034l.239-.034c.222-.585.337-1.331-.211-.91 3.08-5.392 8.326-9.417 14.106-11.292 2.887-.962 5.886-1.426 8.871-1.471a31.733 31.733 0 0 1 4.459.256c.736.094 1.472.216 2.197.356l1.095.228c.181.163.445.28.671.364l.102-.662c.012-.098.024-.201.053-.33-.022.012.081-.242.181-.483l.278-.67c2.432-3.882 5.53-6.9 8.992-9.245 3.473-2.342 7.316-4.05 11.641-5.148.007.051-.9 1.816-3.927 3.303z"/><path d="M454.268 36.642c.322.318 1.255.464.542.955-.105-.318-.615-.648-.542-.955zM473.747 48.851c.098-.038.077.332.073.419-.186-.2-.563-.225-.551-.502.185.2.286.07.478.083zM476.329 53.799c-.307.028-.991-.944-1.343-1.528.461.484.916.99 1.343 1.528zM476.483 59.122c-.071.462-.146.656-.224.57-.038-.042-.079-.155-.117-.334l-.098-.571c.155-.052.254.041.439.335zM477.251 59.655c.075.79-.098 1.271-.242 1.768.252-.139-.25-1.913.242-1.768zM488.241 67.244c.246.055.857.017.947.425-.158-.334-1.278-.072-.947-.425zM492.874 69.014c.128.101.148.188.352.224.165.284-.218.289-.435.173l.083-.397zM461.73 139.589l.588-.039-.135.279zM421.203 133.541c-.604-.034-.263-.416-.331-.491.483.167-.32.279.331.491zM405.871 116.962l.041.182-.624.046z"/></g><g fill="#1D1D1B"><path d="M446.606 109.952c2.678 0 5.295-1.229 7.851-3.691 2.554-2.46 4.594-5.669 6.122-9.627 1.525-3.956 2.29-8.145 2.29-12.57 0-3.552-.734-6.089-2.197-7.617-1.465-1.526-3.754-2.29-6.869-2.29-1.809 0-3.287.25-4.439.748-1.154.5-2.29 1.341-3.411 2.523-2.183 2.182-4.129 5.53-5.842 10.047-1.715 4.519-2.57 8.491-2.57 11.917 0 6.855 2.928 10.375 8.786 10.561h.279z"/><path d="M446.685 109.383c-.335.08.187.261-.22.125.047-.124.109-.219.22-.125z"/><path d="M445.33 109.474c-1.273.665-2.546-.509-3.81-.723-.142-.051.258-.352-.071-.435-.674-.054-1.351-.562-1.816-1.25-.478-.688-.681-1.562-.741-2.297l.148.03c-.037-.265-.5-.45-.551-.745.077-.027.141.052.226-.046-.269.01-.265-.463-.463-.539.064-.137.258-.174.327-.34l-.313-.098c-.745-.329-.181-1.124-.564-1.718.066.024.124.083.183.025-.528-.995-.443-2.333-.518-3.515.095.054.27.109.388.049-.291-.077-.333-.446-.361-.768.311-.11-.228-.573-.003-.923l.063.041c-.276-.317.237-.378-.105-.655l.26-.136c-.41-.191.284-.354.114-.613l-.09-.008c-.061-.229.171-.3.136-.508l.054-.009c-.027-.48.268-.692-.058-.753.295-.101.019.465.451.298 0-1.553.487-3.065.972-4.515.181-.123.252-.214.386-.21-.013-.165.136-.559.024-.747-.013.05.193-.036.235-.105.214-.218-.239-.411.004-.647.041.146.129.222.259.227-.159-.336.006-.646.04-.964.035.066.039.147.141.174-.154-.422.282-.548.222-.889l.136.175c.396-.349-.319-.282-.034-.61.016.115.102.111.166.158-.175-.488.179-1.015.231-1.412.017.033.065.049.065.049.132-.401.421-.747.485-1.227.152-.111.396.257.53-.166-.355-.164.205-.739-.303-.71.231-.311.654-.763.667-1.048.042.222.497.077.374.366l.318-.086c.118.109-.166.182.043.216.061-.141.164-.605.288-.691-.049-.365-.284-.833-.055-1.257 0 .268.423.133.395.294l-.231-.966c.081-.141.268.149.322-.097-.091-.051-.081-.169-.105-.276.071-.021.333-.595.677-.409.158.039-.1.252.114.199.183-.228.091-.32.273-.551l.043.028c.169-.107.26-.536-.038-.518-.102.095.205.113-.013.191-.075-.248.114-.558.319-.771-.024.116.057.177.107.279.061-.493.28-.865.536-1.274-.119-.136.1.356-.014.333.585-.218.676-1.093 1.309-1.109-.045.075-.189-.178-.155-.142.25-.158.395.068.49-.121.104.116.164-.177.313-.319.026-.149.081.036-.053.141.134-.262 1.03-1.042 1.758-1.04-.051-.093.266-.479.423-.515l.008.247c.171.091.479-.146.551.042.228-.375-1.096.561-.748.236.158.152.466-.537.466-.197.28-.084.508-.411.826-.241-.089-.021-.166.369.056.309.392-.118.093-.133.408-.263l.19-.126c-.014-.236.368-.014.188-.254.068.185.585-.175.574.212l-.032.307c.169-.04.258-.336.389-.479.024.027.072.085.066.135.009-.466.417.016.614-.341.367.143.937.029 1.099.32.282-.134.555-.292.874-.152-.069.037-.159.041-.186.139.191.155.248.039.443-.016-.049.07.374.298.564.508.295-.087.246-.35.299-.496.169.494.868-.146 1.1.364-.118.033-.461.104-.261.279.122.516.598-.201.939.16l.024-.397c.102.291.692.036.506.377.194-.081.423.316.536-.032.508.579 1.719.803 1.599 1.645.12.025.269.248.364.077.012-.268-.284-.061-.236-.208.078.056.163-.003.206-.032.117.223.226.359-.15.43.168.504.839-.04 1.132.604-.143.062-.163.137-.037.282.145.052.278.112.417.175.162.404-.186.377-.407.512.139.167.244.405.46.415l-.195.368c.14-.263.218.097.307.167l-.094-.069c-.087.077.06.277.133.382.14-.079.115-.339.107-.488.146.062.181.233.359.327-.252.04-.057.392-.034.563.006.2.28.147.286.206-.126.04.062.314-.156.213-.057-.052.085-.179-.055-.254-.062.151-.287.195-.06.404.169.161.482-.171.407.237-.084-.083-.186-.079-.291-.131l-.055.369.229-.035c-.047.059-.073.03-.1.059.267.053.173.506.457.539.057.174-.104.393-.105.562l-.024-.03c-.104.22.01.473.183.628l-.051-.004c-.004.112.055.368.197.496-.154.292-.863.152-.553.435.019.273.441.417.585.297-.134.508.244 1.081-.128 1.534.092.072.15.027.203.176-.096.721.224 1.554-.276 2.102-.083-.216-.229-.03-.361-.035.195.187-.228.189.122.278.211 0 .311.025.408-.173.094.442.015 1.104-.207 1.323.109-.11.162-.01.215.092-.329-.069-.414.242-.325.497l.199.06-.226.129c.056.102.409.16.18.373a.48.48 0 0 0-.226.039c.126.271.347.668.136.911l-.329.17c.014.12.158.346.276.158-.26.428-.35.715-.628.808.465.91.195 2.073-.109 2.961l-.139-.07c-.211.2.216.201.063.34-.114-.12-.358.091-.472-.148-.258.292.118.517.113.764.182.094-.064-.22.163-.099.055.06-.291.43-.028.576-.145.049-.331-.089-.431-.173l.064.253c-.42.135-.398-.774-.902-.647l-.02.2c-.362.074-.169-.6-.433-.174.068.246.422.564.613.427-.073.451.609.435.421.891-.214.065.093-.386-.175-.381-.308.133-.028.481-.177.646.183-.175.404.114.404.275-.22.185-.21-.254-.364.065.141.117.137.469.357.251.319.266-.243.305-.032.6-.301.001-.457-.582-.735-.275.274.044.154.585.602.548-.132.114-.331.045-.441-.123-.235.136.25.689-.271.54l.219.18c-.111.026-.213.088-.396.128-.086.171.07.723-.295.529.012.074-.193.465.138.438.274-.175-.055-.378.36-.351-.368.041-.133.378-.106.572l-.154-.047c.019.116-.12.294.009.426a.156.156 0 0 0-.234-.072l.171.201c-.075.403-.423-.116-.538.251l-.033-.341c.007.074-.254.08-.271.274.164.167.337.41.459.548-.017.237-.265-.038-.163.261l-.105-.374c-.049-.073-.402-.011-.542.233-.024.192.107.599.359.411-.071.126-.291.231-.372.05-.102.318.228.085.201.398-.187.023-.551.22-.841.288l-.168-.444-.1.162c-.128-.369-.256-.015-.453-.301-.104.084-.1.27-.102.417.636-.042.34.729.782.895-.199.518-1.107-.359-.827.509.148-.006.287.416.368.06-.228.245.242.454-.15.662.024-.346-.563-.032-.528-.526.105.113.233-.116.235-.192-.223.004-.357-.292-.559-.028-.085.186-.248.412-.032.526.214.152.167-.266.299-.001-.177.384-.532.189-.271.614.13-.229.384-.115.524-.001l-.102.314-.102-.157c-.398.312.167.318-.185.658l-.413-.051c-.152-.276.557-.444.122-.687-.209.224-.092.456-.376.596.013-.076.06-.15.069-.226-.088.074-.643-.263-.64.31-.037.266.089.16.221.285-.276.414-.264.632-.463.888-.209-.293-.421.381-.433-.125.256.027.76-.495.611-.859-.429-.146.295-.251.041-.608-.259.286-.555-.003-.795-.138-.083.066-.063.22-.075.293.158.206.248.102.447.271-.344.267-.532.654-.524 1.004-.19.015-.337-.199-.235-.337-.297.422-.729.774-1.152 1.03.512.109-.354.432.03.556.265-.099.634-.031.643.209-.148.092-.114-.142-.226-.163-.021.319-.49-.064-.431.346.299-.409-.246-.452-.38-.761-.148.354-.135-.188-.393.016a3.11 3.11 0 0 1-.679.98c-.557.015-1.025.63-1.41.842-.276-.048-.305-.443-.544-.397-.244.127.357.268-.086.296l.005-.083c-.082.133-.778.067-.712.596l-.019-.418c-.083-.007-.117.103-.162.165-.049-.121-.169-.201-.085-.323-.319-.169-.472.205-.729.298l.233.174c-.404.316-.774.158-1.205.324l-.026-.231-.244.176c.031-.231-.223-.337-.341-.137.207-.218.402-.43.581-.658.203.098-.148.314.004.515.132.174.538.038.547-.201-.156.016-.154.059-.256.167-.116-.307.117-.333.177-.574-.073.034-.203-.04-.197.062.115-.181.254-.25.495-.317-.132.163.145.168.108.273-.058-.28.144-.43.463-.453.327.231.476-.401.831-.462-.017.316-.102.607-.274.801.276.044.24-.11.521-.072.021-.238-.045-.576.164-.821l.108.182c.198-.217.044-.5.371-.607.557-.202 1.063-.544 1.438-.795l.141.157c-.069-.509.561-.653.685-1.032.575-.229.762-1.007 1.228-.968.604-.853 1.036-1.644 1.732-2.445l.139.324c-.065-.286.22.005.299-.173-.327.032-.107-.399-.193-.618.461-.257.596-.905.611-1.378l.189.095c-.122-.566.438-.812.735-1.259.105-.012.327-.005.38-.156-.171-.414-.067-.528-.087-1.005.13-.276.416-.689.67-.92.011-1.251.726-2.231.807-3.463l.263-.008c-.146-1.249.642-2.502.566-3.532l.396.176c.194-.28.032-.717-.28-.692.177-.285-.084-.793.292-.935.124-.303-.126-.411-.156-.678.228-.607.224-.849.203-1.449l-.038.146c.085.073.264.095.307-.051-.104-.233.166-.814-.352-.628.348-.62-.156-1.486.243-2.096-.14.051-.162-.105-.254-.172.007-.551.267-1.126.007-1.543.063-.089.243.122.243-.098-.063-.126-.181.008-.27-.143-.315-.824.066-1.742-.195-2.456-.6-1.207-1.049-2.246-1.931-2.839l.073-.074c-.483.109-.538-.813-1.076-.43-.045-.12-.306-.166-.167-.323-.366.133-.774-.543-1.335-.306.043.018.071.001.132-.032-.44-.314-.918-.087-1.435-.329.06-.038.161-.06.188-.159-.197-.216-.522.373-.611-.112-.124 0-.1.243-.024.23-1.197-.26-2.54.122-3.589.488-.849-.076-.276-.786-.788-.251-.083-.073.026.189-.017.097-.166.214-.564-.372-.625-.053.19.242-.035.202.04.368-.524.048-.771-.113-.995.305l-.063-.149c-.152.635-.737.814-.701 1.476-2.001 1.938-3.165 4.396-4.335 6.968-1.282 2.49-2.022 5.227-3.03 7.884-.559.543-.561.604-.566 1.354-.059-.042-.063-.091-.136-.057.318.107-.067.513.237.645-.267 1.01-.321 1.97-.395 3.009-.021-.167-.292-.276-.288-.075l.199.224-.098.026c.036.139.191.295.313.165.148 2.54-.273 5.215.949 7.085.136.527.707 1.005 1.156 1.271.859 1.375 2.623 2.249 4.598 2.003.001-.003-.279.874-1.183.997z"/><path d="M447.083 109.329c.081.164.335.236.162.479-.039-.157-.176-.326-.162-.479zM453.906 108.275c-.024-.045.122-.009.159-.001-.063.065-.039.231-.15.205.062-.067.003-.122-.009-.204zM455.348 107.149c.09.129-.119.485-.28.658l.28-.658zM456.978 106.349c.193-.027.22.05.083.201-.068-.044-.055-.121-.083-.201zM456.799 106.027c.09-.109.203-.104.313-.1-.102-.08-.154.305-.313.1zM459.392 103.344c.038-.083.042-.309.229-.29-.148.016-.08.467-.229.29zM460.092 101.76c.037-.042.073-.049.069-.125.108-.054.156.095.122.175l-.191-.05zM457.992 73.581l.21-.018-.074.135zM445.068 76.71c-.057.197-.191-.007-.228-.001.102-.13.094.172.228.001zM441.659 82.997l.019-.05.269.157z"/></g><path fill="#FFD300" d="M348.032 55.782c9.251-1.631 18.072 4.547 19.704 13.798a17.19 17.19 0 0 1 .256 3.021c8.403-.376 15.988 5.528 17.485 14.038 1.502 8.507-3.606 16.646-11.632 19.17.344.935.614 1.912.795 2.926 1.631 9.253-4.547 18.073-13.798 19.704-7.024 1.24-13.794-2.025-17.364-7.714a16.94 16.94 0 0 1-8.515 4.191c-9.251 1.631-18.073-4.547-19.704-13.798a16.947 16.947 0 0 1 2.924-12.851 16.957 16.957 0 0 1-7.145-11.079c-1.629-9.251 4.548-18.071 13.798-19.705a16.928 16.928 0 0 1 9.603 1.099c1.53-6.391 6.709-11.584 13.593-12.8z"/><g fill="#1D1D1B"><path d="M348.462 54.58c-.933.28.591.45-.585.328.085-.262.247-.473.585-.328z"/><path d="M344.846 55.838c-1.156 1.269-2.613 2.017-4.066 3.006-1.434.965-2.836 2.206-3.364 3.802-.158.346-.652-.593-.974.247-.198.89-.481 1.754-.841 2.76l-1.079 3.098a45.896 45.896 0 0 0-2.934-1.381c-.85-.378-1.83-.731-2.764-1.011l.261-.229c-.778-.238-1.715.573-2.493.516-.021-.164.24-.249.039-.459-.169.496-1.433.36-1.707.794-.34-.142-.376-.521-.831-.651l-.333.641c-.852 1.56-2.979.769-4.202 2.238.008-.152.109-.322-.069-.37-2.021 1.952-4.545 4.099-5.814 6.791-.109-.201-.357-.49-.638-.453.42.439.083 1.283-.133 2.037-.721.073-.032 1.426-.607 2.146l-.105-.114c.408.806-.632.863-.015 1.563l-.55.314c.782.43-.605.885-.226 1.508l.177-.001c.15.528-.276.772-.154 1.263l-.1.044c.209 1.125-.175 1.815.479 1.73-.506.448-.321-1.074-1.051-.399.908 3.782 2.345 7.438 4.964 10.217.089.497.276.779.13.99.372.201 1.164.897 1.869.993-.118-.082-.195.304-.075.421.118.204.388.275.733.344.141.148.338.312-.16.746-.032-.272-.276-.311-.622-.2.271.479-.316 1.321-.514 2.113-.051-.152-.03-.346-.256-.37.162.977-.767 1.388-.667 2.208l-.266-.391c-.833 1.009.636.587.083 1.484-.055-.27-.222-.228-.361-.314.39 1.111-.086 2.553.097 3.521-.048-.059-.154-.052-.154-.052.013 1.019-.185 2.118.259 3.203-.108.429-.959-.018-.641 1.076.731-.168.724 1.761 1.427.92.079.896.335 2.366.843 2.803-.447-.255-.66.819-1.053.127-.068.25-.111.496-.162.751-.327.054-.183-.622-.459-.277.203.378 1.023 1.304 1.123 1.671.803.421 1.902.465 2.687 1.273-.581-.227-.451.787-.795.582.736.119 1.463.183 2.179.192.29.228-.374.5.166.722.116-.169.376-.105.605-.123.037.182 1.286.792.992 1.501-.037.347-.598-.239-.411.233.596.402.758.214 1.37.563l-.041.095c.352.352 1.357.369 1.105-.234-.263-.169-.107.459-.415.045.496-.233 1.226.017 1.848.251-.256.026-.312.222-.484.384 1.079-.182 2.012-.067 3.01-.092.102-.348-.502.548-.604.326 1.168.826 2.653-.207 3.641.526-.175.065-.081-.513-.073-.411.594.043.583.579.976.361.055.305.502-.115.892-.257.184-.242.124.138-.231.208.585-.275 2.642-1.104 3.975-1.183-.086-.183.451-.98.705-1.08l.095.48c.368.151.866-.467 1.1-.134.162-.423-.342.01-.805.372-.476.376-.955.719-.628.354.382.282.78-1.18.886-.519.423-.216 1.017-1.162 1.979-1.328-.265.105-.404 1.083.183.642 1.02-.884.231-.458 1.085-1.344l.545-.712c.038-.639.999-.775.604-1.123.068.216.534-.301.93-.655.252.379.451.791.315 1.235l-.258.709c.301.379.703-.11 1.097-.007.026.14.075.426.017.516.453-.982.818 1.318 1.67 1.224.882 1.603 1.698 1.773 1.67 2.533.645.155 1.252.18 1.701.698-.161.006-.327-.071-.468.073.209.458.433.315.839.373-.15.077.47.892.793 1.39.677-.001.675-.551.852-.806.168 1.073 1.698.021 2.095.959-.22.075-.955.204-.535.56.327 1.037 1.242-.378 2.01.18l-.098-.782c.313.538 1.268-.297 1.115.464.299-.243 1.008.294.923-.448 1.442.67 3.221-.652 4.379.365.162-.181.696-.213.475-.543-.442-.294-.365.422-.566.191.169-.077.148-.282.136-.386.462.039.821-.025.61.688 1.131.08.536-1.505 1.723-1.76.087.297.228.366.524.145.117-.263.229-.521.327-.792.725-.301.756.343 1.052.778.325-.323.791-.623.707-1.057.274.068.553.126.829.173-.605-.112.088-.475.156-.71l-.072.234c.211.117.501-.345.649-.566-.271-.189-.733.07-1.006.179.021-.312.299-.51.325-.895.28.431.754-.229 1.01-.457.348-.221-.055-.628.028-.702.208.162.432-.46.528.005-.02.157-.39.073-.352.393.312-.073.654.237.736-.399.04-.481-.862-.524-.159-.936-.014.23.131.379.184.614.215-.141.431-.288.636-.446l-.368-.282c.152-.015.148.062.226.059-.282-.437.455-1.014.041-1.423.128-.324.621-.51.816-.802l.009.076c.424-.27.473-.875.288-1.303l.089.051c.12-.197.201-.742.017-1.079.472-.457 1.756.243 1.329-.542.12-.616-.673-1.076-.996-.891.481-.999-.217-2.17.441-3.138-.197-.138-.299-.039-.438-.331-.002-.372-.002-.56-.123-1.09-.102-.608-.35-1.253-.553-1.889-.466-1.284-.925-2.587-.987-3.478.392-.061.79-.102 1.192-.116-.53.385.5.318.803.495.124-.478 1.131.057.607-.515-.486-.274-.614-.444-1.589-.283.705-.37 1.775-.791 2.747-1.156l1.32-.496c.445-.18.483-.117.685-.126-.311-.036-.211-.248-.115-.456.288.61.926.333 1.2-.157l-.185-.373.51.141c.081-.221-.363-.797.258-.802.12.103.248.208.393.235.185-.604.276-1.479.888-1.649l.746.042c.115-.226.068-.766-.315-.544.87-.504 1.228-1.021 1.835-1.01-.163-2.089.549-4.104.854-5.928l.294.094c.344-.463-.489-.317-.25-.633.276.192.659-.331.981.104.385-.732-.465-.992-.604-1.446-.402-.07.261.375-.25.28-.136-.07.297-.989-.322-1.061.226-.189.679-.089.928-.003l-.326-.422c.662-.65 1.354 1.199 2.178.563l-.122-.461c.605-.513.788 1.231.935-.003-.339-.524-1.266-.835-1.483-.369-.288-.992-1.473-.279-1.603-1.275.301-.344.235.778.687.508.404-.579-.449-.919-.388-1.366-.108.52-.799.268-.976.024.13-.557.646.161.498-.548-.362-.022-.825-.532-.872.061-.829.026-.026-.749-.743-.863.422-.439 1.469.199 1.428-.649-.44.307-1.068-.589-1.617.121.024-.326.378-.548.774-.49.098-.564-1.343-.457-.496-1.106l-.544.153c.081-.205.091-.437.219-.791-.213-.348-1.318-.558-.649-1.041-.143-.05-.691-.748-.9-.11.073.625.726.209.288.92.278-.687-.54-.542-.884-.611l.205-.25c-.211-.049-.442-.396-.77-.223.226-.037.331-.237.284-.395l-.472.219c-.688-.292.466-.751-.179-1.115.226.018.447.047.671.083-.143-.024-.034-.538-.417-.652-.388.25-.918.521-1.213.732-.42-.077.157-.515-.422-.362a9.14 9.14 0 0 1 .727-.137c.157-.068.157-.811-.335-1.118-.4-.073-1.177.206-.845.697-.222-.136-.423-.549-.073-.728-.614-.171-.167.449-.754.445-.041-.358-.455-1.04-.695-1.593.274-.16.555-.306.844-.444l-.368-.174c.729-.333-.071-.528.457-.985-.239-.2-.654-.148-.975-.081.414 1.212-1.321.996-1.354 1.968-.996-.024-.081-2.362-1.478-1.18.131.268-.483.864.188.724-.329-.124-.354.116-.729.258-.301.153-.66.253-1.508.055.728-.164.431-.403.269-.663-.175-.26-.207-.542.674-.769-.207.27.857.309 1.037.264-.372-.398.268-.922-.844-1.031-.713.024-1.727.043-1.857.522-.254.525 1.248-.051.476.476-1.824.184-1.465-.617-2.895.339 1.127-.089 1.063.454.814.817l-1.602.25.555-.361c-1.341-.143-1.414.213-2.009.441-.104-.072-.179-.33-.163-1.083l.656-1.603c.374.037.205 1.258.252 1.909.433-.03.786-.144.987-.513a4.53 4.53 0 0 0-.518.025c-.092-.781-.419-.99-.238-2.206.09.213.122.563.214.755.017-.55 1.282-1.791.449-2.961-.355-.725-.354-.089-.705.053-.321-2.173-.782-1.891-.974-2.533.716-.076-.25-1.041.638-.616-.147.215-.113.642.026 1.046.106.236.48 1.235.812 1.417.756-.984.01 1.527.833 1.436-.047-1.414.717-1.653 1.229-2.043.007-.302-.271-.508-.39-.67-.522-.012-.435.398-.937.583a5.122 5.122 0 0 0-.141-.886 3.12 3.12 0 0 0-.268-.597c-.224-.359-.511-.635-.829-.785.134-.366.642-.458.816-.118-.5-1.019-.944-2.113-1.377-3.111-.344 1.002-.795-.888-1.126-.114.16.559-.139 1.247-.6 1.197-.118-.297.315-.182.398-.389-.589-.099.244-.951-.577-.878.76.619.938-.427 1.57-.658-.733-.405.404-.244-.053-.858a28.152 28.152 0 0 1-2.268-1.352c-.333-1.192-2.037-1.688-2.826-2.096-.254-.532.393-1.004-.038-1.383-.583-.291.061.921-.634.19l.146-.092c-.307.017-1.44-1.185-2.062-.261l.542-.651c-.146-.129-.365-.016-.53.017.077-.247-.057-.539.284-.605-.424-.717-1.277-.302-1.92-.41l.31.551c-1.146.115-1.801-.445-2.892-.349l.057-.46c-.224.083-.442.155-.658.252.173-.443-.442-.744-.784-.357a16.702 16.702 0 0 1 1.788-1.094c.476.3-.579.526-.293.999.231.395 1.231.379 1.467-.023-.386-.115-.422-.005-.743.126-.067-.65.538-.574.91-.94-.218-.011-.504-.244-.575-.042.462-.258.917-.257 1.632-.12-.53.147.179.443-.041.585.165-.544.904-.574 1.724-.152.397.796 1.743.145 2.647.785-.635.325-1.295.538-1.935.54.463.497.65.233 1.087.759.449-.261.937-.761 1.818-.575l-.171.39c.758.202 1.105-.33 1.874.334 1.288 1.157 2.546 2.373 3.33 3.412l-.291.308c1.175-.036 1.711 1.697 2.51 2.35.473 1.61 1.877 3.203 1.396 4.25.15.384.319.855.421 1.166.107.267.183.512.262.75a7.3 7.3 0 0 1 .276 1.357c.721-.086 1.363-.073 2.064.094-.148.181-.312.37-.498.553.502-.394.143.372.587.351-.173-.276-.071-.423.278-.512.329-.088.784-.119 1.019-.263 1.227.771 3.011.865 4.346 1.071l-.146.399c1.495-.134 2.487 1.284 3.566 2.364.026.251-.017.723.343.991 1.071.063 1.363.405 2.505 1.082.612.703 1.344 2.043 1.563 2.979 1.276 1.24 2.057 2.901 2.534 4.624.485 1.732.692 3.525.938 5.387l-.504.25c.479 1.787.136 3.85-.526 5.671-.668 1.84-1.638 3.432-2.277 4.859l-.545-.716c-.713.625-1.074 1.841-.465 2.041-.784.584-1.333 2.104-2.275 2.004-.829.536-.65 1.089-1.252 1.688-.904.469-1.516.774-2.095 1.107-.348.192-.384.275-.598.455l.161-.014c-.09-.161-.327-.442-.537-.405-.024.277-1.138.2.199.729a1.409 1.409 0 0 0-.213-.023c-.197.563.813.494.246 3.077.268-.181.349.314.536.524.04 1.84-.744 3.619-.63 5.098-.203.242-.346-.542-.551.146-.004.439.348.098.363.654-.313 3.042-2.729 5.271-4.244 7.284-2.529 3.998-7.26 6.454-11.63 7.326l.013-.21c-1.395 1.092-3.509-.348-4.688.757-.354-.194-1.365-.181-1.064-.548-1.291.453-3.178-.968-4.97-.899.142.071.241.062.442.038-1.469-.966-3.121-1.057-4.466-2.384.203.023.521.143.669-.003-.368-.665-1.859-.191-1.591-1.214-.315-.229-.522.219-.31.349l-1.318-1.228-.859-.829a18.578 18.578 0 0 0-.79-.699l-.539.675c-.209.219-.187.289-.658.595-2.954.786-.845-1.368-2.668.213-.239-.109.007.4-.095.222-.767.569-1.628-.602-2.057.043.396.518-.305.429-.239.782-1.843.007-2.213-.529-3.548.042l.083-.321c-1.582 1-3.466.395-5.032 1.12-4.663-.794-8.984-3.124-12.162-6.598-3.198-3.458-5.165-8.09-5.377-12.881a22.802 22.802 0 0 1 1.532-8.553l.35-.84c.028-.077.059-.144.098-.206a.949.949 0 0 1-.191-.147l-.707-.776a20.067 20.067 0 0 1-1.113-1.415c-1.39-1.958-2.448-4.182-3.003-6.533.222-2.365.183-2.423-.398-4.779.139.087.182.232.297.066-.703-.078-.132-1.665-.762-1.903.222-3.489.904-6.741 2.661-9.921-.209.543.155 1.044.427.442-.02-.275-.02-.544-.026-.822H310c.141-.445.154-1.05-.301-.766 2.237-4.069 6.216-7.06 10.543-8.393 2.164-.688 4.396-.998 6.613-1.005a24.772 24.772 0 0 1 3.306.216l.817.122.438.081.26.048c.146.151.336.243.49.296.055-.313.071-.706.073-.906-.006.08.19-.252.288-.38l.374-.506a22.777 22.777 0 0 1 2.442-2.722 25.044 25.044 0 0 1 3.663-2.883c2.58-1.667 5.368-2.899 8.516-3.789.002.027-.583 1.79-2.676 2.954z"/><path d="M349.619 54.382c.239.324.9.483.402.962-.077-.317-.447-.656-.402-.962zM362.725 63.704c.094-.046.017.249-.002.319-.13-.129-.459-.086-.402-.307.129.127.24.008.404-.012zM364.389 67.036c-.301.056-.824-.551-1.066-.927.361.287.723.592 1.066.927zM364.146 71.511c-.205.759-.354.659-.402-.265.15-.123.248.146.402.265zM364.853 71.716c.036.573-.135.967-.291 1.375.252-.174-.203-1.336.291-1.375zM373.035 77.282c.158.026.585-.082.598.292-.072-.293-.866.086-.598-.292zM376.097 78.279c.079.071.081.145.229.144.079.224-.214.292-.358.227l.129-.371zM355.004 126.129l.403-.075-.108.285zM326.745 121.933c-.429.037-.141-.366-.181-.429.325.101-.26.301.181.429zM315.991 110.925l.03.124-.62.066z"/></g><g fill="#1D1D1B"><path d="M350.777 106.057c-1.876 0-3.706-.862-5.496-2.584-1.788-1.723-3.215-3.968-4.285-6.74-1.068-2.769-1.604-5.701-1.604-8.799 0-2.485.515-4.263 1.538-5.332 1.026-1.069 2.63-1.603 4.81-1.603 1.266 0 2.3.175 3.106.524.809.35 1.604.939 2.388 1.766 1.527 1.528 2.892 3.871 4.09 7.034 1.201 3.162 1.798 5.943 1.798 8.34 0 4.799-2.048 7.262-6.147 7.394h-.198zM350.698 106.611c.27-.055-.141-.275.177-.11-.036.121-.09.211-.177.11z"/><path d="M351.75 106.379c.673-.854 1.931-.389 2.491-1.321.069-.083.203.386.354.167.404-.955 1.408-1.607 2.288-2.507l.085.11c.181-.167-.136-.557-.008-.739.079.022.087.103.211.087-.209-.126.011-.417-.15-.555.114-.059.301-.003.433-.09l-.241-.186c-.583-.463.211-.813-.098-1.325.063.028.109.079.177.049-.315-.775-.25-1.67-.447-2.474.102.025.285.043.391-.012-.297-.021-.395-.264-.47-.474.295-.13-.307-.339-.183-.606l.071.012c-.342-.14.142-.302-.256-.395l.219-.154c-.431-.011.171-.304-.071-.421l-.085.021c-.13-.124.065-.239-.03-.359l.047-.022c-.167-.29.022-.521-.303-.441.235-.167.187.274.528.021-.567-.958-.789-2.006-1.134-3.013.089-.157.105-.244.213-.31-.1-.078-.192-.359-.386-.392.016.031.136-.122.132-.181.053-.225-.414-.072-.348-.323a.329.329 0 0 0 .329-.033c-.303-.081-.354-.32-.512-.488.065.01.114.046.209.001-.361-.11-.102-.421-.35-.542l.206-.001c.093-.398-.406.062-.387-.256.084.04.143-.011.22-.029-.429-.11-.496-.545-.711-.741.03.004.077-.021.077-.021-.15-.248-.195-.561-.47-.779.026-.142.439-.175.24-.42-.336.182-.384-.387-.685-.024-.067-.254-.139-.684-.336-.769.186.028.348-.349.481-.175l.12-.261c.15-.06.039.177.186.03-.067-.092-.372-.287-.37-.404-.315-.05-.771.021-.996-.209.212.041.303-.309.417-.261l-.865.054c-.073-.075.235-.197.064-.263-.077.067-.166.05-.258.061.01-.058-.344-.274-.077-.548.087-.131.173.085.203-.091-.126-.154-.231-.078-.359-.227l.036-.037c-.045-.136-.38-.174-.44.068.051.073.148-.176.154-.006-.228.079-.423-.041-.553-.177.087.005.156-.069.252-.123-.389.017-.65-.12-.933-.213-.128.129.301-.168.266-.071-.095-.438-.766-.215-.764-.669.057.003-.134.221-.105.178-.114-.114.041-.32-.102-.304.077-.134-.141-.039-.254-.053-.105.066.014-.078.105-.042-.209.014-.796-.048-1.012-.35-.03.095-.307.294-.366.262l.094-.22c-.024-.159-.254-.043-.215-.246-.234.228.688-.064.408.091 0-.211-.402.273-.271-.023-.156-.033-.357.195-.465-.05.036.046.194-.297.059-.307-.242-.004-.087.099-.288.147l-.133.08c-.036.226-.203-.057-.148.21-.008-.193-.345.084-.29-.297l.059-.297c-.109.011-.199.307-.286.435a.27.27 0 0 1-.028-.14c-.037.46-.246-.052-.382.307-.216-.171-.545-.004-.658-.292-.167.143-.303.315-.494.239.032-.047.083-.065.085-.166-.13-.124-.15.001-.247.086.018-.068-.269-.253-.427-.387-.145.167-.043.403-.035.557-.231-.421-.372.362-.628.015.033-.075.167-.279.011-.354-.267-.393-.203.396-.478.265l.177.338c-.171-.184-.21.318-.335-.048-.017.146-.289-.014-.106.313-.467-.115-.548.53-1.115.186.006.079-.132.117.022.233.201.096-.021-.181.1-.098-.024.038.038.117.071.156-.132.003-.22.043-.36-.24-.343.038.306.602.033.717-.118-.1-.177-.113-.203-.024l.138.274c-.15.12-.363-.08-.591-.202-.013.124-.084.25.071.376l-.358-.005c.265.001.098.144.145.224l-.04-.076c-.11-.021-.092.138-.084.214.156.039.261-.07.327-.12.086.096.035.173.137.289-.23-.111-.23.114-.285.19-.089.083.188.177.169.203-.126-.033-.059.162-.22.034-.032-.047.143-.047.045-.137-.109.042-.329-.024-.203.164.096.14.494.095.288.256-.048-.066-.144-.1-.223-.163l-.175.165.224.057c-.063.013-.08-.008-.112-.003.218.103.019.317.282.407.009.101-.19.182-.233.274l-.017-.021c-.158.098-.081.273.067.389l-.051-.01c-.024.063 0 .223.128.314-.188.151-.878-.003-.602.204.002.18.417.294.567.231-.165.305.197.649-.148.951.096.044.152.015.209.109-.089.471.307.961-.12 1.36-.105-.128-.229.007-.361.021.214.098-.207.153.15.166.209-.027.311-.025.386-.162.124.269.175.68-.002.855.088-.087.156-.035.226.018-.333.017-.359.229-.228.368l.205-.004-.197.127c.071.051.434.007.263.184-.077.02-.154.039-.207.075.188.135.502.309.359.506l-.271.191c.043.068.238.158.303.015-.124.32-.102.51-.335.654.707.378.908 1.059 1.028 1.632l-.152.026c-.09.191.28.002.211.136-.154-.007-.269.207-.476.139-.085.266.34.203.447.321.197-.04-.156-.073.094-.124.077.001-.062.347.243.282-.093.09-.318.121-.446.131l.187.083c-.278.278-.728-.167-1.083.141l.09.109c-.259.224-.458-.221-.447.132.19.092.646.063.729-.101.181.253.728-.11.809.191-.139.141-.124-.219-.338-.079-.181.222.228.233.191.386.059-.178.386-.168.47-.103-.08.199-.305.007-.254.228.177-.028.375.111.422-.096.398-.072-.014.253.317.249-.229.174-.685.031-.72.312.234-.138.453.14.771-.134-.037.118-.226.21-.404.209-.098.193.573.113.107.366l.271-.069c-.063.075-.1.157-.205.282.049.113.502.192.122.361.055.017.154.274.367.052.086-.229-.272-.086.039-.337-.236.244.14.202.274.243l-.137.084c.077.026.112.156.282.11-.104.003-.188.072-.203.131l.246-.059c.216.147-.355.246-.185.415l-.25-.066c.053.015-.11.191.008.254l.656-.176c.145.064-.193.172.065.171l-.312-.016c-.073.011-.274.28-.179.427.126.058.49.04.506-.168.047.071-.008.242-.183.266.165.127.193-.143.396-.072-.094.134-.165.426-.28.653l-.406.044.059.105c-.333.023-.152.19-.463.28 0 .101.147.128.262.15.288-.472.728-.153 1.07-.468.276.186-.811.798-.032.666.067-.115.437-.189.22-.277.066.194.451-.162.431.131-.254-.023-.263.424-.632.389.132-.077.008-.18-.051-.185-.094.169-.387.255-.258.423.111.075.225.209.399.043.206-.164-.138-.135.122-.231.222.139-.066.42.36.212-.122-.101.068-.298.213-.405l.191.071-.157.082c.073.302.295-.129.431.103l-.183.317c-.271.141-.156-.383-.498-.044.1.155.33.039.344.248-.057-.001-.1-.032-.156-.034.028.058-.415.527.043.482.196.005.15-.088.288-.207.226.188.433.109.575.223-.28.219.203.257-.197.365.083-.217-.226-.486-.538-.348-.242.362-.108-.214-.47.016.15.19-.164.456-.339.667.032.066.158.042.219.044.207-.151.143-.214.336-.395.134.245.424.332.698.262-.026.152-.224.314-.316.254.271.189.51.422.685.688.124-.443.313.146.435-.207-.061-.173.039-.487.222-.572.051.083-.122.136-.15.229.233-.091-.088.404.233.197-.301-.059-.361.361-.607.584.284-.015-.152.174.017.303.286-.017.563.043.8.097.071.418.614.399.842.487.045.208-.201.496-.094.624.163.075.055-.419.216-.146l-.052.05c.099-.045.355.413.611-.052l-.216.343c.035.052.11-.016.161-.041-.043.122-.026.255-.135.304.065.331.355.072.528.112l-.045-.257c.338-.093.47.19.776.148l-.047.226.195-.107c-.077.212.071.389.188.212a7.233 7.233 0 0 1-.563.48c-.109-.157.199-.249.152-.487-.034-.21-.313-.184-.41.01.1.057.118-.001.218-.066-.029.318-.193.288-.325.465.059.007.124.118.158.02-.152.136-.274.116-.474.071.165-.083-.016-.211.058-.286-.088.267-.308.302-.521.148-.049-.371-.508.023-.752-.172.229-.215.451-.373.646-.42-.102-.197-.179-.064-.276-.259-.165.167-.352.432-.62.442l.083-.195c-.233.001-.384.275-.601.097-.346-.338-.752-.584-1.006-.829l.115-.177c-.431.244-.619-.259-.937-.288-.203-.439-.852-.522-.747-.942-.656-.443-1.218-.885-1.643-1.583l.33-.073c-.269.019.087-.179-.035-.262-.104.274-.37.027-.579.048-.004-.433-.481-.665-.824-.837l.174-.121c-.508-.074-.414-.587-.536-.972.055-.083.197-.239.122-.332-.402-.034-.443-.143-.766-.341a2.013 2.013 0 0 1-.165-.862c-.782-.619-.831-1.575-1.375-2.36l.215-.138c-.786-.699-.577-1.902-.987-2.589l.431-.01c.079-.256-.218-.508-.5-.397.092-.258-.297-.562.024-.765.041-.253-.246-.268-.325-.464.106-.511.047-.685-.077-1.14l-.018.117c.099.042.278.029.294-.086-.13-.162.071-.638-.423-.431.25-.51-.3-1.151.09-1.643-.139.043-.167-.079-.262-.13-.011-.444.288-.914.072-1.288.075-.068.224.131.255-.054-.043-.114-.18-.016-.246-.158-.207-.781.444-1.501.563-2.198.039-1.299.979-2.772 2.127-3.657l.049.09c.177-.627 1.107-.246 1.169-.92.14.048.398-.11.398.101.243-.404.982-.072 1.363-.504-.045-.002-.065.023-.106.076.513.125.878-.248 1.386-.084-.044.049-.13.09-.134.192.197.176.408-.474.538.017.102-.008.062-.248-.002-.231 1.041.139 2.113-.144 3.343.023.766.51-.175.797.577.645.02.105.102-.164.075-.065.309-.028.177.653.433.494.061-.304.179-.102.264-.263.387.416.309.696.765.717l-.114.115c.64-.114.898.41 1.525.284a17.746 17.746 0 0 1 4.396 5.484c.861 2.062 1.798 3.974 2.135 6.243-.278.62-.262.647.039 1.175-.071-.009-.096-.041-.148.01.344-.044.109.396.44.386.103.841.315 1.605.387 2.502-.049-.138-.333-.183-.297-.02l.231.157-.091.035c.061.109.237.226.337.1.395 2.28-.393 4.639-1.66 6.913-.429.459-.899 1.237-1.414 1.744-1.959 1.014-3.614.924-5.311 1.343.001-.005.208-.892.828-1.154z"/><path d="M350.366 106.625c-.046-.174-.217-.276-.053-.496.002.162.084.346.053.496zM346.888 103.33c-.037.037-.005-.09.002-.12.049.021.175-.064.152.03-.048-.019-.091.049-.154.09zM346.144 102.553c.118-.096.368-.036.478.038l-.478-.038zM345.907 101.398c.04-.149.109-.178.179-.09-.055.06-.111.059-.179.09zM345.602 101.574c-.058-.061-.017-.151.024-.238-.097.087.185.091-.024.238zM344.647 99.589c-.039-.037-.21-.06-.092-.192-.071.109.301.103.092.192zM343.923 98.846c-.008-.033.01-.058-.047-.07.03-.087.159-.085.197-.05l-.15.12zM343.381 82.452l-.073.097-.033-.146zM350.463 84.127c.145.015-.051.155-.055.184-.076-.062.162-.102.055-.184zM353.667 87.479l-.019-.031.282-.13z"/></g><path fill="#FFD300" d="M382.694 53.69c6.476 1.142 12.65-3.182 13.792-9.657.126-.711.181-1.418.179-2.115 5.884.262 11.193-3.871 12.241-9.826 1.051-5.955-2.525-11.654-8.144-13.42.24-.654.429-1.337.557-2.048 1.143-6.478-3.184-12.651-9.658-13.793-4.917-.867-9.655 1.418-12.154 5.401a11.85 11.85 0 0 0-5.962-2.936c-6.475-1.141-12.649 3.184-13.791 9.659a11.864 11.864 0 0 0 2.046 8.997 11.858 11.858 0 0 0-5 7.753c-1.143 6.478 3.182 12.652 9.656 13.794 2.357.415 4.676.104 6.724-.77 1.07 4.475 4.695 8.111 9.514 8.961z"/><g fill="#1D1D1B"><path d="M383.263 52.637c-.598.051.235.574-.415.178.122-.23.258-.398.415-.178z"/><path d="M380.92 52.403c-1.187.419-2.326-.165-3.234-.948-.933-.794-1.645-1.74-2.717-2.357-.209-.178.739-.451.239-.803-1.2-.643-1.86-1.782-2.106-3.417-.583.161-1.177.217-1.865.182-.671-.009-1.5-.104-2.072-.296l.14-.258c-.476-.139-1.023.679-1.548.522.008-.163.175-.221.073-.45-.158.499-.908.138-1.179.464-.169-.216-.079-.605-.278-.862l-.395.489c-1.162 1.09-1.873-.635-3.116-.562.111-.086.256-.122.237-.277-2.02-.13-3.815-1.927-5.145-3.614.214-.027.56-.155.685-.375-.552.228-1.029-.27-1.377-.755.437-.47-.921-.705-.825-1.508l.146.015c-.766-.318.143-.817-.69-1.047l.399-.417c-.888-.078.308-.795-.156-1.143l-.173.031c-.252-.386.175-.622.017-.981l.1-.037c-.237-.872.305-1.338-.361-1.374.546-.251.179.854.985.433-.561-2.75.857-5.773 2.7-7.686.412-.053.626-.151.912-.072.057-.268.652-.755.457-1-.051.061.504-.001.673-.076.307-.09.262-.202.183-.299-.337-.181-.724-.323-.675-.539.319.186.604.282.9.263-.935-.472-1.083-.943-1.491-1.394.148.053.274.161.481.12-.863-.424-.315-.994-.863-1.409l.431.057c.179-.936-.854.021-.803-.785.162.143.292.04.451.028-.88-.474-.855-1.685-1.126-2.37.057.04.158.021.158.021-.142-.777.088-1.567-.109-2.449.22-.284.914.214.898-.574-.784-.109-.011-1.394-.966-1.139.295-.691.968-1.63.941-2.167.132.405.993.1.818.635l.598-.174c.26.19-.276.325.14.378.075-.243.159-1.074.402-1.21-.162-.657-.611-1.575-.113-2.342-.03.506.803.368.728.664a11.762 11.762 0 0 1-.263-1.901c.197-.242.468.385.646-.055-.154-.135-.098-.355-.104-.572.126-.021.902-.974 1.448-.42.276.169-.29.415.126.442.433-.308.305-.545.769-.835l.061.082c.35-.086.78-.793.233-.983-.243.102.301.358-.14.344.012-.512.566-.945 1.111-1.167-.139.191-.034.367-.022.594.461-.853 1.221-1.317 2.05-1.76-.073-.357-.175.721-.341.567 1.158.201 2.229-1.15 3.24-.428-.152.065-.096-.512-.081-.411.564.045.524.562.886.386.019.31.445-.083.829-.131.213-.203.077.158-.242.161.5-.267 2.735-.342 3.723.554.043-.21.981-.426 1.241-.266l-.301.387c.244.415.494.188.423.612.188-.215.004-.204-.419-.239-.546-.107-1.076-.132-.625-.201.016.435 1.343-.224.851.262.232.109.596-.311.705.285-.038-.114-.327.55-.095.661.401.161.144-.172.437-.147.059-.032.113-.067.164-.104-.004-.551.261.291.118-.433.034.262.134.26.224.331.061-.075.124-.099.197.373l.093.812c.116-.238.035-1.06.026-1.458.029.05.094.153.118.271-.284-1.04.278-.245.112-1.088.345.07.469-.434 1.257-.321.23-.561.488-1.139 1.139-1.322-.067.136-.199.256-.116.445.478.011.431-.231.671-.551-.005.145.959.088 1.469.214.363-.462.01-.847-.063-1.151.782.65 1.301-1.133 2.177-.48-.163.167-.646.632-.155.739.675.765.789-.901 1.681-.591l-.309-.717c.418.384 1.183-.568 1.162.201.26-.315.969.22.865-.524 1.32.569 3.454-.075 3.911 1.457.212-.064.62.195.646-.194-.181-.489-.508.151-.539-.153.169.028.263-.155.31-.247.359.287.638.439.079.901.66.725 1.331-.879 2.326-.079-.187.25-.156.387.167.512.276-.049.559-.095.841-.123.609.518-.006.822-.264 1.266.373.139.743.437 1.119.244-.002.268-.013.536-.034.804.034-.583.446-.039.668-.009l-.224-.025c-.083.208.329.41.543.52.187-.265-.069-.687-.21-.928.312-.038.511.227.904.225-.42.304.224.724.391 1.01.164.346.623.018.683.118-.197.176.355.507-.118.509-.145-.043.015-.388-.297-.402.007.319-.369.58.201.759.425.152.742-.687.923.104-.22-.085-.404.005-.638-.005.064.233.121.463.168.698l.4-.233c-.047.141-.115.111-.145.18.53-.102.673.798 1.22.678.217.292.057.81.146 1.128l-.063-.041c-.081.479.276.889.685 1.116l-.102.016c.047.219.267.696.605.898-.199.647-1.64.609-.944 1.05.126.509.985.703 1.245.428-.136 1.044.673 2.233-.105 3.181.179.131.301.136.395.328-.232.733.256.83-.395 1.444a.996.996 0 0 1-.13.215c-.38.054-.517.262-.782.423.6-.19-.214.344.553-.07.394-.263.597-.389.634-.542.53-.029.813.12.756.542.026-.212.181-.267.32-.328-.211.261-.27.451-.223.574.083.15.382.314.644.357l.301-.286.015.536c.233.011.705-.536.857.099-.082.136-.161.276-.167.425.605.085 1.572.24 1.717.919l-.14.748c.207.136.741.253.605-.203.352 1.003.63 1.569.361 2.092 1.965.723 3.044 3.306 3.165 5.358l-.309-.019c-.217.571.571.218.396.627-.303-.144-.596.461-.985.079-.258.754.589.927.728 1.443.399.077-.252-.405.254-.312.15.096-.327 1.074.258 1.233-.25.184-.685-.006-.923-.121l.256.488c-.741.461-1.168-1.335-2.082-.806l.073.38c-.65.287-.658-.988-.927-.118.271.389 1.096.856 1.404.511.057.897 1.396.602 1.16 1.621-.4.207.071-.832-.464-.718-.552.375.094.985-.183 1.368.335-.405.837.127.857.479-.429.442-.453-.485-.728.219.31.216.315.984.75.47.656.531-.474.705-.071 1.328-.604.008-.902-1.21-1.467-.555.564.081.244 1.235 1.152 1.166-.289.254-.681.087-.874-.271-.483.259.325 1.496-.683 1.099l.391.424c-.234.035-.464.147-.84.184-.219.328-.19 1.531-.822.986-.009.157-.648.846.02.949.663-.24.114-.789.933-.581-.758-.045-.485.734-.577 1.156l-.275-.171c-.049.243-.438.548-.291.886-.015-.247-.229-.338-.404-.276l.181.508c-.487.773-.726-.48-1.256.16a9.62 9.62 0 0 0 .216-.689c-.045.154-.545-.01-.737.343.173.439.27 1.034.367 1.395-.272.449-.463-.275-.587.369.069-.265.134-.526.185-.792-.021-.167-.754-.346-1.237-.017-.226.329-.437 1.206.231 1.083-.268.18-.788.153-.733-.25-.536.479.323.375-.091.915-.37-.137-1.258-.171-1.837-.41.096-.304.179-.612.25-.919l-.355.152c.211-.743-.402-.322-.402-1.007-.263-.002-.449.315-.624.544 1.077.688-.352 1.584.109 2.385-.991.549-1.495-1.905-1.563-.418.137.217.218.912.321.623-.237-.058.238.893-.019.549-.051-.367-.64-.845-.649-1.384.124.29.258.195.274.104-.236-.318-.299-.876-.645-.83-.173.113-.44.143-.102.58.327.483.213-.069.414.429-.126.188-.784-.549-.185.305.102-.067.498.426.733.758.022.067.053.135.09.202l-.252-.32c-.246-.158.069.172.243.369.088.098.146.164.12.156a6.718 6.718 0 0 0-.611-.492c-.325-.306-.15-.274-.181-.365.021-.02-.037-.115-.357-.45-.033-.006-.056-.001-.063.012.067.211.35.511.152.477-.071-.095-.089-.162-.162-.267-.033-.004-1.173-.782-.547.075.239.331.307.227.634.434.057.326.398.47.352.859-.638-.329-.423 1.13-.89.199.605-.528.617-.815.021-1.272-.785-.291.152-.215-.605-.855-.053.367-.815-.089-1.317-.281-.057.146.122.405.184.526.461.271.489.09.971.327-.1.177-.126.448-.081.725.028.315.104.74.26 1.035-.339.196-.782-.073-.717-.397-.175.998-.711 1.967-1.337 2.687 1.046-.096-.41 1.013.388 1.031.455-.331 1.205-.46 1.365.005-.235.281-.305-.2-.534-.166.145.638-.978.169-.642.934.354-.972-.72-.734-1.148-1.259-.071.74-.357-.283-.726.212a4.769 4.769 0 0 1-.843 2.114c-1.059.177-1.777 1.449-2.51 1.892-.529-.071-.646-.855-1.082-.762-.443.249.707.532-.131.577l.002-.163c-.144.277-1.434.093-1.306 1.15l-.045-.832c-.154-.021-.214.196-.299.314-.089-.244-.311-.42-.156-.649-.581-.388-.85.354-1.335.477l.412.39c-.773.558-1.437.177-2.243.392l-.002-.462c-.154.099-.313.205-.476.293.104-.449-.32-.729-.578-.365.424-.365.813-.751 1.16-1.152.341.254-.313.576-.088 1.018.205.396.963.191 1.008-.274-.282-.006-.28.088-.481.277-.154-.632.262-.642.39-1.103-.13.05-.343-.121-.349.082.228-.346.473-.42.89-.526-.24.304.237.356.166.559-.075-.562.274-.807.821-.813.583.509.807-.715 1.392-.805.032.623-.096 1.182-.396 1.545.5.109.432-.182.938-.101.008-.475-.15-1.124.16-1.588l.231.354c.303-.43-.036-.951.489-1.167.913-.388 1.658-1.101 2.173-1.646l.341.248c-.416-.886.59-1.328.515-2.032.845-.666.44-1.941 1.259-2.246.143-1.313-.006-3.053-.064-4.624l3.245-.054a5.411 5.411 0 0 0-.163.63c.248-.468.457.326.823.192-.679-.416.371-.681.599-1.13.848.294 1.64-.546 1.978-1.215l.211.366c.203-.992 1.169-.76 1.908-1.206.181.075.563.281.721.068-.128-.811.069-.936.157-1.689a6.598 6.598 0 0 1 1.314-1.121c.026-1 .25-1.788.427-2.628.175-.828.284-1.711-.024-2.543l.491-.139c-.555-.826-.739-1.657-.978-2.504-.239-.832-.563-1.66-1.174-2.077l.78-.355c-.045-.549-.811-.727-1.197-.25-.081-.52-1.001-.501-.727-1.188-.236-.423-.671-.067-1.019-.186-.136-.204-.211-.32-.396-.48-.294-.195-.499-.38-.83-.504-.614-.269-1.299-.457-2.323-.74l.419.207c.382-.06.705-.324.327-.521-.908-.089-2.111-.982-2.684-.108a2.362 2.362 0 0 0-.303-.207c.548-1.052.758-2.091 1.027-3.208l.407-1.609c.044-.22.102-.434.176-.637.08-.224.131-.232.232-.355-.28.058-.319-.155-.506-.243.002-.694.467-1.579-.139-2.062.104-.149.506.08.455-.23-.146-.152-.352.083-.555-.087-.782-.92-.425-2.456-1.29-3.313-1.646-1.188-3.245-2.393-5.132-2.673l.061-.195c-.69.654-1.448-.992-1.967.214-.152-.206-.555-.048-.479-.453-.404.563-1.538-.305-2.046.623.069-.001.092-.052.138-.16-.873-.176-1.225.65-2.086.721.022-.115.117-.246.036-.432-.512-.167-.136 1.124-.857.42-.146.126.193.474.263.38l-.366.209c-.124.08-.207.108-.451.375-.412.422-.822.842-1.179 1.401-.741 1.053-1.452 2.247-2.149 3.432-1.233-.866-2.708-1.995-4.163-2.9-.292-.291-.508-.546-.724-.734a.878.878 0 0 1-.07-.313.885.885 0 0 1 .113-.452c.116-.211.195-.295-.453-.151-.016-.207-.19.329-.134.134-.451.109-.293-1.246-.735-.846-.035.613-.274.271-.368.632-.703-.56-.867-1.114-1.581-.713l.071-.314c-.824.838-1.747.436-2.176 1.576-1.879.451-3.475 1.653-4.472 3.123-1.014 1.47-1.453 3.188-1.455 4.879a6.137 6.137 0 0 0 .272 2.427l.098.292.213.526c.301.561.6 1.113 1.002 1.669l2.268 3.315-3.326 2.418c-.587.406-1.049.816-1.546 1.295l-.305.334-.201.245c-.522.663-.99 1.382-1.372 2.194-1.023.573-1.038.757-.794 1.729-.137-.048-.161-.113-.291-.056.673.089.037.694.697.776-.092 1.319.416 2.487 1.063 3.636-.16-.147-.711.007-.543.226l.515.02-.141.135c.177.109.567.07.652-.19 1.113 1.174 2.153 2.29 3.586 3.101a7.026 7.026 0 0 0 2.347.839c.404.07.831.092 1.39.046a30.089 30.089 0 0 0 1.638-.406l1.75-.664c.824-.193 1.745-.511 2.712-.902.451 1.532 1.067 3.255 1.607 4.701l.542 1.957c.112.359.201.673.356.99a5.737 5.737 0 0 0 1.157 1.73 5.155 5.155 0 0 0 3.883 1.613c.015-.044-.68 1.719-2.285 1.603z"/><path d="M383.959 52.647c.092.35.515.554.148.994-.027-.321-.216-.691-.148-.994zM396.126 50.515c-.071-.074.231-.079.307-.083-.086.157.04.466-.188.472.09-.162-.054-.237-.119-.389zM398.109 47.435c.271.162.165 1.01-.034 1.459.034-.495.05-.98.034-1.459zM399.954 45.762c.24.09.364.194.352.228-.149-.078-.22-.135-.352-.228zM399.338 45.322c.004-.089.167-.019.325.066-.233-.164.132.255-.325-.066zM402.424 44.999c.184-.086.486-.47.78-.23-.269-.136-.771.702-.78.23zM405.59 42.935c.111-.046.183-.03.25-.179.26-.01.194.305.053.438l-.303-.259zM386.814.64l.338-.209-.002.304zM366.412 3.784c-.272.313-.346-.168-.421-.187.302-.157.026.391.421.187zM359.005 14.874l.008-.1.606.141z"/></g><g fill="#1D1D1B"><path d="M384.752 18.499c2.871.092 4.303 1.816 4.303 5.175 0 1.678-.416 3.625-1.258 5.839-.839 2.212-1.794 3.854-2.862 4.923-.549.579-1.105.992-1.672 1.235-.565.244-1.288.368-2.175.368-1.525 0-2.646-.376-3.366-1.122-.717-.75-1.077-1.993-1.077-3.734 0-2.168.374-4.22 1.122-6.158.749-1.94 1.749-3.513 3.001-4.718 1.251-1.207 2.533-1.809 3.846-1.809h.138zM384.811 18.226c-.183.022.092.14-.122.051.026-.059.065-.104.122-.051z"/><path d="M384.078 18.349c-.494.45-1.316.316-1.758.861-.055.05-.091-.202-.207-.073-.37.557-1.172.981-1.859 1.376l-.012-.074c-.137.07-.1.337-.216.432-.032-.026-.014-.075-.077-.085.067.109-.136.243-.105.349-.075.014-.148-.054-.237-.025l.057.156c.122.392-.374.438-.408.812-.019-.032-.021-.072-.062-.068-.132.533-.473 1.068-.672 1.609-.033-.042-.104-.102-.169-.098.116.092.073.267.036.417-.166-.001.015.296-.138.422l-.024-.027c.092.183-.158.144-.026.317l-.143.031c.177.134-.175.135-.115.276l.042.013c.009.114-.111.125-.109.228h-.026c-.022.23-.177.312-.019.363-.152.029.017-.225-.209-.174-.094.753-.327 1.469-.478 2.198-.081.069-.113.118-.179.124.019.08-.028.282.045.363.002-.025-.092.033-.105.07-.084.124.158.177.061.311-.034-.065-.085-.093-.148-.084.107.147.062.311.081.464-.026-.026-.036-.065-.089-.066.126.182-.065.295.01.448l-.089-.064c-.143.218.192.089.102.28-.024-.05-.063-.038-.102-.05.148.202.077.497.121.686-.012-.011-.038-.01-.038-.01.006.202-.059.411.017.636-.045.08-.236-.033-.206.184.195-.004.073.364.295.24-.034.18-.094.468-.026.586-.077-.078-.233.101-.254-.052l-.114.122c-.079-.013.022-.122-.075-.081.007.078.103.3.078.372.134.133.352.242.414.457-.092-.095-.201.089-.246.022l.415.251c.022.07-.15.045-.077.139.049-.016.089.023.138.044-.017.033.116.277-.061.36-.063.053-.067-.107-.112-.008.035.134.107.118.15.247l-.022.01c.004.097.161.223.228.093-.012-.059-.1.063-.077-.043.12.024.205.148.265.259-.047-.026-.092 0-.146.006.203.102.331.227.479.339.077-.047-.173.035-.146-.016.024.287.41.269.425.519-.034-.009.073-.105.057-.085.071.08-.014.178.069.19-.041.065.094.034.167.057.063-.024-.005.042-.065.011.128.015.521.127.715.303.019-.05.203-.117.252-.098l-.057.107c.028.081.187.042.169.142.158-.096-.496-.024-.299-.083.006.116.278-.106.195.037.115.026.254-.069.337.063-.028-.023-.132.14-.034.153.175.01.061-.046.205-.061l.094-.033c.023-.113.144.042.104-.097.004.105.25-.031.209.16l-.041.148c.077-.004.141-.146.205-.208.009.016.024.048.019.071.028-.227.175.038.276-.142.152.083.393.023.47.159.12-.075.226-.163.363-.118-.026.023-.063.03-.067.081.09.065.108.003.186-.036-.017.036.179.114.286.184.112-.083.053-.202.055-.279.146.22.293-.195.457-.022-.03.039-.14.146-.032.181.156.192.179-.198.357-.156l-.095-.167c.105.086.181-.181.233.005.026-.075.203-.011.109-.176.313.032.498-.388.831-.222.013-.051.112-.09.037-.152-.116-.039-.029.119-.092.079.024-.028 0-.073-.013-.096.094-.021.157-.056.188.118.228-.046-.039-.36.187-.48.045.064.077.072.124.011l.011-.194c.138-.091.188.058.284.147.049-.077.128-.157.085-.252l.195.029c-.143-.02-.008-.107-.002-.159l-.006.052c.053.024.1-.075.122-.125-.069-.043-.165.013-.222.04-.011-.071.047-.115.036-.202.086.1.163-.051.216-.099.073-.047-.03-.144-.013-.16.053.041.09-.095.124.011-.002.035-.089.009-.073.082.071-.011.156.065.163-.074.002-.104-.214-.137-.051-.211 0 .052.034.088.051.141l.144-.078-.087-.074c.034.001.034.019.053.02-.073-.109.1-.209.008-.316.033-.068.157-.083.208-.135l.002.016c.109-.032.132-.162.104-.265l.021.017a.284.284 0 0 0 .051-.23c.14-.059.396.19.343-.001.065-.109-.087-.278-.173-.27.175-.161.135-.469.389-.571-.026-.051-.063-.046-.058-.118.188-.277.184-.681.494-.833.004.109.102.053.165.078-.063-.116.136-.045-.015-.143-.1-.035-.143-.063-.22.006.031-.203.15-.477.278-.545-.064.033-.079-.019-.091-.071.148.076.228-.052.213-.177l-.089-.052.124-.029c-.015-.052-.182-.121-.049-.188.038.009.079.018.113.009-.032-.137-.113-.339.011-.427l.174-.044c.003-.056-.051-.171-.123-.097.156-.171.215-.295.357-.319-.184-.451-.033-.951.096-1.351l.07.032c.1-.091-.113-.091-.04-.153.059.054.175-.044.237.065.124-.137-.077-.237-.085-.346-.094-.039.042.097-.075.047-.03-.026.128-.198-.015-.258.067-.025.169.03.224.066l-.049-.113c.201-.08.242.342.483.269v-.097c.175-.052.116.284.224.065-.049-.118-.243-.25-.329-.177.006-.214-.325-.173-.271-.387.1-.042-.014.178.116.163.143-.077-.026-.221.034-.304-.077.09-.209-.025-.226-.094.092-.097.129.098.173-.055-.081-.042-.117-.196-.201-.084-.185-.091.086-.151-.051-.261.146-.028.289.214.389.054-.137.004-.15-.241-.36-.182.047-.06.152-.052.228.01.096-.085-.209-.267.06-.262l-.132-.051.168-.103c.019-.085-.158-.292.049-.263-.019-.03.006-.222-.142-.16-.098.111.091.147-.106.194.165-.068-.006-.172-.053-.245l.081-.004c-.028-.044-.002-.135-.087-.167.043.034.1.022.122-.009l-.118-.05c-.055-.166.216-.026.186-.189l.091.127c-.021-.027.096-.078.062-.158l-.337-.122c-.044-.09.129-.038.017-.127l.13.118c.037.019.188-.075.188-.198-.035-.079-.203-.196-.261-.075-.002-.06.063-.145.145-.098-.043-.136-.118.019-.19-.096.072-.049.174-.202.278-.301l.19.118-.002-.085c.152.104.114-.062.272-.007.024-.061-.034-.13-.081-.183-.236.184-.362-.163-.586-.092-.083-.208.549-.202.159-.389-.053.044-.244-.037-.154.088.002-.136-.244-.057-.175-.223.111.101.209-.164.371-.016-.077 0-.04.104-.014.127.077-.068.229-.02.205-.164-.034-.084-.059-.204-.173-.164-.13.027.034.128-.105.096-.069-.158.116-.228-.128-.245.043.098-.086.15-.175.166l-.079-.102.089.003c.017-.196-.168-.017-.187-.195l.146-.128c.154.004 0 .275.228.186-.021-.122-.148-.129-.116-.257l.067.07c0-.043.297-.181.057-.292-.1-.062-.089.006-.177.032-.083-.175-.191-.19-.254-.287.171-.05-.071-.197.146-.154-.065.1.051.334.226.351.175-.137.022.155.237.133-.049-.156.15-.217.269-.287-.006-.05-.075-.075-.105-.096-.124.026-.104.084-.226.132a.422.422 0 0 0-.321-.351c.032-.082.152-.123.193-.061-.131-.178-.224-.385-.319-.568-.09.225-.173-.147-.254.028.024.113-.047.263-.152.276-.024-.054.073-.052.094-.099-.135.01.07-.21-.114-.158.156.099.218-.132.361-.209-.158-.054.1-.073 0-.18-.172-.043-.331-.127-.479-.189-.049-.253-.4-.294-.55-.366-.045-.113.095-.25.014-.325-.113-.051-.004.22-.132.064l.03-.025c-.059.007-.271-.244-.408-.012l.12-.169c-.029-.028-.073.004-.106.014.019-.062-.002-.132.065-.152-.069-.176-.246-.054-.37-.077l.051.133c-.228.036-.341-.109-.557-.095l.022-.114-.134.05c.045-.105-.062-.2-.141-.109.12-.085.242-.155.372-.233.083.082-.124.123-.081.244.032.106.229.102.282.002-.071-.028-.081-.001-.146.03.002-.16.118-.141.197-.231-.041-.005-.092-.058-.109-.011.095-.068.181-.055.316-.026-.105.039.024.109-.021.145.043-.132.188-.149.34-.059.061.2.344-.001.516.132-.132.091-.27.165-.397.181.085.109.128.036.207.153.094-.073.199-.204.378-.19l-.041.099c.158.013.233-.117.386.013.259.214.519.441.681.636l-.068.079c.27-.061.363.296.555.389.093.32.444.565.339.794.287.479.506.946.545 1.518l-.169-.07c.128.083-.075.078-.038.171.104-.129.183.112.278.173-.094.264.064.572.172.794l-.105.012c.21.222.032.498-.012.774-.045.03-.145.076-.137.158.165.161.141.239.229.47a1.536 1.536 0 0 1-.174.575c.162.643-.124 1.227-.133 1.873l-.13.014c.104.661-.35 1.313-.392 1.844l-.184-.117c-.115.13-.073.365.084.376-.116.131-.043.42-.24.456-.1.14.015.224-.01.363-.201.282-.222.404-.315.709l.043-.066c-.028-.051-.109-.088-.154-.022.006.131-.228.373.051.369-.263.25-.231.771-.553.982.073.006.047.087.071.14-.148.267-.413.479-.441.745-.057.023-.061-.126-.132-.024-.017.076.075.048.061.145-.147.496-.656.775-.916 1.147-.416.719-1.053 1.292-1.751 1.789l-.021-.048c-.132.337-.671.162-.754.527-.085-.02-.262.071-.248-.039-.185.226-.644.064-.922.297.03-.002.046-.017.075-.045-.332-.059-.592.133-.923.047.03-.023.09-.042.096-.092-.128-.093-.284.225-.362-.018-.068.005-.046.125-.002.116-.7-.078-1.454.034-2.247-.125-.502-.3.092-.388-.384-.368-.017-.057-.059.077-.047.029-.188-.002-.136-.345-.292-.287-.022.158-.108.039-.152.118-.272-.248-.238-.411-.533-.473l.065-.052c-.402-.021-.587-.388-.967-.47-1.134-1.603-1.211-3.301-1.218-4.822.126-1.525.244-3.061.846-4.522.305-.288.305-.312.361-.716.026.026.024.053.063.039-.152-.077.081-.271-.06-.363.234-.528.405-1.032.665-1.573-.024.094.081.197.117.092l-.044-.154.051.005c.014-.079-.022-.192-.108-.146.569-1.431 1.737-2.491 2.811-3.531.311-.195.672-.57.991-.828 1.142-.483 2.187-.698 3.426-.879.001.009-.168.445-.604.592z"/><path d="M385.031 18.225c.034.087.152.142.042.249-.004-.08-.061-.175-.042-.249zM387.477 20.209c.022-.013.002.05-.004.066-.027-.021-.104.006-.088-.042.029.018.055-.012.092-.024zM387.834 20.816c-.073.026-.199-.069-.25-.137l.25.137zM387.804 21.536c-.043.072-.082.068-.102-.001.037-.018.063-.002.102.001zM387.983 21.523c.021.052-.015.091-.047.129.061-.021-.079-.105.047-.129zM388.038 23.012c.01.036.083.109-.002.148.058-.042-.113-.167.002-.148zM388.178 23.72c-.007.023-.021.033 0 .06-.037.042-.09-.003-.096-.039l.096-.021zM382.609 35.292l.06-.055.011.076zM377.704 33.891c-.073-.045.043-.076.049-.092.033.055-.096.019-.049.092zM376.84 30.841l.002.026-.154-.012z"/></g><g fill="#1D1D1B"><path d="M6.088 99.27H3.019v5.415c0 .749-.624 1.373-1.397 1.373a1.386 1.386 0 0 1-1.373-1.373V89.962a1.37 1.37 0 0 1 1.373-1.373h4.466a5.357 5.357 0 0 1 5.365 5.365c0 2.921-2.395 5.316-5.365 5.316zM3.019 96.5h3.069a2.584 2.584 0 0 0 2.596-2.546c-.025-1.447-1.148-2.595-2.596-2.595H3.019V96.5zM21.592 94.903c0 .698-.574 1.322-1.323 1.322-.574 0-1.073.15-1.498.475-.474.3-.848.723-1.148 1.198-.598.798-.898 1.746-1.023 2.096v4.741c0 .723-.624 1.323-1.373 1.323-.723 0-1.322-.6-1.322-1.323v-9.831c0-.724.599-1.298 1.322-1.298.749 0 1.373.574 1.373 1.298v.174a3.32 3.32 0 0 1 .524-.499c.823-.549 1.896-.998 3.144-.974.75 0 1.324.574 1.324 1.298zM24.766 104.235c-1.073-1.098-1.722-2.646-1.722-4.392 0-1.696.649-3.169 1.722-4.366 1.123-1.173 2.57-1.897 4.292-1.897 1.647 0 3.144.724 4.167 1.897 1.123 1.197 1.747 2.67 1.747 4.366 0 1.746-.624 3.293-1.747 4.392a5.52 5.52 0 0 1-4.167 1.897c-1.723 0-3.17-.724-4.292-1.897zm.998-4.391c0 1.073.324 1.946.898 2.646.624.598 1.448.922 2.396.922a3.27 3.27 0 0 0 2.296-.922c.624-.699.973-1.573.973-2.646 0-1.023-.35-1.921-.973-2.596-.624-.548-1.423-.948-2.296-.948-.948 0-1.772.399-2.396.948-.574.675-.898 1.573-.898 2.596zM37.725 99.844c0-3.468 2.895-6.239 6.337-6.263 1.497 0 2.895.549 3.968 1.373.574.449.674 1.297.274 1.846-.499.599-1.297.699-1.871.25-.649-.474-1.448-.798-2.371-.798-2.021 0-3.693 1.672-3.693 3.593s1.672 3.568 3.693 3.568c.899 0 1.722-.324 2.371-.798.548-.424 1.372-.324 1.871.275.399.549.3 1.347-.274 1.846-1.073.774-2.471 1.323-3.968 1.323-3.442-.002-6.337-2.797-6.337-6.215zM50.982 99.818c.024-3.393 2.67-6.238 6.088-6.238 3.244 0 5.814 2.42 6.013 5.789v.125c0 .05 0 .175-.024.225-.075.6-.6.999-1.297.999h-7.935c.125.574.399 1.222.848 1.647.524.598 1.522 1.047 2.396 1.123.898.075 1.971-.149 2.595-.624.524-.548 1.547-.474 1.872-.075.324.35.573 1.099 0 1.623-1.223 1.123-2.695 1.647-4.467 1.647-3.419-.027-6.064-2.847-6.089-6.241zm2.72-1.222h7.062c-.25-.999-1.522-2.471-3.693-2.646-2.121.1-3.17 1.623-3.369 2.646zM77.739 104.71c0 .723-.599 1.347-1.347 1.347a1.346 1.346 0 0 1-1.323-1.073c-.948.648-2.146 1.073-3.394 1.073-3.368 0-6.063-2.845-6.063-6.213 0-3.418 2.695-6.263 6.063-6.263 1.223 0 2.421.399 3.344 1.048v-4.69c0-.725.599-1.348 1.373-1.348.749 0 1.347.624 1.347 1.348v14.771zm-6.064-8.41c-.898 0-1.721.374-2.345 1.023-.625.624-.999 1.522-.999 2.521 0 .948.374 1.847.999 2.471.624.648 1.447 1.023 2.345 1.023.923 0 1.722-.375 2.346-1.023.624-.624.999-1.523.999-2.471 0-.999-.375-1.896-.999-2.521-.624-.649-1.422-1.023-2.346-1.023zM87.229 106.057c-2.844 0-5.19-2.346-5.19-5.19v-5.963c0-.699.598-1.323 1.322-1.323a1.33 1.33 0 0 1 1.322 1.323v5.963a2.525 2.525 0 0 0 2.546 2.545c1.447 0 2.595-1.123 2.62-2.545v-5.963c0-.699.549-1.323 1.297-1.323.699 0 1.347.624 1.347 1.323v5.963c.001 2.844-2.394 5.19-5.264 5.19zM104.655 94.903c0 .698-.574 1.322-1.323 1.322-.574 0-1.073.15-1.498.475-.474.3-.848.723-1.148 1.198-.598.798-.898 1.746-1.023 2.096v4.741c0 .723-.624 1.323-1.373 1.323-.723 0-1.322-.6-1.322-1.323v-9.831c0-.724.599-1.298 1.322-1.298.749 0 1.373.574 1.373 1.298v.174a3.32 3.32 0 0 1 .524-.499c.823-.549 1.896-.998 3.144-.974.75 0 1.324.574 1.324 1.298zM117.236 99.844v4.891c0 .723-.598 1.323-1.322 1.323-.648 0-1.147-.475-1.297-1.073a5.67 5.67 0 0 1-3.319 1.073 5.796 5.796 0 0 1-4.242-1.822c-1.073-1.148-1.696-2.695-1.696-4.392 0-1.722.624-3.269 1.696-4.392 1.073-1.148 2.545-1.872 4.242-1.872 1.249 0 2.371.424 3.319 1.099.15-.625.649-1.099 1.297-1.099.724 0 1.322.599 1.322 1.347v4.917zm-2.644 0c0-1.048-.375-1.946-.973-2.57a3.09 3.09 0 0 0-2.321-1.023c-.898 0-1.747.35-2.32 1.023-.599.624-.948 1.522-.948 2.57 0 1.023.35 1.921.948 2.57.574.624 1.422.973 2.32.973.874 0 1.722-.35 2.321-.973.598-.649.973-1.547.973-2.57zM123.408 88.59a1.39 1.39 0 0 1 1.397 1.373v14.722a1.385 1.385 0 1 1-2.77 0V89.962c0-.749.624-1.372 1.373-1.372zM140.432 99.27h-3.069v5.415c0 .749-.624 1.373-1.397 1.373a1.386 1.386 0 0 1-1.373-1.373V89.962a1.37 1.37 0 0 1 1.373-1.373h4.466a5.357 5.357 0 0 1 5.365 5.365c0 2.921-2.395 5.316-5.365 5.316zm-3.069-2.77h3.069a2.585 2.585 0 0 0 2.596-2.546c-.025-1.447-1.148-2.595-2.596-2.595h-3.069V96.5zM158.804 99.844v4.891c0 .723-.599 1.323-1.322 1.323-.648 0-1.147-.475-1.298-1.073a5.666 5.666 0 0 1-3.318 1.073 5.792 5.792 0 0 1-4.241-1.822c-1.073-1.148-1.697-2.695-1.697-4.392 0-1.722.624-3.269 1.697-4.392 1.072-1.148 2.544-1.872 4.241-1.872 1.248 0 2.371.424 3.318 1.099.15-.625.649-1.099 1.298-1.099.724 0 1.322.599 1.322 1.347v4.917zm-2.644 0c0-1.048-.375-1.946-.973-2.57a3.09 3.09 0 0 0-2.321-1.023c-.898 0-1.746.35-2.32 1.023-.599.624-.948 1.522-.948 2.57 0 1.023.35 1.921.948 2.57.574.624 1.422.973 2.32.973a3.23 3.23 0 0 0 2.321-.973c.598-.649.973-1.547.973-2.57zM165.799 90.461c0 .749-.573 1.373-1.348 1.373-.749 0-1.347-.624-1.347-1.373v-.523c0-.749.598-1.348 1.347-1.348.774 0 1.348.599 1.348 1.348v.523zm0 4.517v9.732c0 .748-.573 1.347-1.348 1.347-.749 0-1.347-.6-1.347-1.347v-9.732c0-.798.598-1.373 1.347-1.373.775 0 1.348.574 1.348 1.373zM179.876 98.771v5.963c0 .723-.574 1.323-1.298 1.323-.699 0-1.322-.6-1.322-1.323v-5.963c0-1.398-1.174-2.521-2.596-2.521-1.397 0-2.495 1.123-2.495 2.521v5.963c0 .075 0 .15-.05.25a1.366 1.366 0 0 1-1.323 1.073c-.748 0-1.322-.6-1.322-1.323v-9.831c0-.724.574-1.323 1.322-1.323.524 0 .999.3 1.224.773a4.98 4.98 0 0 1 2.645-.773c2.895.001 5.215 2.371 5.215 5.191zM2.695 117.508c0 .749-.574 1.372-1.348 1.372-.749 0-1.347-.624-1.347-1.372v-.523c0-.749.598-1.348 1.347-1.348.774 0 1.348.6 1.348 1.348v.523zm0 4.517v9.732c0 .748-.574 1.347-1.348 1.347A1.341 1.341 0 0 1 0 131.757v-9.732c0-.799.598-1.373 1.347-1.373.774 0 1.348.574 1.348 1.373zM16.771 125.818v5.963c0 .724-.574 1.323-1.297 1.323-.699 0-1.323-.599-1.323-1.323v-5.963c0-1.397-1.173-2.52-2.596-2.52-1.397 0-2.495 1.123-2.495 2.52v5.963c0 .075 0 .15-.05.25a1.364 1.364 0 0 1-1.322 1.073 1.316 1.316 0 0 1-1.323-1.323v-9.83c0-.725.574-1.323 1.323-1.323.524 0 .999.3 1.223.773a4.988 4.988 0 0 1 2.644-.773c2.896 0 5.216 2.37 5.216 5.19zM34.025 126.317h-3.069v5.415c0 .749-.624 1.373-1.397 1.373a1.386 1.386 0 0 1-1.373-1.373V117.01a1.37 1.37 0 0 1 1.373-1.373h4.466a5.357 5.357 0 0 1 5.365 5.365c0 2.919-2.395 5.315-5.365 5.315zm-3.069-2.77h3.069a2.584 2.584 0 0 0 2.596-2.545c-.025-1.447-1.148-2.595-2.596-2.595h-3.069v5.14zM49.529 121.951c0 .698-.574 1.322-1.323 1.322-.574 0-1.073.15-1.498.474-.474.3-.848.724-1.148 1.198-.598.799-.898 1.747-1.023 2.096v4.741c0 .724-.624 1.323-1.372 1.323a1.332 1.332 0 0 1-1.323-1.323v-9.831c0-.725.599-1.298 1.323-1.298.749 0 1.372.574 1.372 1.298v.174a3.32 3.32 0 0 1 .524-.499c.823-.548 1.896-.998 3.144-.973.75-.001 1.324.573 1.324 1.298zM50.058 126.866c.024-3.393 2.67-6.238 6.088-6.238 3.244 0 5.814 2.42 6.013 5.789v.125c0 .05 0 .175-.024.225-.075.599-.6.999-1.297.999h-7.935c.125.574.399 1.222.848 1.646.524.599 1.521 1.047 2.396 1.123.898.075 1.971-.149 2.594-.624.524-.549 1.547-.475 1.873-.075.324.35.573 1.098 0 1.623-1.223 1.123-2.695 1.646-4.467 1.646-3.419-.026-6.064-2.845-6.089-6.239zm2.72-1.222h7.062c-.25-.999-1.522-2.471-3.693-2.646-2.122.1-3.17 1.623-3.369 2.646zM75.941 125.792v5.989a1.33 1.33 0 0 1-1.322 1.323c-.699 0-1.348-.599-1.348-1.323v-5.914-.075c-.024-1.372-1.172-2.495-2.57-2.495-1.373 0-2.52 1.148-2.52 2.57v5.914c0 .05-.025.125-.025.175v.075c-.025.05-.025.1-.075.149v.125c-.225.449-.723.798-1.248.798-.1 0-.175-.025-.249-.025-.599-.149-1.074-.648-1.074-1.297v-5.914-3.892c0-.773.6-1.347 1.323-1.347.524 0 .999.274 1.198.749a5.252 5.252 0 0 1 2.67-.749c1.572 0 2.969.648 3.918 1.722.923-1.074 2.346-1.722 3.917-1.722 2.87 0 5.19 2.346 5.19 5.24v5.914c0 .724-.6 1.323-1.323 1.323-.724 0-1.347-.599-1.347-1.323v-5.914c0-1.422-1.148-2.57-2.521-2.57a2.59 2.59 0 0 0-2.594 2.494zM99.185 126.891v4.89c0 .724-.598 1.323-1.323 1.323-.648 0-1.147-.474-1.297-1.073a5.665 5.665 0 0 1-3.319 1.073 5.799 5.799 0 0 1-4.241-1.821c-1.073-1.148-1.698-2.695-1.698-4.392 0-1.722.625-3.27 1.698-4.392 1.073-1.148 2.545-1.871 4.241-1.871 1.248 0 2.371.424 3.319 1.098.15-.625.649-1.098 1.297-1.098.725 0 1.323.598 1.323 1.347v4.916zm-2.644 0c0-1.049-.375-1.947-.974-2.57a3.083 3.083 0 0 0-2.321-1.023c-.898 0-1.746.349-2.32 1.023-.598.624-.948 1.521-.948 2.57 0 1.023.35 1.921.948 2.57.574.624 1.422.974 2.32.974.874 0 1.722-.35 2.321-.974.599-.649.974-1.547.974-2.57zM109.074 122c0 .749-.649 1.373-1.398 1.373h-.624v6.962c.774 0 1.373.624 1.373 1.396 0 .773-.599 1.373-1.373 1.373a2.78 2.78 0 0 1-2.77-2.769v-6.962h-.723a1.369 1.369 0 0 1-1.373-1.373c0-.774.599-1.373 1.373-1.373h.723v-3.619c0-.773.624-1.373 1.397-1.373.774 0 1.373.6 1.373 1.373v3.619h.624c.749.001 1.398.599 1.398 1.373zM117.763 133.104c-2.844 0-5.19-2.346-5.19-5.19v-5.963c0-.699.598-1.323 1.322-1.323a1.33 1.33 0 0 1 1.322 1.323v5.963a2.524 2.524 0 0 0 2.546 2.544c1.447 0 2.595-1.123 2.62-2.544v-5.963c0-.699.549-1.323 1.297-1.323.699 0 1.347.624 1.347 1.323v5.963c.001 2.844-2.395 5.19-5.264 5.19zM135.188 121.951c0 .698-.574 1.322-1.323 1.322-.573 0-1.072.15-1.497.474-.475.3-.849.724-1.147 1.198-.599.799-.898 1.747-1.023 2.096v4.741c0 .724-.624 1.323-1.372 1.323a1.332 1.332 0 0 1-1.323-1.323v-9.831c0-.725.6-1.298 1.323-1.298.748 0 1.372.574 1.372 1.298v.174a3.32 3.32 0 0 1 .524-.499c.822-.548 1.896-.998 3.144-.973.748-.001 1.322.573 1.322 1.298zM135.717 126.866c.024-3.393 2.67-6.238 6.088-6.238 3.244 0 5.814 2.42 6.014 5.789v.125c0 .05 0 .175-.024.225-.075.599-.6.999-1.298.999h-7.935c.125.574.399 1.222.848 1.646.524.599 1.522 1.047 2.396 1.123.898.075 1.971-.149 2.595-.624.524-.549 1.547-.475 1.872-.075.324.35.574 1.098 0 1.623-1.223 1.123-2.695 1.646-4.467 1.646-3.419-.026-6.064-2.845-6.089-6.239zm2.72-1.222h7.062c-.249-.999-1.522-2.471-3.693-2.646-2.122.1-3.17 1.623-3.369 2.646zM158.486 117.009c0-.773.599-1.373 1.372-1.373.749 0 1.397.6 1.397 1.373v14.722c0 .773-.648 1.373-1.397 1.373a1.353 1.353 0 0 1-1.372-1.373v-14.722zM175.432 125.818v5.963c0 .724-.573 1.323-1.297 1.323-.699 0-1.322-.599-1.322-1.323v-5.963c0-1.397-1.174-2.52-2.596-2.52-1.397 0-2.495 1.123-2.495 2.52v5.963c0 .075 0 .15-.05.25a1.365 1.365 0 0 1-1.323 1.073 1.315 1.315 0 0 1-1.322-1.323v-9.83c0-.725.574-1.323 1.322-1.323.524 0 .999.3 1.224.773a4.987 4.987 0 0 1 2.645-.773c2.894 0 5.214 2.37 5.214 5.19zM183.799 119.804v.349h.748c.748 0 1.372.6 1.372 1.373 0 .749-.624 1.373-1.372 1.373h-.748v8.808c0 .749-.6 1.373-1.372 1.373a1.369 1.369 0 0 1-1.373-1.373v-8.808h-.648c-.773 0-1.397-.624-1.397-1.373 0-.773.624-1.373 1.397-1.373h.648v-.349c0-.924.1-1.722.474-2.445a2.973 2.973 0 0 1 1.797-1.547 5.07 5.07 0 0 1 1.498-.199c.747 0 1.372.624 1.372 1.373 0 .773-.625 1.397-1.372 1.397-.325 0-.55.025-.649.075-.1.024-.125.05-.149.075-.026-.001-.226.347-.226 1.271zM198.301 126.891v4.89c0 .724-.599 1.323-1.322 1.323-.648 0-1.147-.474-1.298-1.073a5.661 5.661 0 0 1-3.318 1.073 5.8 5.8 0 0 1-4.242-1.821c-1.072-1.148-1.697-2.695-1.697-4.392 0-1.722.625-3.27 1.697-4.392 1.073-1.148 2.545-1.871 4.242-1.871 1.247 0 2.371.424 3.318 1.098.15-.625.649-1.098 1.298-1.098.724 0 1.322.598 1.322 1.347v4.916zm-2.644 0c0-1.049-.375-1.947-.973-2.57a3.087 3.087 0 0 0-2.321-1.023c-.898 0-1.747.349-2.32 1.023-.599.624-.948 1.521-.948 2.57 0 1.023.35 1.921.948 2.57.573.624 1.422.974 2.32.974.873 0 1.722-.35 2.321-.974.598-.649.973-1.547.973-2.57zM212.732 125.818v5.963c0 .724-.574 1.323-1.297 1.323-.699 0-1.323-.599-1.323-1.323v-5.963c0-1.397-1.173-2.52-2.596-2.52-1.396 0-2.495 1.123-2.495 2.52v5.963c0 .075 0 .15-.05.25a1.364 1.364 0 0 1-1.322 1.073 1.315 1.315 0 0 1-1.322-1.323v-9.83c0-.725.573-1.323 1.322-1.323.524 0 .999.3 1.223.773a4.992 4.992 0 0 1 2.645-.773c2.895 0 5.215 2.37 5.215 5.19zM222.621 122c0 .749-.649 1.373-1.397 1.373h-.624v6.962c.774 0 1.372.624 1.372 1.396 0 .773-.598 1.373-1.372 1.373a2.78 2.78 0 0 1-2.77-2.769v-6.962h-.723a1.369 1.369 0 0 1-1.373-1.373c0-.774.599-1.373 1.373-1.373h.723v-3.619c0-.773.624-1.373 1.397-1.373s1.372.6 1.372 1.373v3.619h.624c.748.001 1.398.599 1.398 1.373zM225.77 129.536a1.297 1.297 0 0 1 1.871-.2c.649.549 1.771 1.123 2.745 1.099a3.32 3.32 0 0 0 1.696-.475c.35-.3.449-.549.449-.749a.368.368 0 0 0-.074-.249c-.025-.075-.125-.175-.325-.3-.35-.25-1.097-.524-1.996-.699h-.024c-.774-.149-1.522-.35-2.171-.648-.674-.325-1.272-.774-1.722-1.448a3.032 3.032 0 0 1-.425-1.572c0-1.147.649-2.12 1.473-2.744.873-.599 1.921-.923 3.069-.923 1.722 0 2.944.823 3.742 1.373.6.399.774 1.222.399 1.846a1.32 1.32 0 0 1-1.846.35c-.799-.524-1.497-.923-2.296-.923-.624 0-1.174.2-1.497.449-.324.226-.399.45-.399.574 0 .101 0 .125.05.2.025.05.1.149.274.25.325.225.973.449 1.821.599l.025.025h.024c.824.149 1.597.374 2.321.723.674.3 1.347.773 1.771 1.472.3.499.474 1.073.474 1.647 0 1.223-.674 2.246-1.571 2.895a5.677 5.677 0 0 1-3.244.998c-1.946-.025-3.444-.923-4.441-1.722-.548-.451-.622-1.299-.173-1.848z"/></g></svg>