<svg xmlns="http://www.w3.org/2000/svg" width="1677.836" height="212.598" viewBox="0 0 1677.836 212.598"><g fill="#E84893"><path d="M42.166 208.865H0L43.008 3.73h83.295c14.808 0 26.528 1.75 35.146 5.249 8.62 3.501 15.443 9.292 20.472 17.368 5.035 8.079 7.546 17.723 7.546 28.923 0 10.372-2.005 20.465-6.019 30.258-4.008 9.806-8.932 17.655-14.757 23.537-5.829 5.894-12.1 10.353-18.82 13.38-6.713 3.036-15.761 5.346-27.134 6.932-6.627.938-19.028 1.402-37.207 1.402h-27l-16.364 78.086zM65.729 96.472h12.974c22.228 0 37.058-1.39 44.505-4.17 7.441-2.791 13.301-7.245 17.583-13.375 4.279-6.135 6.415-12.868 6.415-20.201 0-4.918-1.094-8.962-3.278-12.119-2.189-3.157-5.259-5.461-9.211-6.897-3.962-1.438-12.776-2.164-26.463-2.164H78.092L65.729 96.472zM234.216 208.865H192.05l43.002-205.13h90.837c15.623 0 27.782 1.607 36.48 4.825 8.698 3.223 15.725 9.119 21.075 17.699 5.344 8.587 8.025 18.987 8.025 31.197 0 17.447-5.228 31.838-15.688 43.17-10.461 11.335-26.27 18.355-47.437 21.063 5.406 4.854 10.493 11.243 15.242 19.177 9.42 16.041 19.905 38.708 31.466 68.004H329.8c-3.629-11.58-10.729-29.652-21.322-54.214-5.755-13.262-11.896-22.183-18.396-26.758-3.991-2.708-10.965-4.06-20.9-4.06h-17.14l-17.826 85.027zM258.51 92.996h22.314c22.591 0 37.59-1.353 44.971-4.05 7.396-2.693 13.186-6.925 17.371-12.69 4.185-5.768 6.277-11.803 6.277-18.134 0-7.443-3.015-13.009-9.053-16.735-3.714-2.229-11.753-3.347-24.103-3.347h-46.26L258.51 92.996zM411.34 128.365c0-12.144 1.813-24.939 5.449-38.399 4.749-18.029 11.995-33.677 21.728-46.947 9.738-13.262 22.011-23.751 36.819-31.461C490.145 3.853 507.005 0 525.926 0c25.337 0 45.802 7.892 61.417 23.683 15.595 15.788 23.402 36.712 23.402 62.776 0 21.673-5.077 42.659-15.231 62.931-10.153 20.267-23.941 35.876-41.364 46.807-17.412 10.937-37.12 16.392-59.102 16.392-19.103 0-35.129-4.338-48.074-13.03-12.958-8.687-22.131-19.455-27.532-32.304-5.405-12.842-8.102-25.801-8.102-38.89zm41.77-.838c0 14.112 4.285 25.933 12.845 35.467 8.566 9.525 19.829 14.29 33.792 14.29 11.358 0 22.27-3.763 32.743-11.281 10.472-7.522 19.13-18.924 25.974-34.2 6.84-15.282 10.261-30.156 10.261-44.644 0-16.162-4.341-28.843-12.985-38.045-8.658-9.214-19.692-13.815-33.097-13.815-20.574 0-37.302 9.631-50.199 28.876-12.888 19.251-19.334 40.371-19.334 63.352zM734.593 99.206h92.083l-18.444 88.306c-10.832 7.005-24.116 12.937-39.846 17.795-15.739 4.858-31.772 7.283-48.117 7.283-25.397 0-44.866-5.75-58.403-17.247-18.493-15.7-27.73-38.472-27.73-68.296 0-20.011 3.958-39.168 11.884-57.494 9.513-22.059 23.022-39.16 40.545-51.318C704.088 6.072 724.695 0 748.365 0c23.676 0 42.662 5.502 56.972 16.507 14.303 11.002 23.792 27.055 28.456 48.122l-39.285 4.486c-3.449-11.585-9.027-20.329-16.719-26.221-7.692-5.887-17.371-8.835-29.02-8.835-13.614 0-26.114 3.564-37.49 10.674-11.374 7.11-20.282 18.117-26.715 32.997-6.428 14.877-9.647 31.128-9.647 48.717 0 17.324 3.929 30.118 11.799 38.403 7.869 8.282 19.394 12.419 34.566 12.419 9.09 0 18.403-1.28 27.956-3.843 9.557-2.563 17.804-5.62 24.735-9.166l6.423-30.745h-53.023l7.22-34.309zM886.672 208.865h-42.168l43.018-205.13h90.826c15.635 0 27.783 1.607 36.477 4.825 8.697 3.223 15.723 9.119 21.072 17.699 5.352 8.582 8.021 18.987 8.021 31.197 0 17.447-5.225 31.838-15.682 43.17-10.465 11.335-26.271 18.355-47.438 21.063 5.4 4.854 10.492 11.243 15.242 19.177 9.414 16.041 19.91 38.708 31.463 68.004h-45.246c-3.635-11.58-10.74-29.652-21.326-54.214-5.76-13.262-11.896-22.183-18.387-26.758-3.99-2.708-10.961-4.06-20.902-4.06h-17.145l-17.825 85.027zm24.299-115.869h22.316c22.594 0 37.582-1.353 44.971-4.05 7.395-2.693 13.174-6.925 17.363-12.69 4.172-5.768 6.275-11.803 6.275-18.134 0-7.443-3.021-13.009-9.057-16.735-3.717-2.229-11.748-3.347-24.102-3.347h-46.264l-11.502 54.956zM1184.904 163.607h-81.377l-24.82 45.263h-43.629L1150.959 3.738h47.516l33.135 205.132h-40.006l-6.7-45.263zm-5.332-34.311l-11.963-82.55-45.268 82.55h57.231zM1375.336 208.865h-40.031l-7.576-171.341-32.451 171.341h-38.047l42.846-205.13h60.258l6.299 140.689 64.398-140.69h60.479l-37.406 205.13h-38.232l35.682-170.079-76.219 170.08zM1502.287 142.577l40.039-2.091c.563 12.783 2.752 21.406 6.594 25.889 6.16 7.279 17.572 10.914 34.215 10.914 13.834 0 23.838-2.476 30.008-7.436 6.166-4.957 9.254-10.938 9.254-17.949 0-6.077-2.527-11.22-7.568-15.437-3.545-3.085-13.277-8.084-29.188-15.009-15.916-6.915-27.543-12.688-34.875-17.322-7.332-4.63-13.098-10.633-17.289-18.026-4.209-7.385-6.301-16.032-6.301-25.947 0-17.294 6.248-31.648 18.732-43.05C1558.41 5.71 1576.504.004 1600.185.004c24.061 0 42.688 5.653 55.891 16.953 13.205 11.302 20.461 26.35 21.76 45.112l-40.527 1.835c-1.02-9.864-4.563-17.432-10.619-22.688-6.063-5.26-15-7.896-26.832-7.896-11.65 0-19.967 2.057-24.943 6.175-4.986 4.114-7.479 9.313-7.479 15.584 0 5.893 2.283 10.757 6.863 14.597 4.568 3.936 14.697 9.317 30.377 16.148 23.611 10.195 38.629 18.483 45.059 24.842 9.611 9.363 14.43 21.39 14.43 36.08 0 18.16-7.162 33.674-21.48 46.548-14.318 12.858-34.258 19.303-59.813 19.303-17.627 0-32.904-2.97-45.818-8.888-12.92-5.933-22.043-14.161-27.35-24.721-5.308-10.551-7.78-22.681-7.417-36.411z"/></g></svg>