<svg xmlns="http://www.w3.org/2000/svg" width="782.9" height="265.9" viewBox="0 0 782.9 265.9"><g fill="#BC955B"><path d="M361.1 221.8c.6.6.9 1.4.9 2.3v37.8c0 .9-.3 1.7-.8 2.2-.5.5-1.2.8-2.1.8-.9 0-1.5-.3-2-.8s-.7-1.3-.7-2.2v-28.6l-12.1 22.9c-.8 1.4-1.8 2.2-3 2.2s-2.2-.7-3-2.2l-12.1-22.7v28.4c0 .9-.2 1.7-.7 2.2-.5.5-1.2.8-2.1.8-.9 0-1.5-.3-2.1-.8-.5-.6-.8-1.3-.8-2.2v-37.8c0-.9.3-1.7.9-2.3.6-.6 1.3-.9 2.2-.9 1.3 0 2.3.7 3.1 2.2l14.7 28.1 14.6-28.1c.8-1.5 1.8-2.2 3-2.2.8 0 1.5.3 2.1.9zM405.4 221.8c.6.6.8 1.4.8 2.3v37.6c0 .9-.3 1.7-.9 2.3-.6.6-1.3.9-2.2.9-1.1 0-1.9-.4-2.5-1.2l-24.1-31.8v29.8c0 .9-.3 1.7-.8 2.3-.6.6-1.3.9-2.2.9-.9 0-1.6-.3-2.2-.9-.5-.6-.8-1.4-.8-2.3v-37.6c0-.9.3-1.7.9-2.3.6-.6 1.3-.9 2.2-.9 1.1 0 1.9.4 2.5 1.2l24.1 31.9v-29.9c0-.9.3-1.7.8-2.3.5-.6 1.3-.9 2.2-.9s1.6.3 2.2.9zM450.8 221.8c.6.6.9 1.4.9 2.3v37.6c0 .9-.3 1.7-.9 2.3-.6.6-1.3.9-2.3.9s-1.7-.3-2.3-.9c-.6-.6-.9-1.4-.9-2.3v-16.5h-24.2v16.5c0 .9-.3 1.7-.9 2.3-.6.6-1.3.9-2.3.9s-1.7-.3-2.3-.9c-.6-.6-.9-1.4-.9-2.3v-37.6c0-.9.3-1.7.9-2.3.6-.6 1.3-.9 2.3-.9s1.7.3 2.3.9c.6.6.9 1.4.9 2.3V240h24.2v-15.9c0-.9.3-1.7.9-2.3.6-.6 1.3-.9 2.3-.9s1.7.3 2.3.9zM468.3 262.4c-3.1-1.8-5.4-4.3-7.1-7.7-1.6-3.3-2.5-7.3-2.5-11.8 0-4.5.8-8.4 2.5-11.8 1.6-3.3 4-5.9 7.1-7.7s6.7-2.7 10.8-2.7c2.7 0 5.3.4 7.7 1.3 2.4.8 4.5 2.1 6.3 3.7.8.6 1.2 1.4 1.2 2.5 0 .7-.2 1.4-.6 1.9-.4.5-.9.8-1.5.8-.7 0-1.4-.3-2-.8-2-1.5-3.8-2.5-5.4-3.1-1.6-.6-3.5-.9-5.5-.9-4.5 0-8 1.5-10.4 4.4-2.4 2.9-3.6 7.1-3.6 12.5 0 5.5 1.2 9.7 3.6 12.6 2.4 2.9 5.9 4.4 10.4 4.4 2 0 3.8-.3 5.4-.9 1.6-.6 3.5-1.6 5.5-3.1.8-.5 1.5-.8 2-.8.6 0 1.1.3 1.5.8.4.5.6 1.1.6 1.9 0 1-.4 1.8-1.2 2.5-1.8 1.6-3.9 2.8-6.3 3.7-2.4.8-5 1.3-7.7 1.3-4.1-.3-7.7-1.2-10.8-3z"/></g><path fill="#BC955B" d="M314.2 189.5c0-2.2 1.8-3.9 3.9-3.9H779c2.2 0 3.9 1.8 3.9 3.9 0 2.2-1.8 3.9-3.9 3.9H318.1c-2.1.1-3.9-1.7-3.9-3.9"/><path fill="#604876" d="M167.7 72.5c0-40-32.5-72.5-72.5-72.5-40.1 0-72.6 32.5-72.6 72.5 0 40.1 32.5 72.5 72.5 72.5 40.1.1 72.6-32.4 72.6-72.5"/><path fill="#BC955B" d="M265.8 61.4c5.5-13.8-1.3-29.4-15.1-34.9-13.8-5.5-29.4 1.3-34.9 15.1-5.5 13.8 1.3 29.4 15.1 34.9 13.9 5.5 29.5-1.3 34.9-15.1M148.9 179.2c8 1 34.2 4.1 69.4-17 26.1-15.7 43.2-38.5 44.8-52.1 1.6-11-6.1-21.2-17.1-22.7-4.7-.7-8.5.2-12.9 2.5-13.7 7.2-17 32.3-29.8 51.1-18.9 27.7-42.6 28.8-53.9 29.3-2.5 0-4.5 2-4.5 4.5 0 2.3 1.7 4.2 4 4.4"/><path fill="#604876" d="M258.7 144.4c-11.9 14.7-47.8 46.9-91.4 46.9-43.6 0-65.1-21.9-97.7-35.3-25.5-10.8-54.9 1.2-65.7 26.7-8 18.9-3.4 39.9 9.7 53.9 22.3 24.4 67.4 42 140.8 17.6 73.3-24.4 108.9-94.6 114-103.8 1.4-2.8.2-6.1-2.6-7.5-2.5-1.4-5.5-.7-7.1 1.5"/><g fill="#604876"><path d="M317.8 153.2c-1.7-1.7-2.6-4-2.6-7V34.4c0-2.8.8-5.1 2.5-6.7s4-2.5 6.9-2.5h44.3c13.7 0 24.4 3.4 32 10.1 7.6 6.7 11.4 16.3 11.4 28.7 0 12.3-3.8 21.8-11.4 28.7-7.6 6.9-18.3 10.3-32 10.3h-34.7v43.2c0 2.9-.8 5.3-2.5 7-1.7 1.7-4 2.6-7.1 2.6-2.8-.1-5.1-.9-6.8-2.6zm49.1-65.5c18.1 0 27.2-7.9 27.2-23.7 0-15.7-9.1-23.5-27.2-23.5h-32.7v47.3h32.7zM537.5 148.2c0 2.2-.9 4.1-2.7 5.6-1.8 1.5-3.8 2.3-6.2 2.3-3.4 0-6.2-1.5-8.3-4.6l-24.6-38.2c-2.8-4.4-5.8-7.5-9-9.3-3.2-1.8-7.4-2.7-12.5-2.7h-20.8v44.9c0 2.9-.8 5.3-2.5 7-1.7 1.7-4 2.6-6.9 2.6-2.8 0-5.1-.9-6.8-2.6-1.7-1.7-2.6-4-2.6-7V34.4c0-2.8.8-5.1 2.5-6.7 1.7-1.7 4-2.5 6.9-2.5h45.8c14.3 0 25.3 3.2 32.8 9.6 7.5 6.4 11.3 15.7 11.3 27.9 0 10.2-2.9 18.4-8.6 24.7-5.8 6.3-14 10.3-24.6 12 3.2.9 6.1 2.4 8.6 4.6 2.6 2.2 5.1 5.3 7.5 9.2l18.9 29.8c1.3 1.6 1.8 3.4 1.8 5.2zM487.7 86c9.6 0 16.6-1.9 21.2-5.6 4.6-3.7 6.9-9.5 6.9-17.4 0-7.8-2.3-13.6-6.8-17.2-4.5-3.6-11.6-5.4-21.3-5.4h-34.4V86h34.4zM573.7 142.9c-8.9-8.9-13.4-22.1-13.4-39.5V33.8c0-2.9.9-5.3 2.6-7 1.7-1.7 4-2.6 6.8-2.6s5.1.9 6.8 2.6c1.7 1.7 2.6 4 2.6 7v70.8c0 11.9 2.8 20.9 8.5 27 5.7 6.1 14.2 9.2 25.5 9.2 11.2 0 19.6-3.1 25.4-9.2 5.8-6.1 8.6-15.1 8.6-27V33.8c0-2.8.9-5.1 2.6-6.9 1.7-1.8 4-2.7 6.8-2.7s5.1.9 6.8 2.6c1.7 1.7 2.6 4 2.6 7v69.5c0 17.3-4.5 30.4-13.5 39.4s-22.1 13.5-39.3 13.5c-17.3.1-30.4-4.4-39.4-13.3z"/></g></svg>