<svg xmlns="http://www.w3.org/2000/svg" width="543.943" height="212.6" viewBox="0 0 543.943 212.6"><path fill="#783F62" d="M254.02 94.289c-.193 0-.381.04-.57.058-.189-.021-.374-.058-.57-.058H82.435c15.682-11.165 25.769-26.238 31.896-38.439.999-2.013-.523-3.105-.523-3.11-1.68-1.166-3.061.798-3.061.798-33.04 41.829-75.629 20.438-75.629 20.438C5.312 59.85.525 82.761.525 82.761c-2.577 13.724 4.708 20.571 13.641 23.964 4.798 2.592 8.072 7.639 8.072 13.472l.022 63.82c0 2.651 2.173 4.827 4.831 4.827h225.79c.194 0 .381-.041.57-.059.189.022.375.059.57.059V94.289h-.001z"/><path fill="#A4ABB1" d="M43.913 66.687c27.099 2.437 34.72-19.859 34.72-19.859C83.326 34.397 96.82 35.872 96.82 35.872c19.02 3.654-4.994 25.452-4.994 25.452-17.226 13.955-36.903 11.472-48.91 7.833 0 0-1.501-.365-1.336-1.542-.004-.002.062-1.424 2.333-.928zM108.704 13.041c1.595 7.886-3.516 15.563-11.39 17.149s-15.552-3.514-17.147-11.399c-1.585-7.876 3.521-15.551 11.396-17.14 7.876-1.588 15.561 3.515 17.141 11.39z"/><path fill="#783F62" d="M73.523 23.887c3.255 16.126-7.188 31.83-23.301 35.076-16.111 3.243-31.809-7.191-35.057-23.319C11.91 19.539 22.353 3.842 38.459.591c16.117-3.244 31.82 7.189 35.064 23.296z"/><path fill="#FFF" d="M25.216 74.468c-5.795-1.817-11.585-.865-13.991.961 2.864-.93 7.991-1.154 13.578.569 5.558 1.527 10.283 3.968 13.319 4.324-2.694-1.232-7.02-4.213-12.906-5.854zM99.126 38.594c-2.445-1.042-4.911-.552-5.997.004 1.324.238 3.342.292 5.501 1.214 2.245.745 3.083 2.443 3.188 3.837.886-1.007.083-4.264-2.692-5.055zM101.593 5.4c-3.667-2.4-7.741-2.014-9.582-1.277 2.056.043 5.598.223 8.865 2.351 3.234 2.188 4.783 5.372 5.614 7.262-.032-1.988-1.256-5.889-4.897-8.336zM58.974 7.662c-7.487-5.006-15.922-4.37-19.754-2.833 4.195-.204 11.714.163 18.507 4.702 6.829 4.498 10.079 11.289 11.503 15.238-.054-4.133-2.739-12.152-10.256-17.107z"/><g><path fill="#A4ABB1" d="M543.943 184.02c0 2.652-2.172 4.827-4.829 4.827H254.018c-2.655 0-4.828-2.174-4.828-4.827V99.118a4.842 4.842 0 0 1 4.828-4.828h285.095c2.65 0 4.829 2.172 4.829 4.828v84.902h.001z"/></g><g fill="#FFF"><path d="M34.954 131.572c0-16.423 0-19.363-.21-22.731-.21-3.58-1.055-5.267-4.526-5.997-.842-.212-2.632-.316-3.579-.316-.423 0-.841-.209-.841-.631 0-.63.527-.843 1.684-.843 4.739 0 11.052.312 11.895.312 2.314 0 8.42-.312 13.26-.312 13.155 0 17.894 4.417 19.575 5.995 2.315 2.217 5.263 6.951 5.263 12.53 0 14.942-10.946 25.046-25.892 25.046-.527 0-1.684 0-2.21-.108-.527 0-1.157-.21-1.157-.738 0-.842.631-.942 2.84-.942 10.21 0 18.209-7.478 18.209-17.15 0-3.479-.314-10.527-5.893-16.206-5.58-5.69-12-5.269-14.42-5.269-1.789 0-3.579.212-4.526.631-.631.214-.841.946-.841 1.997v43.264c0 10.104 0 18.417.527 22.838.315 3.055.949 5.363 4.105 5.79 1.473.214 3.789.423 4.736.423.631 0 .841.311.841.627 0 .527-.527.842-1.683.842-5.791 0-12.422-.313-12.947-.313-.317 0-6.947.313-10.104.313-1.159 0-1.684-.214-1.684-.842 0-.31.21-.627.841-.627.946 0 2.211-.216 3.157-.423 2.104-.416 2.631-2.733 3.053-5.79.527-4.421.527-12.734.527-22.838v-18.532zM100.942 131.572c0-16.423 0-19.363-.213-22.731-.21-3.58-1.052-5.267-4.526-5.997-.842-.212-2.63-.316-3.579-.316-.421 0-.842-.209-.842-.631 0-.63.527-.843 1.684-.843 4.737 0 11.369.312 11.895.312 1.156 0 9.157-.312 12.418-.312 6.633 0 13.685.629 19.262 4.633 2.631 1.897 7.264 7.045 7.264 14.307 0 7.787-3.266 15.582-12.736 24.313 8.629 11.053 15.786 20.418 21.89 26.945 5.683 5.997 10.208 7.154 12.842 7.574 1.999.313 3.474.313 4.106.313.527 0 .945.316.945.632 0 .632-.631.84-2.525.84h-7.473c-5.893 0-8.527-.525-11.263-1.996-4.526-2.422-8.21-7.576-14.209-15.475-4.421-5.783-9.369-12.834-11.472-15.57-.423-.42-.738-.632-1.37-.632l-12.946-.215c-.527 0-.737.313-.737.843v2.525c0 10.107 0 18.42.527 22.842.314 3.053.949 5.361 4.107 5.788 1.473.212 3.787.42 4.737.42.631 0 .842.314.842.632 0 .525-.525.84-1.684.84-5.789 0-12.419-.31-12.944-.31-.104 0-6.737.31-9.892.31-1.159 0-1.686-.208-1.686-.84 0-.312.213-.632.841-.632.946 0 2.21-.214 3.157-.42 2.104-.418 2.63-2.735 3.053-5.788.527-4.422.527-12.735.527-22.842v-18.519zm8.419 9.157c0 .521.21.938.739 1.267 1.58.938 6.421 1.682 11.051 1.682 2.526 0 5.475-.311 7.894-1.995 3.684-2.525 6.422-8.21 6.422-16.209 0-13.154-6.949-21.049-18.208-21.049-3.159 0-6.002.312-7.052.633-.525.211-.842.631-.842 1.265l-.004 34.406zM174.19 131.572c0-16.423 0-19.363-.213-22.731-.21-3.58-1.052-5.267-4.526-5.997-.842-.212-2.63-.316-3.579-.316-.421 0-.841-.209-.841-.631 0-.63.525-.843 1.684-.843 4.736 0 11.156.312 12.102.312.949 0 7.265-.312 10.417-.312 1.159 0 1.686.212 1.686.843 0 .422-.418.631-.841.631-.736 0-1.369.108-2.632.316-2.84.418-3.68 2.315-3.893 5.997-.213 3.368-.213 6.317-.213 22.731v14.738c0 15.158 3.37 21.68 7.896 25.996 5.157 4.841 9.894 5.791 15.895 5.791 6.42 0 12.734-3.056 16.523-7.572 4.84-5.997 6.103-14.945 6.103-25.79v-13.153c0-16.428 0-19.361-.21-22.729-.21-3.583-1.052-5.27-4.526-6-.842-.213-2.632-.315-3.577-.315-.423 0-.842-.212-.842-.63 0-.631.527-.842 1.683-.842 4.737 0 10.528.313 11.156.313.738 0 5.683-.313 8.841-.313 1.159 0 1.684.212 1.684.842 0 .418-.423.63-.842.63-.74 0-1.37.108-2.632.315-2.842.632-3.681 2.313-3.893 6-.21 3.368-.21 6.313-.21 22.729v11.259c0 11.372-1.265 24.001-9.685 31.478-7.577 6.732-15.472 7.786-21.682 7.786-3.578 0-14.207-.424-21.682-7.479-5.158-4.949-9.156-12.313-9.156-27.681l.005-15.373zM344.264 167.04c.42 3.785 1.16 9.688 5.686 11.154 3.059.945 5.791.945 6.845.945.522 0 .84.104.84.526 0 .63-.941.94-2.207.94-2.319 0-13.688-.312-17.578-.631-2.425-.215-2.952-.521-2.952-1.048 0-.42.214-.632.743-.744.526-.104.628-1.894.414-3.786l-5.053-54.306h-.315l-25.779 54.727c-2.213 4.637-2.527 5.578-3.478 5.578-.736 0-1.267-1.052-3.259-4.843-2.737-5.158-11.789-23.358-12.315-24.413-.945-1.896-12.731-27.153-13.895-29.992h-.417l-4.213 48.842c-.104 1.683-.104 3.578-.104 5.36 0 1.579 1.157 2.951 2.735 3.261 1.79.419 3.366.525 4 .525.416 0 .842.212.842.526 0 .738-.63.942-1.89.942-3.896 0-8.947-.312-9.79-.312-.944 0-5.995.312-8.837.312-1.055 0-1.792-.214-1.792-.942 0-.314.526-.526 1.052-.526.842 0 1.58 0 3.157-.313 3.476-.636 3.79-4.738 4.208-8.734l7.577-68.625c.104-1.16.524-1.894 1.161-1.894.629 0 1.052.419 1.578 1.576l32.203 66.207 30.947-66.099c.423-.948.844-1.685 1.574-1.685.742 0 1.053.841 1.263 2.84l7.049 64.632zM440.029 150.092c0 10.105 0 18.421.529 22.845.312 3.053.944 5.362 4.106 5.785 1.467.217 3.785.421 4.74.421.634 0 .843.315.843.63 0 .527-.528.844-1.688.844-5.795 0-12.423-.313-12.949-.313-.528 0-7.154.313-10.318.313-1.153 0-1.682-.213-1.682-.844 0-.312.213-.63.841-.63.943 0 2.208-.211 3.157-.421 2.099-.413 2.625-2.732 3.056-5.785.521-4.424.521-12.738.521-22.845v-11.049c0-.418-.311-.63-.628-.63h-44.632c-.313 0-.628.104-.628.63v11.049c0 10.105 0 18.421.526 22.845.313 3.053.939 5.362 4.105 5.785 1.47.217 3.787.421 4.736.421.636 0 .843.315.843.63 0 .527-.522.844-1.682.844-5.793 0-12.423-.313-12.951-.313-.521 0-7.149.313-10.315.313-1.157 0-1.683-.213-1.683-.844 0-.312.208-.63.842-.63.942 0 2.21-.211 3.155-.421 2.096-.413 2.627-2.732 3.058-5.785.522-4.424.522-12.738.522-22.845V131.57c0-16.425 0-19.367-.216-22.731-.211-3.582-1.05-5.268-4.526-5.999-.84-.211-2.63-.316-3.581-.316-.423 0-.841-.209-.841-.631 0-.629.524-.842 1.685-.842 4.74 0 11.37.313 11.895.313.526 0 7.154-.313 10.317-.313 1.162 0 1.688.214 1.688.842 0 .422-.421.631-.842.631-.741 0-1.371.108-2.627.316-2.846.525-3.682 2.315-3.901 5.999-.209 3.364-.209 6.315-.209 22.731v2.206c0 .527.313.633.632.633h44.624c.313 0 .63-.104.63-.633v-2.206c0-16.425 0-19.367-.21-22.731-.216-3.582-1.054-5.268-4.525-5.999-.843-.211-2.631-.316-3.582-.316-.423 0-.843-.209-.843-.631 0-.629.524-.842 1.686-.842 4.736 0 11.365.313 11.893.313.528 0 7.157-.313 10.319-.313 1.153 0 1.685.214 1.685.842 0 .422-.423.631-.84.631-.743 0-1.373.108-2.629.316-2.849.525-3.686 2.315-3.895 5.999-.216 3.364-.216 6.315-.216 22.733v18.522h.002v-.004l.003.002zM476.653 170.728c-10.21-9.159-12.735-21.154-12.735-31.151 0-7.05 2.424-19.363 11.786-28.739 6.313-6.314 15.896-11.261 32.106-11.261 4.205 0 10.107.311 15.266 1.264 4 .74 7.367 1.371 10.737 1.578 1.157.104 1.372.526 1.372 1.159 0 .841-.313 2.105-.526 5.893-.211 3.478-.211 9.26-.313 10.848-.105 1.571-.314 2.208-.944 2.208-.735 0-.844-.74-.844-2.208 0-4.111-1.678-8.424-4.417-10.74-3.682-3.157-11.785-6-21.051-6-14.001 0-20.519 4.108-24.204 7.686-7.681 7.368-9.475 16.734-9.475 27.472 0 20.102 15.472 38.519 37.994 38.519 7.896 0 14.105-.944 18.308-5.269 2.213-2.316 3.589-6.947 3.899-8.838.211-1.16.414-1.577 1.05-1.577.521 0 .738.737.738 1.577 0 .74-1.263 9.891-2.316 13.475-.63 1.993-.841 2.208-2.732 3.056-4.208 1.686-12.209 2.43-18.945 2.43-15.805-.02-26.44-3.915-34.754-11.382z"/></g><g fill="#783F62"><path d="M28.536 204.067c0-2.768 0-3.26-.037-3.828-.037-.604-.176-.892-.761-1.018-.143-.038-.442-.05-.604-.05-.07 0-.143-.034-.143-.104 0-.111.09-.141.283-.141.8 0 1.862.055 2.005.055.391 0 1.418-.055 2.234-.055 2.215 0 3.013.746 3.297 1.017.391.368.886 1.171.886 2.106 0 2.52-1.843 4.218-4.362 4.218-.09 0-.284 0-.372-.021-.089 0-.193-.036-.193-.129 0-.137.106-.157.478-.157 1.722 0 3.067-1.26 3.067-2.886 0-.58-.053-1.771-.992-2.728-.939-.958-2.021-.886-2.43-.886-.303 0-.602.036-.761.104-.106.041-.143.156-.143.338v7.288c0 1.703 0 3.103.089 3.85.053.517.16.907.691.978.247.041.638.068.797.068.107 0 .143.052.143.109 0 .087-.089.137-.283.137-.976 0-2.092-.053-2.181-.053-.053 0-1.169.053-1.701.053-.195 0-.285-.04-.285-.137 0-.049.037-.109.143-.109.159 0 .372-.037.532-.068.354-.069.444-.463.515-.978.089-.747.089-2.146.089-3.85l-.001-3.123zM45.23 198.68c3.987 0 6.968 2.52 6.968 6.646 0 3.976-2.8 7.252-7.075 7.252-4.858 0-6.877-3.772-6.877-6.966-.001-2.875 2.091-6.932 6.984-6.932zm.37 13.224c1.595 0 4.894-.921 4.894-6.076 0-4.252-2.59-6.538-5.391-6.538-2.961 0-5.179 1.949-5.179 5.831.003 4.128 2.486 6.783 5.676 6.783zM57.79 207.22c0 2.61.07 3.743.391 4.059.283.29.744.403 2.126.403.939 0 1.721-.019 2.146-.531.229-.284.407-.729.461-1.063.017-.138.053-.224.159-.224.09 0 .106.061.106.265 0 .197-.125 1.26-.266 1.771-.124.401-.176.479-1.117.479-1.277 0-2.198-.035-2.942-.05a34.314 34.314 0 0 0-1.809-.051c-.072 0-.374.021-.727.021-.355.018-.744.036-1.012.036-.193 0-.283-.036-.283-.141 0-.049.037-.109.143-.109.16 0 .372-.035.532-.068.356-.063.442-.462.515-.973.09-.747.09-2.144.09-3.85v-3.121c0-2.769 0-3.262-.037-3.837-.037-.597-.177-.882-.761-1.01-.143-.039-.444-.053-.604-.053-.071 0-.143-.036-.143-.109 0-.104.09-.135.285-.135.798 0 1.916.051 2.005.051.086 0 1.381-.051 1.913-.051.196 0 .285.04.285.135 0 .073-.072.109-.143.109-.125 0-.372.021-.585.053-.514.088-.657.394-.692 1.01-.034.575-.034 1.068-.034 3.837l-.002 3.147zM68.633 207.187c0 1.701 0 3.104.09 3.851.053.515.16.905.692.976.249.041.638.071.798.071.106 0 .141.05.141.106 0 .088-.09.138-.284.138-.976 0-2.091-.05-2.181-.05-.089 0-1.205.05-1.736.05-.196 0-.285-.037-.285-.138 0-.051.037-.106.143-.106.159 0 .372-.04.532-.071.354-.069.442-.461.515-.976.089-.745.089-2.148.089-3.851v-3.12c0-2.77 0-3.262-.037-3.829-.037-.605-.213-.907-.604-.995a2.242 2.242 0 0 0-.549-.073c-.072 0-.143-.033-.143-.104 0-.11.09-.139.283-.139.585 0 1.703.053 1.792.053.09 0 1.206-.053 1.737-.053.196 0 .285.036.285.139 0 .065-.07.104-.141.104-.125 0-.229.021-.444.051-.478.09-.621.396-.654 1.019-.036.567-.036 1.061-.036 3.829l-.003 3.118zM75.154 210.664c-1.722-1.543-2.145-3.563-2.145-5.248 0-1.191.406-3.263 1.986-4.841 1.062-1.063 2.676-1.896 5.406-1.896.708 0 1.703.049 2.572.212.669.13 1.239.229 1.807.267.195.019.232.09.232.2 0 .136-.054.351-.089.991-.037.582-.037 1.559-.053 1.823-.018.268-.053.37-.159.37-.124 0-.138-.128-.138-.37 0-.693-.282-1.42-.744-1.811-.622-.533-1.986-1.017-3.546-1.017-2.358 0-3.457.693-4.077 1.294-1.295 1.242-1.595 2.816-1.595 4.631 0 3.386 2.607 6.488 6.401 6.488 1.328 0 2.376-.156 3.084-.887.374-.393.604-1.171.657-1.487.035-.197.07-.264.176-.264.089 0 .124.127.124.264 0 .129-.212 1.665-.392 2.266-.105.336-.14.377-.46.517-.709.283-2.056.408-3.193.408-2.663.004-4.453-.654-5.854-1.91zM91.879 207.741c0-.959-.176-1.354-.408-1.864-.123-.285-2.5-4.186-3.121-5.105-.442-.657-.886-1.103-1.205-1.305-.266-.178-.604-.288-.763-.288-.09 0-.177-.036-.177-.13 0-.067.072-.127.229-.127.338 0 1.667.053 1.755.053.126 0 .798-.053 1.49-.053.194 0 .229.053.229.127 0 .075-.106.094-.266.16-.142.068-.229.176-.229.315 0 .218.089.424.229.69.283.51 2.944 5.092 3.263 5.604.336-.742 2.588-4.63 2.944-5.215.229-.367.303-.666.303-.899 0-.248-.07-.444-.283-.496-.159-.05-.266-.088-.266-.177 0-.067.107-.106.283-.106.461 0 1.029.056 1.172.056.104 0 1.381-.056 1.72-.056.125 0 .229.037.229.106 0 .09-.089.138-.229.138-.196 0-.532.073-.814.246-.355.216-.551.426-.939.906-.585.711-3.067 4.876-3.386 5.637-.266.644-.266 1.19-.266 1.775v1.523c0 .285 0 1.022.053 1.771.037.516.195.905.727.976.249.041.637.07.798.07.105 0 .142.048.142.107 0 .089-.089.139-.283.139-.973 0-2.091-.05-2.181-.05-.087 0-1.205.05-1.737.05-.196 0-.282-.038-.282-.139 0-.048.034-.107.14-.107.159 0 .372-.04.532-.07.355-.068.514-.462.548-.976.054-.747.054-1.485.054-1.771v-1.521l-.005.006zM107.968 204.067c0-2.768 0-3.26-.036-3.828-.037-.604-.177-.892-.761-1.018-.143-.038-.443-.05-.604-.05-.07 0-.143-.034-.143-.104 0-.111.09-.141.283-.141.798 0 1.916.055 2.005.055.193 0 1.543-.055 2.092-.055 1.116 0 2.304.109 3.244.78.444.317 1.225 1.19 1.225 2.409 0 1.314-.548 2.623-2.146 4.103 1.454 1.86 2.66 3.437 3.688 4.541.957 1.011 1.72 1.201 2.164 1.279.338.05.585.05.691.05.089 0 .159.051.159.107 0 .109-.106.138-.425.138h-1.258c-.993 0-1.435-.09-1.896-.332-.763-.403-1.385-1.285-2.395-2.611-.744-.979-1.578-2.168-1.933-2.62-.07-.069-.123-.106-.229-.106l-2.181-.041c-.09 0-.124.052-.124.138v.426c0 1.703 0 3.103.089 3.848.053.516.16.907.691.979.249.039.64.067.797.067.107 0 .143.05.143.111 0 .087-.089.137-.285.137-.973 0-2.091-.052-2.181-.052-.018 0-1.136.052-1.667.052-.193 0-.282-.039-.282-.137 0-.052.037-.111.142-.111.159 0 .372-.035.532-.067.356-.07.444-.464.515-.979.09-.745.09-2.145.09-3.848v-3.119h-.004v-.001zm1.418 1.544c0 .093.037.161.124.217.266.157 1.082.287 1.86.287.425 0 .923-.047 1.329-.336.621-.427 1.082-1.38 1.082-2.73 0-2.215-1.172-3.546-3.067-3.546-.532 0-1.012.053-1.189.11-.089.036-.14.106-.14.216l.001 5.782zM121.684 204.067c0-2.768 0-3.26-.036-3.828-.037-.604-.176-.892-.761-1.018-.143-.038-.442-.05-.604-.05-.07 0-.143-.034-.143-.104 0-.111.09-.141.282-.141.408 0 .886 0 1.277.021l.727.038c.126 0 3.652 0 4.061-.021.338-.019.621-.054.764-.092.089-.018.16-.087.249-.087.052 0 .07.069.07.157 0 .125-.089.335-.14.835-.018.179-.054.958-.09 1.173-.017.085-.053.201-.123.201-.106 0-.14-.094-.14-.229 0-.13-.019-.423-.106-.643-.124-.285-.302-.49-1.258-.599-.302-.043-2.234-.054-2.43-.054-.071 0-.106.054-.106.177v4.899c0 .125.018.176.106.176.229 0 2.411 0 2.819-.039.425-.04.674-.068.833-.248.123-.139.195-.225.266-.225.053 0 .09.038.09.138 0 .098-.09.402-.14.992-.037.356-.07 1.017-.07 1.135 0 .138 0 .333-.125.333-.087 0-.123-.068-.123-.157 0-.176 0-.354-.071-.582-.07-.248-.229-.557-.923-.619-.48-.056-2.234-.094-2.536-.094-.09 0-.125.053-.125.127v1.561c0 .602-.018 2.659 0 3.034.053 1.221.318 1.456 2.058 1.456.461 0 1.241 0 1.702-.201.461-.191.675-.548.798-1.274.037-.197.07-.27.159-.27.106 0 .106.141.106.27 0 .137-.143 1.351-.229 1.719-.125.469-.266.469-.958.469-1.329 0-2.303-.039-2.997-.051a26.621 26.621 0 0 0-1.381-.053c-.037 0-.336 0-.708.022-.354 0-.763.037-1.029.037-.196 0-.282-.037-.282-.14 0-.051.036-.107.143-.107.159 0 .372-.038.532-.069.355-.067.442-.463.514-.974.09-.75.09-2.149.09-3.853v-3.129h-.007l-.005-.019zM131.711 212.095c-.249-.126-.266-.193-.266-.668 0-.885.07-1.593.089-1.879.018-.196.053-.287.143-.287.106 0 .124.053.124.196 0 .161 0 .41.053.661.266 1.31 1.438 1.81 2.624 1.81 1.703 0 2.536-1.219 2.536-2.353 0-1.221-.515-1.931-2.039-3.192l-.798-.659c-1.879-1.545-2.304-2.646-2.304-3.85 0-1.9 1.418-3.19 3.671-3.19.691 0 1.206.064 1.65.175.336.07.478.09.621.09s.176.037.176.125c0 .091-.07.675-.07 1.885 0 .285-.037.403-.123.403-.107 0-.126-.088-.143-.228-.017-.218-.125-.688-.229-.891-.107-.194-.585-.934-2.215-.934-1.223 0-2.182.76-2.182 2.063 0 1.013.46 1.645 2.164 2.973l.495.394c2.092 1.646 2.589 2.75 2.589 4.17 0 .728-.285 2.076-1.507 2.945-.763.531-1.72.744-2.678.744-.836-.02-1.655-.146-2.381-.503zM143.3 204.067c0-2.768 0-3.26-.037-3.828-.036-.604-.176-.892-.761-1.018-.143-.038-.443-.05-.604-.05-.07 0-.143-.034-.143-.104 0-.111.09-.141.283-.141.409 0 .887 0 1.277.021l.728.038c.125 0 3.652 0 4.06-.021.338-.019.622-.054.763-.092.09-.018.159-.087.249-.087.053 0 .071.069.071.157 0 .125-.09.335-.141.835-.018.179-.053.958-.089 1.173-.017.085-.053.201-.124.201-.106 0-.141-.094-.141-.229 0-.13-.019-.423-.106-.643-.123-.285-.303-.49-1.258-.599-.302-.043-2.234-.054-2.429-.054-.071 0-.106.054-.106.177v4.899c0 .125.018.176.106.176.229 0 2.41 0 2.819-.039.427-.04.674-.068.836-.248.123-.139.195-.225.266-.225.053 0 .09.038.09.138 0 .098-.09.402-.14.992a19.05 19.05 0 0 0-.071 1.135c0 .138 0 .333-.125.333-.088 0-.124-.068-.124-.157 0-.176 0-.354-.07-.582-.07-.248-.229-.557-.923-.619-.48-.056-2.234-.094-2.536-.094-.089 0-.125.053-.125.127v1.561c0 .602-.017 2.659 0 3.034.053 1.221.319 1.456 2.058 1.456.461 0 1.242 0 1.703-.201.461-.191.674-.548.797-1.274.037-.197.07-.27.16-.27.106 0 .106.141.106.27 0 .137-.143 1.351-.229 1.719-.125.469-.266.469-.958.469-1.329 0-2.304-.039-2.997-.051a26.61 26.61 0 0 0-1.382-.053c-.037 0-.338 0-.71.022-.355 0-.761.037-1.027.037-.195 0-.283-.037-.283-.14 0-.051.036-.107.143-.107.159 0 .372-.038.532-.069.355-.067.442-.463.515-.974.089-.75.089-2.149.089-3.853v-3.129h-.008v-.026h-.002v.006h-.002zM157.015 199.369c.212-.582.283-.688.388-.688.107 0 .18.089.392.639.266.667 3.05 7.997 4.131 10.688.638 1.579 1.152 1.863 1.524 1.968.266.093.532.109.709.109.107 0 .177.02.177.108 0 .109-.159.138-.355.138-.266 0-1.558 0-2.782-.039-.338-.02-.532-.02-.532-.127 0-.071.053-.11.123-.128.107-.041.213-.199.107-.484l-1.65-4.362c-.037-.066-.07-.107-.159-.107h-3.812c-.089 0-.143.05-.176.142l-1.063 3.14c-.159.441-.249.869-.249 1.189 0 .354.372.516.674.516h.176c.124 0 .176.041.176.108 0 .109-.106.136-.266.136-.425 0-1.188-.051-1.381-.051s-1.171.051-2.004.051c-.23 0-.336-.036-.336-.136 0-.067.072-.108.159-.108.125 0 .372-.02.515-.037.817-.11 1.171-.779 1.491-1.667l4.023-10.998zm1.843 7.091c.09 0 .09-.054.071-.128l-1.685-4.787c-.09-.266-.176-.266-.266 0l-1.561 4.787c-.037.087 0 .128.051.128h3.39zM167.221 204.067c0-2.768 0-3.26-.039-3.828-.037-.604-.176-.892-.759-1.018-.141-.038-.442-.05-.602-.05-.07 0-.143-.034-.143-.104 0-.111.09-.141.285-.141.799 0 1.914.055 2.002.055.196 0 1.543-.055 2.092-.055 1.117 0 2.304.109 3.244.78.444.317 1.223 1.19 1.223 2.409 0 1.314-.549 2.623-2.146 4.103 1.454 1.86 2.66 3.437 3.686 4.541.957 1.011 1.722 1.201 2.164 1.279.338.05.585.05.691.05.089 0 .159.051.159.107 0 .109-.106.138-.425.138h-1.258c-.994 0-1.438-.09-1.899-.332-.761-.403-1.382-1.285-2.394-2.611-.746-.979-1.577-2.168-1.932-2.62-.071-.069-.125-.106-.23-.106l-2.178-.041c-.09 0-.126.052-.126.138v.426c0 1.703 0 3.103.088 3.848.053.516.159.907.691.979.249.039.64.067.799.067.106 0 .14.05.14.111 0 .087-.089.137-.285.137-.973 0-2.088-.052-2.177-.052-.019 0-1.133.052-1.667.052-.196 0-.285-.039-.285-.137 0-.052.039-.111.143-.111.157 0 .372-.035.532-.067.355-.07.444-.464.515-.979.089-.745.089-2.145.089-3.848v-3.118l.002-.002zm1.419 1.544c0 .093.037.161.125.217.266.157 1.082.287 1.861.287.425 0 .921-.047 1.331-.336.621-.427 1.082-1.38 1.082-2.73 0-2.215-1.171-3.546-3.067-3.546-.532 0-1.011.053-1.188.11-.089.036-.141.106-.141.216l-.003 5.782zM181.327 210.664c-1.722-1.543-2.147-3.563-2.147-5.248 0-1.191.409-3.263 1.988-4.841 1.064-1.063 2.676-1.896 5.407-1.896.71 0 1.702.049 2.57.212.673.13 1.242.229 1.81.267.195.019.231.09.231.2 0 .136-.053.351-.09.991-.034.582-.034 1.559-.051 1.823-.018.268-.054.37-.16.37-.125 0-.14-.128-.14-.37 0-.693-.285-1.42-.747-1.811-.621-.533-1.987-1.017-3.545-1.017-2.358 0-3.458.693-4.077 1.294-1.295 1.242-1.598 2.816-1.598 4.631 0 3.386 2.607 6.488 6.403 6.488 1.326 0 2.375-.156 3.085-.887.372-.393.601-1.171.654-1.487.037-.197.071-.264.176-.264.091 0 .125.127.125.264 0 .129-.213 1.665-.392 2.266-.105.336-.138.377-.458.517-.711.283-2.06.408-3.193.408-2.66.004-4.45-.654-5.851-1.91zM206.527 207.187c0 1.701 0 3.104.089 3.851.053.515.16.905.693.976.247.041.638.071.797.071.107 0 .141.05.141.106 0 .088-.089.138-.285.138-.973 0-2.092-.05-2.178-.05-.09 0-1.205.05-1.737.05-.196 0-.285-.037-.285-.138 0-.051.039-.106.142-.106.16 0 .373-.04.529-.071.355-.069.444-.461.515-.976.089-.745.089-2.148.089-3.851v-1.86c0-.068-.051-.105-.106-.105h-7.518c-.053 0-.106.018-.106.105v1.86c0 1.701 0 3.104.085 3.851.053.515.159.905.693.976.249.041.64.071.8.071.106 0 .14.05.14.106 0 .088-.089.138-.285.138-.976 0-2.091-.05-2.178-.05-.091 0-1.205.05-1.737.05-.197 0-.285-.037-.285-.138 0-.051.037-.106.141-.106.159 0 .372-.04.532-.071.355-.069.444-.461.515-.976.089-.745.089-2.148.089-3.851v-3.12c0-2.77 0-3.262-.037-3.829-.036-.605-.178-.893-.761-1.019-.14-.037-.444-.051-.604-.051-.071 0-.14-.033-.14-.104 0-.11.087-.141.285-.141.797 0 1.912.055 2.003.055.087 0 1.203-.055 1.734-.055.197 0 .285.038.285.141 0 .07-.07.104-.14.104-.126 0-.229.02-.444.051-.478.089-.622.396-.655 1.019-.036.567-.036 1.061-.036 3.829v.372c0 .09.051.107.106.107h7.517c.053 0 .106-.019.106-.107v-.372c0-2.77 0-3.262-.037-3.829-.037-.605-.176-.893-.761-1.019-.141-.037-.442-.051-.603-.051-.072 0-.142-.033-.142-.104 0-.11.089-.141.285-.141.797 0 1.913.055 2.002.055.086 0 1.205-.055 1.734-.055.193 0 .285.038.285.141 0 .07-.07.104-.143.104-.125 0-.229.02-.444.051-.478.089-.619.396-.654 1.019-.038.567-.038 1.061-.038 3.829v3.12h.007zM218.269 204.067c0-2.768 0-3.26-.037-3.828-.037-.604-.176-.892-.763-1.018-.14-.038-.442-.05-.601-.05-.071 0-.14-.034-.14-.104 0-.111.089-.141.282-.141.799 0 1.881.055 2.041.055.16 0 1.222-.055 1.753-.055.195 0 .285.039.285.141 0 .07-.072.104-.138.104-.125 0-.229.019-.442.05-.48.073-.623.396-.659 1.018-.037.568-.037 1.062-.037 3.828v2.482c0 2.554.567 3.655 1.331 4.382.867.818 1.667.977 2.676.977 1.082 0 2.147-.516 2.785-1.277.819-1.013 1.027-2.521 1.027-4.348v-2.216c0-2.768 0-3.26-.037-3.828-.037-.604-.174-.892-.761-1.018-.143-.038-.442-.05-.602-.05-.07 0-.142-.034-.142-.104 0-.111.091-.141.285-.141.797 0 1.772.055 1.879.055.125 0 .959-.055 1.491-.055.194 0 .285.039.285.141 0 .07-.072.104-.143.104-.125 0-.229.019-.442.05-.479.11-.621.396-.657 1.018-.038.568-.038 1.062-.038 3.828v1.896c0 1.918-.215 4.043-1.633 5.306-1.277 1.133-2.608 1.313-3.654 1.313-.604 0-2.395-.07-3.652-1.262-.868-.838-1.543-2.078-1.543-4.661l.001-2.592zM234.837 209.917c.037 1.458.213 1.913.691 2.061.336.089.727.108.887.108.089 0 .14.037.14.106 0 .109-.106.137-.319.137-1.01 0-1.72-.051-1.877-.051-.159 0-.905.051-1.702.051-.179 0-.285-.02-.285-.137 0-.069.053-.106.141-.106.143 0 .461-.021.729-.108.442-.13.529-.642.529-2.255l.019-10.157c0-.691.053-.887.195-.887.143 0 .444.391.621.566.266.31 2.909 3.152 5.635 6.079 1.758 1.882 3.689 4.04 4.258 4.629l-.196-9.005c-.019-1.155-.14-1.543-.691-1.688a5.39 5.39 0 0 0-.87-.086c-.125 0-.141-.048-.141-.128 0-.106.141-.127.355-.127.798 0 1.646.052 1.846.052.191 0 .779-.052 1.505-.052.195 0 .319.02.319.127 0 .069-.072.128-.196.128-.089 0-.214 0-.424.052-.585.131-.657.515-.657 1.577l-.041 10.392c0 1.171-.033 1.264-.16 1.264-.14 0-.351-.202-1.292-1.133-.194-.179-2.747-2.788-4.626-4.812a345.775 345.775 0 0 1-4.63-5.089l.237 8.492zM252.984 207.187c0 1.701 0 3.104.087 3.851.053.515.159.905.692.976.246.041.637.071.795.071.108 0 .143.05.143.106 0 .088-.09.138-.287.138-.973 0-2.089-.05-2.178-.05-.09 0-1.205.05-1.734.05-.195 0-.283-.037-.283-.138 0-.051.033-.106.139-.106.158 0 .371-.04.531-.071.356-.069.443-.461.516-.976.088-.745.088-2.148.088-3.851v-3.12c0-2.77 0-3.262-.037-3.829-.037-.605-.213-.907-.602-.995a2.256 2.256 0 0 0-.551-.073c-.07 0-.141-.033-.141-.104 0-.11.087-.139.283-.139.585 0 1.701.053 1.792.053.09 0 1.204-.053 1.733-.053.198 0 .285.036.285.139 0 .065-.07.104-.141.104-.124 0-.229.021-.441.051-.481.09-.623.396-.66 1.019-.033.567-.033 1.061-.033 3.829l.004 3.118zM263.418 207.187c0 1.701 0 3.104.09 3.851.053.515.159.905.69.976.249.041.64.071.8.071.105 0 .141.05.141.106 0 .088-.091.138-.285.138-.977 0-2.09-.05-2.181-.05-.089 0-1.204.05-1.737.05-.194 0-.285-.037-.285-.138 0-.051.037-.106.141-.106.16 0 .375-.04.534-.071.354-.069.442-.461.512-.976.089-.745.089-2.148.089-3.851v-7.497l-2.623.042c-1.102.019-1.527.136-1.81.567a2.901 2.901 0 0 0-.302.554c-.053.138-.105.173-.178.173-.054 0-.088-.046-.088-.155 0-.175.354-1.704.391-1.842.035-.112.106-.335.177-.335.124 0 .303.177.78.218.513.046 1.188.084 1.398.084h6.648c.57 0 .977-.038 1.261-.084.267-.041.425-.096.495-.096.088 0 .088.108.088.221 0 .529-.051 1.75-.051 1.949 0 .154-.053.225-.125.225-.09 0-.125-.047-.141-.303l-.02-.197c-.053-.532-.479-.937-2.18-.974l-2.235-.041.006 7.491zM280.959 206.782c.304 0 .532.037.532.172 0 .22-.336.25-.623.31-.483.067-3.612.49-4.219.662-.328.087-.635.261-.728.261-.109 0-.129-.104-.088-.261l.268-.998c.036-.129.102-.14.393-.14l4.465-.006zM304.922 210.045c.072.64.195 1.634.955 1.879.515.162.978.162 1.155.162.089 0 .134.019.134.087 0 .109-.155.159-.368.159-.396 0-2.311-.05-2.966-.104-.403-.041-.494-.09-.494-.18 0-.068.039-.109.128-.13.088-.019.107-.313.066-.64l-.849-9.149h-.045l-4.348 9.22c-.373.776-.423.938-.582.938-.132 0-.217-.179-.551-.822-.463-.862-1.99-3.936-2.076-4.114-.16-.314-2.146-4.571-2.347-5.054h-.065l-.711 8.229c-.018.283-.018.601-.018.905 0 .267.199.491.466.555.304.066.569.087.671.087.061 0 .132.037.132.088 0 .13-.112.156-.313.156-.661 0-1.508-.051-1.647-.051-.157 0-1.014.051-1.49.051-.179 0-.304-.035-.304-.156 0-.051.091-.088.179-.088.139 0 .267 0 .53-.05.583-.112.641-.803.71-1.472l1.276-11.56c.021-.198.091-.313.2-.313.111 0 .175.064.269.264l5.422 11.146 5.215-11.128c.07-.157.139-.284.266-.284.128 0 .18.137.216.478l1.184 10.891zM313.046 201.232c.198-.491.268-.58.375-.58.157 0 .214.214.371.549.286.64 2.79 6.866 3.748 9.152.569 1.351.992 1.547 1.33 1.648.225.065.46.087.617.087.093 0 .197.039.197.128 0 .095-.175.129-.354.129-.227 0-1.38 0-2.459-.034-.309-.023-.554-.023-.554-.111 0-.069.041-.069.108-.108.091-.037.246-.16.138-.402l-1.4-3.455c-.036-.071-.047-.094-.138-.094h-3.599c-.067 0-.127.039-.161.129l-.885 2.414c-.136.371-.227.75-.227 1.013 0 .308.266.402.533.402h.138c.128 0 .155.055.155.13 0 .093-.089.128-.226.128-.375 0-1.223-.051-1.401-.051-.156 0-.936.051-1.571.051-.198 0-.308-.037-.308-.128 0-.068.069-.13.137-.13.105 0 .337-.018.466-.034.708-.094 1.012-.621 1.31-1.383l3.66-9.45zm1.741 6.271c.069 0 .069-.035.05-.103l-1.543-4.129c-.09-.229-.179-.229-.267 0l-1.46 4.129c-.019.066 0 .103.05.103h3.17zM324.354 207.947c0 1.461 0 2.645.068 3.261.048.444.125.729.601.8.212.039.57.068.709.068.109 0 .128.069.128.126 0 .071-.069.132-.248.132-.844 0-1.844-.053-1.93-.053-.067 0-1.15.053-1.616.053-.18 0-.245-.04-.245-.132 0-.048.038-.11.125-.11.142 0 .319-.036.466-.062.313-.069.402-.377.463-.82.069-.618.069-1.809.069-3.261v-6.33l-2.256.036c-.978.019-1.352.13-1.579.484-.175.262-.195.372-.247.476-.035.131-.087.143-.153.143-.043 0-.112-.043-.112-.13 0-.157.319-1.507.34-1.635.039-.09.104-.286.158-.286.107 0 .267.131.688.179.438.046 1.048.067 1.225.067h5.889c.511 0 .863-.038 1.111-.067.229-.039.374-.065.444-.065.064 0 .064.084.064.173 0 .462-.046 1.544-.046 1.723 0 .129-.074.2-.14.2-.069 0-.11-.053-.13-.266l-.021-.157c-.052-.464-.393-.8-1.88-.841l-1.95-.036v6.332l.005-.002zM332.113 205.29c0-2.344 0-2.766-.039-3.243-.038-.513-.124-.76-.641-.839a4.935 4.935 0 0 0-.528-.039c-.052 0-.133-.066-.133-.125 0-.09.072-.129.25-.129.707 0 1.723.039 1.81.039.111 0 3.37.02 3.725 0 .31-.021.58-.067.709-.093.065-.018.135-.065.215-.065.052 0 .065.065.065.135 0 .111-.082.287-.125.71-.021.14-.052.818-.09.998-.016.065-.065.157-.134.157-.096 0-.134-.068-.134-.2 0-.104-.019-.354-.087-.531-.105-.247-.268-.354-1.114-.46-.267-.041-2.077-.053-2.254-.053-.067 0-.092.053-.092.158v4.094c0 .11 0 .162.092.162.197 0 2.254 0 2.61-.039.371-.039.603-.049.757-.212.11-.106.176-.2.228-.2.05 0 .093.04.093.125 0 .094-.093.341-.129.845a11.19 11.19 0 0 0-.069.974c0 .127-.041.284-.139.284-.072 0-.107-.051-.107-.142 0-.136 0-.304-.07-.488-.049-.222-.194-.396-.803-.464-.416-.049-2.084-.071-2.351-.071-.087 0-.11.052-.11.11v1.259c0 .514-.018 2.268 0 2.575.039 1.008.317 1.198 1.863 1.198.407 0 1.153 0 1.558-.154.4-.178.621-.442.71-1.047.039-.179.066-.23.159-.23.086 0 .105.128.105.23 0 .108-.13 1.13-.216 1.456-.108.392-.267.392-.867.392-1.171 0-2.083-.035-2.711-.046-.658-.041-1.063-.041-1.29-.041-.04 0-.334 0-.668.021-.308.02-.662.039-.91.039-.157 0-.244-.039-.244-.131a.13.13 0 0 1 .13-.127c.137 0 .332-.048.48-.069.302-.052.335-.356.4-.798.092-.623.092-1.811.092-3.263v-2.662h.004zM342.23 205.29c0-2.344 0-2.766-.041-3.243-.037-.513-.127-.76-.637-.839a4.806 4.806 0 0 0-.535-.039c-.046 0-.125-.066-.125-.125 0-.09.064-.129.246-.129.709 0 1.756.039 1.842.039.159 0 1.467-.039 1.953-.039.994 0 2.089.088 2.905.66.392.287 1.085 1.016 1.085 2.058 0 1.112-.462 2.195-1.913 3.439 1.279 1.599 2.354 2.963 3.262 3.902.837.845 1.348.992 1.733 1.045.302.049.464.049.55.049.094 0 .137.064.137.128 0 .091-.088.13-.369.13h-.976c-.889 0-1.279-.089-1.669-.305-.666-.357-1.237-1.084-2.124-2.218-.664-.818-1.351-1.794-1.687-2.198-.067-.067-.108-.087-.219-.087l-1.985-.039c-.071 0-.108.039-.108.126v.358c0 1.458 0 2.616.065 3.239.056.438.142.728.625.798.214.041.554.069.688.069.111 0 .125.065.125.125 0 .07-.064.131-.245.131-.847 0-1.839-.051-1.913-.051-.017 0-1.06.051-1.544.051-.156 0-.246-.037-.246-.131a.13.13 0 0 1 .134-.125c.132 0 .327-.037.477-.069.307-.07.334-.359.401-.798.088-.623.088-1.813.088-3.263v-2.656h.011v.005h.014v.002h-.005zm1.346 1.278c0 .09.039.136.107.195.227.128 1.024.229 1.724.229.377 0 .8-.02 1.173-.268.529-.354.932-1.153.932-2.307 0-1.882-1.02-2.963-2.692-2.963-.466 0-.955.052-1.119.093-.066.037-.125.086-.125.175v4.846zM355.146 210.274c.039 1.238.179 1.614.603 1.724.286.068.64.089.775.089.07 0 .134.052.134.124 0 .093-.111.131-.286.131-.889 0-1.506-.052-1.648-.052-.14 0-.796.052-1.507.052-.157 0-.248-.02-.248-.131 0-.064.053-.124.131-.124.129 0 .406-.021.644-.089.393-.108.442-.517.442-1.886v-8.637c0-.597.085-.754.214-.754.179 0 .443.306.602.465.246.246 2.521 2.658 4.926 5.146 1.544 1.594 3.212 3.387 3.681 3.877l-.153-7.554c-.016-.975-.112-1.313-.584-1.4a5.225 5.225 0 0 0-.76-.068c-.105 0-.127-.093-.127-.142 0-.086.127-.104.311-.104.701 0 1.456.038 1.632.038s.69-.038 1.327-.038c.157 0 .289.019.289.104 0 .052-.076.142-.18.142-.07 0-.198 0-.375.036-.512.111-.553.404-.553 1.313l-.039 8.827c0 .998-.018 1.082-.129 1.082-.159 0-.316-.125-1.189-.923-.162-.141-2.412-2.354-4.059-4.082-1.812-1.896-3.567-3.746-4.036-4.278l.162 7.112zM371.979 201.232c.195-.491.264-.58.375-.58.156 0 .21.214.368.549.285.64 2.791 6.866 3.746 9.152.573 1.351.992 1.547 1.333 1.648.225.065.461.087.617.087.09 0 .198.039.198.128 0 .095-.175.129-.354.129-.227 0-1.382 0-2.46-.034-.311-.023-.553-.023-.553-.111 0-.069.039-.069.108-.108.088-.037.246-.16.134-.402l-1.397-3.455c-.037-.071-.05-.094-.139-.094h-3.597c-.063 0-.126.039-.155.129l-.889 2.414c-.14.371-.228.75-.228 1.013 0 .308.267.402.532.402h.139c.127 0 .159.055.159.13 0 .093-.088.128-.229.128-.373 0-1.224-.051-1.4-.051-.152 0-.932.051-1.578.051-.189 0-.302-.037-.302-.128 0-.068.073-.13.138-.13.107 0 .336-.018.464-.034.71-.094 1.017-.621 1.312-1.383l3.658-9.45zm1.743 6.271c.066 0 .066-.035.045-.103l-1.545-4.129c-.088-.229-.174-.229-.267 0l-1.458 4.129c-.018.066 0 .103.05.103h3.175zM382.432 207.985c0 2.218.043 3.123.319 3.389.242.248.846.358 2.073.358.821 0 1.511-.021 1.884-.465.197-.229.317-.553.376-.854.021-.103.068-.19.157-.19.071 0 .107.065.107.228 0 .157-.107 1.063-.227 1.506-.108.355-.158.405-.994.405a59.6 59.6 0 0 1-2.714-.053c-.709-.02-1.237-.038-1.701-.038-.066 0-.334 0-.637.018-.318.02-.662.039-.91.039-.157 0-.245-.039-.245-.13 0-.05.036-.129.125-.129.143 0 .339-.037.483-.067.306-.069.334-.354.403-.798.092-.621.092-1.81.092-3.263v-2.657c0-2.343 0-2.764-.04-3.241-.042-.512-.128-.76-.642-.841a5.723 5.723 0 0 0-.53-.037c-.051 0-.129-.065-.129-.123 0-.093.067-.13.248-.13.711 0 1.687.037 1.771.037.071 0 1.242-.037 1.728-.037.157 0 .246.037.246.13 0 .048-.068.105-.13.105-.108 0-.336.02-.516.039-.463.091-.548.314-.58.848-.018.485-.018.906-.018 3.237l.001 2.714zM408.078 207.187c0 1.701 0 3.104.093 3.851.045.515.157.905.689.976.244.041.641.071.801.071.104 0 .132.05.132.106 0 .088-.085.138-.283.138-.977 0-2.088-.05-2.178-.05-.089 0-1.204.05-1.736.05-.195 0-.285-.037-.285-.138 0-.051.041-.106.14-.106.157 0 .373-.04.534-.071.354-.069.439-.461.512-.976.088-.745.088-2.148.088-3.851v-1.86a.1.1 0 0 0-.104-.105h-7.52c-.047 0-.113.018-.113.105v1.86c0 1.701 0 3.104.098 3.851.045.515.152.905.684.976.248.041.646.071.798.071.112 0 .141.05.141.106 0 .088-.086.138-.286.138-.974 0-2.088-.05-2.18-.05-.086 0-1.198.05-1.73.05-.192 0-.287-.037-.287-.138 0-.051.041-.106.139-.106.157 0 .375-.04.532-.071.353-.069.442-.461.514-.976.091-.745.091-2.148.091-3.851v-3.12c0-2.77 0-3.262-.04-3.829-.044-.605-.179-.893-.758-1.019a3.2 3.2 0 0 0-.603-.051c-.069 0-.138-.033-.138-.104 0-.11.088-.141.286-.141.801 0 1.914.055 1.998.055.09 0 1.202-.055 1.734-.055.196 0 .282.038.282.141 0 .07-.064.104-.133.104-.132 0-.229.02-.444.051-.482.089-.617.396-.662 1.019-.034.567-.034 1.061-.034 3.829v.372c0 .09.05.107.107.107h7.516c.051 0 .108-.019.108-.107v-.372c0-2.77 0-3.262-.041-3.829-.039-.605-.178-.893-.757-1.019-.139-.037-.444-.051-.604-.051-.067 0-.136-.033-.136-.104 0-.11.089-.141.282-.141.801 0 1.913.055 2.002.055s1.201-.055 1.733-.055c.198 0 .284.038.284.141 0 .07-.068.104-.14.104-.123 0-.223.02-.437.051-.485.089-.625.396-.666 1.019-.037.567-.037 1.061-.037 3.829v3.12h.014zM414.328 205.29c0-2.344 0-2.766-.041-3.243-.039-.513-.127-.76-.637-.839a4.914 4.914 0 0 0-.532-.039c-.052 0-.128-.066-.128-.125 0-.09.066-.129.248-.129.703 0 1.724.039 1.808.039.11 0 3.367.02 3.726 0a5.8 5.8 0 0 0 .71-.093c.07-.018.136-.065.213-.065.054 0 .068.065.068.135 0 .111-.087.287-.129.71-.018.14-.046.818-.085.998-.02.065-.07.157-.14.157-.087 0-.127-.068-.127-.2a1.65 1.65 0 0 0-.093-.531c-.104-.247-.265-.354-1.113-.46-.266-.041-2.075-.053-2.252-.053-.071 0-.092.053-.092.158v4.094c0 .11 0 .162.092.162.193 0 2.252 0 2.606-.039.375-.039.601-.049.758-.212.107-.106.178-.2.229-.2.047 0 .088.04.088.125 0 .094-.088.341-.129.845-.039.297-.067.862-.067.974 0 .127-.038.284-.136.284-.068 0-.109-.051-.109-.142 0-.136 0-.304-.068-.488-.05-.222-.198-.396-.798-.464-.423-.049-2.092-.071-2.357-.071-.087 0-.104.052-.104.11v1.259c0 .514-.019 2.268 0 2.575.036 1.008.313 1.198 1.858 1.198.403 0 1.157 0 1.556-.154.409-.178.623-.442.714-1.047.036-.179.065-.23.157-.23.088 0 .108.128.108.23 0 .108-.135 1.13-.218 1.456-.111.392-.269.392-.868.392-1.17 0-2.077-.035-2.707-.046-.664-.041-1.064-.041-1.292-.041-.043 0-.337 0-.671.021-.306.02-.66.039-.905.039-.161 0-.246-.039-.246-.131 0-.05.036-.127.13-.127.132 0 .331-.048.479-.069.306-.052.334-.356.403-.798.091-.623.091-1.811.091-3.263v-2.66l.002-.002zM426.823 201.232c.198-.491.264-.58.369-.58.161 0 .214.214.377.549.282.64 2.785 6.866 3.739 9.152.571 1.351 1.002 1.547 1.333 1.648.228.065.464.087.623.087.09 0 .194.039.194.128 0 .095-.177.129-.354.129-.228 0-1.381 0-2.464-.034-.302-.023-.554-.023-.554-.111 0-.069.043-.069.107-.108.095-.037.25-.16.143-.402l-1.4-3.455c-.041-.071-.049-.094-.14-.094h-3.595c-.071 0-.125.039-.159.129l-.885 2.414c-.138.371-.229.75-.229 1.013 0 .308.266.402.535.402h.136c.132 0 .159.055.159.13 0 .093-.089.128-.231.128-.369 0-1.218-.051-1.396-.051-.157 0-.935.051-1.574.051-.198 0-.311-.037-.311-.128 0-.068.073-.13.144-.13.106 0 .332-.018.46-.034.713-.094 1.017-.621 1.313-1.383l3.66-9.45zm1.732 6.271c.071 0 .071-.035.053-.103l-1.544-4.129c-.092-.229-.179-.229-.269 0l-1.46 4.129c-.018.066 0 .103.051.103h3.169zM437.272 207.985c0 2.218.043 3.123.318 3.389.246.248.849.358 2.079.358.815 0 1.503-.021 1.874-.465.207-.229.321-.553.378-.854.021-.103.071-.19.163-.19.067 0 .104.065.104.228 0 .157-.104 1.063-.228 1.506-.106.355-.159.405-.994.405-1.113 0-1.989-.02-2.708-.053-.71-.02-1.242-.038-1.708-.038-.064 0-.333 0-.637.018-.319.02-.664.039-.903.039-.164 0-.25-.039-.25-.13 0-.05.041-.129.135-.129.133 0 .328-.037.477-.067.306-.069.336-.354.402-.798.089-.621.089-1.81.089-3.263v-2.657c0-2.343 0-2.764-.039-3.241-.034-.512-.125-.76-.636-.841a5.876 5.876 0 0 0-.537-.037c-.048 0-.127-.065-.127-.123 0-.093.069-.13.248-.13.709 0 1.684.037 1.773.037.067 0 1.236-.037 1.727-.037.154 0 .242.037.242.13 0 .048-.067.105-.129.105-.106 0-.335.02-.511.039-.464.091-.553.314-.58.848-.023.485-.023.906-.023 3.237v2.714h.001zM448.123 207.947c0 1.461 0 2.645.066 3.261.05.444.128.729.604.8.211.039.567.068.703.068.111 0 .134.069.134.126 0 .071-.068.132-.248.132-.849 0-1.843-.053-1.931-.053-.071 0-1.154.053-1.615.053-.179 0-.246-.04-.246-.132 0-.048.037-.11.127-.11.138 0 .315-.036.467-.062.313-.069.398-.377.462-.82.068-.618.068-1.809.068-3.261v-6.33l-2.256.036c-.976.019-1.353.13-1.579.484-.177.262-.198.372-.246.476-.041.131-.09.143-.156.143-.039 0-.109-.043-.109-.13 0-.157.315-1.507.336-1.635.039-.09.107-.286.159-.286.105 0 .266.131.687.179.442.046 1.046.067 1.226.067h5.892c.508 0 .863-.038 1.109-.067.227-.039.373-.065.443-.065.068 0 .068.084.068.173 0 .462-.049 1.544-.049 1.723 0 .129-.072.2-.146.2-.063 0-.104-.053-.126-.266l-.021-.157c-.045-.464-.392-.8-1.876-.841l-1.952-.036.005 6.33zM465.399 207.947c0 1.461.02 2.645.087 3.261.049.444.091.729.575.8.212.039.568.068.687.068.109 0 .142.069.142.126 0 .071-.088.132-.267.132-.85 0-1.845-.053-1.935-.053-.067 0-1.079.053-1.544.053-.179 0-.246-.04-.246-.132 0-.048.039-.126.127-.126.14 0 .318-.04.462-.068.313-.07.373-.375.425-.816.066-.623.066-1.754.066-3.212v-1.506c0-.066-.037-.089-.086-.089h-6.513c-.049 0-.092.02-.092.089v1.507c0 1.457 0 2.609.071 3.229.052.444.104.732.565.798.231.041.576.069.71.069a.13.13 0 0 1 .133.131c0 .066-.069.129-.248.129-.869 0-1.863-.051-1.932-.051-.089 0-1.083.051-1.558.051-.157 0-.245-.041-.245-.129 0-.05.038-.131.127-.131.139 0 .336-.038.481-.069.308-.064.336-.354.401-.798.091-.618.091-1.809.091-3.259v-2.661c0-2.341 0-2.764-.038-3.238-.038-.513-.126-.759-.641-.841a4.896 4.896 0 0 0-.531-.038c-.05 0-.129-.066-.129-.125 0-.09.069-.129.248-.129.709 0 1.703.039 1.792.039.067 0 1.062-.039 1.547-.039.18 0 .245.039.245.129 0 .051-.065.125-.127.125-.106 0-.216 0-.395.038-.424.091-.517.31-.553.841-.021.481-.021.936-.021 3.28v.312c0 .094.042.094.091.094h6.512c.05 0 .086 0 .086-.094v-.312c0-2.346-.021-2.799-.036-3.28-.043-.513-.109-.759-.623-.841a4.733 4.733 0 0 0-.526-.038c-.071 0-.131-.066-.131-.125 0-.09.07-.129.245-.129.688 0 1.706.039 1.776.039.086 0 1.08-.039 1.546-.039.176 0 .267.039.267.129 0 .051-.071.125-.138.125-.112 0-.2 0-.396.038-.406.091-.501.31-.531.841-.047.481-.047.906-.047 3.238l.024 2.657zM475.493 208.657c0-2.079 1.328-3.459 2.706-4.273-.657-.925-.868-1.646-.868-2.451 0-1.391 1.438-3.254 3.813-3.254.91 0 1.67.176 2.152.441.216.126.223.225.223.442 0 .53-.068 1.771-.126 2.038-.049.267-.108.304-.177.304-.09 0-.108-.071-.108-.331 0-.465-.108-1.046-.551-1.508-.396-.405-.997-.778-1.774-.778-1.063 0-2.25.657-2.25 2.324 0 1.381.952 2.529 2.796 4.54.602.662 2.788 2.699 3.347 3.173.498-.669.91-1.863.91-2.946 0-.264-.075-.6-.336-.867-.229-.224-.604-.283-.867-.283-.112 0-.216-.04-.216-.135 0-.087.14-.123.284-.123.426 0 1.137.021 2.129.123.266.046.313.18.313.36 0 1.437-.973 3.23-1.75 4.187 1.171.997 1.95 1.467 2.444 1.749.569.342 1.466.695 2.109.695.156 0 .244.016.244.126 0 .068-.138.129-.307.129h-1.73c-1.315 0-1.736-.129-3.687-1.665-.407.403-1.812 1.911-4.434 1.911-3.088-.007-4.289-2.383-4.289-3.928zm8.273 1.67c-.991-.82-2.741-2.505-3.208-2.998-.465-.492-1.598-1.752-2.092-2.48-.923.598-1.594 1.559-1.594 2.975 0 2.216 1.556 3.813 3.546 3.813 1.65.002 2.747-.691 3.348-1.31zM498.081 210.664c-1.726-1.543-2.146-3.563-2.146-5.248 0-1.191.403-3.263 1.988-4.841 1.063-1.063 2.682-1.896 5.408-1.896.708 0 1.702.049 2.571.212.671.13 1.237.229 1.81.267.196.019.228.09.228.2 0 .136-.053.351-.087.991-.041.582-.041 1.559-.053 1.823-.02.268-.049.37-.156.37-.127 0-.139-.128-.139-.37 0-.693-.285-1.42-.746-1.811-.623-.533-1.992-1.017-3.546-1.017-2.356 0-3.459.693-4.082 1.294-1.29 1.242-1.595 2.816-1.595 4.631 0 3.386 2.612 6.488 6.403 6.488 1.329 0 2.379-.156 3.084-.887.375-.393.598-1.171.664-1.487.03-.197.063-.264.175-.264.091 0 .13.127.13.264 0 .129-.218 1.665-.401 2.266-.104.336-.138.377-.461.517-.708.283-2.058.402-3.189.402-2.667.01-4.457-.648-5.86-1.904zM514.545 201.232c.2-.491.266-.58.373-.58.164 0 .216.214.375.549.287.64 2.791 6.866 3.746 9.152.57 1.351.994 1.547 1.327 1.648.227.065.468.087.621.087.092 0 .194.039.194.128 0 .095-.176.129-.349.129-.229 0-1.387 0-2.466-.034-.305-.023-.549-.023-.549-.111 0-.069.038-.069.103-.108.089-.037.246-.16.142-.402l-1.404-3.455c-.036-.071-.045-.094-.141-.094h-3.591c-.064 0-.13.039-.157.129l-.889 2.414c-.141.371-.225.75-.225 1.013 0 .308.263.402.532.402h.136c.132 0 .156.055.156.13 0 .093-.088.128-.226.128-.375 0-1.223-.051-1.398-.051-.157 0-.938.051-1.579.051-.196 0-.305-.037-.305-.128 0-.068.069-.13.137-.13.111 0 .338-.018.466-.034.714-.094 1.016-.621 1.313-1.383l3.658-9.45zm1.735 6.271c.07 0 .07-.035.054-.103l-1.547-4.129c-.088-.229-.179-.229-.268 0l-1.455 4.129c-.019.066 0 .103.048.103h3.168zM523.581 205.29c0-2.344 0-2.766-.04-3.243-.037-.513-.126-.76-.641-.839a4.84 4.84 0 0 0-.529-.039c-.054 0-.131-.066-.131-.125 0-.09.068-.129.248-.129.711 0 1.757.039 1.844.039.159 0 1.465-.039 1.952-.039.992 0 2.089.088 2.906.66.391.287 1.086 1.016 1.086 2.058 0 1.112-.467 2.195-1.914 3.439 1.276 1.599 2.352 2.963 3.259 3.902.835.845 1.349.992 1.732 1.045.308.049.464.049.554.049.087 0 .141.064.141.128 0 .091-.093.13-.378.13h-.973c-.889 0-1.282-.089-1.662-.305-.675-.357-1.245-1.084-2.138-2.218-.657-.818-1.347-1.794-1.683-2.198-.063-.067-.107-.087-.214-.087l-1.981-.036c-.066 0-.109.041-.109.129v.356c0 1.459 0 2.617.071 3.241.05.439.134.728.618.796.221.041.553.071.691.071.108 0 .126.063.126.125 0 .07-.065.132-.244.132-.846 0-1.847-.053-1.913-.053-.02 0-1.063.053-1.546.053-.16 0-.244-.04-.244-.132 0-.05.037-.125.125-.125.142 0 .335-.039.479-.071.305-.068.337-.355.406-.796.095-.624.095-1.811.095-3.264v-2.657h.006v.008h.002v-.006h-.001zm1.344 1.278c0 .09.039.136.11.195.225.128 1.021.229 1.723.229.373 0 .796-.02 1.171-.268.531-.354.936-1.153.936-2.307 0-1.882-1.026-2.963-2.698-2.963-.464 0-.953.052-1.115.093-.067.037-.127.086-.127.175v4.846zM535.84 205.29c0-2.344 0-2.766-.036-3.243-.041-.513-.128-.76-.643-.839a4.84 4.84 0 0 0-.531-.039c-.05 0-.125-.066-.125-.125 0-.09.067-.129.242-.129.715 0 1.729.039 1.815.039.104 0 3.367.02 3.716 0 .311-.021.587-.067.71-.093.067-.018.142-.065.218-.065.05 0 .068.065.068.135 0 .111-.089.287-.123.71-.021.14-.053.818-.094.998-.021.065-.07.157-.14.157-.086 0-.125-.068-.125-.2 0-.104-.023-.354-.087-.531-.114-.247-.271-.354-1.117-.46-.269-.041-2.079-.053-2.256-.053-.073 0-.09.053-.09.158v4.094c0 .11 0 .162.09.162.192 0 2.256 0 2.608-.039.373-.039.597-.049.765-.212.1-.106.171-.2.223-.2.055 0 .089.04.089.125 0 .094-.089.341-.128.845-.043.297-.07.862-.07.974 0 .127-.038.284-.136.284-.069 0-.109-.051-.109-.142 0-.136 0-.304-.069-.488-.05-.222-.195-.396-.798-.464-.423-.049-2.088-.071-2.356-.071-.089 0-.103.052-.103.11v1.259c0 .514-.022 2.268 0 2.575.037 1.008.313 1.198 1.857 1.198.406 0 1.156 0 1.561-.154.404-.178.619-.442.706-1.047.038-.179.07-.23.159-.23.087 0 .106.128.106.23 0 .108-.131 1.13-.218 1.456-.104.392-.263.392-.868.392-1.17 0-2.077-.035-2.705-.046-.666-.041-1.066-.041-1.288-.041-.045 0-.342 0-.675.021-.302.02-.659.039-.906.039-.155 0-.242-.039-.242-.131 0-.05.035-.127.128-.127.138 0 .334-.048.479-.069.307-.052.336-.356.403-.798.093-.623.093-1.811.093-3.263v-2.66l.002-.002z"/></g><g fill="#FFF"><path d="M34.954 131.572c0-16.423 0-19.363-.21-22.731-.21-3.58-1.055-5.267-4.526-5.997-.842-.212-2.632-.316-3.579-.316-.423 0-.841-.209-.841-.631 0-.63.527-.843 1.684-.843 4.739 0 11.052.312 11.895.312 2.314 0 8.42-.312 13.26-.312 13.155 0 17.894 4.417 19.575 5.995 2.315 2.217 5.263 6.951 5.263 12.53 0 14.942-10.946 25.046-25.892 25.046-.527 0-1.684 0-2.21-.108-.527 0-1.157-.21-1.157-.738 0-.842.631-.942 2.84-.942 10.21 0 18.209-7.478 18.209-17.15 0-3.479-.314-10.527-5.893-16.206-5.58-5.69-12-5.269-14.42-5.269-1.789 0-3.579.212-4.526.631-.631.214-.841.946-.841 1.997v43.264c0 10.104 0 18.417.527 22.838.315 3.055.949 5.363 4.105 5.79 1.473.214 3.789.423 4.736.423.631 0 .841.311.841.627 0 .527-.527.842-1.683.842-5.791 0-12.422-.313-12.947-.313-.317 0-6.947.313-10.104.313-1.159 0-1.684-.214-1.684-.842 0-.31.21-.627.841-.627.946 0 2.211-.216 3.157-.423 2.104-.416 2.631-2.733 3.053-5.79.527-4.421.527-12.734.527-22.838v-18.532zM100.942 131.572c0-16.423 0-19.363-.213-22.731-.21-3.58-1.052-5.267-4.526-5.997-.842-.212-2.63-.316-3.579-.316-.421 0-.842-.209-.842-.631 0-.63.527-.843 1.684-.843 4.737 0 11.369.312 11.895.312 1.156 0 9.157-.312 12.418-.312 6.633 0 13.685.629 19.262 4.633 2.631 1.897 7.264 7.045 7.264 14.307 0 7.787-3.266 15.582-12.736 24.313 8.629 11.053 15.786 20.418 21.89 26.945 5.683 5.997 10.208 7.154 12.842 7.574 1.999.313 3.474.313 4.106.313.527 0 .945.316.945.632 0 .632-.631.84-2.525.84h-7.473c-5.893 0-8.527-.525-11.263-1.996-4.526-2.422-8.21-7.576-14.209-15.475-4.421-5.783-9.369-12.834-11.472-15.57-.423-.42-.738-.632-1.37-.632l-12.946-.215c-.527 0-.737.313-.737.843v2.525c0 10.107 0 18.42.527 22.842.314 3.053.949 5.361 4.107 5.788 1.473.212 3.787.42 4.737.42.631 0 .842.314.842.632 0 .525-.525.84-1.684.84-5.789 0-12.419-.31-12.944-.31-.104 0-6.737.31-9.892.31-1.159 0-1.686-.208-1.686-.84 0-.312.213-.632.841-.632.946 0 2.21-.214 3.157-.42 2.104-.418 2.63-2.735 3.053-5.788.527-4.422.527-12.735.527-22.842v-18.519zm8.419 9.157c0 .521.21.938.739 1.267 1.58.938 6.421 1.682 11.051 1.682 2.526 0 5.475-.311 7.894-1.995 3.684-2.525 6.422-8.21 6.422-16.209 0-13.154-6.949-21.049-18.208-21.049-3.159 0-6.002.312-7.052.633-.525.211-.842.631-.842 1.265l-.004 34.406zM174.19 131.572c0-16.423 0-19.363-.213-22.731-.21-3.58-1.052-5.267-4.526-5.997-.842-.212-2.63-.316-3.579-.316-.421 0-.841-.209-.841-.631 0-.63.525-.843 1.684-.843 4.736 0 11.156.312 12.102.312.949 0 7.265-.312 10.417-.312 1.159 0 1.686.212 1.686.843 0 .422-.418.631-.841.631-.736 0-1.369.108-2.632.316-2.84.418-3.68 2.315-3.893 5.997-.213 3.368-.213 6.317-.213 22.731v14.738c0 15.158 3.37 21.68 7.896 25.996 5.157 4.841 9.894 5.791 15.895 5.791 6.42 0 12.734-3.056 16.523-7.572 4.84-5.997 6.103-14.945 6.103-25.79v-13.153c0-16.428 0-19.361-.21-22.729-.21-3.583-1.052-5.27-4.526-6-.842-.213-2.632-.315-3.577-.315-.423 0-.842-.212-.842-.63 0-.631.527-.842 1.683-.842 4.737 0 10.528.313 11.156.313.738 0 5.683-.313 8.841-.313 1.159 0 1.684.212 1.684.842 0 .418-.423.63-.842.63-.74 0-1.37.108-2.632.315-2.842.632-3.681 2.313-3.893 6-.21 3.368-.21 6.313-.21 22.729v11.259c0 11.372-1.265 24.001-9.685 31.478-7.577 6.732-15.472 7.786-21.682 7.786-3.578 0-14.207-.424-21.682-7.479-5.158-4.949-9.156-12.313-9.156-27.681l.005-15.373zM344.264 167.04c.42 3.785 1.16 9.688 5.686 11.154 3.059.945 5.791.945 6.845.945.522 0 .84.104.84.526 0 .63-.941.94-2.207.94-2.319 0-13.688-.312-17.578-.631-2.425-.215-2.952-.521-2.952-1.048 0-.42.214-.632.743-.744.526-.104.628-1.894.414-3.786l-5.053-54.306h-.315l-25.779 54.727c-2.213 4.637-2.527 5.578-3.478 5.578-.736 0-1.267-1.052-3.259-4.843-2.737-5.158-11.789-23.358-12.315-24.413-.945-1.896-12.731-27.153-13.895-29.992h-.417l-4.213 48.842c-.104 1.683-.104 3.578-.104 5.36 0 1.579 1.157 2.951 2.735 3.261 1.79.419 3.366.525 4 .525.416 0 .842.212.842.526 0 .738-.63.942-1.89.942-3.896 0-8.947-.312-9.79-.312-.944 0-5.995.312-8.837.312-1.055 0-1.792-.214-1.792-.942 0-.314.526-.526 1.052-.526.842 0 1.58 0 3.157-.313 3.476-.636 3.79-4.738 4.208-8.734l7.577-68.625c.104-1.16.524-1.894 1.161-1.894.629 0 1.052.419 1.578 1.576l32.203 66.207 30.947-66.099c.423-.948.844-1.685 1.574-1.685.742 0 1.053.841 1.263 2.84l7.049 64.632zM440.029 150.092c0 10.105 0 18.421.529 22.845.312 3.053.944 5.362 4.106 5.785 1.467.217 3.785.421 4.74.421.634 0 .843.315.843.63 0 .527-.528.844-1.688.844-5.795 0-12.423-.313-12.949-.313-.528 0-7.154.313-10.318.313-1.153 0-1.682-.213-1.682-.844 0-.312.213-.63.841-.63.943 0 2.208-.211 3.157-.421 2.099-.413 2.625-2.732 3.056-5.785.521-4.424.521-12.738.521-22.845v-11.049c0-.418-.311-.63-.628-.63h-44.632c-.313 0-.628.104-.628.63v11.049c0 10.105 0 18.421.526 22.845.313 3.053.939 5.362 4.105 5.785 1.47.217 3.787.421 4.736.421.636 0 .843.315.843.63 0 .527-.522.844-1.682.844-5.793 0-12.423-.313-12.951-.313-.521 0-7.149.313-10.315.313-1.157 0-1.683-.213-1.683-.844 0-.312.208-.63.842-.63.942 0 2.21-.211 3.155-.421 2.096-.413 2.627-2.732 3.058-5.785.522-4.424.522-12.738.522-22.845V131.57c0-16.425 0-19.367-.216-22.731-.211-3.582-1.05-5.268-4.526-5.999-.84-.211-2.63-.316-3.581-.316-.423 0-.841-.209-.841-.631 0-.629.524-.842 1.685-.842 4.74 0 11.37.313 11.895.313.526 0 7.154-.313 10.317-.313 1.162 0 1.688.214 1.688.842 0 .422-.421.631-.842.631-.741 0-1.371.108-2.627.316-2.846.525-3.682 2.315-3.901 5.999-.209 3.364-.209 6.315-.209 22.731v2.206c0 .527.313.633.632.633h44.624c.313 0 .63-.104.63-.633v-2.206c0-16.425 0-19.367-.21-22.731-.216-3.582-1.054-5.268-4.525-5.999-.843-.211-2.631-.316-3.582-.316-.423 0-.843-.209-.843-.631 0-.629.524-.842 1.686-.842 4.736 0 11.365.313 11.893.313.528 0 7.157-.313 10.319-.313 1.153 0 1.685.214 1.685.842 0 .422-.423.631-.84.631-.743 0-1.373.108-2.629.316-2.849.525-3.686 2.315-3.895 5.999-.216 3.364-.216 6.315-.216 22.733v18.522h.002v-.004l.003.002zM476.653 170.728c-10.21-9.159-12.735-21.154-12.735-31.151 0-7.05 2.424-19.363 11.786-28.739 6.313-6.314 15.896-11.261 32.106-11.261 4.205 0 10.107.311 15.266 1.264 4 .74 7.367 1.371 10.737 1.578 1.157.104 1.372.526 1.372 1.159 0 .841-.313 2.105-.526 5.893-.211 3.478-.211 9.26-.313 10.848-.105 1.571-.314 2.208-.944 2.208-.735 0-.844-.74-.844-2.208 0-4.111-1.678-8.424-4.417-10.74-3.682-3.157-11.785-6-21.051-6-14.001 0-20.519 4.108-24.204 7.686-7.681 7.368-9.475 16.734-9.475 27.472 0 20.102 15.472 38.519 37.994 38.519 7.896 0 14.105-.944 18.308-5.269 2.213-2.316 3.589-6.947 3.899-8.838.211-1.16.414-1.577 1.05-1.577.521 0 .738.737.738 1.577 0 .74-1.263 9.891-2.316 13.475-.63 1.993-.841 2.208-2.732 3.056-4.208 1.686-12.209 2.43-18.945 2.43-15.805-.02-26.44-3.915-34.754-11.382z"/></g><g fill="#783F62"><path d="M28.536 204.067c0-2.768 0-3.26-.037-3.828-.037-.604-.176-.892-.761-1.018-.143-.038-.442-.05-.604-.05-.07 0-.143-.034-.143-.104 0-.111.09-.141.283-.141.8 0 1.862.055 2.005.055.391 0 1.418-.055 2.234-.055 2.215 0 3.013.746 3.297 1.017.391.368.886 1.171.886 2.106 0 2.52-1.843 4.218-4.362 4.218-.09 0-.284 0-.372-.021-.089 0-.193-.036-.193-.129 0-.137.106-.157.478-.157 1.722 0 3.067-1.26 3.067-2.886 0-.58-.053-1.771-.992-2.728-.939-.958-2.021-.886-2.43-.886-.303 0-.602.036-.761.104-.106.041-.143.156-.143.338v7.288c0 1.703 0 3.103.089 3.85.053.517.16.907.691.978.247.041.638.068.797.068.107 0 .143.052.143.109 0 .087-.089.137-.283.137-.976 0-2.092-.053-2.181-.053-.053 0-1.169.053-1.701.053-.195 0-.285-.04-.285-.137 0-.049.037-.109.143-.109.159 0 .372-.037.532-.068.354-.069.444-.463.515-.978.089-.747.089-2.146.089-3.85l-.001-3.123zM45.23 198.68c3.987 0 6.968 2.52 6.968 6.646 0 3.976-2.8 7.252-7.075 7.252-4.858 0-6.877-3.772-6.877-6.966-.001-2.875 2.091-6.932 6.984-6.932zm.37 13.224c1.595 0 4.894-.921 4.894-6.076 0-4.252-2.59-6.538-5.391-6.538-2.961 0-5.179 1.949-5.179 5.831.003 4.128 2.486 6.783 5.676 6.783zM57.79 207.22c0 2.61.07 3.743.391 4.059.283.29.744.403 2.126.403.939 0 1.721-.019 2.146-.531.229-.284.407-.729.461-1.063.017-.138.053-.224.159-.224.09 0 .106.061.106.265 0 .197-.125 1.26-.266 1.771-.124.401-.176.479-1.117.479-1.277 0-2.198-.035-2.942-.05a34.314 34.314 0 0 0-1.809-.051c-.072 0-.374.021-.727.021-.355.018-.744.036-1.012.036-.193 0-.283-.036-.283-.141 0-.049.037-.109.143-.109.16 0 .372-.035.532-.068.356-.063.442-.462.515-.973.09-.747.09-2.144.09-3.85v-3.121c0-2.769 0-3.262-.037-3.837-.037-.597-.177-.882-.761-1.01-.143-.039-.444-.053-.604-.053-.071 0-.143-.036-.143-.109 0-.104.09-.135.285-.135.798 0 1.916.051 2.005.051.086 0 1.381-.051 1.913-.051.196 0 .285.04.285.135 0 .073-.072.109-.143.109-.125 0-.372.021-.585.053-.514.088-.657.394-.692 1.01-.034.575-.034 1.068-.034 3.837l-.002 3.147zM68.633 207.187c0 1.701 0 3.104.09 3.851.053.515.16.905.692.976.249.041.638.071.798.071.106 0 .141.05.141.106 0 .088-.09.138-.284.138-.976 0-2.091-.05-2.181-.05-.089 0-1.205.05-1.736.05-.196 0-.285-.037-.285-.138 0-.051.037-.106.143-.106.159 0 .372-.04.532-.071.354-.069.442-.461.515-.976.089-.745.089-2.148.089-3.851v-3.12c0-2.77 0-3.262-.037-3.829-.037-.605-.213-.907-.604-.995a2.242 2.242 0 0 0-.549-.073c-.072 0-.143-.033-.143-.104 0-.11.09-.139.283-.139.585 0 1.703.053 1.792.053.09 0 1.206-.053 1.737-.053.196 0 .285.036.285.139 0 .065-.07.104-.141.104-.125 0-.229.021-.444.051-.478.09-.621.396-.654 1.019-.036.567-.036 1.061-.036 3.829l-.003 3.118zM75.154 210.664c-1.722-1.543-2.145-3.563-2.145-5.248 0-1.191.406-3.263 1.986-4.841 1.062-1.063 2.676-1.896 5.406-1.896.708 0 1.703.049 2.572.212.669.13 1.239.229 1.807.267.195.019.232.09.232.2 0 .136-.054.351-.089.991-.037.582-.037 1.559-.053 1.823-.018.268-.053.37-.159.37-.124 0-.138-.128-.138-.37 0-.693-.282-1.42-.744-1.811-.622-.533-1.986-1.017-3.546-1.017-2.358 0-3.457.693-4.077 1.294-1.295 1.242-1.595 2.816-1.595 4.631 0 3.386 2.607 6.488 6.401 6.488 1.328 0 2.376-.156 3.084-.887.374-.393.604-1.171.657-1.487.035-.197.07-.264.176-.264.089 0 .124.127.124.264 0 .129-.212 1.665-.392 2.266-.105.336-.14.377-.46.517-.709.283-2.056.408-3.193.408-2.663.004-4.453-.654-5.854-1.91zM91.879 207.741c0-.959-.176-1.354-.408-1.864-.123-.285-2.5-4.186-3.121-5.105-.442-.657-.886-1.103-1.205-1.305-.266-.178-.604-.288-.763-.288-.09 0-.177-.036-.177-.13 0-.067.072-.127.229-.127.338 0 1.667.053 1.755.053.126 0 .798-.053 1.49-.053.194 0 .229.053.229.127 0 .075-.106.094-.266.16-.142.068-.229.176-.229.315 0 .218.089.424.229.69.283.51 2.944 5.092 3.263 5.604.336-.742 2.588-4.63 2.944-5.215.229-.367.303-.666.303-.899 0-.248-.07-.444-.283-.496-.159-.05-.266-.088-.266-.177 0-.067.107-.106.283-.106.461 0 1.029.056 1.172.056.104 0 1.381-.056 1.72-.056.125 0 .229.037.229.106 0 .09-.089.138-.229.138-.196 0-.532.073-.814.246-.355.216-.551.426-.939.906-.585.711-3.067 4.876-3.386 5.637-.266.644-.266 1.19-.266 1.775v1.523c0 .285 0 1.022.053 1.771.037.516.195.905.727.976.249.041.637.07.798.07.105 0 .142.048.142.107 0 .089-.089.139-.283.139-.973 0-2.091-.05-2.181-.05-.087 0-1.205.05-1.737.05-.196 0-.282-.038-.282-.139 0-.048.034-.107.14-.107.159 0 .372-.04.532-.07.355-.068.514-.462.548-.976.054-.747.054-1.485.054-1.771v-1.521l-.005.006zM107.968 204.067c0-2.768 0-3.26-.036-3.828-.037-.604-.177-.892-.761-1.018-.143-.038-.443-.05-.604-.05-.07 0-.143-.034-.143-.104 0-.111.09-.141.283-.141.798 0 1.916.055 2.005.055.193 0 1.543-.055 2.092-.055 1.116 0 2.304.109 3.244.78.444.317 1.225 1.19 1.225 2.409 0 1.314-.548 2.623-2.146 4.103 1.454 1.86 2.66 3.437 3.688 4.541.957 1.011 1.72 1.201 2.164 1.279.338.05.585.05.691.05.089 0 .159.051.159.107 0 .109-.106.138-.425.138h-1.258c-.993 0-1.435-.09-1.896-.332-.763-.403-1.385-1.285-2.395-2.611-.744-.979-1.578-2.168-1.933-2.62-.07-.069-.123-.106-.229-.106l-2.181-.041c-.09 0-.124.052-.124.138v.426c0 1.703 0 3.103.089 3.848.053.516.16.907.691.979.249.039.64.067.797.067.107 0 .143.05.143.111 0 .087-.089.137-.285.137-.973 0-2.091-.052-2.181-.052-.018 0-1.136.052-1.667.052-.193 0-.282-.039-.282-.137 0-.052.037-.111.142-.111.159 0 .372-.035.532-.067.356-.07.444-.464.515-.979.09-.745.09-2.145.09-3.848v-3.119h-.004v-.001zm1.418 1.544c0 .093.037.161.124.217.266.157 1.082.287 1.86.287.425 0 .923-.047 1.329-.336.621-.427 1.082-1.38 1.082-2.73 0-2.215-1.172-3.546-3.067-3.546-.532 0-1.012.053-1.189.11-.089.036-.14.106-.14.216l.001 5.782zM121.684 204.067c0-2.768 0-3.26-.036-3.828-.037-.604-.176-.892-.761-1.018-.143-.038-.442-.05-.604-.05-.07 0-.143-.034-.143-.104 0-.111.09-.141.282-.141.408 0 .886 0 1.277.021l.727.038c.126 0 3.652 0 4.061-.021.338-.019.621-.054.764-.092.089-.018.16-.087.249-.087.052 0 .07.069.07.157 0 .125-.089.335-.14.835-.018.179-.054.958-.09 1.173-.017.085-.053.201-.123.201-.106 0-.14-.094-.14-.229 0-.13-.019-.423-.106-.643-.124-.285-.302-.49-1.258-.599-.302-.043-2.234-.054-2.43-.054-.071 0-.106.054-.106.177v4.899c0 .125.018.176.106.176.229 0 2.411 0 2.819-.039.425-.04.674-.068.833-.248.123-.139.195-.225.266-.225.053 0 .09.038.09.138 0 .098-.09.402-.14.992-.037.356-.07 1.017-.07 1.135 0 .138 0 .333-.125.333-.087 0-.123-.068-.123-.157 0-.176 0-.354-.071-.582-.07-.248-.229-.557-.923-.619-.48-.056-2.234-.094-2.536-.094-.09 0-.125.053-.125.127v1.561c0 .602-.018 2.659 0 3.034.053 1.221.318 1.456 2.058 1.456.461 0 1.241 0 1.702-.201.461-.191.675-.548.798-1.274.037-.197.07-.27.159-.27.106 0 .106.141.106.27 0 .137-.143 1.351-.229 1.719-.125.469-.266.469-.958.469-1.329 0-2.303-.039-2.997-.051a26.621 26.621 0 0 0-1.381-.053c-.037 0-.336 0-.708.022-.354 0-.763.037-1.029.037-.196 0-.282-.037-.282-.14 0-.051.036-.107.143-.107.159 0 .372-.038.532-.069.355-.067.442-.463.514-.974.09-.75.09-2.149.09-3.853v-3.129h-.007l-.005-.019zM131.711 212.095c-.249-.126-.266-.193-.266-.668 0-.885.07-1.593.089-1.879.018-.196.053-.287.143-.287.106 0 .124.053.124.196 0 .161 0 .41.053.661.266 1.31 1.438 1.81 2.624 1.81 1.703 0 2.536-1.219 2.536-2.353 0-1.221-.515-1.931-2.039-3.192l-.798-.659c-1.879-1.545-2.304-2.646-2.304-3.85 0-1.9 1.418-3.19 3.671-3.19.691 0 1.206.064 1.65.175.336.07.478.09.621.09s.176.037.176.125c0 .091-.07.675-.07 1.885 0 .285-.037.403-.123.403-.107 0-.126-.088-.143-.228-.017-.218-.125-.688-.229-.891-.107-.194-.585-.934-2.215-.934-1.223 0-2.182.76-2.182 2.063 0 1.013.46 1.645 2.164 2.973l.495.394c2.092 1.646 2.589 2.75 2.589 4.17 0 .728-.285 2.076-1.507 2.945-.763.531-1.72.744-2.678.744-.836-.02-1.655-.146-2.381-.503zM143.3 204.067c0-2.768 0-3.26-.037-3.828-.036-.604-.176-.892-.761-1.018-.143-.038-.443-.05-.604-.05-.07 0-.143-.034-.143-.104 0-.111.09-.141.283-.141.409 0 .887 0 1.277.021l.728.038c.125 0 3.652 0 4.06-.021.338-.019.622-.054.763-.092.09-.018.159-.087.249-.087.053 0 .071.069.071.157 0 .125-.09.335-.141.835-.018.179-.053.958-.089 1.173-.017.085-.053.201-.124.201-.106 0-.141-.094-.141-.229 0-.13-.019-.423-.106-.643-.123-.285-.303-.49-1.258-.599-.302-.043-2.234-.054-2.429-.054-.071 0-.106.054-.106.177v4.899c0 .125.018.176.106.176.229 0 2.41 0 2.819-.039.427-.04.674-.068.836-.248.123-.139.195-.225.266-.225.053 0 .09.038.09.138 0 .098-.09.402-.14.992a19.05 19.05 0 0 0-.071 1.135c0 .138 0 .333-.125.333-.088 0-.124-.068-.124-.157 0-.176 0-.354-.07-.582-.07-.248-.229-.557-.923-.619-.48-.056-2.234-.094-2.536-.094-.089 0-.125.053-.125.127v1.561c0 .602-.017 2.659 0 3.034.053 1.221.319 1.456 2.058 1.456.461 0 1.242 0 1.703-.201.461-.191.674-.548.797-1.274.037-.197.07-.27.16-.27.106 0 .106.141.106.27 0 .137-.143 1.351-.229 1.719-.125.469-.266.469-.958.469-1.329 0-2.304-.039-2.997-.051a26.61 26.61 0 0 0-1.382-.053c-.037 0-.338 0-.71.022-.355 0-.761.037-1.027.037-.195 0-.283-.037-.283-.14 0-.051.036-.107.143-.107.159 0 .372-.038.532-.069.355-.067.442-.463.515-.974.089-.75.089-2.149.089-3.853v-3.129h-.008v-.026h-.002v.006h-.002zM157.015 199.369c.212-.582.283-.688.388-.688.107 0 .18.089.392.639.266.667 3.05 7.997 4.131 10.688.638 1.579 1.152 1.863 1.524 1.968.266.093.532.109.709.109.107 0 .177.02.177.108 0 .109-.159.138-.355.138-.266 0-1.558 0-2.782-.039-.338-.02-.532-.02-.532-.127 0-.071.053-.11.123-.128.107-.041.213-.199.107-.484l-1.65-4.362c-.037-.066-.07-.107-.159-.107h-3.812c-.089 0-.143.05-.176.142l-1.063 3.14c-.159.441-.249.869-.249 1.189 0 .354.372.516.674.516h.176c.124 0 .176.041.176.108 0 .109-.106.136-.266.136-.425 0-1.188-.051-1.381-.051s-1.171.051-2.004.051c-.23 0-.336-.036-.336-.136 0-.067.072-.108.159-.108.125 0 .372-.02.515-.037.817-.11 1.171-.779 1.491-1.667l4.023-10.998zm1.843 7.091c.09 0 .09-.054.071-.128l-1.685-4.787c-.09-.266-.176-.266-.266 0l-1.561 4.787c-.037.087 0 .128.051.128h3.39zM167.221 204.067c0-2.768 0-3.26-.039-3.828-.037-.604-.176-.892-.759-1.018-.141-.038-.442-.05-.602-.05-.07 0-.143-.034-.143-.104 0-.111.09-.141.285-.141.799 0 1.914.055 2.002.055.196 0 1.543-.055 2.092-.055 1.117 0 2.304.109 3.244.78.444.317 1.223 1.19 1.223 2.409 0 1.314-.549 2.623-2.146 4.103 1.454 1.86 2.66 3.437 3.686 4.541.957 1.011 1.722 1.201 2.164 1.279.338.05.585.05.691.05.089 0 .159.051.159.107 0 .109-.106.138-.425.138h-1.258c-.994 0-1.438-.09-1.899-.332-.761-.403-1.382-1.285-2.394-2.611-.746-.979-1.577-2.168-1.932-2.62-.071-.069-.125-.106-.23-.106l-2.178-.041c-.09 0-.126.052-.126.138v.426c0 1.703 0 3.103.088 3.848.053.516.159.907.691.979.249.039.64.067.799.067.106 0 .14.05.14.111 0 .087-.089.137-.285.137-.973 0-2.088-.052-2.177-.052-.019 0-1.133.052-1.667.052-.196 0-.285-.039-.285-.137 0-.052.039-.111.143-.111.157 0 .372-.035.532-.067.355-.07.444-.464.515-.979.089-.745.089-2.145.089-3.848v-3.118l.002-.002zm1.419 1.544c0 .093.037.161.125.217.266.157 1.082.287 1.861.287.425 0 .921-.047 1.331-.336.621-.427 1.082-1.38 1.082-2.73 0-2.215-1.171-3.546-3.067-3.546-.532 0-1.011.053-1.188.11-.089.036-.141.106-.141.216l-.003 5.782zM181.327 210.664c-1.722-1.543-2.147-3.563-2.147-5.248 0-1.191.409-3.263 1.988-4.841 1.064-1.063 2.676-1.896 5.407-1.896.71 0 1.702.049 2.57.212.673.13 1.242.229 1.81.267.195.019.231.09.231.2 0 .136-.053.351-.09.991-.034.582-.034 1.559-.051 1.823-.018.268-.054.37-.16.37-.125 0-.14-.128-.14-.37 0-.693-.285-1.42-.747-1.811-.621-.533-1.987-1.017-3.545-1.017-2.358 0-3.458.693-4.077 1.294-1.295 1.242-1.598 2.816-1.598 4.631 0 3.386 2.607 6.488 6.403 6.488 1.326 0 2.375-.156 3.085-.887.372-.393.601-1.171.654-1.487.037-.197.071-.264.176-.264.091 0 .125.127.125.264 0 .129-.213 1.665-.392 2.266-.105.336-.138.377-.458.517-.711.283-2.06.408-3.193.408-2.66.004-4.45-.654-5.851-1.91zM206.527 207.187c0 1.701 0 3.104.089 3.851.053.515.16.905.693.976.247.041.638.071.797.071.107 0 .141.05.141.106 0 .088-.089.138-.285.138-.973 0-2.092-.05-2.178-.05-.09 0-1.205.05-1.737.05-.196 0-.285-.037-.285-.138 0-.051.039-.106.142-.106.16 0 .373-.04.529-.071.355-.069.444-.461.515-.976.089-.745.089-2.148.089-3.851v-1.86c0-.068-.051-.105-.106-.105h-7.518c-.053 0-.106.018-.106.105v1.86c0 1.701 0 3.104.085 3.851.053.515.159.905.693.976.249.041.64.071.8.071.106 0 .14.05.14.106 0 .088-.089.138-.285.138-.976 0-2.091-.05-2.178-.05-.091 0-1.205.05-1.737.05-.197 0-.285-.037-.285-.138 0-.051.037-.106.141-.106.159 0 .372-.04.532-.071.355-.069.444-.461.515-.976.089-.745.089-2.148.089-3.851v-3.12c0-2.77 0-3.262-.037-3.829-.036-.605-.178-.893-.761-1.019-.14-.037-.444-.051-.604-.051-.071 0-.14-.033-.14-.104 0-.11.087-.141.285-.141.797 0 1.912.055 2.003.055.087 0 1.203-.055 1.734-.055.197 0 .285.038.285.141 0 .07-.07.104-.14.104-.126 0-.229.02-.444.051-.478.089-.622.396-.655 1.019-.036.567-.036 1.061-.036 3.829v.372c0 .09.051.107.106.107h7.517c.053 0 .106-.019.106-.107v-.372c0-2.77 0-3.262-.037-3.829-.037-.605-.176-.893-.761-1.019-.141-.037-.442-.051-.603-.051-.072 0-.142-.033-.142-.104 0-.11.089-.141.285-.141.797 0 1.913.055 2.002.055.086 0 1.205-.055 1.734-.055.193 0 .285.038.285.141 0 .07-.07.104-.143.104-.125 0-.229.02-.444.051-.478.089-.619.396-.654 1.019-.038.567-.038 1.061-.038 3.829v3.12h.007zM218.269 204.067c0-2.768 0-3.26-.037-3.828-.037-.604-.176-.892-.763-1.018-.14-.038-.442-.05-.601-.05-.071 0-.14-.034-.14-.104 0-.111.089-.141.282-.141.799 0 1.881.055 2.041.055.16 0 1.222-.055 1.753-.055.195 0 .285.039.285.141 0 .07-.072.104-.138.104-.125 0-.229.019-.442.05-.48.073-.623.396-.659 1.018-.037.568-.037 1.062-.037 3.828v2.482c0 2.554.567 3.655 1.331 4.382.867.818 1.667.977 2.676.977 1.082 0 2.147-.516 2.785-1.277.819-1.013 1.027-2.521 1.027-4.348v-2.216c0-2.768 0-3.26-.037-3.828-.037-.604-.174-.892-.761-1.018-.143-.038-.442-.05-.602-.05-.07 0-.142-.034-.142-.104 0-.111.091-.141.285-.141.797 0 1.772.055 1.879.055.125 0 .959-.055 1.491-.055.194 0 .285.039.285.141 0 .07-.072.104-.143.104-.125 0-.229.019-.442.05-.479.11-.621.396-.657 1.018-.038.568-.038 1.062-.038 3.828v1.896c0 1.918-.215 4.043-1.633 5.306-1.277 1.133-2.608 1.313-3.654 1.313-.604 0-2.395-.07-3.652-1.262-.868-.838-1.543-2.078-1.543-4.661l.001-2.592zM234.837 209.917c.037 1.458.213 1.913.691 2.061.336.089.727.108.887.108.089 0 .14.037.14.106 0 .109-.106.137-.319.137-1.01 0-1.72-.051-1.877-.051-.159 0-.905.051-1.702.051-.179 0-.285-.02-.285-.137 0-.069.053-.106.141-.106.143 0 .461-.021.729-.108.442-.13.529-.642.529-2.255l.019-10.157c0-.691.053-.887.195-.887.143 0 .444.391.621.566.266.31 2.909 3.152 5.635 6.079 1.758 1.882 3.689 4.04 4.258 4.629l-.196-9.005c-.019-1.155-.14-1.543-.691-1.688a5.39 5.39 0 0 0-.87-.086c-.125 0-.141-.048-.141-.128 0-.106.141-.127.355-.127.798 0 1.646.052 1.846.052.191 0 .779-.052 1.505-.052.195 0 .319.02.319.127 0 .069-.072.128-.196.128-.089 0-.214 0-.424.052-.585.131-.657.515-.657 1.577l-.041 10.392c0 1.171-.033 1.264-.16 1.264-.14 0-.351-.202-1.292-1.133-.194-.179-2.747-2.788-4.626-4.812a345.775 345.775 0 0 1-4.63-5.089l.237 8.492zM252.984 207.187c0 1.701 0 3.104.087 3.851.053.515.159.905.692.976.246.041.637.071.795.071.108 0 .143.05.143.106 0 .088-.09.138-.287.138-.973 0-2.089-.05-2.178-.05-.09 0-1.205.05-1.734.05-.195 0-.283-.037-.283-.138 0-.051.033-.106.139-.106.158 0 .371-.04.531-.071.356-.069.443-.461.516-.976.088-.745.088-2.148.088-3.851v-3.12c0-2.77 0-3.262-.037-3.829-.037-.605-.213-.907-.602-.995a2.256 2.256 0 0 0-.551-.073c-.07 0-.141-.033-.141-.104 0-.11.087-.139.283-.139.585 0 1.701.053 1.792.053.09 0 1.204-.053 1.733-.053.198 0 .285.036.285.139 0 .065-.07.104-.141.104-.124 0-.229.021-.441.051-.481.09-.623.396-.66 1.019-.033.567-.033 1.061-.033 3.829l.004 3.118zM263.418 207.187c0 1.701 0 3.104.09 3.851.053.515.159.905.69.976.249.041.64.071.8.071.105 0 .141.05.141.106 0 .088-.091.138-.285.138-.977 0-2.09-.05-2.181-.05-.089 0-1.204.05-1.737.05-.194 0-.285-.037-.285-.138 0-.051.037-.106.141-.106.16 0 .375-.04.534-.071.354-.069.442-.461.512-.976.089-.745.089-2.148.089-3.851v-7.497l-2.623.042c-1.102.019-1.527.136-1.81.567a2.901 2.901 0 0 0-.302.554c-.053.138-.105.173-.178.173-.054 0-.088-.046-.088-.155 0-.175.354-1.704.391-1.842.035-.112.106-.335.177-.335.124 0 .303.177.78.218.513.046 1.188.084 1.398.084h6.648c.57 0 .977-.038 1.261-.084.267-.041.425-.096.495-.096.088 0 .088.108.088.221 0 .529-.051 1.75-.051 1.949 0 .154-.053.225-.125.225-.09 0-.125-.047-.141-.303l-.02-.197c-.053-.532-.479-.937-2.18-.974l-2.235-.041.006 7.491zM280.959 206.782c.304 0 .532.037.532.172 0 .22-.336.25-.623.31-.483.067-3.612.49-4.219.662-.328.087-.635.261-.728.261-.109 0-.129-.104-.088-.261l.268-.998c.036-.129.102-.14.393-.14l4.465-.006zM304.922 210.045c.072.64.195 1.634.955 1.879.515.162.978.162 1.155.162.089 0 .134.019.134.087 0 .109-.155.159-.368.159-.396 0-2.311-.05-2.966-.104-.403-.041-.494-.09-.494-.18 0-.068.039-.109.128-.13.088-.019.107-.313.066-.64l-.849-9.149h-.045l-4.348 9.22c-.373.776-.423.938-.582.938-.132 0-.217-.179-.551-.822-.463-.862-1.99-3.936-2.076-4.114-.16-.314-2.146-4.571-2.347-5.054h-.065l-.711 8.229c-.018.283-.018.601-.018.905 0 .267.199.491.466.555.304.066.569.087.671.087.061 0 .132.037.132.088 0 .13-.112.156-.313.156-.661 0-1.508-.051-1.647-.051-.157 0-1.014.051-1.49.051-.179 0-.304-.035-.304-.156 0-.051.091-.088.179-.088.139 0 .267 0 .53-.05.583-.112.641-.803.71-1.472l1.276-11.56c.021-.198.091-.313.2-.313.111 0 .175.064.269.264l5.422 11.146 5.215-11.128c.07-.157.139-.284.266-.284.128 0 .18.137.216.478l1.184 10.891zM313.046 201.232c.198-.491.268-.58.375-.58.157 0 .214.214.371.549.286.64 2.79 6.866 3.748 9.152.569 1.351.992 1.547 1.33 1.648.225.065.46.087.617.087.093 0 .197.039.197.128 0 .095-.175.129-.354.129-.227 0-1.38 0-2.459-.034-.309-.023-.554-.023-.554-.111 0-.069.041-.069.108-.108.091-.037.246-.16.138-.402l-1.4-3.455c-.036-.071-.047-.094-.138-.094h-3.599c-.067 0-.127.039-.161.129l-.885 2.414c-.136.371-.227.75-.227 1.013 0 .308.266.402.533.402h.138c.128 0 .155.055.155.13 0 .093-.089.128-.226.128-.375 0-1.223-.051-1.401-.051-.156 0-.936.051-1.571.051-.198 0-.308-.037-.308-.128 0-.068.069-.13.137-.13.105 0 .337-.018.466-.034.708-.094 1.012-.621 1.31-1.383l3.66-9.45zm1.741 6.271c.069 0 .069-.035.05-.103l-1.543-4.129c-.09-.229-.179-.229-.267 0l-1.46 4.129c-.019.066 0 .103.05.103h3.17zM324.354 207.947c0 1.461 0 2.645.068 3.261.048.444.125.729.601.8.212.039.57.068.709.068.109 0 .128.069.128.126 0 .071-.069.132-.248.132-.844 0-1.844-.053-1.93-.053-.067 0-1.15.053-1.616.053-.18 0-.245-.04-.245-.132 0-.048.038-.11.125-.11.142 0 .319-.036.466-.062.313-.069.402-.377.463-.82.069-.618.069-1.809.069-3.261v-6.33l-2.256.036c-.978.019-1.352.13-1.579.484-.175.262-.195.372-.247.476-.035.131-.087.143-.153.143-.043 0-.112-.043-.112-.13 0-.157.319-1.507.34-1.635.039-.09.104-.286.158-.286.107 0 .267.131.688.179.438.046 1.048.067 1.225.067h5.889c.511 0 .863-.038 1.111-.067.229-.039.374-.065.444-.065.064 0 .064.084.064.173 0 .462-.046 1.544-.046 1.723 0 .129-.074.2-.14.2-.069 0-.11-.053-.13-.266l-.021-.157c-.052-.464-.393-.8-1.88-.841l-1.95-.036v6.332l.005-.002zM332.113 205.29c0-2.344 0-2.766-.039-3.243-.038-.513-.124-.76-.641-.839a4.935 4.935 0 0 0-.528-.039c-.052 0-.133-.066-.133-.125 0-.09.072-.129.25-.129.707 0 1.723.039 1.81.039.111 0 3.37.02 3.725 0 .31-.021.58-.067.709-.093.065-.018.135-.065.215-.065.052 0 .065.065.065.135 0 .111-.082.287-.125.71-.021.14-.052.818-.09.998-.016.065-.065.157-.134.157-.096 0-.134-.068-.134-.2 0-.104-.019-.354-.087-.531-.105-.247-.268-.354-1.114-.46-.267-.041-2.077-.053-2.254-.053-.067 0-.092.053-.092.158v4.094c0 .11 0 .162.092.162.197 0 2.254 0 2.61-.039.371-.039.603-.049.757-.212.11-.106.176-.2.228-.2.05 0 .093.04.093.125 0 .094-.093.341-.129.845a11.19 11.19 0 0 0-.069.974c0 .127-.041.284-.139.284-.072 0-.107-.051-.107-.142 0-.136 0-.304-.07-.488-.049-.222-.194-.396-.803-.464-.416-.049-2.084-.071-2.351-.071-.087 0-.11.052-.11.11v1.259c0 .514-.018 2.268 0 2.575.039 1.008.317 1.198 1.863 1.198.407 0 1.153 0 1.558-.154.4-.178.621-.442.71-1.047.039-.179.066-.23.159-.23.086 0 .105.128.105.23 0 .108-.13 1.13-.216 1.456-.108.392-.267.392-.867.392-1.171 0-2.083-.035-2.711-.046-.658-.041-1.063-.041-1.29-.041-.04 0-.334 0-.668.021-.308.02-.662.039-.91.039-.157 0-.244-.039-.244-.131a.13.13 0 0 1 .13-.127c.137 0 .332-.048.48-.069.302-.052.335-.356.4-.798.092-.623.092-1.811.092-3.263v-2.662h.004zM342.23 205.29c0-2.344 0-2.766-.041-3.243-.037-.513-.127-.76-.637-.839a4.806 4.806 0 0 0-.535-.039c-.046 0-.125-.066-.125-.125 0-.09.064-.129.246-.129.709 0 1.756.039 1.842.039.159 0 1.467-.039 1.953-.039.994 0 2.089.088 2.905.66.392.287 1.085 1.016 1.085 2.058 0 1.112-.462 2.195-1.913 3.439 1.279 1.599 2.354 2.963 3.262 3.902.837.845 1.348.992 1.733 1.045.302.049.464.049.55.049.094 0 .137.064.137.128 0 .091-.088.13-.369.13h-.976c-.889 0-1.279-.089-1.669-.305-.666-.357-1.237-1.084-2.124-2.218-.664-.818-1.351-1.794-1.687-2.198-.067-.067-.108-.087-.219-.087l-1.985-.039c-.071 0-.108.039-.108.126v.358c0 1.458 0 2.616.065 3.239.056.438.142.728.625.798.214.041.554.069.688.069.111 0 .125.065.125.125 0 .07-.064.131-.245.131-.847 0-1.839-.051-1.913-.051-.017 0-1.06.051-1.544.051-.156 0-.246-.037-.246-.131a.13.13 0 0 1 .134-.125c.132 0 .327-.037.477-.069.307-.07.334-.359.401-.798.088-.623.088-1.813.088-3.263v-2.656h.011v.005h.014v.002h-.005zm1.346 1.278c0 .09.039.136.107.195.227.128 1.024.229 1.724.229.377 0 .8-.02 1.173-.268.529-.354.932-1.153.932-2.307 0-1.882-1.02-2.963-2.692-2.963-.466 0-.955.052-1.119.093-.066.037-.125.086-.125.175v4.846zM355.146 210.274c.039 1.238.179 1.614.603 1.724.286.068.64.089.775.089.07 0 .134.052.134.124 0 .093-.111.131-.286.131-.889 0-1.506-.052-1.648-.052-.14 0-.796.052-1.507.052-.157 0-.248-.02-.248-.131 0-.064.053-.124.131-.124.129 0 .406-.021.644-.089.393-.108.442-.517.442-1.886v-8.637c0-.597.085-.754.214-.754.179 0 .443.306.602.465.246.246 2.521 2.658 4.926 5.146 1.544 1.594 3.212 3.387 3.681 3.877l-.153-7.554c-.016-.975-.112-1.313-.584-1.4a5.225 5.225 0 0 0-.76-.068c-.105 0-.127-.093-.127-.142 0-.086.127-.104.311-.104.701 0 1.456.038 1.632.038s.69-.038 1.327-.038c.157 0 .289.019.289.104 0 .052-.076.142-.18.142-.07 0-.198 0-.375.036-.512.111-.553.404-.553 1.313l-.039 8.827c0 .998-.018 1.082-.129 1.082-.159 0-.316-.125-1.189-.923-.162-.141-2.412-2.354-4.059-4.082-1.812-1.896-3.567-3.746-4.036-4.278l.162 7.112zM371.979 201.232c.195-.491.264-.58.375-.58.156 0 .21.214.368.549.285.64 2.791 6.866 3.746 9.152.573 1.351.992 1.547 1.333 1.648.225.065.461.087.617.087.09 0 .198.039.198.128 0 .095-.175.129-.354.129-.227 0-1.382 0-2.46-.034-.311-.023-.553-.023-.553-.111 0-.069.039-.069.108-.108.088-.037.246-.16.134-.402l-1.397-3.455c-.037-.071-.05-.094-.139-.094h-3.597c-.063 0-.126.039-.155.129l-.889 2.414c-.14.371-.228.75-.228 1.013 0 .308.267.402.532.402h.139c.127 0 .159.055.159.13 0 .093-.088.128-.229.128-.373 0-1.224-.051-1.4-.051-.152 0-.932.051-1.578.051-.189 0-.302-.037-.302-.128 0-.068.073-.13.138-.13.107 0 .336-.018.464-.034.71-.094 1.017-.621 1.312-1.383l3.658-9.45zm1.743 6.271c.066 0 .066-.035.045-.103l-1.545-4.129c-.088-.229-.174-.229-.267 0l-1.458 4.129c-.018.066 0 .103.05.103h3.175zM382.432 207.985c0 2.218.043 3.123.319 3.389.242.248.846.358 2.073.358.821 0 1.511-.021 1.884-.465.197-.229.317-.553.376-.854.021-.103.068-.19.157-.19.071 0 .107.065.107.228 0 .157-.107 1.063-.227 1.506-.108.355-.158.405-.994.405a59.6 59.6 0 0 1-2.714-.053c-.709-.02-1.237-.038-1.701-.038-.066 0-.334 0-.637.018-.318.02-.662.039-.91.039-.157 0-.245-.039-.245-.13 0-.05.036-.129.125-.129.143 0 .339-.037.483-.067.306-.069.334-.354.403-.798.092-.621.092-1.81.092-3.263v-2.657c0-2.343 0-2.764-.04-3.241-.042-.512-.128-.76-.642-.841a5.723 5.723 0 0 0-.53-.037c-.051 0-.129-.065-.129-.123 0-.093.067-.13.248-.13.711 0 1.687.037 1.771.037.071 0 1.242-.037 1.728-.037.157 0 .246.037.246.13 0 .048-.068.105-.13.105-.108 0-.336.02-.516.039-.463.091-.548.314-.58.848-.018.485-.018.906-.018 3.237l.001 2.714zM408.078 207.187c0 1.701 0 3.104.093 3.851.045.515.157.905.689.976.244.041.641.071.801.071.104 0 .132.05.132.106 0 .088-.085.138-.283.138-.977 0-2.088-.05-2.178-.05-.089 0-1.204.05-1.736.05-.195 0-.285-.037-.285-.138 0-.051.041-.106.14-.106.157 0 .373-.04.534-.071.354-.069.439-.461.512-.976.088-.745.088-2.148.088-3.851v-1.86a.1.1 0 0 0-.104-.105h-7.52c-.047 0-.113.018-.113.105v1.86c0 1.701 0 3.104.098 3.851.045.515.152.905.684.976.248.041.646.071.798.071.112 0 .141.05.141.106 0 .088-.086.138-.286.138-.974 0-2.088-.05-2.18-.05-.086 0-1.198.05-1.73.05-.192 0-.287-.037-.287-.138 0-.051.041-.106.139-.106.157 0 .375-.04.532-.071.353-.069.442-.461.514-.976.091-.745.091-2.148.091-3.851v-3.12c0-2.77 0-3.262-.04-3.829-.044-.605-.179-.893-.758-1.019a3.2 3.2 0 0 0-.603-.051c-.069 0-.138-.033-.138-.104 0-.11.088-.141.286-.141.801 0 1.914.055 1.998.055.09 0 1.202-.055 1.734-.055.196 0 .282.038.282.141 0 .07-.064.104-.133.104-.132 0-.229.02-.444.051-.482.089-.617.396-.662 1.019-.034.567-.034 1.061-.034 3.829v.372c0 .09.05.107.107.107h7.516c.051 0 .108-.019.108-.107v-.372c0-2.77 0-3.262-.041-3.829-.039-.605-.178-.893-.757-1.019-.139-.037-.444-.051-.604-.051-.067 0-.136-.033-.136-.104 0-.11.089-.141.282-.141.801 0 1.913.055 2.002.055s1.201-.055 1.733-.055c.198 0 .284.038.284.141 0 .07-.068.104-.14.104-.123 0-.223.02-.437.051-.485.089-.625.396-.666 1.019-.037.567-.037 1.061-.037 3.829v3.12h.014zM414.328 205.29c0-2.344 0-2.766-.041-3.243-.039-.513-.127-.76-.637-.839a4.914 4.914 0 0 0-.532-.039c-.052 0-.128-.066-.128-.125 0-.09.066-.129.248-.129.703 0 1.724.039 1.808.039.11 0 3.367.02 3.726 0a5.8 5.8 0 0 0 .71-.093c.07-.018.136-.065.213-.065.054 0 .068.065.068.135 0 .111-.087.287-.129.71-.018.14-.046.818-.085.998-.02.065-.07.157-.14.157-.087 0-.127-.068-.127-.2a1.65 1.65 0 0 0-.093-.531c-.104-.247-.265-.354-1.113-.46-.266-.041-2.075-.053-2.252-.053-.071 0-.092.053-.092.158v4.094c0 .11 0 .162.092.162.193 0 2.252 0 2.606-.039.375-.039.601-.049.758-.212.107-.106.178-.2.229-.2.047 0 .088.04.088.125 0 .094-.088.341-.129.845-.039.297-.067.862-.067.974 0 .127-.038.284-.136.284-.068 0-.109-.051-.109-.142 0-.136 0-.304-.068-.488-.05-.222-.198-.396-.798-.464-.423-.049-2.092-.071-2.357-.071-.087 0-.104.052-.104.11v1.259c0 .514-.019 2.268 0 2.575.036 1.008.313 1.198 1.858 1.198.403 0 1.157 0 1.556-.154.409-.178.623-.442.714-1.047.036-.179.065-.23.157-.23.088 0 .108.128.108.23 0 .108-.135 1.13-.218 1.456-.111.392-.269.392-.868.392-1.17 0-2.077-.035-2.707-.046-.664-.041-1.064-.041-1.292-.041-.043 0-.337 0-.671.021-.306.02-.66.039-.905.039-.161 0-.246-.039-.246-.131 0-.05.036-.127.13-.127.132 0 .331-.048.479-.069.306-.052.334-.356.403-.798.091-.623.091-1.811.091-3.263v-2.66l.002-.002zM426.823 201.232c.198-.491.264-.58.369-.58.161 0 .214.214.377.549.282.64 2.785 6.866 3.739 9.152.571 1.351 1.002 1.547 1.333 1.648.228.065.464.087.623.087.09 0 .194.039.194.128 0 .095-.177.129-.354.129-.228 0-1.381 0-2.464-.034-.302-.023-.554-.023-.554-.111 0-.069.043-.069.107-.108.095-.037.25-.16.143-.402l-1.4-3.455c-.041-.071-.049-.094-.14-.094h-3.595c-.071 0-.125.039-.159.129l-.885 2.414c-.138.371-.229.75-.229 1.013 0 .308.266.402.535.402h.136c.132 0 .159.055.159.13 0 .093-.089.128-.231.128-.369 0-1.218-.051-1.396-.051-.157 0-.935.051-1.574.051-.198 0-.311-.037-.311-.128 0-.068.073-.13.144-.13.106 0 .332-.018.46-.034.713-.094 1.017-.621 1.313-1.383l3.66-9.45zm1.732 6.271c.071 0 .071-.035.053-.103l-1.544-4.129c-.092-.229-.179-.229-.269 0l-1.46 4.129c-.018.066 0 .103.051.103h3.169zM437.272 207.985c0 2.218.043 3.123.318 3.389.246.248.849.358 2.079.358.815 0 1.503-.021 1.874-.465.207-.229.321-.553.378-.854.021-.103.071-.19.163-.19.067 0 .104.065.104.228 0 .157-.104 1.063-.228 1.506-.106.355-.159.405-.994.405-1.113 0-1.989-.02-2.708-.053-.71-.02-1.242-.038-1.708-.038-.064 0-.333 0-.637.018-.319.02-.664.039-.903.039-.164 0-.25-.039-.25-.13 0-.05.041-.129.135-.129.133 0 .328-.037.477-.067.306-.069.336-.354.402-.798.089-.621.089-1.81.089-3.263v-2.657c0-2.343 0-2.764-.039-3.241-.034-.512-.125-.76-.636-.841a5.876 5.876 0 0 0-.537-.037c-.048 0-.127-.065-.127-.123 0-.093.069-.13.248-.13.709 0 1.684.037 1.773.037.067 0 1.236-.037 1.727-.037.154 0 .242.037.242.13 0 .048-.067.105-.129.105-.106 0-.335.02-.511.039-.464.091-.553.314-.58.848-.023.485-.023.906-.023 3.237v2.714h.001zM448.123 207.947c0 1.461 0 2.645.066 3.261.05.444.128.729.604.8.211.039.567.068.703.068.111 0 .134.069.134.126 0 .071-.068.132-.248.132-.849 0-1.843-.053-1.931-.053-.071 0-1.154.053-1.615.053-.179 0-.246-.04-.246-.132 0-.048.037-.11.127-.11.138 0 .315-.036.467-.062.313-.069.398-.377.462-.82.068-.618.068-1.809.068-3.261v-6.33l-2.256.036c-.976.019-1.353.13-1.579.484-.177.262-.198.372-.246.476-.041.131-.09.143-.156.143-.039 0-.109-.043-.109-.13 0-.157.315-1.507.336-1.635.039-.09.107-.286.159-.286.105 0 .266.131.687.179.442.046 1.046.067 1.226.067h5.892c.508 0 .863-.038 1.109-.067.227-.039.373-.065.443-.065.068 0 .068.084.068.173 0 .462-.049 1.544-.049 1.723 0 .129-.072.2-.146.2-.063 0-.104-.053-.126-.266l-.021-.157c-.045-.464-.392-.8-1.876-.841l-1.952-.036.005 6.33zM465.399 207.947c0 1.461.02 2.645.087 3.261.049.444.091.729.575.8.212.039.568.068.687.068.109 0 .142.069.142.126 0 .071-.088.132-.267.132-.85 0-1.845-.053-1.935-.053-.067 0-1.079.053-1.544.053-.179 0-.246-.04-.246-.132 0-.048.039-.126.127-.126.14 0 .318-.04.462-.068.313-.07.373-.375.425-.816.066-.623.066-1.754.066-3.212v-1.506c0-.066-.037-.089-.086-.089h-6.513c-.049 0-.092.02-.092.089v1.507c0 1.457 0 2.609.071 3.229.052.444.104.732.565.798.231.041.576.069.71.069a.13.13 0 0 1 .133.131c0 .066-.069.129-.248.129-.869 0-1.863-.051-1.932-.051-.089 0-1.083.051-1.558.051-.157 0-.245-.041-.245-.129 0-.05.038-.131.127-.131.139 0 .336-.038.481-.069.308-.064.336-.354.401-.798.091-.618.091-1.809.091-3.259v-2.661c0-2.341 0-2.764-.038-3.238-.038-.513-.126-.759-.641-.841a4.896 4.896 0 0 0-.531-.038c-.05 0-.129-.066-.129-.125 0-.09.069-.129.248-.129.709 0 1.703.039 1.792.039.067 0 1.062-.039 1.547-.039.18 0 .245.039.245.129 0 .051-.065.125-.127.125-.106 0-.216 0-.395.038-.424.091-.517.31-.553.841-.021.481-.021.936-.021 3.28v.312c0 .094.042.094.091.094h6.512c.05 0 .086 0 .086-.094v-.312c0-2.346-.021-2.799-.036-3.28-.043-.513-.109-.759-.623-.841a4.733 4.733 0 0 0-.526-.038c-.071 0-.131-.066-.131-.125 0-.09.07-.129.245-.129.688 0 1.706.039 1.776.039.086 0 1.08-.039 1.546-.039.176 0 .267.039.267.129 0 .051-.071.125-.138.125-.112 0-.2 0-.396.038-.406.091-.501.31-.531.841-.047.481-.047.906-.047 3.238l.024 2.657zM475.493 208.657c0-2.079 1.328-3.459 2.706-4.273-.657-.925-.868-1.646-.868-2.451 0-1.391 1.438-3.254 3.813-3.254.91 0 1.67.176 2.152.441.216.126.223.225.223.442 0 .53-.068 1.771-.126 2.038-.049.267-.108.304-.177.304-.09 0-.108-.071-.108-.331 0-.465-.108-1.046-.551-1.508-.396-.405-.997-.778-1.774-.778-1.063 0-2.25.657-2.25 2.324 0 1.381.952 2.529 2.796 4.54.602.662 2.788 2.699 3.347 3.173.498-.669.91-1.863.91-2.946 0-.264-.075-.6-.336-.867-.229-.224-.604-.283-.867-.283-.112 0-.216-.04-.216-.135 0-.087.14-.123.284-.123.426 0 1.137.021 2.129.123.266.046.313.18.313.36 0 1.437-.973 3.23-1.75 4.187 1.171.997 1.95 1.467 2.444 1.749.569.342 1.466.695 2.109.695.156 0 .244.016.244.126 0 .068-.138.129-.307.129h-1.73c-1.315 0-1.736-.129-3.687-1.665-.407.403-1.812 1.911-4.434 1.911-3.088-.007-4.289-2.383-4.289-3.928zm8.273 1.67c-.991-.82-2.741-2.505-3.208-2.998-.465-.492-1.598-1.752-2.092-2.48-.923.598-1.594 1.559-1.594 2.975 0 2.216 1.556 3.813 3.546 3.813 1.65.002 2.747-.691 3.348-1.31zM498.081 210.664c-1.726-1.543-2.146-3.563-2.146-5.248 0-1.191.403-3.263 1.988-4.841 1.063-1.063 2.682-1.896 5.408-1.896.708 0 1.702.049 2.571.212.671.13 1.237.229 1.81.267.196.019.228.09.228.2 0 .136-.053.351-.087.991-.041.582-.041 1.559-.053 1.823-.02.268-.049.37-.156.37-.127 0-.139-.128-.139-.37 0-.693-.285-1.42-.746-1.811-.623-.533-1.992-1.017-3.546-1.017-2.356 0-3.459.693-4.082 1.294-1.29 1.242-1.595 2.816-1.595 4.631 0 3.386 2.612 6.488 6.403 6.488 1.329 0 2.379-.156 3.084-.887.375-.393.598-1.171.664-1.487.03-.197.063-.264.175-.264.091 0 .13.127.13.264 0 .129-.218 1.665-.401 2.266-.104.336-.138.377-.461.517-.708.283-2.058.402-3.189.402-2.667.01-4.457-.648-5.86-1.904zM514.545 201.232c.2-.491.266-.58.373-.58.164 0 .216.214.375.549.287.64 2.791 6.866 3.746 9.152.57 1.351.994 1.547 1.327 1.648.227.065.468.087.621.087.092 0 .194.039.194.128 0 .095-.176.129-.349.129-.229 0-1.387 0-2.466-.034-.305-.023-.549-.023-.549-.111 0-.069.038-.069.103-.108.089-.037.246-.16.142-.402l-1.404-3.455c-.036-.071-.045-.094-.141-.094h-3.591c-.064 0-.13.039-.157.129l-.889 2.414c-.141.371-.225.75-.225 1.013 0 .308.263.402.532.402h.136c.132 0 .156.055.156.13 0 .093-.088.128-.226.128-.375 0-1.223-.051-1.398-.051-.157 0-.938.051-1.579.051-.196 0-.305-.037-.305-.128 0-.068.069-.13.137-.13.111 0 .338-.018.466-.034.714-.094 1.016-.621 1.313-1.383l3.658-9.45zm1.735 6.271c.07 0 .07-.035.054-.103l-1.547-4.129c-.088-.229-.179-.229-.268 0l-1.455 4.129c-.019.066 0 .103.048.103h3.168zM523.581 205.29c0-2.344 0-2.766-.04-3.243-.037-.513-.126-.76-.641-.839a4.84 4.84 0 0 0-.529-.039c-.054 0-.131-.066-.131-.125 0-.09.068-.129.248-.129.711 0 1.757.039 1.844.039.159 0 1.465-.039 1.952-.039.992 0 2.089.088 2.906.66.391.287 1.086 1.016 1.086 2.058 0 1.112-.467 2.195-1.914 3.439 1.276 1.599 2.352 2.963 3.259 3.902.835.845 1.349.992 1.732 1.045.308.049.464.049.554.049.087 0 .141.064.141.128 0 .091-.093.13-.378.13h-.973c-.889 0-1.282-.089-1.662-.305-.675-.357-1.245-1.084-2.138-2.218-.657-.818-1.347-1.794-1.683-2.198-.063-.067-.107-.087-.214-.087l-1.981-.036c-.066 0-.109.041-.109.129v.356c0 1.459 0 2.617.071 3.241.05.439.134.728.618.796.221.041.553.071.691.071.108 0 .126.063.126.125 0 .07-.065.132-.244.132-.846 0-1.847-.053-1.913-.053-.02 0-1.063.053-1.546.053-.16 0-.244-.04-.244-.132 0-.05.037-.125.125-.125.142 0 .335-.039.479-.071.305-.068.337-.355.406-.796.095-.624.095-1.811.095-3.264v-2.657h.006v.008h.002v-.006h-.001zm1.344 1.278c0 .09.039.136.11.195.225.128 1.021.229 1.723.229.373 0 .796-.02 1.171-.268.531-.354.936-1.153.936-2.307 0-1.882-1.026-2.963-2.698-2.963-.464 0-.953.052-1.115.093-.067.037-.127.086-.127.175v4.846zM535.84 205.29c0-2.344 0-2.766-.036-3.243-.041-.513-.128-.76-.643-.839a4.84 4.84 0 0 0-.531-.039c-.05 0-.125-.066-.125-.125 0-.09.067-.129.242-.129.715 0 1.729.039 1.815.039.104 0 3.367.02 3.716 0 .311-.021.587-.067.71-.093.067-.018.142-.065.218-.065.05 0 .068.065.068.135 0 .111-.089.287-.123.71-.021.14-.053.818-.094.998-.021.065-.07.157-.14.157-.086 0-.125-.068-.125-.2 0-.104-.023-.354-.087-.531-.114-.247-.271-.354-1.117-.46-.269-.041-2.079-.053-2.256-.053-.073 0-.09.053-.09.158v4.094c0 .11 0 .162.09.162.192 0 2.256 0 2.608-.039.373-.039.597-.049.765-.212.1-.106.171-.2.223-.2.055 0 .089.04.089.125 0 .094-.089.341-.128.845-.043.297-.07.862-.07.974 0 .127-.038.284-.136.284-.069 0-.109-.051-.109-.142 0-.136 0-.304-.069-.488-.05-.222-.195-.396-.798-.464-.423-.049-2.088-.071-2.356-.071-.089 0-.103.052-.103.11v1.259c0 .514-.022 2.268 0 2.575.037 1.008.313 1.198 1.857 1.198.406 0 1.156 0 1.561-.154.404-.178.619-.442.706-1.047.038-.179.07-.23.159-.23.087 0 .106.128.106.23 0 .108-.131 1.13-.218 1.456-.104.392-.263.392-.868.392-1.17 0-2.077-.035-2.705-.046-.666-.041-1.066-.041-1.288-.041-.045 0-.342 0-.675.021-.302.02-.659.039-.906.039-.155 0-.242-.039-.242-.131 0-.05.035-.127.128-.127.138 0 .334-.048.479-.069.307-.052.336-.356.403-.798.093-.623.093-1.811.093-3.263v-2.66l.002-.002z"/></g></svg>