<svg xmlns="http://www.w3.org/2000/svg" width="255.3" height="283.5" viewBox="0 0 255.3 283.5"><g fill="#BE955B"><path d="M81.1 282.8c-1.5-.5-2.7-1.1-3.7-1.9-.4-.4-.6-.8-.6-1.4 0-.4.1-.7.3-1 .2-.3.5-.4.8-.4s.7.1 1.1.4c2 1.5 4.2 2.2 6.8 2.2 1.8 0 3.2-.3 4.1-1 1-.7 1.4-1.6 1.4-2.9 0-1-.4-1.7-1.3-2.2s-2.3-1-4.3-1.4c-1.9-.4-3.4-.9-4.6-1.4s-2.1-1.2-2.8-2.1c-.7-.9-1-2-1-3.4s.4-2.6 1.1-3.6c.7-1.1 1.8-1.9 3.1-2.5 1.3-.6 2.9-.9 4.6-.9 1.6 0 3 .2 4.4.7 1.3.4 2.5 1.1 3.4 2 .4.4.7.8.7 1.4 0 .4-.1.7-.4 1-.2.3-.5.4-.8.4s-.7-.1-1.1-.4c-1-.8-2-1.3-2.9-1.7-.9-.3-2-.5-3.3-.5-1.7 0-3.1.4-4 1.1s-1.4 1.7-1.4 2.9c0 1.1.4 1.9 1.3 2.4.8.5 2.2 1 4.1 1.5 2 .4 3.5.9 4.8 1.4 1.2.5 2.2 1.1 2.9 2 .7.8 1.1 1.9 1.1 3.2 0 1.3-.4 2.5-1.1 3.6-.7 1-1.8 1.8-3.1 2.4-1.3.6-2.9.9-4.7.9-1.8-.1-3.4-.4-4.9-.8zM117.8 259.9c.3.3.5.7.5 1.3v20.4c0 .5-.2.9-.5 1.3-.3.3-.7.5-1.2.5s-.9-.2-1.2-.5c-.3-.3-.5-.7-.5-1.3v-9h-13.2v9c0 .5-.2.9-.5 1.3-.3.3-.7.5-1.2.5s-.9-.2-1.2-.5c-.3-.3-.5-.7-.5-1.3v-20.4c0-.5.2-.9.5-1.3.3-.3.7-.5 1.2-.5s.9.2 1.2.5c.3.3.5.7.5 1.3v8.6h13.2v-8.6c0-.5.2-.9.5-1.3.3-.3.7-.5 1.2-.5s.9.2 1.2.5zM123.4 282.7c-.3-.3-.5-.7-.5-1.2v-20.2c0-.5.2-.9.5-1.2.3-.3.7-.5 1.3-.5H137c.5 0 .9.1 1.2.4.3.2.4.6.4 1s-.1.8-.4 1c-.3.2-.7.4-1.2.4h-10.6v7.4h10c.5 0 .9.1 1.2.4.3.2.4.6.4 1s-.1.8-.4 1c-.3.2-.7.4-1.2.4h-10v7.8H137c1.1 0 1.6.5 1.6 1.4 0 .4-.1.8-.4 1-.3.2-.7.4-1.2.4h-12.3c-.6 0-1-.2-1.3-.5zM142.1 282.7c-.3-.3-.5-.7-.5-1.2v-20.2c0-.5.2-.9.5-1.2.3-.3.7-.5 1.3-.5h12.3c.5 0 .9.1 1.2.4.3.2.4.6.4 1s-.1.8-.4 1c-.3.2-.7.4-1.2.4h-10.6v7.4h10c.5 0 .9.1 1.2.4.3.2.4.6.4 1s-.1.8-.4 1c-.3.2-.7.4-1.2.4h-10v7.8h10.6c1.1 0 1.6.5 1.6 1.4 0 .4-.1.8-.4 1-.3.2-.7.4-1.2.4h-12.3c-.5 0-1-.2-1.3-.5zM179.1 282c0 .4-.2.7-.5 1s-.7.4-1.1.4c-.6 0-1.1-.3-1.5-.8l-4.5-7c-.5-.8-1.1-1.4-1.6-1.7-.6-.3-1.3-.5-2.3-.5h-3.8v8.2c0 .5-.2 1-.5 1.3s-.7.5-1.3.5c-.5 0-.9-.2-1.2-.5s-.5-.7-.5-1.3v-20.3c0-.5.2-.9.5-1.2.3-.3.7-.5 1.3-.5h8.3c2.6 0 4.6.6 6 1.7 1.4 1.2 2.1 2.9 2.1 5.1 0 1.9-.5 3.3-1.6 4.5-1 1.1-2.5 1.9-4.5 2.2.6.2 1.1.4 1.6.8s.9 1 1.4 1.7l3.4 5.4c.2.3.3.7.3 1zm-9-11.3c1.7 0 3-.3 3.9-1 .8-.7 1.3-1.7 1.3-3.2 0-1.4-.4-2.5-1.2-3.1-.8-.7-2.1-1-3.9-1h-6.3v8.3h6.2z"/></g><path fill="#BE955B" d="M0 241.1c0-1.3 1.1-2.4 2.4-2.4h250.5c1.3 0 2.4 1.1 2.4 2.4 0 1.3-1.1 2.4-2.4 2.4H2.4c-1.3 0-2.4-1.1-2.4-2.4"/><path fill="#614776" d="M57 149.9c.9 1 1.3 2.2 1.3 3.7v60.9c0 1.5-.5 2.8-1.4 3.7-.9 1-2.1 1.4-3.6 1.4-1.7 0-3.1-.7-4-2l-39.1-51.5v48.4c0 1.5-.4 2.8-1.3 3.7-.9 1-2.1 1.4-3.5 1.4-1.5 0-2.6-.5-3.5-1.4S.6 216 .6 214.4v-60.9c0-1.5.5-2.8 1.4-3.7.9-1 2.1-1.4 3.6-1.4 1.7 0 3.1.7 4 2L48.7 202v-48.5c0-1.5.4-2.8 1.3-3.7.9-1 2-1.4 3.5-1.4 1.4.1 2.6.5 3.5 1.5M76.1 218.3c-.9-.9-1.4-2.2-1.4-3.8v-60.6c0-1.5.4-2.7 1.3-3.6.9-.9 2.1-1.3 3.7-1.3h24c7.4 0 13.2 1.8 17.3 5.5 4.1 3.7 6.2 8.8 6.2 15.6 0 6.6-2.1 11.8-6.2 15.6-4.1 3.7-9.9 5.6-17.3 5.6H84.9v23.4c0 1.6-.4 2.9-1.3 3.8-.9.9-2.2 1.4-3.8 1.4-1.6-.2-2.8-.6-3.7-1.6m26.6-35.5c9.8 0 14.8-4.3 14.8-12.9 0-8.5-4.9-12.8-14.8-12.8H84.9v25.6l17.8.1zM141 217.9c-.9-.9-1.3-2.1-1.3-3.6V154c0-1.5.4-2.7 1.3-3.6.9-.9 2.1-1.3 3.7-1.3h36.7c1.5 0 2.7.4 3.5 1.1.8.7 1.2 1.8 1.2 3.1s-.4 2.3-1.2 3-2 1-3.5 1h-31.7v22.1h29.7c1.5 0 2.7.4 3.5 1.1.8.7 1.2 1.8 1.2 3.1s-.4 2.4-1.2 3.1c-.8.7-2 1.1-3.5 1.1h-29.7V211h31.7c3.2 0 4.8 1.4 4.8 4.1 0 1.3-.4 2.4-1.2 3.1-.8.7-2 1.1-3.5 1.1h-36.7c-1.6-.1-2.9-.5-3.8-1.4M204.8 212.8c-4.9-4.8-7.3-12-7.3-21.4v-37.7c0-1.6.5-2.9 1.4-3.8.9-.9 2.2-1.4 3.7-1.4s2.8.5 3.7 1.4 1.4 2.2 1.4 3.8V192c0 6.4 1.5 11.3 4.6 14.7 3.1 3.3 7.7 5 13.8 5 6 0 10.6-1.7 13.8-5 3.1-3.3 4.7-8.2 4.7-14.7v-38.4c0-1.5.5-2.8 1.4-3.7.9-1 2.2-1.4 3.7-1.4s2.8.5 3.7 1.4 1.4 2.2 1.4 3.8v37.7c0 9.4-2.4 16.5-7.3 21.4-4.9 4.9-12 7.3-21.3 7.3-9.5-.1-16.6-2.5-21.4-7.3M143.5 34.7C143.5 15.5 128 0 108.8 0S74.1 15.5 74.1 34.7s15.5 34.7 34.7 34.7 34.7-15.5 34.7-34.7"/><path fill="#BE955B" d="M190.5 29.4c2.6-6.6-.6-14.1-7.2-16.7s-14.1.6-16.7 7.2c-2.6 6.6.6 14.1 7.2 16.7 6.6 2.6 14.1-.6 16.7-7.2M134.5 85.7c3.8.5 16.4 2 33.2-8.1 12.5-7.5 20.7-18.4 21.4-24.9.7-5.3-2.9-10.1-8.2-10.9-2.2-.3-4.1.1-6.2 1.2-6.5 3.4-8.1 15.5-14.2 24.4-9 13.3-20.4 13.8-25.8 14-1.2 0-2.2 1-2.2 2.2.1 1.1 1 2 2 2.1"/><path fill="#614776" d="M187.1 69.1c-5.7 7-22.9 22.4-43.7 22.4S112.2 81 96.6 74.6c-12.2-5.1-26.3.6-31.4 12.8-3.8 9-1.6 19.1 4.7 25.8 10.7 11.7 32.2 20.1 67.3 8.4s52.1-45.2 54.5-49.6c.7-1.4.1-2.9-1.2-3.6-1.2-.7-2.7-.4-3.4.7"/></svg>