<svg xmlns="http://www.w3.org/2000/svg" width="493.115" height="212.598" viewBox="0 0 493.115 212.598"><path fill="#4A3C7A" d="M27.965 145.106c-7.728-.04-13.823-2.229-18.171-6.509-4.41-4.344-6.625-10.423-6.586-18.06.078-15.373 9.158-24.553 24.289-24.553l13.042-.061C8.534 89.091 3.209 64.972 3.209 49.692c-.115-14.306 3.99-25.799 12.19-34.082 9.543-9.636 24.435-14.538 44.25-14.572h47.491c15.411.079 24.676 9.329 24.834 24.745 0 15.611-9.061 24.925-24.234 25.004l-9.99-.016c29.188 7.911 34.292 31.27 34.382 46.262 0 17.879-7.371 47.824-56.728 48.07h-.044l-47.395.003z"/><path fill="#FFF" d="M122.913 25.875c0 10.516-5.073 15.798-15.221 15.854l-48.027-.081c-10.621.104-15.982 2.788-16.087 8.045.157 4.994 5.547 7.466 16.167 7.412h15.537c31.703.105 47.631 13.432 47.79 39.984 0 25.813-15.902 38.8-47.712 38.955H27.965c-10.515-.052-15.745-5.204-15.694-15.458.053-10.462 5.229-15.641 15.537-15.535l47.552-.234c10.621-.052 15.93-2.76 15.93-8.124s-5.362-8.019-16.087-7.964H59.668c-31.599-.053-47.397-13.065-47.397-39.036-.21-26.342 15.587-39.538 47.395-39.591h47.474c10.41.054 15.668 5.311 15.773 15.773z"/><path fill="#4A3C7A" d="M27.965 145.106c-7.728-.04-13.823-2.229-18.171-6.509-4.41-4.344-6.625-10.423-6.586-18.06.078-15.373 9.158-24.553 24.289-24.553l13.042-.061C8.534 89.091 3.209 64.972 3.209 49.692c-.115-14.306 3.99-25.799 12.19-34.082 9.543-9.636 24.435-14.538 44.25-14.572h47.491c15.411.079 24.676 9.329 24.834 24.745 0 15.611-9.061 24.925-24.234 25.004l-9.99-.016c29.188 7.911 34.292 31.27 34.382 46.262 0 17.879-7.371 47.824-56.728 48.07h-.044l-47.395.003z"/><path fill="#FFF" d="M122.913 25.875c0 10.516-5.073 15.798-15.221 15.854l-48.027-.081c-10.621.104-15.982 2.788-16.087 8.045.157 4.994 5.547 7.466 16.167 7.412h15.537c31.703.105 47.631 13.432 47.79 39.984 0 25.813-15.902 38.8-47.712 38.955H27.965c-10.515-.052-15.745-5.204-15.694-15.458.053-10.462 5.229-15.641 15.537-15.535l47.552-.234c10.621-.052 15.93-2.76 15.93-8.124s-5.362-8.019-16.087-7.964H59.668c-31.599-.053-47.397-13.065-47.397-39.036-.21-26.342 15.587-39.538 47.395-39.591h47.474c10.41.054 15.668 5.311 15.773 15.773z"/><path fill="#4A3C7A" d="M201.224 145.264c-15.476 0-24.758-9.093-24.834-24.315V25.875c.079-15.355 9.292-24.68 24.651-24.988l80.01.154c14.913.24 23.789 9.329 23.867 24.315 0 12.505-5.886 21.067-16.133 24.158 10.206 3.008 16.066 11.372 16.133 23.556-.234 15.649-9.489 24.879-24.756 24.879l-54.03.066v22.497c-.077 15.359-9.354 24.595-24.823 24.751l-.085.001z"/><path fill="#FFF" d="M201.224 9.947l79.809.155c9.832.16 14.772 5.259 14.827 15.303 0 10.722-5.313 16.166-15.932 16.324h-62.852v15.616h63.09c10.408.156 15.641 5.414 15.693 15.771-.158 10.516-5.39 15.773-15.693 15.773l-63.09.077v31.548c-.054 10.356-5.336 15.588-15.853 15.69-10.46 0-15.722-5.1-15.772-15.3v-95.03c.051-10.409 5.311-15.718 15.773-15.927z"/><path fill="#4A3C7A" d="M201.224 145.264c-15.476 0-24.758-9.093-24.834-24.315V25.875c.079-15.355 9.292-24.68 24.651-24.988l80.01.154c14.913.24 23.789 9.329 23.867 24.315 0 12.505-5.886 21.067-16.133 24.158 10.206 3.008 16.066 11.372 16.133 23.556-.234 15.649-9.489 24.879-24.756 24.879l-54.03.066v22.497c-.077 15.359-9.354 24.595-24.823 24.751l-.085.001z"/><path fill="#FFF" d="M201.224 9.947l79.809.155c9.832.16 14.772 5.259 14.827 15.303 0 10.722-5.313 16.166-15.932 16.324h-62.852v15.616h63.09c10.408.156 15.641 5.414 15.693 15.771-.158 10.516-5.39 15.773-15.693 15.773l-63.09.077v31.548c-.054 10.356-5.336 15.588-15.853 15.69-10.46 0-15.722-5.1-15.772-15.3v-95.03c.051-10.409 5.311-15.718 15.773-15.927z"/><g><path fill="#4A3C7A" d="M366.674 145.264c-15.553 0-24.833-9.11-24.833-24.359l.067-70.116h-14.586c-15.55 0-24.833-9.313-24.833-24.913.079-15.355 9.293-24.68 24.649-24.988l80.008.154c14.914.24 23.792 9.329 23.871 24.315 0 15.711-9.293 25.202-24.86 25.429h-14.642l.071 69.716c-.155 15.391-9.434 24.605-24.825 24.763l-.087-.001z"/><path fill="#FFF" d="M327.321 9.947l79.809.155c9.831.16 14.773 5.259 14.827 15.303 0 10.722-5.313 16.166-15.929 16.324h-23.581l.082 78.78c-.106 10.358-5.39 15.589-15.854 15.692-10.514 0-15.772-5.101-15.772-15.301l.083-79.174h-23.659c-10.515 0-15.771-5.284-15.771-15.854.047-10.407 5.303-15.716 15.765-15.925z"/><path fill="#4A3C7A" d="M366.674 145.264c-15.553 0-24.833-9.11-24.833-24.359l.067-70.116h-14.586c-15.55 0-24.833-9.313-24.833-24.913.079-15.355 9.293-24.68 24.649-24.988l80.008.154c14.914.24 23.792 9.329 23.871 24.315 0 15.711-9.293 25.202-24.86 25.429h-14.642l.071 69.716c-.155 15.391-9.434 24.605-24.825 24.763l-.087-.001z"/><path fill="#FFF" d="M327.321 9.947l79.809.155c9.831.16 14.773 5.259 14.827 15.303 0 10.722-5.313 16.166-15.929 16.324h-23.581l.082 78.78c-.106 10.358-5.39 15.589-15.854 15.692-10.514 0-15.772-5.101-15.772-15.301l.083-79.174h-23.659c-10.515 0-15.771-5.284-15.771-15.854.047-10.407 5.303-15.716 15.765-15.925z"/></g><g><path fill="#9081AE" d="M403.266 171.929H4.485a4.486 4.486 0 0 1 0-8.971h396.879l45.91-47.351a4.486 4.486 0 0 1 6.441 6.244l-47.23 48.717a4.501 4.501 0 0 1-3.219 1.361zM441.399 171.929a4.489 4.489 0 0 1-3.224-7.611l47.232-48.715a4.49 4.49 0 0 1 6.343-.102 4.491 4.491 0 0 1 .1 6.345l-47.232 48.719a4.479 4.479 0 0 1-3.219 1.364z"/></g><g fill="#4A3C7A"><path d="M5.799 200.006l2.555-.224c.121 1.021.402 1.864.844 2.521.443.655 1.129 1.187 2.06 1.593.932.401 1.98.604 3.142.604 1.034 0 1.945-.153 2.739-.46.791-.311 1.38-.73 1.767-1.265a2.934 2.934 0 0 0 .581-1.75 2.68 2.68 0 0 0-.559-1.686c-.372-.479-.986-.881-1.843-1.207-.548-.215-1.764-.547-3.644-1-1.881-.449-3.197-.875-3.952-1.276-.979-.512-1.707-1.147-2.185-1.906-.481-.758-.719-1.606-.719-2.548 0-1.033.293-1.998.88-2.897.586-.896 1.444-1.58 2.57-2.045 1.125-.467 2.376-.701 3.757-.701 1.518 0 2.855.245 4.016.735 1.159.488 2.049 1.209 2.675 2.158.623.949.958 2.022 1.005 3.228l-2.596.194c-.14-1.293-.615-2.27-1.418-2.934-.806-.662-1.994-.992-3.568-.992-1.639 0-2.834.304-3.582.904-.748.599-1.125 1.321-1.125 2.17 0 .735.266 1.34.797 1.813.521.477 1.884.961 4.084 1.462 2.2.5 3.712.935 4.53 1.303 1.193.551 2.073 1.249 2.641 2.089.568.842.853 1.813.853 2.911 0 1.092-.313 2.117-.935 3.08-.624.962-1.52 1.712-2.69 2.249-1.167.535-2.483.806-3.944.806-1.854 0-3.405-.272-4.658-.813-1.252-.54-2.234-1.354-2.946-2.436-.714-1.08-1.094-2.312-1.132-3.68zM25.476 212.264v-20.515h2.29v1.926c.54-.752 1.151-1.316 1.829-1.695.68-.376 1.505-.569 2.473-.569 1.265 0 2.383.326 3.351.979.969.652 1.699 1.569 2.193 2.76.492 1.188.74 2.487.74 3.904 0 1.518-.271 2.882-.816 4.097s-1.335 2.148-2.373 2.792c-1.04.647-2.129.972-3.276.972-.84 0-1.589-.177-2.256-.532a5.107 5.107 0 0 1-1.639-1.339v7.221h-2.516v-.001zm2.277-13.015c0 1.908.387 3.321 1.158 4.23.772.914 1.709 1.369 2.807 1.369 1.118 0 2.075-.473 2.87-1.417s1.194-2.407 1.194-4.394c0-1.89-.389-3.306-1.167-4.246-.776-.938-1.705-1.409-2.785-1.409-1.071 0-2.018.501-2.843 1.502-.822 1.003-1.234 2.458-1.234 4.365zM51.536 201.805l2.598.321c-.411 1.519-1.17 2.695-2.277 3.533s-2.523 1.258-4.245 1.258c-2.169 0-3.889-.669-5.16-2.003-1.271-1.338-1.904-3.21-1.904-5.623 0-2.494.642-4.432 1.926-5.81 1.284-1.378 2.952-2.068 5-2.068 1.984 0 3.604.676 4.86 2.026 1.256 1.35 1.886 3.248 1.886 5.7 0 .146-.004.372-.013.668h-11.06c.091 1.632.553 2.879 1.382 3.743.829.866 1.862 1.298 3.1 1.298.922 0 1.707-.24 2.36-.727.648-.482 1.165-1.256 1.547-2.316zm-8.255-4.064h8.281c-.11-1.248-.427-2.184-.948-2.807-.802-.97-1.839-1.454-3.115-1.454-1.155 0-2.126.388-2.912 1.159-.785.777-1.221 1.81-1.306 3.102zM67.441 201.805l2.598.321c-.408 1.519-1.167 2.695-2.274 3.533-1.108.838-2.524 1.258-4.246 1.258-2.171 0-3.889-.669-5.16-2.003-1.271-1.338-1.905-3.21-1.905-5.623 0-2.494.642-4.432 1.929-5.81 1.284-1.378 2.951-2.068 4.999-2.068 1.984 0 3.603.676 4.86 2.026 1.256 1.35 1.886 3.248 1.886 5.7 0 .146-.004.372-.013.668H59.053c.093 1.632.555 2.879 1.381 3.743.827.866 1.862 1.298 3.1 1.298.921 0 1.708-.24 2.36-.727.65-.482 1.165-1.256 1.547-2.316zm-8.252-4.064h8.28c-.11-1.248-.429-2.184-.95-2.807-.799-.97-1.838-1.454-3.112-1.454-1.155 0-2.125.388-2.913 1.159-.787.777-1.221 1.81-1.305 3.102zM82.816 206.58v-1.872c-.939 1.47-2.321 2.207-4.148 2.207a5.805 5.805 0 0 1-3.261-.979c-.993-.653-1.76-1.562-2.304-2.729-.544-1.17-.816-2.511-.816-4.031 0-1.479.247-2.819.739-4.026.493-1.208 1.235-2.13 2.219-2.773.987-.642 2.09-.965 3.311-.965.893 0 1.691.19 2.39.568a4.998 4.998 0 0 1 1.703 1.473v-7.348h2.5v20.473h-2.332l-.001.002zm-7.945-7.401c0 1.899.4 3.321 1.202 4.262.799.939 1.745 1.409 2.833 1.409 1.1 0 2.033-.448 2.8-1.35.768-.897 1.152-2.267 1.152-4.11 0-2.03-.392-3.52-1.174-4.471-.782-.948-1.745-1.425-2.891-1.425-1.117 0-2.049.456-2.8 1.368-.748.914-1.122 2.355-1.122 4.317zM96.112 199.167c0-2.747.763-4.781 2.292-6.104 1.276-1.101 2.83-1.647 4.665-1.647 2.039 0 3.706.669 5.001 2.005 1.293 1.337 1.941 3.182 1.941 5.537 0 1.907-.288 3.41-.859 4.503a6.096 6.096 0 0 1-2.5 2.55 7.292 7.292 0 0 1-3.583.908c-2.077 0-3.754-.666-5.034-1.997-1.284-1.334-1.923-3.251-1.923-5.755zm2.584 0c0 1.898.415 3.322 1.242 4.267.828.943 1.871 1.417 3.13 1.417 1.246 0 2.286-.475 3.115-1.427.829-.947 1.242-2.397 1.242-4.343 0-1.834-.417-3.224-1.25-4.168-.833-.946-1.869-1.416-3.106-1.416-1.257 0-2.3.469-3.13 1.408-.831.942-1.243 2.364-1.243 4.262zM113.555 206.58v-12.876h-2.22v-1.954h2.22v-1.579c0-.995.088-1.733.266-2.219a3.213 3.213 0 0 1 1.277-1.586c.61-.404 1.463-.607 2.564-.607.708 0 1.489.087 2.347.253l-.376 2.191a8.48 8.48 0 0 0-1.482-.141c-.763 0-1.303.164-1.621.49-.317.325-.474.934-.474 1.826v1.369h2.891v1.955h-2.891v12.876l-2.501.002zM128.86 188.999v-2.891h2.512v2.891h-2.512zm0 17.581v-14.83h2.512v14.83h-2.512zM135.198 206.58v-14.83h2.262v2.108c1.09-1.631 2.662-2.445 4.722-2.445.893 0 1.715.162 2.464.483.75.323 1.309.745 1.683 1.264.372.523.634 1.144.783 1.858.094.466.14 1.281.14 2.441v9.118h-2.515v-9.021c0-1.021-.098-1.789-.293-2.295a2.423 2.423 0 0 0-1.04-1.218c-.498-.302-1.082-.453-1.754-.453-1.069 0-1.995.341-2.772 1.02s-1.166 1.968-1.166 3.866v8.1h-2.515l.001.004zM160.784 201.15l2.47.318c-.27 1.706-.961 3.041-2.073 4.002-1.112.965-2.479 1.447-4.099 1.447-2.031 0-3.663-.667-4.897-1.988-1.233-1.329-1.85-3.229-1.85-5.707 0-1.604.266-3.004.795-4.205.532-1.198 1.339-2.102 2.424-2.703a7.17 7.17 0 0 1 3.54-.902c1.609 0 2.927.409 3.952 1.226 1.025.815 1.682 1.973 1.969 3.47l-2.443.377c-.233-.997-.644-1.743-1.235-2.248-.591-.503-1.308-.754-2.145-.754-1.268 0-2.296.455-3.087 1.363-.791.907-1.186 2.346-1.186 4.307 0 1.994.38 3.439 1.146 4.344.763.903 1.76 1.355 2.989 1.355.987 0 1.812-.305 2.473-.91.661-.604 1.079-1.533 1.257-2.792zM165.379 206.58v-14.83h2.262v2.249c.576-1.053 1.11-1.745 1.599-2.082a2.786 2.786 0 0 1 1.613-.504c.846 0 1.708.272 2.583.813l-.865 2.33c-.615-.362-1.229-.543-1.843-.543a2.39 2.39 0 0 0-1.479.495c-.438.329-.75.786-.935 1.373-.281.896-.419 1.873-.419 2.934v7.763h-2.515l-.001.002zM185.084 201.805l2.596.321c-.408 1.519-1.167 2.695-2.275 3.533-1.107.838-2.523 1.258-4.245 1.258-2.17 0-3.888-.669-5.16-2.003-1.271-1.338-1.905-3.21-1.905-5.623 0-2.494.642-4.432 1.928-5.81 1.284-1.378 2.951-2.068 4.999-2.068 1.984 0 3.604.676 4.86 2.026 1.257 1.35 1.885 3.248 1.885 5.7 0 .146-.004.372-.012.668h-11.063c.094 1.632.555 2.879 1.382 3.743.827.866 1.862 1.298 3.1 1.298.92 0 1.707-.24 2.36-.727.65-.482 1.166-1.256 1.55-2.316zm-8.254-4.064h8.281c-.111-1.248-.428-2.184-.95-2.807-.799-.97-1.839-1.454-3.112-1.454-1.154 0-2.125.388-2.913 1.159-.787.777-1.223 1.81-1.306 3.102zM200.515 204.752c-.932.79-1.828 1.353-2.689 1.677a7.793 7.793 0 0 1-2.773.485c-1.63 0-2.881-.396-3.756-1.195-.876-.793-1.314-1.813-1.314-3.052 0-.728.166-1.389.495-1.99a4.06 4.06 0 0 1 1.299-1.445 6.077 6.077 0 0 1 1.81-.824c.493-.13 1.239-.256 2.234-.377 2.031-.24 3.522-.53 4.481-.865.009-.345.013-.565.013-.657 0-1.023-.235-1.744-.711-2.166-.643-.567-1.598-.85-2.861-.85-1.185 0-2.056.208-2.619.621-.563.414-.98 1.147-1.25 2.197l-2.458-.333c.224-1.052.592-1.903 1.104-2.549.513-.646 1.252-1.146 2.22-1.493.966-.351 2.09-.525 3.365-.525 1.269 0 2.297.149 3.088.449.791.299 1.373.673 1.746 1.124.371.45.633 1.019.782 1.709.083.431.125 1.201.125 2.319v3.352c0 2.338.054 3.813.159 4.435.105.619.318 1.212.637 1.778h-2.627c-.259-.518-.427-1.129-.5-1.825zm-.209-5.613c-.912.371-2.281.687-4.104.948-1.034.146-1.765.315-2.192.5a2.21 2.21 0 0 0-.993.819 2.14 2.14 0 0 0-.349 1.19c0 .674.253 1.229.761 1.678.506.446 1.25.668 2.226.668.969 0 1.828-.211 2.583-.636.752-.425 1.307-1.004 1.662-1.738.271-.568.404-1.404.404-2.514v-.92l.002.005zM205.737 202.156l2.486-.394c.139.995.529 1.76 1.166 2.289.639.529 1.529.796 2.672.796 1.155 0 2.012-.233 2.571-.704.56-.473.837-1.021.837-1.654 0-.57-.246-1.017-.74-1.342-.344-.225-1.201-.504-2.566-.853-1.844-.466-3.122-.864-3.833-1.206-.713-.339-1.252-.811-1.62-1.409a3.748 3.748 0 0 1-.551-1.99c0-.661.15-1.273.453-1.835a4.067 4.067 0 0 1 1.238-1.405c.391-.287.924-.531 1.599-.733a7.637 7.637 0 0 1 2.17-.302c1.163 0 2.185.17 3.065.504.881.333 1.529.789 1.951 1.36.418.576.707 1.34.865 2.299l-2.458.333c-.11-.761-.437-1.359-.972-1.785-.535-.428-1.291-.644-2.268-.644-1.156 0-1.979.189-2.474.572-.494.384-.74.829-.74 1.343 0 .324.103.617.308.878.205.271.525.493.964.671.251.093.991.311 2.22.643 1.777.476 3.02.863 3.721 1.168.703.303 1.254.742 1.653 1.317.399.577.603 1.294.603 2.152 0 .838-.244 1.627-.733 2.364-.49.74-1.195 1.313-2.116 1.719-.92.402-1.964.606-3.127.606-1.926 0-3.396-.397-4.404-1.2-1.016-.799-1.66-1.985-1.94-3.558zM221.058 188.999v-2.891h2.512v2.891h-2.512zm0 17.581v-14.83h2.512v14.83h-2.512zM227.397 206.58v-14.83h2.263v2.108c1.09-1.631 2.661-2.445 4.721-2.445.894 0 1.716.162 2.466.483.747.323 1.309.745 1.684 1.264.371.523.633 1.144.781 1.858.094.466.141 1.281.141 2.441v9.118h-2.516v-9.021c0-1.021-.098-1.789-.293-2.295-.194-.507-.541-.915-1.041-1.218-.498-.302-1.082-.453-1.752-.453-1.07 0-1.994.341-2.771 1.02-.778.679-1.165 1.968-1.165 3.866v8.1H227.4l-.003.004zM242.842 207.812l2.443.362c.102.756.387 1.305.851 1.647.623.466 1.476.697 2.556.697 1.161 0 2.062-.231 2.694-.697.633-.467 1.063-1.117 1.285-1.956.131-.51.19-1.586.181-3.226-1.099 1.293-2.468 1.938-4.104 1.938-2.039 0-3.619-.736-4.735-2.204-1.117-1.472-1.675-3.235-1.675-5.295 0-1.414.255-2.72.769-3.918.51-1.196 1.254-2.12 2.227-2.771.973-.653 2.115-.98 3.426-.98 1.752 0 3.194.711 4.332 2.125v-1.788h2.317v12.819c0 2.309-.233 3.945-.707 4.911-.468.964-1.217 1.726-2.234 2.282-1.018.56-2.272.838-3.766.838-1.769 0-3.196-.396-4.288-1.193-1.082-.792-1.608-1.991-1.572-3.591zm2.082-8.911c0 1.948.388 3.366 1.158 4.262.774.894 1.742 1.339 2.907 1.339 1.152 0 2.121-.443 2.903-1.332.781-.891 1.171-2.283 1.171-4.185 0-1.815-.401-3.187-1.207-4.105-.804-.923-1.776-1.382-2.911-1.382-1.119 0-2.066.453-2.849 1.363-.781.906-1.172 2.251-1.172 4.04zM267.155 206.58v-14.83h2.249v2.08a5.318 5.318 0 0 1 1.858-1.75c.774-.441 1.653-.667 2.642-.667 1.098 0 1.998.229 2.702.688.703.456 1.198 1.093 1.487 1.913 1.173-1.734 2.7-2.603 4.581-2.603 1.467 0 2.604.408 3.395 1.224.79.815 1.187 2.07 1.187 3.766v10.18h-2.5v-9.341c0-1.008-.081-1.729-.242-2.173a2.104 2.104 0 0 0-.889-1.067c-.429-.269-.932-.402-1.506-.402-1.044 0-1.909.347-2.602 1.039-.689.693-1.031 1.807-1.031 3.33v8.615h-2.514v-9.635c0-1.117-.205-1.952-.616-2.514-.406-.56-1.08-.841-2.013-.841-.707 0-1.362.189-1.961.562-.601.374-1.035.917-1.304 1.636-.271.716-.405 1.748-.405 3.103v7.689h-2.517v.002h-.003l.002-.004zM290.995 188.999v-2.891h2.516v2.891h-2.516zm0 17.581v-14.83h2.516v14.83h-2.516zM297.28 206.58v-20.474h2.513v20.474h-2.513zM303.702 206.58v-20.474h2.516v11.677l5.947-6.033h3.256l-5.67 5.505 6.242 9.326h-3.101L307.991 199l-1.773 1.704v5.882h-2.516v-.006zM326.535 206.58v-12.876h-2.22v-1.954h2.22v-1.579c0-.995.089-1.733.265-2.219a3.22 3.22 0 0 1 1.28-1.586c.609-.404 1.464-.607 2.563-.607.707 0 1.49.087 2.345.253l-.375 2.191a8.476 8.476 0 0 0-1.48-.141c-.764 0-1.304.164-1.619.49-.314.325-.475.934-.475 1.826v1.369h2.889v1.955h-2.889v12.876l-2.504.002zM344.034 201.805l2.6.321c-.409 1.519-1.169 2.695-2.276 3.533-1.106.838-2.524 1.258-4.246 1.258-2.171 0-3.892-.669-5.16-2.003-1.271-1.338-1.904-3.21-1.904-5.623 0-2.494.641-4.432 1.926-5.81 1.284-1.378 2.951-2.068 5.001-2.068 1.983 0 3.603.676 4.86 2.026 1.255 1.35 1.883 3.248 1.883 5.7 0 .146-.005.372-.015.668H335.64c.092 1.632.555 2.879 1.382 3.743.828.866 1.86 1.298 3.101 1.298.924 0 1.71-.24 2.362-.727.65-.482 1.165-1.256 1.549-2.316zm-8.256-4.064h8.282c-.112-1.248-.43-2.184-.948-2.807-.803-.97-1.841-1.454-3.116-1.454-1.153 0-2.124.388-2.912 1.159-.785.777-1.22 1.81-1.306 3.102zM359.938 201.805l2.601.321c-.41 1.519-1.169 2.695-2.277 3.533-1.107.838-2.523 1.258-4.246 1.258-2.169 0-3.889-.669-5.161-2.003-1.271-1.338-1.903-3.21-1.903-5.623 0-2.494.64-4.432 1.926-5.81 1.284-1.378 2.951-2.068 4.999-2.068 1.985 0 3.604.676 4.862 2.026 1.257 1.35 1.885 3.248 1.885 5.7 0 .146-.003.372-.017.668h-11.06c.091 1.632.552 2.879 1.382 3.743.827.866 1.859 1.298 3.102 1.298.922 0 1.708-.24 2.357-.727.654-.482 1.171-1.256 1.55-2.316zm-8.252-4.064h8.282c-.11-1.248-.429-2.184-.949-2.807-.803-.97-1.841-1.454-3.115-1.454-1.153 0-2.124.388-2.912 1.159-.786.777-1.22 1.81-1.306 3.102zM375.316 206.58v-1.872c-.938 1.47-2.325 2.207-4.147 2.207a5.813 5.813 0 0 1-3.262-.979c-.995-.653-1.762-1.562-2.304-2.729-.542-1.17-.814-2.511-.814-4.031 0-1.479.247-2.819.741-4.026.495-1.206 1.231-2.13 2.221-2.773.984-.642 2.088-.965 3.308-.965.894 0 1.69.19 2.391.568s1.264.868 1.703 1.473v-7.348h2.5v20.473h-2.331v.003h-.006zm-7.946-7.401c0 1.899.397 3.321 1.199 4.262.799.939 1.743 1.409 2.835 1.409 1.097 0 2.029-.448 2.8-1.35.769-.897 1.152-2.267 1.152-4.11 0-2.03-.395-3.52-1.174-4.471-.78-.948-1.746-1.425-2.89-1.425-1.118 0-2.052.456-2.799 1.368-.75.914-1.123 2.355-1.123 4.317zM380.594 202.156l2.485-.394c.138.995.528 1.76 1.163 2.289.637.529 1.529.796 2.675.796 1.155 0 2.012-.233 2.569-.704.561-.473.842-1.021.842-1.654 0-.57-.248-1.017-.743-1.342-.345-.225-1.2-.504-2.567-.853-1.846-.466-3.122-.864-3.834-1.206-.712-.339-1.254-.811-1.62-1.409a3.765 3.765 0 0 1-.55-1.99c0-.661.15-1.273.453-1.835a4.071 4.071 0 0 1 1.236-1.405c.391-.287.925-.531 1.6-.733a7.637 7.637 0 0 1 2.17-.302c1.163 0 2.187.17 3.065.504.88.333 1.529.789 1.95 1.36.419.576.708 1.34.864 2.299l-2.458.333c-.112-.761-.435-1.359-.972-1.785-.534-.428-1.29-.644-2.269-.644-1.153 0-1.979.189-2.472.572-.494.384-.74.829-.74 1.343 0 .324.103.617.306.878.204.271.526.493.967.671.25.093.989.311 2.218.643 1.778.476 3.021.863 3.722 1.168.706.303 1.254.742 1.653 1.317.399.577.601 1.294.601 2.152a4.18 4.18 0 0 1-.734 2.364c-.485.741-1.189 1.313-2.114 1.719-.923.402-1.965.606-3.129.606-1.929 0-3.396-.397-4.403-1.2-1.009-.799-1.656-1.985-1.934-3.558z"/></g><g><path fill="#4A3C7A" d="M153.959 145.576c-15.437-.312-24.65-9.648-24.65-24.989v-94.79c-.041-7.635 2.149-13.744 6.499-18.123 4.343-4.362 10.442-6.597 18.131-6.635 15.542.156 24.88 9.329 25.112 24.539l.004 94.932c-.156 15.499-9.416 24.84-24.774 25.068l-.136.002c-.063-.002-.124-.004-.186-.004z"/><path fill="#FFF" d="M153.984 10.103c10.515.106 15.851 5.311 16.008 15.617v94.792c-.104 10.516-5.389 15.852-15.852 16.009-10.513-.212-15.771-5.521-15.771-15.933V25.797c-.051-10.411 5.153-15.641 15.615-15.694z"/><path fill="#4A3C7A" d="M179.654 26.096a25.499 25.499 0 0 0-5.689-16.485 20.836 20.836 0 0 0-1.395-1.584c-.069-.073-.125-.149-.196-.222-.015-.017-.034-.03-.049-.046-.106-.106-.221-.205-.331-.311C167.245 2.747 160.99.094 154.306.002L153.923 0c-13.974 0-25.507 11.37-25.709 25.347a25.554 25.554 0 0 0 1.095 7.787v87.453c0 15.341 9.212 24.679 24.651 24.989l.183.002.137-.002c15.36-.229 24.619-9.567 24.774-25.067l-.004-89.264c.369-1.662.58-3.385.604-5.149z"/><path fill="#FFF" d="M171.564 25.978c.14-9.72-7.651-17.748-17.371-17.894l-.259-.001c-9.576 0-17.48 7.796-17.622 17.38a17.494 17.494 0 0 0 2.06 8.52v86.603c0 10.411 5.258 15.722 15.771 15.934 10.462-.16 15.747-5.494 15.852-16.01V32.94a17.443 17.443 0 0 0 1.569-6.962z"/></g><path fill="#9081AE" d="M172.376 7.808C167.584 2.872 161.168.101 154.307.004L153.923 0c-13.974 0-25.508 11.37-25.71 25.347-.206 14.176 11.164 25.878 25.346 26.084l.377.002c13.974 0 25.511-11.369 25.718-25.337.099-6.859-2.485-13.355-7.278-18.288zM153.939 43.34l-.261-.001a17.5 17.5 0 0 1-12.384-5.342 17.498 17.498 0 0 1-4.981-12.533c.14-9.583 8.044-17.381 17.622-17.381l.259.002c9.72.145 17.514 8.169 17.372 17.893-.145 9.573-8.049 17.362-17.627 17.362z"/></svg>