<svg xmlns="http://www.w3.org/2000/svg" width="1533.766" height="283.464" viewBox="0 0 1533.766 283.464"><path fill="#007D32" d="M313.147 211.802h-12.71V82.588h-60.3v-12.71h133.31v12.71h-60.3zM503.311 211.802h-12.71v-19.761a57.968 57.968 0 0 1-3.3 3.589c-10.735 10.73-23.921 16.172-39.187 16.172-15.165 0-28.293-5.442-39.024-16.172-10.731-10.733-16.172-23.86-16.172-39.024 0-15.169 5.441-28.297 16.172-39.024 10.723-10.733 23.856-16.172 39.024-16.172 15.274 0 28.456 5.439 39.187 16.172a60.157 60.157 0 0 1 3.3 3.673V101.41h12.71v110.392zm-55.196-97.682c-11.747 0-21.523 4.066-29.89 12.434-8.366 8.365-12.434 18.196-12.434 30.052 0 11.746 4.067 21.522 12.434 29.89 8.367 8.365 18.143 12.434 29.89 12.434 11.857 0 21.662-4.02 29.979-12.279 8.318-8.271 12.405-18.006 12.507-29.757v-.45c-.102-11.832-4.218-21.646-12.588-29.963-8.367-8.319-18.147-12.361-29.898-12.361zM636.426 211.802h-18.497l-71.128-58.56-8.224 6.924v51.636h-12.873V69.878h12.873v74.132l52.888-42.6h18.61l-53.368 43.843zM651.667 101.41h12.873v110.393h-12.873zM804.642 211.802h-12.546v-67.711c0-7.988-3.364-14.682-10.288-20.455-7.147-5.965-15.555-8.866-25.697-8.866-9.476 0-17.269 2.682-23.807 8.203-6.408 5.404-9.756 11.862-10.235 19.745l.008 69.084h-12.873V101.41h12.873v13.539c.3-.282.609-.552.918-.821 9.057-8.002 20.211-12.068 33.116-12.068 12.982 0 24.38 4.047 33.884 12.027 9.732 8.284 14.646 18.32 14.646 29.841v67.874zM883.546 245.934c-11.783 0-22.554-3.435-32.013-10.204-9.202-6.534-15.945-15.506-20.014-26.664l-2.037-5.586h13.724l1.007 2.723c3.072 8.333 8.035 14.752 15.176 19.618 7.064 4.803 15.191 7.241 24.157 7.241 11.85 0 21.683-4.068 30.042-12.434 8.072-8.07 12.142-17.454 12.418-28.652a57.432 57.432 0 0 1-3.24 3.616c-10.776 10.768-23.957 16.21-39.22 16.21-15.164 0-28.297-5.442-39.034-16.172-10.728-10.733-16.173-23.86-16.173-39.024 0-15.169 5.445-28.297 16.173-39.024 10.737-10.733 23.859-16.172 39.034-16.172 15.268 0 28.449 5.439 39.177 16.172a57.909 57.909 0 0 1 3.299 3.673V101.41h12.71v91.279c-.585 14.623-5.97 27.037-16.009 37.074-10.734 10.729-23.914 16.171-39.177 16.171zm0-131.814c-11.751 0-21.529 4.066-29.9 12.434-8.359 8.365-12.434 18.196-12.434 30.052 0 11.746 4.074 21.522 12.434 29.89 8.371 8.365 18.149 12.434 29.9 12.434 11.85 0 21.683-4.069 30.042-12.434 8.37-8.368 12.434-18.144 12.434-29.89 0-11.751-4.085-21.552-12.515-29.971-8.419-8.419-18.22-12.515-29.961-12.515zM1041.94 245.934h-12.873V101.41h12.873v19.767a57.936 57.936 0 0 1 3.299-3.595c10.738-10.733 23.86-16.172 39.024-16.172 15.273 0 28.46 5.439 39.187 16.172 10.625 10.622 16.01 23.754 16.01 39.024 0 15.265-5.385 28.397-16.01 39.024-10.732 10.73-23.913 16.172-39.187 16.172-15.153 0-28.286-5.442-39.024-16.172a60.217 60.217 0 0 1-3.299-3.589v53.893zm42.324-131.814c-11.74 0-21.52 4.066-29.89 12.434-8.359 8.365-12.434 18.196-12.434 30.052 0 11.746 4.074 21.522 12.434 29.89 8.37 8.365 18.149 12.434 29.89 12.434 11.859 0 21.693-4.069 30.053-12.434 8.37-8.368 12.434-18.144 12.434-29.89 0-11.751-4.085-21.552-12.515-29.971-8.421-8.419-18.221-12.515-29.972-12.515z"/><path fill="#95C11F" d="M1274.899 211.802h-13.285l-31.856-74.115h-41.657l-31.856 74.115h-13.289l61.123-141.924h9.703l61.117 141.924zm-81.434-86.337h30.93l-15.468-36.007-15.462 36.007zM1392.227 211.802h-13.762l-34.132-79.966h-42.015v79.966h-12.872V69.878h61.372c11.729 0 20.918 2.869 27.306 8.52 6.414 5.534 9.687 13.157 9.687 22.622 0 11.41-3.89 19.799-11.572 24.949-3.966 3.302-9.952 5.185-18.209 5.713l34.197 80.12zm-89.909-92.513h48.337c7.737 0 13.892-1.379 18.302-4.096 3.982-2.688 5.981-7.352 5.981-14.173 0-5.881-1.907-10.264-5.835-13.414-4.15-3.332-10.354-5.017-18.448-5.017h-48.337v36.7zM1473.466 211.802h-12.71V82.588h-60.3v-12.71h133.31v12.71h-60.3z"/><circle fill="#95C11F" cx="128.532" cy="180.276" r="103.188"/><circle fill="#007D32" cx="51.594" cy="96.014" r="51.594"/><circle fill="#95C11F" cx="132.499" cy="25.799" r="25.795"/><circle fill="#007D32" cx="257.516" cy="252.04" r="18.058"/></svg>