<svg xmlns="http://www.w3.org/2000/svg" width="366.736" height="212.598" viewBox="0 0 366.736 212.598"><path fill="#EAE2EF" d="M8.481.396S0 .396 0 8.875v32.981s0 8.483 8.481 8.483h30.512s8.481 0 8.481-8.483V8.875s0-8.479-8.481-8.479H8.481z"/><path fill="#F1ECF5" d="M62.293.001s-8.48 0-8.48 8.477v32.989s0 8.478 8.48 8.478h30.515s8.48 0 8.48-8.478V8.477s0-8.477-8.48-8.477L62.293.001z"/><path fill="#DCCFE4" d="M115.892.396s-8.48 0-8.48 8.479v32.981s0 8.483 8.48 8.483h30.512s8.481 0 8.481-8.483V8.875s0-8.479-8.481-8.479h-30.512z"/><path fill="#EAE2EF" d="M169.277.001s-8.48 0-8.48 8.477v32.989s0 8.478 8.48 8.478h30.513s8.477 0 8.477-8.478V8.477S208.267 0 199.79 0l-30.513.001z"/><g fill="#8B5F9A"><path d="M108.207 88.672h-8.944v29.399c0 1.693-.376 2.949-1.131 3.766s-1.729 1.229-2.927 1.229c-1.213 0-2.205-.414-2.967-1.24-.764-.831-1.146-2.082-1.146-3.762V88.671h-8.944c-1.398 0-2.438-.313-3.119-.928-.68-.618-1.02-1.433-1.02-2.44 0-1.049.355-1.881 1.063-2.484.709-.607 1.734-.912 3.078-.912h26.059c1.418 0 2.471.312 3.162.938.69.624 1.035 1.447 1.035 2.456s-.349 1.822-1.048 2.439c-.7.623-1.753.932-3.151.932zM130.431 81.219c4.197 0 7.798.848 10.807 2.552 3.01 1.706 5.286 4.122 6.832 7.257 1.547 3.144 2.319 6.822 2.319 11.059 0 3.133-.425 5.977-1.271 8.529-.847 2.558-2.115 4.774-3.811 6.656-1.691 1.879-3.771 3.314-6.236 4.305-2.469.993-5.293 1.49-8.476 1.49-3.165 0-5.999-.509-8.504-1.534-2.505-1.021-4.593-2.46-6.265-4.32-1.677-1.86-2.94-4.095-3.797-6.704-.854-2.613-1.285-5.441-1.285-8.475 0-3.111.444-5.965 1.338-8.557.893-2.594 2.186-4.803 3.879-6.622s3.756-3.219 6.184-4.185c2.435-.969 5.195-1.451 8.286-1.451zm11.651 20.811c0-2.964-.479-5.532-1.436-7.701s-2.324-3.813-4.098-4.925c-1.776-1.112-3.814-1.669-6.115-1.669-1.639 0-3.15.311-4.541.927a9.948 9.948 0 0 0-3.588 2.693c-1.004 1.176-1.795 2.683-2.375 4.514-.581 1.828-.87 3.887-.87 6.167 0 2.301.289 4.38.87 6.24.578 1.859 1.398 3.402 2.455 4.627 1.059 1.221 2.271 2.141 3.644 2.744 1.371.605 2.875.916 4.513.916 2.097 0 4.027-.523 5.783-1.572 1.756-1.048 3.155-2.67 4.197-4.856 1.04-2.202 1.561-4.901 1.561-8.105zM170.783 122.379h-12.367c-1.787 0-3.061-.398-3.825-1.196-.763-.803-1.146-2.081-1.146-3.824V86.934c0-1.785.392-3.067 1.175-3.852.781-.783 2.047-1.176 3.797-1.176h13.109c1.934 0 3.605.121 5.024.357 1.418.24 2.687.697 3.81 1.377a10.074 10.074 0 0 1 2.541 2.169 9.625 9.625 0 0 1 1.685 2.897 9.678 9.678 0 0 1 .574 3.354c0 4.047-2.027 7.014-6.074 8.891 5.314 1.693 7.972 4.99 7.972 9.884 0 2.259-.574 4.295-1.73 6.11-1.16 1.814-2.724 3.147-4.693 4.02-1.232.516-2.651.876-4.252 1.093-1.598.214-3.466.321-5.6.321zm-9.139-34.315v10.462h7.51c2.043 0 3.62-.193 4.733-.577 1.112-.388 1.965-1.119 2.554-2.209.459-.771.691-1.639.691-2.595 0-2.043-.727-3.401-2.182-4.074-1.455-.669-3.672-1.01-6.652-1.01l-6.654.003zm8.531 16.342h-8.529v11.819h8.805c5.539 0 8.31-1.993 8.31-5.989 0-2.042-.718-3.524-2.154-4.444-1.438-.926-3.58-1.386-6.432-1.386zM199.231 118.071v-12.837l-9.879-15.318c-.865-1.378-1.477-2.458-1.836-3.234-.361-.77-.541-1.446-.541-2.015 0-.937.367-1.745 1.098-2.433.729-.68 1.625-1.018 2.691-1.018 1.119 0 1.979.316 2.555.953.574.635 1.449 1.901 2.607 3.794l7.568 12.284 7.646-12.284c.461-.752.846-1.389 1.16-1.905.313-.514.664-1.001 1.037-1.453.379-.449.793-.798 1.254-1.034.461-.237 1.021-.358 1.686-.358 1.029 0 1.891.333 2.582 1.01.689.669 1.033 1.45 1.033 2.334 0 .714-.174 1.435-.525 2.154-.35.718-.945 1.713-1.795 2.978l-10.133 15.545v12.833c0 1.677-.391 2.93-1.162 3.76-.768.828-1.758 1.242-2.953 1.242-1.217 0-2.199-.41-2.957-1.229s-1.136-2.075-1.136-3.769zM230.269 114.509l9.057-13.223-7.619-11.765c-.721-1.142-1.254-2.121-1.615-2.938-.357-.818-.539-1.604-.539-2.358 0-.769.346-1.462 1.037-2.081.684-.615 1.531-.925 2.525-.925 1.143 0 2.029.332 2.664 1.008.637.67 1.514 1.917 2.633 3.741l6.072 9.828 6.486-9.828 1.371-2.125c.379-.587.744-1.076 1.09-1.463a3.55 3.55 0 0 1 1.18-.869c.434-.193.932-.29 1.502-.29 1.025 0 1.873.311 2.527.924.652.62.975 1.35.975 2.195 0 1.232-.709 2.908-2.125 5.021l-7.977 11.923 8.584 13.228c.775 1.161 1.338 2.118 1.684 2.881.352.763.525 1.485.525 2.168 0 .649-.152 1.233-.471 1.771a3.469 3.469 0 0 1-1.324 1.271 3.96 3.96 0 0 1-1.93.471c-.773 0-1.43-.162-1.963-.486a4.19 4.19 0 0 1-1.295-1.196c-.328-.479-.945-1.409-1.852-2.789l-7.123-11.207-7.566 11.538c-.588.924-1.01 1.563-1.258 1.935a7.17 7.17 0 0 1-.896 1.076c-.348.349-.76.627-1.242.829-.482.206-1.037.31-1.686.31-.998 0-1.814-.31-2.471-.912-.654-.607-.98-1.489-.98-2.651.002-1.378.678-3.041 2.02-5.012z"/><path d="M282.458 109.598h-14.746c.02 1.711.365 3.222 1.033 4.53.666 1.304 1.561 2.288 2.684 2.953 1.105.664 2.342.996 3.678.996.902 0 1.732-.107 2.473-.315a7.883 7.883 0 0 0 2.17-.995 15.679 15.679 0 0 0 1.93-1.454 90.853 90.853 0 0 0 2.293-2.092c.387-.329.934-.495 1.652-.495.771 0 1.396.214 1.877.635.482.424.719 1.018.719 1.797 0 .68-.268 1.476-.801 2.39-.533.91-1.34 1.785-2.418 2.618-1.076.84-2.432 1.532-4.057 2.084-1.631.553-3.5.828-5.619.828-4.838 0-8.604-1.378-11.291-4.14-2.691-2.763-4.031-6.509-4.031-11.236 0-2.226.326-4.295.99-6.198.67-1.903 1.635-3.535 2.898-4.9 1.271-1.363 2.836-2.404 4.695-3.134 1.857-.729 3.922-1.092 6.18-1.092 2.949 0 5.467.621 7.576 1.861 2.104 1.241 3.684 2.852 4.736 4.82 1.051 1.969 1.572 3.976 1.572 6.019 0 1.898-.545 3.122-1.629 3.683-1.064.557-2.595.837-4.564.837zm-14.742-4.281h13.668c-.186-2.576-.881-4.505-2.082-5.785-1.203-1.281-2.793-1.915-4.76-1.915-1.881 0-3.422.648-4.625 1.946-1.207 1.301-1.943 3.216-2.201 5.754z"/></g><path fill="#EAE2EF" d="M166.945 162.655s-8.48 0-8.48 8.48v32.984s0 8.479 8.48 8.479h30.513s8.473 0 8.473-8.479v-32.984s0-8.48-8.473-8.48h-30.513z"/><path fill="#F1ECF5" d="M220.755 162.26s-8.48 0-8.48 8.479v32.987s0 8.479 8.48 8.479h30.516s8.48 0 8.48-8.479v-32.981s0-8.479-8.48-8.479h-30.516v-.006z"/><path fill="#DCCFE4" d="M274.356 162.655s-8.479 0-8.479 8.48v32.984s0 8.479 8.479 8.479h30.512s8.479 0 8.479-8.479v-32.984s0-8.48-8.479-8.48h-30.512z"/><path fill="#EAE2EF" d="M327.741 162.26s-8.479 0-8.479 8.479v32.987s0 8.479 8.479 8.479h30.514s8.48 0 8.48-8.479v-32.981s0-8.479-8.48-8.479h-30.514v-.006z"/><path fill="#8B5F9A" d="M288.745 188.765H79.763c-12.445 0-16.961-10.145-16.961-16.963V41.436c0-12.445 10.143-16.963 16.961-16.963h208.982c12.447 0 16.967 10.143 16.967 16.963v130.366c0 12.447-10.145 16.963-16.967 16.963zM79.767 32.956c-1.964.03-8.48.735-8.48 8.478v130.365c.031 1.964.734 8.482 8.48 8.482h208.96c2.01-.04 8.504-.754 8.504-8.482V41.434c-.033-1.964-.732-8.478-8.48-8.478H79.767z"/></svg>