<svg xmlns="http://www.w3.org/2000/svg" width="506.663" height="284.042" viewBox="-0.289 -35.723 506.663 284.042"><path fill="#E3E3E3" d="M197.09 175.294s-14.759 0-14.759 14.761v43.218s0 14.758 14.759 14.758h43.219s14.759 0 14.759-14.758v-43.218s0-14.761-14.759-14.761H197.09z"/><path fill="none" stroke="#EDEDED" stroke-width=".579" d="M197.09 175.294s-14.759 0-14.759 14.761v43.218s0 14.758 14.759 14.758h43.219s14.759 0 14.759-14.758v-43.218s0-14.761-14.759-14.761H197.09h0z"/><path fill="#DDDFF1" d="M280.763 175.294s-14.757 0-14.757 14.761v43.218s0 14.758 14.757 14.758h43.217s14.763 0 14.763-14.758v-43.218s0-14.761-14.763-14.761h-43.217z"/><path fill="none" stroke="#E8EAF6" stroke-width=".579" d="M280.763 175.294s-14.757 0-14.757 14.761v43.218s0 14.758 14.757 14.758h43.217s14.763 0 14.763-14.758v-43.218s0-14.761-14.763-14.761h-43.217 0z"/><path fill="#D1D5EC" d="M364.437 175.294s-14.755 0-14.755 14.761v43.218s0 14.758 14.755 14.758h43.217s14.762 0 14.762-14.758v-43.218s0-14.761-14.762-14.761h-43.217z"/><path fill="none" stroke="#DDDFF1" stroke-width=".579" d="M364.437 175.294s-14.755 0-14.755 14.761v43.218s0 14.758 14.755 14.758h43.217s14.762 0 14.762-14.758v-43.218s0-14.761-14.762-14.761h-43.217 0z"/><path fill="#E3E3E3" d="M448.109 175.294s-14.758 0-14.758 14.761v43.218s0 14.758 14.758 14.758h43.214s14.762 0 14.762-14.758v-43.218s0-14.761-14.762-14.761h-43.214z"/><path fill="none" stroke="#EDEDED" stroke-width=".579" d="M448.109 175.294s-14.758 0-14.758 14.761v43.218s0 14.758 14.758 14.758h43.214s14.762 0 14.762-14.758v-43.218s0-14.761-14.762-14.761h-43.214 0z"/><path fill="#E3E3E3" d="M14.76-35.434S0-35.434 0-20.674V22.54S0 37.3 14.76 37.3h43.218s14.761 0 14.761-14.76v-43.214s0-14.76-14.761-14.76H14.76z"/><path fill="none" stroke="#EDEDED" stroke-width=".579" d="M14.76-35.434S0-35.434 0-20.674V22.54S0 37.3 14.76 37.3h43.218s14.761 0 14.761-14.76v-43.214s0-14.76-14.761-14.76H14.76h0z"/><path fill="#DDDFF1" d="M98.427-35.434s-14.759 0-14.759 14.76V22.54s0 14.76 14.759 14.76h43.22s14.761 0 14.761-14.76v-43.214s0-14.76-14.761-14.76h-43.22z"/><path fill="none" stroke="#E8EAF6" stroke-width=".579" d="M98.427-35.434s-14.759 0-14.759 14.76V22.54s0 14.76 14.759 14.76h43.22s14.761 0 14.761-14.76v-43.214s0-14.76-14.761-14.76h-43.22 0z"/><path fill="#D1D5EC" d="M182.099-35.434s-14.76 0-14.76 14.76V22.54s0 14.76 14.76 14.76h43.217s14.761 0 14.761-14.76v-43.214s0-14.76-14.761-14.76h-43.217z"/><path fill="none" stroke="#DDDFF1" stroke-width=".579" d="M182.099-35.434s-14.76 0-14.76 14.76V22.54s0 14.76 14.76 14.76h43.217s14.761 0 14.761-14.76v-43.214s0-14.76-14.761-14.76h-43.217 0z"/><path fill="#E3E3E3" d="M265.771-35.434s-14.759 0-14.759 14.76V22.54s0 14.76 14.759 14.76h43.222s14.76 0 14.76-14.76v-43.214s0-14.76-14.76-14.76h-43.222z"/><path fill="none" stroke="#EDEDED" stroke-width=".579" d="M265.771-35.434s-14.759 0-14.759 14.76V22.54s0 14.76 14.759 14.76h43.222s14.76 0 14.76-14.76v-43.214s0-14.76-14.76-14.76h-43.222 0z"/><path fill="#004996" d="M332.036 134.199c1.053 1.135 2.423 1.708 4.112 1.708 1.664 0 3.034-.575 4.107-1.724 1.084-1.148 1.617-2.896 1.617-5.229v-17.871l14.106-21.638c1.181-1.767 2.015-3.149 2.503-4.151.484-1.002.73-1.999.73-3.002 0-1.234-.479-2.308-1.44-3.25-.965-.933-2.164-1.4-3.599-1.4-.921 0-1.707.168-2.344.5-.645.335-1.227.811-1.749 1.441a17.204 17.204 0 0 0-1.445 2.021c-.433.72-.976 1.599-1.609 2.654l-10.647 17.104-10.531-17.104c-1.609-2.644-2.824-4.403-3.63-5.284-.807-.881-1.99-1.324-3.555-1.324-1.484 0-2.738.472-3.749 1.419-1.008.948-1.516 2.076-1.516 3.381 0 .788.25 1.723.753 2.807.502 1.074 1.356 2.568 2.552 4.495l13.757 21.33v17.873c.007 2.356.532 4.106 1.577 5.244m-50.149-47.023c4.149 0 7.236.467 9.264 1.405 2.027.936 3.034 2.82 3.034 5.67 0 1.332-.317 2.536-.966 3.606-.815 1.51-2.006 2.538-3.55 3.075-1.552.532-3.75.807-6.594.807h-10.453V87.168l9.265.008zm11.566 24.676c2.002 1.274 3.002 3.348 3.002 6.191 0 5.563-3.856 8.338-11.57 8.338h-12.263v-16.455h11.875c3.969.002 6.956.641 8.956 1.926m-.305 22.66c2.224-.297 4.197-.8 5.918-1.523 2.749-1.203 4.918-3.063 6.534-5.592 1.617-2.525 2.418-5.364 2.418-8.516 0-6.806-3.706-11.398-11.104-13.759 5.634-2.613 8.453-6.738 8.453-12.375 0-1.643-.267-3.196-.805-4.672a13.283 13.283 0 0 0-2.344-4.03 13.708 13.708 0 0 0-3.534-3.013c-1.567-.953-3.333-1.596-5.306-1.924-1.973-.336-4.307-.507-6.995-.507h-18.251c-2.436 0-4.193.543-5.281 1.634-1.089 1.09-1.639 2.879-1.639 5.365v42.354c0 2.435.534 4.207 1.597 5.318 1.065 1.121 2.839 1.674 5.323 1.674h17.217c2.968.001 5.567-.144 7.799-.434m-55.366-16.631c-1.452 3.058-3.395 5.311-5.846 6.766-2.443 1.465-5.133 2.193-8.053 2.193-2.281 0-4.374-.425-6.284-1.268-1.908-.846-3.604-2.118-5.075-3.821-1.476-1.708-2.614-3.851-3.417-6.435-.811-2.586-1.214-5.487-1.214-8.688 0-3.174.403-6.042 1.214-8.588.805-2.543 1.904-4.642 3.304-6.279 1.398-1.637 3.06-2.893 4.997-3.75 1.938-.856 4.042-1.284 6.323-1.284 3.204 0 6.041.771 8.514 2.326 2.472 1.55 4.371 3.837 5.703 6.861 1.332 3.015 1.999 6.595 1.999 10.719.004 4.451-.719 8.205-2.165 11.248m-25.578-38.217c-3.377 1.346-6.252 3.288-8.612 5.825-2.357 2.541-4.154 5.609-5.396 9.22-1.243 3.612-1.862 7.585-1.862 11.917 0 4.226.592 8.159 1.785 11.8 1.193 3.639 2.953 6.75 5.286 9.338 2.328 2.588 5.243 4.593 8.725 6.018 3.482 1.42 7.432 2.133 11.839 2.133 4.429 0 8.364-.688 11.8-2.073 3.432-1.38 6.322-3.379 8.683-5.989 2.36-2.617 4.126-5.702 5.306-9.265 1.179-3.565 1.768-7.521 1.768-11.875 0-5.892-1.074-11.028-3.229-15.396-2.151-4.368-5.32-7.733-9.51-10.105-4.192-2.372-9.204-3.555-15.045-3.555-4.316-.011-8.162.661-11.538 2.007m-20.448 7.068c.973-.859 1.463-1.99 1.463-3.4 0-1.409-.48-2.545-1.443-3.419-.962-.872-2.421-1.308-4.402-1.308H151.09c-1.871 0-3.3.426-4.287 1.266-.99.845-1.475 1.999-1.475 3.463 0 1.41.472 2.541 1.422 3.4.943.864 2.394 1.293 4.341 1.293h12.453v40.927c0 2.328.532 4.078 1.597 5.227 1.063 1.152 2.438 1.726 4.132 1.726 1.664 0 3.021-.566 4.074-1.71 1.051-1.14 1.579-2.897 1.579-5.251V88.02h12.454c1.947.005 3.401-.428 4.376-1.288"/><path fill="#004996" d="M379.04 217.855H126.537c-21.056 0-28.696-17.162-28.696-28.695V23.432c0-21.053 17.164-28.696 28.696-28.696h252.5c21.059 0 28.695 17.165 28.695 28.696v165.732c.003 21.051-17.164 28.691-28.692 28.691zM126.537 7.854c-2.563.035-15.579.954-15.579 15.579v165.733c.034 2.563.954 15.579 15.579 15.579h252.466c2.641-.04 15.615-.978 15.615-15.579V23.432c-.042-2.565-.956-15.576-15.581-15.576h-252.5v-.002z"/></svg>