<svg xmlns="http://www.w3.org/2000/svg" width="380.137" height="213.178" viewBox="0 0 380.137 213.178"><path fill="#E3E3E3" d="M147.816 158.045s-11.069 0-11.069 11.07v32.413s0 11.069 11.069 11.069h32.414s11.069 0 11.069-11.069v-32.413s0-11.07-11.069-11.07h-32.414z"/><path fill="none" stroke="#EDEDED" stroke-width=".579" d="M147.816 158.045s-11.069 0-11.069 11.07v32.413s0 11.069 11.069 11.069h32.414s11.069 0 11.069-11.069v-32.413s0-11.07-11.069-11.07h-32.414 0z"/><path fill="#DDDFF1" d="M210.571 158.045s-11.068 0-11.068 11.07v32.413s0 11.069 11.068 11.069h32.412s11.072 0 11.072-11.069v-32.413s0-11.07-11.072-11.07h-32.412z"/><path fill="none" stroke="#E8EAF6" stroke-width=".579" d="M210.571 158.045s-11.068 0-11.068 11.07v32.413s0 11.069 11.068 11.069h32.412s11.072 0 11.072-11.069v-32.413s0-11.07-11.072-11.07h-32.412 0z"/><path fill="#D1D5EC" d="M273.325 158.045s-11.066 0-11.066 11.07v32.413s0 11.069 11.066 11.069h32.412s11.072 0 11.072-11.069v-32.413s0-11.07-11.072-11.07h-32.412z"/><path fill="none" stroke="#DDDFF1" stroke-width=".579" d="M273.325 158.045s-11.066 0-11.066 11.07v32.413s0 11.069 11.066 11.069h32.412s11.072 0 11.072-11.069v-32.413s0-11.07-11.072-11.07h-32.412 0z"/><path fill="#E3E3E3" d="M336.079 158.045s-11.068 0-11.068 11.07v32.413s0 11.069 11.068 11.069h32.41s11.072 0 11.072-11.069v-32.413s0-11.07-11.072-11.07h-32.41z"/><path fill="none" stroke="#EDEDED" stroke-width=".579" d="M336.079 158.045s-11.068 0-11.068 11.07v32.413s0 11.069 11.068 11.069h32.41s11.072 0 11.072-11.069v-32.413s0-11.07-11.072-11.07h-32.41 0z"/><path fill="#E3E3E3" d="M11.07 0S0 0 0 11.07v32.41s0 11.07 11.07 11.07h32.413s11.07 0 11.07-11.07V11.07S54.553 0 43.483 0H11.07z"/><path fill="none" stroke="#EDEDED" stroke-width=".579" d="M11.07 0S0 0 0 11.07v32.41s0 11.07 11.07 11.07h32.413s11.07 0 11.07-11.07V11.07S54.553 0 43.483 0H11.07h0z"/><path fill="#DDDFF1" d="M73.82 0S62.751 0 62.751 11.07v32.41s0 11.07 11.069 11.07h32.415s11.07 0 11.07-11.07V11.07s0-11.07-11.07-11.07H73.82z"/><path fill="none" stroke="#E8EAF6" stroke-width=".579" d="M73.82 0S62.751 0 62.751 11.07v32.41s0 11.07 11.069 11.07h32.415s11.07 0 11.07-11.07V11.07s0-11.07-11.07-11.07H73.82h0z"/><path fill="#D1D5EC" d="M136.573 0s-11.07 0-11.07 11.07v32.41s0 11.07 11.07 11.07h32.413s11.07 0 11.07-11.07V11.07s0-11.07-11.07-11.07h-32.413z"/><path fill="none" stroke="#DDDFF1" stroke-width=".579" d="M136.573 0s-11.07 0-11.07 11.07v32.41s0 11.07 11.07 11.07h32.413s11.07 0 11.07-11.07V11.07s0-11.07-11.07-11.07h-32.413 0z"/><path fill="#E3E3E3" d="M199.327 0s-11.069 0-11.069 11.07v32.41s0 11.07 11.069 11.07h32.416s11.07 0 11.07-11.07V11.07s0-11.07-11.07-11.07h-32.416z"/><path fill="none" stroke="#EDEDED" stroke-width=".579" d="M199.327 0s-11.069 0-11.069 11.07v32.41s0 11.07 11.069 11.07h32.416s11.07 0 11.07-11.07V11.07s0-11.07-11.07-11.07h-32.416 0z"/><path fill="#004996" d="M249.026 127.223c.789.852 1.816 1.282 3.084 1.282 1.248 0 2.275-.432 3.08-1.293.813-.861 1.213-2.172 1.213-3.921v-13.403l10.58-16.229c.885-1.325 1.51-2.362 1.877-3.113.363-.752.547-1.499.547-2.252 0-.926-.359-1.731-1.08-2.437-.723-.7-1.623-1.05-2.699-1.05-.691 0-1.281.126-1.758.375-.484.251-.92.608-1.311 1.081-.396.474-.752.976-1.084 1.516-.324.54-.732 1.199-1.207 1.99l-7.986 12.828-7.898-12.828c-1.207-1.983-2.119-3.302-2.723-3.963s-1.492-.993-2.666-.993c-1.113 0-2.053.354-2.811 1.064-.756.711-1.137 1.557-1.137 2.536 0 .591.188 1.292.564 2.105.377.805 1.018 1.926 1.914 3.371l10.318 15.997v13.405c.005 1.767.398 3.079 1.183 3.932m-37.613-35.266c3.113 0 5.428.35 6.949 1.054 1.52.702 2.275 2.115 2.275 4.252 0 .999-.238 1.902-.725 2.705-.611 1.132-1.504 1.903-2.662 2.306-1.164.399-2.813.605-4.945.605h-7.84V91.951l6.948.006zm8.675 18.506c1.502.956 2.252 2.511 2.252 4.643 0 4.172-2.893 6.254-8.678 6.254h-9.197v-12.342h8.906c2.977.002 5.217.482 6.717 1.445m-.228 16.995c1.668-.222 3.148-.6 4.438-1.142a10.859 10.859 0 0 0 4.9-4.194c1.213-1.895 1.814-4.023 1.814-6.387 0-5.104-2.779-8.549-8.328-10.319 4.225-1.96 6.34-5.053 6.34-9.281a10.15 10.15 0 0 0-.604-3.504 9.95 9.95 0 0 0-1.758-3.023 10.315 10.315 0 0 0-2.65-2.26c-1.176-.714-2.5-1.197-3.98-1.443-1.479-.252-3.229-.38-5.246-.38h-13.688c-1.826 0-3.145.407-3.961 1.225-.816.818-1.229 2.159-1.229 4.024v31.765c0 1.826.4 3.156 1.197 3.99.799.84 2.129 1.254 3.992 1.254h12.914c2.226.002 4.175-.107 5.849-.325m-41.525-12.472c-1.089 2.292-2.546 3.982-4.384 5.074-1.833 1.098-3.85 1.644-6.04 1.644-1.711 0-3.28-.318-4.713-.95-1.431-.635-2.702-1.589-3.806-2.866-1.107-1.281-1.961-2.888-2.563-4.827-.608-1.939-.91-4.115-.91-6.515 0-2.381.302-4.532.91-6.441.604-1.908 1.429-3.481 2.478-4.709s2.295-2.17 3.748-2.813c1.453-.642 3.031-.963 4.742-.963 2.403 0 4.531.578 6.385 1.744 1.854 1.163 3.279 2.878 4.278 5.146.999 2.261 1.499 4.946 1.499 8.039.003 3.338-.54 6.154-1.624 8.437m-19.183-28.664c-2.533 1.01-4.689 2.466-6.459 4.369-1.768 1.905-3.116 4.207-4.047 6.915-.932 2.709-1.397 5.689-1.397 8.938 0 3.169.444 6.119 1.339 8.849.895 2.73 2.215 5.063 3.965 7.005 1.746 1.94 3.932 3.444 6.543 4.512 2.612 1.065 5.574 1.6 8.879 1.6 3.322 0 6.273-.516 8.85-1.555 2.574-1.035 4.742-2.534 6.512-4.492 1.77-1.963 3.094-4.276 3.979-6.949.884-2.673 1.326-5.64 1.326-8.905 0-4.419-.806-8.271-2.422-11.547-1.613-3.276-3.99-5.8-7.132-7.579-3.144-1.779-6.903-2.666-11.284-2.666-3.236-.008-6.12.496-8.652 1.505m-15.336 5.302c.729-.644 1.097-1.492 1.097-2.55 0-1.057-.36-1.909-1.083-2.564-.721-.654-1.816-.981-3.301-.981h-27.213c-1.403 0-2.475.319-3.215.949-.742.634-1.106 1.499-1.106 2.597 0 1.058.354 1.906 1.067 2.55.707.648 1.795.97 3.256.97h9.339v30.695c0 1.746.399 3.058 1.198 3.92.797.864 1.828 1.294 3.099 1.294 1.248 0 2.265-.425 3.056-1.283.788-.854 1.184-2.172 1.184-3.938V92.59h9.34c1.46.004 2.551-.321 3.282-.966"/><path fill="#004996" d="M284.278 189.966H94.902c-15.792 0-21.522-12.872-21.522-21.521V44.149c0-15.79 12.873-21.522 21.522-21.522h189.374c15.793 0 21.521 12.873 21.521 21.522v124.298c.002 15.788-12.873 21.519-21.519 21.519zM94.902 32.466c-1.922.026-11.684.715-11.684 11.684v124.298c.025 1.922.715 11.685 11.684 11.685H284.25c1.98-.031 11.711-.734 11.711-11.685V44.149c-.031-1.924-.717-11.682-11.686-11.682H94.902v-.001z"/></svg>