<svg xmlns="http://www.w3.org/2000/svg" width="478.071" height="284.086" viewBox="-0.311 -35.743 478.071 284.086"><g fill="#347822"><path d="M167.575 79.554h-12.247v40.261c0 2.316-.524 4.041-1.552 5.156-1.033 1.122-2.365 1.688-4.008 1.688-1.664 0-3.019-.565-4.067-1.702-1.045-1.132-1.57-2.851-1.57-5.14V79.554h-12.244c-1.916 0-3.338-.419-4.271-1.263-.932-.847-1.401-1.957-1.401-3.348 0-1.435.484-2.57 1.458-3.399.972-.831 2.377-1.25 4.213-1.25h35.686c1.945 0 3.382.428 4.329 1.287.944.858 1.418 1.979 1.418 3.367 0 1.389-.479 2.502-1.435 3.348-.957.836-2.387 1.258-4.309 1.258zM203.352 69.347c5.748 0 10.682 1.166 14.806 3.496 4.117 2.332 7.237 5.648 9.357 9.943 2.117 4.3 3.175 9.341 3.175 15.139 0 4.288-.582 8.18-1.738 11.684-1.159 3.499-2.898 6.536-5.215 9.106-2.319 2.573-5.17 4.545-8.545 5.901-3.376 1.356-7.25 2.039-11.607 2.039-4.332 0-8.215-.696-11.642-2.095-3.425-1.4-6.289-3.366-8.581-5.916-2.298-2.544-4.027-5.609-5.197-9.189-1.175-3.583-1.757-7.448-1.757-11.61 0-4.257.609-8.163 1.833-11.717 1.223-3.557 2.991-6.58 5.312-9.073 2.314-2.5 5.139-4.411 8.464-5.73 3.321-1.317 7.098-1.978 11.335-1.978zm15.952 28.505c0-4.059-.651-7.568-1.966-10.551-1.308-2.971-3.182-5.22-5.611-6.746-2.43-1.527-5.222-2.291-8.373-2.291-2.247 0-4.313.417-6.217 1.266a13.645 13.645 0 0 0-4.916 3.691c-1.371 1.606-2.458 3.672-3.252 6.182-.791 2.508-1.19 5.323-1.19 8.444 0 3.144.398 5.998 1.19 8.544.795 2.542 1.919 4.658 3.367 6.331 1.447 1.679 3.111 2.931 4.989 3.759 1.876.834 3.942 1.248 6.187 1.248 2.871 0 5.511-.721 7.92-2.155 2.406-1.44 4.316-3.652 5.742-6.66 1.421-2.986 2.13-6.679 2.13-11.062zM263.949 125.715h-16.938c-2.443 0-4.19-.541-5.237-1.641-1.047-1.099-1.573-2.844-1.573-5.239v-41.66c0-2.44.531-4.198 1.604-5.271 1.071-1.073 2.801-1.607 5.196-1.607h17.953c2.651 0 4.94.167 6.883.491 1.948.326 3.681.958 5.216 1.894a13.657 13.657 0 0 1 3.484 2.971 13.05 13.05 0 0 1 2.3 3.965c.534 1.448.793 2.98.793 4.594 0 5.543-2.773 9.6-8.315 12.172 7.279 2.318 10.921 6.83 10.921 13.529 0 3.104-.794 5.89-2.384 8.375-1.592 2.479-3.729 4.313-6.425 5.495-1.694.705-3.63 1.203-5.829 1.492-2.163.291-4.723.44-7.649.44zm-12.508-46.992v14.329h10.281c2.793 0 4.953-.267 6.481-.795 1.526-.528 2.69-1.534 3.492-3.021.633-1.056.945-2.243.945-3.552 0-2.794-.995-4.66-2.984-5.579-1.992-.923-5.027-1.378-9.114-1.378l-9.101-.004zm11.677 22.382h-11.675v16.18h12.061c7.584 0 11.38-2.734 11.38-8.204 0-2.797-.984-4.822-2.948-6.083-1.967-1.265-4.912-1.893-8.818-1.893zM308.331 119.816v-17.579l-13.525-20.981c-1.193-1.891-2.028-3.363-2.523-4.42-.489-1.061-.737-1.978-.737-2.767 0-1.288.5-2.396 1.491-3.328.992-.932 2.221-1.397 3.688-1.397 1.535 0 2.699.434 3.492 1.304.789.873 1.98 2.601 3.575 5.198l10.354 16.823 10.469-16.823c.634-1.032 1.159-1.901 1.591-2.608.433-.705.898-1.364 1.418-1.979.523-.623 1.093-1.093 1.715-1.417.635-.332 1.4-.496 2.308-.496 1.406 0 2.583.459 3.528 1.38.948.917 1.418 1.984 1.418 3.195 0 .985-.242 1.964-.717 2.948-.479.985-1.301 2.342-2.452 4.08l-13.876 21.282v17.584c0 2.295-.534 4.008-1.594 5.139-1.058 1.133-2.412 1.703-4.05 1.703-1.661 0-3.011-.558-4.047-1.689-1.011-1.114-1.526-2.833-1.526-5.152z"/></g><g fill="#347822"><path d="M148.202 155.832v4.698c0 1.139-.283 1.997-.853 2.564-.569.569-1.291.859-2.163.859-.861 0-1.568-.29-2.123-.867-.555-.579-.831-1.43-.831-2.557v-15.671c0-2.53.971-3.796 2.903-3.796.995 0 1.709.295 2.146.89.435.585.674 1.465.721 2.618.711-1.153 1.445-2.028 2.195-2.618.753-.59 1.75-.89 3.008-.89 1.25 0 2.471.295 3.651.89 1.183.59 1.772 1.371 1.772 2.347 0 .691-.25 1.256-.756 1.703-.505.447-1.045.672-1.63.672-.216 0-.75-.127-1.587-.385-.838-.252-1.58-.387-2.221-.387-.873 0-1.585.218-2.139.65-.552.43-.983 1.074-1.291 1.927-.304.858-.52 1.866-.636 3.039-.116 1.178-.166 2.622-.166 4.314zM181.674 153.892h-11.671c.015 1.279.29 2.409.823 3.382.531.972 1.237 1.71 2.12 2.195.88.504 1.854.749 2.917.749a7.63 7.63 0 0 0 1.952-.234 6.5 6.5 0 0 0 1.716-.749c.55-.332 1.062-.696 1.529-1.085a57.915 57.915 0 0 0 1.813-1.567c.305-.25.745-.37 1.312-.37.612 0 1.109.159 1.484.473.377.312.564.765.564 1.346 0 .508-.206 1.106-.635 1.781-.422.684-1.061 1.341-1.911 1.962-.854.625-1.925 1.14-3.215 1.558-1.29.412-2.776.618-4.448.618-3.833 0-6.809-1.028-8.94-3.094-2.131-2.063-3.191-4.858-3.191-8.391 0-1.664.26-3.206.785-4.629.525-1.425 1.291-2.645 2.297-3.66 1.005-1.019 2.247-1.802 3.72-2.341 1.472-.539 3.104-.816 4.895-.816 2.331 0 4.331.465 6.001 1.392 1.666.93 2.917 2.128 3.748 3.602.83 1.477 1.242 2.972 1.242 4.499 0 1.412-.426 2.326-1.289 2.751-.846.415-2.057.628-3.618.628zm-11.671-3.2h10.82c-.148-1.923-.694-3.361-1.65-4.318-.956-.956-2.21-1.432-3.768-1.432-1.486 0-2.708.486-3.663 1.46-.952.961-1.53 2.395-1.739 4.29zM216.655 145.188v16.354c0 1.868-.213 3.479-.637 4.828-.423 1.351-1.104 2.464-2.035 3.341-.932.881-2.153 1.531-3.661 1.957-1.507.418-3.383.64-5.628.64-2.058 0-3.891-.276-5.508-.813-1.621-.543-2.861-1.242-3.74-2.103-.872-.861-1.309-1.738-1.309-2.65 0-.688.247-1.248.747-1.685.495-.431 1.091-.649 1.792-.649.875 0 1.639.36 2.296 1.091.318.368.651.751.999 1.122.34.375.723.697 1.133.971.416.268.915.47 1.498.598.584.131 1.248.191 2.008.191 1.543 0 2.744-.202 3.596-.609.857-.412 1.453-.976 1.795-1.703a6.653 6.653 0 0 0 .602-2.342c.06-.83.098-2.169.13-4.01-.919 1.211-1.979 2.129-3.183 2.766-1.199.634-2.637.95-4.297.95-1.992 0-3.74-.479-5.234-1.448-1.495-.965-2.643-2.305-3.441-4.037-.805-1.729-1.203-3.736-1.203-5.998 0-1.699.244-3.22.733-4.582.487-1.36 1.186-2.509 2.085-3.442a8.924 8.924 0 0 1 3.129-2.114c1.177-.476 2.476-.717 3.888-.717 1.69 0 3.154.307 4.394.918 1.242.617 2.391 1.574 3.455 2.882v-.769c0-.977.256-1.729.769-2.268.511-.531 1.164-.805 1.968-.805 1.146 0 1.916.354 2.293 1.063.374.721.566 1.74.566 3.072zm-17.291 7.131c0 2.283.529 4.008 1.584 5.177 1.055 1.164 2.42 1.75 4.1 1.75.992 0 1.928-.25 2.807-.753.885-.502 1.598-1.258 2.152-2.267.555-1.012.831-2.243.831-3.684 0-2.302-.53-4.082-1.604-5.363-1.067-1.28-2.479-1.918-4.229-1.918-1.703 0-3.068.614-4.091 1.833-1.035 1.237-1.55 2.972-1.55 5.225zM228.838 138.446c-.83 0-1.541-.244-2.13-.72-.591-.484-.886-1.163-.886-2.044 0-.794.297-1.452.904-1.968.604-.521 1.307-.768 2.109-.768.773 0 1.459.231 2.057.7.597.468.896 1.142.896 2.038 0 .869-.291 1.544-.875 2.034-.58.484-1.274.728-2.075.728zm2.951 5.813v16.269c0 1.125-.286 1.979-.854 2.56-.571.577-1.29.866-2.169.866-.873 0-1.584-.296-2.13-.89-.544-.586-.815-1.434-.815-2.539v-16.106c0-1.117.271-1.95.815-2.515.542-.563 1.256-.852 2.13-.852.879 0 1.596.289 2.169.852.567.572.854 1.353.854 2.355zM260.294 156.587c0 1.558-.406 2.889-1.203 3.991-.799 1.108-1.984 1.952-3.552 2.517-1.567.569-3.472.858-5.716.858-2.143 0-3.976-.306-5.508-.93-1.529-.618-2.662-1.387-3.386-2.316-.731-.921-1.094-1.856-1.094-2.789 0-.62.235-1.146.698-1.589.471-.438 1.06-.656 1.773-.656.627 0 1.114.144 1.439.43.339.292.656.694.967 1.219.614 1.006 1.349 1.754 2.193 2.25.861.492 2.016.742 3.483.742 1.198 0 2.179-.25 2.935-.752.769-.504 1.148-1.076 1.148-1.719 0-.991-.4-1.711-1.195-2.167-.791-.453-2.102-.89-3.923-1.3-2.058-.478-3.724-.988-5.022-1.517-1.291-.527-2.313-1.229-3.095-2.085-.766-.869-1.157-1.936-1.157-3.196 0-1.124.359-2.19 1.072-3.194.715-1.005 1.762-1.813 3.158-2.411 1.391-.599 3.068-.888 5.032-.888 1.544 0 2.933.148 4.164.447 1.238.303 2.263.707 3.086 1.219.817.511 1.448 1.076 1.872 1.695.433.619.651 1.225.651 1.815 0 .649-.227 1.175-.685 1.593-.463.415-1.121.618-1.96.618-.614 0-1.125-.164-1.563-.495-.43-.328-.921-.822-1.476-1.48a5.488 5.488 0 0 0-1.594-1.321c-.611-.329-1.445-.493-2.492-.493-1.078 0-1.971.212-2.688.649-.716.425-1.068.969-1.068 1.613 0 .59.258 1.074.785 1.458.523.379 1.229.689 2.117.936.888.251 2.109.549 3.674.906 1.844.424 3.361.936 4.539 1.524 1.172.591 2.068 1.292 2.667 2.094.626.779.924 1.696.924 2.724zM268.805 141.562h.651v-3.382c0-.907.028-1.618.08-2.134.053-.522.186-.958.417-1.331a2.608 2.608 0 0 1 1.007-.936c.428-.246.923-.361 1.47-.361.759 0 1.438.265 2.058.804a2.3 2.3 0 0 1 .767 1.305c.109.521.172 1.246.172 2.195v3.837h2.188c.85 0 1.49.184 1.938.563.44.383.664.863.664 1.459 0 .756-.32 1.285-.953 1.588-.637.304-1.541.453-2.721.453h-1.115v10.35c0 .884.026 1.559.093 2.031.063.475.241.86.527 1.157.284.296.746.435 1.386.435.346 0 .817-.06 1.419-.178.599-.121 1.065-.179 1.396-.179.482 0 .914.183 1.303.548.388.361.582.814.582 1.354 0 .908-.527 1.602-1.58 2.083-1.049.481-2.557.722-4.527.722-1.86 0-3.275-.297-4.238-.889-.963-.588-1.592-1.408-1.891-2.455-.299-1.042-.45-2.44-.45-4.189v-10.806h-.778c-.861 0-1.514-.188-1.964-.581a1.841 1.841 0 0 1-.677-1.465c0-.587.236-1.076.711-1.457.476-.356 1.164-.541 2.065-.541zM304.11 153.892h-11.667c.016 1.279.289 2.409.82 3.382.53.972 1.239 1.71 2.114 2.195.891.504 1.854.749 2.917.749.714 0 1.364-.078 1.956-.234a6.413 6.413 0 0 0 1.711-.749 12.032 12.032 0 0 0 1.528-1.085 56.655 56.655 0 0 0 1.819-1.567c.306-.25.746-.37 1.309-.37.617 0 1.111.159 1.481.473.383.312.565.765.565 1.346 0 .508-.209 1.106-.633 1.781-.42.684-1.058 1.341-1.917 1.962-.858.622-1.93 1.14-3.216 1.558-1.287.412-2.773.618-4.443.618-3.836 0-6.807-1.028-8.937-3.094-2.128-2.063-3.193-4.858-3.193-8.391 0-1.664.26-3.206.789-4.629.521-1.423 1.284-2.645 2.295-3.66 1.005-1.019 2.244-1.802 3.721-2.341s3.106-.816 4.898-.816c2.333 0 4.331.465 6.003 1.392 1.666.93 2.911 2.128 3.742 3.602.825 1.477 1.243 2.972 1.243 4.499 0 1.412-.427 2.326-1.293 2.751-.839.415-2.048.628-3.612.628zm-11.667-3.2h10.813c-.146-1.923-.696-3.361-1.649-4.318-.956-.956-2.206-1.432-3.769-1.432-1.484 0-2.705.486-3.664 1.46-.95.961-1.525 2.395-1.731 4.29zM323.071 155.832v4.698c0 1.139-.289 1.997-.852 2.564-.572.569-1.289.859-2.17.859-.861 0-1.571-.29-2.119-.867-.553-.579-.831-1.43-.831-2.557v-15.671c0-2.53.972-3.796 2.901-3.796.997 0 1.711.295 2.142.89.438.59.681 1.465.727 2.618.714-1.153 1.445-2.028 2.191-2.618.747-.594 1.751-.89 3.013-.89 1.248 0 2.467.295 3.641.89 1.186.585 1.77 1.371 1.77 2.347 0 .691-.251 1.256-.751 1.703-.508.447-1.044.672-1.628.672-.219 0-.748-.127-1.586-.385-.841-.252-1.58-.387-2.221-.387-.873 0-1.589.218-2.139.65-.552.43-.989 1.074-1.29 1.927-.306.858-.524 1.866-.64 3.039-.104 1.186-.158 2.622-.158 4.314z"/></g><g fill="#347822"><path d="M177.75 53.699c0 .696-.224 1.452-.67 2.243-.447.796-1.131 1.56-2.056 2.281-.917.722-2.077 1.301-3.475 1.737-1.397.441-2.971.657-4.721.657-3.724 0-6.628-1.005-8.719-3.039-2.085-2.028-3.131-4.746-3.131-8.155 0-2.306.476-4.351 1.435-6.122.956-1.771 2.338-3.141 4.147-4.112 1.807-.969 3.972-1.458 6.487-1.458 1.557 0 2.989.215 4.292.644 1.301.429 2.407.975 3.305 1.649.906.669 1.597 1.39 2.075 2.155.476.768.719 1.477.719 2.135 0 .674-.271 1.247-.806 1.711-.532.467-1.189.697-1.95.697-.505 0-.916-.118-1.247-.362-.333-.237-.706-.631-1.118-1.161-.74-1.047-1.505-1.83-2.305-2.354-.802-.524-1.82-.781-3.058-.781-1.778 0-3.213.649-4.302 1.951-1.089 1.293-1.634 3.071-1.634 5.329 0 1.059.139 2.028.415 2.915.281.888.685 1.64 1.215 2.27a5.207 5.207 0 0 0 1.918 1.424 6.265 6.265 0 0 0 2.472.485c1.206 0 2.24-.264 3.102-.784.86-.528 1.623-1.321 2.284-2.392.37-.633.769-1.125 1.193-1.482.427-.355.951-.534 1.568-.534.734 0 1.347.262 1.832.784.488.521.733 1.075.733 1.669zM206.413 49.222c0 1.674-.28 3.223-.839 4.638-.559 1.419-1.361 2.635-2.421 3.651-1.063 1.012-2.326 1.797-3.802 2.341-1.471.542-3.127.814-4.966.814-1.825 0-3.464-.28-4.917-.824a11.01 11.01 0 0 1-3.784-2.365 10.055 10.055 0 0 1-2.427-3.625c-.554-1.394-.825-2.939-.825-4.629 0-1.707.279-3.266.839-4.679.558-1.417 1.361-2.628 2.406-3.628 1.042-1.002 2.307-1.77 3.796-2.318 1.482-.538 3.127-.811 4.918-.811 1.825 0 3.479.275 4.964.826 1.483.549 2.76 1.334 3.819 2.353a10.065 10.065 0 0 1 2.418 3.628c.543 1.394.821 2.939.821 4.628zm-6.047 0c0-2.3-.541-4.085-1.621-5.366-1.08-1.278-2.532-1.917-4.359-1.917-1.174 0-2.211.287-3.111.856-.898.57-1.59 1.417-2.072 2.529-.485 1.117-.729 2.415-.729 3.9 0 1.472.24 2.754.718 3.853.475 1.1 1.163 1.944 2.055 2.528.888.585 1.938.879 3.139.879 1.825 0 3.278-.645 4.358-1.926 1.078-1.287 1.622-3.064 1.622-5.336zM234.605 49.222c0 1.674-.278 3.223-.836 4.638a10.125 10.125 0 0 1-2.427 3.651c-1.06 1.012-2.319 1.797-3.791 2.341-1.473.542-3.127.814-4.965.814-1.825 0-3.464-.28-4.921-.824a11.066 11.066 0 0 1-3.784-2.365 10.137 10.137 0 0 1-2.424-3.625c-.548-1.394-.826-2.939-.826-4.629 0-1.707.281-3.266.838-4.679.559-1.417 1.359-2.628 2.404-3.628 1.047-1.002 2.311-1.77 3.796-2.318 1.487-.538 3.131-.811 4.92-.811 1.827 0 3.48.275 4.966.826 1.484.549 2.757 1.334 3.813 2.353a10.192 10.192 0 0 1 2.422 3.628c.542 1.394.815 2.939.815 4.628zm-6.045 0c0-2.3-.54-4.085-1.62-5.366-1.082-1.276-2.534-1.917-4.358-1.917-1.176 0-2.215.287-3.113.856-.899.57-1.588 1.417-2.073 2.529-.482 1.117-.727 2.415-.727 3.9 0 1.472.238 2.754.716 3.853.475 1.1 1.164 1.944 2.052 2.528.891.585 1.943.879 3.143.879 1.827 0 3.277-.645 4.357-1.926 1.083-1.287 1.623-3.064 1.623-5.336zM240.254 57.24V32.827c0-1.123.27-1.978.806-2.553.533-.583 1.254-.87 2.175-.87.919 0 1.646.289 2.203.856.555.571.841 1.425.841 2.566v24.415c0 1.139-.286 1.999-.853 2.568-.565.561-1.3.854-2.194.854-.888 0-1.591-.296-2.153-.887-.552-.593-.825-1.432-.825-2.536zM256.446 35.158c-.841 0-1.558-.24-2.151-.723-.594-.476-.893-1.157-.893-2.04 0-.8.305-1.458.916-1.968a3.191 3.191 0 0 1 2.128-.775c.781 0 1.474.236 2.069.703.603.469.903 1.146.903 2.044 0 .865-.296 1.537-.886 2.028-.575.485-1.274.731-2.086.731zm2.981 5.817V57.24c0 1.125-.291 1.982-.861 2.555-.576.579-1.303.874-2.188.874-.886 0-1.594-.296-2.151-.887-.555-.594-.828-1.435-.828-2.54V41.137c0-1.117.282-1.95.828-2.52.55-.563 1.266-.844 2.151-.844.888 0 1.611.28 2.188.844.575.57.861 1.358.861 2.358zM272.024 40.894v.677c1.06-1.305 2.216-2.264 3.477-2.877 1.254-.61 2.699-.916 4.333-.916 1.59 0 3.014.321 4.257.969 1.249.65 2.187 1.56 2.804 2.742.398.689.65 1.431.766 2.229.119.796.18 1.819.18 3.054v10.472c0 1.125-.281 1.982-.828 2.555-.55.58-1.266.874-2.156.874s-1.62-.294-2.186-.887c-.567-.594-.838-1.435-.838-2.541v-9.387c0-1.853-.279-3.27-.828-4.256-.553-.984-1.651-1.476-3.301-1.476a5.085 5.085 0 0 0-2.929.892c-.883.599-1.534 1.423-1.945 2.467-.298.834-.442 2.41-.442 4.7v7.051c0 1.143-.284 1.998-.854 2.565-.563.571-1.298.861-2.193.861-.867 0-1.585-.296-2.14-.888-.555-.592-.841-1.435-.841-2.54V40.965c0-1.071.251-1.873.754-2.403.502-.533 1.186-.792 2.057-.792.534 0 1.003.115 1.436.351a2.56 2.56 0 0 1 1.021 1.052c.268.473.396 1.048.396 1.721zM316.901 41.902v16.352c0 1.871-.213 3.481-.648 4.823-.419 1.354-1.111 2.463-2.052 3.346-.942.881-2.18 1.533-3.695 1.957-1.526.423-3.417.638-5.685.638-2.07 0-3.936-.272-5.563-.811-1.628-.54-2.896-1.243-3.773-2.103-.886-.859-1.326-1.737-1.326-2.653 0-.681.256-1.246.756-1.681.502-.43 1.104-.649 1.81-.649.886 0 1.659.359 2.312 1.088.317.372.65.75 1.006 1.125.35.38.729.699 1.145.972.418.266.918.466 1.508.598.588.126 1.262.188 2.03.188 1.56 0 2.769-.2 3.629-.607.863-.408 1.47-.972 1.813-1.703a6.663 6.663 0 0 0 .604-2.339c.06-.831.102-2.174.134-4.013-.922 1.211-1.994 2.131-3.208 2.765-1.214.639-2.661.95-4.336.95-2.017 0-3.773-.482-5.284-1.445-1.5-.964-2.661-2.305-3.473-4.042-.814-1.738-1.213-3.734-1.213-6 0-1.691.247-3.217.736-4.579.492-1.359 1.195-2.509 2.112-3.443a8.976 8.976 0 0 1 3.148-2.115c1.192-.471 2.503-.708 3.929-.708 1.708 0 3.186.305 4.432.917 1.246.612 2.416 1.573 3.48 2.88v-.766c0-.979.253-1.73.769-2.27.52-.533 1.175-.802 1.987-.802 1.156 0 1.932.353 2.31 1.061.413.718.606 1.739.606 3.069zm-17.455 7.133c0 2.291.529 4.009 1.596 5.178 1.063 1.169 2.439 1.751 4.139 1.751 1.002 0 1.945-.25 2.833-.752.888-.507 1.614-1.257 2.177-2.271.561-1.007.842-2.236.842-3.682 0-2.297-.539-4.076-1.625-5.364-1.084-1.276-2.506-1.917-4.269-1.917-1.716 0-3.102.615-4.141 1.831-1.032 1.232-1.552 2.973-1.552 5.226z"/></g><path fill="#EBF0E6" d="M7.917-35.433S0-35.433 0-27.516v50.852s0 7.917 7.917 7.917H54.19s7.917 0 7.917-7.917v-50.852s0-7.917-7.917-7.917H7.917z"/><path fill="none" stroke="#EBF0E6" stroke-width=".621" d="M7.917-35.433S0-35.433 0-27.516v50.852s0 7.917 7.917 7.917H54.19s7.917 0 7.917-7.917v-50.852s0-7.917-7.917-7.917H7.917z"/><path fill="#A4BC8F" d="M94.313-35.433s-7.917 0-7.917 7.917v50.852s0 7.917 7.917 7.917h46.276s7.917 0 7.917-7.917v-50.852s0-7.917-7.917-7.917H94.313z"/><path fill="none" stroke="#A4BC8F" stroke-width=".621" d="M94.313-35.433s-7.917 0-7.917 7.917v50.852s0 7.917 7.917 7.917h46.276s7.917 0 7.917-7.917v-50.852s0-7.917-7.917-7.917H94.313z"/><path fill="#CBD9C0" d="M180.35-35.433s-7.915 0-7.915 7.917v50.852s0 7.917 7.915 7.917h46.272s7.918 0 7.918-7.917v-50.852s0-7.917-7.918-7.917H180.35z"/><path fill="none" stroke="#CBD9C0" stroke-width=".621" d="M180.35-35.433s-7.915 0-7.915 7.917v50.852s0 7.917 7.915 7.917h46.272s7.918 0 7.918-7.917v-50.852s0-7.917-7.918-7.917H180.35z"/><path fill="#EBF0E6" d="M266.748-35.433s-7.922 0-7.922 7.917v50.852s0 7.917 7.922 7.917h46.273s7.919 0 7.919-7.917v-50.852s0-7.917-7.919-7.917h-46.273z"/><path fill="none" stroke="#EBF0E6" stroke-width=".621" d="M266.748-35.433s-7.922 0-7.922 7.917v50.852s0 7.917 7.922 7.917h46.273s7.919 0 7.919-7.917v-50.852s0-7.917-7.919-7.917h-46.273z"/><g fill="#347822"><path d="M4.921-4.779v-14.537c0-1.241.281-2.17.833-2.784.559-.621 1.29-.927 2.197-.927.947 0 1.702.306 2.257.927.556.617.838 1.548.838 2.784v14.863c0 1.694.191 3.109.566 4.237.377 1.132 1.049 2.013 2.01 2.642.962.631 2.305.941 4.043.941 2.392 0 4.082-.642 5.075-1.914.989-1.264 1.482-3.195 1.482-5.787v-14.983c0-1.25.275-2.185.824-2.792.551-.616 1.284-.922 2.207-.922.921 0 1.667.306 2.236.918.57.61.855 1.54.855 2.793v14.533c0 2.362-.229 4.338-.689 5.917-.461 1.584-1.332 2.972-2.606 4.168a10.17 10.17 0 0 1-3.839 2.223c-1.458.472-3.161.706-5.113.706-2.324 0-4.323-.25-6.001-.758-1.678-.5-3.044-1.271-4.102-2.323-1.06-1.052-1.831-2.402-2.328-4.041-.498-1.641-.745-3.604-.745-5.884zM41.479-19.315v10.594L53.5-21.256c.576-.604 1.07-1.052 1.475-1.34.408-.294.944-.43 1.619-.43.881 0 1.594.26 2.135.768.542.519.816 1.141.816 1.888 0 .89-.463 1.783-1.383 2.66l-7.441 7.054L59.3 1.63c.604.856 1.06 1.596 1.359 2.236.299.64.453 1.26.453 1.864 0 .672-.264 1.252-.795 1.756-.529.491-1.244.743-2.153.743-.851 0-1.545-.183-2.08-.547-.533-.362-.989-.849-1.358-1.456s-.703-1.154-.996-1.652L46.492-6.561l-5.012 4.8v6.249c0 1.263-.29 2.201-.866 2.813-.576.613-1.322.92-2.226.92a2.942 2.942 0 0 1-1.505-.418 2.884 2.884 0 0 1-1.116-1.113c-.19-.382-.307-.83-.352-1.344-.043-.51-.059-1.243-.059-2.205v-22.468c0-1.243.272-2.167.813-2.78.539-.62 1.281-.927 2.216-.927.918 0 1.667.307 2.236.919.572.615.858 1.548.858 2.8z"/></g><path fill="none" stroke="#EBF0E6" stroke-width=".621" d="M164.431 181.348s-7.919 0-7.919 7.917v50.85s0 7.918 7.919 7.918h46.274s7.917 0 7.917-7.918v-50.85s0-7.917-7.917-7.917h-46.274z"/><path fill="none" stroke="#A4BC8F" stroke-width=".621" d="M250.824 181.348s-7.918 0-8.418 7.898l-3.188 50.883s-.495 7.9 7.424 7.9h50.453s7.924 0 7.924-7.916v-50.852s0-7.917-7.924-7.917l-46.271.004h0z"/><path fill="none" stroke="#CBD9C0" stroke-width=".621" d="M336.865 181.348s-7.917 0-7.917 7.917v50.85s0 7.918 7.917 7.918h46.281s7.916 0 7.916-7.918v-50.85s0-7.917-7.916-7.917h-46.281z"/><g><path fill="#EBF0E6" d="M164.431 181.348s-7.919 0-7.919 7.917v50.85s0 7.918 7.919 7.918h46.274s7.917 0 7.917-7.918v-50.85s0-7.917-7.917-7.917h-46.274z"/><path fill="#A4BC8F" d="M250.824 181.348s-7.918 0-8.418 7.898l-3.188 50.883s-.495 7.9 7.424 7.9h50.453s7.924 0 7.924-7.916v-50.852s0-7.917-7.924-7.917l-46.271.004z"/><path fill="#CBD9C0" d="M336.865 181.348s-7.917 0-7.917 7.917v50.85s0 7.918 7.917 7.918h46.281s7.916 0 7.916-7.918v-50.85s0-7.917-7.916-7.917h-46.281z"/><path fill="#EBF0E6" d="M423.257 181.348s-7.914 0-7.914 7.917v50.85s0 7.918 7.914 7.918h46.275s7.917 0 7.917-7.918v-50.85s0-7.917-7.917-7.917h-46.275z"/></g><path fill="none" stroke="#EBF0E6" stroke-width=".621" d="M423.257 181.348s-7.914 0-7.914 7.917v50.85s0 7.918 7.914 7.918h46.275s7.917 0 7.917-7.918v-50.85s0-7.917-7.917-7.917h-46.275z"/><g><path fill="#347822" d="M329.034 212.928H143.932c-24.044 0-35.537-12.88-40.932-23.687-5.628-11.25-5.695-22.469-5.695-22.94V47.617c0-24.044 12.88-35.529 23.688-40.931C132.245 1.06 143.464.992 143.933.992h185.109c24.038 0 35.527 12.879 40.929 23.683 5.629 11.257 5.693 22.471 5.693 22.941v118.686c0 24.039-12.88 35.532-23.681 40.932-11.262 5.629-22.483 5.694-22.949 5.694zM143.932 15.064c-.062 0-8.73.116-17.028 4.396-10.446 5.385-15.524 14.599-15.524 28.155v118.686c0 .059.12 8.729 4.401 17.03 5.383 10.45 14.592 15.526 28.151 15.526h185.084c.289-.005 8.841-.176 17.052-4.402 10.45-5.382 15.525-14.592 15.525-28.153V47.618c0-.059-.117-8.728-4.4-17.028-5.389-10.449-14.594-15.526-28.156-15.526H143.932z"/></g></svg>