<svg xmlns="http://www.w3.org/2000/svg" width="370.89" height="213.707" viewBox="0 0 370.89 213.707"><radialGradient id="a" cx="119.359" cy="964.909" r="85.617" gradientTransform="translate(-119.714 -2289.056) scale(2.4844)" gradientUnits="userSpaceOnUse"><stop offset=".176" stop-color="#f3f7ec"/><stop offset=".313" stop-color="#eff4e5"/><stop offset=".536" stop-color="#e3ecd1"/><stop offset=".819" stop-color="#cfe0b0"/><stop offset="1" stop-color="#c0d697"/></radialGradient><path fill="url(#a)" stroke="#74AF27" stroke-width="2.215" d="M54.693 33.123C19.428 52.908 0 79.422 0 107.783c0 28.354 19.425 54.871 54.693 74.651 34.683 19.457 80.724 30.164 129.646 30.164 48.92 0 94.961-10.703 129.641-30.164 35.27-19.789 54.693-46.298 54.693-74.651 0-28.36-19.426-54.877-54.693-74.658-34.684-19.454-80.725-30.164-129.641-30.164-48.922-.003-94.96 10.711-129.646 30.162"/><path fill="#C0D697" d="M149.424 192.21a.775.775 0 0 1-.55-.229.778.778 0 0 1-.018-1.085l96.875-103.064-64.161-70.374a.786.786 0 0 1 .022-1.079.793.793 0 0 1 .553-.228.77.77 0 0 1 .525.206l70.368 64.16L338.77.988a.778.778 0 0 1 1.101 1.099l-79.52 85.743 60.041 66.248a.78.78 0 0 1-.021 1.076.788.788 0 0 1-1.082.022l-66.25-60.045L149.953 192a.79.79 0 0 1-.529.21z"/><path fill="#FFF" d="M339.298 1.558l-79.637 85.869-.373.395.361.399 60.17 66.392-66.387-60.175-.4-.36-.396.369-103.213 96.985 96.998-103.201.371-.396-.367-.399-64.281-70.506 70.5 64.28.398.365.4-.373 85.856-79.644m0-1.558c-.379 0-.76.136-1.059.414l-85.205 79.041-69.838-63.675a1.559 1.559 0 0 0-1.052-.404 1.555 1.555 0 0 0-1.151 2.608l63.68 69.843-96.383 102.539a1.562 1.562 0 0 0 1.136 2.629c.382 0 .767-.137 1.067-.424L253.054 96.2l65.717 59.567a1.562 1.562 0 0 0 2.151-.053 1.558 1.558 0 0 0 .045-2.152l-59.563-65.72 79.035-85.22a1.555 1.555 0 0 0-.041-2.162 1.543 1.543 0 0 0-1.1-.46z"/><g fill="#74AF27" stroke="#FFF" stroke-width="1.108"><path d="M68.721 127.988c-3.198 0-6.072-.31-8.63-.934-2.557-.617-4.811-1.52-6.758-2.695-1.947-1.171-3.606-2.6-4.978-4.29-1.369-1.69-2.463-3.599-3.287-5.729-.667-1.708-1.148-3.592-1.439-5.662-.289-2.07-.433-4.385-.433-6.939v-35.98h11.185v34.971c0 4.322.517 7.702 1.549 10.139 1.157 2.707 2.847 4.664 5.066 5.867 2.222 1.2 4.838 1.807 7.854 1.807 3.015 0 5.63-.598 7.854-1.807 2.222-1.197 3.91-3.154 5.065-5.867 1.033-2.438 1.55-5.813 1.55-10.139V65.759h11.186v35.979c0 2.555-.145 4.871-.434 6.939-.289 2.072-.77 3.956-1.438 5.662-.823 2.13-1.928 4.039-3.313 5.729s-3.074 3.119-5.068 4.29c-1.994 1.178-4.284 2.078-6.871 2.695-2.574.62-5.466.935-8.66.935zM108.894 126.846V65.759h11.186v27.806h.181l23.062-27.805h13.881l-25.48 30.271 27.576 30.818h-14.34l-24.698-27.578h-.181v27.578h-11.188v-.003h.001zM199.792 94.158c4.385 6.242 7.943 11.78 10.684 16.616h.273c-.363-7.94-.545-13.723-.545-17.343V65.757h11.184v61.085h-11.73L189.75 98.716c-3.5-4.864-7.121-10.512-10.863-16.938h-.271c.363 7.487.549 13.285.549 17.4v27.667h-11.186v-61.09h11.734l20.079 28.403zM257.408 119.266c2.104 0 4.291-.213 6.576-.64a51.812 51.812 0 0 0 6.938-1.82v8.626c-1.396.61-3.545 1.188-6.434 1.733-2.893.55-5.893.824-8.992.824-3.137 0-6.109-.401-8.926-1.209-2.814-.81-5.271-2.103-7.377-3.906-2.096-1.793-3.766-4.118-4.996-6.983-1.234-2.86-1.854-6.33-1.854-10.409 0-4.02.576-7.533 1.734-10.546 1.154-3.013 2.707-5.508 4.656-7.485 1.945-1.982 4.176-3.463 6.688-4.453a21.065 21.065 0 0 1 7.783-1.481c2.797 0 5.379.425 7.744 1.278a15.485 15.485 0 0 1 6.115 4.02c1.723 1.826 3.057 4.176 4.02 7.053.955 2.875 1.438 6.277 1.438 10.205a103.706 103.706 0 0 1-.137 3.881H243.39c.154 2.037.611 3.776 1.373 5.226.758 1.451 1.762 2.622 2.994 3.517 1.23.898 2.668 1.551 4.309 1.961 1.644.405 3.428.608 5.342.608zm-4.336-29.309c-1.369 0-2.59.25-3.652.752a8.588 8.588 0 0 0-2.76 2.058c-.781.867-1.396 1.881-1.852 3.036a14.975 14.975 0 0 0-.918 3.695h17.396c0-1.306-.174-2.539-.527-3.695-.348-1.157-.863-2.168-1.551-3.036a7.434 7.434 0 0 0-2.557-2.058c-1.013-.502-2.21-.752-3.579-.752zM313.978 109.313c0-1.551-.383-2.807-1.143-3.765-.758-.956-1.795-1.739-3.102-2.35-1.314-.61-2.779-1.104-4.404-1.482a173.057 173.057 0 0 0-5.139-1.116 67 67 0 0 1-6.803-1.847c-2.16-.715-4.064-1.708-5.711-2.967-1.639-1.263-2.951-2.867-3.926-4.817-.971-1.947-1.461-4.382-1.461-7.306 0-3.228.564-6.035 1.689-8.424 1.125-2.388 2.656-4.369 4.592-5.939 1.93-1.563 4.197-2.733 6.801-3.514 2.602-.774 5.529-1.164 8.787-1.164 3.256 0 6.529.316 9.814.959 3.289.64 6.115 1.463 8.484 2.463v9.591c-3.162-1.25-6.197-2.155-9.1-2.715-2.912-.565-5.643-.843-8.197-.843-3.676 0-6.518.668-8.512 2.004-1.994 1.343-2.99 3.347-2.99 6.026 0 1.55.326 2.83.98 3.835.66 1.008 1.547 1.833 2.67 2.487 1.129.66 2.424 1.183 3.883 1.578s3.014.759 4.654 1.099a90.44 90.44 0 0 1 7.418 1.895c2.355.716 4.453 1.712 6.279 2.99 1.824 1.28 3.271 2.944 4.334 5 1.066 2.059 1.6 4.681 1.6 7.879 0 3.283-.605 6.133-1.822 8.537-1.217 2.406-2.945 4.388-5.184 5.961-2.24 1.563-4.951 2.73-8.15 3.492-3.195.762-6.691 1.143-10.498 1.143-3.322 0-6.582-.327-9.793-.98-3.211-.656-5.885-1.578-8.016-2.767v-9.455c3.012 1.308 5.951 2.261 8.814 2.854 2.863.592 5.811.894 8.855.894 1.764 0 3.498-.144 5.207-.437 1.705-.287 3.232-.781 4.588-1.479 1.355-.701 2.439-1.652 3.26-2.856.832-1.211 1.242-2.695 1.242-4.464z"/></g><g><path d="M52.828 157.501h-1.614v-11.783h-4.422v-1.454h10.454v1.454h-4.42l.002 11.783zM60.761 149.392h.03c.171-.223.361-.419.574-.605.211-.191.444-.351.704-.486a3.776 3.776 0 0 1 1.792-.439c.355 0 .71.045 1.067.141.355.096.685.268.986.511.304.243.551.578.742 1.019.194.437.287 1.002.287 1.688v6.286h-1.535v-6.042c0-.76-.142-1.329-.431-1.713-.288-.39-.754-.576-1.41-.576-.54 0-1.054.145-1.543.438-.487.299-.91.697-1.267 1.208v6.679h-1.535v-14.32h1.535v6.217l.004-.006zM74.373 156.416c.506 0 .972-.045 1.388-.123a8.541 8.541 0 0 0 1.253-.354v1.276c-.336.171-.753.298-1.249.393a8.34 8.34 0 0 1-1.593.145 6.703 6.703 0 0 1-1.896-.262c-.587-.17-1.099-.449-1.533-.83s-.768-.881-1.012-1.496c-.244-.617-.367-1.364-.367-2.229 0-.858.119-1.61.355-2.235.236-.627.553-1.156.946-1.578a3.843 3.843 0 0 1 1.36-.949 4.124 4.124 0 0 1 1.61-.313c.526 0 1.019.087 1.475.263a2.92 2.92 0 0 1 1.188.832c.333.375.602.853.793 1.451.191.596.291 1.309.291 2.139v.203c0 .055-.002.183-.012.385h-6.49c0 .595.092 1.105.272 1.525.181.422.427.756.742 1.019.312.257.68.448 1.103.575.428.1.889.163 1.376.163zm-.808-7.245c-.353 0-.681.07-.987.214a2.45 2.45 0 0 0-.795.565 2.807 2.807 0 0 0-.551.836 3.42 3.42 0 0 0-.26 1.024h4.809c0-.375-.048-.718-.146-1.036a2.571 2.571 0 0 0-.425-.835 2.008 2.008 0 0 0-.693-.563 2.117 2.117 0 0 0-.952-.205zM91.041 151.647a112.462 112.462 0 0 1 2.402 3.599h.059a59.115 59.115 0 0 1-.129-3.941v-7.043h1.625v13.236h-1.614l-5.193-7.379a94.219 94.219 0 0 1-2.403-3.604h-.059c.087 1.211.131 2.615.131 4.227v6.756h-1.615v-13.234h1.604l5.192 7.383zM103.652 156.462h-.041a3.251 3.251 0 0 1-1.14.888c-.25.123-.524.22-.821.295a3.972 3.972 0 0 1-.949.106c-.453 0-.873-.064-1.25-.202a2.678 2.678 0 0 1-.98-.595 2.716 2.716 0 0 1-.639-.948 3.458 3.458 0 0 1-.227-1.28c0-.471.086-.885.254-1.255.168-.372.401-.685.707-.937a3.118 3.118 0 0 1 1.092-.594 4.652 4.652 0 0 1 1.41-.208c.487.009.938.048 1.354.132.415.076.786.178 1.106.299h.041v-.658c0-.25-.018-.482-.049-.678a1.762 1.762 0 0 0-.168-.527c-.172-.315-.443-.576-.822-.784-.375-.208-.883-.31-1.522-.31-.476 0-.923.043-1.339.133-.42.091-.836.217-1.25.374v-1.284c.158-.082.347-.156.56-.223a5.22 5.22 0 0 1 .679-.178 8.2 8.2 0 0 1 .752-.117c.265-.026.527-.041.791-.041.949 0 1.727.168 2.33.506.603.332 1.035.777 1.299 1.334.101.216.172.439.215.697.045.252.066.531.066.842v6.269h-1.285l-.174-1.056zm-.076-3.084a10.15 10.15 0 0 0-1.004-.227 7.192 7.192 0 0 0-1.281-.117c-.652 0-1.158.133-1.528.41-.366.277-.552.698-.552 1.278 0 .291.046.54.137.757.089.221.219.399.376.54.164.14.353.249.572.315.222.063.454.104.704.104.328 0 .633-.046.916-.139a4.115 4.115 0 0 0 1.315-.742c.156-.134.266-.234.34-.311l.005-1.868zM113.033 157.522a2.86 2.86 0 0 1-.604.144c-.271.05-.594.074-.969.084-.494 0-.926-.063-1.284-.183s-.666-.301-.906-.528a2.08 2.08 0 0 1-.536-.825 3.048 3.048 0 0 1-.178-1.076v-5.716h-1.811v-1.317h1.811v-2.569h1.535v2.569h2.804v1.317h-2.81v5.479c0 .223.033.419.093.604.063.187.164.349.298.481.135.136.309.241.52.319.209.074.463.109.761.109.204 0 .419-.015.647-.049.228-.035.44-.07.629-.125v1.282zM115.169 145.917v-1.713h1.531v1.713h-1.531zm.038 11.584v-9.4h1.535v9.4h-1.535zM128.186 152.812c0 .743-.106 1.413-.317 2.02a4.444 4.444 0 0 1-.893 1.555 3.984 3.984 0 0 1-1.4 1.01c-.547.23-1.16.354-1.84.354-.701 0-1.324-.121-1.873-.354a3.975 3.975 0 0 1-1.404-1.01 4.394 4.394 0 0 1-.887-1.555c-.205-.605-.307-1.28-.307-2.02 0-.745.105-1.42.316-2.025a4.586 4.586 0 0 1 .896-1.562 4.034 4.034 0 0 1 1.405-1.013 4.708 4.708 0 0 1 1.845-.354c.692 0 1.315.118 1.869.354a3.842 3.842 0 0 1 1.405 1.013c.382.437.676.956.88 1.562.204.606.305 1.285.305 2.025zm-1.601 0c0-.574-.07-1.096-.213-1.55a3.338 3.338 0 0 0-.594-1.142 2.481 2.481 0 0 0-.906-.715 2.691 2.691 0 0 0-1.147-.24c-.415 0-.797.078-1.146.24a2.46 2.46 0 0 0-.906.715 3.395 3.395 0 0 0-.594 1.142c-.141.454-.213.972-.213 1.55s.071 1.092.213 1.54c.142.453.344.84.601 1.146.255.308.56.545.91.703.349.162.731.241 1.146.241a2.66 2.66 0 0 0 1.143-.241c.349-.158.648-.398.9-.703.256-.31.451-.689.594-1.146.14-.452.212-.961.212-1.54zM132.094 149.41h.032c.171-.221.361-.418.566-.606.211-.19.44-.356.699-.493a3.47 3.47 0 0 1 .846-.328 3.896 3.896 0 0 1 1.004-.117c.43 0 .832.053 1.209.174.375.123.703.311.978.576.276.267.496.609.659 1.031.158.426.242.945.242 1.567v6.29h-1.532v-6.043c0-.811-.158-1.396-.47-1.752-.313-.356-.77-.534-1.369-.534-.527 0-1.041.147-1.535.438-.496.297-.92.697-1.278 1.213v6.678h-1.532v-9.401h1.188l.293 1.307zM146.794 156.462h-.039a3.279 3.279 0 0 1-1.141.888c-.25.123-.524.22-.82.295a3.963 3.963 0 0 1-.948.106 3.65 3.65 0 0 1-1.252-.202 2.67 2.67 0 0 1-1.617-1.543 3.418 3.418 0 0 1-.225-1.28c0-.471.085-.885.25-1.255.17-.372.404-.685.707-.937a3.11 3.11 0 0 1 1.094-.594 4.643 4.643 0 0 1 1.408-.208 7.616 7.616 0 0 1 2.463.431h.04v-.658c0-.25-.018-.482-.049-.678a1.791 1.791 0 0 0-.168-.527c-.174-.315-.442-.576-.823-.784-.374-.208-.882-.31-1.521-.31-.476 0-.923.043-1.342.133a8.905 8.905 0 0 0-1.25.374v-1.284c.157-.082.346-.156.559-.223.216-.069.44-.135.677-.178.235-.047.487-.089.753-.117.263-.026.527-.041.791-.041.949 0 1.727.168 2.33.506.604.332 1.035.777 1.299 1.334.104.216.172.439.213.697.042.252.064.531.064.842v6.269h-1.282l-.171-1.056zm-.08-3.084a10.216 10.216 0 0 0-1.004-.227 7.169 7.169 0 0 0-1.279-.117c-.65 0-1.159.133-1.527.41-.365.277-.553.698-.553 1.278 0 .291.047.54.137.757a1.446 1.446 0 0 0 .951.855c.219.063.453.104.704.104.328 0 .632-.046.915-.139a4.133 4.133 0 0 0 1.317-.742c.156-.134.266-.234.34-.311v-1.868h-.001zM151.314 157.501v-14.32h1.535v14.32h-1.535zM167.181 157.501h-.742l-3.333-7.906a67.194 67.194 0 0 1-1.385-3.551h-.08c.093 1.84.138 3.521.138 5.058v6.399h-1.611v-13.236h2.326l3.115 7.49c.355.854.75 1.89 1.178 3.096h.049c.477-1.344.867-2.373 1.176-3.096l3.117-7.49h2.326v13.236h-1.611v-6.399c0-1.498.044-3.185.136-5.058h-.08a66.722 66.722 0 0 1-1.384 3.551l-3.335 7.906zM182.119 156.462h-.041a3.313 3.313 0 0 1-1.138.888c-.251.123-.524.22-.821.295a3.966 3.966 0 0 1-.949.106c-.453 0-.873-.064-1.25-.202a2.674 2.674 0 0 1-1.617-1.543 3.438 3.438 0 0 1-.226-1.28c0-.471.084-.885.25-1.255.168-.372.404-.685.709-.937a3.092 3.092 0 0 1 1.092-.594 4.634 4.634 0 0 1 1.408-.208 7.635 7.635 0 0 1 2.466.431h.041v-.658c0-.25-.018-.482-.051-.678s-.09-.375-.168-.527c-.174-.315-.441-.576-.819-.784-.376-.208-.882-.31-1.522-.31-.474 0-.923.043-1.339.133a8.955 8.955 0 0 0-1.254.374v-1.284c.159-.082.347-.156.562-.223.215-.069.439-.135.676-.178.236-.047.488-.089.753-.117.263-.026.526-.041.79-.041.949 0 1.728.168 2.332.506.602.332 1.035.777 1.299 1.334.1.216.172.439.215.697.044.252.061.531.061.842v6.269h-1.281l-.178-1.056zm-.082-3.084a10.034 10.034 0 0 0-1.002-.227 7.184 7.184 0 0 0-1.278-.117c-.65 0-1.159.133-1.527.41-.366.277-.552.698-.552 1.278 0 .291.047.54.136.757.093.221.222.399.38.54.164.14.354.249.572.315.219.063.453.104.704.104.327 0 .631-.046.916-.139.28-.096.532-.215.753-.346.219-.135.404-.262.563-.396.152-.134.265-.234.338-.311v-1.869h-.003zM191.5 157.522c-.135.05-.332.106-.604.144a6.39 6.39 0 0 1-.973.084c-.49 0-.924-.063-1.283-.183a2.43 2.43 0 0 1-.904-.528 2.097 2.097 0 0 1-.539-.825 3.15 3.15 0 0 1-.179-1.076v-5.716h-1.808v-1.317h1.808v-2.569h1.538v2.569h2.807v1.317h-2.807v5.479c0 .223.031.419.092.604.061.187.162.349.299.481.137.136.311.241.52.319.217.074.469.109.76.109a5.42 5.42 0 0 0 1.285-.174l-.012 1.282zM198.031 156.416c.51 0 .977-.045 1.391-.123.416-.082.84-.204 1.254-.354v1.276c-.336.171-.752.298-1.248.393a8.345 8.345 0 0 1-1.592.145c-.67 0-1.303-.088-1.895-.262a3.99 3.99 0 0 1-1.535-.83c-.43-.381-.768-.881-1.014-1.496-.244-.617-.365-1.364-.365-2.229 0-.858.117-1.61.354-2.235a4.88 4.88 0 0 1 .939-1.578c.4-.422.852-.739 1.369-.949a4.13 4.13 0 0 1 1.609-.313c.525 0 1.018.087 1.475.263.455.172.85.447 1.188.832.334.375.6.853.799 1.451.191.592.291 1.309.291 2.139v.203c0 .055-.004.183-.014.385h-6.486c0 .595.088 1.105.271 1.525.184.422.428.756.746 1.019.309.257.68.448 1.104.575.421.1.878.163 1.359.163zm-.801-7.245c-.357 0-.686.07-.99.214-.303.137-.57.323-.797.565a2.866 2.866 0 0 0-.551.836 3.458 3.458 0 0 0-.266 1.024h4.813c0-.375-.047-.718-.145-1.036a2.483 2.483 0 0 0-.428-.835 1.963 1.963 0 0 0-.688-.563 2.077 2.077 0 0 0-.948-.205zM208.812 149.349h-.121c-.363 0-.723.036-1.07.102a4.271 4.271 0 0 0-1.814.801c-.25.203-.457.437-.623.705v6.549h-1.533v-9.396h1.191l.299 1.489h.035c.146-.24.334-.476.559-.681.223-.211.473-.398.75-.553.275-.162.58-.287.914-.375a3.78 3.78 0 0 1 1.031-.134c.064 0 .135 0 .207.004l.184.013v1.477h-.009v-.001zM211.927 149.41h.029c.17-.221.363-.418.574-.606a3.518 3.518 0 0 1 1.539-.821 3.922 3.922 0 0 1 1.006-.117c.43 0 .834.053 1.201.174.381.123.707.311.98.576.279.267.498.609.664 1.031.158.426.238.945.238 1.567v6.29h-1.537v-6.043c0-.811-.148-1.396-.471-1.752-.311-.356-.764-.534-1.371-.534-.527 0-1.033.147-1.531.438a4.081 4.081 0 0 0-1.275 1.213v6.678h-1.541v-9.401h1.191l.304 1.307zM226.628 156.462h-.043a3.533 3.533 0 0 1-.48.472 3.29 3.29 0 0 1-.662.416c-.25.123-.523.22-.826.295a3.909 3.909 0 0 1-.945.106c-.453 0-.871-.064-1.248-.202a2.63 2.63 0 0 1-.98-.595 2.642 2.642 0 0 1-.641-.948 3.459 3.459 0 0 1-.225-1.28c0-.471.082-.885.248-1.255.17-.372.402-.685.713-.937a3.074 3.074 0 0 1 1.09-.594 4.647 4.647 0 0 1 1.41-.208c.486.009.939.048 1.357.132.416.078.789.178 1.107.299h.041v-.658c0-.25-.02-.482-.045-.678a1.963 1.963 0 0 0-.168-.527c-.174-.315-.449-.576-.82-.784-.383-.208-.887-.31-1.529-.31-.479 0-.924.043-1.342.133a8.801 8.801 0 0 0-1.248.374v-1.284c.154-.082.34-.156.557-.223.221-.069.439-.135.678-.178.234-.047.486-.089.75-.117.268-.026.527-.041.793-.041.945 0 1.727.168 2.33.506.604.332 1.035.777 1.299 1.334.098.216.168.439.217.697.043.252.064.531.064.842v6.269h-1.289l-.163-1.056zm-.082-3.084a9.944 9.944 0 0 0-1.006-.227 7.212 7.212 0 0 0-1.285-.117c-.646 0-1.156.133-1.523.41-.369.277-.553.698-.553 1.278 0 .291.045.54.135.757.092.221.221.399.383.54.158.14.348.249.572.315.223.063.455.104.701.104.328 0 .637-.046.922-.139a4.102 4.102 0 0 0 1.315-.742c.152-.134.271-.234.34-.311v-1.868h-.001zM231.148 157.501v-14.32h1.531v14.32h-1.531zM246.794 151.647a109.212 109.212 0 0 1 2.404 3.599h.055a63.452 63.452 0 0 1-.129-3.941v-7.043h1.625v13.236h-1.609l-5.191-7.379a90.134 90.134 0 0 1-2.408-3.604h-.057c.086 1.211.135 2.615.135 4.227v6.756h-1.617V144.26h1.604l5.188 7.387zM258.369 156.416c.502 0 .967-.045 1.387-.123.416-.082.84-.204 1.254-.354v1.276c-.336.171-.752.298-1.25.393a8.284 8.284 0 0 1-1.592.145 6.696 6.696 0 0 1-1.895-.262c-.586-.17-1.102-.449-1.533-.83s-.766-.881-1.02-1.496c-.238-.617-.361-1.364-.361-2.229 0-.858.119-1.61.354-2.235a4.753 4.753 0 0 1 .945-1.578 3.834 3.834 0 0 1 1.365-.949 4.159 4.159 0 0 1 1.609-.313c.527 0 1.02.087 1.473.263.459.172.852.447 1.189.832.334.375.598.853.793 1.451.195.598.297 1.309.297 2.139v.203c0 .055-.006.183-.014.385h-6.492c0 .595.092 1.105.275 1.525.184.422.428.756.746 1.019.311.257.678.448 1.104.575.422.1.875.163 1.366.163zm-.811-7.245c-.355 0-.684.07-.988.214-.309.137-.57.323-.797.565a2.876 2.876 0 0 0-.555.836 3.425 3.425 0 0 0-.258 1.024h4.805c0-.375-.045-.718-.143-1.036a2.52 2.52 0 0 0-.428-.835 1.963 1.963 0 0 0-.688-.563 2.08 2.08 0 0 0-.948-.205zM269.486 156.462h-.037a3.443 3.443 0 0 1-1.142.888c-.252.123-.523.22-.822.295a4.018 4.018 0 0 1-.951.106c-.457 0-.871-.064-1.252-.202a2.703 2.703 0 0 1-.982-.595 2.685 2.685 0 0 1-.637-.948 3.5 3.5 0 0 1-.225-1.28c0-.471.086-.885.25-1.255.168-.372.402-.685.707-.937a3.094 3.094 0 0 1 1.098-.594 4.629 4.629 0 0 1 1.408-.208 7.621 7.621 0 0 1 2.464.431h.041v-.658c0-.25-.021-.482-.053-.678a1.661 1.661 0 0 0-.164-.527c-.172-.315-.443-.576-.824-.784-.375-.208-.879-.31-1.521-.31-.479 0-.926.043-1.342.133-.42.091-.836.217-1.256.374v-1.284c.156-.082.344-.156.563-.223.219-.069.436-.135.676-.178.232-.047.486-.089.754-.117.26-.026.525-.041.789-.041.947 0 1.725.168 2.33.506.604.332 1.035.777 1.299 1.334.104.216.174.439.213.697.047.252.066.531.066.842v6.269h-1.285l-.165-1.056zm-.076-3.084a10.121 10.121 0 0 0-1.008-.227 7.16 7.16 0 0 0-1.279-.117c-.654 0-1.16.133-1.525.41-.371.277-.559.698-.559 1.278 0 .291.047.54.137.757a1.482 1.482 0 0 0 .957.855c.223.063.453.104.701.104.326 0 .637-.046.92-.139.281-.096.529-.215.752-.346.221-.135.402-.262.563-.396.152-.134.268-.234.342-.311v-1.868h-.001zM279.066 149.349h-.121a5.72 5.72 0 0 0-1.068.102 4.179 4.179 0 0 0-.984.307 3.95 3.95 0 0 0-.832.494c-.25.203-.455.437-.619.705v6.549h-1.533v-9.396h1.189l.301 1.489h.033c.148-.24.338-.476.559-.681a3.78 3.78 0 0 1 .752-.553c.279-.162.576-.287.914-.375a3.783 3.783 0 0 1 1.037-.134c.063 0 .135 0 .203.004l.18.013v1.477h-.011v-.001zM279.312 151.852h4.361v1.435h-4.361v-1.435zM294.019 157.501h-1.533v-6.041c0-.405-.043-.762-.133-1.047a1.841 1.841 0 0 0-.389-.705 1.584 1.584 0 0 0-.602-.405 2.255 2.255 0 0 0-.789-.132c-.549 0-1.045.147-1.494.438a4.555 4.555 0 0 0-1.201 1.215v6.678h-1.535V148.1h1.189l.297 1.308h.033c.174-.22.355-.418.563-.604a3.21 3.21 0 0 1 .67-.493c.246-.145.518-.25.818-.329s.619-.118.969-.118c.697 0 1.281.166 1.738.502.461.336.818.793 1.066 1.373h.045a4.899 4.899 0 0 1 1.426-1.379c.535-.33 1.162-.496 1.875-.496.326 0 .674.045 1.051.135.367.096.709.266 1.016.51.311.246.576.587.771 1.021.213.438.309.998.309 1.684v6.291h-1.533v-6.043c0-.406-.043-.76-.133-1.047a1.883 1.883 0 0 0-.389-.705 1.539 1.539 0 0 0-.602-.405 2.232 2.232 0 0 0-.785-.131c-.553 0-1.049.147-1.502.438a4.495 4.495 0 0 0-1.213 1.213l-.003 6.676zM303.189 145.917v-1.713h1.535v1.713h-1.535zm.039 11.584v-9.4h1.535v9.4h-1.535zM308.927 150.608c0 .257.057.472.168.638.107.162.256.297.439.397.178.104.4.187.637.252.242.065.49.125.752.179.355.078.689.166 1.01.26.313.097.605.234.875.434.266.191.482.448.65.771.164.33.24.752.24 1.276 0 .476-.088.897-.277 1.265a2.648 2.648 0 0 1-.775.918 3.644 3.644 0 0 1-1.209.567c-.471.129-.98.191-1.541.191a7.63 7.63 0 0 1-.932-.056 7.677 7.677 0 0 1-.748-.133 6.63 6.63 0 0 1-.549-.171c-.146-.062-.273-.122-.379-.169v-1.286c.395.156.773.285 1.158.38.385.092.805.135 1.264.135.363 0 .691-.034.986-.101.291-.062.541-.157.75-.292a1.37 1.37 0 0 0 .484-.482c.109-.196.168-.424.168-.674 0-.267-.053-.488-.152-.66a1.283 1.283 0 0 0-.42-.422 2.38 2.38 0 0 0-.604-.279 14.825 14.825 0 0 0-.725-.196 16.817 16.817 0 0 1-1.012-.261c-.34-.1-.646-.229-.926-.414a1.977 1.977 0 0 1-.674-.729c-.168-.308-.256-.697-.256-1.185 0-.492.092-.927.266-1.284.18-.365.42-.666.723-.902a3.353 3.353 0 0 1 1.061-.535c.398-.121.83-.174 1.277-.174a6.696 6.696 0 0 1 2.664.525v1.302a9.644 9.644 0 0 0-1.184-.369 5.692 5.692 0 0 0-1.215-.154c-.354 0-.654.041-.91.115-.248.068-.457.17-.617.299-.16.133-.273.281-.35.459-.08.156-.117.354-.117.565zM317.119 150.608c0 .257.051.472.164.638.107.162.256.297.438.397.184.104.4.187.641.252.242.065.49.125.75.179.355.078.689.166 1.012.26.311.097.604.234.873.434.262.191.484.448.648.771.164.33.248.752.248 1.276 0 .476-.094.897-.281 1.265a2.591 2.591 0 0 1-.777.918 3.66 3.66 0 0 1-1.205.567 5.823 5.823 0 0 1-1.543.191c-.342 0-.656-.022-.932-.056a7.521 7.521 0 0 1-.746-.133 5.494 5.494 0 0 1-.545-.171c-.15-.062-.279-.122-.385-.169v-1.286c.395.156.771.285 1.158.38.387.092.803.135 1.266.135.365 0 .688-.034.982-.101.295-.062.539-.157.752-.292.209-.131.375-.292.486-.482.113-.196.168-.424.168-.674 0-.267-.049-.488-.156-.66a1.243 1.243 0 0 0-.416-.422 2.318 2.318 0 0 0-.604-.279 12.726 12.726 0 0 0-.725-.196c-.326-.073-.666-.161-1.008-.261s-.648-.229-.928-.414a1.972 1.972 0 0 1-.672-.729c-.17-.308-.256-.697-.256-1.185 0-.492.088-.927.268-1.284.18-.365.416-.666.723-.902a3.301 3.301 0 0 1 1.059-.535c.396-.121.83-.174 1.275-.174a6.683 6.683 0 0 1 2.664.525v1.302a9.775 9.775 0 0 0-1.178-.369 5.762 5.762 0 0 0-1.219-.154c-.354 0-.66.041-.91.115-.248.068-.455.17-.619.299a1.25 1.25 0 0 0-.35.459c-.081.16-.12.354-.12.565zM84.597 172.078c0 .396.081.715.236.967.158.25.369.461.636.627s.573.304.927.4c.354.107.717.209 1.1.301.514.131 1.019.267 1.516.416.496.146.938.356 1.326.629.389.266.701.609.939 1.039.24.43.359.981.359 1.648 0 .688-.132 1.28-.393 1.778a3.365 3.365 0 0 1-1.078 1.223 4.948 4.948 0 0 1-1.627.716 8.675 8.675 0 0 1-2.06.229c-.344 0-.694-.021-1.054-.063s-.704-.101-1.027-.17a10.07 10.07 0 0 1-.884-.244 3.309 3.309 0 0 1-.623-.279v-1.473c.239.121.504.223.802.322.299.1.604.188.922.253.315.068.635.12.959.161a7.368 7.368 0 0 0 2.229-.062 3.413 3.413 0 0 0 1.103-.398c.317-.184.568-.436.754-.753.187-.318.275-.718.275-1.198 0-.4-.081-.722-.242-.98a2.056 2.056 0 0 0-.648-.641c-.27-.17-.583-.31-.934-.408a21.634 21.634 0 0 0-1.111-.297 23.762 23.762 0 0 1-1.51-.4 4.702 4.702 0 0 1-1.313-.617 3 3 0 0 1-.931-1.018c-.233-.416-.354-.949-.354-1.597 0-.671.124-1.244.37-1.735a3.358 3.358 0 0 1 1.002-1.195 4.136 4.136 0 0 1 1.452-.705 6.471 6.471 0 0 1 1.751-.229c.706 0 1.362.065 1.976.205.61.135 1.17.313 1.678.533v1.494a12.526 12.526 0 0 0-1.697-.571 8.122 8.122 0 0 0-1.875-.223c-.502 0-.936.057-1.307.162a2.634 2.634 0 0 0-.918.466 1.855 1.855 0 0 0-.545.736c-.12.285-.181.6-.181.951zM98.02 182.057c-.485 0-.927-.046-1.315-.153a3.58 3.58 0 0 1-1.024-.445 2.975 2.975 0 0 1-.749-.685 3.473 3.473 0 0 1-.484-.876 3.669 3.669 0 0 1-.199-.779 6.84 6.84 0 0 1-.06-.931v-5.771h1.535v5.76c0 .517.071.953.207 1.301.159.398.412.706.769.934.353.222.801.34 1.348.34.58 0 1.05-.131 1.4-.377.354-.25.606-.586.754-1.008.113-.324.17-.729.17-1.197v-5.76h1.535v5.782c0 .31-.017.61-.055.886a3.54 3.54 0 0 1-.174.752 3.689 3.689 0 0 1-.486.896 3.144 3.144 0 0 1-.771.706 3.572 3.572 0 0 1-1.054.461 4.96 4.96 0 0 1-1.347.164zM109.93 173.664h-.117c-.364 0-.721.033-1.069.1a4.229 4.229 0 0 0-.981.301 3.922 3.922 0 0 0-.831.501c-.249.2-.453.433-.618.701v6.548h-1.534v-9.396h1.188l.298 1.492h.03c.15-.237.335-.475.559-.683.223-.21.471-.397.747-.556.276-.15.58-.277.91-.369a3.992 3.992 0 0 1 1.424-.113l-.006 1.474zM114.734 180.26a85.08 85.08 0 0 1 .922-2.619l1.883-5.221h1.533l-3.551 9.395h-1.59l-3.553-9.395h1.533l1.869 5.221c.371 1.029.676 1.904.916 2.619h.038zM125.382 180.722c.506 0 .972-.043 1.39-.121a8.796 8.796 0 0 0 1.253-.354v1.277c-.338.158-.75.299-1.246.395s-1.027.139-1.593.139c-.67 0-1.303-.087-1.894-.256a3.93 3.93 0 0 1-1.532-.831c-.433-.388-.771-.886-1.017-1.503-.242-.614-.365-1.359-.365-2.23 0-.854.121-1.6.355-2.236a4.738 4.738 0 0 1 .947-1.576c.396-.42.85-.741 1.363-.946a4.171 4.171 0 0 1 1.607-.317c.527 0 1.02.093 1.475.267.459.179.855.448 1.191.827.336.375.6.859.795 1.453.192.594.291 1.31.291 2.14v.206c0 .053-.002.184-.009.382h-6.489c0 .599.09 1.108.271 1.529.182.424.432.76.744 1.018.31.263.679.455 1.101.571.418.113.875.166 1.362.166zm-.808-7.239c-.354 0-.682.067-.983.214-.308.135-.57.323-.798.563-.227.24-.407.52-.551.838-.141.32-.228.661-.261 1.021h4.808c0-.369-.047-.715-.143-1.03a2.547 2.547 0 0 0-.427-.839 1.977 1.977 0 0 0-.69-.562 2.126 2.126 0 0 0-.955-.205zM131.058 170.23v-1.714h1.535v1.714h-1.535zm.04 11.583v-9.396h1.535v9.396h-1.535zM135.799 181.813v-14.325h1.534v14.325h-1.534zM140.498 181.813v-14.325h1.535v14.325h-1.535zM150.596 180.776h-.041a3.148 3.148 0 0 1-.474.47c-.191.16-.412.299-.664.416-.25.123-.524.221-.82.295a4.188 4.188 0 0 1-.95.107 3.61 3.61 0 0 1-1.25-.203 2.674 2.674 0 0 1-.978-.593 2.61 2.61 0 0 1-.639-.953 3.43 3.43 0 0 1-.226-1.278c0-.469.085-.883.251-1.258.17-.365.404-.674.708-.936a3.118 3.118 0 0 1 1.092-.59 4.463 4.463 0 0 1 1.41-.211c.485.004.938.045 1.356.127.416.084.783.186 1.107.305h.04v-.656a4.05 4.05 0 0 0-.051-.681 1.74 1.74 0 0 0-.166-.522c-.174-.313-.442-.578-.823-.787-.373-.209-.882-.311-1.521-.311-.475 0-.924.045-1.34.133a9.15 9.15 0 0 0-1.254.37v-1.285a5.543 5.543 0 0 1 1.241-.402c.236-.049.487-.086.754-.111a6.52 6.52 0 0 1 .791-.044c.947 0 1.725.169 2.329.501.603.334 1.036.785 1.3 1.338.103.212.172.443.213.695.045.255.063.533.063.837v6.272h-1.282l-.176-1.045zm-.077-3.087a14.77 14.77 0 0 0-1.005-.229 8.48 8.48 0 0 0-1.278-.12c-.65 0-1.158.137-1.525.415-.366.277-.553.701-.553 1.273 0 .293.047.545.135.762.093.222.222.398.381.543.164.14.354.244.572.311.219.069.453.105.703.105.33 0 .633-.045.918-.142.279-.092.53-.213.752-.34.219-.135.403-.267.562-.396.153-.135.265-.235.34-.31l-.002-1.872zM156.504 173.72h.032c.17-.217.36-.419.566-.605.208-.191.438-.354.7-.49.255-.142.538-.254.844-.332.308-.077.644-.12 1.003-.12.432 0 .834.06 1.209.184.375.116.703.308.977.568.277.268.496.61.66 1.032.164.424.242.947.242 1.568v6.29h-1.533v-6.048c0-.811-.157-1.393-.471-1.746s-.771-.535-1.373-.535c-.527 0-1.037.146-1.533.438a4.125 4.125 0 0 0-1.276 1.212v6.68h-1.535v-9.398h1.188l.3 1.302zM169.738 172.167c.455 0 .889.047 1.305.145.418.092.771.229 1.07.396v1.281a7.689 7.689 0 0 0-1.146-.356 4.789 4.789 0 0 0-1.066-.122c-.384 0-.762.066-1.138.191a2.564 2.564 0 0 0-1.013.619c-.295.286-.535.666-.715 1.137-.182.474-.272 1.057-.272 1.752 0 .505.069.98.204 1.404.133.43.338.797.604 1.112.268.31.604.558 1.006.731.401.174.867.261 1.393.261a5.53 5.53 0 0 0 1.158-.125c.392-.078.769-.2 1.138-.351v1.275a2.81 2.81 0 0 1-.44.199 4.825 4.825 0 0 1-.6.17 7.055 7.055 0 0 1-.693.122c-.242.03-.486.046-.732.046-.633 0-1.23-.096-1.797-.292a3.98 3.98 0 0 1-1.477-.876c-.424-.398-.756-.9-1-1.503-.242-.606-.365-1.329-.365-2.159 0-.618.063-1.184.19-1.668.13-.494.308-.932.53-1.309.223-.381.486-.693.787-.959a4.29 4.29 0 0 1 .962-.646c.34-.171.69-.292 1.054-.372.359-.062.71-.103 1.053-.103zM179.048 180.722c.506 0 .972-.043 1.388-.121a8.747 8.747 0 0 0 1.252-.354v1.277a5.341 5.341 0 0 1-1.245.395 8.365 8.365 0 0 1-1.594.139 6.86 6.86 0 0 1-1.895-.256 3.957 3.957 0 0 1-1.535-.831c-.432-.388-.77-.886-1.014-1.503-.244-.614-.367-1.359-.367-2.23 0-.854.119-1.6.356-2.236a4.786 4.786 0 0 1 .946-1.576c.398-.42.848-.741 1.359-.946a4.197 4.197 0 0 1 1.61-.317c.526 0 1.019.093 1.474.267a3.02 3.02 0 0 1 1.189.827c.336.375.6.859.793 1.453.195.594.291 1.31.291 2.14v.206c0 .053-.002.184-.008.382h-6.491c0 .599.089 1.108.271 1.529.183.424.432.76.744 1.018.313.263.68.455 1.102.571.43.113.885.166 1.374.166zm-.812-7.239c-.354 0-.685.067-.984.214a2.444 2.444 0 0 0-.795.563c-.228.24-.412.52-.551.838a3.31 3.31 0 0 0-.262 1.021h4.805c0-.369-.047-.715-.143-1.03a2.53 2.53 0 0 0-.428-.839 1.953 1.953 0 0 0-.688-.562 2.11 2.11 0 0 0-.954-.205zM190.535 181.813h-1.619v-13.235h3.672c.545 0 1.051.031 1.514.101.471.062.896.162 1.283.31.789.277 1.393.706 1.801 1.271.404.563.611 1.259.611 2.081 0 .67-.135 1.268-.398 1.776-.266.51-.658.933-1.164 1.28-.506.341-1.123.603-1.85.775-.73.174-1.551.263-2.475.263-.445 0-.904-.021-1.373-.061l-.002 5.439zm0-6.92c.215.032.441.049.678.062.24.014.465.018.67.018.752 0 1.402-.057 1.938-.169.537-.125.975-.296 1.307-.521.332-.228.576-.507.734-.834a2.6 2.6 0 0 0 .223-1.109c0-.514-.125-.938-.365-1.27-.254-.328-.598-.578-1.059-.752a3.977 3.977 0 0 0-.98-.222 10.973 10.973 0 0 0-1.285-.063h-1.863l.002 4.86zM205.427 173.664h-.119c-.361 0-.721.033-1.066.1a4.314 4.314 0 0 0-.984.301c-.311.137-.58.307-.834.501-.24.2-.453.433-.615.701v6.548h-1.537v-9.396h1.189l.301 1.492h.031c.15-.237.338-.475.563-.683.219-.21.471-.397.744-.556a4 4 0 0 1 2.34-.482l-.013 1.474zM215.435 177.126c0 .736-.104 1.412-.313 2.012-.213.609-.506 1.129-.893 1.561a4.048 4.048 0 0 1-1.404 1.002c-.541.235-1.158.355-1.836.355-.695 0-1.322-.12-1.875-.355a3.883 3.883 0 0 1-1.402-1.002c-.391-.432-.682-.953-.887-1.561a6.237 6.237 0 0 1-.309-2.012c0-.75.105-1.424.313-2.029a4.586 4.586 0 0 1 .896-1.561 3.959 3.959 0 0 1 1.404-1.011c.555-.239 1.168-.356 1.844-.356.691 0 1.318.119 1.871.356.555.233 1.02.574 1.398 1.011.391.436.682.953.885 1.561.21.606.308 1.285.308 2.029zm-1.596 0c0-.581-.07-1.104-.217-1.551a3.314 3.314 0 0 0-.59-1.145 2.538 2.538 0 0 0-.908-.715 2.762 2.762 0 0 0-1.146-.242 2.77 2.77 0 0 0-1.15.242c-.344.16-.65.398-.904.715a3.305 3.305 0 0 0-.59 1.145 5.12 5.12 0 0 0-.217 1.551c0 .574.068 1.089.217 1.537.139.449.338.83.6 1.142.252.308.563.547.908.71.354.157.732.236 1.146.236a2.74 2.74 0 0 0 1.143-.236c.346-.162.648-.402.902-.71.256-.312.453-.692.592-1.142.14-.448.214-.96.214-1.537zM221.501 172.167c.406.006.762.061 1.066.156.309.105.568.223.781.373.221.145.396.301.521.443.131.139.223.255.262.344h.039l.318-1.068h1.156v9.951c0 .728-.121 1.363-.357 1.895-.23.539-.57.988-.998 1.342-.428.361-.945.622-1.549.798a7.032 7.032 0 0 1-2.004.267 7.233 7.233 0 0 1-1.658-.168c-.486-.106-.871-.236-1.146-.391v-1.296c.221.093.439.17.654.228.213.063.428.117.654.158.221.043.453.071.686.096.232.021.49.033.777.033 1.102 0 1.943-.263 2.527-.771.588-.514.881-1.295.881-2.348v-1.26h-.031c-.336.365-.73.648-1.176.832-.443.191-.955.286-1.529.286-.266 0-.549-.028-.85-.092a3.543 3.543 0 0 1-.91-.304 3.673 3.673 0 0 1-.867-.565c-.283-.227-.521-.526-.736-.876-.217-.354-.381-.771-.51-1.256-.131-.482-.191-1.035-.191-1.667 0-.88.123-1.64.355-2.278.234-.647.549-1.18.934-1.604a3.786 3.786 0 0 1 1.34-.941 4.008 4.008 0 0 1 1.561-.317zm-2.578 5.009c0 .741.086 1.341.271 1.813.178.465.4.836.674 1.092.271.264.572.441.895.533.322.101.633.145.924.145.479 0 .924-.096 1.338-.289a3.758 3.758 0 0 0 1.102-.784v-4.914a3.413 3.413 0 0 0-.886-.827 3.339 3.339 0 0 0-.688-.322 2.568 2.568 0 0 0-.842-.135 2.461 2.461 0 0 0-2.068 1.027c-.23.325-.404.71-.525 1.163-.138.448-.195.948-.195 1.498zM233.769 173.664h-.119a5.6 5.6 0 0 0-1.066.1c-.35.061-.678.167-.982.301a4.041 4.041 0 0 0-.84.501 2.75 2.75 0 0 0-.617.701v6.548h-1.531v-9.396h1.186l.301 1.492h.033c.148-.237.336-.475.563-.683.221-.21.475-.397.748-.556a3.957 3.957 0 0 1 2.334-.482l-.01 1.474zM240.904 180.776h-.045a3.206 3.206 0 0 1-.475.47c-.191.16-.412.299-.666.416a4.022 4.022 0 0 1-.822.295 4.228 4.228 0 0 1-.953.107c-.451 0-.867-.064-1.248-.203a2.648 2.648 0 0 1-1.619-1.546 3.429 3.429 0 0 1-.227-1.278c0-.469.086-.883.252-1.258.168-.365.4-.674.709-.936a3.11 3.11 0 0 1 1.092-.59 4.498 4.498 0 0 1 1.412-.211 7.33 7.33 0 0 1 1.354.127c.42.084.785.186 1.109.305h.041v-.656a5.56 5.56 0 0 0-.045-.681 1.83 1.83 0 0 0-.17-.522c-.17-.313-.447-.578-.82-.787-.381-.209-.885-.311-1.527-.311a6.49 6.49 0 0 0-1.342.133c-.418.09-.838.215-1.25.37v-1.285c.154-.079.34-.146.563-.222a6.405 6.405 0 0 1 1.424-.291c.264-.032.525-.044.791-.044.947 0 1.729.169 2.33.501.602.334 1.035.785 1.299 1.338.096.212.166.443.213.695.047.255.063.533.063.837v6.272h-1.283l-.16-1.045zm-.084-3.087a14.51 14.51 0 0 0-1.002-.229 8.613 8.613 0 0 0-1.283-.12c-.648 0-1.158.137-1.529.415-.371.277-.553.701-.553 1.273 0 .293.045.545.135.762.092.222.223.398.379.543.16.14.355.244.574.311.221.069.453.105.707.105.322 0 .631-.045.918-.142a4.016 4.016 0 0 0 1.318-.736c.146-.135.268-.235.334-.31v-1.875l.002.003zM252.998 181.813h-1.531v-6.05c0-.398-.045-.752-.135-1.035a1.859 1.859 0 0 0-.389-.709 1.425 1.425 0 0 0-.602-.4 2.066 2.066 0 0 0-.787-.136c-.549 0-1.043.146-1.49.44a4.451 4.451 0 0 0-1.209 1.209v6.681h-1.531v-9.397h1.188l.303 1.302h.027c.17-.218.361-.419.563-.604.205-.193.426-.354.672-.492.244-.141.52-.252.818-.332.301-.078.617-.121.969-.121.697 0 1.281.172 1.738.507.461.335.816.793 1.066 1.372h.043c.416-.586.896-1.047 1.426-1.377.537-.328 1.164-.502 1.877-.502.324 0 .678.048 1.053.142.363.091.707.261 1.018.51.311.245.572.587.771 1.021.207.434.311 1.003.311 1.683v6.291h-1.537v-6.049c0-.4-.045-.753-.135-1.036a1.839 1.839 0 0 0-.385-.709 1.456 1.456 0 0 0-.604-.403 2.151 2.151 0 0 0-.789-.135c-.549 0-1.047.146-1.498.438-.453.3-.852.699-1.211 1.214v6.682h-.01v-.005zM269.783 181.813h-1.537v-6.05c0-.398-.043-.752-.133-1.035a1.883 1.883 0 0 0-.387-.709 1.419 1.419 0 0 0-.604-.4 2.066 2.066 0 0 0-.783-.136c-.555 0-1.049.146-1.496.44-.453.296-.85.693-1.209 1.209v6.681h-1.529v-9.397h1.188l.295 1.302h.037c.172-.218.359-.419.563-.604a3.427 3.427 0 0 1 1.484-.824 3.83 3.83 0 0 1 .973-.121c.697 0 1.279.172 1.734.507.465.335.82.793 1.074 1.372h.039a4.991 4.991 0 0 1 1.426-1.377c.537-.328 1.164-.502 1.877-.502.326 0 .678.048 1.047.142.373.091.709.261 1.02.51.309.245.572.587.77 1.021.211.434.311 1.003.311 1.683v6.291h-1.533v-6.049c0-.4-.045-.753-.135-1.036a1.87 1.87 0 0 0-.389-.709 1.425 1.425 0 0 0-.602-.403 2.126 2.126 0 0 0-.787-.135c-.549 0-1.047.146-1.498.438-.453.3-.854.699-1.211 1.214l-.005 6.677zM283.357 180.722c.502 0 .973-.043 1.387-.121a8.921 8.921 0 0 0 1.254-.354v1.277a5.363 5.363 0 0 1-1.244.395 8.385 8.385 0 0 1-1.6.139 6.873 6.873 0 0 1-1.891-.256 3.936 3.936 0 0 1-1.537-.831c-.43-.388-.768-.886-1.016-1.503-.244-.614-.367-1.359-.367-2.23 0-.854.119-1.6.355-2.236a4.818 4.818 0 0 1 .945-1.576c.4-.42.848-.741 1.363-.946a4.191 4.191 0 0 1 1.611-.317c.525 0 1.016.093 1.471.267.459.179.85.448 1.191.827.334.375.596.859.797 1.453.191.594.289 1.31.289 2.14v.206c0 .053-.008.184-.016.382h-6.482c0 .599.088 1.108.271 1.529.184.424.428.76.746 1.018.313.263.674.455 1.104.571.424.113.885.166 1.369.166zm-.813-7.239c-.354 0-.682.067-.984.214a2.398 2.398 0 0 0-.799.563c-.225.24-.404.52-.555.838-.135.32-.221.661-.258 1.021h4.813c0-.369-.049-.715-.145-1.03a2.493 2.493 0 0 0-.428-.839 1.974 1.974 0 0 0-.689-.562 2.096 2.096 0 0 0-.955-.205z"/></g></svg>