<svg xmlns="http://www.w3.org/2000/svg" width="992.922" height="283.465" viewBox="0 0 992.922 283.465"><path fill="#4EA8CF" d="M992.044 161.892c.412-2.623.683-5.313.787-8.092-1.816.802-3.266 2.195-3.266 4.198 0 1.716 1.073 2.992 2.479 3.894M946.474 211.455c2.959 0 5.357-2.244 5.357-5.008 0-2.766-2.398-5.008-5.357-5.008s-5.357 2.242-5.357 5.008c-.001 2.764 2.398 5.008 5.357 5.008M844.22 206.447c0 2.764 2.396 5.008 5.355 5.008 2.961 0 5.357-2.244 5.357-5.008 0-2.766-2.396-5.008-5.357-5.008-2.959 0-5.355 2.243-5.355 5.008M825.351 201.439c-.881 0-1.524.522-2.258.873v2.805c2.192.97 4.748 1.624 7.128 2.43.11-.397.489-.669.489-1.1 0-2.765-2.399-5.008-5.359-5.008M771.547 206.447c0 .808.554 1.396.917 2.072 2.908-1.622 5.77-3.297 8.397-5.227-.979-1.087-2.317-1.854-3.957-1.854-2.96.001-5.357 2.244-5.357 5.009M650.426 206.447c0 1.845 1.243 3.159 2.83 4.027.889.311 1.788.616 2.688.918 2.872-.092 5.197-2.238 5.197-4.945 0-2.766-2.398-5.008-5.359-5.008-2.958 0-5.356 2.243-5.356 5.008M607.334 163.008c.39 0 .631-.313.997-.386 1.026-2.555 2.133-5.041 2.983-7.733-.984-1.107-2.321-1.898-3.98-1.898-2.959 0-5.357 2.242-5.357 5.008s2.398 5.009 5.357 5.009M558.885 211.455c2.96 0 5.359-2.244 5.359-5.008 0-2.766-2.399-5.008-5.359-5.008-2.957 0-5.356 2.242-5.356 5.008-.001 2.764 2.399 5.008 5.356 5.008M456.633 206.447c0 .292.278.469.331.748 2.171 1.317 4.471 2.45 6.772 3.583 2.001-.725 3.61-2.203 3.61-4.331 0-2.766-2.397-5.008-5.356-5.008-2.96 0-5.357 2.243-5.357 5.008M434.539 178.579h-6.064c1.829 2.89 3.944 5.56 6.064 8.229v-8.229zM418.898 157.998c0-.568-.458-.943-.645-1.453.188.549.361 1.109.557 1.653.003-.077.088-.121.088-.2M335.511 206.447c0 2.764 2.399 5.008 5.357 5.008 2.959 0 5.358-2.244 5.358-5.008 0-2.766-2.399-5.008-5.358-5.008-2.958 0-5.357 2.243-5.357 5.008M219.747 201.439c-.092 0-.145.086-.237.094v9.83c.092.004.146.092.237.092 2.958 0 5.357-2.244 5.357-5.008 0-2.765-2.399-5.008-5.357-5.008M219.747 152.99c-.092 0-.145.088-.237.092v9.832c.092.004.146.094.237.094 2.958 0 5.357-2.244 5.357-5.01s-2.399-5.008-5.357-5.008M219.747 104.541c-.092 0-.145.091-.237.094v9.83c.092.006.146.092.237.092 2.958 0 5.357-2.239 5.357-5.008 0-2.764-2.399-5.008-5.357-5.008M219.747 56.094c-.092 0-.145.086-.237.092v9.832c.092.005.146.092.237.092 2.958 0 5.357-2.244 5.357-5.008 0-2.766-2.399-5.008-5.357-5.008M141.717 206.447c0 1.506.782 2.753 1.91 3.673 2.896-1.659 5.333-3.763 7.879-5.763-.886-1.627-2.347-2.918-4.431-2.918-2.959 0-5.358 2.243-5.358 5.008M25.953 201.439c-.715 0-1.207.471-1.832.708 2.128 1.835 4.507 3.402 6.898 4.96.04-.248.292-.402.292-.66 0-2.765-2.399-5.008-5.358-5.008M1.729 152.99c-.305 0-.491.258-.784.306.353 3.259.818 6.426 1.449 9.452 2.597-.346 4.693-2.227 4.693-4.75 0-2.766-2.4-5.008-5.358-5.008M1.729 104.541c-.674 0-1.134.458-1.729.672v8.677c.595.211 1.055.667 1.729.667 2.958 0 5.358-2.239 5.358-5.008 0-2.764-2.4-5.008-5.358-5.008M1.729 56.094c-.674 0-1.134.456-1.729.669v8.677c.595.213 1.055.669 1.729.669 2.958 0 5.358-2.244 5.358-5.008 0-2.765-2.4-5.007-5.358-5.007M1.729 7.647c-.674 0-1.134.454-1.729.667v8.677c.595.213 1.055.669 1.729.669 2.958 0 5.358-2.242 5.358-5.008s-2.4-5.005-5.358-5.005M52.52 4.579c.29.074.611.068.89.169v-.169h-.89zM50.177 17.661c1.263 0 2.318-.568 3.233-1.252V8.897c-.915-.682-1.97-1.25-3.233-1.25-2.958 0-5.356 2.24-5.356 5.006s2.398 5.008 5.356 5.008M50.177 66.11c1.263 0 2.318-.57 3.233-1.252v-7.511c-.915-.684-1.97-1.252-3.233-1.252-2.958 0-5.356 2.242-5.356 5.008 0 2.763 2.398 5.007 5.356 5.007M50.177 114.557c1.263 0 2.318-.568 3.233-1.25v-7.513c-.915-.683-1.97-1.253-3.233-1.253-2.958 0-5.356 2.244-5.356 5.008 0 2.768 2.398 5.008 5.356 5.008M123.709 153.323c-.611 3.33-1.433 6.357-2.482 9.056.564.188.989.629 1.623.629 2.959 0 5.358-2.244 5.358-5.01.001-2.451-2.008-4.243-4.499-4.675M173.642 4.579c2.028.515 3.702 1.619 4.904 3.167V4.579h-4.904zM171.299 7.647c-2.958 0-5.357 2.24-5.357 5.006s2.399 5.008 5.357 5.008 5.358-2.242 5.358-5.008-2.4-5.006-5.358-5.006M178.545 114.458c-1.655 2.131-4.213 3.608-7.247 3.608h3.228v6.033h4.019v-9.641zM178.545 66.009c-1.655 2.133-4.213 3.608-7.247 3.608h3.228v6.032h4.019v-9.64zM178.545 17.56c-1.655 2.132-4.213 3.61-7.247 3.61h3.228v6.032h4.019V17.56zM119.623 166.515h3.228c-1.105 0-2.133-.252-3.113-.586-.985 1.905-2.043 3.705-3.301 5.215-.518.624-1.424.837-1.994 1.403h5.181v-6.032zM53.41 117.455c-1.009.362-2.084.611-3.233.611h3.228v6.033h.005v-6.644zM53.41 69.008c-1.009.36-2.084.609-3.233.609h3.228v6.032h.005v-6.641zM53.41 20.559c-1.009.362-2.084.611-3.233.611h3.228v6.032h.005v-6.643zM0 21.17h1.729c-.612 0-1.148-.219-1.729-.326v.326zM0 69.617h1.729c-.612 0-1.148-.217-1.729-.326v.326zM0 118.066h1.729c-.612 0-1.148-.22-1.729-.326v.326zM175.497 165.438c-1.273.631-2.658 1.077-4.198 1.077h3.228v2.652c.348-1.225.67-2.466.97-3.729M117.493 206.447c0 2.764 2.399 5.008 5.357 5.008 2.959 0 5.358-2.244 5.358-5.008 0-2.766-2.399-5.008-5.358-5.008-2.957 0-5.357 2.243-5.357 5.008M93.269 206.447c0 2.764 2.399 5.008 5.358 5.008 2.958 0 5.355-2.244 5.355-5.008 0-2.766-2.397-5.008-5.355-5.008-2.959 0-5.358 2.243-5.358 5.008M69.045 206.447c0 2.764 2.397 5.008 5.357 5.008 2.959 0 5.356-2.244 5.356-5.008 0-2.766-2.397-5.008-5.356-5.008-2.96 0-5.357 2.243-5.357 5.008M44.821 206.447c0 2.764 2.398 5.008 5.356 5.008 2.96 0 5.357-2.244 5.357-5.008 0-2.766-2.397-5.008-5.357-5.008-2.958 0-5.356 2.243-5.356 5.008M20.597 61.102c0 2.764 2.397 5.008 5.355 5.008 2.959 0 5.358-2.244 5.358-5.008 0-2.766-2.399-5.008-5.358-5.008-2.958 0-5.355 2.242-5.355 5.008M20.597 109.549c0 2.769 2.397 5.008 5.355 5.008 2.959 0 5.358-2.239 5.358-5.008 0-2.764-2.399-5.008-5.358-5.008-2.958 0-5.355 2.244-5.355 5.008M20.597 157.998c0 2.766 2.397 5.01 5.355 5.01 2.959 0 5.358-2.244 5.358-5.01s-2.399-5.008-5.358-5.008c-2.958 0-5.355 2.242-5.355 5.008M141.717 61.102c0 2.764 2.399 5.008 5.358 5.008 2.958 0 5.357-2.244 5.357-5.008 0-2.766-2.399-5.008-5.357-5.008-2.959 0-5.358 2.242-5.358 5.008M141.717 109.549c0 2.769 2.399 5.008 5.358 5.008 2.958 0 5.357-2.239 5.357-5.008 0-2.764-2.399-5.008-5.357-5.008-2.959 0-5.358 2.244-5.358 5.008M141.717 157.998c0 2.766 2.399 5.01 5.358 5.01 2.958 0 5.357-2.244 5.357-5.01s-2.399-5.008-5.357-5.008c-2.959 0-5.358 2.242-5.358 5.008"/><path fill="#4EA8CF" d="M171.299 52.585c3.033 0 5.592 1.477 7.247 3.608V33.234h-4.019v12.064H168.073V33.234h-6.454v-6.032h6.454V21.17h3.226c-5.032 0-9.111-3.814-9.111-8.517 0-3.926 2.902-7.089 6.77-8.074h-19.542c3.868.984 6.771 4.147 6.771 8.074 0 4.703-4.079 8.517-9.111 8.517h3.226v6.032h6.454v6.032h-6.454v12.064H143.849V33.234h-6.454v-6.032h6.454V21.17h3.227c-5.033 0-9.112-3.814-9.112-8.517 0-3.926 2.902-7.089 6.771-8.074h-19.542c3.868.984 6.77 4.147 6.77 8.074 0 3.947-2.93 7.119-6.827 8.085v.432h.941v6.032h6.455v6.032h-6.455v12.064h-.941v7.719c3.897.965 6.827 4.14 6.827 8.084s-2.93 7.119-6.827 8.084v.431h.941v6.032h6.455v6.034h-6.455v12.064h-.941v7.717c3.897.967 6.827 4.14 6.827 8.084 0 3.949-2.93 7.119-6.827 8.087v.431h.941v6.033h6.455v6.032h-6.455v12.063h-1.238c-.134 2.568-.194 5.243-.494 7.569 4.292.689 7.618 4.025 7.618 8.233 0 4.704-4.079 8.517-9.111 8.517h3.226v6.032h6.455v6.032h-6.455v12.064H119.624v-12.064h-6.452v-5.138c-1.377 1.212-3.261 1.887-4.864 2.855v2.282h-3.89c-.843.352-1.661.732-2.565 1.022v11.042H95.399v-10.022c-2.091.3-3.825.977-6.198.977-4.483 0-7.976-1.016-11.572-1.926v10.972h-6.455v-12.064h-6.452v-5.718c-.859-.827-2.168-1.191-2.904-2.146-1.737-2.248-2.706-5.521-3.904-8.489-1.583 2.518-4.388 4.288-7.738 4.288h3.228v6.032h6.454v6.032h-6.454v12.064H46.95v-12.064h-6.454v-6.032h6.454v-6.032h3.226c-5.03 0-9.109-3.813-9.109-8.517 0-4.702 4.079-8.517 9.109-8.517 1.745 0 3.283.583 4.668 1.377-.654-4.173-1.436-8.175-1.436-13.229v-7.498h-.005v12.063H46.949v-12.063h-6.454V124.1h6.454v-6.033h3.226c-5.03 0-9.109-3.813-9.109-8.518 0-4.702 4.079-8.515 9.109-8.515 1.148 0 2.224.248 3.233.61v-19.96h-.005v12.064H46.949V81.684h-6.454V75.65h6.454v-6.032h3.226c-5.03 0-9.109-3.811-9.109-8.515 0-4.705 4.079-8.517 9.109-8.517 1.148 0 2.224.25 3.233.611V33.234h-.005v12.064H46.949V33.234h-6.454v-6.032h6.454V21.17h3.226c-5.03 0-9.109-3.814-9.109-8.517 0-3.926 2.9-7.089 6.768-8.074H28.295c3.867.984 6.769 4.147 6.769 8.074 0 4.703-4.079 8.517-9.112 8.517h3.229v6.032h6.453v6.032h-6.453v12.064h-6.455V33.234h-6.453v-6.032h6.453V21.17h3.226c-5.03 0-9.111-3.814-9.111-8.517 0-3.926 2.902-7.089 6.771-8.074H4.072c3.866.984 6.768 4.147 6.768 8.074 0 4.703-4.079 8.517-9.111 8.517h3.228v6.032h6.453v6.032H4.957v12.064H0v7.612c.581-.106 1.117-.326 1.729-.326 5.032 0 9.111 3.813 9.111 8.517 0 4.704-4.079 8.515-9.111 8.515h3.228v6.032h6.453v6.034H4.957v12.064H0v7.611c.581-.106 1.117-.325 1.729-.325 5.032 0 9.111 3.813 9.111 8.515 0 4.705-4.079 8.518-9.111 8.518h3.228v6.033h6.453v6.032H4.957v12.063H.111c.108 2.562.375 4.991.563 7.486.361-.042.68-.2 1.055-.2 5.032 0 9.111 3.814 9.111 8.517 0 4.189-3.296 7.511-7.557 8.225.024.098.048.195.075.292h1.598v6.032h6.453v6.032H7.431c3.471 7.86 7.91 14.917 13.842 20.734 1.389-.798 2.931-1.382 4.68-1.382 5.033 0 9.112 3.812 9.112 8.516 0 1.07-.266 2.076-.652 3.02 3.902 2.222 8.079 4.154 12.539 5.791v-.294h3.226c-5.03 0-9.109-3.814-9.109-8.517 0-4.704 4.079-8.516 9.109-8.516 5.032 0 9.111 3.812 9.111 8.516 0 4.702-4.079 8.517-9.111 8.517h3.228v2.376c5.507 1.576 11.26 2.894 17.542 3.656h.228v-6.032h3.228c-5.032 0-9.111-3.814-9.111-8.517 0-4.704 4.079-8.516 9.111-8.516 5.033 0 9.112 3.812 9.112 8.516 0 4.702-4.079 8.517-9.112 8.517h3.227v6.032h6.453v.86c1.673.052 3.143.316 4.864.318v-1.179h6.453v-6.032h3.228c-5.032 0-9.111-3.814-9.111-8.517 0-4.704 4.079-8.516 9.111-8.516s9.111 3.812 9.111 8.516c0 4.702-4.079 8.517-9.111 8.517h3.226v6.032h4.852c4.482-.589 8.819-1.32 12.919-2.282v-3.75h3.228c-5.032 0-9.111-3.814-9.111-8.517 0-4.704 4.079-8.516 9.111-8.516s9.111 3.812 9.111 8.516c0 4.702-4.079 8.517-9.111 8.517h3.226v1.545c4.79-1.484 9.859-2.69 14.016-4.791-1.265-1.46-2.129-3.244-2.129-5.271 0-4.704 4.079-8.516 9.112-8.516 3.263 0 5.995 1.692 7.604 4.104.402-.356.923-.596 1.315-.96 4.938-4.625 8.762-10.153 12.079-16.09v-6.406h-6.454v-6.032h6.454v-6.032h3.226c-5.032 0-9.111-3.813-9.111-8.517 0-4.702 4.079-8.517 9.111-8.517 2.492 0 4.738.943 6.384 2.459.352-3.733.862-7.336.862-11.354v-10.454h-4.019v12.063H168.076v-12.063h-6.454V124.1h6.454v-6.033h3.226c-5.032 0-9.111-3.813-9.111-8.518 0-4.702 4.079-8.515 9.111-8.515 3.033 0 5.592 1.479 7.247 3.61v-22.96h-4.019v12.064H168.076V81.684h-6.454V75.65h6.454v-6.032h3.226c-5.032 0-9.111-3.811-9.111-8.515-.003-4.706 4.076-8.518 9.108-8.518zM35.634 178.579h-6.453v12.064h-6.455v-12.064h-6.453v-6.032h6.453v-6.032h3.226c-5.03 0-9.111-3.813-9.111-8.517 0-4.702 4.081-8.517 9.111-8.517 5.033 0 9.112 3.814 9.112 8.517 0 4.704-4.079 8.517-9.112 8.517h3.229v6.032h6.453v6.032zm0-48.447h-6.453v12.063h-6.455v-12.063h-6.453V124.1h6.453v-6.033h3.226c-5.03 0-9.111-3.813-9.111-8.518 0-4.702 4.081-8.515 9.111-8.515 5.033 0 9.112 3.813 9.112 8.515 0 4.705-4.079 8.518-9.112 8.518h3.229v6.033h6.453v6.032zm0-48.448h-6.453v12.064h-6.455V81.684h-6.453V75.65h6.453v-6.032h3.226c-5.03 0-9.111-3.811-9.111-8.515 0-4.705 4.081-8.517 9.111-8.517 5.033 0 9.112 3.813 9.112 8.517 0 4.704-4.079 8.515-9.112 8.515h3.229v6.032h6.453v6.034zm121.12 96.895H150.3v12.064H143.847v-12.064h-6.454v-6.032h6.454v-6.032h3.227c-5.033 0-9.112-3.813-9.112-8.517 0-4.702 4.079-8.517 9.112-8.517 5.032 0 9.111 3.814 9.111 8.517 0 4.704-4.079 8.517-9.111 8.517h3.226v6.032h6.454v6.032zm0-48.447H150.3v12.063H143.847v-12.063h-6.454V124.1h6.454v-6.033h3.227c-5.033 0-9.112-3.813-9.112-8.518 0-4.702 4.079-8.515 9.112-8.515 5.032 0 9.111 3.813 9.111 8.515 0 4.705-4.079 8.518-9.111 8.518h3.226v6.033h6.454v6.032zm0-48.448H150.3v12.064H143.847V81.684h-6.454V75.65h6.454v-6.032h3.227c-5.033 0-9.112-3.811-9.112-8.515 0-4.705 4.079-8.517 9.112-8.517 5.032 0 9.111 3.813 9.111 8.517 0 4.704-4.079 8.515-9.111 8.515h3.226v6.032h6.454v6.034z"/><path fill="#4EA8CF" d="M171.299 114.557c2.958 0 5.358-2.239 5.358-5.008 0-2.764-2.4-5.008-5.358-5.008-2.958 0-5.357 2.244-5.357 5.008-.001 2.768 2.398 5.008 5.357 5.008M171.299 66.11c2.958 0 5.358-2.244 5.358-5.008 0-2.766-2.4-5.008-5.358-5.008-2.958 0-5.357 2.242-5.357 5.008-.001 2.764 2.398 5.008 5.357 5.008M147.075 7.647c-2.959 0-5.358 2.24-5.358 5.006s2.399 5.008 5.358 5.008c2.958 0 5.357-2.242 5.357-5.008s-2.399-5.006-5.357-5.006M125.135 8.53v8.247c1.714-.835 3.074-2.19 3.074-4.124 0-1.931-1.36-3.286-3.074-4.123M128.209 61.102c0-1.933-1.36-3.289-3.074-4.125v8.246c1.714-.833 3.074-2.19 3.074-4.121M128.209 109.549c0-1.931-1.36-3.288-3.074-4.121v8.246c1.714-.836 3.074-2.192 3.074-4.125M50.177 163.008c2.96 0 5.357-2.244 5.357-5.01s-2.397-5.008-5.357-5.008c-2.958 0-5.356 2.242-5.356 5.008s2.398 5.01 5.356 5.01M25.953 7.647c-2.958 0-5.355 2.24-5.355 5.006s2.397 5.008 5.355 5.008c2.959 0 5.358-2.242 5.358-5.008s-2.399-5.006-5.358-5.006M176.657 157.998c0-2.766-2.4-5.008-5.358-5.008-2.958 0-5.357 2.242-5.357 5.008s2.399 5.01 5.357 5.01 5.358-2.244 5.358-5.01M219.747 7.647c-.092 0-.145.086-.237.092v9.83c.092.003.146.092.237.092 2.958 0 5.357-2.242 5.357-5.008s-2.399-5.006-5.357-5.006M270.538 4.579a9.071 9.071 0 0 1 2.384.969v-.969h-2.384zM272.921 14.08v-2.854c-.712-1.984-2.363-3.579-4.725-3.579-2.961 0-5.358 2.24-5.358 5.006s2.397 5.008 5.358 5.008c2.362 0 4.013-1.597 4.725-3.581M272.921 62.527v-2.851c-.712-1.986-2.363-3.583-4.725-3.583-2.961 0-5.358 2.242-5.358 5.008 0 2.764 2.397 5.008 5.358 5.008 2.362.001 4.013-1.597 4.725-3.582M340.868 7.647c-.929 0-1.615.53-2.376.917l-2.964 4.125c.024 2.746 2.397 4.971 5.34 4.971 2.959 0 5.358-2.242 5.358-5.008s-2.398-5.005-5.358-5.005M389.316 17.661c2.958 0 5.358-2.242 5.358-5.008s-2.4-5.006-5.358-5.006-5.358 2.24-5.358 5.006 2.4 5.008 5.358 5.008M394.675 206.447c0-2.766-2.4-5.008-5.358-5.008s-5.358 2.242-5.358 5.008c0 2.764 2.4 5.008 5.358 5.008s5.358-2.244 5.358-5.008M398.057 10.935l4.881-6.356H391.66c3.265.832 5.687 3.235 6.397 6.356M390.341 20.977c-.352.039-.661.193-1.024.193h.875l.149-.193zM272.921 68.205c-1.399.818-2.957 1.413-4.725 1.413h3.226v6.032h1.499v-7.445zM272.921 19.757c-1.399.816-2.957 1.413-4.725 1.413h3.226v6.032h1.499v-7.445zM219.509 21.17h.237c-.083 0-.152-.044-.237-.046v.046zM219.509 69.617h.237c-.083 0-.152-.042-.237-.044v.044zM219.509 118.066h.237c-.083 0-.152-.043-.237-.045v.045zM219.509 166.515h.237c-.083 0-.152-.042-.237-.044v.044zM219.509 214.964h.237c-.083 0-.152-.044-.237-.046v.046zM272.921 213.552c-1.399.816-2.957 1.412-4.725 1.412h3.226v2.648h1.499v-4.06zM272.921 165.103c-1.399.816-2.957 1.412-4.725 1.412h3.226v6.032h1.499v-7.444zM339.637 214.964h1.231c-.501 0-.932-.194-1.41-.267l.179.267zM359.735 206.447c0 2.764 2.399 5.008 5.358 5.008 2.958 0 5.357-2.244 5.357-5.008 0-2.766-2.399-5.008-5.357-5.008-2.959 0-5.358 2.243-5.358 5.008M311.287 157.998c0 2.766 2.399 5.01 5.358 5.01 2.958 0 5.355-2.244 5.355-5.01s-2.397-5.008-5.355-5.008c-2.959 0-5.358 2.242-5.358 5.008M287.063 109.549c0 2.769 2.399 5.008 5.357 5.008 2.959 0 5.356-2.239 5.356-5.008 0-2.764-2.397-5.008-5.356-5.008-2.958 0-5.357 2.244-5.357 5.008M238.615 206.447c0 2.764 2.397 5.008 5.355 5.008 2.961 0 5.358-2.244 5.358-5.008 0-2.766-2.397-5.008-5.358-5.008-2.958 0-5.355 2.243-5.355 5.008M335.511 61.102c0 2.764 2.399 5.008 5.357 5.008 2.959 0 5.358-2.244 5.358-5.008 0-2.766-2.399-5.008-5.358-5.008-2.958 0-5.357 2.242-5.357 5.008M238.615 61.102c0 2.764 2.397 5.008 5.355 5.008 2.961 0 5.358-2.244 5.358-5.008 0-2.766-2.397-5.008-5.358-5.008-2.958 0-5.355 2.242-5.355 5.008M238.615 109.549c0 2.769 2.397 5.008 5.355 5.008 2.961 0 5.358-2.239 5.358-5.008 0-2.764-2.397-5.008-5.358-5.008-2.958 0-5.355 2.244-5.355 5.008M238.615 157.998c0 2.766 2.397 5.01 5.355 5.01 2.961 0 5.358-2.244 5.358-5.01s-2.397-5.008-5.358-5.008c-2.958 0-5.355 2.242-5.355 5.008M262.838 109.549c0 2.769 2.397 5.008 5.358 5.008 2.958 0 5.355-2.239 5.355-5.008 0-2.764-2.397-5.008-5.355-5.008-2.96 0-5.358 2.244-5.358 5.008M311.287 61.102c0 2.764 2.399 5.008 5.358 5.008 2.958 0 5.355-2.244 5.355-5.008 0-2.766-2.397-5.008-5.355-5.008-2.959 0-5.358 2.242-5.358 5.008M311.287 109.549c0 2.769 2.399 5.008 5.358 5.008 2.958 0 5.355-2.239 5.355-5.008 0-2.764-2.397-5.008-5.355-5.008-2.959 0-5.358 2.244-5.358 5.008M335.511 157.998c0 2.766 2.399 5.01 5.357 5.01 2.959 0 5.358-2.244 5.358-5.01s-2.399-5.008-5.358-5.008c-2.958 0-5.357 2.242-5.357 5.008"/><path fill="#4EA8CF" d="M389.316 197.932c1.247 0 2.431.239 3.514.662l-5.501-7.95h-1.238v-1.791l-16.386-23.68c-1.373.775-2.891 1.342-4.612 1.342h3.226v6.032h6.454v6.032h-6.454v12.064H361.866v-12.064h-6.454v-6.032h6.454v-6.032h3.227c-5.033 0-9.112-3.813-9.112-8.517 0-2.895 1.646-5.326 4.007-6.865l-14.53-21.001h-1.364v12.063h-6.452v-12.063h-6.454V124.1h6.454v-5.263l-1.518-2.194c-2.227-1.308-3.744-3.417-4.123-5.957l-5.013-7.244 10.654-13.865v-7.893h-6.454V75.65h6.454v-6.032h3.226c-5.032 0-9.111-3.811-9.111-8.515 0-4.705 4.079-8.517 9.111-8.517s9.111 3.813 9.111 8.517c0 4.704-4.079 8.515-9.111 8.515h3.226v6.032h4.245l8.49-11.051c-.521-1.07-.848-2.24-.848-3.496 0-4.705 4.079-8.517 9.112-8.517.299 0 .552.133.843.158l14.989-19.509h-1.289v-6.032h5.923l.532-.691V21.17h3.226c-5.032 0-9.111-3.814-9.111-8.517 0-3.926 2.902-7.089 6.77-8.074h-19.542c3.869.984 6.771 4.147 6.771 8.074 0 4.703-4.079 8.517-9.111 8.517h3.226v6.032h6.454v6.032h-6.454v12.064H361.867V33.234h-6.454v-6.032h6.454V21.17h3.227c-5.033 0-9.112-3.814-9.112-8.517 0-3.926 2.902-7.089 6.769-8.074H343.21c3.868.984 6.77 4.147 6.77 8.074 0 4.703-4.079 8.517-9.111 8.517h3.226v6.032h6.454v6.032h-6.454v12.064h-6.452V33.234h-6.454v-6.032h6.454V21.17h3.226c-3.549 0-6.542-1.95-8.047-4.717l-7.727 10.75h1.229v6.032h-5.566l-.887 1.232V45.3h-6.455v-1.854l-12.072 16.793c.034.299.188.557.188.864 0 3.866-2.811 7.001-6.589 8.039l-.341.477h1.044v6.032h6.454v6.034h-6.454v12.064H289.192V81.684h-3.266L272.92 99.775V81.684h-1.499v12.064H264.967V81.684h-6.455V75.65h6.455v-6.032h3.228c-5.032 0-9.111-3.811-9.111-8.515 0-4.705 4.079-8.517 9.111-8.517 1.768 0 3.326.596 4.725 1.413V33.234h-1.499v12.064H264.967V33.234h-6.455v-6.032h6.455V21.17h3.228c-5.032 0-9.111-3.814-9.111-8.517 0-3.926 2.902-7.089 6.768-8.074h-19.54c3.868.984 6.769 4.147 6.769 8.074 0 4.703-4.079 8.517-9.112 8.517h3.229v6.032h6.454v6.032h-6.454v12.064h-6.455V33.234h-6.454v-6.032h6.454V21.17h3.226c-5.03 0-9.109-3.814-9.109-8.517 0-3.926 2.9-7.089 6.769-8.074h-19.54c3.866.984 6.768 4.147 6.768 8.074 0 4.703-4.079 8.517-9.111 8.517h3.228v6.032h6.455v6.032h-6.455v12.064H219.509v7.332c.085-.003.155-.046.237-.046 5.032 0 9.111 3.813 9.111 8.517 0 4.704-4.079 8.515-9.111 8.515h3.228v6.032h6.455v6.034h-6.455v12.064H219.509v7.33c.085-.002.155-.044.237-.044 5.032 0 9.111 3.813 9.111 8.515 0 4.705-4.079 8.518-9.111 8.518h3.228v6.033h6.455v6.032h-6.455v12.063H219.509v7.332c.085-.002.155-.046.237-.046 5.032 0 9.111 3.814 9.111 8.517 0 4.704-4.079 8.517-9.111 8.517h3.228v6.032h6.455v6.032h-6.455v12.064H219.509v7.331c.085-.002.155-.043.237-.043 5.032 0 9.111 3.812 9.111 8.516 0 4.702-4.079 8.517-9.111 8.517h3.228v2.648h17.771v-2.648h3.226c-5.03 0-9.109-3.814-9.109-8.517 0-4.704 4.079-8.516 9.109-8.516 5.033 0 9.112 3.812 9.112 8.516 0 4.702-4.079 8.517-9.112 8.517h3.229v2.648h17.771v-2.648h3.228c-5.032 0-9.111-3.814-9.111-8.517 0-4.704 4.079-8.516 9.111-8.516 1.768 0 3.326.595 4.725 1.411v-20.764h-1.499v12.064H264.971v-12.064h-6.455v-6.032h6.455v-6.032h3.228c-5.032 0-9.111-3.813-9.111-8.517 0-4.702 4.079-8.517 9.111-8.517 1.768 0 3.326.596 4.725 1.412v-5.249l10.501-14.605 5.771 8.616v-9.523h-6.452V124.1h6.452v-6.033h3.228c-5.032 0-9.111-3.813-9.111-8.518 0-4.702 4.079-8.515 9.111-8.515 5.033 0 9.111 3.813 9.111 8.515 0 4.705-4.078 8.518-9.111 8.518h3.226v6.033h6.454v6.032h-6.454v12.063h-4.752l5.517 8.236c3.006 1.393 5.12 4.22 5.12 7.566 0 .021-.013.037-.013.057l9.707 14.492h2.191v-6.032h3.229c-5.032 0-9.111-3.813-9.111-8.517 0-4.702 4.079-8.517 9.111-8.517 5.032 0 9.111 3.814 9.111 8.517 0 4.704-4.079 8.517-9.111 8.517h3.226v6.032h6.453v6.032h-6.453v6.877l12.416 18.536c1.146-3.483 4.483-6.061 8.582-6.061 5.032 0 9.111 3.812 9.111 8.516 0 4.702-4.079 8.517-9.111 8.517h3.226v2.648h17.772v-2.648h3.227c-5.033 0-9.112-3.814-9.112-8.517 0-4.704 4.079-8.516 9.112-8.516 5.032 0 9.111 3.812 9.111 8.516 0 4.702-4.079 8.517-9.111 8.517h3.226v2.648h17.772v-2.648h3.226c-5.032 0-9.111-3.814-9.111-8.517-.005-4.703 4.074-8.514 9.105-8.514zm-135.664-19.353h-6.454v12.064h-6.455v-12.064h-6.454v-6.032h6.454v-6.032h3.226c-5.03 0-9.109-3.813-9.109-8.517 0-4.702 4.079-8.517 9.109-8.517 5.033 0 9.112 3.814 9.112 8.517 0 4.704-4.079 8.517-9.112 8.517h3.229v6.032h6.454v6.032zm0-48.447h-6.454v12.063h-6.455v-12.063h-6.454V124.1h6.454v-6.033h3.226c-5.03 0-9.109-3.813-9.109-8.518 0-4.702 4.079-8.515 9.109-8.515 5.033 0 9.112 3.813 9.112 8.515 0 4.705-4.079 8.518-9.112 8.518h3.229v6.033h6.454v6.032zm0-48.448h-6.454v12.064h-6.455V81.684h-6.454V75.65h6.454v-6.032h3.226c-5.03 0-9.109-3.811-9.109-8.515 0-4.705 4.079-8.517 9.109-8.517 5.033 0 9.112 3.813 9.112 8.517 0 4.704-4.079 8.515-9.112 8.515h3.229v6.032h6.454v6.034zm24.225 48.448h-6.455v12.063H264.968v-12.063h-6.455V124.1h6.455v-6.033h3.228c-5.032 0-9.111-3.813-9.111-8.518 0-4.702 4.079-8.515 9.111-8.515 5.03 0 9.111 3.813 9.111 8.515 0 4.705-4.081 8.518-9.111 8.518h3.226v6.033h6.455v6.032zm48.447 0h-6.453v12.063h-6.455v-12.063h-6.451V124.1h6.451v-6.033h3.229c-5.032 0-9.111-3.813-9.111-8.518 0-4.702 4.079-8.515 9.111-8.515 5.032 0 9.111 3.813 9.111 8.515 0 4.705-4.079 8.518-9.111 8.518h3.226v6.033h6.453v6.032zm0-48.448h-6.453v12.064h-6.455V81.684h-6.451V75.65h6.451v-6.032h3.229c-5.032 0-9.111-3.811-9.111-8.515 0-4.705 4.079-8.517 9.111-8.517 5.032 0 9.111 3.813 9.111 8.517 0 4.704-4.079 8.515-9.111 8.515h3.226v6.032h6.453v6.034zm24.224 96.895h-6.454v12.064h-6.452v-12.064h-6.454v-6.032h6.454v-6.032h3.226c-5.032 0-9.111-3.813-9.111-8.517 0-4.702 4.079-8.517 9.111-8.517s9.111 3.814 9.111 8.517c0 4.704-4.079 8.517-9.111 8.517h3.226v6.032h6.454v6.032z"/><path fill="#4EA8CF" d="M392.542 217.612h13.449l-7.603-10.986c-.107 4.615-4.107 8.338-9.071 8.338h3.226v2.648zM365.093 163.008c.958 0 1.675-.539 2.455-.953l-5.466-7.898c-1.339.91-2.347 2.174-2.347 3.842 0 2.765 2.399 5.009 5.358 5.009M365.093 7.647c-2.959 0-5.358 2.24-5.358 5.006s2.399 5.008 5.358 5.008c2.958 0 5.357-2.242 5.357-5.008s-2.399-5.006-5.357-5.006M243.97 7.647c-2.958 0-5.355 2.24-5.355 5.006s2.397 5.008 5.355 5.008c2.961 0 5.358-2.242 5.358-5.008s-2.397-5.006-5.358-5.006M268.197 211.455c2.361 0 4.013-1.597 4.725-3.583v-2.853c-.712-1.984-2.363-3.58-4.725-3.58-2.961 0-5.358 2.242-5.358 5.008-.001 2.764 2.397 5.008 5.358 5.008M268.197 163.008c2.361 0 4.013-1.599 4.725-3.583v-2.852c-.712-1.986-2.363-3.583-4.725-3.583-2.961 0-5.358 2.242-5.358 5.008s2.397 5.01 5.358 5.01M413.54 104.541c-.829 0-1.423.51-2.124.824-.063 1.99-.408 3.761-.408 5.803 0 .864.145 1.618.158 2.47.761.388 1.447.919 2.375.919 2.959 0 5.358-2.239 5.358-5.008-.001-2.764-2.4-5.008-5.359-5.008M467.346 12.653c0-.997-.593-1.773-1.132-2.554-2.987 1.397-5.903 2.895-8.68 4.592.875 1.654 2.347 2.97 4.455 2.97 2.96 0 5.357-2.242 5.357-5.008M564.244 12.653c0-.975-.592-1.727-1.105-2.494-1.699-.816-3.575-1.375-5.342-2.093-2.362.522-4.269 2.218-4.269 4.586 0 2.766 2.399 5.008 5.356 5.008 2.961.001 5.36-2.241 5.36-5.007M586.335 27.202h.727c-.228-.227-.494-.401-.727-.624v.624zM607.334 66.11c1.299 0 2.402-.57 3.327-1.289-1.035-3.04-2.604-5.659-3.873-8.515-2.661.291-4.812 2.229-4.812 4.796.001 2.764 2.399 5.008 5.358 5.008M611.571 68.514c-1.281.646-2.68 1.104-4.237 1.104h3.228v6.032h2.711c-.571-2.377-1.006-4.86-1.702-7.136M411.446 118.066h2.094c-.751 0-1.42-.239-2.119-.399.006.134.02.263.025.399M601.977 109.549c0 2.769 2.398 5.008 5.357 5.008s5.357-2.239 5.357-5.008c0-2.764-2.398-5.008-5.357-5.008s-5.357 2.244-5.357 5.008M529.306 206.447c0 2.764 2.397 5.008 5.356 5.008 2.96 0 5.355-2.244 5.355-5.008 0-2.766-2.396-5.008-5.355-5.008-2.959 0-5.356 2.243-5.356 5.008M505.081 206.447c0 2.764 2.397 5.008 5.357 5.008 2.959 0 5.356-2.244 5.356-5.008 0-2.766-2.397-5.008-5.356-5.008s-5.357 2.243-5.357 5.008M480.856 206.447c0 2.764 2.399 5.008 5.358 5.008 2.958 0 5.355-2.244 5.355-5.008 0-2.766-2.397-5.008-5.355-5.008-2.959 0-5.358 2.243-5.358 5.008M432.408 157.998c0 2.766 2.397 5.01 5.356 5.01 2.958 0 5.357-2.244 5.357-5.01s-2.399-5.008-5.357-5.008-5.356 2.242-5.356 5.008M432.408 61.102c0 2.764 2.397 5.008 5.356 5.008 2.958 0 5.357-2.244 5.357-5.008 0-2.766-2.399-5.008-5.357-5.008s-5.356 2.242-5.356 5.008M432.408 109.549c0 2.769 2.397 5.008 5.356 5.008 2.958 0 5.357-2.239 5.357-5.008 0-2.764-2.399-5.008-5.357-5.008s-5.356 2.244-5.356 5.008M456.633 157.998c0 2.766 2.397 5.01 5.357 5.01 2.959 0 5.356-2.244 5.356-5.01s-2.397-5.008-5.356-5.008c-2.96 0-5.357 2.242-5.357 5.008M480.856 12.653c0 2.766 2.399 5.008 5.358 5.008 2.958 0 5.355-2.242 5.355-5.008s-2.397-5.006-5.355-5.006c-2.959 0-5.358 2.24-5.358 5.006M529.306 12.653c0 2.766 2.397 5.008 5.356 5.008 2.96 0 5.355-2.242 5.355-5.008s-2.396-5.006-5.355-5.006c-2.959 0-5.356 2.24-5.356 5.006M505.081 12.653c0 2.766 2.397 5.008 5.357 5.008 2.959 0 5.356-2.242 5.356-5.008s-2.397-5.006-5.356-5.006-5.357 2.24-5.357 5.006M456.633 61.102c0 2.764 2.397 5.008 5.357 5.008 2.959 0 5.356-2.244 5.356-5.008 0-2.766-2.397-5.008-5.356-5.008-2.96 0-5.357 2.242-5.357 5.008M466.549 116.757c-1.359.758-2.862 1.31-4.559 1.31h3.227v6.033h1.729a157.015 157.015 0 0 1-.397-7.343M555.659 69.617h3.226c-1.56 0-2.959-.464-4.244-1.109.371.841.669 1.815 1.019 2.696v-1.587zM466.25 111.168c0-1.299.179-2.362.207-3.622-.868-1.673-2.347-3.005-4.467-3.005-2.96 0-5.357 2.244-5.357 5.008 0 2.769 2.397 5.008 5.357 5.008 1.962 0 3.368-1.152 4.302-2.624-.002-.278-.042-.488-.042-.765M562.097 105.784c.057 1.805.292 3.353.292 5.24 0 .82-.104 1.421-.112 2.222 1.153-.918 1.968-2.167 1.968-3.697-.001-1.593-.907-2.847-2.148-3.765M553.528 61.102c0 2.764 2.399 5.008 5.356 5.008 2.96 0 5.359-2.244 5.359-5.008 0-2.766-2.399-5.008-5.359-5.008-2.956 0-5.356 2.242-5.356 5.008M553.528 157.998c0 2.766 2.399 5.01 5.356 5.01 2.96 0 5.359-2.244 5.359-5.01s-2.399-5.008-5.359-5.008c-2.956 0-5.356 2.242-5.356 5.008M577.752 61.102c0 2.764 2.4 5.008 5.357 5.008 2.959 0 5.357-2.244 5.357-5.008 0-2.766-2.398-5.008-5.357-5.008-2.957 0-5.357 2.242-5.357 5.008M577.752 109.549c0 2.769 2.4 5.008 5.357 5.008 2.959 0 5.357-2.239 5.357-5.008 0-2.764-2.398-5.008-5.357-5.008-2.957 0-5.357 2.244-5.357 5.008M577.752 157.998c0 2.766 2.4 5.01 5.357 5.01 2.959 0 5.357-2.244 5.357-5.01s-2.398-5.008-5.357-5.008c-2.957 0-5.357 2.242-5.357 5.008"/><path fill="#4EA8CF" d="M592.791 178.579h-6.456v12.064h-6.452v-12.064h-6.453v-6.032h6.453v-6.032h3.226c-5.031 0-9.11-3.813-9.11-8.517 0-4.702 4.079-8.517 9.11-8.517 5.032 0 9.111 3.814 9.111 8.517 0 4.704-4.079 8.517-9.111 8.517h3.226v6.032h6.456v6.032z"/><path fill="#4EA8CF" d="M616.743 124.1c.367-4.255.888-8.386.888-12.932 0-10.603-1.177-20.27-2.92-29.484h-4.149v12.064H604.108V81.684h-6.453V75.65h6.453v-6.032h3.226c-5.031 0-9.11-3.811-9.11-8.515 0-4.021 3.043-7.233 7.051-8.129-3.487-7.143-7.663-13.736-12.583-19.739h-6.356v12.064h-6.452V33.234h-6.453v-6.032h6.453V21.17h.175c-.527-.423-1.008-.921-1.545-1.332a8.683 8.683 0 0 1-2.657-2.29c-2.494-1.749-5.251-3.114-7.923-4.604-.173 4.559-4.127 8.225-9.049 8.225h3.228v6.032h6.454v6.032h-6.454v12.064H555.659V33.234h-6.453v-6.032h6.453V21.17h3.226c-5.031 0-9.11-3.814-9.11-8.517 0-2.582 1.297-4.818 3.236-6.38C541.41 2.268 528.61 0 514.247 0c-16.795 0-31.596 2.865-44.619 8.291.852 1.295 1.471 2.733 1.471 4.362 0 4.703-4.079 8.517-9.109 8.517h3.227v6.032h6.453v6.032h-6.453v12.064h-6.455V33.234h-6.454v-6.032h6.454V21.17h3.228c-3.502 0-6.448-1.907-7.973-4.616-4.491 3.038-8.489 6.784-12.405 10.648h5.834v6.032h-6.454v12.064H434.538V35.143c-5.19 6.684-9.639 13.95-13.043 22.032.676 1.19 1.157 2.483 1.157 3.927 0 3.371-2.14 6.225-5.181 7.604-.248.835-.474 1.687-.703 2.534v4.409h6.452v6.034h-6.452v12.064h-4.144c-.264 2.58-.778 4.963-.929 7.634.616-.121 1.191-.348 1.844-.348 5.033 0 9.112 3.813 9.112 8.515 0 4.705-4.079 8.518-9.112 8.518h3.229v6.033h6.452v6.032h-6.452v12.063h-2.3c.55 2.565.887 5.294 1.571 7.759 3.789 1.029 6.612 4.169 6.612 8.044 0 2.032-.867 3.818-2.134 5.282 2.167 5.193 4.674 10.131 7.567 14.771v-5.505h6.454v-6.032h3.226c-5.032 0-9.111-3.813-9.111-8.517 0-4.702 4.079-8.517 9.111-8.517s9.111 3.814 9.111 8.517c0 4.704-4.079 8.517-9.111 8.517h3.228v6.032h6.454v6.032h-6.454v12.064h-3.625c.421.48.701 1.065 1.131 1.536 4.445 4.854 9.465 8.871 14.765 12.487.898-3.818 4.369-6.735 8.726-6.735 5.03 0 9.109 3.812 9.109 8.516 0 2.562-1.269 4.785-3.185 6.347 4.799 2.063 9.769 3.879 15.071 5.21v-3.04h3.229c-5.033 0-9.112-3.814-9.112-8.517 0-4.704 4.079-8.516 9.112-8.516 5.032 0 9.111 3.812 9.111 8.516 0 4.702-4.079 8.517-9.111 8.517h3.226v4.16c3.73.714 7.362 1.57 11.318 1.959v-.087h6.451v-6.032h3.229c-5.032 0-9.111-3.814-9.111-8.517 0-4.704 4.079-8.516 9.111-8.516 5.031 0 9.11 3.812 9.11 8.516 0 4.702-4.079 8.517-9.11 8.517h3.226v6.032h6.453v.695c1.593-.179 3.24-.275 4.866-.414v-.281h3.327c1.024-.114 2.116-.129 3.124-.267v-5.766h3.228c-5.033 0-9.112-3.814-9.112-8.517 0-4.704 4.079-8.516 9.112-8.516 5.032 0 9.111 3.812 9.111 8.516 0 4.702-4.079 8.517-9.111 8.517h3.227v4.891c6.208-1.203 12.182-2.744 17.771-4.847v-.044h.127c.352-.134.721-.244 1.072-.383-4.023-.883-7.084-4.103-7.084-8.134 0-4.704 4.079-8.516 9.11-8.516 5.034 0 9.113 3.812 9.113 8.516a7.99 7.99 0 0 1-.699 3.231c2.279-1.24 4.664-2.325 6.814-3.756.301-4.445 4.165-7.991 8.996-7.991.177 0 .326.085.502.095 2.099-1.871 4.437-3.397 6.386-5.488 3.967-4.258 7.3-9.021 10.413-13.959h-2.755v-6.032h6.153c.112-.209.188-.446.3-.654v-5.378h2.448l.063-.134c-4.681-.36-8.396-3.916-8.396-8.383 0-4.702 4.079-8.517 9.11-8.517 1.849 0 3.469.642 4.905 1.526 1.835-6.582 3.161-13.57 4.09-20.876h-5.768v12.063H604.105v-12.063h-6.453V124.1h6.453v-6.033h3.226c-5.031 0-9.11-3.813-9.11-8.518 0-4.702 4.079-8.515 9.11-8.515 5.032 0 9.111 3.813 9.111 8.515 0 4.705-4.079 8.518-9.111 8.518h3.228v6.033h6.184zm-169.297 6.032h-6.454v12.063H434.538v-12.063h-6.454V124.1h6.454v-6.033h3.226c-5.032 0-9.111-3.813-9.111-8.518 0-4.702 4.079-8.515 9.111-8.515s9.111 3.813 9.111 8.515c0 4.705-4.079 8.518-9.111 8.518h3.228v6.033h6.454v6.032zm0-48.448h-6.454v12.064H434.538V81.684h-6.454V75.65h6.454v-6.032h3.226c-5.032 0-9.111-3.811-9.111-8.515 0-4.705 4.079-8.517 9.111-8.517s9.111 3.813 9.111 8.517c0 4.704-4.079 8.515-9.111 8.515h3.228v6.032h6.454v6.034zm29.087-54.482h6.453V21.17h3.229c-5.033 0-9.112-3.814-9.112-8.517 0-4.704 4.079-8.515 9.112-8.515 5.032 0 9.111 3.811 9.111 8.515 0 4.703-4.079 8.517-9.111 8.517h3.226v6.032h6.453v6.032h-6.453v12.064h-6.455V33.234h-6.453v-6.032zm-4.863 151.377h-6.453v12.064h-6.455v-12.064h-6.454v-6.032h6.454v-6.032h3.228c-5.032 0-9.111-3.813-9.111-8.517 0-4.702 4.079-8.517 9.111-8.517 5.03 0 9.109 3.814 9.109 8.517 0 4.704-4.079 8.517-9.109 8.517h3.227v6.032h6.453v6.032zm96.896-96.895h-6.454v12.064h-1.004c.274 2.582.589 5.106.752 7.847 3.554 1.164 6.138 4.239 6.138 7.954 0 3.652-2.484 6.709-5.94 7.92-.006.205-.022.393-.031.598h.086v6.033h6.454v6.032h-6.454v12.063h-3.201c-.104.375-.137.898-.247 1.261-.698 2.329-1.677 4.383-2.543 6.548.885-.269 1.784-.522 2.764-.522 5.034 0 9.113 3.814 9.113 8.517 0 4.704-4.079 8.517-9.113 8.517h3.228v6.032h6.454v6.032h-6.454v12.064H555.66V178.58h-6.453v-6.032h6.453v-6.032h3.226c-3.823 0-7.072-2.212-8.423-5.335-.82 1.302-1.495 2.748-2.398 3.971-2.129 2.84-4.465 5.297-6.992 7.396h3.271v6.032h-6.453v12.064h-6.455V178.58h-.927c-5.233 2.092-10.589 3.323-16.117 3.323-.247 0-.482-.071-.727-.075v8.816h-6.455v-9.482c-3.687-.603-7.326-1.51-10.873-3.049-.156-.068-.289-.202-.443-.271v.737h-6.453v12.064h-6.455v-12.064h-6.453v-6.032h6.453v-4.763c-.735-.831-1.557-1.435-2.263-2.347-.305-.397-.524-.924-.819-1.334-1.111-1.002-1.831-2.295-2.284-3.713-2.97-4.86-5.592-10.232-7.503-16.647-1.199-4.021-2.058-8.629-2.7-13.611h-2.199v12.063h-6.455v-12.063h-6.454V124.1h6.454v-6.033h3.228c-5.032 0-9.111-3.813-9.111-8.518 0-4.702 4.079-8.515 9.111-8.515 1.786 0 3.354.604 4.762 1.435.429-7.619 1.38-14.563 2.886-20.785h-4.421v12.064h-6.455V81.684h-6.454V75.65h6.454v-6.032h3.228c-5.032 0-9.111-3.811-9.111-8.515 0-4.705 4.079-8.517 9.111-8.517 5.03 0 9.109 3.813 9.109 8.517 0 4.704-4.079 8.515-9.109 8.515h3.227v6.032h6.118c1.733-5.058 3.744-9.508 6.018-13.398-.061-.392-.25-.741-.25-1.149 0-4.096 3.155-7.354 7.277-8.171 3.928-4.044 7.936-7.314 12.1-9.133 3.313-1.445 6.946-2.288 10.73-2.841v-7.722h-6.451v-6.032h6.451V21.17h3.229c-5.032 0-9.111-3.814-9.111-8.517 0-4.704 4.079-8.515 9.111-8.515 5.031 0 9.11 3.811 9.11 8.515 0 4.703-4.079 8.517-9.11 8.517h3.226v6.032h6.453v6.032h-6.453v7.121c.252-.003.473-.066.727-.066 5.881 0 11.549 1.225 17.044 3.494V33.234h-6.451v-6.032h6.451V21.17h3.228c-5.033 0-9.112-3.814-9.112-8.517 0-4.704 4.079-8.515 9.112-8.515 5.032 0 9.111 3.811 9.111 8.515 0 4.703-4.079 8.517-9.111 8.517h3.227v6.032h6.453v6.032h-6.453v12.064h-3.534c4.954 2.573 9.526 6.192 13.562 11.314.772 1.006 1.366 2.335 2.084 3.443.575-4.186 4.25-7.471 8.884-7.471 5.034 0 9.113 3.813 9.113 8.517 0 4.704-4.079 8.515-9.113 8.515h3.228v6.032h6.454v6.036zm24.225 48.448h-6.456v12.063h-6.452v-12.063h-6.453V124.1h6.453v-6.033h3.226c-5.031 0-9.11-3.813-9.11-8.518 0-4.702 4.079-8.515 9.11-8.515 5.032 0 9.111 3.813 9.111 8.515 0 4.705-4.079 8.518-9.111 8.518h3.226v6.033h6.456v6.032zm0-48.448h-6.456v12.064h-6.452V81.684h-6.453V75.65h6.453v-6.032h3.226c-5.031 0-9.11-3.811-9.11-8.515 0-4.705 4.079-8.517 9.11-8.517 5.032 0 9.111 3.813 9.111 8.517 0 4.704-4.079 8.515-9.111 8.515h3.226v6.032h6.456v6.034zM685.363 12.653c0-1.605-.92-2.86-2.178-3.777-2.9 1.19-5.766 2.435-8.485 3.892.075 2.703 2.396 4.894 5.308 4.894 2.959-.001 5.355-2.243 5.355-5.009M782.261 12.653c0-2.766-2.397-5.006-5.356-5.006-2.96 0-5.357 2.24-5.357 5.006s2.397 5.008 5.357 5.008c2.958 0 5.356-2.242 5.356-5.008M796.326 13.911c.431 1.364 1.315 2.313 2.663 2.922v-1.935c-.831-.367-1.811-.632-2.663-.987M796.827 63.483h2.162v-6.562c-1.789.809-3.22 2.196-3.22 4.18.001.932.585 1.636 1.058 2.382M751.945 166.515h.734c-.254 0-.468-.115-.714-.134-.012.04-.007.094-.02.134M806.127 164.93c-1.455.921-3.109 1.585-4.999 1.585h3.229v4.269c.595-1.948 1.362-3.813 1.77-5.854M747.322 206.447c0 2.764 2.398 5.008 5.357 5.008s5.356-2.244 5.356-5.008c0-2.766-2.397-5.008-5.356-5.008s-5.357 2.243-5.357 5.008M723.098 206.447c0 2.764 2.4 5.008 5.359 5.008 2.957 0 5.355-2.244 5.355-5.008 0-2.766-2.398-5.008-5.355-5.008-2.959 0-5.359 2.243-5.359 5.008M698.873 206.447c0 2.764 2.4 5.008 5.359 5.008 2.957 0 5.355-2.244 5.355-5.008 0-2.766-2.398-5.008-5.355-5.008-2.959 0-5.359 2.243-5.359 5.008M674.65 206.447c0 2.764 2.396 5.008 5.357 5.008 2.959 0 5.355-2.244 5.355-5.008 0-2.766-2.396-5.008-5.355-5.008-2.96 0-5.357 2.243-5.357 5.008M723.098 109.549c0 2.769 2.4 5.008 5.359 5.008 2.957 0 5.355-2.239 5.355-5.008 0-2.764-2.398-5.008-5.355-5.008-2.959 0-5.359 2.244-5.359 5.008M698.873 109.549c0 2.769 2.4 5.008 5.359 5.008 2.957 0 5.355-2.239 5.355-5.008 0-2.764-2.398-5.008-5.355-5.008-2.959 0-5.359 2.244-5.359 5.008M674.65 109.549c0 2.769 2.396 5.008 5.357 5.008 2.959 0 5.355-2.239 5.355-5.008 0-2.764-2.396-5.008-5.355-5.008-2.96 0-5.357 2.244-5.357 5.008M747.322 12.653c0 2.766 2.398 5.008 5.357 5.008s5.356-2.242 5.356-5.008-2.397-5.006-5.356-5.006-5.357 2.24-5.357 5.006M723.098 12.653c0 2.766 2.4 5.008 5.359 5.008 2.957 0 5.355-2.242 5.355-5.008s-2.398-5.006-5.355-5.006c-2.959 0-5.359 2.24-5.359 5.006M698.873 12.653c0 2.766 2.4 5.008 5.359 5.008 2.957 0 5.355-2.242 5.355-5.008s-2.398-5.006-5.355-5.006c-2.959 0-5.359 2.24-5.359 5.006M650.426 61.102c0 2.764 2.398 5.008 5.355 5.008 2.961 0 5.359-2.244 5.359-5.008 0-2.766-2.398-5.008-5.359-5.008-2.957 0-5.355 2.242-5.355 5.008M674.65 61.102c0 2.764 2.396 5.008 5.357 5.008 2.959 0 5.355-2.244 5.355-5.008 0-2.766-2.396-5.008-5.355-5.008-2.96 0-5.357 2.242-5.357 5.008M747.322 109.549c0 2.769 2.398 5.008 5.357 5.008s5.356-2.239 5.356-5.008c0-2.764-2.397-5.008-5.356-5.008s-5.357 2.244-5.357 5.008M771.547 157.998c0 2.766 2.397 5.01 5.357 5.01 2.959 0 5.356-2.244 5.356-5.01s-2.397-5.008-5.356-5.008c-2.96 0-5.357 2.242-5.357 5.008"/><path fill="#4EA8CF" d="M804.356 130.177v12.019H797.9v-12.063h-6.453V124.1h6.453v-6.033h.189c-.134-.193-.192-.445-.329-.635-2.668-.999-4.568-3.169-5.296-5.808-2.217-2.231-5.065-4.155-7.729-6.171.741 1.234 1.278 2.582 1.278 4.096 0 4.705-4.079 8.518-9.11 8.518h3.226v6.033h6.453v6.032h-6.453v12.063H773.676v-12.063h-6.453V124.1h6.453v-6.033h3.227c-5.032 0-9.111-3.813-9.111-8.518 0-4.702 4.079-8.515 9.111-8.515.994 0 1.905.254 2.803.529-4.672-2.901-9.94-5.517-16.054-7.722-2.748-.972-5.118-1.472-7.748-2.292v2.198h-6.452V89.64c-2.314-.636-4.882-1.591-7.094-2.098-3.427-.787-7.115-1.624-10.678-2.439v8.645h-6.455V83.631c-1.224-.279-2.347-.537-3.587-.818-3.078-.716-5.208-1.512-7.729-2.273v1.145h-6.453v12.064H701.002V81.684h-6.454V75.65h6.454v-.528c-.493-.334-1.396-.629-1.807-.969-3.873-3.196-5.808-7.517-5.808-12.962 0-3.678 1.214-7.001 3.65-9.977 2.14-2.612 4.778-4.431 7.627-5.915H701V33.234h-6.454v-6.032H701V21.17h3.228c-5.032 0-9.111-3.814-9.111-8.517 0-4.704 4.079-8.515 9.111-8.515 5.031 0 9.11 3.811 9.11 8.515 0 4.703-4.079 8.517-9.11 8.517h3.226v6.032h6.453v6.032h-6.453v10.687c3.448-1.453 6.828-2.691 10.003-3.253 2.297-.405 5.11-.453 7.767-.609v-6.825h-6.452v-6.032h6.452V21.17h3.229c-5.034 0-9.113-3.814-9.113-8.517 0-4.704 4.079-8.515 9.113-8.515 5.031 0 9.11 3.811 9.11 8.515 0 4.703-4.079 8.517-9.11 8.517h3.226v6.032h6.453v6.032h-6.453v6.624c5.997.125 11.927.758 17.771 2.012v-8.636H743v-6.032h6.454V21.17h3.226c-5.032 0-9.111-3.814-9.111-8.517 0-4.704 4.079-8.515 9.111-8.515 5.031 0 9.11 3.811 9.11 8.515 0 4.703-4.079 8.517-9.11 8.517h3.226v6.032h6.455v6.032h-6.455v10.562c3.117.905 6.268 1.549 9.341 2.787 4.633 1.868 8.823 3.998 12.844 6.227 2.858.364 5.232 1.898 6.606 4.142 2.555 1.677 5.229 3.283 7.527 5.109-.041-.329-.208-.618-.208-.958 0-3.995 3.005-7.195 6.974-8.114V45.3h-1.09V33.234h-6.453v-6.032h6.453V21.17h1.089v-.403c-3.969-.919-6.974-4.12-6.974-8.114 0-.112.064-.204.07-.316-2.126-.805-4.416-1.499-6.625-2.247.283.82.554 1.655.554 2.563 0 4.703-4.079 8.517-9.11 8.517h3.226v6.032h6.453v6.032h-6.453v12.064H773.677V33.234h-6.453v-6.032h6.453V21.17h3.227c-5.032 0-9.111-3.814-9.111-8.517 0-2.748 1.482-5.076 3.64-6.633-2.065-.511-4.006-1.105-6.166-1.551A188.274 188.274 0 0 0 727.396.611c-15.001 0-28.342 2.446-40.39 6.794 1.254 1.458 2.112 3.233 2.112 5.249 0 4.703-4.08 8.517-9.11 8.517h3.226v6.032h6.453v6.032h-6.453v12.064H676.78V33.234h-6.453v-6.032h6.453V21.17h3.228c-4.225 0-7.619-2.742-8.651-6.385-2.43 1.44-4.98 2.707-7.259 4.371-1.901 1.394-3.411 2.961-5.089 4.455v3.592h6.455v6.032h-6.455v12.064H652.555V33.234h-2.374c-5.322 7.297-8.881 15.386-10.317 24.43.502 1.056.806 2.207.806 3.438 0 1.771-.716 3.325-1.707 4.689-.019.636-.206 1.197-.206 1.841 0 2.917.772 5.3 1.06 8.017h1.423v6.034h-.627c1.599 8.235 4.102 15.846 8.524 22.126a9.308 9.308 0 0 1 6.645-2.775c5.032 0 9.111 3.813 9.111 8.515 0 2.636-1.354 4.899-3.362 6.461 4.085 2.934 8.618 5.674 13.909 8.09h1.341v-6.033h3.228c-5.032 0-9.111-3.813-9.111-8.518 0-4.702 4.079-8.515 9.111-8.515 5.03 0 9.11 3.813 9.11 8.515 0 4.705-4.08 8.518-9.11 8.518h3.226v6.033h6.453v5.218c3.715 1.068 7.443 2.124 11.318 3.081v-2.267h-6.454V124.1h6.454v-6.033h3.228c-5.032 0-9.111-3.813-9.111-8.518 0-4.702 4.079-8.515 9.111-8.515 5.031 0 9.11 3.813 9.11 8.515 0 4.705-4.079 8.518-9.11 8.518h3.226v6.033h6.453v6.032h-6.453v4.024c.275.059.498.154.778.213 6.028 1.251 11.494 2.612 16.991 3.966v-8.203h-6.452V124.1h6.452v-6.033h3.229c-5.034 0-9.113-3.813-9.113-8.518 0-4.702 4.079-8.515 9.113-8.515 5.031 0 9.11 3.813 9.11 8.515 0 4.705-4.079 8.518-9.11 8.518h3.226v6.033h6.453v6.032h-6.453v9.746c5.756 1.528 10.747 3.926 14.913 7.232 1.116.887 1.69 2.03 2.511 3.059a9.607 9.607 0 0 1 3.573-.688c5.031 0 9.11 3.814 9.11 8.517 0 4.704-4.079 8.517-9.11 8.517h3.226v6.032h6.455v6.032h-6.455v12.064h-6.452v-12.064H743v-2.646c-1.199.754-2.076 1.867-3.424 2.452-2.111.981-4.857 1.716-7.894 2.335v9.924h-6.455v-8.879c-3.921.466-7.32.749-9.872.749-2.594 0-5.271-.556-7.897-.776v8.906H701.004v-9.541a127.417 127.417 0 0 1-12.385-2.523h-5.387v12.064H676.778V178.58h-6.453v-6.032h1.824c-4.475-1.955-8.77-4.252-13.001-6.668a9.549 9.549 0 0 1-3.369.636h3.228v6.032h6.455v6.032h-6.455v12.064H652.553V178.58H646.1v-6.032h6.453v-6.032h3.226c-5.03 0-9.109-3.813-9.109-8.517 0-.16.089-.296.1-.454-1.431-1.085-2.976-1.942-4.36-3.11h-2.637c.544 1.093.896 2.281.896 3.564 0 2.54-1.245 4.754-3.133 6.315v8.233h3.702v6.032h-3.702v21.555c1.812 1.499 2.983 3.611 3.071 6.032 2.182.719 4.395 1.408 6.479 2.209-.164-.637-.416-1.244-.416-1.928 0-4.704 4.079-8.516 9.109-8.516 5.032 0 9.111 3.812 9.111 8.516 0 2.797-1.536 5.16-3.765 6.713 3.722 1.144 6.957 2.707 10.854 3.7 1.496.379 3.229.571 4.799.892v-2.788h3.228c-5.032 0-9.111-3.814-9.111-8.517 0-4.704 4.079-8.516 9.111-8.516 5.03 0 9.11 3.812 9.11 8.516 0 4.702-4.08 8.517-9.11 8.517h3.226v3.993a209.044 209.044 0 0 0 17.771 1.903v-5.896h3.228c-5.032 0-9.111-3.814-9.111-8.517 0-4.704 4.079-8.516 9.111-8.516 5.031 0 9.11 3.812 9.11 8.516 0 4.702-4.079 8.517-9.11 8.517h3.226v6.032h6.453v.526c.39.002.712.059 1.104.059 1.33 0 2.467-.215 3.761-.25v-.335h5.012c.48-.033.966-.059 1.44-.098v-5.935h3.229c-5.034 0-9.113-3.814-9.113-8.517 0-4.704 4.079-8.516 9.113-8.516 5.031 0 9.11 3.812 9.11 8.516 0 4.702-4.079 8.517-9.11 8.517h3.226v5.507c6.214-.772 12.146-1.858 17.771-3.279v-2.228h3.226c-5.032 0-9.111-3.814-9.111-8.517 0-4.704 4.079-8.516 9.111-8.516 5.031 0 9.11 3.812 9.11 8.516 0 4.702-4.079 8.517-9.11 8.517h3.226v.066c4.438-1.44 9.25-2.463 13.21-4.427-.765-1.249-1.322-2.615-1.322-4.156 0-4.704 4.079-8.516 9.111-8.516 2.806 0 5.221 1.255 6.893 3.118 5.922-4.802 10.386-10.332 14.104-16.236v-6.234h-6.453v-6.032h6.453v-6.032h3.228c-5.033 0-9.112-3.813-9.112-8.517 0-4.702 4.079-8.517 9.112-8.517 2.467 0 4.688.935 6.329 2.424.002-.274.079-.51.079-.785-.001-7.826-1.162-14.73-3.181-20.942zM665.464 81.684h-6.455v12.064H652.555V81.684h-6.453V75.65h6.453v-6.032h3.226c-5.03 0-9.109-3.811-9.109-8.515 0-4.705 4.079-8.517 9.109-8.517 5.032 0 9.111 3.813 9.111 8.517 0 4.704-4.079 8.515-9.111 8.515h3.228v6.032h6.455v6.034zm24.223 0h-6.453v12.064H676.78V81.684h-6.453V75.65h6.453v-6.032h3.228c-5.032 0-9.111-3.811-9.111-8.515 0-4.705 4.079-8.517 9.111-8.517 5.03 0 9.11 3.813 9.11 8.517 0 4.704-4.08 8.515-9.11 8.515h3.226v6.032h6.453v6.034zm72.673 48.448h-6.455v12.063h-6.452v-12.063H743V124.1h6.454v-6.033h3.226c-5.032 0-9.111-3.813-9.111-8.518 0-4.702 4.079-8.515 9.111-8.515 5.031 0 9.11 3.813 9.11 8.515 0 4.705-4.079 8.518-9.11 8.518h3.226v6.033h6.455v6.032zm24.223 48.447h-6.453v12.064H773.677v-12.064h-6.453v-6.032h6.453v-6.032h3.227c-5.032 0-9.111-3.813-9.111-8.517 0-4.702 4.079-8.517 9.111-8.517 5.031 0 9.11 3.814 9.11 8.517 0 4.704-4.079 8.517-9.11 8.517h3.226v6.032h6.453v6.032z"/><path fill="#4EA8CF" d="M776.904 114.557c2.959 0 5.356-2.239 5.356-5.008 0-2.764-2.397-5.008-5.356-5.008-2.96 0-5.357 2.244-5.357 5.008 0 2.768 2.397 5.008 5.357 5.008M655.781 104.541c-1.778 0-3.134.94-4.106 2.19a51.058 51.058 0 0 0 6.819 6.777c1.491-.891 2.646-2.183 2.646-3.96.001-2.763-2.398-5.007-5.359-5.007M749.454 170.887c-.175.219-.236.521-.422.729-.354.399-.923.556-1.3.931h1.722v-1.66zM751.456 153.465c.887 2.034 1.447 4.223 1.447 6.678 0 1.03-.298 1.847-.417 2.788.075.004.117.077.193.077 2.959 0 5.356-2.244 5.356-5.01s-2.397-5.008-5.356-5.008c-.478 0-.783.366-1.223.475M806.485 157.998c0-2.766-2.399-5.008-5.357-5.008-2.959 0-5.358 2.242-5.358 5.008s2.399 5.01 5.358 5.01c2.958 0 5.357-2.244 5.357-5.01M827.966 154.434h-4.873v7.697c.733.353 1.377.877 2.258.877 2.96 0 5.359-2.244 5.359-5.01 0-.938-.585-1.653-1.066-2.405-.536-.433-1.15-.712-1.678-1.159M825.585 56.184c-.57 3.104-.975 6.283-1.067 9.604.312.049.508.322.833.322 2.96 0 5.359-2.244 5.359-5.008 0-2.68-2.293-4.786-5.125-4.918M840.5 27.202h5.85v-5.225c-2.054 1.696-4.088 3.399-5.85 5.225M879.157 12.653c0-2.766-2.396-5.006-5.355-5.006-2.961 0-5.357 2.24-5.357 5.006s2.396 5.008 5.357 5.008c2.959 0 5.355-2.242 5.355-5.008M976.056 12.653c0-.423-.375-.689-.48-1.081-2.589-.94-5.063-1.959-7.807-2.792-1.38.907-2.43 2.178-2.43 3.873 0 2.766 2.4 5.008 5.359 5.008 2.957 0 5.358-2.242 5.358-5.008M847.297 21.17h2.278c-.66 0-1.243-.227-1.866-.353-.146.114-.269.237-.412.353M824.575 69.617h.775c-.281 0-.519-.125-.796-.151.003.055.019.099.021.151M823.093 166.515h2.258c-.8 0-1.517-.244-2.258-.427v.427zM916.892 206.447c0 2.764 2.4 5.008 5.357 5.008 2.959 0 5.359-2.244 5.359-5.008 0-2.766-2.4-5.008-5.359-5.008-2.957 0-5.357 2.243-5.357 5.008M892.667 206.447c0 2.764 2.4 5.008 5.357 5.008 2.959 0 5.357-2.244 5.357-5.008 0-2.766-2.398-5.008-5.357-5.008-2.957 0-5.357 2.243-5.357 5.008M868.444 206.447c0 2.764 2.396 5.008 5.357 5.008 2.959 0 5.355-2.244 5.355-5.008 0-2.766-2.396-5.008-5.355-5.008-2.96 0-5.357 2.243-5.357 5.008M916.892 109.549c0 2.769 2.4 5.008 5.357 5.008 2.959 0 5.359-2.239 5.359-5.008 0-2.764-2.4-5.008-5.359-5.008-2.957 0-5.357 2.244-5.357 5.008M892.667 109.549c0 2.769 2.4 5.008 5.357 5.008 2.959 0 5.357-2.239 5.357-5.008 0-2.764-2.398-5.008-5.357-5.008-2.957 0-5.357 2.244-5.357 5.008M868.444 109.549c0 2.769 2.396 5.008 5.357 5.008 2.959 0 5.355-2.239 5.355-5.008 0-2.764-2.396-5.008-5.355-5.008-2.96 0-5.357 2.244-5.357 5.008M941.116 12.653c0 2.766 2.398 5.008 5.357 5.008s5.357-2.242 5.357-5.008-2.398-5.006-5.357-5.006-5.357 2.24-5.357 5.006M916.892 12.653c0 2.766 2.4 5.008 5.357 5.008 2.959 0 5.359-2.242 5.359-5.008s-2.4-5.006-5.359-5.006c-2.957 0-5.357 2.24-5.357 5.006M892.667 12.653c0 2.766 2.4 5.008 5.357 5.008 2.959 0 5.357-2.242 5.357-5.008s-2.398-5.006-5.357-5.006c-2.957 0-5.357 2.24-5.357 5.006M844.22 61.102c0 2.764 2.396 5.008 5.355 5.008 2.961 0 5.357-2.244 5.357-5.008 0-2.766-2.396-5.008-5.357-5.008-2.959 0-5.355 2.242-5.355 5.008M941.116 109.549c0 2.769 2.398 5.008 5.357 5.008s5.357-2.239 5.357-5.008c0-2.764-2.398-5.008-5.357-5.008s-5.357 2.244-5.357 5.008M965.339 157.998c0 2.766 2.4 5.01 5.359 5.01 2.957 0 5.357-2.244 5.357-5.01s-2.4-5.008-5.357-5.008c-2.959 0-5.359 2.242-5.359 5.008"/><path fill="#4EA8CF" d="M985.81 157.998c0-4.04 3.073-7.265 7.112-8.138-.044-2.815-.808-5.054-1.109-7.665h-.117v-.803c-.489-3.844-.732-7.884-1.805-11.261h-4.649V124.1h1.526c-1.429-2.962-2.505-6.205-4.505-8.706-.824-1.028-2.196-1.791-3.117-2.771-1.324 3.177-4.582 5.444-8.447 5.444h3.226v6.033h6.453v6.032h-6.453v12.063h-6.452v-12.063h-6.456V124.1h6.456v-6.033h3.226c-5.032 0-9.111-3.813-9.111-8.518 0-3.22 1.988-5.924 4.812-7.371-5.078-3.093-10.617-5.966-17.188-8.336-.115-.039-.208-.056-.32-.094H943.25v-1.67c-5.255-1.694-10.549-3.436-15.333-4.535l-2.44-.558v6.763H919.023v-8.236c-3.921-.896-7.733-1.772-11.827-2.699-1.526-.355-2.448-.764-3.838-1.129h-2.104v12.064h-6.456V81.684h-6.451v-5.606c-1.137-.649-2.775-1.25-3.592-1.925-2.286-1.887-3.684-4.289-4.62-6.961a9.395 9.395 0 0 1-6.332 2.426h3.226v6.032h6.454v6.034h-6.454v12.064H870.575V81.684h-6.455V75.65h6.455v-6.032h3.228c-5.031 0-9.11-3.811-9.11-8.515 0-4.705 4.079-8.517 9.11-8.517 2.555 0 4.85.997 6.505 2.581.591-1.367 1.272-2.708 2.292-3.952 2.431-2.97 5.322-5.212 8.669-6.724 1.234-.568 2.33-.691 3.529-1.147v-10.11h-6.451v-6.032h6.451V21.17h3.228c-5.031 0-9.11-3.814-9.11-8.517 0-4.704 4.079-8.515 9.11-8.515 5.034 0 9.113 3.811 9.113 8.515 0 4.703-4.079 8.517-9.113 8.517h3.228v6.032h6.453v6.032h-6.453v8.009c.568-.127 1.205-.475 1.766-.576 3.726-.657 7.927-.99 12.608-.99 1.146 0 2.259.256 3.396.309v-6.753h-6.451v-6.032h6.451V21.17h3.228c-5.031 0-9.111-3.814-9.111-8.517 0-4.704 4.08-8.515 9.111-8.515 5.032 0 9.111 3.811 9.111 8.515 0 4.703-4.079 8.517-9.111 8.517h3.226v6.032h6.455v6.032h-6.455v7.338c5.99.771 11.925 1.933 17.773 3.755V33.234h-6.454v-6.032h6.454V21.17h3.226c-5.032 0-9.111-3.814-9.111-8.517 0-4.704 4.079-8.515 9.111-8.515 5.031 0 9.11 3.811 9.11 8.515 0 4.703-4.079 8.517-9.11 8.517h3.226v6.032h6.453v6.032h-6.453v12.064h-3.202c1.426.5 2.89.713 4.304 1.284a122.214 122.214 0 0 1 15.219 7.386c1.389-.798 2.928-1.383 4.679-1.383 5.031 0 9.11 3.813 9.11 8.517 0 .732-.261 1.387-.446 2.065.138.114.318.202.454.316h4.729V14.898c-1.512-.666-3.262-1.169-4.836-1.793-.266 4.48-4.151 8.064-9.012 8.064h3.226v6.032h6.453v6.032h-6.453v12.064h-6.452V33.234h-6.456v-6.032h6.456V21.17h3.226c-5.032 0-9.111-3.814-9.111-8.517 0-1.892.789-3.549 1.903-4.962-4.126-1.14-8.215-2.308-12.669-3.222A188.31 188.31 0 0 0 912.952.61c-12.679 0-24.298 1.558-34.865 4.662 2.83 1.446 4.826 4.153 4.826 7.38 0 4.703-4.081 8.517-9.111 8.517h3.226v6.032h6.454v6.032h-6.454v12.064H870.574V33.234h-6.455v-6.032h6.455V21.17h3.228c-5.031 0-9.11-3.814-9.11-8.517 0-.857.269-1.635.521-2.417-2.421 1.109-4.543 2.654-6.851 3.928-.788 3.954-4.326 7.005-8.786 7.005h3.228v6.032h6.454v6.032h-6.454v12.064H846.35V33.234h-6.453v-5.315c-6.805 7.275-11.463 15.514-13.76 24.813 4.646.39 8.325 3.926 8.325 8.37 0 4.704-4.079 8.515-9.111 8.515h3.229v6.032h6.453v6.034h-6.453v9.539c1.723 4.756 3.603 9.405 6.488 13.359 1.408 1.933 3.674 3.5 5.464 5.269-.004-.104-.064-.193-.064-.302 0-4.702 4.079-8.515 9.108-8.515 5.032 0 9.111 3.813 9.111 8.515 0 4.443-3.679 7.977-8.322 8.368.083.056.191.096.276.149h2.162v1.175c3.598 2.124 6.998 4.331 11.316 6.143V124.1h6.455v-6.033h3.228c-5.031 0-9.11-3.813-9.11-8.518 0-4.702 4.079-8.515 9.11-8.515 5.03 0 9.111 3.813 9.111 8.515 0 4.705-4.081 8.518-9.111 8.518h3.226v6.033h6.454v6.032h-5.253c5.06 1.501 10.005 3.083 15.563 4.237.356.074.651.16 1.006.234v-4.472h-6.451V124.1h6.451v-6.033h3.228c-5.031 0-9.11-3.813-9.11-8.518 0-4.702 4.079-8.515 9.11-8.515 5.034 0 9.113 3.813 9.113 8.515 0 4.705-4.079 8.518-9.113 8.518h3.228v6.033h6.453v6.032h-6.453v5.979c5.405 1.208 10.904 2.399 15.844 3.698.745.195 1.207.708 1.926.935v-10.612h-6.451V124.1h6.451v-6.033h3.228c-5.031 0-9.111-3.813-9.111-8.518 0-4.702 4.08-8.515 9.111-8.515 5.032 0 9.111 3.813 9.111 8.515 0 4.705-4.079 8.518-9.111 8.518h3.226v6.033h6.455v6.032h-6.455v12.063h-3.457c3.567 1.429 7.301 2.666 10.133 4.915 3.163 2.515 4.743 5.782 5.528 9.428.766-3.979 4.316-7.057 8.795-7.057 5.031 0 9.11 3.814 9.11 8.517 0 4.704-4.079 8.517-9.11 8.517h3.226v6.032h6.453v6.032h-6.453v12.064h-6.452v-12.064h-6.454v-6.032h6.454v-6.032h3.226c-3.665 0-6.777-2.05-8.225-4.965-.252 4.051-1.362 7.484-3.661 10.066-.725.817-1.843 1.188-2.658 1.904v5.059h-6.455v12.064H919.024v-10.258a57.118 57.118 0 0 1-6.003 1.131c-4.855.647-8.746.962-11.767.981v8.146h-6.456v-8.731c-5.839-.379-11.773-1.351-17.77-2.717v11.448H870.574v-12.064h-6.455v-3.115c-.254-.094-.498-.121-.754-.217-1.429-.537-2.705-1.372-4.108-1.961v5.293h-6.454v12.064H846.349v-12.064h-6.453v-6.032h6.453v-5.418c-4.217-2.401-8.101-5.435-12.061-8.327-.454 4.308-4.21 7.713-8.938 7.713h3.229v6.032h6.453v6.032h-6.453v12.064h-5.487v7.714c.741-.183 1.458-.426 2.258-.426 5.032 0 9.111 3.812 9.111 8.516 0 .842-.269 1.605-.512 2.372 2.958.935 5.761 1.999 8.688 2.961-1.295-1.471-2.172-3.28-2.172-5.333 0-4.704 4.079-8.516 9.108-8.516 5.032 0 9.111 3.812 9.111 8.516 0 4.191-3.3 7.517-7.564 8.225.298.086.554.207.855.292h.825v.281c1.667.462 3.035 1.181 4.736 1.615 4.046 1.027 8.483 1.749 13.035 2.378v-4.274h3.228c-5.031 0-9.11-3.814-9.11-8.517 0-4.704 4.079-8.516 9.11-8.516 5.03 0 9.111 3.812 9.111 8.516 0 4.702-4.081 8.517-9.111 8.517h3.226v5.01c3.98.401 7.95.808 12.168 1.022h5.602v-6.032h3.228c-5.031 0-9.11-3.814-9.11-8.517 0-4.704 4.079-8.516 9.11-8.516 5.034 0 9.113 3.812 9.113 8.516 0 4.702-4.079 8.517-9.113 8.517h3.228v6.032h6.453v.021c3.796-.274 7.701-.429 11.316-.897v-5.155h3.228c-5.031 0-9.111-3.814-9.111-8.517 0-4.704 4.08-8.516 9.111-8.516 5.032 0 9.111 3.812 9.111 8.516 0 4.702-4.079 8.517-9.111 8.517h3.226v4.35c6.563-1.19 12.804-2.733 18.563-4.81-3.822-1.015-6.675-4.161-6.675-8.057 0-4.704 4.079-8.516 9.111-8.516 5.031 0 9.11 3.812 9.11 8.516a8.04 8.04 0 0 1-.739 3.349c2.27-1.164 4.662-2.188 6.779-3.52.102-4.62 4.106-8.345 9.074-8.345.568 0 1.063.208 1.604.301 6.393-5.809 11.229-12.391 14.705-19.653h-1.766v-6.032h4.054c.767-2.201 1.616-4.362 2.135-6.69-3.296-1.283-5.619-4.314-5.619-7.86zM859.257 81.684h-6.454v12.064H846.349V81.684h-6.453V75.65h6.453v-6.032h3.226c-5.029 0-9.108-3.811-9.108-8.515 0-4.705 4.079-8.517 9.108-8.517 5.032 0 9.111 3.813 9.111 8.517 0 4.704-4.079 8.515-9.111 8.515h3.228v6.032h6.454v6.034zm96.895 48.448h-6.453v12.063h-6.452v-12.063h-6.454V124.1h6.454v-6.033h3.226c-5.032 0-9.111-3.813-9.111-8.518 0-4.702 4.079-8.515 9.111-8.515 5.031 0 9.11 3.813 9.11 8.515 0 4.705-4.079 8.518-9.11 8.518h3.226v6.033h6.453v6.032zm24.225 48.447h-6.453v12.064h-6.452v-12.064h-6.456v-6.032h6.456v-6.032h3.226c-5.032 0-9.111-3.813-9.111-8.517 0-4.702 4.079-8.517 9.111-8.517 5.031 0 9.11 3.814 9.11 8.517 0 4.704-4.079 8.517-9.11 8.517h3.226v6.032h6.453v6.032z"/><path fill="#4EA8CF" d="M975.952 109.784c-1.872-1.702-3.503-3.523-5.705-5.066-2.714.245-4.908 2.23-4.908 4.831 0 2.769 2.4 5.008 5.359 5.008 2.86 0 5.102-2.133 5.254-4.773M969.762 56.457c2.15 1.366 4.171 2.808 6.136 4.287-.227-2.569-2.391-4.649-5.199-4.649-.367-.001-.594.297-.937.362M878.999 61.46c-.002-.099-.055-.171-.055-.27 0-.144.067-.267.071-.409-.202-2.591-2.389-4.688-5.214-4.688-2.961 0-5.357 2.242-5.357 5.008 0 2.764 2.396 5.008 5.357 5.008 2.809.001 4.971-2.077 5.198-4.649M849.575 104.541c-2.959 0-5.355 2.244-5.355 5.008 0 2.769 2.396 5.008 5.355 5.008 2.961 0 5.357-2.239 5.357-5.008.001-2.764-2.396-5.008-5.357-5.008M852.803 172.547h4.905c-1.662-.727-3.281-1.539-4.905-2.341v2.341zM946.474 152.99c-2.959 0-5.357 2.242-5.357 5.008s2.398 5.01 5.357 5.01 5.357-2.244 5.357-5.01-2.398-5.008-5.357-5.008"/><path fill="#A23351" d="M588.467 157.998c0-2.766-2.398-5.008-5.357-5.008-2.957 0-5.357 2.242-5.357 5.008s2.4 5.01 5.357 5.01c2.958 0 5.357-2.244 5.357-5.01m-5.358 8.517c-5.031 0-9.11-3.813-9.11-8.517 0-4.702 4.079-8.517 9.11-8.517 5.032 0 9.111 3.814 9.111 8.517.001 4.704-4.078 8.517-9.111 8.517m-3.225 0h6.452v6.032h6.456v6.032h-6.456v12.064h-6.452v-12.064h-6.453v-6.032h6.453v-6.032z"/><path fill="#4EA8CF" d="M208.285 245.088h3.925v17.135c0 2.981-.338 5.349-1.012 7.102-.675 1.752-1.892 3.18-3.651 4.277-1.76 1.1-4.07 1.649-6.929 1.649-2.779 0-5.051-.478-6.818-1.437-1.767-.958-3.028-2.343-3.783-4.156-.756-1.814-1.133-4.292-1.133-7.436v-17.135h3.924v17.115c0 2.576.239 4.475.718 5.693.478 1.222 1.301 2.163 2.468 2.823 1.166.66 2.592.991 4.278.991 2.886 0 4.943-.654 6.17-1.962 1.227-1.308 1.841-3.824 1.841-7.546v-17.113zM218.582 274.745v-29.657h3.925v14.708l14.728-14.708h5.32l-12.441 12.017 12.988 17.641h-5.179l-10.56-15.011-4.855 4.734v10.276h-3.926zM256.695 260.301c0-4.923 1.322-8.775 3.965-11.561 2.643-2.786 6.055-4.178 10.236-4.178 2.737 0 5.206.654 7.404 1.962 2.198 1.308 3.874 3.132 5.027 5.472 1.153 2.341 1.73 4.995 1.73 7.961 0 3.007-.607 5.698-1.821 8.072s-2.934 4.171-5.159 5.392c-2.225 1.22-4.626 1.83-7.202 1.83-2.792 0-5.288-.675-7.485-2.022-2.199-1.349-3.864-3.189-4.997-5.523a16.76 16.76 0 0 1-1.698-7.405zm4.046.061c0 3.573.961 6.389 2.882 8.446 1.922 2.057 4.332 3.084 7.232 3.084 2.954 0 5.384-1.039 7.293-3.115 1.908-2.076 2.862-5.024 2.862-8.84 0-2.415-.408-4.521-1.224-6.323-.816-1.799-2.01-3.196-3.581-4.186-1.572-.993-3.335-1.488-5.291-1.488-2.779 0-5.168.955-7.171 2.864-2.001 1.907-3.002 5.094-3.002 9.558zM293.008 274.745h-3.378v-29.657h3.642v10.581c1.537-1.93 3.5-2.894 5.887-2.894 1.321 0 2.572.267 3.753.799 1.18.533 2.15 1.281 2.913 2.247.761.964 1.358 2.126 1.79 3.488.431 1.363.647 2.819.647 4.37 0 3.682-.91 6.527-2.731 8.537s-4.005 3.014-6.555 3.014c-2.536 0-4.525-1.059-5.968-3.176v2.691zm-.041-10.903c0 2.576.351 4.438 1.052 5.583 1.146 1.874 2.697 2.813 4.653 2.813 1.591 0 2.966-.692 4.127-2.075 1.159-1.381 1.74-3.44 1.74-6.179 0-2.805-.557-4.876-1.669-6.211-1.113-1.335-2.458-2.003-4.036-2.003-1.592 0-2.967.691-4.127 2.074-1.16 1.382-1.74 3.381-1.74 5.998zM311.235 268.332l3.601-.566c.202 1.444.765 2.55 1.689 3.318.923.769 2.215 1.153 3.874 1.153 1.671 0 2.913-.341 3.722-1.022.809-.681 1.214-1.479 1.214-2.396 0-.822-.358-1.47-1.072-1.942-.5-.323-1.74-.735-3.722-1.234-2.67-.675-4.521-1.258-5.553-1.751-1.032-.49-1.814-1.173-2.347-2.041a5.417 5.417 0 0 1-.799-2.884c0-.958.219-1.845.658-2.659a5.885 5.885 0 0 1 1.791-2.034c.566-.417 1.338-.772 2.316-1.063a11.048 11.048 0 0 1 3.146-.435c1.686 0 3.166.243 4.44.729s2.215 1.144 2.822 1.972c.607.831 1.024 1.94 1.254 3.329l-3.561.485c-.162-1.105-.63-1.97-1.406-2.59-.776-.62-1.871-.931-3.288-.931-1.672 0-2.866.276-3.581.83-.715.553-1.072 1.2-1.072 1.941 0 .473.148.897.445 1.274.296.392.761.716 1.396.972.364.134 1.436.444 3.216.931 2.576.688 4.373 1.25 5.391 1.688 1.018.439 1.817 1.076 2.397 1.913.579.837.87 1.874.87 3.115 0 1.214-.354 2.357-1.063 3.428-.708 1.074-1.729 1.902-3.064 2.49-1.335.585-2.846.879-4.532.879-2.792 0-4.919-.579-6.382-1.739-1.462-1.161-2.395-2.881-2.8-5.16zM341.357 271.488l.526 3.217c-1.025.215-1.942.323-2.751.323-1.322 0-2.347-.209-3.075-.627-.728-.417-1.241-.967-1.537-1.649-.297-.681-.445-2.113-.445-4.298v-12.36h-2.67v-2.833h2.67v-5.32l3.621-2.185v7.505h3.662v2.833h-3.662v12.563c0 1.039.063 1.707.192 2.003.128.296.336.533.627.708.29.175.705.263 1.244.263.405-.001.937-.049 1.598-.143zM359.625 267.827l3.763.465c-.594 2.198-1.693 3.904-3.298 5.118-1.605 1.214-3.655 1.82-6.15 1.82-3.143 0-5.634-.967-7.475-2.901-1.841-1.937-2.762-4.651-2.762-8.144 0-3.614.931-6.42 2.792-8.416 1.861-1.995 4.275-2.994 7.242-2.994 2.873 0 5.219.979 7.04 2.934s2.731 4.706 2.731 8.254c0 .215-.007.539-.02.971h-16.022c.134 2.359.802 4.168 2.003 5.422 1.2 1.254 2.697 1.882 4.491 1.882 1.335 0 2.475-.352 3.419-1.053s1.693-1.821 2.246-3.358zm-11.956-5.888h11.996c-.162-1.808-.621-3.163-1.375-4.065-1.161-1.403-2.664-2.104-4.511-2.104-1.673 0-3.079.56-4.218 1.68-1.141 1.118-1.77 2.615-1.892 4.489zM375.91 271.488l.526 3.217c-1.025.215-1.942.323-2.751.323-1.322 0-2.347-.209-3.075-.627-.729-.417-1.242-.967-1.538-1.649-.297-.681-.445-2.113-.445-4.298v-12.36h-2.67v-2.833h2.67v-5.32l3.621-2.185v7.505h3.662v2.833h-3.662v12.563c0 1.039.063 1.707.192 2.003.128.296.336.533.627.708.29.175.705.263 1.244.263.406-.001.938-.049 1.599-.143zM379.43 274.745v-21.484h3.277v3.258c.836-1.525 1.608-2.529 2.316-3.015s1.487-.729 2.336-.729c1.227 0 2.475.392 3.743 1.174l-1.254 3.378c-.89-.525-1.78-.789-2.67-.789-.796 0-1.511.239-2.145.718-.635.479-1.086 1.144-1.355 1.993-.405 1.295-.607 2.711-.607 4.249v11.247h-3.641zM393.288 249.275v-4.188h3.641v4.188h-3.641zm0 25.47v-21.484h3.641v21.484h-3.641zM416.492 266.876l3.581.465c-.392 2.469-1.393 4.399-3.004 5.797-1.612 1.395-3.591 2.093-5.938 2.093-2.941 0-5.304-.959-7.091-2.883-1.788-1.92-2.68-4.676-2.68-8.264 0-2.318.384-4.35 1.153-6.089.769-1.74 1.938-3.046 3.51-3.914 1.57-.871 3.28-1.306 5.128-1.306 2.333 0 4.241.591 5.725 1.77 1.483 1.181 2.434 2.856 2.853 5.028l-3.54.546c-.338-1.443-.935-2.528-1.791-3.257-.857-.729-1.892-1.093-3.105-1.093-1.834 0-3.325.658-4.471 1.972-1.146 1.316-1.72 3.396-1.72 6.242 0 2.886.553 4.983 1.659 6.291 1.105 1.308 2.549 1.963 4.329 1.963 1.429 0 2.623-.438 3.581-1.315.957-.877 1.564-2.226 1.821-4.046zM433.829 265.217l3.702-.323c.175 1.484.583 2.701 1.224 3.65.64.953 1.635 1.722 2.984 2.307 1.348.588 2.865.881 4.552.881 1.497 0 2.818-.223 3.965-.668 1.146-.445 1.999-1.056 2.559-1.832.559-.773.839-1.62.839-2.537 0-.931-.271-1.744-.809-2.439-.54-.693-1.43-1.276-2.67-1.749-.796-.311-2.557-.792-5.28-1.447-2.725-.652-4.632-1.271-5.725-1.85-1.416-.741-2.472-1.663-3.166-2.763-.695-1.098-1.042-2.328-1.042-3.69 0-1.497.425-2.896 1.274-4.199.85-1.3 2.09-2.288 3.722-2.963 1.631-.675 3.446-1.012 5.442-1.012 2.198 0 4.137.355 5.816 1.062 1.679.71 2.97 1.751 3.875 3.127.903 1.375 1.388 2.933 1.457 4.673l-3.763.283c-.202-1.874-.887-3.29-2.053-4.248-1.167-.959-2.89-1.437-5.168-1.437-2.375 0-4.104.434-5.189 1.306-1.086.868-1.628 1.918-1.628 3.145 0 1.065.384 1.942 1.153 2.63.755.688 2.727 1.393 5.917 2.115 3.189.721 5.377 1.352 6.565 1.891 1.726.796 3 1.804 3.823 3.023.822 1.221 1.234 2.628 1.234 4.219 0 1.578-.453 3.064-1.355 4.462-.904 1.394-2.203 2.48-3.895 3.255-1.693.776-3.598 1.164-5.715 1.164-2.684 0-4.934-.392-6.747-1.173-1.814-.782-3.237-1.959-4.269-3.529-1.032-1.574-1.576-3.352-1.629-5.334zM476.413 274.745v-3.155c-1.673 2.428-3.945 3.641-6.817 3.641a8.681 8.681 0 0 1-3.551-.728c-1.1-.485-1.915-1.097-2.448-1.832-.533-.733-.908-1.635-1.123-2.7-.149-.715-.223-1.848-.223-3.398v-13.312h3.642v11.916c0 1.901.073 3.184.222 3.844.229.958.715 1.708 1.457 2.257.741.544 1.659.818 2.751.818s2.117-.28 3.075-.841c.957-.56 1.635-1.32 2.033-2.284.397-.966.597-2.365.597-4.198v-11.512h3.641v21.484h-3.256zM485.334 274.745v-21.484h3.277v3.258c.836-1.525 1.608-2.529 2.316-3.015a4.047 4.047 0 0 1 2.336-.729c1.227 0 2.475.392 3.742 1.174l-1.254 3.378c-.89-.525-1.78-.789-2.67-.789-.796 0-1.511.239-2.145.718-.634.479-1.086 1.144-1.355 1.993-.404 1.295-.607 2.711-.607 4.249v11.247h-3.64zM505.14 274.745l-8.173-21.484h3.844l4.612 12.867a64.076 64.076 0 0 1 1.376 4.329c.323-1.133.775-2.496 1.355-4.087l4.773-13.109h3.743l-8.133 21.484h-3.397zM534.595 267.827l3.763.465c-.594 2.198-1.692 3.904-3.298 5.118s-3.654 1.82-6.149 1.82c-3.144 0-5.634-.967-7.477-2.901-1.839-1.937-2.76-4.651-2.76-8.144 0-3.614.931-6.42 2.791-8.416 1.861-1.995 4.276-2.994 7.243-2.994 2.872 0 5.219.979 7.04 2.934 1.82 1.955 2.73 4.706 2.73 8.254 0 .215-.007.539-.021.971h-16.021c.134 2.359.802 4.168 2.003 5.422 1.198 1.254 2.695 1.882 4.49 1.882 1.336 0 2.476-.352 3.419-1.053.944-.701 1.693-1.821 2.247-3.358zm-11.956-5.888h11.996c-.162-1.808-.621-3.163-1.375-4.065-1.161-1.403-2.663-2.104-4.512-2.104-1.672 0-3.079.56-4.217 1.68-1.14 1.118-1.771 2.615-1.892 4.489zM542.949 249.275v-4.188h3.642v4.188h-3.642zm0 25.47v-21.484h3.642v21.484h-3.642zM552.053 274.745v-29.657h3.642v29.657h-3.642zM561.258 274.745v-29.657h3.642v29.657h-3.642zM584.563 272.096c-1.348 1.146-2.646 1.955-3.896 2.428-1.246.472-2.585.707-4.015.707-2.359 0-4.175-.577-5.441-1.729-1.268-1.154-1.901-2.628-1.901-4.421 0-1.052.238-2.012.717-2.884a5.979 5.979 0 0 1 1.883-2.093 8.83 8.83 0 0 1 2.619-1.193c.716-.189 1.793-.372 3.237-.547 2.94-.351 5.104-.769 6.493-1.254.014-.498.021-.816.021-.951 0-1.483-.344-2.528-1.031-3.135-.931-.822-2.314-1.234-4.147-1.234-1.712 0-2.978.3-3.792.899-.817.602-1.42 1.662-1.812 3.187l-3.561-.485c.323-1.524.856-2.755 1.598-3.69.741-.938 1.813-1.659 3.217-2.167 1.403-.504 3.027-.758 4.875-.758 1.834 0 3.325.216 4.472.647 1.146.433 1.989.975 2.528 1.63.539.652.918 1.479 1.133 2.477.121.62.183 1.74.183 3.358v4.855c0 3.386.077 5.526.233 6.424.154.896.461 1.757.919 2.578h-3.803c-.378-.756-.621-1.639-.729-2.649zm-.304-8.133c-1.322.539-3.305.999-5.947 1.376-1.497.215-2.557.458-3.176.728-.62.271-1.101.664-1.437 1.183a3.118 3.118 0 0 0-.506 1.73c0 .972.368 1.78 1.104 2.428.733.647 1.81.972 3.226.972 1.403 0 2.65-.308 3.742-.922 1.093-.612 1.895-1.453 2.408-2.518.392-.822.586-2.036.586-3.642v-1.335zM593.585 274.745v-21.484h3.277v3.056c1.578-2.36 3.856-3.541 6.838-3.541 1.295 0 2.484.232 3.571.699 1.085.463 1.898 1.074 2.437 1.83.539.756.918 1.651 1.134 2.69.134.675.202 1.854.202 3.54v13.21h-3.642v-13.068c0-1.484-.142-2.593-.425-3.329-.283-.733-.785-1.32-1.508-1.758-.722-.439-1.567-.658-2.538-.658-1.551 0-2.89.493-4.017 1.477-1.126.984-1.688 2.853-1.688 5.604v11.733h-3.641zM630.646 266.876l3.581.465c-.392 2.469-1.393 4.399-3.004 5.797-1.612 1.395-3.592 2.093-5.938 2.093-2.94 0-5.304-.959-7.089-2.883-1.788-1.92-2.682-4.676-2.682-8.264 0-2.318.384-4.35 1.153-6.089.769-1.74 1.938-3.046 3.511-3.914 1.57-.871 3.278-1.306 5.127-1.306 2.334 0 4.241.591 5.726 1.77 1.483 1.181 2.435 2.856 2.853 5.028l-3.541.546c-.336-1.443-.934-2.528-1.789-3.257-.857-.729-1.893-1.093-3.106-1.093-1.833 0-3.325.658-4.471 1.972-1.146 1.316-1.72 3.396-1.72 6.242 0 2.886.554 4.983 1.659 6.291s2.549 1.963 4.329 1.963c1.429 0 2.622-.438 3.581-1.315.958-.877 1.565-2.226 1.82-4.046zM652.05 267.827l3.763.465c-.594 2.198-1.691 3.904-3.298 5.118-1.605 1.214-3.653 1.82-6.149 1.82-3.143 0-5.633-.967-7.476-2.901-1.84-1.937-2.761-4.651-2.761-8.144 0-3.614.931-6.42 2.792-8.416 1.861-1.995 4.275-2.994 7.242-2.994 2.872 0 5.219.979 7.04 2.934 1.82 1.955 2.73 4.706 2.73 8.254 0 .215-.007.539-.02.971h-16.022c.135 2.359.802 4.168 2.003 5.422s2.698 1.882 4.491 1.882c1.335 0 2.476-.352 3.419-1.053.944-.701 1.692-1.821 2.246-3.358zm-11.956-5.888h11.996c-.161-1.808-.619-3.163-1.375-4.065-1.161-1.403-2.663-2.104-4.512-2.104-1.672 0-3.078.56-4.217 1.68-1.14 1.118-1.771 2.615-1.892 4.489zM671.025 265.217l3.702-.323c.175 1.484.583 2.701 1.223 3.65.643.953 1.638 1.722 2.985 2.307 1.348.588 2.865.881 4.552.881 1.497 0 2.819-.223 3.965-.668s1.999-1.056 2.561-1.832c.559-.773.838-1.62.838-2.537 0-.931-.27-1.744-.809-2.439-.539-.693-1.429-1.276-2.671-1.749-.796-.311-2.556-.792-5.279-1.447-2.724-.652-4.633-1.271-5.726-1.85-1.416-.741-2.472-1.663-3.167-2.763-.693-1.098-1.041-2.328-1.041-3.69 0-1.497.425-2.896 1.274-4.199.85-1.3 2.092-2.288 3.723-2.963s3.446-1.012 5.441-1.012c2.198 0 4.139.355 5.815 1.062 1.681.71 2.973 1.751 3.875 3.127.903 1.375 1.389 2.933 1.457 4.673l-3.763.283c-.203-1.874-.887-3.29-2.055-4.248-1.166-.959-2.889-1.437-5.168-1.437-2.374 0-4.103.434-5.189 1.306-1.085.868-1.628 1.918-1.628 3.145 0 1.065.385 1.942 1.153 2.63.756.688 2.728 1.393 5.918 2.115 3.189.721 5.378 1.352 6.563 1.891 1.728.796 3.002 1.804 3.824 3.023.821 1.221 1.233 2.628 1.233 4.219 0 1.578-.452 3.064-1.355 4.462-.902 1.394-2.201 2.48-3.895 3.255-1.692.776-3.598 1.164-5.715 1.164-2.683 0-4.932-.392-6.747-1.173-1.813-.782-3.237-1.959-4.267-3.529-1.031-1.574-1.573-3.352-1.627-5.334zM699.368 283.02l-.405-3.419c.797.215 1.49.323 2.084.323.81 0 1.457-.134 1.942-.404s.883-.647 1.193-1.133c.229-.364.6-1.267 1.112-2.711.068-.202.175-.498.324-.89l-8.153-21.525h3.925l4.471 12.442a54.506 54.506 0 0 1 1.558 4.977 49.135 49.135 0 0 1 1.497-4.896l4.593-12.522h3.642l-8.173 21.849c-.878 2.359-1.559 3.985-2.044 4.876-.647 1.2-1.389 2.08-2.225 2.639-.837.562-1.834.841-2.994.841-.701-.002-1.485-.152-2.347-.447zM718.789 268.332l3.601-.566c.202 1.444.765 2.55 1.69 3.318.923.769 2.214 1.153 3.873 1.153 1.671 0 2.913-.341 3.722-1.022.81-.681 1.214-1.479 1.214-2.396 0-.822-.356-1.47-1.072-1.942-.498-.323-1.739-.735-3.722-1.234-2.671-.675-4.522-1.258-5.553-1.751-1.033-.49-1.815-1.173-2.347-2.041a5.418 5.418 0 0 1-.8-2.884c0-.958.219-1.845.656-2.659a5.898 5.898 0 0 1 1.792-2.034c.566-.417 1.339-.772 2.316-1.063a11.038 11.038 0 0 1 3.146-.435c1.687 0 3.167.243 4.439.729 1.276.485 2.216 1.144 2.823 1.972.606.831 1.024 1.94 1.254 3.329l-3.561.485c-.162-1.105-.631-1.97-1.407-2.59-.773-.62-1.87-.931-3.286-.931-1.672 0-2.865.276-3.581.83-.715.553-1.072 1.2-1.072 1.941 0 .473.149.897.445 1.274.296.392.762.716 1.396.972.363.134 1.436.444 3.216.931 2.577.688 4.374 1.25 5.391 1.688 1.019.439 1.819 1.076 2.398 1.913s.87 1.874.87 3.115c0 1.214-.355 2.357-1.062 3.428-.71 1.074-1.73 1.902-3.065 2.49-1.336.585-2.846.879-4.532.879-2.791 0-4.919-.579-6.383-1.739-1.46-1.161-2.395-2.881-2.799-5.16zM748.911 271.488l.526 3.217c-1.024.215-1.942.323-2.752.323-1.322 0-2.347-.209-3.075-.627-.728-.417-1.241-.967-1.537-1.649-.296-.681-.445-2.113-.445-4.298v-12.36h-2.67v-2.833h2.67v-5.32l3.621-2.185v7.505h3.662v2.833h-3.662v12.563c0 1.039.064 1.707.193 2.003.127.296.337.533.625.708.291.175.707.263 1.245.263.406-.001.939-.049 1.599-.143zM767.179 267.827l3.763.465c-.594 2.198-1.691 3.904-3.298 5.118-1.605 1.214-3.653 1.82-6.149 1.82-3.143 0-5.635-.967-7.474-2.901-1.843-1.937-2.763-4.651-2.763-8.144 0-3.614.931-6.42 2.792-8.416 1.861-1.995 4.275-2.994 7.242-2.994 2.872 0 5.219.979 7.04 2.934 1.82 1.955 2.73 4.706 2.73 8.254 0 .215-.007.539-.02.971H755.02c.135 2.359.802 4.168 2.003 5.422s2.698 1.882 4.491 1.882c1.335 0 2.476-.352 3.419-1.053.944-.701 1.692-1.821 2.246-3.358zm-11.956-5.888h11.997c-.162-1.808-.62-3.163-1.376-4.065-1.161-1.403-2.663-2.104-4.512-2.104-1.672 0-3.078.56-4.219 1.68-1.138 1.118-1.768 2.615-1.89 4.489zM775.514 274.745v-21.484h3.257v3.015a7.68 7.68 0 0 1 2.69-2.54c1.12-.64 2.395-.96 3.823-.96 1.591 0 2.896.331 3.914.991 1.019.66 1.738 1.586 2.155 2.771 1.699-2.508 3.912-3.763 6.636-3.763 2.131 0 3.77.591 4.916 1.77 1.146 1.181 1.719 2.998 1.719 5.453v14.747h-3.621v-13.533c0-1.457-.117-2.505-.354-3.147-.235-.64-.664-1.154-1.284-1.546-.619-.392-1.348-.587-2.185-.587-1.51 0-2.764.502-3.763 1.508-.998 1.004-1.497 2.611-1.497 4.824v12.481h-3.642v-13.958c0-1.619-.296-2.833-.89-3.642-.594-.81-1.565-1.214-2.913-1.214a5.31 5.31 0 0 0-2.844.81c-.868.538-1.498 1.327-1.891 2.366-.392 1.039-.586 2.536-.586 4.491v11.146h-3.64zM0 259.663h178.499v3.767H0zM814.423 259.663h178.499v3.767H814.423z"/></svg>