<svg xmlns="http://www.w3.org/2000/svg" width="457.7" height="283.5" viewBox="0 0 457.7 283.5"><path fill="#6C6F70" d="M140.4 204.7c-34.1 0-61.8-27.8-61.8-61.8S106.3 81 140.4 81V2.3C62.9 2.3 0 65.1 0 142.9c0 77.5 62.9 140.6 140.6 140.6 77.5 0 140.6-62.9 140.6-140.6h-78.8c-.2 34-27.9 61.8-62 61.8"/><path fill="#FFF" d="M73.3 64.5L80 59l-5.1-6.3-7.6 6.1-1.6-1.8 9.8-8.2L90 66.3l-9.4 7.8-1.6-1.9 7.1-5.9-4.5-5.5-6.7 5.5-1.6-1.8zM50.2 75.7c.2-1.2 1.2-3.3 3.1-5.3 4.1-4.9 10.2-6.1 15.9-1.4 5.5 4.5 6.1 11.2 1.6 16.7-1.8 2.3-3.5 3.3-4.3 3.5l-1.4-2c1.2-.6 2.4-1.4 3.7-2.9 3.5-4.1 3.1-9-1.6-12.9-4.3-3.5-9.2-3.3-12.7 1-1.2 1.4-2 3.1-2.2 4.3l-2.1-1zM63.7 95.3l-12-6.1c-4.5-2.2-7.6-1.2-8.8 1.4-1.4 3.1-.4 5.9 4.1 8.2l12 6.1-1.4 2.7-11.8-5.9c-6.3-3.1-7.1-7.8-4.9-12 2-4.1 6.1-6.1 12.2-2.9l12 5.9-1.4 2.6z"/><text transform="rotate(107.056 -22.144 64.487)" fill="#FFF" font-family="'ArialMT'" font-size="33.721"></text><path fill="#FFF" d="M29.6 136.3c-.2-1.4-.8-4.1-.4-7.1.4-3.5 1.6-6.1 4.1-8 2-1.6 5.3-2.4 8.8-2 6.7.8 11 6.1 10 13.7-.4 2.7-1.2 4.5-1.8 5.5l-2.2-1c.6-1.2 1.2-2.7 1.6-4.9.8-5.5-2.2-9.6-8-10.2-5.7-.8-9.6 2.2-10.2 7.6-.2 1.8-.2 3.3 0 3.9l6.7.8.6-4.5 2.2.2-1 7.3-10.4-1.3zM40.2 156.1l-.6-9-8.2.6.6 9.8-2.4.2-.8-12.7 22.7-1.6.8 12.2-2.4.2-.6-9.4-7.1.6.6 8.8-2.6.3zM31 166.5l21.8-6.3.8 3.1-9 10.2c-2 2.4-4.1 4.3-5.9 5.9 2.9-1 5.5-2 9-2.9l9.2-2.7.8 2.7-21.8 6.3-.8-2.9 9-10.2c2-2.2 4.1-4.5 6.1-6.1-2.7 1-5.3 1.8-9 2.9l-9.4 2.7-.8-2.7zM59 181c1 1.4 2.4 3.3 3.5 5.1 2 3.7 2.7 6.7 2 9.4-.6 2.7-2.2 5.1-5.5 6.7-3.3 1.8-6.3 2.2-9.4 1.6-2.9-.8-5.7-3.3-7.8-7.1-1-1.8-1.8-3.5-2.4-4.7L59 181zm-16.1 12.5c.2.6.8 1.6 1.2 2.7 3.1 5.5 7.8 6.7 13.3 3.7 4.7-2.7 6.1-6.9 3.1-12.2-.8-1.2-1.4-2.2-2-2.9l-15.6 8.7zM69.8 216.5l-5.9-6.5-6.1 5.5 6.5 7.3-1.8 1.6-8.4-9.6 16.9-15 8.2 9.2-1.8 1.6-6.1-6.9-5.3 4.7 5.9 6.5-2.1 1.6zM82.2 212.2c1.4.6 3.1 1.8 4.7 3.1 2.4 1.8 3.7 3.7 4.1 5.5.2 1.4-.2 3.1-1.2 4.5-1.8 2.4-4.5 2.9-6.9 2 1 1.6.8 3.5-.2 5.7-1.4 3.1-2.2 5.1-2.4 5.9l-2.4-1.8c0-.8.8-2.7 2-5.3 1.4-2.9 1.2-4.5-.8-6.3l-2.2-1.6-5.9 7.8-2.2-1.8 13.4-17.7zm-3.8 10l2.4 1.8c2.4 1.8 5.1 1.8 6.7-.2 1.8-2.2.8-4.7-1.6-6.5-1-.8-2-1.4-2.4-1.6l-5.1 6.5z"/><text transform="rotate(29.12 -424.19 282.146)" fill="#FFF" font-family="'ArialMT'" font-size="33.721"></text><path fill="#FFF" d="M113.3 253.7c-1.2.2-3.5 0-5.9-1-5.9-2.2-9.2-7.8-6.5-14.7 2.4-6.7 8.6-9.6 15.3-7.1 2.7 1 4.1 2.2 4.7 2.9l-1.4 2c-.8-.8-2.2-1.8-4.1-2.4-5.1-1.8-9.6.2-11.6 5.7-1.8 5.3-.2 9.6 5.1 11.6 1.6.6 3.5.8 4.9.8l-.5 2.2zM127.3 234.3l-1.2 9.4 10.8 1.4 1.2-9.4 2.9.4-2.9 22.4-2.9-.4 1.4-10.6-10.8-1.4-1.4 10.6-2.9-.4 2.9-22.4 2.9.4zM149.2 251.4l-1.8 7.3-3.1.2 5.9-23.3 3.5-.2 9.4 22-3.1.2-2.9-6.9-7.9.7zm7.1-2.8l-2.7-6.3c-.6-1.4-1-2.9-1.4-4.1-.2 1.4-.4 2.9-.8 4.3l-1.6 6.7 6.5-.6zM165.1 233.9c1.4-.6 3.3-1.4 5.3-2 3.1-.8 5.1-.8 6.7 0 1.4.6 2.4 2 2.9 3.7.8 2.9-.4 5.3-2.4 6.7 1.8 0 3.3 1.4 4.5 3.5 1.6 2.9 2.7 4.7 3.5 5.5l-2.9.8c-.6-.6-1.6-2.2-3.1-4.7-1.6-2.9-3.1-3.7-5.7-2.9l-2.4.6 2.9 9.4-2.9.8-6.4-21.4zm5.7 9.2l2.9-.8c3.1-.8 4.5-3.1 3.7-5.5-.8-2.9-3.3-3.5-6.1-2.7-1.4.4-2.2.8-2.7 1l2.2 8zM188.2 228l-6.1 3.3-1.2-2.2 14.9-7.8 1.2 2.2-6.1 3.3 9.4 18-2.7 1.4-9.4-18.2zM213.3 220.8l-6.9 5.5 5.1 6.3 7.8-6.1 1.6 1.8-10 8-14.1-17.8 9.6-7.6 1.6 1.8-7.3 5.9 4.5 5.7 6.9-5.5 1.2 2zM210.2 208.2c.8-1.2 2-3.1 3.3-4.5 2-2.4 3.9-3.5 5.7-3.9 1.4-.2 3.1.4 4.5 1.4 2.2 2 2.7 4.7 1.6 6.9 1.6-1 3.5-.6 5.7.4 2.9 1.4 4.9 2.4 5.9 2.7l-2 2.2c-.8-.2-2.4-1-5.1-2.4-2.9-1.6-4.5-1.4-6.3.6l-1.8 2 7.6 6.3-1.8 2.2-17.3-13.9zm9.6 4.5l2-2.2c2-2.4 2-5.1 0-6.7-2.2-1.8-4.5-1.2-6.5 1.2-1 1-1.4 1.8-1.6 2.4l6.1 5.3z"/><path fill="#163964" d="M323.5 28v7.8h7.3v5.7h-7.3V55c0 3.7 1 5.7 3.9 5.7 1.4 0 2-.2 3.1-.4l.2 5.9c-1.2.4-3.1.8-5.5.8-2.9 0-5.3-1-6.7-2.7-1.6-1.8-2.4-4.5-2.4-8.6V41.4h-4.5v-5.7h4.5V30l7.4-2zM373.9 53.3c.2 5.5 4.5 8 9.4 8 3.7 0 6.1-.4 8.4-1.4l1.2 5.3c-2.7 1-6.3 2-10.6 2-10 0-15.7-6.1-15.7-15.5 0-8.4 5.1-16.5 14.9-16.5 10 0 13.3 8.2 13.3 14.9 0 1.4-.2 2.7-.2 3.3-.1-.1-20.7-.1-20.7-.1zm13.2-5.3c0-2.9-1.2-7.6-6.3-7.6-4.7 0-6.7 4.3-7.1 7.6h13.4zM399.2 44.9c0-3.5 0-6.5-.2-9.2h6.7l.4 4.5h.2c1.2-2.4 4.7-5.3 9.8-5.3 5.3 0 10.8 3.5 10.8 13.1v18.2h-7.8v-17c0-4.5-1.6-7.8-5.9-7.8-3.1 0-5.3 2.2-6.1 4.5-.2.6-.4 1.6-.4 2.4v18H399l.2-21.4zM456.9 59.2c0 2.9.2 5.5.4 7.3h-6.9L450 63h-.2c-1.8 2.4-5.1 4.1-9 4.1-6.1 0-9.6-4.5-9.6-9.2 0-7.8 6.9-11.6 18.2-11.6v-.4c0-2-.8-5.3-6.1-5.3-3.1 0-6.1 1-8.2 2.2l-1.4-5.1c2.2-1.4 6.1-2.7 11-2.7 9.8 0 12.7 6.1 12.7 12.9v11.2c-.1.1-.5.1-.5.1zm-7.5-7.8c-5.5-.2-10.6 1-10.6 5.7 0 3.1 2 4.5 4.3 4.5 3.1 0 5.3-2 6.1-4.3.2-.6.2-1.2.2-1.6v-4.3zM351.8 35.1c-2 0-3.7.4-5.3 1.4-1.6.8-2.9 2-3.9 3.5h-.2V25.3h-7.8v41h7.8V48.2c0-.8 0-1.6.4-2.2.8-2.2 2.9-4.3 5.9-4.3 4.3 0 5.9 3.3 5.9 7.8v17.1h7.8v-18c0-10-5.5-13.5-10.6-13.5M298.8 25.5h-9l-13.1 41h8l3.7-12H300l3.9 12h8.4l-13.5-41zm-9.4 23.1l3.9-12.7h1.4l3.9 12.7h-9.2zM329.6 99.4c2 1 5.3 2 8.6 2 3.5 0 5.5-1.4 5.5-3.7 0-2-1.6-3.3-5.7-4.9-5.7-2-9.4-5.1-9.4-10 0-5.9 4.9-10.2 12.9-10.2 3.9 0 6.7.8 8.8 1.6l-1.6 6.3c-1.4-.6-3.9-1.6-7.1-1.6s-4.9 1.4-4.9 3.3c0 2.2 1.8 3.1 6.3 4.9 6.1 2.2 9 5.3 9 10.2 0 5.7-4.5 10.6-13.9 10.6-3.9 0-7.8-1-9.6-2l1.1-6.5zM360.8 107.4l-8.2-34.3h8.4l2.7 14.1c.8 4.1 1.4 8.6 2 12 .6-3.7 1.4-7.8 2.2-12l2.9-14.1h8.2l2.7 14.5c.8 4.1 1.2 7.8 1.8 11.4h.2c.4-3.9 1.2-7.8 2-11.8l2.9-14.1h8l-8.8 34.3h-8.4l-2.9-14.7c-.6-3.5-1.2-6.7-1.6-10.6-.6 3.9-1.2 7.1-2 10.6l-3.3 14.7h-8.8zM405.5 98.6l-2.4 8.8h-8l10.4-34.3h10.2l10.6 34.3h-8.4l-2.7-8.8h-9.7zm8.6-5.7l-2-7.3c-.6-2-1.2-4.5-1.6-6.5h-.2c-.4 2-1 4.7-1.6 6.5l-2 7.3h7.4zM429.2 107.4V73.1h9l7.1 12.4c2 3.7 4.1 8 5.5 11.6h.2c-.4-4.5-.6-9.2-.6-14.3v-10h7.1v34.3h-8.2L442 93.9c-2-3.7-4.3-8.2-5.9-12h-.2c.2 4.5.2 9.4.2 14.9V107h-6.9v.4z"/><g fill="#6C6F70"><path d="M323 132.2c1 .6 2.7 1 4.1 1 2 0 3.1-1 3.1-2.4 0-1.2-.8-2-3.1-2.9-2.9-1-4.7-2.4-4.7-5.1 0-2.9 2.4-4.9 6.1-4.9 1.8 0 3.3.4 4.1.8l-.8 2.4c-.6-.4-1.8-.8-3.5-.8-2 0-2.9 1-2.9 2 0 1.4 1 2 3.3 2.9 3.1 1.2 4.5 2.7 4.5 5.1 0 2.9-2 5.1-6.5 5.1-1.8 0-3.7-.6-4.7-1l1-2.2zM339.8 119.6c0 1-.6 1.6-1.8 1.6-1 0-1.8-.8-1.8-1.6 0-1 .8-1.6 1.8-1.6s1.6.6 1.8 1.6zm-3.5 15.9v-12.4h3.3v12.4h-3.3zM342.8 117.3h3.3v18.2h-3.3v-18.2zM351.4 123.1l2 6.3c.4 1 .6 2 .8 3.1.2-1 .6-2 .8-3.1l2-6.3h3.3l-4.7 12.4h-3.1l-4.7-12.4h3.6zM364.3 130.2c0 2.2 1.8 3.3 3.9 3.3 1.4 0 2.4-.2 3.5-.6l.4 2.2c-1 .4-2.7.8-4.3.8-4.1 0-6.3-2.4-6.3-6.3 0-3.5 2-6.7 6.1-6.7s5.3 3.3 5.3 6.1v1.4l-8.6-.2zm5.5-2.2c0-1.2-.4-3.1-2.7-3.1-2 0-2.9 1.8-2.9 3.1h5.6zM375.3 127.1c0-1.6 0-2.9-.2-4.1h2.7v2.4c.6-1.8 2-2.7 3.5-2.7h.8v3.1c-.2 0-.6-.2-1-.2-1.4 0-2.4 1-2.9 2.4v7.5h-3.1v-8.6h.2zM393.2 130.6l-1.4 4.9h-3.3l5.5-17.3h4.1l5.5 17.3h-3.5l-1.6-4.9h-5.3zm4.9-2.2l-1.4-4.3c-.4-1-.6-2.2-.8-3.3-.2 1-.6 2.2-.8 3.3l-1.4 4.3h4.4zM407.1 123.1l1.2 5.7c.2 1.4.6 2.7.8 4.1.2-1.4.6-2.7 1-4.1l1.6-5.7h2.7l1.6 5.5c.4 1.4.8 2.9 1 4.1.2-1.4.4-2.7.8-4.1l1.4-5.5h3.1l-3.9 12.4h-2.9l-1.4-5.1c-.4-1.2-.6-2.4-1-4.1-.2 1.6-.6 2.9-1 4.1l-1.6 5.1h-2.9l-3.7-12.4h3.2zM431.2 135.5l-.2-1.4c-.8 1-2 1.6-3.7 1.6-2.4 0-3.9-1.8-3.9-3.7 0-3.1 2.9-4.7 7.3-4.7v-.2c0-.8-.4-2.2-2.4-2.2-1.2 0-2.4.4-3.3 1l-.6-2c1-.6 2.4-1 4.5-1 4.1 0 5.1 2.4 5.1 5.3v4.5c0 1.2 0 2.2.2 3.1h-3.1v-.3zm-.4-5.9c-2.2 0-4.3.4-4.3 2.2 0 1.2.8 1.8 1.8 1.8 1.2 0 2.2-.8 2.4-1.6v-.6l.1-1.8zM437.1 127.1c0-1.6 0-2.9-.2-4.1h2.7v2.4h.2c.6-1.8 2-2.7 3.5-2.7h.8v3.1c-.2 0-.6-.2-1-.2-1.4 0-2.4 1-2.9 2.4v7.5h-3.1v-8.4zM457.5 117.3V132c0 1.2 0 2.7.2 3.5h-2.9l-.2-2c-.8 1.4-2.2 2.2-4.1 2.2-3.1 0-5.3-2.4-5.3-6.3 0-4.1 2.7-6.7 5.5-6.7 1.6 0 2.9.8 3.5 1.6v-7.1h3.3v.1zm-3 11.1v-.8c-.2-1.2-1.2-2.2-2.7-2.2-2 0-3.1 1.8-3.1 4.1 0 2.2 1.2 3.9 3.1 3.9 1.2 0 2.4-.8 2.7-2.2v-2.8z"/></g><path fill="#9A9A9B" d="M197.3 40.2l38.6-15.3s5.7-3.3 15.9 14.1c10 17.3 16.9 27.3 16.9 27.3s8 11.2 14.5 8.8c6.3-2.2-39.6 15.7-39.6 15.7s-6.9 1.8-14.5-13.1-11.8-21.2-14.5-24.9c-2.6-3.4-9.5-15-17.3-12.6"/><g opacity=".4"><path fill="none" d="M229 69.8h17.8V91H229z"/><path fill="#6F6F72" d="M229 77.6s0 .2 0 0c6.3 12.4 12.2 13.4 14 13.2l3.9-21.2c-1.8 6.9-12.2 7.8-17.9 8"/></g><path fill="#838384" d="M243.3 61.8l-5.9 41.2s0 6.5-20.2 6.7c-20 0-32 1-32 1s-13.7 1.4-14.9 8.2c-1.2 6.7 6.1-42.2 6.1-42.2s1.8-6.9 18.6-6.1c16.5 1 24.3.4 28.8 0 4.1-.6 17.6-1 19.5-8.8"/><g opacity=".4"><path fill="none" d="M182.8 70.4h25.3v19.8h-25.3z"/><path fill="#6F6F72" d="M207.1 90.2c-5.1-4.5-1.2-13.9 1-19.2-3.7 0-8.2-.2-13.5-.4-5.3-.2-9.2.2-12 1l24.5 18.6z"/></g><path fill="#6F6F72" d="M201.4 91.8l-33.1-25.1s-5.7-3.3 3.9-20.8c9.8-17.6 14.7-28.6 14.7-28.6s5.3-12.7.2-16.9C181.8-3.9 221 26.3 221 26.3s5.1 5.1-3.7 19.2c-9 14.1-12 21-13.9 25.1-1.6 3.9-7.9 15.9-2 21.2"/><g opacity=".4"><path fill="none" d="M197.3 39h23.5v16.9h-23.5z"/><path fill="#838384" d="M220.8 39l-23.5 9.4c5.3-1.6 10.2 3.3 13.7 7.6 1.6-3.1 3.9-6.5 6.5-10.6 1.5-2.5 2.5-4.6 3.3-6.4"/></g><path fill="#9A9A9B" d="M214.7 53.1c1.6 2.2 4.1 5.7 7.3 11.6 7.6-10.8 17.8-19.8 31-23.5-.4-.8-.8-1.4-1.4-2.2-10-17.3-15.9-14.1-15.9-14.1l-38.6 15.3c8-2.4 14.9 9.2 17.6 12.9"/></svg>