<svg xmlns="http://www.w3.org/2000/svg" width="413.5" height="283.5" viewBox="0 0 413.5 283.5"><path fill="#008B9D" d="M0 17C0 6.1 7.5 0 17.9 0h43.5C84.9 0 104 15.8 104 39.9c0 15.8-6.6 26.5-21.1 33.3v.4c19.3 2.7 34.4 18.8 34.4 38.5 0 31.9-21.3 49.1-52.5 49.1H18.1C7.7 161.2 0 154.7 0 144V17zm136 0C136 7 142.3.3 151.1.3S166.2 7 166.2 17v128.8c0 10-6.3 16.7-15.1 16.7s-15.1-6.7-15.1-16.7V17zm84.7 3.1c0 9.4-7.5 17.4-16.9 17.4-9 0-16.9-8.2-16.9-17.4 0-8.6 7.9-16.5 16.9-16.5s16.9 7.7 16.9 16.5m-32 45.4c0-10 6.3-16.7 15-16.7 8.8 0 15.1 6.7 15.1 16.7v80.3c0 10-6.3 16.7-15.1 16.7s-15-6.7-15-16.7V65.5zm116.5 17.1c-5.7 0-17.1-8.8-27-8.8-5.4 0-10.2 2.5-10.2 8.4 0 14 52.3 11.9 52.3 46.2 0 20.1-16.9 35.3-42.9 35.3-16.9 0-42-9.6-42-23.2 0-4.6 4.6-13.4 13-13.4 11.7 0 16.9 10.2 31.2 10.2 9.2 0 11.9-2.9 11.9-8.6 0-13.8-52.3-11.7-52.3-46.2 0-20.9 16.9-35.1 40.8-35.1 14.9 0 37.6 6.9 37.6 21.8-.1 6.9-5.3 13.4-12.4 13.4m93.2 0c-5.6 0-17.1-8.8-27-8.8-5.4 0-10.2 2.5-10.2 8.4 0 14 52.3 11.9 52.3 46.2 0 20.1-16.9 35.3-42.9 35.3-16.9 0-42-9.6-42-23.2 0-4.6 4.6-13.4 13-13.4 11.7 0 16.9 10.2 31.2 10.2 9.2 0 11.9-2.9 11.9-8.6 0-13.8-52.3-11.7-52.3-46.2 0-20.9 16.9-35.1 40.8-35.1 14.8 0 37.6 6.9 37.6 21.8 0 6.9-5.3 13.4-12.4 13.4"/><path fill="#D3E8ED" d="M56.9 46c-1.8 10.1-11.5 16.9-21.6 15.1-10.1-1.8-16.9-11.4-15.1-21.6C22 29.4 31.7 22.6 41.8 24.4S58.7 35.8 56.9 46"/><path fill="#FFF" d="M79.7 98.6c4.6 20.6-2.7 39.8-16.4 42.8-13.7 3.1-28.5-11.2-33.1-31.8s2.7-39.8 16.4-42.8C60.2 63.8 75 78 79.7 98.6"/><path fill="#9DB0BB" d="M5.3 196.1H3.6c-2.1 0-3.4-1.3-3.4-3.3 0-1.9 1.4-3.4 3.4-3.4h1.7v-3.9c0-5.6 3.4-8.7 8-8.7 2.7 0 5.3.8 5.3 3.5 0 2.2-1 3.2-3.1 3.2-1.3 0-2.6 0-2.6 2.8v3.1h2.4c2.3 0 3.9.9 3.9 3.4 0 2.4-1.6 3.3-3.9 3.3H13v17.7c0 2.6-1.6 4.3-3.8 4.3s-3.8-1.7-3.8-4.3l-.1-17.7zm41.2 7.5c0 8-5.5 14.7-13.7 14.7-8.3 0-13.7-6.8-13.7-14.7 0-7.8 5.6-14.8 13.7-14.8 8-.1 13.7 7 13.7 14.8m-19.8 0c0 3.7 1.9 7.7 6.1 7.7 4.1 0 6.1-4 6.1-7.7s-1.9-7.8-6.1-7.8c-4.3 0-6.1 4.1-6.1 7.8m23.4-10.7c0-2.6 2-3.8 3.9-3.8 2 0 3.7.7 3.7 3.2h.1c1.4-2.1 3-3.2 5.4-3.2 1.9 0 3.7 1.3 3.7 4.1 0 2.5-2.3 2.7-4.6 3.7-2.3 1.1-4.6 2.1-4.6 5.1v11.8c0 2.6-1.6 4.3-3.8 4.3s-3.8-1.7-3.8-4.3v-20.9zM85 181c0-2.6 1.6-4.3 3.8-4.3 2.2 0 3.8 1.7 3.8 4.3v10.4c2-1.8 4.6-2.7 7.3-2.7 8.2 0 12.3 7.7 12.3 15.2 0 7.2-4.9 14.4-12.6 14.4-2.6 0-5.6-1.2-7-3.5-.5 2-1.7 3.2-3.8 3.2-2.2 0-3.8-1.7-3.8-4.3V181zm13.7 30.3c4 0 6-4.2 6-7.7 0-3.6-2-7.8-6-7.8-4.1 0-6 3.8-6 7.6-.1 3.6 1.7 7.9 6 7.9m42.8 1.7c0 2 0 5-3.7 5-2.2 0-3.1-1.2-3.7-3.2-2 2.3-4.4 3.6-7.3 3.6-7.2 0-12.7-6.1-12.7-14.7 0-8.4 5.6-14.8 12.7-14.8 2.8 0 5.6 1.1 7.3 3.5.2-1.9 1.8-3.2 3.7-3.2 3.7 0 3.7 3 3.7 5V213zm-13.6-1.7c4 0 5.9-4 5.9-7.7s-1.9-7.8-5.9-7.8c-4.2 0-6.1 4.1-6.1 7.8.1 3.7 2 7.7 6.1 7.7m17.7-30.3c0-2.6 1.6-4.3 3.8-4.3s3.8 1.7 3.8 4.3v10.4c2-1.8 4.6-2.7 7.3-2.7 8.2 0 12.3 7.7 12.3 15.2 0 7.2-4.9 14.4-12.6 14.4-2.6 0-5.6-1.2-7-3.5-.5 2-1.7 3.2-3.8 3.2-2.2 0-3.8-1.7-3.8-4.3V181zm13.7 30.3c4 0 6-4.2 6-7.7 0-3.6-2-7.8-6-7.8-4.1 0-6 3.8-6 7.6 0 3.6 1.8 7.9 6 7.9m24.7-29.5c0 2.4-1.9 4.4-4.3 4.4-2.3 0-4.3-2.1-4.3-4.4 0-2.2 2-4.2 4.3-4.2s4.3 1.9 4.3 4.2m-8.1 11.5c0-2.6 1.6-4.3 3.8-4.3s3.8 1.7 3.8 4.3v20.4c0 2.6-1.6 4.3-3.8 4.3s-3.8-1.7-3.8-4.3v-20.4zm17.9 12.8c.5 3.8 3.7 5.5 7.2 5.5 3.9 0 6.6-3.1 8.7-3.1 1.7 0 3.1 1.6 3.1 3.3 0 3.3-6.8 6.5-12.5 6.5-8.6 0-14.4-6.3-14.4-14.7 0-7.8 5.6-14.8 13.7-14.8 8.3 0 13.8 7.6 13.8 13.9 0 2.3-1 3.4-3.4 3.4h-16.2zm12-5.1c-.4-3.4-2.6-5.9-6.1-5.9-3.4 0-5.7 2.6-6.1 5.9h12.2zm26.6-3.3c-1.4 0-4.4-2.2-6.9-2.2-1.4 0-2.6.6-2.6 2.1 0 3.6 13.3 3 13.3 11.8 0 5.1-4.3 9-10.9 9-4.3 0-10.7-2.5-10.7-5.9 0-1.2 1.2-3.4 3.3-3.4 3 0 4.3 2.6 7.9 2.6 2.3 0 3-.7 3-2.2 0-3.5-13.3-3-13.3-11.8 0-5.3 4.3-8.9 10.4-8.9 3.8 0 9.6 1.8 9.6 5.5.1 1.7-1.3 3.4-3.1 3.4m22.2-16.7c0-2.6 1.6-4.3 3.8-4.3 2.2 0 3.8 1.7 3.8 4.3v10.4c2-1.8 4.6-2.7 7.3-2.7 8.2 0 12.3 7.7 12.3 15.2 0 7.2-4.9 14.4-12.6 14.4-2.6 0-5.6-1.2-7-3.5-.5 2-1.7 3.2-3.8 3.2-2.2 0-3.8-1.7-3.8-4.3V181zm13.7 30.3c4 0 6-4.2 6-7.7 0-3.6-2-7.8-6-7.8-4.1 0-6 3.8-6 7.6 0 3.6 1.8 7.9 6 7.9m43-7.7c0 8-5.5 14.7-13.7 14.7s-13.7-6.8-13.7-14.7c0-7.8 5.6-14.8 13.7-14.8 8.1-.1 13.7 7 13.7 14.8m-19.8 0c0 3.7 1.9 7.7 6.1 7.7s6.1-4 6.1-7.7-1.9-7.8-6.1-7.8-6.1 4.1-6.1 7.8m23.5-10.7c0-2.6 2-3.8 3.9-3.8 2 0 3.7.7 3.7 3.2h.1c1.4-2.1 3-3.2 5.4-3.2 1.9 0 3.7 1.3 3.7 4.1 0 2.5-2.3 2.7-4.6 3.7-2.3 1.1-4.6 2.1-4.6 5.1v11.8c0 2.6-1.6 4.3-3.8 4.3s-3.8-1.7-3.8-4.3v-20.9zm18.5.4c0-2.6 1.6-4.3 3.8-4.3 2 0 3.2 1.1 3.5 2.8 1.5-2.1 3.8-3.1 7.4-3.1 6 0 10.5 3.8 10.5 10.3v14.7c0 2.6-1.6 4.3-3.8 4.3-2.2 0-3.8-1.7-3.8-4.3v-13.4c0-3.6-2.2-5.3-5-5.3-3.1 0-4.9 2.3-4.9 5.3v13.4c0 2.6-1.6 4.3-3.8 4.3-2.2 0-3.8-1.7-3.8-4.3v-20.4h-.1zM3.6 247.5c0-2.6 1.6-4.3 3.8-4.3 2.1 0 3.3 1.2 3.8 3.2 1.4-2.3 4.4-3.5 7.3-3.5 8.2 0 12.3 7.7 12.3 15.2 0 7.2-4.9 14.4-12.6 14.4-2.4 0-5-.9-7-2.7v9.4c0 2.6-1.6 4.3-3.8 4.3s-3.8-1.7-3.8-4.3v-31.7zm13.6 18c4 0 6-4.2 6-7.7 0-3.6-2-7.8-6-7.8-4.1 0-6 3.8-6 7.6 0 3.6 1.8 7.9 6 7.9M34 247.1c0-2.6 2-3.8 3.9-3.8 2 0 3.7.7 3.7 3.2h.1c1.4-2.1 3-3.2 5.4-3.2 1.9 0 3.7 1.3 3.7 4.1 0 2.5-2.3 2.7-4.6 3.7-2.3 1.1-4.6 2.1-4.6 5.1V268c0 2.6-1.6 4.3-3.8 4.3S34 270.6 34 268v-20.9zm23.7 13.2c.5 3.8 3.7 5.5 7.2 5.5 3.9 0 6.6-3.1 8.7-3.1 1.7 0 3.1 1.6 3.1 3.3 0 3.3-6.8 6.5-12.5 6.5-8.6 0-14.4-6.3-14.4-14.7 0-7.8 5.6-14.8 13.7-14.8 8.3 0 13.8 7.6 13.8 13.9 0 2.3-1 3.4-3.4 3.4H57.7zm12-5.1c-.4-3.4-2.6-5.9-6.1-5.9-3.4 0-5.7 2.6-6.1 5.9h12.2zm11-7.7c0-2.6 1.6-4.3 3.8-4.3 2 0 3.2 1.1 3.5 2.9 1.9-2 4.3-3.2 7.1-3.2 3.2 0 5.9 1.3 7.9 3.9 2.1-2.4 5.5-3.9 8.1-3.9 6.2 0 10.5 3.6 10.5 10.3v14.7c0 2.6-1.6 4.3-3.8 4.3-2.2 0-3.8-1.7-3.8-4.3v-13.4c0-3.1-1.7-5.3-4.5-5.3s-4.5 2.2-4.5 5.3v13.4c0 2.6-1.6 4.3-3.8 4.3-2.2 0-3.8-1.7-3.8-4.3v-13.4c0-3.1-1.7-5.3-4.5-5.3-3.1 0-4.5 2.2-4.5 5.3v13.4c0 2.6-1.6 4.3-3.8 4.3-2.2 0-3.8-1.7-3.8-4.3l-.1-20.4zm71.6 19.7c0 2 0 5-3.7 5-2.2 0-3.1-1.2-3.7-3.2-2 2.3-4.4 3.6-7.3 3.6-7.2 0-12.7-6.1-12.7-14.7 0-8.4 5.6-14.8 12.7-14.8 2.8 0 5.6 1.1 7.3 3.5.2-1.9 1.8-3.2 3.7-3.2 3.7 0 3.7 3 3.7 5v18.8zm-13.6-1.7c4 0 5.9-4 5.9-7.7s-1.9-7.8-5.9-7.8c-4.2 0-6.1 4.1-6.1 7.8s1.9 7.7 6.1 7.7m21.4-15.2h-1.7c-2.1 0-3.4-1.3-3.4-3.3 0-1.9 1.4-3.4 3.4-3.4h1.7V239c0-2.6 1.6-4.3 3.8-4.3s3.8 1.7 3.8 4.3v4.6h2.2c2 0 3.7.9 3.7 3.4 0 2.4-1.7 3.3-3.7 3.3h-2.2V268c0 2.6-1.6 4.3-3.8 4.3s-3.8-1.7-3.8-4.3v-17.7zm15.5-2.8c0-2.6 1.6-4.3 3.8-4.3s3.8 1.7 3.8 4.3v13.7c0 3.2 2.4 4.9 4.9 4.9 2.6 0 4.9-1.8 4.9-4.9v-13.7c0-2.6 1.6-4.3 3.8-4.3s3.8 1.7 3.8 4.3v13.8c0 6.8-4.5 11.2-12.6 11.2s-12.6-4.4-12.6-11.2v-13.8h.2zm29.7-.4c0-2.6 2-3.8 3.9-3.8 2 0 3.7.7 3.7 3.2h.1c1.4-2.1 3-3.2 5.4-3.2 1.9 0 3.7 1.3 3.7 4.1 0 2.5-2.3 2.7-4.6 3.7-2.3 1.1-4.6 2.1-4.6 5.1V268c0 2.6-1.6 4.3-3.8 4.3s-3.8-1.7-3.8-4.3v-20.9zm23.3 13.2c.5 3.8 3.7 5.5 7.2 5.5 3.9 0 6.6-3.1 8.7-3.1 1.7 0 3.1 1.6 3.1 3.3 0 3.3-6.8 6.5-12.5 6.5-8.6 0-14.4-6.3-14.4-14.7 0-7.8 5.6-14.8 13.7-14.8 8.3 0 13.8 7.6 13.8 13.9 0 2.3-1 3.4-3.4 3.4h-16.2zm12.1-5.1c-.4-3.4-2.6-5.9-6.1-5.9-3.4 0-5.7 2.6-6.1 5.9h12.2zm51.7 2.6c0 8-5.5 14.7-13.7 14.7s-13.7-6.8-13.7-14.7c0-7.8 5.6-14.8 13.7-14.8s13.7 7 13.7 14.8m-19.8 0c0 3.7 1.9 7.7 6.1 7.7s6.1-4 6.1-7.7-1.9-7.8-6.1-7.8c-4.2-.1-6.1 4.1-6.1 7.8m23-10.7c0-2.6 2-3.8 3.9-3.8 2 0 3.7.7 3.7 3.2h.1c1.4-2.1 3-3.2 5.4-3.2 1.9 0 3.7 1.3 3.7 4.1 0 2.5-2.3 2.7-4.6 3.7-2.3 1.1-4.6 2.1-4.6 5.1V268c0 2.6-1.6 4.3-3.8 4.3-2.2 0-3.8-1.7-3.8-4.3v-20.9zm49.4 4.8c-1.4 0-4.4-2.2-6.9-2.2-1.4 0-2.6.6-2.6 2.1 0 3.6 13.3 3 13.3 11.8 0 5.1-4.3 9-10.9 9-4.3 0-10.7-2.5-10.7-5.9 0-1.2 1.2-3.4 3.3-3.4 3 0 4.3 2.6 7.9 2.6 2.3 0 3-.7 3-2.2 0-3.5-13.3-3-13.3-11.8 0-5.3 4.3-8.9 10.4-8.9 3.8 0 9.6 1.8 9.6 5.5 0 1.7-1.3 3.4-3.1 3.4m14.5-16c0 2.4-1.9 4.4-4.3 4.4-2.3 0-4.3-2.1-4.3-4.4 0-2.2 2-4.2 4.3-4.2s4.3 2 4.3 4.2m-8.1 11.6c0-2.6 1.6-4.3 3.8-4.3 2.2 0 3.8 1.7 3.8 4.3v20.4c0 2.6-1.6 4.3-3.8 4.3-2.2 0-3.8-1.7-3.8-4.3v-20.4zm31 3.9c-1.9 0-3.6-1.5-6.1-1.5-4.4 0-6.4 3.9-6.4 7.8 0 3.8 2.3 7.7 6.4 7.7 1.9 0 4.8-1.6 5.7-1.6 1.8 0 3.3 1.5 3.3 3.4 0 3.9-6.6 5.3-9.4 5.3-8.2 0-13.7-6.8-13.7-14.7 0-7.8 5.6-14.8 13.7-14.8 3 0 9.4 1.1 9.4 4.8 0 1.6-1.1 3.6-2.9 3.6m5.6-16.3c0-2.6 1.6-4.3 3.8-4.3 2.2 0 3.8 1.7 3.8 4.3V253l8.4-8.1c1.2-1.2 2.5-1.6 3.5-1.6 1.9 0 3.2 1.8 3.2 3.5 0 1.1-.4 2-1.5 3l-6.8 6.1 9 10.5c.7.8 1 1.7 1 2.6 0 2-1.6 3.6-3.6 3.6-1.4 0-2.5-.9-3.7-2.3l-9.4-11.5h-.1v9.3c0 2.6-1.6 4.3-3.8 4.3-2.2 0-3.8-1.7-3.8-4.3v-33z"/></svg>