<svg version="1.1" id="Layer_1" xmlns="http://www.w3.org/2000/svg" x="0" y="0" width="749.3" height="283.5" viewBox="0 0 749.3 283.5" xml:space="preserve"><style>.st2{fill:#0b65bb}</style><g id="Layer_2"><g id="Layer_1-2"><path d="M452.6 119.2V0h296.7v119.2H452.6zm28.9-107.6L461 107.3h24.3l13.3-65.6h.7l20 65.6h32.2l20.4-95.8h-24.3l-13.4 65.9h-.6l-19.7-66-32.4.2zm162.3 95.8l20-95.7H638L630.4 48h-30.7l7.5-36.3h-25.8l-20 95.7h25.8l8.5-40.8h30.7l-8.4 40.8h25.8zM732 33l6.2-19.1c-1.8-.6-3.2-1.2-4.8-1.6-12.3-2.9-25-3.5-37.4-1.6-6 .8-11.8 2.8-17.1 6-11.4 7-14.6 18.8-12.9 30 .9 5.8 4.5 10.8 9.7 13.6 4.6 2.6 9.5 4.5 14.3 6.7 3.2 1.3 6.3 2.9 9.2 4.7 4 2.6 5.2 8 2.5 12.1-.8 1.2-1.8 2.2-3.1 2.9-2.1 1.3-4.5 2.2-6.9 2.7-10.4 1.9-21.2.8-30.9-3.3-.7-.3-1.4-.5-2.3-.8l-5.9 19.1c13.2 4.4 27.2 5.8 41.1 4.4 7.4-.7 14.6-2.8 21.1-6.4 7.2-3.8 12.3-10.6 13.9-18.5 3-14.1-1.4-24.7-14.5-30.9-2.9-1.4-6-2.6-9-3.9-3-1.3-6-2.6-8.8-4.2s-4.8-4.1-4.4-7.7c.3-3.4 2.8-6.2 6.2-6.8 3.4-.8 6.8-1.3 10.3-1.4 8.2-.6 16.2.8 23.5 4z" fill="#0561b9"/><path d="M707.7 174.2h-10.1l5.3-20.9h12.4l-7.6 20.9z" fill="#282324"/><path d="M0 152.4h12v50.4h23.2v9.4H0v-59.8zM41.3 149h11.5v11H41.3v-11zm0 19.1h11.5v44.2H41.3v-44.2zM59.3 168.1h12.3l11 32.2h.2l10.6-32.2h11.5l-16.2 44.2h-13l-16.4-44.2zM146.5 209.9c-4.7 2.4-9.9 3.6-15.2 3.4-15.2-.2-22.9-7.9-23.1-22.9-.2-5.9 1.6-11.8 5.1-16.5 3.4-4.4 8.5-6.7 15.4-6.8 8.1.1 13.6 2.5 16.7 7.5 2.9 4.9 4.3 11.3 4.3 19.2h-30.5c.1 3.1 1.5 6.1 3.9 8.1 2.4 2.1 5.6 3.1 8.7 3 2.7 0 5.4-.5 7.9-1.4 2.4-.8 4.6-1.8 6.8-3.1v9.5zm-7.7-24c0-2.6-.8-5.2-2.3-7.3-1.7-2.1-4.3-3.3-7-3.1-2.7-.1-5.4.9-7.3 2.9-1.8 2.1-2.8 4.7-2.9 7.5h19.5zM158.2 168.1h10.2v10h.2c.5-2.7 1.9-5.2 3.8-7.1 2.1-2.5 5.1-3.9 8.3-4 1.2 0 2.4.1 3.5.3V179c-1.6-.7-3.4-1-5.1-.9-2-.1-3.9.6-5.3 1.9-1.3 1.3-2.3 2.9-2.8 4.7-.6 1.9-.9 3.9-1 5.8-.1 2-.2 3.9-.2 5.6v16.2h-11.5l-.1-44.2zM190.6 168.1h11v6.2h.2c2.5-4.7 7-7.1 13.7-7.3 6.7.1 11.5 2.4 14.4 6.9 2.9 4.9 4.3 10.5 4.1 16.1.2 5.7-1.2 11.3-4.1 16.1-2.9 4.6-7.8 7-14.7 7.1-5 .1-9.8-2.1-12.9-6.1h-.2v23.1h-11.5v-62.1zm13.9 12.7c-1.6 2.9-2.4 6.1-2.4 9.3-.1 3.3.7 6.5 2.3 9.4.8 1.3 1.8 2.5 3.1 3.4 1.4 1 3 1.5 4.7 1.4 1.7.1 3.4-.4 4.8-1.4 1.2-.9 2.2-2.1 2.9-3.4.7-1.5 1.3-3.1 1.6-4.7.2-1.6.3-3.1.3-4.7 0-3.2-.6-6.4-1.9-9.3-.6-1.4-1.7-2.6-2.9-3.4-1.4-.9-3.1-1.4-4.7-1.3-3.2-.1-6.2 1.7-7.8 4.7zM246.1 173.3c9.4-8.2 23.5-8.2 32.9 0 4.3 4.1 6.5 9.9 6.6 17.2.2 6-2 11.8-6 16.2-4 4.3-9.7 6.6-17.2 6.7-7.3-.1-13-2.3-17-6.7-4.1-4.4-6.3-10.2-6.1-16.1.1-7.5 2.3-13.2 6.8-17.3zm5.4 18.4c.1.9.3 1.9.4 2.8.3 1.7.9 3.4 1.7 5 .8 1.4 2 2.7 3.4 3.5 1.6 1 3.4 1.5 5.3 1.4 2 .1 3.9-.4 5.6-1.4 1.4-.9 2.6-2.1 3.4-3.5.9-1.5 1.5-3.2 1.7-5 .3-1.8.4-3.6.4-5.4.1-3.3-.8-6.5-2.7-9.2-2-2.6-5.1-4.1-8.4-4-3.3-.1-6.4 1.4-8.2 4-1.9 2.6-2.9 5.8-2.8 9.1.1 1 .2 1.8.2 2.7zM297.7 173.3c9.4-8.2 23.5-8.2 32.9 0 4.3 4.1 6.5 9.9 6.6 17.2.2 6-2 11.8-6 16.2-4 4.3-9.7 6.6-17.2 6.7-7.3-.1-13-2.3-17-6.7-4.1-4.4-6.3-10.2-6.1-16.1.2-7.5 2.4-13.2 6.8-17.3zm5.5 18.4c.1.9.3 1.9.4 2.8.3 1.7.9 3.4 1.7 5 .8 1.4 2 2.7 3.4 3.5 1.6 1 3.4 1.5 5.3 1.4 2 .1 3.9-.4 5.6-1.4 1.4-.9 2.6-2.1 3.4-3.5.9-1.5 1.5-3.2 1.7-5 .3-1.8.4-3.6.4-5.4.1-3.3-.8-6.5-2.7-9.2-2-2.6-5.1-4.1-8.4-4-3.3-.1-6.4 1.4-8.2 4-1.9 2.6-2.9 5.8-2.8 9.1.1 1 .1 1.8.2 2.7zM345.7 148h11.5v64.3h-11.5V148zM386.5 152.4h12.7l11.1 47.8h.2l10.2-47.8H437l10.5 47.8h.2l11.2-47.8h11.7L455 212.3h-15.5l-10.8-47.8h-.2l-10.6 47.8h-15.5l-15.9-59.9zM480.4 173.3c9.4-8.2 23.5-8.2 32.9 0 4.3 4.1 6.5 9.9 6.6 17.2.2 6-2 11.8-6 16.2-4 4.3-9.7 6.6-17.2 6.7-7.3-.1-13-2.3-17-6.7-4.1-4.4-6.3-10.2-6.1-16.1.2-7.5 2.5-13.2 6.8-17.3zm5.5 18.4c.1.9.3 1.9.4 2.8.3 1.7.9 3.4 1.7 5 .8 1.4 2 2.7 3.4 3.5 1.6 1 3.4 1.5 5.3 1.4 2 .1 3.9-.4 5.6-1.4 1.4-.9 2.6-2.1 3.4-3.5.9-1.5 1.5-3.2 1.7-5 .3-1.8.4-3.6.4-5.4.1-3.3-.8-6.5-2.7-9.2-2-2.6-5.1-4.1-8.4-4-3.3-.1-6.4 1.4-8.2 4-1.9 2.6-2.9 5.8-2.8 9.1.1 1 .1 1.8.2 2.7zM528 168.1h10.7v6.2h.2c1.6-2.4 3.8-4.3 6.3-5.6 2.1-1 4.4-1.5 6.8-1.5 6.2-.1 10.5 2.5 13 7.8 1.3-2.6 3.4-4.6 6-5.9 2.4-1.2 5.1-1.9 7.8-1.9 5.4.1 9.1 1.7 11.1 4.9 2.1 3.8 3.1 8.1 2.8 12.4v27.8h-11.5V186c.1-2.2-.2-4.4-.8-6.5-.4-1-1-1.9-1.9-2.5-1.2-.7-2.6-1-4-.9-1.6-.1-3.2.4-4.5 1.4-1.2 1-2.1 2.3-2.7 3.8-.6 1.5-.9 3.1-1.1 4.7-.2 1.6-.3 3.3-.3 4.9v21.5h-11.5v-26.3c.1-2.2-.2-4.4-.8-6.5-.4-1-1-1.9-1.9-2.5-1.2-.7-2.6-1-4-.9-1.6-.1-3.2.4-4.5 1.4-1.2 1-2.1 2.3-2.7 3.8-.6 1.5-1 3.1-1.1 4.7-.2 1.6-.3 3.3-.3 4.9v21.5h-11.5l.4-44.4zM639.1 209.9c-4.7 2.4-9.9 3.6-15.2 3.4-15.2-.2-22.9-7.9-23.1-22.9-.2-5.9 1.6-11.8 5.2-16.5 3.4-4.4 8.5-6.7 15.4-6.8 8.1.1 13.6 2.5 16.7 7.5 2.9 4.9 4.3 11.3 4.2 19.2h-30.5c.1 3.1 1.5 6.1 3.9 8.1 2.4 2.1 5.6 3.1 8.7 3 2.7 0 5.4-.5 7.9-1.4 2.4-.8 4.6-1.8 6.8-3.1v9.5zm-7.8-24c0-2.6-.8-5.2-2.3-7.3-1.7-2.1-4.3-3.3-7-3.1-2.7-.1-5.4.9-7.3 2.9-1.8 2.1-2.8 4.7-2.9 7.5h19.5zM650.6 168.1h10.9v6h.2c3.4-4.6 8.8-7.2 14.5-7 5.2.1 9 1.7 11.5 4.9 2.5 3.7 3.7 8 3.5 12.4v27.9h-11.5v-23.6c0-1.4 0-2.9-.1-4.4 0-1.4-.3-2.8-.9-4-.4-1.3-1.1-2.4-2.1-3.2-1.3-.8-2.8-1.2-4.4-1.1-1.8-.1-3.5.4-5 1.4-1.3 1-2.3 2.3-3.1 3.7-.7 1.5-1.3 3.1-1.5 4.7-.3 1.6-.5 3.2-.5 4.8v21.7h-11.5v-44.2zM744.8 177.4c-1.6-.6-3.2-1.1-4.8-1.4-1.8-.3-3.6-.5-5.5-.4-1.5 0-3.1.3-4.5.9-1.5.7-2.4 2.3-2.3 4 .1 1.7 1.1 2.8 3.2 3.5 1.1.4 2.2.8 3.3 1.1 1.2.3 2.4.7 3.6 1.2 1.3.4 2.6.9 3.8 1.5 1.1.7 2.2 1.5 3.1 2.4 1 1 1.8 2.2 2.3 3.5.6 1.7.8 3.5.8 5.2-.1 5.1-2 8.8-5.6 11.1-3.9 2.3-8.3 3.5-12.9 3.3-4.4-.1-8.8-.7-13-1.9l.7-9.4c3.5 1.9 7.4 2.9 11.3 2.9 1.7 0 3.4-.4 4.9-1.2 1.7-.7 2.8-2.4 2.7-4.2 0-1-.2-2-.8-2.8-.6-.7-1.4-1.3-2.3-1.6-2.2-.9-4.5-1.6-6.9-2.2-1.2-.4-2.4-.9-3.6-1.4-1.2-.6-2.3-1.3-3.3-2.2-1-1-1.8-2.1-2.2-3.4-.7-1.5-1-3.2-.9-4.9.1-4.8 1.9-8.3 5.4-10.5 3.6-2.2 7.7-3.4 11.9-3.3 2.4 0 4.7.1 7 .4 1.9.3 3.8.7 5.5 1.2l-.9 8.6z"/><path class="st2" d="M177.8 244h9.5l14.8 29h.1v-29h7.4v38.8h-9.5l-14.8-29h-.1v29h-7.4V244zM218.7 244h7.8v15.7H242V244h7.8v38.8H242v-17h-15.5v17h-7.8V244zM272.1 249.4c-.7 0-1.3.1-2 .2-.7.2-1.4.4-2 .8-.6.4-1.2 1-1.5 1.7-.4.8-.6 1.7-.6 2.7 0 .8.3 1.5.8 2.1.6.6 1.2 1.1 1.9 1.5.9.5 1.8.9 2.8 1.2l3.1 1.3c1.1.4 2.1.9 3.1 1.4 1 .6 1.9 1.3 2.7 2.2.8.9 1.5 1.9 1.9 2.9.5 1.4.7 2.8.7 4.2-.1 4.2-1.5 7.2-4.2 9-3.1 1.9-6.7 2.9-10.3 2.7-1.7 0-3.4-.1-5-.4-1.4-.3-3-.6-4.9-1.1l.7-7c2.7 1.5 5.7 2.4 8.8 2.4 1.6 0 3.2-.4 4.6-1.2 1.4-.7 2.3-2.2 2.3-3.8 0-.8-.3-1.6-.7-2.2-.5-.7-1.2-1.2-1.9-1.7-1.9-1-3.8-1.8-5.8-2.6-1.1-.4-2.1-1-3.1-1.6-1-.6-2-1.2-2.8-2-.8-.9-1.5-1.9-1.9-2.9-.5-1.3-.8-2.7-.8-4 .1-4.3 1.5-7.4 4.2-9.2 2.8-1.8 6-2.7 9.3-2.6 3.1 0 6.3.5 9.3 1.4l-.7 6.4c-2.6-1.2-5.3-1.7-8-1.8zM306.3 244h21.6v6.1H314v9.5h13.1v6.1H314v17h-7.8V244zM336.2 257.5c6.1-5.3 15.2-5.3 21.3 0 2.8 2.7 4.2 6.4 4.2 11.2.1 3.9-1.3 7.6-3.9 10.4-2.6 2.8-6.3 4.3-11.1 4.3-4.7-.1-8.4-1.5-11-4.3-5.3-6.3-5.1-15.6.5-21.6zm3.6 11.9l.3 1.8c.2 1.1.6 2.2 1.1 3.2.5.9 1.3 1.7 2.2 2.3 1 .7 2.2 1 3.4.9 1.3 0 2.5-.3 3.6-.9.9-.6 1.7-1.3 2.2-2.3.6-1 .9-2.1 1.1-3.2.2-1.2.3-2.3.3-3.5.1-2.1-.5-4.2-1.7-5.9-1.3-1.7-3.4-2.7-5.5-2.6-2.1-.1-4.1.9-5.3 2.6-1.2 1.7-1.9 3.8-1.8 5.9 0 .6 0 1.1.1 1.7zM394.3 282.7h-7v-3.9h-.1c-2.2 2.9-5.7 4.6-9.4 4.6-3.4 0-5.8-1.1-7.3-3.2-1.7-2.3-2.5-5.1-2.4-8v-18.1h7.4v15.3c0 .4 0 .9.1 1.3v1.4c.1.9.2 1.8.5 2.7.3.8.8 1.5 1.4 2 .8.6 1.7.9 2.7.8 1.2 0 2.4-.3 3.4-1.1.8-.6 1.5-1.4 1.9-2.4.5-.9.9-2 1-3.1.1-1 .2-2 .2-3v-14.1h7.4l.2 28.8zM402.4 254.1h7v3.9h.1c2.2-3 5.7-4.7 9.4-4.6 2.8-.2 5.6 1 7.4 3.2 1.6 2.4 2.4 5.2 2.3 8.1v18.1h-7.4v-15.3-2.8c0-.9-.2-1.8-.5-2.6-.2-.8-.7-1.5-1.4-2.1-.8-.5-1.8-.8-2.8-.7-1.1-.1-2.3.3-3.2.9-.8.6-1.5 1.5-2 2.4-.5 1-.8 2-1 3.1-.2 1-.3 2.1-.3 3.1v14.1h-7.4l-.2-28.8zM455.7 279.5h-.1c-2.2 2.6-5.4 4-8.8 3.9-4.3-.1-7.4-1.6-9.3-4.6-3.6-6.5-3.6-14.4 0-20.9 1.9-2.9 5-4.4 9.3-4.4 3.3-.1 6.5 1.4 8.5 4h.1v-16.4h7.4v41.7h-7.2v-3.3zm-11.7-5c.5.9 1.1 1.6 1.9 2.2.9.7 1.9 1 3 .9 1.1.1 2.2-.3 3.2-.9.8-.6 1.5-1.3 2-2.2.5-.9.9-1.9 1.1-3 .2-1 .3-2.1.3-3.1 0-2.1-.5-4.2-1.5-6.1-.5-.9-1.2-1.6-2.1-2.2-.9-.6-2-.9-3.1-.8-2.1-.1-4 1.1-4.9 3.1-.5.9-.8 1.9-.9 2.9-.2 1-.3 2.1-.3 3.1-.1 2.1.4 4.1 1.3 6.1zM472.3 255.6c3.1-1.4 6.5-2.1 9.9-2.2 8.3-.1 12.4 3.9 12.3 12v3.7c0 2.8 0 5.2.1 7.2s.2 4.1.3 6.4h-6.6c-.2-1.4-.3-2.8-.3-4.2-.9 1.5-2.2 2.8-3.7 3.6-1.6.9-3.3 1.3-5.1 1.3-2.5 0-4.9-.8-6.8-2.2-2.1-1.4-3.3-3.8-3.2-6.3-.1-1.8.4-3.7 1.4-5.2.8-1.3 2-2.3 3.4-2.9 1.5-.7 3.1-1.2 4.7-1.4 1.6-.2 3.3-.3 4.9-.3h4.1c.2-1.8-.4-3.5-1.6-4.8-1.4-1-3.2-1.5-4.9-1.3-3.2 0-6.3 1.1-8.8 3.1l-.1-6.5zm5.4 21.5c1 .6 2.2.9 3.3.9 2.1.1 4-.9 5.2-2.6 1.1-1.8 1.6-3.8 1.6-5.9h-4.5c-.4 0-.9 0-1.3.1-.9.1-1.9.3-2.7.7-.8.3-1.5.8-2.1 1.5-.6.7-.9 1.7-.9 2.7-.1 1 .5 2 1.4 2.6zM504.7 259.6h-5.5v-5.4h5.5v-5.7l7.4-2.4v8.1h6.6v5.4h-6.6v13.3c-.1 1.1.2 2.2.7 3.2.6 1 1.7 1.6 2.8 1.5 1.2.1 2.4-.2 3.4-.8l.2 5.9c-1.8.5-3.6.7-5.5.7-6-.1-9-3.2-9.1-9.3l.1-14.5zM524.5 241.8h7.4v7h-7.4v-7zm0 12.4h7.4v28.6h-7.4v-28.6zM542.6 257.5c6.1-5.3 15.2-5.3 21.3 0 2.8 2.7 4.2 6.4 4.2 11.2.1 3.9-1.3 7.6-3.9 10.4-2.6 2.8-6.3 4.3-11.1 4.3-4.7-.1-8.4-1.5-11-4.3-5.3-6.3-5.2-15.6.5-21.6zm3.6 11.9l.3 1.8c.2 1.1.6 2.2 1.1 3.2.5.9 1.3 1.7 2.2 2.3 1 .7 2.2 1 3.4.9 1.3 0 2.5-.3 3.6-.9.9-.6 1.7-1.3 2.2-2.3.6-1 .9-2.1 1.1-3.2.2-1.2.3-2.3.3-3.5.1-2.1-.5-4.2-1.7-5.9-1.3-1.7-3.4-2.7-5.5-2.6-2.1-.1-4.1.9-5.3 2.6-1.2 1.7-1.9 3.8-1.8 5.9 0 .6 0 1.1.1 1.7zM574.4 254.1h7v3.9h.1c2.2-3 5.7-4.7 9.4-4.6 2.8-.2 5.6 1 7.4 3.2 1.6 2.4 2.4 5.2 2.3 8.1v18.1h-7.4v-15.3-2.8c0-.9-.2-1.8-.5-2.6-.2-.8-.7-1.5-1.4-2.1-.8-.5-1.8-.8-2.8-.7-1.1-.1-2.3.3-3.2.9-.8.6-1.5 1.5-2 2.4-.5 1-.8 2-1 3.1-.2 1-.3 2.1-.3 3.1v14.1h-7.4l-.2-28.8zM632.3 250.1h-11.1V244h30v6.1h-11.1v32.7h-7.8v-32.7zM650.5 254.1h6.6v6.5h.1c.4-1.7 1.2-3.3 2.4-4.6 1.3-1.6 3.3-2.5 5.4-2.6.8 0 1.5.1 2.3.2v7.5c-1-.5-2.2-.7-3.3-.6-1.3-.1-2.5.4-3.4 1.2-.9.8-1.5 1.9-1.8 3.1-.4 1.2-.6 2.5-.7 3.8-.1 1.3-.1 2.5-.1 3.6v10.5h-7.4l-.1-28.6zM698.8 282.7h-7v-3.9h-.1c-2.2 2.9-5.7 4.6-9.4 4.6-3.4 0-5.8-1.1-7.3-3.2-1.7-2.3-2.5-5.1-2.4-8v-18.1h7.4v15.3c0 .4 0 .9.1 1.3v1.4c.1.9.2 1.8.5 2.7.3.8.8 1.5 1.4 2 .8.6 1.7.9 2.7.8 1.2 0 2.4-.3 3.4-1.1.8-.6 1.5-1.4 1.9-2.4.5-.9.9-2 1-3.1.1-1 .2-2 .2-3v-14.1h7.5v28.8zM723.3 260.1c-1-.4-2.1-.7-3.1-.9-1.2-.2-2.4-.3-3.6-.3-1 0-2 .2-2.9.6-1 .5-1.6 1.5-1.5 2.6 0 1.1.7 1.8 2.1 2.3.7.3 1.4.5 2.1.7.8.2 1.6.5 2.3.8.8.3 1.7.6 2.4 1s1.4 1 2 1.6c.6.7 1.2 1.4 1.5 2.3.4 1.1.5 2.2.5 3.4.1 2.9-1.3 5.6-3.7 7.2-2.5 1.5-5.4 2.2-8.3 2.2-2.9 0-5.7-.5-8.4-1.2l.4-6.1c2.2 1.2 4.8 1.9 7.3 1.9 1.1 0 2.2-.3 3.2-.8 1.1-.5 1.8-1.5 1.7-2.7 0-.6-.2-1.3-.5-1.8-.4-.5-.9-.8-1.5-1.1-1.5-.6-2.9-1-4.4-1.4-.8-.3-1.6-.6-2.3-.9-.8-.4-1.5-.8-2.1-1.4-.6-.6-1.1-1.4-1.4-2.2-.4-1-.6-2.1-.6-3.2-.2-2.7 1.2-5.3 3.5-6.8s5-2.2 7.7-2.1c1.5 0 3 .1 4.6.3 1.3.2 2.4.5 3.6.8l-.6 5.2zM733.4 259.6h-5.5v-5.4h5.5v-5.7l7.4-2.4v8.1h6.6v5.4h-6.6v13.3c-.1 1.1.2 2.2.7 3.2.6 1 1.7 1.6 2.8 1.5 1.2.1 2.4-.2 3.4-.8l.2 5.9c-1.8.5-3.6.7-5.5.7-6-.1-9-3.2-9.1-9.3l.1-14.5z"/></g></g></svg>