<svg xmlns="http://www.w3.org/2000/svg" width="1832.4" height="283.5" viewBox="0 0 1832.4 283.5"><path d="M1232.2 0c-5.6 0-10.1 1.6-13.4 4.9-3.9 3.9-5.8 9.8-5.8 17.8v10h-11.1v6.4h11.1v56h7.8v-56h20v-6.4h-20v-10c0-6.1 1.2-10.3 3.6-12.7 2.1-2.1 4.9-3.1 8.6-3.1 3.6 0 6.6.9 9.2 2.6l3.1-5.5c-3.1-2.7-7.5-4-13.1-4m-52.3 83c-3.6 4.6-8.6 6.9-14.9 6.9-5.9 0-10.8-2.4-14.6-7.2-3.9-4.8-5.8-11.1-5.8-18.9 0-7.8 1.8-14 5.5-18.7 3.7-4.7 8.6-7 14.8-7 5.9 0 10.8 2.5 14.6 7.3 3.9 4.9 5.8 11.2 5.8 18.9 0 7.8-1.8 14.1-5.4 18.7m5.8-42.9c-5.1-5.9-11.9-8.9-20.3-8.9-8.9 0-16 3-21.1 8.9-5.2 5.9-7.7 13.9-7.7 23.9 0 10 2.6 17.9 7.7 23.9 5.2 5.9 12 8.9 20.5 8.9 8.8 0 15.7-2.9 20.9-8.8 5.2-5.8 7.7-13.7 7.7-23.5 0-10.3-2.6-18.5-7.7-24.4m-93.5 47.5c-1 .3-2 .7-3 1-2.2.6-4.3.9-6.2.9-4.6 0-7.5-1.4-8.7-4.3-.7-1.6-1-5.2-1-10.8V39.1h20v-6.4h-20V15.1h-7.8v17.7h-10.9v6.4h10.9v36.9c0 4.5.2 7.7.5 9.5.4 2.8 1.5 5 3.1 6.6 2.9 2.9 7.2 4.4 12.9 4.4 4.2 0 8.4-1 12.3-3l-2.1-6zm-48.8-30c0-5.3-.2-9.1-.6-11.3-.8-4-2.5-7.3-5.1-9.9-3.5-3.5-8.3-5.2-14.4-5.2-7.2 0-14 2-20.5 6.1v-4.5h-7.4v62.4h7.8v-51c.7-.7 2.8-1.7 6.2-3.1 4.7-2 9-3 12.9-3 4.2 0 7.4 1.2 9.7 3.5 1.6 1.6 2.7 4 3.3 7 .3 1.8.4 5.2.4 10.1v36.4h7.8l-.1-37.5zm-107.5 1.3c.3-6.4 2.4-11.5 6.2-15.3 3.8-3.8 8.5-5.7 14-5.7 5.6 0 9.8 2.3 12.9 7 2.4 3.9 3.6 8.6 3.6 14h-36.7zM973.7 39c-4.4-5.2-10.3-7.8-17.7-7.8-8.7 0-15.6 3-20.7 9-5.2 6-7.7 14.1-7.7 24.1 0 9.6 2.6 17.4 7.7 23.3 5.2 5.9 12.2 8.8 21.1 8.8 5.4 0 10.7-1 15.9-3 3.7-1.6 5.9-2.7 6.4-3.4l-3.5-6c-6.8 3.4-12.8 5.1-18.1 5.1-6.8 0-12.1-2.2-15.9-6.5-3.7-4.3-5.6-10.1-5.6-17.2h44.7c0-.5 0-1.3.1-2.3.1-1 .1-1.6.1-1.8.1-9.4-2.2-16.8-6.8-22.3m-59.9 23.1c0-7.3-.2-12.2-.7-14.8-.8-4.4-2.6-8.1-5.5-10.9-3.5-3.5-8.1-5.2-13.9-5.2-7.2 0-14.7 2.4-22.6 7.3-3.5-4.9-8.6-7.3-15.5-7.3-6.4 0-13 2-19.8 6.1v-4.5h-7.4v62.4h7.8v-51c6-4 12.2-6 18.6-6 3.9 0 6.9 1.1 9.1 3.3 1.6 1.6 2.6 4 3 7.3.3 1.9.4 6 .4 12.2v34.2h7.8V58.9c0-8.2-.4-13.2-1.2-14.8 6.5-3.8 12.8-5.7 19-5.7 4.1 0 7.2 1.1 9.4 3.3 2.4 2.4 3.6 7.9 3.6 16.4v37.2h7.8l.1-33.2zM811.9 87.6c-1 .3-2 .7-3 1-2.2.6-4.3.9-6.2.9-4.6 0-7.5-1.4-8.7-4.3-.7-1.6-1-5.2-1-10.8V39.1h20v-6.4h-20V15.1h-7.8v17.7h-10.9v6.4h10.9v36.9c0 4.5.2 7.7.5 9.5.4 2.8 1.5 5 3.1 6.6 2.9 2.9 7.2 4.4 12.9 4.4 4.2 0 8.4-1 12.3-3l-2.1-6zm-51.7-56.5c-7.7 0-14.3 3.3-19.8 9.9v-8.2H733v62.4h7.8v-46c.7-1 1.4-2.1 2.2-3.1 1.7-2.1 3.8-3.8 6.1-5.1 3.2-1.8 6.8-2.7 10.7-2.7 1.6 0 3.3.1 5.1.4l1.8-6.5c-2-.8-4.2-1.1-6.5-1.1m-69.7 58.5c-4.6 0-8.1-1.2-10.5-3.6-2.2-2.2-3.2-4.9-3.2-8.3 0-9.4 9.2-14.2 27.7-14.2h3.5v21.1c-7.3 3.3-13.1 5-17.5 5M715.8 55c0-4.4-.2-7.6-.7-9.6-.6-3.3-2-6.1-4.3-8.3-4-4-9.6-6-16.9-6-5.5 0-10.6 1-15.3 3-3.1 1.3-5.2 2.4-6.1 3.4l3.2 5.5c5.8-3.3 11.6-4.9 17.3-4.9 5.6 0 9.5 1.2 11.8 3.6 2.1 2.2 3.1 6.5 3.1 13.1v2.3h-3.3c-24 0-36 6.8-36 20.4 0 5.6 1.8 10.2 5.5 13.7s8.5 5.3 14.5 5.3c4.6 0 9.2-1 13.9-2.9 2-1 4-2.1 6-3.1v4.7h7.2l.1-40.2zm-72 27.1c-4.1 5-9.6 7.5-16.3 7.5-4.5 0-9.3-1.4-14.3-4.2V44.2c4.9-4.1 10.4-6.1 16.8-6.1 5.9 0 10.7 2.3 14.4 6.8 3.7 4.5 5.6 10.4 5.6 17.6 0 8.1-2.1 14.6-6.2 19.6m6.7-42.2c-5-5.8-11.6-8.6-19.8-8.6-6.8 0-12.7 1.9-17.9 5.8v-4.3h-7.4v90.1h7.8V93c3.7 2.3 8.5 3.5 14.2 3.5 9 0 16.4-3.1 22.1-9.4 5.7-6.3 8.6-14.4 8.6-24.4-.1-9.5-2.6-17.1-7.6-22.8M546 58.9c.3-6.4 2.4-11.5 6.2-15.3 3.8-3.8 8.5-5.7 14-5.7s9.8 2.3 12.9 7c2.4 3.9 3.6 8.6 3.6 14H546zM583.8 39c-4.4-5.2-10.3-7.8-17.7-7.8-8.7 0-15.6 3-20.7 9-5.2 6-7.7 14.1-7.7 24.1 0 9.6 2.6 17.4 7.7 23.3 5.2 5.9 12.2 8.8 21.1 8.8 5.4 0 10.7-1 15.9-3 3.7-1.6 5.9-2.7 6.4-3.4l-3.5-6c-6.8 3.4-12.8 5.1-18.1 5.1-6.9 0-12.1-2.2-15.9-6.5-3.7-4.3-5.6-10.1-5.6-17.2h44.7c0-.5 0-1.3.1-2.3.1-1 .1-1.6.1-1.8.1-9.4-2.2-16.8-6.8-22.3m-77.1 40.2c-3.9 3.9-8.6 6.5-14 7.8-3.8.9-9.5 1.3-16.9 1.3H464v-73h8.6c9.4 0 16.3.5 20.4 1.4 5.2 1.1 9.6 3.5 13.3 7.1 6.9 6.9 10.3 15.9 10.3 27.2-.1 12.3-3.4 21.7-9.9 28.2m5.7-60c-4.5-4.5-10.2-7.5-17.2-9.1-5.1-1.1-12.8-1.7-23-1.7h-16.6v86.7h19.6c9.2 0 16.1-.6 20.7-1.7 6.3-1.6 11.8-4.7 16.5-9.4 8.3-8.3 12.5-19.2 12.5-32.8 0-12.9-4.2-23.6-12.5-32M379.5 89.6c-5.9 0-10.7-2.3-14.5-6.8-3.8-4.5-5.7-10.4-5.7-17.6 0-8.1 2.1-14.7 6.2-19.7 4.2-5 9.6-7.5 16.4-7.5 4.6 0 9.3 1.4 14.2 4.2v41.2c-5.7 4.1-11.3 6.2-16.6 6.2m24.6-88h-7.9v33.2c-3.9-2.3-8.6-3.5-14.2-3.5-9 0-16.4 3.1-22.1 9.4-5.7 6.3-8.6 14.4-8.6 24.4 0 9.4 2.5 17.1 7.5 22.8 5 5.8 11.7 8.6 19.9 8.6 7.2 0 13.3-2 18.2-6v4.7h7.1l.1-93.6zm-67.5 0h-7.8v93.6h7.8V1.6zm-67.2 57.3c.3-6.4 2.4-11.5 6.2-15.3 3.8-3.8 8.5-5.7 14-5.7s9.8 2.3 12.9 7c2.4 3.9 3.6 8.6 3.6 14h-36.7zM307.2 39c-4.4-5.2-10.3-7.8-17.7-7.8-8.7 0-15.6 3-20.7 9-5.2 6-7.7 14.1-7.7 24.1 0 9.6 2.6 17.4 7.7 23.3 5.2 5.9 12.2 8.8 21.1 8.8 5.4 0 10.7-1 15.9-3 3.7-1.6 5.9-2.7 6.4-3.4l-3.5-6c-6.8 3.4-12.8 5.1-18.1 5.1-6.9 0-12.1-2.2-15.9-6.5-3.7-4.3-5.6-10.1-5.6-17.2h44.7c0-.5 0-1.3.1-2.3.1-1 .1-1.6.1-1.8.1-9.4-2.2-16.8-6.8-22.3m-60.8-6.2h-7.8v62.4h7.8V32.8zM246.2 8c-1-1-2.2-1.5-3.7-1.5-1.4 0-2.6.5-3.6 1.5s-1.6 2.2-1.6 3.7c0 1.4.5 2.6 1.6 3.6 1 1 2.3 1.6 3.6 1.6 1.5 0 2.7-.5 3.7-1.6 1-1 1.5-2.3 1.5-3.6 0-1.5-.5-2.7-1.5-3.7M217 0c-5.6 0-10.1 1.6-13.4 4.9-3.9 3.9-5.9 9.8-5.9 17.8v10h-11.1v6.4h11.1v56h7.8v-56h20v-6.4h-20v-10c0-6.1 1.2-10.3 3.6-12.7 2.1-2.1 4.9-3.1 8.6-3.1 3.6 0 6.6.9 9.2 2.6L230 4c-3.1-2.7-7.4-4-13-4m-47.1 0c-5.6 0-10.1 1.6-13.4 4.9-3.9 3.9-5.9 9.8-5.9 17.8v10h-11.1v6.4h11.1v56h7.8v-56h20v-6.4h-20v-10c0-6.1 1.2-10.3 3.6-12.7 2.1-2.1 4.9-3.1 8.6-3.1 3.6 0 6.6.9 9.2 2.6l3.1-5.5c-3-2.7-7.4-4-13-4m-42.3 32.8h-7.8v50.7c-2.2 1-4.3 2.1-6.5 3.2-4.5 1.9-8.7 2.9-12.6 2.9-4 0-7.2-1.2-9.7-3.7-2.5-2.5-3.7-7.8-3.7-15.9V32.8h-7.8v35.6c0 5.8.1 9.7.4 11.6.8 4.6 2.5 8.2 5.2 10.9 3.7 3.7 8.8 5.6 15.1 5.6 7.3 0 14-2.1 20.3-6.2v4.9h7.2l-.1-62.4zM60.1 8.4h-7.7l.3 75.2L9.1 8.4H0v86.7h7.7l-.3-74.4 43.2 74.5h9.5V8.4zM1832.4 142.9h-13.3v59.8h-69.8v-59.8H1736V281h13.3v-67.1h69.8V281h13.3V142.9zm-120.7 0h-96.9v11.2h41.8V281h13.2V154.1h41.8l.1-11.2zm-88.2 126.5h-59.4V142.9h-13.3V281h72.7v-11.6zM1446.3 230l26.1-73.3 26.3 73.3h-52.4zm33.9-87.1h-14.9L1415 281h13.3l14.1-39.5h60.2l14.1 39.5h14.1l-50.6-138.1zm-80.7 126.5H1338v-55.3h56.1v-11H1338V154h59.8v-11.2H1325V281h74.5v-11.6zm-110.2-126.5H1276v59.8h-69.8v-59.8h-13.3V281h13.3v-67.1h69.8V281h13.3V142.9zm-181.5 0h-12.2l.4 119.7-69.4-119.7h-14.5V281h12.2l-.4-118.6 68.7 118.6h15.1l.1-138.1zM956.1 255.3c-8.5 11.2-19.9 16.8-34.3 16.8-13.7 0-24.9-5.7-33.9-17.1-8.9-11.4-13.4-25.9-13.4-43.6 0-17.9 4.2-32.4 12.7-43.3 8.5-10.9 19.8-16.4 33.8-16.4 13.9 0 25.4 5.5 34.3 16.4 8.9 10.9 13.4 25.1 13.4 42.4.1 18.7-4.1 33.6-12.6 44.8m9.8-95c-11.3-13.2-25.7-19.9-43.3-19.9-18.4 0-33.3 6.8-44.8 20.3s-17.3 31-17.3 52.4c0 20.4 5.7 37.3 17.2 50.5 11.5 13.2 25.9 19.9 43.3 19.9 18.4 0 33.3-6.7 44.7-20.1 11.5-13.4 17.2-30.7 17.2-52 0-20.8-5.6-37.9-17-51.1m-134.5-17.4h-13.3V281h13.3V142.9zm-37.7 0h-96.9v11.2h41.8V281h13.3V154.1h41.8v-11.2zm-171 87.1l26.1-73.3 26.3 73.3h-52.4zm33.9-87.1h-14.9L591.4 281h13.3l14.1-39.5H679l14.1 39.5h14.1l-50.6-138.1zm-84 126.5h-59.4V142.9H500V281h72.7v-11.6zM466.4 142.9h-13V216c0 15.6-.4 25.7-1 30.2-1.1 6.8-3.9 12.4-8.5 17-5.9 5.9-14.2 8.9-24.8 8.9-11.6 0-20.6-3.2-27.1-9.7-4-4-6.6-9-7.7-14.9-.7-3.4-1-9.2-1-17.2v-87.4h-13v74.7c0 15 .4 25.1 1.2 30 1.5 9.2 5.1 16.7 10.8 22.4 9 9 21 13.5 36.2 13.5s27.1-4.4 35.8-13c6.1-6.1 9.8-14.6 11.2-25.5.7-5 1-16.8 1-35.6l-.1-66.5zm-144.6 62.3c-3.7 3.7-8.9 6.1-15.5 7-3.7.6-10.9.8-21.5.8h-11.4v-59.4h17.2c8.3 0 14.1.3 17.6.8 6.1.8 10.7 2.8 13.9 6 5.7 5.7 8.5 13 8.5 21.9-.1 9.5-3 17.1-8.8 22.9m10.8-51.6c-4.6-4.6-10.6-7.6-18-9.1-5.1-1.1-12.7-1.7-22.8-1.7h-31.5V281h13v-57.1h12.2c13 0 21.7-.4 26.1-1.2 8.4-1.5 15.5-5.1 21.1-10.8 7.3-7.3 11-17.1 11-29.2.1-11.9-3.6-21.6-11.1-29.1M204.3 255.3c-8.5 11.2-19.9 16.8-34.3 16.8-13.7 0-24.9-5.7-33.9-17.1-8.9-11.4-13.4-25.9-13.4-43.6 0-17.9 4.2-32.4 12.7-43.3 8.5-10.9 19.8-16.4 33.9-16.4 13.9 0 25.4 5.5 34.3 16.4 8.9 10.9 13.4 25.1 13.4 42.4.1 18.7-4.2 33.6-12.7 44.8m9.9-95c-11.3-13.2-25.7-19.9-43.3-19.9-18.4 0-33.3 6.8-44.8 20.3s-17.3 31-17.3 52.4c0 20.4 5.7 37.3 17.2 50.5 11.5 13.2 25.9 19.9 43.3 19.9 18.4 0 33.3-6.7 44.7-20.1 11.5-13.4 17.2-30.7 17.2-52 0-20.8-5.7-37.9-17-51.1M64.9 205.2c-3.7 3.7-8.9 6.1-15.5 7-3.7.6-10.9.8-21.5.8H16.5v-59.4h17.2c8.3 0 14.1.3 17.6.8 6.1.8 10.7 2.8 13.9 6 5.7 5.7 8.5 13 8.5 21.9-.1 9.5-3 17.1-8.8 22.9m10.8-51.6c-4.6-4.6-10.6-7.6-18-9.1-5.1-1.1-12.7-1.7-22.8-1.7H3.4V281h13v-57.1h12.2c13 0 21.7-.4 26.1-1.2 8.4-1.5 15.5-5.1 21.1-10.8 7.3-7.3 11-17.1 11-29.2 0-11.9-3.7-21.6-11.1-29.1"/></svg>