<svg xmlns="http://www.w3.org/2000/svg" width="1381.9" height="283.5" viewBox="0 0 1381.9 283.5"><path fill="#193F70" d="M105.8 127v95.9L31.9 127H0v155.8h34.2v-99l76.3 99h29.4V127zM167.6 127h34.7v155.8h-34.7zM328.5 127v62.8h-63.9V127H230v155.8h34.6v-59.9h63.9v59.9h34.7V127zM469.5 189.7l-1.8.1h-42.1V158h42.1l1.8.1c7.5.2 18 3.1 18 15.8 0 12.7-10.5 15.6-18 15.8m17.7 27.6c19.8-4.1 34.5-19.4 34.5-44.5 0-28-19.6-44.9-44-45.6v-.2h-86.9v155.8h34.6v-59.9h25.7l36.9 59.9h39.6l-40.4-65.5zM656.2 127.1c.3 0 .6.1.9.3.3.1.5.3.8.6.3.2.5.6.8 1l31.7 41.2c-.1-1-.2-2-.2-2.9 0-.9-.1-1.8-.1-2.7V127h9.9v61.7h-5.8c-.9 0-1.6-.1-2.2-.4-.6-.3-1.2-.8-1.7-1.5l-31.6-41.1c.1.9.1 1.8.2 2.7 0 .9.1 1.7.1 2.5v37.9h-10V127h5.9c.5 0 1 .1 1.3.1M725.2 182.1c1.1 0 2-.1 2.9-.3.9-.2 1.7-.5 2.5-.9s1.6-.9 2.3-1.4c.7-.6 1.5-1.2 2.2-2v-7.3c-3 0-5.5.2-7.5.6-2 .4-3.7.9-4.9 1.5-1.2.6-2.1 1.3-2.6 2.1s-.8 1.7-.8 2.6c0 1.9.5 3.2 1.6 4 1.2.7 2.6 1.1 4.3 1.1m20.1 6.6h-4.6c-1 0-1.7-.1-2.3-.5-.6-.3-1-.9-1.3-1.8l-.9-3.1c-1.1 1-2.1 1.9-3.2 2.6-1 .8-2.1 1.4-3.2 1.9s-2.3.9-3.6 1.1c-1.3.3-2.7.4-4.2.4-1.8 0-3.5-.2-5-.7-1.5-.5-2.8-1.3-3.9-2.2-1.1-1-2-2.2-2.6-3.7-.6-1.5-.9-3.2-.9-5.2 0-1.6.4-3.3 1.3-4.9.9-1.6 2.3-3.1 4.2-4.4 2-1.3 4.6-2.4 7.9-3.2 3.3-.9 7.4-1.3 12.3-1.3v-2.6c0-2.9-.6-5.1-1.8-6.6-1.2-1.4-3-2.1-5.3-2.1-1.7 0-3.1.2-4.2.6-1.1.4-2.1.8-2.9 1.3-.8.5-1.6.9-2.3 1.3-.7.4-1.5.6-2.3.6-.7 0-1.3-.2-1.8-.6-.5-.4-.9-.8-1.2-1.4l-1.9-3.4c4.9-4.6 10.9-6.9 17.8-6.9 2.5 0 4.8.4 6.7 1.3 2 .8 3.6 2 5 3.5s2.4 3.3 3.1 5.3c.7 2.1 1.1 4.4 1.1 6.8v27.9zM769.5 189.4c-3.7 0-6.6-1.1-8.6-3.2s-3-5.1-3-8.9v-24.4h-4.3c-.6 0-1-.2-1.4-.6-.4-.4-.6-.9-.6-1.7v-4.2l6.9-1.1 2.2-11.9c.1-.6.4-1 .8-1.3.4-.3.9-.5 1.5-.5h5.4v13.8h11.3v7.5h-11.3v23.7c0 1.4.3 2.4 1 3.2.7.8 1.6 1.1 2.7 1.1.6 0 1.2-.1 1.6-.2.4-.2.8-.3 1.1-.5.3-.2.6-.3.9-.5.2-.2.5-.2.8-.2.3 0 .6.1.8.2.2.2.4.4.6.7l3.1 5.1c-1.5 1.3-3.2 2.2-5.2 2.9-2.1.7-4.2 1-6.3 1M798.8 188.7h-10.3v-43.8h10.3v43.8zm1.5-56.5c0 .9-.2 1.8-.5 2.6-.4.8-.8 1.5-1.4 2.1-.6.6-1.3 1.1-2.1 1.4-.8.4-1.7.5-2.6.5-.9 0-1.7-.2-2.5-.5-.8-.4-1.5-.8-2.1-1.4-.6-.6-1.1-1.3-1.4-2.1-.4-.8-.5-1.6-.5-2.6 0-.9.2-1.8.5-2.6s.8-1.5 1.4-2.1c.6-.6 1.3-1.1 2.1-1.4.8-.4 1.6-.5 2.5-.5.9 0 1.8.2 2.6.5.8.4 1.5.8 2.1 1.4.6.6 1.1 1.3 1.4 2.1.4.8.5 1.7.5 2.6M828.8 181.2c3.6 0 6.2-1.2 7.9-3.7 1.7-2.5 2.6-6 2.6-10.8 0-4.7-.9-8.3-2.6-10.8-1.7-2.5-4.4-3.7-7.9-3.7-3.6 0-6.3 1.3-8 3.7-1.7 2.5-2.6 6.1-2.6 10.8 0 4.7.9 8.3 2.6 10.7 1.7 2.6 4.4 3.8 8 3.8m0-36.9c3.2 0 6.1.5 8.7 1.6 2.6 1.1 4.8 2.5 6.7 4.5 1.8 1.9 3.3 4.3 4.3 7.1s1.5 5.9 1.5 9.3c0 3.5-.5 6.6-1.5 9.4-1 2.8-2.4 5.2-4.3 7.1-1.8 2-4.1 3.5-6.7 4.5-2.6 1-5.5 1.6-8.7 1.6-3.2 0-6.1-.5-8.7-1.6-2.6-1.1-4.9-2.6-6.7-4.5-1.9-2-3.3-4.3-4.3-7.1s-1.5-5.9-1.5-9.4.5-6.6 1.5-9.3c1-2.8 2.5-5.1 4.3-7.1 1.9-1.9 4.1-3.4 6.7-4.5 2.6-1.1 5.5-1.6 8.7-1.6M858 188.7v-43.8h6.3c1.3 0 2.2.6 2.6 1.9l.7 3.5c.9-.9 1.8-1.7 2.7-2.5 1-.7 2-1.4 3.1-1.9s2.2-.9 3.4-1.2c1.2-.3 2.6-.4 4-.4 2.3 0 4.4.4 6.2 1.2 1.8.8 3.3 1.9 4.5 3.4 1.2 1.5 2.1 3.2 2.8 5.2.6 2 .9 4.3.9 6.7v27.9h-10.3v-27.9c0-2.7-.6-4.7-1.8-6.2-1.2-1.5-3-2.2-5.5-2.2-1.8 0-3.5.4-5 1.2-1.6.8-3 1.9-4.4 3.4v31.6H858zM919.1 182.1c1.1 0 2-.1 2.9-.3.9-.2 1.7-.5 2.5-.9s1.6-.9 2.3-1.4c.7-.6 1.5-1.2 2.2-2v-7.3c-3 0-5.5.2-7.5.6-2 .4-3.7.9-4.9 1.5-1.2.6-2.1 1.3-2.6 2.1s-.8 1.7-.8 2.6c0 1.9.5 3.2 1.6 4 1.2.7 2.6 1.1 4.3 1.1m20.1 6.6h-4.6c-1 0-1.8-.1-2.3-.5-.6-.3-1-.9-1.3-1.8l-.9-3.1c-1.1 1-2.1 1.9-3.2 2.6-1 .8-2.1 1.4-3.2 1.9s-2.3.9-3.6 1.1c-1.3.3-2.7.4-4.2.4-1.8 0-3.5-.2-5-.7-1.5-.5-2.9-1.3-3.9-2.2-1.1-1-2-2.2-2.6-3.7-.6-1.5-.9-3.2-.9-5.2 0-1.6.4-3.3 1.3-4.9.9-1.6 2.3-3.1 4.3-4.4 2-1.3 4.6-2.4 7.9-3.2 3.3-.9 7.4-1.3 12.3-1.3v-2.6c0-2.9-.6-5.1-1.8-6.6-1.2-1.4-3-2.1-5.3-2.1-1.7 0-3.1.2-4.2.6-1.1.4-2.1.8-2.9 1.3-.8.5-1.6.9-2.3 1.3-.7.4-1.5.6-2.3.6-.7 0-1.3-.2-1.8-.6-.5-.4-.9-.8-1.2-1.4l-1.9-3.4c4.9-4.6 10.9-6.9 17.8-6.9 2.5 0 4.8.4 6.7 1.3 2 .8 3.6 2 5 3.5s2.4 3.3 3.1 5.3c.7 2.1 1.1 4.4 1.1 6.8v27.9zM950 125.3h10.3v63.4H950zM990.1 127h11.3v61.7h-11.3zM1014.4 188.7v-43.8h6.3c1.3 0 2.2.6 2.6 1.9l.7 3.5c.9-.9 1.8-1.7 2.7-2.5 1-.7 2-1.4 3.1-1.9s2.2-.9 3.4-1.2c1.2-.3 2.6-.4 4-.4 2.3 0 4.4.4 6.2 1.2 1.8.8 3.3 1.9 4.5 3.4 1.2 1.5 2.1 3.2 2.8 5.2.6 2 .9 4.3.9 6.7v27.9h-10.3v-27.9c0-2.7-.6-4.7-1.8-6.2-1.2-1.5-3-2.2-5.5-2.2-1.8 0-3.5.4-5 1.2-1.6.8-3 1.9-4.4 3.4v31.6h-10.2zM1087.4 153.5c-.3.5-.6.8-.9 1-.3.2-.7.3-1.2.3s-1-.1-1.6-.4l-2-1c-.8-.4-1.6-.7-2.6-1-1-.3-2.1-.4-3.4-.4-2 0-3.6.4-4.8 1.3-1.2.9-1.8 2-1.8 3.5 0 .9.3 1.7.9 2.4.6.6 1.4 1.2 2.4 1.7s2.1.9 3.4 1.3c1.2.4 2.5.8 3.8 1.3 1.3.5 2.6 1 3.9 1.6 1.2.6 2.4 1.3 3.4 2.2 1 .9 1.8 2 2.4 3.2.6 1.2.9 2.8.9 4.5 0 2.1-.4 4-1.1 5.8-.8 1.8-1.9 3.3-3.3 4.6-1.4 1.3-3.2 2.3-5.4 3-2.1.7-4.6 1.1-7.3 1.1-1.5 0-2.9-.1-4.3-.4-1.4-.3-2.8-.7-4.1-1.1-1.3-.5-2.5-1.1-3.6-1.7-1.1-.7-2.1-1.4-2.9-2.1l2.4-4c.3-.5.7-.9 1.1-1.1.4-.3.9-.4 1.6-.4s1.2.2 1.8.6c.6.4 1.2.8 2 1.2.7.4 1.6.8 2.7 1.2 1 .4 2.3.6 3.9.6 1.2 0 2.3-.1 3.2-.4.9-.3 1.6-.7 2.2-1.2.6-.5 1-1.1 1.2-1.7.3-.6.4-1.3.4-2 0-1-.3-1.9-.9-2.5-.6-.7-1.4-1.2-2.4-1.7s-2.1-.9-3.4-1.3c-1.3-.4-2.6-.8-3.9-1.3-1.3-.5-2.6-1-3.9-1.6-1.3-.6-2.4-1.4-3.4-2.3-1-.9-1.8-2.1-2.4-3.5-.6-1.4-.9-3-.9-4.9 0-1.8.3-3.5 1.1-5.1.7-1.6 1.7-3 3.1-4.2 1.3-1.2 3-2.2 5-2.9 2-.7 4.4-1.1 7-1.1 2.9 0 5.6.5 8.1 1.5 2.4 1 4.4 2.3 6.1 3.9l-2.5 3.5zM1112.5 189.4c-3.7 0-6.6-1.1-8.6-3.2s-3-5.1-3-8.9v-24.4h-4.3c-.6 0-1-.2-1.4-.6-.4-.4-.6-.9-.6-1.7v-4.2l6.9-1.1 2.2-11.9c.1-.6.4-1 .8-1.3.4-.3.9-.5 1.5-.5h5.4v13.8h11.3v7.5h-11.3v23.7c0 1.4.3 2.4 1 3.2.7.8 1.6 1.1 2.7 1.1.6 0 1.2-.1 1.6-.2.4-.2.8-.3 1.1-.5.3-.2.6-.3.9-.5.2-.2.5-.2.7-.2.3 0 .6.1.8.2.2.2.4.4.6.7l3.1 5.1c-1.5 1.3-3.2 2.2-5.2 2.9-2 .7-4.1 1-6.2 1M1141.8 188.7h-10.3v-43.8h10.3v43.8zm1.6-56.5c0 .9-.2 1.8-.5 2.6-.4.8-.8 1.5-1.4 2.1-.6.6-1.3 1.1-2.1 1.4-.8.4-1.7.5-2.6.5-.9 0-1.7-.2-2.5-.5-.8-.4-1.5-.8-2.1-1.4-.6-.6-1.1-1.3-1.4-2.1-.4-.8-.5-1.6-.5-2.6 0-.9.2-1.8.5-2.6s.8-1.5 1.4-2.1c.6-.6 1.3-1.1 2.1-1.4.8-.4 1.6-.5 2.5-.5.9 0 1.8.2 2.6.5.8.4 1.5.8 2.1 1.4.6.6 1.1 1.3 1.4 2.1.3.8.5 1.7.5 2.6M1167.6 189.4c-3.7 0-6.6-1.1-8.6-3.2s-3-5.1-3-8.9v-24.4h-4.3c-.6 0-1-.2-1.4-.6-.4-.4-.6-.9-.6-1.7v-4.2l6.9-1.1 2.2-11.9c.1-.6.4-1 .8-1.3.4-.3.9-.5 1.5-.5h5.4v13.8h11.3v7.5h-11.3v23.7c0 1.4.3 2.4 1 3.2.7.8 1.6 1.1 2.7 1.1.6 0 1.2-.1 1.6-.2.4-.2.8-.3 1.1-.5.3-.2.6-.3.9-.5.2-.2.5-.2.8-.2.3 0 .6.1.8.2.2.2.4.4.6.7l3.1 5.1c-1.5 1.3-3.2 2.2-5.2 2.9-2.2.7-4.2 1-6.3 1M1195.3 144.9v27.8c0 2.7.6 4.7 1.8 6.2 1.2 1.5 3 2.2 5.5 2.2 1.8 0 3.5-.4 5-1.2 1.6-.8 3-1.9 4.4-3.3v-31.7h10.3v43.8h-6.3c-1.3 0-2.2-.6-2.6-1.9l-.7-3.5c-.9.9-1.8 1.7-2.8 2.5-.9.8-2 1.4-3 1.9-1.1.5-2.2.9-3.5 1.2-1.2.3-2.6.4-4 .4-2.3 0-4.4-.4-6.2-1.2-1.8-.8-3.3-2-4.5-3.4-1.2-1.5-2.2-3.2-2.8-5.3-.6-2-.9-4.3-.9-6.7v-27.8h10.3zM1247.5 189.4c-3.7 0-6.6-1.1-8.6-3.2s-3-5.1-3-8.9v-24.4h-4.3c-.6 0-1-.2-1.4-.6-.4-.4-.6-.9-.6-1.7v-4.2l6.9-1.1 2.2-11.9c.1-.6.4-1 .8-1.3.4-.3.9-.5 1.5-.5h5.4v13.8h11.3v7.5h-11.3v23.7c0 1.4.3 2.4 1 3.2.7.8 1.6 1.1 2.7 1.1.6 0 1.2-.1 1.6-.2.4-.2.8-.3 1.1-.5.3-.2.6-.3.9-.5.2-.2.5-.2.8-.2.3 0 .6.1.8.2.2.2.4.4.6.7l3.1 5.1c-1.5 1.3-3.2 2.2-5.2 2.9-2.2.7-4.2 1-6.3 1M1283.7 151.8c-3 0-5.4.9-7.1 2.6-1.7 1.7-2.8 4.2-3.3 7.4h19.4c0-1.4-.2-2.6-.5-3.9-.4-1.2-.9-2.3-1.7-3.2-.7-.9-1.7-1.6-2.8-2.2-1.2-.4-2.5-.7-4-.7m-.2-7.5c2.7 0 5.2.4 7.5 1.3s4.2 2.2 5.9 3.9c1.6 1.7 2.9 3.8 3.8 6.2.9 2.5 1.4 5.3 1.4 8.4 0 .8 0 1.5-.1 2s-.2.9-.4 1.2c-.2.3-.4.5-.7.6-.3.1-.7.2-1.2.2h-26.5c.3 4.5 1.5 7.8 3.6 9.9 2.1 2.1 4.8 3.2 8.2 3.2 1.7 0 3.1-.2 4.3-.6 1.2-.4 2.3-.8 3.2-1.3.9-.5 1.7-.9 2.4-1.3s1.3-.6 2-.6c.4 0 .8.1 1.1.2.3.2.6.4.8.7l3 3.8c-1.1 1.4-2.4 2.5-3.8 3.4-1.4.9-2.9 1.7-4.4 2.2-1.5.6-3.1.9-4.7 1.2-1.6.2-3.2.3-4.7.3-3 0-5.8-.5-8.3-1.5-2.6-1-4.8-2.5-6.7-4.5-1.9-2-3.4-4.4-4.5-7.3-1.1-2.9-1.6-6.3-1.6-10.1 0-3 .5-5.8 1.4-8.4.9-2.6 2.3-4.9 4.1-6.9 1.8-1.9 3.9-3.5 6.5-4.6 2.3-1.1 5.2-1.6 8.4-1.6M650.3 282.8V247l-3.7-.6c-.8-.1-1.5-.4-1.9-.9-.5-.4-.7-1-.7-1.8v-4.3h6.4v-3.2c0-2.5.4-4.7 1.1-6.7.7-2 1.8-3.7 3.2-5.1 1.4-1.4 3.1-2.4 5-3.2 2-.7 4.2-1.1 6.7-1.1 2 0 3.8.3 5.5.8l-.2 5.3c-.1.8-.4 1.3-1.1 1.5-.7.2-1.5.3-2.4.3-1.2 0-2.3.1-3.3.4-1 .3-1.8.7-2.4 1.4-.7.7-1.2 1.6-1.5 2.7-.3 1.1-.5 2.4-.5 4.1v2.9h11.2v7.5h-10.8v35.9h-10.6zM696.1 275.3c3.6 0 6.2-1.2 7.9-3.7 1.7-2.5 2.6-6 2.6-10.8 0-4.7-.9-8.3-2.6-10.8-1.7-2.5-4.4-3.7-7.9-3.7-3.6 0-6.3 1.3-8 3.7-1.7 2.5-2.6 6.1-2.6 10.8 0 4.7.9 8.3 2.6 10.7 1.7 2.6 4.4 3.8 8 3.8m0-37c3.2 0 6.1.5 8.7 1.6 2.6 1.1 4.8 2.5 6.7 4.5 1.8 1.9 3.3 4.3 4.3 7.1s1.5 5.9 1.5 9.3c0 3.5-.5 6.6-1.5 9.4-1 2.8-2.4 5.2-4.3 7.1-1.8 2-4.1 3.5-6.7 4.5-2.6 1-5.5 1.6-8.7 1.6-3.2 0-6.1-.5-8.7-1.6-2.6-1.1-4.9-2.6-6.7-4.5-1.9-2-3.3-4.3-4.3-7.1s-1.5-5.9-1.5-9.4c0-3.4.5-6.6 1.5-9.3 1-2.8 2.5-5.1 4.3-7.1 1.9-1.9 4.1-3.4 6.7-4.5 2.6-1 5.5-1.6 8.7-1.6M725.3 282.8V239h6.1c1.1 0 1.8.2 2.2.6.4.4.7 1.1.8 2l.6 5.3c1.5-2.7 3.3-4.8 5.4-6.4 2.1-1.6 4.4-2.4 6.9-2.4 2.1 0 3.9.5 5.3 1.5l-1.3 7.9c-.1.5-.3.9-.5 1.1-.3.2-.7.3-1.1.3-.4 0-1-.1-1.7-.3-.7-.2-1.7-.3-2.9-.3-2.1 0-4 .6-5.5 1.8-1.5 1.2-2.8 3-3.9 5.3v27.3h-10.4zM815.9 221.1v26.5h-28.4v-26.5h-11.3v61.7h11.3v-27h28.4v27h11.3v-61.7zM856.8 245.9c-3 0-5.4.9-7.1 2.6-1.7 1.7-2.8 4.2-3.3 7.4h19.4a16 16 0 0 0-.5-3.9c-.4-1.2-.9-2.3-1.7-3.2-.7-.9-1.7-1.6-2.8-2.2-1.2-.4-2.5-.7-4-.7m-.3-7.6c2.7 0 5.2.4 7.5 1.3s4.2 2.2 5.9 3.9c1.6 1.7 2.9 3.8 3.8 6.2.9 2.5 1.4 5.3 1.4 8.4 0 .8 0 1.5-.1 2s-.2.9-.4 1.2c-.2.3-.4.5-.7.6-.3.1-.7.2-1.2.2h-26.5c.3 4.5 1.5 7.8 3.6 9.9 2.1 2.1 4.8 3.2 8.2 3.2 1.7 0 3.1-.2 4.3-.6 1.2-.4 2.3-.8 3.2-1.3.9-.5 1.7-.9 2.4-1.3s1.3-.6 2-.6c.4 0 .8.1 1.1.3.3.2.6.4.8.7l3 3.8c-1.1 1.4-2.4 2.5-3.8 3.4-1.4.9-2.9 1.7-4.4 2.2-1.5.6-3.1.9-4.7 1.2-1.6.2-3.2.4-4.7.4-3 0-5.8-.5-8.3-1.5-2.6-1-4.8-2.5-6.7-4.5-1.9-2-3.4-4.4-4.5-7.3-1.1-2.9-1.6-6.3-1.6-10.1 0-3 .5-5.8 1.4-8.4.9-2.6 2.3-4.9 4.1-6.9 1.8-1.9 3.9-3.5 6.5-4.6 2.4-1.2 5.2-1.8 8.4-1.8M897.1 276.2c1.1 0 2-.1 2.9-.3.9-.2 1.7-.5 2.5-.9s1.6-.9 2.3-1.4c.7-.6 1.5-1.2 2.2-2v-7.3c-3 0-5.5.2-7.5.6-2 .4-3.7.9-4.9 1.5-1.2.6-2.1 1.3-2.6 2.1s-.8 1.7-.8 2.6c0 1.9.5 3.2 1.6 4 1.1.7 2.5 1.1 4.3 1.1m20 6.6h-4.6c-1 0-1.8-.1-2.3-.5-.6-.3-1-.9-1.3-1.8l-.9-3.1c-1.1 1-2.1 1.9-3.2 2.6-1 .8-2.1 1.4-3.2 1.9s-2.3.9-3.6 1.1c-1.3.3-2.7.4-4.2.4-1.8 0-3.5-.2-5-.7-1.5-.5-2.9-1.3-3.9-2.2-1.1-1-2-2.2-2.6-3.7-.6-1.5-.9-3.2-.9-5.2 0-1.6.4-3.3 1.3-4.9.9-1.6 2.3-3.1 4.2-4.4 2-1.3 4.6-2.4 7.9-3.2 3.3-.9 7.4-1.3 12.3-1.3v-2.6c0-2.9-.6-5.1-1.8-6.6-1.2-1.4-3-2.1-5.3-2.1-1.7 0-3.1.2-4.2.6-1.1.4-2.1.8-2.9 1.3-.8.5-1.6.9-2.3 1.3-.7.4-1.5.6-2.3.6-.7 0-1.3-.2-1.8-.6-.5-.4-.9-.8-1.2-1.4l-1.9-3.4c4.9-4.6 10.9-6.9 17.9-6.9 2.5 0 4.7.4 6.7 1.3 2 .8 3.6 2 5 3.5s2.4 3.3 3.1 5.4c.7 2.1 1.1 4.4 1.1 6.8v27.8zM927.9 219.4h10.3v63.4h-10.3zM964 283.5c-3.7 0-6.6-1.1-8.6-3.2-2-2.2-3-5.1-3-8.9V247h-4.3c-.6 0-1-.2-1.4-.6-.4-.4-.6-.9-.6-1.7v-4.2l6.9-1.1 2.2-11.9c.1-.6.4-1 .8-1.3.4-.3.9-.5 1.5-.5h5.4v13.8h11.3v7.5h-11.3v23.7c0 1.4.3 2.4 1 3.2.7.8 1.6 1.1 2.7 1.1.6 0 1.2-.1 1.6-.2.4-.2.8-.3 1.1-.5.3-.2.6-.3.9-.5.2-.2.5-.2.8-.2.3 0 .6.1.8.2.2.2.4.4.6.7l3.1 5.1c-1.5 1.3-3.2 2.2-5.2 2.9-2.1.6-4.2 1-6.3 1M982.3 282.8v-63.4h10.3v24.4c1.7-1.6 3.5-2.9 5.5-3.9s4.4-1.5 7.1-1.5c2.3 0 4.4.4 6.2 1.2 1.8.8 3.3 1.9 4.5 3.4 1.2 1.5 2.1 3.2 2.8 5.2.6 2 .9 4.3.9 6.7v27.9h-10.3v-27.9c0-2.7-.6-4.7-1.8-6.2-1.2-1.5-3-2.2-5.4-2.2-1.8 0-3.5.4-5 1.2-1.6.8-3 1.9-4.4 3.4v31.7h-10.4zM1058.2 250.4h7c2.1 0 4-.3 5.5-.8 1.6-.5 2.9-1.3 3.9-2.2 1-1 1.8-2.1 2.3-3.4.5-1.3.8-2.7.8-4.3 0-3.1-1-5.5-3-7.2-2-1.7-5.1-2.5-9.3-2.5h-7.2v20.4zm0 8.3v24.1H1047v-61.7h18.4c4.1 0 7.7.4 10.6 1.3 2.9.9 5.4 2.1 7.2 3.6 1.9 1.6 3.3 3.4 4.1 5.6.9 2.2 1.3 4.6 1.3 7.2 0 2.1-.3 4-.9 5.9-.6 1.8-1.5 3.5-2.6 5s-2.5 2.8-4.2 4c-1.7 1.1-3.6 2-5.7 2.7 1.4.8 2.6 2 3.7 3.5l15.1 22.8h-10c-1 0-1.8-.2-2.5-.6-.7-.4-1.3-1-1.7-1.7l-12.7-19.8c-.5-.7-1-1.3-1.6-1.6-.6-.3-1.4-.5-2.5-.5h-4.8zM1118.7 245.9c-3 0-5.4.9-7.1 2.6-1.7 1.7-2.8 4.2-3.3 7.4h19.4a16 16 0 0 0-.5-3.9c-.4-1.2-.9-2.3-1.7-3.2-.7-.9-1.7-1.6-2.8-2.2-1.1-.4-2.5-.7-4-.7m-.2-7.6c2.7 0 5.2.4 7.5 1.3s4.2 2.2 5.9 3.9c1.6 1.7 2.9 3.8 3.8 6.2.9 2.5 1.4 5.3 1.4 8.4 0 .8 0 1.5-.1 2s-.2.9-.4 1.2c-.2.3-.4.5-.7.6-.3.1-.7.2-1.2.2h-26.5c.3 4.5 1.5 7.8 3.6 9.9 2.1 2.1 4.8 3.2 8.2 3.2 1.7 0 3.1-.2 4.3-.6 1.2-.4 2.3-.8 3.2-1.3.9-.5 1.7-.9 2.4-1.3s1.3-.6 2-.6c.4 0 .8.1 1.1.3.3.2.6.4.8.7l3 3.8c-1.1 1.4-2.4 2.5-3.8 3.4-1.4.9-2.9 1.7-4.4 2.2-1.6.6-3.1.9-4.7 1.2-1.6.2-3.2.4-4.7.4-3 0-5.8-.5-8.3-1.5-2.6-1-4.8-2.5-6.7-4.5-1.9-2-3.4-4.4-4.5-7.3-1.1-2.9-1.6-6.3-1.6-10.1 0-3 .5-5.8 1.4-8.4.9-2.6 2.3-4.9 4.1-6.9 1.8-1.9 3.9-3.5 6.5-4.6 2.3-1.2 5.2-1.8 8.4-1.8M1170.9 247.6c-.3.5-.6.8-.9 1-.3.2-.7.3-1.2.3s-1-.1-1.6-.4l-2-1c-.8-.4-1.6-.7-2.6-1-1-.3-2.1-.4-3.4-.4-2 0-3.6.4-4.8 1.3-1.2.9-1.8 2-1.8 3.5 0 .9.3 1.7.9 2.4.6.6 1.4 1.2 2.4 1.7s2.1.9 3.4 1.3c1.2.4 2.5.8 3.8 1.3 1.3.5 2.6 1 3.9 1.6 1.3.6 2.4 1.3 3.4 2.2 1 .9 1.8 2 2.4 3.2.6 1.3.9 2.8.9 4.5 0 2.1-.4 4-1.1 5.8-.8 1.8-1.9 3.3-3.3 4.6-1.4 1.3-3.2 2.3-5.4 3-2.1.7-4.6 1.1-7.3 1.1-1.5 0-2.9-.1-4.3-.4-1.4-.3-2.8-.6-4.1-1.1-1.3-.5-2.5-1.1-3.6-1.7-1.1-.7-2.1-1.4-2.9-2.1l2.4-4c.3-.5.7-.9 1.1-1.1.4-.3.9-.4 1.6-.4s1.2.2 1.8.6c.6.4 1.2.8 2 1.2.7.4 1.6.8 2.7 1.2 1 .4 2.3.6 3.9.6 1.2 0 2.3-.1 3.2-.4.9-.3 1.6-.7 2.2-1.2.6-.5 1-1.1 1.2-1.7.3-.6.4-1.3.4-2 0-1-.3-1.9-.9-2.5-.6-.7-1.4-1.2-2.4-1.7s-2.1-.9-3.4-1.3c-1.3-.4-2.6-.8-3.9-1.3-1.3-.5-2.6-1-3.9-1.6-1.3-.6-2.4-1.4-3.4-2.3-1-.9-1.8-2.1-2.4-3.5-.6-1.4-.9-3-.9-4.9 0-1.8.4-3.5 1.1-5.1.7-1.6 1.7-3 3.1-4.2 1.3-1.2 3-2.2 5.1-2.9 2-.7 4.4-1.1 7-1.1 2.9 0 5.6.5 8.1 1.5 2.4 1 4.4 2.3 6.1 3.9l-2.6 3.5zM1199.9 245.9c-3 0-5.4.9-7.1 2.6-1.7 1.7-2.8 4.2-3.3 7.4h19.4a16 16 0 0 0-.5-3.9c-.4-1.2-.9-2.3-1.7-3.2-.8-.9-1.7-1.6-2.8-2.2-1.1-.4-2.4-.7-4-.7m-.2-7.6c2.7 0 5.2.4 7.5 1.3s4.2 2.2 5.9 3.9c1.7 1.7 2.9 3.8 3.8 6.2.9 2.5 1.4 5.3 1.4 8.4 0 .8 0 1.5-.1 2s-.2.9-.4 1.2c-.2.3-.4.5-.7.6-.3.1-.7.2-1.2.2h-26.5c.3 4.5 1.5 7.8 3.6 9.9 2.1 2.1 4.8 3.2 8.2 3.2 1.7 0 3.1-.2 4.3-.6 1.2-.4 2.3-.8 3.2-1.3.9-.5 1.7-.9 2.4-1.3s1.3-.6 2-.6c.4 0 .8.1 1.1.3.3.2.6.4.8.7l3 3.8c-1.1 1.4-2.4 2.5-3.9 3.4-1.4.9-2.9 1.7-4.4 2.2-1.5.6-3.1.9-4.7 1.2-1.6.2-3.2.4-4.7.4-3 0-5.8-.5-8.3-1.5-2.6-1-4.8-2.5-6.7-4.5-1.9-2-3.4-4.4-4.5-7.3-1.1-2.9-1.6-6.3-1.6-10.1 0-3 .5-5.8 1.4-8.4.9-2.6 2.3-4.9 4.1-6.9 1.8-1.9 3.9-3.5 6.5-4.6 2.4-1.2 5.3-1.8 8.5-1.8M1240.2 276.2c1.1 0 2-.1 2.9-.3.9-.2 1.7-.5 2.5-.9s1.6-.9 2.3-1.4c.7-.6 1.5-1.2 2.2-2v-7.3c-3 0-5.5.2-7.5.6-2 .4-3.7.9-4.9 1.5-1.2.6-2.1 1.3-2.6 2.1s-.8 1.7-.8 2.6c0 1.9.5 3.2 1.6 4 1.2.7 2.6 1.1 4.3 1.1m20.1 6.6h-4.6c-1 0-1.7-.1-2.3-.5-.6-.3-1-.9-1.3-1.8l-.9-3.1c-1.1 1-2.1 1.9-3.2 2.6-1 .8-2.1 1.4-3.2 1.9s-2.3.9-3.6 1.1c-1.3.3-2.7.4-4.2.4-1.8 0-3.5-.2-5-.7-1.5-.5-2.8-1.3-3.9-2.2-1.1-1-2-2.2-2.6-3.7-.6-1.5-.9-3.2-.9-5.2 0-1.6.4-3.3 1.3-4.9.9-1.6 2.3-3.1 4.2-4.4 2-1.3 4.6-2.4 7.9-3.2 3.3-.9 7.4-1.3 12.3-1.3v-2.6c0-2.9-.6-5.1-1.8-6.6-1.2-1.4-3-2.1-5.3-2.1-1.7 0-3.1.2-4.2.6-1.1.4-2.1.8-2.9 1.3-.8.5-1.6.9-2.3 1.3-.7.4-1.5.6-2.3.6-.7 0-1.3-.2-1.8-.6-.5-.4-.9-.8-1.2-1.4l-1.9-3.4c4.9-4.6 10.9-6.9 17.8-6.9 2.5 0 4.8.4 6.7 1.3 2 .8 3.6 2 5 3.5s2.4 3.3 3.1 5.4c.7 2.1 1.1 4.4 1.1 6.8v27.8zM1270.5 282.8V239h6.1c1.1 0 1.8.2 2.2.6.4.4.7 1.1.8 2l.6 5.3c1.5-2.7 3.3-4.8 5.4-6.4 2.1-1.6 4.4-2.4 6.9-2.4 2.1 0 3.9.5 5.3 1.5l-1.3 7.9c-.1.5-.3.9-.5 1.1-.3.2-.7.3-1.1.3-.4 0-1-.1-1.7-.3-.7-.2-1.7-.3-2.9-.3-2.2 0-4 .6-5.5 1.8-1.5 1.2-2.8 3-3.9 5.3v27.3h-10.4zM1334.8 248.3c-.3.4-.6.7-.9.9-.3.2-.7.3-1.3.3-.5 0-1-.2-1.5-.5s-1.1-.7-1.8-1.1c-.7-.4-1.5-.8-2.5-1.1-1-.3-2.1-.5-3.6-.5-1.8 0-3.4.3-4.8 1s-2.5 1.6-3.4 2.9c-.9 1.3-1.6 2.8-2 4.5-.4 1.8-.7 3.8-.7 6 0 2.3.2 4.4.7 6.2.5 1.8 1.2 3.4 2.1 4.6.9 1.2 2 2.2 3.4 2.8 1.3.6 2.8 1 4.4 1 1.6 0 3-.2 4-.6 1-.4 1.9-.9 2.6-1.4.7-.5 1.3-1 1.8-1.4.5-.4 1.1-.6 1.7-.6.8 0 1.5.3 1.9 1l3 3.8c-1.1 1.4-2.4 2.5-3.7 3.4-1.3.9-2.7 1.7-4.2 2.2-1.4.6-2.9.9-4.5 1.2-1.5.2-3.1.3-4.6.3-2.6 0-5.1-.5-7.5-1.5-2.3-1-4.4-2.5-6.1-4.4-1.7-1.9-3.1-4.3-4.1-7.1-1-2.8-1.5-6-1.5-9.6 0-3.2.5-6.2 1.4-8.9.9-2.7 2.2-5.1 4-7.1 1.7-2 3.9-3.6 6.5-4.7s5.6-1.7 9-1.7c3.2 0 6 .5 8.4 1.6 2.4 1 4.6 2.6 6.5 4.5l-2.7 4zM1344.5 282.8v-63.4h10.3v24.4c1.7-1.6 3.5-2.9 5.5-3.9s4.4-1.5 7.1-1.5c2.3 0 4.4.4 6.2 1.2 1.8.8 3.3 1.9 4.5 3.4 1.2 1.5 2.1 3.2 2.8 5.2.6 2 .9 4.3.9 6.7v27.9h-10.3v-27.9c0-2.7-.6-4.7-1.8-6.2-1.2-1.5-3-2.2-5.4-2.2-1.8 0-3.5.4-5 1.2-1.6.8-3 1.9-4.4 3.4v31.7h-10.4z"/><path fill="#EA5D4E" d="M579.2 127.1h13.6v155.7h-13.6zM268.6 27.2c-.9-1-2.1-1.8-3.4-2.4-1.3-.6-2.8-.8-4.5-.8h-6.6v24.3h6.6c1.7 0 3.2-.3 4.5-.8 1.3-.6 2.4-1.4 3.4-2.4.9-1 1.6-2.3 2.1-3.8s.7-3.2.7-5.1c0-1.9-.2-3.6-.7-5.1-.5-1.6-1.2-2.9-2.1-3.9M187.3 27.2c-.9-1-2.1-1.8-3.4-2.4-1.3-.6-2.8-.8-4.5-.8h-6.6v24.3h6.6c1.7 0 3.2-.3 4.5-.8 1.3-.6 2.4-1.4 3.4-2.4.9-1 1.6-2.3 2.1-3.8s.7-3.2.7-5.1c0-1.9-.2-3.6-.7-5.1-.5-1.6-1.2-2.9-2.1-3.9M329.8 32.6c1.1-.8 1.6-2.1 1.6-3.8 0-1.8-.5-3.1-1.5-3.9-1-.8-2.6-1.1-4.7-1.1h-5.4v10h5c2.3 0 3.9-.4 5-1.2M331.1 39.5c-.5-.4-1.1-.7-1.9-1-.8-.2-1.7-.3-2.9-.3h-6.4v10.1h6.4c1.2 0 2.2-.1 3-.4.8-.3 1.4-.7 1.9-1.1.5-.5.8-1 1-1.7.2-.6.3-1.3.3-2 0-.8-.1-1.4-.4-2-.2-.6-.5-1.1-1-1.6"/><path fill="#EA5D4E" d="M367.3 40v13.4H361V40l-12.4-21.2h5.6c.6 0 1 .1 1.3.4.3.3.6.6.8 1l6.2 11.5c.4.7.7 1.3.9 1.9.3.6.5 1.2.7 1.8.2-.6.4-1.2.7-1.8.3-.6.6-1.2.9-1.9l6.2-11.5c.2-.4.4-.7.8-1 .4-.3.8-.5 1.3-.5h5.6L367.3 40zm-29.4 7.3c-.6 1.2-1.4 2.3-2.4 3.2-1 .9-2.3 1.6-3.9 2.1-1.5.5-3.3.8-5.2.8h-12.8V18.8h11.7c2.2 0 4.1.2 5.7.6 1.6.4 2.9 1 3.9 1.8s1.7 1.8 2.2 2.9c.5 1.1.7 2.4.7 3.8 0 .8-.1 1.6-.4 2.3-.2.7-.6 1.4-1.1 2.1-.5.6-1.1 1.2-1.9 1.8-.8.5-1.7 1-2.7 1.3 4.7 1.1 7 3.6 7 7.7.1 1.6-.2 2.9-.8 4.2m-61.2-4.2c-.8 2.1-2 3.9-3.5 5.5-1.5 1.5-3.3 2.7-5.4 3.6-2.1.8-4.5 1.3-7 1.3h-12.9V18.8h12.9c2.6 0 4.9.4 7 1.3 2.1.9 3.9 2 5.4 3.6 1.5 1.5 2.7 3.3 3.5 5.5.8 2.1 1.2 4.4 1.2 7 0 2.4-.4 4.8-1.2 6.9m-43.8-19.2h-15v9.6h11.9v4.9h-11.9v9.8h15v5.1h-21.4V18.8h21.4v5.1zm-37.5 19.2c-.8 2.1-2 3.9-3.5 5.5-1.5 1.5-3.3 2.7-5.4 3.6-2.1.8-4.4 1.3-7 1.3h-12.9V18.8h12.9c2.6 0 4.9.4 7 1.3 2.1.9 3.9 2 5.4 3.6 1.5 1.5 2.7 3.3 3.5 5.5.8 2.1 1.2 4.4 1.2 7 0 2.4-.4 4.8-1.2 6.9m-45.8 10.3h-3.2c-.5 0-.9-.1-1.3-.3-.3-.2-.7-.4-1-.8l-17.7-23c.1 1.1.1 2 .1 2.9v21.2H121V18.8h4c.2 0 .4.1.5.1.1.1.3.2.4.3l.5.5L144.2 43c-.1-.6-.1-1.1-.1-1.6V18.9h5.5v34.5zm-45.1-13.9c0 2.1-.3 4-1 5.7-.6 1.7-1.6 3.3-2.8 4.5-1.2 1.3-2.7 2.3-4.4 3-1.7.7-3.7 1.1-5.9 1.1s-4.2-.4-5.9-1.1c-1.7-.7-3.2-1.7-4.4-3-1.1-1.2-2.1-2.7-2.7-4.5-.6-1.7-1-3.6-1-5.7V18.8h6.3v20.7c0 1.3.2 2.5.5 3.6.4 1.1.9 2 1.5 2.7.7.8 1.5 1.3 2.4 1.8 1 .4 2.1.6 3.3.6 1.2 0 2.3-.2 3.3-.6 1-.4 1.8-1 2.4-1.7.7-.7 1.2-1.7 1.5-2.7.4-1.1.5-2.3.5-3.6V18.8h6.3v20.7zM62.3 23.9h-15v10.2H60v5.1H47.3v14.1H41V18.8h21.4v5.1zM0 72.6h420.3V0H0v72.6z"/></svg>