<svg xmlns="http://www.w3.org/2000/svg" width="212.598" height="212.598" viewBox="-43.799 -43.799 212.598 212.598"><path fill="#002147" d="M-43.799-43.799h212.598v212.598H-43.799z"/><g fill="#FFF"><path d="M-14.918 106.754c-.708.707-1.816 1.262-3.481 1.262-1.357 0-2.658-.422-3.538-1.3-1.146-1.148-1.109-2.602-1.109-3.862v-7.841h1.721v8.032c0 .975-.037 1.932.727 2.695.517.519 1.32.804 2.256.804.938 0 1.646-.323 2.104-.783.86-.86.784-1.834.784-3.998v-6.75h1.684v6.482c0 2.368.077 4.034-1.148 5.259zM-1.477 107.767l-6.024-10.154.037 10.154h-1.568V95.011h1.701l6.024 10.191-.038-10.191H.223v12.756h-1.7zM5.371 107.767V95.011h1.721v12.756H5.371zM16.657 107.767h-1.893l-4.398-12.756h1.779l3.614 10.997 3.711-10.997h1.663l-4.476 12.756zM24.476 107.767V95.011h7.057v1.415h-5.375v4.017h5.05v1.377h-5.05v4.494h5.528v1.453h-7.21zM42.596 107.767l-1.473-3.328c-.879-1.97-1.301-2.143-3.021-2.143H37.3v5.471h-1.684V95.011h2.83c1.702 0 3.022-.02 4.055 1.014.63.631.993 1.473.993 2.543 0 .882-.249 1.626-.785 2.198-.459.499-1.204.919-2.045 1.016.42.02.842.267 1.089.518.383.382.652.993.996 1.777l1.645 3.692h-1.798v-.002zm-1.357-10.73c-.689-.688-1.589-.669-2.621-.669H37.3v4.572h.594c1.222 0 2.465.036 3.269-.764.401-.402.631-.997.631-1.608-.001-.689-.27-1.242-.555-1.531zM50.965 108.032c-2.256 0-3.767-1.224-3.92-1.377l.821-1.184c.23.152 1.474 1.089 3.022 1.089 1.568 0 2.484-.937 2.484-2.103 0-1.395-1.561-2.086-2.938-2.754-1.626-.783-3.028-1.626-3.028-3.499 0-2.028 1.645-3.443 3.997-3.443s3.519 1.168 3.634 1.302l-.86 1.108c-.152-.135-1.167-.957-2.658-.957-1.396 0-2.389.689-2.389 1.836 0 1.205 1.127 1.652 2.389 2.302 1.129.574 3.635 1.448 3.635 3.953.001 2.103-1.549 3.727-4.189 3.727zM59.185 107.767V95.011h1.722v12.756h-1.722zM69.695 96.426v11.341h-1.721V96.426h-3.751v-1.415h9.2v1.415h-3.728zM80.854 102.718v5.049H79.15v-5.049l-4.034-7.707h1.88l3.109 6.003 3.053-6.003h1.729l-4.033 7.707zM99.16 108.016c-3.365 0-5.794-2.733-5.794-6.599 0-3.938 2.409-6.655 5.89-6.655 3.405 0 5.775 2.718 5.775 6.561 0 3.978-2.389 6.693-5.871 6.693zm-.02-11.801c-2.428 0-4.016 2.045-4.016 5.164 0 3.096 1.78 5.162 4.112 5.162 2.659 0 4.036-2.275 4.036-5.278 0-3.04-1.701-5.048-4.132-5.048zM110.814 96.426v4.017h4.896v1.377h-4.896v5.947h-1.702V95.011h6.904v1.415h-5.202zM2.806 132.837c0 8.172-6.291 14.088-14.16 14.088-8.011 0-14.161-5.993-14.161-13.786 0-8.165 6.3-14.084 14.161-14.084 8.02 0 14.16 5.985 14.16 13.782zm-4.558.149c0-7.416-3.524-12.431-9.603-12.431-6.591 0-9.586 6.065-9.586 12.431 0 7.421 3.52 12.46 9.586 12.46 6.601.004 9.603-6.079 9.603-12.46zM89.279 132.837c0 8.172-6.294 14.088-14.161 14.088-8.011 0-14.161-5.993-14.161-13.786 0-8.165 6.297-14.084 14.161-14.084 8.014 0 14.161 5.985 14.161 13.782zm-4.566.149c0-7.416-3.524-12.431-9.597-12.431-6.596 0-9.59 6.065-9.59 12.431 0 7.421 3.521 12.46 9.59 12.46 6.594.004 9.597-6.079 9.597-12.46zM100.218 133.063h3.37c5.096 0 6.148-3.129 6.148-6.208 0-2.306-.977-4.189-3.371-5.24-1.279-.527-2.477-.6-4.123-.6h-2.024v12.048zm6.148 4.441c-1.574-2.259-2.174-2.937-4.122-2.937h-2.024v9.004c0 .752.226 1.123 1.124 1.277l3.074.602v1.056H92.28v-1.056l2.771-.602c.901-.229 1.118-.525 1.118-1.277v-21.129c0-.752-.291-1.131-1.118-1.28l-2.771-.604v-1.048h11.834c2.479 0 4.197.223 5.622.75 2.92 1.125 4.567 3.908 4.567 6.517 0 3.304-2.468 6.061-6.592 7.04v.153c.825.372 1.274.906 4.199 4.733l3.747 4.868c.522.752 1.124 1.277 2.091 1.429l2.551.45v1.056h-6.514c-.753 0-1.13-.229-1.801-1.136l-5.618-7.866zM53.539 128.804h1.274v8.93h-1.274l-.527-2.564c-.216-.974-.816-1.353-1.721-1.353h-6.516v9.753c0 .751.225 1.123 1.117 1.277l3.08.6v1.06H36.829v-1.06l2.769-.6c.903-.229 1.129-.526 1.129-1.277v-21.127c0-.752-.302-1.131-1.129-1.28l-2.769-.604v-1.048h20.457v6.74h-1.271l-1.055-3.806c-.299-1.058-.901-1.429-1.8-1.429h-8.388v11.296h6.516c.903 0 1.503-.352 1.721-1.321l.53-2.187zM122.473 146.506v-1.056l2.771-.602c.9-.229 1.126-.525 1.126-1.277v-21.129c0-.752-.301-1.131-1.126-1.28l-2.771-.604v-1.048h12.666c3.445 0 5.916.446 7.936 1.352 5.102 2.335 7.418 7.345 7.418 12.279 0 4.812-1.79 9.298-6.364 11.71-2.097 1.121-5.02 1.659-8.84 1.659h-12.815v-.004zm7.873-25.491v22.775c0 .98.223 1.21 1.195 1.21h3.297c3.145 0 5.468-.381 7.117-1.582 2.777-2.029 3.973-5.539 3.973-10.202 0-4.564-1.195-8.896-4.946-11.079-1.579-.899-3.597-1.122-6.743-1.122h-3.893zM13.451 145.45v1.056h-9.67v-1.056l2.396-.525c.9-.23 1.577-.524 2.106-1.212l8.097-10.345-8.097-10.926c-.529-.752-1.206-1.131-2.029-1.355l-2.243-.531v-1.046h11.917v1.048l-2.551.457c-.82.149-.745.372-.292.973l5.987 8.476h.152l6.214-8.326c.453-.601.453-.899-.224-1.05l-2.393-.531v-1.046h9.661v1.048l-2.392.531c-.903.225-1.58.526-2.102 1.201l-7.71 9.67 8.609 11.613c.527.75 1.204 1.122 2.031 1.354l2.241.523v1.06h-11.92v-1.06l2.558-.449c.814-.15.738-.38.297-.979l-6.529-9.146h-.146l-6.669 9.146c-.453.602-.524.751.299.905l2.402.522z"/></g><path fill="#FFF" d="M106.043 8.66c0-1.573-.531-2.844-1.685-3.519-.721-.425-1.7-.563-2.906-.563l-8.73-.001v17.707h9.508c2.199 0 3.494.495 3.607 2.468h.209l-.003-16.092zM107.567 8.66c0-1.573.531-2.844 1.685-3.519.724-.425 1.7-.563 2.906-.563l8.793-.001v17.707h-9.567c-2.2 0-3.494.495-3.607 2.468h-.211l.001-16.092z"/><path fill="#FFF" d="M122.893 5.702v18.979h-13.817l-.188.469c-.227.555-.632 1.068-2.066 1.068-1.437 0-1.844-.513-2.068-1.068l-.188-.469H90.789V5.702h-1.5v.492l-1.051-.323a1.171 1.171 0 0 0-1.108-.807c-.645 0-1.171.526-1.171 1.172s.526 1.172 1.171 1.172c.27 0 .515-.096.715-.249l1.446.444v1.449l-1.041-.186a1.171 1.171 0 1 0-.237 1.331l1.277.229v1.481l-1.091-.047a1.172 1.172 0 0 0-2.158.631c0 .647.526 1.172 1.171 1.172.377 0 .708-.179.924-.456l1.154.049v1.611l-1.13.041a1.163 1.163 0 0 0-.927-.462 1.172 1.172 0 0 0 0 2.342c.41 0 .771-.211.98-.532l1.076-.038v1.483l-1.247.214a1.172 1.172 0 0 0-2 .827c0 .646.528 1.17 1.173 1.17.465 0 .865-.274 1.053-.668l1.023-.177v1.453l-1.386.423a1.157 1.157 0 0 0-.711-.248 1.173 1.173 0 0 0 0 2.344c.519 0 .954-.338 1.106-.806l.99-.305v1.397l-1.547.668a1.17 1.17 0 0 0-1.783 1.045 1.17 1.17 0 0 0 2.314.195l1.018-.438v1.376h14.353c.607 1.013 1.634 1.537 3.179 1.537 1.543 0 2.574-.526 3.183-1.537h14.394V5.702h-1.508z"/><g fill="#FFF"><ellipse cx="97.416" cy=".549" rx="5.231" ry="1.003"/><path d="M104.617-6.935l-3.02 2.123-.026.216.718.322c.143.07.143.184.069.253l-1.896 1.601-.178-.018-1.345-1.981c-.092-.127-.059-.255.104-.282l.903-.148v-.228L97.608-8.38h-.387l-2.339 3.303v.228l.902.148c.162.027.195.155.103.282l-1.344 1.981-.177.018-1.773-1.601c-.073-.069-.07-.183.069-.253l.721-.322-.026-.216-3.146-2.123-.256.101 1.847 5.643c.937-.421 3.091-.717 5.614-.729 2.52.012 4.674.308 5.612.729l1.847-5.643-.258-.101z"/></g><g fill="#FFF"><ellipse cx="106.797" cy="38.391" rx="5.231" ry="1.004"/><path d="M114.002 30.908l-3.021 2.123-.024.214.717.324c.142.07.144.184.072.253l-1.898 1.6-.18-.017-1.342-1.982c-.094-.127-.061-.255.103-.282l.902-.148v-.228l-2.339-3.303h-.387l-2.336 3.303v.228l.9.148c.163.027.194.155.104.282l-1.346 1.982-.178.017-1.772-1.6c-.071-.07-.069-.185.071-.253l.718-.324-.026-.214-3.147-2.123-.253.101 1.848 5.643c.938-.421 3.089-.717 5.612-.729 2.52.012 4.675.308 5.612.729l1.847-5.643-.257-.101z"/></g><g fill="#FFF"><ellipse cx="116.156" cy=".549" rx="5.231" ry="1.003"/><path d="M123.361-6.935l-3.021 2.123-.024.216.717.322c.144.07.144.184.071.253l-1.896 1.601-.18-.018-1.345-1.981c-.093-.127-.059-.255.104-.282l.902-.148v-.228L116.35-8.38h-.386l-2.338 3.303v.228l.901.148c.164.027.196.155.104.282l-1.345 1.981-.18.018-1.771-1.623c-.073-.068-.071-.182.069-.253l.718-.302-.024-.216-3.147-2.123-.251.101 1.846 5.643c.938-.422 3.091-.718 5.612-.729 2.521.012 4.675.308 5.613.729l1.847-5.643-.257-.099z"/></g><circle fill="#FFF" cx="106.757" cy="-22.126" r="1.073"/><circle fill="#FFF" cx="131.809" cy="-12.18" r="1.073"/><g fill="#002147"><path d="M94.948 7.301c.478 0 .88.094 1.139.347.183.177.336.464.336.801 0 .972-.737 1.39-1.642 1.39h-1.006v-.153c.285-.024.317-.05.317-.472V7.925c0-.422-.032-.449-.284-.472v-.152h1.14zm-.193 1.917c0 .347.087.414.272.414.337 0 .675-.371.675-1.062 0-.839-.426-1.075-.756-1.075a.36.36 0 0 0-.168.028c-.021.009-.024.099-.024.194l.001 1.501zM99.383 8.538c0 .835-.571 1.358-1.319 1.358-.79 0-1.302-.575-1.302-1.292 0-.633.422-1.363 1.355-1.363.714.002 1.266.524 1.266 1.297zm-1.894-.067c0 .708.266 1.223.647 1.223.336 0 .52-.323.52-1.031 0-.785-.28-1.218-.616-1.218-.302 0-.551.344-.551 1.026zM102.829 7.301v.153c-.298.027-.314.042-.301.453l.04 1.31c.01.434.017.446.299.472v.151h-1.223v-.152c.292-.027.306-.038.303-.472l-.014-1.376h-.017l-.751 1.957h-.212l-.711-1.819h-.011l-.027.868c-.012.334-.007.521.008.643.017.145.103.18.355.199v.152h-.963v-.152c.186-.016.262-.055.285-.199.02-.121.04-.326.06-.682l.044-.79c.029-.492-.004-.534-.313-.561v-.153h.917l.683 1.546.6-1.546h.948v-.002zM104.098 9.214c0 .422.031.449.304.472v.153h-1.266v-.153c.268-.024.3-.05.3-.472V7.925c0-.422-.032-.449-.3-.472v-.152h1.266v.153c-.272.024-.304.05-.304.472v1.288z"/></g><g fill="#002147"><path d="M97.812 14.552h-.336l-1.446-1.844h-.009v.719c0 .41.017.625.033.745.021.136.123.187.384.199v.151h-.974v-.151c.175-.008.274-.063.294-.199.018-.121.032-.335.032-.745v-.719c0-.289-.009-.339-.088-.449-.057-.083-.156-.109-.296-.121v-.153h.863l1.301 1.621h.009v-.524c0-.409-.016-.624-.033-.745-.021-.136-.123-.187-.383-.199v-.153h.995v.153c-.194.008-.297.063-.317.199a7.009 7.009 0 0 0-.029.745v1.47zM99.393 14.552c-.27-.703-.638-1.667-.777-2.035-.128-.335-.206-.355-.394-.379v-.153h1.261v.153l-.133.015c-.145.018-.145.051-.104.188.07.218.381.987.525 1.371.119-.332.37-1.078.434-1.261.081-.239.058-.281-.115-.302l-.118-.012v-.153h.945v.153c-.224.029-.277.047-.43.401-.025.055-.5 1.214-.793 2.012h-.301zM101.153 13.718c.079.229.312.66.694.66.202 0 .358-.133.358-.386 0-.232-.153-.359-.389-.468l-.059-.029c-.32-.147-.683-.35-.683-.769 0-.44.319-.801.934-.801.118 0 .246.015.359.047.089.022.152.037.202.055.017.151.042.341.087.607l-.175.028c-.085-.258-.221-.535-.53-.535a.334.334 0 0 0-.34.341c0 .194.152.31.403.422l.085.037c.36.166.669.364.669.82 0 .48-.387.831-.993.831a1.48 1.48 0 0 1-.422-.065 1.697 1.697 0 0 1-.244-.096c-.031-.178-.085-.389-.13-.651l.174-.048z"/></g><g fill="#002147"><path d="M96.074 18.584c0 .419.031.448.302.473v.151H95.11v-.151c.27-.026.303-.053.303-.473v-1.29c0-.422-.033-.449-.303-.471v-.153h1.266v.153c-.271.024-.302.049-.302.471v1.29zM97.618 18.633c0 .205.011.301.08.335.063.032.152.035.272.035.126 0 .292-.01.377-.112.062-.073.128-.177.191-.386l.167.027c-.024.15-.107.555-.141.675h-1.937v-.151c.297-.026.327-.053.327-.473v-1.29c0-.422-.032-.449-.294-.471v-.153h1.271v.153c-.282.024-.314.049-.314.471v1.34h.001zM99.798 18.633c0 .205.01.301.079.335.063.032.153.035.272.035.125 0 .293-.01.376-.112.063-.073.126-.177.189-.386l.169.027c-.023.15-.106.555-.14.675h-1.937v-.151c.296-.026.325-.053.325-.473v-1.29c0-.422-.029-.449-.292-.471v-.153h1.27v.153c-.281.024-.313.049-.313.471v1.34h.002zM101.664 19.237c-.269-.705-.638-1.667-.776-2.034-.128-.335-.206-.355-.395-.379v-.153h1.263v.153l-.135.015c-.145.016-.145.05-.103.188.073.218.38.987.524 1.37.12-.331.371-1.078.434-1.26.082-.24.059-.282-.118-.301l-.114-.012v-.153h.945v.153c-.223.027-.277.046-.431.401-.022.055-.498 1.214-.79 2.012h-.304z"/></g><g fill="#002147"><path d="M112.447 7.386v.153c-.299.028-.313.042-.303.455l.039 1.308c.015.434.021.445.3.473v.151h-1.221v-.152c.293-.029.308-.039.301-.473l-.012-1.376h-.017l-.752 1.956h-.209l-.715-1.818h-.01l-.026.867c-.014.335-.01.522.007.643.015.145.103.18.355.201v.151h-.964v-.151c.188-.017.261-.056.286-.201.02-.121.041-.327.062-.682l.043-.789c.026-.492-.004-.534-.314-.562v-.152h.917l.683 1.545.6-1.545h.95v-.002zM113.716 9.299c0 .422.032.449.3.474v.151h-1.265v-.152c.271-.026.301-.052.301-.474V8.01c0-.422-.03-.449-.301-.471v-.153h1.265v.153c-.268.024-.3.049-.3.471v1.289zM116.619 9.953h-.334l-1.446-1.844h-.007v.718c0 .41.017.625.032.745.02.138.124.188.384.201v.151h-.974v-.152c.173-.01.275-.063.292-.201.019-.12.033-.334.033-.745v-.717c0-.289-.008-.34-.086-.449-.059-.083-.156-.109-.296-.121v-.153h.862l1.3 1.621h.007v-.525a6.8 6.8 0 0 0-.029-.746c-.021-.135-.125-.187-.386-.198v-.154h.997v.154c-.193.007-.296.063-.316.198a5.743 5.743 0 0 0-.033.746v1.471zM118.251 9.772l.119-.018c.143-.02.149-.057.102-.198l-.142-.398h-.641l-.116.375c-.05.168-.05.206.128.227l.111.013v.151h-.907v-.15c.199-.029.256-.044.387-.372l.781-2.02.269-.054.264.738c.17.464.336.925.485 1.323.126.339.196.358.387.384v.151h-1.227v-.152zm-.495-.848h.501l-.245-.745h-.016l-.24.745z"/></g><g fill="#002147"><path d="M112.414 13.983c0 .422.033.451.358.473v.151h-1.365v-.151c.313-.024.344-.051.344-.473v-1.709h-.066c-.261 0-.367.046-.43.118-.043.058-.093.16-.145.377h-.165c.017-.326.039-.596.047-.795h.121c.059.09.099.099.203.099h1.558c.102 0 .121-.025.181-.099h.122c.003.165.024.495.041.784l-.169.012c-.061-.232-.104-.334-.163-.401-.066-.07-.192-.094-.382-.094h-.097v1.709h.007zM114.459 13.983c0 .422.031.451.3.473v.151h-1.262v-.151c.269-.024.301-.051.301-.473v-1.288c0-.422-.032-.45-.301-.473v-.151h1.262v.151c-.269.024-.3.051-.3.473v1.288zM117.706 13.309c0 .834-.571 1.358-1.319 1.358-.79 0-1.3-.575-1.3-1.292 0-.633.42-1.365 1.354-1.365.713 0 1.265.526 1.265 1.299zm-1.893-.069c0 .708.264 1.224.647 1.224.336 0 .521-.325.521-1.03 0-.786-.28-1.218-.618-1.218-.3 0-.55.342-.55 1.024z"/></g><g fill="#002147"><path d="M113.566 16.756v.153c-.295.027-.312.042-.299.454l.038 1.308c.012.434.019.446.301.472v.152h-1.223v-.152c.293-.028.305-.039.301-.472l-.012-1.378h-.017l-.752 1.956h-.211l-.715-1.818h-.006l-.03.867a4.29 4.29 0 0 0 .01.644c.017.146.102.18.355.2v.152h-.965v-.152c.189-.017.263-.054.286-.2.021-.121.043-.326.062-.683l.043-.789c.028-.491-.004-.534-.313-.561v-.153h.917l.685 1.546.596-1.546h.949zM114.171 17.38c0-.422-.033-.449-.292-.472v-.153h1.851c.003.066.023.352.043.645l-.173.012c-.038-.191-.083-.301-.146-.363-.06-.068-.188-.091-.395-.091h-.066c-.149 0-.156 0-.156.138v.751h.194c.335 0 .347-.024.387-.32h.173v.922h-.173c-.038-.342-.05-.368-.387-.368h-.194v.636c0 .204.007.301.076.335.063.034.154.036.272.036.156 0 .329-.024.415-.117.064-.07.131-.214.191-.402l.171.029a5.49 5.49 0 0 1-.137.694h-1.986v-.152c.299-.025.331-.051.331-.473l.001-1.287zM117.335 19.142l.118-.017c.143-.021.149-.058.102-.199l-.142-.398h-.639l-.118.376c-.05.167-.05.205.129.226l.113.013v.152h-.91v-.152c.199-.028.259-.044.387-.372l.781-2.019.269-.055.266.738c.168.464.334.925.483 1.324.127.338.196.358.389.383v.152h-1.228v-.152zm-.494-.849h.499l-.249-.745h-.012l-.238.745z"/></g><circle fill="#FFF" cx="102.163" cy="51.435" r="1.073"/><circle fill="#FFF" cx="112.729" cy="53.169" r="1.073"/><path fill="#FFF" d="M73.282-5.38zM115.052-17.138zM117.062-24.208zM133.873-3.507zM145.652 19.783zM141.976 30.375zM78.066 31.221c.368.001 1.408.104 2.287 1.354.361.515.616 1.12.616 1.755-.004 1.051-.516 1.658-1.746 2.523l-3.269 2.306-.889-1.263 3.661-2.585c.339-.238.789-.629.79-1.131 0-.277-.036-.502-.287-.86-.391-.55-.796-.6-1.053-.6-.391 0-.756.234-1.543.788l-3.173 2.069-.863-1.231 3.368-2.205c.892-.62 1.464-.922 2.101-.92zM72.243 28.234l4.478-1.757.481 1.256-6.758 2.619-.477-1.31 3.498-4.453-4.51 1.575-.48-1.318 6.82-2.384.451 1.238-3.503 4.534zM67.388 19.242l7.181-1.092.232 1.528-7.179 1.091-.234-1.527zM74.31 13.387l-7.36 2.206.065-1.556 5.521-1.488-5.373-1.98.062-1.513 7.148 2.831-.063 1.5zM67.994 5.126l1.203-4.23 1.195.339L69.605 4l1.621.461.74-2.595 1.172.331-.739 2.597 1.78.507.811-2.85 1.216.346-1.229 4.313-6.983-1.984zM79.083-3.019l-2.153-.19c-1.016-.095-1.114.149-1.401.665l-.086.151 2.551 1.358-.756 1.344-6.383-3.496L71.9-5.026c.472-.846.974-1.745 2.253-1.745.802 0 1.916.673 1.916 1.886 0 .216-.05.444-.143.681.289-.414.809-.475 1.282-.47.261.003.52.041.732.06l1.937.17-.794 1.425zm-5.362-2.199c-.37.105-.561.39-.837.886l-.239.412 1.761.949.298-.533c.247-.447.304-.702.216-1.013-.065-.238-.289-.485-.509-.607a.891.891 0 0 0-.69-.094zM82.298-17.318l1.236-.929 4.368 5.798-1.236.93-4.368-5.799zM90.446-20.917l2.758 5.351-1.374.708-2.759-5.351-1.771.914-.569-1.103 4.906-2.529.568 1.102-1.759.908zM98.942-20.527l.701 2.809-1.438.357-.7-2.81-3.274-3.682 1.521-.381 2.166 2.535.728-3.26 1.457-.357-1.161 4.789zM125.225-17.92l2.294 1.366-.625 1.047-2.292-1.365-1.593 2.676-1.311-.782 3.716-6.238 3.722 2.218-.638 1.064-2.411-1.438-.862 1.452zM138.274 5.67l1.986-2.186-2.883-.68-.477-1.518 4.286 1.12 2.688-3.146.498 1.59-1.843 2.015 2.676.645.463 1.485-3.982-1.066-2.92 3.32-.492-1.579zM145.221 10.845l-1.685.135.178 2.682-1.217.082-.177-2.66-3.109.209-.103-1.458 7.248-.594.289 4.366-1.239.083-.185-2.845z"/><path fill="#FFF" d="M150.323 14.407c.194-23.952-19.167-43.599-43.163-43.792-11.213-.092-21.893 4.07-30.077 11.711-8.796 8.216-13.692 19.36-13.791 31.377-.117 14.332 6.835 27.747 18.601 35.964 1.116 4.653 5.318 8.129 10.331 8.129 1.436 0 2.822-.28 4.134-.831a43.61 43.61 0 0 0 4.254 1.115c-.463 1.276-1.121 2.477-1.761 3.565l1.04 1.041c.249-.166.542-.247.837-.249.798 0 1.559.545 1.552 1.526 0 .801-.538 1.548-1.659 1.548-.606 0-1.394-.32-1.819-1.23 0 0-.282.885-.282 1.951 0 3.229 3.51 6.783 8.208 8.271 4.725-1.475 8.221-5.042 8.221-8.271 0-1.066-.282-1.951-.282-1.951-.426.908-1.211 1.23-1.819 1.23-1.119 0-1.659-.747-1.659-1.548-.007-.981.756-1.526 1.553-1.526.293.002.587.083.834.249l.958-.953.025-.013.038-.051c.005.003.012.005.015.008l.004-.027.003-.007-.003-.008v-.001a21.49 21.49 0 0 1-1.057-3.132c7.793-1.068 14.369-4.375 19.604-9.88l-.008-.01c10.803-8.209 17.058-20.636 17.168-34.205zM92.228 56.334c-5.013 0-9.094-4.092-9.094-9.123 0-1.573.398-3.053 1.098-4.345.465.422.962.86 1.479 1.305a7.16 7.16 0 0 0-.698 3.074c0 2.73 1.377 4.988 3.981 6.522 1.51.891 3.224 1.693 5.041 2.389a9.159 9.159 0 0 1-1.807.178zm14.579-13.322c-1.7 0-3.375-.153-5.022-.441-1.773-3.614-5.515-5.946-9.557-5.946a10.67 10.67 0 0 0-2.986.432c-7.133-5.464-11.376-14.002-11.376-23.001 0-15.967 12.985-28.958 28.943-28.958 15.96 0 28.944 12.992 28.944 28.958-.003 15.965-12.984 28.956-28.946 28.956zm6.178.834c-.751 1.209-1.209 2.78-1.372 4.371a44.838 44.838 0 0 1-7.172-2.57c.293-.61.977-1.178 2.147-1.178.073 0 .145.006.218.006 2.117 0 4.183-.218 6.179-.629zm-9.256.478c-.241.211-.44.451-.604.704-.929-.393-2.722-1.231-3.302-1.58.918.296 2.974.782 3.906.876zm-11.501-6.237c3.046 0 5.896 1.563 7.566 4.067a28.73 28.73 0 0 1-4.321-1.446l-.003.008-.04-.024a7.291 7.291 0 0 0-3.126-.697 7.285 7.285 0 0 0-5.896 3.004 44.91 44.91 0 0 1-1.656-.97c1.642-2.379 4.379-3.942 7.476-3.942zm20.383 23.006c-1.666 0-2.904 1.301-2.904 2.909 0 1.873 1.312 3.003 3.003 3.003.209 0 .415-.025.611-.067-.504 2.336-3.266 4.867-6.595 5.998-3.269-1.131-6.075-3.662-6.577-5.998.196.042.4.067.611.067 1.688 0 3.003-1.13 3.003-3.003 0-1.607-1.238-2.909-2.908-2.909.422-.774.897-1.726 1.251-2.727 1.963.337 3.898.522 5.7.522 1.451 0 2.865-.076 4.245-.211.187.709.635 2.074.753 2.427a1.864 1.864 0 0 0-.193-.011zm-4.804-3.665c-5.797 0-13.028-1.971-18.001-4.904-1.481-.875-3.252-2.503-3.252-5.28 0-.724.14-1.41.38-2.048 1.879 1.544 3.802 2.981 5.018 3.648.286.158.45.232.784.232.797 0 1.445-.649 1.445-1.451a1.43 1.43 0 0 0-.881-1.349c-1.043-.458-3.205-1.351-5.547-2.556a5.728 5.728 0 0 1 6.99-1.718l1.583.923c5.029 3.071 17.885 10.92 33.465 6.844-5.887 5.141-13.105 7.659-21.984 7.659zm24.342-9.919c-6.963 2.454-13.466 2.3-19.028 1.073.178-2.381 1.066-5.019 2.531-5.417 12.507-3.792 21.639-15.407 21.639-29.11 0-16.774-13.676-30.421-30.484-30.421S76.324-2.72 76.324 14.055c0 9.162 4.197 17.878 11.296 23.632a10.699 10.699 0 0 0-4.129 3.517c-.5-.347-.98-.706-1.433-1.075l-.283.286c.311.372.767.851 1.323 1.391a10.439 10.439 0 0 0-1.505 5.405c0 .136.014.269.021.403-10.641-7.999-16.892-20.534-16.78-33.902.095-11.628 4.828-22.404 13.328-30.345 7.894-7.369 18.185-11.378 28.985-11.293 23.145.187 41.823 19.171 41.634 42.32-.106 13.146-6.165 25.179-16.632 33.115z"/><path fill="#FFF" d="M83.617-9.521c0 .621-.272 1.278-.814 1.873-1.043 1.141-2.157 1.243-2.271 1.241l-.315-1.204c.176-.045.991-.214 1.571-.849.262-.287.398-.593.398-.862 0-.288-.189-.784-.781-.784-.631 0-1.686.914-2.767.914-.415 0-.877-.058-1.358-.498a2.03 2.03 0 0 1-.68-1.519c0-.602.274-1.235.785-1.793.971-1.062 2.037-1.146 2.13-1.151l.261 1.182c-.123.022-.917.194-1.408.733-.255.276-.388.578-.388.839 0 .286.18.636.651.643.521.008 1.827-.948 2.887-.948.491 0 .851.088 1.349.544.501.458.75 1.033.75 1.639zM117.064-16.823c-1.851 0-3.531-1.409-3.531-3.53 0-1.895 1.27-4.092 3.578-4.092 1.877 0 3.61 1.325 3.61 3.459.001 1.603-1.082 4.163-3.657 4.163zm2.112-4.184c0-.502-.115-1.027-.419-1.434a1.79 1.79 0 0 0-1.446-.72c-1.301 0-2.252 1.614-2.252 2.948 0 1.238.833 2.078 1.956 2.078 1.471.002 2.161-1.909 2.161-2.872zM137.207-1.31c-2.211 0-3.429-2.129-3.429-3.558 0-2.165 2.33-3.82 4.15-3.82 1.987 0 3.443 1.888 3.443 3.597.003 1.945-2.027 3.781-4.164 3.781zm-.258-1.471c1.275 0 3.043-1.104 3.043-2.587a1.795 1.795 0 0 0-1.813-1.822c-1.192 0-3.011 1.062-3.011 2.561.001.797.608 1.848 1.781 1.848zM138.637 20.081c0-1.793 1.213-3.555 3.627-3.555 2.028 0 3.991 1.25 3.991 3.499 0 1.845-1.183 3.619-3.579 3.619-2.053-.002-4.039-1.296-4.039-3.563zm4.119 2.01c1.285 0 2.23-.788 2.23-1.944 0-1.381-1.596-2.084-2.83-2.084-1.583 0-2.221 1.027-2.221 1.993.001 1.515 1.852 2.035 2.821 2.035zM135.876 28.641l2.159.011c1.023.008 1.1-.244 1.344-.777l.071-.16-2.598-1.206.623-1.379 6.574 3.035-.844 1.891c-.576 1.272-1.068 1.915-2.274 1.915-.773 0-1.908-.644-1.899-1.826.001-.182.026-.378.084-.585-.387.672-1.358.579-1.968.579l-1.945-.009.673-1.489zm4.211.807c0 .555.467.995.984.995.462 0 .754-.253 1.026-.857l.229-.542-1.795-.842-.301.67a1.429 1.429 0 0 0-.143.576zM131.455 36.67c0-1.485.688-2.293 1.56-3.366l.941-1.157 5.634 4.584-1.266 1.553c-.712.877-1.553 1.956-3.169 1.956-.92 0-1.728-.427-2.299-.891-.717-.582-1.401-1.569-1.401-2.679zm3.87 2.129c.764 0 1.209-.23 2.089-1.311l.274-.339-3.74-3.042-.46.564c-.452.554-.685 1.099-.685 1.624 0 .7.346 1.314 1.053 1.89.51.416.981.614 1.469.614z"/></svg>