<svg xmlns="http://www.w3.org/2000/svg" width="690.943" height="212.598" viewBox="0 0 690.943 212.598"><path fill="#22284B" d="M0 0h690.943v212.598H0z"/><g fill="#FFF"><path d="M281.509 132.575c0 19.704-15.208 34.01-34.209 34.01-19.371 0-34.216-14.467-34.216-33.306 0-19.717 15.205-34.023 34.216-34.023 19.368 0 34.209 14.485 34.209 33.319zm-10.871.355c0-17.916-8.685-30.417-23.339-30.417-15.93 0-23.358 15.012-23.358 30.417 0 17.906 8.692 30.396 23.358 30.396 15.926.001 23.339-15.008 23.339-30.396zM490.392 132.575c0 19.704-15.208 34.01-34.21 34.01-19.374 0-34.214-14.467-34.214-33.306 0-19.717 15.206-34.023 34.214-34.023 19.366 0 34.21 14.485 34.21 33.319zm-10.86.355c0-17.916-8.695-30.417-23.35-30.417-15.929 0-23.35 15.012-23.35 30.417 0 17.906 8.689 30.396 23.35 30.396 15.924.001 23.35-15.008 23.35-30.396zM516.815 133.279h8.147c12.312 0 15.029-7.768 15.029-15.202 0-5.611-2.537-10.861-8.329-13.389-3.076-1.271-5.976-1.271-9.957-1.271h-4.891v29.862h.001zm15.029 10.492c-3.806-5.429-5.256-7.409-9.957-7.409h-5.072v22.084c0 1.811.727 2.701 2.722 3.07l7.418 1.628v2.365H497.81v-2.365l6.701-1.628c1.985-.533 2.712-1.26 2.712-3.07V107.4c0-1.814-.727-2.534-2.712-3.073l-6.701-1.631v-2.361h28.418c5.98 0 10.139.55 13.578 1.808 7.061 2.724 11.039 9.433 11.039 15.75 0 7.977-5.971 14.683-15.928 17.008v.363c1.994.924 3.078 2.183 10.138 11.428l8.869 11.755c1.266 1.811 2.897 2.886 4.89 3.258l6.516 1.44v2.365h-15.565c-1.811 0-2.716-.554-4.345-2.733l-13.576-19.006zM404.23 122.602h2.719v21.726h-2.719l-1.63-6.513c-.547-2.364-1.991-3.262-4.162-3.262h-15.751v23.893c0 1.811.725 2.701 2.717 3.07l7.421 1.628v2.365h-29.139v-2.365l6.697-1.628c1.991-.533 2.716-1.26 2.716-3.07V107.4c0-1.814-.725-2.534-2.716-3.073l-6.697-1.631v-2.361h49.232v16.309h-2.715l-3.076-9.788c-.724-2.528-1.811-3.439-3.984-3.439h-20.456v28.054h15.751c2.171 0 3.437-.894 4.162-3.26l1.63-5.609zM570.574 165.509v-2.365l6.699-1.628c1.993-.533 2.714-1.26 2.714-3.07V107.4c0-1.814-.721-2.534-2.714-3.073l-6.699-1.631v-2.361h30.595c8.325 0 14.3 1.088 19.189 3.26 12.308 5.616 17.921 17.739 17.921 29.684 0 11.6-4.348 22.447-15.387 28.237-5.065 2.73-12.129 3.993-21.357 3.993h-30.961zm19.01-62.093v56.104c0 2.365.539 2.919 2.896 2.919h7.963c7.604 0 13.214-1.107 17.195-3.993 6.697-4.882 9.776-13.752 9.776-24.981 0-11.04-3.079-21.89-12.126-27.145-3.8-2.179-8.689-2.904-16.296-2.904h-9.408zM307.032 163.144v2.365h-22.988v-2.365l5.785-1.44c2.183-.557 3.621-1.263 5.068-2.889l19.916-24.982-19.916-26.433c-1.263-1.814-2.886-2.712-4.885-3.259l-5.433-1.445v-2.361h28.601v2.361l-6.148 1.262c-2.177.369-1.633 1.268-.551 2.721l14.663 20.995h.362l15.025-20.995c1.087-1.454 1.453-1.992-.542-2.538l-5.792-1.445v-2.361h22.989v2.361l-5.795 1.445c-2.166.546-3.616 1.263-5.068 2.893L323.5 130.761l20.994 27.685c1.274 1.811 2.897 2.701 4.889 3.258l5.435 1.44v2.365h-28.602v-2.365l6.152-1.259c2.175-.369 1.812-1.075.725-2.552l-15.93-22.441h-.36l-16.109 22.289c-1.088 1.444-1.45 1.966.541 2.522l5.797 1.441zM238.463 69.667c-1.8 1.799-4.5 3.001-8.268 3.001-3.284 0-6.328-1.034-8.389-3.095-2.813-2.811-2.682-6.397-2.682-10.231V41.217h3.697v19.472c0 2.464-.076 4.864 1.828 6.768 1.318 1.318 3.349 2.03 5.688 2.03 2.284 0 4.119-.787 5.26-1.932 2.118-2.117 1.983-4.425 1.983-10.002V41.217h3.642v15.376c.001 5.844.238 10.078-2.759 13.074zM271.267 72.087l-14.871-25.306.092 25.306h-3.396V41.215h3.788l14.926 25.446-.094-25.446h3.398v30.872h-3.843zM287.98 72.084V41.217h3.715v30.868h-3.715zM314.79 72.084h-4.252l-10.644-30.868h3.872l9.003 27.252 9.272-27.252h3.595L314.79 72.084zM334.037 72.084V41.217h16.785v3.078h-13.145v10.188h12.339v3.001h-12.339v11.43h13.511v3.17h-17.151zM374.657 45.863c-1.769-1.771-4.065-1.689-6.582-1.689h-3.419v11.527h1.228c3.114 0 6.472.162 8.59-1.956 1.021-1.022 1.596-2.458 1.596-4.024-.001-1.735-.686-3.129-1.413-3.858zm3.37 26.221l-3.545-8.001c-2.197-4.921-3.199-5.426-7.676-5.426h-2.15v13.427h-3.642V41.217h6.661c4.119 0 7.226-.028 9.654 2.401 1.544 1.544 2.407 3.598 2.407 6.173 0 2.146-.624 3.93-1.915 5.305-1.111 1.183-2.95 2.221-4.952 2.436 1.088.062 1.986.647 2.567 1.232.841.839 1.453 2.112 2.357 4.13l4.1 9.191h-3.866zM417.953 72.084V41.217h3.715v30.868h-3.715zM442.858 44.294v27.79h-3.709v-27.79h-9.179v-3.078h22.037v3.078h-9.149zM469.774 59.885v12.2h-3.668v-12.2l-9.798-18.668h4.245l7.605 14.476 7.39-14.478 4.025.001-9.799 18.669zM514.2 43.787c-6.048 0-9.976 5.108-9.976 12.807 0 7.67 4.373 12.894 10.175 12.894 6.45 0 10.042-5.489 10.042-13.137 0-7.532-4.239-12.564-10.241-12.564zm.011 28.881c-7.987 0-13.831-6.599-13.831-15.878 0-9.533 5.779-16.158 14.117-16.158 8.08 0 13.787 6.554 13.787 15.874.001 9.557-5.717 16.162-14.073 16.162zM542.119 44.294v10.188h11.935v3.001h-11.935v14.601h-3.686V41.217h16.394v3.078h-12.708zM389.376 48.748c0-4.743 3.816-8.121 9.393-8.121 5.646 0 8.353 2.915 8.63 3.216l-1.813 2.193c-.691-.533-3.162-2.348-6.574-2.348-3.938 0-6.118 2.058-6.118 4.852 0 1.353.555 2.325 1.444 3.125 1.061.95 2.604 1.652 4.267 2.417 2.071.952 4.907 2.021 6.809 3.994 1.315 1.362 2.309 3.136 2.309 5.569 0 5.134-3.563 9.044-9.97 9.044-5.461 0-8.906-3.007-9.229-3.309l1.7-2.504c.876.651 4.304 2.678 7.438 2.678 4.646 0 6.383-2.543 6.383-5.609 0-1.426-.646-2.572-1.61-3.495-1.439-1.387-3.618-2.316-5.707-3.27-2.074-.948-4.072-1.94-5.487-3.426-.934-.979-1.865-2.579-1.865-5.006z"/></g><path fill="#FFF" d="M105.67 83.071c0-2.729-.924-4.932-2.924-6.106-1.252-.736-2.947-.976-5.039-.976l-15.217-.002v30.723h16.56c3.819 0 6.063.86 6.258 4.283h.363l-.001-27.922zM107.795 83.071c0-2.729.926-4.932 2.924-6.106 1.255-.736 2.952-.976 5.043-.976l15.322-.002v30.723h-16.667c-3.817 0-6.062.86-6.258 4.283h-.366l.002-27.922z"/><path fill="#FFF" d="M134.289 78.259v32.478h-23.55l-.268.663c-.409 1.014-1.144 1.951-3.712 1.951s-3.297-.938-3.71-1.951l-.27-.663H79.294V78.259h-2.125v.989l-2.038-.625a1.93 1.93 0 0 0-1.847-1.392 1.937 1.937 0 0 0-1.935 1.935c0 1.069.869 1.935 1.935 1.935.467 0 .89-.172 1.223-.448l2.662.817v2.611l-2-.358a1.936 1.936 0 1 0-1.779 2.694 1.93 1.93 0 0 0 1.4-.604l2.379.426v2.662l-2.09-.092a1.925 1.925 0 0 0-1.653-.945 1.937 1.937 0 0 0-1.935 1.935c0 1.069.869 1.936 1.935 1.936.645 0 1.211-.318 1.563-.803l2.18.096v2.893l-2.136.076a1.931 1.931 0 0 0-3.507 1.121c0 1.068.868 1.935 1.935 1.935a1.93 1.93 0 0 0 1.647-.932l2.061-.074v2.666l-2.336.401a1.928 1.928 0 0 0-1.407-.614 1.937 1.937 0 0 0-1.935 1.935 1.934 1.934 0 1 0 3.707.772l1.971-.339v2.617l-2.555.78a1.92 1.92 0 0 0-1.225-.448 1.934 1.934 0 1 0 0 3.869 1.93 1.93 0 0 0 1.848-1.39l1.931-.59v2.531l-2.822 1.219a1.921 1.921 0 0 0-1.063-.321 1.937 1.937 0 0 0 0 3.871 1.93 1.93 0 0 0 1.9-1.598l1.985-.855v2.312h24.302c.989 1.723 2.697 2.614 5.288 2.614 2.593 0 4.302-.892 5.288-2.614h24.366V78.259h-2.123z"/><g fill="#FFF"><ellipse cx="90.77" cy="69.134" rx="8.893" ry="1.706"/><path d="M103.014 56.773l-5.133 3.608-.044.366 1.219.548c.245.121.245.315.122.432l-3.226 2.722-.305-.026-2.284-3.368c-.16-.218-.101-.436.174-.482l1.532-.25v-.387l-3.976-5.617h-.653l-3.976 5.617v.387l1.535.25c.274.046.331.264.174.482l-2.287 3.368-.303.026-3.013-2.722c-.122-.117-.122-.312.12-.432l1.22-.548-.044-.366-5.347-3.608-.434.17 3.138 9.593c1.595-.716 5.256-1.22 9.541-1.24 4.289.02 7.948.524 9.542 1.24l3.141-9.593-.433-.17z"/></g><g fill="#FFF"><ellipse cx="106.72" cy="133.466" rx="8.895" ry="1.706"/><path d="M118.965 121.105l-5.133 3.609-.044.366 1.22.548c.242.12.243.313.122.431l-3.226 2.723-.308-.027-2.284-3.366c-.157-.22-.101-.437.176-.483l1.534-.249v-.387l-3.977-5.618h-.652l-3.976 5.618v.387l1.534.249c.274.047.331.264.174.483l-2.287 3.366-.306.027-3.009-2.723c-.125-.117-.123-.311.12-.431l1.219-.548-.044-.366-5.348-3.609-.434.17 3.142 9.595c1.594-.718 5.253-1.222 9.539-1.241 4.288.02 7.948.523 9.542 1.241l3.139-9.595-.433-.17z"/></g><g fill="#FFF"><path d="M122.636 67.428c-4.916 0-8.897.764-8.897 1.706 0 .943 3.981 1.706 8.897 1.706 4.909 0 8.889-.762 8.889-1.706-.001-.942-3.981-1.706-8.889-1.706zM134.877 56.773l-5.133 3.608-.045.366 1.22.548c.242.121.243.315.12.432l-3.224 2.722-.305-.026-2.285-3.368c-.158-.218-.1-.436.174-.482l1.532-.25v-.387l-3.976-5.617h-.652l-3.976 5.617v.387l1.534.25c.275.046.333.264.176.482l-2.284 3.368-.309.026-3.01-2.758c-.123-.116-.122-.311.12-.431l1.22-.513-.044-.366-5.35-3.608-.432.17 3.139 9.593c1.592-.716 5.254-1.22 9.542-1.24 4.288.02 7.945.524 9.539 1.24l3.142-9.593-.433-.17z"/></g><g fill="#22284B"><path d="M86.42 80.861c.833 0 1.525.164 1.978.603.318.305.582.806.582 1.389 0 1.687-1.279 2.411-2.845 2.411h-1.746V85c.494-.041.549-.089.549-.82v-2.235c0-.731-.056-.779-.497-.819v-.265h1.979zm-.332 3.326c0 .602.151.718.475.718.583 0 1.172-.643 1.172-1.843 0-1.456-.738-1.862-1.314-1.862-.157 0-.245.021-.292.048-.035.012-.041.169-.041.337v2.602zM94.114 83.008c0 1.45-.989 2.357-2.288 2.357-1.368 0-2.256-.996-2.256-2.242 0-1.097.731-2.364 2.35-2.364 1.237.001 2.194.908 2.194 2.249zm-3.286-.115c0 1.227.46 2.121 1.125 2.121.584 0 .899-.562.899-1.789 0-1.36-.486-2.112-1.069-2.112-.52-.001-.955.595-.955 1.78zM100.095 80.861v.265c-.517.048-.543.074-.521.786l.066 2.268c.022.751.037.772.523.82v.264h-2.118V85c.507-.048.526-.068.519-.82l-.018-2.384h-.029l-1.307 3.393h-.365l-1.241-3.156h-.015l-.047 1.503c-.019.583-.012.907.015 1.116.026.251.176.313.615.347v.264H94.5V85c.325-.028.453-.095.494-.347.035-.209.075-.568.108-1.185l.073-1.367c.05-.853-.006-.927-.539-.975v-.265h1.591l1.185 2.682 1.036-2.682h1.647zM102.295 84.18c0 .731.053.779.52.82v.264h-2.194V85c.467-.041.523-.089.523-.82v-2.235c0-.731-.056-.779-.523-.819v-.265h2.194v.265c-.467.04-.52.088-.52.819v2.235z"/></g><g fill="#22284B"><path d="M91.388 93.438h-.582l-2.505-3.197h-.016v1.246c0 .711.028 1.083.054 1.293.034.238.217.325.664.347v.264h-1.685v-.264c.296-.015.472-.108.507-.347.026-.21.053-.582.053-1.293v-1.246c0-.501-.013-.59-.149-.779-.1-.142-.268-.188-.513-.209v-.265h1.497l2.253 2.811h.016v-.907c0-.712-.028-1.084-.056-1.293-.032-.237-.218-.325-.664-.346v-.265h1.726v.265c-.337.014-.513.109-.548.346-.026.209-.053.582-.053 1.293v2.546zM94.131 93.438c-.469-1.219-1.106-2.892-1.349-3.529-.223-.582-.357-.617-.683-.657v-.265h2.186v.265l-.229.027c-.25.027-.25.088-.176.326.12.378.656 1.713.907 2.376.209-.576.645-1.869.751-2.188.142-.414.101-.488-.202-.521l-.205-.021v-.265h1.642v.265c-.388.047-.482.082-.749.698a112.58 112.58 0 0 0-1.374 3.488h-.519zM97.186 91.995c.141.394.541 1.145 1.207 1.145.352 0 .621-.231.621-.671 0-.399-.264-.623-.677-.813l-.103-.048c-.554-.257-1.184-.608-1.184-1.333 0-.765.554-1.389 1.617-1.389.209 0 .426.027.624.082.154.04.264.066.352.095.026.264.073.595.149 1.055l-.299.048c-.149-.447-.385-.927-.92-.927a.577.577 0 0 0-.59.589c0 .338.265.535.697.731l.148.068c.627.284 1.159.63 1.159 1.421 0 .833-.669 1.442-1.718 1.442-.272 0-.551-.054-.732-.115a3.516 3.516 0 0 1-.425-.163c-.056-.311-.144-.677-.224-1.13l.298-.087z"/></g><g fill="#22284B"><path d="M88.376 100.434c0 .731.053.778.521.819v.264h-2.194v-.264c.466-.042.521-.088.521-.819v-2.235c0-.731-.056-.779-.521-.819v-.265h2.194v.265c-.469.04-.521.088-.521.819v2.235zM91.057 100.521c0 .352.013.521.135.582.11.054.265.061.475.061.217 0 .51-.019.65-.197.11-.127.223-.311.333-.669l.292.048c-.04.257-.183.961-.245 1.171H89.34v-.264c.513-.042.568-.088.568-.819v-2.235c0-.731-.056-.779-.508-.819v-.265h2.2v.265c-.488.04-.543.088-.543.819v2.322zM94.837 100.521c0 .352.013.521.133.582.108.054.264.061.475.061.218 0 .51-.019.65-.197.108-.127.224-.311.331-.669l.293.048c-.041.257-.185.961-.245 1.171h-3.359v-.264c.516-.042.568-.088.568-.819v-2.235c0-.731-.053-.779-.508-.819v-.265h2.202v.265c-.489.04-.541.088-.541.819v2.322zM98.073 101.564c-.469-1.219-1.104-2.892-1.348-3.529-.224-.582-.36-.616-.686-.656v-.265h2.188v.265l-.231.026c-.249.027-.249.088-.173.326.12.379.656 1.713.905 2.377.209-.576.645-1.869.753-2.188.144-.413.103-.488-.205-.521l-.201-.021v-.265h1.638v.265c-.387.047-.48.081-.746.698-.042.094-.867 2.106-1.374 3.487h-.52z"/></g><g fill="#22284B"><path d="M116.264 80.861v.265c-.516.048-.543.074-.521.786l.066 2.268c.022.751.037.772.523.82v.264h-2.118V85c.507-.048.526-.068.519-.82l-.019-2.384h-.028l-1.308 3.393h-.363l-1.238-3.156h-.015l-.048 1.503c-.019.583-.013.907.013 1.116.025.251.174.313.615.347v.264h-1.671V85c.325-.028.453-.095.494-.347.035-.209.075-.568.108-1.185l.073-1.367c.05-.853-.003-.927-.539-.975v-.265h1.591l1.185 2.682 1.037-2.682h1.644zM118.462 84.18c0 .731.054.779.521.82v.264h-2.194V85c.467-.041.523-.089.523-.82v-2.235c0-.731-.056-.779-.523-.819v-.265h2.194v.265c-.467.04-.521.088-.521.819v2.235zM123.501 85.311h-.582l-2.506-3.197h-.013v1.247c0 .71.026 1.083.056 1.292.034.238.215.326.664.347v.264h-1.688V85c.297-.015.475-.108.507-.347.028-.209.056-.582.056-1.292v-1.247c0-.5-.013-.589-.149-.779-.101-.142-.271-.189-.513-.209v-.265h1.494l2.257 2.811h.01v-.907c0-.711-.025-1.083-.051-1.293-.037-.237-.217-.325-.667-.345v-.265h1.73v.265c-.34.013-.517.108-.549.345-.025.21-.056.582-.056 1.293v2.546zM126.332 85l.204-.028c.253-.033.265-.101.177-.346l-.243-.69h-1.112l-.202.649c-.088.292-.088.36.221.394l.197.021v.264h-1.579V85c.349-.048.45-.076.674-.644l1.354-3.501.466-.095.463 1.28c.289.806.58 1.605.836 2.296.218.588.34.623.672.664v.264h-2.128V85zm-.857-1.47h.864l-.426-1.294h-.019l-.419 1.294z"/></g><g fill="#22284B"><path d="M116.211 92.307c0 .731.053.778.621.82v.264h-2.369v-.264c.539-.042.595-.089.595-.82V89.34h-.114c-.454 0-.637.082-.746.204-.079.101-.164.277-.249.656h-.286c.026-.569.069-1.036.081-1.381h.208c.104.155.173.168.354.168h2.701c.179 0 .211-.041.318-.168h.212c.006.284.04.86.073 1.36l-.299.021c-.1-.406-.174-.582-.275-.698-.117-.123-.341-.163-.667-.163h-.16v2.968zM119.756 92.307c0 .731.056.778.52.82v.264h-2.194v-.264c.469-.042.523-.089.523-.82v-2.235c0-.731-.054-.779-.523-.819v-.265h2.194v.265c-.464.04-.52.088-.52.819v2.235zM125.387 91.135c0 1.45-.989 2.356-2.288 2.356-1.368 0-2.254-.996-2.254-2.241 0-1.097.728-2.364 2.348-2.364 1.239 0 2.194.908 2.194 2.249zm-3.286-.116c0 1.227.461 2.121 1.125 2.121.584 0 .899-.563.899-1.789 0-1.361-.486-2.112-1.069-2.112-.52 0-.955.595-.955 1.78z"/></g><g fill="#22284B"><path d="M118.209 97.115v.265c-.516.047-.542.075-.521.786l.069 2.269c.019.751.032.772.519.819v.264h-2.118v-.264c.507-.047.529-.068.52-.819l-.019-2.385h-.028l-1.307 3.394h-.366l-1.238-3.156h-.016l-.047 1.504c-.021.582-.012.907.015 1.116.026.251.174.313.617.346v.264h-1.674v-.264c.325-.028.456-.095.495-.346.035-.209.075-.568.108-1.185l.073-1.368c.048-.853-.003-.928-.539-.975v-.265h1.591l1.185 2.682 1.036-2.682h1.645zM119.256 98.198c0-.731-.056-.779-.505-.819v-.265h3.208c.009.116.041.61.075 1.117l-.297.021c-.067-.332-.144-.521-.252-.629-.107-.116-.333-.156-.69-.156h-.116c-.255 0-.271 0-.271.236v1.307h.337c.583 0 .605-.04.675-.554h.294v1.597h-.294c-.07-.595-.092-.636-.675-.636h-.337v1.104c0 .352.016.521.136.582.108.054.264.061.475.061.271 0 .57-.041.718-.202.114-.123.231-.373.333-.699l.296.047a8.633 8.633 0 0 1-.237 1.206h-3.445v-.264c.519-.042.574-.088.574-.819v-2.235zM124.744 101.253l.202-.028c.249-.033.265-.101.177-.346l-.246-.69h-1.107l-.207.65c-.088.292-.088.359.224.393l.195.021v.264h-1.575v-.264c.343-.047.448-.075.669-.644l1.355-3.501.469-.095.457 1.28c.293.806.583 1.605.841 2.296.22.588.34.622.671.664v.264h-2.125v-.264zm-.862-1.47h.869l-.428-1.293h-.022l-.419 1.293z"/></g><path fill="#FFF" d="M100.613 156.002a1.77 1.77 0 0 1-1.77 1.77 1.77 1.77 0 1 1 1.77-1.77z"/><circle fill="#FFF" cx="116.803" cy="158.949" r="1.772"/><path fill="#FFF" d="M49.748 59.417zM124.169 27.408zM152.75 62.601zM166.523 120.203zM108.424 30.95a1.77 1.77 0 0 1-1.774 1.77c-.979 0-1.768-.792-1.768-1.77s.79-1.771 1.768-1.771c.981 0 1.774.792 1.774 1.771z"/><circle fill="#FFF" cx="148.802" cy="47.454" r="1.773"/><path fill="#FFF" d="M61.743 123.555c.681.98 1.024 2.027 1.022 3.113-.002 1.237-.416 2.241-2.631 3.774L53.741 135l-1.178-1.693 6.658-4.738c1.129-.78 1.611-1.352 1.613-2.247.001-.566-.207-1.185-.617-1.775-.641-.921-1.462-1.217-2.187-1.217-.658-.002-1.366.46-2.625 1.339l-6.014 4.078-1.155-1.661 5.723-3.878c1.592-1.117 2.861-1.885 4.039-1.884 1.72.002 2.975 1.121 3.745 2.231zM41.306 111.069l12.168-4.267.672 1.844-6.961 8.504 8.797-3.479.656 1.795-12.028 4.62-.672-1.843 6.996-8.516-8.973 3.14-.655-1.798zM39.485 101.381l12.737-1.89.301 2.04-12.735 1.888-.303-2.038zM39.108 86.025l.05-2.137 12.71 5.165-.09 2.121-13.052 3.892.014-2.14 10.583-2.967-10.215-3.934zM50.73 57.22c-1.819.003-2.661 1.044-3.822 3.144l-1.512 2.709 11.341 6.155.979-1.771-4.713-2.573.275-.509c.793-1.435 1.067-1.652 3.089-1.482l3.674.326 1.05-1.903-4.233-.361c-.851-.079-1.522-.142-2.065.016a2.176 2.176 0 0 0-.609.312c.049-.23.137-.454.139-.688a3.252 3.252 0 0 0-.158-1.049c-.247-.756-.786-1.369-1.602-1.821-.607-.335-1.216-.506-1.833-.505zm-2.289 3.902c.755-1.373 1.292-1.893 2.091-1.89.296 0 .669.074 1.044.281.482.268.852.712.989 1.191a1.9 1.9 0 0 1 .074.556c-.006.764-.432 1.533-.878 2.337l-.264.478-3.628-1.949.572-1.004zM64.822 39.024l1.639-1.25 7.813 10.233-1.638 1.25-7.814-10.233zM71.892 34.004l8.33-4.336.812 1.563-3.241 1.687 5.133 9.86-1.828.951-5.134-9.858-3.259 1.697-.813-1.564zM92.669 25.752l2.172-.606-1.748 8.613 1.414 4.891-1.963.567-1.383-4.853-6.114-6.38 2.117-.613 4.399 4.583 1.106-6.202zM131.957 43.354l6.538-11.093 6.152 3.624-.895 1.519-4.394-2.589-1.806 3.069 4.133 2.436-.873 1.485-4.135-2.436-2.958 5.023-1.762-1.038zM165.038 72.036l4.688-5.61.731 2.221-3.489 3.994 5.184 1.165.687 2.093-7.094-1.718-5.038 6.04-.718-2.184 3.803-4.433-5.685-1.296-.694-2.112 7.625 1.84zM161.358 84.687l12.835-1.047.582 7.118-1.758.144-.413-5.082-3.551.29.39 4.783-1.717.139-.391-4.783-5.81.474-.167-2.036zM167.033 96.166c-1.488 0-2.856.401-3.938 1.188-1.941 1.408-2.295 3.431-2.295 4.614 0 4.353 4.088 6.093 7.162 6.093 1.475.003 2.826-.399 3.889-1.17 2.171-1.57 2.287-3.931 2.287-4.691 0-3.798-3.49-6.034-7.105-6.034zm1.015 9.811c-2.509 0-5.438-1.367-5.438-3.895 0-.916.316-2.146 1.45-2.968.765-.555 1.758-.851 2.87-.851 1.279 0 3.582.359 4.79 2.026.417.574.628 1.24.624 1.952 0 .986-.401 2.158-1.458 2.923-.747.543-1.733.813-2.838.813zM159.561 53.306c-1.301 0-2.687.413-4.024 1.26-2.473 1.57-3.375 3.818-3.375 5.458 0 1.062.292 2.104.901 3.062 1.37 2.167 3.432 2.696 4.825 2.69 1.327-.007 2.73-.447 4.052-1.287 1.592-1.01 3.366-2.887 3.366-5.427 0-1.056-.3-2.093-.911-3.056-1.126-1.777-2.893-2.7-4.834-2.7zm-2.005 10.49c-1.154 0-2.199-.485-2.918-1.621a3.427 3.427 0 0 1-.549-1.833c-.007-1.456.917-2.95 2.604-4.022 1.119-.708 2.215-1.057 3.196-1.053 1.242 0 2.253.546 2.925 1.61a3.62 3.62 0 0 1 .582 1.96c0 1.422-.902 2.815-2.533 3.85-1.142.724-2.295 1.109-3.307 1.109zM124.433 26.787c-2.682 0-5.02 1.806-5.962 5.017-.208.712-.34 1.419-.34 2.103 0 1.286.215 2.304.743 3.266 1.189 2.179 3.371 2.922 5.026 2.922.938 0 1.838-.214 2.667-.666 2.171-1.188 3.606-3.945 3.606-6.583 0-1.145-.223-2.225-.732-3.149-1.045-1.9-2.979-2.91-5.008-2.91zm-.661 11.484a3.498 3.498 0 0 1-3.034-1.831c-.363-.666-.526-1.474-.526-2.31 0-2.305 1.538-5.541 4.343-5.541 1.575 0 3.555 1.173 3.555 4.084.001 1.857-1.308 5.598-4.338 5.598zM53.117 73.482l1.73.489-1.953 7.07-12.46-3.415 2.128-7.155 1.694.479-1.563 5.155 3.437.943 1.324-4.683 1.657.471-1.32 4.667 3.886 1.067 1.44-5.088zM56.385 46.582c1.789-2.004 3.618-1.867 3.618-1.867l.313 1.699s-1.411.045-2.515 1.282c-.48.539-.722 1.102-.722 1.608 0 .418.162.782.489 1.074.893.794 2.417-.089 3.371-.472.734-.304 1.776-.728 2.818-.728.778 0 1.582.221 2.316.877.857.766 1.287 1.727 1.287 2.736 0 1.093-.425 2.066-1.28 3.023-1.643 1.839-3.851 2.04-3.851 2.04l-.439-1.722c1.303-.301 2.287-.801 2.884-1.472.47-.525.701-1.114.701-1.632 0-.486-.203-.938-.602-1.294-.321-.286-.713-.39-1.139-.381-.829 0-1.818.474-2.637.813-1.563.646-3.214 1.167-4.69-.152-.752-.671-1.151-1.516-1.151-2.453 0-.99.392-2.042 1.229-2.979zM157.938 112.829l4.868 2.201-.242.548c-.664 1.499-.916 1.742-2.946 1.751l-3.687.003-.876 1.986 4.247-.014c.861.002 1.529.002 2.055-.2.168-.064.362-.173.543-.316-.013.108-.05.217-.05.326-.006.474.081.942.262 1.353.58 1.36 2.164 2.027 3.325 2.024 2.049-.003 2.834-1.228 3.829-3.483.035-.084 1.195-2.759 1.195-2.759l-11.706-5.273-.817 1.853zm7.601 7.634c-.579.001-1.564-.334-1.938-1.292a1.998 1.998 0 0 1-.13-.741c.006-.706.341-1.438.686-2.208l.218-.496 3.712 1.668-.412.993c-.693 1.573-1.143 2.073-2.136 2.076zM151.157 125.008c-1.334 1.672-2.348 3.166-2.348 5.097 0 1.638.744 3.504 2.628 5.006 1.248.996 2.66 1.537 4.115 1.537 1.792 0 3.227-.537 5.459-3.334l2.033-2.558-10.063-8.033-1.824 2.285zm4.588 9.693c-1.021 0-1.982-.394-2.982-1.191-1.012-.809-2.087-2.07-2.087-3.68 0-1.116.606-2.185 1.541-3.354l.853-1.066 7.354 5.868-.564.703c-1.365 1.71-2.297 2.72-4.115 2.72z"/><path fill="#FFF" d="M180.5 92.455c0-40.606-33.092-73.643-73.762-73.643S32.979 51.849 32.979 92.455c0 24.362 12.03 47.068 32.185 60.828 1.983 7.381 8.735 12.839 16.763 12.839 2.169 0 4.274-.41 6.274-1.184 2.7.891 5.487 1.629 8.269 2.202-.784 2.236-1.926 4.356-3.016 6.19l.06-.014c-.019.015-.042.023-.063.038l1.538 1.538c.39-.217.835-.349 1.313-.349a2.757 2.757 0 0 1 2.754 2.754 2.758 2.758 0 0 1-2.754 2.754c-1.326 0-2.49-.85-3.1-1.758 0 0-.357 1.238-.357 2.871-.012 5.291 5.763 11.334 13.771 13.881 8.002-2.49 13.775-8.578 13.774-13.872 0-1.822-.36-2.88-.36-2.88-.615.74-1.611 1.758-3.116 1.758a2.76 2.76 0 0 1-2.754-2.754 2.758 2.758 0 0 1 2.754-2.754 2.73 2.73 0 0 1 1.449.422l1.488-1.491.057.015c-.844-2.017-1.458-3.87-1.876-5.649 13.263-1.786 24.451-7.399 33.347-16.754l-.004-.009c18.506-14.065 29.125-35.404 29.125-58.622zM81.926 164.05c-8.375 0-15.188-6.83-15.188-15.229 0-2.631.669-5.107 1.845-7.269.782.709 1.618 1.446 2.485 2.188a11.987 11.987 0 0 0-1.162 5.133c0 4.567 2.304 8.341 6.664 10.913 2.503 1.477 5.337 2.81 8.337 3.97-.974.195-1.969.294-2.981.294zm24.812-22.158c-3.16 0-6.271-.304-9.321-.887-2.944-5.771-8.977-9.484-15.491-9.484-1.602 0-3.144.233-4.618.641-12.523-9.307-19.993-24.105-19.993-39.707 0-27.259 22.171-49.436 49.422-49.436 27.252 0 49.425 22.177 49.425 49.436.001 27.259-22.172 49.437-49.424 49.437zm10.999.88c-1.482 2.115-2.364 5.056-2.629 8.03-4.677-1.204-8.922-2.824-12.624-4.513.705-1.362 2.719-2.328 4.254-2.328 3.775 0 7.45-.416 10.999-1.189zm-15.668.973a5.547 5.547 0 0 0-1.494 1.644c-1.866-.905-4.211-2.074-5.745-2.933 2.171.48 5.007 1.089 7.239 1.289zm-20.143-10.154c5.087 0 9.85 2.609 12.64 6.79a49.05 49.05 0 0 1-7.185-2.426l-.01.015-.076-.044a12.136 12.136 0 0 0-5.212-1.163c-4.055 0-7.642 1.989-9.856 5.029a64.998 64.998 0 0 1-2.78-1.629c2.743-3.964 7.311-6.572 12.479-6.572zm34.987 38.829c-2.719 0-4.95 1.925-4.95 4.878 0 2.891 2.262 4.878 4.95 4.878.409 0 .8-.07 1.179-.167-.568 4.09-5.332 8.668-11.477 10.726-6.095-2.042-10.857-6.653-11.487-10.723.376.097.766.164 1.173.164 2.931 0 4.95-2.054 4.95-4.878 0-2.693-2.118-4.808-4.844-4.867.832-1.522 1.632-3.14 2.219-4.875 3.381.587 6.712.909 9.81.909 2.54 0 5.007-.138 7.415-.382.319 1.396.794 2.854 1.351 4.36-.098-.003-.191-.023-.289-.023zm-8.477-6.026c-9.891 0-22.233-3.36-30.715-8.364-2.57-1.516-5.633-4.336-5.633-9.155 0-1.301.255-2.543.706-3.686 3.166 2.618 6.439 5.071 8.489 6.195.473.259.747.385 1.295.385a2.388 2.388 0 0 0 2.385-2.395c0-1.011-.548-1.831-1.453-2.227-1.753-.768-5.425-2.284-9.378-4.333 1.828-2.413 4.708-3.98 7.951-3.98a9.87 9.87 0 0 1 4.242.946l2.71 1.579c8.619 5.265 30.792 18.765 57.565 11.347-10.161 9.17-22.678 13.688-38.164 13.688zM149.96 149.5c-11.983 4.237-23.167 3.947-32.708 1.817.312-4.263 2.074-8.815 4.772-9.662 21.013-6.518 36.317-26.108 36.317-49.201 0-28.401-23.15-51.506-51.604-51.506S55.134 64.054 55.134 92.455c0 15.8 7.38 30.809 19.803 40.541a17.471 17.471 0 0 0-7.286 6.003 37.973 37.973 0 0 1-2.69-1.996l-.47.47c.563.68 1.433 1.575 2.481 2.578a17.117 17.117 0 0 0-2.416 8.771c0 .498.034.99.075 1.477-18.486-13.474-29.471-34.891-29.471-57.844 0-39.465 32.111-71.572 71.578-71.572 39.468 0 71.579 32.107 71.579 71.572 0 22.606-10.336 43.375-28.357 57.045z"/></svg>