<svg xmlns="http://www.w3.org/2000/svg" width="770.1" height="283.5" viewBox="0 0 770.1 283.5"><path fill="#74CBC8" d="M376 149.7c-6.9-4.9-14.2-7.7-21.4-7.7-8.6 0-14.2 4.1-14.2 10.9 0 3.8 2.1 7.3 6.1 10.4 1.6 1.1 3.4 2.1 9.4 5.1 16.8 8.9 23.6 17.4 23.6 30.5 0 17.7-15.5 30.5-37.3 30.5-8.1 0-16.8-1.9-25.7-5.6V201c9.4 6.2 17.1 9.3 23.9 9.3 8.5 0 14.7-4.8 14.7-11.3 0-5.6-2.9-8.5-15.8-15.2-7.3-3.8-9.6-5.3-12.8-8.1-7.2-6.2-10.4-13.1-10.4-21.7 0-18.5 14.7-31.3 35.9-31.3 8 0 13.6 1.3 23.9 5.6v21.4m72.6 0c-6.9-4.9-14.2-7.7-21.4-7.7-8.6 0-14.2 4.1-14.2 10.9 0 3.8 2.1 7.3 6.1 10.4 1.6 1.1 3.4 2.1 9.4 5.1 16.8 8.9 23.6 17.4 23.6 30.5 0 17.7-15.5 30.5-37.3 30.5-8.1 0-16.8-1.9-25.7-5.6V201c9.4 6.2 17.1 9.3 23.9 9.3 8.5 0 14.7-4.8 14.7-11.3 0-5.6-2.9-8.5-15.8-15.2-7.3-3.8-9.6-5.3-12.8-8.1-7.2-6.2-10.4-13.1-10.4-21.7 0-18.5 14.7-31.3 35.9-31.3 8 0 13.6 1.3 23.9 5.6v21.4m39-25.7l54.3 65v-65h23.5v104.1H544l-54.7-65.6v65.6h-23.5V124h21.6M681 228.1h-25.2l-8.8-21.2h-45.2l-8 21.2h-23.5l40-104.1h26.5L681 228.1m-58.1-79.3l-15.2 41.8h32.6l-17.4-41.8zM736.1 124c8.8 0 16.9 2.7 22.2 6.9 7.2 5.9 11.7 15.8 11.7 25.2 0 17.7-14 30.2-34.2 30.2h-16.3v41.8h-23.6V124h40.2m-6.6 43.8c10.1 0 15.5-4.5 15.5-12.8s-5.3-12.6-15.5-12.6h-10.1v25.4h10.1z"/><linearGradient id="a" gradientUnits="userSpaceOnUse" x1="218.236" y1="283.432" x2="218.236" y2="46.322" gradientTransform="matrix(1 0 0 -1 0 283.563)"><stop offset="0" stop-color="#9bd5bd"/><stop offset="1" stop-color="#74cbc8"/></linearGradient><path fill="url(#a)" d="M151.5 235.6c-.2-6.5 0-13.1.2-19.8.3-6.5.6-13.1 1.3-19.8 1.3-13.1 3.2-26.2 7-38.9 1.9-6.4 4.3-12.8 7.8-18.5 3.7-5.6 7.3-11 11.8-16.1 2.2-2.6 4.6-4.9 7.3-7 2.7-2.1 5.7-3.8 9.1-5.1 3.4-1.3 6.7-1.9 10.1-2.4 3.4-.5 6.7-.8 9.9-1 6.5-.5 12.8-1.4 19-3.4 3-.8 6.1-1.9 9.3-3.2 1.6-.6 3.2-1.1 4.8-1.6.8-.3 1.8-.5 2.6-.6l2.4-.5c3.2-.6 6.5-1.3 9.9-1.8 3.4-.3 6.9-.6 10.4 0 1.8.3 3.5 1 5.3 1.9 1.6 1 3 2.4 4 4.1.5.8.8 1.8 1.1 2.6.3 1 .5 1.8.5 2.9.2 1.9-.3 4-1.3 5.6-1.8 3.4-4.6 5.6-7.5 7.3-2.9 1.8-5.9 3.4-8.9 4.6-6.2 2.6-12.4 4.6-18.7 6.5l-9.4 2.9c-3.2 1-6.4 1.8-9.6 2.7-3.2 1-6.4 1.8-9.3 3.2-3 1.4-5.6 3.4-8.1 5.4 2.4-2.2 4.9-4.5 7.8-6.1 2.9-1.6 6.1-2.6 9.3-3.7 3.2-1 6.2-2.1 9.4-3l9.3-3.4c6.2-2.2 12.4-4.3 18.2-7 2.9-1.4 5.7-2.9 8.5-4.6 2.6-1.8 4.9-3.8 6.2-6.4.6-1.3 1-2.6.8-3.8 0-.6-.2-1.3-.5-2.1-.2-.6-.5-1.3-.8-1.9-1.4-2.4-4-3.7-6.9-4.1-2.9-.5-6.1-.3-9.3.2-3.2.5-6.4 1.1-9.6 1.8l-2.4.5c-.8.2-1.4.3-2.2.5-1.4.5-3 1-4.5 1.6-3 1.1-6.2 2.4-9.4 3.4-6.5 1.9-13.1 3-19.8 3.5-6.5.6-13.1 1-18.8 3-5.7 2.1-10.7 6.2-15 11-4.3 4.8-8.1 10.1-11.7 15.5-3.4 5.4-5.7 11.3-7.8 17.6-4 12.4-6.4 25.4-8.1 38.3-2.1 13-3.1 26.1-3.7 39.2"/><linearGradient id="b" gradientUnits="userSpaceOnUse" x1="250.079" y1="283.432" x2="250.079" y2="46.322" gradientTransform="matrix(1 0 0 -1 0 283.563)"><stop offset="0" stop-color="#9bd5bd"/><stop offset="1" stop-color="#74cbc8"/></linearGradient><path fill="url(#b)" d="M201.9 234.9c-1.8-5.3-3-10.5-4-16-1-5.4-1.4-11-1-16.6.3-2.9 1-5.6 2.6-8.3 1.4-2.6 4.1-4.8 7.2-5.6 5.4-1.4 10.9-2.2 16.4-3 5.4-.8 10.9-1.4 16.3-2.2 5.3-1 10.5-2.1 15.2-4.5 1.1-.6 2.2-1.3 3.2-2.1s2.1-1.8 3-2.6c2.1-1.8 4-3.7 6.1-5.4 4-3.7 7.8-7.7 11.5-11.7 3.7-4 7.3-8 10.7-12.3 3.4-4.1 6.5-8.6 8.8-13.2.5-1.1 1-2.4 1.1-3.5 0-.3.2-.5.2-.8v-2.9l-.3-8.1c-.2-5.4-.5-11-.8-16.4-.3-5.4-1-10.9-1.8-16.3-.5-2.7-1-5.3-1.8-7.8-.5-1.3-1-2.4-1.6-3.4-.3-.5-.6-.6-1-.8h-1.8c-2.6.2-5.1 1-7 2.7-1.9 1.8-3 4.1-3.8 6.7s-1.3 5.3-1.6 8l-1.3 8.1c.6-5.4.6-11 1.9-16.4.6-2.7 1.8-5.4 3.8-7.7 2.1-2.1 5.1-3.2 7.8-3.5.3 0 .6-.2 1.1-.2.3 0 .6-.2 1.3 0 1.1.2 1.9.8 2.4 1.4 1.1 1.3 1.6 2.6 2.2 4 1 2.7 1.6 5.4 2.2 8.1 1.1 5.4 1.8 11 2.4 16.4.5 5.4 1 11 1.3 16.4l.3 8.3.2 2.1v1.3c0 .5 0 .8-.2 1.3-.3 1.6-.8 3-1.3 4.3-1.1 2.7-2.7 5.1-4.1 7.5-1.6 2.4-3.2 4.6-4.9 6.9-3.5 4.3-7.2 8.6-10.9 12.6-3.8 4-7.7 8-11.8 11.7-2.1 1.9-4.1 3.8-6.2 5.6-1.1 1-2.1 1.8-3.4 2.7-1.3 1-2.6 1.6-3.8 2.4-5.3 2.6-10.9 3.7-16.4 4.6-5.6.8-11 1.3-16.4 1.9-5.4.6-10.9 1.3-16.1 2.4-2.4.5-4.3 1.9-5.7 4.1-1.3 2.1-2.1 4.6-2.6 7.3-.8 5.3-.6 10.9 0 16.3.3 2.7.8 5.4 1.3 8.1-.2 2.9.3 5.4 1.1 8.1"/><linearGradient id="c" gradientUnits="userSpaceOnUse" x1="273.954" y1="283.432" x2="273.954" y2="46.322" gradientTransform="matrix(1 0 0 -1 0 283.563)"><stop offset="0" stop-color="#9bd5bd"/><stop offset="1" stop-color="#74cbc8"/></linearGradient><path fill="url(#c)" d="M248.3 170.6c1.1.5 2.4.2 3.5-.2 1.1-.5 2.1-1 3-1.6 1.9-1.3 3.7-3 5.3-4.6 1.6-1.8 3.2-3.5 4.6-5.4 1.4-1.9 3-3.7 4.6-5.4 3.2-3.7 6.5-7 9.7-10.5 3.4-3.5 6.5-6.9 9.6-10.5 6.4-7 8.3-16.4 8.6-25.9.2-4.8.2-9.4-.2-14.2-.2-4.8-.8-9.6-1.3-14.4 2.1 9.3 3.7 18.8 3.7 28.6 0 4.8-.5 9.7-1.8 14.5-.3 1.1-.8 2.4-1.1 3.5-.5 1.1-1 2.4-1.6 3.5-1.3 2.2-2.7 4.1-4.3 6.1-6.2 7.5-13.4 13.9-20 20.7-1.6 1.8-3.4 3.5-4.9 5.3-1.6 1.8-3.2 3.5-5.1 5.3-1.8 1.6-3.7 3.2-5.9 4.3-1.1.6-2.2 1.1-3.4 1.4-.6 0-1.8.2-3-.5"/><linearGradient id="d" gradientUnits="userSpaceOnUse" x1="84.546" y1="283.432" x2="84.546" y2="46.322" gradientTransform="matrix(1 0 0 -1 0 283.563)"><stop offset="0" stop-color="#9bd5bd"/><stop offset="1" stop-color="#74cbc8"/></linearGradient><path fill="url(#d)" d="M151.3 235.6c-.6-13.1-1.8-26.2-3.5-39.3-1.8-12.9-4.1-25.9-8.1-38.3-2.1-6.2-4.5-12.1-7.8-17.6-3.5-5.4-7.3-10.7-11.7-15.5-4.3-4.8-9.1-8.9-15-11-5.7-2.1-12.3-2.4-18.8-3s-13.2-1.6-19.8-3.5c-3.2-1-6.4-2.1-9.4-3.4-1.6-.6-3-1.1-4.5-1.6-.8-.2-1.4-.3-2.2-.5l-2.4-.5c-3.2-.6-6.4-1.4-9.6-1.8-3.2-.5-6.4-.6-9.3-.2-2.9.5-5.6 1.8-6.9 4.1-.3.6-.6 1.3-.8 1.9-.2.6-.3 1.4-.5 2.1-.2 1.3.2 2.7.8 3.8 1.3 2.6 3.7 4.6 6.2 6.4 2.6 1.8 5.4 3.2 8.5 4.6 5.9 2.7 12.1 4.9 18.2 7L64 133c3 1.1 6.2 2.1 9.4 3 3.2 1.1 6.2 2.1 9.3 3.7 2.9 1.6 5.4 3.7 7.8 6.1-2.6-2.1-5.1-4.1-8.1-5.4-2.9-1.4-6.1-2.2-9.3-3.2-3.2-.8-6.4-1.8-9.6-2.7l-9.4-2.9c-6.2-1.9-12.6-4-18.7-6.5-3-1.3-6.1-2.7-8.9-4.6-2.9-1.9-5.7-4-7.5-7.3-1-1.6-1.4-3.7-1.3-5.6 0-1 .3-1.9.5-2.9.3-1 .6-1.8 1.1-2.6 1-1.8 2.4-3.2 4-4.1 1.6-1 3.5-1.6 5.3-1.9 3.5-.6 7-.5 10.4 0 3.4.3 6.7 1.1 9.9 1.8l2.4.5c.8.2 1.8.3 2.6.6 1.8.5 3.2 1.1 4.8 1.6 3 1.1 6.1 2.2 9.3 3.2 6.2 1.8 12.6 2.7 19 3.4 3.2.3 6.5.6 9.9 1 3.4.5 6.7 1.1 10.1 2.4 3.4 1.3 6.4 3 9.1 5.1 2.7 2.1 5.1 4.5 7.3 7 4.5 5.1 8.1 10.5 11.8 16.1 3.5 5.9 5.9 12.1 7.8 18.5 3.8 12.8 5.7 25.9 7 38.9.6 6.5 1 13.1 1.3 19.8.2 6.3.2 13 0 19.6"/><linearGradient id="e" gradientUnits="userSpaceOnUse" x1="53.196" y1="283.432" x2="53.196" y2="46.322" gradientTransform="matrix(1 0 0 -1 0 283.563)"><stop offset="0" stop-color="#9bd5bd"/><stop offset="1" stop-color="#74cbc8"/></linearGradient><path fill="url(#e)" d="M100.9 234.9c.6-2.7 1.3-5.4 1.8-8 .5-2.7 1-5.4 1.3-8.1.6-5.4.8-10.9 0-16.3-.5-2.6-1.1-5.3-2.6-7.3-1.3-2.1-3.4-3.7-5.7-4.1-5.3-1.1-10.7-1.9-16.1-2.4-5.4-.6-11-1.1-16.4-1.9-5.4-1-11-2.1-16.4-4.6-1.3-.6-2.6-1.4-3.8-2.4-1.1-1-2.2-1.8-3.4-2.7-2.1-1.8-4.1-3.7-6.2-5.6-4-3.8-8-7.7-11.8-11.7s-7.5-8.1-10.9-12.6c-1.8-2.2-3.4-4.5-4.9-6.9-1.6-2.4-3-4.8-4.1-7.5-.6-1.4-1.1-2.7-1.4-4.3.2-.2 0-.6 0-1v-1.3l.2-2.1.3-8.3c.3-5.6.6-11 1.3-16.4.3-5.4.9-11 2-16.4.5-2.7 1.1-5.4 2.2-8.1.5-1.3 1.1-2.7 2.2-4 .5-.6 1.3-1.3 2.4-1.4h1.3c.3 0 .8.2 1.1.2 2.9.5 5.7 1.4 7.8 3.5s3.2 4.9 3.8 7.7c1.3 5.4 1.3 11 1.9 16.4l-1.4-8.1c-.5-2.7-.8-5.4-1.6-8-.8-2.6-1.9-5.1-3.8-6.7-1.9-1.8-4.5-2.4-7-2.7h-1.8c-.3 0-.6.3-1 .8-.6.8-1.3 2.1-1.6 3.4-.6 2.4-1.1 4.9-1.6 7.6-.8 5.4-1.4 10.9-1.8 16.3-.6 5.3-1 10.7-1.1 16.1l-.1 8.3v2.9c0 .3 0 .5.2.8.2 1.1.6 2.2 1.1 3.5 2.2 4.6 5.4 9.1 8.8 13.2 3.4 4.3 7 8.3 10.7 12.3s7.5 7.8 11.5 11.7c1.9 1.9 4 3.7 6.1 5.4 1 .8 2.1 1.8 3 2.6 1 .8 2.1 1.4 3.2 2.1 4.6 2.4 9.9 3.5 15.2 4.5 5.3 1 10.9 1.6 16.3 2.2 5.4.8 11 1.6 16.4 3 3 .8 5.7 2.9 7.2 5.6 1.4 2.6 2.2 5.4 2.6 8.3.6 5.6 0 11.2-1 16.6-1.2 5.4-2.7 10.7-4.4 15.9"/><linearGradient id="f" gradientUnits="userSpaceOnUse" x1="28.728" y1="283.432" x2="28.728" y2="46.322" gradientTransform="matrix(1 0 0 -1 0 283.563)"><stop offset="0" stop-color="#9bd5bd"/><stop offset="1" stop-color="#74cbc8"/></linearGradient><path fill="url(#f)" d="M54.4 170.6c-1.1.6-2.4.5-3.5.2s-2.2-.8-3.4-1.4c-2.1-1.3-4-2.7-5.7-4.3-1.8-1.6-3.5-3.4-5.1-5.3-1.6-1.8-3.2-3.5-4.9-5.3-6.5-6.9-13.7-13.2-20-20.7-1.6-1.9-3-3.8-4.3-6.1-.6-1.1-1.1-2.2-1.6-3.5-.5-1.1-.8-2.4-1.1-3.5C3.5 115.9 3 111 3 106.2c0-9.7 1.6-19.3 3.7-28.6-.5 4.8-1 9.6-1.3 14.4-.3 4.8-.5 9.6-.2 14.2.5 9.4 2.2 18.8 8.6 25.9 3 3.7 6.2 7 9.6 10.5s6.5 6.9 9.7 10.5c1.6 1.8 3.2 3.7 4.6 5.4 1.4 1.9 3 3.7 4.6 5.4 1.6 1.8 3.4 3.4 5.3 4.6 1 .6 1.9 1.3 3 1.6 1.4.7 2.7 1 3.8.5"/><linearGradient id="g" gradientUnits="userSpaceOnUse" x1="74.03" y1="283.432" x2="74.03" y2="46.322" gradientTransform="matrix(1 0 0 -1 0 283.563)"><stop offset="0" stop-color="#9bd5bd"/><stop offset="1" stop-color="#74cbc8"/></linearGradient><path fill="url(#g)" d="M44.5 93.1c1.6-4.3 3.8-8.5 6.7-12.1 1.4-1.8 3.2-3.5 5.1-4.9.5-.3 1-.6 1.6-1 .5-.3 1-.5 1.4-.8 1-.6 1.8-1.1 2.6-1.9.6-.8 1.1-1.6 1.3-2.4.2-.8-.2-1.8-.6-2.7-.5-1-1.1-1.8-1.8-2.7-.2-.3-.3-.5-.5-.8l-.5-1c-.3-.6-.5-1.1-.6-1.8-1.4-4.8-1.6-9.4-2.1-13.9-.3-2.2-.6-4.5-1.1-6.5-.5-1.9-1.6-4-2.6-6.1-1-2.1-1.9-4.3-2.4-7-.2-1.3-.2-2.9.3-4.3s1.6-2.9 2.7-3.7c.6-.5 1.1-.8 1.8-1.1l1-.5.8-.3c1.1-.5 2.2-.8 3.4-1.3 2.2-.8 4.5-1.4 6.7-2.1 4.5-1.1 9.1-2.2 14-2.4 1.3 0 2.6 0 3.8.2 1.3.2 2.7.5 4 1.4 2.2 1.4 4.1 3.2 5.6 5.6.6 1.1 1.3 2.6 1.4 4.1 0 .8-.2 1.8-.5 2.7-.5 1-1.3 1.6-1.9 2.1-.2.2-.3.2-.6.3l-.5.2-.8.3-1.6.6c-1.1.3-2.1.8-2.9 1.3s-1.6 1-1.8 1.4c-.2.2-.2.3-.2.6s.2.6.3 1c.8 1.4 2.6 3.2 4.1 4.8 3.2 3.5 6.1 7.3 8.1 11.7 2.1 4.3 3.7 8.8 4.3 13.6.8 4.6 1 9.4.5 14-.3 4.6-1.1 9.3-2.2 13.7-.6 2.2-1.1 4.5-1.9 6.7s-1.4 4.3-2.4 6.5c2.4-8.8 4.3-17.9 4.5-27 .2-9.1-1.4-18.2-5.7-25.9-2.1-3.8-4.9-7.3-8-10.5L85.1 39c-.8-.8-1.8-1.8-2.4-3-.3-.6-.6-1.4-.8-2.2-.2-1 0-1.9.5-2.7.8-1.8 2.2-2.6 3.4-3.2 1.1-.6 2.2-1.1 3.4-1.4l1.6-.6.8-.3.3-.2s.2 0 .2-.2c.3-.3.5-.3.5-1.1 0-.6-.3-1.4-.8-2.2-1-1.6-2.6-3-4.1-4.1-1.3-.8-3.4-1-5.6-1-4.3.2-8.8 1-13.1 2.1-2.2.6-4.3 1.3-6.5 1.9-1.1.3-2.1.8-3.2 1.1l-1 .1c-.2.2-.5.2-.6.3-.5.2-.8.5-1.1.6-1.3 1-1.8 2.2-1.6 4.3.3 1.9 1.1 4 1.9 6.1l1.3 3.2c.5 1.1 1 2.2 1.3 3.5.6 2.4.8 4.8 1.1 7 .5 4.6.5 9.3 1.6 13.4l.5 1.4c.2.3.2.5.3.6 0 .2.3.5.3.6.6 1 1.3 2.1 1.8 3.2s.8 2.6.6 4c-.2 1.4-1.1 2.7-2.1 3.7s-2.1 1.6-3 2.2c-.5.3-1.1.5-1.6.8-.5.2-1 .5-1.4.6-1.9 1.1-3.7 2.6-5.1 4.1-1.4 1.6-2.9 3.5-4.1 5.3-1.6 2-2.9 4.1-3.9 6.2"/><linearGradient id="h" gradientUnits="userSpaceOnUse" x1="107.843" y1="283.432" x2="107.843" y2="46.322" gradientTransform="matrix(1 0 0 -1 0 283.563)"><stop offset="0" stop-color="#9bd5bd"/><stop offset="1" stop-color="#74cbc8"/></linearGradient><path fill="url(#h)" d="M87.9 9.4c.2-2.4.7-4.8 2.1-6.8.6-1 1.8-1.9 3.2-2.4 1.3-.3 2.7-.2 4 .2s2.4 1.1 3.4 1.6c1 .6 2.1 1.1 3 1.8 2.1 1.1 4.1 2.1 6.2 3 2.1 1 4.3 1.6 6.4 2.1 1.1.3 2.2.5 3.4.6l1 .2c.5 0 .8.2 1.1.3.8.2 1.4.5 2.1 1 1.3.8 2.4 1.9 3.2 3.4.8 1.4 1.1 3.2.6 4.9-.5 1.8-1.6 3-2.9 4-.6.5-1.3.8-1.9 1.1-.3.2-.6.3-1 .3l-1 .3c-2.4.8-4.8 1.1-6.9 1.8-1 .3-1.8.8-2.1 1.1-.3.3-.5 1-.3 1.9.2 1 .5 1.9.8 2.9.3 1.1.8 1.9 1.3 3 1 2.1 2.2 4 3.5 6.1 1.1 2.1 2.4 4.3 3.2 6.7.8 2.4 1.3 4.8 1.4 7.3.3 4.9-.8 9.7-2.4 14.2.6-4.6 1.1-9.4.2-13.9-.8-4.5-2.9-8.5-5.4-12.3-1.3-1.9-2.7-3.8-3.8-6.1-.6-1.1-1.3-2.2-1.6-3.4-.5-1.1-.8-2.4-1.1-3.8-.2-.8-.2-1.4 0-2.4.2-.8.5-1.8 1.1-2.6 1.3-1.4 2.7-2.1 4-2.6 2.6-.8 4.8-1.1 6.9-1.8 1.1-.3 2.1-.6 2.7-1.1.6-.5 1.1-1 1.3-1.6.3-1.1-.5-2.9-1.9-3.8-.3-.2-.8-.5-1.1-.6-.2 0-.5-.2-.6-.2l-.8-.2c-1.3-.2-2.4-.5-3.7-.8-2.4-.6-4.6-1.6-6.9-2.7-2.2-1.1-4.3-2.2-6.2-3.7-1-.6-1.9-1.3-3-2.1-1-.6-1.8-1.3-2.9-1.8-1-.5-1.9-.6-2.9-.5-1 .2-1.9.8-2.7 1.6-1.5 1.4-2.5 3.6-3 5.8"/><linearGradient id="i" gradientUnits="userSpaceOnUse" x1="159.68" y1="283.432" x2="159.68" y2="46.322" gradientTransform="matrix(1 0 0 -1 0 283.563)"><stop offset="0" stop-color="#9bd5bd"/><stop offset="1" stop-color="#74cbc8"/></linearGradient><path fill="url(#i)" d="M155.9 144.8c-3.8-2.2-7.3-4.8-10.9-7.5-3.4-2.9-6.7-5.7-9.4-9.3-.6-1-1.3-1.8-1.9-2.9-.6-1.1-1-2.2-1.3-3.4-.6-2.2-1-4.5-1.3-6.5-.6-4.5-1-8.8-1.3-13.1-.3-4.3-.5-8.8-.8-13.1 0-1.1-.2-2.1-.3-3.2 0-.5-.2-1-.2-1.4l-.3-1.6c-.5-2.4-.5-4.6-.5-7 .2-4.6 1.1-9.1 2.7-13.4.2-.5.5-1.1.6-1.6.2-.5.5-1.1.8-1.6.5-1.1 1.1-2.1 2.1-3.2.8-1 1.8-1.9 3.4-2.7.8-.3 1.9-.5 3-.2 1.3.5 2.1 1.6 2.4 2.4.3 1 .3 1.8.3 2.4v.5c0-.2-.2-.3-.6-.8-.5-.3-1.1-.3-1.3-.2-.2 0-.2.2-.2 0l.3-.3 1-1c.3-.3 1-1 1.8-1.4.3-.2.8-.5 1.4-.6.6-.2 1.3-.2 1.9.2 1.3.5 1.9 1.6 2.2 2.2.3.8.5 1.6.5 2.2V61s0 .2 0 0c0 0 0-.3-.5-.6-.2-.2-.5-.3-.8-.3h-.6c.2 0 .3-.2.5-.3.5-.3 1-.6 1.6-1 1.1-.6 2.7-1.3 4.5-1 1 .2 1.9.6 2.6 1.4.6.8 1 1.8 1.1 2.6.2 1.6-.2 3-.5 4.1-.3 1.1-.8 2.2-1.1 3.2l-2.1 6.4c-.6 2.1-1.4 4-1.9 6.1l-.5 2.9c0 .5 0 .8.2 1.1v.2l.2.3.3.6c1.9 3.8 4.1 7.5 6.5 11.2 1.1 1.8 2.4 3.7 3.5 5.4 1.3 1.8 2.6 3.5 4 4.8.2.2.3.3.5.3-.2 0-.5.2-.2 0l1.4-.6c1-.5 2.1-.8 3.2-1.3 2.1-.8 4.3-1.3 6.5-1.6 2.2-.3 4.5-.5 6.7-.2s4.3 1 6.2 2.2c-4-1.9-8.5-1.8-12.6-.6-2.1.5-4.1 1.3-6.1 2.1l-2.9 1.4-1.4.8s-.6.3-1 .3-.6-.2-.8-.2c-.5-.2-.6-.3-1-.6-1.9-1.6-3.2-3.4-4.6-5.1s-2.7-3.5-3.8-5.4c-2.6-3.7-4.8-7.3-7-11.2l-.5-.8-.2-.3c0-.2-.2-.3-.3-.6-.3-.8-.3-1.4-.3-2.2 0-1.3.2-2.6.5-3.7.5-2.2 1.1-4.5 1.9-6.5.6-2.1 1.4-4.1 2.2-6.2.6-2.1 1.4-4.1 1.3-5.4 0-.3-.2-.5-.2-.5s-.2 0-.3-.2h-1c-.2 0 0 0-.2.2-.2 0-.3.2-.5.3-.3.2-.8.5-1.3.8-.2.2-.5.3-.8.5-.2.2-.5.2-.8.3h-.8c-.3 0-.8-.2-1.1-.5-.6-.5-.8-1-1-1.3-.2-.3-.2-.5-.2-.8 0-.5-.2-.8-.2-1.1V59c0-.5-.2-.8-.2-1-.2-.2-.2-.2.2 0 .3.2.3 0 .2.2-.2.2-.3.3-.8.6-.3.5-.8.8-1.3 1.3-.3.2-.5.5-1 .8-.2.2-.5.3-1 .5s-1.3.2-2.1-.3-1-1.1-1.1-1.4c-.2-.3-.2-.6-.2-.8V57c0-.2 0 0 .2 0h-.2c-.5.2-1.1.6-1.8 1.4-.6.6-1.1 1.4-1.6 2.4-.2.5-.5.8-.6 1.3-.2.5-.3 1-.6 1.4-1.4 4-2.2 8-2.6 12.1-.2 2.1-.2 4.1.2 6.1l.3 1.6c.2.6.2 1.1.2 1.8.2 1.1.2 2.2.2 3.4.2 4.5.3 8.8.3 13.1.2 4.3.3 8.6.8 12.9.2 2.1.5 4.3 1 6.2.2 1 .5 2.1 1 2.9s1.1 1.8 1.6 2.7c2.4 3.5 5.4 6.7 8.5 9.7 3.3 3.2 6.7 6.1 10 8.8"/><linearGradient id="j" gradientUnits="userSpaceOnUse" x1="116.748" y1="283.432" x2="116.748" y2="46.322" gradientTransform="matrix(1 0 0 -1 0 283.563)"><stop offset="0" stop-color="#9bd5bd"/><stop offset="1" stop-color="#74cbc8"/></linearGradient><path fill="url(#j)" d="M101 81.9c2.7-.8 5.3-1.3 8-1.6 2.7-.3 5.4-.3 8.1-.2 5.4.3 10.7 1.8 15.3 4.3-4.8-2.2-10.1-3-15.3-3-2.6 0-5.3.3-7.8.8s-5.1 1.1-7.3 2.1l-1-2.4"/><linearGradient id="k" gradientUnits="userSpaceOnUse" x1="223.201" y1="283.432" x2="223.201" y2="46.322" gradientTransform="matrix(1 0 0 -1 0 283.563)"><stop offset="0" stop-color="#9bd5bd"/><stop offset="1" stop-color="#74cbc8"/></linearGradient><path fill="url(#k)" d="M160.4 84.1c0-1.8.3-3.7.8-5.4.3-1 .6-1.8 1.3-2.6.3-.5.6-.8 1-1.1.2-.3.5-.6.5-1.1.6-1.6.8-3.4 1.1-5.1.2-1 .3-1.8.5-2.7.2-1 .5-1.9 1.1-3 .2-.3.3-.5.6-.8.2-.2.3-.2.5-.3l.3-.2 1.3-.6c.8-.3 1.6-.8 2.4-1.1 1.6-.8 3-1.6 4.3-2.7 1.3-1 2.2-2.2 2.7-3.5.6-1.8 1.3-3.5 2.2-5.3 1.8-3.5 4.1-6.5 7-9.3 2.9-2.7 5.9-4.8 9.3-6.7 6.5-3.7 13.6-6.4 20.9-8.3 7.3-1.8 14.8-2.9 22.5-2.2 7.5.6 15.2 2.7 21.5 6.9 6.5 4 11.8 9.7 15.6 16.1 3.8 6.4 6.5 13.4 8.1 20.4-2.7-6.9-5.9-13.4-10.2-19.2-4.1-5.7-9.4-10.7-15.5-14-6.1-3.4-12.9-5.1-20-5.4-7-.3-14 .6-20.9 2.4-6.9 1.8-13.6 4.3-19.8 7.7-6.2 3.4-11.7 7.8-15.2 13.7-.8 1.4-1.6 3-2.4 4.8-1 2.1-2.4 3.7-4.1 4.8-1.6 1.1-3.4 1.9-5.1 2.7-.8.3-1.8.6-2.6 1l-1.3.5-.3.2h-.2l-.2.2c-.3.5-.6 1.3-1 2.1-.3.8-.5 1.8-.6 2.6-.5 1.8-.8 3.7-1.8 5.4-.3.5-.5.8-1 1.3l-1 1c-.6.6-1 1.4-1.4 2.2-.3 1.1-.7 2.9-.9 4.6"/><linearGradient id="l" gradientUnits="userSpaceOnUse" x1="177.189" y1="283.432" x2="177.189" y2="46.322" gradientTransform="matrix(1 0 0 -1 0 283.563)"><stop offset="0" stop-color="#9bd5bd"/><stop offset="1" stop-color="#74cbc8"/></linearGradient><path fill="url(#l)" d="M165.2 59.7c-.5-6.5-.5-13.2-.8-19.6 0-.3 0-.8-.2-1.1 0-.3-.2-.6-.2-1.1-.2-.8-.3-1.8-.3-2.7s0-1.9.5-3c.2-.6.5-1.3 1.3-1.9.8-.6 2.2-.8 3-.5.8.3 1.3.8 1.8 1.1.2.2.3.5.6.6l.5.6c.2.3.5.6.5.8l-.2-.2c-.2 0-.2-.2-.3-.2-.2 0-.5-.2-.6-.2-.3 0-.6.2-.8.2s-.2.2-.3.2l-.2.2c-.3.3-.3.5-.3.3V33c.2-.6.5-1.6.6-2.4.2-.5.3-.8.5-1.3l.2-.3.2-.3c.2-.3.3-.6.5-.8.2-.3.5-.6 1-1 .5-.3 1.1-.6 1.9-.6s1.3.3 1.8.6c.3.3.6.5.8.8.8 1 1.1 1.8 1.6 2.7.2.5.3.8.5 1.3v.2s0 .2 0 0c0 0 0-.2-.2-.2l-.2-.2-.5-.5c-.2 0-.2-.2-.3-.2-.2 0-.5-.2-.6 0-.2 0-.5 0-.6.2-.2 0-.2.2-.3.2-.2 0-.2.2-.3.2-.2 0-.2.2-.2.2l-.2.2c-.2.3-.2.3-.2.2v-.2c.2-.6.3-1.6.6-2.6s.6-1.8 1.3-2.7c.2-.3.3-.3.6-.8l.2-.2.2-.2c.2-.2.3-.3.6-.5s.5-.3 1-.3 1 0 1.3.2c.8.3 1.1.8 1.3 1.1.5.6.5 1.1.6 1.6.2.5.2 1 .3 1.4.2 1 .2 1.8.3 2.6v1s0 .3 0 0c0-.2 0-.2-.2-.5-.2-.2-.5-.5-1-.5-.8 0-1 .2-1 .2-.2.2-.2.2 0 0l.3-.3 1.4-1.9c.5-.6 1-1.4 1.6-2.1.6-.6 1.1-1.3 2.1-1.9.5-.3 1.1-.6 2.1-.3.8.3 1.1 1 1.3 1.4.3 1 .5 1.8.5 2.7.2 1.8 0 3.4-.2 4.9-.3-1.6-.5-3.2-1-4.8-.2-.8-.5-1.6-.8-2.1-.2-.3-.3-.5-.3-.3l-.3.3c-.5.3-1 1-1.3 1.6-.5.6-.8 1.3-1.1 2.1-.3.8-.8 1.4-1.3 2.2-.2.2-.3.3-.5.6-.2.2-.2.3-.5.5-.2 0-.3.3-1.3.3-.5 0-1-.3-1.1-.6-.2-.3-.3-.5-.3-.5-.2-.6-.2-.5-.2-.6v-.3l-.2-.6c-.2-.8-.3-1.6-.5-2.2-.2-.3-.2-.6-.3-1l-.3-.6s0 .2.3.3c.2.2.5.2.6.2.2 0 .3-.2.5-.2 0 0 .2 0 .2-.2l-.2.2s-.2.2-.2.3c-.3.5-.5 1.1-.6 1.8-.2.6-.3 1.4-.5 2.2l-.6.6c0 .2 0 .3-.3.8 0 .2-.2.2-.2.2l-.5.5c-.2 0-.2.2-.3.2-.2.2-.5.2-.6.2h-.6c-.2 0-.3-.2-.5-.2-.2-.2-.5-.3-.6-.5l-.2-.2c-.2-.2-.2-.3-.2-.3l-.2-.3v-.2c-.2-.3-.3-.6-.3-1-.3-.6-.6-1.3-1-1.6-.2-.2-.2 0 .5.2.3 0 .6-.2.8-.2.2-.2 0 0 0 0l-.2.2s-.2.2-.2.3l-.2.2-.5 1c-.3.6-.5 1.3-.6 2.2 0 .2 0 .3-.2.5s-.2.3-.5 1l-.2.2c-.2.2-.3.2-.3.3-.3.2-.6.3-1 .3-.3 0-.6 0-.8-.2-.2 0-.3-.2-.5-.2l-.6-.6c-.5-.5-.6-.8-.8-1.3l-.3-.5c0-.2-.2-.2-.2-.3l-.2-.2s.5 0 .6-.2c.2-.2 0-.2 0 .2-.2.3-.3 1.1-.3 1.8s0 1.4.2 2.2c0 .3.2 1 .2 1.4v1.3c-.4 6.3-1.3 12.8-2.6 19.2"/><linearGradient id="m" gradientUnits="userSpaceOnUse" x1="182.841" y1="283.432" x2="182.841" y2="46.322" gradientTransform="matrix(1 0 0 -1 0 283.563)"><stop offset="0" stop-color="#9bd5bd"/><stop offset="1" stop-color="#74cbc8"/></linearGradient><path fill="url(#m)" d="M185.6 68.6s-2.9.5-4.1-.5c-1.3-.8-1.8-2.2-1.1-3.2.6-1 2.1-1 3.4-.2 1.2 1.1 1.8 3.9 1.8 3.9"/><linearGradient id="n" gradientUnits="userSpaceOnUse" x1="210.897" y1="283.432" x2="210.897" y2="46.322" gradientTransform="matrix(1 0 0 -1 0 283.563)"><stop offset="0" stop-color="#9bd5bd"/><stop offset="1" stop-color="#74cbc8"/></linearGradient><path fill="url(#n)" d="M196.6 98.5c6.5 1.9 12.8 1.4 18.2-1.1.6-.3 1.4-.6 2.1-1.1l1-.6c.3-.2.6-.5 1-.6 1.3-.8 2.4-1.8 3.2-2.7.3-.5.5-1 .5-1.4 0-.5-.3-1.1-.8-1.6-1-1.1-2.4-2.1-3.8-3 1.8.2 3.5.5 5.1 1.6.8.5 1.6 1.3 1.9 2.4.5 1.1.3 2.4-.2 3.4-.8 2.1-2.2 3.4-3.7 4.5-.3.3-.6.6-1.1.8-.3.3-.6.5-1.1.8-.8.5-1.6 1-2.4 1.3-3.2 1.6-7 2.4-10.7 1.9-3.4-.6-6.8-2.1-9.2-4.6"/><linearGradient id="o" gradientUnits="userSpaceOnUse" x1="210.114" y1="283.432" x2="210.114" y2="46.322" gradientTransform="matrix(1 0 0 -1 0 283.563)"><stop offset="0" stop-color="#9bd5bd"/><stop offset="1" stop-color="#74cbc8"/></linearGradient><path fill="url(#o)" d="M205.6 94.8c-.5-.5-.6-1-.6-1.8 0-.6.2-1.4.8-2.1.6-.5 1.4-.6 2.1-.6s1.3 0 1.9.2l.8.2c.2 0 .5.2.6.2h1.4c1-.2 1.9-.6 2.7-1.6-.2 1.1-1 2.2-2.2 2.9-.6.3-1.3.5-1.9.5h-1l-.8-.2c-1-.2-2.1-.3-2.7 0-.8.1-1.1 1.2-1.1 2.3"/><path fill="#939598" d="M111.6 270.5c0-3.4-4-4.3-6.2-4.9-3.5-.8-7.5-2.9-7.5-6.7 0-4.1 3.4-5.7 7.7-5.7 2.6 0 4.9.3 7.5 1.1l-.5 1.6c-3.5-.8-5.1-1-7.2-1-4.5 0-5.7 2.1-5.7 4.3 0 3.4 4.3 4.6 6.7 5.1 3.5.8 7 2.4 7 6.4 0 4.3-3.4 6.5-8 6.5-2.6 0-5.3-.3-8-1.1l.3-1.6c3.4.8 5.7 1 7.7 1 4.6-.3 6.2-2.7 6.2-5m18.2-11.1h1.8v17.1h-1.8v-2.6c-1.8 1.8-4 2.9-6.5 2.9-3.4 0-5.1-1.9-5.1-5.6v-11.8h1.6v11.5c0 2.4 1 4.5 4.1 4.5 2.6 0 4.8-1.6 5.9-2.6v-13.4m8.1 1.7c1.4-1.3 3.5-2.1 5.7-2.1 4.8 0 6.4 3.8 6.4 8.9s-1.8 8.9-6.5 8.9c-2.2 0-4.3-.8-5.6-1.9v8.5h-1.8v-23.9h1.8v1.6m5.1-.6c-2.2 0-4.3 1.1-5.1 1.9v11.2c.8.6 2.9 1.8 5.1 1.8 4.1 0 5.3-3.5 5.3-7.5 0-3.9-1.1-7.4-5.3-7.4zm13.1.6c1.4-1.3 3.5-2.1 5.7-2.1 4.8 0 6.4 3.8 6.4 8.9s-1.8 8.9-6.5 8.9c-2.2 0-4.3-.8-5.6-1.9v8.5h-1.8v-23.9h1.8v1.6m5.1-.6c-2.2 0-4.3 1.1-5.1 1.9v11.2c.8.6 2.9 1.8 5.1 1.8 4.1 0 5.3-3.5 5.3-7.5 0-3.9-1.3-7.4-5.3-7.4zM172 268c0-5.3 2.1-8.9 7.5-8.9s7.5 3.7 7.5 8.9-2.1 8.9-7.5 8.9-7.5-3.6-7.5-8.9m2 0c0 4 1.3 7.5 5.6 7.5s5.6-3.4 5.6-7.5c0-4-1.3-7.5-5.6-7.5-4.4 0-5.6 3.5-5.6 7.5zm19 8.6h-1.8v-17.1h1.8v2.7c1.8-1.6 4.1-3 7-3v1.6c-2.9 0-5.6 1.6-7 2.6v13.2m12.2-16h-2.9v-1.1l2.9-.2.3-4.8h1.4v4.8h5.3v1.3H207v10.5c0 2.7.6 4.3 3.4 4.3.6 0 1.1 0 1.9-.2l.2 1.3c-.8.2-1.8.2-2.6.2-3 0-4.6-1.3-4.6-5.4v-10.7m20.7-1.2h4.6v1.3H226v15.8h-1.8v-15.8h-2.9v-1.1l2.9-.2v-2.6c0-3.2 1.3-4.3 4.6-4.3.8 0 1.6.2 2.6.2l-.2 1.4c-1-.2-1.6-.2-2.4-.2-2.1 0-2.7 1-2.7 3v2.4m7.6 8.7c0-5.3 2.1-8.9 7.5-8.9s7.5 3.7 7.5 8.9-2.1 8.9-7.5 8.9-7.5-3.6-7.5-8.9m1.9 0c0 4 1.3 7.5 5.6 7.5s5.6-3.4 5.6-7.5c0-4-1.3-7.5-5.6-7.5s-5.6 3.5-5.6 7.5zm19 8.6h-1.8v-17.1h1.8v2.7c1.8-1.6 4.1-3 7-3v1.6c-2.9 0-5.6 1.6-7 2.6v13.2m18.5-16h-2.9v-1.1l2.9-.2.2-4.8h1.4v4.8h5.3v1.3h-5.3v10.5c0 2.7.6 4.3 3.4 4.3.6 0 1.1 0 1.9-.2l.2 1.3c-.8.2-1.8.2-2.6.2-3 0-4.6-1.3-4.6-5.4v-10.7m13.3 16h-1.8v-23.9h1.8v9.4c1.8-1.8 4-2.9 6.5-2.9 3.4 0 5.1 1.9 5.1 5.6v11.8h-1.8v-11.5c0-2.4-1-4.5-4.1-4.5-2.6 0-4.8 1.6-5.9 2.6v13.4m18.1-8.5c0 4.3 1.8 7.3 6.5 7.3 1.9 0 3.5-.2 5.3-.6l.3 1.4c-2.1.5-3.7.8-5.9.8-6.1 0-8.1-3.7-8.1-8.9s2.2-8.9 8-8.9c6.9 0 7 5.7 6.2 8.9h-12.3m0-1.2h10.9c.5-2.9-.2-6.5-4.8-6.5-4.3.1-5.8 3-6.1 6.5zm33.4 5.1c0-1.4-.6-2.7-4.8-3.5-3.4-.6-6.1-1.8-6.1-5.1 0-2.9 2.1-4.5 5.9-4.5 2.6 0 4.5.2 6.5.8l-.3 1.4c-2.7-.6-4.9-.6-6.1-.6-4.1 0-4.3 2.4-4.3 3 0 1.4.6 2.7 4.6 3.5 3.8.8 6.2 1.9 6.2 4.9 0 3.2-2.1 4.9-5.9 4.9-2.6 0-4.9-.3-7-.8l.3-1.4c2.7.6 5.3.8 6.4.8 4.4.1 4.6-2.6 4.6-3.4m5.9-19.5h1.8v3.8h-1.8v-3.8zm0 6.9h1.8v17.1h-1.8v-17.1zm13.8-.4c2.1 0 3.7.3 5.6.8l-.3 1.4c-2.7-.6-4.1-.6-5.3-.6-4.5 0-6.2 3.2-6.2 7.5 0 4 1.6 7.5 6.2 7.5 1.1 0 2.7 0 5.3-.6l.3 1.4c-2.1.5-3.5.8-5.6.8-5.9 0-8-3.7-8-8.9.1-5.6 2.1-9.3 8-9.3m10.6 17.6h-1.8v-24.1h1.8v14.8l10.1-8h2.2l-6.9 5.7 7.2 11.5h-2.1l-6.2-10.4-4.3 3.4v7.1m24.4 0h-1.8v-17.1h1.8v2.6c1.8-1.8 4-2.9 6.5-2.9 3.4 0 5.1 1.9 5.1 5.6v11.8h-1.8v-11.5c0-2.4-1-4.5-4.1-4.5-2.6 0-4.8 1.6-5.9 2.6v13.4m18.1-8.5c0 4.3 1.8 7.3 6.5 7.3 1.9 0 3.5-.2 5.3-.6l.3 1.4c-2.1.5-3.7.8-5.9.8-6.1 0-8.1-3.7-8.1-8.9s2.2-8.9 8-8.9c6.9 0 7 5.7 6.2 8.9h-12.3m0-1.2H421c.5-2.9-.2-6.5-4.8-6.5-4.4.1-5.7 3-6 6.5zm27.1-4.8l-4.3 14.7h-1.9l-5.4-17.4h1.9l4.6 15.3 4.3-15.3h1.8l4.3 15.3h.2l4.5-15.3h1.8l-5.3 17.4h-1.9l-4.6-14.7m17.6-1c1.4-1.3 3.5-2.1 5.7-2.1 4.8 0 6.4 3.8 6.4 8.9s-1.8 8.9-6.5 8.9c-2.2 0-4.3-.8-5.7-1.9l-.3 1.8h-1.3v-23.9h1.8v8.3m5-.6c-2.2 0-4.3 1.1-5.1 1.9v11.2c.8.6 2.9 1.8 5.1 1.8 4.1 0 5.3-3.5 5.3-7.5-.1-3.9-1.2-7.4-5.3-7.4zm11 7.5c0-5.3 2.1-8.9 7.5-8.9s7.5 3.7 7.5 8.9-2.1 8.9-7.5 8.9c-5.6 0-7.5-3.6-7.5-8.9m1.7 0c0 4 1.3 7.5 5.6 7.5s5.6-3.4 5.6-7.5c0-4-1.3-7.5-5.6-7.5s-5.6 3.5-5.6 7.5zm19.2 8.6h-1.8v-17.1h1.8v2.7c1.8-1.6 4.1-3 7-3v1.6c-2.9 0-5.6 1.6-7 2.6v13.2m12.6 0h-1.8v-17.1h1.8v2.6c1.8-1.8 4-2.9 6.5-2.9 3.4 0 5.1 1.9 5.1 5.6v11.8h-1.8v-11.5c0-2.4-1-4.5-4.1-4.5-2.6 0-4.8 1.6-5.9 2.6v13.4m23.5-16.9c2.2-.5 4.5-.6 6.1-.6 3.8 0 5.9 1.3 5.9 5.6v11.8H538v-1.8c-1.8 1.4-3.4 2.1-5.7 2.1-3.4 0-5.6-1.8-5.6-4.8 0-3.5 2.6-5.1 7.2-5.1h4.3v-2.1c0-2.7-1.1-4.1-4.5-4.1-1.3 0-2.9.2-5.6.6l-.3-1.6m10.2 8.4h-4.1c-4.3 0-5.6 1.4-5.6 3.8 0 2.1 1.6 3.7 4.5 3.7 2.6 0 4.3-1.1 5.3-1.9l-.1-5.6zm8.2 8.5h-1.8v-17.1h1.8v2.6c1.8-1.8 4-2.9 6.5-2.9 3.4 0 5.1 1.9 5.1 5.6v11.8H556v-11.5c0-2.4-1-4.5-4.1-4.5-2.6 0-4.8 1.6-5.9 2.6v13.4m28.4-1.8c-1.4 1.3-3.5 2.1-5.7 2.1-4.8 0-6.4-3.8-6.4-8.9 0-5.1 1.8-8.9 6.5-8.9 2.2 0 4.3.8 5.6 2.1v-8.5h1.8v23.9h-1.8v-1.8m-5.1.5c2.2 0 4.3-1.1 5.1-1.8v-11.2c-.8-.8-2.9-1.9-5.1-1.9-4.1 0-5.3 3.5-5.3 7.5 0 4.1 1.1 7.4 5.3 7.4zm18.8-14.7h-2.9v-1.1l2.9-.2.2-4.8h1.4v4.8h5.3v1.3h-5.3v10.5c0 2.7.6 4.3 3.4 4.3.6 0 1.1 0 1.9-.2l.2 1.3c-.8.2-1.8.2-2.6.2-3 0-4.6-1.3-4.6-5.4v-10.7m13.4 16h-1.8v-23.9h1.8v9.4c1.8-1.8 4-2.9 6.5-2.9 3.4 0 5.1 1.9 5.1 5.6v11.8h-1.8v-11.5c0-2.4-1-4.5-4.1-4.5-2.6 0-4.8 1.6-5.9 2.6v13.4m18-8.5c0 4.3 1.6 7.3 6.5 7.3 1.9 0 3.5-.2 5.3-.6l.3 1.4c-2.1.5-3.7.8-5.9.8-6.1 0-8.1-3.7-8.1-8.9s2.2-8.9 8-8.9c6.9 0 7 5.7 6.2 8.9h-12.3m0-1.2h10.9c.5-2.9-.2-6.5-4.8-6.5-4.3.1-5.7 3-6.1 6.5zm16.8-14.4h1.8v3.8H636v-3.8zm0 6.9h1.8v17.1H636v-17.1zm8 17.2h-1.8v-17.1h1.8v2.7c1.8-1.6 4.1-3 7-3v1.6c-2.9 0-5.6 1.6-7 2.6v13.2m18.8-15.5c1.4-1.3 3.5-2.1 5.7-2.1 4.8 0 6.4 3.8 6.4 8.9s-1.8 8.9-6.5 8.9c-2.2 0-4.3-.8-5.6-1.9v8.5H661v-23.9h1.8v1.6m5.1-.6c-2.2 0-4.3 1.1-5.1 1.9v11.2c.8.6 2.9 1.8 5.1 1.8 4.1 0 5.3-3.5 5.3-7.5 0-3.9-1.1-7.4-5.3-7.4zm12-.8c2.2-.5 4.5-.6 6.1-.6 3.8 0 5.9 1.3 5.9 5.6v11.8h-1.8v-1.8c-1.8 1.4-3.4 2.1-5.7 2.1-3.4 0-5.6-1.8-5.6-4.8 0-3.5 2.6-5.1 7.2-5.1h4.3v-2.1c0-2.7-1.1-4.1-4.5-4.1-1.3 0-2.9.2-5.6.6l-.3-1.6m10.4 8.4h-4.1c-4.3 0-5.6 1.4-5.6 3.8 0 2.1 1.6 3.7 4.5 3.7 2.6 0 4.3-1.1 5.3-1.9l-.1-5.6zm8 8.5h-1.8v-17.1h1.8v2.7c1.8-1.6 4.1-3 7-3v1.6c-2.9 0-5.6 1.6-7 2.6v13.2m11.8-8.5c0 4.3 1.8 7.3 6.5 7.3 1.9 0 3.5-.2 5.3-.6l.3 1.4c-2.1.5-3.7.8-5.9.8-6.1 0-8.3-3.7-8.3-8.9s2.2-8.9 8-8.9c6.9 0 7 5.7 6.2 8.9h-12.1m0-1.2H721c.5-2.9-.2-6.5-4.8-6.5-4.5.1-5.8 3-6.1 6.5zm18.3 9.7h-1.8v-17.1h1.8v2.6c1.8-1.8 4-2.9 6.5-2.9 3.4 0 5.1 1.9 5.1 5.6v11.8h-1.8v-11.5c0-2.4-1-4.5-4.1-4.5-2.6 0-4.8 1.6-5.9 2.6v13.4m17.9-16h-2.9v-1.1l2.9-.2.2-4.8h1.4v4.8h5.3v1.3h-5.3v10.5c0 2.7.6 4.3 3.4 4.3.6 0 1.1 0 1.9-.2l.2 1.3c-.8.2-1.8.2-2.6.2-3 0-4.6-1.3-4.6-5.4v-10.7m22.3 11.4c0-1.4-.6-2.7-4.8-3.5-3.4-.6-6.1-1.8-6.1-5.1 0-2.9 2.1-4.5 5.9-4.5 2.6 0 4.5.2 6.5.8l-.3 1.4c-2.7-.6-4.9-.6-6.1-.6-4.1 0-4.3 2.4-4.3 3 0 1.4.6 2.7 4.6 3.5 3.8.8 6.2 1.9 6.2 4.9 0 3.2-2.1 4.9-5.9 4.9-2.6 0-4.9-.3-7-.8l.3-1.4c2.7.6 5.3.8 6.4.8 4.3.1 4.6-2.6 4.6-3.4"/></svg>