<?xml version="1.0" encoding="utf-8"?>
<!-- Generator: Adobe Illustrator 23.0.3, SVG Export Plug-In . SVG Version: 6.00 Build 0)  -->
<svg version="1.1" id="Layer_1" xmlns="http://www.w3.org/2000/svg" xmlns:xlink="http://www.w3.org/1999/xlink" x="0px" y="0px"
	 width="100px" height="100px" viewBox="0 0 100 100" enable-background="new 0 0 100 100" xml:space="preserve">
<g>
	<circle cx="50" cy="16.9" r="16.9"/>
	<path d="M50,52.3c7.3,0,13.2-6,13.2-13.2H36.8C36.8,46.3,42.7,52.3,50,52.3z"/>
	<path d="M69.7,39.3C69.6,49,62.5,57,53.3,58.6v15.9c0,8.2-6.2,15.4-14.4,15.8c-8.5,0.5-15.6-6-16.1-14.3c-2.2-1.3-3.6-3.9-3.1-6.8
		c0.5-2.6,2.6-4.7,5.2-5.1c4.1-0.7,7.6,2.4,7.6,6.3c0,2.3-1.3,4.4-3.1,5.5c0.5,4.6,4.6,8.2,9.4,7.8c4.6-0.4,7.9-4.5,7.9-9.1v-16
		C37.5,57,30.4,49,30.3,39.3c-9.1,1.2-16.1,9-16.1,18.4v34.1c0,4.5,3.7,8.2,8.2,8.2h55.4c4.5,0,8.2-3.7,8.2-8.2V57.7
		C85.9,48.3,78.8,40.5,69.7,39.3z"/>
</g>
</svg>
