<?xml version="1.0" encoding="utf-8"?>
<!-- Generator: Adobe Illustrator 23.0.3, SVG Export Plug-In . SVG Version: 6.00 Build 0)  -->
<svg version="1.1" id="Layer_1" xmlns="http://www.w3.org/2000/svg" xmlns:xlink="http://www.w3.org/1999/xlink" x="0px" y="0px"
	 width="100px" height="100px" viewBox="0 0 100 100" style="enable-background:new 0 0 100 100;" xml:space="preserve">
<g>
	<path d="M66.4,27.1C73.9,27.1,80,21,80,13.5C80,6.1,73.9,0,66.4,0C59,0,52.9,6.1,52.9,13.5C52.9,21,59,27.1,66.4,27.1z"/>
	<path d="M95.6,45c0,0,0.8-15.1-15.2-15.1H52.8c-2.6,0-4.7,0.4-6.5,1c10.5,0.5,15.4,6.9,16.5,10.3c0.3,0.9,7.1,21.3,5.7,27.5
		c-0.9,4-5.6,7.4-9.2,9.5l6.5,21.2L66,100h18.4l0.9-12c0,2.3,2.2,4.9,5.1,4.9c2.8,0,5.1-2.7,5.3-5L95.6,45z"/>
	<path d="M36.4,30.9c7.2,0,13-6,13-13.4C49.4,10,43.6,4,36.4,4s-13,6-13,13.5C23.4,24.9,29.2,30.9,36.4,30.9z"/>
	<path d="M59.5,42.3c-0.6-2-4.3-7.9-14.3-8l-19.6,0.1c-9.7-0.5-13.6,5.2-14.2,7.7c0,0-6.6,21-5.4,25.8c0.7,3,5.9,6.7,11.5,9.4
		L9.9,100h52.3L55,76.6c5-2.6,9.3-5.9,10-8.7C66.1,63,59.5,42.3,59.5,42.3z M27.6,65.4c-0.9,0.4-1.9,0.6-3,0.6
		c-4.1,0-7.4-3.4-7.4-7.5s3.3-7.5,7.4-7.5c4,0,7.3,3.2,7.4,7.3c1.3-0.9,2.6-1.3,3.6-1.5l0,0c1.5-0.3,2.6,0,2.6,0
		c4.9,1.1,15.8,5.9,15.8,5.9S48.2,70,37.6,70c-0.3,0-0.5,0-0.8,0l0,0c-1,0-1.9-0.1-2.6-0.2C29.1,69.2,27.7,67.3,27.6,65.4z"/>
</g>
</svg>
