<?xml version="1.0" encoding="utf-8"?>
<!-- Generator: Adobe Illustrator 23.0.2, SVG Export Plug-In . SVG Version: 6.00 Build 0)  -->
<svg version="1.1" id="Layer_1" xmlns="http://www.w3.org/2000/svg" xmlns:xlink="http://www.w3.org/1999/xlink" x="0px" y="0px"
	 width="60px" height="60px" viewBox="0 0 60 60" style="enable-background:new 0 0 60 60;" xml:space="preserve">
<style type="text/css">
	.st0{fill:#1DA1F2;}
	.st1{fill:#FFFFFF;}
</style>
<rect class="st0" width="60" height="60"/>
<g id="Logo__x2014__FIXED">
	<path class="st1" d="M23,45.2c14.1,0,21.9-11.7,21.9-21.9c0-0.3,0-0.7,0-1c1.5-1.1,2.8-2.4,3.8-4c-1.4,0.6-2.9,1-4.4,1.2
		c1.6-0.9,2.8-2.5,3.4-4.3c-1.5,0.9-3.1,1.5-4.9,1.9c-1.4-1.5-3.4-2.4-5.6-2.4c-4.2,0-7.7,3.5-7.7,7.7c0,0.6,0.1,1.2,0.2,1.8
		c-6.4-0.3-12.1-3.4-15.9-8c-0.7,1.1-1,2.5-1,3.9c0,2.7,1.4,5,3.4,6.4c-1.3,0-2.4-0.4-3.5-1c0,0,0,0.1,0,0.1c0,3.7,2.7,6.8,6.2,7.5
		c-0.6,0.2-1.3,0.3-2,0.3c-0.5,0-1,0-1.4-0.1c1,3.1,3.8,5.3,7.2,5.3c-2.6,2.1-6,3.3-9.6,3.3c-0.6,0-1.2,0-1.8-0.1
		C14.7,44,18.7,45.2,23,45.2"/>
</g>
</svg>
