<?xml version="1.0" encoding="utf-8"?>
<!-- Generator: Adobe Illustrator 23.0.2, SVG Export Plug-In . SVG Version: 6.00 Build 0)  -->
<svg version="1.1" id="Layer_1" focusable="false" xmlns="http://www.w3.org/2000/svg" xmlns:xlink="http://www.w3.org/1999/xlink"
	 x="0px" y="0px" width="60px" height="60px" viewBox="0 0 60 60" style="enable-background:new 0 0 60 60;" xml:space="preserve">
<style type="text/css">
	.st0{fill:#FF0000;}
	.st1{fill:#FFFFFF;}
</style>
<rect x="0" class="st0" width="60" height="60"/>
<g>
	<path class="st1" d="M52.9,18.5c-0.6-2-2.1-3.7-4.2-4.2c-3.8-1-18.7-1-18.7-1s-15,0-18.8,1c-2,0.6-3.7,2.1-4.2,4.2
		C6,22.3,6,30,6,30s0,7.8,1,11.5c0.6,2,2.1,3.7,4.2,4.2c3.7,1,18.7,1,18.7,1s15,0,18.8-1c2-0.6,3.7-2.1,4.2-4.2c1-3.8,1-11.5,1-11.5
		S54,22.2,52.9,18.5z"/>
	<polygon class="st0" points="25.1,37.2 37.6,30 25.1,22.8 	"/>
</g>
</svg>
