<svg xmlns="http://www.w3.org/2000/svg" width="60" height="60" viewBox="0 0 60 60"><path fill="#1da1f2" d="M0 0h60v60H0z"/><path d="M23 45.2c14.1 0 21.9-11.7 21.9-21.9v-1c1.5-1.1 2.8-2.4 3.8-4-1.4.6-2.9 1-4.4 1.2 1.6-.9 2.8-2.5 3.4-4.3-1.5.9-3.1 1.5-4.9 1.9-1.4-1.5-3.4-2.4-5.6-2.4-4.2 0-7.7 3.5-7.7 7.7 0 .6.1 1.2.2 1.8-6.4-.3-12.1-3.4-15.9-8-.7 1.1-1 2.5-1 3.9 0 2.7 1.4 5 3.4 6.4-1.3 0-2.4-.4-3.5-1v.1c0 3.7 2.7 6.8 6.2 7.5-.6.2-1.3.3-2 .3-.5 0-1 0-1.4-.1 1 3.1 3.8 5.3 7.2 5.3-2.6 2.1-6 3.3-9.6 3.3-.6 0-1.2 0-1.8-.1 3.4 2.2 7.4 3.4 11.7 3.4" fill="#fff"/></svg>