<svg version="1.1" id="Layer_1" xmlns="http://www.w3.org/2000/svg" x="0" y="0" width="60" height="60" viewBox="0 0 60 60" xml:space="preserve"><style>.st0{fill:red}</style><path class="st0" d="M0 0h60v60H0z"/><path d="M52.9 18.5c-.6-2-2.1-3.7-4.2-4.2-3.8-1-18.7-1-18.7-1s-15 0-18.8 1c-2 .6-3.7 2.1-4.2 4.2C6 22.3 6 30 6 30s0 7.8 1 11.5c.6 2 2.1 3.7 4.2 4.2 3.7 1 18.7 1 18.7 1s15 0 18.8-1c2-.6 3.7-2.1 4.2-4.2 1-3.8 1-11.5 1-11.5s.1-7.8-1-11.5z" fill="#fff"/><path class="st0" d="M25.1 37.2L37.6 30l-12.5-7.2z"/></svg>