<?xml version="1.0" encoding="utf-8"?>
<!-- Generator: Adobe Illustrator 23.0.3, SVG Export Plug-In . SVG Version: 6.00 Build 0)  -->
<svg version="1.1" id="Layer_1" xmlns="http://www.w3.org/2000/svg" xmlns:xlink="http://www.w3.org/1999/xlink" x="0px" y="0px"
	 width="457.7px" height="283.5px" viewBox="0 0 457.7 283.5" enable-background="new 0 0 457.7 283.5" xml:space="preserve">
<path fill="#6C6F70" d="M140.4,204.7c-34.1,0-61.8-27.8-61.8-61.8S106.3,81,140.4,81V2.3C62.9,2.3,0,65.1,0,142.9
	c0,77.5,62.9,140.6,140.6,140.6c77.5,0,140.6-62.9,140.6-140.6h-78.8C202.2,176.9,174.5,204.7,140.4,204.7"/>
<g>
	<path fill="#FFFFFF" d="M73.3,64.5L80,59l-5.1-6.3l-7.6,6.1l-1.6-1.8l9.8-8.2L90,66.3l-9.4,7.8L79,72.2l7.1-5.9l-4.5-5.5l-6.7,5.5
		L73.3,64.5z"/>
</g>
<g>
	<path fill="#FFFFFF" d="M50.2,75.7c0.2-1.2,1.2-3.3,3.1-5.3c4.1-4.9,10.2-6.1,15.9-1.4c5.5,4.5,6.1,11.2,1.6,16.7
		C69,88,67.3,89,66.5,89.2l-1.4-2c1.2-0.6,2.4-1.4,3.7-2.9c3.5-4.1,3.1-9-1.6-12.9c-4.3-3.5-9.2-3.3-12.7,1c-1.2,1.4-2,3.1-2.2,4.3
		L50.2,75.7z"/>
</g>
<g>
	<path fill="#FFFFFF" d="M63.7,95.3l-12-6.1c-4.5-2.2-7.6-1.2-8.8,1.4c-1.4,3.1-0.4,5.9,4.1,8.2l12,6.1l-1.4,2.7l-11.8-5.9
		c-6.3-3.1-7.1-7.8-4.9-12c2-4.1,6.1-6.1,12.2-2.9l12,5.9L63.7,95.3z"/>
</g>
<text transform="matrix(-0.2933 0.956 -0.956 -0.2933 33.0107 104.5714)" fill="#FFFFFF" font-family="'ArialMT'" font-size="33.7212px"> </text>
<g>
	<path fill="#FFFFFF" d="M29.6,136.3c-0.2-1.4-0.8-4.1-0.4-7.1c0.4-3.5,1.6-6.1,4.1-8c2-1.6,5.3-2.4,8.8-2c6.7,0.8,11,6.1,10,13.7
		c-0.4,2.7-1.2,4.5-1.8,5.5l-2.2-1c0.6-1.2,1.2-2.7,1.6-4.9c0.8-5.5-2.2-9.6-8-10.2c-5.7-0.8-9.6,2.2-10.2,7.6
		c-0.2,1.8-0.2,3.3,0,3.9l6.7,0.8l0.6-4.5l2.2,0.2l-1,7.3L29.6,136.3z"/>
</g>
<g>
	<path fill="#FFFFFF" d="M40.2,156.1l-0.6-9l-8.2,0.6l0.6,9.8l-2.4,0.2l-0.8-12.7l22.7-1.6l0.8,12.2l-2.4,0.2l-0.6-9.4l-7.1,0.6
		l0.6,8.8L40.2,156.1z"/>
</g>
<g>
	<path fill="#FFFFFF" d="M31,166.5l21.8-6.3l0.8,3.1l-9,10.2c-2,2.4-4.1,4.3-5.9,5.9l0,0c2.9-1,5.5-2,9-2.9l9.2-2.7l0.8,2.7
		l-21.8,6.3l-0.8-2.9l9-10.2c2-2.2,4.1-4.5,6.1-6.1l0,0c-2.7,1-5.3,1.8-9,2.9l-9.4,2.7L31,166.5z"/>
</g>
<g>
	<path fill="#FFFFFF" d="M59,181c1,1.4,2.4,3.3,3.5,5.1c2,3.7,2.7,6.7,2,9.4c-0.6,2.7-2.2,5.1-5.5,6.7c-3.3,1.8-6.3,2.2-9.4,1.6
		c-2.9-0.8-5.7-3.3-7.8-7.1c-1-1.8-1.8-3.5-2.4-4.7L59,181z M42.9,193.5c0.2,0.6,0.8,1.6,1.2,2.7c3.1,5.5,7.8,6.7,13.3,3.7
		c4.7-2.7,6.1-6.9,3.1-12.2c-0.8-1.2-1.4-2.2-2-2.9L42.9,193.5z"/>
</g>
<g>
	<path fill="#FFFFFF" d="M69.8,216.5l-5.9-6.5l-6.1,5.5l6.5,7.3l-1.8,1.6l-8.4-9.6L71,199.8l8.2,9.2l-1.8,1.6l-6.1-6.9l-5.3,4.7
		l5.9,6.5L69.8,216.5z"/>
</g>
<g>
	<path fill="#FFFFFF" d="M82.2,212.2c1.4,0.6,3.1,1.8,4.7,3.1c2.4,1.8,3.7,3.7,4.1,5.5c0.2,1.4-0.2,3.1-1.2,4.5
		c-1.8,2.4-4.5,2.9-6.9,2l0,0c1,1.6,0.8,3.5-0.2,5.7c-1.4,3.1-2.2,5.1-2.4,5.9l-2.4-1.8c0-0.8,0.8-2.7,2-5.3
		c1.4-2.9,1.2-4.5-0.8-6.3l-2.2-1.6l-5.9,7.8l-2.2-1.8L82.2,212.2z M78.4,222.2l2.4,1.8c2.4,1.8,5.1,1.8,6.7-0.2
		c1.8-2.2,0.8-4.7-1.6-6.5c-1-0.8-2-1.4-2.4-1.6L78.4,222.2z"/>
</g>
<text transform="matrix(0.8736 0.4866 -0.4866 0.8736 83.6744 242.0742)" fill="#FFFFFF" font-family="'ArialMT'" font-size="33.7212px"> </text>
<g>
	<path fill="#FFFFFF" d="M113.3,253.7c-1.2,0.2-3.5,0-5.9-1c-5.9-2.2-9.2-7.8-6.5-14.7c2.4-6.7,8.6-9.6,15.3-7.1
		c2.7,1,4.1,2.2,4.7,2.9l-1.4,2c-0.8-0.8-2.2-1.8-4.1-2.4c-5.1-1.8-9.6,0.2-11.6,5.7c-1.8,5.3-0.2,9.6,5.1,11.6
		c1.6,0.6,3.5,0.8,4.9,0.8L113.3,253.7z"/>
</g>
<g>
	<path fill="#FFFFFF" d="M127.3,234.3l-1.2,9.4l10.8,1.4l1.2-9.4l2.9,0.4l-2.9,22.4l-2.9-0.4l1.4-10.6l-10.8-1.4l-1.4,10.6l-2.9-0.4
		l2.9-22.4L127.3,234.3z"/>
</g>
<g>
	<path fill="#FFFFFF" d="M149.2,251.4l-1.8,7.3l-3.1,0.2l5.9-23.3l3.5-0.2l9.4,22l-3.1,0.2l-2.9-6.9L149.2,251.4z M156.3,248.6
		l-2.7-6.3c-0.6-1.4-1-2.9-1.4-4.1l0,0c-0.2,1.4-0.4,2.9-0.8,4.3l-1.6,6.7L156.3,248.6z"/>
</g>
<g>
	<path fill="#FFFFFF" d="M165.1,233.9c1.4-0.6,3.3-1.4,5.3-2c3.1-0.8,5.1-0.8,6.7,0c1.4,0.6,2.4,2,2.9,3.7c0.8,2.9-0.4,5.3-2.4,6.7
		l0,0c1.8,0,3.3,1.4,4.5,3.5c1.6,2.9,2.7,4.7,3.5,5.5l-2.9,0.8c-0.6-0.6-1.6-2.2-3.1-4.7c-1.6-2.9-3.1-3.7-5.7-2.9l-2.4,0.6l2.9,9.4
		l-2.9,0.8L165.1,233.9z M170.8,243.1l2.9-0.8c3.1-0.8,4.5-3.1,3.7-5.5c-0.8-2.9-3.3-3.5-6.1-2.7c-1.4,0.4-2.2,0.8-2.7,1
		L170.8,243.1z"/>
</g>
<g>
	<path fill="#FFFFFF" d="M188.2,228l-6.1,3.3l-1.2-2.2l14.9-7.8l1.2,2.2l-6.1,3.3l9.4,18l-2.7,1.4L188.2,228z"/>
</g>
<g>
	<path fill="#FFFFFF" d="M213.3,220.8l-6.9,5.5l5.1,6.3l7.8-6.1l1.6,1.8l-10,8l-14.1-17.8l9.6-7.6l1.6,1.8l-7.3,5.9l4.5,5.7l6.9-5.5
		L213.3,220.8z"/>
</g>
<g>
	<path fill="#FFFFFF" d="M210.2,208.2c0.8-1.2,2-3.1,3.3-4.5c2-2.4,3.9-3.5,5.7-3.9c1.4-0.2,3.1,0.4,4.5,1.4c2.2,2,2.7,4.7,1.6,6.9
		l0,0c1.6-1,3.5-0.6,5.7,0.4c2.9,1.4,4.9,2.4,5.9,2.7l-2,2.2c-0.8-0.2-2.4-1-5.1-2.4c-2.9-1.6-4.5-1.4-6.3,0.6l-1.8,2l7.6,6.3
		l-1.8,2.2L210.2,208.2z M219.8,212.7l2-2.2c2-2.4,2-5.1,0-6.7c-2.2-1.8-4.5-1.2-6.5,1.2c-1,1-1.4,1.8-1.6,2.4L219.8,212.7z"/>
</g>
<path fill="#163964" d="M323.5,28v7.8h7.3v5.7h-7.3v13.5c0,3.7,1,5.7,3.9,5.7c1.4,0,2-0.2,3.1-0.4l0.2,5.9c-1.2,0.4-3.1,0.8-5.5,0.8
	c-2.9,0-5.3-1-6.7-2.7c-1.6-1.8-2.4-4.5-2.4-8.6V41.4h-4.5v-5.7h4.5V30L323.5,28z"/>
<path fill="#163964" d="M373.9,53.3c0.2,5.5,4.5,8,9.4,8c3.7,0,6.1-0.4,8.4-1.4l1.2,5.3c-2.7,1-6.3,2-10.6,2
	c-10,0-15.7-6.1-15.7-15.5c0-8.4,5.1-16.5,14.9-16.5c10,0,13.3,8.2,13.3,14.9c0,1.4-0.2,2.7-0.2,3.3
	C394.5,53.3,373.9,53.3,373.9,53.3z M387.1,48c0-2.9-1.2-7.6-6.3-7.6c-4.7,0-6.7,4.3-7.1,7.6H387.1z"/>
<path fill="#163964" d="M399.2,44.9c0-3.5,0-6.5-0.2-9.2h6.7l0.4,4.5h0.2c1.2-2.4,4.7-5.3,9.8-5.3c5.3,0,10.8,3.5,10.8,13.1v18.2
	h-7.8V49.2c0-4.5-1.6-7.8-5.9-7.8c-3.1,0-5.3,2.2-6.1,4.5c-0.2,0.6-0.4,1.6-0.4,2.4v18H399L399.2,44.9L399.2,44.9z"/>
<path fill="#163964" d="M456.9,59.2c0,2.9,0.2,5.5,0.4,7.3h-6.9l-0.4-3.5h-0.2c-1.8,2.4-5.1,4.1-9,4.1c-6.1,0-9.6-4.5-9.6-9.2
	c0-7.8,6.9-11.6,18.2-11.6v-0.4c0-2-0.8-5.3-6.1-5.3c-3.1,0-6.1,1-8.2,2.2l-1.4-5.1c2.2-1.4,6.1-2.7,11-2.7
	c9.8,0,12.7,6.1,12.7,12.9v11.2C457.3,59.2,456.9,59.2,456.9,59.2z M449.4,51.4c-5.5-0.2-10.6,1-10.6,5.7c0,3.1,2,4.5,4.3,4.5
	c3.1,0,5.3-2,6.1-4.3c0.2-0.6,0.2-1.2,0.2-1.6L449.4,51.4L449.4,51.4z"/>
<path fill="#163964" d="M351.8,35.1c-2,0-3.7,0.4-5.3,1.4c-1.6,0.8-2.9,2-3.9,3.5h-0.2V25.3h-7.8v41h7.8V48.2c0-0.8,0-1.6,0.4-2.2
	c0.8-2.2,2.9-4.3,5.9-4.3c4.3,0,5.9,3.3,5.9,7.8v17.1h7.8v-18C362.4,38.6,356.9,35.1,351.8,35.1"/>
<path fill="#163964" d="M298.8,25.5h-9l-13.1,41h8l3.7-12H300l3.9,12h8.4L298.8,25.5z M289.4,48.6l3.9-12.7h1.4l3.9,12.7H289.4z"/>
<path fill="#163964" d="M329.6,99.4c2,1,5.3,2,8.6,2c3.5,0,5.5-1.4,5.5-3.7c0-2-1.6-3.3-5.7-4.9c-5.7-2-9.4-5.1-9.4-10
	c0-5.9,4.9-10.2,12.9-10.2c3.9,0,6.7,0.8,8.8,1.6l-1.6,6.3c-1.4-0.6-3.9-1.6-7.1-1.6s-4.9,1.4-4.9,3.3c0,2.2,1.8,3.1,6.3,4.9
	c6.1,2.2,9,5.3,9,10.2c0,5.7-4.5,10.6-13.9,10.6c-3.9,0-7.8-1-9.6-2L329.6,99.4z"/>
<path fill="#163964" d="M360.8,107.4l-8.2-34.3h8.4l2.7,14.1c0.8,4.1,1.4,8.6,2,12l0,0c0.6-3.7,1.4-7.8,2.2-12l2.9-14.1h8.2
	l2.7,14.5c0.8,4.1,1.2,7.8,1.8,11.4h0.2c0.4-3.9,1.2-7.8,2-11.8l2.9-14.1h8l-8.8,34.3h-8.4l-2.9-14.7c-0.6-3.5-1.2-6.7-1.6-10.6l0,0
	c-0.6,3.9-1.2,7.1-2,10.6l-3.3,14.7C369.6,107.4,360.8,107.4,360.8,107.4z"/>
<path fill="#163964" d="M405.5,98.6l-2.4,8.8h-8l10.4-34.3h10.2l10.6,34.3h-8.4l-2.7-8.8H405.5z M414.1,92.9l-2-7.3
	c-0.6-2-1.2-4.5-1.6-6.5h-0.2c-0.4,2-1,4.7-1.6,6.5l-2,7.3H414.1z"/>
<path fill="#163964" d="M429.2,107.4V73.1h9l7.1,12.4c2,3.7,4.1,8,5.5,11.6h0.2c-0.4-4.5-0.6-9.2-0.6-14.3v-10h7.1v34.3h-8.2
	L442,93.9c-2-3.7-4.3-8.2-5.9-12h-0.2c0.2,4.5,0.2,9.4,0.2,14.9v10.2h-6.9V107.4z"/>
<g>
	<path fill="#6C6F70" d="M323,132.2c1,0.6,2.7,1,4.1,1c2,0,3.1-1,3.1-2.4c0-1.2-0.8-2-3.1-2.9c-2.9-1-4.7-2.4-4.7-5.1
		c0-2.9,2.4-4.9,6.1-4.9c1.8,0,3.3,0.4,4.1,0.8l-0.8,2.4c-0.6-0.4-1.8-0.8-3.5-0.8c-2,0-2.9,1-2.9,2c0,1.4,1,2,3.3,2.9
		c3.1,1.2,4.5,2.7,4.5,5.1c0,2.9-2,5.1-6.5,5.1c-1.8,0-3.7-0.6-4.7-1L323,132.2z"/>
	<path fill="#6C6F70" d="M339.8,119.6c0,1-0.6,1.6-1.8,1.6c-1,0-1.8-0.8-1.8-1.6c0-1,0.8-1.6,1.8-1.6S339.6,118.6,339.8,119.6z
		 M336.3,135.5v-12.4h3.3v12.4H336.3z"/>
	<path fill="#6C6F70" d="M342.8,117.3h3.3v18.2h-3.3V117.3z"/>
	<path fill="#6C6F70" d="M351.4,123.1l2,6.3c0.4,1,0.6,2,0.8,3.1l0,0c0.2-1,0.6-2,0.8-3.1l2-6.3h3.3l-4.7,12.4h-3.1l-4.7-12.4
		C347.9,123.1,351.4,123.1,351.4,123.1z"/>
	<path fill="#6C6F70" d="M364.3,130.2c0,2.2,1.8,3.3,3.9,3.3c1.4,0,2.4-0.2,3.5-0.6l0.4,2.2c-1,0.4-2.7,0.8-4.3,0.8
		c-4.1,0-6.3-2.4-6.3-6.3c0-3.5,2-6.7,6.1-6.7c4.1,0,5.3,3.3,5.3,6.1c0,0.6,0,1,0,1.4L364.3,130.2L364.3,130.2z M369.8,128
		c0-1.2-0.4-3.1-2.7-3.1c-2,0-2.9,1.8-2.9,3.1H369.8z"/>
	<path fill="#6C6F70" d="M375.3,127.1c0-1.6,0-2.9-0.2-4.1h2.7v2.4l0,0c0.6-1.8,2-2.7,3.5-2.7c0.4,0,0.4,0,0.8,0v3.1
		c-0.2,0-0.6-0.2-1-0.2c-1.4,0-2.4,1-2.9,2.4c0,0.2,0,0.6,0,1v6.5h-3.1v-8.6H375.3z"/>
	<path fill="#6C6F70" d="M393.2,130.6l-1.4,4.9h-3.3l5.5-17.3h4.1l5.5,17.3h-3.5l-1.6-4.9H393.2z M398.1,128.4l-1.4-4.3
		c-0.4-1-0.6-2.2-0.8-3.3l0,0c-0.2,1-0.6,2.2-0.8,3.3l-1.4,4.3H398.1z"/>
	<path fill="#6C6F70" d="M407.1,123.1l1.2,5.7c0.2,1.4,0.6,2.7,0.8,4.1l0,0c0.2-1.4,0.6-2.7,1-4.1l1.6-5.7h2.7l1.6,5.5
		c0.4,1.4,0.8,2.9,1,4.1l0,0c0.2-1.4,0.4-2.7,0.8-4.1l1.4-5.5h3.1l-3.9,12.4h-2.9l-1.4-5.1c-0.4-1.2-0.6-2.4-1-4.1l0,0
		c-0.2,1.6-0.6,2.9-1,4.1l-1.6,5.1h-2.9l-3.7-12.4C404.1,123.1,407.1,123.1,407.1,123.1z"/>
	<path fill="#6C6F70" d="M431.2,135.5l-0.2-1.4l0,0c-0.8,1-2,1.6-3.7,1.6c-2.4,0-3.9-1.8-3.9-3.7c0-3.1,2.9-4.7,7.3-4.7v-0.2
		c0-0.8-0.4-2.2-2.4-2.2c-1.2,0-2.4,0.4-3.3,1l-0.6-2c1-0.6,2.4-1,4.5-1c4.1,0,5.1,2.4,5.1,5.3v4.5c0,1.2,0,2.2,0.2,3.1h-3.1V135.5z
		 M430.8,129.6c-2.2,0-4.3,0.4-4.3,2.2c0,1.2,0.8,1.8,1.8,1.8c1.2,0,2.2-0.8,2.4-1.6c0-0.2,0-0.4,0-0.6L430.8,129.6L430.8,129.6z"/>
	<path fill="#6C6F70" d="M437.1,127.1c0-1.6,0-2.9-0.2-4.1h2.7v2.4h0.2c0.6-1.8,2-2.7,3.5-2.7c0.4,0,0.4,0,0.8,0v3.1
		c-0.2,0-0.6-0.2-1-0.2c-1.4,0-2.4,1-2.9,2.4c0,0.2,0,0.6,0,1v6.5h-3.1V127.1z"/>
	<path fill="#6C6F70" d="M457.5,117.3V132c0,1.2,0,2.7,0.2,3.5h-2.9l-0.2-2l0,0c-0.8,1.4-2.2,2.2-4.1,2.2c-3.1,0-5.3-2.4-5.3-6.3
		c0-4.1,2.7-6.7,5.5-6.7c1.6,0,2.9,0.8,3.5,1.6l0,0v-7.1h3.3V117.3z M454.5,128.4c0-0.2,0-0.6,0-0.8c-0.2-1.2-1.2-2.2-2.7-2.2
		c-2,0-3.1,1.8-3.1,4.1c0,2.2,1.2,3.9,3.1,3.9c1.2,0,2.4-0.8,2.7-2.2c0-0.2,0-0.6,0-1V128.4z"/>
</g>
<path fill="#9A9A9B" d="M197.3,40.2l38.6-15.3c0,0,5.7-3.3,15.9,14.1c10,17.3,16.9,27.3,16.9,27.3s8,11.2,14.5,8.8
	c6.3-2.2-39.6,15.7-39.6,15.7s-6.9,1.8-14.5-13.1c-7.6-14.9-11.8-21.2-14.5-24.9C212,49.4,205.1,37.8,197.3,40.2"/>
<g opacity="0.4">
	<g>
		<rect x="229" y="69.8" fill="none" width="17.8" height="21.2"/>
		<path fill="#6F6F72" d="M229,77.6C229,77.6,229,77.8,229,77.6C235.3,90,241.2,91,243,90.8l3.9-21.2
			C245.1,76.5,234.7,77.4,229,77.6"/>
	</g>
</g>
<path fill="#838384" d="M243.3,61.8l-5.9,41.2c0,0,0,6.5-20.2,6.7c-20,0-32,1-32,1s-13.7,1.4-14.9,8.2c-1.2,6.7,6.1-42.2,6.1-42.2
	s1.8-6.9,18.6-6.1c16.5,1,24.3,0.4,28.8,0C227.9,70,241.4,69.6,243.3,61.8"/>
<g opacity="0.4">
	<g>
		<rect x="182.8" y="70.4" fill="none" width="25.3" height="19.8"/>
		<path fill="#6F6F72" d="M207.1,90.2c-5.1-4.5-1.2-13.9,1-19.2c-3.7,0-8.2-0.2-13.5-0.4c-5.3-0.2-9.2,0.2-12,1L207.1,90.2z"/>
	</g>
</g>
<path fill="#6F6F72" d="M201.4,91.8l-33.1-25.1c0,0-5.7-3.3,3.9-20.8c9.8-17.6,14.7-28.6,14.7-28.6s5.3-12.7,0.2-16.9
	C181.8-3.9,221,26.3,221,26.3s5.1,5.1-3.7,19.2c-9,14.1-12,21-13.9,25.1C201.8,74.5,195.5,86.5,201.4,91.8"/>
<g opacity="0.4">
	<g>
		<rect x="197.3" y="39" fill="none" width="23.5" height="16.9"/>
		<path fill="#838384" d="M220.8,39l-23.5,9.4c5.3-1.6,10.2,3.3,13.7,7.6c1.6-3.1,3.9-6.5,6.5-10.6C219,42.9,220,40.8,220.8,39"/>
	</g>
</g>
<path fill="#9A9A9B" d="M214.7,53.1c1.6,2.2,4.1,5.7,7.3,11.6c7.6-10.8,17.8-19.8,31-23.5c-0.4-0.8-0.8-1.4-1.4-2.2
	c-10-17.3-15.9-14.1-15.9-14.1l-38.6,15.3C205.1,37.8,212,49.4,214.7,53.1"/>
</svg>
