<?xml version="1.0" encoding="utf-8"?>
<!-- Generator: Adobe Illustrator 23.0.2, SVG Export Plug-In . SVG Version: 6.00 Build 0)  -->
<svg version="1.1" id="Layer_1" xmlns="http://www.w3.org/2000/svg" xmlns:xlink="http://www.w3.org/1999/xlink" x="0px" y="0px"
	 width="413.5px" height="283.5px" viewBox="0 0 413.5 283.5" enable-background="new 0 0 413.5 283.5" xml:space="preserve">
<path fill="#008B9D" d="M0,17C0,6.1,7.5,0,17.9,0h43.5C84.9,0,104,15.8,104,39.9c0,15.8-6.6,26.5-21.1,33.3v0.4
	c19.3,2.7,34.4,18.8,34.4,38.5c0,31.9-21.3,49.1-52.5,49.1H18.1C7.7,161.2,0,154.7,0,144V17z M136,17c0-10,6.3-16.7,15.1-16.7
	S166.2,7,166.2,17v128.8c0,10-6.3,16.7-15.1,16.7s-15.1-6.7-15.1-16.7L136,17L136,17z M220.7,20.1c0,9.4-7.5,17.4-16.9,17.4
	c-9,0-16.9-8.2-16.9-17.4c0-8.6,7.9-16.5,16.9-16.5S220.7,11.3,220.7,20.1 M188.7,65.5c0-10,6.3-16.7,15-16.7
	c8.8,0,15.1,6.7,15.1,16.7v80.3c0,10-6.3,16.7-15.1,16.7s-15-6.7-15-16.7V65.5z M305.2,82.6c-5.7,0-17.1-8.8-27-8.8
	c-5.4,0-10.2,2.5-10.2,8.4c0,14,52.3,11.9,52.3,46.2c0,20.1-16.9,35.3-42.9,35.3c-16.9,0-42-9.6-42-23.2c0-4.6,4.6-13.4,13-13.4
	c11.7,0,16.9,10.2,31.2,10.2c9.2,0,11.9-2.9,11.9-8.6c0-13.8-52.3-11.7-52.3-46.2c0-20.9,16.9-35.1,40.8-35.1
	c14.9,0,37.6,6.9,37.6,21.8C317.5,76.1,312.3,82.6,305.2,82.6 M398.4,82.6c-5.6,0-17.1-8.8-27-8.8c-5.4,0-10.2,2.5-10.2,8.4
	c0,14,52.3,11.9,52.3,46.2c0,20.1-16.9,35.3-42.9,35.3c-16.9,0-42-9.6-42-23.2c0-4.6,4.6-13.4,13-13.4c11.7,0,16.9,10.2,31.2,10.2
	c9.2,0,11.9-2.9,11.9-8.6c0-13.8-52.3-11.7-52.3-46.2c0-20.9,16.9-35.1,40.8-35.1c14.8,0,37.6,6.9,37.6,21.8
	C410.8,76.1,405.5,82.6,398.4,82.6"/>
<path fill="#D3E8ED" d="M56.9,46c-1.8,10.1-11.5,16.9-21.6,15.1c-10.1-1.8-16.9-11.4-15.1-21.6C22,29.4,31.7,22.6,41.8,24.4
	S58.7,35.8,56.9,46"/>
<path fill="#FFFFFF" d="M79.7,98.6c4.6,20.6-2.7,39.8-16.4,42.8c-13.7,3.1-28.5-11.2-33.1-31.8s2.7-39.8,16.4-42.8
	C60.2,63.8,75,78,79.7,98.6"/>
<path fill="#9DB0BB" d="M5.3,196.1H3.6c-2.1,0-3.4-1.3-3.4-3.3c0-1.9,1.4-3.4,3.4-3.4h1.7v-3.9c0-5.6,3.4-8.7,8-8.7
	c2.7,0,5.3,0.8,5.3,3.5c0,2.2-1,3.2-3.1,3.2c-1.3,0-2.6,0-2.6,2.8v3.1h2.4c2.3,0,3.9,0.9,3.9,3.4c0,2.4-1.6,3.3-3.9,3.3H13v17.7
	c0,2.6-1.6,4.3-3.8,4.3s-3.8-1.7-3.8-4.3L5.3,196.1L5.3,196.1z M46.5,203.6c0,8-5.5,14.7-13.7,14.7c-8.3,0-13.7-6.8-13.7-14.7
	c0-7.8,5.6-14.8,13.7-14.8C40.8,188.7,46.5,195.8,46.5,203.6 M26.7,203.6c0,3.7,1.9,7.7,6.1,7.7c4.1,0,6.1-4,6.1-7.7
	s-1.9-7.8-6.1-7.8C28.5,195.8,26.7,199.9,26.7,203.6 M50.1,192.9c0-2.6,2-3.8,3.9-3.8c2,0,3.7,0.7,3.7,3.2h0.1
	c1.4-2.1,3-3.2,5.4-3.2c1.9,0,3.7,1.3,3.7,4.1c0,2.5-2.3,2.7-4.6,3.7c-2.3,1.1-4.6,2.1-4.6,5.1v11.8c0,2.6-1.6,4.3-3.8,4.3
	s-3.8-1.7-3.8-4.3L50.1,192.9L50.1,192.9z M85,181c0-2.6,1.6-4.3,3.8-4.3c2.2,0,3.8,1.7,3.8,4.3v10.4c2-1.8,4.6-2.7,7.3-2.7
	c8.2,0,12.3,7.7,12.3,15.2c0,7.2-4.9,14.4-12.6,14.4c-2.6,0-5.6-1.2-7-3.5c-0.5,2-1.7,3.2-3.8,3.2c-2.2,0-3.8-1.7-3.8-4.3
	C85,213.7,85,181,85,181z M98.7,211.3c4,0,6-4.2,6-7.7c0-3.6-2-7.8-6-7.8c-4.1,0-6,3.8-6,7.6C92.6,207,94.4,211.3,98.7,211.3
	 M141.5,213c0,2,0,5-3.7,5c-2.2,0-3.1-1.2-3.7-3.2c-2,2.3-4.4,3.6-7.3,3.6c-7.2,0-12.7-6.1-12.7-14.7c0-8.4,5.6-14.8,12.7-14.8
	c2.8,0,5.6,1.1,7.3,3.5c0.2-1.9,1.8-3.2,3.7-3.2c3.7,0,3.7,3,3.7,5V213z M127.9,211.3c4,0,5.9-4,5.9-7.7s-1.9-7.8-5.9-7.8
	c-4.2,0-6.1,4.1-6.1,7.8C121.9,207.3,123.8,211.3,127.9,211.3 M145.6,181c0-2.6,1.6-4.3,3.8-4.3s3.8,1.7,3.8,4.3v10.4
	c2-1.8,4.6-2.7,7.3-2.7c8.2,0,12.3,7.7,12.3,15.2c0,7.2-4.9,14.4-12.6,14.4c-2.6,0-5.6-1.2-7-3.5c-0.5,2-1.7,3.2-3.8,3.2
	c-2.2,0-3.8-1.7-3.8-4.3V181z M159.3,211.3c4,0,6-4.2,6-7.7c0-3.6-2-7.8-6-7.8c-4.1,0-6,3.8-6,7.6
	C153.3,207,155.1,211.3,159.3,211.3 M184,181.8c0,2.4-1.9,4.4-4.3,4.4c-2.3,0-4.3-2.1-4.3-4.4c0-2.2,2-4.2,4.3-4.2
	S184,179.5,184,181.8 M175.9,193.3c0-2.6,1.6-4.3,3.8-4.3s3.8,1.7,3.8,4.3v20.4c0,2.6-1.6,4.3-3.8,4.3s-3.8-1.7-3.8-4.3V193.3z
	 M193.8,206.1c0.5,3.8,3.7,5.5,7.2,5.5c3.9,0,6.6-3.1,8.7-3.1c1.7,0,3.1,1.6,3.1,3.3c0,3.3-6.8,6.5-12.5,6.5
	c-8.6,0-14.4-6.3-14.4-14.7c0-7.8,5.6-14.8,13.7-14.8c8.3,0,13.8,7.6,13.8,13.9c0,2.3-1,3.4-3.4,3.4L193.8,206.1L193.8,206.1z
	 M205.8,201c-0.4-3.4-2.6-5.9-6.1-5.9c-3.4,0-5.7,2.6-6.1,5.9H205.8L205.8,201z M232.4,197.7c-1.4,0-4.4-2.2-6.9-2.2
	c-1.4,0-2.6,0.6-2.6,2.1c0,3.6,13.3,3,13.3,11.8c0,5.1-4.3,9-10.9,9c-4.3,0-10.7-2.5-10.7-5.9c0-1.2,1.2-3.4,3.3-3.4
	c3,0,4.3,2.6,7.9,2.6c2.3,0,3-0.7,3-2.2c0-3.5-13.3-3-13.3-11.8c0-5.3,4.3-8.9,10.4-8.9c3.8,0,9.6,1.8,9.6,5.5
	C235.6,196,234.2,197.7,232.4,197.7 M254.6,181c0-2.6,1.6-4.3,3.8-4.3c2.2,0,3.8,1.7,3.8,4.3v10.4c2-1.8,4.6-2.7,7.3-2.7
	c8.2,0,12.3,7.7,12.3,15.2c0,7.2-4.9,14.4-12.6,14.4c-2.6,0-5.6-1.2-7-3.5c-0.5,2-1.7,3.2-3.8,3.2c-2.2,0-3.8-1.7-3.8-4.3L254.6,181
	L254.6,181z M268.3,211.3c4,0,6-4.2,6-7.7c0-3.6-2-7.8-6-7.8c-4.1,0-6,3.8-6,7.6C262.3,207,264.1,211.3,268.3,211.3 M311.3,203.6
	c0,8-5.5,14.7-13.7,14.7s-13.7-6.8-13.7-14.7c0-7.8,5.6-14.8,13.7-14.8C305.7,188.7,311.3,195.8,311.3,203.6 M291.5,203.6
	c0,3.7,1.9,7.7,6.1,7.7s6.1-4,6.1-7.7s-1.9-7.8-6.1-7.8S291.5,199.9,291.5,203.6 M315,192.9c0-2.6,2-3.8,3.9-3.8
	c2,0,3.7,0.7,3.7,3.2h0.1c1.4-2.1,3-3.2,5.4-3.2c1.9,0,3.7,1.3,3.7,4.1c0,2.5-2.3,2.7-4.6,3.7c-2.3,1.1-4.6,2.1-4.6,5.1v11.8
	c0,2.6-1.6,4.3-3.8,4.3s-3.8-1.7-3.8-4.3L315,192.9L315,192.9z M333.5,193.3c0-2.6,1.6-4.3,3.8-4.3c2,0,3.2,1.1,3.5,2.8
	c1.5-2.1,3.8-3.1,7.4-3.1c6,0,10.5,3.8,10.5,10.3v14.7c0,2.6-1.6,4.3-3.8,4.3c-2.2,0-3.8-1.7-3.8-4.3v-13.4c0-3.6-2.2-5.3-5-5.3
	c-3.1,0-4.9,2.3-4.9,5.3v13.4c0,2.6-1.6,4.3-3.8,4.3c-2.2,0-3.8-1.7-3.8-4.3v-20.4H333.5z M3.6,247.5c0-2.6,1.6-4.3,3.8-4.3
	c2.1,0,3.3,1.2,3.8,3.2c1.4-2.3,4.4-3.5,7.3-3.5c8.2,0,12.3,7.7,12.3,15.2c0,7.2-4.9,14.4-12.6,14.4c-2.4,0-5-0.9-7-2.7v9.4
	c0,2.6-1.6,4.3-3.8,4.3s-3.8-1.7-3.8-4.3L3.6,247.5L3.6,247.5z M17.2,265.5c4,0,6-4.2,6-7.7c0-3.6-2-7.8-6-7.8c-4.1,0-6,3.8-6,7.6
	C11.2,261.2,13,265.5,17.2,265.5 M34,247.1c0-2.6,2-3.8,3.9-3.8c2,0,3.7,0.7,3.7,3.2h0.1c1.4-2.1,3-3.2,5.4-3.2
	c1.9,0,3.7,1.3,3.7,4.1c0,2.5-2.3,2.7-4.6,3.7c-2.3,1.1-4.6,2.1-4.6,5.1V268c0,2.6-1.6,4.3-3.8,4.3S34,270.6,34,268V247.1z
	 M57.7,260.3c0.5,3.8,3.7,5.5,7.2,5.5c3.9,0,6.6-3.1,8.7-3.1c1.7,0,3.1,1.6,3.1,3.3c0,3.3-6.8,6.5-12.5,6.5
	c-8.6,0-14.4-6.3-14.4-14.7c0-7.8,5.6-14.8,13.7-14.8c8.3,0,13.8,7.6,13.8,13.9c0,2.3-1,3.4-3.4,3.4L57.7,260.3L57.7,260.3z
	 M69.7,255.2c-0.4-3.4-2.6-5.9-6.1-5.9c-3.4,0-5.7,2.6-6.1,5.9H69.7z M80.7,247.5c0-2.6,1.6-4.3,3.8-4.3c2,0,3.2,1.1,3.5,2.9
	c1.9-2,4.3-3.2,7.1-3.2c3.2,0,5.9,1.3,7.9,3.9c2.1-2.4,5.5-3.9,8.1-3.9c6.2,0,10.5,3.6,10.5,10.3v14.7c0,2.6-1.6,4.3-3.8,4.3
	c-2.2,0-3.8-1.7-3.8-4.3v-13.4c0-3.1-1.7-5.3-4.5-5.3s-4.5,2.2-4.5,5.3v13.4c0,2.6-1.6,4.3-3.8,4.3c-2.2,0-3.8-1.7-3.8-4.3v-13.4
	c0-3.1-1.7-5.3-4.5-5.3c-3.1,0-4.5,2.2-4.5,5.3v13.4c0,2.6-1.6,4.3-3.8,4.3c-2.2,0-3.8-1.7-3.8-4.3L80.7,247.5L80.7,247.5z
	 M152.3,267.2c0,2,0,5-3.7,5c-2.2,0-3.1-1.2-3.7-3.2c-2,2.3-4.4,3.6-7.3,3.6c-7.2,0-12.7-6.1-12.7-14.7c0-8.4,5.6-14.8,12.7-14.8
	c2.8,0,5.6,1.1,7.3,3.5c0.2-1.9,1.8-3.2,3.7-3.2c3.7,0,3.7,3,3.7,5V267.2L152.3,267.2z M138.7,265.5c4,0,5.9-4,5.9-7.7
	s-1.9-7.8-5.9-7.8c-4.2,0-6.1,4.1-6.1,7.8C132.6,261.5,134.5,265.5,138.7,265.5 M160.1,250.3h-1.7c-2.1,0-3.4-1.3-3.4-3.3
	c0-1.9,1.4-3.4,3.4-3.4h1.7V239c0-2.6,1.6-4.3,3.8-4.3s3.8,1.7,3.8,4.3v4.6h2.2c2,0,3.7,0.9,3.7,3.4c0,2.4-1.7,3.3-3.7,3.3h-2.2V268
	c0,2.6-1.6,4.3-3.8,4.3s-3.8-1.7-3.8-4.3V250.3z M175.6,247.5c0-2.6,1.6-4.3,3.8-4.3s3.8,1.7,3.8,4.3v13.7c0,3.2,2.4,4.9,4.9,4.9
	c2.6,0,4.9-1.8,4.9-4.9v-13.7c0-2.6,1.6-4.3,3.8-4.3s3.8,1.7,3.8,4.3v13.8c0,6.8-4.5,11.2-12.6,11.2s-12.6-4.4-12.6-11.2v-13.8
	L175.6,247.5z M205.3,247.1c0-2.6,2-3.8,3.9-3.8c2,0,3.7,0.7,3.7,3.2h0.1c1.4-2.1,3-3.2,5.4-3.2c1.9,0,3.7,1.3,3.7,4.1
	c0,2.5-2.3,2.7-4.6,3.7c-2.3,1.1-4.6,2.1-4.6,5.1V268c0,2.6-1.6,4.3-3.8,4.3s-3.8-1.7-3.8-4.3L205.3,247.1L205.3,247.1z
	 M228.6,260.3c0.5,3.8,3.7,5.5,7.2,5.5c3.9,0,6.6-3.1,8.7-3.1c1.7,0,3.1,1.6,3.1,3.3c0,3.3-6.8,6.5-12.5,6.5
	c-8.6,0-14.4-6.3-14.4-14.7c0-7.8,5.6-14.8,13.7-14.8c8.3,0,13.8,7.6,13.8,13.9c0,2.3-1,3.4-3.4,3.4L228.6,260.3L228.6,260.3z
	 M240.7,255.2c-0.4-3.4-2.6-5.9-6.1-5.9c-3.4,0-5.7,2.6-6.1,5.9H240.7L240.7,255.2z M292.4,257.8c0,8-5.5,14.7-13.7,14.7
	s-13.7-6.8-13.7-14.7c0-7.8,5.6-14.8,13.7-14.8C286.8,243,292.4,250,292.4,257.8 M272.6,257.8c0,3.7,1.9,7.7,6.1,7.7s6.1-4,6.1-7.7
	s-1.9-7.8-6.1-7.8C274.5,249.9,272.6,254.1,272.6,257.8 M295.6,247.1c0-2.6,2-3.8,3.9-3.8c2,0,3.7,0.7,3.7,3.2h0.1
	c1.4-2.1,3-3.2,5.4-3.2c1.9,0,3.7,1.3,3.7,4.1c0,2.5-2.3,2.7-4.6,3.7c-2.3,1.1-4.6,2.1-4.6,5.1V268c0,2.6-1.6,4.3-3.8,4.3
	c-2.2,0-3.8-1.7-3.8-4.3L295.6,247.1L295.6,247.1z M345,251.9c-1.4,0-4.4-2.2-6.9-2.2c-1.4,0-2.6,0.6-2.6,2.1
	c0,3.6,13.3,3,13.3,11.8c0,5.1-4.3,9-10.9,9c-4.3,0-10.7-2.5-10.7-5.9c0-1.2,1.2-3.4,3.3-3.4c3,0,4.3,2.6,7.9,2.6c2.3,0,3-0.7,3-2.2
	c0-3.5-13.3-3-13.3-11.8c0-5.3,4.3-8.9,10.4-8.9c3.8,0,9.6,1.8,9.6,5.5C348.1,250.2,346.8,251.9,345,251.9 M359.5,235.9
	c0,2.4-1.9,4.4-4.3,4.4c-2.3,0-4.3-2.1-4.3-4.4c0-2.2,2-4.2,4.3-4.2S359.5,233.7,359.5,235.9 M351.4,247.5c0-2.6,1.6-4.3,3.8-4.3
	c2.2,0,3.8,1.7,3.8,4.3v20.4c0,2.6-1.6,4.3-3.8,4.3c-2.2,0-3.8-1.7-3.8-4.3V247.5z M382.4,251.4c-1.9,0-3.6-1.5-6.1-1.5
	c-4.4,0-6.4,3.9-6.4,7.8c0,3.8,2.3,7.7,6.4,7.7c1.9,0,4.8-1.6,5.7-1.6c1.8,0,3.3,1.5,3.3,3.4c0,3.9-6.6,5.3-9.4,5.3
	c-8.2,0-13.7-6.8-13.7-14.7c0-7.8,5.6-14.8,13.7-14.8c3,0,9.4,1.1,9.4,4.8C385.3,249.4,384.2,251.4,382.4,251.4 M388,235.1
	c0-2.6,1.6-4.3,3.8-4.3c2.2,0,3.8,1.7,3.8,4.3V253l8.4-8.1c1.2-1.2,2.5-1.6,3.5-1.6c1.9,0,3.2,1.8,3.2,3.5c0,1.1-0.4,2-1.5,3
	l-6.8,6.1l9,10.5c0.7,0.8,1,1.7,1,2.6c0,2-1.6,3.6-3.6,3.6c-1.4,0-2.5-0.9-3.7-2.3l-9.4-11.5h-0.1v9.3c0,2.6-1.6,4.3-3.8,4.3
	c-2.2,0-3.8-1.7-3.8-4.3V235.1z"/>
</svg>
