<?xml version="1.0" encoding="utf-8"?>
<!-- Generator: Adobe Illustrator 22.0.1, SVG Export Plug-In . SVG Version: 6.00 Build 0)  -->
<svg version="1.1" id="Layer_1" xmlns="http://www.w3.org/2000/svg" xmlns:xlink="http://www.w3.org/1999/xlink" x="0px" y="0px"
	 width="749.3px" height="283.5px" viewBox="0 0 749.3 283.5" style="enable-background:new 0 0 749.3 283.5;" xml:space="preserve"
	>
<style type="text/css">
	.st0{fill:#0561B9;}
	.st1{fill:#282324;}
	.st2{fill:#0B65BB;}
</style>
<title>Asset 1</title>
<g id="Layer_2">
	<g id="Layer_1-2">
		<path class="st0" d="M452.6,119.2V0h296.7v119.2H452.6z M481.5,11.6L461,107.3h24.3l13.3-65.6h0.7l20,65.6h32.2l20.4-95.8h-24.3
			l-13.4,65.9h-0.6l-19.7-66L481.5,11.6z M643.8,107.4l20-95.7H638L630.4,48h-30.7l7.5-36.3h-25.8l-20,95.7h25.8l8.5-40.8h30.7
			l-8.4,40.8L643.8,107.4z M732,33l6.2-19.1c-1.8-0.6-3.2-1.2-4.8-1.6c-12.3-2.9-25-3.5-37.4-1.6c-6,0.8-11.8,2.8-17.1,6
			c-11.4,7-14.6,18.8-12.9,30c0.9,5.8,4.5,10.8,9.7,13.6c4.6,2.6,9.5,4.5,14.3,6.7c3.2,1.3,6.3,2.9,9.2,4.7c4,2.6,5.2,8,2.5,12.1
			c-0.8,1.2-1.8,2.2-3.1,2.9c-2.1,1.3-4.5,2.2-6.9,2.7c-10.4,1.9-21.2,0.8-30.9-3.3c-0.7-0.3-1.4-0.5-2.3-0.8l-5.9,19.1
			c13.2,4.4,27.2,5.8,41.1,4.4c7.4-0.7,14.6-2.8,21.1-6.4c7.2-3.8,12.3-10.6,13.9-18.5c3-14.1-1.4-24.7-14.5-30.9
			c-2.9-1.4-6-2.6-9-3.9c-3-1.3-6-2.6-8.8-4.2s-4.8-4.1-4.4-7.7c0.3-3.4,2.8-6.2,6.2-6.8c3.4-0.8,6.8-1.3,10.3-1.4
			C716.7,28.4,724.7,29.8,732,33z"/>
		<path class="st1" d="M707.7,174.2h-10.1l5.3-20.9h12.4L707.7,174.2z"/>
		<path d="M0,152.4h12v50.4h23.2v9.4H0V152.4z"/>
		<path d="M41.3,149h11.5v11H41.3V149z M41.3,168.1h11.5v44.2H41.3V168.1z"/>
		<path d="M59.3,168.1h12.3l11,32.2h0.2l10.6-32.2h11.5l-16.2,44.2h-13L59.3,168.1z"/>
		<path d="M146.5,209.9c-4.7,2.4-9.9,3.6-15.2,3.4c-15.2-0.2-22.9-7.9-23.1-22.9c-0.2-5.9,1.6-11.8,5.1-16.5
			c3.4-4.4,8.5-6.7,15.4-6.8c8.1,0.1,13.6,2.5,16.7,7.5c2.9,4.9,4.3,11.3,4.3,19.2h-30.5c0.1,3.1,1.5,6.1,3.9,8.1
			c2.4,2.1,5.6,3.1,8.7,3c2.7,0,5.4-0.5,7.9-1.4c2.4-0.8,4.6-1.8,6.8-3.1L146.5,209.9z M138.8,185.9c0-2.6-0.8-5.2-2.3-7.3
			c-1.7-2.1-4.3-3.3-7-3.1c-2.7-0.1-5.4,0.9-7.3,2.9c-1.8,2.1-2.8,4.7-2.9,7.5L138.8,185.9z"/>
		<path d="M158.2,168.1h10.2v10h0.2c0.5-2.7,1.9-5.2,3.8-7.1c2.1-2.5,5.1-3.9,8.3-4c1.2,0,2.4,0.1,3.5,0.3V179
			c-1.6-0.7-3.4-1-5.1-0.9c-2-0.1-3.9,0.6-5.3,1.9c-1.3,1.3-2.3,2.9-2.8,4.7c-0.6,1.9-0.9,3.9-1,5.8c-0.1,2-0.2,3.9-0.2,5.6v16.2
			h-11.5L158.2,168.1z"/>
		<path d="M190.6,168.1h11v6.2h0.2c2.5-4.7,7-7.1,13.7-7.3c6.7,0.1,11.5,2.4,14.4,6.9c2.9,4.9,4.3,10.5,4.1,16.1
			c0.2,5.7-1.2,11.3-4.1,16.1c-2.9,4.6-7.8,7-14.7,7.1c-5,0.1-9.8-2.1-12.9-6.1h-0.2v23.1h-11.5L190.6,168.1z M204.5,180.8
			c-1.6,2.9-2.4,6.1-2.4,9.3c-0.1,3.3,0.7,6.5,2.3,9.4c0.8,1.3,1.8,2.5,3.1,3.4c1.4,1,3,1.5,4.7,1.4c1.7,0.1,3.4-0.4,4.8-1.4
			c1.2-0.9,2.2-2.1,2.9-3.4c0.7-1.5,1.3-3.1,1.6-4.7c0.2-1.6,0.3-3.1,0.3-4.7c0-3.2-0.6-6.4-1.9-9.3c-0.6-1.4-1.7-2.6-2.9-3.4
			c-1.4-0.9-3.1-1.4-4.7-1.3C209.1,176,206.1,177.8,204.5,180.8L204.5,180.8z"/>
		<path d="M246.1,173.3c9.4-8.2,23.5-8.2,32.9,0c4.3,4.1,6.5,9.9,6.6,17.2c0.2,6-2,11.8-6,16.2c-4,4.3-9.7,6.6-17.2,6.7
			c-7.3-0.1-13-2.3-17-6.7c-4.1-4.4-6.3-10.2-6.1-16.1C239.4,183.1,241.6,177.4,246.1,173.3z M251.5,191.7c0.1,0.9,0.3,1.9,0.4,2.8
			c0.3,1.7,0.9,3.4,1.7,5c0.8,1.4,2,2.7,3.4,3.5c1.6,1,3.4,1.5,5.3,1.4c2,0.1,3.9-0.4,5.6-1.4c1.4-0.9,2.6-2.1,3.4-3.5
			c0.9-1.5,1.5-3.2,1.7-5c0.3-1.8,0.4-3.6,0.4-5.4c0.1-3.3-0.8-6.5-2.7-9.2c-2-2.6-5.1-4.1-8.4-4c-3.3-0.1-6.4,1.4-8.2,4
			c-1.9,2.6-2.9,5.8-2.8,9.1C251.4,190,251.5,190.8,251.5,191.7L251.5,191.7z"/>
		<path d="M297.7,173.3c9.4-8.2,23.5-8.2,32.9,0c4.3,4.1,6.5,9.9,6.6,17.2c0.2,6-2,11.8-6,16.2c-4,4.3-9.7,6.6-17.2,6.7
			c-7.3-0.1-13-2.3-17-6.7c-4.1-4.4-6.3-10.2-6.1-16.1C291.1,183.1,293.3,177.4,297.7,173.3z M303.2,191.7c0.1,0.9,0.3,1.9,0.4,2.8
			c0.3,1.7,0.9,3.4,1.7,5c0.8,1.4,2,2.7,3.4,3.5c1.6,1,3.4,1.5,5.3,1.4c2,0.1,3.9-0.4,5.6-1.4c1.4-0.9,2.6-2.1,3.4-3.5
			c0.9-1.5,1.5-3.2,1.7-5c0.3-1.8,0.4-3.6,0.4-5.4c0.1-3.3-0.8-6.5-2.7-9.2c-2-2.6-5.1-4.1-8.4-4c-3.3-0.1-6.4,1.4-8.2,4
			c-1.9,2.6-2.9,5.8-2.8,9.1C303.1,190,303.1,190.8,303.2,191.7L303.2,191.7z"/>
		<path d="M345.7,148h11.5v64.3h-11.5V148z"/>
		<path d="M386.5,152.4h12.7l11.1,47.8h0.2l10.2-47.8H437l10.5,47.8h0.2l11.2-47.8h11.7L455,212.3h-15.5l-10.8-47.8h-0.2l-10.6,47.8
			h-15.5L386.5,152.4z"/>
		<path d="M480.4,173.3c9.4-8.2,23.5-8.2,32.9,0c4.3,4.1,6.5,9.9,6.6,17.2c0.2,6-2,11.8-6,16.2c-4,4.3-9.7,6.6-17.2,6.7
			c-7.3-0.1-13-2.3-17-6.7c-4.1-4.4-6.3-10.2-6.1-16.1C473.8,183.1,476.1,177.4,480.4,173.3z M485.9,191.7c0.1,0.9,0.3,1.9,0.4,2.8
			c0.3,1.7,0.9,3.4,1.7,5c0.8,1.4,2,2.7,3.4,3.5c1.6,1,3.4,1.5,5.3,1.4c2,0.1,3.9-0.4,5.6-1.4c1.4-0.9,2.6-2.1,3.4-3.5
			c0.9-1.5,1.5-3.2,1.7-5c0.3-1.8,0.4-3.6,0.4-5.4c0.1-3.3-0.8-6.5-2.7-9.2c-2-2.6-5.1-4.1-8.4-4c-3.3-0.1-6.4,1.4-8.2,4
			c-1.9,2.6-2.9,5.8-2.8,9.1C485.8,190,485.8,190.8,485.9,191.7L485.9,191.7z"/>
		<path d="M528,168.1h10.7v6.2h0.2c1.6-2.4,3.8-4.3,6.3-5.6c2.1-1,4.4-1.5,6.8-1.5c6.2-0.1,10.5,2.5,13,7.8c1.3-2.6,3.4-4.6,6-5.9
			c2.4-1.2,5.1-1.9,7.8-1.9c5.4,0.1,9.1,1.7,11.1,4.9c2.1,3.8,3.1,8.1,2.8,12.4v27.8h-11.5v-26.3c0.1-2.2-0.2-4.4-0.8-6.5
			c-0.4-1-1-1.9-1.9-2.5c-1.2-0.7-2.6-1-4-0.9c-1.6-0.1-3.2,0.4-4.5,1.4c-1.2,1-2.1,2.3-2.7,3.8c-0.6,1.5-0.9,3.1-1.1,4.7
			c-0.2,1.6-0.3,3.3-0.3,4.9v21.5h-11.5v-26.3c0.1-2.2-0.2-4.4-0.8-6.5c-0.4-1-1-1.9-1.9-2.5c-1.2-0.7-2.6-1-4-0.9
			c-1.6-0.1-3.2,0.4-4.5,1.4c-1.2,1-2.1,2.3-2.7,3.8c-0.6,1.5-1,3.1-1.1,4.7c-0.2,1.6-0.3,3.3-0.3,4.9v21.5h-11.5L528,168.1z"/>
		<path d="M639.1,209.9c-4.7,2.4-9.9,3.6-15.2,3.4c-15.2-0.2-22.9-7.9-23.1-22.9c-0.2-5.9,1.6-11.8,5.2-16.5
			c3.4-4.4,8.5-6.7,15.4-6.8c8.1,0.1,13.6,2.5,16.7,7.5c2.9,4.9,4.3,11.3,4.2,19.2h-30.5c0.1,3.1,1.5,6.1,3.9,8.1
			c2.4,2.1,5.6,3.1,8.7,3c2.7,0,5.4-0.5,7.9-1.4c2.4-0.8,4.6-1.8,6.8-3.1V209.9z M631.3,185.9c0-2.6-0.8-5.2-2.3-7.3
			c-1.7-2.1-4.3-3.3-7-3.1c-2.7-0.1-5.4,0.9-7.3,2.9c-1.8,2.1-2.8,4.7-2.9,7.5L631.3,185.9z"/>
		<path d="M650.6,168.1h10.9v6h0.2c3.4-4.6,8.8-7.2,14.5-7c5.2,0.1,9,1.7,11.5,4.9c2.5,3.7,3.7,8,3.5,12.4v27.9h-11.5v-23.6
			c0-1.4,0-2.9-0.1-4.4c0-1.4-0.3-2.8-0.9-4c-0.4-1.3-1.1-2.4-2.1-3.2c-1.3-0.8-2.8-1.2-4.4-1.1c-1.8-0.1-3.5,0.4-5,1.4
			c-1.3,1-2.3,2.3-3.1,3.7c-0.7,1.5-1.3,3.1-1.5,4.7c-0.3,1.6-0.5,3.2-0.5,4.8v21.7h-11.5V168.1z"/>
		<path d="M744.8,177.4c-1.6-0.6-3.2-1.1-4.8-1.4c-1.8-0.3-3.6-0.5-5.5-0.4c-1.5,0-3.1,0.3-4.5,0.9c-1.5,0.7-2.4,2.3-2.3,4
			c0.1,1.7,1.1,2.8,3.2,3.5c1.1,0.4,2.2,0.8,3.3,1.1c1.2,0.3,2.4,0.7,3.6,1.2c1.3,0.4,2.6,0.9,3.8,1.5c1.1,0.7,2.2,1.5,3.1,2.4
			c1,1,1.8,2.2,2.3,3.5c0.6,1.7,0.8,3.5,0.8,5.2c-0.1,5.1-2,8.8-5.6,11.1c-3.9,2.3-8.3,3.5-12.9,3.3c-4.4-0.1-8.8-0.7-13-1.9
			l0.7-9.4c3.5,1.9,7.4,2.9,11.3,2.9c1.7,0,3.4-0.4,4.9-1.2c1.7-0.7,2.8-2.4,2.7-4.2c0-1-0.2-2-0.8-2.8c-0.6-0.7-1.4-1.3-2.3-1.6
			c-2.2-0.9-4.5-1.6-6.9-2.2c-1.2-0.4-2.4-0.9-3.6-1.4c-1.2-0.6-2.3-1.3-3.3-2.2c-1-1-1.8-2.1-2.2-3.4c-0.7-1.5-1-3.2-0.9-4.9
			c0.1-4.8,1.9-8.3,5.4-10.5c3.6-2.2,7.7-3.4,11.9-3.3c2.4,0,4.7,0.1,7,0.4c1.9,0.3,3.8,0.7,5.5,1.2L744.8,177.4z"/>
		<path class="st2" d="M177.8,244h9.5l14.8,29h0.1v-29h7.4v38.8h-9.5l-14.8-29h-0.1v29h-7.4L177.8,244z"/>
		<path class="st2" d="M218.7,244h7.8v15.7H242V244h7.8v38.8H242v-17h-15.5v17h-7.8L218.7,244z"/>
		<path class="st2" d="M272.1,249.4c-0.7,0-1.3,0.1-2,0.2c-0.7,0.2-1.4,0.4-2,0.8c-0.6,0.4-1.2,1-1.5,1.7c-0.4,0.8-0.6,1.7-0.6,2.7
			c0,0.8,0.3,1.5,0.8,2.1c0.6,0.6,1.2,1.1,1.9,1.5c0.9,0.5,1.8,0.9,2.8,1.2l3.1,1.3c1.1,0.4,2.1,0.9,3.1,1.4c1,0.6,1.9,1.3,2.7,2.2
			c0.8,0.9,1.5,1.9,1.9,2.9c0.5,1.4,0.7,2.8,0.7,4.2c-0.1,4.2-1.5,7.2-4.2,9c-3.1,1.9-6.7,2.9-10.3,2.7c-1.7,0-3.4-0.1-5-0.4
			c-1.4-0.3-3-0.6-4.9-1.1l0.7-7c2.7,1.5,5.7,2.4,8.8,2.4c1.6,0,3.2-0.4,4.6-1.2c1.4-0.7,2.3-2.2,2.3-3.8c0-0.8-0.3-1.6-0.7-2.2
			c-0.5-0.7-1.2-1.2-1.9-1.7c-1.9-1-3.8-1.8-5.8-2.6c-1.1-0.4-2.1-1-3.1-1.6c-1-0.6-2-1.2-2.8-2c-0.8-0.9-1.5-1.9-1.9-2.9
			c-0.5-1.3-0.8-2.7-0.8-4c0.1-4.3,1.5-7.4,4.2-9.2c2.8-1.8,6-2.7,9.3-2.6c3.1,0,6.3,0.5,9.3,1.4l-0.7,6.4
			C277.5,250,274.8,249.5,272.1,249.4z"/>
		<path class="st2" d="M306.3,244h21.6v6.1H314v9.5h13.1v6.1H314v17h-7.8V244z"/>
		<path class="st2" d="M336.2,257.5c6.1-5.3,15.2-5.3,21.3,0c2.8,2.7,4.2,6.4,4.2,11.2c0.1,3.9-1.3,7.6-3.9,10.4
			c-2.6,2.8-6.3,4.3-11.1,4.3c-4.7-0.1-8.4-1.5-11-4.3C330.4,272.8,330.6,263.5,336.2,257.5L336.2,257.5z M339.8,269.4
			c0.1,0.6,0.2,1.2,0.3,1.8c0.2,1.1,0.6,2.2,1.1,3.2c0.5,0.9,1.3,1.7,2.2,2.3c1,0.7,2.2,1,3.4,0.9c1.3,0,2.5-0.3,3.6-0.9
			c0.9-0.6,1.7-1.3,2.2-2.3c0.6-1,0.9-2.1,1.1-3.2c0.2-1.2,0.3-2.3,0.3-3.5c0.1-2.1-0.5-4.2-1.7-5.9c-1.3-1.7-3.4-2.7-5.5-2.6
			c-2.1-0.1-4.1,0.9-5.3,2.6c-1.2,1.7-1.9,3.8-1.8,5.9C339.7,268.3,339.7,268.8,339.8,269.4L339.8,269.4z"/>
		<path class="st2" d="M394.3,282.7h-7v-3.9h-0.1c-2.2,2.9-5.7,4.6-9.4,4.6c-3.4,0-5.8-1.1-7.3-3.2c-1.7-2.3-2.5-5.1-2.4-8v-18.1
			h7.4v15.3c0,0.4,0,0.9,0.1,1.3c0,0.4,0,0.9,0,1.4c0.1,0.9,0.2,1.8,0.5,2.7c0.3,0.8,0.8,1.5,1.4,2c0.8,0.6,1.7,0.9,2.7,0.8
			c1.2,0,2.4-0.3,3.4-1.1c0.8-0.6,1.5-1.4,1.9-2.4c0.5-0.9,0.9-2,1-3.1c0.1-1,0.2-2,0.2-3v-14.1h7.4L394.3,282.7z"/>
		<path class="st2" d="M402.4,254.1h7v3.9h0.1c2.2-3,5.7-4.7,9.4-4.6c2.8-0.2,5.6,1,7.4,3.2c1.6,2.4,2.4,5.2,2.3,8.1v18.1h-7.4
			v-15.3c0-0.9,0-1.9,0-2.8c0-0.9-0.2-1.8-0.5-2.6c-0.2-0.8-0.7-1.5-1.4-2.1c-0.8-0.5-1.8-0.8-2.8-0.7c-1.1-0.1-2.3,0.3-3.2,0.9
			c-0.8,0.6-1.5,1.5-2,2.4c-0.5,1-0.8,2-1,3.1c-0.2,1-0.3,2.1-0.3,3.1v14.1h-7.4L402.4,254.1z"/>
		<path class="st2" d="M455.7,279.5h-0.1c-2.2,2.6-5.4,4-8.8,3.9c-4.3-0.1-7.4-1.6-9.3-4.6c-3.6-6.5-3.6-14.4,0-20.9
			c1.9-2.9,5-4.4,9.3-4.4c3.3-0.1,6.5,1.4,8.5,4h0.1v-16.4h7.4v41.7h-7.2V279.5z M444,274.5c0.5,0.9,1.1,1.6,1.9,2.2
			c0.9,0.7,1.9,1,3,0.9c1.1,0.1,2.2-0.3,3.2-0.9c0.8-0.6,1.5-1.3,2-2.2c0.5-0.9,0.9-1.9,1.1-3c0.2-1,0.3-2.1,0.3-3.1
			c0-2.1-0.5-4.2-1.5-6.1c-0.5-0.9-1.2-1.6-2.1-2.2c-0.9-0.6-2-0.9-3.1-0.8c-2.1-0.1-4,1.1-4.9,3.1c-0.5,0.9-0.8,1.9-0.9,2.9
			c-0.2,1-0.3,2.1-0.3,3.1C442.6,270.5,443.1,272.5,444,274.5L444,274.5z"/>
		<path class="st2" d="M472.3,255.6c3.1-1.4,6.5-2.1,9.9-2.2c8.3-0.1,12.4,3.9,12.3,12v3.7c0,2.8,0,5.2,0.1,7.2
			c0.1,2,0.2,4.1,0.3,6.4h-6.6c-0.2-1.4-0.3-2.8-0.3-4.2H488c-0.9,1.5-2.2,2.8-3.7,3.6c-1.6,0.9-3.3,1.3-5.1,1.3
			c-2.5,0-4.9-0.8-6.8-2.2c-2.1-1.4-3.3-3.8-3.2-6.3c-0.1-1.8,0.4-3.7,1.4-5.2c0.8-1.3,2-2.3,3.4-2.9c1.5-0.7,3.1-1.2,4.7-1.4
			c1.6-0.2,3.3-0.3,4.9-0.3h4.1c0.2-1.8-0.4-3.5-1.6-4.8c-1.4-1-3.2-1.5-4.9-1.3c-3.2,0-6.3,1.1-8.8,3.1L472.3,255.6z M477.7,277.1
			c1,0.6,2.2,0.9,3.3,0.9c2.1,0.1,4-0.9,5.2-2.6c1.1-1.8,1.6-3.8,1.6-5.9h-4.5c-0.4,0-0.9,0-1.3,0.1c-0.9,0.1-1.9,0.3-2.7,0.7
			c-0.8,0.3-1.5,0.8-2.1,1.5c-0.6,0.7-0.9,1.7-0.9,2.7C476.2,275.5,476.8,276.5,477.7,277.1L477.7,277.1z"/>
		<path class="st2" d="M504.7,259.6h-5.5v-5.4h5.5v-5.7l7.4-2.4v8.1h6.6v5.4h-6.6v13.3c-0.1,1.1,0.2,2.2,0.7,3.2
			c0.6,1,1.7,1.6,2.8,1.5c1.2,0.1,2.4-0.2,3.4-0.8l0.2,5.9c-1.8,0.5-3.6,0.7-5.5,0.7c-6-0.1-9-3.2-9.1-9.3L504.7,259.6z"/>
		<path class="st2" d="M524.5,241.8h7.4v7h-7.4V241.8z M524.5,254.2h7.4v28.6h-7.4V254.2z"/>
		<path class="st2" d="M542.6,257.5c6.1-5.3,15.2-5.3,21.3,0c2.8,2.7,4.2,6.4,4.2,11.2c0.1,3.9-1.3,7.6-3.9,10.4
			c-2.6,2.8-6.3,4.3-11.1,4.3c-4.7-0.1-8.4-1.5-11-4.3C536.8,272.8,536.9,263.5,542.6,257.5L542.6,257.5z M546.2,269.4
			c0.1,0.6,0.2,1.2,0.3,1.8c0.2,1.1,0.6,2.2,1.1,3.2c0.5,0.9,1.3,1.7,2.2,2.3c1,0.7,2.2,1,3.4,0.9c1.3,0,2.5-0.3,3.6-0.9
			c0.9-0.6,1.7-1.3,2.2-2.3c0.6-1,0.9-2.1,1.1-3.2c0.2-1.2,0.3-2.3,0.3-3.5c0.1-2.1-0.5-4.2-1.7-5.9c-1.3-1.7-3.4-2.7-5.5-2.6
			c-2.1-0.1-4.1,0.9-5.3,2.6c-1.2,1.7-1.9,3.8-1.8,5.9C546.1,268.3,546.1,268.8,546.2,269.4L546.2,269.4z"/>
		<path class="st2" d="M574.4,254.1h7v3.9h0.1c2.2-3,5.7-4.7,9.4-4.6c2.8-0.2,5.6,1,7.4,3.2c1.6,2.4,2.4,5.2,2.3,8.1v18.1h-7.4
			v-15.3c0-0.9,0-1.9,0-2.8c0-0.9-0.2-1.8-0.5-2.6c-0.2-0.8-0.7-1.5-1.4-2.1c-0.8-0.5-1.8-0.8-2.8-0.7c-1.1-0.1-2.3,0.3-3.2,0.9
			c-0.8,0.6-1.5,1.5-2,2.4c-0.5,1-0.8,2-1,3.1c-0.2,1-0.3,2.1-0.3,3.1v14.1h-7.4L574.4,254.1z"/>
		<path class="st2" d="M632.3,250.1h-11.1V244h30v6.1h-11.1v32.7h-7.8V250.1z"/>
		<path class="st2" d="M650.5,254.1h6.6v6.5h0.1c0.4-1.7,1.2-3.3,2.4-4.6c1.3-1.6,3.3-2.5,5.4-2.6c0.8,0,1.5,0.1,2.3,0.2v7.5
			c-1-0.5-2.2-0.7-3.3-0.6c-1.3-0.1-2.5,0.4-3.4,1.2c-0.9,0.8-1.5,1.9-1.8,3.1c-0.4,1.2-0.6,2.5-0.7,3.8c-0.1,1.3-0.1,2.5-0.1,3.6
			v10.5h-7.4L650.5,254.1z"/>
		<path class="st2" d="M698.8,282.7h-7v-3.9h-0.1c-2.2,2.9-5.7,4.6-9.4,4.6c-3.4,0-5.8-1.1-7.3-3.2c-1.7-2.3-2.5-5.1-2.4-8v-18.1
			h7.4v15.3c0,0.4,0,0.9,0.1,1.3c0,0.4,0,0.9,0,1.4c0.1,0.9,0.2,1.8,0.5,2.7c0.3,0.8,0.8,1.5,1.4,2c0.8,0.6,1.7,0.9,2.7,0.8
			c1.2,0,2.4-0.3,3.4-1.1c0.8-0.6,1.5-1.4,1.9-2.4c0.5-0.9,0.9-2,1-3.1c0.1-1,0.2-2,0.2-3v-14.1h7.5V282.7z"/>
		<path class="st2" d="M723.3,260.1c-1-0.4-2.1-0.7-3.1-0.9c-1.2-0.2-2.4-0.3-3.6-0.3c-1,0-2,0.2-2.9,0.6c-1,0.5-1.6,1.5-1.5,2.6
			c0,1.1,0.7,1.8,2.1,2.3c0.7,0.3,1.4,0.5,2.1,0.7c0.8,0.2,1.6,0.5,2.3,0.8c0.8,0.3,1.7,0.6,2.4,1c0.7,0.4,1.4,1,2,1.6
			c0.6,0.7,1.2,1.4,1.5,2.3c0.4,1.1,0.5,2.2,0.5,3.4c0.1,2.9-1.3,5.6-3.7,7.2c-2.5,1.5-5.4,2.2-8.3,2.2c-2.9,0-5.7-0.5-8.4-1.2
			l0.4-6.1c2.2,1.2,4.8,1.9,7.3,1.9c1.1,0,2.2-0.3,3.2-0.8c1.1-0.5,1.8-1.5,1.7-2.7c0-0.6-0.2-1.3-0.5-1.8c-0.4-0.5-0.9-0.8-1.5-1.1
			c-1.5-0.6-2.9-1-4.4-1.4c-0.8-0.3-1.6-0.6-2.3-0.9c-0.8-0.4-1.5-0.8-2.1-1.4c-0.6-0.6-1.1-1.4-1.4-2.2c-0.4-1-0.6-2.1-0.6-3.2
			c-0.2-2.7,1.2-5.3,3.5-6.8c2.3-1.5,5-2.2,7.7-2.1c1.5,0,3,0.1,4.6,0.3c1.3,0.2,2.4,0.5,3.6,0.8L723.3,260.1z"/>
		<path class="st2" d="M733.4,259.6h-5.5v-5.4h5.5v-5.7l7.4-2.4v8.1h6.6v5.4h-6.6v13.3c-0.1,1.1,0.2,2.2,0.7,3.2
			c0.6,1,1.7,1.6,2.8,1.5c1.2,0.1,2.4-0.2,3.4-0.8l0.2,5.9c-1.8,0.5-3.6,0.7-5.5,0.7c-6-0.1-9-3.2-9.1-9.3L733.4,259.6z"/>
	</g>
</g>
</svg>
