<?xml version="1.0" encoding="utf-8"?>
<!-- Generator: Adobe Illustrator 23.0.3, SVG Export Plug-In . SVG Version: 6.00 Build 0)  -->
<svg version="1.1" id="Layer_1" xmlns="http://www.w3.org/2000/svg" xmlns:xlink="http://www.w3.org/1999/xlink" x="0px" y="0px"
	 width="1832.4px" height="283.5px" viewBox="0 0 1832.4 283.5" enable-background="new 0 0 1832.4 283.5" xml:space="preserve">
<g>
	<path d="M1232.2,0c-5.6,0-10.1,1.6-13.4,4.9c-3.9,3.9-5.8,9.8-5.8,17.8v10h-11.1v6.4h11.1v56h7.8v-56h20v-6.4h-20v-10
		c0-6.1,1.2-10.3,3.6-12.7c2.1-2.1,4.9-3.1,8.6-3.1c3.6,0,6.6,0.9,9.2,2.6l3.1-5.5C1242.2,1.3,1237.8,0,1232.2,0 M1179.9,83
		c-3.6,4.6-8.6,6.9-14.9,6.9c-5.9,0-10.8-2.4-14.6-7.2c-3.9-4.8-5.8-11.1-5.8-18.9c0-7.8,1.8-14,5.5-18.7c3.7-4.7,8.6-7,14.8-7
		c5.9,0,10.8,2.5,14.6,7.3c3.9,4.9,5.8,11.2,5.8,18.9C1185.3,72.1,1183.5,78.4,1179.9,83 M1185.7,40.1c-5.1-5.9-11.9-8.9-20.3-8.9
		c-8.9,0-16,3-21.1,8.9c-5.2,5.9-7.7,13.9-7.7,23.9c0,10,2.6,17.9,7.7,23.9c5.2,5.9,12,8.9,20.5,8.9c8.8,0,15.7-2.9,20.9-8.8
		c5.2-5.8,7.7-13.7,7.7-23.5C1193.4,54.2,1190.8,46,1185.7,40.1 M1092.2,87.6c-1,0.3-2,0.7-3,1c-2.2,0.6-4.3,0.9-6.2,0.9
		c-4.6,0-7.5-1.4-8.7-4.3c-0.7-1.6-1-5.2-1-10.8V39.1h20v-6.4h-20V15.1h-7.8v17.7h-10.9v6.4h10.9v36.9c0,4.5,0.2,7.7,0.5,9.5
		c0.4,2.8,1.5,5,3.1,6.6c2.9,2.9,7.2,4.4,12.9,4.4c4.2,0,8.4-1,12.3-3L1092.2,87.6z M1043.4,57.6c0-5.3-0.2-9.1-0.6-11.3
		c-0.8-4-2.5-7.3-5.1-9.9c-3.5-3.5-8.3-5.2-14.4-5.2c-7.2,0-14,2-20.5,6.1v-4.5h-7.4v62.4h7.8v-51c0.7-0.7,2.8-1.7,6.2-3.1
		c4.7-2,9-3,12.9-3c4.2,0,7.4,1.2,9.7,3.5c1.6,1.6,2.7,4,3.3,7c0.3,1.8,0.4,5.2,0.4,10.1v36.4h7.8L1043.4,57.6L1043.4,57.6z
		 M935.9,58.9c0.3-6.4,2.4-11.5,6.2-15.3c3.8-3.8,8.5-5.7,14-5.7c5.6,0,9.8,2.3,12.9,7c2.4,3.9,3.6,8.6,3.6,14H935.9z M973.7,39
		c-4.4-5.2-10.3-7.8-17.7-7.8c-8.7,0-15.6,3-20.7,9c-5.2,6-7.7,14.1-7.7,24.1c0,9.6,2.6,17.4,7.7,23.3c5.2,5.9,12.2,8.8,21.1,8.8
		c5.4,0,10.7-1,15.9-3c3.7-1.6,5.9-2.7,6.4-3.4l-3.5-6c-6.8,3.4-12.8,5.1-18.1,5.1c-6.8,0-12.1-2.2-15.9-6.5
		c-3.7-4.3-5.6-10.1-5.6-17.2h44.7c0-0.5,0-1.3,0.1-2.3c0.1-1,0.1-1.6,0.1-1.8C980.6,51.9,978.3,44.5,973.7,39 M913.8,62.1
		c0-7.3-0.2-12.2-0.7-14.8c-0.8-4.4-2.6-8.1-5.5-10.9c-3.5-3.5-8.1-5.2-13.9-5.2c-7.2,0-14.7,2.4-22.6,7.3
		c-3.5-4.9-8.6-7.3-15.5-7.3c-6.4,0-13,2-19.8,6.1v-4.5h-7.4v62.4h7.8v-51c6-4,12.2-6,18.6-6c3.9,0,6.9,1.1,9.1,3.3
		c1.6,1.6,2.6,4,3,7.3c0.3,1.9,0.4,6,0.4,12.2v34.2h7.8V58.9c0-8.2-0.4-13.2-1.2-14.8c6.5-3.8,12.8-5.7,19-5.7
		c4.1,0,7.2,1.1,9.4,3.3c2.4,2.4,3.6,7.9,3.6,16.4v37.2h7.8L913.8,62.1L913.8,62.1z M811.9,87.6c-1,0.3-2,0.7-3,1
		c-2.2,0.6-4.3,0.9-6.2,0.9c-4.6,0-7.5-1.4-8.7-4.3c-0.7-1.6-1-5.2-1-10.8V39.1h20v-6.4h-20V15.1h-7.8v17.7h-10.9v6.4h10.9v36.9
		c0,4.5,0.2,7.7,0.5,9.5c0.4,2.8,1.5,5,3.1,6.6c2.9,2.9,7.2,4.4,12.9,4.4c4.2,0,8.4-1,12.3-3L811.9,87.6z M760.2,31.1
		c-7.7,0-14.3,3.3-19.8,9.9v-8.2h-7.4v62.4h7.8v-46c0.7-1,1.4-2.1,2.2-3.1c1.7-2.1,3.8-3.8,6.1-5.1c3.2-1.8,6.8-2.7,10.7-2.7
		c1.6,0,3.3,0.1,5.1,0.4l1.8-6.5C764.7,31.4,762.5,31.1,760.2,31.1 M690.5,89.6c-4.6,0-8.1-1.2-10.5-3.6c-2.2-2.2-3.2-4.9-3.2-8.3
		c0-9.4,9.2-14.2,27.7-14.2h3.5v21.1C700.7,87.9,694.9,89.6,690.5,89.6 M715.8,55c0-4.4-0.2-7.6-0.7-9.6c-0.6-3.3-2-6.1-4.3-8.3
		c-4-4-9.6-6-16.9-6c-5.5,0-10.6,1-15.3,3c-3.1,1.3-5.2,2.4-6.1,3.4l3.2,5.5c5.8-3.3,11.6-4.9,17.3-4.9c5.6,0,9.5,1.2,11.8,3.6
		c2.1,2.2,3.1,6.5,3.1,13.1v2.3h-3.3c-24,0-36,6.8-36,20.4c0,5.6,1.8,10.2,5.5,13.7c3.7,3.5,8.5,5.3,14.5,5.3c4.6,0,9.2-1,13.9-2.9
		c2-1,4-2.1,6-3.1v4.7h7.2L715.8,55L715.8,55z M643.8,82.1c-4.1,5-9.6,7.5-16.3,7.5c-4.5,0-9.3-1.4-14.3-4.2V44.2
		c4.9-4.1,10.4-6.1,16.8-6.1c5.9,0,10.7,2.3,14.4,6.8c3.7,4.5,5.6,10.4,5.6,17.6C650,70.6,647.9,77.1,643.8,82.1 M650.5,39.9
		c-5-5.8-11.6-8.6-19.8-8.6c-6.8,0-12.7,1.9-17.9,5.8v-4.3h-7.4v90.1h7.8V93c3.7,2.3,8.5,3.5,14.2,3.5c9,0,16.4-3.1,22.1-9.4
		c5.7-6.3,8.6-14.4,8.6-24.4C658,53.2,655.5,45.6,650.5,39.9 M546,58.9c0.3-6.4,2.4-11.5,6.2-15.3c3.8-3.8,8.5-5.7,14-5.7
		c5.5,0,9.8,2.3,12.9,7c2.4,3.9,3.6,8.6,3.6,14H546z M583.8,39c-4.4-5.2-10.3-7.8-17.7-7.8c-8.7,0-15.6,3-20.7,9
		c-5.2,6-7.7,14.1-7.7,24.1c0,9.6,2.6,17.4,7.7,23.3c5.2,5.9,12.2,8.8,21.1,8.8c5.4,0,10.7-1,15.9-3c3.7-1.6,5.9-2.7,6.4-3.4l-3.5-6
		c-6.8,3.4-12.8,5.1-18.1,5.1c-6.9,0-12.1-2.2-15.9-6.5c-3.7-4.3-5.6-10.1-5.6-17.2h44.7c0-0.5,0-1.3,0.1-2.3c0.1-1,0.1-1.6,0.1-1.8
		C590.7,51.9,588.4,44.5,583.8,39 M506.7,79.2c-3.9,3.9-8.6,6.5-14,7.8c-3.8,0.9-9.5,1.3-16.9,1.3h-11.8V15.3h8.6
		c9.4,0,16.3,0.5,20.4,1.4c5.2,1.1,9.6,3.5,13.3,7.1c6.9,6.9,10.3,15.9,10.3,27.2C516.5,63.3,513.2,72.7,506.7,79.2 M512.4,19.2
		c-4.5-4.5-10.2-7.5-17.2-9.1c-5.1-1.1-12.8-1.7-23-1.7h-16.6v86.7h19.6c9.2,0,16.1-0.6,20.7-1.7c6.3-1.6,11.8-4.7,16.5-9.4
		c8.3-8.3,12.5-19.2,12.5-32.8C524.9,38.3,520.7,27.6,512.4,19.2 M379.5,89.6c-5.9,0-10.7-2.3-14.5-6.8c-3.8-4.5-5.7-10.4-5.7-17.6
		c0-8.1,2.1-14.7,6.2-19.7c4.2-5,9.6-7.5,16.4-7.5c4.6,0,9.3,1.4,14.2,4.2v41.2C390.4,87.5,384.8,89.6,379.5,89.6 M404.1,1.6h-7.9
		v33.2c-3.9-2.3-8.6-3.5-14.2-3.5c-9,0-16.4,3.1-22.1,9.4c-5.7,6.3-8.6,14.4-8.6,24.4c0,9.4,2.5,17.1,7.5,22.8
		c5,5.8,11.7,8.6,19.9,8.6c7.2,0,13.3-2,18.2-6v4.7h7.1L404.1,1.6C404.1,1.6,404.1,1.6,404.1,1.6z M336.6,1.6h-7.8v93.6h7.8V1.6z
		 M269.4,58.9c0.3-6.4,2.4-11.5,6.2-15.3c3.8-3.8,8.5-5.7,14-5.7c5.5,0,9.8,2.3,12.9,7c2.4,3.9,3.6,8.6,3.6,14H269.4z M307.2,39
		c-4.4-5.2-10.3-7.8-17.7-7.8c-8.7,0-15.6,3-20.7,9c-5.2,6-7.7,14.1-7.7,24.1c0,9.6,2.6,17.4,7.7,23.3c5.2,5.9,12.2,8.8,21.1,8.8
		c5.4,0,10.7-1,15.9-3c3.7-1.6,5.9-2.7,6.4-3.4l-3.5-6c-6.8,3.4-12.8,5.1-18.1,5.1c-6.9,0-12.1-2.2-15.9-6.5
		c-3.7-4.3-5.6-10.1-5.6-17.2h44.7c0-0.5,0-1.3,0.1-2.3c0.1-1,0.1-1.6,0.1-1.8C314.1,51.9,311.8,44.5,307.2,39 M246.4,32.8h-7.8
		v62.4h7.8V32.8z M246.2,8c-1-1-2.2-1.5-3.7-1.5c-1.4,0-2.6,0.5-3.6,1.5c-1,1-1.6,2.2-1.6,3.7c0,1.4,0.5,2.6,1.6,3.6
		c1,1,2.3,1.6,3.6,1.6c1.5,0,2.7-0.5,3.7-1.6c1-1,1.5-2.3,1.5-3.6C247.7,10.2,247.2,9,246.2,8 M217,0c-5.6,0-10.1,1.6-13.4,4.9
		c-3.9,3.9-5.9,9.8-5.9,17.8v10h-11.1v6.4h11.1v56h7.8v-56h20v-6.4h-20v-10c0-6.1,1.2-10.3,3.6-12.7c2.1-2.1,4.9-3.1,8.6-3.1
		c3.6,0,6.6,0.9,9.2,2.6l3.1-5.5C226.9,1.3,222.6,0,217,0 M169.9,0c-5.6,0-10.1,1.6-13.4,4.9c-3.9,3.9-5.9,9.8-5.9,17.8v10h-11.1
		v6.4h11.1v56h7.8v-56h20v-6.4h-20v-10c0-6.1,1.2-10.3,3.6-12.7c2.1-2.1,4.9-3.1,8.6-3.1c3.6,0,6.6,0.9,9.2,2.6l3.1-5.5
		C179.9,1.3,175.5,0,169.9,0 M127.6,32.8h-7.8v50.7c-2.2,1-4.3,2.1-6.5,3.2c-4.5,1.9-8.7,2.9-12.6,2.9c-4,0-7.2-1.2-9.7-3.7
		c-2.5-2.5-3.7-7.8-3.7-15.9V32.8h-7.8v35.6c0,5.8,0.1,9.7,0.4,11.6c0.8,4.6,2.5,8.2,5.2,10.9c3.7,3.7,8.8,5.6,15.1,5.6
		c7.3,0,14-2.1,20.3-6.2v4.9h7.2L127.6,32.8L127.6,32.8z M60.1,8.4h-7.7l0.3,75.2L9.1,8.4H0v86.7h7.7L7.4,20.7l43.2,74.5h9.5
		L60.1,8.4L60.1,8.4z"/>
	<path d="M1832.4,142.9h-13.3v59.8h-69.8v-59.8h-13.3V281h13.3v-67.1h69.8V281h13.3V142.9z M1711.7,142.9h-96.9v11.2h41.8V281h13.2
		V154.1h41.8L1711.7,142.9L1711.7,142.9z M1623.5,269.4h-59.4V142.9h-13.3V281h72.7V269.4L1623.5,269.4z M1446.3,230l26.1-73.3
		l26.3,73.3H1446.3z M1480.2,142.9h-14.9L1415,281h13.3l14.1-39.5h60.2l14.1,39.5h14.1L1480.2,142.9z M1399.5,269.4H1338v-55.3h56.1
		v-11H1338v-49.1h59.8v-11.2H1325V281h74.5V269.4z M1289.3,142.9h-13.3v59.8h-69.8v-59.8h-13.3V281h13.3v-67.1h69.8V281h13.3V142.9z
		 M1107.8,142.9h-12.2l0.4,119.7l-69.4-119.7h-14.5V281h12.2l-0.4-118.6l68.7,118.6h15.1L1107.8,142.9L1107.8,142.9z M956.1,255.3
		c-8.5,11.2-19.9,16.8-34.3,16.8c-13.7,0-24.9-5.7-33.9-17.1c-8.9-11.4-13.4-25.9-13.4-43.6c0-17.9,4.2-32.4,12.7-43.3
		c8.5-10.9,19.8-16.4,33.8-16.4c13.9,0,25.4,5.5,34.3,16.4c8.9,10.9,13.4,25.1,13.4,42.4C968.8,229.2,964.6,244.1,956.1,255.3
		 M965.9,160.3c-11.3-13.2-25.7-19.9-43.3-19.9c-18.4,0-33.3,6.8-44.8,20.3c-11.5,13.5-17.3,31-17.3,52.4c0,20.4,5.7,37.3,17.2,50.5
		c11.5,13.2,25.9,19.9,43.3,19.9c18.4,0,33.3-6.7,44.7-20.1c11.5-13.4,17.2-30.7,17.2-52C982.9,190.6,977.3,173.5,965.9,160.3
		 M831.4,142.9h-13.3V281h13.3V142.9L831.4,142.9z M793.7,142.9h-96.9v11.2h41.8V281h13.3V154.1h41.8L793.7,142.9L793.7,142.9z
		 M622.7,230l26.1-73.3l26.3,73.3H622.7z M656.6,142.9h-14.9L591.4,281h13.3l14.1-39.5H679l14.1,39.5h14.1L656.6,142.9z
		 M572.6,269.4h-59.4V142.9h-13.2V281h72.7V269.4z M466.4,142.9h-13V216c0,15.6-0.4,25.7-1,30.2c-1.1,6.8-3.9,12.4-8.5,17
		c-5.9,5.9-14.2,8.9-24.8,8.9c-11.6,0-20.6-3.2-27.1-9.7c-4-4-6.6-9-7.7-14.9c-0.7-3.4-1-9.2-1-17.2v-87.4h-13v74.7
		c0,15,0.4,25.1,1.2,30c1.5,9.2,5.1,16.7,10.8,22.4c9,9,21,13.5,36.2,13.5s27.1-4.4,35.8-13c6.1-6.1,9.8-14.6,11.2-25.5
		c0.7-5,1-16.8,1-35.6L466.4,142.9C466.4,142.9,466.4,142.9,466.4,142.9z M321.8,205.2c-3.7,3.7-8.9,6.1-15.5,7
		c-3.7,0.6-10.9,0.8-21.5,0.8h-11.4v-59.4h17.2c8.3,0,14.1,0.3,17.6,0.8c6.1,0.8,10.7,2.8,13.9,6c5.7,5.7,8.5,13,8.5,21.9
		C330.5,191.8,327.6,199.4,321.8,205.2 M332.6,153.6c-4.6-4.6-10.6-7.6-18-9.1c-5.1-1.1-12.7-1.7-22.8-1.7h-31.5V281h13v-57.1h12.2
		c13,0,21.7-0.4,26.1-1.2c8.4-1.5,15.5-5.1,21.1-10.8c7.3-7.3,11-17.1,11-29.2C343.8,170.8,340.1,161.1,332.6,153.6 M204.3,255.3
		c-8.5,11.2-19.9,16.8-34.3,16.8c-13.7,0-24.9-5.7-33.9-17.1c-8.9-11.4-13.4-25.9-13.4-43.6c0-17.9,4.2-32.4,12.7-43.3
		c8.5-10.9,19.8-16.4,33.9-16.4c13.9,0,25.4,5.5,34.3,16.4c8.9,10.9,13.4,25.1,13.4,42.4C217.1,229.2,212.8,244.1,204.3,255.3
		 M214.2,160.3c-11.3-13.2-25.7-19.9-43.3-19.9c-18.4,0-33.3,6.8-44.8,20.3c-11.5,13.5-17.3,31-17.3,52.4c0,20.4,5.7,37.3,17.2,50.5
		c11.5,13.2,25.9,19.9,43.3,19.9c18.4,0,33.3-6.7,44.7-20.1c11.5-13.4,17.2-30.7,17.2-52C231.2,190.6,225.5,173.5,214.2,160.3
		 M64.9,205.2c-3.7,3.7-8.9,6.1-15.5,7c-3.7,0.6-10.9,0.8-21.5,0.8H16.5v-59.4h17.2c8.3,0,14.1,0.3,17.6,0.8
		c6.1,0.8,10.7,2.8,13.9,6c5.7,5.7,8.5,13,8.5,21.9C73.6,191.8,70.7,199.4,64.9,205.2 M75.7,153.6c-4.6-4.6-10.6-7.6-18-9.1
		c-5.1-1.1-12.7-1.7-22.8-1.7H3.4V281h13v-57.1h12.2c13,0,21.7-0.4,26.1-1.2c8.4-1.5,15.5-5.1,21.1-10.8c7.3-7.3,11-17.1,11-29.2
		C86.8,170.8,83.1,161.1,75.7,153.6"/>
</g>
</svg>
