<?xml version="1.0" encoding="utf-8"?>
<!-- Generator: Adobe Illustrator 23.0.2, SVG Export Plug-In . SVG Version: 6.00 Build 0)  -->
<svg version="1.1" id="Layer_1" xmlns="http://www.w3.org/2000/svg" xmlns:xlink="http://www.w3.org/1999/xlink" x="0px" y="0px"
	 width="1381.9px" height="283.5px" viewBox="0 0 1381.9 283.5" enable-background="new 0 0 1381.9 283.5" xml:space="preserve">
<polygon fill="#193F70" points="105.8,127 105.8,222.9 31.9,127 0,127 0,282.8 34.2,282.8 34.2,183.8 110.5,282.8 139.9,282.8 
	139.9,127 "/>
<rect x="167.6" y="127" fill="#193F70" width="34.7" height="155.8"/>
<polygon fill="#193F70" points="328.5,127 328.5,189.8 264.6,189.8 264.6,127 230,127 230,282.8 264.6,282.8 264.6,222.9 
	328.5,222.9 328.5,282.8 363.2,282.8 363.2,127 "/>
<path fill="#193F70" d="M469.5,189.7l-1.8,0.1h-42.1v-15.9V158h42.1l1.8,0.1c7.5,0.2,18,3.1,18,15.8
	C487.5,186.6,477,189.5,469.5,189.7 M487.2,217.3c19.8-4.1,34.5-19.4,34.5-44.5c0-28-19.6-44.9-44-45.6V127h-86.9v155.8h34.6v-59.9
	h25.7l36.9,59.9h39.6L487.2,217.3z"/>
<path fill="#193F70" d="M656.2,127.1c0.3,0,0.6,0.1,0.9,0.3c0.3,0.1,0.5,0.3,0.8,0.6c0.3,0.2,0.5,0.6,0.8,1l31.7,41.2
	c-0.1-1-0.2-2-0.2-2.9c0-0.9-0.1-1.8-0.1-2.7V127h9.9v61.7h-5.8c-0.9,0-1.6-0.1-2.2-0.4c-0.6-0.3-1.2-0.8-1.7-1.5l-31.6-41.1
	c0.1,0.9,0.1,1.8,0.2,2.7c0,0.9,0.1,1.7,0.1,2.5v37.9H649V127h5.9C655.4,127,655.9,127.1,656.2,127.1"/>
<path fill="#193F70" d="M725.2,182.1c1.1,0,2-0.1,2.9-0.3c0.9-0.2,1.7-0.5,2.5-0.9c0.8-0.4,1.6-0.9,2.3-1.4c0.7-0.6,1.5-1.2,2.2-2
	v-7.3c-3,0-5.5,0.2-7.5,0.6c-2,0.4-3.7,0.9-4.9,1.5c-1.2,0.6-2.1,1.3-2.6,2.1c-0.5,0.8-0.8,1.7-0.8,2.6c0,1.9,0.5,3.2,1.6,4
	C722.1,181.7,723.5,182.1,725.2,182.1 M745.3,188.7h-4.6c-1,0-1.7-0.1-2.3-0.5c-0.6-0.3-1-0.9-1.3-1.8l-0.9-3.1
	c-1.1,1-2.1,1.9-3.2,2.6c-1,0.8-2.1,1.4-3.2,1.9c-1.1,0.5-2.3,0.9-3.6,1.1c-1.3,0.3-2.7,0.4-4.2,0.4c-1.8,0-3.5-0.2-5-0.7
	c-1.5-0.5-2.8-1.3-3.9-2.2c-1.1-1-2-2.2-2.6-3.7c-0.6-1.5-0.9-3.2-0.9-5.2c0-1.6,0.4-3.3,1.3-4.9c0.9-1.6,2.3-3.1,4.2-4.4
	c2-1.3,4.6-2.4,7.9-3.2c3.3-0.9,7.4-1.3,12.3-1.3v-2.6c0-2.9-0.6-5.1-1.8-6.6c-1.2-1.4-3-2.1-5.3-2.1c-1.7,0-3.1,0.2-4.2,0.6
	c-1.1,0.4-2.1,0.8-2.9,1.3c-0.8,0.5-1.6,0.9-2.3,1.3c-0.7,0.4-1.5,0.6-2.3,0.6c-0.7,0-1.3-0.2-1.8-0.6c-0.5-0.4-0.9-0.8-1.2-1.4
	l-1.9-3.4c4.9-4.6,10.9-6.9,17.8-6.9c2.5,0,4.8,0.4,6.7,1.3c2,0.8,3.6,2,5,3.5c1.4,1.5,2.4,3.3,3.1,5.3c0.7,2.1,1.1,4.4,1.1,6.8
	V188.7z"/>
<path fill="#193F70" d="M769.5,189.4c-3.7,0-6.6-1.1-8.6-3.2c-2-2.1-3-5.1-3-8.9v-24.4h-4.3c-0.6,0-1-0.2-1.4-0.6
	c-0.4-0.4-0.6-0.9-0.6-1.7v-4.2l6.9-1.1l2.2-11.9c0.1-0.6,0.4-1,0.8-1.3c0.4-0.3,0.9-0.5,1.5-0.5h5.4v13.8h11.3v7.5h-11.3v23.7
	c0,1.4,0.3,2.4,1,3.2c0.7,0.8,1.6,1.1,2.7,1.1c0.6,0,1.2-0.1,1.6-0.2c0.4-0.2,0.8-0.3,1.1-0.5c0.3-0.2,0.6-0.3,0.9-0.5
	c0.2-0.2,0.5-0.2,0.8-0.2c0.3,0,0.6,0.1,0.8,0.2c0.2,0.2,0.4,0.4,0.6,0.7l3.1,5.1c-1.5,1.3-3.2,2.2-5.2,2.9
	C773.7,189.1,771.6,189.4,769.5,189.4"/>
<path fill="#193F70" d="M798.8,188.7h-10.3v-43.8h10.3V188.7z M800.3,132.2c0,0.9-0.2,1.8-0.5,2.6c-0.4,0.8-0.8,1.5-1.4,2.1
	c-0.6,0.6-1.3,1.1-2.1,1.4c-0.8,0.4-1.7,0.5-2.6,0.5c-0.9,0-1.7-0.2-2.5-0.5c-0.8-0.4-1.5-0.8-2.1-1.4c-0.6-0.6-1.1-1.3-1.4-2.1
	c-0.4-0.8-0.5-1.6-0.5-2.6c0-0.9,0.2-1.8,0.5-2.6c0.3-0.8,0.8-1.5,1.4-2.1c0.6-0.6,1.3-1.1,2.1-1.4c0.8-0.4,1.6-0.5,2.5-0.5
	c0.9,0,1.8,0.2,2.6,0.5c0.8,0.4,1.5,0.8,2.1,1.4c0.6,0.6,1.1,1.3,1.4,2.1C800.2,130.4,800.3,131.3,800.3,132.2"/>
<path fill="#193F70" d="M828.8,181.2c3.6,0,6.2-1.2,7.9-3.7c1.7-2.5,2.6-6,2.6-10.8c0-4.7-0.9-8.3-2.6-10.8
	c-1.7-2.5-4.4-3.7-7.9-3.7c-3.6,0-6.3,1.3-8,3.7c-1.7,2.5-2.6,6.1-2.6,10.8c0,4.7,0.9,8.3,2.6,10.7
	C822.5,180,825.2,181.2,828.8,181.2 M828.8,144.3c3.2,0,6.1,0.5,8.7,1.6c2.6,1.1,4.8,2.5,6.7,4.5c1.8,1.9,3.3,4.3,4.3,7.1
	c1,2.8,1.5,5.9,1.5,9.3c0,3.5-0.5,6.6-1.5,9.4c-1,2.8-2.4,5.2-4.3,7.1c-1.8,2-4.1,3.5-6.7,4.5c-2.6,1-5.5,1.6-8.7,1.6
	c-3.2,0-6.1-0.5-8.7-1.6c-2.6-1.1-4.9-2.6-6.7-4.5c-1.9-2-3.3-4.3-4.3-7.1c-1-2.8-1.5-5.9-1.5-9.4c0-3.5,0.5-6.6,1.5-9.3
	c1-2.8,2.5-5.1,4.3-7.1c1.9-1.9,4.1-3.4,6.7-4.5C822.7,144.8,825.6,144.3,828.8,144.3"/>
<path fill="#193F70" d="M858,188.7v-43.8h6.3c1.3,0,2.2,0.6,2.6,1.9l0.7,3.5c0.9-0.9,1.8-1.7,2.7-2.5c1-0.7,2-1.4,3.1-1.9
	c1.1-0.5,2.2-0.9,3.4-1.2c1.2-0.3,2.6-0.4,4-0.4c2.3,0,4.4,0.4,6.2,1.2c1.8,0.8,3.3,1.9,4.5,3.4c1.2,1.5,2.1,3.2,2.8,5.2
	c0.6,2,0.9,4.3,0.9,6.7v27.9h-10.3v-27.9c0-2.7-0.6-4.7-1.8-6.2c-1.2-1.5-3-2.2-5.5-2.2c-1.8,0-3.5,0.4-5,1.2
	c-1.6,0.8-3,1.9-4.4,3.4v31.6H858z"/>
<path fill="#193F70" d="M919.1,182.1c1.1,0,2-0.1,2.9-0.3c0.9-0.2,1.7-0.5,2.5-0.9c0.8-0.4,1.6-0.9,2.3-1.4c0.7-0.6,1.5-1.2,2.2-2
	v-7.3c-3,0-5.5,0.2-7.5,0.6c-2,0.4-3.7,0.9-4.9,1.5c-1.2,0.6-2.1,1.3-2.6,2.1c-0.5,0.8-0.8,1.7-0.8,2.6c0,1.9,0.5,3.2,1.6,4
	C916,181.7,917.4,182.1,919.1,182.1 M939.2,188.7h-4.6c-1,0-1.8-0.1-2.3-0.5c-0.6-0.3-1-0.9-1.3-1.8l-0.9-3.1
	c-1.1,1-2.1,1.9-3.2,2.6c-1,0.8-2.1,1.4-3.2,1.9c-1.1,0.5-2.3,0.9-3.6,1.1c-1.3,0.3-2.7,0.4-4.2,0.4c-1.8,0-3.5-0.2-5-0.7
	c-1.5-0.5-2.9-1.3-3.9-2.2c-1.1-1-2-2.2-2.6-3.7c-0.6-1.5-0.9-3.2-0.9-5.2c0-1.6,0.4-3.3,1.3-4.9c0.9-1.6,2.3-3.1,4.3-4.4
	c2-1.3,4.6-2.4,7.9-3.2c3.3-0.9,7.4-1.3,12.3-1.3v-2.6c0-2.9-0.6-5.1-1.8-6.6c-1.2-1.4-3-2.1-5.3-2.1c-1.7,0-3.1,0.2-4.2,0.6
	c-1.1,0.4-2.1,0.8-2.9,1.3c-0.8,0.5-1.6,0.9-2.3,1.3c-0.7,0.4-1.5,0.6-2.3,0.6c-0.7,0-1.3-0.2-1.8-0.6c-0.5-0.4-0.9-0.8-1.2-1.4
	l-1.9-3.4c4.9-4.6,10.9-6.9,17.8-6.9c2.5,0,4.8,0.4,6.7,1.3c2,0.8,3.6,2,5,3.5c1.4,1.5,2.4,3.3,3.1,5.3c0.7,2.1,1.1,4.4,1.1,6.8
	V188.7z"/>
<rect x="950" y="125.3" fill="#193F70" width="10.3" height="63.4"/>
<rect x="990.1" y="127" fill="#193F70" width="11.3" height="61.7"/>
<path fill="#193F70" d="M1014.4,188.7v-43.8h6.3c1.3,0,2.2,0.6,2.6,1.9l0.7,3.5c0.9-0.9,1.8-1.7,2.7-2.5c1-0.7,2-1.4,3.1-1.9
	c1.1-0.5,2.2-0.9,3.4-1.2c1.2-0.3,2.6-0.4,4-0.4c2.3,0,4.4,0.4,6.2,1.2c1.8,0.8,3.3,1.9,4.5,3.4c1.2,1.5,2.1,3.2,2.8,5.2
	c0.6,2,0.9,4.3,0.9,6.7v27.9h-10.3v-27.9c0-2.7-0.6-4.7-1.8-6.2c-1.2-1.5-3-2.2-5.5-2.2c-1.8,0-3.5,0.4-5,1.2
	c-1.6,0.8-3,1.9-4.4,3.4v31.6H1014.4z"/>
<path fill="#193F70" d="M1087.4,153.5c-0.3,0.5-0.6,0.8-0.9,1c-0.3,0.2-0.7,0.3-1.2,0.3c-0.5,0-1-0.1-1.6-0.4c-0.6-0.3-1.2-0.6-2-1
	c-0.8-0.4-1.6-0.7-2.6-1c-1-0.3-2.1-0.4-3.4-0.4c-2,0-3.6,0.4-4.8,1.3c-1.2,0.9-1.8,2-1.8,3.5c0,0.9,0.3,1.7,0.9,2.4
	c0.6,0.6,1.4,1.2,2.4,1.7c1,0.5,2.1,0.9,3.4,1.3c1.2,0.4,2.5,0.8,3.8,1.3c1.3,0.5,2.6,1,3.9,1.6c1.2,0.6,2.4,1.3,3.4,2.2
	c1,0.9,1.8,2,2.4,3.2c0.6,1.2,0.9,2.8,0.9,4.5c0,2.1-0.4,4-1.1,5.8c-0.8,1.8-1.9,3.3-3.3,4.6c-1.4,1.3-3.2,2.3-5.4,3
	c-2.1,0.7-4.6,1.1-7.3,1.1c-1.5,0-2.9-0.1-4.3-0.4c-1.4-0.3-2.8-0.7-4.1-1.1c-1.3-0.5-2.5-1.1-3.6-1.7c-1.1-0.7-2.1-1.4-2.9-2.1
	l2.4-4c0.3-0.5,0.7-0.9,1.1-1.1c0.4-0.3,0.9-0.4,1.6-0.4s1.2,0.2,1.8,0.6c0.6,0.4,1.2,0.8,2,1.2c0.7,0.4,1.6,0.8,2.7,1.2
	c1,0.4,2.3,0.6,3.9,0.6c1.2,0,2.3-0.1,3.2-0.4c0.9-0.3,1.6-0.7,2.2-1.2c0.6-0.5,1-1.1,1.2-1.7c0.3-0.6,0.4-1.3,0.4-2
	c0-1-0.3-1.9-0.9-2.5c-0.6-0.7-1.4-1.2-2.4-1.7c-1-0.5-2.1-0.9-3.4-1.3c-1.3-0.4-2.6-0.8-3.9-1.3c-1.3-0.5-2.6-1-3.9-1.6
	c-1.3-0.6-2.4-1.4-3.4-2.3c-1-0.9-1.8-2.1-2.4-3.5c-0.6-1.4-0.9-3-0.9-4.9c0-1.8,0.3-3.5,1.1-5.1c0.7-1.6,1.7-3,3.1-4.2
	c1.3-1.2,3-2.2,5-2.9c2-0.7,4.4-1.1,7-1.1c2.9,0,5.6,0.5,8.1,1.5c2.4,1,4.4,2.3,6.1,3.9L1087.4,153.5z"/>
<path fill="#193F70" d="M1112.5,189.4c-3.7,0-6.6-1.1-8.6-3.2c-2-2.1-3-5.1-3-8.9v-24.4h-4.3c-0.6,0-1-0.2-1.4-0.6
	c-0.4-0.4-0.6-0.9-0.6-1.7v-4.2l6.9-1.1l2.2-11.9c0.1-0.6,0.4-1,0.8-1.3c0.4-0.3,0.9-0.5,1.5-0.5h5.4v13.8h11.3v7.5h-11.3v23.7
	c0,1.4,0.3,2.4,1,3.2c0.7,0.8,1.6,1.1,2.7,1.1c0.6,0,1.2-0.1,1.6-0.2c0.4-0.2,0.8-0.3,1.1-0.5c0.3-0.2,0.6-0.3,0.9-0.5
	c0.2-0.2,0.5-0.2,0.7-0.2c0.3,0,0.6,0.1,0.8,0.2c0.2,0.2,0.4,0.4,0.6,0.7l3.1,5.1c-1.5,1.3-3.2,2.2-5.2,2.9
	C1116.7,189.1,1114.6,189.4,1112.5,189.4"/>
<path fill="#193F70" d="M1141.8,188.7h-10.3v-43.8h10.3V188.7z M1143.4,132.2c0,0.9-0.2,1.8-0.5,2.6c-0.4,0.8-0.8,1.5-1.4,2.1
	c-0.6,0.6-1.3,1.1-2.1,1.4c-0.8,0.4-1.7,0.5-2.6,0.5c-0.9,0-1.7-0.2-2.5-0.5c-0.8-0.4-1.5-0.8-2.1-1.4c-0.6-0.6-1.1-1.3-1.4-2.1
	c-0.4-0.8-0.5-1.6-0.5-2.6c0-0.9,0.2-1.8,0.5-2.6c0.3-0.8,0.8-1.5,1.4-2.1c0.6-0.6,1.3-1.1,2.1-1.4c0.8-0.4,1.6-0.5,2.5-0.5
	c0.9,0,1.8,0.2,2.6,0.5c0.8,0.4,1.5,0.8,2.1,1.4c0.6,0.6,1.1,1.3,1.4,2.1C1143.2,130.4,1143.4,131.3,1143.4,132.2"/>
<path fill="#193F70" d="M1167.6,189.4c-3.7,0-6.6-1.1-8.6-3.2c-2-2.1-3-5.1-3-8.9v-24.4h-4.3c-0.6,0-1-0.2-1.4-0.6
	c-0.4-0.4-0.6-0.9-0.6-1.7v-4.2l6.9-1.1l2.2-11.9c0.1-0.6,0.4-1,0.8-1.3c0.4-0.3,0.9-0.5,1.5-0.5h5.4v13.8h11.3v7.5h-11.3v23.7
	c0,1.4,0.3,2.4,1,3.2c0.7,0.8,1.6,1.1,2.7,1.1c0.6,0,1.2-0.1,1.6-0.2c0.4-0.2,0.8-0.3,1.1-0.5c0.3-0.2,0.6-0.3,0.9-0.5
	c0.2-0.2,0.5-0.2,0.8-0.2c0.3,0,0.6,0.1,0.8,0.2c0.2,0.2,0.4,0.4,0.6,0.7l3.1,5.1c-1.5,1.3-3.2,2.2-5.2,2.9
	C1171.7,189.1,1169.7,189.4,1167.6,189.4"/>
<path fill="#193F70" d="M1195.3,144.9v27.8c0,2.7,0.6,4.7,1.8,6.2c1.2,1.5,3,2.2,5.5,2.2c1.8,0,3.5-0.4,5-1.2c1.6-0.8,3-1.9,4.4-3.3
	v-31.7h10.3v43.8h-6.3c-1.3,0-2.2-0.6-2.6-1.9l-0.7-3.5c-0.9,0.9-1.8,1.7-2.8,2.5c-0.9,0.8-2,1.4-3,1.9c-1.1,0.5-2.2,0.9-3.5,1.2
	c-1.2,0.3-2.6,0.4-4,0.4c-2.3,0-4.4-0.4-6.2-1.2c-1.8-0.8-3.3-2-4.5-3.4c-1.2-1.5-2.2-3.2-2.8-5.3c-0.6-2-0.9-4.3-0.9-6.7v-27.8
	H1195.3z"/>
<path fill="#193F70" d="M1247.5,189.4c-3.7,0-6.6-1.1-8.6-3.2c-2-2.1-3-5.1-3-8.9v-24.4h-4.3c-0.6,0-1-0.2-1.4-0.6
	c-0.4-0.4-0.6-0.9-0.6-1.7v-4.2l6.9-1.1l2.2-11.9c0.1-0.6,0.4-1,0.8-1.3c0.4-0.3,0.9-0.5,1.5-0.5h5.4v13.8h11.3v7.5h-11.3v23.7
	c0,1.4,0.3,2.4,1,3.2c0.7,0.8,1.6,1.1,2.7,1.1c0.6,0,1.2-0.1,1.6-0.2c0.4-0.2,0.8-0.3,1.1-0.5c0.3-0.2,0.6-0.3,0.9-0.5
	c0.2-0.2,0.5-0.2,0.8-0.2c0.3,0,0.6,0.1,0.8,0.2c0.2,0.2,0.4,0.4,0.6,0.7l3.1,5.1c-1.5,1.3-3.2,2.2-5.2,2.9
	C1251.6,189.1,1249.6,189.4,1247.5,189.4"/>
<path fill="#193F70" d="M1283.7,151.8c-3,0-5.4,0.9-7.1,2.6c-1.7,1.7-2.8,4.2-3.3,7.4h19.4c0-1.4-0.2-2.6-0.5-3.9
	c-0.4-1.2-0.9-2.3-1.7-3.2c-0.7-0.9-1.7-1.6-2.8-2.2C1286.5,152.1,1285.2,151.8,1283.7,151.8 M1283.5,144.3c2.7,0,5.2,0.4,7.5,1.3
	c2.3,0.9,4.2,2.2,5.9,3.9c1.6,1.7,2.9,3.8,3.8,6.2c0.9,2.5,1.4,5.3,1.4,8.4c0,0.8,0,1.5-0.1,2c-0.1,0.5-0.2,0.9-0.4,1.2
	c-0.2,0.3-0.4,0.5-0.7,0.6c-0.3,0.1-0.7,0.2-1.2,0.2h-26.5c0.3,4.5,1.5,7.8,3.6,9.9c2.1,2.1,4.8,3.2,8.2,3.2c1.7,0,3.1-0.2,4.3-0.6
	c1.2-0.4,2.3-0.8,3.2-1.3c0.9-0.5,1.7-0.9,2.4-1.3c0.7-0.4,1.3-0.6,2-0.6c0.4,0,0.8,0.1,1.1,0.2c0.3,0.2,0.6,0.4,0.8,0.7l3,3.8
	c-1.1,1.4-2.4,2.5-3.8,3.4c-1.4,0.9-2.9,1.7-4.4,2.2c-1.5,0.6-3.1,0.9-4.7,1.2c-1.6,0.2-3.2,0.3-4.7,0.3c-3,0-5.8-0.5-8.3-1.5
	c-2.6-1-4.8-2.5-6.7-4.5c-1.9-2-3.4-4.4-4.5-7.3c-1.1-2.9-1.6-6.3-1.6-10.1c0-3,0.5-5.8,1.4-8.4c0.9-2.6,2.3-4.9,4.1-6.9
	c1.8-1.9,3.9-3.5,6.5-4.6C1277.4,144.8,1280.3,144.3,1283.5,144.3"/>
<path fill="#193F70" d="M650.3,282.8V247l-3.7-0.6c-0.8-0.1-1.5-0.4-1.9-0.9c-0.5-0.4-0.7-1-0.7-1.8v-4.3h6.4v-3.2
	c0-2.5,0.4-4.7,1.1-6.7c0.7-2,1.8-3.7,3.2-5.1c1.4-1.4,3.1-2.4,5-3.2c2-0.7,4.2-1.1,6.7-1.1c2,0,3.8,0.3,5.5,0.8l-0.2,5.3
	c-0.1,0.8-0.4,1.3-1.1,1.5c-0.7,0.2-1.5,0.3-2.4,0.3c-1.2,0-2.3,0.1-3.3,0.4c-1,0.3-1.8,0.7-2.4,1.4c-0.7,0.7-1.2,1.6-1.5,2.7
	c-0.3,1.1-0.5,2.4-0.5,4.1v2.9h11.2v7.5h-10.8v35.9H650.3z"/>
<path fill="#193F70" d="M696.1,275.3c3.6,0,6.2-1.2,7.9-3.7c1.7-2.5,2.6-6,2.6-10.8c0-4.7-0.9-8.3-2.6-10.8
	c-1.7-2.5-4.4-3.7-7.9-3.7c-3.6,0-6.3,1.3-8,3.7c-1.7,2.5-2.6,6.1-2.6,10.8c0,4.7,0.9,8.3,2.6,10.7
	C689.8,274.1,692.5,275.3,696.1,275.3 M696.1,238.3c3.2,0,6.1,0.5,8.7,1.6c2.6,1.1,4.8,2.5,6.7,4.5c1.8,1.9,3.3,4.3,4.3,7.1
	c1,2.8,1.5,5.9,1.5,9.3c0,3.5-0.5,6.6-1.5,9.4c-1,2.8-2.4,5.2-4.3,7.1c-1.8,2-4.1,3.5-6.7,4.5c-2.6,1-5.5,1.6-8.7,1.6
	c-3.2,0-6.1-0.5-8.7-1.6c-2.6-1.1-4.9-2.6-6.7-4.5c-1.9-2-3.3-4.3-4.3-7.1c-1-2.8-1.5-5.9-1.5-9.4c0-3.4,0.5-6.6,1.5-9.3
	c1-2.8,2.5-5.1,4.3-7.1c1.9-1.9,4.1-3.4,6.7-4.5C690,238.9,692.9,238.3,696.1,238.3"/>
<path fill="#193F70" d="M725.3,282.8V239h6.1c1.1,0,1.8,0.2,2.2,0.6c0.4,0.4,0.7,1.1,0.8,2l0.6,5.3c1.5-2.7,3.3-4.8,5.4-6.4
	c2.1-1.6,4.4-2.4,6.9-2.4c2.1,0,3.9,0.5,5.3,1.5l-1.3,7.9c-0.1,0.5-0.3,0.9-0.5,1.1c-0.3,0.2-0.7,0.3-1.1,0.3c-0.4,0-1-0.1-1.7-0.3
	c-0.7-0.2-1.7-0.3-2.9-0.3c-2.1,0-4,0.6-5.5,1.8c-1.5,1.2-2.8,3-3.9,5.3v27.3H725.3z"/>
<polygon fill="#193F70" points="815.9,221.1 815.9,247.6 787.5,247.6 787.5,221.1 776.2,221.1 776.2,282.8 787.5,282.8 787.5,255.8 
	815.9,255.8 815.9,282.8 827.2,282.8 827.2,221.1 "/>
<path fill="#193F70" d="M856.8,245.9c-3,0-5.4,0.9-7.1,2.6c-1.7,1.7-2.8,4.2-3.3,7.4h19.4c0-1.4-0.2-2.7-0.5-3.9
	c-0.4-1.2-0.9-2.3-1.7-3.2c-0.7-0.9-1.7-1.6-2.8-2.2C859.6,246.2,858.3,245.9,856.8,245.9 M856.5,238.3c2.7,0,5.2,0.4,7.5,1.3
	c2.3,0.9,4.2,2.2,5.9,3.9c1.6,1.7,2.9,3.8,3.8,6.2c0.9,2.5,1.4,5.3,1.4,8.4c0,0.8,0,1.5-0.1,2c-0.1,0.5-0.2,0.9-0.4,1.2
	c-0.2,0.3-0.4,0.5-0.7,0.6c-0.3,0.1-0.7,0.2-1.2,0.2h-26.5c0.3,4.5,1.5,7.8,3.6,9.9c2.1,2.1,4.8,3.2,8.2,3.2c1.7,0,3.1-0.2,4.3-0.6
	c1.2-0.4,2.3-0.8,3.2-1.3c0.9-0.5,1.7-0.9,2.4-1.3c0.7-0.4,1.3-0.6,2-0.6c0.4,0,0.8,0.1,1.1,0.3c0.3,0.2,0.6,0.4,0.8,0.7l3,3.8
	c-1.1,1.4-2.4,2.5-3.8,3.4c-1.4,0.9-2.9,1.7-4.4,2.2c-1.5,0.6-3.1,0.9-4.7,1.2c-1.6,0.2-3.2,0.4-4.7,0.4c-3,0-5.8-0.5-8.3-1.5
	c-2.6-1-4.8-2.5-6.7-4.5c-1.9-2-3.4-4.4-4.5-7.3c-1.1-2.9-1.6-6.3-1.6-10.1c0-3,0.5-5.8,1.4-8.4c0.9-2.6,2.3-4.9,4.1-6.9
	c1.8-1.9,3.9-3.5,6.5-4.6C850.5,238.9,853.3,238.3,856.5,238.3"/>
<path fill="#193F70" d="M897.1,276.2c1.1,0,2-0.1,2.9-0.3c0.9-0.2,1.7-0.5,2.5-0.9c0.8-0.4,1.6-0.9,2.3-1.4c0.7-0.6,1.5-1.2,2.2-2
	v-7.3c-3,0-5.5,0.2-7.5,0.6c-2,0.4-3.7,0.9-4.9,1.5c-1.2,0.6-2.1,1.3-2.6,2.1c-0.5,0.8-0.8,1.7-0.8,2.6c0,1.9,0.5,3.2,1.6,4
	C893.9,275.8,895.3,276.2,897.1,276.2 M917.1,282.8h-4.6c-1,0-1.8-0.1-2.3-0.5c-0.6-0.3-1-0.9-1.3-1.8l-0.9-3.1
	c-1.1,1-2.1,1.9-3.2,2.6c-1,0.8-2.1,1.4-3.2,1.9c-1.1,0.5-2.3,0.9-3.6,1.1c-1.3,0.3-2.7,0.4-4.2,0.4c-1.8,0-3.5-0.2-5-0.7
	c-1.5-0.5-2.9-1.3-3.9-2.2c-1.1-1-2-2.2-2.6-3.7c-0.6-1.5-0.9-3.2-0.9-5.2c0-1.6,0.4-3.3,1.3-4.9c0.9-1.6,2.3-3.1,4.2-4.4
	c2-1.3,4.6-2.4,7.9-3.2c3.3-0.9,7.4-1.3,12.3-1.3v-2.6c0-2.9-0.6-5.1-1.8-6.6c-1.2-1.4-3-2.1-5.3-2.1c-1.7,0-3.1,0.2-4.2,0.6
	c-1.1,0.4-2.1,0.8-2.9,1.3c-0.8,0.5-1.6,0.9-2.3,1.3c-0.7,0.4-1.5,0.6-2.3,0.6c-0.7,0-1.3-0.2-1.8-0.6c-0.5-0.4-0.9-0.8-1.2-1.4
	l-1.9-3.4c4.9-4.6,10.9-6.9,17.9-6.9c2.5,0,4.7,0.4,6.7,1.3c2,0.8,3.6,2,5,3.5c1.4,1.5,2.4,3.3,3.1,5.4c0.7,2.1,1.1,4.4,1.1,6.8
	V282.8z"/>
<rect x="927.9" y="219.4" fill="#193F70" width="10.3" height="63.4"/>
<path fill="#193F70" d="M964,283.5c-3.7,0-6.6-1.1-8.6-3.2c-2-2.2-3-5.1-3-8.9v-24.4h-4.3c-0.6,0-1-0.2-1.4-0.6
	c-0.4-0.4-0.6-0.9-0.6-1.7v-4.2l6.9-1.1l2.2-11.9c0.1-0.6,0.4-1,0.8-1.3c0.4-0.3,0.9-0.5,1.5-0.5h5.4v13.8h11.3v7.5h-11.3v23.7
	c0,1.4,0.3,2.4,1,3.2c0.7,0.8,1.6,1.1,2.7,1.1c0.6,0,1.2-0.1,1.6-0.2c0.4-0.2,0.8-0.3,1.1-0.5c0.3-0.2,0.6-0.3,0.9-0.5
	c0.2-0.2,0.5-0.2,0.8-0.2c0.3,0,0.6,0.1,0.8,0.2c0.2,0.2,0.4,0.4,0.6,0.7l3.1,5.1c-1.5,1.3-3.2,2.2-5.2,2.9
	C968.2,283.1,966.1,283.5,964,283.5"/>
<path fill="#193F70" d="M982.3,282.8v-63.4h10.3v24.4c1.7-1.6,3.5-2.9,5.5-3.9c2-1,4.4-1.5,7.1-1.5c2.3,0,4.4,0.4,6.2,1.2
	c1.8,0.8,3.3,1.9,4.5,3.4c1.2,1.5,2.1,3.2,2.8,5.2c0.6,2,0.9,4.3,0.9,6.7v27.9h-10.3v-27.9c0-2.7-0.6-4.7-1.8-6.2
	c-1.2-1.5-3-2.2-5.4-2.2c-1.8,0-3.5,0.4-5,1.2c-1.6,0.8-3,1.9-4.4,3.4v31.7H982.3z"/>
<path fill="#193F70" d="M1058.2,250.4h7c2.1,0,4-0.3,5.5-0.8c1.6-0.5,2.9-1.3,3.9-2.2c1-1,1.8-2.1,2.3-3.4c0.5-1.3,0.8-2.7,0.8-4.3
	c0-3.1-1-5.5-3-7.2c-2-1.7-5.1-2.5-9.3-2.5h-7.2V250.4z M1058.2,258.7v24.1H1047v-61.7h18.4c4.1,0,7.7,0.4,10.6,1.3
	c2.9,0.9,5.4,2.1,7.2,3.6c1.9,1.6,3.3,3.4,4.1,5.6c0.9,2.2,1.3,4.6,1.3,7.2c0,2.1-0.3,4-0.9,5.9c-0.6,1.8-1.5,3.5-2.6,5
	c-1.1,1.5-2.5,2.8-4.2,4c-1.7,1.1-3.6,2-5.7,2.7c1.4,0.8,2.6,2,3.7,3.5l15.1,22.8H1084c-1,0-1.8-0.2-2.5-0.6c-0.7-0.4-1.3-1-1.7-1.7
	l-12.7-19.8c-0.5-0.7-1-1.3-1.6-1.6c-0.6-0.3-1.4-0.5-2.5-0.5H1058.2z"/>
<path fill="#193F70" d="M1118.7,245.9c-3,0-5.4,0.9-7.1,2.6c-1.7,1.7-2.8,4.2-3.3,7.4h19.4c0-1.4-0.2-2.7-0.5-3.9
	c-0.4-1.2-0.9-2.3-1.7-3.2c-0.7-0.9-1.7-1.6-2.8-2.2C1121.6,246.2,1120.2,245.9,1118.7,245.9 M1118.5,238.3c2.7,0,5.2,0.4,7.5,1.3
	c2.3,0.9,4.2,2.2,5.9,3.9c1.6,1.7,2.9,3.8,3.8,6.2c0.9,2.5,1.4,5.3,1.4,8.4c0,0.8,0,1.5-0.1,2c-0.1,0.5-0.2,0.9-0.4,1.2
	c-0.2,0.3-0.4,0.5-0.7,0.6c-0.3,0.1-0.7,0.2-1.2,0.2h-26.5c0.3,4.5,1.5,7.8,3.6,9.9c2.1,2.1,4.8,3.2,8.2,3.2c1.7,0,3.1-0.2,4.3-0.6
	c1.2-0.4,2.3-0.8,3.2-1.3c0.9-0.5,1.7-0.9,2.4-1.3c0.7-0.4,1.3-0.6,2-0.6c0.4,0,0.8,0.1,1.1,0.3c0.3,0.2,0.6,0.4,0.8,0.7l3,3.8
	c-1.1,1.4-2.4,2.5-3.8,3.4c-1.4,0.9-2.9,1.7-4.4,2.2c-1.6,0.6-3.1,0.9-4.7,1.2c-1.6,0.2-3.2,0.4-4.7,0.4c-3,0-5.8-0.5-8.3-1.5
	c-2.6-1-4.8-2.5-6.7-4.5c-1.9-2-3.4-4.4-4.5-7.3c-1.1-2.9-1.6-6.3-1.6-10.1c0-3,0.5-5.8,1.4-8.4c0.9-2.6,2.3-4.9,4.1-6.9
	c1.8-1.9,3.9-3.5,6.5-4.6C1112.4,238.9,1115.3,238.3,1118.5,238.3"/>
<path fill="#193F70" d="M1170.9,247.6c-0.3,0.5-0.6,0.8-0.9,1c-0.3,0.2-0.7,0.3-1.2,0.3c-0.5,0-1-0.1-1.6-0.4c-0.6-0.3-1.2-0.6-2-1
	c-0.8-0.4-1.6-0.7-2.6-1c-1-0.3-2.1-0.4-3.4-0.4c-2,0-3.6,0.4-4.8,1.3c-1.2,0.9-1.8,2-1.8,3.5c0,0.9,0.3,1.7,0.9,2.4
	c0.6,0.6,1.4,1.2,2.4,1.7c1,0.5,2.1,0.9,3.4,1.3c1.2,0.4,2.5,0.8,3.8,1.3c1.3,0.5,2.6,1,3.9,1.6c1.3,0.6,2.4,1.3,3.4,2.2
	c1,0.9,1.8,2,2.4,3.2c0.6,1.3,0.9,2.8,0.9,4.5c0,2.1-0.4,4-1.1,5.8c-0.8,1.8-1.9,3.3-3.3,4.6c-1.4,1.3-3.2,2.3-5.4,3
	c-2.1,0.7-4.6,1.1-7.3,1.1c-1.5,0-2.9-0.1-4.3-0.4c-1.4-0.3-2.8-0.6-4.1-1.1c-1.3-0.5-2.5-1.1-3.6-1.7c-1.1-0.7-2.1-1.4-2.9-2.1
	l2.4-4c0.3-0.5,0.7-0.9,1.1-1.1c0.4-0.3,0.9-0.4,1.6-0.4s1.2,0.2,1.8,0.6c0.6,0.4,1.2,0.8,2,1.2c0.7,0.4,1.6,0.8,2.7,1.2
	c1,0.4,2.3,0.6,3.9,0.6c1.2,0,2.3-0.1,3.2-0.4c0.9-0.3,1.6-0.7,2.2-1.2c0.6-0.5,1-1.1,1.2-1.7c0.3-0.6,0.4-1.3,0.4-2
	c0-1-0.3-1.9-0.9-2.5c-0.6-0.7-1.4-1.2-2.4-1.7c-1-0.5-2.1-0.9-3.4-1.3c-1.3-0.4-2.6-0.8-3.9-1.3c-1.3-0.5-2.6-1-3.9-1.6
	c-1.3-0.6-2.4-1.4-3.4-2.3c-1-0.9-1.8-2.1-2.4-3.5c-0.6-1.4-0.9-3-0.9-4.9c0-1.8,0.4-3.5,1.1-5.1c0.7-1.6,1.7-3,3.1-4.2
	c1.3-1.2,3-2.2,5.1-2.9c2-0.7,4.4-1.1,7-1.1c2.9,0,5.6,0.5,8.1,1.5c2.4,1,4.4,2.3,6.1,3.9L1170.9,247.6z"/>
<path fill="#193F70" d="M1199.9,245.9c-3,0-5.4,0.9-7.1,2.6c-1.7,1.7-2.8,4.2-3.3,7.4h19.4c0-1.4-0.2-2.7-0.5-3.9
	c-0.4-1.2-0.9-2.3-1.7-3.2c-0.8-0.9-1.7-1.6-2.8-2.2C1202.8,246.2,1201.5,245.9,1199.9,245.9 M1199.7,238.3c2.7,0,5.2,0.4,7.5,1.3
	c2.3,0.9,4.2,2.2,5.9,3.9c1.7,1.7,2.9,3.8,3.8,6.2c0.9,2.5,1.4,5.3,1.4,8.4c0,0.8,0,1.5-0.1,2c-0.1,0.5-0.2,0.9-0.4,1.2
	c-0.2,0.3-0.4,0.5-0.7,0.6c-0.3,0.1-0.7,0.2-1.2,0.2h-26.5c0.3,4.5,1.5,7.8,3.6,9.9c2.1,2.1,4.8,3.2,8.2,3.2c1.7,0,3.1-0.2,4.3-0.6
	c1.2-0.4,2.3-0.8,3.2-1.3c0.9-0.5,1.7-0.9,2.4-1.3c0.7-0.4,1.3-0.6,2-0.6c0.4,0,0.8,0.1,1.1,0.3c0.3,0.2,0.6,0.4,0.8,0.7l3,3.8
	c-1.1,1.4-2.4,2.5-3.9,3.4c-1.4,0.9-2.9,1.7-4.4,2.2c-1.5,0.6-3.1,0.9-4.7,1.2c-1.6,0.2-3.2,0.4-4.7,0.4c-3,0-5.8-0.5-8.3-1.5
	c-2.6-1-4.8-2.5-6.7-4.5c-1.9-2-3.4-4.4-4.5-7.3c-1.1-2.9-1.6-6.3-1.6-10.1c0-3,0.5-5.8,1.4-8.4c0.9-2.6,2.3-4.9,4.1-6.9
	c1.8-1.9,3.9-3.5,6.5-4.6C1193.6,238.9,1196.5,238.3,1199.7,238.3"/>
<path fill="#193F70" d="M1240.2,276.2c1.1,0,2-0.1,2.9-0.3c0.9-0.2,1.7-0.5,2.5-0.9c0.8-0.4,1.6-0.9,2.3-1.4c0.7-0.6,1.5-1.2,2.2-2
	v-7.3c-3,0-5.5,0.2-7.5,0.6c-2,0.4-3.7,0.9-4.9,1.5c-1.2,0.6-2.1,1.3-2.6,2.1c-0.5,0.8-0.8,1.7-0.8,2.6c0,1.9,0.5,3.2,1.6,4
	C1237.1,275.8,1238.5,276.2,1240.2,276.2 M1260.3,282.8h-4.6c-1,0-1.7-0.1-2.3-0.5c-0.6-0.3-1-0.9-1.3-1.8l-0.9-3.1
	c-1.1,1-2.1,1.9-3.2,2.6c-1,0.8-2.1,1.4-3.2,1.9c-1.1,0.5-2.3,0.9-3.6,1.1c-1.3,0.3-2.7,0.4-4.2,0.4c-1.8,0-3.5-0.2-5-0.7
	c-1.5-0.5-2.8-1.3-3.9-2.2c-1.1-1-2-2.2-2.6-3.7c-0.6-1.5-0.9-3.2-0.9-5.2c0-1.6,0.4-3.3,1.3-4.9c0.9-1.6,2.3-3.1,4.2-4.4
	c2-1.3,4.6-2.4,7.9-3.2c3.3-0.9,7.4-1.3,12.3-1.3v-2.6c0-2.9-0.6-5.1-1.8-6.6c-1.2-1.4-3-2.1-5.3-2.1c-1.7,0-3.1,0.2-4.2,0.6
	c-1.1,0.4-2.1,0.8-2.9,1.3c-0.8,0.5-1.6,0.9-2.3,1.3c-0.7,0.4-1.5,0.6-2.3,0.6c-0.7,0-1.3-0.2-1.8-0.6c-0.5-0.4-0.9-0.8-1.2-1.4
	l-1.9-3.4c4.9-4.6,10.9-6.9,17.8-6.9c2.5,0,4.8,0.4,6.7,1.3c2,0.8,3.6,2,5,3.5c1.4,1.5,2.4,3.3,3.1,5.4c0.7,2.1,1.1,4.4,1.1,6.8
	V282.8z"/>
<path fill="#193F70" d="M1270.5,282.8V239h6.1c1.1,0,1.8,0.2,2.2,0.6c0.4,0.4,0.7,1.1,0.8,2l0.6,5.3c1.5-2.7,3.3-4.8,5.4-6.4
	c2.1-1.6,4.4-2.4,6.9-2.4c2.1,0,3.9,0.5,5.3,1.5l-1.3,7.9c-0.1,0.5-0.3,0.9-0.5,1.1c-0.3,0.2-0.7,0.3-1.1,0.3c-0.4,0-1-0.1-1.7-0.3
	c-0.7-0.2-1.7-0.3-2.9-0.3c-2.2,0-4,0.6-5.5,1.8c-1.5,1.2-2.8,3-3.9,5.3v27.3H1270.5z"/>
<path fill="#193F70" d="M1334.8,248.3c-0.3,0.4-0.6,0.7-0.9,0.9c-0.3,0.2-0.7,0.3-1.3,0.3c-0.5,0-1-0.2-1.5-0.5
	c-0.5-0.3-1.1-0.7-1.8-1.1c-0.7-0.4-1.5-0.8-2.5-1.1c-1-0.3-2.1-0.5-3.6-0.5c-1.8,0-3.4,0.3-4.8,1c-1.4,0.7-2.5,1.6-3.4,2.9
	c-0.9,1.3-1.6,2.8-2,4.5c-0.4,1.8-0.7,3.8-0.7,6c0,2.3,0.2,4.4,0.7,6.2c0.5,1.8,1.2,3.4,2.1,4.6c0.9,1.2,2,2.2,3.4,2.8
	c1.3,0.6,2.8,1,4.4,1c1.6,0,3-0.2,4-0.6c1-0.4,1.9-0.9,2.6-1.4c0.7-0.5,1.3-1,1.8-1.4c0.5-0.4,1.1-0.6,1.7-0.6c0.8,0,1.5,0.3,1.9,1
	l3,3.8c-1.1,1.4-2.4,2.5-3.7,3.4c-1.3,0.9-2.7,1.7-4.2,2.2c-1.4,0.6-2.9,0.9-4.5,1.2c-1.5,0.2-3.1,0.3-4.6,0.3
	c-2.6,0-5.1-0.5-7.5-1.5c-2.3-1-4.4-2.5-6.1-4.4c-1.7-1.9-3.1-4.3-4.1-7.1c-1-2.8-1.5-6-1.5-9.6c0-3.2,0.5-6.2,1.4-8.9
	c0.9-2.7,2.2-5.1,4-7.1c1.7-2,3.9-3.6,6.5-4.7c2.6-1.1,5.6-1.7,9-1.7c3.2,0,6,0.5,8.4,1.6c2.4,1,4.6,2.6,6.5,4.5L1334.8,248.3z"/>
<path fill="#193F70" d="M1344.5,282.8v-63.4h10.3v24.4c1.7-1.6,3.5-2.9,5.5-3.9c2-1,4.4-1.5,7.1-1.5c2.3,0,4.4,0.4,6.2,1.2
	c1.8,0.8,3.3,1.9,4.5,3.4c1.2,1.5,2.1,3.2,2.8,5.2c0.6,2,0.9,4.3,0.9,6.7v27.9h-10.3v-27.9c0-2.7-0.6-4.7-1.8-6.2
	c-1.2-1.5-3-2.2-5.4-2.2c-1.8,0-3.5,0.4-5,1.2c-1.6,0.8-3,1.9-4.4,3.4v31.7H1344.5z"/>
<rect x="579.2" y="127.1" fill="#EA5D4E" width="13.6" height="155.7"/>
<path fill="#EA5D4E" d="M268.6,27.2c-0.9-1-2.1-1.8-3.4-2.4c-1.3-0.6-2.8-0.8-4.5-0.8h-6.6v24.3h6.6c1.7,0,3.2-0.3,4.5-0.8
	c1.3-0.6,2.4-1.4,3.4-2.4c0.9-1,1.6-2.3,2.1-3.8c0.5-1.5,0.7-3.2,0.7-5.1c0-1.9-0.2-3.6-0.7-5.1C270.2,29.5,269.5,28.2,268.6,27.2"
	/>
<path fill="#EA5D4E" d="M187.3,27.2c-0.9-1-2.1-1.8-3.4-2.4c-1.3-0.6-2.8-0.8-4.5-0.8h-6.6v24.3h6.6c1.7,0,3.2-0.3,4.5-0.8
	c1.3-0.6,2.4-1.4,3.4-2.4c0.9-1,1.6-2.3,2.1-3.8c0.5-1.5,0.7-3.2,0.7-5.1c0-1.9-0.2-3.6-0.7-5.1C188.9,29.5,188.2,28.2,187.3,27.2"
	/>
<path fill="#EA5D4E" d="M329.8,32.6c1.1-0.8,1.6-2.1,1.6-3.8c0-1.8-0.5-3.1-1.5-3.9c-1-0.8-2.6-1.1-4.7-1.1h-5.4v10h5
	C327.1,33.8,328.7,33.4,329.8,32.6"/>
<path fill="#EA5D4E" d="M331.1,39.5c-0.5-0.4-1.1-0.7-1.9-1c-0.8-0.2-1.7-0.3-2.9-0.3h-6.4v10.1h6.4c1.2,0,2.2-0.1,3-0.4
	c0.8-0.3,1.4-0.7,1.9-1.1c0.5-0.5,0.8-1,1-1.7c0.2-0.6,0.3-1.3,0.3-2c0-0.8-0.1-1.4-0.4-2C331.9,40.5,331.6,40,331.1,39.5"/>
<path fill="#EA5D4E" d="M367.3,40v13.4H361V40l-12.4-21.2h5.6c0.6,0,1,0.1,1.3,0.4c0.3,0.3,0.6,0.6,0.8,1l6.2,11.5
	c0.4,0.7,0.7,1.3,0.9,1.9c0.3,0.6,0.5,1.2,0.7,1.8c0.2-0.6,0.4-1.2,0.7-1.8c0.3-0.6,0.6-1.2,0.9-1.9l6.2-11.5c0.2-0.4,0.4-0.7,0.8-1
	c0.4-0.3,0.8-0.5,1.3-0.5h5.6L367.3,40z M337.9,47.3c-0.6,1.2-1.4,2.3-2.4,3.2c-1,0.9-2.3,1.6-3.9,2.1c-1.5,0.5-3.3,0.8-5.2,0.8
	h-12.8V18.8h11.7c2.2,0,4.1,0.2,5.7,0.6c1.6,0.4,2.9,1,3.9,1.8c1,0.8,1.7,1.8,2.2,2.9c0.5,1.1,0.7,2.4,0.7,3.8
	c0,0.8-0.1,1.6-0.4,2.3c-0.2,0.7-0.6,1.4-1.1,2.1c-0.5,0.6-1.1,1.2-1.9,1.8c-0.8,0.5-1.7,1-2.7,1.3c4.7,1.1,7,3.6,7,7.7
	C338.8,44.7,338.5,46,337.9,47.3 M276.7,43.1c-0.8,2.1-2,3.9-3.5,5.5c-1.5,1.5-3.3,2.7-5.4,3.6c-2.1,0.8-4.5,1.3-7,1.3h-12.9V18.8
	h12.9c2.6,0,4.9,0.4,7,1.3c2.1,0.9,3.9,2,5.4,3.6c1.5,1.5,2.7,3.3,3.5,5.5c0.8,2.1,1.2,4.4,1.2,7C277.9,38.6,277.5,41,276.7,43.1
	 M232.9,23.9h-15v9.6h11.9v4.9h-11.9v9.8h15v5.1h-21.4V18.8h21.4V23.9z M195.4,43.1c-0.8,2.1-2,3.9-3.5,5.5
	c-1.5,1.5-3.3,2.7-5.4,3.6c-2.1,0.8-4.4,1.3-7,1.3h-12.9V18.8h12.9c2.6,0,4.9,0.4,7,1.3c2.1,0.9,3.9,2,5.4,3.6
	c1.5,1.5,2.7,3.3,3.5,5.5c0.8,2.1,1.2,4.4,1.2,7C196.6,38.6,196.2,41,195.4,43.1 M149.6,53.4h-3.2c-0.5,0-0.9-0.1-1.3-0.3
	c-0.3-0.2-0.7-0.4-1-0.8l-17.7-23c0.1,1.1,0.1,2,0.1,2.9v21.2H121V18.8h3.3c0.3,0,0.5,0,0.7,0c0.2,0,0.4,0.1,0.5,0.1
	c0.1,0.1,0.3,0.2,0.4,0.3c0.1,0.1,0.3,0.3,0.5,0.5L144.2,43c-0.1-0.6-0.1-1.1-0.1-1.6c0-0.5,0-1,0-1.5v-21h5.5V53.4z M104.5,39.5
	c0,2.1-0.3,4-1,5.7c-0.6,1.7-1.6,3.3-2.8,4.5c-1.2,1.3-2.7,2.3-4.4,3c-1.7,0.7-3.7,1.1-5.9,1.1c-2.2,0-4.2-0.4-5.9-1.1
	c-1.7-0.7-3.2-1.7-4.4-3C79,48.5,78,47,77.4,45.2c-0.6-1.7-1-3.6-1-5.7V18.8h6.3v20.7c0,1.3,0.2,2.5,0.5,3.6c0.4,1.1,0.9,2,1.5,2.7
	c0.7,0.8,1.5,1.3,2.4,1.8c1,0.4,2.1,0.6,3.3,0.6c1.2,0,2.3-0.2,3.3-0.6c1-0.4,1.8-1,2.4-1.7c0.7-0.7,1.2-1.7,1.5-2.7
	c0.4-1.1,0.5-2.3,0.5-3.6V18.8h6.3V39.5z M62.3,23.9h-15v10.2H60v5.1H47.3v14.1h-6.3V18.8h21.4V23.9z M0,72.6h420.3V0H0V72.6z"/>
</svg>
