<?xml version="1.0" encoding="utf-8"?>
<!-- Generator: Adobe Illustrator 23.0.2, SVG Export Plug-In . SVG Version: 6.00 Build 0)  -->
<svg version="1.1" id="Layer_1" xmlns="http://www.w3.org/2000/svg" xmlns:xlink="http://www.w3.org/1999/xlink" x="0px" y="0px"
	 width="770.1px" height="283.5px" viewBox="0 0 770.1 283.5" enable-background="new 0 0 770.1 283.5" xml:space="preserve">
<path fill="#74CBC8" d="M376,149.7c-6.9-4.9-14.2-7.7-21.4-7.7c-8.6,0-14.2,4.1-14.2,10.9c0,3.8,2.1,7.3,6.1,10.4
	c1.6,1.1,3.4,2.1,9.4,5.1c16.8,8.9,23.6,17.4,23.6,30.5c0,17.7-15.5,30.5-37.3,30.5c-8.1,0-16.8-1.9-25.7-5.6V201
	c9.4,6.2,17.1,9.3,23.9,9.3c8.5,0,14.7-4.8,14.7-11.3c0-5.6-2.9-8.5-15.8-15.2c-7.3-3.8-9.6-5.3-12.8-8.1
	c-7.2-6.2-10.4-13.1-10.4-21.7c0-18.5,14.7-31.3,35.9-31.3c8,0,13.6,1.3,23.9,5.6V149.7 M448.5,149.7c-6.9-4.9-14.2-7.7-21.4-7.7
	c-8.6,0-14.2,4.1-14.2,10.9c0,3.8,2.1,7.3,6.1,10.4c1.6,1.1,3.4,2.1,9.4,5.1c16.8,8.9,23.6,17.4,23.6,30.5
	c0,17.7-15.5,30.5-37.3,30.5c-8.1,0-16.8-1.9-25.7-5.6V201c9.4,6.2,17.1,9.3,23.9,9.3c8.5,0,14.7-4.8,14.7-11.3
	c0-5.6-2.9-8.5-15.8-15.2c-7.3-3.8-9.6-5.3-12.8-8.1c-7.2-6.2-10.4-13.1-10.4-21.7c0-18.5,14.7-31.3,35.9-31.3
	c8,0,13.6,1.3,23.9,5.6V149.7 M487.4,124l54.3,65v-65h23.5v104.1h-21.2l-54.7-65.6v65.6h-23.5V124H487.4 M681,228.1h-25.2l-8.8-21.2
	h-45.2l-8,21.2h-23.5L610.3,124h26.5L681,228.1 M622.9,148.8l-15.2,41.8h32.6L622.9,148.8z M736.1,124c8.8,0,16.9,2.7,22.2,6.9
	c7.2,5.9,11.7,15.8,11.7,25.2c0,17.7-14,30.2-34.2,30.2h-16.3v41.8h-23.6V124H736.1 M729.5,167.8c10.1,0,15.5-4.5,15.5-12.8
	s-5.3-12.6-15.5-12.6h-10.1v25.4H729.5z"/>
<linearGradient id="SVGID_1_" gradientUnits="userSpaceOnUse" x1="218.2355" y1="283.4324" x2="218.2355" y2="46.3222" gradientTransform="matrix(1 0 0 -1 0 283.5634)">
	<stop  offset="0" style="stop-color:#9BD5BD"/>
	<stop  offset="1" style="stop-color:#74CBC8"/>
</linearGradient>
<path fill="url(#SVGID_1_)" d="M151.5,235.6c-0.2-6.5,0-13.1,0.2-19.8c0.3-6.5,0.6-13.1,1.3-19.8c1.3-13.1,3.2-26.2,7-38.9
	c1.9-6.4,4.3-12.8,7.8-18.5c3.7-5.6,7.3-11,11.8-16.1c2.2-2.6,4.6-4.9,7.3-7c2.7-2.1,5.7-3.8,9.1-5.1c3.4-1.3,6.7-1.9,10.1-2.4
	c3.4-0.5,6.7-0.8,9.9-1c6.5-0.5,12.8-1.4,19-3.4c3-0.8,6.1-1.9,9.3-3.2c1.6-0.6,3.2-1.1,4.8-1.6c0.8-0.3,1.8-0.5,2.6-0.6l2.4-0.5
	c3.2-0.6,6.5-1.3,9.9-1.8c3.4-0.3,6.9-0.6,10.4,0c1.8,0.3,3.5,1,5.3,1.9c1.6,1,3,2.4,4,4.1c0.5,0.8,0.8,1.8,1.1,2.6
	c0.3,1,0.5,1.8,0.5,2.9c0.2,1.9-0.3,4-1.3,5.6c-1.8,3.4-4.6,5.6-7.5,7.3c-2.9,1.8-5.9,3.4-8.9,4.6c-6.2,2.6-12.4,4.6-18.7,6.5
	l-9.4,2.9c-3.2,1-6.4,1.8-9.6,2.7c-3.2,1-6.4,1.8-9.3,3.2c-3,1.4-5.6,3.4-8.1,5.4c2.4-2.2,4.9-4.5,7.8-6.1c2.9-1.6,6.1-2.6,9.3-3.7
	c3.2-1,6.2-2.1,9.4-3l9.3-3.4c6.2-2.2,12.4-4.3,18.2-7c2.9-1.4,5.7-2.9,8.5-4.6c2.6-1.8,4.9-3.8,6.2-6.4c0.6-1.3,1-2.6,0.8-3.8
	c0-0.6-0.2-1.3-0.5-2.1c-0.2-0.6-0.5-1.3-0.8-1.9c-1.4-2.4-4-3.7-6.9-4.1c-2.9-0.5-6.1-0.3-9.3,0.2c-3.2,0.5-6.4,1.1-9.6,1.8
	l-2.4,0.5c-0.8,0.2-1.4,0.3-2.2,0.5c-1.4,0.5-3,1-4.5,1.6c-3,1.1-6.2,2.4-9.4,3.4c-6.5,1.9-13.1,3-19.8,3.5c-6.5,0.6-13.1,1-18.8,3
	c-5.7,2.1-10.7,6.2-15,11c-4.3,4.8-8.1,10.1-11.7,15.5c-3.4,5.4-5.7,11.3-7.8,17.6c-4,12.4-6.4,25.4-8.1,38.3
	C153.1,209.4,152.1,222.5,151.5,235.6"/>
<linearGradient id="SVGID_2_" gradientUnits="userSpaceOnUse" x1="250.0795" y1="283.4324" x2="250.0795" y2="46.3222" gradientTransform="matrix(1 0 0 -1 0 283.5634)">
	<stop  offset="0" style="stop-color:#9BD5BD"/>
	<stop  offset="1" style="stop-color:#74CBC8"/>
</linearGradient>
<path fill="url(#SVGID_2_)" d="M201.9,234.9c-1.8-5.3-3-10.5-4-16c-1-5.4-1.4-11-1-16.6c0.3-2.9,1-5.6,2.6-8.3
	c1.4-2.6,4.1-4.8,7.2-5.6c5.4-1.4,10.9-2.2,16.4-3c5.4-0.8,10.9-1.4,16.3-2.2c5.3-1,10.5-2.1,15.2-4.5c1.1-0.6,2.2-1.3,3.2-2.1
	c1-0.8,2.1-1.8,3-2.6c2.1-1.8,4-3.7,6.1-5.4c4-3.7,7.8-7.7,11.5-11.7c3.7-4,7.3-8,10.7-12.3c3.4-4.1,6.5-8.6,8.8-13.2
	c0.5-1.1,1-2.4,1.1-3.5c0-0.3,0.2-0.5,0.2-0.8v-2.9l-0.3-8.1c-0.2-5.4-0.5-11-0.8-16.4c-0.3-5.4-1-10.9-1.8-16.3
	c-0.5-2.7-1-5.3-1.8-7.8c-0.5-1.3-1-2.4-1.6-3.4c-0.3-0.5-0.6-0.6-1-0.8h-1.8c-2.6,0.2-5.1,1-7,2.7c-1.9,1.8-3,4.1-3.8,6.7
	s-1.3,5.3-1.6,8l-1.3,8.1c0.6-5.4,0.6-11,1.9-16.4c0.6-2.7,1.8-5.4,3.8-7.7c2.1-2.1,5.1-3.2,7.8-3.5c0.3,0,0.6-0.2,1.1-0.2
	c0.3,0,0.6-0.2,1.3,0c1.1,0.2,1.9,0.8,2.4,1.4c1.1,1.3,1.6,2.6,2.2,4c1,2.7,1.6,5.4,2.2,8.1c1.1,5.4,1.8,11,2.4,16.4
	c0.5,5.4,1,11,1.3,16.4l0.3,8.3l0.2,2.1v1.3c0,0.5,0,0.8-0.2,1.3c-0.3,1.6-0.8,3-1.3,4.3c-1.1,2.7-2.7,5.1-4.1,7.5
	c-1.6,2.4-3.2,4.6-4.9,6.9c-3.5,4.3-7.2,8.6-10.9,12.6c-3.8,4-7.7,8-11.8,11.7c-2.1,1.9-4.1,3.8-6.2,5.6c-1.1,1-2.1,1.8-3.4,2.7
	c-1.3,1-2.6,1.6-3.8,2.4c-5.3,2.6-10.9,3.7-16.4,4.6c-5.6,0.8-11,1.3-16.4,1.9c-5.4,0.6-10.9,1.3-16.1,2.4c-2.4,0.5-4.3,1.9-5.7,4.1
	c-1.3,2.1-2.1,4.6-2.6,7.3c-0.8,5.3-0.6,10.9,0,16.3c0.3,2.7,0.8,5.4,1.3,8.1C200.6,229.7,201.1,232.2,201.9,234.9"/>
<linearGradient id="SVGID_3_" gradientUnits="userSpaceOnUse" x1="273.9539" y1="283.4324" x2="273.9539" y2="46.3222" gradientTransform="matrix(1 0 0 -1 0 283.5634)">
	<stop  offset="0" style="stop-color:#9BD5BD"/>
	<stop  offset="1" style="stop-color:#74CBC8"/>
</linearGradient>
<path fill="url(#SVGID_3_)" d="M248.3,170.6c1.1,0.5,2.4,0.2,3.5-0.2c1.1-0.5,2.1-1,3-1.6c1.9-1.3,3.7-3,5.3-4.6
	c1.6-1.8,3.2-3.5,4.6-5.4c1.4-1.9,3-3.7,4.6-5.4c3.2-3.7,6.5-7,9.7-10.5c3.4-3.5,6.5-6.9,9.6-10.5c6.4-7,8.3-16.4,8.6-25.9
	c0.2-4.8,0.2-9.4-0.2-14.2c-0.2-4.8-0.8-9.6-1.3-14.4c2.1,9.3,3.7,18.8,3.7,28.6c0,4.8-0.5,9.7-1.8,14.5c-0.3,1.1-0.8,2.4-1.1,3.5
	c-0.5,1.1-1,2.4-1.6,3.5c-1.3,2.2-2.7,4.1-4.3,6.1c-6.2,7.5-13.4,13.9-20,20.7c-1.6,1.8-3.4,3.5-4.9,5.3c-1.6,1.8-3.2,3.5-5.1,5.3
	c-1.8,1.6-3.7,3.2-5.9,4.3c-1.1,0.6-2.2,1.1-3.4,1.4C250.7,171.1,249.5,171.3,248.3,170.6"/>
<linearGradient id="SVGID_4_" gradientUnits="userSpaceOnUse" x1="84.5456" y1="283.4324" x2="84.5456" y2="46.3222" gradientTransform="matrix(1 0 0 -1 0 283.5634)">
	<stop  offset="0" style="stop-color:#9BD5BD"/>
	<stop  offset="1" style="stop-color:#74CBC8"/>
</linearGradient>
<path fill="url(#SVGID_4_)" d="M151.3,235.6c-0.6-13.1-1.8-26.2-3.5-39.3c-1.8-12.9-4.1-25.9-8.1-38.3c-2.1-6.2-4.5-12.1-7.8-17.6
	c-3.5-5.4-7.3-10.7-11.7-15.5c-4.3-4.8-9.1-8.9-15-11c-5.7-2.1-12.3-2.4-18.8-3s-13.2-1.6-19.8-3.5c-3.2-1-6.4-2.1-9.4-3.4
	c-1.6-0.6-3-1.1-4.5-1.6c-0.8-0.2-1.4-0.3-2.2-0.5l-2.4-0.5c-3.2-0.6-6.4-1.4-9.6-1.8c-3.2-0.5-6.4-0.6-9.3-0.2
	c-2.9,0.5-5.6,1.8-6.9,4.1c-0.3,0.6-0.6,1.3-0.8,1.9c-0.2,0.6-0.3,1.4-0.5,2.1c-0.2,1.3,0.2,2.7,0.8,3.8c1.3,2.6,3.7,4.6,6.2,6.4
	c2.6,1.8,5.4,3.2,8.5,4.6c5.9,2.7,12.1,4.9,18.2,7L64,133c3,1.1,6.2,2.1,9.4,3c3.2,1.1,6.2,2.1,9.3,3.7c2.9,1.6,5.4,3.7,7.8,6.1
	c-2.6-2.1-5.1-4.1-8.1-5.4c-2.9-1.4-6.1-2.2-9.3-3.2c-3.2-0.8-6.4-1.8-9.6-2.7l-9.4-2.9c-6.2-1.9-12.6-4-18.7-6.5
	c-3-1.3-6.1-2.7-8.9-4.6c-2.9-1.9-5.7-4-7.5-7.3c-1-1.6-1.4-3.7-1.3-5.6c0-1,0.3-1.9,0.5-2.9c0.3-1,0.6-1.8,1.1-2.6
	c1-1.8,2.4-3.2,4-4.1c1.6-1,3.5-1.6,5.3-1.9c3.5-0.6,7-0.5,10.4,0c3.4,0.3,6.7,1.1,9.9,1.8l2.4,0.5c0.8,0.2,1.8,0.3,2.6,0.6
	c1.8,0.5,3.2,1.1,4.8,1.6c3,1.1,6.1,2.2,9.3,3.2c6.2,1.8,12.6,2.7,19,3.4c3.2,0.3,6.5,0.6,9.9,1c3.4,0.5,6.7,1.1,10.1,2.4
	c3.4,1.3,6.4,3,9.1,5.1c2.7,2.1,5.1,4.5,7.3,7c4.5,5.1,8.1,10.5,11.8,16.1c3.5,5.9,5.9,12.1,7.8,18.5c3.8,12.8,5.7,25.9,7,38.9
	c0.6,6.5,1,13.1,1.3,19.8C151.5,222.3,151.5,229,151.3,235.6"/>
<linearGradient id="SVGID_5_" gradientUnits="userSpaceOnUse" x1="53.1956" y1="283.4324" x2="53.1956" y2="46.3222" gradientTransform="matrix(1 0 0 -1 0 283.5634)">
	<stop  offset="0" style="stop-color:#9BD5BD"/>
	<stop  offset="1" style="stop-color:#74CBC8"/>
</linearGradient>
<path fill="url(#SVGID_5_)" d="M100.9,234.9c0.6-2.7,1.3-5.4,1.8-8c0.5-2.7,1-5.4,1.3-8.1c0.6-5.4,0.8-10.9,0-16.3
	c-0.5-2.6-1.1-5.3-2.6-7.3c-1.3-2.1-3.4-3.7-5.7-4.1c-5.3-1.1-10.7-1.9-16.1-2.4c-5.4-0.6-11-1.1-16.4-1.9c-5.4-1-11-2.1-16.4-4.6
	c-1.3-0.6-2.6-1.4-3.8-2.4c-1.1-1-2.2-1.8-3.4-2.7c-2.1-1.8-4.1-3.7-6.2-5.6c-4-3.8-8-7.7-11.8-11.7s-7.5-8.1-10.9-12.6
	c-1.8-2.2-3.4-4.5-4.9-6.9c-1.6-2.4-3-4.8-4.1-7.5c-0.6-1.4-1.1-2.7-1.4-4.3c0.2-0.2,0-0.6,0-1v-1.3l0.2-2.1l0.3-8.3
	c0.3-5.6,0.6-11,1.3-16.4C2.4,94,3,88.4,4.1,83c0.5-2.7,1.1-5.4,2.2-8.1c0.5-1.3,1.1-2.7,2.2-4c0.5-0.6,1.3-1.3,2.4-1.4h1.3
	c0.3,0,0.8,0.2,1.1,0.2c2.9,0.5,5.7,1.4,7.8,3.5s3.2,4.9,3.8,7.7c1.3,5.4,1.3,11,1.9,16.4l-1.4-8.1c-0.5-2.7-0.8-5.4-1.6-8
	c-0.8-2.6-1.9-5.1-3.8-6.7c-1.9-1.8-4.5-2.4-7-2.7h-1.8c-0.3,0-0.6,0.3-1,0.8c-0.6,0.8-1.3,2.1-1.6,3.4C8,78.4,7.5,80.9,7,83.6
	c-0.8,5.4-1.4,10.9-1.8,16.3c-0.6,5.3-1,10.7-1.1,16.1L4,124.3v2.9c0,0.3,0,0.5,0.2,0.8c0.2,1.1,0.6,2.2,1.1,3.5
	c2.2,4.6,5.4,9.1,8.8,13.2c3.4,4.3,7,8.3,10.7,12.3s7.5,7.8,11.5,11.7c1.9,1.9,4,3.7,6.1,5.4c1,0.8,2.1,1.8,3,2.6
	c1,0.8,2.1,1.4,3.2,2.1c4.6,2.4,9.9,3.5,15.2,4.5c5.3,1,10.9,1.6,16.3,2.2c5.4,0.8,11,1.6,16.4,3c3,0.8,5.7,2.9,7.2,5.6
	c1.4,2.6,2.2,5.4,2.6,8.3c0.6,5.6,0,11.2-1,16.6C104.1,224.4,102.6,229.7,100.9,234.9"/>
<linearGradient id="SVGID_6_" gradientUnits="userSpaceOnUse" x1="28.728" y1="283.4324" x2="28.728" y2="46.3222" gradientTransform="matrix(1 0 0 -1 0 283.5634)">
	<stop  offset="0" style="stop-color:#9BD5BD"/>
	<stop  offset="1" style="stop-color:#74CBC8"/>
</linearGradient>
<path fill="url(#SVGID_6_)" d="M54.4,170.6c-1.1,0.6-2.4,0.5-3.5,0.2s-2.2-0.8-3.4-1.4c-2.1-1.3-4-2.7-5.7-4.3
	c-1.8-1.6-3.5-3.4-5.1-5.3c-1.6-1.8-3.2-3.5-4.9-5.3c-6.5-6.9-13.7-13.2-20-20.7c-1.6-1.9-3-3.8-4.3-6.1c-0.6-1.1-1.1-2.2-1.6-3.5
	c-0.5-1.1-0.8-2.4-1.1-3.5c-1.3-4.8-1.8-9.7-1.8-14.5c0-9.7,1.6-19.3,3.7-28.6c-0.5,4.8-1,9.6-1.3,14.4c-0.3,4.8-0.5,9.6-0.2,14.2
	c0.5,9.4,2.2,18.8,8.6,25.9c3,3.7,6.2,7,9.6,10.5s6.5,6.9,9.7,10.5c1.6,1.8,3.2,3.7,4.6,5.4c1.4,1.9,3,3.7,4.6,5.4
	c1.6,1.8,3.4,3.4,5.3,4.6c1,0.6,1.9,1.3,3,1.6C52,170.8,53.3,171.1,54.4,170.6"/>
<linearGradient id="SVGID_7_" gradientUnits="userSpaceOnUse" x1="74.0296" y1="283.4324" x2="74.0296" y2="46.3222" gradientTransform="matrix(1 0 0 -1 0 283.5634)">
	<stop  offset="0" style="stop-color:#9BD5BD"/>
	<stop  offset="1" style="stop-color:#74CBC8"/>
</linearGradient>
<path fill="url(#SVGID_7_)" d="M44.5,93.1c1.6-4.3,3.8-8.5,6.7-12.1c1.4-1.8,3.2-3.5,5.1-4.9c0.5-0.3,1-0.6,1.6-1
	c0.5-0.3,1-0.5,1.4-0.8c1-0.6,1.8-1.1,2.6-1.9c0.6-0.8,1.1-1.6,1.3-2.4c0.2-0.8-0.2-1.8-0.6-2.7c-0.5-1-1.1-1.8-1.8-2.7
	c-0.2-0.3-0.3-0.5-0.5-0.8l-0.5-1c-0.3-0.6-0.5-1.1-0.6-1.8c-1.4-4.8-1.6-9.4-2.1-13.9c-0.3-2.2-0.6-4.5-1.1-6.5
	c-0.5-1.9-1.6-4-2.6-6.1c-1-2.1-1.9-4.3-2.4-7c-0.2-1.3-0.2-2.9,0.3-4.3c0.5-1.4,1.6-2.9,2.7-3.7c0.6-0.5,1.1-0.8,1.8-1.1l1-0.5
	l0.8-0.3c1.1-0.5,2.2-0.8,3.4-1.3c2.2-0.8,4.5-1.4,6.7-2.1c4.5-1.1,9.1-2.2,14-2.4c1.3,0,2.6,0,3.8,0.2c1.3,0.2,2.7,0.5,4,1.4
	c2.2,1.4,4.1,3.2,5.6,5.6c0.6,1.1,1.3,2.6,1.4,4.1c0,0.8-0.2,1.8-0.5,2.7c-0.5,1-1.3,1.6-1.9,2.1c-0.2,0.2-0.3,0.2-0.6,0.3L93,28.4
	l-0.8,0.3l-1.6,0.6c-1.1,0.3-2.1,0.8-2.9,1.3s-1.6,1-1.8,1.4c-0.2,0.2-0.2,0.3-0.2,0.6s0.2,0.6,0.3,1c0.8,1.4,2.6,3.2,4.1,4.8
	c3.2,3.5,6.1,7.3,8.1,11.7c2.1,4.3,3.7,8.8,4.3,13.6c0.8,4.6,1,9.4,0.5,14c-0.3,4.6-1.1,9.3-2.2,13.7c-0.6,2.2-1.1,4.5-1.9,6.7
	s-1.4,4.3-2.4,6.5c2.4-8.8,4.3-17.9,4.5-27c0.2-9.1-1.4-18.2-5.7-25.9c-2.1-3.8-4.9-7.3-8-10.5L85.1,39c-0.8-0.8-1.8-1.8-2.4-3
	c-0.3-0.6-0.6-1.4-0.8-2.2c-0.2-1,0-1.9,0.5-2.7c0.8-1.8,2.2-2.6,3.4-3.2c1.1-0.6,2.2-1.1,3.4-1.4l1.6-0.6l0.8-0.3l0.3-0.2
	c0,0,0.2,0,0.2-0.2c0.3-0.3,0.5-0.3,0.5-1.1c0-0.6-0.3-1.4-0.8-2.2c-1-1.6-2.6-3-4.1-4.1c-1.3-0.8-3.4-1-5.6-1
	c-4.3,0.2-8.8,1-13.1,2.1c-2.2,0.6-4.3,1.3-6.5,1.9c-1.1,0.3-2.1,0.8-3.2,1.1L58.3,22c-0.2,0.2-0.5,0.2-0.6,0.3
	c-0.5,0.2-0.8,0.5-1.1,0.6c-1.3,1-1.8,2.2-1.6,4.3c0.3,1.9,1.1,4,1.9,6.1l1.3,3.2c0.5,1.1,1,2.2,1.3,3.5c0.6,2.4,0.8,4.8,1.1,7
	c0.5,4.6,0.5,9.3,1.6,13.4l0.5,1.4c0.2,0.3,0.2,0.5,0.3,0.6c0,0.2,0.3,0.5,0.3,0.6c0.6,1,1.3,2.1,1.8,3.2c0.5,1.1,0.8,2.6,0.6,4
	c-0.2,1.4-1.1,2.7-2.1,3.7c-1,1-2.1,1.6-3,2.2c-0.5,0.3-1.1,0.5-1.6,0.8c-0.5,0.2-1,0.5-1.4,0.6c-1.9,1.1-3.7,2.6-5.1,4.1
	c-1.4,1.6-2.9,3.5-4.1,5.3C46.8,88.9,45.5,91,44.5,93.1"/>
<linearGradient id="SVGID_8_" gradientUnits="userSpaceOnUse" x1="107.8427" y1="283.4324" x2="107.8427" y2="46.3222" gradientTransform="matrix(1 0 0 -1 0 283.5634)">
	<stop  offset="0" style="stop-color:#9BD5BD"/>
	<stop  offset="1" style="stop-color:#74CBC8"/>
</linearGradient>
<path fill="url(#SVGID_8_)" d="M87.9,9.4C88.1,7,88.6,4.6,90,2.6c0.6-1,1.8-1.9,3.2-2.4c1.3-0.3,2.7-0.2,4,0.2s2.4,1.1,3.4,1.6
	c1,0.6,2.1,1.1,3,1.8c2.1,1.1,4.1,2.1,6.2,3c2.1,1,4.3,1.6,6.4,2.1c1.1,0.3,2.2,0.5,3.4,0.6l1,0.2c0.5,0,0.8,0.2,1.1,0.3
	c0.8,0.2,1.4,0.5,2.1,1c1.3,0.8,2.4,1.9,3.2,3.4c0.8,1.4,1.1,3.2,0.6,4.9c-0.5,1.8-1.6,3-2.9,4c-0.6,0.5-1.3,0.8-1.9,1.1
	c-0.3,0.2-0.6,0.3-1,0.3l-1,0.3c-2.4,0.8-4.8,1.1-6.9,1.8c-1,0.3-1.8,0.8-2.1,1.1c-0.3,0.3-0.5,1-0.3,1.9c0.2,1,0.5,1.9,0.8,2.9
	c0.3,1.1,0.8,1.9,1.3,3c1,2.1,2.2,4,3.5,6.1c1.1,2.1,2.4,4.3,3.2,6.7c0.8,2.4,1.3,4.8,1.4,7.3c0.3,4.9-0.8,9.7-2.4,14.2
	c0.6-4.6,1.1-9.4,0.2-13.9c-0.8-4.5-2.9-8.5-5.4-12.3c-1.3-1.9-2.7-3.8-3.8-6.1c-0.6-1.1-1.3-2.2-1.6-3.4c-0.5-1.1-0.8-2.4-1.1-3.8
	c-0.2-0.8-0.2-1.4,0-2.4c0.2-0.8,0.5-1.8,1.1-2.6c1.3-1.4,2.7-2.1,4-2.6c2.6-0.8,4.8-1.1,6.9-1.8c1.1-0.3,2.1-0.6,2.7-1.1
	c0.6-0.5,1.1-1,1.3-1.6c0.3-1.1-0.5-2.9-1.9-3.8c-0.3-0.2-0.8-0.5-1.1-0.6c-0.2,0-0.5-0.2-0.6-0.2l-0.8-0.2
	c-1.3-0.2-2.4-0.5-3.7-0.8c-2.4-0.6-4.6-1.6-6.9-2.7c-2.2-1.1-4.3-2.2-6.2-3.7c-1-0.6-1.9-1.3-3-2.1c-1-0.6-1.8-1.3-2.9-1.8
	c-1-0.5-1.9-0.6-2.9-0.5c-1,0.2-1.9,0.8-2.7,1.6C89.4,5,88.4,7.2,87.9,9.4"/>
<linearGradient id="SVGID_9_" gradientUnits="userSpaceOnUse" x1="159.6801" y1="283.4324" x2="159.6801" y2="46.3222" gradientTransform="matrix(1 0 0 -1 0 283.5634)">
	<stop  offset="0" style="stop-color:#9BD5BD"/>
	<stop  offset="1" style="stop-color:#74CBC8"/>
</linearGradient>
<path fill="url(#SVGID_9_)" d="M155.9,144.8c-3.8-2.2-7.3-4.8-10.9-7.5c-3.4-2.9-6.7-5.7-9.4-9.3c-0.6-1-1.3-1.8-1.9-2.9
	c-0.6-1.1-1-2.2-1.3-3.4c-0.6-2.2-1-4.5-1.3-6.5c-0.6-4.5-1-8.8-1.3-13.1c-0.3-4.3-0.5-8.8-0.8-13.1c0-1.1-0.2-2.1-0.3-3.2
	c0-0.5-0.2-1-0.2-1.4l-0.3-1.6c-0.5-2.4-0.5-4.6-0.5-7c0.2-4.6,1.1-9.1,2.7-13.4c0.2-0.5,0.5-1.1,0.6-1.6c0.2-0.5,0.5-1.1,0.8-1.6
	c0.5-1.1,1.1-2.1,2.1-3.2c0.8-1,1.8-1.9,3.4-2.7c0.8-0.3,1.9-0.5,3-0.2c1.3,0.5,2.1,1.6,2.4,2.4c0.3,1,0.3,1.8,0.3,2.4v0.5
	c0-0.2-0.2-0.3-0.6-0.8c-0.5-0.3-1.1-0.3-1.3-0.2c-0.2,0-0.2,0.2-0.2,0l0.3-0.3l1-1c0.3-0.3,1-1,1.8-1.4c0.3-0.2,0.8-0.5,1.4-0.6
	c0.6-0.2,1.3-0.2,1.9,0.2c1.3,0.5,1.9,1.6,2.2,2.2c0.3,0.8,0.5,1.6,0.5,2.2V61c0,0,0,0.2,0,0c0,0,0-0.3-0.5-0.6
	c-0.2-0.2-0.5-0.3-0.8-0.3h-0.3h-0.3c0.2,0,0.3-0.2,0.5-0.3c0.5-0.3,1-0.6,1.6-1c1.1-0.6,2.7-1.3,4.5-1c1,0.2,1.9,0.6,2.6,1.4
	c0.6,0.8,1,1.8,1.1,2.6c0.2,1.6-0.2,3-0.5,4.1c-0.3,1.1-0.8,2.2-1.1,3.2l-2.1,6.4c-0.6,2.1-1.4,4-1.9,6.1l-0.5,2.9
	c0,0.5,0,0.8,0.2,1.1v0.2l0.2,0.3l0.3,0.6c1.9,3.8,4.1,7.5,6.5,11.2c1.1,1.8,2.4,3.7,3.5,5.4c1.3,1.8,2.6,3.5,4,4.8
	c0.2,0.2,0.3,0.3,0.5,0.3c-0.2,0-0.5,0.2-0.2,0l1.4-0.6c1-0.5,2.1-0.8,3.2-1.3c2.1-0.8,4.3-1.3,6.5-1.6c2.2-0.3,4.5-0.5,6.7-0.2
	c2.2,0.3,4.3,1,6.2,2.2c-4-1.9-8.5-1.8-12.6-0.6c-2.1,0.5-4.1,1.3-6.1,2.1l-2.9,1.4l-1.4,0.8c0,0-0.6,0.3-1,0.3s-0.6-0.2-0.8-0.2
	c-0.5-0.2-0.6-0.3-1-0.6c-1.9-1.6-3.2-3.4-4.6-5.1s-2.7-3.5-3.8-5.4c-2.6-3.7-4.8-7.3-7-11.2l-0.5-0.8l-0.2-0.3
	c0-0.2-0.2-0.3-0.3-0.6c-0.3-0.8-0.3-1.4-0.3-2.2c0-1.3,0.2-2.6,0.5-3.7c0.5-2.2,1.1-4.5,1.9-6.5c0.6-2.1,1.4-4.1,2.2-6.2
	c0.6-2.1,1.4-4.1,1.3-5.4c0-0.3-0.2-0.5-0.2-0.5s-0.2,0-0.3-0.2h-0.8h-0.2c-0.2,0,0,0-0.2,0.2c-0.2,0-0.3,0.2-0.5,0.3
	c-0.3,0.2-0.8,0.5-1.3,0.8c-0.2,0.2-0.5,0.3-0.8,0.5c-0.2,0.2-0.5,0.2-0.8,0.3h-0.8c-0.3,0-0.8-0.2-1.1-0.5c-0.6-0.5-0.8-1-1-1.3
	c-0.2-0.3-0.2-0.5-0.2-0.8c0-0.5-0.2-0.8-0.2-1.1v-1.4c0-0.5-0.2-0.8-0.2-1c-0.2-0.2-0.2-0.2,0.2,0c0.3,0.2,0.3,0,0.2,0.2
	c-0.2,0.2-0.3,0.3-0.8,0.6c-0.3,0.5-0.8,0.8-1.3,1.3c-0.3,0.2-0.5,0.5-1,0.8c-0.2,0.2-0.5,0.3-1,0.5c-0.5,0.2-1.3,0.2-2.1-0.3
	c-0.8-0.5-1-1.1-1.1-1.4c-0.2-0.3-0.2-0.6-0.2-0.8v-1.1v-0.8c0-0.2,0,0,0.2,0h-0.2c-0.5,0.2-1.1,0.6-1.8,1.4
	c-0.6,0.6-1.1,1.4-1.6,2.4c-0.2,0.5-0.5,0.8-0.6,1.3c-0.2,0.5-0.3,1-0.6,1.4c-1.4,4-2.2,8-2.6,12.1c-0.2,2.1-0.2,4.1,0.2,6.1
	l0.3,1.6c0.2,0.6,0.2,1.1,0.2,1.8c0.2,1.1,0.2,2.2,0.2,3.4c0.2,4.5,0.3,8.8,0.3,13.1c0.2,4.3,0.3,8.6,0.8,12.9
	c0.2,2.1,0.5,4.3,1,6.2c0.2,1,0.5,2.1,1,2.9s1.1,1.8,1.6,2.7c2.4,3.5,5.4,6.7,8.5,9.7C149.2,139.2,152.6,142.1,155.9,144.8"/>
<linearGradient id="SVGID_10_" gradientUnits="userSpaceOnUse" x1="116.7476" y1="283.4324" x2="116.7476" y2="46.3222" gradientTransform="matrix(1 0 0 -1 0 283.5634)">
	<stop  offset="0" style="stop-color:#9BD5BD"/>
	<stop  offset="1" style="stop-color:#74CBC8"/>
</linearGradient>
<path fill="url(#SVGID_10_)" d="M101,81.9c2.7-0.8,5.3-1.3,8-1.6c2.7-0.3,5.4-0.3,8.1-0.2c5.4,0.3,10.7,1.8,15.3,4.3
	c-4.8-2.2-10.1-3-15.3-3c-2.6,0-5.3,0.3-7.8,0.8s-5.1,1.1-7.3,2.1L101,81.9"/>
<linearGradient id="SVGID_11_" gradientUnits="userSpaceOnUse" x1="223.201" y1="283.4324" x2="223.201" y2="46.3222" gradientTransform="matrix(1 0 0 -1 0 283.5634)">
	<stop  offset="0" style="stop-color:#9BD5BD"/>
	<stop  offset="1" style="stop-color:#74CBC8"/>
</linearGradient>
<path fill="url(#SVGID_11_)" d="M160.4,84.1c0-1.8,0.3-3.7,0.8-5.4c0.3-1,0.6-1.8,1.3-2.6c0.3-0.5,0.6-0.8,1-1.1
	c0.2-0.3,0.5-0.6,0.5-1.1c0.6-1.6,0.8-3.4,1.1-5.1c0.2-1,0.3-1.8,0.5-2.7c0.2-1,0.5-1.9,1.1-3c0.2-0.3,0.3-0.5,0.6-0.8
	c0.2-0.2,0.3-0.2,0.5-0.3l0.3-0.2l1.3-0.6c0.8-0.3,1.6-0.8,2.4-1.1c1.6-0.8,3-1.6,4.3-2.7c1.3-1,2.2-2.2,2.7-3.5
	c0.6-1.8,1.3-3.5,2.2-5.3c1.8-3.5,4.1-6.5,7-9.3c2.9-2.7,5.9-4.8,9.3-6.7c6.5-3.7,13.6-6.4,20.9-8.3c7.3-1.8,14.8-2.9,22.5-2.2
	c7.5,0.6,15.2,2.7,21.5,6.9c6.5,4,11.8,9.7,15.6,16.1c3.8,6.4,6.5,13.4,8.1,20.4c-2.7-6.9-5.9-13.4-10.2-19.2
	c-4.1-5.7-9.4-10.7-15.5-14c-6.1-3.4-12.9-5.1-20-5.4c-7-0.3-14,0.6-20.9,2.4c-6.9,1.8-13.6,4.3-19.8,7.7
	c-6.2,3.4-11.7,7.8-15.2,13.7c-0.8,1.4-1.6,3-2.4,4.8c-1,2.1-2.4,3.7-4.1,4.8c-1.6,1.1-3.4,1.9-5.1,2.7c-0.8,0.3-1.8,0.6-2.6,1
	l-1.3,0.5l-0.3,0.2h-0.2l-0.2,0.2c-0.3,0.5-0.6,1.3-1,2.1c-0.3,0.8-0.5,1.8-0.6,2.6c-0.5,1.8-0.8,3.7-1.8,5.4
	c-0.3,0.5-0.5,0.8-1,1.3l-1,1c-0.6,0.6-1,1.4-1.4,2.2C161,80.6,160.6,82.4,160.4,84.1"/>
<linearGradient id="SVGID_12_" gradientUnits="userSpaceOnUse" x1="177.1894" y1="283.4324" x2="177.1894" y2="46.3222" gradientTransform="matrix(1 0 0 -1 0 283.5634)">
	<stop  offset="0" style="stop-color:#9BD5BD"/>
	<stop  offset="1" style="stop-color:#74CBC8"/>
</linearGradient>
<path fill="url(#SVGID_12_)" d="M165.2,59.7c-0.5-6.5-0.5-13.2-0.8-19.6c0-0.3,0-0.8-0.2-1.1c0-0.3-0.2-0.6-0.2-1.1
	c-0.2-0.8-0.3-1.8-0.3-2.7s0-1.9,0.5-3c0.2-0.6,0.5-1.3,1.3-1.9c0.8-0.6,2.2-0.8,3-0.5c0.8,0.3,1.3,0.8,1.8,1.1
	c0.2,0.2,0.3,0.5,0.6,0.6l0.5,0.6c0.2,0.3,0.5,0.6,0.5,0.8l-0.2-0.2c-0.2,0-0.2-0.2-0.3-0.2c-0.2,0-0.5-0.2-0.6-0.2
	c-0.3,0-0.6,0.2-0.8,0.2s-0.2,0.2-0.3,0.2l-0.2,0.2c-0.3,0.3-0.3,0.5-0.3,0.3v-0.2c0.2-0.6,0.5-1.6,0.6-2.4c0.2-0.5,0.3-0.8,0.5-1.3
	l0.2-0.3l0.2-0.3c0.2-0.3,0.3-0.6,0.5-0.8c0.2-0.3,0.5-0.6,1-1c0.5-0.3,1.1-0.6,1.9-0.6s1.3,0.3,1.8,0.6c0.3,0.3,0.6,0.5,0.8,0.8
	c0.8,1,1.1,1.8,1.6,2.7c0.2,0.5,0.3,0.8,0.5,1.3v0.2c0,0,0,0.2,0,0c0,0,0-0.2-0.2-0.2l-0.2-0.2l-0.5-0.5c-0.2,0-0.2-0.2-0.3-0.2
	c-0.2,0-0.5-0.2-0.6,0c-0.2,0-0.5,0-0.6,0.2c-0.2,0-0.2,0.2-0.3,0.2c-0.2,0-0.2,0.2-0.3,0.2c-0.2,0-0.2,0.2-0.2,0.2l-0.2,0.2
	c-0.2,0.3-0.2,0.3-0.2,0.2v-0.2c0.2-0.6,0.3-1.6,0.6-2.6c0.3-1,0.6-1.8,1.3-2.7c0.2-0.3,0.3-0.3,0.6-0.8l0.2-0.2l0.2-0.2
	c0.2-0.2,0.3-0.3,0.6-0.5c0.3-0.2,0.5-0.3,1-0.3c0.5,0,1,0,1.3,0.2c0.8,0.3,1.1,0.8,1.3,1.1c0.5,0.6,0.5,1.1,0.6,1.6
	c0.2,0.5,0.2,1,0.3,1.4c0.2,1,0.2,1.8,0.3,2.6v1c0,0,0,0.3,0,0c0-0.2,0-0.2-0.2-0.5c-0.2-0.2-0.5-0.5-1-0.5c-0.8,0-1,0.2-1,0.2
	c-0.2,0.2-0.2,0.2,0,0l0.3-0.3l1.4-1.9c0.5-0.6,1-1.4,1.6-2.1c0.6-0.6,1.1-1.3,2.1-1.9c0.5-0.3,1.1-0.6,2.1-0.3
	c0.8,0.3,1.1,1,1.3,1.4c0.3,1,0.5,1.8,0.5,2.7c0.2,1.8,0,3.4-0.2,4.9c-0.3-1.6-0.5-3.2-1-4.8c-0.2-0.8-0.5-1.6-0.8-2.1
	c-0.2-0.3-0.3-0.5-0.3-0.3l-0.3,0.3c-0.5,0.3-1,1-1.3,1.6c-0.5,0.6-0.8,1.3-1.1,2.1c-0.3,0.8-0.8,1.4-1.3,2.2
	c-0.2,0.2-0.3,0.3-0.5,0.6c-0.2,0.2-0.2,0.3-0.5,0.5c-0.2,0-0.3,0.3-1.3,0.3c-0.5,0-1-0.3-1.1-0.6c-0.2-0.3-0.3-0.5-0.3-0.5
	c-0.2-0.6-0.2-0.5-0.2-0.6v-0.3l-0.2-0.6c-0.2-0.8-0.3-1.6-0.5-2.2c-0.2-0.3-0.2-0.6-0.3-1l-0.3-0.6c0,0,0,0.2,0.3,0.3
	c0.2,0.2,0.5,0.2,0.6,0.2c0.2,0,0.3-0.2,0.5-0.2c0,0,0.2,0,0.2-0.2l-0.2,0.2c0,0-0.2,0.2-0.2,0.3c-0.3,0.5-0.5,1.1-0.6,1.8
	c-0.2,0.6-0.3,1.4-0.5,2.2l-0.6,0.6c0,0.2,0,0.3-0.3,0.8c0,0.2-0.2,0.2-0.2,0.2l-0.5,0.5c-0.2,0-0.2,0.2-0.3,0.2
	c-0.2,0.2-0.5,0.2-0.6,0.2h-0.6c-0.2,0-0.3-0.2-0.5-0.2c-0.2-0.2-0.5-0.3-0.6-0.5l-0.2-0.2c-0.2-0.2-0.2-0.3-0.2-0.3l-0.2-0.3v-0.2
	c-0.2-0.3-0.3-0.6-0.3-1c-0.3-0.6-0.6-1.3-1-1.6c-0.2-0.2-0.2,0,0.5,0.2c0.3,0,0.6-0.2,0.8-0.2c0.2-0.2,0,0,0,0l-0.2,0.2
	c0,0-0.2,0.2-0.2,0.3l-0.2,0.2l-0.5,1c-0.3,0.6-0.5,1.3-0.6,2.2c0,0.2,0,0.3-0.2,0.5c-0.2,0.2-0.2,0.3-0.5,1l-0.2,0.2
	c-0.2,0.2-0.3,0.2-0.3,0.3c-0.3,0.2-0.6,0.3-1,0.3c-0.3,0-0.6,0-0.8-0.2c-0.2,0-0.3-0.2-0.5-0.2l-0.6-0.6c-0.5-0.5-0.6-0.8-0.8-1.3
	l-0.3-0.5c0-0.2-0.2-0.2-0.2-0.3l-0.2-0.2c0,0,0.5,0,0.6-0.2c0.2-0.2,0-0.2,0,0.2c-0.2,0.3-0.3,1.1-0.3,1.8s0,1.4,0.2,2.2
	c0,0.3,0.2,1,0.2,1.4v1.3C167.4,46.8,166.5,53.3,165.2,59.7"/>
<linearGradient id="SVGID_13_" gradientUnits="userSpaceOnUse" x1="182.841" y1="283.4324" x2="182.841" y2="46.3222" gradientTransform="matrix(1 0 0 -1 0 283.5634)">
	<stop  offset="0" style="stop-color:#9BD5BD"/>
	<stop  offset="1" style="stop-color:#74CBC8"/>
</linearGradient>
<path fill="url(#SVGID_13_)" d="M185.6,68.6c0,0-2.9,0.5-4.1-0.5c-1.3-0.8-1.8-2.2-1.1-3.2c0.6-1,2.1-1,3.4-0.2
	C185,65.8,185.6,68.6,185.6,68.6"/>
<linearGradient id="SVGID_14_" gradientUnits="userSpaceOnUse" x1="210.8967" y1="283.4324" x2="210.8967" y2="46.3222" gradientTransform="matrix(1 0 0 -1 0 283.5634)">
	<stop  offset="0" style="stop-color:#9BD5BD"/>
	<stop  offset="1" style="stop-color:#74CBC8"/>
</linearGradient>
<path fill="url(#SVGID_14_)" d="M196.6,98.5c6.5,1.9,12.8,1.4,18.2-1.1c0.6-0.3,1.4-0.6,2.1-1.1l1-0.6c0.3-0.2,0.6-0.5,1-0.6
	c1.3-0.8,2.4-1.8,3.2-2.7c0.3-0.5,0.5-1,0.5-1.4c0-0.5-0.3-1.1-0.8-1.6c-1-1.1-2.4-2.1-3.8-3c1.8,0.2,3.5,0.5,5.1,1.6
	c0.8,0.5,1.6,1.3,1.9,2.4c0.5,1.1,0.3,2.4-0.2,3.4c-0.8,2.1-2.2,3.4-3.7,4.5c-0.3,0.3-0.6,0.6-1.1,0.8c-0.3,0.3-0.6,0.5-1.1,0.8
	c-0.8,0.5-1.6,1-2.4,1.3c-3.2,1.6-7,2.4-10.7,1.9C202.4,102.5,199,101,196.6,98.5"/>
<linearGradient id="SVGID_15_" gradientUnits="userSpaceOnUse" x1="210.1138" y1="283.4324" x2="210.1138" y2="46.3222" gradientTransform="matrix(1 0 0 -1 0 283.5634)">
	<stop  offset="0" style="stop-color:#9BD5BD"/>
	<stop  offset="1" style="stop-color:#74CBC8"/>
</linearGradient>
<path fill="url(#SVGID_15_)" d="M205.6,94.8c-0.5-0.5-0.6-1-0.6-1.8c0-0.6,0.2-1.4,0.8-2.1c0.6-0.5,1.4-0.6,2.1-0.6s1.3,0,1.9,0.2
	l0.8,0.2c0.2,0,0.5,0.2,0.6,0.2h1.4c1-0.2,1.9-0.6,2.7-1.6c-0.2,1.1-1,2.2-2.2,2.9c-0.6,0.3-1.3,0.5-1.9,0.5h-1l-0.8-0.2
	c-1-0.2-2.1-0.3-2.7,0C205.9,92.6,205.6,93.7,205.6,94.8"/>
<path fill="#939598" d="M111.6,270.5c0-3.4-4-4.3-6.2-4.9c-3.5-0.8-7.5-2.9-7.5-6.7c0-4.1,3.4-5.7,7.7-5.7c2.6,0,4.9,0.3,7.5,1.1
	l-0.5,1.6c-3.5-0.8-5.1-1-7.2-1c-4.5,0-5.7,2.1-5.7,4.3c0,3.4,4.3,4.6,6.7,5.1c3.5,0.8,7,2.4,7,6.4c0,4.3-3.4,6.5-8,6.5
	c-2.6,0-5.3-0.3-8-1.1l0.3-1.6c3.4,0.8,5.7,1,7.7,1C110,275.2,111.6,272.8,111.6,270.5 M129.8,259.4h1.8v17.1h-1.8v-2.6
	c-1.8,1.8-4,2.9-6.5,2.9c-3.4,0-5.1-1.9-5.1-5.6v-11.8h1.6v11.5c0,2.4,1,4.5,4.1,4.5c2.6,0,4.8-1.6,5.9-2.6V259.4 M137.9,261.1
	c1.4-1.3,3.5-2.1,5.7-2.1c4.8,0,6.4,3.8,6.4,8.9s-1.8,8.9-6.5,8.9c-2.2,0-4.3-0.8-5.6-1.9v8.5h-1.8v-23.9h1.8V261.1 M143,260.5
	c-2.2,0-4.3,1.1-5.1,1.9v11.2c0.8,0.6,2.9,1.8,5.1,1.8c4.1,0,5.3-3.5,5.3-7.5C148.3,264,147.2,260.5,143,260.5z M156.1,261.1
	c1.4-1.3,3.5-2.1,5.7-2.1c4.8,0,6.4,3.8,6.4,8.9s-1.8,8.9-6.5,8.9c-2.2,0-4.3-0.8-5.6-1.9v8.5h-1.8v-23.9h1.8V261.1 M161.2,260.5
	c-2.2,0-4.3,1.1-5.1,1.9v11.2c0.8,0.6,2.9,1.8,5.1,1.8c4.1,0,5.3-3.5,5.3-7.5C166.5,264,165.2,260.5,161.2,260.5z M172,268
	c0-5.3,2.1-8.9,7.5-8.9s7.5,3.7,7.5,8.9s-2.1,8.9-7.5,8.9C174.1,276.9,172,273.3,172,268 M174,268c0,4,1.3,7.5,5.6,7.5
	c4.3,0,5.6-3.4,5.6-7.5c0-4-1.3-7.5-5.6-7.5C175.2,260.5,174,264,174,268z M193,276.6h-1.8v-17.1h1.8v2.7c1.8-1.6,4.1-3,7-3v1.6
	c-2.9,0-5.6,1.6-7,2.6V276.6 M205.2,260.6h-2.9v-1.1l2.9-0.2l0.3-4.8h1.4v4.8h5.3v1.3H207v10.5c0,2.7,0.6,4.3,3.4,4.3
	c0.6,0,1.1,0,1.9-0.2l0.2,1.3c-0.8,0.2-1.8,0.2-2.6,0.2c-3,0-4.6-1.3-4.6-5.4V260.6 M226,259.4h4.6v1.3H226v15.8h-1.8v-15.8h-2.9
	v-1.1l2.9-0.2v-2.6c0-3.2,1.3-4.3,4.6-4.3c0.8,0,1.6,0.2,2.6,0.2l-0.2,1.4c-1-0.2-1.6-0.2-2.4-0.2c-2.1,0-2.7,1-2.7,3v2.4
	 M233.7,268c0-5.3,2.1-8.9,7.5-8.9s7.5,3.7,7.5,8.9s-2.1,8.9-7.5,8.9S233.7,273.3,233.7,268 M235.6,268c0,4,1.3,7.5,5.6,7.5
	s5.6-3.4,5.6-7.5c0-4-1.3-7.5-5.6-7.5S235.6,264,235.6,268z M254.6,276.6h-1.8v-17.1h1.8v2.7c1.8-1.6,4.1-3,7-3v1.6
	c-2.9,0-5.6,1.6-7,2.6V276.6 M273.1,260.6h-2.9v-1.1l2.9-0.2l0.2-4.8h1.4v4.8h5.3v1.3h-5.3v10.5c0,2.7,0.6,4.3,3.4,4.3
	c0.6,0,1.1,0,1.9-0.2l0.2,1.3c-0.8,0.2-1.8,0.2-2.6,0.2c-3,0-4.6-1.3-4.6-5.4v-10.7 M286.3,276.6h-1.8v-23.9h1.8v9.4
	c1.8-1.8,4-2.9,6.5-2.9c3.4,0,5.1,1.9,5.1,5.6v11.8h-1.8v-11.5c0-2.4-1-4.5-4.1-4.5c-2.6,0-4.8,1.6-5.9,2.6v13.4 M304.2,268.1
	c0,4.3,1.8,7.3,6.5,7.3c1.9,0,3.5-0.2,5.3-0.6l0.3,1.4c-2.1,0.5-3.7,0.8-5.9,0.8c-6.1,0-8.1-3.7-8.1-8.9s2.2-8.9,8-8.9
	c6.9,0,7,5.7,6.2,8.9H304.2 M304.2,266.9h10.9c0.5-2.9-0.2-6.5-4.8-6.5C306,260.5,304.5,263.4,304.2,266.9z M337.6,272
	c0-1.4-0.6-2.7-4.8-3.5c-3.4-0.6-6.1-1.8-6.1-5.1c0-2.9,2.1-4.5,5.9-4.5c2.6,0,4.5,0.2,6.5,0.8l-0.3,1.4c-2.7-0.6-4.9-0.6-6.1-0.6
	c-4.1,0-4.3,2.4-4.3,3c0,1.4,0.6,2.7,4.6,3.5c3.8,0.8,6.2,1.9,6.2,4.9c0,3.2-2.1,4.9-5.9,4.9c-2.6,0-4.9-0.3-7-0.8l0.3-1.4
	c2.7,0.6,5.3,0.8,6.4,0.8C337.4,275.5,337.6,272.8,337.6,272 M343.5,252.5h1.8v3.8h-1.8V252.5z M343.5,259.4h1.8v17.1h-1.8V259.4z
	 M357.3,259c2.1,0,3.7,0.3,5.6,0.8l-0.3,1.4c-2.7-0.6-4.1-0.6-5.3-0.6c-4.5,0-6.2,3.2-6.2,7.5c0,4,1.6,7.5,6.2,7.5
	c1.1,0,2.7,0,5.3-0.6l0.3,1.4c-2.1,0.5-3.5,0.8-5.6,0.8c-5.9,0-8-3.7-8-8.9C349.4,262.7,351.4,259,357.3,259 M367.9,276.6h-1.8
	v-24.1h1.8v14.8l10.1-8h2.2l-6.9,5.7l7.2,11.5h-2.1l-6.2-10.4l-4.3,3.4V276.6 M392.3,276.6h-1.8v-17.1h1.8v2.6
	c1.8-1.8,4-2.9,6.5-2.9c3.4,0,5.1,1.9,5.1,5.6v11.8h-1.8v-11.5c0-2.4-1-4.5-4.1-4.5c-2.6,0-4.8,1.6-5.9,2.6v13.4 M410.2,268.1
	c0,4.3,1.8,7.3,6.5,7.3c1.9,0,3.5-0.2,5.3-0.6l0.3,1.4c-2.1,0.5-3.7,0.8-5.9,0.8c-6.1,0-8.1-3.7-8.1-8.9s2.2-8.9,8-8.9
	c6.9,0,7,5.7,6.2,8.9H410.2 M410.2,266.9H421c0.5-2.9-0.2-6.5-4.8-6.5C411.8,260.5,410.5,263.4,410.2,266.9z M437.3,262.1l-4.3,14.7
	h-1.9l-5.4-17.4h1.9l4.6,15.3l4.3-15.3h1.8l4.3,15.3h0.2l4.5-15.3h1.8l-5.3,17.4h-1.9L437.3,262.1 M454.9,261.1
	c1.4-1.3,3.5-2.1,5.7-2.1c4.8,0,6.4,3.8,6.4,8.9s-1.8,8.9-6.5,8.9c-2.2,0-4.3-0.8-5.7-1.9l-0.3,1.8h-1.3v-23.9h1.8V261.1 M460,260.5
	c-2.2,0-4.3,1.1-5.1,1.9v11.2c0.8,0.6,2.9,1.8,5.1,1.8c4.1,0,5.3-3.5,5.3-7.5C465.2,264,464.1,260.5,460,260.5z M471,268
	c0-5.3,2.1-8.9,7.5-8.9c5.4,0,7.5,3.7,7.5,8.9s-2.1,8.9-7.5,8.9C472.9,276.9,471,273.3,471,268 M472.7,268c0,4,1.3,7.5,5.6,7.5
	s5.6-3.4,5.6-7.5c0-4-1.3-7.5-5.6-7.5S472.7,264,472.7,268z M491.9,276.6h-1.8v-17.1h1.8v2.7c1.8-1.6,4.1-3,7-3v1.6
	c-2.9,0-5.6,1.6-7,2.6V276.6 M504.5,276.6h-1.8v-17.1h1.8v2.6c1.8-1.8,4-2.9,6.5-2.9c3.4,0,5.1,1.9,5.1,5.6v11.8h-1.8v-11.5
	c0-2.4-1-4.5-4.1-4.5c-2.6,0-4.8,1.6-5.9,2.6v13.4 M527.8,259.7c2.2-0.5,4.5-0.6,6.1-0.6c3.8,0,5.9,1.3,5.9,5.6v11.8H538v-1.8
	c-1.8,1.4-3.4,2.1-5.7,2.1c-3.4,0-5.6-1.8-5.6-4.8c0-3.5,2.6-5.1,7.2-5.1h4.3v-2.1c0-2.7-1.1-4.1-4.5-4.1c-1.3,0-2.9,0.2-5.6,0.6
	L527.8,259.7 M538,268.1h-4.1c-4.3,0-5.6,1.4-5.6,3.8c0,2.1,1.6,3.7,4.5,3.7c2.6,0,4.3-1.1,5.3-1.9L538,268.1L538,268.1z
	 M546.2,276.6h-1.8v-17.1h1.8v2.6c1.8-1.8,4-2.9,6.5-2.9c3.4,0,5.1,1.9,5.1,5.6v11.8H556v-11.5c0-2.4-1-4.5-4.1-4.5
	c-2.6,0-4.8,1.6-5.9,2.6v13.4 M574.4,274.8c-1.4,1.3-3.5,2.1-5.7,2.1c-4.8,0-6.4-3.8-6.4-8.9c0-5.1,1.8-8.9,6.5-8.9
	c2.2,0,4.3,0.8,5.6,2.1v-8.5h1.8v23.9h-1.8V274.8 M569.3,275.3c2.2,0,4.3-1.1,5.1-1.8v-11.2c-0.8-0.8-2.9-1.9-5.1-1.9
	c-4.1,0-5.3,3.5-5.3,7.5C564,272,565.1,275.3,569.3,275.3z M588.1,260.6h-2.9v-1.1l2.9-0.2l0.2-4.8h1.4v4.8h5.3v1.3h-5.3v10.5
	c0,2.7,0.6,4.3,3.4,4.3c0.6,0,1.1,0,1.9-0.2l0.2,1.3c-0.8,0.2-1.8,0.2-2.6,0.2c-3,0-4.6-1.3-4.6-5.4v-10.7 M601.4,276.6h-1.8v-23.9
	h1.8v9.4c1.8-1.8,4-2.9,6.5-2.9c3.4,0,5.1,1.9,5.1,5.6v11.8h-1.8v-11.5c0-2.4-1-4.5-4.1-4.5c-2.6,0-4.8,1.6-5.9,2.6v13.4
	 M619.2,268.1c0,4.3,1.6,7.3,6.5,7.3c1.9,0,3.5-0.2,5.3-0.6l0.3,1.4c-2.1,0.5-3.7,0.8-5.9,0.8c-6.1,0-8.1-3.7-8.1-8.9s2.2-8.9,8-8.9
	c6.9,0,7,5.7,6.2,8.9H619.2 M619.2,266.9h10.9c0.5-2.9-0.2-6.5-4.8-6.5C621,260.5,619.6,263.4,619.2,266.9z M636,252.5h1.8v3.8H636
	V252.5z M636,259.4h1.8v17.1H636V259.4z M644,276.6h-1.8v-17.1h1.8v2.7c1.8-1.6,4.1-3,7-3v1.6c-2.9,0-5.6,1.6-7,2.6V276.6
	 M662.8,261.1c1.4-1.3,3.5-2.1,5.7-2.1c4.8,0,6.4,3.8,6.4,8.9s-1.8,8.9-6.5,8.9c-2.2,0-4.3-0.8-5.6-1.9v8.5h-1.8v-23.9h1.8V261.1
	 M667.9,260.5c-2.2,0-4.3,1.1-5.1,1.9v11.2c0.8,0.6,2.9,1.8,5.1,1.8c4.1,0,5.3-3.5,5.3-7.5C673.2,264,672.1,260.5,667.9,260.5z
	 M679.9,259.7c2.2-0.5,4.5-0.6,6.1-0.6c3.8,0,5.9,1.3,5.9,5.6v11.8h-1.8v-1.8c-1.8,1.4-3.4,2.1-5.7,2.1c-3.4,0-5.6-1.8-5.6-4.8
	c0-3.5,2.6-5.1,7.2-5.1h4.3v-2.1c0-2.7-1.1-4.1-4.5-4.1c-1.3,0-2.9,0.2-5.6,0.6L679.9,259.7 M690.3,268.1h-4.1
	c-4.3,0-5.6,1.4-5.6,3.8c0,2.1,1.6,3.7,4.5,3.7c2.6,0,4.3-1.1,5.3-1.9L690.3,268.1L690.3,268.1z M698.3,276.6h-1.8v-17.1h1.8v2.7
	c1.8-1.6,4.1-3,7-3v1.6c-2.9,0-5.6,1.6-7,2.6V276.6 M710.1,268.1c0,4.3,1.8,7.3,6.5,7.3c1.9,0,3.5-0.2,5.3-0.6l0.3,1.4
	c-2.1,0.5-3.7,0.8-5.9,0.8c-6.1,0-8.3-3.7-8.3-8.9s2.2-8.9,8-8.9c6.9,0,7,5.7,6.2,8.9H710.1 M710.1,266.9h10.9
	c0.5-2.9-0.2-6.5-4.8-6.5C711.7,260.5,710.4,263.4,710.1,266.9z M728.4,276.6h-1.8v-17.1h1.8v2.6c1.8-1.8,4-2.9,6.5-2.9
	c3.4,0,5.1,1.9,5.1,5.6v11.8h-1.8v-11.5c0-2.4-1-4.5-4.1-4.5c-2.6,0-4.8,1.6-5.9,2.6v13.4 M746.1,260.6h-2.9v-1.1l2.9-0.2l0.2-4.8
	h1.4v4.8h5.3v1.3h-5.3v10.5c0,2.7,0.6,4.3,3.4,4.3c0.6,0,1.1,0,1.9-0.2l0.2,1.3c-0.8,0.2-1.8,0.2-2.6,0.2c-3,0-4.6-1.3-4.6-5.4
	v-10.7 M768.3,272c0-1.4-0.6-2.7-4.8-3.5c-3.4-0.6-6.1-1.8-6.1-5.1c0-2.9,2.1-4.5,5.9-4.5c2.6,0,4.5,0.2,6.5,0.8l-0.3,1.4
	c-2.7-0.6-4.9-0.6-6.1-0.6c-4.1,0-4.3,2.4-4.3,3c0,1.4,0.6,2.7,4.6,3.5c3.8,0.8,6.2,1.9,6.2,4.9c0,3.2-2.1,4.9-5.9,4.9
	c-2.6,0-4.9-0.3-7-0.8l0.3-1.4c2.7,0.6,5.3,0.8,6.4,0.8C768,275.5,768.3,272.8,768.3,272"/>
</svg>
