<svg xmlns="http://www.w3.org/2000/svg" width="100" height="100" viewBox="0 0 100 100"><path d="M66.4 27.1C73.9 27.1 80 21 80 13.5 80 6.1 73.9 0 66.4 0 59 0 52.9 6.1 52.9 13.5c0 7.5 6.1 13.6 13.5 13.6zM95.6 45s.8-15.1-15.2-15.1H52.8c-2.6 0-4.7.4-6.5 1 10.5.5 15.4 6.9 16.5 10.3.3.9 7.1 21.3 5.7 27.5-.9 4-5.6 7.4-9.2 9.5l6.5 21.2.2.6h18.4l.9-12c0 2.3 2.2 4.9 5.1 4.9 2.8 0 5.1-2.7 5.3-5L95.6 45zM36.4 30.9c7.2 0 13-6 13-13.4C49.4 10 43.6 4 36.4 4s-13 6-13 13.5c0 7.4 5.8 13.4 13 13.4z"/><path d="M59.5 42.3c-.6-2-4.3-7.9-14.3-8l-19.6.1c-9.7-.5-13.6 5.2-14.2 7.7 0 0-6.6 21-5.4 25.8.7 3 5.9 6.7 11.5 9.4L9.9 100h52.3L55 76.6c5-2.6 9.3-5.9 10-8.7 1.1-4.9-5.5-25.6-5.5-25.6zM27.6 65.4c-.9.4-1.9.6-3 .6-4.1 0-7.4-3.4-7.4-7.5s3.3-7.5 7.4-7.5c4 0 7.3 3.2 7.4 7.3 1.3-.9 2.6-1.3 3.6-1.5 1.5-.3 2.6 0 2.6 0 4.9 1.1 15.8 5.9 15.8 5.9S48.2 70 37.6 70h-.8c-1 0-1.9-.1-2.6-.2-5.1-.6-6.5-2.5-6.6-4.4z"/></svg>